<svg width="479" height="128" viewBox="0 0 479 128" fill="none" xmlns="http://www.w3.org/2000/svg">
<path d="M351 64C351 28.6538 379.654 0 415 0C450.346 0 479 28.6538 479 64C479 99.3462 450.346 128 415 128C379.654 128 351 99.3462 351 64Z" fill="#56C7E4"/>
<path d="M399.623 69V58.878H401.415L404.467 67.236L407.561 58.878H409.346V69H408.009V60.817L405.076 69H403.865L400.953 60.894V69H399.623ZM413.747 69.14C413.275 69.14 412.86 69.0583 412.501 68.895C412.146 68.727 411.866 68.4867 411.661 68.174C411.46 67.8613 411.36 67.4833 411.36 67.04C411.36 66.2373 411.64 65.64 412.2 65.248C412.76 64.856 413.658 64.646 414.895 64.618L416.183 64.583V64.016C416.183 63.5727 416.05 63.2227 415.784 62.966C415.518 62.7047 415.107 62.574 414.552 62.574C414.136 62.5787 413.77 62.6767 413.453 62.868C413.135 63.0593 412.932 63.372 412.844 63.806H411.703C411.731 63.3347 411.861 62.938 412.095 62.616C412.333 62.2893 412.666 62.042 413.096 61.874C413.525 61.706 414.031 61.622 414.615 61.622C415.245 61.622 415.767 61.7107 416.183 61.888C416.603 62.0653 416.915 62.3267 417.121 62.672C417.331 63.0173 417.436 63.442 417.436 63.946V69H416.33L416.232 67.642C415.956 68.2067 415.602 68.5987 415.168 68.818C414.738 69.0327 414.265 69.14 413.747 69.14ZM414.132 68.209C414.379 68.209 414.622 68.1647 414.86 68.076C415.102 67.9873 415.322 67.8683 415.518 67.719C415.718 67.565 415.879 67.3947 416.001 67.208C416.122 67.0167 416.183 66.8207 416.183 66.62V65.381L415.112 65.402C414.556 65.4113 414.094 65.4673 413.726 65.57C413.357 65.6727 413.079 65.8337 412.893 66.053C412.706 66.2723 412.613 66.5593 412.613 66.914C412.613 67.32 412.755 67.6373 413.04 67.866C413.324 68.0947 413.688 68.209 414.132 68.209ZM419.455 69V61.762H420.687V63.155C420.808 62.8097 420.978 62.525 421.198 62.301C421.417 62.0723 421.667 61.902 421.947 61.79C422.231 61.678 422.525 61.622 422.829 61.622C422.936 61.622 423.041 61.629 423.144 61.643C423.246 61.657 423.326 61.6803 423.382 61.713V62.966C423.312 62.9333 423.221 62.9123 423.109 62.903C423.001 62.889 422.91 62.882 422.836 62.882C422.546 62.8633 422.276 62.882 422.024 62.938C421.772 62.9893 421.55 63.0803 421.359 63.211C421.167 63.3417 421.016 63.5143 420.904 63.729C420.796 63.939 420.743 64.1957 420.743 64.499V69H419.455ZM424.924 69V58.598H426.212V65.381L429.614 61.762H431.098L428.487 64.52L431.28 69H429.908L427.64 65.367L426.212 66.844V69H424.924Z" fill="black"/>
<path d="M0 64C0 28.6538 28.6538 0 64 0C99.3462 0 128 28.6538 128 64C128 99.3462 99.3462 128 64 128C28.6538 128 0 99.3462 0 64Z" fill="#C990C0"/>
<path d="M51.5312 69L55.1922 58.878H56.6552L60.3162 69H58.9932L57.9992 66.228H53.8482L52.8472 69H51.5312ZM54.1912 65.038H57.6422L55.9202 60.145L54.1912 65.038ZM61.9606 69V61.762H63.2136V62.812C63.3303 62.6113 63.4913 62.4223 63.6966 62.245C63.9066 62.0677 64.1586 61.9253 64.4526 61.818C64.7513 61.7107 65.0943 61.657 65.4816 61.657C65.939 61.657 66.359 61.748 66.7416 61.93C67.129 62.112 67.437 62.3967 67.6656 62.784C67.899 63.1667 68.0156 63.6613 68.0156 64.268V69H66.7206V64.394C66.7206 63.8293 66.5713 63.4117 66.2726 63.141C65.9786 62.8657 65.596 62.728 65.1246 62.728C64.798 62.728 64.4923 62.7817 64.2076 62.889C63.923 62.9917 63.692 63.1503 63.5146 63.365C63.3373 63.575 63.2486 63.841 63.2486 64.163V69H61.9606ZM70.0407 69V61.762H71.2937V62.812C71.4104 62.6113 71.5714 62.4223 71.7767 62.245C71.9867 62.0677 72.2387 61.9253 72.5327 61.818C72.8314 61.7107 73.1744 61.657 73.5617 61.657C74.0191 61.657 74.4391 61.748 74.8217 61.93C75.2091 62.112 75.5171 62.3967 75.7457 62.784C75.9791 63.1667 76.0957 63.6613 76.0957 64.268V69H74.8007V64.394C74.8007 63.8293 74.6514 63.4117 74.3527 63.141C74.0587 62.8657 73.6761 62.728 73.2047 62.728C72.8781 62.728 72.5724 62.7817 72.2877 62.889C72.0031 62.9917 71.7721 63.1503 71.5947 63.365C71.4174 63.575 71.3287 63.841 71.3287 64.163V69H70.0407Z" fill="black"/>
<path d="M348.207 64.7071C348.598 64.3166 348.598 63.6834 348.207 63.2929L341.843 56.9289C341.453 56.5384 340.819 56.5384 340.429 56.9289C340.038 57.3195 340.038 57.9526 340.429 58.3431L346.086 64L340.429 69.6569C340.038 70.0474 340.038 70.6805 340.429 71.0711C340.819 71.4616 341.453 71.4616 341.843 71.0711L348.207 64.7071ZM313.958 63C313.406 63 312.958 63.4477 312.958 64C312.958 64.5523 313.406 65 313.958 65V64V63ZM157.958 65C158.51 65 158.958 64.5523 158.958 64C158.958 63.4477 158.51 63 157.958 63V64V65ZM131.5 63C130.948 63 130.5 63.4477 130.5 64C130.5 64.5523 130.948 65 131.5 65V64V63ZM347.5 64V63H313.958V64V65H347.5V64ZM157.958 64V63H131.5V64V65H157.958V64Z" fill="black" fill-opacity="0.8"/>
<path d="M167.766 68.5568C167.455 68.5568 167.188 68.447 166.965 68.2273C166.741 68.0038 166.63 67.7348 166.63 67.4205C166.63 67.1098 166.741 66.8447 166.965 66.625C167.188 66.4015 167.455 66.2898 167.766 66.2898C168.077 66.2898 168.344 66.4015 168.567 66.625C168.791 66.8447 168.902 67.1098 168.902 67.4205C168.902 67.6288 168.849 67.8201 168.743 67.9943C168.641 68.1648 168.505 68.3011 168.334 68.4034C168.164 68.5057 167.974 68.5568 167.766 68.5568ZM167.766 62.7273C167.455 62.7273 167.188 62.6174 166.965 62.3977C166.741 62.1742 166.63 61.9053 166.63 61.5909C166.63 61.2803 166.741 61.0152 166.965 60.7955C167.188 60.572 167.455 60.4602 167.766 60.4602C168.077 60.4602 168.344 60.572 168.567 60.7955C168.791 61.0152 168.902 61.2803 168.902 61.5909C168.902 61.7992 168.849 61.9905 168.743 62.1648C168.641 62.3352 168.505 62.4716 168.334 62.5739C168.164 62.6761 167.974 62.7273 167.766 62.7273ZM172.894 58.3636V70H171.138V58.3636H172.894ZM181.621 61.4205C181.561 60.8826 181.311 60.4659 180.871 60.1705C180.432 59.8712 179.879 59.7216 179.212 59.7216C178.735 59.7216 178.322 59.7973 177.974 59.9489C177.625 60.0966 177.354 60.3011 177.161 60.5625C176.972 60.8201 176.877 61.1136 176.877 61.4432C176.877 61.7197 176.941 61.9583 177.07 62.1591C177.203 62.3598 177.375 62.5284 177.587 62.6648C177.803 62.7973 178.034 62.9091 178.28 63C178.527 63.0871 178.763 63.1591 178.991 63.2159L180.127 63.5114C180.498 63.6023 180.879 63.7254 181.269 63.8807C181.659 64.036 182.021 64.2405 182.354 64.4943C182.688 64.7481 182.957 65.0625 183.161 65.4375C183.369 65.8125 183.474 66.2614 183.474 66.7841C183.474 67.4432 183.303 68.0284 182.962 68.5398C182.625 69.0511 182.135 69.4545 181.491 69.75C180.85 70.0455 180.076 70.1932 179.167 70.1932C178.296 70.1932 177.542 70.0549 176.905 69.7784C176.269 69.5019 175.771 69.1098 175.411 68.6023C175.051 68.0909 174.852 67.4848 174.815 66.7841H176.576C176.61 67.2045 176.746 67.5549 176.985 67.8352C177.227 68.1117 177.536 68.3182 177.911 68.4545C178.29 68.5871 178.705 68.6534 179.155 68.6534C179.652 68.6534 180.093 68.5758 180.479 68.4205C180.869 68.2614 181.176 68.0417 181.4 67.7614C181.623 67.4773 181.735 67.1458 181.735 66.767C181.735 66.4223 181.636 66.1402 181.44 65.9205C181.246 65.7008 180.983 65.5189 180.65 65.375C180.32 65.2311 179.947 65.1042 179.53 64.9943L178.155 64.6193C177.224 64.3655 176.485 63.9924 175.94 63.5C175.398 63.0076 175.127 62.3561 175.127 61.5455C175.127 60.875 175.309 60.2898 175.672 59.7898C176.036 59.2898 176.529 58.9015 177.15 58.625C177.771 58.3447 178.472 58.2045 179.252 58.2045C180.04 58.2045 180.735 58.3428 181.337 58.6193C181.943 58.8958 182.421 59.2765 182.769 59.7614C183.118 60.2424 183.299 60.7955 183.315 61.4205H181.621ZM191.492 70V71.4432H184.1V70H191.492ZM192.579 70V58.3636H199.795V59.875H194.335V63.4205H199.278V64.9261H194.335V70H192.579ZM201.778 70V58.3636H205.926C206.827 58.3636 207.575 58.5189 208.17 58.8295C208.769 59.1402 209.215 59.5701 209.511 60.1193C209.806 60.6648 209.954 61.2955 209.954 62.0114C209.954 62.7235 209.804 63.3504 209.505 63.892C209.21 64.4299 208.763 64.8485 208.164 65.1477C207.57 65.447 206.822 65.5966 205.92 65.5966H202.778V64.0852H205.761C206.329 64.0852 206.791 64.0038 207.147 63.8409C207.507 63.678 207.77 63.4413 207.937 63.1307C208.104 62.8201 208.187 62.447 208.187 62.0114C208.187 61.572 208.102 61.1913 207.931 60.8693C207.765 60.5473 207.501 60.3011 207.142 60.1307C206.786 59.9564 206.318 59.8693 205.738 59.8693H203.534V70H201.778ZM207.522 64.75L210.397 70H208.397L205.579 64.75H207.522ZM213.67 58.3636V70H211.914V58.3636H213.67ZM216.051 70V58.3636H223.346V59.875H217.807V63.4205H222.966V64.9261H217.807V68.4886H223.415V70H216.051ZM234.908 58.3636V70H233.294L227.379 61.4659H227.271V70H225.516V58.3636H227.141L233.061 66.9091H233.169V58.3636H234.908ZM241.06 70H237.293V58.3636H241.179C242.319 58.3636 243.298 58.5966 244.117 59.0625C244.935 59.5246 245.562 60.1894 245.997 61.0568C246.437 61.9205 246.656 62.9564 246.656 64.1648C246.656 65.3769 246.435 66.4186 245.992 67.2898C245.552 68.161 244.916 68.8314 244.083 69.3011C243.249 69.767 242.242 70 241.06 70ZM239.048 68.4659H240.963C241.85 68.4659 242.586 68.2992 243.173 67.9659C243.761 67.6288 244.2 67.142 244.492 66.5057C244.783 65.8655 244.929 65.0852 244.929 64.1648C244.929 63.2519 244.783 62.4773 244.492 61.8409C244.204 61.2045 243.774 60.7216 243.202 60.392C242.63 60.0625 241.92 59.8977 241.071 59.8977H239.048V68.4659ZM255.01 61.4205C254.95 60.8826 254.7 60.4659 254.26 60.1705C253.821 59.8712 253.268 59.7216 252.601 59.7216C252.124 59.7216 251.711 59.7973 251.362 59.9489C251.014 60.0966 250.743 60.3011 250.55 60.5625C250.361 60.8201 250.266 61.1136 250.266 61.4432C250.266 61.7197 250.33 61.9583 250.459 62.1591C250.592 62.3598 250.764 62.5284 250.976 62.6648C251.192 62.7973 251.423 62.9091 251.669 63C251.915 63.0871 252.152 63.1591 252.38 63.2159L253.516 63.5114C253.887 63.6023 254.268 63.7254 254.658 63.8807C255.048 64.036 255.41 64.2405 255.743 64.4943C256.076 64.7481 256.345 65.0625 256.55 65.4375C256.758 65.8125 256.862 66.2614 256.862 66.7841C256.862 67.4432 256.692 68.0284 256.351 68.5398C256.014 69.0511 255.523 69.4545 254.88 69.75C254.239 70.0455 253.465 70.1932 252.556 70.1932C251.684 70.1932 250.931 70.0549 250.294 69.7784C249.658 69.5019 249.16 69.1098 248.8 68.6023C248.44 68.0909 248.241 67.4848 248.203 66.7841H249.965C249.999 67.2045 250.135 67.5549 250.374 67.8352C250.616 68.1117 250.925 68.3182 251.3 68.4545C251.679 68.5871 252.094 68.6534 252.544 68.6534C253.04 68.6534 253.482 68.5758 253.868 68.4205C254.258 68.2614 254.565 68.0417 254.789 67.7614C255.012 67.4773 255.124 67.1458 255.124 66.767C255.124 66.4223 255.025 66.1402 254.828 65.9205C254.635 65.7008 254.372 65.5189 254.039 65.375C253.709 65.2311 253.336 65.1042 252.919 64.9943L251.544 64.6193C250.612 64.3655 249.874 63.9924 249.328 63.5C248.787 63.0076 248.516 62.3561 248.516 61.5455C248.516 60.875 248.698 60.2898 249.061 59.7898C249.425 59.2898 249.917 58.9015 250.539 58.625C251.16 58.3447 251.861 58.2045 252.641 58.2045C253.429 58.2045 254.124 58.3428 254.726 58.6193C255.332 58.8958 255.809 59.2765 256.158 59.7614C256.506 60.2424 256.688 60.7955 256.703 61.4205H255.01ZM264.881 70V71.4432H257.489V70H264.881ZM268.246 70L265.019 58.3636H266.866L269.133 67.375H269.241L271.599 58.3636H273.428L275.786 67.3807H275.894L278.155 58.3636H280.008L276.775 70H275.008L272.559 61.2841H272.468L270.019 70H268.246ZM283.188 58.3636V70H281.432V58.3636H283.188ZM284.995 59.875V58.3636H294.001V59.875H290.37V70H288.62V59.875H284.995ZM295.815 70V58.3636H297.571V63.4205H303.372V58.3636H305.133V70H303.372V64.9261H297.571V70H295.815Z" fill="black" fill-opacity="0.8"/>
</svg>
