<svg width="442" height="456" viewBox="0 0 442 456" fill="none" xmlns="http://www.w3.org/2000/svg">
<path d="M314 64C314 28.6538 342.654 0 378 0C413.346 0 442 28.6538 442 64C442 99.3462 413.346 128 378 128C342.654 128 314 99.3462 314 64Z" fill="#56C7E4"/>
<path d="M358.884 69V58.878H362.307C363.03 58.878 363.674 58.9993 364.239 59.242C364.804 59.4847 365.247 59.844 365.569 60.32C365.896 60.796 366.059 61.3817 366.059 62.077C366.059 62.749 365.907 63.323 365.604 63.799C365.305 64.275 364.888 64.6367 364.351 64.884C363.814 65.1313 363.191 65.255 362.482 65.255H360.214V69H358.884ZM360.207 64.163H362.454C363.149 64.163 363.714 63.9693 364.148 63.582C364.582 63.1947 364.799 62.6673 364.799 62C364.799 61.328 364.575 60.8193 364.127 60.474C363.679 60.1287 363.1 59.956 362.391 59.956H360.207V64.163ZM367.532 69V58.598H368.792V62.826C368.913 62.6253 369.077 62.4387 369.282 62.266C369.487 62.0887 369.737 61.9463 370.031 61.839C370.325 61.727 370.666 61.671 371.053 61.671C371.524 61.671 371.951 61.7597 372.334 61.937C372.717 62.1097 373.02 62.357 373.244 62.679C373.468 63.001 373.58 63.3837 373.58 63.827V69H372.285V64.086C372.285 63.652 372.136 63.3183 371.837 63.085C371.543 62.847 371.158 62.728 370.682 62.728C370.36 62.728 370.057 62.7817 369.772 62.889C369.487 62.9917 369.256 63.1503 369.079 63.365C368.906 63.575 368.82 63.8433 368.82 64.17V69H367.532ZM378.496 69.14C377.829 69.14 377.246 68.9977 376.746 68.713C376.252 68.4237 375.867 68.0013 375.591 67.446C375.316 66.8907 375.178 66.2117 375.178 65.409C375.178 64.653 375.307 63.9903 375.563 63.421C375.82 62.8517 376.196 62.4107 376.69 62.098C377.185 61.7807 377.789 61.622 378.503 61.622C379.171 61.622 379.749 61.769 380.239 62.063C380.729 62.3523 381.11 62.7793 381.38 63.344C381.656 63.9087 381.793 64.597 381.793 65.409C381.793 66.1463 381.667 66.795 381.415 67.355C381.163 67.915 380.792 68.3537 380.302 68.671C379.817 68.9837 379.215 69.14 378.496 69.14ZM378.503 68.118C378.933 68.118 379.297 68.0083 379.595 67.789C379.894 67.5697 380.12 67.2547 380.274 66.844C380.433 66.4333 380.512 65.9457 380.512 65.381C380.512 64.863 380.442 64.3987 380.302 63.988C380.167 63.5727 379.952 63.2437 379.658 63.001C379.364 62.7583 378.979 62.637 378.503 62.637C378.065 62.637 377.694 62.7467 377.39 62.966C377.087 63.1807 376.856 63.4933 376.697 63.904C376.543 64.3147 376.466 64.807 376.466 65.381C376.466 65.8897 376.534 66.3517 376.669 66.767C376.809 67.1823 377.029 67.5113 377.327 67.754C377.631 67.9967 378.023 68.118 378.503 68.118ZM383.514 69V61.762H384.767V62.812C384.884 62.6113 385.045 62.4223 385.25 62.245C385.46 62.0677 385.712 61.9253 386.006 61.818C386.305 61.7107 386.648 61.657 387.035 61.657C387.493 61.657 387.913 61.748 388.295 61.93C388.683 62.112 388.991 62.3967 389.219 62.784C389.453 63.1667 389.569 63.6613 389.569 64.268V69H388.274V64.394C388.274 63.8293 388.125 63.4117 387.826 63.141C387.532 62.8657 387.15 62.728 386.678 62.728C386.352 62.728 386.046 62.7817 385.761 62.889C385.477 62.9917 385.246 63.1503 385.068 63.365C384.891 63.575 384.802 63.841 384.802 64.163V69H383.514ZM394.653 69.14C393.981 69.14 393.389 68.993 392.875 68.699C392.362 68.405 391.961 67.9827 391.671 67.432C391.382 66.8813 391.237 66.221 391.237 65.451C391.237 64.6903 391.368 64.023 391.629 63.449C391.891 62.875 392.269 62.427 392.763 62.105C393.263 61.783 393.862 61.622 394.562 61.622C395.244 61.622 395.82 61.769 396.291 62.063C396.763 62.357 397.12 62.7723 397.362 63.309C397.61 63.841 397.733 64.4733 397.733 65.206V65.682H392.546C392.546 66.1393 392.621 66.5547 392.77 66.928C392.924 67.2967 393.155 67.5907 393.463 67.81C393.771 68.0293 394.161 68.139 394.632 68.139C395.094 68.139 395.491 68.0317 395.822 67.817C396.158 67.6023 396.373 67.292 396.466 66.886H397.684C397.6 67.376 397.404 67.789 397.096 68.125C396.793 68.461 396.427 68.7153 395.997 68.888C395.573 69.056 395.125 69.14 394.653 69.14ZM392.553 64.807H396.487C396.487 64.3917 396.417 64.0183 396.277 63.687C396.137 63.351 395.923 63.0873 395.633 62.896C395.349 62.7 394.989 62.602 394.555 62.602C394.103 62.602 393.727 62.7117 393.428 62.931C393.13 63.1457 392.908 63.4233 392.763 63.764C392.619 64.1 392.549 64.4477 392.553 64.807Z" fill="#1A1B1D"/>
<path d="M314 228C314 192.654 342.654 164 378 164C413.346 164 442 192.654 442 228C442 263.346 413.346 292 378 292C342.654 292 314 263.346 314 228Z" fill="#C990C0"/>
<path d="M361.283 233V222.878H367.667L367.66 224.019H362.585V227.323H367.156V228.457H362.578V231.831L367.8 231.845V233H361.283ZM369.521 233V225.762H370.767V226.812C370.968 226.495 371.243 226.217 371.593 225.979C371.943 225.741 372.398 225.622 372.958 225.622C373.22 225.622 373.486 225.666 373.756 225.755C374.032 225.844 374.284 225.977 374.512 226.154C374.741 226.331 374.918 226.548 375.044 226.805C375.268 226.45 375.572 226.166 375.954 225.951C376.337 225.732 376.769 225.622 377.249 225.622C377.501 225.622 377.765 225.662 378.04 225.741C378.316 225.816 378.57 225.951 378.803 226.147C379.041 226.338 379.235 226.607 379.384 226.952C379.534 227.293 379.608 227.731 379.608 228.268V233H378.306V228.394C378.306 227.955 378.236 227.617 378.096 227.379C377.956 227.136 377.772 226.966 377.543 226.868C377.319 226.77 377.079 226.721 376.822 226.721C376.598 226.721 376.36 226.765 376.108 226.854C375.856 226.943 375.642 227.092 375.464 227.302C375.287 227.512 375.198 227.799 375.198 228.163V233H373.91V228.016C373.91 227.731 373.833 227.493 373.679 227.302C373.53 227.111 373.341 226.966 373.112 226.868C372.888 226.77 372.664 226.721 372.44 226.721C372.193 226.721 371.943 226.77 371.691 226.868C371.444 226.966 371.234 227.122 371.061 227.337C370.893 227.547 370.809 227.822 370.809 228.163V233H369.521ZM383.637 233.14C383.166 233.14 382.75 233.058 382.391 232.895C382.036 232.727 381.756 232.487 381.551 232.174C381.35 231.861 381.25 231.483 381.25 231.04C381.25 230.237 381.53 229.64 382.09 229.248C382.65 228.856 383.548 228.646 384.785 228.618L386.073 228.583V228.016C386.073 227.573 385.94 227.223 385.674 226.966C385.408 226.705 384.997 226.574 384.442 226.574C384.027 226.579 383.66 226.677 383.343 226.868C383.026 227.059 382.823 227.372 382.734 227.806H381.593C381.621 227.335 381.752 226.938 381.985 226.616C382.223 226.289 382.557 226.042 382.986 225.874C383.415 225.706 383.922 225.622 384.505 225.622C385.135 225.622 385.658 225.711 386.073 225.888C386.493 226.065 386.806 226.327 387.011 226.672C387.221 227.017 387.326 227.442 387.326 227.946V233H386.22L386.122 231.642C385.847 232.207 385.492 232.599 385.058 232.818C384.629 233.033 384.155 233.14 383.637 233.14ZM384.022 232.209C384.269 232.209 384.512 232.165 384.75 232.076C384.993 231.987 385.212 231.868 385.408 231.719C385.609 231.565 385.77 231.395 385.891 231.208C386.012 231.017 386.073 230.821 386.073 230.62V229.381L385.002 229.402C384.447 229.411 383.985 229.467 383.616 229.57C383.247 229.673 382.97 229.834 382.783 230.053C382.596 230.272 382.503 230.559 382.503 230.914C382.503 231.32 382.645 231.637 382.93 231.866C383.215 232.095 383.579 232.209 384.022 232.209ZM389.38 233V225.762H390.633V233H389.38ZM389.345 224.229V222.885H390.668V224.229H389.345ZM394.713 233.091C394.321 233.091 394.004 233.037 393.761 232.93C393.523 232.823 393.339 232.678 393.208 232.496C393.082 232.314 392.996 232.106 392.949 231.873C392.907 231.635 392.886 231.39 392.886 231.138V222.598H394.16V231.012C394.16 231.376 394.23 231.649 394.37 231.831C394.515 232.013 394.716 232.113 394.972 232.132L395.364 232.139V232.979C395.257 233.012 395.145 233.037 395.028 233.056C394.912 233.079 394.807 233.091 394.713 233.091Z" fill="#F5F6F6"/>
<path d="M314 392C314 356.654 342.654 328 378 328C413.346 328 442 356.654 442 392C442 427.346 413.346 456 378 456C342.654 456 314 427.346 314 392Z" fill="#F79767"/>
<path d="M345.301 397V386.878H346.54L351.888 394.746V386.878H353.183V397H352.028L346.596 389.02V397H345.301ZM355.856 397V386.878H357.151V397H355.856ZM362.959 397V389.762H364.212V390.812C364.328 390.611 364.489 390.422 364.695 390.245C364.905 390.068 365.157 389.925 365.451 389.818C365.749 389.711 366.092 389.657 366.48 389.657C366.937 389.657 367.357 389.748 367.74 389.93C368.127 390.112 368.435 390.397 368.664 390.784C368.897 391.167 369.014 391.661 369.014 392.268V397H367.719V392.394C367.719 391.829 367.569 391.412 367.271 391.141C366.977 390.866 366.594 390.728 366.123 390.728C365.796 390.728 365.49 390.782 365.206 390.889C364.921 390.992 364.69 391.15 364.513 391.365C364.335 391.575 364.247 391.841 364.247 392.163V397H362.959ZM373.699 397.14C373.321 397.135 372.964 397.082 372.628 396.979C372.296 396.872 372.002 396.715 371.746 396.51C371.489 396.305 371.286 396.05 371.137 395.747C370.992 395.439 370.92 395.082 370.92 394.676V389.762H372.215V394.543C372.215 395.014 372.359 395.397 372.649 395.691C372.943 395.985 373.384 396.132 373.972 396.132C374.504 396.132 374.931 395.994 375.253 395.719C375.579 395.439 375.743 395.024 375.743 394.473V389.762H377.031V397H376.002L375.869 395.614C375.78 395.978 375.628 396.272 375.414 396.496C375.204 396.72 374.949 396.886 374.651 396.993C374.357 397.096 374.039 397.145 373.699 397.14ZM379.242 397V389.762H380.488V390.812C380.689 390.495 380.964 390.217 381.314 389.979C381.664 389.741 382.119 389.622 382.679 389.622C382.94 389.622 383.206 389.666 383.477 389.755C383.752 389.844 384.004 389.977 384.233 390.154C384.462 390.331 384.639 390.548 384.765 390.805C384.989 390.45 385.292 390.166 385.675 389.951C386.058 389.732 386.489 389.622 386.97 389.622C387.222 389.622 387.486 389.662 387.761 389.741C388.036 389.816 388.291 389.951 388.524 390.147C388.762 390.338 388.956 390.607 389.105 390.952C389.254 391.293 389.329 391.731 389.329 392.268V397H388.027V392.394C388.027 391.955 387.957 391.617 387.817 391.379C387.677 391.136 387.493 390.966 387.264 390.868C387.04 390.77 386.8 390.721 386.543 390.721C386.319 390.721 386.081 390.765 385.829 390.854C385.577 390.943 385.362 391.092 385.185 391.302C385.008 391.512 384.919 391.799 384.919 392.163V397H383.631V392.016C383.631 391.731 383.554 391.493 383.4 391.302C383.251 391.111 383.062 390.966 382.833 390.868C382.609 390.77 382.385 390.721 382.161 390.721C381.914 390.721 381.664 390.77 381.412 390.868C381.165 390.966 380.955 391.122 380.782 391.337C380.614 391.547 380.53 391.822 380.53 392.163V397H379.242ZM394.932 397.14C394.508 397.14 394.148 397.084 393.854 396.972C393.565 396.86 393.327 396.718 393.14 396.545C392.954 396.368 392.809 396.188 392.706 396.006C392.604 395.819 392.529 395.656 392.482 395.516L392.342 397H391.355V386.598H392.657V390.91C392.718 390.789 392.809 390.656 392.93 390.511C393.056 390.366 393.217 390.226 393.413 390.091C393.609 389.956 393.84 389.844 394.106 389.755C394.377 389.666 394.685 389.622 395.03 389.622C395.936 389.622 396.654 389.937 397.186 390.567C397.723 391.197 397.991 392.126 397.991 393.353C397.991 394.114 397.877 394.779 397.648 395.348C397.42 395.913 397.079 396.354 396.626 396.671C396.174 396.984 395.609 397.14 394.932 397.14ZM394.701 396.146C395.289 396.146 395.768 395.92 396.136 395.467C396.505 395.01 396.689 394.284 396.689 393.29C396.689 392.445 396.517 391.792 396.171 391.33C395.831 390.863 395.331 390.63 394.673 390.63C394.193 390.63 393.805 390.735 393.511 390.945C393.222 391.15 393.007 391.451 392.867 391.848C392.732 392.245 392.662 392.725 392.657 393.29C392.657 394.303 392.814 395.033 393.126 395.481C393.444 395.924 393.969 396.146 394.701 396.146ZM402.768 397.14C402.096 397.14 401.503 396.993 400.99 396.699C400.476 396.405 400.075 395.983 399.786 395.432C399.496 394.881 399.352 394.221 399.352 393.451C399.352 392.69 399.482 392.023 399.744 391.449C400.005 390.875 400.383 390.427 400.878 390.105C401.377 389.783 401.977 389.622 402.677 389.622C403.358 389.622 403.934 389.769 404.406 390.063C404.877 390.357 405.234 390.772 405.477 391.309C405.724 391.841 405.848 392.473 405.848 393.206V393.682H400.661C400.661 394.139 400.735 394.555 400.885 394.928C401.039 395.297 401.27 395.591 401.578 395.81C401.886 396.029 402.275 396.139 402.747 396.139C403.209 396.139 403.605 396.032 403.937 395.817C404.273 395.602 404.487 395.292 404.581 394.886H405.799C405.715 395.376 405.519 395.789 405.211 396.125C404.907 396.461 404.541 396.715 404.112 396.888C403.687 397.056 403.239 397.14 402.768 397.14ZM400.668 392.807H404.602C404.602 392.392 404.532 392.018 404.392 391.687C404.252 391.351 404.037 391.087 403.748 390.896C403.463 390.7 403.104 390.602 402.67 390.602C402.217 390.602 401.841 390.712 401.543 390.931C401.244 391.146 401.022 391.423 400.878 391.764C400.733 392.1 400.663 392.448 400.668 392.807ZM407.638 397V389.762H408.87V391.155C408.992 390.81 409.162 390.525 409.381 390.301C409.601 390.072 409.85 389.902 410.13 389.79C410.415 389.678 410.709 389.622 411.012 389.622C411.12 389.622 411.225 389.629 411.327 389.643C411.43 389.657 411.509 389.68 411.565 389.713V390.966C411.495 390.933 411.404 390.912 411.292 390.903C411.185 390.889 411.094 390.882 411.019 390.882C410.73 390.863 410.459 390.882 410.207 390.938C409.955 390.989 409.734 391.08 409.542 391.211C409.351 391.342 409.199 391.514 409.087 391.729C408.98 391.939 408.926 392.196 408.926 392.499V397H407.638Z" fill="#1A1B1D"/>
<path d="M0 228C0 192.654 28.6538 164 64 164C99.3462 164 128 192.654 128 228C128 263.346 99.3462 292 64 292C28.6538 292 0 263.346 0 228Z" fill="#FFDF81"/>
<path d="M49.852 233.14C48.942 233.14 48.165 232.932 47.521 232.517C46.8817 232.102 46.3917 231.504 46.051 230.725C45.715 229.946 45.547 229.005 45.547 227.904C45.547 226.807 45.715 225.874 46.051 225.104C46.387 224.334 46.8747 223.748 47.514 223.347C48.158 222.941 48.9373 222.738 49.852 222.738C50.566 222.738 51.1983 222.887 51.749 223.186C52.2997 223.48 52.743 223.874 53.079 224.369C53.415 224.864 53.6133 225.407 53.674 226H52.295C52.2203 225.603 52.078 225.244 51.868 224.922C51.658 224.6 51.3827 224.343 51.042 224.152C50.7013 223.961 50.293 223.865 49.817 223.865C49.2057 223.865 48.6877 224.01 48.263 224.299C47.843 224.584 47.5233 225.025 47.304 225.622C47.0893 226.219 46.982 226.985 46.982 227.918C46.982 229.327 47.2223 230.363 47.703 231.026C48.1883 231.684 48.893 232.013 49.817 232.013C50.293 232.013 50.7013 231.913 51.042 231.712C51.3827 231.511 51.658 231.243 51.868 230.907C52.078 230.571 52.2203 230.207 52.295 229.815H53.674C53.6227 230.244 53.506 230.66 53.324 231.061C53.1467 231.458 52.9017 231.812 52.589 232.125C52.2763 232.438 51.8913 232.685 51.434 232.867C50.9813 233.049 50.454 233.14 49.852 233.14ZM57.3277 233.091C56.9357 233.091 56.6184 233.037 56.3757 232.93C56.1377 232.823 55.9534 232.678 55.8227 232.496C55.6967 232.314 55.6104 232.106 55.5637 231.873C55.5217 231.635 55.5007 231.39 55.5007 231.138V222.598H56.7747V231.012C56.7747 231.376 56.8447 231.649 56.9847 231.831C57.1294 232.013 57.33 232.113 57.5867 232.132L57.9787 232.139V232.979C57.8714 233.012 57.7594 233.037 57.6427 233.056C57.526 233.079 57.421 233.091 57.3277 233.091ZM59.7056 233V225.762H60.9586V233H59.7056ZM59.6706 224.229V222.885H60.9936V224.229H59.6706ZM66.1886 233.14C65.5166 233.14 64.9239 232.993 64.4106 232.699C63.8973 232.405 63.4959 231.983 63.2066 231.432C62.9173 230.881 62.7726 230.221 62.7726 229.451C62.7726 228.69 62.9033 228.023 63.1646 227.449C63.4259 226.875 63.8039 226.427 64.2986 226.105C64.7979 225.783 65.3976 225.622 66.0976 225.622C66.7789 225.622 67.3553 225.769 67.8266 226.063C68.2979 226.357 68.6549 226.772 68.8976 227.309C69.1449 227.841 69.2686 228.473 69.2686 229.206V229.682H64.0816C64.0816 230.139 64.1563 230.555 64.3056 230.928C64.4596 231.297 64.6906 231.591 64.9986 231.81C65.3066 232.029 65.6963 232.139 66.1676 232.139C66.6296 232.139 67.0263 232.032 67.3576 231.817C67.6936 231.602 67.9083 231.292 68.0016 230.886H69.2196C69.1356 231.376 68.9396 231.789 68.6316 232.125C68.3283 232.461 67.9619 232.715 67.5326 232.888C67.1079 233.056 66.6599 233.14 66.1886 233.14ZM64.0886 228.807H68.0226C68.0226 228.392 67.9526 228.018 67.8126 227.687C67.6726 227.351 67.4579 227.087 67.1686 226.896C66.8839 226.7 66.5246 226.602 66.0906 226.602C65.6379 226.602 65.2623 226.712 64.9636 226.931C64.6649 227.146 64.4433 227.423 64.2986 227.764C64.1539 228.1 64.0839 228.448 64.0886 228.807ZM71.0593 233V225.762H72.3123V226.812C72.4289 226.611 72.5899 226.422 72.7953 226.245C73.0053 226.068 73.2573 225.925 73.5513 225.818C73.8499 225.711 74.1929 225.657 74.5803 225.657C75.0376 225.657 75.4576 225.748 75.8403 225.93C76.2276 226.112 76.5356 226.397 76.7643 226.784C76.9976 227.167 77.1143 227.661 77.1143 228.268V233H75.8193V228.394C75.8193 227.829 75.6699 227.412 75.3713 227.141C75.0773 226.866 74.6946 226.728 74.2233 226.728C73.8966 226.728 73.5909 226.782 73.3063 226.889C73.0216 226.992 72.7906 227.15 72.6133 227.365C72.4359 227.575 72.3473 227.841 72.3473 228.163V233H71.0593ZM81.4916 233.035C80.9922 233.035 80.6049 232.967 80.3296 232.832C80.0542 232.697 79.8606 232.496 79.7486 232.23C79.6412 231.964 79.5876 231.637 79.5876 231.25V226.707H78.4116V225.762H79.6226L79.9376 223.655H80.8896V225.755H82.5206V226.707H80.8896V231.208C80.8896 231.465 80.9152 231.654 80.9666 231.775C81.0226 231.892 81.1136 231.966 81.2396 231.999C81.3656 232.032 81.5429 232.048 81.7716 232.048H82.5626V232.916C82.4739 232.949 82.3386 232.977 82.1566 233C81.9792 233.023 81.7576 233.035 81.4916 233.035Z" fill="#1A1B1D"/>
<path d="M311.197 357.907C311.724 357.741 312.017 357.18 311.852 356.653L309.157 348.066C308.992 347.539 308.431 347.246 307.904 347.411C307.377 347.577 307.084 348.138 307.249 348.665L309.644 356.298L302.011 358.693C301.484 358.859 301.191 359.42 301.357 359.947C301.522 360.474 302.083 360.767 302.61 360.602L311.197 357.907ZM282.667 342.208L282.204 343.094L282.204 343.094L282.667 342.208ZM267.167 334.112L267.63 333.226L267.63 333.226L267.167 334.112ZM263.677 332.29L263.214 333.176L263.214 333.176L263.677 332.29ZM251.735 324.924C251.246 324.669 250.642 324.858 250.386 325.348C250.13 325.837 250.32 326.442 250.81 326.697L251.735 324.924ZM185.473 292.572C185.962 292.828 186.566 292.638 186.822 292.149C187.078 291.659 186.888 291.055 186.399 290.799L185.473 292.572ZM173.552 285.218L173.089 286.105L173.089 286.105L173.552 285.218ZM170.042 283.385L170.505 282.498L170.505 282.498L170.042 283.385ZM154.542 275.289L154.079 276.175L154.079 276.175L154.542 275.289ZM131.565 262.16C131.076 261.905 130.472 262.094 130.216 262.584C129.96 263.073 130.15 263.678 130.64 263.933L131.565 262.16ZM311.361 356.066L283.13 341.321L282.204 343.094L310.435 357.839L311.361 356.066ZM283.13 341.321L267.63 333.226L266.704 334.999L282.204 343.094L283.13 341.321ZM267.63 333.226L264.14 331.403L263.214 333.176L266.704 334.999L267.63 333.226ZM264.14 331.403L251.735 324.924L250.81 326.697L263.214 333.176L264.14 331.403ZM186.399 290.799L174.015 284.332L173.089 286.105L185.473 292.572L186.399 290.799ZM174.015 284.332L170.505 282.498L169.579 284.271L173.089 286.105L174.015 284.332ZM170.505 282.498L155.005 274.403L154.079 276.175L169.579 284.271L170.505 282.498ZM155.005 274.403L131.565 262.16L130.64 263.933L154.079 276.175L155.005 274.403Z" fill="#1A1B1D"/>
<path d="M162.309 314.249V304.067H163.845V308.491H168.921V304.067H170.462V314.249H168.921V309.809H163.845V314.249H162.309ZM173.405 314.249H171.775L175.439 304.067H177.214L180.878 314.249H179.247L176.368 305.916H176.289L173.405 314.249ZM173.679 310.261H178.969V311.554H173.679V310.261ZM187.665 306.741C187.612 306.271 187.394 305.906 187.009 305.648C186.625 305.386 186.141 305.255 185.557 305.255C185.14 305.255 184.778 305.321 184.474 305.454C184.169 305.583 183.932 305.762 183.763 305.991C183.597 306.216 183.514 306.473 183.514 306.761C183.514 307.003 183.57 307.212 183.683 307.388C183.799 307.563 183.95 307.711 184.135 307.83C184.324 307.946 184.527 308.044 184.742 308.124C184.957 308.2 185.165 308.263 185.363 308.312L186.358 308.571C186.683 308.651 187.016 308.758 187.357 308.894C187.698 309.03 188.015 309.209 188.307 309.431C188.598 309.653 188.834 309.928 189.013 310.256C189.195 310.584 189.286 310.977 189.286 311.435C189.286 312.011 189.137 312.523 188.839 312.971C188.544 313.418 188.114 313.771 187.551 314.03C186.991 314.288 186.313 314.418 185.518 314.418C184.755 314.418 184.096 314.297 183.539 314.055C182.982 313.813 182.546 313.47 182.231 313.026C181.916 312.578 181.742 312.048 181.709 311.435H183.251C183.28 311.803 183.4 312.109 183.608 312.354C183.821 312.596 184.091 312.777 184.419 312.896C184.75 313.012 185.113 313.07 185.508 313.07C185.942 313.07 186.328 313.002 186.666 312.866C187.007 312.727 187.276 312.535 187.471 312.29C187.667 312.041 187.765 311.751 187.765 311.42C187.765 311.118 187.679 310.871 187.506 310.679C187.337 310.487 187.107 310.328 186.815 310.202C186.527 310.076 186.2 309.965 185.836 309.869L184.633 309.54C183.817 309.318 183.171 308.992 182.694 308.561C182.22 308.13 181.983 307.56 181.983 306.851C181.983 306.264 182.142 305.752 182.46 305.315C182.778 304.877 183.209 304.537 183.753 304.295C184.296 304.05 184.909 303.928 185.592 303.928C186.282 303.928 186.89 304.048 187.417 304.29C187.947 304.532 188.365 304.865 188.67 305.29C188.975 305.711 189.134 306.195 189.147 306.741H187.665ZM196.302 314.249V315.511H189.834V314.249H196.302ZM205.471 304.067V314.249H204.059L198.884 306.781H198.789V314.249H197.253V304.067H198.675L203.856 311.544H203.95V304.067H205.471ZM209.094 304.067V314.249H207.558V304.067H209.094ZM216.991 314.249V315.511H210.523V314.249H216.991ZM226.16 304.067V314.249H224.748L219.572 306.781H219.478V314.249H217.942V304.067H219.364L224.544 311.544H224.638V304.067H226.16ZM234.794 304.067H236.335V310.763C236.335 311.476 236.168 312.107 235.833 312.658C235.499 313.205 235.028 313.635 234.421 313.95C233.815 314.262 233.104 314.418 232.289 314.418C231.477 314.418 230.767 314.262 230.161 313.95C229.554 313.635 229.084 313.205 228.749 312.658C228.414 312.107 228.247 311.476 228.247 310.763V304.067H229.783V310.639C229.783 311.1 229.884 311.509 230.086 311.867C230.292 312.225 230.582 312.507 230.956 312.712C231.331 312.914 231.775 313.016 232.289 313.016C232.806 313.016 233.251 312.914 233.626 312.712C234.004 312.507 234.292 312.225 234.491 311.867C234.693 311.509 234.794 311.1 234.794 310.639V304.067ZM238.415 304.067H240.279L243.521 311.981H243.64L246.882 304.067H248.746V314.249H247.284V306.881H247.19L244.187 314.234H242.974L239.971 306.876H239.877V314.249H238.415V304.067ZM250.825 314.249V304.067H254.554C255.277 304.067 255.875 304.186 256.349 304.425C256.823 304.66 257.177 304.98 257.413 305.384C257.648 305.785 257.766 306.238 257.766 306.741C257.766 307.166 257.688 307.524 257.532 307.815C257.376 308.104 257.167 308.336 256.906 308.511C256.647 308.684 256.362 308.81 256.051 308.889V308.989C256.389 309.005 256.718 309.115 257.04 309.317C257.365 309.516 257.633 309.799 257.845 310.167C258.057 310.535 258.163 310.982 258.163 311.509C258.163 312.03 258.041 312.497 257.796 312.911C257.554 313.322 257.179 313.649 256.672 313.891C256.165 314.129 255.517 314.249 254.728 314.249H250.825ZM252.362 312.931H254.579C255.315 312.931 255.842 312.789 256.16 312.504C256.478 312.218 256.637 311.862 256.637 311.435C256.637 311.113 256.556 310.818 256.394 310.55C256.231 310.281 255.999 310.067 255.698 309.908C255.399 309.749 255.045 309.67 254.634 309.67H252.362V312.931ZM252.362 308.472H254.42C254.765 308.472 255.074 308.405 255.35 308.273C255.628 308.14 255.848 307.955 256.011 307.716C256.176 307.474 256.259 307.189 256.259 306.861C256.259 306.44 256.112 306.087 255.817 305.802C255.522 305.517 255.069 305.374 254.46 305.374H252.362V308.472ZM259.832 314.249V304.067H266.215V305.389H261.368V308.491H265.882V309.809H261.368V312.926H266.275V314.249H259.832ZM268.113 314.249V304.067H271.742C272.531 304.067 273.186 304.203 273.706 304.474C274.23 304.746 274.621 305.122 274.879 305.603C275.138 306.08 275.267 306.632 275.267 307.258C275.267 307.882 275.136 308.43 274.874 308.904C274.616 309.375 274.225 309.741 273.701 310.003C273.181 310.265 272.526 310.396 271.737 310.396H268.988V309.073H271.598C272.095 309.073 272.5 309.002 272.811 308.859C273.126 308.717 273.356 308.51 273.502 308.238C273.648 307.966 273.721 307.64 273.721 307.258C273.721 306.874 273.646 306.541 273.497 306.259C273.351 305.977 273.121 305.762 272.806 305.613C272.495 305.46 272.085 305.384 271.578 305.384H269.649V314.249H268.113ZM273.139 309.655L275.655 314.249H273.905L271.439 309.655H273.139Z" fill="black" fill-opacity="0.8"/>
<path d="M311.852 99.3465C312.017 98.8196 311.724 98.2584 311.197 98.093L302.61 95.3983C302.083 95.2329 301.522 95.5261 301.357 96.053C301.191 96.58 301.484 97.1412 302.011 97.3065L309.644 99.7018L307.249 107.335C307.084 107.862 307.377 108.423 307.904 108.588C308.431 108.754 308.992 108.461 309.157 107.934L311.852 99.3465ZM282.667 113.792L282.204 112.906L282.204 112.906L282.667 113.792ZM267.167 121.887L267.63 122.774L267.63 122.774L267.167 121.887ZM263.677 123.71L264.14 124.596L264.14 124.596L263.677 123.71ZM250.81 129.303C250.32 129.558 250.13 130.162 250.386 130.652C250.642 131.141 251.246 131.331 251.735 131.075L250.81 129.303ZM186.399 165.2C186.888 164.945 187.078 164.341 186.822 163.851C186.566 163.362 185.962 163.172 185.473 163.428L186.399 165.2ZM173.552 170.782L174.015 171.668L174.015 171.668L173.552 170.782ZM170.042 172.615L170.505 173.501L170.505 173.501L170.042 172.615ZM154.542 180.711L154.079 179.824L154.079 179.824L154.542 180.711ZM130.64 192.067C130.15 192.322 129.96 192.926 130.216 193.416C130.472 193.905 131.076 194.095 131.565 193.839L130.64 192.067ZM310.435 98.1607L282.204 112.906L283.13 114.678L311.361 99.9335L310.435 98.1607ZM282.204 112.906L266.704 121.001L267.63 122.774L283.13 114.678L282.204 112.906ZM266.704 121.001L263.214 122.824L264.14 124.596L267.63 122.774L266.704 121.001ZM263.214 122.824L250.81 129.303L251.735 131.075L264.14 124.596L263.214 122.824ZM185.473 163.428L173.089 169.895L174.015 171.668L186.399 165.2L185.473 163.428ZM173.089 169.895L169.579 171.729L170.505 173.501L174.015 171.668L173.089 169.895ZM169.579 171.729L154.079 179.824L155.005 181.597L170.505 173.501L169.579 171.729ZM154.079 179.824L130.64 192.067L131.565 193.839L155.005 181.597L154.079 179.824Z" fill="#1A1B1D"/>
<path d="M178.059 152.751V142.57H179.595V146.994H184.671V142.57H186.212V152.751H184.671V148.312H179.595V152.751H178.059ZM189.156 152.751H187.525L191.189 142.57H192.964L196.628 152.751H194.997L192.119 144.419H192.039L189.156 152.751ZM189.429 148.764H194.719V150.057H189.429V148.764ZM203.415 145.244C203.362 144.774 203.144 144.409 202.759 144.151C202.375 143.889 201.891 143.758 201.307 143.758C200.89 143.758 200.529 143.824 200.224 143.957C199.919 144.086 199.682 144.265 199.513 144.494C199.347 144.719 199.264 144.976 199.264 145.264C199.264 145.506 199.32 145.715 199.433 145.891C199.549 146.066 199.7 146.214 199.886 146.333C200.075 146.449 200.277 146.547 200.492 146.626C200.708 146.703 200.915 146.766 201.114 146.815L202.108 147.074C202.433 147.153 202.766 147.261 203.107 147.397C203.449 147.533 203.765 147.712 204.057 147.934C204.348 148.156 204.584 148.431 204.763 148.759C204.945 149.087 205.036 149.48 205.036 149.938C205.036 150.514 204.887 151.026 204.589 151.474C204.294 151.921 203.865 152.274 203.301 152.533C202.741 152.791 202.063 152.92 201.268 152.92C200.505 152.92 199.846 152.8 199.289 152.558C198.732 152.316 198.296 151.973 197.981 151.528C197.667 151.081 197.493 150.551 197.459 149.938H199.001C199.03 150.305 199.15 150.612 199.359 150.857C199.571 151.099 199.841 151.28 200.169 151.399C200.5 151.515 200.863 151.573 201.258 151.573C201.692 151.573 202.078 151.505 202.416 151.369C202.758 151.23 203.026 151.038 203.222 150.793C203.417 150.544 203.515 150.254 203.515 149.923C203.515 149.621 203.429 149.374 203.256 149.182C203.087 148.99 202.857 148.831 202.565 148.705C202.277 148.579 201.95 148.468 201.586 148.371L200.383 148.043C199.567 147.821 198.921 147.495 198.444 147.064C197.97 146.633 197.733 146.063 197.733 145.354C197.733 144.767 197.892 144.255 198.21 143.818C198.528 143.38 198.959 143.04 199.503 142.798C200.046 142.553 200.66 142.43 201.342 142.43C202.032 142.43 202.64 142.551 203.167 142.793C203.697 143.035 204.115 143.368 204.42 143.793C204.725 144.214 204.884 144.697 204.897 145.244H203.415ZM212.052 152.751V154.014H205.584V152.751H212.052ZM213.003 152.751V142.57H216.633C217.425 142.57 218.081 142.714 218.601 143.002C219.122 143.291 219.511 143.685 219.77 144.185C220.028 144.683 220.157 145.243 220.157 145.866C220.157 146.492 220.027 147.056 219.765 147.556C219.506 148.053 219.115 148.448 218.591 148.739C218.071 149.028 217.416 149.172 216.628 149.172H214.132V147.869H216.488C216.989 147.869 217.395 147.783 217.706 147.611C218.018 147.435 218.247 147.197 218.393 146.895C218.538 146.593 218.611 146.25 218.611 145.866C218.611 145.481 218.538 145.14 218.393 144.842C218.247 144.543 218.016 144.31 217.702 144.141C217.39 143.972 216.979 143.887 216.469 143.887H214.54V152.751H213.003ZM221.804 152.751V142.57H223.341V146.994H228.417V142.57H229.958V152.751H228.417V148.312H223.341V152.751H221.804ZM240.886 147.661C240.886 148.748 240.687 149.682 240.289 150.465C239.891 151.243 239.346 151.843 238.653 152.264C237.964 152.682 237.18 152.891 236.302 152.891C235.42 152.891 234.633 152.682 233.94 152.264C233.251 151.843 232.707 151.242 232.31 150.46C231.912 149.677 231.713 148.744 231.713 147.661C231.713 146.573 231.912 145.64 232.31 144.862C232.707 144.079 233.251 143.479 233.94 143.062C234.633 142.641 235.42 142.43 236.302 142.43C237.18 142.43 237.964 142.641 238.653 143.062C239.346 143.479 239.891 144.079 240.289 144.862C240.687 145.64 240.886 146.573 240.886 147.661ZM239.364 147.661C239.364 146.832 239.23 146.134 238.962 145.568C238.696 144.997 238.332 144.567 237.868 144.275C237.407 143.98 236.885 143.832 236.302 143.832C235.715 143.832 235.191 143.98 234.731 144.275C234.27 144.567 233.905 144.997 233.637 145.568C233.372 146.134 233.239 146.832 233.239 147.661C233.239 148.489 233.372 149.188 233.637 149.759C233.905 150.325 234.27 150.756 234.731 151.051C235.191 151.343 235.715 151.489 236.302 151.489C236.885 151.489 237.407 151.343 237.868 151.051C238.332 150.756 238.696 150.325 238.962 149.759C239.23 149.188 239.364 148.489 239.364 147.661ZM250.865 142.57V152.751H249.453L244.278 145.284H244.183V152.751H242.647V142.57H244.069L249.249 150.047H249.344V142.57H250.865ZM252.952 152.751V142.57H259.335V143.892H254.488V146.994H259.002V148.312H254.488V151.429H259.395V152.751H252.952Z" fill="black" fill-opacity="0.8"/>
<path d="M311.207 228.707C311.598 228.317 311.598 227.683 311.207 227.293L304.843 220.929C304.453 220.538 303.819 220.538 303.429 220.929C303.038 221.319 303.038 221.953 303.429 222.343L309.086 228L303.429 233.657C303.038 234.047 303.038 234.681 303.429 235.071C303.819 235.462 304.453 235.462 304.843 235.071L311.207 228.707ZM263.677 227C263.125 227 262.677 227.448 262.677 228C262.677 228.552 263.125 229 263.677 229V227ZM173.552 229C174.105 229 174.552 228.552 174.552 228C174.552 227.448 174.105 227 173.552 227V229ZM131.5 227C130.948 227 130.5 227.448 130.5 228C130.5 228.552 130.948 229 131.5 229V227ZM310.5 227H263.677V229H310.5V227ZM173.552 227H131.5V229H173.552V227Z" fill="#1A1B1D"/>
<path d="M181.33 233.5V223.318H182.866V227.743H187.942V223.318H189.483V233.5H187.942V229.06H182.866V233.5H181.33ZM192.427 233.5H190.796L194.46 223.318H196.235L199.899 233.5H198.268L195.39 225.168H195.31L192.427 233.5ZM192.7 229.513H197.99V230.805H192.7V229.513ZM206.686 225.993C206.633 225.522 206.415 225.158 206.03 224.899C205.646 224.637 205.162 224.506 204.578 224.506C204.161 224.506 203.8 224.573 203.495 224.705C203.19 224.835 202.953 225.013 202.784 225.242C202.618 225.468 202.535 225.724 202.535 226.013C202.535 226.255 202.591 226.464 202.704 226.639C202.82 226.815 202.971 226.962 203.157 227.082C203.346 227.198 203.548 227.295 203.763 227.375C203.979 227.451 204.186 227.514 204.385 227.564L205.379 227.822C205.704 227.902 206.037 228.01 206.378 228.146C206.72 228.281 207.036 228.46 207.328 228.683C207.619 228.905 207.855 229.18 208.034 229.508C208.216 229.836 208.307 230.229 208.307 230.686C208.307 231.263 208.158 231.775 207.86 232.222C207.565 232.67 207.136 233.023 206.572 233.281C206.012 233.54 205.334 233.669 204.539 233.669C203.776 233.669 203.117 233.548 202.56 233.306C202.003 233.064 201.567 232.721 201.252 232.277C200.938 231.83 200.764 231.299 200.73 230.686H202.272C202.301 231.054 202.421 231.361 202.63 231.606C202.842 231.848 203.112 232.028 203.44 232.148C203.771 232.264 204.134 232.322 204.529 232.322C204.963 232.322 205.349 232.254 205.687 232.118C206.029 231.979 206.297 231.786 206.493 231.541C206.688 231.293 206.786 231.003 206.786 230.671C206.786 230.37 206.7 230.123 206.527 229.93C206.358 229.738 206.128 229.579 205.836 229.453C205.548 229.327 205.221 229.216 204.857 229.12L203.654 228.792C202.838 228.57 202.192 228.243 201.715 227.812C201.241 227.382 201.004 226.812 201.004 226.102C201.004 225.516 201.163 225.004 201.481 224.566C201.799 224.129 202.23 223.789 202.774 223.547C203.317 223.302 203.931 223.179 204.613 223.179C205.303 223.179 205.911 223.3 206.438 223.542C206.968 223.784 207.386 224.117 207.691 224.541C207.996 224.962 208.155 225.446 208.168 225.993H206.686ZM215.323 233.5V234.763H208.855V233.5H215.323ZM216.274 233.5V223.318H222.658V224.641H217.811V227.743H222.325V229.06H217.811V232.178H222.718V233.5H216.274ZM224.556 223.318H226.42L229.662 231.233H229.781L233.023 223.318H234.887V233.5H233.425V226.132H233.331L230.328 233.485H229.115L226.112 226.127H226.018V233.5H224.556V223.318ZM237.826 233.5H236.196L239.86 223.318H241.635L245.299 233.5H243.668L240.79 225.168H240.71L237.826 233.5ZM238.1 229.513H243.39V230.805H238.1V229.513ZM248.151 223.318V233.5H246.615V223.318H248.151ZM250.235 233.5V223.318H251.771V232.178H256.384V233.5H250.235Z" fill="black" fill-opacity="0.8"/>
</svg>
