<svg xmlns="http://www.w3.org/2000/svg" width="1214" height="166" viewBox="0 0 1214 166"><defs><style type="text/css"/></defs><g transform="translate(739.0832370988803 1038.5571027287604) scale(1)"><g class="relationship"><g transform="translate(151.3377812237071 -986.5571027287604) rotate(0)" stroke-width="1" stroke="#A5ABB6"><path d="M 52 0 L 208.9003003783625 0"/><polygon points="-9.45,0 -10.5,3.5 0,0 -10.5,-3.5" fill="#A5ABB6" transform="translate(218.35030037836248 0) rotate(0)" stroke="none"/></g><g transform="translate(281.7879314128884 -986.5571027287604) rotate(0) translate(0 -7)"><g transform="translate(0 0)"><g transform="translate(-30.61328125 0)" fill="#ffffff" stroke="#000000" stroke-width="0"><rect x="0" y="0" width="61.2265625" height="14" rx="2" ry="2" stroke="none"/><text xml:space="preserve" x="2" y="9.78564453125" stroke="none" text-anchor="left" font-family="sans-serif" font-size="10" font-weight="normal" fill="#000000">PRODUCED</text></g></g></g></g><g class="relationship"><g transform="translate(-389.36281953301784 -986.5571027287604) rotate(180)" stroke-width="1" stroke="#A5ABB6"><path d="M 52 0 L 208.9003003783625 0"/><polygon points="-9.45,0 -10.5,3.5 0,0 -10.5,-3.5" fill="#A5ABB6" transform="translate(218.35030037836248 0) rotate(0)" stroke="none"/></g><g transform="translate(-519.8129697221991 -986.5571027287604) rotate(360) translate(0 -7)"><g transform="translate(0 0)"><g transform="translate(-30.61328125 0)" fill="#ffffff" stroke="#000000" stroke-width="0"><rect x="0" y="0" width="61.2265625" height="14" rx="2" ry="2" stroke="none"/><text xml:space="preserve" x="2" y="9.78564453125" stroke="none" text-anchor="left" font-family="sans-serif" font-size="10" font-weight="normal" fill="#000000">PRODUCED</text></g></g></g></g><g class="relationship"><g transform="translate(151.3377812237071 -986.5571027287604) rotate(180)" stroke-width="1" stroke="#A5ABB6"><path d="M 52 0 L 208.9003003783625 0"/><polygon points="-9.45,0 -10.5,3.5 0,0 -10.5,-3.5" fill="#A5ABB6" transform="translate(218.35030037836248 0) rotate(0)" stroke="none"/></g><g transform="translate(20.887631034525867 -986.5571027287604) rotate(360) translate(0 -7)"><g transform="translate(0 0)"><g transform="translate(-34.04833984375 0)" fill="#ffffff" stroke="#000000" stroke-width="0"><rect x="0" y="0" width="68.0966796875" height="14" rx="2" ry="2" stroke="none"/><text xml:space="preserve" x="2" y="9.78564453125" stroke="none" text-anchor="left" font-family="sans-serif" font-size="10" font-weight="normal" fill="#000000">LOCATED_AT</text></g></g></g></g><g class="relationship"><g transform="translate(-389.36281953301784 -986.5571027287604) rotate(0)" stroke-width="1" stroke="#A5ABB6"><path d="M 52 0 L 208.9003003783625 0"/><polygon points="-9.45,0 -10.5,3.5 0,0 -10.5,-3.5" fill="#A5ABB6" transform="translate(218.35030037836248 0) rotate(0)" stroke="none"/></g><g transform="translate(-258.91266934383657 -986.5571027287604) rotate(0) translate(0 -7)"><g transform="translate(0 0)"><g transform="translate(-34.04833984375 0)" fill="#ffffff" stroke="#000000" stroke-width="0"><rect x="0" y="0" width="68.0966796875" height="14" rx="2" ry="2" stroke="none"/><text xml:space="preserve" x="2" y="9.78564453125" stroke="none" text-anchor="left" font-family="sans-serif" font-size="10" font-weight="normal" fill="#000000">LOCATED_AT</text></g></g></g></g><g class="node"><g fill="#4C8EDA" stroke="#2870c2" stroke-width="2"><circle cx="-659.7131199113803" cy="-986.5571027287604" r="51"/></g><g transform="translate(-659.7131199113803 -986.5571027287604)"><g transform="scale(1) translate(0 -9)"><g transform="translate(0 0)"><g transform="translate(-25.0048828125 0)"><g fill="#ffffff" stroke="#000000" stroke-width="2"><rect x="0" y="0" width="50.009765625" height="18" rx="9" ry="9"/><text xml:space="preserve" x="9" y="12.3427734375" stroke="none" font-family="sans-serif" font-size="12" font-weight="normal" fill="#000000">Movie</text></g></g></g></g><g transform="translate(3.3065463576978537e-15 54)"><g transform="translate(0 0)"><g transform="translate(-79.3701171875 0)" fill="white"><rect x="0" y="0" width="158.740234375" height="60" rx="0" ry="0" stroke="none"/><g font-family="sans-serif" font-size="10" font-weight="normal" fill="#000000" text-anchor="middle"><text xml:space="preserve" x="79.3701171875" y="8.78564453125" stroke="none">title: Apollo 13</text><text xml:space="preserve" x="79.3701171875" y="20.78564453125" stroke="none" text-anchor="middle">tmdbID: 568</text><text xml:space="preserve" x="79.3701171875" y="32.78564453125" stroke="none" text-anchor="middle">released: 1995-06-30</text><text xml:space="preserve" x="79.3701171875" y="44.78564453125" stroke="none" text-anchor="middle">imdbRating: 7.6</text><text xml:space="preserve" x="79.3701171875" y="56.78564453125" stroke="none" text-anchor="middle">genres: 'Drama', 'Adventure', 'IMAX'</text></g></g></g></g></g></g><g class="node"><g fill="#4C8EDA" stroke="#2870c2" stroke-width="2"><circle cx="421.6880816020696" cy="-986.5571027287604" r="51"/></g><g transform="translate(421.6880816020696 -986.5571027287604)"><g transform="scale(1) translate(0 -9)"><g transform="translate(0 0)"><g transform="translate(-25.0048828125 0)"><g fill="#ffffff" stroke="#000000" stroke-width="2"><rect x="0" y="0" width="50.009765625" height="18" rx="9" ry="9"/><text xml:space="preserve" x="9" y="12.3427734375" stroke="none" font-family="sans-serif" font-size="12" font-weight="normal" fill="#000000">Movie</text></g></g></g></g><g transform="translate(3.3065463576978537e-15 54)"><g transform="translate(0 0)"><g transform="translate(-52.998046875 0)" fill="white"><rect x="0" y="0" width="105.99609375" height="60" rx="0" ry="0" stroke="none"/><g font-family="sans-serif" font-size="10" font-weight="normal" fill="#000000" text-anchor="middle"><text xml:space="preserve" x="52.998046875" y="8.78564453125" stroke="none">title: Hoffa</text><text xml:space="preserve" x="52.998046875" y="20.78564453125" stroke="none" text-anchor="middle">tmdbID: 10410</text><text xml:space="preserve" x="52.998046875" y="32.78564453125" stroke="none" text-anchor="middle">released: 1992-12-25</text><text xml:space="preserve" x="52.998046875" y="44.78564453125" stroke="none" text-anchor="middle">imdbRating: 6.6</text><text xml:space="preserve" x="52.998046875" y="56.78564453125" stroke="none" text-anchor="middle">genres: 'Crime', 'Drama'</text></g></g></g></g></g></g><g class="node"><g fill="#999999" stroke="#666666" stroke-width="2"><circle cx="151.3377812237071" cy="-986.5571027287604" r="51"/></g><g transform="translate(151.3377812237071 -986.5571027287604)"><g transform="scale(0.8348835025765786) translate(0 -8)"><g transform="translate(0 0)"><g transform="translate(-53.302734375 0)"><g fill="#ffffff" stroke="#000000" stroke-width="2"><rect x="0" y="0" width="106.60546875" height="16" rx="8" ry="8"/><text xml:space="preserve" x="8" y="10.78564453125" stroke="none" font-family="sans-serif" font-size="10" font-weight="normal" fill="#000000">ProductionCompany</text></g></g></g></g><g transform="translate(3.3065463576978537e-15 54)"><g transform="translate(0 0)"><g transform="translate(-87.83447265625 0)" fill="white"><rect x="0" y="0" width="175.6689453125" height="48" rx="0" ry="0" stroke="none"/><g font-family="sans-serif" font-size="10" font-weight="normal" fill="#000000" text-anchor="end"><text xml:space="preserve" x="56.1474609375" y="8.78564453125" stroke="none">name:</text><text xml:space="preserve" x="58.92578125" y="8.78564453125" stroke="none" text-anchor="start">Jersey Films</text><text xml:space="preserve" x="56.1474609375" y="20.78564453125" stroke="none" text-anchor="end">postalCode:</text><text xml:space="preserve" x="58.92578125" y="20.78564453125" stroke="none" text-anchor="start">90049</text><text xml:space="preserve" x="56.1474609375" y="32.78564453125" stroke="none" text-anchor="end">city:</text><text xml:space="preserve" x="58.92578125" y="32.78564453125" stroke="none" text-anchor="start">Los Angeles</text><text xml:space="preserve" x="56.1474609375" y="44.78564453125" stroke="none" text-anchor="end">address1:</text><text xml:space="preserve" x="58.92578125" y="44.78564453125" stroke="none" text-anchor="start">10351 Santa Monica Blvd</text></g></g></g></g></g></g><g class="node"><g fill="#999999" stroke="#666666" stroke-width="2"><circle cx="-389.36281953301784" cy="-986.5571027287604" r="51"/></g><g transform="translate(-389.36281953301784 -986.5571027287604)"><g transform="scale(0.8348835025765786) translate(0 -8)"><g transform="translate(0 0)"><g transform="translate(-53.302734375 0)"><g fill="#ffffff" stroke="#000000" stroke-width="2"><rect x="0" y="0" width="106.60546875" height="16" rx="8" ry="8"/><text xml:space="preserve" x="8" y="10.78564453125" stroke="none" font-family="sans-serif" font-size="10" font-weight="normal" fill="#000000">ProductionCompany</text></g></g></g></g><g transform="translate(3.3065463576978537e-15 54)"><g transform="translate(0 0)"><g transform="translate(-87.83447265625 0)" fill="white"><rect x="0" y="0" width="175.6689453125" height="48" rx="0" ry="0" stroke="none"/><g font-family="sans-serif" font-size="10" font-weight="normal" fill="#000000" text-anchor="end"><text xml:space="preserve" x="56.1474609375" y="8.78564453125" stroke="none">name:</text><text xml:space="preserve" x="58.92578125" y="8.78564453125" stroke="none" text-anchor="start">Imagine Entertainment</text><text xml:space="preserve" x="56.1474609375" y="20.78564453125" stroke="none" text-anchor="end">postalCode:</text><text xml:space="preserve" x="58.92578125" y="20.78564453125" stroke="none" text-anchor="start">90212</text><text xml:space="preserve" x="56.1474609375" y="32.78564453125" stroke="none" text-anchor="end">city:</text><text xml:space="preserve" x="58.92578125" y="32.78564453125" stroke="none" text-anchor="start">Beverly Hills</text><text xml:space="preserve" x="56.1474609375" y="44.78564453125" stroke="none" text-anchor="end">address1:</text><text xml:space="preserve" x="58.92578125" y="44.78564453125" stroke="none" text-anchor="start">10351 Santa Monica Blvd</text></g></g></g></g></g></g><g class="node"><g fill="#fda1ff" stroke="#fa28ff" stroke-width="2"><circle cx="-119.01251915465537" cy="-986.5571027287604" r="51"/></g><g transform="translate(-119.01251915465537 -986.5571027287604)"><g transform="scale(1) translate(0 -9)"><g transform="translate(0 0)"><g transform="translate(-23.009765625 0)"><g fill="#ffffff" stroke="#000000" stroke-width="2"><rect x="0" y="0" width="46.01953125" height="18" rx="9" ry="9"/><text xml:space="preserve" x="9" y="12.3427734375" stroke="none" font-family="sans-serif" font-size="12" font-weight="normal" fill="#000000">State</text></g></g></g></g><g transform="translate(3.3065463576978537e-15 54)"><g transform="translate(0 0)"><g transform="translate(-36.40625 0)" fill="white"><rect x="0" y="0" width="72.8125" height="24" rx="0" ry="0" stroke="none"/><g font-family="sans-serif" font-size="10" font-weight="normal" fill="#000000" text-anchor="middle"><text xml:space="preserve" x="36.40625" y="8.78564453125" stroke="none">name: California</text><text xml:space="preserve" x="36.40625" y="20.78564453125" stroke="none" text-anchor="middle">country: US</text></g></g></g></g></g></g></g></svg>