<svg xmlns="http://www.w3.org/2000/svg" width="1198" height="698" viewBox="0 0 1198 698"><defs><style type="text/css"/></defs><g transform="translate(629.3728622017437 245.51722614255178) scale(1)"><g class="relationship"><g transform="translate(-366.2044229424586 -170.51722614255178) rotate(140.2565281477765)" stroke-width="8" stroke="#848484"><path d="M 80 0 L 164.719529165356 0"/></g></g><g class="relationship"><g transform="translate(-366.2044229424586 103.28746906008112) rotate(26.589738433256645)" stroke-width="8" stroke="#fcdc00"><path d="M 80 0 L 244.39958088819787 0"/></g></g><g class="relationship"><g transform="translate(-76.11515339944278 -14.055453106329765) rotate(-31.8868133899077)" stroke-width="8" stroke="#848484"><path d="M 80 0 L 216.19283879079865 0"/></g></g><g class="relationship"><g transform="translate(-366.2044229424586 103.28746906008112) rotate(90)" stroke-width="8" stroke="#fcdc00"><path d="M 80 0 L 193.80469520263296 0"/></g></g><g class="relationship"><g transform="translate(-366.2044229424586 103.28746906008112) rotate(-22.023639795330936)" stroke-width="8" stroke="#fcdc00"><path d="M 80 0 L 232.9235460724438 0"/></g></g><g class="relationship"><g transform="translate(-366.2044229424586 377.0921642627141) rotate(-145.82484359542525)" stroke-width="8" stroke="#848484"><path d="M 80 0 L 147.44219898974575 0"/></g></g><g class="relationship"><g transform="translate(-554.3728622017437 249.33226308861396) rotate(-90)" stroke-width="8" stroke="#848484"><path d="M 80 0 L 183.38771619494372 0"/></g></g><g class="relationship"><g transform="translate(-76.11515339944278 -14.055453106329765) rotate(0)" stroke-width="8" stroke="#848484"><path d="M 80 0 L 489.6932907505409 0"/></g></g><g class="relationship"><g transform="translate(-366.2044229424586 377.0921642627141) rotate(-23.908900627480413)" stroke-width="8" stroke="#848484"><path d="M 80 0 L 237.31800816375113 0"/></g></g><g class="relationship"><g transform="translate(-76.11515339944278 248.48837737830735) rotate(-30.000000000000004)" stroke-width="8" stroke="#848484"><path d="M 80 0 L 210.4018166364524 0"/></g></g><g class="relationship"><g transform="translate(175.38019711287544 103.28746906008112) rotate(90)" stroke-width="8" stroke="#848484"><path d="M 80 0 L 193.80469520263284 0"/></g></g><g class="relationship"><g transform="translate(175.38019711287544 103.28746906008112) rotate(24.653924077786414)" stroke-width="8" stroke="#848484"><path d="M 80 0 L 270.1128547121401 0"/></g></g><g class="relationship"><g transform="translate(493.5781373510981 -14.055453106329765) rotate(90)" stroke-width="8" stroke="#848484"><path d="M 80 0 L 183.38771619494372 0"/></g></g><g class="node"><g fill="#b3b3b3" stroke="#000000" stroke-width="0"><circle cx="-366.2044229424586" cy="-170.51722614255178" r="75" stroke="none"/></g></g><g class="node"><g fill="#73d8ff" stroke="#000000" stroke-width="0"><circle cx="-76.11515339944278" cy="-14.055453106329765" r="75" stroke="none"/></g></g><g class="node"><g fill="#f44e3b" stroke="#000000" stroke-width="0"><circle cx="-366.2044229424586" cy="103.28746906008112" r="75" stroke="none"/></g></g><g class="node"><g fill="#b3b3b3" stroke="#000000" stroke-width="0"><circle cx="-554.3728622017437" cy="-14.055453106329765" r="75" stroke="none"/></g></g><g class="node"><g fill="#73d8ff" stroke="#000000" stroke-width="0"><circle cx="-76.11515339944278" cy="248.48837737830735" r="75" stroke="none"/></g></g><g class="node"><g fill="#b3b3b3" stroke="#000000" stroke-width="0"><circle cx="175.38019711287544" cy="-170.51722614255178" r="75" stroke="none"/></g></g><g class="node"><g fill="#73d8ff" stroke="#000000" stroke-width="0"><circle cx="-366.2044229424586" cy="377.0921642627141" r="75" stroke="none"/></g></g><g class="node"><g fill="#b3b3b3" stroke="#000000" stroke-width="0"><circle cx="175.38019711287544" cy="377.09216426271394" r="75" stroke="none"/></g></g><g class="node"><g fill="#b3b3b3" stroke="#000000" stroke-width="0"><circle cx="-554.3728622017437" cy="249.33226308861396" r="75" stroke="none"/></g></g><g class="node"><g fill="#b3b3b3" stroke="#000000" stroke-width="0"><circle cx="493.5781373510981" cy="-14.055453106329765" r="75" stroke="none"/></g></g><g class="node"><g fill="#b3b3b3" stroke="#000000" stroke-width="0"><circle cx="175.38019711287544" cy="103.28746906008112" r="75" stroke="none"/></g></g><g class="node"><g fill="#b3b3b3" stroke="#000000" stroke-width="0"><circle cx="493.5781373510981" cy="249.33226308861396" r="75" stroke="none"/></g></g></g></svg>