<svg xmlns="http://www.w3.org/2000/svg" width="1143" height="678" viewBox="0 0 1143 678"><defs><style type="text/css"/></defs><g transform="translate(619.3728622017437 235.51722614255178) scale(1)"><g class="relationship"><g transform="translate(-366.2044229424586 -170.51722614255178) rotate(140.2565281477765)" stroke-width="8" stroke="#848484"><path d="M 70 0 L 174.719529165356 0"/></g></g><g class="relationship"><g transform="translate(-366.2044229424586 103.28746906008112) rotate(26.589738433256645)" stroke-width="8" stroke="#FFDE63"><path d="M 70 0 L 254.39958088819787 0"/></g></g><g class="relationship"><g transform="translate(-76.11515339944278 -14.055453106329765) rotate(-33.89560143246572)" stroke-width="8" stroke="#848484"><path d="M 70 0 L 210.557638252804 0"/></g></g><g class="relationship"><g transform="translate(-366.2044229424586 103.28746906008112) rotate(90)" stroke-width="8" stroke="#FFDE63"><path d="M 70 0 L 203.80469520263296 0"/></g></g><g class="relationship"><g transform="translate(-366.2044229424586 103.28746906008112) rotate(-22.023639795330936)" stroke-width="8" stroke="#FFDE63"><path d="M 70 0 L 242.9235460724438 0"/></g></g><g class="relationship"><g transform="translate(-366.2044229424586 377.0921642627141) rotate(-145.82484359542525)" stroke-width="8" stroke="#848484"><path d="M 70 0 L 157.44219898974575 0"/></g></g><g class="relationship"><g transform="translate(-554.3728622017437 249.33226308861396) rotate(-90)" stroke-width="8" stroke="#848484"><path d="M 70 0 L 193.38771619494372 0"/></g></g><g class="relationship"><g transform="translate(-76.11515339944278 -14.055453106329765) rotate(0)" stroke-width="8" stroke="#848484"><path d="M 70 0 L 463.954486152457 0"/></g></g><g class="relationship"><g transform="translate(-366.2044229424586 377.0921642627141) rotate(-23.908900627480413)" stroke-width="8" stroke="#848484"><path d="M 70 0 L 247.31800816375113 0"/></g></g><g class="relationship"><g transform="translate(-76.11515339944278 248.48837737830735) rotate(-31.943767735436637)" stroke-width="8" stroke="#848484"><path d="M 70 0 L 204.43688844029498 0"/></g></g><g class="relationship"><g transform="translate(156.7631452038255 103.28746906008112) rotate(90)" stroke-width="8" stroke="#848484"><path d="M 70 0 L 203.80469520263296 0"/></g></g><g class="relationship"><g transform="translate(156.7631452038255 103.28746906008112) rotate(25.746757028754338)" stroke-width="8" stroke="#848484"><path d="M 70 0 L 264.2606385526004 0"/></g></g><g class="relationship"><g transform="translate(457.83933275301416 -14.055453106329765) rotate(90)" stroke-width="8" stroke="#848484"><path d="M 70 0 L 192.5438304846371 0"/></g></g><g class="node"><g fill="#00BA88" stroke="#000000" stroke-width="0"><circle cx="-366.2044229424586" cy="-170.51722614255178" r="65" stroke="none"/></g></g><g class="node"><g fill="#7AD1FF" stroke="#000000" stroke-width="0"><circle cx="-76.11515339944278" cy="-14.055453106329765" r="65" stroke="none"/></g></g><g class="node"><g fill="#ED1252" stroke="#000000" stroke-width="0"><circle cx="-366.2044229424586" cy="103.28746906008112" r="65" stroke="none"/></g></g><g class="node"><g fill="#00BA88" stroke="#000000" stroke-width="0"><circle cx="-554.3728622017437" cy="-14.055453106329765" r="65" stroke="none"/></g></g><g class="node"><g fill="#7AD1FF" stroke="#000000" stroke-width="0"><circle cx="-76.11515339944278" cy="248.48837737830735" r="65" stroke="none"/></g></g><g class="node"><g fill="#00BA88" stroke="#000000" stroke-width="0"><circle cx="156.7631452038255" cy="-170.51722614255178" r="65" stroke="none"/></g></g><g class="node"><g fill="#7AD1FF" stroke="#000000" stroke-width="0"><circle cx="-366.2044229424586" cy="377.0921642627141" r="65" stroke="none"/></g></g><g class="node"><g fill="#00BA88" stroke="#000000" stroke-width="0"><circle cx="156.7631452038255" cy="377.0921642627141" r="65" stroke="none"/></g></g><g class="node"><g fill="#00BA88" stroke="#000000" stroke-width="0"><circle cx="-554.3728622017437" cy="249.33226308861396" r="65" stroke="none"/></g></g><g class="node"><g fill="#00BA88" stroke="#000000" stroke-width="0"><circle cx="457.83933275301416" cy="-14.055453106329765" r="65" stroke="none"/></g></g><g class="node"><g fill="#00BA88" stroke="#000000" stroke-width="0"><circle cx="156.7631452038255" cy="103.28746906008112" r="65" stroke="none"/></g></g><g class="node"><g fill="#00BA88" stroke="#000000" stroke-width="0"><circle cx="457.83933275301416" cy="248.48837737830735" r="65" stroke="none"/></g></g></g></svg>