<svg width="884" height="501" viewBox="0 0 884 501" fill="none" xmlns="http://www.w3.org/2000/svg">
<path d="M525.665 500.018C567.086 500.018 600.665 466.44 600.665 425.018C600.665 383.597 567.086 350.018 525.665 350.018C484.244 350.018 450.665 383.597 450.665 425.018C450.665 466.44 484.244 500.018 525.665 500.018Z" fill="#7AD1FF"/>
<path d="M504.19 432.234C502.751 432.234 501.451 432.052 500.29 431.688C499.129 431.307 498.123 430.761 497.274 430.05L498.028 428.334C498.912 429.01 499.839 429.513 500.81 429.842C501.781 430.171 502.907 430.336 504.19 430.336C505.75 430.336 506.903 430.05 507.648 429.478C508.411 428.889 508.792 428.117 508.792 427.164C508.792 426.401 508.515 425.795 507.96 425.344C507.423 424.893 506.513 424.538 505.23 424.278L502.526 423.732C500.897 423.385 499.675 422.822 498.86 422.042C498.063 421.245 497.664 420.187 497.664 418.87C497.664 417.778 497.941 416.825 498.496 416.01C499.068 415.195 499.857 414.563 500.862 414.112C501.867 413.661 503.029 413.436 504.346 413.436C505.577 413.436 506.721 413.635 507.778 414.034C508.835 414.415 509.728 414.97 510.456 415.698L509.702 417.362C508.922 416.651 508.099 416.14 507.232 415.828C506.365 415.499 505.395 415.334 504.32 415.334C502.951 415.334 501.859 415.655 501.044 416.296C500.229 416.92 499.822 417.752 499.822 418.792C499.822 419.624 500.073 420.283 500.576 420.768C501.096 421.253 501.937 421.609 503.098 421.834L505.802 422.406C507.553 422.77 508.844 423.325 509.676 424.07C510.525 424.798 510.95 425.795 510.95 427.06C510.95 428.083 510.673 428.984 510.118 429.764C509.581 430.544 508.801 431.151 507.778 431.584C506.773 432.017 505.577 432.234 504.19 432.234ZM517.95 432.234C517.083 432.234 516.303 432.069 515.61 431.74C514.934 431.393 514.397 430.925 513.998 430.336C513.599 429.747 513.4 429.088 513.4 428.36C513.4 427.441 513.634 426.713 514.102 426.176C514.587 425.639 515.376 425.257 516.468 425.032C517.577 424.789 519.085 424.668 520.992 424.668H521.824V423.862C521.824 422.787 521.599 422.016 521.148 421.548C520.715 421.063 520.013 420.82 519.042 420.82C518.279 420.82 517.543 420.933 516.832 421.158C516.121 421.366 515.393 421.713 514.648 422.198L513.92 420.664C514.579 420.196 515.376 419.823 516.312 419.546C517.265 419.269 518.175 419.13 519.042 419.13C520.671 419.13 521.876 419.529 522.656 420.326C523.453 421.123 523.852 422.363 523.852 424.044V432H521.876V429.816C521.547 430.561 521.035 431.151 520.342 431.584C519.666 432.017 518.869 432.234 517.95 432.234ZM518.288 430.648C519.328 430.648 520.177 430.293 520.836 429.582C521.495 428.854 521.824 427.935 521.824 426.826V426.046H521.018C519.614 426.046 518.505 426.115 517.69 426.254C516.893 426.375 516.329 426.601 516 426.93C515.688 427.242 515.532 427.675 515.532 428.23C515.532 428.941 515.775 429.521 516.26 429.972C516.763 430.423 517.439 430.648 518.288 430.648ZM531.633 432.234C530.351 432.234 529.38 431.861 528.721 431.116C528.08 430.353 527.759 429.253 527.759 427.814V413.67H529.865V427.658C529.865 429.513 530.602 430.44 532.075 430.44C532.509 430.44 532.899 430.388 533.245 430.284L533.193 432.052C532.656 432.173 532.136 432.234 531.633 432.234ZM539.327 432.234C538.044 432.234 537.073 431.861 536.415 431.116C535.773 430.353 535.453 429.253 535.453 427.814V413.67H537.559V427.658C537.559 429.513 538.295 430.44 539.769 430.44C540.202 430.44 540.592 430.388 540.939 430.284L540.887 432.052C540.349 432.173 539.829 432.234 539.327 432.234ZM544.323 436.68L546.481 431.792L541.151 419.364H543.439L547.625 429.608L551.837 419.364H554.047L546.533 436.68H544.323Z" fill="black"/>
<path d="M75.5 500.018C116.921 500.018 150.5 466.44 150.5 425.018C150.5 383.597 116.921 350.018 75.5 350.018C34.0786 350.018 0.5 383.597 0.5 425.018C0.5 466.44 34.0786 500.018 75.5 500.018Z" fill="#00BA88"/>
<path d="M43.634 432.234C40.6873 432.234 38.4427 431.402 36.9 429.738C35.3573 428.074 34.586 425.777 34.586 422.848C34.586 420.907 34.9327 419.234 35.626 417.83C36.3193 416.426 37.316 415.343 38.616 414.58C39.916 413.817 41.4847 413.436 43.322 413.436C44.622 413.436 45.818 413.635 46.91 414.034C48.002 414.415 48.9293 414.979 49.692 415.724L48.86 417.44C48.028 416.712 47.17 416.183 46.286 415.854C45.402 415.525 44.4053 415.36 43.296 415.36C41.216 415.36 39.6213 416.019 38.512 417.336C37.4027 418.636 36.848 420.473 36.848 422.848C36.848 425.275 37.42 427.129 38.564 428.412C39.708 429.695 41.4153 430.336 43.686 430.336C45.1593 430.336 46.572 430.085 47.924 429.582V424.148H43.27V422.458H49.77V430.934C49.2847 431.194 48.6953 431.419 48.002 431.61C47.326 431.801 46.6067 431.948 45.844 432.052C45.0813 432.173 44.3447 432.234 43.634 432.234ZM53.8412 432V419.364H55.8952V421.626C56.5712 420.101 57.9579 419.26 60.0552 419.104L60.8092 419.026L60.9652 420.846L59.6392 421.002C58.4432 421.106 57.5332 421.487 56.9092 422.146C56.2852 422.787 55.9732 423.671 55.9732 424.798V432H53.8412ZM67.0106 432.234C66.144 432.234 65.364 432.069 64.6706 431.74C63.9946 431.393 63.4573 430.925 63.0586 430.336C62.66 429.747 62.4606 429.088 62.4606 428.36C62.4606 427.441 62.6946 426.713 63.1626 426.176C63.648 425.639 64.4366 425.257 65.5286 425.032C66.638 424.789 68.146 424.668 70.0526 424.668H70.8846V423.862C70.8846 422.787 70.6593 422.016 70.2086 421.548C69.7753 421.063 69.0733 420.82 68.1026 420.82C67.34 420.82 66.6033 420.933 65.8926 421.158C65.182 421.366 64.454 421.713 63.7086 422.198L62.9806 420.664C63.6393 420.196 64.4366 419.823 65.3726 419.546C66.326 419.269 67.236 419.13 68.1026 419.13C69.732 419.13 70.9366 419.529 71.7166 420.326C72.514 421.123 72.9126 422.363 72.9126 424.044V432H70.9366V429.816C70.6073 430.561 70.096 431.151 69.4026 431.584C68.7266 432.017 67.9293 432.234 67.0106 432.234ZM67.3486 430.648C68.3886 430.648 69.238 430.293 69.8966 429.582C70.5553 428.854 70.8846 427.935 70.8846 426.826V426.046H70.0786C68.6746 426.046 67.5653 426.115 66.7506 426.254C65.9533 426.375 65.39 426.601 65.0606 426.93C64.7486 427.242 64.5926 427.675 64.5926 428.23C64.5926 428.941 64.8353 429.521 65.3206 429.972C65.8233 430.423 66.4993 430.648 67.3486 430.648ZM76.8198 436.68V419.364H78.8738V421.626C79.2551 420.846 79.8184 420.239 80.5638 419.806C81.3264 419.355 82.2104 419.13 83.2158 419.13C84.3424 419.13 85.3218 419.399 86.1538 419.936C87.0031 420.456 87.6531 421.21 88.1038 422.198C88.5718 423.169 88.8058 424.33 88.8058 425.682C88.8058 427.017 88.5718 428.178 88.1038 429.166C87.6531 430.137 87.0031 430.891 86.1538 431.428C85.3218 431.965 84.3424 432.234 83.2158 432.234C82.2451 432.234 81.3784 432.017 80.6158 431.584C79.8531 431.151 79.2898 430.553 78.9258 429.79V436.68H76.8198ZM82.7738 430.544C83.9524 430.544 84.8971 430.128 85.6078 429.296C86.3184 428.447 86.6738 427.242 86.6738 425.682C86.6738 424.105 86.3184 422.9 85.6078 422.068C84.8971 421.236 83.9524 420.82 82.7738 420.82C81.5951 420.82 80.6504 421.236 79.9398 422.068C79.2291 422.9 78.8738 424.105 78.8738 425.682C78.8738 427.242 79.2291 428.447 79.9398 429.296C80.6504 430.128 81.5951 430.544 82.7738 430.544ZM91.978 432V413.67H94.084V421.444C94.5 420.681 95.0806 420.109 95.826 419.728C96.5886 419.329 97.438 419.13 98.374 419.13C101.373 419.13 102.872 420.794 102.872 424.122V432H100.766V424.252C100.766 423.073 100.532 422.215 100.064 421.678C99.6133 421.123 98.8853 420.846 97.88 420.846C96.7186 420.846 95.7913 421.21 95.098 421.938C94.422 422.649 94.084 423.602 94.084 424.798V432H91.978ZM111.019 432.234C110.031 432.234 109.095 432.095 108.211 431.818C107.327 431.541 106.599 431.151 106.027 430.648L106.703 429.166C107.327 429.669 108.012 430.041 108.757 430.284C109.52 430.509 110.291 430.622 111.071 430.622C112.059 430.622 112.805 430.44 113.307 430.076C113.81 429.712 114.061 429.218 114.061 428.594C114.061 428.109 113.897 427.727 113.567 427.45C113.238 427.155 112.718 426.93 112.007 426.774L109.641 426.254C107.492 425.786 106.417 424.677 106.417 422.926C106.417 421.782 106.868 420.863 107.769 420.17C108.688 419.477 109.884 419.13 111.357 419.13C112.224 419.13 113.047 419.269 113.827 419.546C114.625 419.806 115.283 420.196 115.803 420.716L115.101 422.198C114.599 421.73 114.009 421.375 113.333 421.132C112.675 420.872 112.016 420.742 111.357 420.742C110.387 420.742 109.65 420.933 109.147 421.314C108.645 421.695 108.393 422.198 108.393 422.822C108.393 423.793 109.035 424.417 110.317 424.694L112.683 425.188C113.793 425.431 114.633 425.821 115.205 426.358C115.777 426.878 116.063 427.589 116.063 428.49C116.063 429.651 115.604 430.57 114.685 431.246C113.767 431.905 112.545 432.234 111.019 432.234Z" fill="black"/>
<path d="M242.465 150.095C283.887 150.095 317.465 116.516 317.465 75.0947C317.465 33.6734 283.887 0.0947266 242.465 0.0947266C201.044 0.0947266 167.465 33.6734 167.465 75.0947C167.465 116.516 201.044 150.095 242.465 150.095Z" fill="#7AD1FF"/>
<path d="M214.896 75.182L214.74 73.388L216.3 73.284C217.184 73.2147 217.86 72.9113 218.328 72.374C218.796 71.8193 219.03 71.0653 219.03 70.112V56.67H221.162V70.138C221.162 71.646 220.772 72.8247 219.992 73.674C219.212 74.506 218.077 74.974 216.586 75.078L214.896 75.182ZM230.658 75.234C229.427 75.234 228.361 74.9653 227.46 74.428C226.558 73.8907 225.856 73.1367 225.354 72.166C224.868 71.178 224.626 70.0167 224.626 68.682C224.626 67.3473 224.868 66.1947 225.354 65.224C225.856 64.236 226.558 63.4733 227.46 62.936C228.361 62.3987 229.427 62.13 230.658 62.13C231.871 62.13 232.928 62.3987 233.83 62.936C234.748 63.4733 235.45 64.236 235.936 65.224C236.438 66.1947 236.69 67.3473 236.69 68.682C236.69 70.0167 236.438 71.178 235.936 72.166C235.45 73.1367 234.748 73.8907 233.83 74.428C232.928 74.9653 231.871 75.234 230.658 75.234ZM230.658 73.544C231.836 73.544 232.781 73.128 233.492 72.296C234.202 71.4467 234.558 70.242 234.558 68.682C234.558 67.1047 234.202 65.9 233.492 65.068C232.781 64.236 231.836 63.82 230.658 63.82C229.462 63.82 228.508 64.236 227.798 65.068C227.104 65.9 226.758 67.1047 226.758 68.682C226.758 70.242 227.104 71.4467 227.798 72.296C228.508 73.128 229.462 73.544 230.658 73.544ZM239.853 75V56.67H241.959V64.444C242.375 63.6813 242.956 63.1093 243.701 62.728C244.464 62.3293 245.313 62.13 246.249 62.13C249.248 62.13 250.747 63.794 250.747 67.122V75H248.641V67.252C248.641 66.0733 248.407 65.2153 247.939 64.678C247.488 64.1233 246.76 63.846 245.755 63.846C244.594 63.846 243.666 64.21 242.973 64.938C242.297 65.6487 241.959 66.602 241.959 67.798V75H239.853ZM254.63 75V62.364H256.684V64.522C257.1 63.7247 257.69 63.1267 258.452 62.728C259.215 62.3293 260.073 62.13 261.026 62.13C264.025 62.13 265.524 63.794 265.524 67.122V75H263.418V67.252C263.418 66.0733 263.184 65.2153 262.716 64.678C262.266 64.1233 261.538 63.846 260.532 63.846C259.371 63.846 258.444 64.21 257.75 64.938C257.074 65.6487 256.736 66.602 256.736 67.798V75H254.63Z" fill="black"/>
<path d="M808.864 150.095C850.286 150.095 883.864 116.516 883.864 75.0947C883.864 33.6734 850.286 0.0947266 808.864 0.0947266C767.443 0.0947266 733.864 33.6734 733.864 75.0947C733.864 116.516 767.443 150.095 808.864 150.095Z" fill="#ED1252"/>
<path d="M776.262 81V62.67H777.926L788.976 77.412V62.67H790.952V81H789.34L778.264 66.206V81H776.262ZM800.916 81.234C798.923 81.234 797.345 80.6533 796.184 79.492C795.023 78.3133 794.442 76.7187 794.442 74.708C794.442 73.408 794.702 72.264 795.222 71.276C795.742 70.2707 796.453 69.4993 797.354 68.962C798.273 68.4073 799.33 68.13 800.526 68.13C802.242 68.13 803.585 68.6847 804.556 69.794C805.527 70.886 806.012 72.394 806.012 74.318V75.124H796.496C796.565 76.5627 796.981 77.6633 797.744 78.426C798.507 79.1713 799.564 79.544 800.916 79.544C801.679 79.544 802.407 79.4313 803.1 79.206C803.793 78.9633 804.452 78.5733 805.076 78.036L805.804 79.518C805.232 80.0553 804.504 80.48 803.62 80.792C802.736 81.0867 801.835 81.234 800.916 81.234ZM800.578 69.69C799.382 69.69 798.437 70.0627 797.744 70.808C797.051 71.5533 796.643 72.5327 796.522 73.746H804.192C804.14 72.4633 803.802 71.4667 803.178 70.756C802.571 70.0453 801.705 69.69 800.578 69.69ZM814.312 81.234C813.081 81.234 812.015 80.9653 811.114 80.428C810.213 79.8907 809.511 79.1367 809.008 78.166C808.523 77.178 808.28 76.0167 808.28 74.682C808.28 73.3473 808.523 72.1947 809.008 71.224C809.511 70.236 810.213 69.4733 811.114 68.936C812.015 68.3987 813.081 68.13 814.312 68.13C815.525 68.13 816.583 68.3987 817.484 68.936C818.403 69.4733 819.105 70.236 819.59 71.224C820.093 72.1947 820.344 73.3473 820.344 74.682C820.344 76.0167 820.093 77.178 819.59 78.166C819.105 79.1367 818.403 79.8907 817.484 80.428C816.583 80.9653 815.525 81.234 814.312 81.234ZM814.312 79.544C815.491 79.544 816.435 79.128 817.146 78.296C817.857 77.4467 818.212 76.242 818.212 74.682C818.212 73.1047 817.857 71.9 817.146 71.068C816.435 70.236 815.491 69.82 814.312 69.82C813.116 69.82 812.163 70.236 811.452 71.068C810.759 71.9 810.412 73.1047 810.412 74.682C810.412 76.242 810.759 77.4467 811.452 78.296C812.163 79.128 813.116 79.544 814.312 79.544ZM831.333 81V77.074H822.883V75.462L831.697 62.67H833.491V75.254H836.221V77.074H833.491V81H831.333ZM831.333 75.254V66.18L825.093 75.254H831.333ZM838.915 65.218V62.852H841.515V65.218H838.915ZM835.821 86.018L835.665 84.38L836.783 84.276C838.378 84.1373 839.175 83.1753 839.175 81.39V68.364H841.281V81.182C841.281 82.69 840.926 83.834 840.215 84.614C839.504 85.394 838.412 85.836 836.939 85.94L835.821 86.018Z" fill="black"/>
</svg>
