<svg width="590" height="151" viewBox="0 0 590 151" fill="none" xmlns="http://www.w3.org/2000/svg">
<path d="M150 75.208L422.085 75.208L150 75.208Z" fill="black"/>
<path d="M150 75.208L422.085 75.208" stroke="#006FD6" stroke-width="3"/>
<path d="M422.086 75.208L420.077 68.5119L440.165 75.208L420.077 81.9042L422.086 75.208Z" fill="#006FD6"/>
<path d="M315.863 41.208L256.223 41.208C253.461 41.208 251.223 43.4466 251.223 46.208V67.208C251.223 69.9694 253.461 72.208 256.223 72.208L315.863 72.208C318.624 72.208 320.863 69.9694 320.863 67.208V46.208C320.863 43.4466 318.624 41.208 315.863 41.208Z" fill="white"/>
<path d="M257.546 53.936V51.794H259.688V53.936H257.546ZM257.546 62V59.858H259.688V62H257.546ZM262.828 62V47.195H264.55V60.488H272.089V62H262.828ZM274.23 62V47.195H275.952V62H274.23ZM279.603 62V47.195H281.325V53.915H281.367L288.549 47.195H290.754L283.026 54.398L291.216 62H288.948L281.367 55.028H281.325V62H279.603ZM292.728 62V47.195L302.073 47.195V48.644L294.408 48.644V53.768L301.632 53.768V55.217L294.408 55.217V60.551H302.073V62H292.728ZM309.554 62.189C308.392 62.189 307.342 62.042 306.404 61.748C305.466 61.44 304.654 60.999 303.968 60.425L304.577 59.039C305.291 59.585 306.04 59.991 306.824 60.257C307.608 60.523 308.518 60.656 309.554 60.656C310.814 60.656 311.745 60.425 312.347 59.963C312.963 59.487 313.271 58.864 313.271 58.094C313.271 57.478 313.047 56.988 312.599 56.624C312.165 56.26 311.43 55.973 310.394 55.763L308.21 55.322C306.894 55.042 305.907 54.587 305.249 53.957C304.605 53.313 304.283 52.459 304.283 51.395C304.283 50.513 304.507 49.743 304.955 49.085C305.417 48.427 306.054 47.916 306.866 47.552C307.678 47.188 308.616 47.006 309.68 47.006C310.674 47.006 311.598 47.167 312.452 47.489C313.306 47.797 314.027 48.245 314.615 48.833L314.006 50.177C313.376 49.603 312.711 49.19 312.011 48.938C311.311 48.672 310.527 48.539 309.659 48.539C308.553 48.539 307.671 48.798 307.013 49.316C306.355 49.82 306.026 50.492 306.026 51.332C306.026 52.004 306.229 52.536 306.635 52.928C307.055 53.32 307.734 53.607 308.672 53.789L310.856 54.251C312.27 54.545 313.313 54.993 313.985 55.595C314.671 56.183 315.014 56.988 315.014 58.01C315.014 58.836 314.79 59.564 314.342 60.194C313.908 60.824 313.278 61.314 312.452 61.664C311.64 62.014 310.674 62.189 309.554 62.189Z" fill="black"/>
<path d="M75 150C116.421 150 150 116.421 150 75C150 33.5786 116.421 0 75 0C33.5786 0 0 33.5786 0 75C0 116.421 33.5786 150 75 150Z" fill="#7AD1FF"/>
<path d="M36.262 82V63.67H43.516C45.492 63.67 47 64.1467 48.04 65.1C49.0973 66.0533 49.626 67.414 49.626 69.182C49.626 70.9327 49.0973 72.2933 48.04 73.264C47 74.2173 45.492 74.694 43.516 74.694H38.394V82H36.262ZM38.394 72.9H43.256C46.0987 72.9 47.52 71.6607 47.52 69.182C47.52 66.686 46.0987 65.438 43.256 65.438H38.394V72.9ZM57.5391 82.234C55.5458 82.234 53.9685 81.6533 52.8071 80.492C51.6458 79.3133 51.0651 77.7187 51.0651 75.708C51.0651 74.408 51.3251 73.264 51.8451 72.276C52.3651 71.2707 53.0758 70.4993 53.9771 69.962C54.8958 69.4073 55.9531 69.13 57.1491 69.13C58.8651 69.13 60.2085 69.6847 61.1791 70.794C62.1498 71.886 62.6351 73.394 62.6351 75.318V76.124H53.1191C53.1885 77.5627 53.6045 78.6633 54.3671 79.426C55.1298 80.1713 56.1871 80.544 57.5391 80.544C58.3018 80.544 59.0298 80.4313 59.7231 80.206C60.4165 79.9633 61.0751 79.5733 61.6991 79.036L62.4271 80.518C61.8551 81.0553 61.1271 81.48 60.2431 81.792C59.3591 82.0867 58.4578 82.234 57.5391 82.234ZM57.2011 70.69C56.0051 70.69 55.0605 71.0627 54.3671 71.808C53.6738 72.5533 53.2665 73.5327 53.1451 74.746H60.8151C60.7631 73.4633 60.4251 72.4667 59.8011 71.756C59.1945 71.0453 58.3278 70.69 57.2011 70.69ZM65.683 82V69.364H67.737V71.626C68.413 70.1007 69.7997 69.26 71.897 69.104L72.651 69.026L72.807 70.846L71.481 71.002C70.285 71.106 69.375 71.4873 68.751 72.146C68.127 72.7873 67.815 73.6713 67.815 74.798V82H65.683ZM79.1384 82.234C78.1504 82.234 77.2144 82.0953 76.3304 81.818C75.4464 81.5407 74.7184 81.1507 74.1464 80.648L74.8224 79.166C75.4464 79.6687 76.1311 80.0413 76.8764 80.284C77.6391 80.5093 78.4104 80.622 79.1904 80.622C80.1784 80.622 80.9238 80.44 81.4264 80.076C81.9291 79.712 82.1804 79.218 82.1804 78.594C82.1804 78.1087 82.0158 77.7273 81.6864 77.45C81.3571 77.1553 80.8371 76.93 80.1264 76.774L77.7604 76.254C75.6111 75.786 74.5364 74.6767 74.5364 72.926C74.5364 71.782 74.9871 70.8633 75.8884 70.17C76.8071 69.4767 78.0031 69.13 79.4764 69.13C80.3431 69.13 81.1664 69.2687 81.9464 69.546C82.7438 69.806 83.4024 70.196 83.9224 70.716L83.2204 72.198C82.7178 71.73 82.1284 71.3747 81.4524 71.132C80.7938 70.872 80.1351 70.742 79.4764 70.742C78.5058 70.742 77.7691 70.9327 77.2664 71.314C76.7638 71.6953 76.5124 72.198 76.5124 72.822C76.5124 73.7927 77.1538 74.4167 78.4364 74.694L80.8024 75.188C81.9118 75.4307 82.7524 75.8207 83.3244 76.358C83.8964 76.878 84.1824 77.5887 84.1824 78.49C84.1824 79.6513 83.7231 80.57 82.8044 81.246C81.8858 81.9047 80.6638 82.234 79.1384 82.234ZM92.644 82.234C91.4133 82.234 90.3473 81.9653 89.446 81.428C88.5447 80.8907 87.8427 80.1367 87.34 79.166C86.8547 78.178 86.612 77.0167 86.612 75.682C86.612 74.3473 86.8547 73.1947 87.34 72.224C87.8427 71.236 88.5447 70.4733 89.446 69.936C90.3473 69.3987 91.4133 69.13 92.644 69.13C93.8573 69.13 94.9147 69.3987 95.816 69.936C96.7347 70.4733 97.4367 71.236 97.922 72.224C98.4247 73.1947 98.676 74.3473 98.676 75.682C98.676 77.0167 98.4247 78.178 97.922 79.166C97.4367 80.1367 96.7347 80.8907 95.816 81.428C94.9147 81.9653 93.8573 82.234 92.644 82.234ZM92.644 80.544C93.8227 80.544 94.7673 80.128 95.478 79.296C96.1887 78.4467 96.544 77.242 96.544 75.682C96.544 74.1047 96.1887 72.9 95.478 72.068C94.7673 71.236 93.8227 70.82 92.644 70.82C91.448 70.82 90.4947 71.236 89.784 72.068C89.0907 72.9 88.744 74.1047 88.744 75.682C88.744 77.242 89.0907 78.4467 89.784 79.296C90.4947 80.128 91.448 80.544 92.644 80.544ZM101.839 82V69.364H103.893V71.522C104.309 70.7247 104.899 70.1267 105.661 69.728C106.424 69.3293 107.282 69.13 108.235 69.13C111.234 69.13 112.733 70.794 112.733 74.122V82H110.627V74.252C110.627 73.0733 110.393 72.2153 109.925 71.678C109.475 71.1233 108.747 70.846 107.741 70.846C106.58 70.846 105.653 71.21 104.959 71.938C104.283 72.6487 103.945 73.602 103.945 74.798V82H101.839Z" fill="black"/>
<path d="M514.5 150.018C555.921 150.018 589.5 116.44 589.5 75.0183C589.5 33.597 555.921 0.0183105 514.5 0.0183105C473.079 0.0183105 439.5 33.597 439.5 75.0183C439.5 116.44 473.079 150.018 514.5 150.018Z" fill="#00BA88"/>
<path d="M453.76 83V66.516H447.104V64.67H462.574V66.516H455.918V83H453.76ZM468.33 83.234C466.337 83.234 464.759 82.6533 463.598 81.492C462.437 80.3133 461.856 78.7187 461.856 76.708C461.856 75.408 462.116 74.264 462.636 73.276C463.156 72.2707 463.867 71.4993 464.768 70.962C465.687 70.4073 466.744 70.13 467.94 70.13C469.656 70.13 470.999 70.6847 471.97 71.794C472.941 72.886 473.426 74.394 473.426 76.318V77.124H463.91C463.979 78.5627 464.395 79.6633 465.158 80.426C465.921 81.1713 466.978 81.544 468.33 81.544C469.093 81.544 469.821 81.4313 470.514 81.206C471.207 80.9633 471.866 80.5733 472.49 80.036L473.218 81.518C472.646 82.0553 471.918 82.48 471.034 82.792C470.15 83.0867 469.249 83.234 468.33 83.234ZM467.992 71.69C466.796 71.69 465.851 72.0627 465.158 72.808C464.465 73.5533 464.057 74.5327 463.936 75.746H471.606C471.554 74.4633 471.216 73.4667 470.592 72.756C469.985 72.0453 469.119 71.69 467.992 71.69ZM481.83 83.234C480.565 83.234 479.473 82.9653 478.554 82.428C477.635 81.8733 476.925 81.102 476.422 80.114C475.937 79.1087 475.694 77.9387 475.694 76.604C475.694 74.5933 476.24 73.016 477.332 71.872C478.424 70.7107 479.923 70.13 481.83 70.13C482.61 70.13 483.381 70.2687 484.144 70.546C484.907 70.8233 485.539 71.2133 486.042 71.716L485.314 73.25C484.811 72.7647 484.257 72.4093 483.65 72.184C483.061 71.9587 482.497 71.846 481.96 71.846C480.643 71.846 479.629 72.262 478.918 73.094C478.207 73.9087 477.852 75.0873 477.852 76.63C477.852 78.138 478.207 79.334 478.918 80.218C479.629 81.0847 480.643 81.518 481.96 81.518C482.497 81.518 483.061 81.4053 483.65 81.18C484.257 80.9547 484.811 80.5907 485.314 80.088L486.042 81.622C485.539 82.1247 484.898 82.5233 484.118 82.818C483.355 83.0953 482.593 83.234 481.83 83.234ZM488.509 83V64.67H490.615V72.444C491.031 71.6813 491.612 71.1093 492.357 70.728C493.12 70.3293 493.969 70.13 494.905 70.13C497.904 70.13 499.403 71.794 499.403 75.122V83H497.297V75.252C497.297 74.0733 497.063 73.2153 496.595 72.678C496.145 72.1233 495.417 71.846 494.411 71.846C493.25 71.846 492.323 72.21 491.629 72.938C490.953 73.6487 490.615 74.602 490.615 75.798V83H488.509ZM503.287 83V70.364H505.341V72.522C505.757 71.7247 506.346 71.1267 507.109 70.728C507.871 70.3293 508.729 70.13 509.683 70.13C512.681 70.13 514.181 71.794 514.181 75.122V83H512.075V75.252C512.075 74.0733 511.841 73.2153 511.373 72.678C510.922 72.1233 510.194 71.846 509.189 71.846C508.027 71.846 507.1 72.21 506.407 72.938C505.731 73.6487 505.393 74.602 505.393 75.798V83H503.287ZM523.316 83.234C522.085 83.234 521.019 82.9653 520.118 82.428C519.217 81.8907 518.515 81.1367 518.012 80.166C517.527 79.178 517.284 78.0167 517.284 76.682C517.284 75.3473 517.527 74.1947 518.012 73.224C518.515 72.236 519.217 71.4733 520.118 70.936C521.019 70.3987 522.085 70.13 523.316 70.13C524.529 70.13 525.587 70.3987 526.488 70.936C527.407 71.4733 528.109 72.236 528.594 73.224C529.097 74.1947 529.348 75.3473 529.348 76.682C529.348 78.0167 529.097 79.178 528.594 80.166C528.109 81.1367 527.407 81.8907 526.488 82.428C525.587 82.9653 524.529 83.234 523.316 83.234ZM523.316 81.544C524.495 81.544 525.439 81.128 526.15 80.296C526.861 79.4467 527.216 78.242 527.216 76.682C527.216 75.1047 526.861 73.9 526.15 73.068C525.439 72.236 524.495 71.82 523.316 71.82C522.12 71.82 521.167 72.236 520.456 73.068C519.763 73.9 519.416 75.1047 519.416 76.682C519.416 78.242 519.763 79.4467 520.456 80.296C521.167 81.128 522.12 81.544 523.316 81.544ZM536.385 83.234C535.102 83.234 534.132 82.8613 533.473 82.116C532.832 81.3533 532.511 80.2527 532.511 78.814V64.67H534.617V78.658C534.617 80.5127 535.354 81.44 536.827 81.44C537.26 81.44 537.65 81.388 537.997 81.284L537.945 83.052C537.408 83.1733 536.888 83.234 536.385 83.234ZM545.33 83.234C544.099 83.234 543.033 82.9653 542.132 82.428C541.23 81.8907 540.528 81.1367 540.026 80.166C539.54 79.178 539.298 78.0167 539.298 76.682C539.298 75.3473 539.54 74.1947 540.026 73.224C540.528 72.236 541.23 71.4733 542.132 70.936C543.033 70.3987 544.099 70.13 545.33 70.13C546.543 70.13 547.6 70.3987 548.502 70.936C549.42 71.4733 550.122 72.236 550.608 73.224C551.11 74.1947 551.362 75.3473 551.362 76.682C551.362 78.0167 551.11 79.178 550.608 80.166C550.122 81.1367 549.42 81.8907 548.502 82.428C547.6 82.9653 546.543 83.234 545.33 83.234ZM545.33 81.544C546.508 81.544 547.453 81.128 548.164 80.296C548.874 79.4467 549.23 78.242 549.23 76.682C549.23 75.1047 548.874 73.9 548.164 73.068C547.453 72.236 546.508 71.82 545.33 71.82C544.134 71.82 543.18 72.236 542.47 73.068C541.776 73.9 541.43 75.1047 541.43 76.682C541.43 78.242 541.776 79.4467 542.47 80.296C543.18 81.128 544.134 81.544 545.33 81.544ZM560.115 87.914C559.023 87.914 557.991 87.7667 557.021 87.472C556.067 87.1947 555.218 86.77 554.473 86.198L555.175 84.664C555.955 85.2187 556.726 85.6173 557.489 85.86C558.269 86.1027 559.109 86.224 560.011 86.224C562.507 86.224 563.755 84.9413 563.755 82.376V80.14C563.391 80.9373 562.819 81.57 562.039 82.038C561.276 82.4887 560.401 82.714 559.413 82.714C558.251 82.714 557.246 82.4453 556.397 81.908C555.547 81.3707 554.889 80.634 554.421 79.698C553.97 78.7447 553.745 77.644 553.745 76.396C553.745 75.148 553.97 74.056 554.421 73.12C554.889 72.1667 555.547 71.43 556.397 70.91C557.246 70.39 558.251 70.13 559.413 70.13C560.401 70.13 561.276 70.3553 562.039 70.806C562.819 71.2567 563.391 71.872 563.755 72.652V70.364H565.809V82.09C565.809 84.0313 565.323 85.4873 564.353 86.458C563.399 87.4287 561.987 87.914 560.115 87.914ZM559.803 80.998C561.016 80.998 561.978 80.582 562.689 79.75C563.399 78.918 563.755 77.8 563.755 76.396C563.755 74.992 563.399 73.8827 562.689 73.068C561.978 72.236 561.016 71.82 559.803 71.82C558.607 71.82 557.653 72.236 556.943 73.068C556.232 73.8827 555.877 74.992 555.877 76.396C555.877 77.8 556.232 78.918 556.943 79.75C557.653 80.582 558.607 80.998 559.803 80.998ZM571.215 87.68L573.373 82.792L568.043 70.364H570.331L574.517 80.608L578.729 70.364H580.939L573.425 87.68H571.215Z" fill="black"/>
</svg>
