<?xml version="1.0" encoding="UTF-8" standalone="no"?>
<!DOCTYPE svg PUBLIC "-//W3C//DTD SVG 1.1//EN"
 "http://www.w3.org/Graphics/SVG/1.1/DTD/svg11.dtd">
<!-- Generated by graphviz version 2.44.0 ()
 -->
<!-- Title: L Pages: 1 -->
<svg width="170pt" height="198pt"
 viewBox="0.00 0.00 170.00 198.00" xmlns="http://www.w3.org/2000/svg" xmlns:xlink="http://www.w3.org/1999/xlink">
<g id="graph0" class="graph" transform="scale(1 1) rotate(0) translate(4 194)">
<title>L</title>
<polygon fill="white" stroke="transparent" points="-4,4 -4,-194 166,-194 166,4 -4,4"/>
<!-- N2 -->
<g id="node1" class="node">
<title>N2</title>
<path fill="none" stroke="black" d="M12,-128.5C12,-128.5 120,-128.5 120,-128.5 126,-128.5 132,-134.5 132,-140.5 132,-140.5 132,-177.5 132,-177.5 132,-183.5 126,-189.5 120,-189.5 120,-189.5 12,-189.5 12,-189.5 6,-189.5 0,-183.5 0,-177.5 0,-177.5 0,-140.5 0,-140.5 0,-134.5 6,-128.5 12,-128.5"/>
<text text-anchor="middle" x="66" y="-174.3" font-family="Times,serif" font-size="14.00">Person</text>
<polyline fill="none" stroke="black" points="0,-166.5 132,-166.5 "/>
<text text-anchor="start" x="8" y="-151.3" font-family="Times,serif" font-size="14.00">name = &#39;Tom Hanks&#39;</text>
<text text-anchor="start" x="8" y="-136.3" font-family="Times,serif" font-size="14.00">born = 1956</text>
</g>
<!-- N5 -->
<g id="node2" class="node">
<title>N5</title>
<path fill="none" stroke="black" d="M15.5,-0.5C15.5,-0.5 116.5,-0.5 116.5,-0.5 122.5,-0.5 128.5,-6.5 128.5,-12.5 128.5,-12.5 128.5,-49.5 128.5,-49.5 128.5,-55.5 122.5,-61.5 116.5,-61.5 116.5,-61.5 15.5,-61.5 15.5,-61.5 9.5,-61.5 3.5,-55.5 3.5,-49.5 3.5,-49.5 3.5,-12.5 3.5,-12.5 3.5,-6.5 9.5,-0.5 15.5,-0.5"/>
<text text-anchor="middle" x="66" y="-46.3" font-family="Times,serif" font-size="14.00">Movie</text>
<polyline fill="none" stroke="black" points="3.5,-38.5 128.5,-38.5 "/>
<text text-anchor="start" x="11.5" y="-23.3" font-family="Times,serif" font-size="14.00">title = &#39;Cloud Atlas&#39;</text>
<text text-anchor="start" x="11.5" y="-8.3" font-family="Times,serif" font-size="14.00">released = 2012</text>
</g>
<!-- N2&#45;&gt;N5 -->
<g id="edge1" class="edge">
<title>N2&#45;&gt;N5</title>
<path fill="none" stroke="#2e3436" d="M66,-128.46C66,-111.6 66,-90.23 66,-71.9"/>
<polygon fill="#2e3436" stroke="#2e3436" points="69.5,-71.79 66,-61.79 62.5,-71.79 69.5,-71.79"/>
<text text-anchor="middle" x="114" y="-98.8" font-family="Times,serif" font-size="14.00" fill="#2e3436">ACTED_IN</text>
<text text-anchor="start" x="66" y="-83.8" font-family="Times,serif" font-size="14.00" fill="#2e3436">roles = [&#39;Zachry&#39;]</text>
</g>
</g>
</svg>
