<svg width="987" height="510" viewBox="0 0 987 510" fill="none" xmlns="http://www.w3.org/2000/svg">
<path d="M445.665 431.018L173.58 431.018Z" fill="black"/>
<path d="M445.665 431.018L173.58 431.018" stroke="#006FD6" stroke-width="3"/>
<path d="M173.58 431.018L175.588 424.322L155.5 431.018L175.588 437.714L173.58 431.018Z" fill="#006FD6"/>
<path d="M339.442 397.018H279.802C277.041 397.018 274.802 399.257 274.802 402.018V423.018C274.802 425.78 277.041 428.018 279.802 428.018H339.442C342.204 428.018 344.442 425.78 344.442 423.018V402.018C344.442 399.257 342.204 397.018 339.442 397.018Z" fill="white"/>
<path d="M281.125 409.746V407.604H283.267V409.746H281.125ZM281.125 417.81V415.668H283.267V417.81H281.125ZM286.408 417.81V403.005H288.13V416.298H295.669V417.81H286.408ZM297.81 417.81V403.005H299.532V417.81H297.81ZM303.183 417.81V403.005H304.905V409.725H304.947L312.129 403.005H314.334L306.606 410.208L314.796 417.81H312.528L304.947 410.838H304.905V417.81H303.183ZM316.308 417.81V403.005H325.653V404.454H317.988V409.578H325.212V411.027H317.988V416.361H325.653V417.81H316.308ZM333.134 417.999C331.972 417.999 330.922 417.852 329.984 417.558C329.046 417.25 328.234 416.809 327.548 416.235L328.157 414.849C328.871 415.395 329.62 415.801 330.404 416.067C331.188 416.333 332.098 416.466 333.134 416.466C334.394 416.466 335.325 416.235 335.927 415.773C336.543 415.297 336.851 414.674 336.851 413.904C336.851 413.288 336.627 412.798 336.179 412.434C335.745 412.07 335.01 411.783 333.974 411.573L331.79 411.132C330.474 410.852 329.487 410.397 328.829 409.767C328.185 409.123 327.863 408.269 327.863 407.205C327.863 406.323 328.087 405.553 328.535 404.895C328.997 404.237 329.634 403.726 330.446 403.362C331.258 402.998 332.196 402.816 333.26 402.816C334.254 402.816 335.178 402.977 336.032 403.299C336.886 403.607 337.607 404.055 338.195 404.643L337.586 405.987C336.956 405.413 336.291 405 335.591 404.748C334.891 404.482 334.107 404.349 333.239 404.349C332.133 404.349 331.251 404.608 330.593 405.126C329.935 405.63 329.606 406.302 329.606 407.142C329.606 407.814 329.809 408.346 330.215 408.738C330.635 409.13 331.314 409.417 332.252 409.599L334.436 410.061C335.85 410.355 336.893 410.803 337.565 411.405C338.251 411.993 338.594 412.798 338.594 413.82C338.594 414.646 338.37 415.374 337.922 416.004C337.488 416.634 336.858 417.124 336.032 417.474C335.22 417.824 334.254 417.999 333.134 417.999Z" fill="black"/>
<path d="M475.337 368.833L304.168 157.334Z" fill="black"/>
<path d="M475.337 368.833L304.168 157.334" stroke="#006FD6" stroke-width="3"/>
<path d="M304.167 157.334L310.636 154.683L292.793 143.281L300.226 163.108L304.167 157.334Z" fill="#006FD6"/>
<path d="M474.971 314.335L357.392 169.053C355.654 166.907 352.506 166.575 350.359 168.312L334.036 181.523C331.889 183.26 331.557 186.409 333.295 188.555L450.874 333.837C452.611 335.983 455.759 336.315 457.906 334.578L474.23 321.367C476.376 319.63 476.708 316.481 474.971 314.335Z" fill="white"/>
<path d="M348.33 178.089L349.995 176.741L351.343 178.406L349.678 179.754L348.33 178.089ZM342.062 183.162L343.727 181.814L345.074 183.479L343.409 184.827L342.062 183.162ZM345.385 187.268L356.893 177.954L357.976 179.293L346.468 188.606L345.385 187.268ZM351.63 195.285C350.899 194.382 350.353 193.473 349.991 192.559C349.641 191.636 349.473 190.728 349.487 189.833L350.948 189.435C350.973 190.333 351.128 191.171 351.415 191.948C351.701 192.724 352.17 193.515 352.822 194.321C353.615 195.3 354.38 195.879 355.118 196.056C355.875 196.235 356.553 196.083 357.152 195.598C357.631 195.211 357.871 194.728 357.872 194.151C357.882 193.585 357.642 192.833 357.154 191.896L356.123 189.92C355.512 188.721 355.245 187.668 355.321 186.76C355.416 185.854 355.878 185.067 356.705 184.397C357.39 183.842 358.13 183.532 358.923 183.467C359.725 183.412 360.523 183.585 361.317 183.988C362.111 184.39 362.842 185.004 363.512 185.831C364.137 186.604 364.593 187.424 364.88 188.29C365.178 189.148 365.283 189.99 365.196 190.817L363.768 191.189C363.818 190.338 363.721 189.561 363.476 188.859C363.243 188.147 362.853 187.454 362.307 186.78C361.611 185.92 360.855 185.397 360.038 185.212C359.232 185.017 358.503 185.184 357.85 185.713C357.328 186.135 357.042 186.628 356.993 187.19C356.952 187.763 357.156 188.471 357.605 189.315L358.62 191.303C359.281 192.588 359.589 193.68 359.543 194.581C359.518 195.484 359.108 196.257 358.314 196.9C357.672 197.42 356.965 197.704 356.193 197.752C355.43 197.811 354.653 197.629 353.862 197.208C353.079 196.797 352.335 196.156 351.63 195.285ZM355.014 200.934L355.879 200.234L361.956 207.743L361.091 208.443L355.014 200.934ZM363.37 209.49L374.878 200.176L380.638 207.293L379.512 208.205L374.835 202.426L370.819 205.676L375.232 211.128L374.105 212.04L369.693 206.588L364.453 210.828L363.37 209.49ZM370.607 218.433L382.116 209.119L385.801 213.673C386.806 214.914 387.283 216.094 387.235 217.214C387.196 218.345 386.643 219.341 385.576 220.205C384.727 220.892 383.841 221.221 382.918 221.194C382.004 221.177 381.122 220.81 380.272 220.093C380.503 220.735 380.427 221.508 380.043 222.414L377.926 227.476L376.737 226.007L378.815 221.03C379.069 220.41 379.146 219.87 379.045 219.412C378.944 218.953 378.678 218.457 378.246 217.924L376.555 215.835L371.691 219.771L370.607 218.433ZM377.616 214.976L380.06 217.996C381.522 219.802 383.004 220.098 384.506 218.882C385.986 217.684 385.995 216.182 384.533 214.376L382.089 211.356L377.616 214.976ZM379.445 229.353L390.953 220.039L392.036 221.377L380.528 230.691L379.445 229.353ZM382.825 233.529L394.333 224.215L400.212 231.479L399.086 232.391L394.264 226.433L390.281 229.656L394.825 235.272L393.699 236.183L389.154 230.568L385.008 233.924L389.83 239.882L388.704 240.793L382.825 233.529ZM390.527 243.046L402.035 233.732L402.881 234.777L399.24 249.205L408.496 241.715L409.5 242.955L397.991 252.269L397.172 251.257L400.833 236.786L391.544 244.303L390.527 243.046ZM400.307 255.13L411.815 245.816L414.959 249.701C416.465 251.562 417.133 253.399 416.961 255.212C416.801 257.017 415.79 258.673 413.929 260.179C412.069 261.685 410.233 262.332 408.424 262.122C406.615 261.911 404.957 260.875 403.451 259.015L400.307 255.13ZM402.533 255.543L404.514 257.992C406.945 260.995 409.7 261.251 412.78 258.758C415.849 256.275 416.168 253.531 413.737 250.528L411.755 248.079L402.533 255.543ZM412.977 271.086C412.246 270.182 411.7 269.274 411.338 268.36C410.987 267.437 410.819 266.528 410.834 265.634L412.294 265.235C412.319 266.134 412.475 266.971 412.761 267.748C413.048 268.525 413.517 269.316 414.169 270.121C414.961 271.101 415.726 271.679 416.464 271.856C417.222 272.036 417.9 271.883 418.498 271.399C418.977 271.011 419.217 270.529 419.218 269.952C419.228 269.385 418.989 268.633 418.5 267.696L417.469 265.721C416.859 264.522 416.592 263.468 416.668 262.56C416.763 261.655 417.224 260.867 418.051 260.198C418.737 259.643 419.476 259.333 420.27 259.267C421.072 259.212 421.87 259.386 422.664 259.788C423.457 260.19 424.189 260.805 424.858 261.632C425.484 262.404 425.94 263.224 426.227 264.09C426.525 264.948 426.63 265.79 426.543 266.617L425.115 266.989C425.165 266.139 425.067 265.362 424.823 264.659C424.589 263.948 424.199 263.255 423.653 262.58C422.958 261.72 422.201 261.198 421.385 261.012C420.579 260.818 419.85 260.985 419.197 261.513C418.674 261.936 418.389 262.428 418.339 262.99C418.299 263.564 418.503 264.272 418.952 265.115L419.966 267.104C420.627 268.388 420.935 269.48 420.89 270.382C420.865 271.285 420.455 272.058 419.66 272.701C419.018 273.22 418.311 273.504 417.54 273.552C416.777 273.611 416 273.43 415.208 273.008C414.425 272.597 413.681 271.956 412.977 271.086ZM416.36 276.735L417.225 276.035L423.303 283.544L422.437 284.244L416.36 276.735ZM426.542 287.547L434.788 274.201L435.924 275.605L429.003 286.582L441.248 282.183L442.12 283.261L435.157 294.353L447.47 289.872L448.554 291.21L433.782 296.492L432.818 295.301L439.63 284.357L427.48 288.706L426.542 287.547ZM438.572 302.411L450.081 293.097L451.164 294.436L439.656 303.75L438.572 302.411ZM444.238 309.412L454.587 301.036L451.205 296.857L452.364 295.919L460.225 305.632L459.066 306.57L455.684 302.391L445.335 310.767L444.238 309.412ZM449.9 316.407L461.408 307.094L462.491 308.432L457.398 312.554L462.987 319.459L468.08 315.337L469.163 316.676L457.655 325.99L456.572 324.651L461.828 320.397L456.239 313.492L450.983 317.746L449.9 316.407Z" fill="black"/>
<path d="M575.993 368.832L747.162 157.334Z" fill="black"/>
<path d="M575.993 368.832L747.162 157.334" stroke="#006FD6" stroke-width="3"/>
<path d="M747.162 157.334L751.104 163.108L758.536 143.281L740.693 154.683L747.162 157.334Z" fill="#006FD6"/>
<path d="M677.385 189.507L592.913 293.881C591.175 296.027 591.507 299.176 593.654 300.913L609.977 314.124C612.124 315.861 615.272 315.53 617.01 313.383L701.482 209.009C703.219 206.862 702.887 203.714 700.74 201.977L684.417 188.766C682.27 187.028 679.122 187.36 677.385 189.507Z" fill="white"/>
<path d="M603.639 300.86L601.974 299.512L603.321 297.847L604.986 299.195L603.639 300.86ZM609.907 305.933L608.242 304.585L609.59 302.92L611.255 304.268L609.907 305.933ZM615.405 299.14L600.633 293.858L601.77 292.454L613.948 296.934L607.094 285.876L607.966 284.798L620.265 289.295L613.316 278.187L614.399 276.848L622.645 290.194L621.68 291.386L609.557 287.005L616.343 297.981L615.405 299.14ZM631.286 279.818C630.423 280.884 629.43 281.621 628.308 282.028C627.185 282.415 626.006 282.469 624.772 282.191C623.547 281.902 622.33 281.269 621.123 280.291C619.915 279.314 619.042 278.256 618.504 277.118C617.966 275.98 617.774 274.826 617.93 273.655C618.094 272.473 618.612 271.343 619.484 270.266C620.364 269.178 621.361 268.436 622.474 268.04C623.596 267.633 624.769 267.574 625.994 267.863C627.217 268.132 628.433 268.755 629.641 269.733C630.849 270.711 631.723 271.778 632.263 272.936C632.792 274.085 632.98 275.254 632.827 276.445C632.671 277.616 632.158 278.74 631.286 279.818ZM630.094 278.853C631.089 277.624 631.446 276.337 631.165 274.993C630.884 273.648 629.998 272.373 628.508 271.166C627.017 269.96 625.59 269.364 624.228 269.378C622.855 269.383 621.67 270.001 620.675 271.23C619.698 272.438 619.349 273.714 619.63 275.058C619.9 276.394 620.781 277.665 622.272 278.871C623.752 280.069 625.184 280.67 626.568 280.673C627.941 280.668 629.116 280.061 630.094 278.853ZM637.356 272.017L625.848 262.703L629.534 258.149C630.538 256.908 631.592 256.195 632.698 256.008C633.812 255.811 634.902 256.144 635.968 257.008C636.817 257.695 637.324 258.492 637.49 259.4C637.664 260.298 637.489 261.237 636.965 262.218C637.545 261.858 638.317 261.772 639.282 261.959L644.675 262.973L643.486 264.443L638.185 263.448C637.525 263.329 636.982 263.366 636.554 263.56C636.127 263.755 635.697 264.119 635.266 264.652L633.575 266.741L638.439 270.678L637.356 272.017ZM632.514 265.883L634.958 262.863C636.42 261.056 636.4 259.545 634.898 258.33C633.418 257.132 631.947 257.436 630.485 259.243L628.041 262.263L632.514 265.883ZM646.194 261.097L634.685 251.783L635.769 250.445L640.992 254.672L641.019 254.64L640.313 244.829L641.7 243.115L642.438 253.654L653.499 252.07L652.072 253.833L641.884 255.34L641.857 255.372L647.277 259.758L646.194 261.097ZM657.248 247.738C656.517 248.641 655.742 249.365 654.924 249.909C654.094 250.445 653.241 250.798 652.363 250.97L651.669 249.625C652.542 249.414 653.329 249.087 654.029 248.645C654.729 248.203 655.405 247.579 656.057 246.774C656.849 245.794 657.255 244.925 657.275 244.167C657.293 243.388 657.002 242.757 656.404 242.273C655.925 241.885 655.403 241.751 654.838 241.87C654.282 241.979 653.597 242.369 652.782 243.043L651.065 244.463C650.019 245.31 649.045 245.791 648.141 245.906C647.235 246.001 646.369 245.714 645.542 245.045C644.856 244.49 644.399 243.831 644.169 243.069C643.948 242.296 643.952 241.48 644.18 240.619C644.407 239.759 644.856 238.916 645.525 238.089C646.151 237.316 646.857 236.699 647.645 236.238C648.421 235.768 649.223 235.489 650.05 235.402L650.712 236.721C649.869 236.849 649.13 237.106 648.494 237.492C647.847 237.869 647.25 238.395 646.704 239.069C646.008 239.929 645.655 240.777 645.643 241.615C645.621 242.443 645.936 243.122 646.589 243.65C647.112 244.073 647.653 244.25 648.213 244.181C648.782 244.101 649.432 243.754 650.164 243.139L651.897 241.732C653.015 240.818 654.019 240.289 654.91 240.145C655.799 239.982 656.64 240.222 657.435 240.865C658.077 241.385 658.502 242.017 658.71 242.761C658.926 243.495 658.911 244.293 658.663 245.155C658.425 246.007 657.953 246.867 657.248 247.738ZM662.068 243.251L661.203 242.551L667.28 235.042L668.145 235.742L662.068 243.251ZM668.694 233.296L657.185 223.982L662.945 216.865L664.072 217.776L659.395 223.555L663.411 226.805L667.823 221.353L668.95 222.264L664.537 227.716L669.777 231.957L668.694 233.296ZM679.77 219.911C678.906 220.977 677.914 221.714 676.792 222.121C675.668 222.508 674.49 222.562 673.256 222.284C672.031 221.995 670.814 221.362 669.606 220.384C668.398 219.407 667.525 218.349 666.987 217.211C666.449 216.073 666.258 214.919 666.413 213.748C666.577 212.566 667.096 211.436 667.967 210.359C668.848 209.271 669.845 208.529 670.958 208.133C672.08 207.726 673.253 207.667 674.478 207.956C675.701 208.225 676.916 208.848 678.124 209.826C679.332 210.804 680.206 211.871 680.746 213.029C681.276 214.177 681.464 215.347 681.31 216.538C681.155 217.709 680.641 218.833 679.77 219.911ZM678.578 218.946C679.573 217.716 679.93 216.43 679.649 215.086C679.368 213.741 678.482 212.466 676.991 211.259C675.5 210.053 674.074 209.457 672.712 209.471C671.339 209.476 670.154 210.094 669.159 211.323C668.181 212.531 667.833 213.807 668.114 215.151C668.384 216.487 669.265 217.758 670.756 218.964C672.236 220.162 673.668 220.763 675.052 220.766C676.425 220.761 677.6 220.154 678.578 218.946ZM685.84 212.11L674.332 202.796L678.017 198.242C679.021 197.001 680.076 196.288 681.181 196.101C682.295 195.904 683.386 196.237 684.452 197.101C685.301 197.788 685.808 198.585 685.973 199.493C686.148 200.391 685.973 201.33 685.449 202.311C686.028 201.951 686.801 201.865 687.766 202.052L693.159 203.066L691.97 204.536L686.669 203.541C686.009 203.422 685.466 203.459 685.038 203.653C684.611 203.848 684.181 204.212 683.75 204.745L682.059 206.834L686.923 210.771L685.84 212.11ZM680.998 205.976L683.442 202.956C684.904 201.149 684.884 199.638 683.382 198.423C681.902 197.225 680.431 197.529 678.969 199.336L676.525 202.356L680.998 205.976Z" fill="black"/>
<path d="M525.665 506.018C567.086 506.018 600.665 472.44 600.665 431.018C600.665 389.597 567.086 356.018 525.665 356.018C484.244 356.018 450.665 389.597 450.665 431.018C450.665 472.44 484.244 506.018 525.665 506.018Z" fill="#7AD1FF"/>
<path d="M504.19 438.234C502.751 438.234 501.451 438.052 500.29 437.688C499.129 437.307 498.123 436.761 497.274 436.05L498.028 434.334C498.912 435.01 499.839 435.513 500.81 435.842C501.781 436.171 502.907 436.336 504.19 436.336C505.75 436.336 506.903 436.05 507.648 435.478C508.411 434.889 508.792 434.117 508.792 433.164C508.792 432.401 508.515 431.795 507.96 431.344C507.423 430.893 506.513 430.538 505.23 430.278L502.526 429.732C500.897 429.385 499.675 428.822 498.86 428.042C498.063 427.245 497.664 426.187 497.664 424.87C497.664 423.778 497.941 422.825 498.496 422.01C499.068 421.195 499.857 420.563 500.862 420.112C501.867 419.661 503.029 419.436 504.346 419.436C505.577 419.436 506.721 419.635 507.778 420.034C508.835 420.415 509.728 420.97 510.456 421.698L509.702 423.362C508.922 422.651 508.099 422.14 507.232 421.828C506.365 421.499 505.395 421.334 504.32 421.334C502.951 421.334 501.859 421.655 501.044 422.296C500.229 422.92 499.822 423.752 499.822 424.792C499.822 425.624 500.073 426.283 500.576 426.768C501.096 427.253 501.937 427.609 503.098 427.834L505.802 428.406C507.553 428.77 508.844 429.325 509.676 430.07C510.525 430.798 510.95 431.795 510.95 433.06C510.95 434.083 510.673 434.984 510.118 435.764C509.581 436.544 508.801 437.151 507.778 437.584C506.773 438.017 505.577 438.234 504.19 438.234ZM517.95 438.234C517.083 438.234 516.303 438.069 515.61 437.74C514.934 437.393 514.397 436.925 513.998 436.336C513.599 435.747 513.4 435.088 513.4 434.36C513.4 433.441 513.634 432.713 514.102 432.176C514.587 431.639 515.376 431.257 516.468 431.032C517.577 430.789 519.085 430.668 520.992 430.668H521.824V429.862C521.824 428.787 521.599 428.016 521.148 427.548C520.715 427.063 520.013 426.82 519.042 426.82C518.279 426.82 517.543 426.933 516.832 427.158C516.121 427.366 515.393 427.713 514.648 428.198L513.92 426.664C514.579 426.196 515.376 425.823 516.312 425.546C517.265 425.269 518.175 425.13 519.042 425.13C520.671 425.13 521.876 425.529 522.656 426.326C523.453 427.123 523.852 428.363 523.852 430.044V438H521.876V435.816C521.547 436.561 521.035 437.151 520.342 437.584C519.666 438.017 518.869 438.234 517.95 438.234ZM518.288 436.648C519.328 436.648 520.177 436.293 520.836 435.582C521.495 434.854 521.824 433.935 521.824 432.826V432.046H521.018C519.614 432.046 518.505 432.115 517.69 432.254C516.893 432.375 516.329 432.601 516 432.93C515.688 433.242 515.532 433.675 515.532 434.23C515.532 434.941 515.775 435.521 516.26 435.972C516.763 436.423 517.439 436.648 518.288 436.648ZM531.633 438.234C530.351 438.234 529.38 437.861 528.721 437.116C528.08 436.353 527.759 435.253 527.759 433.814V419.67H529.865V433.658C529.865 435.513 530.602 436.44 532.075 436.44C532.509 436.44 532.899 436.388 533.245 436.284L533.193 438.052C532.656 438.173 532.136 438.234 531.633 438.234ZM539.327 438.234C538.044 438.234 537.073 437.861 536.415 437.116C535.773 436.353 535.453 435.253 535.453 433.814V419.67H537.559V433.658C537.559 435.513 538.295 436.44 539.769 436.44C540.202 436.44 540.592 436.388 540.939 436.284L540.887 438.052C540.349 438.173 539.829 438.234 539.327 438.234ZM544.323 442.68L546.481 437.792L541.151 425.364H543.439L547.625 435.608L551.837 425.364H554.047L546.533 442.68H544.323Z" fill="black"/>
<path d="M75.5 506.018C116.921 506.018 150.5 472.44 150.5 431.018C150.5 389.597 116.921 356.018 75.5 356.018C34.0786 356.018 0.5 389.597 0.5 431.018C0.5 472.44 34.0786 506.018 75.5 506.018Z" fill="#00BA88"/>
<path d="M43.634 438.234C40.6873 438.234 38.4427 437.402 36.9 435.738C35.3573 434.074 34.586 431.777 34.586 428.848C34.586 426.907 34.9327 425.234 35.626 423.83C36.3193 422.426 37.316 421.343 38.616 420.58C39.916 419.817 41.4847 419.436 43.322 419.436C44.622 419.436 45.818 419.635 46.91 420.034C48.002 420.415 48.9293 420.979 49.692 421.724L48.86 423.44C48.028 422.712 47.17 422.183 46.286 421.854C45.402 421.525 44.4053 421.36 43.296 421.36C41.216 421.36 39.6213 422.019 38.512 423.336C37.4027 424.636 36.848 426.473 36.848 428.848C36.848 431.275 37.42 433.129 38.564 434.412C39.708 435.695 41.4153 436.336 43.686 436.336C45.1593 436.336 46.572 436.085 47.924 435.582V430.148H43.27V428.458H49.77V436.934C49.2847 437.194 48.6953 437.419 48.002 437.61C47.326 437.801 46.6067 437.948 45.844 438.052C45.0813 438.173 44.3447 438.234 43.634 438.234ZM53.8412 438V425.364H55.8952V427.626C56.5712 426.101 57.9579 425.26 60.0552 425.104L60.8092 425.026L60.9652 426.846L59.6392 427.002C58.4432 427.106 57.5332 427.487 56.9092 428.146C56.2852 428.787 55.9732 429.671 55.9732 430.798V438H53.8412ZM67.0106 438.234C66.144 438.234 65.364 438.069 64.6706 437.74C63.9946 437.393 63.4573 436.925 63.0586 436.336C62.66 435.747 62.4606 435.088 62.4606 434.36C62.4606 433.441 62.6946 432.713 63.1626 432.176C63.648 431.639 64.4366 431.257 65.5286 431.032C66.638 430.789 68.146 430.668 70.0526 430.668H70.8846V429.862C70.8846 428.787 70.6593 428.016 70.2086 427.548C69.7753 427.063 69.0733 426.82 68.1026 426.82C67.34 426.82 66.6033 426.933 65.8926 427.158C65.182 427.366 64.454 427.713 63.7086 428.198L62.9806 426.664C63.6393 426.196 64.4366 425.823 65.3726 425.546C66.326 425.269 67.236 425.13 68.1026 425.13C69.732 425.13 70.9366 425.529 71.7166 426.326C72.514 427.123 72.9126 428.363 72.9126 430.044V438H70.9366V435.816C70.6073 436.561 70.096 437.151 69.4026 437.584C68.7266 438.017 67.9293 438.234 67.0106 438.234ZM67.3486 436.648C68.3886 436.648 69.238 436.293 69.8966 435.582C70.5553 434.854 70.8846 433.935 70.8846 432.826V432.046H70.0786C68.6746 432.046 67.5653 432.115 66.7506 432.254C65.9533 432.375 65.39 432.601 65.0606 432.93C64.7486 433.242 64.5926 433.675 64.5926 434.23C64.5926 434.941 64.8353 435.521 65.3206 435.972C65.8233 436.423 66.4993 436.648 67.3486 436.648ZM76.8198 442.68V425.364H78.8738V427.626C79.2551 426.846 79.8184 426.239 80.5638 425.806C81.3264 425.355 82.2104 425.13 83.2158 425.13C84.3424 425.13 85.3218 425.399 86.1538 425.936C87.0031 426.456 87.6531 427.21 88.1038 428.198C88.5718 429.169 88.8058 430.33 88.8058 431.682C88.8058 433.017 88.5718 434.178 88.1038 435.166C87.6531 436.137 87.0031 436.891 86.1538 437.428C85.3218 437.965 84.3424 438.234 83.2158 438.234C82.2451 438.234 81.3784 438.017 80.6158 437.584C79.8531 437.151 79.2898 436.553 78.9258 435.79V442.68H76.8198ZM82.7738 436.544C83.9524 436.544 84.8971 436.128 85.6078 435.296C86.3184 434.447 86.6738 433.242 86.6738 431.682C86.6738 430.105 86.3184 428.9 85.6078 428.068C84.8971 427.236 83.9524 426.82 82.7738 426.82C81.5951 426.82 80.6504 427.236 79.9398 428.068C79.2291 428.9 78.8738 430.105 78.8738 431.682C78.8738 433.242 79.2291 434.447 79.9398 435.296C80.6504 436.128 81.5951 436.544 82.7738 436.544ZM91.978 438V419.67H94.084V427.444C94.5 426.681 95.0806 426.109 95.826 425.728C96.5886 425.329 97.438 425.13 98.374 425.13C101.373 425.13 102.872 426.794 102.872 430.122V438H100.766V430.252C100.766 429.073 100.532 428.215 100.064 427.678C99.6133 427.123 98.8853 426.846 97.88 426.846C96.7186 426.846 95.7913 427.21 95.098 427.938C94.422 428.649 94.084 429.602 94.084 430.798V438H91.978ZM111.019 438.234C110.031 438.234 109.095 438.095 108.211 437.818C107.327 437.541 106.599 437.151 106.027 436.648L106.703 435.166C107.327 435.669 108.012 436.041 108.757 436.284C109.52 436.509 110.291 436.622 111.071 436.622C112.059 436.622 112.805 436.44 113.307 436.076C113.81 435.712 114.061 435.218 114.061 434.594C114.061 434.109 113.897 433.727 113.567 433.45C113.238 433.155 112.718 432.93 112.007 432.774L109.641 432.254C107.492 431.786 106.417 430.677 106.417 428.926C106.417 427.782 106.868 426.863 107.769 426.17C108.688 425.477 109.884 425.13 111.357 425.13C112.224 425.13 113.047 425.269 113.827 425.546C114.625 425.806 115.283 426.196 115.803 426.716L115.101 428.198C114.599 427.73 114.009 427.375 113.333 427.132C112.675 426.872 112.016 426.742 111.357 426.742C110.387 426.742 109.65 426.933 109.147 427.314C108.645 427.695 108.393 428.198 108.393 428.822C108.393 429.793 109.035 430.417 110.317 430.694L112.683 431.188C113.793 431.431 114.633 431.821 115.205 432.358C115.777 432.878 116.063 433.589 116.063 434.49C116.063 435.651 115.604 436.57 114.685 437.246C113.767 437.905 112.545 438.234 111.019 438.234Z" fill="black"/>
<path d="M242.465 156.095C283.887 156.095 317.465 122.516 317.465 81.0947C317.465 39.6734 283.887 6.09473 242.465 6.09473C201.044 6.09473 167.465 39.6734 167.465 81.0947C167.465 122.516 201.044 156.095 242.465 156.095Z" fill="#7AD1FF"/>
<path d="M214.896 81.182L214.74 79.388L216.3 79.284C217.184 79.2147 217.86 78.9113 218.328 78.374C218.796 77.8193 219.03 77.0653 219.03 76.112V62.67H221.162V76.138C221.162 77.646 220.772 78.8247 219.992 79.674C219.212 80.506 218.077 80.974 216.586 81.078L214.896 81.182ZM230.658 81.234C229.427 81.234 228.361 80.9653 227.46 80.428C226.558 79.8907 225.856 79.1367 225.354 78.166C224.868 77.178 224.626 76.0167 224.626 74.682C224.626 73.3473 224.868 72.1947 225.354 71.224C225.856 70.236 226.558 69.4733 227.46 68.936C228.361 68.3987 229.427 68.13 230.658 68.13C231.871 68.13 232.928 68.3987 233.83 68.936C234.748 69.4733 235.45 70.236 235.936 71.224C236.438 72.1947 236.69 73.3473 236.69 74.682C236.69 76.0167 236.438 77.178 235.936 78.166C235.45 79.1367 234.748 79.8907 233.83 80.428C232.928 80.9653 231.871 81.234 230.658 81.234ZM230.658 79.544C231.836 79.544 232.781 79.128 233.492 78.296C234.202 77.4467 234.558 76.242 234.558 74.682C234.558 73.1047 234.202 71.9 233.492 71.068C232.781 70.236 231.836 69.82 230.658 69.82C229.462 69.82 228.508 70.236 227.798 71.068C227.104 71.9 226.758 73.1047 226.758 74.682C226.758 76.242 227.104 77.4467 227.798 78.296C228.508 79.128 229.462 79.544 230.658 79.544ZM239.853 81V62.67H241.959V70.444C242.375 69.6813 242.956 69.1093 243.701 68.728C244.464 68.3293 245.313 68.13 246.249 68.13C249.248 68.13 250.747 69.794 250.747 73.122V81H248.641V73.252C248.641 72.0733 248.407 71.2153 247.939 70.678C247.488 70.1233 246.76 69.846 245.755 69.846C244.594 69.846 243.666 70.21 242.973 70.938C242.297 71.6487 241.959 72.602 241.959 73.798V81H239.853ZM254.63 81V68.364H256.684V70.522C257.1 69.7247 257.69 69.1267 258.452 68.728C259.215 68.3293 260.073 68.13 261.026 68.13C264.025 68.13 265.524 69.794 265.524 73.122V81H263.418V73.252C263.418 72.0733 263.184 71.2153 262.716 70.678C262.266 70.1233 261.538 69.846 260.532 69.846C259.371 69.846 258.444 70.21 257.75 70.938C257.074 71.6487 256.736 72.602 256.736 73.798V81H254.63Z" fill="black"/>
<path d="M808.864 156.095C850.286 156.095 883.864 122.516 883.864 81.0947C883.864 39.6734 850.286 6.09473 808.864 6.09473C767.443 6.09473 733.864 39.6734 733.864 81.0947C733.864 122.516 767.443 156.095 808.864 156.095Z" fill="#ED1252"/>
<path d="M776.262 87V68.67H777.926L788.976 83.412V68.67H790.952V87H789.34L778.264 72.206V87H776.262ZM800.916 87.234C798.923 87.234 797.345 86.6533 796.184 85.492C795.023 84.3133 794.442 82.7187 794.442 80.708C794.442 79.408 794.702 78.264 795.222 77.276C795.742 76.2707 796.453 75.4993 797.354 74.962C798.273 74.4073 799.33 74.13 800.526 74.13C802.242 74.13 803.585 74.6847 804.556 75.794C805.527 76.886 806.012 78.394 806.012 80.318V81.124H796.496C796.565 82.5627 796.981 83.6633 797.744 84.426C798.507 85.1713 799.564 85.544 800.916 85.544C801.679 85.544 802.407 85.4313 803.1 85.206C803.793 84.9633 804.452 84.5733 805.076 84.036L805.804 85.518C805.232 86.0553 804.504 86.48 803.62 86.792C802.736 87.0867 801.835 87.234 800.916 87.234ZM800.578 75.69C799.382 75.69 798.437 76.0627 797.744 76.808C797.051 77.5533 796.643 78.5327 796.522 79.746H804.192C804.14 78.4633 803.802 77.4667 803.178 76.756C802.571 76.0453 801.705 75.69 800.578 75.69ZM814.312 87.234C813.081 87.234 812.015 86.9653 811.114 86.428C810.213 85.8907 809.511 85.1367 809.008 84.166C808.523 83.178 808.28 82.0167 808.28 80.682C808.28 79.3473 808.523 78.1947 809.008 77.224C809.511 76.236 810.213 75.4733 811.114 74.936C812.015 74.3987 813.081 74.13 814.312 74.13C815.525 74.13 816.583 74.3987 817.484 74.936C818.403 75.4733 819.105 76.236 819.59 77.224C820.093 78.1947 820.344 79.3473 820.344 80.682C820.344 82.0167 820.093 83.178 819.59 84.166C819.105 85.1367 818.403 85.8907 817.484 86.428C816.583 86.9653 815.525 87.234 814.312 87.234ZM814.312 85.544C815.491 85.544 816.435 85.128 817.146 84.296C817.857 83.4467 818.212 82.242 818.212 80.682C818.212 79.1047 817.857 77.9 817.146 77.068C816.435 76.236 815.491 75.82 814.312 75.82C813.116 75.82 812.163 76.236 811.452 77.068C810.759 77.9 810.412 79.1047 810.412 80.682C810.412 82.242 810.759 83.4467 811.452 84.296C812.163 85.128 813.116 85.544 814.312 85.544ZM831.333 87V83.074H822.883V81.462L831.697 68.67H833.491V81.254H836.221V83.074H833.491V87H831.333ZM831.333 81.254V72.18L825.093 81.254H831.333ZM838.915 71.218V68.852H841.515V71.218H838.915ZM835.821 92.018L835.665 90.38L836.783 90.276C838.378 90.1373 839.175 89.1753 839.175 87.39V74.364H841.281V87.182C841.281 88.69 840.926 89.834 840.215 90.614C839.504 91.394 838.412 91.836 836.939 91.94L835.821 92.018Z" fill="black"/>
</svg>
