<svg width="776" height="157" viewBox="0 0 776 157" fill="none" xmlns="http://www.w3.org/2000/svg">
<path d="M606.947 156.095C648.369 156.095 681.947 122.516 681.947 81.0947C681.947 39.6734 648.369 6.09473 606.947 6.09473C565.526 6.09473 531.947 39.6734 531.947 81.0947C531.947 122.516 565.526 156.095 606.947 156.095Z" fill="#7AD1FF"/>
<path d="M568.896 87.6467V69.3167H576.15C578.126 69.3167 579.634 69.7934 580.674 70.7467C581.732 71.7001 582.26 73.0607 582.26 74.8287C582.26 76.5794 581.732 77.9401 580.674 78.9107C579.634 79.8641 578.126 80.3407 576.15 80.3407H571.028V87.6467H568.896ZM571.028 78.5467H575.89C578.733 78.5467 580.154 77.3074 580.154 74.8287C580.154 72.3327 578.733 71.0847 575.89 71.0847H571.028V78.5467ZM590.173 87.8807C588.18 87.8807 586.603 87.3001 585.441 86.1387C584.28 84.9601 583.699 83.3654 583.699 81.3547C583.699 80.0547 583.959 78.9107 584.479 77.9227C584.999 76.9174 585.71 76.1461 586.611 75.6087C587.53 75.0541 588.587 74.7767 589.783 74.7767C591.499 74.7767 592.843 75.3314 593.813 76.4407C594.784 77.5327 595.269 79.0407 595.269 80.9647V81.7707H585.753C585.823 83.2094 586.239 84.3101 587.001 85.0727C587.764 85.8181 588.821 86.1907 590.173 86.1907C590.936 86.1907 591.664 86.0781 592.357 85.8527C593.051 85.6101 593.709 85.2201 594.333 84.6827L595.061 86.1647C594.489 86.7021 593.761 87.1267 592.877 87.4387C591.993 87.7334 591.092 87.8807 590.173 87.8807ZM589.835 76.3367C588.639 76.3367 587.695 76.7094 587.001 77.4547C586.308 78.2001 585.901 79.1794 585.779 80.3927H593.449C593.397 79.1101 593.059 78.1134 592.435 77.4027C591.829 76.6921 590.962 76.3367 589.835 76.3367ZM598.317 87.6467V75.0107H600.371V77.2727C601.047 75.7474 602.434 74.9067 604.531 74.7507L605.285 74.6727L605.441 76.4927L604.115 76.6487C602.919 76.7527 602.009 77.1341 601.385 77.7927C600.761 78.4341 600.449 79.3181 600.449 80.4447V87.6467H598.317ZM611.773 87.8807C610.785 87.8807 609.849 87.7421 608.965 87.4647C608.081 87.1874 607.353 86.7974 606.781 86.2947L607.457 84.8127C608.081 85.3154 608.765 85.6881 609.511 85.9307C610.273 86.1561 611.045 86.2687 611.825 86.2687C612.813 86.2687 613.558 86.0867 614.061 85.7227C614.563 85.3587 614.815 84.8647 614.815 84.2407C614.815 83.7554 614.65 83.3741 614.321 83.0967C613.991 82.8021 613.471 82.5767 612.761 82.4207L610.395 81.9007C608.245 81.4327 607.171 80.3234 607.171 78.5727C607.171 77.4287 607.621 76.5101 608.523 75.8167C609.441 75.1234 610.637 74.7767 612.111 74.7767C612.977 74.7767 613.801 74.9154 614.581 75.1927C615.378 75.4527 616.037 75.8427 616.557 76.3627L615.855 77.8447C615.352 77.3767 614.763 77.0214 614.087 76.7787C613.428 76.5187 612.769 76.3887 612.111 76.3887C611.14 76.3887 610.403 76.5794 609.901 76.9607C609.398 77.3421 609.147 77.8447 609.147 78.4687C609.147 79.4394 609.788 80.0634 611.071 80.3407L613.437 80.8347C614.546 81.0774 615.387 81.4674 615.959 82.0047C616.531 82.5247 616.817 83.2354 616.817 84.1367C616.817 85.2981 616.357 86.2167 615.439 86.8927C614.52 87.5514 613.298 87.8807 611.773 87.8807ZM625.278 87.8807C624.048 87.8807 622.982 87.6121 622.08 87.0747C621.179 86.5374 620.477 85.7834 619.974 84.8127C619.489 83.8247 619.246 82.6634 619.246 81.3287C619.246 79.9941 619.489 78.8414 619.974 77.8707C620.477 76.8827 621.179 76.1201 622.08 75.5827C622.982 75.0454 624.048 74.7767 625.278 74.7767C626.492 74.7767 627.549 75.0454 628.45 75.5827C629.369 76.1201 630.071 76.8827 630.556 77.8707C631.059 78.8414 631.31 79.9941 631.31 81.3287C631.31 82.6634 631.059 83.8247 630.556 84.8127C630.071 85.7834 629.369 86.5374 628.45 87.0747C627.549 87.6121 626.492 87.8807 625.278 87.8807ZM625.278 86.1907C626.457 86.1907 627.402 85.7747 628.112 84.9427C628.823 84.0934 629.178 82.8887 629.178 81.3287C629.178 79.7514 628.823 78.5467 628.112 77.7147C627.402 76.8827 626.457 76.4667 625.278 76.4667C624.082 76.4667 623.129 76.8827 622.418 77.7147C621.725 78.5467 621.378 79.7514 621.378 81.3287C621.378 82.8887 621.725 84.0934 622.418 84.9427C623.129 85.7747 624.082 86.1907 625.278 86.1907ZM634.474 87.6467V75.0107H636.528V77.1687C636.944 76.3714 637.533 75.7734 638.296 75.3747C639.058 74.9761 639.916 74.7767 640.87 74.7767C643.868 74.7767 645.368 76.4407 645.368 79.7687V87.6467H643.262V79.8987C643.262 78.7201 643.028 77.8621 642.56 77.3247C642.109 76.7701 641.381 76.4927 640.376 76.4927C639.214 76.4927 638.287 76.8567 637.594 77.5847C636.918 78.2954 636.58 79.2487 636.58 80.4447V87.6467H634.474Z" fill="black"/>
<path d="M775.5 2.64746H661V26.6475H775.5V2.64746Z" fill="white"/>
<path d="M665.743 20V10.22H668.183V11.74C668.517 11.18 668.963 10.7533 669.523 10.46C670.097 10.1667 670.737 10.02 671.443 10.02C673.75 10.02 674.903 11.36 674.903 14.04V20H672.403V14.16C672.403 13.4 672.257 12.8467 671.963 12.5C671.683 12.1533 671.243 11.98 670.643 11.98C669.91 11.98 669.323 12.2133 668.883 12.68C668.457 13.1333 668.243 13.74 668.243 14.5V20H665.743ZM680.663 20.2C679.956 20.2 679.323 20.0667 678.763 19.8C678.216 19.52 677.783 19.1467 677.463 18.68C677.156 18.2133 677.003 17.6867 677.003 17.1C677.003 16.38 677.189 15.8133 677.563 15.4C677.936 14.9733 678.543 14.6667 679.383 14.48C680.223 14.2933 681.349 14.2 682.763 14.2H683.463V13.78C683.463 13.1133 683.316 12.6333 683.023 12.34C682.729 12.0467 682.236 11.9 681.543 11.9C680.996 11.9 680.436 11.9867 679.863 12.16C679.289 12.32 678.709 12.5733 678.123 12.92L677.403 11.22C677.749 10.98 678.156 10.7733 678.623 10.6C679.103 10.4133 679.603 10.2733 680.123 10.18C680.656 10.0733 681.156 10.02 681.623 10.02C683.049 10.02 684.109 10.3533 684.803 11.02C685.496 11.6733 685.843 12.6933 685.843 14.08V20H683.503V18.44C683.276 18.9867 682.916 19.42 682.423 19.74C681.929 20.0467 681.343 20.2 680.663 20.2ZM681.183 18.48C681.836 18.48 682.376 18.2533 682.803 17.8C683.243 17.3467 683.463 16.7733 683.463 16.08V15.64H682.783C681.529 15.64 680.656 15.74 680.163 15.94C679.683 16.1267 679.443 16.4733 679.443 16.98C679.443 17.42 679.596 17.78 679.903 18.06C680.209 18.34 680.636 18.48 681.183 18.48ZM688.42 20V10.22H690.86V11.72C691.153 11.1867 691.56 10.7733 692.08 10.48C692.6 10.1733 693.2 10.02 693.88 10.02C695.347 10.02 696.307 10.66 696.76 11.94C697.067 11.34 697.507 10.8733 698.08 10.54C698.653 10.1933 699.307 10.02 700.04 10.02C702.24 10.02 703.34 11.36 703.34 14.04V20H700.84V14.14C700.84 13.3933 700.713 12.8467 700.46 12.5C700.22 12.1533 699.807 11.98 699.22 11.98C698.567 11.98 698.053 12.2133 697.68 12.68C697.307 13.1333 697.12 13.7667 697.12 14.58V20H694.62V14.14C694.62 13.3933 694.493 12.8467 694.24 12.5C694 12.1533 693.593 11.98 693.02 11.98C692.367 11.98 691.853 12.2133 691.48 12.68C691.107 13.1333 690.92 13.7667 690.92 14.58V20H688.42ZM710.739 20.2C709.632 20.2 708.679 19.9933 707.879 19.58C707.079 19.1667 706.459 18.58 706.019 17.82C705.592 17.06 705.379 16.16 705.379 15.12C705.379 14.1067 705.586 13.22 705.999 12.46C706.426 11.7 707.006 11.1067 707.739 10.68C708.486 10.24 709.332 10.02 710.279 10.02C711.666 10.02 712.759 10.46 713.559 11.34C714.372 12.22 714.779 13.42 714.779 14.94V15.68H707.779C707.966 17.4267 708.966 18.3 710.779 18.3C711.326 18.3 711.872 18.22 712.419 18.06C712.966 17.8867 713.466 17.62 713.919 17.26L714.619 18.94C714.152 19.3267 713.566 19.6333 712.859 19.86C712.152 20.0867 711.446 20.2 710.739 20.2ZM710.379 11.72C709.646 11.72 709.052 11.9467 708.599 12.4C708.146 12.8533 707.872 13.4667 707.779 14.24H712.699C712.646 13.4267 712.419 12.8067 712.019 12.38C711.632 11.94 711.086 11.72 710.379 11.72ZM716.539 12.98V10.22H719.339V12.98H716.539ZM716.539 20V17.22H719.339V20H716.539Z" fill="black"/>
<path d="M725.54 20.18L725.36 18.08L726.78 18C727.967 17.92 728.56 17.2667 728.56 16.04V5.9H731.12V16.02C731.12 18.5533 729.807 19.9133 727.18 20.1L725.54 20.18ZM738.429 20.2C737.416 20.2 736.536 19.9933 735.789 19.58C735.043 19.1667 734.463 18.58 734.049 17.82C733.636 17.0467 733.429 16.14 733.429 15.1C733.429 14.06 733.636 13.16 734.049 12.4C734.463 11.64 735.043 11.0533 735.789 10.64C736.536 10.2267 737.416 10.02 738.429 10.02C739.443 10.02 740.323 10.2267 741.069 10.64C741.816 11.0533 742.396 11.64 742.809 12.4C743.223 13.16 743.429 14.06 743.429 15.1C743.429 16.14 743.223 17.0467 742.809 17.82C742.396 18.58 741.816 19.1667 741.069 19.58C740.323 19.9933 739.443 20.2 738.429 20.2ZM738.429 18.3C739.176 18.3 739.776 18.0333 740.229 17.5C740.683 16.9533 740.909 16.1533 740.909 15.1C740.909 14.0333 740.683 13.24 740.229 12.72C739.776 12.1867 739.176 11.92 738.429 11.92C737.683 11.92 737.083 12.1867 736.629 12.72C736.176 13.24 735.949 14.0333 735.949 15.1C735.949 16.1533 736.176 16.9533 736.629 17.5C737.083 18.0333 737.683 18.3 738.429 18.3ZM745.493 20V5.9H747.993V11.64C748.326 11.1067 748.773 10.7067 749.333 10.44C749.893 10.16 750.513 10.02 751.193 10.02C753.5 10.02 754.653 11.36 754.653 14.04V20H752.153V14.16C752.153 13.4 752.006 12.8467 751.713 12.5C751.433 12.1533 750.993 11.98 750.393 11.98C749.66 11.98 749.073 12.2133 748.633 12.68C748.206 13.1333 747.993 13.74 747.993 14.5V20H745.493ZM757.192 20V10.22H759.632V11.74C759.965 11.18 760.412 10.7533 760.972 10.46C761.545 10.1667 762.185 10.02 762.892 10.02C765.199 10.02 766.352 11.36 766.352 14.04V20H763.852V14.16C763.852 13.4 763.705 12.8467 763.412 12.5C763.132 12.1533 762.692 11.98 762.092 11.98C761.359 11.98 760.772 12.2133 760.332 12.68C759.905 13.1333 759.692 13.74 759.692 14.5V20H757.192Z" fill="black"/>
<path d="M168.947 156.095C210.369 156.095 243.947 122.516 243.947 81.0947C243.947 39.6734 210.369 6.09473 168.947 6.09473C127.526 6.09473 93.9473 39.6734 93.9473 81.0947C93.9473 122.516 127.526 156.095 168.947 156.095Z" fill="#7AD1FF"/>
<path d="M130.896 87.6467V69.3167H138.15C140.126 69.3167 141.634 69.7934 142.674 70.7467C143.732 71.7001 144.26 73.0607 144.26 74.8287C144.26 76.5794 143.732 77.9401 142.674 78.9107C141.634 79.8641 140.126 80.3407 138.15 80.3407H133.028V87.6467H130.896ZM133.028 78.5467H137.89C140.733 78.5467 142.154 77.3074 142.154 74.8287C142.154 72.3327 140.733 71.0847 137.89 71.0847H133.028V78.5467ZM152.173 87.8807C150.18 87.8807 148.603 87.3001 147.441 86.1387C146.28 84.9601 145.699 83.3654 145.699 81.3547C145.699 80.0547 145.959 78.9107 146.479 77.9227C146.999 76.9174 147.71 76.1461 148.611 75.6087C149.53 75.0541 150.587 74.7767 151.783 74.7767C153.499 74.7767 154.843 75.3314 155.813 76.4407C156.784 77.5327 157.269 79.0407 157.269 80.9647V81.7707H147.753C147.823 83.2094 148.239 84.3101 149.001 85.0727C149.764 85.8181 150.821 86.1907 152.173 86.1907C152.936 86.1907 153.664 86.0781 154.357 85.8527C155.051 85.6101 155.709 85.2201 156.333 84.6827L157.061 86.1647C156.489 86.7021 155.761 87.1267 154.877 87.4387C153.993 87.7334 153.092 87.8807 152.173 87.8807ZM151.835 76.3367C150.639 76.3367 149.695 76.7094 149.001 77.4547C148.308 78.2001 147.901 79.1794 147.779 80.3927H155.449C155.397 79.1101 155.059 78.1134 154.435 77.4027C153.829 76.6921 152.962 76.3367 151.835 76.3367ZM160.317 87.6467V75.0107H162.371V77.2727C163.047 75.7474 164.434 74.9067 166.531 74.7507L167.285 74.6727L167.441 76.4927L166.115 76.6487C164.919 76.7527 164.009 77.1341 163.385 77.7927C162.761 78.4341 162.449 79.3181 162.449 80.4447V87.6467H160.317ZM173.773 87.8807C172.785 87.8807 171.849 87.7421 170.965 87.4647C170.081 87.1874 169.353 86.7974 168.781 86.2947L169.457 84.8127C170.081 85.3154 170.765 85.6881 171.511 85.9307C172.273 86.1561 173.045 86.2687 173.825 86.2687C174.813 86.2687 175.558 86.0867 176.061 85.7227C176.563 85.3587 176.815 84.8647 176.815 84.2407C176.815 83.7554 176.65 83.3741 176.321 83.0967C175.991 82.8021 175.471 82.5767 174.761 82.4207L172.395 81.9007C170.245 81.4327 169.171 80.3234 169.171 78.5727C169.171 77.4287 169.621 76.5101 170.523 75.8167C171.441 75.1234 172.637 74.7767 174.111 74.7767C174.977 74.7767 175.801 74.9154 176.581 75.1927C177.378 75.4527 178.037 75.8427 178.557 76.3627L177.855 77.8447C177.352 77.3767 176.763 77.0214 176.087 76.7787C175.428 76.5187 174.769 76.3887 174.111 76.3887C173.14 76.3887 172.403 76.5794 171.901 76.9607C171.398 77.3421 171.147 77.8447 171.147 78.4687C171.147 79.4394 171.788 80.0634 173.071 80.3407L175.437 80.8347C176.546 81.0774 177.387 81.4674 177.959 82.0047C178.531 82.5247 178.817 83.2354 178.817 84.1367C178.817 85.2981 178.357 86.2167 177.439 86.8927C176.52 87.5514 175.298 87.8807 173.773 87.8807ZM187.278 87.8807C186.048 87.8807 184.982 87.6121 184.08 87.0747C183.179 86.5374 182.477 85.7834 181.974 84.8127C181.489 83.8247 181.246 82.6634 181.246 81.3287C181.246 79.9941 181.489 78.8414 181.974 77.8707C182.477 76.8827 183.179 76.1201 184.08 75.5827C184.982 75.0454 186.048 74.7767 187.278 74.7767C188.492 74.7767 189.549 75.0454 190.45 75.5827C191.369 76.1201 192.071 76.8827 192.556 77.8707C193.059 78.8414 193.31 79.9941 193.31 81.3287C193.31 82.6634 193.059 83.8247 192.556 84.8127C192.071 85.7834 191.369 86.5374 190.45 87.0747C189.549 87.6121 188.492 87.8807 187.278 87.8807ZM187.278 86.1907C188.457 86.1907 189.402 85.7747 190.112 84.9427C190.823 84.0934 191.178 82.8887 191.178 81.3287C191.178 79.7514 190.823 78.5467 190.112 77.7147C189.402 76.8827 188.457 76.4667 187.278 76.4667C186.082 76.4667 185.129 76.8827 184.418 77.7147C183.725 78.5467 183.378 79.7514 183.378 81.3287C183.378 82.8887 183.725 84.0934 184.418 84.9427C185.129 85.7747 186.082 86.1907 187.278 86.1907ZM196.474 87.6467V75.0107H198.528V77.1687C198.944 76.3714 199.533 75.7734 200.296 75.3747C201.058 74.9761 201.916 74.7767 202.87 74.7767C205.868 74.7767 207.368 76.4407 207.368 79.7687V87.6467H205.262V79.8987C205.262 78.7201 205.028 77.8621 204.56 77.3247C204.109 76.7701 203.381 76.4927 202.376 76.4927C201.214 76.4927 200.287 76.8567 199.594 77.5847C198.918 78.2954 198.58 79.2487 198.58 80.4447V87.6467H196.474Z" fill="black"/>
<path d="M114.5 2.64746H0V26.6475H114.5V2.64746Z" fill="white"/>
<path d="M4.74336 20V10.22H7.18336V11.74C7.51669 11.18 7.96336 10.7533 8.52336 10.46C9.09669 10.1667 9.73669 10.02 10.4434 10.02C12.75 10.02 13.9034 11.36 13.9034 14.04V20H11.4034V14.16C11.4034 13.4 11.2567 12.8467 10.9634 12.5C10.6834 12.1533 10.2434 11.98 9.64336 11.98C8.91003 11.98 8.32336 12.2133 7.88336 12.68C7.45669 13.1333 7.24336 13.74 7.24336 14.5V20H4.74336ZM19.6626 20.2C18.9559 20.2 18.3226 20.0667 17.7626 19.8C17.2159 19.52 16.7826 19.1467 16.4626 18.68C16.1559 18.2133 16.0026 17.6867 16.0026 17.1C16.0026 16.38 16.1892 15.8133 16.5626 15.4C16.9359 14.9733 17.5426 14.6667 18.3826 14.48C19.2226 14.2933 20.3492 14.2 21.7626 14.2H22.4626V13.78C22.4626 13.1133 22.3159 12.6333 22.0226 12.34C21.7292 12.0467 21.2359 11.9 20.5426 11.9C19.9959 11.9 19.4359 11.9867 18.8626 12.16C18.2892 12.32 17.7092 12.5733 17.1226 12.92L16.4026 11.22C16.7492 10.98 17.1559 10.7733 17.6226 10.6C18.1026 10.4133 18.6026 10.2733 19.1226 10.18C19.6559 10.0733 20.1559 10.02 20.6226 10.02C22.0492 10.02 23.1092 10.3533 23.8026 11.02C24.4959 11.6733 24.8426 12.6933 24.8426 14.08V20H22.5026V18.44C22.2759 18.9867 21.9159 19.42 21.4226 19.74C20.9292 20.0467 20.3426 20.2 19.6626 20.2ZM20.1826 18.48C20.8359 18.48 21.3759 18.2533 21.8026 17.8C22.2426 17.3467 22.4626 16.7733 22.4626 16.08V15.64H21.7826C20.5292 15.64 19.6559 15.74 19.1626 15.94C18.6826 16.1267 18.4426 16.4733 18.4426 16.98C18.4426 17.42 18.5959 17.78 18.9026 18.06C19.2092 18.34 19.6359 18.48 20.1826 18.48ZM27.4201 20V10.22H29.8601V11.72C30.1534 11.1867 30.5601 10.7733 31.0801 10.48C31.6001 10.1733 32.2001 10.02 32.8801 10.02C34.3467 10.02 35.3067 10.66 35.7601 11.94C36.0667 11.34 36.5067 10.8733 37.0801 10.54C37.6534 10.1933 38.3067 10.02 39.0401 10.02C41.2401 10.02 42.3401 11.36 42.3401 14.04V20H39.8401V14.14C39.8401 13.3933 39.7134 12.8467 39.4601 12.5C39.2201 12.1533 38.8067 11.98 38.2201 11.98C37.5667 11.98 37.0534 12.2133 36.6801 12.68C36.3067 13.1333 36.1201 13.7667 36.1201 14.58V20H33.6201V14.14C33.6201 13.3933 33.4934 12.8467 33.2401 12.5C33.0001 12.1533 32.5934 11.98 32.0201 11.98C31.3667 11.98 30.8534 12.2133 30.4801 12.68C30.1067 13.1333 29.9201 13.7667 29.9201 14.58V20H27.4201ZM49.7391 20.2C48.6325 20.2 47.6791 19.9933 46.8791 19.58C46.0791 19.1667 45.4591 18.58 45.0191 17.82C44.5925 17.06 44.3791 16.16 44.3791 15.12C44.3791 14.1067 44.5858 13.22 44.9991 12.46C45.4258 11.7 46.0058 11.1067 46.7391 10.68C47.4858 10.24 48.3325 10.02 49.2791 10.02C50.6658 10.02 51.7591 10.46 52.5591 11.34C53.3725 12.22 53.7791 13.42 53.7791 14.94V15.68H46.7791C46.9658 17.4267 47.9658 18.3 49.7791 18.3C50.3258 18.3 50.8725 18.22 51.4191 18.06C51.9658 17.8867 52.4658 17.62 52.9191 17.26L53.6191 18.94C53.1525 19.3267 52.5658 19.6333 51.8591 19.86C51.1525 20.0867 50.4458 20.2 49.7391 20.2ZM49.3791 11.72C48.6458 11.72 48.0525 11.9467 47.5991 12.4C47.1458 12.8533 46.8725 13.4667 46.7791 14.24H51.6991C51.6458 13.4267 51.4191 12.8067 51.0191 12.38C50.6325 11.94 50.0858 11.72 49.3791 11.72ZM55.539 12.98V10.22H58.339V12.98H55.539ZM55.539 20V17.22H58.339V20H55.539Z" fill="black"/>
<path d="M70.9601 20.2C69.8534 20.2 68.8267 20.06 67.8801 19.78C66.9334 19.4867 66.1334 19.0933 65.4801 18.6L66.2601 16.58C66.9134 17.0467 67.6267 17.4067 68.4001 17.66C69.1867 17.9133 70.0401 18.04 70.9601 18.04C72.0134 18.04 72.7801 17.8667 73.2601 17.52C73.7401 17.16 73.9801 16.7 73.9801 16.14C73.9801 15.6733 73.8067 15.3067 73.4601 15.04C73.1267 14.7733 72.5467 14.5533 71.7201 14.38L69.5201 13.92C67.0134 13.3867 65.7601 12.1 65.7601 10.06C65.7601 9.18 65.9934 8.41333 66.4601 7.76C66.9267 7.10667 67.5734 6.6 68.4001 6.24C69.2267 5.88 70.1801 5.7 71.2601 5.7C72.2201 5.7 73.1201 5.84667 73.9601 6.14C74.8001 6.42 75.5001 6.82 76.0601 7.34L75.2801 9.26C74.1734 8.32667 72.8267 7.86 71.2401 7.86C70.3201 7.86 69.6001 8.05333 69.0801 8.44C68.5601 8.82667 68.3001 9.33333 68.3001 9.96C68.3001 10.44 68.4601 10.8267 68.7801 11.12C69.1001 11.4 69.6467 11.62 70.4201 11.78L72.6001 12.24C73.9201 12.52 74.9001 12.96 75.5401 13.56C76.1934 14.16 76.5201 14.96 76.5201 15.96C76.5201 16.8 76.2934 17.54 75.8401 18.18C75.3867 18.82 74.7401 19.32 73.9001 19.68C73.0734 20.0267 72.0934 20.2 70.9601 20.2ZM81.6972 20.2C80.9906 20.2 80.3572 20.0667 79.7972 19.8C79.2506 19.52 78.8172 19.1467 78.4972 18.68C78.1906 18.2133 78.0372 17.6867 78.0372 17.1C78.0372 16.38 78.2239 15.8133 78.5972 15.4C78.9706 14.9733 79.5772 14.6667 80.4172 14.48C81.2572 14.2933 82.3839 14.2 83.7972 14.2H84.4972V13.78C84.4972 13.1133 84.3506 12.6333 84.0572 12.34C83.7639 12.0467 83.2706 11.9 82.5772 11.9C82.0306 11.9 81.4706 11.9867 80.8972 12.16C80.3239 12.32 79.7439 12.5733 79.1572 12.92L78.4372 11.22C78.7839 10.98 79.1906 10.7733 79.6572 10.6C80.1372 10.4133 80.6372 10.2733 81.1572 10.18C81.6906 10.0733 82.1906 10.02 82.6572 10.02C84.0839 10.02 85.1439 10.3533 85.8372 11.02C86.5306 11.6733 86.8772 12.6933 86.8772 14.08V20H84.5372V18.44C84.3106 18.9867 83.9506 19.42 83.4572 19.74C82.9639 20.0467 82.3772 20.2 81.6972 20.2ZM82.2172 18.48C82.8706 18.48 83.4106 18.2533 83.8372 17.8C84.2772 17.3467 84.4972 16.7733 84.4972 16.08V15.64H83.8172C82.5639 15.64 81.6906 15.74 81.1972 15.94C80.7172 16.1267 80.4772 16.4733 80.4772 16.98C80.4772 17.42 80.6306 17.78 80.9372 18.06C81.2439 18.34 81.6706 18.48 82.2172 18.48ZM92.8147 20.2C91.6547 20.2 90.7947 19.8867 90.2347 19.26C89.6881 18.62 89.4147 17.6867 89.4147 16.46V5.9H91.9147V16.34C91.9147 17.54 92.4214 18.14 93.4347 18.14C93.5814 18.14 93.7281 18.1333 93.8747 18.12C94.0214 18.1067 94.1614 18.08 94.2947 18.04L94.2547 20.02C93.7747 20.14 93.2947 20.2 92.8147 20.2ZM99.2015 20.2C98.0415 20.2 97.1815 19.8867 96.6215 19.26C96.0748 18.62 95.8015 17.6867 95.8015 16.46V5.9H98.3015V16.34C98.3015 17.54 98.8081 18.14 99.8215 18.14C99.9681 18.14 100.115 18.1333 100.261 18.12C100.408 18.1067 100.548 18.08 100.681 18.04L100.641 20.02C100.161 20.14 99.6815 20.2 99.2015 20.2ZM102.814 23.6L104.614 19.6L100.554 10.22H103.214L105.954 17.06L108.754 10.22H111.274L105.394 23.6H102.814Z" fill="black"/>
<path d="M244 79.208L516.085 79.208Z" fill="black"/>
<path d="M244 79.208L516.085 79.208" stroke="#006FD6" stroke-width="3"/>
<path d="M516.086 79.208L514.077 72.5119L534.165 79.208L514.077 85.9042L516.086 79.208Z" fill="#006FD6"/>
<path d="M299.323 39.936V37.794H301.465V39.936H299.323ZM299.323 48V45.858H301.465V48H299.323ZM304.605 48V33.195H306.327V48H304.605ZM314.766 48.189C313.604 48.189 312.554 48.042 311.616 47.748C310.678 47.44 309.866 46.999 309.18 46.425L309.789 45.039C310.503 45.585 311.252 45.991 312.036 46.257C312.82 46.523 313.73 46.656 314.766 46.656C316.026 46.656 316.957 46.425 317.559 45.963C318.175 45.487 318.483 44.864 318.483 44.094C318.483 43.478 318.259 42.988 317.811 42.624C317.377 42.26 316.642 41.973 315.606 41.763L313.422 41.322C312.106 41.042 311.119 40.587 310.461 39.957C309.817 39.313 309.495 38.459 309.495 37.395C309.495 36.513 309.719 35.743 310.167 35.085C310.629 34.427 311.266 33.916 312.078 33.552C312.89 33.188 313.828 33.006 314.892 33.006C315.886 33.006 316.81 33.167 317.664 33.489C318.518 33.797 319.239 34.245 319.827 34.833L319.218 36.177C318.588 35.603 317.923 35.19 317.223 34.938C316.523 34.672 315.739 34.539 314.871 34.539C313.765 34.539 312.883 34.798 312.225 35.316C311.567 35.82 311.238 36.492 311.238 37.332C311.238 38.004 311.441 38.536 311.847 38.928C312.267 39.32 312.946 39.607 313.884 39.789L316.068 40.251C317.482 40.545 318.525 40.993 319.197 41.595C319.883 42.183 320.226 42.988 320.226 44.01C320.226 44.836 320.002 45.564 319.554 46.194C319.12 46.824 318.49 47.314 317.664 47.664C316.852 48.014 315.886 48.189 314.766 48.189ZM321.286 49.113V48H330.946V49.113H321.286ZM333.193 48V33.195L342.349 33.195V34.644L334.915 34.644V39.81L341.929 39.81V41.259L334.915 41.259V48L333.193 48ZM344.698 48V33.195H350.557C352.153 33.195 353.371 33.566 354.211 34.308C355.065 35.05 355.492 36.107 355.492 37.479C355.492 38.571 355.191 39.467 354.589 40.167C354.001 40.867 353.161 41.322 352.069 41.532C352.713 41.756 353.266 42.302 353.728 43.17L356.332 48H354.442L351.88 43.254C351.558 42.666 351.187 42.267 350.767 42.057C350.347 41.847 349.794 41.742 349.108 41.742H346.42V48H344.698ZM346.42 40.377H350.305C352.629 40.377 353.791 39.411 353.791 37.479C353.791 35.575 352.629 34.623 350.305 34.623H346.42V40.377ZM358.746 48V33.195H360.468V48H358.746ZM364.119 48V33.195L373.464 33.195V34.644L365.799 34.644V39.768H373.023V41.217H365.799V46.551H373.464V48H364.119ZM376.362 48V33.195H377.706L386.631 45.102V33.195H388.227V48H386.925L377.979 36.051V48L376.362 48ZM391.907 48V33.195H396.905C399.299 33.195 401.147 33.832 402.449 35.106C403.751 36.366 404.402 38.193 404.402 40.587C404.402 42.981 403.751 44.815 402.449 46.089C401.147 47.363 399.299 48 396.905 48L391.907 48ZM393.629 46.53H396.779C400.643 46.53 402.575 44.549 402.575 40.587C402.575 36.639 400.643 34.665 396.779 34.665H393.629V46.53ZM412.281 48.189C411.119 48.189 410.069 48.042 409.131 47.748C408.193 47.44 407.381 46.999 406.695 46.425L407.304 45.039C408.018 45.585 408.767 45.991 409.551 46.257C410.335 46.523 411.245 46.656 412.281 46.656C413.541 46.656 414.472 46.425 415.074 45.963C415.69 45.487 415.998 44.864 415.998 44.094C415.998 43.478 415.774 42.988 415.326 42.624C414.892 42.26 414.157 41.973 413.121 41.763L410.937 41.322C409.621 41.042 408.634 40.587 407.976 39.957C407.332 39.313 407.01 38.459 407.01 37.395C407.01 36.513 407.234 35.743 407.682 35.085C408.144 34.427 408.781 33.916 409.593 33.552C410.405 33.188 411.343 33.006 412.407 33.006C413.401 33.006 414.325 33.167 415.179 33.489C416.033 33.797 416.754 34.245 417.342 34.833L416.733 36.177C416.103 35.603 415.438 35.19 414.738 34.938C414.038 34.672 413.254 34.539 412.386 34.539C411.28 34.539 410.398 34.798 409.74 35.316C409.082 35.82 408.753 36.492 408.753 37.332C408.753 38.004 408.956 38.536 409.362 38.928C409.782 39.32 410.461 39.607 411.399 39.789L413.583 40.251C414.997 40.545 416.04 40.993 416.712 41.595C417.398 42.183 417.741 42.988 417.741 44.01C417.741 44.836 417.517 45.564 417.069 46.194C416.635 46.824 416.005 47.314 415.179 47.664C414.367 48.014 413.401 48.189 412.281 48.189ZM418.801 49.113V48H428.461V49.113H418.801ZM433.611 48L428.424 33.195H430.23L434.409 45.48L438.693 33.195H440.079L444.321 45.585L448.584 33.195H450.306L445.119 48H443.586L439.365 35.82L435.102 48H433.611ZM452.733 48V33.195H454.455V48H452.733ZM461.739 48V34.686H456.363V33.195H468.858V34.686H463.482V48H461.739ZM470.739 48V33.195H472.461V39.747H481.344V33.195H483.066V48H481.344V41.238H472.461V48H470.739Z" fill="black"/>
<path d="M337.88 71.2C337.053 71.2 336.28 71.1 335.56 70.9C334.84 70.7 334.24 70.4133 333.76 70.04L334.4 68.4C334.893 68.7333 335.447 68.9933 336.06 69.18C336.673 69.3533 337.287 69.44 337.9 69.44C338.54 69.44 339.013 69.3333 339.32 69.12C339.64 68.8933 339.8 68.6 339.8 68.24C339.8 67.68 339.387 67.32 338.56 67.16L336.56 66.78C334.867 66.46 334.02 65.58 334.02 64.14C334.02 63.5 334.193 62.9467 334.54 62.48C334.9 62.0133 335.393 61.6533 336.02 61.4C336.647 61.1467 337.367 61.02 338.18 61.02C338.873 61.02 339.54 61.12 340.18 61.32C340.82 61.5067 341.367 61.7933 341.82 62.18L341.14 63.82C340.753 63.5 340.287 63.2467 339.74 63.06C339.207 62.8733 338.693 62.78 338.2 62.78C337.547 62.78 337.06 62.8933 336.74 63.12C336.433 63.3467 336.28 63.6467 336.28 64.02C336.28 64.6067 336.66 64.9667 337.42 65.1L339.42 65.48C340.287 65.64 340.94 65.9333 341.38 66.36C341.833 66.7867 342.06 67.36 342.06 68.08C342.06 69.0533 341.68 69.82 340.92 70.38C340.16 70.9267 339.147 71.2 337.88 71.2ZM343.906 59.12V56.68H346.706V59.12H343.906ZM344.066 71V61.22H346.566V71H344.066ZM349.163 71V61.22L351.603 61.22V62.74C351.937 62.18 352.383 61.7533 352.943 61.46C353.517 61.1667 354.157 61.02 354.863 61.02C357.17 61.02 358.323 62.36 358.323 65.04V71H355.823V65.16C355.823 64.4 355.677 63.8467 355.383 63.5C355.103 63.1533 354.663 62.98 354.063 62.98C353.33 62.98 352.743 63.2133 352.303 63.68C351.877 64.1333 351.663 64.74 351.663 65.5V71H349.163ZM365.383 71.2C364.356 71.2 363.463 70.9933 362.703 70.58C361.943 70.1533 361.356 69.5533 360.943 68.78C360.529 68.0067 360.323 67.1 360.323 66.06C360.323 65.02 360.529 64.1267 360.943 63.38C361.356 62.62 361.943 62.04 362.703 61.64C363.463 61.2267 364.356 61.02 365.383 61.02C366.009 61.02 366.629 61.12 367.243 61.32C367.856 61.52 368.363 61.8 368.763 62.16L368.023 63.9C367.676 63.5933 367.283 63.36 366.843 63.2C366.416 63.04 366.003 62.96 365.603 62.96C364.736 62.96 364.063 63.2333 363.583 63.78C363.116 64.3133 362.883 65.08 362.883 66.08C362.883 67.0667 363.116 67.8467 363.583 68.42C364.063 68.98 364.736 69.26 365.603 69.26C365.989 69.26 366.403 69.18 366.843 69.02C367.283 68.86 367.676 68.62 368.023 68.3L368.763 70.06C368.363 70.4067 367.849 70.6867 367.223 70.9C366.609 71.1 365.996 71.2 365.383 71.2ZM374.921 71.2C373.814 71.2 372.861 70.9933 372.061 70.58C371.261 70.1667 370.641 69.58 370.201 68.82C369.774 68.06 369.561 67.16 369.561 66.12C369.561 65.1067 369.767 64.22 370.181 63.46C370.607 62.7 371.187 62.1067 371.921 61.68C372.667 61.24 373.514 61.02 374.461 61.02C375.847 61.02 376.941 61.46 377.741 62.34C378.554 63.22 378.961 64.42 378.961 65.94V66.68H371.961C372.147 68.4267 373.147 69.3 374.961 69.3C375.507 69.3 376.054 69.22 376.601 69.06C377.147 68.8867 377.647 68.62 378.101 68.26L378.801 69.94C378.334 70.3267 377.747 70.6333 377.041 70.86C376.334 71.0867 375.627 71.2 374.921 71.2ZM374.561 62.72C373.827 62.72 373.234 62.9467 372.781 63.4C372.327 63.8533 372.054 64.4667 371.961 65.24H376.881C376.827 64.4267 376.601 63.8067 376.201 63.38C375.814 62.94 375.267 62.72 374.561 62.72ZM380.721 63.98V61.22H383.521V63.98H380.721ZM380.721 71V68.22H383.521V71H380.721ZM391.592 71V69.1L396.152 64.24C396.766 63.5733 397.206 62.9867 397.472 62.48C397.739 61.96 397.872 61.4333 397.872 60.9C397.872 59.54 397.052 58.86 395.412 58.86C394.132 58.86 392.952 59.34 391.872 60.3L391.012 58.38C391.572 57.8733 392.272 57.4667 393.112 57.16C393.952 56.8533 394.826 56.7 395.732 56.7C397.239 56.7 398.392 57.04 399.192 57.72C400.006 58.4 400.412 59.3733 400.412 60.64C400.412 61.4933 400.206 62.3133 399.792 63.1C399.392 63.8867 398.759 64.7333 397.892 65.64L394.792 68.88H400.952V71H391.592ZM407.984 71.2C406.318 71.2 405.044 70.5733 404.164 69.32C403.284 68.0533 402.844 66.2533 402.844 63.92C402.844 61.56 403.284 59.7667 404.164 58.54C405.044 57.3133 406.318 56.7 407.984 56.7C409.664 56.7 410.938 57.3133 411.804 58.54C412.684 59.7667 413.124 61.5533 413.124 63.9C413.124 66.2467 412.684 68.0533 411.804 69.32C410.924 70.5733 409.651 71.2 407.984 71.2ZM407.984 69.1C408.891 69.1 409.558 68.6867 409.984 67.86C410.424 67.02 410.644 65.7 410.644 63.9C410.644 62.1133 410.424 60.82 409.984 60.02C409.558 59.2067 408.891 58.8 407.984 58.8C407.091 58.8 406.424 59.2067 405.984 60.02C405.544 60.82 405.324 62.1133 405.324 63.9C405.324 65.7 405.544 67.02 405.984 67.86C406.424 68.6867 407.091 69.1 407.984 69.1ZM416.157 71V68.88H419.337V59.82L416.877 61.3L415.877 59.42L420.077 56.9H421.897V68.88H424.877V71H416.157ZM431.969 71.2C430.329 71.2 429.042 70.8467 428.109 70.14C427.189 69.4333 426.729 68.4533 426.729 67.2C426.729 66.3467 426.949 65.62 427.389 65.02C427.842 64.42 428.429 64 429.149 63.76C428.509 63.48 428.002 63.0533 427.629 62.48C427.269 61.9067 427.089 61.2467 427.089 60.5C427.089 59.3133 427.529 58.3867 428.409 57.72C429.289 57.04 430.475 56.7 431.969 56.7C433.475 56.7 434.669 57.04 435.549 57.72C436.429 58.3867 436.869 59.3133 436.869 60.5C436.869 61.2467 436.682 61.9133 436.309 62.5C435.949 63.0733 435.455 63.4933 434.829 63.76C435.549 64 436.122 64.4267 436.549 65.04C436.989 65.64 437.209 66.36 437.209 67.2C437.209 68.4533 436.742 69.4333 435.809 70.14C434.889 70.8467 433.609 71.2 431.969 71.2ZM431.969 62.86C432.755 62.86 433.369 62.6733 433.809 62.3C434.262 61.9267 434.489 61.4133 434.489 60.76C434.489 60.12 434.262 59.62 433.809 59.26C433.369 58.8867 432.755 58.7 431.969 58.7C431.182 58.7 430.569 58.8867 430.129 59.26C429.689 59.62 429.469 60.12 429.469 60.76C429.469 61.4133 429.689 61.9267 430.129 62.3C430.569 62.6733 431.182 62.86 431.969 62.86ZM431.969 69.2C433.875 69.2 434.829 68.4733 434.829 67.02C434.829 65.58 433.875 64.86 431.969 64.86C431.035 64.86 430.322 65.04 429.829 65.4C429.349 65.76 429.109 66.3 429.109 67.02C429.109 67.74 429.349 68.2867 429.829 68.66C430.322 69.02 431.035 69.2 431.969 69.2Z" fill="black"/>
</svg>
