<svg width="860" height="538" viewBox="0 0 860 538" fill="none" xmlns="http://www.w3.org/2000/svg">
<path d="M366.25 474C366.25 438.654 394.904 410 430.25 410C465.596 410 494.25 438.654 494.25 474C494.25 509.346 465.596 538 430.25 538C394.904 538 366.25 509.346 366.25 474Z" fill="#FFDF81"/>
<path d="M406.547 479.14C406.188 479.14 405.849 479.098 405.532 479.014C405.219 478.93 405.012 478.867 404.909 478.825L405 477.586C405.145 477.637 405.31 477.703 405.497 477.782C405.688 477.857 405.924 477.894 406.204 477.894C406.661 477.894 406.974 477.768 407.142 477.516C407.315 477.264 407.401 476.839 407.401 476.242V468.878H408.696V476.613C408.696 477.15 408.635 477.607 408.514 477.985C408.393 478.363 408.176 478.65 407.863 478.846C407.555 479.042 407.116 479.14 406.547 479.14ZM413.9 479.14C413.228 479.14 412.635 478.993 412.122 478.699C411.608 478.405 411.207 477.983 410.918 477.432C410.628 476.881 410.484 476.221 410.484 475.451C410.484 474.69 410.614 474.023 410.876 473.449C411.137 472.875 411.515 472.427 412.01 472.105C412.509 471.783 413.109 471.622 413.809 471.622C414.49 471.622 415.066 471.769 415.538 472.063C416.009 472.357 416.366 472.772 416.609 473.309C416.856 473.841 416.98 474.473 416.98 475.206V475.682H411.793C411.793 476.139 411.867 476.555 412.017 476.928C412.171 477.297 412.402 477.591 412.71 477.81C413.018 478.029 413.407 478.139 413.879 478.139C414.341 478.139 414.737 478.032 415.069 477.817C415.405 477.602 415.619 477.292 415.713 476.886H416.931C416.847 477.376 416.651 477.789 416.343 478.125C416.039 478.461 415.673 478.715 415.244 478.888C414.819 479.056 414.371 479.14 413.9 479.14ZM411.8 474.807H415.734C415.734 474.392 415.664 474.018 415.524 473.687C415.384 473.351 415.169 473.087 414.88 472.896C414.595 472.7 414.236 472.602 413.802 472.602C413.349 472.602 412.973 472.712 412.675 472.931C412.376 473.146 412.154 473.423 412.01 473.764C411.865 474.1 411.795 474.448 411.8 474.807ZM418.77 479V471.762H420.023V472.812C420.14 472.611 420.301 472.422 420.506 472.245C420.716 472.068 420.968 471.925 421.262 471.818C421.561 471.711 421.904 471.657 422.291 471.657C422.749 471.657 423.169 471.748 423.551 471.93C423.939 472.112 424.247 472.397 424.475 472.784C424.709 473.167 424.825 473.661 424.825 474.268V479H423.53V474.394C423.53 473.829 423.381 473.412 423.082 473.141C422.788 472.866 422.406 472.728 421.934 472.728C421.608 472.728 421.302 472.782 421.017 472.889C420.733 472.992 420.502 473.15 420.324 473.365C420.147 473.575 420.058 473.841 420.058 474.163V479H418.77ZM426.85 479V471.762H428.103V472.812C428.22 472.611 428.381 472.422 428.586 472.245C428.796 472.068 429.048 471.925 429.342 471.818C429.641 471.711 429.984 471.657 430.371 471.657C430.829 471.657 431.249 471.748 431.631 471.93C432.019 472.112 432.327 472.397 432.555 472.784C432.789 473.167 432.905 473.661 432.905 474.268V479H431.61V474.394C431.61 473.829 431.461 473.412 431.162 473.141C430.868 472.866 430.486 472.728 430.014 472.728C429.688 472.728 429.382 472.782 429.097 472.889C428.813 472.992 428.582 473.15 428.404 473.365C428.227 473.575 428.138 473.841 428.138 474.163V479H426.85ZM434.965 479V471.762H436.218V479H434.965ZM434.93 470.229V468.885H436.253V470.229H434.93ZM439.355 479V472.707H437.822V471.762H439.355V470.642C439.355 470.068 439.5 469.632 439.789 469.333C440.083 469.03 440.522 468.878 441.105 468.878H442.47L442.477 469.795H441.399C441.101 469.795 440.898 469.874 440.79 470.033C440.683 470.192 440.629 470.432 440.629 470.754V471.762H442.407V472.707H440.65V479H439.355ZM446.903 479.14C446.231 479.14 445.639 478.993 445.125 478.699C444.612 478.405 444.211 477.983 443.921 477.432C443.632 476.881 443.487 476.221 443.487 475.451C443.487 474.69 443.618 474.023 443.879 473.449C444.141 472.875 444.519 472.427 445.013 472.105C445.513 471.783 446.112 471.622 446.812 471.622C447.494 471.622 448.07 471.769 448.541 472.063C449.013 472.357 449.37 472.772 449.612 473.309C449.86 473.841 449.983 474.473 449.983 475.206V475.682H444.796C444.796 476.139 444.871 476.555 445.02 476.928C445.174 477.297 445.405 477.591 445.713 477.81C446.021 478.029 446.411 478.139 446.882 478.139C447.344 478.139 447.741 478.032 448.072 477.817C448.408 477.602 448.623 477.292 448.716 476.886H449.934C449.85 477.376 449.654 477.789 449.346 478.125C449.043 478.461 448.677 478.715 448.247 478.888C447.823 479.056 447.375 479.14 446.903 479.14ZM444.803 474.807H448.737C448.737 474.392 448.667 474.018 448.527 473.687C448.387 473.351 448.173 473.087 447.883 472.896C447.599 472.7 447.239 472.602 446.805 472.602C446.353 472.602 445.977 472.712 445.678 472.931C445.38 473.146 445.158 473.423 445.013 473.764C444.869 474.1 444.799 474.448 444.803 474.807ZM451.774 479V471.762H453.006V473.155C453.127 472.81 453.298 472.525 453.517 472.301C453.736 472.072 453.986 471.902 454.266 471.79C454.551 471.678 454.845 471.622 455.148 471.622C455.255 471.622 455.36 471.629 455.463 471.643C455.566 471.657 455.645 471.68 455.701 471.713V472.966C455.631 472.933 455.54 472.912 455.428 472.903C455.321 472.889 455.23 472.882 455.155 472.882C454.866 472.863 454.595 472.882 454.343 472.938C454.091 472.989 453.869 473.08 453.678 473.211C453.487 473.342 453.335 473.514 453.223 473.729C453.116 473.939 453.062 474.196 453.062 474.499V479H451.774Z" fill="black"/>
<path d="M601.75 236C601.75 200.654 630.404 172 665.75 172C701.096 172 729.75 200.654 729.75 236C729.75 271.346 701.096 300 665.75 300C630.404 300 601.75 271.346 601.75 236Z" fill="#FFDF81"/>
<path d="M653.217 241.14C652.858 241.14 652.519 241.098 652.202 241.014C651.889 240.93 651.682 240.867 651.579 240.825L651.67 239.586C651.815 239.637 651.98 239.703 652.167 239.782C652.358 239.857 652.594 239.894 652.874 239.894C653.331 239.894 653.644 239.768 653.812 239.516C653.985 239.264 654.071 238.839 654.071 238.242V230.878H655.366V238.613C655.366 239.15 655.305 239.607 655.184 239.985C655.063 240.363 654.846 240.65 654.533 240.846C654.225 241.042 653.786 241.14 653.217 241.14ZM660.408 241.14C659.741 241.14 659.158 240.998 658.658 240.713C658.164 240.424 657.779 240.001 657.503 239.446C657.228 238.891 657.09 238.212 657.09 237.409C657.09 236.653 657.219 235.99 657.475 235.421C657.732 234.852 658.108 234.411 658.602 234.098C659.097 233.781 659.701 233.622 660.415 233.622C661.083 233.622 661.661 233.769 662.151 234.063C662.641 234.352 663.022 234.779 663.292 235.344C663.568 235.909 663.705 236.597 663.705 237.409C663.705 238.146 663.579 238.795 663.327 239.355C663.075 239.915 662.704 240.354 662.214 240.671C661.729 240.984 661.127 241.14 660.408 241.14ZM660.415 240.118C660.845 240.118 661.209 240.008 661.507 239.789C661.806 239.57 662.032 239.255 662.186 238.844C662.345 238.433 662.424 237.946 662.424 237.381C662.424 236.863 662.354 236.399 662.214 235.988C662.079 235.573 661.864 235.244 661.57 235.001C661.276 234.758 660.891 234.637 660.415 234.637C659.977 234.637 659.606 234.747 659.302 234.966C658.999 235.181 658.768 235.493 658.609 235.904C658.455 236.315 658.378 236.807 658.378 237.381C658.378 237.89 658.446 238.352 658.581 238.767C658.721 239.182 658.941 239.511 659.239 239.754C659.543 239.997 659.935 240.118 660.415 240.118ZM665.426 241V230.598H666.686V234.826C666.808 234.625 666.971 234.439 667.176 234.266C667.382 234.089 667.631 233.946 667.925 233.839C668.219 233.727 668.56 233.671 668.947 233.671C669.419 233.671 669.846 233.76 670.228 233.937C670.611 234.11 670.914 234.357 671.138 234.679C671.362 235.001 671.474 235.384 671.474 235.827V241H670.179V236.086C670.179 235.652 670.03 235.318 669.731 235.085C669.437 234.847 669.052 234.728 668.576 234.728C668.254 234.728 667.951 234.782 667.666 234.889C667.382 234.992 667.151 235.15 666.973 235.365C666.801 235.575 666.714 235.843 666.714 236.17V241H665.426ZM673.493 241V233.762H674.746V234.812C674.863 234.611 675.024 234.422 675.229 234.245C675.439 234.068 675.691 233.925 675.985 233.818C676.284 233.711 676.627 233.657 677.014 233.657C677.471 233.657 677.891 233.748 678.274 233.93C678.661 234.112 678.969 234.397 679.198 234.784C679.431 235.167 679.548 235.661 679.548 236.268V241H678.253V236.394C678.253 235.829 678.104 235.412 677.805 235.141C677.511 234.866 677.128 234.728 676.657 234.728C676.33 234.728 676.025 234.782 675.74 234.889C675.455 234.992 675.224 235.15 675.047 235.365C674.87 235.575 674.781 235.841 674.781 236.163V241H673.493Z" fill="black"/>
<path d="M495.328 406.809C494.94 407.201 494.943 407.834 495.336 408.223C495.728 408.611 496.361 408.608 496.75 408.215L496.039 407.512L495.328 406.809ZM506.625 396.814L507.335 397.518L507.335 397.518L506.625 396.814ZM529.415 375.203C529.804 374.811 529.8 374.178 529.408 373.789C529.015 373.401 528.382 373.404 527.994 373.797L528.704 374.5L529.415 375.203ZM566.584 334.797C566.195 335.189 566.199 335.822 566.591 336.211C566.984 336.599 567.617 336.596 568.006 336.203L567.295 335.5L566.584 334.797ZM600.96 302.483C600.957 301.93 600.507 301.485 599.955 301.488L590.955 301.535C590.403 301.538 589.957 301.988 589.96 302.541C589.963 303.093 590.413 303.538 590.965 303.535L598.965 303.493L599.008 311.493C599.01 312.045 599.461 312.491 600.013 312.488C600.565 312.485 601.01 312.035 601.008 311.483L600.96 302.483ZM496.039 407.512L496.75 408.215L507.335 397.518L506.625 396.814L505.914 396.111L495.328 406.809L496.039 407.512ZM506.625 396.814L507.335 397.518L529.415 375.203L528.704 374.5L527.994 373.797L505.914 396.111L506.625 396.814ZM567.295 335.5L568.006 336.203L600.671 303.191L599.96 302.488L599.249 301.785L566.584 334.797L567.295 335.5Z" fill="black" fill-opacity="0.8"/>
<path d="M482.758 349.364V361H481.003V349.364H482.758ZM491.486 352.42C491.425 351.883 491.175 351.466 490.736 351.17C490.296 350.871 489.743 350.722 489.077 350.722C488.599 350.722 488.186 350.797 487.838 350.949C487.489 351.097 487.219 351.301 487.025 351.562C486.836 351.82 486.741 352.114 486.741 352.443C486.741 352.72 486.806 352.958 486.935 353.159C487.067 353.36 487.239 353.528 487.452 353.665C487.668 353.797 487.899 353.909 488.145 354C488.391 354.087 488.628 354.159 488.855 354.216L489.991 354.511C490.363 354.602 490.743 354.725 491.133 354.881C491.524 355.036 491.885 355.241 492.219 355.494C492.552 355.748 492.821 356.062 493.025 356.438C493.234 356.812 493.338 357.261 493.338 357.784C493.338 358.443 493.168 359.028 492.827 359.54C492.489 360.051 491.999 360.455 491.355 360.75C490.715 361.045 489.94 361.193 489.031 361.193C488.16 361.193 487.406 361.055 486.77 360.778C486.133 360.502 485.635 360.11 485.275 359.602C484.916 359.091 484.717 358.485 484.679 357.784H486.44C486.474 358.205 486.611 358.555 486.849 358.835C487.092 359.112 487.4 359.318 487.775 359.455C488.154 359.587 488.569 359.653 489.02 359.653C489.516 359.653 489.957 359.576 490.344 359.42C490.734 359.261 491.041 359.042 491.264 358.761C491.488 358.477 491.599 358.146 491.599 357.767C491.599 357.422 491.501 357.14 491.304 356.92C491.111 356.701 490.847 356.519 490.514 356.375C490.185 356.231 489.811 356.104 489.395 355.994L488.02 355.619C487.088 355.366 486.349 354.992 485.804 354.5C485.262 354.008 484.991 353.356 484.991 352.545C484.991 351.875 485.173 351.29 485.537 350.79C485.9 350.29 486.393 349.902 487.014 349.625C487.635 349.345 488.336 349.205 489.116 349.205C489.904 349.205 490.599 349.343 491.202 349.619C491.808 349.896 492.285 350.277 492.633 350.761C492.982 351.242 493.164 351.795 493.179 352.42H491.486ZM501.357 361V362.443H493.965V361H501.357ZM502.443 361V349.364H509.659V350.875H504.199V354.42H509.142V355.926H504.199V361H502.443ZM511.642 361V349.364H515.79C516.692 349.364 517.44 349.519 518.034 349.83C518.633 350.14 519.08 350.57 519.375 351.119C519.671 351.665 519.818 352.295 519.818 353.011C519.818 353.723 519.669 354.35 519.37 354.892C519.074 355.43 518.627 355.848 518.029 356.148C517.434 356.447 516.686 356.597 515.784 356.597H512.642V355.085H515.625C516.193 355.085 516.656 355.004 517.012 354.841C517.372 354.678 517.635 354.441 517.801 354.131C517.968 353.82 518.051 353.447 518.051 353.011C518.051 352.572 517.966 352.191 517.796 351.869C517.629 351.547 517.366 351.301 517.006 351.131C516.65 350.956 516.182 350.869 515.603 350.869H513.398V361H511.642ZM517.387 355.75L520.262 361H518.262L515.443 355.75H517.387ZM523.535 349.364V361H521.779V349.364H523.535ZM525.915 361V349.364H533.211V350.875H527.671V354.42H532.83V355.926H527.671V359.489H533.279V361H525.915ZM544.772 349.364V361H543.158L537.244 352.466H537.136V361H535.38V349.364H537.005L542.925 357.909H543.033V349.364H544.772ZM550.924 361H547.157V349.364H551.043C552.184 349.364 553.163 349.597 553.981 350.062C554.799 350.525 555.426 351.189 555.862 352.057C556.301 352.92 556.521 353.956 556.521 355.165C556.521 356.377 556.299 357.419 555.856 358.29C555.417 359.161 554.78 359.831 553.947 360.301C553.114 360.767 552.106 361 550.924 361ZM548.913 359.466H550.828C551.714 359.466 552.451 359.299 553.038 358.966C553.625 358.629 554.064 358.142 554.356 357.506C554.648 356.866 554.793 356.085 554.793 355.165C554.793 354.252 554.648 353.477 554.356 352.841C554.068 352.205 553.638 351.722 553.066 351.392C552.494 351.062 551.784 350.898 550.936 350.898H548.913V359.466ZM564.875 352.42C564.814 351.883 564.564 351.466 564.125 351.17C563.685 350.871 563.132 350.722 562.465 350.722C561.988 350.722 561.575 350.797 561.227 350.949C560.878 351.097 560.608 351.301 560.414 351.562C560.225 351.82 560.13 352.114 560.13 352.443C560.13 352.72 560.195 352.958 560.323 353.159C560.456 353.36 560.628 353.528 560.84 353.665C561.056 353.797 561.287 353.909 561.534 354C561.78 354.087 562.017 354.159 562.244 354.216L563.38 354.511C563.751 354.602 564.132 354.725 564.522 354.881C564.912 355.036 565.274 355.241 565.608 355.494C565.941 355.748 566.21 356.062 566.414 356.438C566.623 356.812 566.727 357.261 566.727 357.784C566.727 358.443 566.556 359.028 566.215 359.54C565.878 360.051 565.388 360.455 564.744 360.75C564.104 361.045 563.329 361.193 562.42 361.193C561.549 361.193 560.795 361.055 560.159 360.778C559.522 360.502 559.024 360.11 558.664 359.602C558.304 359.091 558.106 358.485 558.068 357.784H559.829C559.863 358.205 560 358.555 560.238 358.835C560.481 359.112 560.789 359.318 561.164 359.455C561.543 359.587 561.958 359.653 562.409 359.653C562.905 359.653 563.346 359.576 563.733 359.42C564.123 359.261 564.429 359.042 564.653 358.761C564.876 358.477 564.988 358.146 564.988 357.767C564.988 357.422 564.89 357.14 564.693 356.92C564.5 356.701 564.236 356.519 563.903 356.375C563.573 356.231 563.2 356.104 562.784 355.994L561.409 355.619C560.477 355.366 559.738 354.992 559.193 354.5C558.651 354.008 558.38 353.356 558.38 352.545C558.38 351.875 558.562 351.29 558.926 350.79C559.289 350.29 559.782 349.902 560.403 349.625C561.024 349.345 561.725 349.205 562.505 349.205C563.293 349.205 563.988 349.343 564.59 349.619C565.197 349.896 565.674 350.277 566.022 350.761C566.371 351.242 566.553 351.795 566.568 352.42H564.875ZM574.745 361V362.443H567.353V361H574.745ZM578.111 361L574.883 349.364H576.73L578.997 358.375H579.105L581.463 349.364H583.292L585.65 358.381H585.758L588.02 349.364H589.872L586.639 361H584.872L582.423 352.284H582.332L579.883 361H578.111ZM593.053 349.364V361H591.297V349.364H593.053ZM594.859 350.875V349.364H603.865V350.875H600.234V361H598.484V350.875H594.859ZM605.679 361V349.364H607.435V354.42H613.236V349.364H614.997V361H613.236V355.926H607.435V361H605.679Z" fill="black" fill-opacity="0.8"/>
<path d="M367 64C367 28.6538 395.654 0 431 0C466.346 0 495 28.6538 495 64C495 99.3462 466.346 128 431 128C395.654 128 367 99.3462 367 64Z" fill="#FFDF81"/>
<path d="M407.454 69V58.878H409.246L412.298 67.236L415.392 58.878H417.177V69H415.84V60.817L412.907 69H411.696L408.784 60.894V69H407.454ZM422.552 69.14C421.88 69.14 421.287 68.993 420.774 68.699C420.261 68.405 419.859 67.9827 419.57 67.432C419.281 66.8813 419.136 66.221 419.136 65.451C419.136 64.6903 419.267 64.023 419.528 63.449C419.789 62.875 420.167 62.427 420.662 62.105C421.161 61.783 421.761 61.622 422.461 61.622C423.142 61.622 423.719 61.769 424.19 62.063C424.661 62.357 425.018 62.7723 425.261 63.309C425.508 63.841 425.632 64.4733 425.632 65.206V65.682H420.445C420.445 66.1393 420.52 66.5547 420.669 66.928C420.823 67.2967 421.054 67.5907 421.362 67.81C421.67 68.0293 422.06 68.139 422.531 68.139C422.993 68.139 423.39 68.0317 423.721 67.817C424.057 67.6023 424.272 67.292 424.365 66.886H425.583C425.499 67.376 425.303 67.789 424.995 68.125C424.692 68.461 424.325 68.7153 423.896 68.888C423.471 69.056 423.023 69.14 422.552 69.14ZM420.452 64.807H424.386C424.386 64.3917 424.316 64.0183 424.176 63.687C424.036 63.351 423.821 63.0873 423.532 62.896C423.247 62.7 422.888 62.602 422.454 62.602C422.001 62.602 421.626 62.7117 421.327 62.931C421.028 63.1457 420.807 63.4233 420.662 63.764C420.517 64.1 420.447 64.4477 420.452 64.807ZM429.25 69.091C428.858 69.091 428.54 69.0373 428.298 68.93C428.06 68.8227 427.875 68.678 427.745 68.496C427.619 68.314 427.532 68.1063 427.486 67.873C427.444 67.635 427.423 67.39 427.423 67.138V58.598H428.697V67.012C428.697 67.376 428.767 67.649 428.907 67.831C429.051 68.013 429.252 68.1133 429.509 68.132L429.901 68.139V68.979C429.793 69.0117 429.681 69.0373 429.565 69.056C429.448 69.0793 429.343 69.091 429.25 69.091ZM431.627 69V61.762H432.88V69H431.627ZM431.592 60.229V58.885H432.915V60.229H431.592ZM437.655 69.14C437.151 69.14 436.682 69.063 436.248 68.909C435.819 68.7503 435.462 68.5053 435.177 68.174C434.893 67.838 434.715 67.411 434.645 66.893H435.821C435.882 67.1777 435.999 67.4157 436.171 67.607C436.344 67.7937 436.556 67.936 436.808 68.034C437.065 68.1273 437.345 68.174 437.648 68.174C438.138 68.174 438.533 68.083 438.831 67.901C439.13 67.719 439.279 67.439 439.279 67.061C439.279 66.795 439.2 66.5827 439.041 66.424C438.887 66.2607 438.645 66.1417 438.313 66.067L436.815 65.696C436.232 65.556 435.765 65.3367 435.415 65.038C435.07 64.7393 434.895 64.3217 434.89 63.785C434.89 63.3603 434.993 62.987 435.198 62.665C435.404 62.343 435.709 62.0887 436.115 61.902C436.526 61.7153 437.037 61.622 437.648 61.622C438.437 61.622 439.072 61.7993 439.552 62.154C440.033 62.504 440.285 63.0197 440.308 63.701H439.16C439.114 63.3557 438.96 63.0827 438.698 62.882C438.437 62.6767 438.082 62.574 437.634 62.574C437.177 62.574 436.801 62.6673 436.507 62.854C436.218 63.036 436.073 63.3207 436.073 63.708C436.073 63.9647 436.176 64.1677 436.381 64.317C436.591 64.4617 436.895 64.583 437.291 64.681L438.747 65.045C439.079 65.1337 439.354 65.2503 439.573 65.395C439.793 65.5397 439.965 65.7007 440.091 65.878C440.217 66.0553 440.306 66.242 440.357 66.438C440.413 66.6293 440.441 66.8137 440.441 66.991C440.441 67.4343 440.332 67.817 440.112 68.139C439.893 68.4563 439.576 68.7037 439.16 68.881C438.745 69.0537 438.243 69.14 437.655 69.14ZM444.71 69.14C444.206 69.14 443.737 69.063 443.303 68.909C442.874 68.7503 442.517 68.5053 442.232 68.174C441.947 67.838 441.77 67.411 441.7 66.893H442.876C442.937 67.1777 443.053 67.4157 443.226 67.607C443.399 67.7937 443.611 67.936 443.863 68.034C444.12 68.1273 444.4 68.174 444.703 68.174C445.193 68.174 445.587 68.083 445.886 67.901C446.185 67.719 446.334 67.439 446.334 67.061C446.334 66.795 446.255 66.5827 446.096 66.424C445.942 66.2607 445.699 66.1417 445.368 66.067L443.87 65.696C443.287 65.556 442.82 65.3367 442.47 65.038C442.125 64.7393 441.95 64.3217 441.945 63.785C441.945 63.3603 442.048 62.987 442.253 62.665C442.458 62.343 442.764 62.0887 443.17 61.902C443.581 61.7153 444.092 61.622 444.703 61.622C445.492 61.622 446.126 61.7993 446.607 62.154C447.088 62.504 447.34 63.0197 447.363 63.701H446.215C446.168 63.3557 446.014 63.0827 445.753 62.882C445.492 62.6767 445.137 62.574 444.689 62.574C444.232 62.574 443.856 62.6673 443.562 62.854C443.273 63.036 443.128 63.3207 443.128 63.708C443.128 63.9647 443.231 64.1677 443.436 64.317C443.646 64.4617 443.949 64.583 444.346 64.681L445.802 65.045C446.133 65.1337 446.409 65.2503 446.628 65.395C446.847 65.5397 447.02 65.7007 447.146 65.878C447.272 66.0553 447.361 66.242 447.412 66.438C447.468 66.6293 447.496 66.8137 447.496 66.991C447.496 67.4343 447.386 67.817 447.167 68.139C446.948 68.4563 446.63 68.7037 446.215 68.881C445.8 69.0537 445.298 69.14 444.71 69.14ZM451.246 69.14C450.774 69.14 450.359 69.0583 450 68.895C449.645 68.727 449.365 68.4867 449.16 68.174C448.959 67.8613 448.859 67.4833 448.859 67.04C448.859 66.2373 449.139 65.64 449.699 65.248C450.259 64.856 451.157 64.646 452.394 64.618L453.682 64.583V64.016C453.682 63.5727 453.549 63.2227 453.283 62.966C453.017 62.7047 452.606 62.574 452.051 62.574C451.635 62.5787 451.269 62.6767 450.952 62.868C450.634 63.0593 450.431 63.372 450.343 63.806H449.202C449.23 63.3347 449.36 62.938 449.594 62.616C449.832 62.2893 450.165 62.042 450.595 61.874C451.024 61.706 451.53 61.622 452.114 61.622C452.744 61.622 453.266 61.7107 453.682 61.888C454.102 62.0653 454.414 62.3267 454.62 62.672C454.83 63.0173 454.935 63.442 454.935 63.946V69H453.829L453.731 67.642C453.455 68.2067 453.101 68.5987 452.667 68.818C452.237 69.0327 451.764 69.14 451.246 69.14ZM451.631 68.209C451.878 68.209 452.121 68.1647 452.359 68.076C452.601 67.9873 452.821 67.8683 453.017 67.719C453.217 67.565 453.378 67.3947 453.5 67.208C453.621 67.0167 453.682 66.8207 453.682 66.62V65.381L452.611 65.402C452.055 65.4113 451.593 65.4673 451.225 65.57C450.856 65.6727 450.578 65.8337 450.392 66.053C450.205 66.2723 450.112 66.5593 450.112 66.914C450.112 67.32 450.254 67.6373 450.539 67.866C450.823 68.0947 451.187 68.209 451.631 68.209Z" fill="black"/>
<path d="M429.373 406.498C429.372 407.05 429.819 407.499 430.371 407.5C430.924 407.501 431.372 407.054 431.373 406.502L430.373 406.5L429.373 406.498ZM430.432 374.5L431.432 374.502L431.432 374.502L430.432 374.5ZM430.503 335.5L431.503 335.502L431.503 335.502L430.503 335.5ZM431.589 288.502C431.59 287.95 431.143 287.501 430.591 287.5C430.038 287.499 429.59 287.946 429.589 288.498L430.589 288.5L431.589 288.502ZM429.66 249.498C429.659 250.05 430.106 250.499 430.658 250.5C431.211 250.501 431.659 250.054 431.66 249.502L430.66 249.5L429.66 249.498ZM431.584 130.794C431.195 130.403 430.562 130.402 430.17 130.792L423.795 137.144C423.403 137.534 423.402 138.167 423.792 138.558C424.182 138.949 424.815 138.951 425.206 138.561L430.874 132.914L436.52 138.581C436.91 138.973 437.543 138.974 437.934 138.584C438.325 138.194 438.327 137.561 437.937 137.17L431.584 130.794ZM430.373 406.5L431.373 406.502L431.432 374.502L430.432 374.5L429.432 374.498L429.373 406.498L430.373 406.5ZM430.432 374.5L431.432 374.502L431.503 335.502L430.503 335.5L429.503 335.498L429.432 374.498L430.432 374.5ZM430.503 335.5L431.503 335.502L431.589 288.502L430.589 288.5L429.589 288.498L429.503 335.498L430.503 335.5ZM430.66 249.5L431.66 249.502L431.876 131.502L430.876 131.5L429.876 131.498L429.66 249.498L430.66 249.5Z" fill="black" fill-opacity="0.8"/>
<path d="M365.383 263.364V275H363.628V263.364H365.383ZM374.111 266.42C374.05 265.883 373.8 265.466 373.361 265.17C372.921 264.871 372.368 264.722 371.702 264.722C371.224 264.722 370.811 264.797 370.463 264.949C370.114 265.097 369.844 265.301 369.65 265.562C369.461 265.82 369.366 266.114 369.366 266.443C369.366 266.72 369.431 266.958 369.56 267.159C369.692 267.36 369.864 267.528 370.077 267.665C370.293 267.797 370.524 267.909 370.77 268C371.016 268.087 371.253 268.159 371.48 268.216L372.616 268.511C372.988 268.602 373.368 268.725 373.758 268.881C374.149 269.036 374.51 269.241 374.844 269.494C375.177 269.748 375.446 270.062 375.65 270.438C375.859 270.812 375.963 271.261 375.963 271.784C375.963 272.443 375.793 273.028 375.452 273.54C375.114 274.051 374.624 274.455 373.98 274.75C373.34 275.045 372.565 275.193 371.656 275.193C370.785 275.193 370.031 275.055 369.395 274.778C368.758 274.502 368.26 274.11 367.9 273.602C367.541 273.091 367.342 272.485 367.304 271.784H369.065C369.099 272.205 369.236 272.555 369.474 272.835C369.717 273.112 370.025 273.318 370.4 273.455C370.779 273.587 371.194 273.653 371.645 273.653C372.141 273.653 372.582 273.576 372.969 273.42C373.359 273.261 373.666 273.042 373.889 272.761C374.113 272.477 374.224 272.146 374.224 271.767C374.224 271.422 374.126 271.14 373.929 270.92C373.736 270.701 373.472 270.519 373.139 270.375C372.81 270.231 372.436 270.104 372.02 269.994L370.645 269.619C369.713 269.366 368.974 268.992 368.429 268.5C367.887 268.008 367.616 267.356 367.616 266.545C367.616 265.875 367.798 265.29 368.162 264.79C368.525 264.29 369.018 263.902 369.639 263.625C370.26 263.345 370.961 263.205 371.741 263.205C372.529 263.205 373.224 263.343 373.827 263.619C374.433 263.896 374.91 264.277 375.258 264.761C375.607 265.242 375.789 265.795 375.804 266.42H374.111ZM383.982 275V276.443H376.59V275H383.982ZM385.068 275V263.364H392.284V264.875H386.824V268.42H391.767V269.926H386.824V275H385.068ZM394.267 275V263.364H398.415C399.317 263.364 400.065 263.519 400.659 263.83C401.258 264.14 401.705 264.57 402 265.119C402.296 265.665 402.443 266.295 402.443 267.011C402.443 267.723 402.294 268.35 401.995 268.892C401.699 269.43 401.252 269.848 400.654 270.148C400.059 270.447 399.311 270.597 398.409 270.597H395.267V269.085H398.25C398.818 269.085 399.281 269.004 399.637 268.841C399.997 268.678 400.26 268.441 400.426 268.131C400.593 267.82 400.676 267.447 400.676 267.011C400.676 266.572 400.591 266.191 400.421 265.869C400.254 265.547 399.991 265.301 399.631 265.131C399.275 264.956 398.807 264.869 398.228 264.869H396.023V275H394.267ZM400.012 269.75L402.887 275H400.887L398.068 269.75H400.012ZM406.16 263.364V275H404.404V263.364H406.16ZM408.54 275V263.364H415.836V264.875H410.296V268.42H415.455V269.926H410.296V273.489H415.904V275H408.54ZM427.397 263.364V275H425.783L419.869 266.466H419.761V275H418.005V263.364H419.63L425.55 271.909H425.658V263.364H427.397ZM433.549 275H429.782V263.364H433.668C434.809 263.364 435.788 263.597 436.606 264.062C437.424 264.525 438.051 265.189 438.487 266.057C438.926 266.92 439.146 267.956 439.146 269.165C439.146 270.377 438.924 271.419 438.481 272.29C438.042 273.161 437.405 273.831 436.572 274.301C435.739 274.767 434.731 275 433.549 275ZM431.538 273.466H433.453C434.339 273.466 435.076 273.299 435.663 272.966C436.25 272.629 436.689 272.142 436.981 271.506C437.273 270.866 437.418 270.085 437.418 269.165C437.418 268.252 437.273 267.477 436.981 266.841C436.693 266.205 436.263 265.722 435.691 265.392C435.119 265.062 434.409 264.898 433.561 264.898H431.538V273.466ZM447.5 266.42C447.439 265.883 447.189 265.466 446.75 265.17C446.31 264.871 445.757 264.722 445.09 264.722C444.613 264.722 444.2 264.797 443.852 264.949C443.503 265.097 443.233 265.301 443.039 265.562C442.85 265.82 442.755 266.114 442.755 266.443C442.755 266.72 442.82 266.958 442.948 267.159C443.081 267.36 443.253 267.528 443.465 267.665C443.681 267.797 443.912 267.909 444.159 268C444.405 268.087 444.642 268.159 444.869 268.216L446.005 268.511C446.376 268.602 446.757 268.725 447.147 268.881C447.537 269.036 447.899 269.241 448.233 269.494C448.566 269.748 448.835 270.062 449.039 270.438C449.248 270.812 449.352 271.261 449.352 271.784C449.352 272.443 449.181 273.028 448.84 273.54C448.503 274.051 448.013 274.455 447.369 274.75C446.729 275.045 445.954 275.193 445.045 275.193C444.174 275.193 443.42 275.055 442.784 274.778C442.147 274.502 441.649 274.11 441.289 273.602C440.929 273.091 440.731 272.485 440.693 271.784H442.454C442.488 272.205 442.625 272.555 442.863 272.835C443.106 273.112 443.414 273.318 443.789 273.455C444.168 273.587 444.583 273.653 445.034 273.653C445.53 273.653 445.971 273.576 446.358 273.42C446.748 273.261 447.054 273.042 447.278 272.761C447.501 272.477 447.613 272.146 447.613 271.767C447.613 271.422 447.515 271.14 447.318 270.92C447.125 270.701 446.861 270.519 446.528 270.375C446.198 270.231 445.825 270.104 445.409 269.994L444.034 269.619C443.102 269.366 442.363 268.992 441.818 268.5C441.276 268.008 441.005 267.356 441.005 266.545C441.005 265.875 441.187 265.29 441.551 264.79C441.914 264.29 442.407 263.902 443.028 263.625C443.649 263.345 444.35 263.205 445.13 263.205C445.918 263.205 446.613 263.343 447.215 263.619C447.822 263.896 448.299 264.277 448.647 264.761C448.996 265.242 449.178 265.795 449.193 266.42H447.5ZM457.37 275V276.443H449.978V275H457.37ZM460.736 275L457.508 263.364H459.355L461.622 272.375H461.73L464.088 263.364H465.917L468.275 272.381H468.383L470.645 263.364H472.497L469.264 275H467.497L465.048 266.284H464.957L462.508 275H460.736ZM475.678 263.364V275H473.922V263.364H475.678ZM477.484 264.875V263.364H486.49V264.875H482.859V275H481.109V264.875H477.484ZM488.304 275V263.364H490.06V268.42H495.861V263.364H497.622V275H495.861V269.926H490.06V275H488.304Z" fill="black" fill-opacity="0.8"/>
<path d="M0 474C0 438.654 28.6538 410 64 410C99.3462 410 128 438.654 128 474C128 509.346 99.3462 538 64 538C28.6538 538 0 509.346 0 474Z" fill="#FFDF81"/>
<path d="M48.6231 479V468.878H50.4151L53.4671 477.236L56.5611 468.878H58.3461V479H57.0091V470.817L54.0761 479H52.8651L49.9531 470.894V479H48.6231ZM62.7465 479.14C62.2752 479.14 61.8598 479.058 61.5005 478.895C61.1458 478.727 60.8658 478.487 60.6605 478.174C60.4598 477.861 60.3595 477.483 60.3595 477.04C60.3595 476.237 60.6395 475.64 61.1995 475.248C61.7595 474.856 62.6578 474.646 63.8945 474.618L65.1825 474.583V474.016C65.1825 473.573 65.0495 473.223 64.7835 472.966C64.5175 472.705 64.1068 472.574 63.5515 472.574C63.1362 472.579 62.7698 472.677 62.4525 472.868C62.1352 473.059 61.9322 473.372 61.8435 473.806H60.7025C60.7305 473.335 60.8612 472.938 61.0945 472.616C61.3325 472.289 61.6662 472.042 62.0955 471.874C62.5248 471.706 63.0312 471.622 63.6145 471.622C64.2445 471.622 64.7672 471.711 65.1825 471.888C65.6025 472.065 65.9152 472.327 66.1205 472.672C66.3305 473.017 66.4355 473.442 66.4355 473.946V479H65.3295L65.2315 477.642C64.9562 478.207 64.6015 478.599 64.1675 478.818C63.7382 479.033 63.2645 479.14 62.7465 479.14ZM63.1315 478.209C63.3788 478.209 63.6215 478.165 63.8595 478.076C64.1022 477.987 64.3215 477.868 64.5175 477.719C64.7182 477.565 64.8792 477.395 65.0005 477.208C65.1218 477.017 65.1825 476.821 65.1825 476.62V475.381L64.1115 475.402C63.5562 475.411 63.0942 475.467 62.7255 475.57C62.3568 475.673 62.0792 475.834 61.8925 476.053C61.7058 476.272 61.6125 476.559 61.6125 476.914C61.6125 477.32 61.7548 477.637 62.0395 477.866C62.3242 478.095 62.6882 478.209 63.1315 478.209ZM68.4548 479V471.762H69.6868V473.155C69.8081 472.81 69.9785 472.525 70.1978 472.301C70.4171 472.072 70.6668 471.902 70.9468 471.79C71.2315 471.678 71.5255 471.622 71.8288 471.622C71.9361 471.622 72.0411 471.629 72.1438 471.643C72.2465 471.657 72.3258 471.68 72.3818 471.713V472.966C72.3118 472.933 72.2208 472.912 72.1088 472.903C72.0015 472.889 71.9105 472.882 71.8358 472.882C71.5465 472.863 71.2758 472.882 71.0238 472.938C70.7718 472.989 70.5501 473.08 70.3588 473.211C70.1675 473.342 70.0158 473.514 69.9038 473.729C69.7965 473.939 69.7428 474.196 69.7428 474.499V479H68.4548ZM73.9235 479V468.598H75.2115V475.381L78.6135 471.762H80.0975L77.4865 474.52L80.2795 479H78.9075L76.6395 475.367L75.2115 476.844V479H73.9235Z" fill="black"/>
<path d="M362.75 475C363.302 475 363.75 474.552 363.75 474C363.75 473.448 363.302 473 362.75 473V474V475ZM323.125 473C322.573 473 322.125 473.448 322.125 474C322.125 474.552 322.573 475 323.125 475V474V473ZM171.125 475C171.677 475 172.125 474.552 172.125 474C172.125 473.448 171.677 473 171.125 473V474V475ZM130.793 473.293C130.402 473.683 130.402 474.317 130.793 474.707L137.157 481.071C137.547 481.462 138.181 481.462 138.571 481.071C138.962 480.681 138.962 480.047 138.571 479.657L132.914 474L138.571 468.343C138.962 467.953 138.962 467.319 138.571 466.929C138.181 466.538 137.547 466.538 137.157 466.929L130.793 473.293ZM362.75 474V473H323.125V474V475H362.75V474ZM171.125 474V473H131.5V474V475H171.125V474Z" fill="black" fill-opacity="0.8"/>
<path d="M181.883 468.364V480H180.128V468.364H181.883ZM190.611 471.42C190.55 470.883 190.3 470.466 189.861 470.17C189.421 469.871 188.868 469.722 188.202 469.722C187.724 469.722 187.311 469.797 186.963 469.949C186.614 470.097 186.344 470.301 186.15 470.562C185.961 470.82 185.866 471.114 185.866 471.443C185.866 471.72 185.931 471.958 186.06 472.159C186.192 472.36 186.364 472.528 186.577 472.665C186.793 472.797 187.024 472.909 187.27 473C187.516 473.087 187.753 473.159 187.98 473.216L189.116 473.511C189.488 473.602 189.868 473.725 190.258 473.881C190.649 474.036 191.01 474.241 191.344 474.494C191.677 474.748 191.946 475.062 192.15 475.438C192.359 475.812 192.463 476.261 192.463 476.784C192.463 477.443 192.293 478.028 191.952 478.54C191.614 479.051 191.124 479.455 190.48 479.75C189.84 480.045 189.065 480.193 188.156 480.193C187.285 480.193 186.531 480.055 185.895 479.778C185.258 479.502 184.76 479.11 184.4 478.602C184.041 478.091 183.842 477.485 183.804 476.784H185.565C185.599 477.205 185.736 477.555 185.974 477.835C186.217 478.112 186.525 478.318 186.9 478.455C187.279 478.587 187.694 478.653 188.145 478.653C188.641 478.653 189.082 478.576 189.469 478.42C189.859 478.261 190.166 478.042 190.389 477.761C190.613 477.477 190.724 477.146 190.724 476.767C190.724 476.422 190.626 476.14 190.429 475.92C190.236 475.701 189.972 475.519 189.639 475.375C189.31 475.231 188.936 475.104 188.52 474.994L187.145 474.619C186.213 474.366 185.474 473.992 184.929 473.5C184.387 473.008 184.116 472.356 184.116 471.545C184.116 470.875 184.298 470.29 184.662 469.79C185.025 469.29 185.518 468.902 186.139 468.625C186.76 468.345 187.461 468.205 188.241 468.205C189.029 468.205 189.724 468.343 190.327 468.619C190.933 468.896 191.41 469.277 191.758 469.761C192.107 470.242 192.289 470.795 192.304 471.42H190.611ZM200.482 480V481.443H193.09V480H200.482ZM201.568 480V468.364H208.784V469.875H203.324V473.42H208.267V474.926H203.324V480H201.568ZM210.767 480V468.364H214.915C215.817 468.364 216.565 468.519 217.159 468.83C217.758 469.14 218.205 469.57 218.5 470.119C218.796 470.665 218.943 471.295 218.943 472.011C218.943 472.723 218.794 473.35 218.495 473.892C218.199 474.43 217.752 474.848 217.154 475.148C216.559 475.447 215.811 475.597 214.909 475.597H211.767V474.085H214.75C215.318 474.085 215.781 474.004 216.137 473.841C216.497 473.678 216.76 473.441 216.926 473.131C217.093 472.82 217.176 472.447 217.176 472.011C217.176 471.572 217.091 471.191 216.921 470.869C216.754 470.547 216.491 470.301 216.131 470.131C215.775 469.956 215.307 469.869 214.728 469.869H212.523V480H210.767ZM216.512 474.75L219.387 480H217.387L214.568 474.75H216.512ZM222.66 468.364V480H220.904V468.364H222.66ZM225.04 480V468.364H232.336V469.875H226.796V473.42H231.955V474.926H226.796V478.489H232.404V480H225.04ZM243.897 468.364V480H242.283L236.369 471.466H236.261V480H234.505V468.364H236.13L242.05 476.909H242.158V468.364H243.897ZM250.049 480H246.282V468.364H250.168C251.309 468.364 252.288 468.597 253.106 469.062C253.924 469.525 254.551 470.189 254.987 471.057C255.426 471.92 255.646 472.956 255.646 474.165C255.646 475.377 255.424 476.419 254.981 477.29C254.542 478.161 253.905 478.831 253.072 479.301C252.239 479.767 251.231 480 250.049 480ZM248.038 478.466H249.953C250.839 478.466 251.576 478.299 252.163 477.966C252.75 477.629 253.189 477.142 253.481 476.506C253.773 475.866 253.918 475.085 253.918 474.165C253.918 473.252 253.773 472.477 253.481 471.841C253.193 471.205 252.763 470.722 252.191 470.392C251.619 470.062 250.909 469.898 250.061 469.898H248.038V478.466ZM264 471.42C263.939 470.883 263.689 470.466 263.25 470.17C262.81 469.871 262.257 469.722 261.59 469.722C261.113 469.722 260.7 469.797 260.352 469.949C260.003 470.097 259.733 470.301 259.539 470.562C259.35 470.82 259.255 471.114 259.255 471.443C259.255 471.72 259.32 471.958 259.448 472.159C259.581 472.36 259.753 472.528 259.965 472.665C260.181 472.797 260.412 472.909 260.659 473C260.905 473.087 261.142 473.159 261.369 473.216L262.505 473.511C262.876 473.602 263.257 473.725 263.647 473.881C264.037 474.036 264.399 474.241 264.733 474.494C265.066 474.748 265.335 475.062 265.539 475.438C265.748 475.812 265.852 476.261 265.852 476.784C265.852 477.443 265.681 478.028 265.34 478.54C265.003 479.051 264.513 479.455 263.869 479.75C263.229 480.045 262.454 480.193 261.545 480.193C260.674 480.193 259.92 480.055 259.284 479.778C258.647 479.502 258.149 479.11 257.789 478.602C257.429 478.091 257.231 477.485 257.193 476.784H258.954C258.988 477.205 259.125 477.555 259.363 477.835C259.606 478.112 259.914 478.318 260.289 478.455C260.668 478.587 261.083 478.653 261.534 478.653C262.03 478.653 262.471 478.576 262.858 478.42C263.248 478.261 263.554 478.042 263.778 477.761C264.001 477.477 264.113 477.146 264.113 476.767C264.113 476.422 264.015 476.14 263.818 475.92C263.625 475.701 263.361 475.519 263.028 475.375C262.698 475.231 262.325 475.104 261.909 474.994L260.534 474.619C259.602 474.366 258.863 473.992 258.318 473.5C257.776 473.008 257.505 472.356 257.505 471.545C257.505 470.875 257.687 470.29 258.051 469.79C258.414 469.29 258.907 468.902 259.528 468.625C260.149 468.345 260.85 468.205 261.63 468.205C262.418 468.205 263.113 468.343 263.715 468.619C264.322 468.896 264.799 469.277 265.147 469.761C265.496 470.242 265.678 470.795 265.693 471.42H264ZM273.87 480V481.443H266.478V480H273.87ZM277.236 480L274.008 468.364H275.855L278.122 477.375H278.23L280.588 468.364H282.417L284.775 477.381H284.883L287.145 468.364H288.997L285.764 480H283.997L281.548 471.284H281.457L279.008 480H277.236ZM292.178 468.364V480H290.422V468.364H292.178ZM293.984 469.875V468.364H302.99V469.875H299.359V480H297.609V469.875H293.984ZM304.804 480V468.364H306.56V473.42H312.361V468.364H314.122V480H312.361V474.926H306.56V480H304.804Z" fill="black" fill-opacity="0.8"/>
<path d="M732 474C732 438.654 760.654 410 796 410C831.346 410 860 438.654 860 474C860 509.346 831.346 538 796 538C760.654 538 732 509.346 732 474Z" fill="#FFDF81"/>
<path d="M784.491 479.14C783.996 479.14 783.527 479.082 783.084 478.965C782.64 478.844 782.237 478.664 781.873 478.426C781.513 478.188 781.215 477.894 780.977 477.544C780.743 477.189 780.596 476.779 780.536 476.312H781.894C781.978 476.695 782.143 477.017 782.391 477.278C782.643 477.539 782.953 477.735 783.322 477.866C783.695 477.997 784.103 478.062 784.547 478.062C784.976 478.062 785.37 477.994 785.73 477.859C786.094 477.724 786.385 477.528 786.605 477.271C786.824 477.01 786.934 476.697 786.934 476.333C786.934 475.932 786.803 475.61 786.542 475.367C786.28 475.12 785.877 474.921 785.331 474.772L783.245 474.233C782.773 474.116 782.356 473.953 781.992 473.743C781.632 473.528 781.35 473.248 781.145 472.903C780.939 472.553 780.837 472.119 780.837 471.601C780.837 471.027 780.995 470.528 781.313 470.103C781.63 469.674 782.059 469.342 782.601 469.109C783.147 468.871 783.763 468.752 784.449 468.752C785.242 468.752 785.909 468.89 786.451 469.165C786.997 469.44 787.41 469.802 787.69 470.25C787.97 470.698 788.11 471.176 788.11 471.685H786.78C786.738 471.223 786.602 470.859 786.374 470.593C786.145 470.322 785.86 470.129 785.52 470.012C785.179 469.891 784.808 469.83 784.407 469.83C783.683 469.83 783.135 469.996 782.762 470.327C782.393 470.654 782.209 471.043 782.209 471.496C782.209 471.911 782.342 472.238 782.608 472.476C782.874 472.714 783.266 472.898 783.784 473.029L785.814 473.554C786.416 473.694 786.894 473.897 787.249 474.163C787.608 474.429 787.865 474.739 788.019 475.094C788.177 475.444 788.257 475.824 788.257 476.235C788.257 476.795 788.1 477.294 787.788 477.733C787.475 478.172 787.036 478.517 786.472 478.769C785.912 479.016 785.251 479.14 784.491 479.14ZM792.149 479.14C791.678 479.14 791.262 479.058 790.903 478.895C790.548 478.727 790.268 478.487 790.063 478.174C789.862 477.861 789.762 477.483 789.762 477.04C789.762 476.237 790.042 475.64 790.602 475.248C791.162 474.856 792.06 474.646 793.297 474.618L794.585 474.583V474.016C794.585 473.573 794.452 473.223 794.186 472.966C793.92 472.705 793.509 472.574 792.954 472.574C792.539 472.579 792.172 472.677 791.855 472.868C791.538 473.059 791.335 473.372 791.246 473.806H790.105C790.133 473.335 790.264 472.938 790.497 472.616C790.735 472.289 791.069 472.042 791.498 471.874C791.927 471.706 792.434 471.622 793.017 471.622C793.647 471.622 794.17 471.711 794.585 471.888C795.005 472.065 795.318 472.327 795.523 472.672C795.733 473.017 795.838 473.442 795.838 473.946V479H794.732L794.634 477.642C794.359 478.207 794.004 478.599 793.57 478.818C793.141 479.033 792.667 479.14 792.149 479.14ZM792.534 478.209C792.781 478.209 793.024 478.165 793.262 478.076C793.505 477.987 793.724 477.868 793.92 477.719C794.121 477.565 794.282 477.395 794.403 477.208C794.524 477.017 794.585 476.821 794.585 476.62V475.381L793.514 475.402C792.959 475.411 792.497 475.467 792.128 475.57C791.759 475.673 791.482 475.834 791.295 476.053C791.108 476.272 791.015 476.559 791.015 476.914C791.015 477.32 791.157 477.637 791.442 477.866C791.727 478.095 792.091 478.209 792.534 478.209ZM799.684 479.091C799.292 479.091 798.975 479.037 798.732 478.93C798.494 478.823 798.31 478.678 798.179 478.496C798.053 478.314 797.967 478.106 797.92 477.873C797.878 477.635 797.857 477.39 797.857 477.138V468.598H799.131V477.012C799.131 477.376 799.201 477.649 799.341 477.831C799.486 478.013 799.686 478.113 799.943 478.132L800.335 478.139V478.979C800.228 479.012 800.116 479.037 799.999 479.056C799.882 479.079 799.777 479.091 799.684 479.091ZM803.717 479.091C803.325 479.091 803.008 479.037 802.765 478.93C802.527 478.823 802.343 478.678 802.212 478.496C802.086 478.314 802 478.106 801.953 477.873C801.911 477.635 801.89 477.39 801.89 477.138V468.598H803.164V477.012C803.164 477.376 803.234 477.649 803.374 477.831C803.519 478.013 803.72 478.113 803.976 478.132L804.368 478.139V478.979C804.261 479.012 804.149 479.037 804.032 479.056C803.916 479.079 803.811 479.091 803.717 479.091ZM806.576 481.31C806.152 481.31 805.86 481.28 805.701 481.219C805.543 481.158 805.463 481.128 805.463 481.128V480.288L806.205 480.302C806.471 480.311 806.693 480.293 806.87 480.246C807.048 480.199 807.19 480.136 807.297 480.057C807.405 479.978 807.486 479.889 807.542 479.791C807.603 479.693 807.652 479.6 807.689 479.511L807.941 478.825L805.113 471.762H806.422L808.557 477.348L810.678 471.762H811.945L808.9 479.546C808.709 480.003 808.497 480.36 808.263 480.617C808.035 480.874 807.778 481.053 807.493 481.156C807.213 481.259 806.908 481.31 806.576 481.31Z" fill="black"/>
<path d="M497.75 473C497.198 473 496.75 473.448 496.75 474C496.75 474.552 497.198 475 497.75 475V474V473ZM537.125 475C537.677 475 538.125 474.552 538.125 474C538.125 473.448 537.677 473 537.125 473V474V475ZM689.125 473C688.573 473 688.125 473.448 688.125 474C688.125 474.552 688.573 475 689.125 475V474V473ZM729.207 474.707C729.598 474.317 729.598 473.683 729.207 473.293L722.843 466.929C722.453 466.538 721.819 466.538 721.429 466.929C721.038 467.319 721.038 467.953 721.429 468.343L727.086 474L721.429 479.657C721.038 480.047 721.038 480.681 721.429 481.071C721.819 481.462 722.453 481.462 722.843 481.071L729.207 474.707ZM497.75 474V475H537.125V474V473H497.75V474ZM689.125 474V475H728.5V474V473H689.125V474Z" fill="black" fill-opacity="0.8"/>
<path d="M547.883 468.364V480H546.128V468.364H547.883ZM556.611 471.42C556.55 470.883 556.3 470.466 555.861 470.17C555.421 469.871 554.868 469.722 554.202 469.722C553.724 469.722 553.311 469.797 552.963 469.949C552.614 470.097 552.344 470.301 552.15 470.562C551.961 470.82 551.866 471.114 551.866 471.443C551.866 471.72 551.931 471.958 552.06 472.159C552.192 472.36 552.364 472.528 552.577 472.665C552.793 472.797 553.024 472.909 553.27 473C553.516 473.087 553.753 473.159 553.98 473.216L555.116 473.511C555.488 473.602 555.868 473.725 556.258 473.881C556.649 474.036 557.01 474.241 557.344 474.494C557.677 474.748 557.946 475.062 558.15 475.438C558.359 475.812 558.463 476.261 558.463 476.784C558.463 477.443 558.293 478.028 557.952 478.54C557.614 479.051 557.124 479.455 556.48 479.75C555.84 480.045 555.065 480.193 554.156 480.193C553.285 480.193 552.531 480.055 551.895 479.778C551.258 479.502 550.76 479.11 550.4 478.602C550.041 478.091 549.842 477.485 549.804 476.784H551.565C551.599 477.205 551.736 477.555 551.974 477.835C552.217 478.112 552.525 478.318 552.9 478.455C553.279 478.587 553.694 478.653 554.145 478.653C554.641 478.653 555.082 478.576 555.469 478.42C555.859 478.261 556.166 478.042 556.389 477.761C556.613 477.477 556.724 477.146 556.724 476.767C556.724 476.422 556.626 476.14 556.429 475.92C556.236 475.701 555.972 475.519 555.639 475.375C555.31 475.231 554.936 475.104 554.52 474.994L553.145 474.619C552.213 474.366 551.474 473.992 550.929 473.5C550.387 473.008 550.116 472.356 550.116 471.545C550.116 470.875 550.298 470.29 550.662 469.79C551.025 469.29 551.518 468.902 552.139 468.625C552.76 468.345 553.461 468.205 554.241 468.205C555.029 468.205 555.724 468.343 556.327 468.619C556.933 468.896 557.41 469.277 557.758 469.761C558.107 470.242 558.289 470.795 558.304 471.42H556.611ZM566.482 480V481.443H559.09V480H566.482ZM567.568 480V468.364H574.784V469.875H569.324V473.42H574.267V474.926H569.324V480H567.568ZM576.767 480V468.364H580.915C581.817 468.364 582.565 468.519 583.159 468.83C583.758 469.14 584.205 469.57 584.5 470.119C584.796 470.665 584.943 471.295 584.943 472.011C584.943 472.723 584.794 473.35 584.495 473.892C584.199 474.43 583.752 474.848 583.154 475.148C582.559 475.447 581.811 475.597 580.909 475.597H577.767V474.085H580.75C581.318 474.085 581.781 474.004 582.137 473.841C582.497 473.678 582.76 473.441 582.926 473.131C583.093 472.82 583.176 472.447 583.176 472.011C583.176 471.572 583.091 471.191 582.921 470.869C582.754 470.547 582.491 470.301 582.131 470.131C581.775 469.956 581.307 469.869 580.728 469.869H578.523V480H576.767ZM582.512 474.75L585.387 480H583.387L580.568 474.75H582.512ZM588.66 468.364V480H586.904V468.364H588.66ZM591.04 480V468.364H598.336V469.875H592.796V473.42H597.955V474.926H592.796V478.489H598.404V480H591.04ZM609.897 468.364V480H608.283L602.369 471.466H602.261V480H600.505V468.364H602.13L608.05 476.909H608.158V468.364H609.897ZM616.049 480H612.282V468.364H616.168C617.309 468.364 618.288 468.597 619.106 469.062C619.924 469.525 620.551 470.189 620.987 471.057C621.426 471.92 621.646 472.956 621.646 474.165C621.646 475.377 621.424 476.419 620.981 477.29C620.542 478.161 619.905 478.831 619.072 479.301C618.239 479.767 617.231 480 616.049 480ZM614.038 478.466H615.953C616.839 478.466 617.576 478.299 618.163 477.966C618.75 477.629 619.189 477.142 619.481 476.506C619.773 475.866 619.918 475.085 619.918 474.165C619.918 473.252 619.773 472.477 619.481 471.841C619.193 471.205 618.763 470.722 618.191 470.392C617.619 470.062 616.909 469.898 616.061 469.898H614.038V478.466ZM630 471.42C629.939 470.883 629.689 470.466 629.25 470.17C628.81 469.871 628.257 469.722 627.59 469.722C627.113 469.722 626.7 469.797 626.352 469.949C626.003 470.097 625.733 470.301 625.539 470.562C625.35 470.82 625.255 471.114 625.255 471.443C625.255 471.72 625.32 471.958 625.448 472.159C625.581 472.36 625.753 472.528 625.965 472.665C626.181 472.797 626.412 472.909 626.659 473C626.905 473.087 627.142 473.159 627.369 473.216L628.505 473.511C628.876 473.602 629.257 473.725 629.647 473.881C630.037 474.036 630.399 474.241 630.733 474.494C631.066 474.748 631.335 475.062 631.539 475.438C631.748 475.812 631.852 476.261 631.852 476.784C631.852 477.443 631.681 478.028 631.34 478.54C631.003 479.051 630.513 479.455 629.869 479.75C629.229 480.045 628.454 480.193 627.545 480.193C626.674 480.193 625.92 480.055 625.284 479.778C624.647 479.502 624.149 479.11 623.789 478.602C623.429 478.091 623.231 477.485 623.193 476.784H624.954C624.988 477.205 625.125 477.555 625.363 477.835C625.606 478.112 625.914 478.318 626.289 478.455C626.668 478.587 627.083 478.653 627.534 478.653C628.03 478.653 628.471 478.576 628.858 478.42C629.248 478.261 629.554 478.042 629.778 477.761C630.001 477.477 630.113 477.146 630.113 476.767C630.113 476.422 630.015 476.14 629.818 475.92C629.625 475.701 629.361 475.519 629.028 475.375C628.698 475.231 628.325 475.104 627.909 474.994L626.534 474.619C625.602 474.366 624.863 473.992 624.318 473.5C623.776 473.008 623.505 472.356 623.505 471.545C623.505 470.875 623.687 470.29 624.051 469.79C624.414 469.29 624.907 468.902 625.528 468.625C626.149 468.345 626.85 468.205 627.63 468.205C628.418 468.205 629.113 468.343 629.715 468.619C630.322 468.896 630.799 469.277 631.147 469.761C631.496 470.242 631.678 470.795 631.693 471.42H630ZM639.87 480V481.443H632.478V480H639.87ZM643.236 480L640.008 468.364H641.855L644.122 477.375H644.23L646.588 468.364H648.417L650.775 477.381H650.883L653.145 468.364H654.997L651.764 480H649.997L647.548 471.284H647.457L645.008 480H643.236ZM658.178 468.364V480H656.422V468.364H658.178ZM659.984 469.875V468.364H668.99V469.875H665.359V480H663.609V469.875H659.984ZM670.804 480V468.364H672.56V473.42H678.361V468.364H680.122V480H678.361V474.926H672.56V480H670.804Z" fill="black" fill-opacity="0.8"/>
<path d="M163 236C163 200.654 191.654 172 227 172C262.346 172 291 200.654 291 236C291 271.346 262.346 300 227 300C191.654 300 163 271.346 163 236Z" fill="#FFDF81"/>
<path d="M214.531 241L218.192 230.878H219.655L223.316 241H221.993L220.999 238.228H216.848L215.847 241H214.531ZM217.191 237.038H220.642L218.92 232.145L217.191 237.038ZM224.961 241V233.762H226.214V234.812C226.33 234.611 226.491 234.422 226.697 234.245C226.907 234.068 227.159 233.925 227.453 233.818C227.751 233.711 228.094 233.657 228.482 233.657C228.939 233.657 229.359 233.748 229.742 233.93C230.129 234.112 230.437 234.397 230.666 234.784C230.899 235.167 231.016 235.661 231.016 236.268V241H229.721V236.394C229.721 235.829 229.571 235.412 229.273 235.141C228.979 234.866 228.596 234.728 228.125 234.728C227.798 234.728 227.492 234.782 227.208 234.889C226.923 234.992 226.692 235.15 226.515 235.365C226.337 235.575 226.249 235.841 226.249 236.163V241H224.961ZM233.041 241V233.762H234.294V234.812C234.41 234.611 234.571 234.422 234.777 234.245C234.987 234.068 235.239 233.925 235.533 233.818C235.831 233.711 236.174 233.657 236.562 233.657C237.019 233.657 237.439 233.748 237.822 233.93C238.209 234.112 238.517 234.397 238.746 234.784C238.979 235.167 239.096 235.661 239.096 236.268V241H237.801V236.394C237.801 235.829 237.651 235.412 237.353 235.141C237.059 234.866 236.676 234.728 236.205 234.728C235.878 234.728 235.572 234.782 235.288 234.889C235.003 234.992 234.772 235.15 234.595 235.365C234.417 235.575 234.329 235.841 234.329 236.163V241H233.041Z" fill="black"/>
<path d="M372.561 407.988C372.92 408.408 373.551 408.458 373.971 408.099C374.391 407.74 374.441 407.109 374.082 406.689L373.321 407.338L372.561 407.988ZM354.625 385.445L353.864 386.095L353.864 386.095L354.625 385.445ZM346.038 373.851C345.679 373.431 345.048 373.381 344.628 373.74C344.208 374.098 344.159 374.729 344.517 375.149L345.278 374.5L346.038 373.851ZM310.2 336.136C310.551 336.562 311.181 336.623 311.608 336.272C312.034 335.921 312.095 335.291 311.744 334.864L310.972 335.5L310.2 336.136ZM284.025 301.666C283.475 301.613 282.986 302.016 282.933 302.565L282.066 311.523C282.013 312.073 282.415 312.562 282.965 312.615C283.515 312.668 284.004 312.266 284.057 311.716L284.827 303.753L292.79 304.524C293.34 304.577 293.829 304.174 293.882 303.625C293.935 303.075 293.532 302.586 292.983 302.533L284.025 301.666ZM373.321 407.338L374.082 406.689L355.385 384.796L354.625 385.445L353.864 386.095L372.561 407.988L373.321 407.338ZM354.625 385.445L355.385 384.796L346.038 373.851L345.278 374.5L344.517 375.149L353.864 386.095L354.625 385.445ZM310.972 335.5L311.744 334.864L284.7 302.026L283.928 302.662L283.156 303.297L310.2 336.136L310.972 335.5Z" fill="black" fill-opacity="0.8"/>
<path d="M263.383 349.364V361H261.628V349.364H263.383ZM272.111 352.42C272.05 351.883 271.8 351.466 271.361 351.17C270.921 350.871 270.368 350.722 269.702 350.722C269.224 350.722 268.811 350.797 268.463 350.949C268.114 351.097 267.844 351.301 267.65 351.562C267.461 351.82 267.366 352.114 267.366 352.443C267.366 352.72 267.431 352.958 267.56 353.159C267.692 353.36 267.864 353.528 268.077 353.665C268.293 353.797 268.524 353.909 268.77 354C269.016 354.087 269.253 354.159 269.48 354.216L270.616 354.511C270.988 354.602 271.368 354.725 271.758 354.881C272.149 355.036 272.51 355.241 272.844 355.494C273.177 355.748 273.446 356.062 273.65 356.438C273.859 356.812 273.963 357.261 273.963 357.784C273.963 358.443 273.793 359.028 273.452 359.54C273.114 360.051 272.624 360.455 271.98 360.75C271.34 361.045 270.565 361.193 269.656 361.193C268.785 361.193 268.031 361.055 267.395 360.778C266.758 360.502 266.26 360.11 265.9 359.602C265.541 359.091 265.342 358.485 265.304 357.784H267.065C267.099 358.205 267.236 358.555 267.474 358.835C267.717 359.112 268.025 359.318 268.4 359.455C268.779 359.587 269.194 359.653 269.645 359.653C270.141 359.653 270.582 359.576 270.969 359.42C271.359 359.261 271.666 359.042 271.889 358.761C272.113 358.477 272.224 358.146 272.224 357.767C272.224 357.422 272.126 357.14 271.929 356.92C271.736 356.701 271.472 356.519 271.139 356.375C270.81 356.231 270.436 356.104 270.02 355.994L268.645 355.619C267.713 355.366 266.974 354.992 266.429 354.5C265.887 354.008 265.616 353.356 265.616 352.545C265.616 351.875 265.798 351.29 266.162 350.79C266.525 350.29 267.018 349.902 267.639 349.625C268.26 349.345 268.961 349.205 269.741 349.205C270.529 349.205 271.224 349.343 271.827 349.619C272.433 349.896 272.91 350.277 273.258 350.761C273.607 351.242 273.789 351.795 273.804 352.42H272.111ZM281.982 361V362.443H274.59V361H281.982ZM283.068 361V349.364H290.284V350.875H284.824V354.42H289.767V355.926H284.824V361H283.068ZM292.267 361V349.364H296.415C297.317 349.364 298.065 349.519 298.659 349.83C299.258 350.14 299.705 350.57 300 351.119C300.296 351.665 300.443 352.295 300.443 353.011C300.443 353.723 300.294 354.35 299.995 354.892C299.699 355.43 299.252 355.848 298.654 356.148C298.059 356.447 297.311 356.597 296.409 356.597H293.267V355.085H296.25C296.818 355.085 297.281 355.004 297.637 354.841C297.997 354.678 298.26 354.441 298.426 354.131C298.593 353.82 298.676 353.447 298.676 353.011C298.676 352.572 298.591 352.191 298.421 351.869C298.254 351.547 297.991 351.301 297.631 351.131C297.275 350.956 296.807 350.869 296.228 350.869H294.023V361H292.267ZM298.012 355.75L300.887 361H298.887L296.068 355.75H298.012ZM304.16 349.364V361H302.404V349.364H304.16ZM306.54 361V349.364H313.836V350.875H308.296V354.42H313.455V355.926H308.296V359.489H313.904V361H306.54ZM325.397 349.364V361H323.783L317.869 352.466H317.761V361H316.005V349.364H317.63L323.55 357.909H323.658V349.364H325.397ZM331.549 361H327.782V349.364H331.668C332.809 349.364 333.788 349.597 334.606 350.062C335.424 350.525 336.051 351.189 336.487 352.057C336.926 352.92 337.146 353.956 337.146 355.165C337.146 356.377 336.924 357.419 336.481 358.29C336.042 359.161 335.405 359.831 334.572 360.301C333.739 360.767 332.731 361 331.549 361ZM329.538 359.466H331.453C332.339 359.466 333.076 359.299 333.663 358.966C334.25 358.629 334.689 358.142 334.981 357.506C335.273 356.866 335.418 356.085 335.418 355.165C335.418 354.252 335.273 353.477 334.981 352.841C334.693 352.205 334.263 351.722 333.691 351.392C333.119 351.062 332.409 350.898 331.561 350.898H329.538V359.466ZM345.5 352.42C345.439 351.883 345.189 351.466 344.75 351.17C344.31 350.871 343.757 350.722 343.09 350.722C342.613 350.722 342.2 350.797 341.852 350.949C341.503 351.097 341.233 351.301 341.039 351.562C340.85 351.82 340.755 352.114 340.755 352.443C340.755 352.72 340.82 352.958 340.948 353.159C341.081 353.36 341.253 353.528 341.465 353.665C341.681 353.797 341.912 353.909 342.159 354C342.405 354.087 342.642 354.159 342.869 354.216L344.005 354.511C344.376 354.602 344.757 354.725 345.147 354.881C345.537 355.036 345.899 355.241 346.233 355.494C346.566 355.748 346.835 356.062 347.039 356.438C347.248 356.812 347.352 357.261 347.352 357.784C347.352 358.443 347.181 359.028 346.84 359.54C346.503 360.051 346.013 360.455 345.369 360.75C344.729 361.045 343.954 361.193 343.045 361.193C342.174 361.193 341.42 361.055 340.784 360.778C340.147 360.502 339.649 360.11 339.289 359.602C338.929 359.091 338.731 358.485 338.693 357.784H340.454C340.488 358.205 340.625 358.555 340.863 358.835C341.106 359.112 341.414 359.318 341.789 359.455C342.168 359.587 342.583 359.653 343.034 359.653C343.53 359.653 343.971 359.576 344.358 359.42C344.748 359.261 345.054 359.042 345.278 358.761C345.501 358.477 345.613 358.146 345.613 357.767C345.613 357.422 345.515 357.14 345.318 356.92C345.125 356.701 344.861 356.519 344.528 356.375C344.198 356.231 343.825 356.104 343.409 355.994L342.034 355.619C341.102 355.366 340.363 354.992 339.818 354.5C339.276 354.008 339.005 353.356 339.005 352.545C339.005 351.875 339.187 351.29 339.551 350.79C339.914 350.29 340.407 349.902 341.028 349.625C341.649 349.345 342.35 349.205 343.13 349.205C343.918 349.205 344.613 349.343 345.215 349.619C345.822 349.896 346.299 350.277 346.647 350.761C346.996 351.242 347.178 351.795 347.193 352.42H345.5ZM355.37 361V362.443H347.978V361H355.37ZM358.736 361L355.508 349.364H357.355L359.622 358.375H359.73L362.088 349.364H363.917L366.275 358.381H366.383L368.645 349.364H370.497L367.264 361H365.497L363.048 352.284H362.957L360.508 361H358.736ZM373.678 349.364V361H371.922V349.364H373.678ZM375.484 350.875V349.364H384.49V350.875H380.859V361H379.109V350.875H375.484ZM386.304 361V349.364H388.06V354.42H393.861V349.364H395.622V361H393.861V355.926H388.06V361H386.304Z" fill="black" fill-opacity="0.8"/>
</svg>
