<svg width="587" height="128" viewBox="0 0 587 128" fill="none" xmlns="http://www.w3.org/2000/svg">
<path d="M0 64C0 28.6538 28.6538 0 64 0C99.3462 0 128 28.6538 128 64C128 99.3462 99.3462 128 64 128C28.6538 128 0 99.3462 0 64Z" fill="#FFDF81"/>
<path d="M51.467 69.14C51.1077 69.14 50.7694 69.098 50.452 69.014C50.1394 68.93 49.9317 68.867 49.829 68.825L49.92 67.586C50.0647 67.6373 50.2304 67.7027 50.417 67.782C50.6084 67.8567 50.844 67.894 51.124 67.894C51.5814 67.894 51.894 67.768 52.062 67.516C52.2347 67.264 52.321 66.8393 52.321 66.242V58.878H53.616V66.613C53.616 67.1497 53.5554 67.607 53.434 67.985C53.3127 68.363 53.0957 68.65 52.783 68.846C52.475 69.042 52.0364 69.14 51.467 69.14ZM58.6585 69.14C57.9911 69.14 57.4078 68.9977 56.9085 68.713C56.4138 68.4237 56.0288 68.0013 55.7535 67.446C55.4781 66.8907 55.3405 66.2117 55.3405 65.409C55.3405 64.653 55.4688 63.9903 55.7255 63.421C55.9821 62.8517 56.3578 62.4107 56.8525 62.098C57.3471 61.7807 57.9515 61.622 58.6655 61.622C59.3328 61.622 59.9115 61.769 60.4015 62.063C60.8915 62.3523 61.2718 62.7793 61.5425 63.344C61.8178 63.9087 61.9555 64.597 61.9555 65.409C61.9555 66.1463 61.8295 66.795 61.5775 67.355C61.3255 67.915 60.9545 68.3537 60.4645 68.671C59.9791 68.9837 59.3771 69.14 58.6585 69.14ZM58.6655 68.118C59.0948 68.118 59.4588 68.0083 59.7575 67.789C60.0561 67.5697 60.2825 67.2547 60.4365 66.844C60.5951 66.4333 60.6745 65.9457 60.6745 65.381C60.6745 64.863 60.6045 64.3987 60.4645 63.988C60.3291 63.5727 60.1145 63.2437 59.8205 63.001C59.5265 62.7583 59.1415 62.637 58.6655 62.637C58.2268 62.637 57.8558 62.7467 57.5525 62.966C57.2491 63.1807 57.0181 63.4933 56.8595 63.904C56.7055 64.3147 56.6285 64.807 56.6285 65.381C56.6285 65.8897 56.6961 66.3517 56.8315 66.767C56.9715 67.1823 57.1908 67.5113 57.4895 67.754C57.7928 67.9967 58.1848 68.118 58.6655 68.118ZM63.6765 69V58.598H64.9365V62.826C65.0578 62.6253 65.2211 62.4387 65.4265 62.266C65.6318 62.0887 65.8815 61.9463 66.1755 61.839C66.4695 61.727 66.8101 61.671 67.1975 61.671C67.6688 61.671 68.0958 61.7597 68.4785 61.937C68.8611 62.1097 69.1645 62.357 69.3885 62.679C69.6125 63.001 69.7245 63.3837 69.7245 63.827V69H68.4295V64.086C68.4295 63.652 68.2801 63.3183 67.9815 63.085C67.6875 62.847 67.3025 62.728 66.8265 62.728C66.5045 62.728 66.2011 62.7817 65.9165 62.889C65.6318 62.9917 65.4008 63.1503 65.2235 63.365C65.0508 63.575 64.9645 63.8433 64.9645 64.17V69H63.6765ZM71.7429 69V61.762H72.9959V62.812C73.1125 62.6113 73.2735 62.4223 73.4789 62.245C73.6889 62.0677 73.9409 61.9253 74.2349 61.818C74.5335 61.7107 74.8765 61.657 75.2639 61.657C75.7212 61.657 76.1412 61.748 76.5239 61.93C76.9112 62.112 77.2192 62.3967 77.4479 62.784C77.6812 63.1667 77.7979 63.6613 77.7979 64.268V69H76.5029V64.394C76.5029 63.8293 76.3535 63.4117 76.0549 63.141C75.7609 62.8657 75.3782 62.728 74.9069 62.728C74.5802 62.728 74.2745 62.7817 73.9899 62.889C73.7052 62.9917 73.4742 63.1503 73.2969 63.365C73.1195 63.575 73.0309 63.841 73.0309 64.163V69H71.7429Z" fill="black"/>
<path d="M459 64C459 28.6538 487.654 0 523 0C558.346 0 587 28.6538 587 64C587 99.3462 558.346 128 523 128C487.654 128 459 99.3462 459 64Z" fill="#FFDF81"/>
<path d="M511.574 69V58.878C511.607 58.878 511.705 58.8803 511.868 58.885C512.036 58.885 512.239 58.885 512.477 58.885C512.715 58.8803 512.963 58.8803 513.219 58.885C513.476 58.885 513.712 58.8873 513.926 58.892C515.168 58.9107 516.173 59.1137 516.943 59.501C517.718 59.8837 518.285 60.4413 518.644 61.174C519.008 61.9067 519.19 62.8073 519.19 63.876C519.19 64.996 518.994 65.9363 518.602 66.697C518.215 67.4577 517.622 68.0317 516.824 68.419C516.031 68.8063 515.021 69 513.793 69H511.574ZM512.904 67.887H513.793C514.629 67.887 515.347 67.7587 515.949 67.502C516.551 67.2407 517.013 66.8183 517.335 66.235C517.662 65.6517 517.825 64.8723 517.825 63.897C517.825 62.9217 517.667 62.1493 517.349 61.58C517.037 61.0107 516.584 60.6047 515.991 60.362C515.399 60.1147 514.685 59.991 513.849 59.991H512.904V67.887ZM523.045 69.14C522.574 69.14 522.159 69.0583 521.799 68.895C521.445 68.727 521.165 68.4867 520.959 68.174C520.759 67.8613 520.658 67.4833 520.658 67.04C520.658 66.2373 520.938 65.64 521.498 65.248C522.058 64.856 522.957 64.646 524.193 64.618L525.481 64.583V64.016C525.481 63.5727 525.348 63.2227 525.082 62.966C524.816 62.7047 524.406 62.574 523.85 62.574C523.435 62.5787 523.069 62.6767 522.751 62.868C522.434 63.0593 522.231 63.372 522.142 63.806H521.001C521.029 63.3347 521.16 62.938 521.393 62.616C521.631 62.2893 521.965 62.042 522.394 61.874C522.824 61.706 523.33 61.622 523.913 61.622C524.543 61.622 525.066 61.7107 525.481 61.888C525.901 62.0653 526.214 62.3267 526.419 62.672C526.629 63.0173 526.734 63.442 526.734 63.946V69H525.628L525.53 67.642C525.255 68.2067 524.9 68.5987 524.466 68.818C524.037 69.0327 523.563 69.14 523.045 69.14ZM523.43 68.209C523.678 68.209 523.92 68.1647 524.158 68.076C524.401 67.9873 524.62 67.8683 524.816 67.719C525.017 67.565 525.178 67.3947 525.299 67.208C525.421 67.0167 525.481 66.8207 525.481 66.62V65.381L524.41 65.402C523.855 65.4113 523.393 65.4673 523.024 65.57C522.656 65.6727 522.378 65.8337 522.191 66.053C522.005 66.2723 521.911 66.5593 521.911 66.914C521.911 67.32 522.054 67.6373 522.338 67.866C522.623 68.0947 522.987 68.209 523.43 68.209ZM528.754 69V61.762H530.007V62.812C530.123 62.6113 530.284 62.4223 530.49 62.245C530.7 62.0677 530.952 61.9253 531.246 61.818C531.544 61.7107 531.887 61.657 532.275 61.657C532.732 61.657 533.152 61.748 533.535 61.93C533.922 62.112 534.23 62.3967 534.459 62.784C534.692 63.1667 534.809 63.6613 534.809 64.268V69H533.514V64.394C533.514 63.8293 533.364 63.4117 533.066 63.141C532.772 62.8657 532.389 62.728 531.918 62.728C531.591 62.728 531.285 62.7817 531.001 62.889C530.716 62.9917 530.485 63.1503 530.308 63.365C530.13 63.575 530.042 63.841 530.042 64.163V69H528.754Z" fill="black"/>
<path d="M306 64C306 28.6538 334.654 0 370 0C405.346 0 434 28.6538 434 64C434 99.3462 405.346 128 370 128C334.654 128 306 99.3462 306 64Z" fill="#FFDF81"/>
<path d="M358.491 69.14C357.996 69.14 357.527 69.0817 357.084 68.965C356.64 68.8437 356.237 68.664 355.873 68.426C355.513 68.188 355.215 67.894 354.977 67.544C354.743 67.1893 354.596 66.7787 354.536 66.312H355.894C355.978 66.6947 356.143 67.0167 356.391 67.278C356.643 67.5393 356.953 67.7353 357.322 67.866C357.695 67.9967 358.103 68.062 358.547 68.062C358.976 68.062 359.37 67.9943 359.73 67.859C360.094 67.7237 360.385 67.5277 360.605 67.271C360.824 67.0097 360.934 66.697 360.934 66.333C360.934 65.9317 360.803 65.6097 360.542 65.367C360.28 65.1197 359.877 64.9213 359.331 64.772L357.245 64.233C356.773 64.1163 356.356 63.953 355.992 63.743C355.632 63.5283 355.35 63.2483 355.145 62.903C354.939 62.553 354.837 62.119 354.837 61.601C354.837 61.027 354.995 60.5277 355.313 60.103C355.63 59.6737 356.059 59.3423 356.601 59.109C357.147 58.871 357.763 58.752 358.449 58.752C359.242 58.752 359.909 58.8897 360.451 59.165C360.997 59.4403 361.41 59.802 361.69 60.25C361.97 60.698 362.11 61.1763 362.11 61.685H360.78C360.738 61.223 360.602 60.859 360.374 60.593C360.145 60.3223 359.86 60.1287 359.52 60.012C359.179 59.8907 358.808 59.83 358.407 59.83C357.683 59.83 357.135 59.9957 356.762 60.327C356.393 60.6537 356.209 61.0433 356.209 61.496C356.209 61.9113 356.342 62.238 356.608 62.476C356.874 62.714 357.266 62.8983 357.784 63.029L359.814 63.554C360.416 63.694 360.894 63.897 361.249 64.163C361.608 64.429 361.865 64.7393 362.019 65.094C362.177 65.444 362.257 65.8243 362.257 66.235C362.257 66.795 362.1 67.2943 361.788 67.733C361.475 68.1717 361.036 68.517 360.472 68.769C359.912 69.0163 359.251 69.14 358.491 69.14ZM366.149 69.14C365.678 69.14 365.262 69.0583 364.903 68.895C364.548 68.727 364.268 68.4867 364.063 68.174C363.862 67.8613 363.762 67.4833 363.762 67.04C363.762 66.2373 364.042 65.64 364.602 65.248C365.162 64.856 366.06 64.646 367.297 64.618L368.585 64.583V64.016C368.585 63.5727 368.452 63.2227 368.186 62.966C367.92 62.7047 367.509 62.574 366.954 62.574C366.539 62.5787 366.172 62.6767 365.855 62.868C365.538 63.0593 365.335 63.372 365.246 63.806H364.105C364.133 63.3347 364.264 62.938 364.497 62.616C364.735 62.2893 365.069 62.042 365.498 61.874C365.927 61.706 366.434 61.622 367.017 61.622C367.647 61.622 368.17 61.7107 368.585 61.888C369.005 62.0653 369.318 62.3267 369.523 62.672C369.733 63.0173 369.838 63.442 369.838 63.946V69H368.732L368.634 67.642C368.359 68.2067 368.004 68.5987 367.57 68.818C367.141 69.0327 366.667 69.14 366.149 69.14ZM366.534 68.209C366.781 68.209 367.024 68.1647 367.262 68.076C367.505 67.9873 367.724 67.8683 367.92 67.719C368.121 67.565 368.282 67.3947 368.403 67.208C368.524 67.0167 368.585 66.8207 368.585 66.62V65.381L367.514 65.402C366.959 65.4113 366.497 65.4673 366.128 65.57C365.759 65.6727 365.482 65.8337 365.295 66.053C365.108 66.2723 365.015 66.5593 365.015 66.914C365.015 67.32 365.157 67.6373 365.442 67.866C365.727 68.0947 366.091 68.209 366.534 68.209ZM373.684 69.091C373.292 69.091 372.975 69.0373 372.732 68.93C372.494 68.8227 372.31 68.678 372.179 68.496C372.053 68.314 371.967 68.1063 371.92 67.873C371.878 67.635 371.857 67.39 371.857 67.138V58.598H373.131V67.012C373.131 67.376 373.201 67.649 373.341 67.831C373.486 68.013 373.686 68.1133 373.943 68.132L374.335 68.139V68.979C374.228 69.0117 374.116 69.0373 373.999 69.056C373.882 69.0793 373.777 69.091 373.684 69.091ZM377.717 69.091C377.325 69.091 377.008 69.0373 376.765 68.93C376.527 68.8227 376.343 68.678 376.212 68.496C376.086 68.314 376 68.1063 375.953 67.873C375.911 67.635 375.89 67.39 375.89 67.138V58.598H377.164V67.012C377.164 67.376 377.234 67.649 377.374 67.831C377.519 68.013 377.72 68.1133 377.976 68.132L378.368 68.139V68.979C378.261 69.0117 378.149 69.0373 378.032 69.056C377.916 69.0793 377.811 69.091 377.717 69.091ZM380.576 71.31C380.152 71.31 379.86 71.2797 379.701 71.219C379.543 71.1583 379.463 71.128 379.463 71.128V70.288L380.205 70.302C380.471 70.3113 380.693 70.2927 380.87 70.246C381.048 70.1993 381.19 70.1363 381.297 70.057C381.405 69.9777 381.486 69.889 381.542 69.791C381.603 69.693 381.652 69.5997 381.689 69.511L381.941 68.825L379.113 61.762H380.422L382.557 67.348L384.678 61.762H385.945L382.9 69.546C382.709 70.0033 382.497 70.3603 382.263 70.617C382.035 70.8737 381.778 71.0533 381.493 71.156C381.213 71.2587 380.908 71.31 380.576 71.31Z" fill="black"/>
<path d="M153 64C153 28.6538 181.654 0 217 0C252.346 0 281 28.6538 281 64C281 99.3462 252.346 128 217 128C181.654 128 153 99.3462 153 64Z" fill="#FFDF81"/>
<path d="M193.297 69.14C192.938 69.14 192.599 69.098 192.282 69.014C191.969 68.93 191.762 68.867 191.659 68.825L191.75 67.586C191.895 67.6373 192.06 67.7027 192.247 67.782C192.438 67.8567 192.674 67.894 192.954 67.894C193.411 67.894 193.724 67.768 193.892 67.516C194.065 67.264 194.151 66.8393 194.151 66.242V58.878H195.446V66.613C195.446 67.1497 195.385 67.607 195.264 67.985C195.143 68.363 194.926 68.65 194.613 68.846C194.305 69.042 193.866 69.14 193.297 69.14ZM200.65 69.14C199.978 69.14 199.385 68.993 198.872 68.699C198.358 68.405 197.957 67.9827 197.668 67.432C197.378 66.8813 197.234 66.221 197.234 65.451C197.234 64.6903 197.364 64.023 197.626 63.449C197.887 62.875 198.265 62.427 198.76 62.105C199.259 61.783 199.859 61.622 200.559 61.622C201.24 61.622 201.816 61.769 202.288 62.063C202.759 62.357 203.116 62.7723 203.359 63.309C203.606 63.841 203.73 64.4733 203.73 65.206V65.682H198.543C198.543 66.1393 198.617 66.5547 198.767 66.928C198.921 67.2967 199.152 67.5907 199.46 67.81C199.768 68.0293 200.157 68.139 200.629 68.139C201.091 68.139 201.487 68.0317 201.819 67.817C202.155 67.6023 202.369 67.292 202.463 66.886H203.681C203.597 67.376 203.401 67.789 203.093 68.125C202.789 68.461 202.423 68.7153 201.994 68.888C201.569 69.056 201.121 69.14 200.65 69.14ZM198.55 64.807H202.484C202.484 64.3917 202.414 64.0183 202.274 63.687C202.134 63.351 201.919 63.0873 201.63 62.896C201.345 62.7 200.986 62.602 200.552 62.602C200.099 62.602 199.723 62.7117 199.425 62.931C199.126 63.1457 198.904 63.4233 198.76 63.764C198.615 64.1 198.545 64.4477 198.55 64.807ZM205.52 69V61.762H206.773V62.812C206.89 62.6113 207.051 62.4223 207.256 62.245C207.466 62.0677 207.718 61.9253 208.012 61.818C208.311 61.7107 208.654 61.657 209.041 61.657C209.499 61.657 209.919 61.748 210.301 61.93C210.689 62.112 210.997 62.3967 211.225 62.784C211.459 63.1667 211.575 63.6613 211.575 64.268V69H210.28V64.394C210.28 63.8293 210.131 63.4117 209.832 63.141C209.538 62.8657 209.156 62.728 208.684 62.728C208.358 62.728 208.052 62.7817 207.767 62.889C207.483 62.9917 207.252 63.1503 207.074 63.365C206.897 63.575 206.808 63.841 206.808 64.163V69H205.52ZM213.6 69V61.762H214.853V62.812C214.97 62.6113 215.131 62.4223 215.336 62.245C215.546 62.0677 215.798 61.9253 216.092 61.818C216.391 61.7107 216.734 61.657 217.121 61.657C217.579 61.657 217.999 61.748 218.381 61.93C218.769 62.112 219.077 62.3967 219.305 62.784C219.539 63.1667 219.655 63.6613 219.655 64.268V69H218.36V64.394C218.36 63.8293 218.211 63.4117 217.912 63.141C217.618 62.8657 217.236 62.728 216.764 62.728C216.438 62.728 216.132 62.7817 215.847 62.889C215.563 62.9917 215.332 63.1503 215.154 63.365C214.977 63.575 214.888 63.841 214.888 64.163V69H213.6ZM221.715 69V61.762H222.968V69H221.715ZM221.68 60.229V58.885H223.003V60.229H221.68ZM226.105 69V62.707H224.572V61.762H226.105V60.642C226.105 60.068 226.25 59.6317 226.539 59.333C226.833 59.0297 227.272 58.878 227.855 58.878H229.22L229.227 59.795H228.149C227.851 59.795 227.648 59.8743 227.54 60.033C227.433 60.1917 227.379 60.432 227.379 60.754V61.762H229.157V62.707H227.4V69H226.105ZM233.653 69.14C232.981 69.14 232.389 68.993 231.875 68.699C231.362 68.405 230.961 67.9827 230.671 67.432C230.382 66.8813 230.237 66.221 230.237 65.451C230.237 64.6903 230.368 64.023 230.629 63.449C230.891 62.875 231.269 62.427 231.763 62.105C232.263 61.783 232.862 61.622 233.562 61.622C234.244 61.622 234.82 61.769 235.291 62.063C235.763 62.357 236.12 62.7723 236.362 63.309C236.61 63.841 236.733 64.4733 236.733 65.206V65.682H231.546C231.546 66.1393 231.621 66.5547 231.77 66.928C231.924 67.2967 232.155 67.5907 232.463 67.81C232.771 68.0293 233.161 68.139 233.632 68.139C234.094 68.139 234.491 68.0317 234.822 67.817C235.158 67.6023 235.373 67.292 235.466 66.886H236.684C236.6 67.376 236.404 67.789 236.096 68.125C235.793 68.461 235.427 68.7153 234.997 68.888C234.573 69.056 234.125 69.14 233.653 69.14ZM231.553 64.807H235.487C235.487 64.3917 235.417 64.0183 235.277 63.687C235.137 63.351 234.923 63.0873 234.633 62.896C234.349 62.7 233.989 62.602 233.555 62.602C233.103 62.602 232.727 62.7117 232.428 62.931C232.13 63.1457 231.908 63.4233 231.763 63.764C231.619 64.1 231.549 64.4477 231.553 64.807ZM238.524 69V61.762H239.756V63.155C239.877 62.8097 240.048 62.525 240.267 62.301C240.486 62.0723 240.736 61.902 241.016 61.79C241.301 61.678 241.595 61.622 241.898 61.622C242.005 61.622 242.11 61.629 242.213 61.643C242.316 61.657 242.395 61.6803 242.451 61.713V62.966C242.381 62.9333 242.29 62.9123 242.178 62.903C242.071 62.889 241.98 62.882 241.905 62.882C241.616 62.8633 241.345 62.882 241.093 62.938C240.841 62.9893 240.619 63.0803 240.428 63.211C240.237 63.3417 240.085 63.5143 239.973 63.729C239.866 63.939 239.812 64.1957 239.812 64.499V69H238.524Z" fill="black"/>
</svg>
