<svg width="776" height="157" viewBox="0 0 776 157" fill="none" xmlns="http://www.w3.org/2000/svg">
<path d="M606.947 156.095C648.369 156.095 681.947 122.516 681.947 81.0947C681.947 39.6734 648.369 6.09473 606.947 6.09473C565.526 6.09473 531.947 39.6734 531.947 81.0947C531.947 122.516 565.526 156.095 606.947 156.095Z" fill="#7AD1FF"/>
<path d="M568.896 87.6467V69.3167H576.15C578.126 69.3167 579.634 69.7934 580.674 70.7467C581.732 71.7001 582.26 73.0607 582.26 74.8287C582.26 76.5794 581.732 77.9401 580.674 78.9107C579.634 79.8641 578.126 80.3407 576.15 80.3407H571.028V87.6467H568.896ZM571.028 78.5467H575.89C578.733 78.5467 580.154 77.3074 580.154 74.8287C580.154 72.3327 578.733 71.0847 575.89 71.0847H571.028V78.5467ZM590.173 87.8807C588.18 87.8807 586.603 87.3001 585.441 86.1387C584.28 84.9601 583.699 83.3654 583.699 81.3547C583.699 80.0547 583.959 78.9107 584.479 77.9227C584.999 76.9174 585.71 76.1461 586.611 75.6087C587.53 75.0541 588.587 74.7767 589.783 74.7767C591.499 74.7767 592.843 75.3314 593.813 76.4407C594.784 77.5327 595.269 79.0407 595.269 80.9647V81.7707H585.753C585.823 83.2094 586.239 84.3101 587.001 85.0727C587.764 85.8181 588.821 86.1907 590.173 86.1907C590.936 86.1907 591.664 86.0781 592.357 85.8527C593.051 85.6101 593.709 85.2201 594.333 84.6827L595.061 86.1647C594.489 86.7021 593.761 87.1267 592.877 87.4387C591.993 87.7334 591.092 87.8807 590.173 87.8807ZM589.835 76.3367C588.639 76.3367 587.695 76.7094 587.001 77.4547C586.308 78.2001 585.901 79.1794 585.779 80.3927H593.449C593.397 79.1101 593.059 78.1134 592.435 77.4027C591.829 76.6921 590.962 76.3367 589.835 76.3367ZM598.317 87.6467V75.0107H600.371V77.2727C601.047 75.7474 602.434 74.9067 604.531 74.7507L605.285 74.6727L605.441 76.4927L604.115 76.6487C602.919 76.7527 602.009 77.1341 601.385 77.7927C600.761 78.4341 600.449 79.3181 600.449 80.4447V87.6467H598.317ZM611.773 87.8807C610.785 87.8807 609.849 87.7421 608.965 87.4647C608.081 87.1874 607.353 86.7974 606.781 86.2947L607.457 84.8127C608.081 85.3154 608.765 85.6881 609.511 85.9307C610.273 86.1561 611.045 86.2687 611.825 86.2687C612.813 86.2687 613.558 86.0867 614.061 85.7227C614.563 85.3587 614.815 84.8647 614.815 84.2407C614.815 83.7554 614.65 83.3741 614.321 83.0967C613.991 82.8021 613.471 82.5767 612.761 82.4207L610.395 81.9007C608.245 81.4327 607.171 80.3234 607.171 78.5727C607.171 77.4287 607.621 76.5101 608.523 75.8167C609.441 75.1234 610.637 74.7767 612.111 74.7767C612.977 74.7767 613.801 74.9154 614.581 75.1927C615.378 75.4527 616.037 75.8427 616.557 76.3627L615.855 77.8447C615.352 77.3767 614.763 77.0214 614.087 76.7787C613.428 76.5187 612.769 76.3887 612.111 76.3887C611.14 76.3887 610.403 76.5794 609.901 76.9607C609.398 77.3421 609.147 77.8447 609.147 78.4687C609.147 79.4394 609.788 80.0634 611.071 80.3407L613.437 80.8347C614.546 81.0774 615.387 81.4674 615.959 82.0047C616.531 82.5247 616.817 83.2354 616.817 84.1367C616.817 85.2981 616.357 86.2167 615.439 86.8927C614.52 87.5514 613.298 87.8807 611.773 87.8807ZM625.278 87.8807C624.048 87.8807 622.982 87.6121 622.08 87.0747C621.179 86.5374 620.477 85.7834 619.974 84.8127C619.489 83.8247 619.246 82.6634 619.246 81.3287C619.246 79.9941 619.489 78.8414 619.974 77.8707C620.477 76.8827 621.179 76.1201 622.08 75.5827C622.982 75.0454 624.048 74.7767 625.278 74.7767C626.492 74.7767 627.549 75.0454 628.45 75.5827C629.369 76.1201 630.071 76.8827 630.556 77.8707C631.059 78.8414 631.31 79.9941 631.31 81.3287C631.31 82.6634 631.059 83.8247 630.556 84.8127C630.071 85.7834 629.369 86.5374 628.45 87.0747C627.549 87.6121 626.492 87.8807 625.278 87.8807ZM625.278 86.1907C626.457 86.1907 627.402 85.7747 628.112 84.9427C628.823 84.0934 629.178 82.8887 629.178 81.3287C629.178 79.7514 628.823 78.5467 628.112 77.7147C627.402 76.8827 626.457 76.4667 625.278 76.4667C624.082 76.4667 623.129 76.8827 622.418 77.7147C621.725 78.5467 621.378 79.7514 621.378 81.3287C621.378 82.8887 621.725 84.0934 622.418 84.9427C623.129 85.7747 624.082 86.1907 625.278 86.1907ZM634.474 87.6467V75.0107H636.528V77.1687C636.944 76.3714 637.533 75.7734 638.296 75.3747C639.058 74.9761 639.916 74.7767 640.87 74.7767C643.868 74.7767 645.368 76.4407 645.368 79.7687V87.6467H643.262V79.8987C643.262 78.7201 643.028 77.8621 642.56 77.3247C642.109 76.7701 641.381 76.4927 640.376 76.4927C639.214 76.4927 638.287 76.8567 637.594 77.5847C636.918 78.2954 636.58 79.2487 636.58 80.4447V87.6467H634.474Z" fill="black"/>
<path d="M775.5 2.64746H661V26.6475H775.5V2.64746Z" fill="white"/>
<path d="M665.743 20V10.22H668.183V11.74C668.517 11.18 668.963 10.7533 669.523 10.46C670.097 10.1667 670.737 10.02 671.443 10.02C673.75 10.02 674.903 11.36 674.903 14.04V20H672.403V14.16C672.403 13.4 672.257 12.8467 671.963 12.5C671.683 12.1533 671.243 11.98 670.643 11.98C669.91 11.98 669.323 12.2133 668.883 12.68C668.457 13.1333 668.243 13.74 668.243 14.5V20H665.743ZM680.663 20.2C679.956 20.2 679.323 20.0667 678.763 19.8C678.216 19.52 677.783 19.1467 677.463 18.68C677.156 18.2133 677.003 17.6867 677.003 17.1C677.003 16.38 677.189 15.8133 677.563 15.4C677.936 14.9733 678.543 14.6667 679.383 14.48C680.223 14.2933 681.349 14.2 682.763 14.2H683.463V13.78C683.463 13.1133 683.316 12.6333 683.023 12.34C682.729 12.0467 682.236 11.9 681.543 11.9C680.996 11.9 680.436 11.9867 679.863 12.16C679.289 12.32 678.709 12.5733 678.123 12.92L677.403 11.22C677.749 10.98 678.156 10.7733 678.623 10.6C679.103 10.4133 679.603 10.2733 680.123 10.18C680.656 10.0733 681.156 10.02 681.623 10.02C683.049 10.02 684.109 10.3533 684.803 11.02C685.496 11.6733 685.843 12.6933 685.843 14.08V20H683.503V18.44C683.276 18.9867 682.916 19.42 682.423 19.74C681.929 20.0467 681.343 20.2 680.663 20.2ZM681.183 18.48C681.836 18.48 682.376 18.2533 682.803 17.8C683.243 17.3467 683.463 16.7733 683.463 16.08V15.64H682.783C681.529 15.64 680.656 15.74 680.163 15.94C679.683 16.1267 679.443 16.4733 679.443 16.98C679.443 17.42 679.596 17.78 679.903 18.06C680.209 18.34 680.636 18.48 681.183 18.48ZM688.42 20V10.22H690.86V11.72C691.153 11.1867 691.56 10.7733 692.08 10.48C692.6 10.1733 693.2 10.02 693.88 10.02C695.347 10.02 696.307 10.66 696.76 11.94C697.067 11.34 697.507 10.8733 698.08 10.54C698.653 10.1933 699.307 10.02 700.04 10.02C702.24 10.02 703.34 11.36 703.34 14.04V20H700.84V14.14C700.84 13.3933 700.713 12.8467 700.46 12.5C700.22 12.1533 699.807 11.98 699.22 11.98C698.567 11.98 698.053 12.2133 697.68 12.68C697.307 13.1333 697.12 13.7667 697.12 14.58V20H694.62V14.14C694.62 13.3933 694.493 12.8467 694.24 12.5C694 12.1533 693.593 11.98 693.02 11.98C692.367 11.98 691.853 12.2133 691.48 12.68C691.107 13.1333 690.92 13.7667 690.92 14.58V20H688.42ZM710.739 20.2C709.632 20.2 708.679 19.9933 707.879 19.58C707.079 19.1667 706.459 18.58 706.019 17.82C705.592 17.06 705.379 16.16 705.379 15.12C705.379 14.1067 705.586 13.22 705.999 12.46C706.426 11.7 707.006 11.1067 707.739 10.68C708.486 10.24 709.332 10.02 710.279 10.02C711.666 10.02 712.759 10.46 713.559 11.34C714.372 12.22 714.779 13.42 714.779 14.94V15.68H707.779C707.966 17.4267 708.966 18.3 710.779 18.3C711.326 18.3 711.872 18.22 712.419 18.06C712.966 17.8867 713.466 17.62 713.919 17.26L714.619 18.94C714.152 19.3267 713.566 19.6333 712.859 19.86C712.152 20.0867 711.446 20.2 710.739 20.2ZM710.379 11.72C709.646 11.72 709.052 11.9467 708.599 12.4C708.146 12.8533 707.872 13.4667 707.779 14.24H712.699C712.646 13.4267 712.419 12.8067 712.019 12.38C711.632 11.94 711.086 11.72 710.379 11.72ZM716.539 12.98V10.22H719.339V12.98H716.539ZM716.539 20V17.22H719.339V20H716.539Z" fill="black"/>
<path d="M725.54 20.18L725.36 18.08L726.78 18C727.967 17.92 728.56 17.2667 728.56 16.04V5.9H731.12V16.02C731.12 18.5533 729.807 19.9133 727.18 20.1L725.54 20.18ZM738.429 20.2C737.416 20.2 736.536 19.9933 735.789 19.58C735.043 19.1667 734.463 18.58 734.049 17.82C733.636 17.0467 733.429 16.14 733.429 15.1C733.429 14.06 733.636 13.16 734.049 12.4C734.463 11.64 735.043 11.0533 735.789 10.64C736.536 10.2267 737.416 10.02 738.429 10.02C739.443 10.02 740.323 10.2267 741.069 10.64C741.816 11.0533 742.396 11.64 742.809 12.4C743.223 13.16 743.429 14.06 743.429 15.1C743.429 16.14 743.223 17.0467 742.809 17.82C742.396 18.58 741.816 19.1667 741.069 19.58C740.323 19.9933 739.443 20.2 738.429 20.2ZM738.429 18.3C739.176 18.3 739.776 18.0333 740.229 17.5C740.683 16.9533 740.909 16.1533 740.909 15.1C740.909 14.0333 740.683 13.24 740.229 12.72C739.776 12.1867 739.176 11.92 738.429 11.92C737.683 11.92 737.083 12.1867 736.629 12.72C736.176 13.24 735.949 14.0333 735.949 15.1C735.949 16.1533 736.176 16.9533 736.629 17.5C737.083 18.0333 737.683 18.3 738.429 18.3ZM745.493 20V5.9H747.993V11.64C748.326 11.1067 748.773 10.7067 749.333 10.44C749.893 10.16 750.513 10.02 751.193 10.02C753.5 10.02 754.653 11.36 754.653 14.04V20H752.153V14.16C752.153 13.4 752.006 12.8467 751.713 12.5C751.433 12.1533 750.993 11.98 750.393 11.98C749.66 11.98 749.073 12.2133 748.633 12.68C748.206 13.1333 747.993 13.74 747.993 14.5V20H745.493ZM757.192 20V10.22H759.632V11.74C759.965 11.18 760.412 10.7533 760.972 10.46C761.545 10.1667 762.185 10.02 762.892 10.02C765.199 10.02 766.352 11.36 766.352 14.04V20H763.852V14.16C763.852 13.4 763.705 12.8467 763.412 12.5C763.132 12.1533 762.692 11.98 762.092 11.98C761.359 11.98 760.772 12.2133 760.332 12.68C759.905 13.1333 759.692 13.74 759.692 14.5V20H757.192Z" fill="black"/>
<path d="M168.947 156.095C210.369 156.095 243.947 122.516 243.947 81.0947C243.947 39.6734 210.369 6.09473 168.947 6.09473C127.526 6.09473 93.9473 39.6734 93.9473 81.0947C93.9473 122.516 127.526 156.095 168.947 156.095Z" fill="#7AD1FF"/>
<path d="M130.896 87.6467V69.3167H138.15C140.126 69.3167 141.634 69.7934 142.674 70.7467C143.732 71.7001 144.26 73.0607 144.26 74.8287C144.26 76.5794 143.732 77.9401 142.674 78.9107C141.634 79.8641 140.126 80.3407 138.15 80.3407H133.028V87.6467H130.896ZM133.028 78.5467H137.89C140.733 78.5467 142.154 77.3074 142.154 74.8287C142.154 72.3327 140.733 71.0847 137.89 71.0847H133.028V78.5467ZM152.173 87.8807C150.18 87.8807 148.603 87.3001 147.441 86.1387C146.28 84.9601 145.699 83.3654 145.699 81.3547C145.699 80.0547 145.959 78.9107 146.479 77.9227C146.999 76.9174 147.71 76.1461 148.611 75.6087C149.53 75.0541 150.587 74.7767 151.783 74.7767C153.499 74.7767 154.843 75.3314 155.813 76.4407C156.784 77.5327 157.269 79.0407 157.269 80.9647V81.7707H147.753C147.823 83.2094 148.239 84.3101 149.001 85.0727C149.764 85.8181 150.821 86.1907 152.173 86.1907C152.936 86.1907 153.664 86.0781 154.357 85.8527C155.051 85.6101 155.709 85.2201 156.333 84.6827L157.061 86.1647C156.489 86.7021 155.761 87.1267 154.877 87.4387C153.993 87.7334 153.092 87.8807 152.173 87.8807ZM151.835 76.3367C150.639 76.3367 149.695 76.7094 149.001 77.4547C148.308 78.2001 147.901 79.1794 147.779 80.3927H155.449C155.397 79.1101 155.059 78.1134 154.435 77.4027C153.829 76.6921 152.962 76.3367 151.835 76.3367ZM160.317 87.6467V75.0107H162.371V77.2727C163.047 75.7474 164.434 74.9067 166.531 74.7507L167.285 74.6727L167.441 76.4927L166.115 76.6487C164.919 76.7527 164.009 77.1341 163.385 77.7927C162.761 78.4341 162.449 79.3181 162.449 80.4447V87.6467H160.317ZM173.773 87.8807C172.785 87.8807 171.849 87.7421 170.965 87.4647C170.081 87.1874 169.353 86.7974 168.781 86.2947L169.457 84.8127C170.081 85.3154 170.765 85.6881 171.511 85.9307C172.273 86.1561 173.045 86.2687 173.825 86.2687C174.813 86.2687 175.558 86.0867 176.061 85.7227C176.563 85.3587 176.815 84.8647 176.815 84.2407C176.815 83.7554 176.65 83.3741 176.321 83.0967C175.991 82.8021 175.471 82.5767 174.761 82.4207L172.395 81.9007C170.245 81.4327 169.171 80.3234 169.171 78.5727C169.171 77.4287 169.621 76.5101 170.523 75.8167C171.441 75.1234 172.637 74.7767 174.111 74.7767C174.977 74.7767 175.801 74.9154 176.581 75.1927C177.378 75.4527 178.037 75.8427 178.557 76.3627L177.855 77.8447C177.352 77.3767 176.763 77.0214 176.087 76.7787C175.428 76.5187 174.769 76.3887 174.111 76.3887C173.14 76.3887 172.403 76.5794 171.901 76.9607C171.398 77.3421 171.147 77.8447 171.147 78.4687C171.147 79.4394 171.788 80.0634 173.071 80.3407L175.437 80.8347C176.546 81.0774 177.387 81.4674 177.959 82.0047C178.531 82.5247 178.817 83.2354 178.817 84.1367C178.817 85.2981 178.357 86.2167 177.439 86.8927C176.52 87.5514 175.298 87.8807 173.773 87.8807ZM187.278 87.8807C186.048 87.8807 184.982 87.6121 184.08 87.0747C183.179 86.5374 182.477 85.7834 181.974 84.8127C181.489 83.8247 181.246 82.6634 181.246 81.3287C181.246 79.9941 181.489 78.8414 181.974 77.8707C182.477 76.8827 183.179 76.1201 184.08 75.5827C184.982 75.0454 186.048 74.7767 187.278 74.7767C188.492 74.7767 189.549 75.0454 190.45 75.5827C191.369 76.1201 192.071 76.8827 192.556 77.8707C193.059 78.8414 193.31 79.9941 193.31 81.3287C193.31 82.6634 193.059 83.8247 192.556 84.8127C192.071 85.7834 191.369 86.5374 190.45 87.0747C189.549 87.6121 188.492 87.8807 187.278 87.8807ZM187.278 86.1907C188.457 86.1907 189.402 85.7747 190.112 84.9427C190.823 84.0934 191.178 82.8887 191.178 81.3287C191.178 79.7514 190.823 78.5467 190.112 77.7147C189.402 76.8827 188.457 76.4667 187.278 76.4667C186.082 76.4667 185.129 76.8827 184.418 77.7147C183.725 78.5467 183.378 79.7514 183.378 81.3287C183.378 82.8887 183.725 84.0934 184.418 84.9427C185.129 85.7747 186.082 86.1907 187.278 86.1907ZM196.474 87.6467V75.0107H198.528V77.1687C198.944 76.3714 199.533 75.7734 200.296 75.3747C201.058 74.9761 201.916 74.7767 202.87 74.7767C205.868 74.7767 207.368 76.4407 207.368 79.7687V87.6467H205.262V79.8987C205.262 78.7201 205.028 77.8621 204.56 77.3247C204.109 76.7701 203.381 76.4927 202.376 76.4927C201.214 76.4927 200.287 76.8567 199.594 77.5847C198.918 78.2954 198.58 79.2487 198.58 80.4447V87.6467H196.474Z" fill="black"/>
<path d="M114.5 2.64746H0V26.6475H114.5V2.64746Z" fill="white"/>
<path d="M4.74341 20V10.22H7.18341V11.74C7.51674 11.18 7.96341 10.7533 8.52341 10.46C9.09674 10.1667 9.73674 10.02 10.4434 10.02C12.75 10.02 13.9034 11.36 13.9034 14.04V20H11.4034V14.16C11.4034 13.4 11.2567 12.8467 10.9634 12.5C10.6834 12.1533 10.2434 11.98 9.64341 11.98C8.91008 11.98 8.32341 12.2133 7.88341 12.68C7.45674 13.1333 7.24341 13.74 7.24341 14.5V20H4.74341ZM19.6626 20.2C18.9559 20.2 18.3226 20.0667 17.7626 19.8C17.2159 19.52 16.7826 19.1467 16.4626 18.68C16.1559 18.2133 16.0026 17.6867 16.0026 17.1C16.0026 16.38 16.1892 15.8133 16.5626 15.4C16.9359 14.9733 17.5426 14.6667 18.3826 14.48C19.2226 14.2933 20.3492 14.2 21.7626 14.2H22.4626V13.78C22.4626 13.1133 22.3159 12.6333 22.0226 12.34C21.7292 12.0467 21.2359 11.9 20.5426 11.9C19.9959 11.9 19.4359 11.9867 18.8626 12.16C18.2892 12.32 17.7092 12.5733 17.1226 12.92L16.4026 11.22C16.7492 10.98 17.1559 10.7733 17.6226 10.6C18.1026 10.4133 18.6026 10.2733 19.1226 10.18C19.6559 10.0733 20.1559 10.02 20.6226 10.02C22.0492 10.02 23.1092 10.3533 23.8026 11.02C24.4959 11.6733 24.8426 12.6933 24.8426 14.08V20H22.5026V18.44C22.2759 18.9867 21.9159 19.42 21.4226 19.74C20.9292 20.0467 20.3426 20.2 19.6626 20.2ZM20.1826 18.48C20.8359 18.48 21.3759 18.2533 21.8026 17.8C22.2426 17.3467 22.4626 16.7733 22.4626 16.08V15.64H21.7826C20.5292 15.64 19.6559 15.74 19.1626 15.94C18.6826 16.1267 18.4426 16.4733 18.4426 16.98C18.4426 17.42 18.5959 17.78 18.9026 18.06C19.2092 18.34 19.6359 18.48 20.1826 18.48ZM27.4201 20V10.22H29.8601V11.72C30.1534 11.1867 30.5601 10.7733 31.0801 10.48C31.6001 10.1733 32.2001 10.02 32.8801 10.02C34.3467 10.02 35.3067 10.66 35.7601 11.94C36.0667 11.34 36.5068 10.8733 37.0802 10.54C37.6535 10.1933 38.3067 10.02 39.0401 10.02C41.2401 10.02 42.3401 11.36 42.3401 14.04V20H39.8401V14.14C39.8401 13.3933 39.7134 12.8467 39.4601 12.5C39.2201 12.1533 38.8067 11.98 38.2201 11.98C37.5667 11.98 37.0534 12.2133 36.6801 12.68C36.3067 13.1333 36.1201 13.7667 36.1201 14.58V20H33.6201V14.14C33.6201 13.3933 33.4934 12.8467 33.2401 12.5C33.0001 12.1533 32.5934 11.98 32.0201 11.98C31.3667 11.98 30.8534 12.2133 30.4801 12.68C30.1067 13.1333 29.9201 13.7667 29.9201 14.58V20H27.4201ZM49.7392 20.2C48.6326 20.2 47.6792 19.9933 46.8792 19.58C46.0792 19.1667 45.4591 18.58 45.0191 17.82C44.5925 17.06 44.3792 16.16 44.3792 15.12C44.3792 14.1067 44.5858 13.22 44.9991 12.46C45.4258 11.7 46.0059 11.1067 46.7392 10.68C47.4859 10.24 48.3325 10.02 49.2791 10.02C50.6658 10.02 51.7592 10.46 52.5592 11.34C53.3726 12.22 53.7791 13.42 53.7791 14.94V15.68H46.7791C46.9658 17.4267 47.9658 18.3 49.7791 18.3C50.3258 18.3 50.8726 18.22 51.4192 18.06C51.9659 17.8867 52.4659 17.62 52.9192 17.26L53.6191 18.94C53.1525 19.3267 52.5658 19.6333 51.8591 19.86C51.1525 20.0867 50.4459 20.2 49.7392 20.2ZM49.3792 11.72C48.6459 11.72 48.0525 11.9467 47.5991 12.4C47.1458 12.8533 46.8725 13.4667 46.7791 14.24H51.6992C51.6459 13.4267 51.4191 12.8067 51.0191 12.38C50.6325 11.94 50.0859 11.72 49.3792 11.72ZM55.5391 12.98V10.22H58.3391V12.98H55.5391ZM55.5391 20V17.22H58.3391V20H55.5391Z" fill="black"/>
<path d="M70.9601 20.2C69.8534 20.2 68.8267 20.06 67.8801 19.78C66.9334 19.4867 66.1334 19.0933 65.4801 18.6L66.2601 16.58C66.9134 17.0467 67.6267 17.4067 68.4001 17.66C69.1867 17.9133 70.0401 18.04 70.9601 18.04C72.0134 18.04 72.7801 17.8667 73.2601 17.52C73.7401 17.16 73.9801 16.7 73.9801 16.14C73.9801 15.6733 73.8067 15.3067 73.4601 15.04C73.1267 14.7733 72.5467 14.5533 71.7201 14.38L69.5201 13.92C67.0134 13.3867 65.7601 12.1 65.7601 10.06C65.7601 9.18 65.9934 8.41333 66.4601 7.76C66.9267 7.10667 67.5734 6.6 68.4001 6.24C69.2267 5.88 70.1801 5.7 71.2601 5.7C72.2201 5.7 73.1201 5.84667 73.9601 6.14C74.8001 6.42 75.5001 6.82 76.0601 7.34L75.2801 9.26C74.1734 8.32667 72.8267 7.86 71.2401 7.86C70.3201 7.86 69.6001 8.05333 69.0801 8.44C68.5601 8.82667 68.3001 9.33333 68.3001 9.96C68.3001 10.44 68.4601 10.8267 68.7801 11.12C69.1001 11.4 69.6467 11.62 70.4201 11.78L72.6001 12.24C73.9201 12.52 74.9001 12.96 75.5401 13.56C76.1934 14.16 76.5201 14.96 76.5201 15.96C76.5201 16.8 76.2934 17.54 75.8401 18.18C75.3867 18.82 74.7401 19.32 73.9001 19.68C73.0734 20.0267 72.0934 20.2 70.9601 20.2ZM81.6972 20.2C80.9906 20.2 80.3572 20.0667 79.7972 19.8C79.2506 19.52 78.8172 19.1467 78.4972 18.68C78.1906 18.2133 78.0372 17.6867 78.0372 17.1C78.0372 16.38 78.2239 15.8133 78.5972 15.4C78.9706 14.9733 79.5772 14.6667 80.4172 14.48C81.2572 14.2933 82.3839 14.2 83.7972 14.2H84.4972V13.78C84.4972 13.1133 84.3506 12.6333 84.0572 12.34C83.7639 12.0467 83.2706 11.9 82.5772 11.9C82.0306 11.9 81.4706 11.9867 80.8972 12.16C80.3239 12.32 79.7439 12.5733 79.1572 12.92L78.4372 11.22C78.7839 10.98 79.1906 10.7733 79.6572 10.6C80.1372 10.4133 80.6372 10.2733 81.1572 10.18C81.6906 10.0733 82.1906 10.02 82.6572 10.02C84.0839 10.02 85.1439 10.3533 85.8372 11.02C86.5306 11.6733 86.8772 12.6933 86.8772 14.08V20H84.5372V18.44C84.3106 18.9867 83.9506 19.42 83.4572 19.74C82.9639 20.0467 82.3772 20.2 81.6972 20.2ZM82.2172 18.48C82.8706 18.48 83.4106 18.2533 83.8372 17.8C84.2772 17.3467 84.4972 16.7733 84.4972 16.08V15.64H83.8172C82.5639 15.64 81.6906 15.74 81.1972 15.94C80.7172 16.1267 80.4772 16.4733 80.4772 16.98C80.4772 17.42 80.6306 17.78 80.9372 18.06C81.2439 18.34 81.6706 18.48 82.2172 18.48ZM92.8147 20.2C91.6547 20.2 90.7947 19.8867 90.2347 19.26C89.6881 18.62 89.4147 17.6867 89.4147 16.46V5.9H91.9147V16.34C91.9147 17.54 92.4214 18.14 93.4347 18.14C93.5814 18.14 93.7281 18.1333 93.8747 18.12C94.0214 18.1067 94.1614 18.08 94.2947 18.04L94.2547 20.02C93.7747 20.14 93.2947 20.2 92.8147 20.2ZM99.2015 20.2C98.0415 20.2 97.1815 19.8867 96.6215 19.26C96.0748 18.62 95.8015 17.6867 95.8015 16.46V5.9H98.3015V16.34C98.3015 17.54 98.8081 18.14 99.8215 18.14C99.9681 18.14 100.115 18.1333 100.261 18.12C100.408 18.1067 100.548 18.08 100.681 18.04L100.641 20.02C100.161 20.14 99.6815 20.2 99.2015 20.2ZM102.814 23.6L104.614 19.6L100.554 10.22H103.214L105.954 17.06L108.754 10.22H111.274L105.394 23.6H102.814Z" fill="black"/>
<path d="M244 79.208H516.085" stroke="#006FD6" stroke-width="3"/>
<path d="M516.086 79.208L514.077 72.5119L534.165 79.208L514.077 85.9042L516.086 79.208Z" fill="#006FD6"/>
<path d="M288 59.93V57.788H290.142V59.93H288ZM288 67.994V65.852H290.142V67.994H288ZM293.282 67.994V53.189H295.004V67.994H293.282ZM303.443 68.183C302.281 68.183 301.231 68.036 300.293 67.742C299.355 67.434 298.543 66.993 297.857 66.419L298.466 65.033C299.18 65.579 299.929 65.985 300.713 66.251C301.497 66.517 302.407 66.65 303.443 66.65C304.703 66.65 305.634 66.419 306.236 65.957C306.852 65.481 307.16 64.858 307.16 64.088C307.16 63.472 306.936 62.982 306.488 62.618C306.054 62.254 305.319 61.967 304.283 61.757L302.099 61.316C300.783 61.036 299.796 60.581 299.138 59.951C298.494 59.307 298.172 58.453 298.172 57.389C298.172 56.507 298.396 55.737 298.844 55.079C299.306 54.421 299.943 53.91 300.755 53.546C301.567 53.182 302.505 53 303.569 53C304.563 53 305.487 53.161 306.341 53.483C307.195 53.791 307.916 54.239 308.504 54.827L307.895 56.171C307.265 55.597 306.6 55.184 305.9 54.932C305.2 54.666 304.416 54.533 303.548 54.533C302.442 54.533 301.56 54.792 300.902 55.31C300.244 55.814 299.915 56.486 299.915 57.326C299.915 57.998 300.118 58.53 300.524 58.922C300.944 59.314 301.623 59.601 302.561 59.783L304.745 60.245C306.159 60.539 307.202 60.987 307.874 61.589C308.56 62.177 308.903 62.982 308.903 64.004C308.903 64.83 308.679 65.558 308.231 66.188C307.797 66.818 307.167 67.308 306.341 67.658C305.529 68.008 304.563 68.183 303.443 68.183ZM309.963 69.107V67.994H319.623V69.107H309.963ZM321.87 67.994V53.189H331.026V54.638H323.592V59.804H330.606V61.253H323.592V67.994H321.87ZM333.375 67.994V53.189H339.234C340.83 53.189 342.048 53.56 342.888 54.302C343.742 55.044 344.169 56.101 344.169 57.473C344.169 58.565 343.868 59.461 343.266 60.161C342.678 60.861 341.838 61.316 340.746 61.526C341.39 61.75 341.943 62.296 342.405 63.164L345.009 67.994H343.119L340.557 63.248C340.235 62.66 339.864 62.261 339.444 62.051C339.024 61.841 338.471 61.736 337.785 61.736H335.097V67.994H333.375ZM335.097 60.371H338.982C341.306 60.371 342.468 59.405 342.468 57.473C342.468 55.569 341.306 54.617 338.982 54.617H335.097V60.371ZM347.423 67.994V53.189H349.145V67.994H347.423ZM352.796 67.994V53.189H362.141V54.638H354.476V59.762H361.7V61.211H354.476V66.545H362.141V67.994H352.796ZM365.039 67.994V53.189H366.383L375.308 65.096V53.189H376.904V67.994H375.602L366.656 56.045V67.994H365.039ZM380.584 67.994V53.189H385.582C387.976 53.189 389.824 53.826 391.126 55.1C392.428 56.36 393.079 58.187 393.079 60.581C393.079 62.975 392.428 64.809 391.126 66.083C389.824 67.357 387.976 67.994 385.582 67.994H380.584ZM382.306 66.524H385.456C389.32 66.524 391.252 64.543 391.252 60.581C391.252 56.633 389.32 54.659 385.456 54.659H382.306V66.524ZM400.958 68.183C399.796 68.183 398.746 68.036 397.808 67.742C396.87 67.434 396.058 66.993 395.372 66.419L395.981 65.033C396.695 65.579 397.444 65.985 398.228 66.251C399.012 66.517 399.922 66.65 400.958 66.65C402.218 66.65 403.149 66.419 403.751 65.957C404.367 65.481 404.675 64.858 404.675 64.088C404.675 63.472 404.451 62.982 404.003 62.618C403.569 62.254 402.834 61.967 401.798 61.757L399.614 61.316C398.298 61.036 397.311 60.581 396.653 59.951C396.009 59.307 395.687 58.453 395.687 57.389C395.687 56.507 395.911 55.737 396.359 55.079C396.821 54.421 397.458 53.91 398.27 53.546C399.082 53.182 400.02 53 401.084 53C402.078 53 403.002 53.161 403.856 53.483C404.71 53.791 405.431 54.239 406.019 54.827L405.41 56.171C404.78 55.597 404.115 55.184 403.415 54.932C402.715 54.666 401.931 54.533 401.063 54.533C399.957 54.533 399.075 54.792 398.417 55.31C397.759 55.814 397.43 56.486 397.43 57.326C397.43 57.998 397.633 58.53 398.039 58.922C398.459 59.314 399.138 59.601 400.076 59.783L402.26 60.245C403.674 60.539 404.717 60.987 405.389 61.589C406.075 62.177 406.418 62.982 406.418 64.004C406.418 64.83 406.194 65.558 405.746 66.188C405.312 66.818 404.682 67.308 403.856 67.658C403.044 68.008 402.078 68.183 400.958 68.183ZM407.478 69.107V67.994H417.138V69.107H407.478ZM422.288 67.994L417.101 53.189H418.907L423.086 65.474L427.37 53.189H428.756L432.998 65.579L437.261 53.189H438.983L433.796 67.994H432.263L428.042 55.814L423.779 67.994H422.288ZM441.41 67.994V53.189H443.132V67.994H441.41ZM450.416 67.994V54.68H445.04V53.189H457.535V54.68H452.159V67.994H450.416ZM459.416 67.994V53.189H461.138V59.741H470.021V53.189H471.743V67.994H470.021V61.232H461.138V67.994H459.416Z" fill="black"/>
</svg>
