<?xml version="1.0" encoding="UTF-8" standalone="no"?>
<!DOCTYPE svg PUBLIC "-//W3C//DTD SVG 1.1//EN"
 "http://www.w3.org/Graphics/SVG/1.1/DTD/svg11.dtd">
<!-- Generated by graphviz version 2.44.0 ()
 -->
<!-- Title: L Pages: 1 -->
<svg width="658pt" height="198pt"
 viewBox="0.00 0.00 658.00 198.00" xmlns="http://www.w3.org/2000/svg" xmlns:xlink="http://www.w3.org/1999/xlink">
<g id="graph0" class="graph" transform="scale(1 1) rotate(0) translate(4 194)">
<title>L</title>
<polygon fill="white" stroke="transparent" points="-4,4 -4,-194 654,-194 654,4 -4,4"/>
<!-- N0 -->
<g id="node1" class="node">
<title>N0</title>
<path fill="none" stroke="black" d="M12,-128.5C12,-128.5 109,-128.5 109,-128.5 115,-128.5 121,-134.5 121,-140.5 121,-140.5 121,-177.5 121,-177.5 121,-183.5 115,-189.5 109,-189.5 109,-189.5 12,-189.5 12,-189.5 6,-189.5 0,-183.5 0,-177.5 0,-177.5 0,-140.5 0,-140.5 0,-134.5 6,-128.5 12,-128.5"/>
<text text-anchor="middle" x="60.5" y="-174.3" font-family="Times,serif" font-size="14.00">Movie</text>
<polyline fill="none" stroke="black" points="0,-166.5 121,-166.5 "/>
<text text-anchor="start" x="8" y="-151.3" font-family="Times,serif" font-size="14.00">title = &#39;The Matrix&#39;</text>
<text text-anchor="start" x="8" y="-136.3" font-family="Times,serif" font-size="14.00">released = 1997</text>
</g>
<!-- N1 -->
<g id="node2" class="node">
<title>N1</title>
<path fill="none" stroke="black" d="M118,-0.5C118,-0.5 219,-0.5 219,-0.5 225,-0.5 231,-6.5 231,-12.5 231,-12.5 231,-49.5 231,-49.5 231,-55.5 225,-61.5 219,-61.5 219,-61.5 118,-61.5 118,-61.5 112,-61.5 106,-55.5 106,-49.5 106,-49.5 106,-12.5 106,-12.5 106,-6.5 112,-0.5 118,-0.5"/>
<text text-anchor="middle" x="168.5" y="-46.3" font-family="Times,serif" font-size="14.00">Movie</text>
<polyline fill="none" stroke="black" points="106,-38.5 231,-38.5 "/>
<text text-anchor="start" x="114" y="-23.3" font-family="Times,serif" font-size="14.00">title = &#39;Cloud Atlas&#39;</text>
<text text-anchor="start" x="114" y="-8.3" font-family="Times,serif" font-size="14.00">released = 2012</text>
</g>
<!-- N2 -->
<g id="node3" class="node">
<title>N2</title>
<path fill="none" stroke="black" d="M305.5,-0.5C305.5,-0.5 417.5,-0.5 417.5,-0.5 423.5,-0.5 429.5,-6.5 429.5,-12.5 429.5,-12.5 429.5,-49.5 429.5,-49.5 429.5,-55.5 423.5,-61.5 417.5,-61.5 417.5,-61.5 305.5,-61.5 305.5,-61.5 299.5,-61.5 293.5,-55.5 293.5,-49.5 293.5,-49.5 293.5,-12.5 293.5,-12.5 293.5,-6.5 299.5,-0.5 305.5,-0.5"/>
<text text-anchor="middle" x="361.5" y="-46.3" font-family="Times,serif" font-size="14.00">Movie</text>
<polyline fill="none" stroke="black" points="293.5,-38.5 429.5,-38.5 "/>
<text text-anchor="start" x="301.5" y="-23.3" font-family="Times,serif" font-size="14.00">title = &#39;Forrest Gump&#39;</text>
<text text-anchor="start" x="301.5" y="-8.3" font-family="Times,serif" font-size="14.00">released = 1994</text>
</g>
<!-- N3 -->
<g id="node4" class="node">
<title>N3</title>
<path fill="none" stroke="black" d="M517,-128.5C517,-128.5 638,-128.5 638,-128.5 644,-128.5 650,-134.5 650,-140.5 650,-140.5 650,-177.5 650,-177.5 650,-183.5 644,-189.5 638,-189.5 638,-189.5 517,-189.5 517,-189.5 511,-189.5 505,-183.5 505,-177.5 505,-177.5 505,-140.5 505,-140.5 505,-134.5 511,-128.5 517,-128.5"/>
<text text-anchor="middle" x="577.5" y="-174.3" font-family="Times,serif" font-size="14.00">Person</text>
<polyline fill="none" stroke="black" points="505,-166.5 650,-166.5 "/>
<text text-anchor="start" x="513" y="-151.3" font-family="Times,serif" font-size="14.00">name = &#39;Keanu Reeves&#39;</text>
<text text-anchor="start" x="513" y="-136.3" font-family="Times,serif" font-size="14.00">born = 1964</text>
</g>
<!-- N4 -->
<g id="node5" class="node">
<title>N4</title>
<path fill="none" stroke="black" d="M338,-128.5C338,-128.5 475,-128.5 475,-128.5 481,-128.5 487,-134.5 487,-140.5 487,-140.5 487,-177.5 487,-177.5 487,-183.5 481,-189.5 475,-189.5 475,-189.5 338,-189.5 338,-189.5 332,-189.5 326,-183.5 326,-177.5 326,-177.5 326,-140.5 326,-140.5 326,-134.5 332,-128.5 338,-128.5"/>
<text text-anchor="middle" x="406.5" y="-174.3" font-family="Times,serif" font-size="14.00">Person</text>
<polyline fill="none" stroke="black" points="326,-166.5 487,-166.5 "/>
<text text-anchor="start" x="334" y="-151.3" font-family="Times,serif" font-size="14.00">name = &#39;Robert Zemeckis&#39;</text>
<text text-anchor="start" x="334" y="-136.3" font-family="Times,serif" font-size="14.00">born = 1951</text>
</g>
<!-- N4&#45;&gt;N2 -->
<g id="edge1" class="edge">
<title>N4&#45;&gt;N2</title>
<path fill="none" stroke="#2e3436" d="M399.42,-128.35C395.58,-113.62 390.41,-95.66 384.5,-80 383.36,-76.97 382.1,-73.88 380.77,-70.79"/>
<polygon fill="#2e3436" stroke="#2e3436" points="383.95,-69.31 376.66,-61.61 377.56,-72.17 383.95,-69.31"/>
<text text-anchor="middle" x="427.5" y="-91.3" font-family="Times,serif" font-size="14.00" fill="#2e3436">DIRECTED</text>
</g>
<!-- N5 -->
<g id="node6" class="node">
<title>N5</title>
<path fill="none" stroke="black" d="M151.5,-128.5C151.5,-128.5 259.5,-128.5 259.5,-128.5 265.5,-128.5 271.5,-134.5 271.5,-140.5 271.5,-140.5 271.5,-177.5 271.5,-177.5 271.5,-183.5 265.5,-189.5 259.5,-189.5 259.5,-189.5 151.5,-189.5 151.5,-189.5 145.5,-189.5 139.5,-183.5 139.5,-177.5 139.5,-177.5 139.5,-140.5 139.5,-140.5 139.5,-134.5 145.5,-128.5 151.5,-128.5"/>
<text text-anchor="middle" x="205.5" y="-174.3" font-family="Times,serif" font-size="14.00">Person</text>
<polyline fill="none" stroke="black" points="139.5,-166.5 271.5,-166.5 "/>
<text text-anchor="start" x="147.5" y="-151.3" font-family="Times,serif" font-size="14.00">name = &#39;Tom Hanks&#39;</text>
<text text-anchor="start" x="147.5" y="-136.3" font-family="Times,serif" font-size="14.00">born = 1956</text>
</g>
<!-- N5&#45;&gt;N1 -->
<g id="edge2" class="edge">
<title>N5&#45;&gt;N1</title>
<path fill="none" stroke="#4e9a06" d="M178.93,-128.42C175.08,-122.66 171.68,-116.41 169.5,-110 165.41,-97.98 164.18,-84.3 164.26,-71.8"/>
<polygon fill="#4e9a06" stroke="#4e9a06" points="167.77,-71.74 164.61,-61.63 160.77,-71.5 167.77,-71.74"/>
<text text-anchor="middle" x="217.5" y="-98.8" font-family="Times,serif" font-size="14.00" fill="#4e9a06">ACTED_IN</text>
<text text-anchor="start" x="169.5" y="-83.8" font-family="Times,serif" font-size="14.00" fill="#4e9a06">roles = [&#39;Zachry&#39;]</text>
</g>
<!-- N5&#45;&gt;N2 -->
<g id="edge3" class="edge">
<title>N5&#45;&gt;N2</title>
<path fill="none" stroke="#4e9a06" d="M246.2,-128.5C253,-122.73 259.72,-116.46 265.5,-110 276.03,-98.24 273.3,-91.12 284.5,-80 288.9,-75.63 293.77,-71.47 298.86,-67.55"/>
<polygon fill="#4e9a06" stroke="#4e9a06" points="300.99,-70.34 307,-61.61 296.86,-64.68 300.99,-70.34"/>
<text text-anchor="middle" x="332.5" y="-98.8" font-family="Times,serif" font-size="14.00" fill="#4e9a06">ACTED_IN</text>
<text text-anchor="start" x="284.5" y="-83.8" font-family="Times,serif" font-size="14.00" fill="#4e9a06">roles = [&#39;Forrest&#39;]</text>
</g>
</g>
</svg>
