<svg width="819" height="156" viewBox="0 0 819 156" fill="none" xmlns="http://www.w3.org/2000/svg">
<path d="M27.871 149.056C27.297 149.056 26.8513 148.981 26.534 148.832C26.2213 148.678 26.0043 148.461 25.883 148.181C25.7617 147.901 25.701 147.567 25.701 147.18V142.966H24.525V141.762H25.75L26.177 139.613H27.402V141.755H29.019V142.966H27.402L27.409 147.117C27.409 147.332 27.4323 147.49 27.479 147.593C27.5303 147.691 27.6097 147.756 27.717 147.789C27.829 147.817 27.976 147.831 28.158 147.831H29.054V148.909C28.956 148.946 28.8113 148.979 28.62 149.007C28.4333 149.04 28.1837 149.056 27.871 149.056ZM30.6542 149V141.762H32.2852V149H30.6542ZM30.6262 140.495V138.885H32.3132V140.495H30.6262ZM37.1405 149.056C36.5665 149.056 36.1209 148.981 35.8035 148.832C35.4909 148.678 35.2739 148.461 35.1525 148.181C35.0312 147.901 34.9705 147.567 34.9705 147.18V142.966H33.7945V141.762H35.0195L35.4465 139.613H36.6715V141.755H38.2885V142.966H36.6715L36.6785 147.117C36.6785 147.332 36.7019 147.49 36.7485 147.593C36.7999 147.691 36.8792 147.756 36.9865 147.789C37.0985 147.817 37.2455 147.831 37.4275 147.831H38.3235V148.909C38.2255 148.946 38.0809 148.979 37.8895 149.007C37.7029 149.04 37.4532 149.056 37.1405 149.056ZM41.9817 149.105C41.515 149.105 41.1417 149.047 40.8617 148.93C40.5817 148.813 40.3717 148.657 40.2317 148.461C40.0917 148.265 40.0007 148.046 39.9587 147.803C39.9167 147.556 39.8957 147.304 39.8957 147.047V138.598H41.5617V146.851C41.5617 147.164 41.6247 147.406 41.7507 147.579C41.8814 147.752 42.0914 147.852 42.3807 147.88L42.7447 147.894V148.965C42.6187 149.002 42.4904 149.035 42.3597 149.063C42.229 149.091 42.103 149.105 41.9817 149.105ZM47.1552 149.14C46.4599 149.14 45.8462 148.993 45.3142 148.699C44.7869 148.4 44.3739 147.976 44.0752 147.425C43.7812 146.874 43.6342 146.219 43.6342 145.458C43.6342 144.716 43.7672 144.058 44.0332 143.484C44.3039 142.905 44.6936 142.45 45.2022 142.119C45.7156 141.788 46.3339 141.622 47.0572 141.622C47.7712 141.622 48.3709 141.774 48.8562 142.077C49.3416 142.38 49.7102 142.805 49.9622 143.351C50.2142 143.892 50.3402 144.527 50.3402 145.255V145.773H45.3352C45.3306 146.184 45.3959 146.548 45.5312 146.865C45.6666 147.182 45.8672 147.432 46.1332 147.614C46.3992 147.791 46.7282 147.88 47.1202 147.88C47.5216 147.88 47.8692 147.791 48.1632 147.614C48.4619 147.432 48.6602 147.157 48.7582 146.788H50.3122C50.2282 147.292 50.0276 147.719 49.7102 148.069C49.3976 148.419 49.0149 148.685 48.5622 148.867C48.1142 149.049 47.6452 149.14 47.1552 149.14ZM45.3282 144.716H48.7302C48.7302 144.366 48.6672 144.051 48.5412 143.771C48.4199 143.486 48.2356 143.262 47.9882 143.099C47.7409 142.931 47.4282 142.847 47.0502 142.847C46.6769 142.847 46.3619 142.938 46.1052 143.12C45.8486 143.302 45.6549 143.538 45.5242 143.827C45.3936 144.112 45.3282 144.408 45.3282 144.716ZM51.73 143.932V141.986H53.655V143.932H51.73ZM51.73 148.958V147.026H53.655V148.958H51.73ZM59.0175 142.497L58.5485 138.878H60.4035L59.9135 142.497H59.0175ZM62.4809 149V138.878H66.5899C67.3645 138.878 68.0015 138.999 68.5009 139.242C69.0049 139.48 69.3782 139.818 69.6209 140.257C69.8635 140.691 69.9849 141.2 69.9849 141.783C69.9849 142.324 69.8962 142.779 69.7189 143.148C69.5415 143.512 69.3105 143.811 69.0259 144.044C68.7459 144.273 68.4449 144.459 68.1229 144.604L70.0549 149H68.2769L66.5339 144.891H64.1819V149H62.4809ZM64.1819 143.54H66.2049C66.8489 143.54 67.3505 143.391 67.7099 143.092C68.0739 142.793 68.2559 142.378 68.2559 141.846C68.2559 141.323 68.0879 140.92 67.7519 140.635C67.4159 140.35 66.9725 140.208 66.4219 140.208H64.1819V143.54ZM74.6251 149.14C73.9344 149.14 73.3324 148.993 72.8191 148.699C72.3058 148.4 71.9068 147.973 71.6221 147.418C71.3421 146.863 71.2021 146.195 71.2021 145.416C71.2021 144.66 71.3398 143.997 71.6151 143.428C71.8904 142.859 72.2824 142.415 72.7911 142.098C73.3044 141.781 73.9181 141.622 74.6321 141.622C75.3228 141.622 75.9224 141.774 76.4311 142.077C76.9398 142.38 77.3318 142.814 77.6071 143.379C77.8871 143.944 78.0271 144.623 78.0271 145.416C78.0271 146.149 77.8941 146.795 77.6281 147.355C77.3668 147.91 76.9818 148.347 76.4731 148.664C75.9691 148.981 75.3531 149.14 74.6251 149.14ZM74.6321 147.845C75.0241 147.845 75.3461 147.738 75.5981 147.523C75.8548 147.308 76.0461 147.014 76.1721 146.641C76.2981 146.268 76.3611 145.843 76.3611 145.367C76.3611 144.924 76.3051 144.515 76.1931 144.142C76.0811 143.769 75.8968 143.47 75.6401 143.246C75.3881 143.017 75.0521 142.903 74.6321 142.903C74.2354 142.903 73.9064 143.008 73.6451 143.218C73.3884 143.423 73.1971 143.713 73.0711 144.086C72.9451 144.455 72.8821 144.882 72.8821 145.367C72.8821 145.806 72.9381 146.214 73.0501 146.592C73.1621 146.965 73.3464 147.269 73.6031 147.502C73.8598 147.731 74.2028 147.845 74.6321 147.845ZM83.4071 149.14C83.0198 149.14 82.6885 149.089 82.4131 148.986C82.1378 148.883 81.9068 148.75 81.7201 148.587C81.5381 148.424 81.3911 148.249 81.2791 148.062C81.1718 147.871 81.0901 147.689 81.0341 147.516L80.8381 149H79.5851V138.598H81.2931V142.819C81.3678 142.679 81.4705 142.539 81.6011 142.399C81.7365 142.259 81.8998 142.131 82.0911 142.014C82.2825 141.897 82.4995 141.804 82.7421 141.734C82.9895 141.659 83.2625 141.622 83.5611 141.622C84.4618 141.622 85.1735 141.942 85.6961 142.581C86.2188 143.22 86.4801 144.142 86.4801 145.346C86.4801 146.107 86.3635 146.772 86.1301 147.341C85.9015 147.91 85.5585 148.354 85.1011 148.671C84.6485 148.984 84.0838 149.14 83.4071 149.14ZM83.0571 147.887C83.5658 147.887 83.9835 147.684 84.3101 147.278C84.6368 146.872 84.8001 146.214 84.8001 145.304C84.8001 144.511 84.6461 143.911 84.3381 143.505C84.0301 143.094 83.5961 142.889 83.0361 142.889C82.6348 142.889 82.3058 142.98 82.0491 143.162C81.7971 143.344 81.6081 143.615 81.4821 143.974C81.3608 144.333 81.2978 144.777 81.2931 145.304C81.2931 146.228 81.4331 146.891 81.7131 147.292C81.9978 147.689 82.4458 147.887 83.0571 147.887ZM91.0587 149.14C90.368 149.14 89.766 148.993 89.2527 148.699C88.7394 148.4 88.3404 147.973 88.0557 147.418C87.7757 146.863 87.6357 146.195 87.6357 145.416C87.6357 144.66 87.7734 143.997 88.0487 143.428C88.324 142.859 88.716 142.415 89.2247 142.098C89.738 141.781 90.3517 141.622 91.0657 141.622C91.7564 141.622 92.356 141.774 92.8647 142.077C93.3734 142.38 93.7654 142.814 94.0407 143.379C94.3207 143.944 94.4607 144.623 94.4607 145.416C94.4607 146.149 94.3277 146.795 94.0617 147.355C93.8004 147.91 93.4154 148.347 92.9067 148.664C92.4027 148.981 91.7867 149.14 91.0587 149.14ZM91.0657 147.845C91.4577 147.845 91.7797 147.738 92.0317 147.523C92.2884 147.308 92.4797 147.014 92.6057 146.641C92.7317 146.268 92.7947 145.843 92.7947 145.367C92.7947 144.924 92.7387 144.515 92.6267 144.142C92.5147 143.769 92.3304 143.47 92.0737 143.246C91.8217 143.017 91.4857 142.903 91.0657 142.903C90.669 142.903 90.34 143.008 90.0787 143.218C89.822 143.423 89.6307 143.713 89.5047 144.086C89.3787 144.455 89.3157 144.882 89.3157 145.367C89.3157 145.806 89.3717 146.214 89.4837 146.592C89.5957 146.965 89.78 147.269 90.0367 147.502C90.2934 147.731 90.6364 147.845 91.0657 147.845ZM98.6503 149.056C98.0763 149.056 97.6306 148.981 97.3133 148.832C97.0006 148.678 96.7836 148.461 96.6623 148.181C96.541 147.901 96.4803 147.567 96.4803 147.18V142.966H95.3043V141.762H96.5293L96.9563 139.613H98.1813V141.755H99.7983V142.966H98.1813L98.1883 147.117C98.1883 147.332 98.2116 147.49 98.2583 147.593C98.3096 147.691 98.389 147.756 98.4963 147.789C98.6083 147.817 98.7553 147.831 98.9373 147.831H99.8333V148.909C99.7353 148.946 99.5906 148.979 99.3993 149.007C99.2126 149.04 98.963 149.056 98.6503 149.056ZM101.139 142.525L101.93 140.698L101.272 140.649V138.878H103.134V140.432L101.825 142.525H101.139Z" fill="black"/>
<path d="M303.871 149.056C303.297 149.056 302.851 148.981 302.534 148.832C302.221 148.678 302.004 148.461 301.883 148.181C301.762 147.901 301.701 147.567 301.701 147.18V142.966H300.525V141.762H301.75L302.177 139.613H303.402V141.755H305.019V142.966H303.402L303.409 147.117C303.409 147.332 303.432 147.49 303.479 147.593C303.53 147.691 303.61 147.756 303.717 147.789C303.829 147.817 303.976 147.831 304.158 147.831H305.054V148.909C304.956 148.946 304.811 148.979 304.62 149.007C304.433 149.04 304.184 149.056 303.871 149.056ZM306.654 149V141.762H308.285V149H306.654ZM306.626 140.495V138.885H308.313V140.495H306.626ZM313.141 149.056C312.567 149.056 312.121 148.981 311.804 148.832C311.491 148.678 311.274 148.461 311.153 148.181C311.031 147.901 310.971 147.567 310.971 147.18V142.966H309.795V141.762H311.02L311.447 139.613H312.672V141.755H314.289V142.966H312.672L312.679 147.117C312.679 147.332 312.702 147.49 312.749 147.593C312.8 147.691 312.879 147.756 312.987 147.789C313.099 147.817 313.246 147.831 313.428 147.831H314.324V148.909C314.226 148.946 314.081 148.979 313.89 149.007C313.703 149.04 313.453 149.056 313.141 149.056ZM317.982 149.105C317.515 149.105 317.142 149.047 316.862 148.93C316.582 148.813 316.372 148.657 316.232 148.461C316.092 148.265 316.001 148.046 315.959 147.803C315.917 147.556 315.896 147.304 315.896 147.047V138.598H317.562V146.851C317.562 147.164 317.625 147.406 317.751 147.579C317.881 147.752 318.091 147.852 318.381 147.88L318.745 147.894V148.965C318.619 149.002 318.49 149.035 318.36 149.063C318.229 149.091 318.103 149.105 317.982 149.105ZM323.155 149.14C322.46 149.14 321.846 148.993 321.314 148.699C320.787 148.4 320.374 147.976 320.075 147.425C319.781 146.874 319.634 146.219 319.634 145.458C319.634 144.716 319.767 144.058 320.033 143.484C320.304 142.905 320.694 142.45 321.202 142.119C321.716 141.788 322.334 141.622 323.057 141.622C323.771 141.622 324.371 141.774 324.856 142.077C325.342 142.38 325.71 142.805 325.962 143.351C326.214 143.892 326.34 144.527 326.34 145.255V145.773H321.335C321.331 146.184 321.396 146.548 321.531 146.865C321.667 147.182 321.867 147.432 322.133 147.614C322.399 147.791 322.728 147.88 323.12 147.88C323.522 147.88 323.869 147.791 324.163 147.614C324.462 147.432 324.66 147.157 324.758 146.788H326.312C326.228 147.292 326.028 147.719 325.71 148.069C325.398 148.419 325.015 148.685 324.562 148.867C324.114 149.049 323.645 149.14 323.155 149.14ZM321.328 144.716H324.73C324.73 144.366 324.667 144.051 324.541 143.771C324.42 143.486 324.236 143.262 323.988 143.099C323.741 142.931 323.428 142.847 323.05 142.847C322.677 142.847 322.362 142.938 322.105 143.12C321.849 143.302 321.655 143.538 321.524 143.827C321.394 144.112 321.328 144.408 321.328 144.716ZM327.73 143.932V141.986H329.655V143.932H327.73ZM327.73 148.958V147.026H329.655V148.958H327.73ZM334.388 142.525L335.179 140.698L334.521 140.649V138.878H336.383V140.432L335.074 142.525H334.388ZM340.604 149V140.411H337.454V138.878H345.35V140.411H342.312V149H340.604ZM346.616 149V138.598H348.296V142.812C348.413 142.63 348.567 142.455 348.758 142.287C348.95 142.114 349.183 141.974 349.458 141.867C349.738 141.755 350.072 141.699 350.459 141.699C350.921 141.699 351.344 141.788 351.726 141.965C352.109 142.142 352.415 142.399 352.643 142.735C352.872 143.066 352.986 143.463 352.986 143.925V149H351.278V144.212C351.278 143.839 351.145 143.549 350.879 143.344C350.618 143.139 350.287 143.036 349.885 143.036C349.619 143.036 349.365 143.083 349.122 143.176C348.88 143.269 348.684 143.409 348.534 143.596C348.39 143.778 348.317 144.007 348.317 144.282V149H346.616ZM358.005 149.14C357.31 149.14 356.696 148.993 356.164 148.699C355.637 148.4 355.224 147.976 354.925 147.425C354.631 146.874 354.484 146.219 354.484 145.458C354.484 144.716 354.617 144.058 354.883 143.484C355.154 142.905 355.543 142.45 356.052 142.119C356.565 141.788 357.184 141.622 357.907 141.622C358.621 141.622 359.221 141.774 359.706 142.077C360.191 142.38 360.56 142.805 360.812 143.351C361.064 143.892 361.19 144.527 361.19 145.255V145.773H356.185C356.18 146.184 356.246 146.548 356.381 146.865C356.516 147.182 356.717 147.432 356.983 147.614C357.249 147.791 357.578 147.88 357.97 147.88C358.371 147.88 358.719 147.791 359.013 147.614C359.312 147.432 359.51 147.157 359.608 146.788H361.162C361.078 147.292 360.877 147.719 360.56 148.069C360.247 148.419 359.865 148.685 359.412 148.867C358.964 149.049 358.495 149.14 358.005 149.14ZM356.178 144.716H359.58C359.58 144.366 359.517 144.051 359.391 143.771C359.27 143.486 359.085 143.262 358.838 143.099C358.591 142.931 358.278 142.847 357.9 142.847C357.527 142.847 357.212 142.938 356.955 143.12C356.698 143.302 356.505 143.538 356.374 143.827C356.243 144.112 356.178 144.408 356.178 144.716ZM365.527 149L369.16 138.878H371.008L374.641 149H372.933L372.03 146.459H368.152L367.242 149H365.527ZM368.558 144.947H371.603L370.084 140.53L368.558 144.947ZM376.079 149V141.762H377.71V143.33C377.827 142.971 377.993 142.665 378.207 142.413C378.427 142.156 378.683 141.96 378.977 141.825C379.271 141.69 379.591 141.622 379.936 141.622C380.02 141.622 380.102 141.627 380.181 141.636C380.261 141.645 380.319 141.662 380.356 141.685V143.316C380.305 143.293 380.237 143.276 380.153 143.267C380.074 143.258 380.004 143.253 379.943 143.253C379.593 143.225 379.283 143.239 379.012 143.295C378.746 143.351 378.52 143.447 378.333 143.582C378.151 143.713 378.014 143.881 377.92 144.086C377.827 144.287 377.78 144.522 377.78 144.793V149H376.079ZM381.712 149V138.598H383.406V145.045L386.409 141.762H388.278L385.66 144.59L388.411 149H386.682L384.582 145.647L383.406 146.879V149H381.712ZM393.006 149V141.762H394.637V149H393.006ZM392.978 140.495V138.885H394.665V140.495H392.978ZM396.655 149V141.762H398.321V142.798C398.433 142.611 398.585 142.432 398.776 142.259C398.972 142.086 399.213 141.946 399.497 141.839C399.782 141.732 400.116 141.678 400.498 141.678C400.946 141.678 401.362 141.767 401.744 141.944C402.132 142.121 402.442 142.399 402.675 142.777C402.913 143.155 403.032 143.643 403.032 144.24V149H401.324V144.443C401.324 143.967 401.194 143.615 400.932 143.386C400.671 143.153 400.342 143.036 399.945 143.036C399.675 143.036 399.418 143.083 399.175 143.176C398.933 143.265 398.734 143.402 398.58 143.589C398.431 143.771 398.356 144 398.356 144.275V149H396.655ZM412.018 149.14C411.514 149.14 411.031 149.079 410.569 148.958C410.107 148.832 409.685 148.648 409.302 148.405C408.924 148.158 408.611 147.852 408.364 147.488C408.117 147.119 407.965 146.69 407.909 146.2H409.673C409.748 146.541 409.895 146.828 410.114 147.061C410.338 147.294 410.62 147.472 410.961 147.593C411.302 147.714 411.682 147.775 412.102 147.775C412.475 147.775 412.823 147.719 413.145 147.607C413.467 147.495 413.728 147.329 413.929 147.11C414.13 146.886 414.23 146.611 414.23 146.284C414.23 145.915 414.099 145.628 413.838 145.423C413.581 145.213 413.213 145.047 412.732 144.926L410.751 144.457C410.238 144.34 409.79 144.17 409.407 143.946C409.029 143.722 408.735 143.428 408.525 143.064C408.315 142.695 408.21 142.245 408.21 141.713C408.21 141.106 408.376 140.581 408.707 140.138C409.043 139.695 409.498 139.354 410.072 139.116C410.646 138.873 411.292 138.752 412.011 138.752C412.832 138.752 413.525 138.89 414.09 139.165C414.655 139.436 415.084 139.8 415.378 140.257C415.672 140.714 415.821 141.216 415.826 141.762H414.104C414.067 141.356 413.948 141.036 413.747 140.803C413.546 140.565 413.292 140.392 412.984 140.285C412.676 140.178 412.335 140.124 411.962 140.124C411.299 140.124 410.807 140.266 410.485 140.551C410.163 140.836 410.002 141.169 410.002 141.552C410.002 141.911 410.121 142.196 410.359 142.406C410.597 142.616 410.961 142.779 411.451 142.896L413.334 143.337C413.964 143.468 414.47 143.668 414.853 143.939C415.236 144.21 415.513 144.532 415.686 144.905C415.863 145.274 415.952 145.682 415.952 146.13C415.952 146.718 415.784 147.238 415.448 147.691C415.117 148.144 414.657 148.498 414.069 148.755C413.481 149.012 412.797 149.14 412.018 149.14ZM417.669 151.254V141.762H419.37L419.384 142.903C419.477 142.744 419.596 142.588 419.741 142.434C419.89 142.28 420.061 142.142 420.252 142.021C420.448 141.9 420.665 141.804 420.903 141.734C421.141 141.659 421.402 141.622 421.687 141.622C422.242 141.622 422.735 141.755 423.164 142.021C423.593 142.282 423.929 142.686 424.172 143.232C424.419 143.778 424.543 144.469 424.543 145.304C424.543 146.158 424.417 146.87 424.165 147.439C423.913 148.008 423.561 148.435 423.108 148.72C422.655 149 422.13 149.14 421.533 149.14C421.258 149.14 421.006 149.103 420.777 149.028C420.553 148.953 420.352 148.851 420.175 148.72C419.998 148.589 419.841 148.447 419.706 148.293C419.575 148.139 419.466 147.978 419.377 147.81V151.254H417.669ZM421.155 147.866C421.668 147.866 422.093 147.663 422.429 147.257C422.765 146.846 422.933 146.205 422.933 145.332C422.933 144.576 422.774 143.981 422.457 143.547C422.144 143.108 421.71 142.889 421.155 142.889C420.558 142.889 420.11 143.12 419.811 143.582C419.512 144.039 419.363 144.623 419.363 145.332C419.363 145.789 419.428 146.212 419.559 146.599C419.694 146.982 419.893 147.29 420.154 147.523C420.42 147.752 420.754 147.866 421.155 147.866ZM428.116 149.14C427.654 149.14 427.238 149.056 426.87 148.888C426.506 148.715 426.219 148.47 426.009 148.153C425.803 147.831 425.701 147.441 425.701 146.984C425.701 146.186 425.988 145.584 426.562 145.178C427.14 144.772 428.06 144.56 429.32 144.541L430.405 144.513V144.023C430.405 143.64 430.29 143.342 430.062 143.127C429.838 142.908 429.488 142.8 429.012 142.805C428.657 142.81 428.335 142.894 428.046 143.057C427.756 143.216 427.565 143.484 427.472 143.862H426.023C426.051 143.367 426.193 142.954 426.45 142.623C426.711 142.287 427.068 142.037 427.521 141.874C427.973 141.706 428.496 141.622 429.089 141.622C429.779 141.622 430.342 141.713 430.776 141.895C431.21 142.077 431.529 142.341 431.735 142.686C431.94 143.027 432.043 143.44 432.043 143.925V149H430.608L430.468 147.698C430.211 148.244 429.882 148.622 429.481 148.832C429.084 149.037 428.629 149.14 428.116 149.14ZM428.669 147.985C428.879 147.985 429.086 147.948 429.292 147.873C429.497 147.794 429.681 147.689 429.845 147.558C430.013 147.423 430.146 147.273 430.244 147.11C430.346 146.947 430.4 146.776 430.405 146.599V145.458L429.516 145.472C429.077 145.477 428.692 145.523 428.361 145.612C428.034 145.701 427.78 145.843 427.598 146.039C427.416 146.23 427.325 146.487 427.325 146.809C427.325 147.178 427.453 147.467 427.71 147.677C427.966 147.882 428.286 147.985 428.669 147.985ZM436.895 149.14C436.232 149.14 435.642 148.995 435.124 148.706C434.61 148.412 434.207 147.987 433.913 147.432C433.619 146.872 433.472 146.198 433.472 145.409C433.472 144.658 433.609 144 433.885 143.435C434.165 142.866 434.559 142.422 435.068 142.105C435.581 141.783 436.19 141.622 436.895 141.622C437.459 141.622 437.956 141.734 438.386 141.958C438.815 142.182 439.158 142.492 439.415 142.889C439.676 143.286 439.832 143.736 439.884 144.24H438.435C438.397 144.021 438.316 143.813 438.19 143.617C438.064 143.416 437.893 143.255 437.679 143.134C437.469 143.008 437.212 142.945 436.909 142.945C436.363 142.945 435.922 143.146 435.586 143.547C435.25 143.948 435.082 144.564 435.082 145.395C435.082 146.16 435.24 146.769 435.558 147.222C435.88 147.675 436.339 147.901 436.937 147.901C437.235 147.901 437.492 147.836 437.707 147.705C437.921 147.57 438.089 147.404 438.211 147.208C438.337 147.007 438.416 146.807 438.449 146.606H439.863C439.821 147.096 439.669 147.532 439.408 147.915C439.146 148.298 438.801 148.599 438.372 148.818C437.942 149.033 437.45 149.14 436.895 149.14ZM444.671 149.14C443.976 149.14 443.362 148.993 442.83 148.699C442.303 148.4 441.89 147.976 441.591 147.425C441.297 146.874 441.15 146.219 441.15 145.458C441.15 144.716 441.283 144.058 441.549 143.484C441.82 142.905 442.209 142.45 442.718 142.119C443.231 141.788 443.85 141.622 444.573 141.622C445.287 141.622 445.887 141.774 446.372 142.077C446.857 142.38 447.226 142.805 447.478 143.351C447.73 143.892 447.856 144.527 447.856 145.255V145.773H442.851C442.846 146.184 442.912 146.548 443.047 146.865C443.182 147.182 443.383 147.432 443.649 147.614C443.915 147.791 444.244 147.88 444.636 147.88C445.037 147.88 445.385 147.791 445.679 147.614C445.978 147.432 446.176 147.157 446.274 146.788H447.828C447.744 147.292 447.543 147.719 447.226 148.069C446.913 148.419 446.531 148.685 446.078 148.867C445.63 149.049 445.161 149.14 444.671 149.14ZM442.844 144.716H446.246C446.246 144.366 446.183 144.051 446.057 143.771C445.936 143.486 445.751 143.262 445.504 143.099C445.257 142.931 444.944 142.847 444.566 142.847C444.193 142.847 443.878 142.938 443.621 143.12C443.364 143.302 443.171 143.538 443.04 143.827C442.909 144.112 442.844 144.408 442.844 144.716ZM448.671 142.525L449.462 140.698L448.804 140.649V138.878H450.666V140.432L449.357 142.525H448.671Z" fill="black"/>
<path d="M613.871 149.056C613.297 149.056 612.851 148.981 612.534 148.832C612.221 148.678 612.004 148.461 611.883 148.181C611.762 147.901 611.701 147.567 611.701 147.18V142.966H610.525V141.762H611.75L612.177 139.613H613.402V141.755H615.019V142.966H613.402L613.409 147.117C613.409 147.332 613.432 147.49 613.479 147.593C613.53 147.691 613.61 147.756 613.717 147.789C613.829 147.817 613.976 147.831 614.158 147.831H615.054V148.909C614.956 148.946 614.811 148.979 614.62 149.007C614.433 149.04 614.184 149.056 613.871 149.056ZM616.654 149V141.762H618.285V149H616.654ZM616.626 140.495V138.885H618.313V140.495H616.626ZM623.141 149.056C622.567 149.056 622.121 148.981 621.804 148.832C621.491 148.678 621.274 148.461 621.153 148.181C621.031 147.901 620.971 147.567 620.971 147.18V142.966H619.795V141.762H621.02L621.447 139.613H622.672V141.755H624.289V142.966H622.672L622.679 147.117C622.679 147.332 622.702 147.49 622.749 147.593C622.8 147.691 622.879 147.756 622.987 147.789C623.099 147.817 623.246 147.831 623.428 147.831H624.324V148.909C624.226 148.946 624.081 148.979 623.89 149.007C623.703 149.04 623.453 149.056 623.141 149.056ZM627.982 149.105C627.515 149.105 627.142 149.047 626.862 148.93C626.582 148.813 626.372 148.657 626.232 148.461C626.092 148.265 626.001 148.046 625.959 147.803C625.917 147.556 625.896 147.304 625.896 147.047V138.598H627.562V146.851C627.562 147.164 627.625 147.406 627.751 147.579C627.881 147.752 628.091 147.852 628.381 147.88L628.745 147.894V148.965C628.619 149.002 628.49 149.035 628.36 149.063C628.229 149.091 628.103 149.105 627.982 149.105ZM633.155 149.14C632.46 149.14 631.846 148.993 631.314 148.699C630.787 148.4 630.374 147.976 630.075 147.425C629.781 146.874 629.634 146.219 629.634 145.458C629.634 144.716 629.767 144.058 630.033 143.484C630.304 142.905 630.694 142.45 631.202 142.119C631.716 141.788 632.334 141.622 633.057 141.622C633.771 141.622 634.371 141.774 634.856 142.077C635.342 142.38 635.71 142.805 635.962 143.351C636.214 143.892 636.34 144.527 636.34 145.255V145.773H631.335C631.331 146.184 631.396 146.548 631.531 146.865C631.667 147.182 631.867 147.432 632.133 147.614C632.399 147.791 632.728 147.88 633.12 147.88C633.522 147.88 633.869 147.791 634.163 147.614C634.462 147.432 634.66 147.157 634.758 146.788H636.312C636.228 147.292 636.028 147.719 635.71 148.069C635.398 148.419 635.015 148.685 634.562 148.867C634.114 149.049 633.645 149.14 633.155 149.14ZM631.328 144.716H634.73C634.73 144.366 634.667 144.051 634.541 143.771C634.42 143.486 634.236 143.262 633.988 143.099C633.741 142.931 633.428 142.847 633.05 142.847C632.677 142.847 632.362 142.938 632.105 143.12C631.849 143.302 631.655 143.538 631.524 143.827C631.394 144.112 631.328 144.408 631.328 144.716ZM637.73 143.932V141.986H639.655V143.932H637.73ZM637.73 148.958V147.026H639.655V148.958H637.73ZM644.388 142.525L645.179 140.698L644.521 140.649V138.878H646.383V140.432L645.074 142.525H644.388ZM650.604 149V140.411H647.454V138.878H655.35V140.411H652.312V149H650.604ZM656.616 149V138.598H658.296V142.812C658.413 142.63 658.567 142.455 658.758 142.287C658.95 142.114 659.183 141.974 659.458 141.867C659.738 141.755 660.072 141.699 660.459 141.699C660.921 141.699 661.344 141.788 661.726 141.965C662.109 142.142 662.415 142.399 662.643 142.735C662.872 143.066 662.986 143.463 662.986 143.925V149H661.278V144.212C661.278 143.839 661.145 143.549 660.879 143.344C660.618 143.139 660.287 143.036 659.885 143.036C659.619 143.036 659.365 143.083 659.122 143.176C658.88 143.269 658.684 143.409 658.534 143.596C658.39 143.778 658.317 144.007 658.317 144.282V149H656.616ZM668.005 149.14C667.31 149.14 666.696 148.993 666.164 148.699C665.637 148.4 665.224 147.976 664.925 147.425C664.631 146.874 664.484 146.219 664.484 145.458C664.484 144.716 664.617 144.058 664.883 143.484C665.154 142.905 665.543 142.45 666.052 142.119C666.565 141.788 667.184 141.622 667.907 141.622C668.621 141.622 669.221 141.774 669.706 142.077C670.191 142.38 670.56 142.805 670.812 143.351C671.064 143.892 671.19 144.527 671.19 145.255V145.773H666.185C666.18 146.184 666.246 146.548 666.381 146.865C666.516 147.182 666.717 147.432 666.983 147.614C667.249 147.791 667.578 147.88 667.97 147.88C668.371 147.88 668.719 147.791 669.013 147.614C669.312 147.432 669.51 147.157 669.608 146.788H671.162C671.078 147.292 670.877 147.719 670.56 148.069C670.247 148.419 669.865 148.685 669.412 148.867C668.964 149.049 668.495 149.14 668.005 149.14ZM666.178 144.716H669.58C669.58 144.366 669.517 144.051 669.391 143.771C669.27 143.486 669.085 143.262 668.838 143.099C668.591 142.931 668.278 142.847 667.9 142.847C667.527 142.847 667.212 142.938 666.955 143.12C666.698 143.302 666.505 143.538 666.374 143.827C666.243 144.112 666.178 144.408 666.178 144.716ZM679.909 149.14C679.405 149.14 678.922 149.079 678.46 148.958C677.998 148.832 677.575 148.648 677.193 148.405C676.815 148.158 676.502 147.852 676.255 147.488C676.007 147.119 675.856 146.69 675.8 146.2H677.564C677.638 146.541 677.785 146.828 678.005 147.061C678.229 147.294 678.511 147.472 678.852 147.593C679.192 147.714 679.573 147.775 679.993 147.775C680.366 147.775 680.714 147.719 681.036 147.607C681.358 147.495 681.619 147.329 681.82 147.11C682.02 146.886 682.121 146.611 682.121 146.284C682.121 145.915 681.99 145.628 681.729 145.423C681.472 145.213 681.103 145.047 680.623 144.926L678.642 144.457C678.128 144.34 677.68 144.17 677.298 143.946C676.92 143.722 676.626 143.428 676.416 143.064C676.206 142.695 676.101 142.245 676.101 141.713C676.101 141.106 676.266 140.581 676.598 140.138C676.934 139.695 677.389 139.354 677.963 139.116C678.537 138.873 679.183 138.752 679.902 138.752C680.723 138.752 681.416 138.89 681.981 139.165C682.545 139.436 682.975 139.8 683.269 140.257C683.563 140.714 683.712 141.216 683.717 141.762H681.995C681.957 141.356 681.838 141.036 681.638 140.803C681.437 140.565 681.183 140.392 680.875 140.285C680.567 140.178 680.226 140.124 679.853 140.124C679.19 140.124 678.698 140.266 678.376 140.551C678.054 140.836 677.893 141.169 677.893 141.552C677.893 141.911 678.012 142.196 678.25 142.406C678.488 142.616 678.852 142.779 679.342 142.896L681.225 143.337C681.855 143.468 682.361 143.668 682.744 143.939C683.126 144.21 683.404 144.532 683.577 144.905C683.754 145.274 683.843 145.682 683.843 146.13C683.843 146.718 683.675 147.238 683.339 147.691C683.007 148.144 682.548 148.498 681.96 148.755C681.372 149.012 680.688 149.14 679.909 149.14ZM688.557 149.14C687.866 149.14 687.264 148.993 686.751 148.699C686.237 148.4 685.838 147.973 685.554 147.418C685.274 146.863 685.134 146.195 685.134 145.416C685.134 144.66 685.271 143.997 685.547 143.428C685.822 142.859 686.214 142.415 686.723 142.098C687.236 141.781 687.85 141.622 688.564 141.622C689.254 141.622 689.854 141.774 690.363 142.077C690.871 142.38 691.263 142.814 691.539 143.379C691.819 143.944 691.959 144.623 691.959 145.416C691.959 146.149 691.826 146.795 691.56 147.355C691.298 147.91 690.913 148.347 690.405 148.664C689.901 148.981 689.285 149.14 688.557 149.14ZM688.564 147.845C688.956 147.845 689.278 147.738 689.53 147.523C689.786 147.308 689.978 147.014 690.104 146.641C690.23 146.268 690.293 145.843 690.293 145.367C690.293 144.924 690.237 144.515 690.125 144.142C690.013 143.769 689.828 143.47 689.572 143.246C689.32 143.017 688.984 142.903 688.564 142.903C688.167 142.903 687.838 143.008 687.577 143.218C687.32 143.423 687.129 143.713 687.003 144.086C686.877 144.455 686.814 144.882 686.814 145.367C686.814 145.806 686.87 146.214 686.982 146.592C687.094 146.965 687.278 147.269 687.535 147.502C687.791 147.731 688.134 147.845 688.564 147.845ZM693.517 149V141.762H695.183V142.798C695.295 142.611 695.446 142.432 695.638 142.259C695.834 142.086 696.074 141.946 696.359 141.839C696.643 141.732 696.977 141.678 697.36 141.678C697.808 141.678 698.223 141.767 698.606 141.944C698.993 142.121 699.303 142.399 699.537 142.777C699.775 143.155 699.894 143.643 699.894 144.24V149H698.186V144.443C698.186 143.967 698.055 143.615 697.794 143.386C697.532 143.153 697.203 143.036 696.807 143.036C696.536 143.036 696.279 143.083 696.037 143.176C695.794 143.265 695.596 143.402 695.442 143.589C695.292 143.771 695.218 144 695.218 144.275V149H693.517ZM704.338 149.056C703.764 149.056 703.318 148.981 703.001 148.832C702.688 148.678 702.471 148.461 702.35 148.181C702.228 147.901 702.168 147.567 702.168 147.18V142.966H700.992V141.762H702.217L702.644 139.613H703.869V141.755H705.486V142.966H703.869L703.876 147.117C703.876 147.332 703.899 147.49 703.946 147.593C703.997 147.691 704.076 147.756 704.184 147.789C704.296 147.817 704.443 147.831 704.625 147.831H705.521V148.909C705.423 148.946 705.278 148.979 705.087 149.007C704.9 149.04 704.65 149.056 704.338 149.056ZM709.159 149.14C708.697 149.14 708.281 149.056 707.913 148.888C707.549 148.715 707.262 148.47 707.052 148.153C706.846 147.831 706.744 147.441 706.744 146.984C706.744 146.186 707.031 145.584 707.605 145.178C708.183 144.772 709.103 144.56 710.363 144.541L711.448 144.513V144.023C711.448 143.64 711.333 143.342 711.105 143.127C710.881 142.908 710.531 142.8 710.055 142.805C709.7 142.81 709.378 142.894 709.089 143.057C708.799 143.216 708.608 143.484 708.515 143.862H707.066C707.094 143.367 707.236 142.954 707.493 142.623C707.754 142.287 708.111 142.037 708.564 141.874C709.016 141.706 709.539 141.622 710.132 141.622C710.822 141.622 711.385 141.713 711.819 141.895C712.253 142.077 712.572 142.341 712.778 142.686C712.983 143.027 713.086 143.44 713.086 143.925V149H711.651L711.511 147.698C711.254 148.244 710.925 148.622 710.524 148.832C710.127 149.037 709.672 149.14 709.159 149.14ZM709.712 147.985C709.922 147.985 710.129 147.948 710.335 147.873C710.54 147.794 710.724 147.689 710.888 147.558C711.056 147.423 711.189 147.273 711.287 147.11C711.389 146.947 711.443 146.776 711.448 146.599V145.458L710.559 145.472C710.12 145.477 709.735 145.523 709.404 145.612C709.077 145.701 708.823 145.843 708.641 146.039C708.459 146.23 708.368 146.487 708.368 146.809C708.368 147.178 708.496 147.467 708.753 147.677C709.009 147.882 709.329 147.985 709.712 147.985ZM714.9 149V141.762H716.531V143.33C716.647 142.971 716.813 142.665 717.028 142.413C717.247 142.156 717.504 141.96 717.798 141.825C718.092 141.69 718.411 141.622 718.757 141.622C718.841 141.622 718.922 141.627 719.002 141.636C719.081 141.645 719.139 141.662 719.177 141.685V143.316C719.125 143.293 719.058 143.276 718.974 143.267C718.894 143.258 718.824 143.253 718.764 143.253C718.414 143.225 718.103 143.239 717.833 143.295C717.567 143.351 717.34 143.447 717.154 143.582C716.972 143.713 716.834 143.881 716.741 144.086C716.647 144.287 716.601 144.522 716.601 144.793V149H714.9ZM722.42 149.14C721.958 149.14 721.543 149.056 721.174 148.888C720.81 148.715 720.523 148.47 720.313 148.153C720.108 147.831 720.005 147.441 720.005 146.984C720.005 146.186 720.292 145.584 720.866 145.178C721.445 144.772 722.364 144.56 723.624 144.541L724.709 144.513V144.023C724.709 143.64 724.595 143.342 724.366 143.127C724.142 142.908 723.792 142.8 723.316 142.805C722.962 142.81 722.64 142.894 722.35 143.057C722.061 143.216 721.87 143.484 721.776 143.862H720.327C720.355 143.367 720.498 142.954 720.754 142.623C721.016 142.287 721.373 142.037 721.825 141.874C722.278 141.706 722.801 141.622 723.393 141.622C724.084 141.622 724.646 141.713 725.08 141.895C725.514 142.077 725.834 142.341 726.039 142.686C726.245 143.027 726.347 143.44 726.347 143.925V149H724.912L724.772 147.698C724.516 148.244 724.187 148.622 723.785 148.832C723.389 149.037 722.934 149.14 722.42 149.14ZM722.973 147.985C723.183 147.985 723.391 147.948 723.596 147.873C723.802 147.794 723.986 147.689 724.149 147.558C724.317 147.423 724.45 147.273 724.548 147.11C724.651 146.947 724.705 146.776 724.709 146.599V145.458L723.82 145.472C723.382 145.477 722.997 145.523 722.665 145.612C722.339 145.701 722.084 145.843 721.902 146.039C721.72 146.23 721.629 146.487 721.629 146.809C721.629 147.178 721.758 147.467 722.014 147.677C722.271 147.882 722.591 147.985 722.973 147.985ZM728.161 149V141.762H729.827V142.798C729.939 142.611 730.091 142.432 730.282 142.259C730.478 142.086 730.719 141.946 731.003 141.839C731.288 141.732 731.622 141.678 732.004 141.678C732.452 141.678 732.868 141.767 733.25 141.944C733.638 142.121 733.948 142.399 734.181 142.777C734.419 143.155 734.538 143.643 734.538 144.24V149H732.83V144.443C732.83 143.967 732.7 143.615 732.438 143.386C732.177 143.153 731.848 143.036 731.451 143.036C731.181 143.036 730.924 143.083 730.681 143.176C730.439 143.265 730.24 143.402 730.086 143.589C729.937 143.771 729.862 144 729.862 144.275V149H728.161ZM739.891 149V138.878H746.583L746.576 140.341H741.606V143.176H745.995V144.618H741.592V147.516L746.681 147.523V149H739.891ZM747.711 149L750.49 145.234L747.942 141.762H749.748L751.421 144.023L753.094 141.762H754.907L752.338 145.234L755.124 149H753.318L751.414 146.424L749.517 149H747.711ZM756.421 151.254V141.762H758.122L758.136 142.903C758.229 142.744 758.348 142.588 758.493 142.434C758.642 142.28 758.813 142.142 759.004 142.021C759.2 141.9 759.417 141.804 759.655 141.734C759.893 141.659 760.154 141.622 760.439 141.622C760.994 141.622 761.487 141.755 761.916 142.021C762.345 142.282 762.681 142.686 762.924 143.232C763.171 143.778 763.295 144.469 763.295 145.304C763.295 146.158 763.169 146.87 762.917 147.439C762.665 148.008 762.313 148.435 761.86 148.72C761.407 149 760.882 149.14 760.285 149.14C760.01 149.14 759.758 149.103 759.529 149.028C759.305 148.953 759.104 148.851 758.927 148.72C758.75 148.589 758.593 148.447 758.458 148.293C758.327 148.139 758.218 147.978 758.129 147.81V151.254H756.421ZM759.907 147.866C760.42 147.866 760.845 147.663 761.181 147.257C761.517 146.846 761.685 146.205 761.685 145.332C761.685 144.576 761.526 143.981 761.209 143.547C760.896 143.108 760.462 142.889 759.907 142.889C759.31 142.889 758.862 143.12 758.563 143.582C758.264 144.039 758.115 144.623 758.115 145.332C758.115 145.789 758.18 146.212 758.311 146.599C758.446 146.982 758.645 147.29 758.906 147.523C759.172 147.752 759.506 147.866 759.907 147.866ZM768.042 149.14C767.347 149.14 766.733 148.993 766.201 148.699C765.674 148.4 765.261 147.976 764.962 147.425C764.668 146.874 764.521 146.219 764.521 145.458C764.521 144.716 764.654 144.058 764.92 143.484C765.191 142.905 765.58 142.45 766.089 142.119C766.602 141.788 767.221 141.622 767.944 141.622C768.658 141.622 769.258 141.774 769.743 142.077C770.228 142.38 770.597 142.805 770.849 143.351C771.101 143.892 771.227 144.527 771.227 145.255V145.773H766.222C766.217 146.184 766.283 146.548 766.418 146.865C766.553 147.182 766.754 147.432 767.02 147.614C767.286 147.791 767.615 147.88 768.007 147.88C768.408 147.88 768.756 147.791 769.05 147.614C769.349 147.432 769.547 147.157 769.645 146.788H771.199C771.115 147.292 770.914 147.719 770.597 148.069C770.284 148.419 769.902 148.685 769.449 148.867C769.001 149.049 768.532 149.14 768.042 149.14ZM766.215 144.716H769.617C769.617 144.366 769.554 144.051 769.428 143.771C769.307 143.486 769.122 143.262 768.875 143.099C768.628 142.931 768.315 142.847 767.937 142.847C767.564 142.847 767.249 142.938 766.992 143.12C766.735 143.302 766.542 143.538 766.411 143.827C766.28 144.112 766.215 144.408 766.215 144.716ZM772.855 149V141.762H774.486V143.33C774.602 142.971 774.768 142.665 774.983 142.413C775.202 142.156 775.459 141.96 775.753 141.825C776.047 141.69 776.366 141.622 776.712 141.622C776.796 141.622 776.877 141.627 776.957 141.636C777.036 141.645 777.094 141.662 777.132 141.685V143.316C777.08 143.293 777.013 143.276 776.929 143.267C776.849 143.258 776.779 143.253 776.719 143.253C776.369 143.225 776.058 143.239 775.788 143.295C775.522 143.351 775.295 143.447 775.109 143.582C774.927 143.713 774.789 143.881 774.696 144.086C774.602 144.287 774.556 144.522 774.556 144.793V149H772.855ZM778.515 149V141.762H780.146V149H778.515ZM778.487 140.495V138.885H780.174V140.495H778.487ZM782.165 149V141.762H783.824V142.798C784.034 142.481 784.319 142.205 784.678 141.972C785.042 141.739 785.504 141.622 786.064 141.622C786.321 141.622 786.58 141.666 786.841 141.755C787.107 141.844 787.352 141.974 787.576 142.147C787.805 142.32 787.987 142.534 788.122 142.791C788.351 142.45 788.654 142.17 789.032 141.951C789.415 141.732 789.844 141.622 790.32 141.622C790.582 141.622 790.85 141.664 791.125 141.748C791.405 141.832 791.662 141.972 791.895 142.168C792.129 142.364 792.318 142.632 792.462 142.973C792.607 143.309 792.679 143.731 792.679 144.24V149H790.978V144.443C790.978 144.084 790.915 143.801 790.789 143.596C790.663 143.391 790.5 143.246 790.299 143.162C790.103 143.073 789.893 143.029 789.669 143.029C789.469 143.029 789.259 143.069 789.039 143.148C788.825 143.227 788.64 143.358 788.486 143.54C788.337 143.722 788.262 143.967 788.262 144.275V149H786.561V144.17C786.561 143.918 786.496 143.708 786.365 143.54C786.235 143.372 786.069 143.246 785.868 143.162C785.672 143.073 785.472 143.029 785.266 143.029C785.056 143.029 784.842 143.073 784.622 143.162C784.408 143.251 784.228 143.386 784.083 143.568C783.939 143.75 783.866 143.986 783.866 144.275V149H782.165ZM797.71 149.14C797.015 149.14 796.401 148.993 795.869 148.699C795.342 148.4 794.929 147.976 794.63 147.425C794.336 146.874 794.189 146.219 794.189 145.458C794.189 144.716 794.322 144.058 794.588 143.484C794.859 142.905 795.248 142.45 795.757 142.119C796.27 141.788 796.889 141.622 797.612 141.622C798.326 141.622 798.926 141.774 799.411 142.077C799.896 142.38 800.265 142.805 800.517 143.351C800.769 143.892 800.895 144.527 800.895 145.255V145.773H795.89C795.885 146.184 795.951 146.548 796.086 146.865C796.221 147.182 796.422 147.432 796.688 147.614C796.954 147.791 797.283 147.88 797.675 147.88C798.076 147.88 798.424 147.791 798.718 147.614C799.017 147.432 799.215 147.157 799.313 146.788H800.867C800.783 147.292 800.582 147.719 800.265 148.069C799.952 148.419 799.57 148.685 799.117 148.867C798.669 149.049 798.2 149.14 797.71 149.14ZM795.883 144.716H799.285C799.285 144.366 799.222 144.051 799.096 143.771C798.975 143.486 798.79 143.262 798.543 143.099C798.296 142.931 797.983 142.847 797.605 142.847C797.232 142.847 796.917 142.938 796.66 143.12C796.403 143.302 796.21 143.538 796.079 143.827C795.948 144.112 795.883 144.408 795.883 144.716ZM802.523 149V141.762H804.189V142.798C804.301 142.611 804.452 142.432 804.644 142.259C804.84 142.086 805.08 141.946 805.365 141.839C805.649 141.732 805.983 141.678 806.366 141.678C806.814 141.678 807.229 141.767 807.612 141.944C807.999 142.121 808.309 142.399 808.543 142.777C808.781 143.155 808.9 143.643 808.9 144.24V149H807.192V144.443C807.192 143.967 807.061 143.615 806.8 143.386C806.538 143.153 806.209 143.036 805.813 143.036C805.542 143.036 805.285 143.083 805.043 143.176C804.8 143.265 804.602 143.402 804.448 143.589C804.298 143.771 804.224 144 804.224 144.275V149H802.523ZM813.344 149.056C812.77 149.056 812.324 148.981 812.007 148.832C811.694 148.678 811.477 148.461 811.356 148.181C811.234 147.901 811.174 147.567 811.174 147.18V142.966H809.998V141.762H811.223L811.65 139.613H812.875V141.755H814.492V142.966H812.875L812.882 147.117C812.882 147.332 812.905 147.49 812.952 147.593C813.003 147.691 813.082 147.756 813.19 147.789C813.302 147.817 813.449 147.831 813.631 147.831H814.527V148.909C814.429 148.946 814.284 148.979 814.093 149.007C813.906 149.04 813.656 149.056 813.344 149.056ZM815.833 142.525L816.624 140.698L815.966 140.649V138.878H817.828V140.432L816.519 142.525H815.833Z" fill="black"/>
<path d="M319 43C319 30.2975 329.297 20 342 20V20C354.703 20 365 30.2975 365 43V43C365 55.7025 354.703 66 342 66V66C329.297 66 319 55.7025 319 43V43Z" fill="#C990C0"/>
<path d="M76 43C76 30.2975 86.2975 20 99 20V20C111.703 20 122 30.2975 122 43V43C122 55.7025 111.703 66 99 66V66C86.2975 66 76 55.7025 76 43V43Z" fill="#C990C0"/>
<path d="M316.207 43.7071C316.598 43.3166 316.598 42.6834 316.207 42.2929L309.843 35.9289C309.453 35.5384 308.819 35.5384 308.429 35.9289C308.038 36.3195 308.038 36.9526 308.429 37.3431L314.086 43L308.429 48.6569C308.038 49.0474 308.038 49.6805 308.429 50.0711C308.819 50.4616 309.453 50.4616 309.843 50.0711L316.207 43.7071ZM243.031 42C242.478 42 242.031 42.4477 242.031 43C242.031 43.5523 242.478 44 243.031 44V42ZM192.906 44C193.458 44 193.906 43.5523 193.906 43C193.906 42.4477 193.458 42 192.906 42V44ZM125.5 42C124.948 42 124.5 42.4477 124.5 43C124.5 43.5523 124.948 44 125.5 44V42ZM315.5 42H243.031V44H315.5V42ZM192.906 42H125.5V44H192.906V42Z" fill="#1A1B1D"/>
<path d="M208.867 38.3182V48.5H207.455L202.28 41.0327H202.185V48.5H200.649V38.3182H202.071L207.251 45.7955H207.346V38.3182H208.867ZM210.954 48.5V38.3182H217.337V39.6406H212.49V42.7429H217.004V44.0604H212.49V47.1776H217.397V48.5H210.954ZM220.304 38.3182L222.74 42.3004H222.82L225.256 38.3182H227.036L223.864 43.4091L227.056 48.5H225.266L222.82 44.5724H222.74L220.294 48.5H218.505L221.751 43.4091L218.525 38.3182H220.304ZM227.904 39.6406V38.3182H235.784V39.6406H232.607V48.5H231.075V39.6406H227.904Z" fill="black" fill-opacity="0.8"/>
<path d="M319 85C319 72.2975 329.297 62 342 62V62C354.703 62 365 72.2975 365 85V85C365 97.7025 354.703 108 342 108V108C329.297 108 319 97.7025 319 85V85Z" fill="#C990C0"/>
<path d="M76 85C76 72.2975 86.2975 62 99 62V62C111.703 62 122 72.2975 122 85V85C122 97.7025 111.703 108 99 108V108C86.2975 108 76 97.7025 76 85V85Z" fill="#C990C0"/>
<path d="M315.5 86C316.052 86 316.5 85.5523 316.5 85C316.5 84.4477 316.052 84 315.5 84V86ZM259.531 84C258.978 84 258.531 84.4477 258.531 85C258.531 85.5523 258.978 86 259.531 86V84ZM176.406 86C176.958 86 177.406 85.5523 177.406 85C177.406 84.4477 176.958 84 176.406 84V86ZM124.793 84.2929C124.402 84.6834 124.402 85.3166 124.793 85.7071L131.157 92.0711C131.547 92.4616 132.181 92.4616 132.571 92.0711C132.962 91.6805 132.962 91.0474 132.571 90.6569L126.914 85L132.571 79.3431C132.962 78.9526 132.962 78.3195 132.571 77.9289C132.181 77.5384 131.547 77.5384 131.157 77.9289L124.793 84.2929ZM315.5 84H259.531V86H315.5V84ZM176.406 84H125.5V86H176.406V84Z" fill="#1A1B1D"/>
<path d="M184.585 90.5V80.3182H188.214C189.006 80.3182 189.663 80.4624 190.183 80.7507C190.703 81.0391 191.093 81.4335 191.351 81.9339C191.61 82.4311 191.739 82.9912 191.739 83.6143C191.739 84.2408 191.608 84.8042 191.346 85.3047C191.088 85.8018 190.697 86.1963 190.173 86.4879C189.653 86.7763 188.998 86.9205 188.209 86.9205H185.713V85.6179H188.07C188.57 85.6179 188.976 85.5317 189.288 85.3594C189.6 85.1837 189.828 84.9451 189.974 84.6435C190.12 84.3419 190.193 83.9988 190.193 83.6143C190.193 83.2299 190.12 82.8885 189.974 82.5902C189.828 82.2919 189.598 82.0582 189.283 81.8892C188.971 81.7202 188.56 81.6357 188.05 81.6357H186.121V90.5H184.585ZM193.386 90.5V80.3182H197.015C197.804 80.3182 198.459 80.4541 198.979 80.7259C199.503 80.9976 199.894 81.3738 200.152 81.8544C200.411 82.3317 200.54 82.8835 200.54 83.5099C200.54 84.133 200.409 84.6816 200.147 85.1555C199.889 85.6262 199.498 85.9924 198.974 86.2543C198.454 86.5161 197.799 86.647 197.01 86.647H194.261V85.3246H196.871C197.368 85.3246 197.773 85.2533 198.084 85.1108C198.399 84.9683 198.629 84.7611 198.775 84.4893C198.921 84.2176 198.994 83.8911 198.994 83.5099C198.994 83.1255 198.919 82.7924 198.77 82.5107C198.624 82.2289 198.394 82.0135 198.079 81.8643C197.768 81.7119 197.358 81.6357 196.851 81.6357H194.922V90.5H193.386ZM198.412 85.9062L200.928 90.5H199.178L196.712 85.9062H198.412ZM202.255 90.5V80.3182H208.639V81.6406H203.792V84.7429H208.306V86.0604H203.792V89.1776H208.699V90.5H202.255ZM211.427 80.3182L214.261 88.6108H214.375L217.209 80.3182H218.869L215.205 90.5H213.43L209.766 80.3182H211.427ZM221.722 80.3182V90.5H220.186V80.3182H221.722ZM232.65 85.4091C232.65 86.4962 232.451 87.4309 232.053 88.2131C231.655 88.992 231.11 89.5919 230.417 90.0128C229.728 90.4304 228.944 90.6392 228.066 90.6392C227.184 90.6392 226.397 90.4304 225.704 90.0128C225.015 89.5919 224.471 88.9903 224.074 88.2081C223.676 87.4259 223.477 86.4929 223.477 85.4091C223.477 84.322 223.676 83.389 224.074 82.6101C224.471 81.8279 225.015 81.228 225.704 80.8104C226.397 80.3894 227.184 80.179 228.066 80.179C228.944 80.179 229.728 80.3894 230.417 80.8104C231.11 81.228 231.655 81.8279 232.053 82.6101C232.451 83.389 232.65 84.322 232.65 85.4091ZM231.128 85.4091C231.128 84.5805 230.994 83.8828 230.726 83.3161C230.46 82.746 230.096 82.3151 229.632 82.0234C229.171 81.7285 228.649 81.581 228.066 81.581C227.479 81.581 226.955 81.7285 226.495 82.0234C226.034 82.3151 225.669 82.746 225.401 83.3161C225.136 83.8828 225.003 84.5805 225.003 85.4091C225.003 86.2377 225.136 86.937 225.401 87.5071C225.669 88.0739 226.034 88.5047 226.495 88.7997C226.955 89.0914 227.479 89.2372 228.066 89.2372C228.649 89.2372 229.171 89.0914 229.632 88.7997C230.096 88.5047 230.46 88.0739 230.726 87.5071C230.994 86.937 231.128 86.2377 231.128 85.4091ZM240.958 80.3182H242.5V87.0149C242.5 87.7275 242.332 88.3589 241.998 88.9091C241.663 89.456 241.192 89.8868 240.586 90.2017C239.979 90.5133 239.268 90.669 238.453 90.669C237.641 90.669 236.931 90.5133 236.325 90.2017C235.718 89.8868 235.248 89.456 234.913 88.9091C234.578 88.3589 234.411 87.7275 234.411 87.0149V80.3182H235.947V86.8906C235.947 87.3513 236.048 87.7607 236.25 88.1186C236.456 88.4766 236.746 88.7583 237.12 88.9638C237.495 89.166 237.939 89.267 238.453 89.267C238.97 89.267 239.416 89.166 239.79 88.9638C240.168 88.7583 240.456 88.4766 240.655 88.1186C240.857 87.7607 240.958 87.3513 240.958 86.8906V80.3182ZM250.132 82.9929C250.079 82.5223 249.861 82.1577 249.476 81.8991C249.092 81.6373 248.608 81.5064 248.024 81.5064C247.607 81.5064 247.246 81.5727 246.941 81.7053C246.636 81.8345 246.399 82.0135 246.23 82.2422C246.064 82.4676 245.981 82.7244 245.981 83.0128C245.981 83.2547 246.037 83.4635 246.15 83.6392C246.266 83.8149 246.417 83.9624 246.603 84.0817C246.791 84.1977 246.994 84.2955 247.209 84.375C247.425 84.4512 247.632 84.5142 247.831 84.5639L248.825 84.8224C249.15 84.902 249.483 85.0097 249.824 85.1456C250.166 85.2815 250.482 85.4605 250.774 85.6825C251.065 85.9046 251.301 86.1797 251.48 86.5078C251.662 86.8359 251.753 87.2287 251.753 87.6861C251.753 88.2628 251.604 88.7749 251.306 89.2223C251.011 89.6697 250.581 90.0227 250.018 90.2812C249.458 90.5398 248.78 90.669 247.985 90.669C247.222 90.669 246.563 90.5481 246.006 90.3061C245.449 90.0642 245.013 89.7211 244.698 89.277C244.384 88.8295 244.21 88.2992 244.176 87.6861H245.718C245.747 88.054 245.867 88.3606 246.076 88.6058C246.288 88.8478 246.558 89.0284 246.886 89.1477C247.217 89.2637 247.58 89.3217 247.975 89.3217C248.409 89.3217 248.795 89.2538 249.133 89.1179C249.474 88.9787 249.743 88.7865 249.938 88.5412C250.134 88.2926 250.232 88.0026 250.232 87.6712C250.232 87.3696 250.146 87.1226 249.973 86.9304C249.804 86.7382 249.574 86.5791 249.282 86.4531C248.994 86.3272 248.667 86.2161 248.303 86.12L247.1 85.7919C246.284 85.5698 245.638 85.2434 245.161 84.8125C244.687 84.3816 244.45 83.8116 244.45 83.1023C244.45 82.5156 244.609 82.0036 244.927 81.5661C245.245 81.1286 245.676 80.7888 246.22 80.5469C246.763 80.3016 247.376 80.179 248.059 80.179C248.749 80.179 249.357 80.3 249.884 80.5419C250.414 80.7839 250.832 81.117 251.137 81.5412C251.442 81.9621 251.601 82.446 251.614 82.9929H250.132Z" fill="black" fill-opacity="0.8"/>
<path d="M657 43C657 30.2975 667.297 20 680 20V20C692.703 20 703 30.2975 703 43V43C703 55.7025 692.703 66 680 66V66C667.297 66 657 55.7025 657 43V43Z" fill="#C990C0"/>
<path d="M388 43C388 30.2975 398.297 20 411 20V20C423.703 20 434 30.2975 434 43V43C434 55.7025 423.703 66 411 66V66C398.297 66 388 55.7025 388 43V43Z" fill="#C990C0"/>
<path d="M654.207 43.7071C654.598 43.3166 654.598 42.6834 654.207 42.2929L647.843 35.9289C647.453 35.5384 646.819 35.5384 646.429 35.9289C646.038 36.3195 646.038 36.9526 646.429 37.3431L652.086 43L646.429 48.6569C646.038 49.0474 646.038 49.6805 646.429 50.0711C646.819 50.4616 647.453 50.4616 647.843 50.0711L654.207 43.7071ZM567.684 42C567.132 42 566.684 42.4477 566.684 43C566.684 43.5523 567.132 44 567.684 44V42ZM517.559 44C518.111 44 518.559 43.5523 518.559 43C518.559 42.4477 518.111 42 517.559 42V44ZM437.5 42C436.948 42 436.5 42.4477 436.5 43C436.5 43.5523 436.948 44 437.5 44V42ZM653.5 42H567.684V44H653.5V42ZM517.559 42H437.5V44H517.559V42Z" fill="#1A1B1D"/>
<path d="M533.52 38.3182V48.5H532.108L526.933 41.0327H526.838V48.5H525.302V38.3182H526.724L531.905 45.7955H531.999V38.3182H533.52ZM535.607 48.5V38.3182H541.991V39.6406H537.143V42.7429H541.658V44.0604H537.143V47.1776H542.05V48.5H535.607ZM544.958 38.3182L547.394 42.3004H547.473L549.909 38.3182H551.689L548.517 43.4091L551.709 48.5H549.919L547.473 44.5724H547.394L544.948 48.5H543.158L546.404 43.4091L543.178 38.3182H544.958ZM552.557 39.6406V38.3182H560.437V39.6406H557.26V48.5H555.729V39.6406H552.557Z" fill="black" fill-opacity="0.8"/>
<path d="M657 85C657 72.2975 667.297 62 680 62V62C692.703 62 703 72.2975 703 85V85C703 97.7025 692.703 108 680 108V108C667.297 108 657 97.7025 657 85V85Z" fill="#C990C0"/>
<path d="M388 85C388 72.2975 398.297 62 411 62V62C423.703 62 434 72.2975 434 85V85C434 97.7025 423.703 108 411 108V108C398.297 108 388 97.7025 388 85V85Z" fill="#C990C0"/>
<path d="M653.5 86C654.052 86 654.5 85.5523 654.5 85C654.5 84.4477 654.052 84 653.5 84V86ZM584.184 84C583.632 84 583.184 84.4477 583.184 85C583.184 85.5523 583.632 86 584.184 86V84ZM501.059 86C501.611 86 502.059 85.5523 502.059 85C502.059 84.4477 501.611 84 501.059 84V86ZM436.793 84.2929C436.402 84.6834 436.402 85.3166 436.793 85.7071L443.157 92.0711C443.547 92.4616 444.181 92.4616 444.571 92.0711C444.962 91.6805 444.962 91.0474 444.571 90.6569L438.914 85L444.571 79.3431C444.962 78.9526 444.962 78.3195 444.571 77.9289C444.181 77.5384 443.547 77.5384 443.157 77.9289L436.793 84.2929ZM653.5 84H584.184V86H653.5V84ZM501.059 84H437.5V86H501.059V84Z" fill="#1A1B1D"/>
<path d="M509.238 90.5V80.3182H512.867C513.66 80.3182 514.316 80.4624 514.836 80.7507C515.357 81.0391 515.746 81.4335 516.005 81.9339C516.263 82.4311 516.392 82.9912 516.392 83.6143C516.392 84.2408 516.261 84.8042 516 85.3047C515.741 85.8018 515.35 86.1963 514.826 86.4879C514.306 86.7763 513.651 86.9205 512.862 86.9205H510.367V85.6179H512.723C513.224 85.6179 513.63 85.5317 513.941 85.3594C514.253 85.1837 514.482 84.9451 514.627 84.6435C514.773 84.3419 514.846 83.9988 514.846 83.6143C514.846 83.2299 514.773 82.8885 514.627 82.5902C514.482 82.2919 514.251 82.0582 513.936 81.8892C513.625 81.7202 513.214 81.6357 512.703 81.6357H510.774V90.5H509.238ZM518.039 90.5V80.3182H521.669C522.457 80.3182 523.112 80.4541 523.632 80.7259C524.156 80.9976 524.547 81.3738 524.806 81.8544C525.064 82.3317 525.193 82.8835 525.193 83.5099C525.193 84.133 525.062 84.6816 524.801 85.1555C524.542 85.6262 524.151 85.9924 523.627 86.2543C523.107 86.5161 522.452 86.647 521.664 86.647H518.914V85.3246H521.524C522.021 85.3246 522.426 85.2533 522.737 85.1108C523.052 84.9683 523.283 84.7611 523.428 84.4893C523.574 84.2176 523.647 83.8911 523.647 83.5099C523.647 83.1255 523.573 82.7924 523.423 82.5107C523.278 82.2289 523.047 82.0135 522.732 81.8643C522.421 81.7119 522.012 81.6357 521.504 81.6357H519.575V90.5H518.039ZM523.066 85.9062L525.581 90.5H523.831L521.365 85.9062H523.066ZM526.909 90.5V80.3182H533.292V81.6406H528.445V84.7429H532.959V86.0604H528.445V89.1776H533.352V90.5H526.909ZM536.08 80.3182L538.914 88.6108H539.028L541.862 80.3182H543.523L539.859 90.5H538.084L534.42 80.3182H536.08ZM546.375 80.3182V90.5H544.839V80.3182H546.375ZM557.303 85.4091C557.303 86.4962 557.104 87.4309 556.706 88.2131C556.309 88.992 555.763 89.5919 555.071 90.0128C554.381 90.4304 553.597 90.6392 552.719 90.6392C551.837 90.6392 551.05 90.4304 550.358 90.0128C549.668 89.5919 549.125 88.9903 548.727 88.2081C548.329 87.4259 548.13 86.4929 548.13 85.4091C548.13 84.322 548.329 83.389 548.727 82.6101C549.125 81.8279 549.668 81.228 550.358 80.8104C551.05 80.3894 551.837 80.179 552.719 80.179C553.597 80.179 554.381 80.3894 555.071 80.8104C555.763 81.228 556.309 81.8279 556.706 82.6101C557.104 83.389 557.303 84.322 557.303 85.4091ZM555.782 85.4091C555.782 84.5805 555.647 83.8828 555.379 83.3161C555.114 82.746 554.749 82.3151 554.285 82.0234C553.824 81.7285 553.302 81.581 552.719 81.581C552.132 81.581 551.609 81.7285 551.148 82.0234C550.687 82.3151 550.323 82.746 550.054 83.3161C549.789 83.8828 549.657 84.5805 549.657 85.4091C549.657 86.2377 549.789 86.937 550.054 87.5071C550.323 88.0739 550.687 88.5047 551.148 88.7997C551.609 89.0914 552.132 89.2372 552.719 89.2372C553.302 89.2372 553.824 89.0914 554.285 88.7997C554.749 88.5047 555.114 88.0739 555.379 87.5071C555.647 86.937 555.782 86.2377 555.782 85.4091ZM565.612 80.3182H567.153V87.0149C567.153 87.7275 566.986 88.3589 566.651 88.9091C566.316 89.456 565.845 89.8868 565.239 90.2017C564.632 90.5133 563.921 90.669 563.106 90.669C562.294 90.669 561.585 90.5133 560.978 90.2017C560.372 89.8868 559.901 89.456 559.566 88.9091C559.232 88.3589 559.064 87.7275 559.064 87.0149V80.3182H560.6V86.8906C560.6 87.3513 560.701 87.7607 560.904 88.1186C561.109 88.4766 561.399 88.7583 561.774 88.9638C562.148 89.166 562.592 89.267 563.106 89.267C563.623 89.267 564.069 89.166 564.443 88.9638C564.821 88.7583 565.11 88.4766 565.308 88.1186C565.511 87.7607 565.612 87.3513 565.612 86.8906V80.3182ZM574.786 82.9929C574.733 82.5223 574.514 82.1577 574.129 81.8991C573.745 81.6373 573.261 81.5064 572.678 81.5064C572.26 81.5064 571.899 81.5727 571.594 81.7053C571.289 81.8345 571.052 82.0135 570.883 82.2422C570.717 82.4676 570.634 82.7244 570.634 83.0128C570.634 83.2547 570.691 83.4635 570.803 83.6392C570.919 83.8149 571.07 83.9624 571.256 84.0817C571.445 84.1977 571.647 84.2955 571.862 84.375C572.078 84.4512 572.285 84.5142 572.484 84.5639L573.478 84.8224C573.803 84.902 574.136 85.0097 574.477 85.1456C574.819 85.2815 575.135 85.4605 575.427 85.6825C575.719 85.9046 575.954 86.1797 576.133 86.5078C576.315 86.8359 576.406 87.2287 576.406 87.6861C576.406 88.2628 576.257 88.7749 575.959 89.2223C575.664 89.6697 575.235 90.0227 574.671 90.2812C574.111 90.5398 573.433 90.669 572.638 90.669C571.876 90.669 571.216 90.5481 570.659 90.3061C570.102 90.0642 569.667 89.7211 569.352 89.277C569.037 88.8295 568.863 88.2992 568.83 87.6861H570.371C570.401 88.054 570.52 88.3606 570.729 88.6058C570.941 88.8478 571.211 89.0284 571.539 89.1477C571.871 89.2637 572.234 89.3217 572.628 89.3217C573.062 89.3217 573.448 89.2538 573.786 89.1179C574.128 88.9787 574.396 88.7865 574.592 88.5412C574.787 88.2926 574.885 88.0026 574.885 87.6712C574.885 87.3696 574.799 87.1226 574.627 86.9304C574.458 86.7382 574.227 86.5791 573.936 86.4531C573.647 86.3272 573.321 86.2161 572.956 86.12L571.753 85.7919C570.938 85.5698 570.291 85.2434 569.814 84.8125C569.34 84.3816 569.103 83.8116 569.103 83.1023C569.103 82.5156 569.262 82.0036 569.58 81.5661C569.899 81.1286 570.33 80.7888 570.873 80.5469C571.417 80.3016 572.03 80.179 572.713 80.179C573.402 80.179 574.01 80.3 574.537 80.5419C575.067 80.7839 575.485 81.117 575.79 81.5412C576.095 81.9621 576.254 82.446 576.267 82.9929H574.786Z" fill="black" fill-opacity="0.8"/>
<path d="M312 64C312 28.6538 340.654 0 376 0V0C411.346 0 440 28.6538 440 64V64C440 99.3462 411.346 128 376 128V128C340.654 128 312 99.3462 312 64V64Z" fill="#C990C0"/>
<path d="M351.545 69V58.878H357.929L357.922 60.019H352.847V63.323H357.418V64.457H352.84V67.831L358.062 67.845V69H351.545ZM359.783 71.254V61.762H361.071L361.085 63.022C361.169 62.8727 361.276 62.7163 361.407 62.553C361.542 62.3897 361.706 62.238 361.897 62.098C362.093 61.958 362.319 61.8437 362.576 61.755C362.837 61.6663 363.134 61.622 363.465 61.622C364.044 61.622 364.552 61.755 364.991 62.021C365.434 62.2823 365.78 62.6837 366.027 63.225C366.274 63.7663 366.398 64.4523 366.398 65.283C366.398 66.1137 366.277 66.816 366.034 67.39C365.796 67.9593 365.451 68.3933 364.998 68.692C364.545 68.9907 363.999 69.14 363.36 69.14C363.038 69.14 362.751 69.0933 362.499 69C362.252 68.9113 362.035 68.7947 361.848 68.65C361.666 68.5007 361.512 68.342 361.386 68.174C361.265 68.006 361.164 67.845 361.085 67.691V71.254H359.783ZM363.115 68.132C363.712 68.132 364.2 67.9057 364.578 67.453C364.956 66.9957 365.145 66.2863 365.145 65.325C365.145 64.499 364.972 63.8433 364.627 63.358C364.282 62.8727 363.778 62.63 363.115 62.63C362.443 62.63 361.934 62.8797 361.589 63.379C361.244 63.8737 361.071 64.5223 361.071 65.325C361.071 65.843 361.148 66.3143 361.302 66.739C361.456 67.1637 361.685 67.502 361.988 67.754C362.291 68.006 362.667 68.132 363.115 68.132ZM368.158 69V61.762H369.411V69H368.158ZM368.123 60.229V58.885H369.446V60.229H368.123ZM374.186 69.14C373.682 69.14 373.213 69.063 372.779 68.909C372.349 68.7503 371.992 68.5053 371.708 68.174C371.423 67.838 371.246 67.411 371.176 66.893H372.352C372.412 67.1777 372.529 67.4157 372.702 67.607C372.874 67.7937 373.087 67.936 373.339 68.034C373.595 68.1273 373.875 68.174 374.179 68.174C374.669 68.174 375.063 68.083 375.362 67.901C375.66 67.719 375.81 67.439 375.81 67.061C375.81 66.795 375.73 66.5827 375.572 66.424C375.418 66.2607 375.175 66.1417 374.844 66.067L373.346 65.696C372.762 65.556 372.296 65.3367 371.946 65.038C371.6 64.7393 371.425 64.3217 371.421 63.785C371.421 63.3603 371.523 62.987 371.729 62.665C371.934 62.343 372.24 62.0887 372.646 61.902C373.056 61.7153 373.567 61.622 374.179 61.622C374.967 61.622 375.602 61.7993 376.083 62.154C376.563 62.504 376.815 63.0197 376.839 63.701H375.691C375.644 63.3557 375.49 63.0827 375.229 62.882C374.967 62.6767 374.613 62.574 374.165 62.574C373.707 62.574 373.332 62.6673 373.038 62.854C372.748 63.036 372.604 63.3207 372.604 63.708C372.604 63.9647 372.706 64.1677 372.912 64.317C373.122 64.4617 373.425 64.583 373.822 64.681L375.278 65.045C375.609 65.1337 375.884 65.2503 376.104 65.395C376.323 65.5397 376.496 65.7007 376.622 65.878C376.748 66.0553 376.836 66.242 376.888 66.438C376.944 66.6293 376.972 66.8137 376.972 66.991C376.972 67.4343 376.862 67.817 376.643 68.139C376.423 68.4563 376.106 68.7037 375.691 68.881C375.275 69.0537 374.774 69.14 374.186 69.14ZM381.562 69.14C380.894 69.14 380.311 68.9977 379.812 68.713C379.317 68.4237 378.932 68.0013 378.657 67.446C378.381 66.8907 378.244 66.2117 378.244 65.409C378.244 64.653 378.372 63.9903 378.629 63.421C378.885 62.8517 379.261 62.4107 379.756 62.098C380.25 61.7807 380.855 61.622 381.569 61.622C382.236 61.622 382.815 61.769 383.305 62.063C383.795 62.3523 384.175 62.7793 384.446 63.344C384.721 63.9087 384.859 64.597 384.859 65.409C384.859 66.1463 384.733 66.795 384.481 67.355C384.229 67.915 383.858 68.3537 383.368 68.671C382.882 68.9837 382.28 69.14 381.562 69.14ZM381.569 68.118C381.998 68.118 382.362 68.0083 382.661 67.789C382.959 67.5697 383.186 67.2547 383.34 66.844C383.498 66.4333 383.578 65.9457 383.578 65.381C383.578 64.863 383.508 64.3987 383.368 63.988C383.232 63.5727 383.018 63.2437 382.724 63.001C382.43 62.7583 382.045 62.637 381.569 62.637C381.13 62.637 380.759 62.7467 380.456 62.966C380.152 63.1807 379.921 63.4933 379.763 63.904C379.609 64.3147 379.532 64.807 379.532 65.381C379.532 65.8897 379.599 66.3517 379.735 66.767C379.875 67.1823 380.094 67.5113 380.393 67.754C380.696 67.9967 381.088 68.118 381.569 68.118ZM389.219 69.14C388.276 69.14 387.529 68.818 386.979 68.174C386.433 67.53 386.16 66.5897 386.16 65.353C386.16 64.6017 386.269 63.946 386.489 63.386C386.708 62.826 387.037 62.392 387.476 62.084C387.914 61.776 388.46 61.622 389.114 61.622C389.464 61.622 389.772 61.6663 390.038 61.755C390.304 61.8437 390.535 61.9557 390.731 62.091C390.927 62.2263 391.085 62.3663 391.207 62.511C391.333 62.6557 391.426 62.7887 391.487 62.91V58.598H392.796V69H391.802L391.662 67.516C391.615 67.656 391.54 67.8193 391.438 68.006C391.335 68.188 391.19 68.3677 391.004 68.545C390.822 68.7177 390.584 68.86 390.29 68.972C389.996 69.084 389.639 69.14 389.219 69.14ZM389.45 68.146C390.178 68.146 390.698 67.9243 391.011 67.481C391.328 67.033 391.487 66.3027 391.487 65.29C391.482 64.7253 391.412 64.2447 391.277 63.848C391.141 63.4513 390.927 63.1503 390.633 62.945C390.343 62.735 389.956 62.63 389.471 62.63C388.878 62.63 388.395 62.8423 388.022 63.267C387.648 63.6917 387.462 64.366 387.462 65.29C387.462 66.1953 387.63 66.8977 387.966 67.397C388.302 67.8963 388.796 68.146 389.45 68.146ZM397.992 69.14C397.32 69.14 396.728 68.993 396.214 68.699C395.701 68.405 395.3 67.9827 395.01 67.432C394.721 66.8813 394.576 66.221 394.576 65.451C394.576 64.6903 394.707 64.023 394.968 63.449C395.23 62.875 395.608 62.427 396.102 62.105C396.602 61.783 397.201 61.622 397.901 61.622C398.583 61.622 399.159 61.769 399.63 62.063C400.102 62.357 400.459 62.7723 400.701 63.309C400.949 63.841 401.072 64.4733 401.072 65.206V65.682H395.885C395.885 66.1393 395.96 66.5547 396.109 66.928C396.263 67.2967 396.494 67.5907 396.802 67.81C397.11 68.0293 397.5 68.139 397.971 68.139C398.433 68.139 398.83 68.0317 399.161 67.817C399.497 67.6023 399.712 67.292 399.805 66.886H401.023C400.939 67.376 400.743 67.789 400.435 68.125C400.132 68.461 399.766 68.7153 399.336 68.888C398.912 69.056 398.464 69.14 397.992 69.14ZM395.892 64.807H399.826C399.826 64.3917 399.756 64.0183 399.616 63.687C399.476 63.351 399.262 63.0873 398.972 62.896C398.688 62.7 398.328 62.602 397.894 62.602C397.442 62.602 397.066 62.7117 396.767 62.931C396.469 63.1457 396.247 63.4233 396.102 63.764C395.958 64.1 395.888 64.4477 395.892 64.807Z" fill="white"/>
<path d="M651 64C651 28.6538 679.654 0 715 0V0C750.346 0 779 28.6538 779 64V64C779 99.3462 750.346 128 715 128V128C679.654 128 651 99.3462 651 64V64Z" fill="#C990C0"/>
<path d="M690.545 69V58.878H696.929L696.922 60.019H691.847V63.323H696.418V64.457H691.84V67.831L697.062 67.845V69H690.545ZM698.783 71.254V61.762H700.071L700.085 63.022C700.169 62.8727 700.276 62.7163 700.407 62.553C700.542 62.3897 700.706 62.238 700.897 62.098C701.093 61.958 701.319 61.8437 701.576 61.755C701.837 61.6663 702.134 61.622 702.465 61.622C703.044 61.622 703.552 61.755 703.991 62.021C704.434 62.2823 704.78 62.6837 705.027 63.225C705.274 63.7663 705.398 64.4523 705.398 65.283C705.398 66.1137 705.277 66.816 705.034 67.39C704.796 67.9593 704.451 68.3933 703.998 68.692C703.545 68.9907 702.999 69.14 702.36 69.14C702.038 69.14 701.751 69.0933 701.499 69C701.252 68.9113 701.035 68.7947 700.848 68.65C700.666 68.5007 700.512 68.342 700.386 68.174C700.265 68.006 700.164 67.845 700.085 67.691V71.254H698.783ZM702.115 68.132C702.712 68.132 703.2 67.9057 703.578 67.453C703.956 66.9957 704.145 66.2863 704.145 65.325C704.145 64.499 703.972 63.8433 703.627 63.358C703.282 62.8727 702.778 62.63 702.115 62.63C701.443 62.63 700.934 62.8797 700.589 63.379C700.244 63.8737 700.071 64.5223 700.071 65.325C700.071 65.843 700.148 66.3143 700.302 66.739C700.456 67.1637 700.685 67.502 700.988 67.754C701.291 68.006 701.667 68.132 702.115 68.132ZM707.158 69V61.762H708.411V69H707.158ZM707.123 60.229V58.885H708.446V60.229H707.123ZM713.186 69.14C712.682 69.14 712.213 69.063 711.779 68.909C711.349 68.7503 710.992 68.5053 710.708 68.174C710.423 67.838 710.246 67.411 710.176 66.893H711.352C711.412 67.1777 711.529 67.4157 711.702 67.607C711.874 67.7937 712.087 67.936 712.339 68.034C712.595 68.1273 712.875 68.174 713.179 68.174C713.669 68.174 714.063 68.083 714.362 67.901C714.66 67.719 714.81 67.439 714.81 67.061C714.81 66.795 714.73 66.5827 714.572 66.424C714.418 66.2607 714.175 66.1417 713.844 66.067L712.346 65.696C711.762 65.556 711.296 65.3367 710.946 65.038C710.6 64.7393 710.425 64.3217 710.421 63.785C710.421 63.3603 710.523 62.987 710.729 62.665C710.934 62.343 711.24 62.0887 711.646 61.902C712.056 61.7153 712.567 61.622 713.179 61.622C713.967 61.622 714.602 61.7993 715.083 62.154C715.563 62.504 715.815 63.0197 715.839 63.701H714.691C714.644 63.3557 714.49 63.0827 714.229 62.882C713.967 62.6767 713.613 62.574 713.165 62.574C712.707 62.574 712.332 62.6673 712.038 62.854C711.748 63.036 711.604 63.3207 711.604 63.708C711.604 63.9647 711.706 64.1677 711.912 64.317C712.122 64.4617 712.425 64.583 712.822 64.681L714.278 65.045C714.609 65.1337 714.884 65.2503 715.104 65.395C715.323 65.5397 715.496 65.7007 715.622 65.878C715.748 66.0553 715.836 66.242 715.888 66.438C715.944 66.6293 715.972 66.8137 715.972 66.991C715.972 67.4343 715.862 67.817 715.643 68.139C715.423 68.4563 715.106 68.7037 714.691 68.881C714.275 69.0537 713.774 69.14 713.186 69.14ZM720.562 69.14C719.894 69.14 719.311 68.9977 718.812 68.713C718.317 68.4237 717.932 68.0013 717.657 67.446C717.381 66.8907 717.244 66.2117 717.244 65.409C717.244 64.653 717.372 63.9903 717.629 63.421C717.885 62.8517 718.261 62.4107 718.756 62.098C719.25 61.7807 719.855 61.622 720.569 61.622C721.236 61.622 721.815 61.769 722.305 62.063C722.795 62.3523 723.175 62.7793 723.446 63.344C723.721 63.9087 723.859 64.597 723.859 65.409C723.859 66.1463 723.733 66.795 723.481 67.355C723.229 67.915 722.858 68.3537 722.368 68.671C721.882 68.9837 721.28 69.14 720.562 69.14ZM720.569 68.118C720.998 68.118 721.362 68.0083 721.661 67.789C721.959 67.5697 722.186 67.2547 722.34 66.844C722.498 66.4333 722.578 65.9457 722.578 65.381C722.578 64.863 722.508 64.3987 722.368 63.988C722.232 63.5727 722.018 63.2437 721.724 63.001C721.43 62.7583 721.045 62.637 720.569 62.637C720.13 62.637 719.759 62.7467 719.456 62.966C719.152 63.1807 718.921 63.4933 718.763 63.904C718.609 64.3147 718.532 64.807 718.532 65.381C718.532 65.8897 718.599 66.3517 718.735 66.767C718.875 67.1823 719.094 67.5113 719.393 67.754C719.696 67.9967 720.088 68.118 720.569 68.118ZM728.219 69.14C727.276 69.14 726.529 68.818 725.979 68.174C725.433 67.53 725.16 66.5897 725.16 65.353C725.16 64.6017 725.269 63.946 725.489 63.386C725.708 62.826 726.037 62.392 726.476 62.084C726.914 61.776 727.46 61.622 728.114 61.622C728.464 61.622 728.772 61.6663 729.038 61.755C729.304 61.8437 729.535 61.9557 729.731 62.091C729.927 62.2263 730.085 62.3663 730.207 62.511C730.333 62.6557 730.426 62.7887 730.487 62.91V58.598H731.796V69H730.802L730.662 67.516C730.615 67.656 730.54 67.8193 730.438 68.006C730.335 68.188 730.19 68.3677 730.004 68.545C729.822 68.7177 729.584 68.86 729.29 68.972C728.996 69.084 728.639 69.14 728.219 69.14ZM728.45 68.146C729.178 68.146 729.698 67.9243 730.011 67.481C730.328 67.033 730.487 66.3027 730.487 65.29C730.482 64.7253 730.412 64.2447 730.277 63.848C730.141 63.4513 729.927 63.1503 729.633 62.945C729.343 62.735 728.956 62.63 728.471 62.63C727.878 62.63 727.395 62.8423 727.022 63.267C726.648 63.6917 726.462 64.366 726.462 65.29C726.462 66.1953 726.63 66.8977 726.966 67.397C727.302 67.8963 727.796 68.146 728.45 68.146ZM736.992 69.14C736.32 69.14 735.728 68.993 735.214 68.699C734.701 68.405 734.3 67.9827 734.01 67.432C733.721 66.8813 733.576 66.221 733.576 65.451C733.576 64.6903 733.707 64.023 733.968 63.449C734.23 62.875 734.608 62.427 735.102 62.105C735.602 61.783 736.201 61.622 736.901 61.622C737.583 61.622 738.159 61.769 738.63 62.063C739.102 62.357 739.459 62.7723 739.701 63.309C739.949 63.841 740.072 64.4733 740.072 65.206V65.682H734.885C734.885 66.1393 734.96 66.5547 735.109 66.928C735.263 67.2967 735.494 67.5907 735.802 67.81C736.11 68.0293 736.5 68.139 736.971 68.139C737.433 68.139 737.83 68.0317 738.161 67.817C738.497 67.6023 738.712 67.292 738.805 66.886H740.023C739.939 67.376 739.743 67.789 739.435 68.125C739.132 68.461 738.766 68.7153 738.336 68.888C737.912 69.056 737.464 69.14 736.992 69.14ZM734.892 64.807H738.826C738.826 64.3917 738.756 64.0183 738.616 63.687C738.476 63.351 738.262 63.0873 737.972 62.896C737.688 62.7 737.328 62.602 736.894 62.602C736.442 62.602 736.066 62.7117 735.767 62.931C735.469 63.1457 735.247 63.4233 735.102 63.764C734.958 64.1 734.888 64.4477 734.892 64.807Z" fill="white"/>
<path d="M0 64C0 28.6538 28.6538 0 64 0V0C99.3462 0 128 28.6538 128 64V64C128 99.3462 99.3462 128 64 128V128C28.6538 128 0 99.3462 0 64V64Z" fill="#C990C0"/>
<path d="M39.545 69V58.878H45.929L45.922 60.019H40.847V63.323H45.418V64.457H40.84V67.831L46.062 67.845V69H39.545ZM47.7829 71.254V61.762H49.0709L49.0849 63.022C49.1689 62.8727 49.2762 62.7163 49.4069 62.553C49.5422 62.3897 49.7056 62.238 49.8969 62.098C50.0929 61.958 50.3192 61.8437 50.5759 61.755C50.8372 61.6663 51.1336 61.622 51.4649 61.622C52.0436 61.622 52.5522 61.755 52.9909 62.021C53.4342 62.2823 53.7796 62.6837 54.0269 63.225C54.2742 63.7663 54.3979 64.4523 54.3979 65.283C54.3979 66.1137 54.2766 66.816 54.0339 67.39C53.7959 67.9593 53.4506 68.3933 52.9979 68.692C52.5452 68.9907 51.9992 69.14 51.3599 69.14C51.0379 69.14 50.7509 69.0933 50.4989 69C50.2516 68.9113 50.0346 68.7947 49.8479 68.65C49.6659 68.5007 49.5119 68.342 49.3859 68.174C49.2646 68.006 49.1642 67.845 49.0849 67.691V71.254H47.7829ZM51.1149 68.132C51.7122 68.132 52.1999 67.9057 52.5779 67.453C52.9559 66.9957 53.1449 66.2863 53.1449 65.325C53.1449 64.499 52.9722 63.8433 52.6269 63.358C52.2816 62.8727 51.7776 62.63 51.1149 62.63C50.4429 62.63 49.9342 62.8797 49.5889 63.379C49.2436 63.8737 49.0709 64.5223 49.0709 65.325C49.0709 65.843 49.1479 66.3143 49.3019 66.739C49.4559 67.1637 49.6846 67.502 49.9879 67.754C50.2912 68.006 50.6669 68.132 51.1149 68.132ZM56.1578 69V61.762H57.4108V69H56.1578ZM56.1228 60.229V58.885H57.4458V60.229H56.1228ZM62.1857 69.14C61.6817 69.14 61.2127 69.063 60.7787 68.909C60.3494 68.7503 59.9924 68.5053 59.7077 68.174C59.4231 67.838 59.2457 67.411 59.1757 66.893H60.3517C60.4124 67.1777 60.5291 67.4157 60.7017 67.607C60.8744 67.7937 61.0867 67.936 61.3387 68.034C61.5954 68.1273 61.8754 68.174 62.1787 68.174C62.6687 68.174 63.0631 68.083 63.3617 67.901C63.6604 67.719 63.8097 67.439 63.8097 67.061C63.8097 66.795 63.7304 66.5827 63.5717 66.424C63.4177 66.2607 63.1751 66.1417 62.8437 66.067L61.3457 65.696C60.7624 65.556 60.2957 65.3367 59.9457 65.038C59.6004 64.7393 59.4254 64.3217 59.4207 63.785C59.4207 63.3603 59.5234 62.987 59.7287 62.665C59.9341 62.343 60.2397 62.0887 60.6457 61.902C61.0564 61.7153 61.5674 61.622 62.1787 61.622C62.9674 61.622 63.6021 61.7993 64.0827 62.154C64.5634 62.504 64.8154 63.0197 64.8387 63.701H63.6907C63.6441 63.3557 63.4901 63.0827 63.2287 62.882C62.9674 62.6767 62.6127 62.574 62.1647 62.574C61.7074 62.574 61.3317 62.6673 61.0377 62.854C60.7484 63.036 60.6037 63.3207 60.6037 63.708C60.6037 63.9647 60.7064 64.1677 60.9117 64.317C61.1217 64.4617 61.4251 64.583 61.8217 64.681L63.2777 65.045C63.6091 65.1337 63.8844 65.2503 64.1037 65.395C64.3231 65.5397 64.4957 65.7007 64.6217 65.878C64.7477 66.0553 64.8364 66.242 64.8877 66.438C64.9437 66.6293 64.9717 66.8137 64.9717 66.991C64.9717 67.4343 64.8621 67.817 64.6427 68.139C64.4234 68.4563 64.1061 68.7037 63.6907 68.881C63.2754 69.0537 62.7737 69.14 62.1857 69.14ZM69.5618 69.14C68.8944 69.14 68.3111 68.9977 67.8118 68.713C67.3171 68.4237 66.9321 68.0013 66.6568 67.446C66.3814 66.8907 66.2438 66.2117 66.2438 65.409C66.2438 64.653 66.3721 63.9903 66.6288 63.421C66.8854 62.8517 67.2611 62.4107 67.7558 62.098C68.2504 61.7807 68.8548 61.622 69.5688 61.622C70.2361 61.622 70.8148 61.769 71.3048 62.063C71.7948 62.3523 72.1751 62.7793 72.4458 63.344C72.7211 63.9087 72.8588 64.597 72.8588 65.409C72.8588 66.1463 72.7328 66.795 72.4808 67.355C72.2288 67.915 71.8578 68.3537 71.3678 68.671C70.8824 68.9837 70.2804 69.14 69.5618 69.14ZM69.5688 68.118C69.9981 68.118 70.3621 68.0083 70.6608 67.789C70.9594 67.5697 71.1858 67.2547 71.3398 66.844C71.4984 66.4333 71.5778 65.9457 71.5778 65.381C71.5778 64.863 71.5078 64.3987 71.3678 63.988C71.2324 63.5727 71.0178 63.2437 70.7238 63.001C70.4298 62.7583 70.0448 62.637 69.5688 62.637C69.1301 62.637 68.7591 62.7467 68.4558 62.966C68.1524 63.1807 67.9214 63.4933 67.7628 63.904C67.6088 64.3147 67.5318 64.807 67.5318 65.381C67.5318 65.8897 67.5994 66.3517 67.7348 66.767C67.8748 67.1823 68.0941 67.5113 68.3928 67.754C68.6961 67.9967 69.0881 68.118 69.5688 68.118ZM77.2188 69.14C76.2761 69.14 75.5295 68.818 74.9788 68.174C74.4328 67.53 74.1598 66.5897 74.1598 65.353C74.1598 64.6017 74.2695 63.946 74.4888 63.386C74.7081 62.826 75.0371 62.392 75.4758 62.084C75.9145 61.776 76.4605 61.622 77.1138 61.622C77.4638 61.622 77.7718 61.6663 78.0378 61.755C78.3038 61.8437 78.5348 61.9557 78.7308 62.091C78.9268 62.2263 79.0855 62.3663 79.2068 62.511C79.3328 62.6557 79.4261 62.7887 79.4868 62.91V58.598H80.7958V69H79.8018L79.6618 67.516C79.6151 67.656 79.5405 67.8193 79.4378 68.006C79.3351 68.188 79.1905 68.3677 79.0038 68.545C78.8218 68.7177 78.5838 68.86 78.2898 68.972C77.9958 69.084 77.6388 69.14 77.2188 69.14ZM77.4498 68.146C78.1778 68.146 78.6981 67.9243 79.0108 67.481C79.3281 67.033 79.4868 66.3027 79.4868 65.29C79.4821 64.7253 79.4121 64.2447 79.2768 63.848C79.1415 63.4513 78.9268 63.1503 78.6328 62.945C78.3435 62.735 77.9561 62.63 77.4708 62.63C76.8781 62.63 76.3951 62.8423 76.0218 63.267C75.6485 63.6917 75.4618 64.366 75.4618 65.29C75.4618 66.1953 75.6298 66.8977 75.9658 67.397C76.3018 67.8963 76.7965 68.146 77.4498 68.146ZM85.9923 69.14C85.3203 69.14 84.7276 68.993 84.2143 68.699C83.701 68.405 83.2996 67.9827 83.0103 67.432C82.721 66.8813 82.5763 66.221 82.5763 65.451C82.5763 64.6903 82.707 64.023 82.9683 63.449C83.2296 62.875 83.6076 62.427 84.1023 62.105C84.6016 61.783 85.2013 61.622 85.9013 61.622C86.5826 61.622 87.159 61.769 87.6303 62.063C88.1016 62.357 88.4586 62.7723 88.7013 63.309C88.9486 63.841 89.0723 64.4733 89.0723 65.206V65.682H83.8853C83.8853 66.1393 83.96 66.5547 84.1093 66.928C84.2633 67.2967 84.4943 67.5907 84.8023 67.81C85.1103 68.0293 85.5 68.139 85.9713 68.139C86.4333 68.139 86.83 68.0317 87.1613 67.817C87.4973 67.6023 87.712 67.292 87.8053 66.886H89.0233C88.9393 67.376 88.7433 67.789 88.4353 68.125C88.132 68.461 87.7656 68.7153 87.3363 68.888C86.9116 69.056 86.4636 69.14 85.9923 69.14ZM83.8923 64.807H87.8263C87.8263 64.3917 87.7563 64.0183 87.6163 63.687C87.4763 63.351 87.2616 63.0873 86.9723 62.896C86.6876 62.7 86.3283 62.602 85.8943 62.602C85.4416 62.602 85.066 62.7117 84.7673 62.931C84.4686 63.1457 84.247 63.4233 84.1023 63.764C83.9576 64.1 83.8876 64.4477 83.8923 64.807Z" fill="white"/>
</svg>
