<svg xmlns="http://www.w3.org/2000/svg" width="624" height="394" viewBox="0 0 624 394"><defs><style type="text/css"/></defs><g transform="translate(477.7760649870382 162.13804836186102) scale(1)"><g class="relationship"><g transform="translate(-227.01937730987845 -121.13804836186102) rotate(89.99999999999999)" stroke-width="1" stroke="#A5ABB6"><path d="M 27 0 L 100.67375350740998 0"/><polygon points="-9.45,0 -10.5,3.5 0,0 -10.5,-3.5" fill="#A5ABB6" transform="translate(110.12375350740999 0) rotate(0)" stroke="none"/></g><g transform="translate(-227.01937730987842 -57.30117160815603) rotate(0) translate(0 -7)"><g transform="translate(0 0)"><g transform="translate(-42 0)" fill="#ffffff" stroke="#000000" stroke-width="0"><rect x="0" y="0" width="84" height="14" rx="2" ry="2" stroke="none"/><text xml:space="preserve" x="2" y="9.78564453125" stroke="none" text-anchor="left" font-family="sans-serif" font-size="10" font-weight="normal" fill="#000000">WORKED_FROM</text></g></g></g></g><g class="relationship"><g transform="translate(-227.01937730987842 15.985705145548962) rotate(59.99999999999999)" stroke-width="1" stroke="#A5ABB6"><path d="M 27 0 L 164.97840866648602 0"/><polygon points="-9.45,0 -10.5,3.5 0,0 -10.5,-3.5" fill="#A5ABB6" transform="translate(174.428408666486 0) rotate(0)" stroke="none"/></g><g transform="translate(-179.0247751432569 99.11479458719272) rotate(59.99999999999999) translate(0 -7)"><g transform="translate(0 0)"><g transform="translate(-23.396484375 0)" fill="#ffffff" stroke="#000000" stroke-width="0"><rect x="0" y="0" width="46.79296875" height="14" rx="2" ry="2" stroke="none"/><text xml:space="preserve" x="2" y="9.78564453125" stroke="none" text-anchor="left" font-family="sans-serif" font-size="10" font-weight="normal" fill="#000000">IN_ROLE</text></g></g></g></g><g class="relationship"><g transform="translate(-227.01937730987842 15.985705145548962) rotate(133.9898886398892)" stroke-width="1" stroke="#A5ABB6"><path d="M 27 0 L 206.01176560506153 0"/><polygon points="-9.45,0 -10.5,3.5 0,0 -10.5,-3.5" fill="#A5ABB6" transform="translate(215.46176560506152 0) rotate(0)" stroke="none"/></g><g transform="translate(-307.93637272177995 99.8073048744216) rotate(313.98988863988916) translate(0 -7)"><g transform="translate(0 0)"><g transform="translate(-35.71337890625 0)" fill="#ffffff" stroke="#000000" stroke-width="0"><rect x="0" y="0" width="71.4267578125" height="14" rx="2" ry="2" stroke="none"/><text xml:space="preserve" x="2" y="9.78564453125" stroke="none" text-anchor="left" font-family="sans-serif" font-size="10" font-weight="normal" fill="#000000">AT_COMPANY</text></g></g></g></g><g class="relationship"><g transform="translate(-227.01937730987845 -121.13804836186102) rotate(34.49655350378296)" stroke-width="1" stroke="#A5ABB6"><path d="M 27 0 L 205.66554766061995 0"/><polygon points="-9.45,0 -10.5,3.5 0,0 -10.5,-3.5" fill="#A5ABB6" transform="translate(215.11554766061994 0) rotate(0)" stroke="none"/></g><g transform="translate(-131.1425284161254 -55.25220683837058) rotate(0) translate(0 -7)"><g transform="translate(0 0)"><g transform="translate(-42 0)" fill="#ffffff" stroke="#000000" stroke-width="0"><rect x="0" y="0" width="84" height="14" rx="2" ry="2" stroke="none"/><text xml:space="preserve" x="2" y="9.78564453125" stroke="none" text-anchor="left" font-family="sans-serif" font-size="10" font-weight="normal" fill="#000000">WORKED_FROM</text></g></g></g></g><g class="relationship"><g transform="translate(-27.47736508427971 15.985705145548962) rotate(90)" stroke-width="1" stroke="#A5ABB6"><path d="M 27 0 L 137.99211894905045 0"/><polygon points="-9.45,0 -10.5,3.5 0,0 -10.5,-3.5" fill="#A5ABB6" transform="translate(147.44211894905047 0) rotate(0)" stroke="none"/></g><g transform="translate(-27.477365084279707 98.48176462007419) rotate(0) translate(0 -7)"><g transform="translate(0 0)"><g transform="translate(-23.396484375 0)" fill="#ffffff" stroke="#000000" stroke-width="0"><rect x="0" y="0" width="46.79296875" height="14" rx="2" ry="2" stroke="none"/><text xml:space="preserve" x="2" y="9.78564453125" stroke="none" text-anchor="left" font-family="sans-serif" font-size="10" font-weight="normal" fill="#000000">IN_ROLE</text></g></g></g></g><g class="relationship"><g transform="translate(-395.4166899870382 -121.13804836186102) rotate(90)" stroke-width="1" stroke="#A5ABB6"><path d="M 27 0 L 100.67375350740998 0"/><polygon points="-9.45,0 -10.5,3.5 0,0 -10.5,-3.5" fill="#A5ABB6" transform="translate(110.12375350740999 0) rotate(0)" stroke="none"/></g><g transform="translate(-395.4166899870382 -57.30117160815603) rotate(0) translate(0 -7)"><g transform="translate(0 0)"><g transform="translate(-42 0)" fill="#ffffff" stroke="#000000" stroke-width="0"><rect x="0" y="0" width="84" height="14" rx="2" ry="2" stroke="none"/><text xml:space="preserve" x="2" y="9.78564453125" stroke="none" text-anchor="left" font-family="sans-serif" font-size="10" font-weight="normal" fill="#000000">WORKED_FROM</text></g></g></g></g><g class="relationship"><g transform="translate(-395.4166899870382 15.985705145548962) rotate(90)" stroke-width="1" stroke="#A5ABB6"><path d="M 27 0 L 137.99211894905045 0"/><polygon points="-9.45,0 -10.5,3.5 0,0 -10.5,-3.5" fill="#A5ABB6" transform="translate(147.44211894905047 0) rotate(0)" stroke="none"/></g></g><g class="relationship"><g transform="translate(-27.47736508427971 15.985705145548962) rotate(51.43261546555941)" stroke-width="1" stroke="#A5ABB6"><path d="M 27 0 L 186.65728719796522 0"/><polygon points="-9.45,0 -10.5,3.5 0,0 -10.5,-3.5" fill="#A5ABB6" transform="translate(196.1072871979652 0) rotate(0)" stroke="none"/></g><g transform="translate(39.12330945060698 99.51240294150246) rotate(51.43261546555941) translate(0 -7)"><g transform="translate(0 0)"><g transform="translate(-35.71337890625 0)" fill="#ffffff" stroke="#000000" stroke-width="0"><rect x="0" y="0" width="71.4267578125" height="14" rx="2" ry="2" stroke="none"/><text xml:space="preserve" x="2" y="9.78564453125" stroke="none" text-anchor="left" font-family="sans-serif" font-size="10" font-weight="normal" fill="#000000">AT_COMPANY</text></g></g></g></g><g class="relationship"><g transform="translate(-395.4166899870382 15.985705145548962) rotate(25.365895137388332)" stroke-width="1" stroke="#A5ABB6"><path d="M 27 0 L 370.7470035171334 0"/><polygon points="-9.45,0 -10.5,3.5 0,0 -10.5,-3.5" fill="#A5ABB6" transform="translate(380.1970035171334 0) rotate(0)" stroke="none"/></g><g transform="translate(-215.7164924264839 101.18258712143114) rotate(25.365895137388332) translate(0 -7)"><g transform="translate(0 0)"><g transform="translate(-23.396484375 0)" fill="#ffffff" stroke="#000000" stroke-width="0"><rect x="0" y="0" width="46.79296875" height="14" rx="2" ry="2" stroke="none"/><text xml:space="preserve" x="2" y="9.78564453125" stroke="none" text-anchor="left" font-family="sans-serif" font-size="10" font-weight="normal" fill="#000000">IN_ROLE</text></g></g></g></g><g class="node"><g fill="#4C8EDA" stroke="#2870c2" stroke-width="2"><circle cx="-227.01937730987845" cy="-121.13804836186102" r="26"/></g><g transform="translate(-227.01937730987845 -121.13804836186102)"><g transform="scale(0.8157408233556053) translate(0 -7.5)"><g transform="translate(0 0)"><g transform="translate(-23.34228515625 0)"><g fill="#ffffff" stroke="#000000" stroke-width="1"><rect x="0" y="0" width="46.6845703125" height="15" rx="7.5" ry="7.5"/><text xml:space="preserve" x="7.5" y="10.28564453125" stroke="none" font-family="sans-serif" font-size="10" font-weight="normal" fill="#000000">Person</text></g></g></g></g><g transform="translate(1.7757378587636622e-15 -41)"><g transform="translate(0 0)"><g transform="translate(-33.3447265625 0)" fill="white"><rect x="0" y="0" width="66.689453125" height="12" rx="0" ry="0" stroke="none"/><g font-family="sans-serif" font-size="10" font-weight="normal" fill="#000000" text-anchor="end"><text xml:space="preserve" x="30.5712890625" y="8.78564453125" stroke="none">name:</text><text xml:space="preserve" x="33.349609375" y="8.78564453125" stroke="none" text-anchor="start">Patrick</text></g></g></g></g></g></g><g class="node"><g fill="#aea1ff" stroke="#7b64ff" stroke-width="2"><circle cx="-227.01937730987842" cy="15.985705145548962" r="26"/></g><g transform="translate(-227.01937730987842 15.985705145548962)"><g transform="scale(0.5543806645876861) translate(0 -7.5)"><g transform="translate(0 0)"><g transform="translate(-35.2880859375 0)"><g fill="#ffffff" stroke="#000000" stroke-width="1"><rect x="0" y="0" width="70.576171875" height="15" rx="7.5" ry="7.5"/><text xml:space="preserve" x="7.5" y="10.28564453125" stroke="none" font-family="sans-serif" font-size="10" font-weight="normal" fill="#000000">Employment</text></g></g></g></g><g transform="translate(-29 -11.999999999999996)"><g transform="translate(0 0)"><g transform="translate(-53.359375 0)" fill="white"><rect x="0" y="0" width="53.359375" height="24" rx="0" ry="0" stroke="none"/><g font-family="sans-serif" font-size="10" font-weight="normal" fill="#000000" text-anchor="end"><text xml:space="preserve" x="25.556640625" y="8.78564453125" stroke="none">from:</text><text xml:space="preserve" x="28.3349609375" y="8.78564453125" stroke="none" text-anchor="start">2001</text><text xml:space="preserve" x="25.556640625" y="20.78564453125" stroke="none" text-anchor="end">to:</text><text xml:space="preserve" x="28.3349609375" y="20.78564453125" stroke="none" text-anchor="start">2005</text></g></g></g></g></g></g><g class="node"><g fill="#b0bc00" stroke="#808900" stroke-width="2"><circle cx="-126.3051729766354" cy="190.42782409459943" r="26"/></g><g transform="translate(-126.3051729766354 190.42782409459943)"><g transform="scale(0.7582411585540744) translate(0 -7.5)"><g transform="translate(0 0)"><g transform="translate(-25.2880859375 0)"><g fill="#ffffff" stroke="#000000" stroke-width="1"><rect x="0" y="0" width="50.576171875" height="15" rx="7.5" ry="7.5"/><text xml:space="preserve" x="7.5" y="10.28564453125" stroke="none" font-family="sans-serif" font-size="10" font-weight="normal" fill="#000000">Position</text></g></g></g></g><g transform="translate(1.7757378587636622e-15 29)"><g transform="translate(0 0)"><g transform="translate(-56.41845703125 0)" fill="white"><rect x="0" y="0" width="112.8369140625" height="12" rx="0" ry="0" stroke="none"/><g font-family="sans-serif" font-size="10" font-weight="normal" fill="#000000" text-anchor="end"><text xml:space="preserve" x="21.1181640625" y="8.78564453125" stroke="none">title:</text><text xml:space="preserve" x="23.896484375" y="8.78564453125" stroke="none" text-anchor="start">Software developer</text></g></g></g></g></g></g><g class="node"><g fill="#fe9200" stroke="#e27300" stroke-width="2"><circle cx="-395.4166899870382" cy="190.42782409459943" r="26"/></g><g transform="translate(-395.4166899870382 190.42782409459943)"><g transform="scale(0.6698756471294153) translate(0 -7.5)"><g transform="translate(0 0)"><g transform="translate(-28.89892578125 0)"><g fill="#ffffff" stroke="#000000" stroke-width="1"><rect x="0" y="0" width="57.7978515625" height="15" rx="7.5" ry="7.5"/><text xml:space="preserve" x="7.5" y="10.28564453125" stroke="none" font-family="sans-serif" font-size="10" font-weight="normal" fill="#000000">Company</text></g></g></g></g><g transform="translate(1.7757378587636622e-15 29)"><g transform="translate(0 0)"><g transform="translate(-30.8447265625 0)" fill="white"><rect x="0" y="0" width="61.689453125" height="12" rx="0" ry="0" stroke="none"/><g font-family="sans-serif" font-size="10" font-weight="normal" fill="#000000" text-anchor="end"><text xml:space="preserve" x="30.5712890625" y="8.78564453125" stroke="none">name:</text><text xml:space="preserve" x="33.349609375" y="8.78564453125" stroke="none" text-anchor="start">Acme</text></g></g></g></g></g></g><g class="node"><g fill="#4C8EDA" stroke="#2870c2" stroke-width="2"><circle cx="-395.4166899870382" cy="-121.13804836186102" r="26"/></g><g transform="translate(-395.4166899870382 -121.13804836186102)"><g transform="scale(0.8157408233556053) translate(0 -7.5)"><g transform="translate(0 0)"><g transform="translate(-23.34228515625 0)"><g fill="#ffffff" stroke="#000000" stroke-width="1"><rect x="0" y="0" width="46.6845703125" height="15" rx="7.5" ry="7.5"/><text xml:space="preserve" x="7.5" y="10.28564453125" stroke="none" font-family="sans-serif" font-size="10" font-weight="normal" fill="#000000">Person</text></g></g></g></g><g transform="translate(1.7757378587636622e-15 -41)"><g transform="translate(0 0)"><g transform="translate(-30.84716796875 0)" fill="white"><rect x="0" y="0" width="61.6943359375" height="12" rx="0" ry="0" stroke="none"/><g font-family="sans-serif" font-size="10" font-weight="normal" fill="#000000" text-anchor="end"><text xml:space="preserve" x="30.5712890625" y="8.78564453125" stroke="none">name:</text><text xml:space="preserve" x="33.349609375" y="8.78564453125" stroke="none" text-anchor="start">David</text></g></g></g></g></g></g><g class="node"><g fill="#aea1ff" stroke="#7b64ff" stroke-width="2"><circle cx="-27.47736508427971" cy="15.985705145548962" r="26"/></g><g transform="translate(-27.47736508427971 15.985705145548962)"><g transform="scale(0.5543806645876861) translate(0 -7.5)"><g transform="translate(0 0)"><g transform="translate(-35.2880859375 0)"><g fill="#ffffff" stroke="#000000" stroke-width="1"><rect x="0" y="0" width="70.576171875" height="15" rx="7.5" ry="7.5"/><text xml:space="preserve" x="7.5" y="10.28564453125" stroke="none" font-family="sans-serif" font-size="10" font-weight="normal" fill="#000000">Employment</text></g></g></g></g><g transform="translate(-29 -11.999999999999996)"><g transform="translate(0 0)"><g transform="translate(-53.359375 0)" fill="white"><rect x="0" y="0" width="53.359375" height="24" rx="0" ry="0" stroke="none"/><g font-family="sans-serif" font-size="10" font-weight="normal" fill="#000000" text-anchor="end"><text xml:space="preserve" x="25.556640625" y="8.78564453125" stroke="none">from:</text><text xml:space="preserve" x="28.3349609375" y="8.78564453125" stroke="none" text-anchor="start">2005</text><text xml:space="preserve" x="25.556640625" y="20.78564453125" stroke="none" text-anchor="end">to:</text><text xml:space="preserve" x="28.3349609375" y="20.78564453125" stroke="none" text-anchor="start">2009</text></g></g></g></g></g></g><g class="node"><g fill="#b0bc00" stroke="#808900" stroke-width="2"><circle cx="-27.47736508427971" cy="190.42782409459943" r="26"/></g><g transform="translate(-27.47736508427971 190.42782409459943)"><g transform="scale(0.7582411585540744) translate(0 -7.5)"><g transform="translate(0 0)"><g transform="translate(-25.2880859375 0)"><g fill="#ffffff" stroke="#000000" stroke-width="1"><rect x="0" y="0" width="50.576171875" height="15" rx="7.5" ry="7.5"/><text xml:space="preserve" x="7.5" y="10.28564453125" stroke="none" font-family="sans-serif" font-size="10" font-weight="normal" fill="#000000">Position</text></g></g></g></g><g transform="translate(1.7757378587636622e-15 29)"><g transform="translate(0 0)"><g transform="translate(-20.5615234375 0)" fill="white"><rect x="0" y="0" width="41.123046875" height="12" rx="0" ry="0" stroke="none"/><g font-family="sans-serif" font-size="10" font-weight="normal" fill="#000000" text-anchor="end"><text xml:space="preserve" x="21.1181640625" y="8.78564453125" stroke="none">title:</text><text xml:space="preserve" x="23.896484375" y="8.78564453125" stroke="none" text-anchor="start">QA</text></g></g></g></g></g></g><g class="node"><g fill="#aea1ff" stroke="#7b64ff" stroke-width="2"><circle cx="-395.4166899870382" cy="15.985705145548962" r="26"/></g><g transform="translate(-395.4166899870382 15.985705145548962)"><g transform="scale(0.5543806645876861) translate(0 -7.5)"><g transform="translate(0 0)"><g transform="translate(-35.2880859375 0)"><g fill="#ffffff" stroke="#000000" stroke-width="1"><rect x="0" y="0" width="70.576171875" height="15" rx="7.5" ry="7.5"/><text xml:space="preserve" x="7.5" y="10.28564453125" stroke="none" font-family="sans-serif" font-size="10" font-weight="normal" fill="#000000">Employment</text></g></g></g></g><g transform="translate(-29 -11.999999999999996)"><g transform="translate(0 0)"><g transform="translate(-53.359375 0)" fill="white"><rect x="0" y="0" width="53.359375" height="24" rx="0" ry="0" stroke="none"/><g font-family="sans-serif" font-size="10" font-weight="normal" fill="#000000" text-anchor="end"><text xml:space="preserve" x="25.556640625" y="8.78564453125" stroke="none">from:</text><text xml:space="preserve" x="28.3349609375" y="8.78564453125" stroke="none" text-anchor="start">2004</text><text xml:space="preserve" x="25.556640625" y="20.78564453125" stroke="none" text-anchor="end">to:</text><text xml:space="preserve" x="28.3349609375" y="20.78564453125" stroke="none" text-anchor="start">2008</text></g></g></g></g></g></g><g class="node"><g fill="#fe9200" stroke="#e27300" stroke-width="2"><circle cx="111.61544111863162" cy="190.42782409459943" r="26"/></g><g transform="translate(111.61544111863162 190.42782409459943)"><g transform="scale(0.6698756471294153) translate(0 -7.5)"><g transform="translate(0 0)"><g transform="translate(-28.89892578125 0)"><g fill="#ffffff" stroke="#000000" stroke-width="1"><rect x="0" y="0" width="57.7978515625" height="15" rx="7.5" ry="7.5"/><text xml:space="preserve" x="7.5" y="10.28564453125" stroke="none" font-family="sans-serif" font-size="10" font-weight="normal" fill="#000000">Company</text></g></g></g></g><g transform="translate(1.7757378587636622e-15 29)"><g transform="translate(0 0)"><g transform="translate(-34.1845703125 0)" fill="white"><rect x="0" y="0" width="68.369140625" height="12" rx="0" ry="0" stroke="none"/><g font-family="sans-serif" font-size="10" font-weight="normal" fill="#000000" text-anchor="end"><text xml:space="preserve" x="30.5712890625" y="8.78564453125" stroke="none">name:</text><text xml:space="preserve" x="33.349609375" y="8.78564453125" stroke="none" text-anchor="start">Startup</text></g></g></g></g></g></g></g></svg>