<?xml version="1.0" encoding="UTF-8" standalone="no"?>
<!DOCTYPE svg PUBLIC "-//W3C//DTD SVG 1.1//EN"
 "http://www.w3.org/Graphics/SVG/1.1/DTD/svg11.dtd">
<!-- Generated by graphviz version 2.44.0 ()
 -->
<!-- Title: L Pages: 1 -->
<svg width="210pt" height="47pt"
 viewBox="0.00 0.00 210.00 47.00" xmlns="http://www.w3.org/2000/svg" xmlns:xlink="http://www.w3.org/1999/xlink">
<g id="graph0" class="graph" transform="scale(1 1) rotate(0) translate(4 43)">
<title>L</title>
<polygon fill="white" stroke="transparent" points="-4,4 -4,-43 206,-43 206,4 -4,4"/>
<!-- N2 -->
<g id="node1" class="node">
<title>N2</title>
<path fill="none" stroke="black" d="M12,-0.5C12,-0.5 120,-0.5 120,-0.5 126,-0.5 132,-6.5 132,-12.5 132,-12.5 132,-26.5 132,-26.5 132,-32.5 126,-38.5 120,-38.5 120,-38.5 12,-38.5 12,-38.5 6,-38.5 0,-32.5 0,-26.5 0,-26.5 0,-12.5 0,-12.5 0,-6.5 6,-0.5 12,-0.5"/>
<text text-anchor="start" x="8" y="-23.3" font-family="Times,serif" font-size="14.00">name = &#39;Tom Hanks&#39;</text>
<text text-anchor="start" x="8" y="-8.3" font-family="Times,serif" font-size="14.00">born = 1956</text>
</g>
<!-- N2&#45;&gt;N2 -->
<g id="edge1" class="edge">
<title>N2&#45;&gt;N2</title>
<path fill="none" stroke="black" d="M132.2,-26.06C142.77,-25.1 150,-22.91 150,-19.5 150,-17.31 147.03,-15.63 142.12,-14.45"/>
<polygon fill="black" stroke="black" points="142.61,-10.98 132.2,-12.94 141.56,-17.9 142.61,-10.98"/>
<text text-anchor="middle" x="176" y="-15.8" font-family="Times,serif" font-size="14.00">KNOWS</text>
</g>
</g>
</svg>
