<?xml version="1.0" encoding="UTF-8" standalone="no"?>
<!DOCTYPE svg PUBLIC "-//W3C//DTD SVG 1.1//EN"
 "http://www.w3.org/Graphics/SVG/1.1/DTD/svg11.dtd">
<!-- Generated by graphviz version 2.44.0 ()
 -->
<!-- Title: L Pages: 1 -->
<svg width="210pt" height="70pt"
 viewBox="0.00 0.00 210.00 70.00" xmlns="http://www.w3.org/2000/svg" xmlns:xlink="http://www.w3.org/1999/xlink">
<g id="graph0" class="graph" transform="scale(1 1) rotate(0) translate(4 66)">
<title>L</title>
<polygon fill="white" stroke="transparent" points="-4,4 -4,-66 206,-66 206,4 -4,4"/>
<!-- N2 -->
<g id="node1" class="node">
<title>N2</title>
<path fill="none" stroke="black" d="M12,-0.5C12,-0.5 120,-0.5 120,-0.5 126,-0.5 132,-6.5 132,-12.5 132,-12.5 132,-49.5 132,-49.5 132,-55.5 126,-61.5 120,-61.5 120,-61.5 12,-61.5 12,-61.5 6,-61.5 0,-55.5 0,-49.5 0,-49.5 0,-12.5 0,-12.5 0,-6.5 6,-0.5 12,-0.5"/>
<text text-anchor="middle" x="66" y="-46.3" font-family="Times,serif" font-size="14.00">Person</text>
<polyline fill="none" stroke="black" points="0,-38.5 132,-38.5 "/>
<text text-anchor="start" x="8" y="-23.3" font-family="Times,serif" font-size="14.00">name = &#39;Tom Hanks&#39;</text>
<text text-anchor="start" x="8" y="-8.3" font-family="Times,serif" font-size="14.00">born = 1956</text>
</g>
<!-- N2&#45;&gt;N2 -->
<g id="edge1" class="edge">
<title>N2&#45;&gt;N2</title>
<path fill="none" stroke="black" d="M132.2,-41.36C142.77,-39.84 150,-36.39 150,-31 150,-27.55 147.03,-24.89 142.12,-23.03"/>
<polygon fill="black" stroke="black" points="142.74,-19.57 132.2,-20.64 141.11,-26.38 142.74,-19.57"/>
<text text-anchor="middle" x="176" y="-27.3" font-family="Times,serif" font-size="14.00">KNOWS</text>
</g>
</g>
</svg>
