<?xml version="1.0" encoding="UTF-8" standalone="no"?>
<!DOCTYPE svg PUBLIC "-//W3C//DTD SVG 1.1//EN"
 "http://www.w3.org/Graphics/SVG/1.1/DTD/svg11.dtd">
<!-- Generated by graphviz version 2.44.0 ()
 -->
<!-- Title: L Pages: 1 -->
<svg width="320pt" height="152pt"
 viewBox="0.00 0.00 319.50 152.00" xmlns="http://www.w3.org/2000/svg" xmlns:xlink="http://www.w3.org/1999/xlink">
<g id="graph0" class="graph" transform="scale(1 1) rotate(0) translate(4 148)">
<title>L</title>
<polygon fill="white" stroke="transparent" points="-4,4 -4,-148 315.5,-148 315.5,4 -4,4"/>
<!-- N2 -->
<g id="node1" class="node">
<title>N2</title>
<path fill="none" stroke="black" d="M12,-105.5C12,-105.5 120,-105.5 120,-105.5 126,-105.5 132,-111.5 132,-117.5 132,-117.5 132,-131.5 132,-131.5 132,-137.5 126,-143.5 120,-143.5 120,-143.5 12,-143.5 12,-143.5 6,-143.5 0,-137.5 0,-131.5 0,-131.5 0,-117.5 0,-117.5 0,-111.5 6,-105.5 12,-105.5"/>
<text text-anchor="start" x="8" y="-128.3" font-family="Times,serif" font-size="14.00">name = &#39;Tom Hanks&#39;</text>
<text text-anchor="start" x="8" y="-113.3" font-family="Times,serif" font-size="14.00">born = 1956</text>
</g>
<!-- N3 -->
<g id="node2" class="node">
<title>N3</title>
<path fill="none" stroke="black" d="M92,-0.5C92,-0.5 204,-0.5 204,-0.5 210,-0.5 216,-6.5 216,-12.5 216,-12.5 216,-26.5 216,-26.5 216,-32.5 210,-38.5 204,-38.5 204,-38.5 92,-38.5 92,-38.5 86,-38.5 80,-32.5 80,-26.5 80,-26.5 80,-12.5 80,-12.5 80,-6.5 86,-0.5 92,-0.5"/>
<text text-anchor="start" x="88" y="-23.3" font-family="Times,serif" font-size="14.00">title = &#39;Forrest Gump&#39;</text>
<text text-anchor="start" x="88" y="-8.3" font-family="Times,serif" font-size="14.00">released = 1994</text>
</g>
<!-- N2&#45;&gt;N3 -->
<g id="edge1" class="edge">
<title>N2&#45;&gt;N3</title>
<path fill="none" stroke="black" d="M77.68,-105.47C86.79,-91.78 100.04,-72.7 113,-57 116.05,-53.3 119.4,-49.52 122.77,-45.86"/>
<polygon fill="black" stroke="black" points="125.32,-48.25 129.64,-38.58 120.23,-43.44 125.32,-48.25"/>
<text text-anchor="middle" x="161" y="-75.8" font-family="Times,serif" font-size="14.00">ACTED_IN</text>
<text text-anchor="start" x="113" y="-60.8" font-family="Times,serif" font-size="14.00">roles = [&#39;Forrest&#39;]</text>
</g>
<!-- N4 -->
<g id="node3" class="node">
<title>N4</title>
<path fill="none" stroke="black" d="M162.5,-105.5C162.5,-105.5 299.5,-105.5 299.5,-105.5 305.5,-105.5 311.5,-111.5 311.5,-117.5 311.5,-117.5 311.5,-131.5 311.5,-131.5 311.5,-137.5 305.5,-143.5 299.5,-143.5 299.5,-143.5 162.5,-143.5 162.5,-143.5 156.5,-143.5 150.5,-137.5 150.5,-131.5 150.5,-131.5 150.5,-117.5 150.5,-117.5 150.5,-111.5 156.5,-105.5 162.5,-105.5"/>
<text text-anchor="start" x="158.5" y="-128.3" font-family="Times,serif" font-size="14.00">name = &#39;Robert Zemeckis&#39;</text>
<text text-anchor="start" x="158.5" y="-113.3" font-family="Times,serif" font-size="14.00">born = 1951</text>
</g>
<!-- N4&#45;&gt;N3 -->
<g id="edge2" class="edge">
<title>N4&#45;&gt;N3</title>
<path fill="none" stroke="black" d="M228.57,-105.48C225.85,-91.08 220.25,-71.04 209,-57 205.29,-52.37 200.83,-48.2 196.02,-44.47"/>
<polygon fill="black" stroke="black" points="197.87,-41.49 187.68,-38.6 193.85,-47.22 197.87,-41.49"/>
<text text-anchor="middle" x="257" y="-68.3" font-family="Times,serif" font-size="14.00">DIRECTED</text>
</g>
</g>
</svg>
