<svg xmlns="http://www.w3.org/2000/svg" width="441" height="402" viewBox="0 0 441 402"><defs><style type="text/css"/></defs><g transform="translate(263.2621500692703 309) scale(1)"><g class="relationship"><g transform="translate(-188.26215006927032 17.601424336671215) rotate(-60.00000000000001)" stroke-width="3" stroke="#006FD6"><path d="M 80 0 L 192.44468859723284 0"/><polygon points="-18.079611541307905,0 -20.088457268119896,6.696152422706632 0,0 -20.088457268119896,-6.696152422706632" fill="#006FD6" transform="translate(210.52430013854075 0) rotate(0)" stroke="none"/></g></g><g class="relationship"><g transform="translate(102.26215006927043 17.601424336671215) rotate(180)" stroke-width="3" stroke="#006FD6"><path d="M 80 0 L 192.44468859723284 0"/><polygon points="-18.079611541307905,0 -20.088457268119896,6.696152422706632 0,0 -20.088457268119896,-6.696152422706632" fill="#006FD6" transform="translate(210.52430013854075 0) rotate(0)" stroke="none"/></g></g><g class="relationship"><g transform="translate(-43 -234) rotate(59.99999999999999)" stroke-width="3" stroke="#006FD6"><path d="M 80 0 L 192.4446885972329 0"/><polygon points="-18.079611541307905,0 -20.088457268119896,6.696152422706632 0,0 -20.088457268119896,-6.696152422706632" fill="#006FD6" transform="translate(210.5243001385408 0) rotate(0)" stroke="none"/></g></g><g class="node"><g fill="#7AD1FF" stroke="#000000" stroke-width="0"><circle cx="-43" cy="-234" r="75" stroke="none"/></g></g><g class="node"><g fill="#7AD1FF" stroke="#000000" stroke-width="0"><circle cx="-188.26215006927032" cy="17.601424336671215" r="75" stroke="none"/></g></g><g class="node"><g fill="#7AD1FF" stroke="#000000" stroke-width="0"><circle cx="102.26215006927043" cy="17.601424336671215" r="75" stroke="none"/></g></g></g></svg>