<svg width="492" height="464" viewBox="0 0 492 464" fill="none" xmlns="http://www.w3.org/2000/svg">
<path d="M354 91C354 55.6538 382.654 27 418 27C453.346 27 482 55.6538 482 91C482 126.346 453.346 155 418 155C382.654 155 354 126.346 354 91Z" fill="#FFDF81"/>
<path d="M392.566 96.14C391.656 96.14 390.879 95.9323 390.235 95.517C389.596 95.1017 389.106 94.5043 388.765 93.725C388.429 92.9457 388.261 92.0053 388.261 90.904C388.261 89.8073 388.429 88.874 388.765 88.104C389.101 87.334 389.589 86.7483 390.228 86.347C390.872 85.941 391.651 85.738 392.566 85.738C393.28 85.738 393.912 85.8873 394.463 86.186C395.014 86.48 395.457 86.8743 395.793 87.369C396.129 87.8637 396.327 88.4073 396.388 89H395.009C394.934 88.6033 394.792 88.244 394.582 87.922C394.372 87.6 394.097 87.3433 393.756 87.152C393.415 86.9607 393.007 86.865 392.531 86.865C391.92 86.865 391.402 87.0097 390.977 87.299C390.557 87.5837 390.237 88.0247 390.018 88.622C389.803 89.2193 389.696 89.9847 389.696 90.918C389.696 92.3273 389.936 93.3633 390.417 94.026C390.902 94.684 391.607 95.013 392.531 95.013C393.007 95.013 393.415 94.9127 393.756 94.712C394.097 94.5113 394.372 94.243 394.582 93.907C394.792 93.571 394.934 93.207 395.009 92.815H396.388C396.337 93.2443 396.22 93.6597 396.038 94.061C395.861 94.4577 395.616 94.8123 395.303 95.125C394.99 95.4377 394.605 95.685 394.148 95.867C393.695 96.049 393.168 96.14 392.566 96.14ZM401.099 96.14C400.432 96.14 399.848 95.9977 399.349 95.713C398.854 95.4237 398.469 95.0013 398.194 94.446C397.919 93.8907 397.781 93.2117 397.781 92.409C397.781 91.653 397.909 90.9903 398.166 90.421C398.423 89.8517 398.798 89.4107 399.293 89.098C399.788 88.7807 400.392 88.622 401.106 88.622C401.773 88.622 402.352 88.769 402.842 89.063C403.332 89.3523 403.712 89.7793 403.983 90.344C404.258 90.9087 404.396 91.597 404.396 92.409C404.396 93.1463 404.27 93.795 404.018 94.355C403.766 94.915 403.395 95.3537 402.905 95.671C402.42 95.9837 401.818 96.14 401.099 96.14ZM401.106 95.118C401.535 95.118 401.899 95.0083 402.198 94.789C402.497 94.5697 402.723 94.2547 402.877 93.844C403.036 93.4333 403.115 92.9457 403.115 92.381C403.115 91.863 403.045 91.3987 402.905 90.988C402.77 90.5727 402.555 90.2437 402.261 90.001C401.967 89.7583 401.582 89.637 401.106 89.637C400.667 89.637 400.296 89.7467 399.993 89.966C399.69 90.1807 399.459 90.4933 399.3 90.904C399.146 91.3147 399.069 91.807 399.069 92.381C399.069 92.8897 399.137 93.3517 399.272 93.767C399.412 94.1823 399.631 94.5113 399.93 94.754C400.233 94.9967 400.625 95.118 401.106 95.118ZM406.117 96V88.762H407.363V89.812C407.564 89.4947 407.839 89.217 408.189 88.979C408.539 88.741 408.994 88.622 409.554 88.622C409.815 88.622 410.081 88.6663 410.352 88.755C410.627 88.8437 410.879 88.9767 411.108 89.154C411.337 89.3313 411.514 89.5483 411.64 89.805C411.864 89.4503 412.167 89.1657 412.55 88.951C412.933 88.7317 413.364 88.622 413.845 88.622C414.097 88.622 414.361 88.6617 414.636 88.741C414.911 88.8157 415.166 88.951 415.399 89.147C415.637 89.3383 415.831 89.6067 415.98 89.952C416.129 90.2927 416.204 90.7313 416.204 91.268V96H414.902V91.394C414.902 90.9553 414.832 90.617 414.692 90.379C414.552 90.1363 414.368 89.966 414.139 89.868C413.915 89.77 413.675 89.721 413.418 89.721C413.194 89.721 412.956 89.7653 412.704 89.854C412.452 89.9427 412.237 90.092 412.06 90.302C411.883 90.512 411.794 90.799 411.794 91.163V96H410.506V91.016C410.506 90.7313 410.429 90.4933 410.275 90.302C410.126 90.1107 409.937 89.966 409.708 89.868C409.484 89.77 409.26 89.721 409.036 89.721C408.789 89.721 408.539 89.77 408.287 89.868C408.04 89.966 407.83 90.1223 407.657 90.337C407.489 90.547 407.405 90.8223 407.405 91.163V96H406.117ZM418.23 98.254V88.762H419.518L419.532 90.022C419.616 89.8727 419.724 89.7163 419.854 89.553C419.99 89.3897 420.153 89.238 420.344 89.098C420.54 88.958 420.767 88.8437 421.023 88.755C421.285 88.6663 421.581 88.622 421.912 88.622C422.491 88.622 423 88.755 423.438 89.021C423.882 89.2823 424.227 89.6837 424.474 90.225C424.722 90.7663 424.845 91.4523 424.845 92.283C424.845 93.1137 424.724 93.816 424.481 94.39C424.243 94.9593 423.898 95.3933 423.445 95.692C422.993 95.9907 422.447 96.14 421.807 96.14C421.485 96.14 421.198 96.0933 420.946 96C420.699 95.9113 420.482 95.7947 420.295 95.65C420.113 95.5007 419.959 95.342 419.833 95.174C419.712 95.006 419.612 94.845 419.532 94.691V98.254H418.23ZM421.562 95.132C422.16 95.132 422.647 94.9057 423.025 94.453C423.403 93.9957 423.592 93.2863 423.592 92.325C423.592 91.499 423.42 90.8433 423.074 90.358C422.729 89.8727 422.225 89.63 421.562 89.63C420.89 89.63 420.382 89.8797 420.036 90.379C419.691 90.8737 419.518 91.5223 419.518 92.325C419.518 92.843 419.595 93.3143 419.749 93.739C419.903 94.1637 420.132 94.502 420.435 94.754C420.739 95.006 421.114 95.132 421.562 95.132ZM428.518 96.14C428.047 96.14 427.631 96.0583 427.272 95.895C426.917 95.727 426.637 95.4867 426.432 95.174C426.231 94.8613 426.131 94.4833 426.131 94.04C426.131 93.2373 426.411 92.64 426.971 92.248C427.531 91.856 428.429 91.646 429.666 91.618L430.954 91.583V91.016C430.954 90.5727 430.821 90.2227 430.555 89.966C430.289 89.7047 429.878 89.574 429.323 89.574C428.908 89.5787 428.541 89.6767 428.224 89.868C427.907 90.0593 427.704 90.372 427.615 90.806H426.474C426.502 90.3347 426.633 89.938 426.866 89.616C427.104 89.2893 427.438 89.042 427.867 88.874C428.296 88.706 428.803 88.622 429.386 88.622C430.016 88.622 430.539 88.7107 430.954 88.888C431.374 89.0653 431.687 89.3267 431.892 89.672C432.102 90.0173 432.207 90.442 432.207 90.946V96H431.101L431.003 94.642C430.728 95.2067 430.373 95.5987 429.939 95.818C429.51 96.0327 429.036 96.14 428.518 96.14ZM428.903 95.209C429.15 95.209 429.393 95.1647 429.631 95.076C429.874 94.9873 430.093 94.8683 430.289 94.719C430.49 94.565 430.651 94.3947 430.772 94.208C430.893 94.0167 430.954 93.8207 430.954 93.62V92.381L429.883 92.402C429.328 92.4113 428.866 92.4673 428.497 92.57C428.128 92.6727 427.851 92.8337 427.664 93.053C427.477 93.2723 427.384 93.5593 427.384 93.914C427.384 94.32 427.526 94.6373 427.811 94.866C428.096 95.0947 428.46 95.209 428.903 95.209ZM434.226 96V88.762H435.479V89.812C435.596 89.6113 435.757 89.4223 435.962 89.245C436.172 89.0677 436.424 88.9253 436.718 88.818C437.017 88.7107 437.36 88.657 437.747 88.657C438.205 88.657 438.625 88.748 439.007 88.93C439.395 89.112 439.703 89.3967 439.931 89.784C440.165 90.1667 440.281 90.6613 440.281 91.268V96H438.986V91.394C438.986 90.8293 438.837 90.4117 438.538 90.141C438.244 89.8657 437.862 89.728 437.39 89.728C437.064 89.728 436.758 89.7817 436.473 89.889C436.189 89.9917 435.958 90.1503 435.78 90.365C435.603 90.575 435.514 90.841 435.514 91.163V96H434.226ZM442.795 98.31C442.37 98.31 442.079 98.2797 441.92 98.219C441.761 98.1583 441.682 98.128 441.682 98.128V97.288L442.424 97.302C442.69 97.3113 442.912 97.2927 443.089 97.246C443.266 97.1993 443.409 97.1363 443.516 97.057C443.623 96.9777 443.705 96.889 443.761 96.791C443.822 96.693 443.871 96.5997 443.908 96.511L444.16 95.825L441.332 88.762H442.641L444.776 94.348L446.897 88.762H448.164L445.119 96.546C444.928 97.0033 444.715 97.3603 444.482 97.617C444.253 97.8737 443.997 98.0533 443.712 98.156C443.432 98.2587 443.126 98.31 442.795 98.31Z" fill="#1A1B1D"/>
<path d="M189 373C189 337.654 217.654 309 253 309C288.346 309 317 337.654 317 373C317 408.346 288.346 437 253 437C217.654 437 189 408.346 189 373Z" fill="#56C7E4"/>
<path d="M10 91C10 55.6538 38.6538 27 74 27C109.346 27 138 55.6538 138 91C138 126.346 109.346 155 74 155C38.6538 155 10 126.346 10 91Z" fill="#C990C0"/>
<path d="M52.7238 96V85.878H56.1468C56.8702 85.878 57.5142 85.9993 58.0788 86.242C58.6435 86.4847 59.0868 86.844 59.4088 87.32C59.7355 87.796 59.8988 88.3817 59.8988 89.077C59.8988 89.749 59.7472 90.323 59.4438 90.799C59.1452 91.275 58.7275 91.6367 58.1908 91.884C57.6542 92.1313 57.0312 92.255 56.3218 92.255H54.0538V96H52.7238ZM54.0468 91.163H56.2938C56.9892 91.163 57.5538 90.9693 57.9878 90.582C58.4218 90.1947 58.6388 89.6673 58.6388 89C58.6388 88.328 58.4148 87.8193 57.9668 87.474C57.5188 87.1287 56.9402 86.956 56.2308 86.956H54.0468V91.163ZM64.3078 96.14C63.6358 96.14 63.0432 95.993 62.5298 95.699C62.0165 95.405 61.6152 94.9827 61.3258 94.432C61.0365 93.8813 60.8918 93.221 60.8918 92.451C60.8918 91.6903 61.0225 91.023 61.2838 90.449C61.5452 89.875 61.9232 89.427 62.4178 89.105C62.9172 88.783 63.5168 88.622 64.2168 88.622C64.8982 88.622 65.4745 88.769 65.9458 89.063C66.4172 89.357 66.7742 89.7723 67.0168 90.309C67.2642 90.841 67.3878 91.4733 67.3878 92.206V92.682H62.2008C62.2008 93.1393 62.2755 93.5547 62.4248 93.928C62.5788 94.2967 62.8098 94.5907 63.1178 94.81C63.4258 95.0293 63.8155 95.139 64.2868 95.139C64.7488 95.139 65.1455 95.0317 65.4768 94.817C65.8128 94.6023 66.0275 94.292 66.1208 93.886H67.3388C67.2548 94.376 67.0588 94.789 66.7508 95.125C66.4475 95.461 66.0812 95.7153 65.6518 95.888C65.2272 96.056 64.7792 96.14 64.3078 96.14ZM62.2078 91.807H66.1418C66.1418 91.3917 66.0718 91.0183 65.9318 90.687C65.7918 90.351 65.5772 90.0873 65.2878 89.896C65.0032 89.7 64.6438 89.602 64.2098 89.602C63.7572 89.602 63.3815 89.7117 63.0828 89.931C62.7842 90.1457 62.5625 90.4233 62.4178 90.764C62.2732 91.1 62.2032 91.4477 62.2078 91.807ZM69.1785 96V88.762H70.4105V90.155C70.5319 89.8097 70.7022 89.525 70.9215 89.301C71.1409 89.0723 71.3905 88.902 71.6705 88.79C71.9552 88.678 72.2492 88.622 72.5525 88.622C72.6599 88.622 72.7649 88.629 72.8675 88.643C72.9702 88.657 73.0495 88.6803 73.1055 88.713V89.966C73.0355 89.9333 72.9445 89.9123 72.8325 89.903C72.7252 89.889 72.6342 89.882 72.5595 89.882C72.2702 89.8633 71.9995 89.882 71.7475 89.938C71.4955 89.9893 71.2739 90.0803 71.0825 90.211C70.8912 90.3417 70.7395 90.5143 70.6275 90.729C70.5202 90.939 70.4665 91.1957 70.4665 91.499V96H69.1785ZM77.2103 96.14C76.7063 96.14 76.2373 96.063 75.8033 95.909C75.3739 95.7503 75.0169 95.5053 74.7323 95.174C74.4476 94.838 74.2703 94.411 74.2003 93.893H75.3763C75.4369 94.1777 75.5535 94.4157 75.7262 94.607C75.8988 94.7937 76.1113 94.936 76.3633 95.034C76.6199 95.1273 76.8999 95.174 77.2033 95.174C77.6933 95.174 78.0876 95.083 78.3863 94.901C78.6849 94.719 78.8343 94.439 78.8343 94.061C78.8343 93.795 78.7549 93.5827 78.5963 93.424C78.4423 93.2607 78.1996 93.1417 77.8683 93.067L76.3703 92.696C75.7869 92.556 75.3203 92.3367 74.9703 92.038C74.6249 91.7393 74.4499 91.3217 74.4453 90.785C74.4453 90.3603 74.5479 89.987 74.7533 89.665C74.9586 89.343 75.2642 89.0887 75.6702 88.902C76.0808 88.7153 76.5919 88.622 77.2033 88.622C77.9919 88.622 78.6266 88.7993 79.1073 89.154C79.5879 89.504 79.8399 90.0197 79.8633 90.701H78.7153C78.6686 90.3557 78.5146 90.0827 78.2533 89.882C77.9919 89.6767 77.6373 89.574 77.1893 89.574C76.7319 89.574 76.3563 89.6673 76.0623 89.854C75.7729 90.036 75.6283 90.3207 75.6283 90.708C75.6283 90.9647 75.7309 91.1677 75.9363 91.317C76.1463 91.4617 76.4496 91.583 76.8463 91.681L78.3023 92.045C78.6336 92.1337 78.9089 92.2503 79.1283 92.395C79.3476 92.5397 79.5203 92.7007 79.6463 92.878C79.7723 93.0553 79.8609 93.242 79.9123 93.438C79.9683 93.6293 79.9963 93.8137 79.9963 93.991C79.9963 94.4343 79.8866 94.817 79.6673 95.139C79.4479 95.4563 79.1306 95.7037 78.7153 95.881C78.2999 96.0537 77.7983 96.14 77.2103 96.14ZM84.5863 96.14C83.919 96.14 83.3356 95.9977 82.8363 95.713C82.3416 95.4237 81.9566 95.0013 81.6813 94.446C81.406 93.8907 81.2683 93.2117 81.2683 92.409C81.2683 91.653 81.3966 90.9903 81.6533 90.421C81.91 89.8517 82.2856 89.4107 82.7803 89.098C83.275 88.7807 83.8793 88.622 84.5933 88.622C85.2606 88.622 85.8393 88.769 86.3293 89.063C86.8193 89.3523 87.1996 89.7793 87.4703 90.344C87.7456 90.9087 87.8833 91.597 87.8833 92.409C87.8833 93.1463 87.7573 93.795 87.5053 94.355C87.2533 94.915 86.8823 95.3537 86.3923 95.671C85.907 95.9837 85.305 96.14 84.5863 96.14ZM84.5933 95.118C85.0226 95.118 85.3866 95.0083 85.6853 94.789C85.984 94.5697 86.2103 94.2547 86.3643 93.844C86.523 93.4333 86.6023 92.9457 86.6023 92.381C86.6023 91.863 86.5323 91.3987 86.3923 90.988C86.257 90.5727 86.0423 90.2437 85.7483 90.001C85.4543 89.7583 85.0693 89.637 84.5933 89.637C84.1546 89.637 83.7836 89.7467 83.4803 89.966C83.177 90.1807 82.946 90.4933 82.7873 90.904C82.6333 91.3147 82.5563 91.807 82.5563 92.381C82.5563 92.8897 82.624 93.3517 82.7593 93.767C82.8993 94.1823 83.1186 94.5113 83.4173 94.754C83.7206 94.9967 84.1126 95.118 84.5933 95.118ZM89.6043 96V88.762H90.8573V89.812C90.974 89.6113 91.135 89.4223 91.3403 89.245C91.5503 89.0677 91.8023 88.9253 92.0963 88.818C92.395 88.7107 92.738 88.657 93.1253 88.657C93.5826 88.657 94.0026 88.748 94.3853 88.93C94.7726 89.112 95.0805 89.3967 95.3092 89.784C95.5425 90.1667 95.6593 90.6613 95.6593 91.268V96H94.3643V91.394C94.3643 90.8293 94.215 90.4117 93.9163 90.141C93.6223 89.8657 93.2396 89.728 92.7683 89.728C92.4416 89.728 92.1359 89.7817 91.8512 89.889C91.5665 89.9917 91.3356 90.1503 91.1583 90.365C90.981 90.575 90.8923 90.841 90.8923 91.163V96H89.6043Z" fill="white"/>
<path d="M253 123.995C252.997 123.442 252.547 122.997 251.995 123C251.442 123.003 250.997 123.453 251 124.005L253 123.995ZM251.398 197.693C251.401 198.245 251.851 198.691 252.404 198.688C252.956 198.685 253.401 198.234 253.398 197.682L251.398 197.693ZM253.583 231.807C253.58 231.255 253.13 230.81 252.577 230.813C252.025 230.816 251.58 231.266 251.583 231.818L253.583 231.807ZM252.278 306.211C252.67 306.599 253.304 306.596 253.692 306.203L260.021 299.805C260.41 299.412 260.406 298.779 260.014 298.391C259.621 298.002 258.988 298.006 258.6 298.399L252.973 304.086L247.286 298.46C246.893 298.071 246.26 298.075 245.872 298.467C245.483 298.86 245.487 299.493 245.88 299.881L252.278 306.211ZM251 124.005L251.398 197.693L253.398 197.682L253 123.995L251 124.005ZM251.583 231.818L251.981 305.505L253.981 305.495L253.583 231.807L251.583 231.818Z" fill="#1A1B1D"/>
<path d="M227.387 220.25V210.068H228.923V214.93H229.047L233.318 210.068H235.252L231.145 214.652L235.267 220.25H233.417L230.126 215.701L228.923 217.083V220.25H227.387ZM244.748 210.068V220.25H243.336L238.16 212.783H238.066V220.25H236.53V210.068H237.952L243.132 217.545H243.226V210.068H244.748ZM255.679 215.159C255.679 216.246 255.48 217.181 255.083 217.963C254.685 218.742 254.14 219.342 253.447 219.763C252.758 220.18 251.974 220.389 251.095 220.389C250.214 220.389 249.427 220.18 248.734 219.763C248.044 219.342 247.501 218.74 247.103 217.958C246.705 217.176 246.507 216.243 246.507 215.159C246.507 214.072 246.705 213.139 247.103 212.36C247.501 211.578 248.044 210.978 248.734 210.56C249.427 210.139 250.214 209.929 251.095 209.929C251.974 209.929 252.758 210.139 253.447 210.56C254.14 210.978 254.685 211.578 255.083 212.36C255.48 213.139 255.679 214.072 255.679 215.159ZM254.158 215.159C254.158 214.331 254.024 213.633 253.755 213.066C253.49 212.496 253.125 212.065 252.661 211.773C252.201 211.478 251.679 211.331 251.095 211.331C250.509 211.331 249.985 211.478 249.524 211.773C249.064 212.065 248.699 212.496 248.431 213.066C248.165 213.633 248.033 214.331 248.033 215.159C248.033 215.988 248.165 216.687 248.431 217.257C248.699 217.824 249.064 218.255 249.524 218.55C249.985 218.841 250.509 218.987 251.095 218.987C251.679 218.987 252.201 218.841 252.661 218.55C253.125 218.255 253.49 217.824 253.755 217.257C254.024 216.687 254.158 215.988 254.158 215.159ZM259.311 220.25L256.487 210.068H258.103L260.087 217.953H260.181L262.244 210.068H263.845L265.908 217.958H266.003L267.982 210.068H269.602L266.773 220.25H265.227L263.084 212.624H263.005L260.862 220.25H259.311ZM276.375 212.743C276.322 212.272 276.103 211.908 275.719 211.649C275.334 211.387 274.85 211.256 274.267 211.256C273.849 211.256 273.488 211.323 273.183 211.455C272.878 211.585 272.641 211.764 272.472 211.992C272.307 212.218 272.224 212.474 272.224 212.763C272.224 213.005 272.28 213.214 272.393 213.389C272.509 213.565 272.659 213.712 272.845 213.832C273.034 213.948 273.236 214.045 273.452 214.125C273.667 214.201 273.874 214.264 274.073 214.314L275.067 214.572C275.392 214.652 275.725 214.76 276.067 214.896C276.408 215.032 276.725 215.21 277.016 215.433C277.308 215.655 277.543 215.93 277.722 216.258C277.905 216.586 277.996 216.979 277.996 217.436C277.996 218.013 277.847 218.525 277.548 218.972C277.253 219.42 276.824 219.773 276.261 220.031C275.7 220.29 275.023 220.419 274.227 220.419C273.465 220.419 272.805 220.298 272.249 220.056C271.692 219.814 271.256 219.471 270.941 219.027C270.626 218.58 270.452 218.049 270.419 217.436H271.96C271.99 217.804 272.109 218.111 272.318 218.356C272.53 218.598 272.8 218.778 273.128 218.898C273.46 219.014 273.823 219.072 274.217 219.072C274.651 219.072 275.038 219.004 275.376 218.868C275.717 218.729 275.985 218.536 276.181 218.291C276.377 218.043 276.474 217.753 276.474 217.421C276.474 217.12 276.388 216.873 276.216 216.68C276.047 216.488 275.816 216.329 275.525 216.203C275.236 216.077 274.91 215.966 274.545 215.87L273.342 215.542C272.527 215.32 271.881 214.993 271.403 214.563C270.929 214.132 270.692 213.562 270.692 212.852C270.692 212.266 270.851 211.754 271.17 211.316C271.488 210.879 271.919 210.539 272.462 210.297C273.006 210.052 273.619 209.929 274.302 209.929C274.991 209.929 275.599 210.05 276.126 210.292C276.657 210.534 277.074 210.867 277.379 211.291C277.684 211.712 277.843 212.196 277.856 212.743H276.375Z" fill="black" fill-opacity="0.8"/>
<path d="M351.207 91.7071C351.598 91.3166 351.598 90.6834 351.207 90.2929L344.843 83.9289C344.453 83.5384 343.819 83.5384 343.429 83.9289C343.038 84.3195 343.038 84.9526 343.429 85.3431L349.086 91L343.429 96.6569C343.038 97.0474 343.038 97.6805 343.429 98.0711C343.819 98.4616 344.453 98.4616 344.843 98.0711L351.207 91.7071ZM294.562 90C294.01 90 293.562 90.4477 293.562 91C293.562 91.5523 294.01 92 294.562 92V90ZM197.438 92C197.99 92 198.438 91.5523 198.438 91C198.438 90.4477 197.99 90 197.438 90V92ZM141.5 90C140.948 90 140.5 90.4477 140.5 91C140.5 91.5523 140.948 92 141.5 92V90ZM350.5 90H294.562V92H350.5V90ZM197.438 90H141.5V92H197.438V90Z" fill="#1A1B1D"/>
<path d="M207.53 75.5L204.706 65.3182H206.322L208.306 73.2031H208.4L210.463 65.3182H212.064L214.127 73.2081H214.222L216.2 65.3182H217.821L214.992 75.5H213.446L211.303 67.8736H211.224L209.081 75.5H207.53ZM227.407 70.4091C227.407 71.4962 227.208 72.4309 226.81 73.2131C226.412 73.992 225.867 74.5919 225.174 75.0128C224.485 75.4304 223.701 75.6392 222.823 75.6392C221.941 75.6392 221.154 75.4304 220.461 75.0128C219.772 74.5919 219.228 73.9903 218.831 73.2081C218.433 72.4259 218.234 71.4929 218.234 70.4091C218.234 69.322 218.433 68.389 218.831 67.6101C219.228 66.8279 219.772 66.228 220.461 65.8104C221.154 65.3894 221.941 65.179 222.823 65.179C223.701 65.179 224.485 65.3894 225.174 65.8104C225.867 66.228 226.412 66.8279 226.81 67.6101C227.208 68.389 227.407 69.322 227.407 70.4091ZM225.885 70.4091C225.885 69.5805 225.751 68.8828 225.483 68.3161C225.217 67.746 224.853 67.3151 224.389 67.0234C223.928 66.7285 223.406 66.581 222.823 66.581C222.236 66.581 221.712 66.7285 221.252 67.0234C220.791 67.3151 220.426 67.746 220.158 68.3161C219.893 68.8828 219.76 69.5805 219.76 70.4091C219.76 71.2377 219.893 71.937 220.158 72.5071C220.426 73.0739 220.791 73.5047 221.252 73.7997C221.712 74.0914 222.236 74.2372 222.823 74.2372C223.406 74.2372 223.928 74.0914 224.389 73.7997C224.853 73.5047 225.217 73.0739 225.483 72.5071C225.751 71.937 225.885 71.2377 225.885 70.4091ZM229.168 75.5V65.3182H232.797C233.586 65.3182 234.24 65.4541 234.761 65.7259C235.285 65.9976 235.676 66.3738 235.934 66.8544C236.193 67.3317 236.322 67.8835 236.322 68.5099C236.322 69.133 236.191 69.6816 235.929 70.1555C235.671 70.6262 235.28 70.9924 234.756 71.2543C234.236 71.5161 233.581 71.647 232.792 71.647H230.043V70.3246H232.653C233.15 70.3246 233.554 70.2533 233.866 70.1108C234.181 69.9683 234.411 69.7611 234.557 69.4893C234.703 69.2176 234.776 68.8911 234.776 68.5099C234.776 68.1255 234.701 67.7924 234.552 67.5107C234.406 67.2289 234.176 67.0135 233.861 66.8643C233.549 66.7119 233.14 66.6357 232.633 66.6357H230.704V75.5H229.168ZM234.194 70.9062L236.71 75.5H234.96L232.494 70.9062H234.194ZM238.037 75.5V65.3182H239.573V70.1804H239.698L243.968 65.3182H245.902L241.796 69.902L245.917 75.5H244.068L240.777 70.951L239.573 72.3331V75.5H238.037ZM247.18 75.5V65.3182H253.564V66.6406H248.716V69.7429H253.231V71.0604H248.716V74.1776H253.623V75.5H247.18ZM258.758 75.5H255.462V65.3182H258.862C259.86 65.3182 260.717 65.522 261.433 65.9297C262.148 66.334 262.697 66.9157 263.078 67.6747C263.463 68.4304 263.655 69.3369 263.655 70.3942C263.655 71.4548 263.461 72.3662 263.073 73.1286C262.689 73.8909 262.132 74.4775 261.403 74.8885C260.674 75.2962 259.792 75.5 258.758 75.5ZM256.998 74.1577H258.673C259.449 74.1577 260.094 74.0118 260.607 73.7202C261.121 73.4252 261.505 72.9993 261.761 72.4425C262.016 71.8823 262.143 71.1996 262.143 70.3942C262.143 69.5954 262.016 68.9176 261.761 68.3608C261.509 67.804 261.133 67.3814 260.632 67.093C260.132 66.8047 259.51 66.6605 258.768 66.6605H256.998V74.1577ZM270.185 75.5V76.7628H263.717V75.5H270.185ZM271.996 75.5H270.365L274.03 65.3182H275.804L279.468 75.5H277.838L274.959 67.1676H274.88L271.996 75.5ZM272.27 71.5128H277.559V72.8054H272.27V71.5128ZM279.08 66.6406V65.3182H286.96V66.6406H283.783V75.5H282.251V66.6406H279.08ZM215.315 88.8636V90.0568H210.999V88.8636H215.315ZM212.183 96.5V87.9787C212.183 87.5014 212.287 87.1053 212.496 86.7905C212.705 86.4723 212.981 86.2353 213.326 86.0795C213.671 85.9205 214.045 85.8409 214.45 85.8409C214.748 85.8409 215.003 85.8658 215.215 85.9155C215.427 85.9619 215.585 86.005 215.688 86.0447L215.34 87.2479C215.27 87.228 215.181 87.2048 215.071 87.1783C214.962 87.1484 214.829 87.1335 214.673 87.1335C214.312 87.1335 214.054 87.223 213.898 87.402C213.745 87.581 213.669 87.8395 213.669 88.1776V96.5H212.183ZM216.695 96.5V88.8636H218.131V90.0767H218.211C218.35 89.6657 218.595 89.3426 218.947 89.1072C219.301 88.8686 219.702 88.7493 220.15 88.7493C220.243 88.7493 220.352 88.7526 220.478 88.7592C220.607 88.7659 220.708 88.7741 220.781 88.7841V90.206C220.722 90.1894 220.615 90.1712 220.463 90.1513C220.311 90.1281 220.158 90.1165 220.006 90.1165C219.654 90.1165 219.341 90.1911 219.066 90.3402C218.794 90.486 218.579 90.6899 218.42 90.9517C218.261 91.2102 218.181 91.5052 218.181 91.8366V96.5H216.695ZM224.857 96.6541C224.141 96.6541 223.516 96.4901 222.982 96.1619C222.449 95.8338 222.035 95.3748 221.74 94.7848C221.445 94.1948 221.297 93.5054 221.297 92.7166C221.297 91.9245 221.445 91.2318 221.74 90.6385C222.035 90.0452 222.449 89.5845 222.982 89.2564C223.516 88.9283 224.141 88.7642 224.857 88.7642C225.573 88.7642 226.197 88.9283 226.731 89.2564C227.265 89.5845 227.679 90.0452 227.974 90.6385C228.269 91.2318 228.416 91.9245 228.416 92.7166C228.416 93.5054 228.269 94.1948 227.974 94.7848C227.679 95.3748 227.265 95.8338 226.731 96.1619C226.197 96.4901 225.573 96.6541 224.857 96.6541ZM224.862 95.4062C225.326 95.4062 225.71 95.2836 226.015 95.0384C226.32 94.7931 226.545 94.4666 226.691 94.0589C226.84 93.6513 226.915 93.2022 226.915 92.7116C226.915 92.2244 226.84 91.777 226.691 91.3693C226.545 90.9583 226.32 90.6286 226.015 90.38C225.71 90.1314 225.326 90.0071 224.862 90.0071C224.394 90.0071 224.007 90.1314 223.698 90.38C223.393 90.6286 223.166 90.9583 223.017 91.3693C222.871 91.777 222.799 92.2244 222.799 92.7116C222.799 93.2022 222.871 93.6513 223.017 94.0589C223.166 94.4666 223.393 94.7931 223.698 95.0384C224.007 95.2836 224.394 95.4062 224.862 95.4062ZM229.922 96.5V88.8636H231.349V90.1065H231.443C231.602 89.6856 231.862 89.3575 232.224 89.1222C232.585 88.8835 233.017 88.7642 233.521 88.7642C234.032 88.7642 234.459 88.8835 234.804 89.1222C235.152 89.3608 235.409 89.6889 235.574 90.1065H235.654C235.836 89.6989 236.126 89.3741 236.524 89.1321C236.922 88.8868 237.396 88.7642 237.946 88.7642C238.639 88.7642 239.204 88.9813 239.641 89.4155C240.082 89.8497 240.302 90.5043 240.302 91.3793V96.5H238.816V91.5185C238.816 91.0014 238.675 90.6269 238.393 90.3949C238.112 90.1629 237.775 90.0469 237.384 90.0469C236.9 90.0469 236.524 90.196 236.256 90.4943C235.987 90.7893 235.853 91.1688 235.853 91.6328V96.5H234.371V91.424C234.371 91.0097 234.242 90.6766 233.983 90.4247C233.725 90.1728 233.389 90.0469 232.974 90.0469C232.693 90.0469 232.432 90.1214 232.194 90.2706C231.958 90.4164 231.768 90.6203 231.622 90.8821C231.479 91.1439 231.408 91.4472 231.408 91.7919V96.5H229.922ZM243.12 96.5945C242.848 96.5945 242.615 96.4983 242.419 96.3061C242.224 96.1106 242.126 95.8752 242.126 95.6001C242.126 95.3284 242.224 95.0964 242.419 94.9041C242.615 94.7086 242.848 94.6108 243.12 94.6108C243.392 94.6108 243.626 94.7086 243.821 94.9041C244.017 95.0964 244.114 95.3284 244.114 95.6001C244.114 95.7824 244.068 95.9498 243.975 96.1023C243.886 96.2514 243.766 96.3707 243.617 96.4602C243.468 96.5497 243.302 96.5945 243.12 96.5945ZM243.12 91.0362C242.848 91.0362 242.615 90.9384 242.419 90.7429C242.224 90.5473 242.126 90.3137 242.126 90.0419C242.126 89.7701 242.224 89.5381 242.419 89.3459C242.615 89.1503 242.848 89.0526 243.12 89.0526C243.392 89.0526 243.626 89.1503 243.821 89.3459C244.017 89.5381 244.114 89.7701 244.114 90.0419C244.114 90.2242 244.068 90.3916 243.975 90.544C243.886 90.6932 243.766 90.8125 243.617 90.902C243.468 90.9915 243.302 91.0362 243.12 91.0362ZM249.483 96.5V95.3864L252.928 91.8168C253.296 91.429 253.599 91.0893 253.838 90.7976C254.08 90.5026 254.26 90.2225 254.38 89.9574C254.499 89.6922 254.559 89.4105 254.559 89.1122C254.559 88.7741 254.479 88.4825 254.32 88.2372C254.161 87.9886 253.944 87.7981 253.669 87.6655C253.394 87.5296 253.084 87.4616 252.739 87.4616C252.375 87.4616 252.056 87.5362 251.785 87.6854C251.513 87.8345 251.304 88.045 251.158 88.3168C251.012 88.5885 250.939 88.9067 250.939 89.2713H249.473C249.473 88.6515 249.615 88.1096 249.9 87.6456C250.185 87.1816 250.577 86.822 251.074 86.5668C251.571 86.3082 252.136 86.179 252.769 86.179C253.409 86.179 253.972 86.3066 254.459 86.5618C254.95 86.8137 255.333 87.1584 255.608 87.5959C255.883 88.0301 256.02 88.5206 256.02 89.0675C256.02 89.4453 255.949 89.8149 255.807 90.1761C255.667 90.5374 255.424 90.9401 255.076 91.3842C254.728 91.825 254.244 92.3603 253.624 92.9901L251.601 95.108V95.1825H256.184V96.5H249.483ZM261.459 96.669C260.674 96.6657 260.003 96.4586 259.446 96.0476C258.889 95.6366 258.463 95.0384 258.168 94.2528C257.873 93.4673 257.726 92.5211 257.726 91.4141C257.726 90.3104 257.873 89.3674 258.168 88.5852C258.467 87.803 258.894 87.2064 259.451 86.7955C260.011 86.3845 260.681 86.179 261.459 86.179C262.238 86.179 262.906 86.3861 263.463 86.8004C264.02 87.2114 264.446 87.808 264.741 88.5902C265.039 89.3691 265.188 90.3104 265.188 91.4141C265.188 92.5244 265.041 93.4723 264.746 94.2578C264.451 95.04 264.025 95.6383 263.468 96.0526C262.911 96.4635 262.242 96.669 261.459 96.669ZM261.459 95.3416C262.149 95.3416 262.687 95.0052 263.075 94.3324C263.466 93.6596 263.662 92.6868 263.662 91.4141C263.662 90.5689 263.572 89.8546 263.393 89.2713C263.218 88.6847 262.964 88.2405 262.633 87.9389C262.305 87.634 261.914 87.4815 261.459 87.4815C260.773 87.4815 260.235 87.8196 259.844 88.4957C259.453 89.1719 259.255 90.1446 259.252 91.4141C259.252 92.2625 259.34 92.9801 259.516 93.5668C259.695 94.1501 259.948 94.5926 260.276 94.8942C260.604 95.1925 260.999 95.3416 261.459 95.3416ZM270.343 96.669C269.557 96.6657 268.886 96.4586 268.329 96.0476C267.772 95.6366 267.346 95.0384 267.051 94.2528C266.756 93.4673 266.609 92.5211 266.609 91.4141C266.609 90.3104 266.756 89.3674 267.051 88.5852C267.35 87.803 267.777 87.2064 268.334 86.7955C268.894 86.3845 269.564 86.179 270.343 86.179C271.121 86.179 271.789 86.3861 272.346 86.8004C272.903 87.2114 273.329 87.808 273.624 88.5902C273.922 89.3691 274.071 90.3104 274.071 91.4141C274.071 92.5244 273.924 93.4723 273.629 94.2578C273.334 95.04 272.908 95.6383 272.351 96.0526C271.794 96.4635 271.125 96.669 270.343 96.669ZM270.343 95.3416C271.032 95.3416 271.571 95.0052 271.958 94.3324C272.349 93.6596 272.545 92.6868 272.545 91.4141C272.545 90.5689 272.455 89.8546 272.277 89.2713C272.101 88.6847 271.847 88.2405 271.516 87.9389C271.188 87.634 270.797 87.4815 270.343 87.4815C269.656 87.4815 269.118 87.8196 268.727 88.4957C268.336 89.1719 268.139 90.1446 268.135 91.4141C268.135 92.2625 268.223 92.9801 268.399 93.5668C268.578 94.1501 268.831 94.5926 269.159 94.8942C269.487 95.1925 269.882 95.3416 270.343 95.3416ZM279.544 86.3182V96.5H278.003V87.8594H277.943L275.507 89.4503V87.9787L278.047 86.3182H279.544ZM222.816 109.864V111.057H218.645V109.864H222.816ZM219.763 108.034H221.25V115.258C221.25 115.546 221.293 115.763 221.379 115.909C221.465 116.052 221.576 116.149 221.712 116.202C221.851 116.252 222.002 116.277 222.165 116.277C222.284 116.277 222.388 116.269 222.478 116.252C222.567 116.236 222.637 116.222 222.687 116.212L222.955 117.44C222.869 117.473 222.746 117.507 222.587 117.54C222.428 117.576 222.229 117.596 221.991 117.599C221.599 117.606 221.235 117.536 220.897 117.391C220.559 117.245 220.285 117.019 220.076 116.714C219.868 116.41 219.763 116.027 219.763 115.566V108.034ZM227.441 117.654C226.725 117.654 226.1 117.49 225.566 117.162C225.033 116.834 224.619 116.375 224.324 115.785C224.029 115.195 223.881 114.505 223.881 113.717C223.881 112.924 224.029 112.232 224.324 111.638C224.619 111.045 225.033 110.585 225.566 110.256C226.1 109.928 226.725 109.764 227.441 109.764C228.157 109.764 228.781 109.928 229.315 110.256C229.849 110.585 230.263 111.045 230.558 111.638C230.853 112.232 231 112.924 231 113.717C231 114.505 230.853 115.195 230.558 115.785C230.263 116.375 229.849 116.834 229.315 117.162C228.781 117.49 228.157 117.654 227.441 117.654ZM227.446 116.406C227.91 116.406 228.294 116.284 228.599 116.038C228.904 115.793 229.129 115.467 229.275 115.059C229.424 114.651 229.499 114.202 229.499 113.712C229.499 113.224 229.424 112.777 229.275 112.369C229.129 111.958 228.904 111.629 228.599 111.38C228.294 111.131 227.91 111.007 227.446 111.007C226.978 111.007 226.591 111.131 226.282 111.38C225.977 111.629 225.75 111.958 225.601 112.369C225.455 112.777 225.383 113.224 225.383 113.712C225.383 114.202 225.455 114.651 225.601 115.059C225.75 115.467 225.977 115.793 226.282 116.038C226.591 116.284 226.978 116.406 227.446 116.406ZM233.485 117.594C233.213 117.594 232.98 117.498 232.784 117.306C232.589 117.111 232.491 116.875 232.491 116.6C232.491 116.328 232.589 116.096 232.784 115.904C232.98 115.709 233.213 115.611 233.485 115.611C233.757 115.611 233.991 115.709 234.186 115.904C234.382 116.096 234.479 116.328 234.479 116.6C234.479 116.782 234.433 116.95 234.34 117.102C234.251 117.251 234.131 117.371 233.982 117.46C233.833 117.55 233.667 117.594 233.485 117.594ZM233.485 112.036C233.213 112.036 232.98 111.938 232.784 111.743C232.589 111.547 232.491 111.314 232.491 111.042C232.491 110.77 232.589 110.538 232.784 110.346C232.98 110.15 233.213 110.053 233.485 110.053C233.757 110.053 233.991 110.15 234.186 110.346C234.382 110.538 234.479 110.77 234.479 111.042C234.479 111.224 234.433 111.392 234.34 111.544C234.251 111.693 234.131 111.812 233.982 111.902C233.833 111.991 233.667 112.036 233.485 112.036ZM239.848 117.5V116.386L243.293 112.817C243.661 112.429 243.964 112.089 244.203 111.798C244.445 111.503 244.625 111.223 244.745 110.957C244.864 110.692 244.924 110.411 244.924 110.112C244.924 109.774 244.844 109.482 244.685 109.237C244.526 108.989 244.309 108.798 244.034 108.665C243.759 108.53 243.449 108.462 243.104 108.462C242.74 108.462 242.421 108.536 242.15 108.685C241.878 108.835 241.669 109.045 241.523 109.317C241.377 109.589 241.304 109.907 241.304 110.271H239.838C239.838 109.652 239.98 109.11 240.265 108.646C240.55 108.182 240.941 107.822 241.439 107.567C241.936 107.308 242.501 107.179 243.134 107.179C243.774 107.179 244.337 107.307 244.824 107.562C245.315 107.814 245.698 108.158 245.973 108.596C246.248 109.03 246.385 109.521 246.385 110.067C246.385 110.445 246.314 110.815 246.172 111.176C246.032 111.537 245.789 111.94 245.441 112.384C245.093 112.825 244.609 113.36 243.989 113.99L241.966 116.108V116.183H246.549V117.5H239.848ZM251.824 117.669C251.039 117.666 250.368 117.459 249.811 117.048C249.254 116.637 248.828 116.038 248.533 115.253C248.238 114.467 248.091 113.521 248.091 112.414C248.091 111.31 248.238 110.367 248.533 109.585C248.831 108.803 249.259 108.206 249.816 107.795C250.376 107.384 251.046 107.179 251.824 107.179C252.603 107.179 253.271 107.386 253.828 107.8C254.385 108.211 254.811 108.808 255.106 109.59C255.404 110.369 255.553 111.31 255.553 112.414C255.553 113.524 255.406 114.472 255.111 115.258C254.816 116.04 254.39 116.638 253.833 117.053C253.276 117.464 252.607 117.669 251.824 117.669ZM251.824 116.342C252.514 116.342 253.052 116.005 253.44 115.332C253.831 114.66 254.027 113.687 254.027 112.414C254.027 111.569 253.937 110.855 253.758 110.271C253.583 109.685 253.329 109.241 252.998 108.939C252.67 108.634 252.278 108.482 251.824 108.482C251.138 108.482 250.6 108.82 250.209 109.496C249.818 110.172 249.62 111.145 249.617 112.414C249.617 113.263 249.705 113.98 249.881 114.567C250.059 115.15 250.313 115.593 250.641 115.894C250.969 116.192 251.364 116.342 251.824 116.342ZM260.708 117.669C259.922 117.666 259.251 117.459 258.694 117.048C258.137 116.637 257.711 116.038 257.416 115.253C257.121 114.467 256.974 113.521 256.974 112.414C256.974 111.31 257.121 110.367 257.416 109.585C257.715 108.803 258.142 108.206 258.699 107.795C259.259 107.384 259.929 107.179 260.708 107.179C261.486 107.179 262.154 107.386 262.711 107.8C263.268 108.211 263.694 108.808 263.989 109.59C264.287 110.369 264.436 111.31 264.436 112.414C264.436 113.524 264.289 114.472 263.994 115.258C263.699 116.04 263.273 116.638 262.716 117.053C262.159 117.464 261.49 117.669 260.708 117.669ZM260.708 116.342C261.397 116.342 261.935 116.005 262.323 115.332C262.714 114.66 262.91 113.687 262.91 112.414C262.91 111.569 262.82 110.855 262.641 110.271C262.466 109.685 262.212 109.241 261.881 108.939C261.553 108.634 261.162 108.482 260.708 108.482C260.021 108.482 259.483 108.82 259.092 109.496C258.701 110.172 258.503 111.145 258.5 112.414C258.5 113.263 258.588 113.98 258.764 114.567C258.943 115.15 259.196 115.593 259.524 115.894C259.852 116.192 260.247 116.342 260.708 116.342ZM269.407 117.639C268.784 117.639 268.223 117.52 267.726 117.281C267.232 117.039 266.838 116.708 266.543 116.287C266.248 115.866 266.091 115.385 266.071 114.845H267.562C267.599 115.283 267.793 115.642 268.144 115.924C268.495 116.206 268.916 116.347 269.407 116.347C269.798 116.347 270.144 116.257 270.446 116.078C270.751 115.896 270.989 115.646 271.162 115.327C271.337 115.009 271.425 114.646 271.425 114.239C271.425 113.824 271.336 113.455 271.157 113.13C270.978 112.805 270.731 112.55 270.416 112.364C270.104 112.179 269.746 112.084 269.342 112.081C269.034 112.081 268.724 112.134 268.412 112.24C268.101 112.346 267.849 112.485 267.657 112.658L266.25 112.449L266.821 107.318H272.419V108.636H268.099L267.776 111.484H267.836C268.035 111.292 268.298 111.131 268.626 111.002C268.958 110.873 269.312 110.808 269.69 110.808C270.31 110.808 270.862 110.956 271.346 111.251C271.833 111.546 272.216 111.948 272.494 112.459C272.776 112.966 272.915 113.549 272.912 114.209C272.915 114.868 272.766 115.457 272.464 115.974C272.166 116.491 271.752 116.898 271.221 117.197C270.694 117.492 270.089 117.639 269.407 117.639Z" fill="black" fill-opacity="0.8"/>
<path d="M25.9659 17V9.76201H27.6319V10.798C27.7439 10.6113 27.8956 10.4317 28.0869 10.259C28.2829 10.0863 28.5232 9.94634 28.8079 9.83901C29.0926 9.73168 29.4262 9.67801 29.8089 9.67801C30.2569 9.67801 30.6722 9.76668 31.0549 9.94401C31.4422 10.1213 31.7526 10.399 31.9859 10.777C32.2239 11.155 32.3429 11.6427 32.3429 12.24V17H30.6349V12.443C30.6349 11.967 30.5042 11.6147 30.2429 11.386C29.9816 11.1527 29.6526 11.036 29.2559 11.036C28.9852 11.036 28.7286 11.0827 28.4859 11.176C28.2432 11.2647 28.0449 11.4023 27.8909 11.589C27.7416 11.771 27.6669 11.9997 27.6669 12.275V17H25.9659ZM36.221 17.14C35.759 17.14 35.3437 17.056 34.975 16.888C34.611 16.7153 34.324 16.4703 34.114 16.153C33.9087 15.831 33.806 15.4413 33.806 14.984C33.806 14.186 34.093 13.584 34.667 13.178C35.2457 12.772 36.165 12.5597 37.425 12.541L38.51 12.513V12.023C38.51 11.6403 38.3957 11.3417 38.167 11.127C37.943 10.9077 37.593 10.8003 37.117 10.805C36.7623 10.8097 36.4403 10.8937 36.151 11.057C35.8617 11.2157 35.6703 11.484 35.577 11.862H34.128C34.156 11.3673 34.2983 10.9543 34.555 10.623C34.8163 10.287 35.1733 10.0373 35.626 9.87401C36.0787 9.70601 36.6013 9.62201 37.194 9.62201C37.8847 9.62201 38.447 9.71301 38.881 9.89501C39.315 10.077 39.6347 10.3407 39.84 10.686C40.0453 11.0267 40.148 11.4397 40.148 11.925V17H38.713L38.573 15.698C38.3163 16.244 37.9873 16.622 37.586 16.832C37.1893 17.0373 36.7343 17.14 36.221 17.14ZM36.774 15.985C36.984 15.985 37.1917 15.9477 37.397 15.873C37.6023 15.7937 37.7867 15.6887 37.95 15.558C38.118 15.4227 38.251 15.2733 38.349 15.11C38.4517 14.9467 38.5053 14.7763 38.51 14.599V13.458L37.621 13.472C37.1823 13.4767 36.7973 13.5233 36.466 13.612C36.1393 13.7007 35.885 13.843 35.703 14.039C35.521 14.2303 35.43 14.487 35.43 14.809C35.43 15.1777 35.5583 15.467 35.815 15.677C36.0717 15.8823 36.3913 15.985 36.774 15.985ZM41.962 17V9.76201H43.621V10.798C43.831 10.4807 44.1157 10.2053 44.475 9.97201C44.839 9.73868 45.301 9.62201 45.861 9.62201C46.1177 9.62201 46.3767 9.66634 46.638 9.75501C46.904 9.84368 47.149 9.97434 47.373 10.147C47.6017 10.3197 47.7837 10.5343 47.919 10.791C48.1477 10.4503 48.451 10.1703 48.829 9.95101C49.2117 9.73168 49.641 9.62201 50.117 9.62201C50.3783 9.62201 50.6467 9.66401 50.922 9.74801C51.202 9.83201 51.4587 9.97201 51.692 10.168C51.9253 10.364 52.1143 10.6323 52.259 10.973C52.4037 11.309 52.476 11.7313 52.476 12.24V17H50.775V12.443C50.775 12.0837 50.712 11.8013 50.586 11.596C50.46 11.3907 50.2967 11.246 50.096 11.162C49.9 11.0733 49.69 11.029 49.466 11.029C49.2653 11.029 49.0553 11.0687 48.836 11.148C48.6213 11.2273 48.437 11.358 48.283 11.54C48.1337 11.722 48.059 11.967 48.059 12.275V17H46.358V12.17C46.358 11.918 46.2927 11.708 46.162 11.54C46.0313 11.372 45.8657 11.246 45.665 11.162C45.469 11.0733 45.2683 11.029 45.063 11.029C44.853 11.029 44.6383 11.0733 44.419 11.162C44.2043 11.2507 44.0247 11.386 43.88 11.568C43.7353 11.75 43.663 11.9857 43.663 12.275V17H41.962ZM57.5067 17.14C56.8114 17.14 56.1977 16.993 55.6657 16.699C55.1384 16.4003 54.7254 15.9757 54.4267 15.425C54.1327 14.8743 53.9857 14.2187 53.9857 13.458C53.9857 12.716 54.1187 12.058 54.3847 11.484C54.6554 10.9053 55.045 10.4503 55.5537 10.119C56.067 9.78768 56.6854 9.62201 57.4087 9.62201C58.1227 9.62201 58.7224 9.77368 59.2077 10.077C59.693 10.3803 60.0617 10.805 60.3137 11.351C60.5657 11.8923 60.6917 12.527 60.6917 13.255V13.773H55.6867C55.682 14.1837 55.7474 14.5477 55.8827 14.865C56.018 15.1823 56.2187 15.432 56.4847 15.614C56.7507 15.7913 57.0797 15.88 57.4717 15.88C57.873 15.88 58.2207 15.7913 58.5147 15.614C58.8134 15.432 59.0117 15.1567 59.1097 14.788H60.6637C60.5797 15.292 60.379 15.719 60.0617 16.069C59.749 16.419 59.3664 16.685 58.9137 16.867C58.4657 17.049 57.9967 17.14 57.5067 17.14ZM55.6797 12.716H59.0817C59.0817 12.366 59.0187 12.051 58.8927 11.771C58.7714 11.4863 58.587 11.2623 58.3397 11.099C58.0924 10.931 57.7797 10.847 57.4017 10.847C57.0284 10.847 56.7134 10.938 56.4567 11.12C56.2 11.302 56.0064 11.5377 55.8757 11.827C55.745 12.1117 55.6797 12.408 55.6797 12.716ZM62.0814 11.932V9.98601H64.0064V11.932H62.0814ZM62.0814 16.958V15.026H64.0064V16.958H62.0814ZM69.369 10.497L68.9 6.87801H70.755L70.265 10.497H69.369ZM72.8323 17V6.87801H76.4233C77.1513 6.87801 77.8023 7.00401 78.3763 7.25601C78.955 7.50334 79.41 7.86968 79.7413 8.35501C80.0727 8.84034 80.2383 9.43768 80.2383 10.147C80.2383 10.8143 80.0867 11.386 79.7833 11.862C79.4847 12.338 79.067 12.702 78.5303 12.954C77.9937 13.206 77.366 13.332 76.6473 13.332H74.5613V17H72.8323ZM74.5473 11.967H76.6053C77.198 11.967 77.681 11.7897 78.0543 11.435C78.4323 11.0803 78.6213 10.6183 78.6213 10.049C78.6213 9.47034 78.4253 9.02234 78.0333 8.70501C77.6413 8.38301 77.149 8.22201 76.5563 8.22201H74.5473V11.967ZM83.5257 17.14C83.0637 17.14 82.6484 17.056 82.2797 16.888C81.9157 16.7153 81.6287 16.4703 81.4187 16.153C81.2134 15.831 81.1107 15.4413 81.1107 14.984C81.1107 14.186 81.3977 13.584 81.9717 13.178C82.5504 12.772 83.4697 12.5597 84.7297 12.541L85.8147 12.513V12.023C85.8147 11.6403 85.7004 11.3417 85.4717 11.127C85.2477 10.9077 84.8977 10.8003 84.4217 10.805C84.067 10.8097 83.745 10.8937 83.4557 11.057C83.1664 11.2157 82.975 11.484 82.8817 11.862H81.4327C81.4607 11.3673 81.603 10.9543 81.8597 10.623C82.121 10.287 82.478 10.0373 82.9307 9.87401C83.3834 9.70601 83.906 9.62201 84.4987 9.62201C85.1894 9.62201 85.7517 9.71301 86.1857 9.89501C86.6197 10.077 86.9394 10.3407 87.1447 10.686C87.35 11.0267 87.4527 11.4397 87.4527 11.925V17H86.0177L85.8777 15.698C85.621 16.244 85.292 16.622 84.8907 16.832C84.494 17.0373 84.039 17.14 83.5257 17.14ZM84.0787 15.985C84.2887 15.985 84.4964 15.9477 84.7017 15.873C84.907 15.7937 85.0914 15.6887 85.2547 15.558C85.4227 15.4227 85.5557 15.2733 85.6537 15.11C85.7564 14.9467 85.81 14.7763 85.8147 14.599V13.458L84.9257 13.472C84.487 13.4767 84.102 13.5233 83.7707 13.612C83.444 13.7007 83.1897 13.843 83.0077 14.039C82.8257 14.2303 82.7347 14.487 82.7347 14.809C82.7347 15.1777 82.863 15.467 83.1197 15.677C83.3764 15.8823 83.696 15.985 84.0787 15.985ZM91.8846 17.056C91.3106 17.056 90.8649 16.9813 90.5476 16.832C90.2349 16.678 90.0179 16.461 89.8966 16.181C89.7752 15.901 89.7146 15.5673 89.7146 15.18V10.966H88.5386V9.76201H89.7636L90.1906 7.61301H91.4156V9.75501H93.0326V10.966H91.4156L91.4226 15.117C91.4226 15.3317 91.4459 15.4903 91.4926 15.593C91.5439 15.691 91.6232 15.7563 91.7306 15.789C91.8426 15.817 91.9896 15.831 92.1716 15.831H93.0676V16.909C92.9696 16.9463 92.8249 16.979 92.6336 17.007C92.4469 17.0397 92.1972 17.056 91.8846 17.056ZM94.6397 17V9.76201H96.2707V11.33C96.3874 10.9707 96.5531 10.665 96.7677 10.413C96.9871 10.1563 97.2438 9.96034 97.5378 9.82501C97.8318 9.68968 98.1514 9.62201 98.4967 9.62201C98.5807 9.62201 98.6624 9.62668 98.7417 9.63601C98.8211 9.64534 98.8794 9.66168 98.9167 9.68501V11.316C98.8654 11.2927 98.7977 11.2763 98.7137 11.267C98.6344 11.2577 98.5644 11.253 98.5037 11.253C98.1537 11.225 97.8434 11.239 97.5727 11.295C97.3067 11.351 97.0804 11.4467 96.8937 11.582C96.7117 11.7127 96.5741 11.8807 96.4807 12.086C96.3874 12.2867 96.3407 12.5223 96.3407 12.793V17H94.6397ZM100.301 17V9.76201H101.932V17H100.301ZM100.273 8.49501V6.88501H101.96V8.49501H100.273ZM106.92 17.14C106.257 17.14 105.667 16.9953 105.149 16.706C104.636 16.412 104.232 15.9873 103.938 15.432C103.644 14.872 103.497 14.1977 103.497 13.409C103.497 12.6577 103.635 11.9997 103.91 11.435C104.19 10.8657 104.584 10.4223 105.093 10.105C105.606 9.78301 106.215 9.62201 106.92 9.62201C107.485 9.62201 107.982 9.73401 108.411 9.95801C108.84 10.182 109.183 10.4923 109.44 10.889C109.701 11.2857 109.858 11.736 109.909 12.24H108.46C108.423 12.0207 108.341 11.813 108.215 11.617C108.089 11.4163 107.919 11.2553 107.704 11.134C107.494 11.008 107.237 10.945 106.934 10.945C106.388 10.945 105.947 11.1457 105.611 11.547C105.275 11.9483 105.107 12.5643 105.107 13.395C105.107 14.1603 105.266 14.7693 105.583 15.222C105.905 15.6747 106.365 15.901 106.962 15.901C107.261 15.901 107.517 15.8357 107.732 15.705C107.947 15.5697 108.115 15.404 108.236 15.208C108.362 15.0073 108.441 14.8067 108.474 14.606H109.888C109.846 15.096 109.694 15.5323 109.433 15.915C109.172 16.2977 108.826 16.5987 108.397 16.818C107.968 17.0327 107.475 17.14 106.92 17.14ZM111.456 17V6.59801H113.15V13.045L116.153 9.76201H118.022L115.404 12.59L118.155 17H116.426L114.326 13.647L113.15 14.879V17H111.456ZM119.271 10.497L118.802 6.87801H120.657L120.167 10.497H119.271Z" fill="black"/>
<path d="M375.966 17V9.76201H377.632V10.798C377.744 10.6113 377.896 10.4317 378.087 10.259C378.283 10.0863 378.523 9.94634 378.808 9.83901C379.093 9.73168 379.426 9.67801 379.809 9.67801C380.257 9.67801 380.672 9.76668 381.055 9.94401C381.442 10.1213 381.753 10.399 381.986 10.777C382.224 11.155 382.343 11.6427 382.343 12.24V17H380.635V12.443C380.635 11.967 380.504 11.6147 380.243 11.386C379.982 11.1527 379.653 11.036 379.256 11.036C378.985 11.036 378.729 11.0827 378.486 11.176C378.243 11.2647 378.045 11.4023 377.891 11.589C377.742 11.771 377.667 11.9997 377.667 12.275V17H375.966ZM386.221 17.14C385.759 17.14 385.344 17.056 384.975 16.888C384.611 16.7153 384.324 16.4703 384.114 16.153C383.909 15.831 383.806 15.4413 383.806 14.984C383.806 14.186 384.093 13.584 384.667 13.178C385.246 12.772 386.165 12.5597 387.425 12.541L388.51 12.513V12.023C388.51 11.6403 388.396 11.3417 388.167 11.127C387.943 10.9077 387.593 10.8003 387.117 10.805C386.762 10.8097 386.44 10.8937 386.151 11.057C385.862 11.2157 385.67 11.484 385.577 11.862H384.128C384.156 11.3673 384.298 10.9543 384.555 10.623C384.816 10.287 385.173 10.0373 385.626 9.87401C386.079 9.70601 386.601 9.62201 387.194 9.62201C387.885 9.62201 388.447 9.71301 388.881 9.89501C389.315 10.077 389.635 10.3407 389.84 10.686C390.045 11.0267 390.148 11.4397 390.148 11.925V17H388.713L388.573 15.698C388.316 16.244 387.987 16.622 387.586 16.832C387.189 17.0373 386.734 17.14 386.221 17.14ZM386.774 15.985C386.984 15.985 387.192 15.9477 387.397 15.873C387.602 15.7937 387.787 15.6887 387.95 15.558C388.118 15.4227 388.251 15.2733 388.349 15.11C388.452 14.9467 388.505 14.7763 388.51 14.599V13.458L387.621 13.472C387.182 13.4767 386.797 13.5233 386.466 13.612C386.139 13.7007 385.885 13.843 385.703 14.039C385.521 14.2303 385.43 14.487 385.43 14.809C385.43 15.1777 385.558 15.467 385.815 15.677C386.072 15.8823 386.391 15.985 386.774 15.985ZM391.962 17V9.76201H393.621V10.798C393.831 10.4807 394.116 10.2053 394.475 9.97201C394.839 9.73868 395.301 9.62201 395.861 9.62201C396.118 9.62201 396.377 9.66634 396.638 9.75501C396.904 9.84368 397.149 9.97434 397.373 10.147C397.602 10.3197 397.784 10.5343 397.919 10.791C398.148 10.4503 398.451 10.1703 398.829 9.95101C399.212 9.73168 399.641 9.62201 400.117 9.62201C400.378 9.62201 400.647 9.66401 400.922 9.74801C401.202 9.83201 401.459 9.97201 401.692 10.168C401.925 10.364 402.114 10.6323 402.259 10.973C402.404 11.309 402.476 11.7313 402.476 12.24V17H400.775V12.443C400.775 12.0837 400.712 11.8013 400.586 11.596C400.46 11.3907 400.297 11.246 400.096 11.162C399.9 11.0733 399.69 11.029 399.466 11.029C399.265 11.029 399.055 11.0687 398.836 11.148C398.621 11.2273 398.437 11.358 398.283 11.54C398.134 11.722 398.059 11.967 398.059 12.275V17H396.358V12.17C396.358 11.918 396.293 11.708 396.162 11.54C396.031 11.372 395.866 11.246 395.665 11.162C395.469 11.0733 395.268 11.029 395.063 11.029C394.853 11.029 394.638 11.0733 394.419 11.162C394.204 11.2507 394.025 11.386 393.88 11.568C393.735 11.75 393.663 11.9857 393.663 12.275V17H391.962ZM407.507 17.14C406.811 17.14 406.198 16.993 405.666 16.699C405.138 16.4003 404.725 15.9757 404.427 15.425C404.133 14.8743 403.986 14.2187 403.986 13.458C403.986 12.716 404.119 12.058 404.385 11.484C404.655 10.9053 405.045 10.4503 405.554 10.119C406.067 9.78768 406.685 9.62201 407.409 9.62201C408.123 9.62201 408.722 9.77368 409.208 10.077C409.693 10.3803 410.062 10.805 410.314 11.351C410.566 11.8923 410.692 12.527 410.692 13.255V13.773H405.687C405.682 14.1837 405.747 14.5477 405.883 14.865C406.018 15.1823 406.219 15.432 406.485 15.614C406.751 15.7913 407.08 15.88 407.472 15.88C407.873 15.88 408.221 15.7913 408.515 15.614C408.813 15.432 409.012 15.1567 409.11 14.788H410.664C410.58 15.292 410.379 15.719 410.062 16.069C409.749 16.419 409.366 16.685 408.914 16.867C408.466 17.049 407.997 17.14 407.507 17.14ZM405.68 12.716H409.082C409.082 12.366 409.019 12.051 408.893 11.771C408.771 11.4863 408.587 11.2623 408.34 11.099C408.092 10.931 407.78 10.847 407.402 10.847C407.028 10.847 406.713 10.938 406.457 11.12C406.2 11.302 406.006 11.5377 405.876 11.827C405.745 12.1117 405.68 12.408 405.68 12.716ZM412.082 11.932V9.98601H414.007V11.932H412.082ZM412.082 16.958V15.026H414.007V16.958H412.082ZM418.739 10.525L419.53 8.69801L418.872 8.64901V6.87801H420.734V8.43201L419.425 10.525H418.739ZM420.429 17L424.062 6.87801H425.91L429.543 17H427.835L426.932 14.459H423.054L422.144 17H420.429ZM423.46 12.947H426.505L424.986 8.53001L423.46 12.947ZM433.815 17.14C433.152 17.14 432.562 16.9953 432.044 16.706C431.53 16.412 431.127 15.9873 430.833 15.432C430.539 14.872 430.392 14.1977 430.392 13.409C430.392 12.6577 430.529 11.9997 430.805 11.435C431.085 10.8657 431.479 10.4223 431.988 10.105C432.501 9.78301 433.11 9.62201 433.815 9.62201C434.379 9.62201 434.876 9.73401 435.306 9.95801C435.735 10.182 436.078 10.4923 436.335 10.889C436.596 11.2857 436.752 11.736 436.804 12.24H435.355C435.317 12.0207 435.236 11.813 435.11 11.617C434.984 11.4163 434.813 11.2553 434.599 11.134C434.389 11.008 434.132 10.945 433.829 10.945C433.283 10.945 432.842 11.1457 432.506 11.547C432.17 11.9483 432.002 12.5643 432.002 13.395C432.002 14.1603 432.16 14.7693 432.478 15.222C432.8 15.6747 433.259 15.901 433.857 15.901C434.155 15.901 434.412 15.8357 434.627 15.705C434.841 15.5697 435.009 15.404 435.131 15.208C435.257 15.0073 435.336 14.8067 435.369 14.606H436.783C436.741 15.096 436.589 15.5323 436.328 15.915C436.066 16.2977 435.721 16.5987 435.292 16.818C434.862 17.0327 434.37 17.14 433.815 17.14ZM438.351 17V9.76201H440.01V10.798C440.22 10.4807 440.504 10.2053 440.864 9.97201C441.228 9.73868 441.69 9.62201 442.25 9.62201C442.506 9.62201 442.765 9.66634 443.027 9.75501C443.293 9.84368 443.538 9.97434 443.762 10.147C443.99 10.3197 444.172 10.5343 444.308 10.791C444.536 10.4503 444.84 10.1703 445.218 9.95101C445.6 9.73168 446.03 9.62201 446.506 9.62201C446.767 9.62201 447.035 9.66401 447.311 9.74801C447.591 9.83201 447.847 9.97201 448.081 10.168C448.314 10.364 448.503 10.6323 448.648 10.973C448.792 11.309 448.865 11.7313 448.865 12.24V17H447.164V12.443C447.164 12.0837 447.101 11.8013 446.975 11.596C446.849 11.3907 446.685 11.246 446.485 11.162C446.289 11.0733 446.079 11.029 445.855 11.029C445.654 11.029 445.444 11.0687 445.225 11.148C445.01 11.2273 444.826 11.358 444.672 11.54C444.522 11.722 444.448 11.967 444.448 12.275V17H442.747V12.17C442.747 11.918 442.681 11.708 442.551 11.54C442.42 11.372 442.254 11.246 442.054 11.162C441.858 11.0733 441.657 11.029 441.452 11.029C441.242 11.029 441.027 11.0733 440.808 11.162C440.593 11.2507 440.413 11.386 440.269 11.568C440.124 11.75 440.052 11.9857 440.052 12.275V17H438.351ZM453.895 17.14C453.2 17.14 452.586 16.993 452.054 16.699C451.527 16.4003 451.114 15.9757 450.815 15.425C450.521 14.8743 450.374 14.2187 450.374 13.458C450.374 12.716 450.507 12.058 450.773 11.484C451.044 10.9053 451.434 10.4503 451.942 10.119C452.456 9.78768 453.074 9.62201 453.797 9.62201C454.511 9.62201 455.111 9.77368 455.596 10.077C456.082 10.3803 456.45 10.805 456.702 11.351C456.954 11.8923 457.08 12.527 457.08 13.255V13.773H452.075C452.071 14.1837 452.136 14.5477 452.271 14.865C452.407 15.1823 452.607 15.432 452.873 15.614C453.139 15.7913 453.468 15.88 453.86 15.88C454.262 15.88 454.609 15.7913 454.903 15.614C455.202 15.432 455.4 15.1567 455.498 14.788H457.052C456.968 15.292 456.768 15.719 456.45 16.069C456.138 16.419 455.755 16.685 455.302 16.867C454.854 17.049 454.385 17.14 453.895 17.14ZM452.068 12.716H455.47C455.47 12.366 455.407 12.051 455.281 11.771C455.16 11.4863 454.976 11.2623 454.728 11.099C454.481 10.931 454.168 10.847 453.79 10.847C453.417 10.847 453.102 10.938 452.845 11.12C452.589 11.302 452.395 11.5377 452.264 11.827C452.134 12.1117 452.068 12.408 452.068 12.716ZM457.895 10.525L458.686 8.69801L458.028 8.64901V6.87801H459.89V8.43201L458.581 10.525H457.895Z" fill="black"/>
<path d="M174.871 454.056C174.297 454.056 173.851 453.981 173.534 453.832C173.221 453.678 173.004 453.461 172.883 453.181C172.762 452.901 172.701 452.567 172.701 452.18V447.966H171.525V446.762H172.75L173.177 444.613H174.402V446.755H176.019V447.966H174.402L174.409 452.117C174.409 452.332 174.432 452.49 174.479 452.593C174.53 452.691 174.61 452.756 174.717 452.789C174.829 452.817 174.976 452.831 175.158 452.831H176.054V453.909C175.956 453.946 175.811 453.979 175.62 454.007C175.433 454.04 175.184 454.056 174.871 454.056ZM177.654 454V446.762H179.285V454H177.654ZM177.626 445.495V443.885H179.313V445.495H177.626ZM184.141 454.056C183.567 454.056 183.121 453.981 182.804 453.832C182.491 453.678 182.274 453.461 182.153 453.181C182.031 452.901 181.971 452.567 181.971 452.18V447.966H180.795V446.762H182.02L182.447 444.613H183.672V446.755H185.289V447.966H183.672L183.679 452.117C183.679 452.332 183.702 452.49 183.749 452.593C183.8 452.691 183.879 452.756 183.987 452.789C184.099 452.817 184.246 452.831 184.428 452.831H185.324V453.909C185.226 453.946 185.081 453.979 184.89 454.007C184.703 454.04 184.453 454.056 184.141 454.056ZM188.982 454.105C188.515 454.105 188.142 454.047 187.862 453.93C187.582 453.813 187.372 453.657 187.232 453.461C187.092 453.265 187.001 453.046 186.959 452.803C186.917 452.556 186.896 452.304 186.896 452.047V443.598H188.562V451.851C188.562 452.164 188.625 452.406 188.751 452.579C188.881 452.752 189.091 452.852 189.381 452.88L189.745 452.894V453.965C189.619 454.002 189.49 454.035 189.36 454.063C189.229 454.091 189.103 454.105 188.982 454.105ZM194.155 454.14C193.46 454.14 192.846 453.993 192.314 453.699C191.787 453.4 191.374 452.976 191.075 452.425C190.781 451.874 190.634 451.219 190.634 450.458C190.634 449.716 190.767 449.058 191.033 448.484C191.304 447.905 191.694 447.45 192.202 447.119C192.716 446.788 193.334 446.622 194.057 446.622C194.771 446.622 195.371 446.774 195.856 447.077C196.342 447.38 196.71 447.805 196.962 448.351C197.214 448.892 197.34 449.527 197.34 450.255V450.773H192.335C192.331 451.184 192.396 451.548 192.531 451.865C192.667 452.182 192.867 452.432 193.133 452.614C193.399 452.791 193.728 452.88 194.12 452.88C194.522 452.88 194.869 452.791 195.163 452.614C195.462 452.432 195.66 452.157 195.758 451.788H197.312C197.228 452.292 197.028 452.719 196.71 453.069C196.398 453.419 196.015 453.685 195.562 453.867C195.114 454.049 194.645 454.14 194.155 454.14ZM192.328 449.716H195.73C195.73 449.366 195.667 449.051 195.541 448.771C195.42 448.486 195.236 448.262 194.988 448.099C194.741 447.931 194.428 447.847 194.05 447.847C193.677 447.847 193.362 447.938 193.105 448.12C192.849 448.302 192.655 448.538 192.524 448.827C192.394 449.112 192.328 449.408 192.328 449.716ZM198.73 448.932V446.986H200.655V448.932H198.73ZM198.73 453.958V452.026H200.655V453.958H198.73ZM209.546 454.14C209.042 454.14 208.559 454.079 208.097 453.958C207.635 453.832 207.212 453.648 206.83 453.405C206.452 453.158 206.139 452.852 205.892 452.488C205.644 452.119 205.493 451.69 205.437 451.2H207.201C207.275 451.541 207.422 451.828 207.642 452.061C207.866 452.294 208.148 452.472 208.489 452.593C208.829 452.714 209.21 452.775 209.63 452.775C210.003 452.775 210.351 452.719 210.673 452.607C210.995 452.495 211.256 452.329 211.457 452.11C211.657 451.886 211.757 451.611 211.757 451.284C211.757 450.915 211.627 450.628 211.366 450.423C211.109 450.213 210.74 450.047 210.26 449.926L208.279 449.457C207.765 449.34 207.317 449.17 206.935 448.946C206.557 448.722 206.263 448.428 206.053 448.064C205.843 447.695 205.738 447.245 205.738 446.713C205.738 446.106 205.903 445.581 206.235 445.138C206.571 444.695 207.026 444.354 207.6 444.116C208.174 443.873 208.82 443.752 209.539 443.752C210.36 443.752 211.053 443.89 211.618 444.165C212.182 444.436 212.612 444.8 212.906 445.257C213.2 445.714 213.349 446.216 213.354 446.762H211.632C211.594 446.356 211.475 446.036 211.275 445.803C211.074 445.565 210.82 445.392 210.512 445.285C210.204 445.178 209.863 445.124 209.49 445.124C208.827 445.124 208.335 445.266 208.013 445.551C207.691 445.836 207.53 446.169 207.53 446.552C207.53 446.911 207.649 447.196 207.887 447.406C208.125 447.616 208.489 447.779 208.979 447.896L210.862 448.337C211.492 448.468 211.998 448.668 212.381 448.939C212.763 449.21 213.041 449.532 213.214 449.905C213.391 450.274 213.48 450.682 213.48 451.13C213.48 451.718 213.312 452.238 212.976 452.691C212.644 453.144 212.185 453.498 211.597 453.755C211.009 454.012 210.325 454.14 209.546 454.14ZM218.193 454.14C217.503 454.14 216.901 453.993 216.387 453.699C215.874 453.4 215.475 452.973 215.19 452.418C214.91 451.863 214.77 451.195 214.77 450.416C214.77 449.66 214.908 448.997 215.183 448.428C215.459 447.859 215.851 447.415 216.359 447.098C216.873 446.781 217.486 446.622 218.2 446.622C218.891 446.622 219.491 446.774 219.999 447.077C220.508 447.38 220.9 447.814 221.175 448.379C221.455 448.944 221.595 449.623 221.595 450.416C221.595 451.149 221.462 451.795 221.196 452.355C220.935 452.91 220.55 453.347 220.041 453.664C219.537 453.981 218.921 454.14 218.193 454.14ZM218.2 452.845C218.592 452.845 218.914 452.738 219.166 452.523C219.423 452.308 219.614 452.014 219.74 451.641C219.866 451.268 219.929 450.843 219.929 450.367C219.929 449.924 219.873 449.515 219.761 449.142C219.649 448.769 219.465 448.47 219.208 448.246C218.956 448.017 218.62 447.903 218.2 447.903C217.804 447.903 217.475 448.008 217.213 448.218C216.957 448.423 216.765 448.713 216.639 449.086C216.513 449.455 216.45 449.882 216.45 450.367C216.45 450.806 216.506 451.214 216.618 451.592C216.73 451.965 216.915 452.269 217.171 452.502C217.428 452.731 217.771 452.845 218.2 452.845ZM223.789 454V447.966H222.361V446.762H223.789V445.684C223.789 445.105 223.948 444.66 224.265 444.347C224.587 444.034 225.052 443.878 225.658 443.878H227.184L227.191 445.04H226.183C225.908 445.04 225.719 445.112 225.616 445.257C225.514 445.397 225.462 445.619 225.462 445.922V446.762H227.121V447.966H225.49V454H223.789ZM231.076 454.056C230.502 454.056 230.056 453.981 229.739 453.832C229.426 453.678 229.209 453.461 229.088 453.181C228.967 452.901 228.906 452.567 228.906 452.18V447.966H227.73V446.762H228.955L229.382 444.613H230.607V446.755H232.224V447.966H230.607L230.614 452.117C230.614 452.332 230.637 452.49 230.684 452.593C230.735 452.691 230.815 452.756 230.922 452.789C231.034 452.817 231.181 452.831 231.363 452.831H232.259V453.909C232.161 453.946 232.016 453.979 231.825 454.007C231.638 454.04 231.389 454.056 231.076 454.056ZM235.441 454L233.145 446.762H234.678L236.183 451.739H236.267L237.73 446.762H238.969L240.474 451.732H240.558L242.014 446.762H243.575L241.279 454H239.809L238.325 449.177L236.876 454H235.441ZM246.684 454.14C246.222 454.14 245.807 454.056 245.438 453.888C245.074 453.715 244.787 453.47 244.577 453.153C244.372 452.831 244.269 452.441 244.269 451.984C244.269 451.186 244.556 450.584 245.13 450.178C245.709 449.772 246.628 449.56 247.888 449.541L248.973 449.513V449.023C248.973 448.64 248.859 448.342 248.63 448.127C248.406 447.908 248.056 447.8 247.58 447.805C247.225 447.81 246.903 447.894 246.614 448.057C246.325 448.216 246.133 448.484 246.04 448.862H244.591C244.619 448.367 244.761 447.954 245.018 447.623C245.279 447.287 245.636 447.037 246.089 446.874C246.542 446.706 247.064 446.622 247.657 446.622C248.348 446.622 248.91 446.713 249.344 446.895C249.778 447.077 250.098 447.341 250.303 447.686C250.508 448.027 250.611 448.44 250.611 448.925V454H249.176L249.036 452.698C248.779 453.244 248.45 453.622 248.049 453.832C247.652 454.037 247.197 454.14 246.684 454.14ZM247.237 452.985C247.447 452.985 247.655 452.948 247.86 452.873C248.065 452.794 248.25 452.689 248.413 452.558C248.581 452.423 248.714 452.273 248.812 452.11C248.915 451.947 248.968 451.776 248.973 451.599V450.458L248.084 450.472C247.645 450.477 247.26 450.523 246.929 450.612C246.602 450.701 246.348 450.843 246.166 451.039C245.984 451.23 245.893 451.487 245.893 451.809C245.893 452.178 246.021 452.467 246.278 452.677C246.535 452.882 246.854 452.985 247.237 452.985ZM252.425 454V446.762H254.056V448.33C254.173 447.971 254.338 447.665 254.553 447.413C254.772 447.156 255.029 446.96 255.323 446.825C255.617 446.69 255.937 446.622 256.282 446.622C256.366 446.622 256.448 446.627 256.527 446.636C256.606 446.645 256.665 446.662 256.702 446.685V448.316C256.651 448.293 256.583 448.276 256.499 448.267C256.42 448.258 256.35 448.253 256.289 448.253C255.939 448.225 255.629 448.239 255.358 448.295C255.092 448.351 254.866 448.447 254.679 448.582C254.497 448.713 254.359 448.881 254.266 449.086C254.173 449.287 254.126 449.522 254.126 449.793V454H252.425ZM261.202 454.14C260.507 454.14 259.893 453.993 259.361 453.699C258.834 453.4 258.421 452.976 258.122 452.425C257.828 451.874 257.681 451.219 257.681 450.458C257.681 449.716 257.814 449.058 258.08 448.484C258.351 447.905 258.74 447.45 259.249 447.119C259.762 446.788 260.381 446.622 261.104 446.622C261.818 446.622 262.418 446.774 262.903 447.077C263.388 447.38 263.757 447.805 264.009 448.351C264.261 448.892 264.387 449.527 264.387 450.255V450.773H259.382C259.377 451.184 259.443 451.548 259.578 451.865C259.713 452.182 259.914 452.432 260.18 452.614C260.446 452.791 260.775 452.88 261.167 452.88C261.568 452.88 261.916 452.791 262.21 452.614C262.509 452.432 262.707 452.157 262.805 451.788H264.359C264.275 452.292 264.074 452.719 263.757 453.069C263.444 453.419 263.062 453.685 262.609 453.867C262.161 454.049 261.692 454.14 261.202 454.14ZM259.375 449.716H262.777C262.777 449.366 262.714 449.051 262.588 448.771C262.467 448.486 262.282 448.262 262.035 448.099C261.788 447.931 261.475 447.847 261.097 447.847C260.724 447.847 260.409 447.938 260.152 448.12C259.895 448.302 259.702 448.538 259.571 448.827C259.44 449.112 259.375 449.408 259.375 449.716ZM271.779 454.14C270.822 454.14 270.071 453.811 269.525 453.153C268.979 452.495 268.706 451.559 268.706 450.346C268.706 449.59 268.816 448.934 269.035 448.379C269.259 447.819 269.588 447.387 270.022 447.084C270.456 446.776 270.99 446.622 271.625 446.622C271.924 446.622 272.194 446.659 272.437 446.734C272.684 446.804 272.904 446.897 273.095 447.014C273.286 447.131 273.447 447.259 273.578 447.399C273.713 447.539 273.818 447.679 273.893 447.819V443.598H275.608V454H274.348L274.159 452.516C274.098 452.689 274.012 452.871 273.9 453.062C273.793 453.249 273.646 453.424 273.459 453.587C273.277 453.75 273.048 453.883 272.773 453.986C272.498 454.089 272.166 454.14 271.779 454.14ZM272.129 452.887C272.74 452.887 273.186 452.689 273.466 452.292C273.751 451.891 273.893 451.228 273.893 450.304C273.888 449.777 273.823 449.333 273.697 448.974C273.576 448.615 273.389 448.344 273.137 448.162C272.885 447.98 272.556 447.889 272.15 447.889C271.637 447.889 271.214 448.078 270.883 448.456C270.556 448.834 270.393 449.45 270.393 450.304C270.393 451.153 270.545 451.797 270.848 452.236C271.151 452.67 271.578 452.887 272.129 452.887ZM280.726 454.14C280.03 454.14 279.417 453.993 278.885 453.699C278.357 453.4 277.944 452.976 277.646 452.425C277.352 451.874 277.205 451.219 277.205 450.458C277.205 449.716 277.338 449.058 277.604 448.484C277.874 447.905 278.264 447.45 278.773 447.119C279.286 446.788 279.904 446.622 280.628 446.622C281.342 446.622 281.941 446.774 282.427 447.077C282.912 447.38 283.281 447.805 283.533 448.351C283.785 448.892 283.911 449.527 283.911 450.255V450.773H278.906C278.901 451.184 278.966 451.548 279.102 451.865C279.237 452.182 279.438 452.432 279.704 452.614C279.97 452.791 280.299 452.88 280.691 452.88C281.092 452.88 281.44 452.791 281.734 452.614C282.032 452.432 282.231 452.157 282.329 451.788H283.883C283.799 452.292 283.598 452.719 283.281 453.069C282.968 453.419 282.585 453.685 282.133 453.867C281.685 454.049 281.216 454.14 280.726 454.14ZM278.899 449.716H282.301C282.301 449.366 282.238 449.051 282.112 448.771C281.99 448.486 281.806 448.262 281.559 448.099C281.311 447.931 280.999 447.847 280.621 447.847C280.247 447.847 279.932 447.938 279.676 448.12C279.419 448.302 279.225 448.538 279.095 448.827C278.964 449.112 278.899 449.408 278.899 449.716ZM287.321 454L284.647 446.762H286.208L287.944 451.83H288.035L289.764 446.762H291.332L288.665 454H287.321ZM295.56 454.14C294.864 454.14 294.251 453.993 293.719 453.699C293.191 453.4 292.778 452.976 292.48 452.425C292.186 451.874 292.039 451.219 292.039 450.458C292.039 449.716 292.172 449.058 292.438 448.484C292.708 447.905 293.098 447.45 293.607 447.119C294.12 446.788 294.738 446.622 295.462 446.622C296.176 446.622 296.775 446.774 297.261 447.077C297.746 447.38 298.115 447.805 298.367 448.351C298.619 448.892 298.745 449.527 298.745 450.255V450.773H293.74C293.735 451.184 293.8 451.548 293.936 451.865C294.071 452.182 294.272 452.432 294.538 452.614C294.804 452.791 295.133 452.88 295.525 452.88C295.926 452.88 296.274 452.791 296.568 452.614C296.866 452.432 297.065 452.157 297.163 451.788H298.717C298.633 452.292 298.432 452.719 298.115 453.069C297.802 453.419 297.419 453.685 296.967 453.867C296.519 454.049 296.05 454.14 295.56 454.14ZM293.733 449.716H297.135C297.135 449.366 297.072 449.051 296.946 448.771C296.824 448.486 296.64 448.262 296.393 448.099C296.145 447.931 295.833 447.847 295.455 447.847C295.081 447.847 294.766 447.938 294.51 448.12C294.253 448.302 294.059 448.538 293.929 448.827C293.798 449.112 293.733 449.408 293.733 449.716ZM302.458 454.105C301.992 454.105 301.618 454.047 301.338 453.93C301.058 453.813 300.848 453.657 300.708 453.461C300.568 453.265 300.477 453.046 300.435 452.803C300.393 452.556 300.372 452.304 300.372 452.047V443.598H302.038V451.851C302.038 452.164 302.101 452.406 302.227 452.579C302.358 452.752 302.568 452.852 302.857 452.88L303.221 452.894V453.965C303.095 454.002 302.967 454.035 302.836 454.063C302.706 454.091 302.58 454.105 302.458 454.105ZM307.471 454.14C306.78 454.14 306.178 453.993 305.665 453.699C305.151 453.4 304.752 452.973 304.468 452.418C304.188 451.863 304.048 451.195 304.048 450.416C304.048 449.66 304.185 448.997 304.461 448.428C304.736 447.859 305.128 447.415 305.637 447.098C306.15 446.781 306.764 446.622 307.478 446.622C308.168 446.622 308.768 446.774 309.277 447.077C309.785 447.38 310.177 447.814 310.453 448.379C310.733 448.944 310.873 449.623 310.873 450.416C310.873 451.149 310.74 451.795 310.474 452.355C310.212 452.91 309.827 453.347 309.319 453.664C308.815 453.981 308.199 454.14 307.471 454.14ZM307.478 452.845C307.87 452.845 308.192 452.738 308.444 452.523C308.7 452.308 308.892 452.014 309.018 451.641C309.144 451.268 309.207 450.843 309.207 450.367C309.207 449.924 309.151 449.515 309.039 449.142C308.927 448.769 308.742 448.47 308.486 448.246C308.234 448.017 307.898 447.903 307.478 447.903C307.081 447.903 306.752 448.008 306.491 448.218C306.234 448.423 306.043 448.713 305.917 449.086C305.791 449.455 305.728 449.882 305.728 450.367C305.728 450.806 305.784 451.214 305.896 451.592C306.008 451.965 306.192 452.269 306.449 452.502C306.705 452.731 307.048 452.845 307.478 452.845ZM312.431 456.254V446.762H314.132L314.146 447.903C314.239 447.744 314.358 447.588 314.503 447.434C314.652 447.28 314.823 447.142 315.014 447.021C315.21 446.9 315.427 446.804 315.665 446.734C315.903 446.659 316.164 446.622 316.449 446.622C317.004 446.622 317.497 446.755 317.926 447.021C318.355 447.282 318.691 447.686 318.934 448.232C319.181 448.778 319.305 449.469 319.305 450.304C319.305 451.158 319.179 451.87 318.927 452.439C318.675 453.008 318.323 453.435 317.87 453.72C317.417 454 316.892 454.14 316.295 454.14C316.02 454.14 315.768 454.103 315.539 454.028C315.315 453.953 315.114 453.851 314.937 453.72C314.76 453.589 314.603 453.447 314.468 453.293C314.337 453.139 314.228 452.978 314.139 452.81V456.254H312.431ZM315.917 452.866C316.43 452.866 316.855 452.663 317.191 452.257C317.527 451.846 317.695 451.205 317.695 450.332C317.695 449.576 317.536 448.981 317.219 448.547C316.906 448.108 316.472 447.889 315.917 447.889C315.32 447.889 314.872 448.12 314.573 448.582C314.274 449.039 314.125 449.623 314.125 450.332C314.125 450.789 314.19 451.212 314.321 451.599C314.456 451.982 314.655 452.29 314.916 452.523C315.182 452.752 315.516 452.866 315.917 452.866ZM324.052 454.14C323.356 454.14 322.743 453.993 322.211 453.699C321.683 453.4 321.27 452.976 320.972 452.425C320.678 451.874 320.531 451.219 320.531 450.458C320.531 449.716 320.664 449.058 320.93 448.484C321.2 447.905 321.59 447.45 322.099 447.119C322.612 446.788 323.23 446.622 323.954 446.622C324.668 446.622 325.267 446.774 325.753 447.077C326.238 447.38 326.607 447.805 326.859 448.351C327.111 448.892 327.237 449.527 327.237 450.255V450.773H322.232C322.227 451.184 322.292 451.548 322.428 451.865C322.563 452.182 322.764 452.432 323.03 452.614C323.296 452.791 323.625 452.88 324.017 452.88C324.418 452.88 324.766 452.791 325.06 452.614C325.358 452.432 325.557 452.157 325.655 451.788H327.209C327.125 452.292 326.924 452.719 326.607 453.069C326.294 453.419 325.911 453.685 325.459 453.867C325.011 454.049 324.542 454.14 324.052 454.14ZM322.225 449.716H325.627C325.627 449.366 325.564 449.051 325.438 448.771C325.316 448.486 325.132 448.262 324.885 448.099C324.637 447.931 324.325 447.847 323.947 447.847C323.573 447.847 323.258 447.938 323.002 448.12C322.745 448.302 322.551 448.538 322.421 448.827C322.29 449.112 322.225 449.408 322.225 449.716ZM328.864 454V446.762H330.495V448.33C330.612 447.971 330.778 447.665 330.992 447.413C331.212 447.156 331.468 446.96 331.762 446.825C332.056 446.69 332.376 446.622 332.721 446.622C332.805 446.622 332.887 446.627 332.966 446.636C333.046 446.645 333.104 446.662 333.141 446.685V448.316C333.09 448.293 333.022 448.276 332.938 448.267C332.859 448.258 332.789 448.253 332.728 448.253C332.378 448.225 332.068 448.239 331.797 448.295C331.531 448.351 331.305 448.447 331.118 448.582C330.936 448.713 330.799 448.881 330.705 449.086C330.612 449.287 330.565 449.522 330.565 449.793V454H328.864Z" fill="black"/>
<path d="M239.845 378V367.878H243.765C244.493 367.878 245.102 367.99 245.592 368.214C246.082 368.433 246.448 368.751 246.691 369.166C246.933 369.577 247.055 370.069 247.055 370.643C247.055 371.194 246.957 371.651 246.761 372.015C246.569 372.379 246.324 372.673 246.026 372.897C245.727 373.116 245.417 373.287 245.095 373.408L247.083 378H245.711L243.863 373.639H241.14V378H239.845ZM241.14 372.568H243.345C244.105 372.568 244.693 372.414 245.109 372.106C245.524 371.793 245.732 371.331 245.732 370.72C245.732 370.123 245.545 369.677 245.172 369.383C244.803 369.084 244.297 368.935 243.653 368.935H241.14V372.568ZM251.719 378.14C251.052 378.14 250.468 377.998 249.969 377.713C249.474 377.424 249.089 377.001 248.814 376.446C248.539 375.891 248.401 375.212 248.401 374.409C248.401 373.653 248.529 372.99 248.786 372.421C249.043 371.852 249.418 371.411 249.913 371.098C250.408 370.781 251.012 370.622 251.726 370.622C252.393 370.622 252.972 370.769 253.462 371.063C253.952 371.352 254.332 371.779 254.603 372.344C254.878 372.909 255.016 373.597 255.016 374.409C255.016 375.146 254.89 375.795 254.638 376.355C254.386 376.915 254.015 377.354 253.525 377.671C253.04 377.984 252.438 378.14 251.719 378.14ZM251.726 377.118C252.155 377.118 252.519 377.008 252.818 376.789C253.117 376.57 253.343 376.255 253.497 375.844C253.656 375.433 253.735 374.946 253.735 374.381C253.735 373.863 253.665 373.399 253.525 372.988C253.39 372.573 253.175 372.244 252.881 372.001C252.587 371.758 252.202 371.637 251.726 371.637C251.287 371.637 250.916 371.747 250.613 371.966C250.31 372.181 250.079 372.493 249.92 372.904C249.766 373.315 249.689 373.807 249.689 374.381C249.689 374.89 249.757 375.352 249.892 375.767C250.032 376.182 250.251 376.511 250.55 376.754C250.853 376.997 251.245 377.118 251.726 377.118ZM258.564 378.091C258.172 378.091 257.855 378.037 257.612 377.93C257.374 377.823 257.19 377.678 257.059 377.496C256.933 377.314 256.847 377.106 256.8 376.873C256.758 376.635 256.737 376.39 256.737 376.138V367.598H258.011V376.012C258.011 376.376 258.081 376.649 258.221 376.831C258.366 377.013 258.566 377.113 258.823 377.132L259.215 377.139V377.979C259.108 378.012 258.996 378.037 258.879 378.056C258.762 378.079 258.657 378.091 258.564 378.091ZM263.693 378.14C263.021 378.14 262.428 377.993 261.915 377.699C261.401 377.405 261 376.983 260.711 376.432C260.421 375.881 260.277 375.221 260.277 374.451C260.277 373.69 260.407 373.023 260.669 372.449C260.93 371.875 261.308 371.427 261.803 371.105C262.302 370.783 262.902 370.622 263.602 370.622C264.283 370.622 264.859 370.769 265.331 371.063C265.802 371.357 266.159 371.772 266.402 372.309C266.649 372.841 266.773 373.473 266.773 374.206V374.682H261.586C261.586 375.139 261.66 375.555 261.81 375.928C261.964 376.297 262.195 376.591 262.503 376.81C262.811 377.029 263.2 377.139 263.672 377.139C264.134 377.139 264.53 377.032 264.862 376.817C265.198 376.602 265.412 376.292 265.506 375.886H266.724C266.639 376.376 266.444 376.789 266.136 377.125C265.832 377.461 265.466 377.715 265.037 377.888C264.612 378.056 264.164 378.14 263.693 378.14ZM261.593 373.807H265.527C265.527 373.392 265.457 373.018 265.317 372.687C265.177 372.351 264.962 372.087 264.673 371.896C264.388 371.7 264.029 371.602 263.595 371.602C263.142 371.602 262.766 371.712 262.468 371.931C262.169 372.146 261.947 372.423 261.803 372.764C261.658 373.1 261.588 373.448 261.593 373.807Z" fill="#1A1B1D"/>
</svg>
