<svg width="575" height="316" viewBox="0 0 575 316" fill="none" xmlns="http://www.w3.org/2000/svg">
<path d="M0 64C0 28.6538 28.6538 0 64 0V0C99.3462 0 128 28.6538 128 64V64C128 99.3462 99.3462 128 64 128V128C28.6538 128 0 99.3462 0 64V64Z" fill="#C990C0"/>
<path d="M42.7237 69V58.878H46.1467C46.8701 58.878 47.5141 58.9993 48.0787 59.242C48.6434 59.4847 49.0867 59.844 49.4087 60.32C49.7354 60.796 49.8987 61.3817 49.8987 62.077C49.8987 62.749 49.7471 63.323 49.4437 63.799C49.1451 64.275 48.7274 64.6367 48.1907 64.884C47.6541 65.1313 47.0311 65.255 46.3217 65.255H44.0537V69H42.7237ZM44.0467 64.163H46.2937C46.9891 64.163 47.5537 63.9693 47.9877 63.582C48.4217 63.1947 48.6387 62.6673 48.6387 62C48.6387 61.328 48.4147 60.8193 47.9667 60.474C47.5187 60.1287 46.9401 59.956 46.2307 59.956H44.0467V64.163ZM54.3077 69.14C53.6357 69.14 53.0431 68.993 52.5297 68.699C52.0164 68.405 51.6151 67.9827 51.3257 67.432C51.0364 66.8813 50.8917 66.221 50.8917 65.451C50.8917 64.6903 51.0224 64.023 51.2837 63.449C51.5451 62.875 51.9231 62.427 52.4177 62.105C52.9171 61.783 53.5167 61.622 54.2167 61.622C54.8981 61.622 55.4744 61.769 55.9457 62.063C56.4171 62.357 56.7741 62.7723 57.0167 63.309C57.2641 63.841 57.3877 64.4733 57.3877 65.206V65.682H52.2007C52.2007 66.1393 52.2754 66.5547 52.4247 66.928C52.5787 67.2967 52.8097 67.5907 53.1177 67.81C53.4257 68.0293 53.8154 68.139 54.2867 68.139C54.7487 68.139 55.1454 68.0317 55.4767 67.817C55.8127 67.6023 56.0274 67.292 56.1207 66.886H57.3387C57.2547 67.376 57.0587 67.789 56.7507 68.125C56.4474 68.461 56.0811 68.7153 55.6517 68.888C55.2271 69.056 54.7791 69.14 54.3077 69.14ZM52.2077 64.807H56.1417C56.1417 64.3917 56.0717 64.0183 55.9317 63.687C55.7917 63.351 55.5771 63.0873 55.2877 62.896C55.0031 62.7 54.6437 62.602 54.2097 62.602C53.7571 62.602 53.3814 62.7117 53.0827 62.931C52.7841 63.1457 52.5624 63.4233 52.4177 63.764C52.2731 64.1 52.2031 64.4477 52.2077 64.807ZM59.1784 69V61.762H60.4104V63.155C60.5318 62.8097 60.7021 62.525 60.9214 62.301C61.1408 62.0723 61.3904 61.902 61.6704 61.79C61.9551 61.678 62.2491 61.622 62.5524 61.622C62.6598 61.622 62.7648 61.629 62.8674 61.643C62.9701 61.657 63.0494 61.6803 63.1054 61.713V62.966C63.0354 62.9333 62.9444 62.9123 62.8324 62.903C62.7251 62.889 62.6341 62.882 62.5594 62.882C62.2701 62.8633 61.9994 62.882 61.7474 62.938C61.4954 62.9893 61.2738 63.0803 61.0824 63.211C60.8911 63.3417 60.7394 63.5143 60.6274 63.729C60.5201 63.939 60.4664 64.1957 60.4664 64.499V69H59.1784ZM67.2102 69.14C66.7062 69.14 66.2372 69.063 65.8032 68.909C65.3738 68.7503 65.0168 68.5053 64.7322 68.174C64.4475 67.838 64.2702 67.411 64.2002 66.893H65.3762C65.4368 67.1777 65.5535 67.4157 65.7262 67.607C65.8988 67.7937 66.1112 67.936 66.3632 68.034C66.6198 68.1273 66.8998 68.174 67.2032 68.174C67.6932 68.174 68.0875 68.083 68.3862 67.901C68.6848 67.719 68.8342 67.439 68.8342 67.061C68.8342 66.795 68.7548 66.5827 68.5962 66.424C68.4422 66.2607 68.1995 66.1417 67.8682 66.067L66.3702 65.696C65.7868 65.556 65.3202 65.3367 64.9702 65.038C64.6248 64.7393 64.4498 64.3217 64.4452 63.785C64.4452 63.3603 64.5478 62.987 64.7532 62.665C64.9585 62.343 65.2642 62.0887 65.6702 61.902C66.0808 61.7153 66.5918 61.622 67.2032 61.622C67.9918 61.622 68.6265 61.7993 69.1072 62.154C69.5878 62.504 69.8398 63.0197 69.8632 63.701H68.7152C68.6685 63.3557 68.5145 63.0827 68.2532 62.882C67.9918 62.6767 67.6372 62.574 67.1892 62.574C66.7318 62.574 66.3562 62.6673 66.0622 62.854C65.7728 63.036 65.6282 63.3207 65.6282 63.708C65.6282 63.9647 65.7308 64.1677 65.9362 64.317C66.1462 64.4617 66.4495 64.583 66.8462 64.681L68.3022 65.045C68.6335 65.1337 68.9088 65.2503 69.1282 65.395C69.3475 65.5397 69.5202 65.7007 69.6462 65.878C69.7722 66.0553 69.8608 66.242 69.9122 66.438C69.9682 66.6293 69.9962 66.8137 69.9962 66.991C69.9962 67.4343 69.8865 67.817 69.6672 68.139C69.4478 68.4563 69.1305 68.7037 68.7152 68.881C68.2998 69.0537 67.7982 69.14 67.2102 69.14ZM74.5862 69.14C73.9189 69.14 73.3355 68.9977 72.8362 68.713C72.3415 68.4237 71.9565 68.0013 71.6812 67.446C71.4059 66.8907 71.2682 66.2117 71.2682 65.409C71.2682 64.653 71.3965 63.9903 71.6532 63.421C71.9099 62.8517 72.2855 62.4107 72.7802 62.098C73.2749 61.7807 73.8792 61.622 74.5932 61.622C75.2605 61.622 75.8392 61.769 76.3292 62.063C76.8192 62.3523 77.1995 62.7793 77.4702 63.344C77.7455 63.9087 77.8832 64.597 77.8832 65.409C77.8832 66.1463 77.7572 66.795 77.5052 67.355C77.2532 67.915 76.8822 68.3537 76.3922 68.671C75.9069 68.9837 75.3049 69.14 74.5862 69.14ZM74.5932 68.118C75.0225 68.118 75.3865 68.0083 75.6852 67.789C75.9839 67.5697 76.2102 67.2547 76.3642 66.844C76.5229 66.4333 76.6022 65.9457 76.6022 65.381C76.6022 64.863 76.5322 64.3987 76.3922 63.988C76.2569 63.5727 76.0422 63.2437 75.7482 63.001C75.4542 62.7583 75.0692 62.637 74.5932 62.637C74.1545 62.637 73.7835 62.7467 73.4802 62.966C73.1769 63.1807 72.9459 63.4933 72.7872 63.904C72.6332 64.3147 72.5562 64.807 72.5562 65.381C72.5562 65.8897 72.6239 66.3517 72.7592 66.767C72.8992 67.1823 73.1185 67.5113 73.4172 67.754C73.7205 67.9967 74.1125 68.118 74.5932 68.118ZM79.6042 69V61.762H80.8572V62.812C80.9739 62.6113 81.1349 62.4223 81.3402 62.245C81.5502 62.0677 81.8022 61.9253 82.0962 61.818C82.3949 61.7107 82.7379 61.657 83.1252 61.657C83.5825 61.657 84.0025 61.748 84.3852 61.93C84.7725 62.112 85.0805 62.3967 85.3092 62.784C85.5425 63.1667 85.6592 63.6613 85.6592 64.268V69H84.3642V64.394C84.3642 63.8293 84.2149 63.4117 83.9162 63.141C83.6222 62.8657 83.2395 62.728 82.7682 62.728C82.4415 62.728 82.1359 62.7817 81.8512 62.889C81.5665 62.9917 81.3355 63.1503 81.1582 63.365C80.9809 63.575 80.8922 63.841 80.8922 64.163V69H79.6042Z" fill="white"/>
<path d="M430 64C430 28.6538 458.654 0 494 0V0C529.346 0 558 28.6538 558 64V64C558 99.3462 529.346 128 494 128V128C458.654 128 430 99.3462 430 64V64Z" fill="#FFDF81"/>
<path d="M468.566 69.14C467.656 69.14 466.879 68.9323 466.235 68.517C465.596 68.1017 465.106 67.5043 464.765 66.725C464.429 65.9457 464.261 65.0053 464.261 63.904C464.261 62.8073 464.429 61.874 464.765 61.104C465.101 60.334 465.589 59.7483 466.228 59.347C466.872 58.941 467.651 58.738 468.566 58.738C469.28 58.738 469.912 58.8873 470.463 59.186C471.014 59.48 471.457 59.8743 471.793 60.369C472.129 60.8637 472.327 61.4073 472.388 62H471.009C470.934 61.6033 470.792 61.244 470.582 60.922C470.372 60.6 470.097 60.3433 469.756 60.152C469.415 59.9607 469.007 59.865 468.531 59.865C467.92 59.865 467.402 60.0097 466.977 60.299C466.557 60.5837 466.237 61.0247 466.018 61.622C465.803 62.2193 465.696 62.9847 465.696 63.918C465.696 65.3273 465.936 66.3633 466.417 67.026C466.902 67.684 467.607 68.013 468.531 68.013C469.007 68.013 469.415 67.9127 469.756 67.712C470.097 67.5113 470.372 67.243 470.582 66.907C470.792 66.571 470.934 66.207 471.009 65.815H472.388C472.337 66.2443 472.22 66.6597 472.038 67.061C471.861 67.4577 471.616 67.8123 471.303 68.125C470.99 68.4377 470.605 68.685 470.148 68.867C469.695 69.049 469.168 69.14 468.566 69.14ZM477.099 69.14C476.432 69.14 475.848 68.9977 475.349 68.713C474.854 68.4237 474.469 68.0013 474.194 67.446C473.919 66.8907 473.781 66.2117 473.781 65.409C473.781 64.653 473.909 63.9903 474.166 63.421C474.423 62.8517 474.798 62.4107 475.293 62.098C475.788 61.7807 476.392 61.622 477.106 61.622C477.773 61.622 478.352 61.769 478.842 62.063C479.332 62.3523 479.712 62.7793 479.983 63.344C480.258 63.9087 480.396 64.597 480.396 65.409C480.396 66.1463 480.27 66.795 480.018 67.355C479.766 67.915 479.395 68.3537 478.905 68.671C478.42 68.9837 477.818 69.14 477.099 69.14ZM477.106 68.118C477.535 68.118 477.899 68.0083 478.198 67.789C478.497 67.5697 478.723 67.2547 478.877 66.844C479.036 66.4333 479.115 65.9457 479.115 65.381C479.115 64.863 479.045 64.3987 478.905 63.988C478.77 63.5727 478.555 63.2437 478.261 63.001C477.967 62.7583 477.582 62.637 477.106 62.637C476.667 62.637 476.296 62.7467 475.993 62.966C475.69 63.1807 475.459 63.4933 475.3 63.904C475.146 64.3147 475.069 64.807 475.069 65.381C475.069 65.8897 475.137 66.3517 475.272 66.767C475.412 67.1823 475.631 67.5113 475.93 67.754C476.233 67.9967 476.625 68.118 477.106 68.118ZM482.117 69V61.762H483.363V62.812C483.564 62.4947 483.839 62.217 484.189 61.979C484.539 61.741 484.994 61.622 485.554 61.622C485.815 61.622 486.081 61.6663 486.352 61.755C486.627 61.8437 486.879 61.9767 487.108 62.154C487.337 62.3313 487.514 62.5483 487.64 62.805C487.864 62.4503 488.167 62.1657 488.55 61.951C488.933 61.7317 489.364 61.622 489.845 61.622C490.097 61.622 490.361 61.6617 490.636 61.741C490.911 61.8157 491.166 61.951 491.399 62.147C491.637 62.3383 491.831 62.6067 491.98 62.952C492.129 63.2927 492.204 63.7313 492.204 64.268V69H490.902V64.394C490.902 63.9553 490.832 63.617 490.692 63.379C490.552 63.1363 490.368 62.966 490.139 62.868C489.915 62.77 489.675 62.721 489.418 62.721C489.194 62.721 488.956 62.7653 488.704 62.854C488.452 62.9427 488.237 63.092 488.06 63.302C487.883 63.512 487.794 63.799 487.794 64.163V69H486.506V64.016C486.506 63.7313 486.429 63.4933 486.275 63.302C486.126 63.1107 485.937 62.966 485.708 62.868C485.484 62.77 485.26 62.721 485.036 62.721C484.789 62.721 484.539 62.77 484.287 62.868C484.04 62.966 483.83 63.1223 483.657 63.337C483.489 63.547 483.405 63.8223 483.405 64.163V69H482.117ZM494.23 71.254V61.762H495.518L495.532 63.022C495.616 62.8727 495.724 62.7163 495.854 62.553C495.99 62.3897 496.153 62.238 496.344 62.098C496.54 61.958 496.767 61.8437 497.023 61.755C497.285 61.6663 497.581 61.622 497.912 61.622C498.491 61.622 499 61.755 499.438 62.021C499.882 62.2823 500.227 62.6837 500.474 63.225C500.722 63.7663 500.845 64.4523 500.845 65.283C500.845 66.1137 500.724 66.816 500.481 67.39C500.243 67.9593 499.898 68.3933 499.445 68.692C498.993 68.9907 498.447 69.14 497.807 69.14C497.485 69.14 497.198 69.0933 496.946 69C496.699 68.9113 496.482 68.7947 496.295 68.65C496.113 68.5007 495.959 68.342 495.833 68.174C495.712 68.006 495.612 67.845 495.532 67.691V71.254H494.23ZM497.562 68.132C498.16 68.132 498.647 67.9057 499.025 67.453C499.403 66.9957 499.592 66.2863 499.592 65.325C499.592 64.499 499.42 63.8433 499.074 63.358C498.729 62.8727 498.225 62.63 497.562 62.63C496.89 62.63 496.382 62.8797 496.036 63.379C495.691 63.8737 495.518 64.5223 495.518 65.325C495.518 65.843 495.595 66.3143 495.749 66.739C495.903 67.1637 496.132 67.502 496.435 67.754C496.739 68.006 497.114 68.132 497.562 68.132ZM504.518 69.14C504.047 69.14 503.631 69.0583 503.272 68.895C502.917 68.727 502.637 68.4867 502.432 68.174C502.231 67.8613 502.131 67.4833 502.131 67.04C502.131 66.2373 502.411 65.64 502.971 65.248C503.531 64.856 504.429 64.646 505.666 64.618L506.954 64.583V64.016C506.954 63.5727 506.821 63.2227 506.555 62.966C506.289 62.7047 505.878 62.574 505.323 62.574C504.908 62.5787 504.541 62.6767 504.224 62.868C503.907 63.0593 503.704 63.372 503.615 63.806H502.474C502.502 63.3347 502.633 62.938 502.866 62.616C503.104 62.2893 503.438 62.042 503.867 61.874C504.296 61.706 504.803 61.622 505.386 61.622C506.016 61.622 506.539 61.7107 506.954 61.888C507.374 62.0653 507.687 62.3267 507.892 62.672C508.102 63.0173 508.207 63.442 508.207 63.946V69H507.101L507.003 67.642C506.728 68.2067 506.373 68.5987 505.939 68.818C505.51 69.0327 505.036 69.14 504.518 69.14ZM504.903 68.209C505.15 68.209 505.393 68.1647 505.631 68.076C505.874 67.9873 506.093 67.8683 506.289 67.719C506.49 67.565 506.651 67.3947 506.772 67.208C506.893 67.0167 506.954 66.8207 506.954 66.62V65.381L505.883 65.402C505.328 65.4113 504.866 65.4673 504.497 65.57C504.128 65.6727 503.851 65.8337 503.664 66.053C503.477 66.2723 503.384 66.5593 503.384 66.914C503.384 67.32 503.526 67.6373 503.811 67.866C504.096 68.0947 504.46 68.209 504.903 68.209ZM510.226 69V61.762H511.479V62.812C511.596 62.6113 511.757 62.4223 511.962 62.245C512.172 62.0677 512.424 61.9253 512.718 61.818C513.017 61.7107 513.36 61.657 513.747 61.657C514.205 61.657 514.625 61.748 515.007 61.93C515.395 62.112 515.703 62.3967 515.931 62.784C516.165 63.1667 516.281 63.6613 516.281 64.268V69H514.986V64.394C514.986 63.8293 514.837 63.4117 514.538 63.141C514.244 62.8657 513.862 62.728 513.39 62.728C513.064 62.728 512.758 62.7817 512.473 62.889C512.189 62.9917 511.958 63.1503 511.78 63.365C511.603 63.575 511.514 63.841 511.514 64.163V69H510.226ZM518.795 71.31C518.37 71.31 518.079 71.2797 517.92 71.219C517.761 71.1583 517.682 71.128 517.682 71.128V70.288L518.424 70.302C518.69 70.3113 518.912 70.2927 519.089 70.246C519.266 70.1993 519.409 70.1363 519.516 70.057C519.623 69.9777 519.705 69.889 519.761 69.791C519.822 69.693 519.871 69.5997 519.908 69.511L520.16 68.825L517.332 61.762H518.641L520.776 67.348L522.897 61.762H524.164L521.119 69.546C520.928 70.0033 520.715 70.3603 520.482 70.617C520.253 70.8737 519.997 71.0533 519.712 71.156C519.432 71.2587 519.126 71.31 518.795 71.31Z" fill="#1A1B1D"/>
<path d="M430 228C430 192.654 458.654 164 494 164V164C529.346 164 558 192.654 558 228V228C558 263.346 529.346 292 494 292V292C458.654 292 430 263.346 430 228V228Z" fill="#56C7E4"/>
<path d="M480.845 233V222.878H484.765C485.493 222.878 486.102 222.99 486.592 223.214C487.082 223.433 487.448 223.751 487.691 224.166C487.933 224.577 488.055 225.069 488.055 225.643C488.055 226.194 487.957 226.651 487.761 227.015C487.569 227.379 487.324 227.673 487.026 227.897C486.727 228.116 486.417 228.287 486.095 228.408L488.083 233H486.711L484.863 228.639H482.14V233H480.845ZM482.14 227.568H484.345C485.105 227.568 485.693 227.414 486.109 227.106C486.524 226.793 486.732 226.331 486.732 225.72C486.732 225.123 486.545 224.677 486.172 224.383C485.803 224.084 485.297 223.935 484.653 223.935H482.14V227.568ZM492.719 233.14C492.052 233.14 491.468 232.998 490.969 232.713C490.474 232.424 490.089 232.001 489.814 231.446C489.539 230.891 489.401 230.212 489.401 229.409C489.401 228.653 489.529 227.99 489.786 227.421C490.043 226.852 490.418 226.411 490.913 226.098C491.408 225.781 492.012 225.622 492.726 225.622C493.393 225.622 493.972 225.769 494.462 226.063C494.952 226.352 495.332 226.779 495.603 227.344C495.878 227.909 496.016 228.597 496.016 229.409C496.016 230.146 495.89 230.795 495.638 231.355C495.386 231.915 495.015 232.354 494.525 232.671C494.04 232.984 493.438 233.14 492.719 233.14ZM492.726 232.118C493.155 232.118 493.519 232.008 493.818 231.789C494.117 231.57 494.343 231.255 494.497 230.844C494.656 230.433 494.735 229.946 494.735 229.381C494.735 228.863 494.665 228.399 494.525 227.988C494.39 227.573 494.175 227.244 493.881 227.001C493.587 226.758 493.202 226.637 492.726 226.637C492.287 226.637 491.916 226.747 491.613 226.966C491.31 227.181 491.079 227.493 490.92 227.904C490.766 228.315 490.689 228.807 490.689 229.381C490.689 229.89 490.757 230.352 490.892 230.767C491.032 231.182 491.251 231.511 491.55 231.754C491.853 231.997 492.245 232.118 492.726 232.118ZM499.564 233.091C499.172 233.091 498.855 233.037 498.612 232.93C498.374 232.823 498.19 232.678 498.059 232.496C497.933 232.314 497.847 232.106 497.8 231.873C497.758 231.635 497.737 231.39 497.737 231.138V222.598H499.011V231.012C499.011 231.376 499.081 231.649 499.221 231.831C499.366 232.013 499.566 232.113 499.823 232.132L500.215 232.139V232.979C500.108 233.012 499.996 233.037 499.879 233.056C499.762 233.079 499.657 233.091 499.564 233.091ZM504.693 233.14C504.021 233.14 503.428 232.993 502.915 232.699C502.401 232.405 502 231.983 501.711 231.432C501.421 230.881 501.277 230.221 501.277 229.451C501.277 228.69 501.407 228.023 501.669 227.449C501.93 226.875 502.308 226.427 502.803 226.105C503.302 225.783 503.902 225.622 504.602 225.622C505.283 225.622 505.859 225.769 506.331 226.063C506.802 226.357 507.159 226.772 507.402 227.309C507.649 227.841 507.773 228.473 507.773 229.206V229.682H502.586C502.586 230.139 502.66 230.555 502.81 230.928C502.964 231.297 503.195 231.591 503.503 231.81C503.811 232.029 504.2 232.139 504.672 232.139C505.134 232.139 505.53 232.032 505.862 231.817C506.198 231.602 506.412 231.292 506.506 230.886H507.724C507.639 231.376 507.444 231.789 507.136 232.125C506.832 232.461 506.466 232.715 506.037 232.888C505.612 233.056 505.164 233.14 504.693 233.14ZM502.593 228.807H506.527C506.527 228.392 506.457 228.018 506.317 227.687C506.177 227.351 505.962 227.087 505.673 226.896C505.388 226.7 505.029 226.602 504.595 226.602C504.142 226.602 503.766 226.712 503.468 226.931C503.169 227.146 502.947 227.423 502.803 227.764C502.658 228.1 502.588 228.448 502.593 228.807Z" fill="#1A1B1D"/>
<path d="M427.207 64.7071C427.598 64.3166 427.598 63.6834 427.207 63.2929L420.843 56.9289C420.453 56.5384 419.819 56.5384 419.429 56.9289C419.038 57.3195 419.038 57.9526 419.429 58.3431L425.086 64L419.429 69.6569C419.038 70.0474 419.038 70.6805 419.429 71.0711C419.819 71.4616 420.453 71.4616 420.843 71.0711L427.207 64.7071ZM323.632 63C323.079 63 322.632 63.4477 322.632 64C322.632 64.5523 323.079 65 323.632 65V63ZM226.506 65C227.059 65 227.506 64.5523 227.506 64C227.506 63.4477 227.059 63 226.506 63V65ZM131.5 63C130.948 63 130.5 63.4477 130.5 64C130.5 64.5523 130.948 65 131.5 65V63ZM426.5 64V63H323.632V64V65H426.5V64ZM226.506 64V63H131.5V64V65H226.506V64Z" fill="#1A1B1D"/>
<path d="M236.599 59L233.775 48.8182H235.391L237.375 56.7031H237.469L239.532 48.8182H241.133L243.196 56.7081H243.291L245.269 48.8182H246.89L244.061 59H242.515L240.372 51.3736H240.293L238.15 59H236.599ZM256.476 53.9091C256.476 54.9962 256.277 55.9309 255.879 56.7131C255.481 57.492 254.936 58.0919 254.243 58.5128C253.554 58.9304 252.77 59.1392 251.892 59.1392C251.01 59.1392 250.223 58.9304 249.53 58.5128C248.841 58.0919 248.297 57.4903 247.9 56.7081C247.502 55.9259 247.303 54.9929 247.303 53.9091C247.303 52.822 247.502 51.889 247.9 51.1101C248.297 50.3279 248.841 49.728 249.53 49.3104C250.223 48.8894 251.01 48.679 251.892 48.679C252.77 48.679 253.554 48.8894 254.243 49.3104C254.936 49.728 255.481 50.3279 255.879 51.1101C256.277 51.889 256.476 52.822 256.476 53.9091ZM254.954 53.9091C254.954 53.0805 254.82 52.3828 254.552 51.8161C254.286 51.246 253.922 50.8151 253.458 50.5234C252.997 50.2285 252.475 50.081 251.892 50.081C251.305 50.081 250.781 50.2285 250.321 50.5234C249.86 50.8151 249.495 51.246 249.227 51.8161C248.962 52.3828 248.829 53.0805 248.829 53.9091C248.829 54.7377 248.962 55.437 249.227 56.0071C249.495 56.5739 249.86 57.0047 250.321 57.2997C250.781 57.5914 251.305 57.7372 251.892 57.7372C252.475 57.7372 252.997 57.5914 253.458 57.2997C253.922 57.0047 254.286 56.5739 254.552 56.0071C254.82 55.437 254.954 54.7377 254.954 53.9091ZM258.237 59V48.8182H261.866C262.655 48.8182 263.309 48.9541 263.83 49.2259C264.354 49.4976 264.745 49.8738 265.003 50.3544C265.262 50.8317 265.391 51.3835 265.391 52.0099C265.391 52.633 265.26 53.1816 264.998 53.6555C264.74 54.1262 264.349 54.4924 263.825 54.7543C263.305 55.0161 262.65 55.147 261.861 55.147H259.112V53.8246H261.722C262.219 53.8246 262.623 53.7533 262.935 53.6108C263.25 53.4683 263.48 53.2611 263.626 52.9893C263.772 52.7176 263.845 52.3911 263.845 52.0099C263.845 51.6255 263.77 51.2924 263.621 51.0107C263.475 50.7289 263.245 50.5135 262.93 50.3643C262.618 50.2119 262.209 50.1357 261.702 50.1357H259.773V59H258.237ZM263.263 54.4062L265.779 59H264.029L261.563 54.4062H263.263ZM267.106 59V48.8182H268.642V53.6804H268.767L273.037 48.8182H274.971L270.865 53.402L274.986 59H273.137L269.846 54.451L268.642 55.8331V59H267.106ZM276.249 59V48.8182H282.633V50.1406H277.785V53.2429H282.3V54.5604H277.785V57.6776H282.692V59H276.249ZM287.827 59H284.531V48.8182H287.931C288.929 48.8182 289.786 49.022 290.502 49.4297C291.217 49.834 291.766 50.4157 292.147 51.1747C292.532 51.9304 292.724 52.8369 292.724 53.8942C292.724 54.9548 292.53 55.8662 292.142 56.6286C291.758 57.3909 291.201 57.9775 290.472 58.3885C289.743 58.7962 288.861 59 287.827 59ZM286.067 57.6577H287.742C288.518 57.6577 289.163 57.5118 289.676 57.2202C290.19 56.9252 290.574 56.4993 290.83 55.9425C291.085 55.3823 291.212 54.6996 291.212 53.8942C291.212 53.0954 291.085 52.4176 290.83 51.8608C290.578 51.304 290.202 50.8814 289.701 50.593C289.201 50.3047 288.579 50.1605 287.837 50.1605H286.067V57.6577ZM299.254 59V60.2628H292.786V59H299.254ZM301.065 59H299.434L303.099 48.8182H304.873L308.537 59H306.907L304.028 50.6676H303.949L301.065 59ZM301.339 55.0128H306.628V56.3054H301.339V55.0128ZM308.149 50.1406V48.8182H316.029V50.1406H312.852V59H311.32V50.1406H308.149ZM249.55 69.8182V80H248.014V69.8182H249.55ZM259.851 69.8182V80H258.439L253.264 72.5327H253.17V80H251.633V69.8182H253.055L258.236 77.2955H258.33V69.8182H259.851ZM267.751 80V81.2628H261.283V80H267.751ZM268.702 80V69.8182H272.332C273.12 69.8182 273.775 69.9541 274.295 70.2259C274.819 70.4976 275.21 70.8738 275.469 71.3544C275.727 71.8317 275.856 72.3835 275.856 73.0099C275.856 73.633 275.725 74.1816 275.464 74.6555C275.205 75.1262 274.814 75.4924 274.29 75.7543C273.77 76.0161 273.115 76.147 272.327 76.147H269.577V74.8246H272.187C272.684 74.8246 273.089 74.7533 273.4 74.6108C273.715 74.4683 273.946 74.2611 274.091 73.9893C274.237 73.7176 274.31 73.3911 274.31 73.0099C274.31 72.6255 274.236 72.2924 274.086 72.0107C273.941 71.7289 273.71 71.5135 273.395 71.3643C273.084 71.2119 272.675 71.1357 272.167 71.1357H270.238V80H268.702ZM273.729 75.4062L276.244 80H274.494L272.028 75.4062H273.729ZM286.416 74.9091C286.416 75.9962 286.217 76.9309 285.82 77.7131C285.422 78.492 284.877 79.0919 284.184 79.5128C283.495 79.9304 282.711 80.1392 281.832 80.1392C280.951 80.1392 280.164 79.9304 279.471 79.5128C278.781 79.0919 278.238 78.4903 277.84 77.7081C277.442 76.9259 277.244 75.9929 277.244 74.9091C277.244 73.822 277.442 72.889 277.84 72.1101C278.238 71.3279 278.781 70.728 279.471 70.3104C280.164 69.8894 280.951 69.679 281.832 69.679C282.711 69.679 283.495 69.8894 284.184 70.3104C284.877 70.728 285.422 71.3279 285.82 72.1101C286.217 72.889 286.416 73.822 286.416 74.9091ZM284.895 74.9091C284.895 74.0805 284.761 73.3828 284.492 72.8161C284.227 72.246 283.862 71.8151 283.398 71.5234C282.938 71.2285 282.416 71.081 281.832 71.081C281.246 71.081 280.722 71.2285 280.261 71.5234C279.801 71.8151 279.436 72.246 279.168 72.8161C278.902 73.3828 278.77 74.0805 278.77 74.9091C278.77 75.7377 278.902 76.437 279.168 77.0071C279.436 77.5739 279.801 78.0047 280.261 78.2997C280.722 78.5914 281.246 78.7372 281.832 78.7372C282.416 78.7372 282.938 78.5914 283.398 78.2997C283.862 78.0047 284.227 77.5739 284.492 77.0071C284.761 76.437 284.895 75.7377 284.895 74.9091ZM288.177 80V69.8182H289.714V78.6776H294.327V80H288.177ZM295.926 80V69.8182H302.309V71.1406H297.462V74.2429H301.976V75.5604H297.462V78.6776H302.369V80H295.926Z" fill="black" fill-opacity="0.8"/>
<path d="M17.0334 145V137.762H18.6994V138.798C18.8114 138.611 18.963 138.432 19.1544 138.259C19.3504 138.086 19.5907 137.946 19.8754 137.839C20.16 137.732 20.4937 137.678 20.8764 137.678C21.3244 137.678 21.7397 137.767 22.1224 137.944C22.5097 138.121 22.82 138.399 23.0534 138.777C23.2914 139.155 23.4104 139.643 23.4104 140.24V145H21.7024V140.443C21.7024 139.967 21.5717 139.615 21.3104 139.386C21.049 139.153 20.72 139.036 20.3234 139.036C20.0527 139.036 19.796 139.083 19.5534 139.176C19.3107 139.265 19.1124 139.402 18.9584 139.589C18.809 139.771 18.7344 140 18.7344 140.275V145H17.0334ZM27.2885 145.14C26.8265 145.14 26.4112 145.056 26.0425 144.888C25.6785 144.715 25.3915 144.47 25.1815 144.153C24.9762 143.831 24.8735 143.441 24.8735 142.984C24.8735 142.186 25.1605 141.584 25.7345 141.178C26.3132 140.772 27.2325 140.56 28.4925 140.541L29.5775 140.513V140.023C29.5775 139.64 29.4632 139.342 29.2345 139.127C29.0105 138.908 28.6605 138.8 28.1845 138.805C27.8298 138.81 27.5078 138.894 27.2185 139.057C26.9292 139.216 26.7378 139.484 26.6445 139.862H25.1955C25.2235 139.367 25.3658 138.954 25.6225 138.623C25.8838 138.287 26.2408 138.037 26.6935 137.874C27.1462 137.706 27.6688 137.622 28.2615 137.622C28.9522 137.622 29.5145 137.713 29.9485 137.895C30.3825 138.077 30.7022 138.341 30.9075 138.686C31.1128 139.027 31.2155 139.44 31.2155 139.925V145H29.7805L29.6405 143.698C29.3838 144.244 29.0548 144.622 28.6535 144.832C28.2568 145.037 27.8018 145.14 27.2885 145.14ZM27.8415 143.985C28.0515 143.985 28.2592 143.948 28.4645 143.873C28.6698 143.794 28.8542 143.689 29.0175 143.558C29.1855 143.423 29.3185 143.273 29.4165 143.11C29.5192 142.947 29.5728 142.776 29.5775 142.599V141.458L28.6885 141.472C28.2498 141.477 27.8648 141.523 27.5335 141.612C27.2068 141.701 26.9525 141.843 26.7705 142.039C26.5885 142.23 26.4975 142.487 26.4975 142.809C26.4975 143.178 26.6258 143.467 26.8825 143.677C27.1392 143.882 27.4588 143.985 27.8415 143.985ZM33.0295 145V137.762H34.6885V138.798C34.8985 138.481 35.1831 138.205 35.5425 137.972C35.9065 137.739 36.3685 137.622 36.9285 137.622C37.1851 137.622 37.4441 137.666 37.7055 137.755C37.9715 137.844 38.2165 137.974 38.4405 138.147C38.6691 138.32 38.8511 138.534 38.9865 138.791C39.2151 138.45 39.5185 138.17 39.8965 137.951C40.2791 137.732 40.7085 137.622 41.1845 137.622C41.4458 137.622 41.7141 137.664 41.9895 137.748C42.2695 137.832 42.5261 137.972 42.7595 138.168C42.9928 138.364 43.1818 138.632 43.3265 138.973C43.4711 139.309 43.5435 139.731 43.5435 140.24V145H41.8425V140.443C41.8425 140.084 41.7795 139.801 41.6535 139.596C41.5275 139.391 41.3641 139.246 41.1635 139.162C40.9675 139.073 40.7575 139.029 40.5335 139.029C40.3328 139.029 40.1228 139.069 39.9035 139.148C39.6888 139.227 39.5045 139.358 39.3505 139.54C39.2011 139.722 39.1265 139.967 39.1265 140.275V145H37.4255V140.17C37.4255 139.918 37.3601 139.708 37.2295 139.54C37.0988 139.372 36.9331 139.246 36.7325 139.162C36.5365 139.073 36.3358 139.029 36.1305 139.029C35.9205 139.029 35.7058 139.073 35.4865 139.162C35.2718 139.251 35.0921 139.386 34.9475 139.568C34.8028 139.75 34.7305 139.986 34.7305 140.275V145H33.0295ZM48.5742 145.14C47.8788 145.14 47.2652 144.993 46.7332 144.699C46.2058 144.4 45.7928 143.976 45.4942 143.425C45.2002 142.874 45.0532 142.219 45.0532 141.458C45.0532 140.716 45.1862 140.058 45.4522 139.484C45.7228 138.905 46.1125 138.45 46.6212 138.119C47.1345 137.788 47.7528 137.622 48.4762 137.622C49.1902 137.622 49.7898 137.774 50.2752 138.077C50.7605 138.38 51.1292 138.805 51.3812 139.351C51.6332 139.892 51.7592 140.527 51.7592 141.255V141.773H46.7542C46.7495 142.184 46.8148 142.548 46.9502 142.865C47.0855 143.182 47.2862 143.432 47.5522 143.614C47.8182 143.791 48.1472 143.88 48.5392 143.88C48.9405 143.88 49.2882 143.791 49.5822 143.614C49.8808 143.432 50.0792 143.157 50.1772 142.788H51.7312C51.6472 143.292 51.4465 143.719 51.1292 144.069C50.8165 144.419 50.4338 144.685 49.9812 144.867C49.5332 145.049 49.0642 145.14 48.5742 145.14ZM46.7472 140.716H50.1492C50.1492 140.366 50.0862 140.051 49.9602 139.771C49.8388 139.486 49.6545 139.262 49.4072 139.099C49.1598 138.931 48.8472 138.847 48.4692 138.847C48.0958 138.847 47.7808 138.938 47.5242 139.12C47.2675 139.302 47.0738 139.538 46.9432 139.827C46.8125 140.112 46.7472 140.408 46.7472 140.716ZM53.1489 139.932V137.986H55.0739V139.932H53.1489ZM53.1489 144.958V143.026H55.0739V144.958H53.1489ZM59.8064 138.525L60.5974 136.698L59.9394 136.649V134.878H61.8014V136.432L60.4924 138.525H59.8064ZM63.8041 145V134.878H67.3951C68.1231 134.878 68.7741 135.004 69.3481 135.256C69.9268 135.503 70.3818 135.87 70.7131 136.355C71.0444 136.84 71.2101 137.438 71.2101 138.147C71.2101 138.814 71.0584 139.386 70.7551 139.862C70.4564 140.338 70.0388 140.702 69.5021 140.954C68.9654 141.206 68.3378 141.332 67.6191 141.332H65.5331V145H63.8041ZM65.5191 139.967H67.5771C68.1698 139.967 68.6528 139.79 69.0261 139.435C69.4041 139.08 69.5931 138.618 69.5931 138.049C69.5931 137.47 69.3971 137.022 69.0051 136.705C68.6131 136.383 68.1208 136.222 67.5281 136.222H65.5191V139.967ZM74.4975 145.14C74.0355 145.14 73.6201 145.056 73.2515 144.888C72.8875 144.715 72.6005 144.47 72.3905 144.153C72.1851 143.831 72.0825 143.441 72.0825 142.984C72.0825 142.186 72.3695 141.584 72.9435 141.178C73.5221 140.772 74.4415 140.56 75.7015 140.541L76.7865 140.513V140.023C76.7865 139.64 76.6721 139.342 76.4435 139.127C76.2195 138.908 75.8695 138.8 75.3935 138.805C75.0388 138.81 74.7168 138.894 74.4275 139.057C74.1381 139.216 73.9468 139.484 73.8535 139.862H72.4045C72.4325 139.367 72.5748 138.954 72.8315 138.623C73.0928 138.287 73.4498 138.037 73.9025 137.874C74.3551 137.706 74.8778 137.622 75.4705 137.622C76.1611 137.622 76.7235 137.713 77.1575 137.895C77.5915 138.077 77.9111 138.341 78.1165 138.686C78.3218 139.027 78.4245 139.44 78.4245 139.925V145H76.9895L76.8495 143.698C76.5928 144.244 76.2638 144.622 75.8625 144.832C75.4658 145.037 75.0108 145.14 74.4975 145.14ZM75.0505 143.985C75.2605 143.985 75.4681 143.948 75.6735 143.873C75.8788 143.794 76.0631 143.689 76.2265 143.558C76.3945 143.423 76.5275 143.273 76.6255 143.11C76.7281 142.947 76.7818 142.776 76.7865 142.599V141.458L75.8975 141.472C75.4588 141.477 75.0738 141.523 74.7425 141.612C74.4158 141.701 74.1615 141.843 73.9795 142.039C73.7975 142.23 73.7065 142.487 73.7065 142.809C73.7065 143.178 73.8348 143.467 74.0915 143.677C74.3481 143.882 74.6678 143.985 75.0505 143.985ZM82.8564 145.056C82.2824 145.056 81.8367 144.981 81.5194 144.832C81.2067 144.678 80.9897 144.461 80.8684 144.181C80.747 143.901 80.6864 143.567 80.6864 143.18V138.966H79.5104V137.762H80.7354L81.1624 135.613H82.3874V137.755H84.0044V138.966H82.3874L82.3944 143.117C82.3944 143.332 82.4177 143.49 82.4644 143.593C82.5157 143.691 82.595 143.756 82.7024 143.789C82.8144 143.817 82.9614 143.831 83.1434 143.831H84.0394V144.909C83.9414 144.946 83.7967 144.979 83.6054 145.007C83.4187 145.04 83.169 145.056 82.8564 145.056ZM85.6115 145V137.762H87.2425V139.33C87.3592 138.971 87.5248 138.665 87.7395 138.413C87.9588 138.156 88.2155 137.96 88.5095 137.825C88.8035 137.69 89.1232 137.622 89.4685 137.622C89.5525 137.622 89.6342 137.627 89.7135 137.636C89.7928 137.645 89.8512 137.662 89.8885 137.685V139.316C89.8372 139.293 89.7695 139.276 89.6855 139.267C89.6062 139.258 89.5362 139.253 89.4755 139.253C89.1255 139.225 88.8152 139.239 88.5445 139.295C88.2785 139.351 88.0522 139.447 87.8655 139.582C87.6835 139.713 87.5458 139.881 87.4525 140.086C87.3592 140.287 87.3125 140.522 87.3125 140.793V145H85.6115ZM91.2723 145V137.762H92.9033V145H91.2723ZM91.2443 136.495V134.885H92.9313V136.495H91.2443ZM97.8917 145.14C97.229 145.14 96.6387 144.995 96.1207 144.706C95.6074 144.412 95.2037 143.987 94.9097 143.432C94.6157 142.872 94.4687 142.198 94.4687 141.409C94.4687 140.658 94.6064 140 94.8817 139.435C95.1617 138.866 95.556 138.422 96.0647 138.105C96.578 137.783 97.187 137.622 97.8917 137.622C98.4564 137.622 98.9534 137.734 99.3827 137.958C99.812 138.182 100.155 138.492 100.412 138.889C100.673 139.286 100.829 139.736 100.881 140.24H99.4317C99.3944 140.021 99.3127 139.813 99.1867 139.617C99.0607 139.416 98.8904 139.255 98.6757 139.134C98.4657 139.008 98.209 138.945 97.9057 138.945C97.3597 138.945 96.9187 139.146 96.5827 139.547C96.2467 139.948 96.0787 140.564 96.0787 141.395C96.0787 142.16 96.2374 142.769 96.5547 143.222C96.8767 143.675 97.3364 143.901 97.9337 143.901C98.2324 143.901 98.489 143.836 98.7037 143.705C98.9184 143.57 99.0864 143.404 99.2077 143.208C99.3337 143.007 99.413 142.807 99.4457 142.606H100.86C100.818 143.096 100.666 143.532 100.405 143.915C100.143 144.298 99.798 144.599 99.3687 144.818C98.9394 145.033 98.447 145.14 97.8917 145.14ZM102.428 145V134.598H104.122V141.045L107.125 137.762H108.994L106.376 140.59L109.127 145H107.398L105.298 141.647L104.122 142.879V145H102.428ZM110.16 138.525L110.951 136.698L110.293 136.649V134.878H112.155V136.432L110.846 138.525H110.16Z" fill="black"/>
<path d="M452.132 145V137.762H453.798V138.798C453.91 138.611 454.062 138.432 454.253 138.259C454.449 138.086 454.689 137.946 454.974 137.839C455.259 137.732 455.592 137.678 455.975 137.678C456.423 137.678 456.838 137.767 457.221 137.944C457.608 138.121 457.919 138.399 458.152 138.777C458.39 139.155 458.509 139.643 458.509 140.24V145H456.801V140.443C456.801 139.967 456.67 139.615 456.409 139.386C456.148 139.153 455.819 139.036 455.422 139.036C455.151 139.036 454.895 139.083 454.652 139.176C454.409 139.265 454.211 139.402 454.057 139.589C453.908 139.771 453.833 140 453.833 140.275V145H452.132ZM462.387 145.14C461.925 145.14 461.51 145.056 461.141 144.888C460.777 144.715 460.49 144.47 460.28 144.153C460.075 143.831 459.972 143.441 459.972 142.984C459.972 142.186 460.259 141.584 460.833 141.178C461.412 140.772 462.331 140.56 463.591 140.541L464.676 140.513V140.023C464.676 139.64 464.562 139.342 464.333 139.127C464.109 138.908 463.759 138.8 463.283 138.805C462.928 138.81 462.606 138.894 462.317 139.057C462.028 139.216 461.836 139.484 461.743 139.862H460.294C460.322 139.367 460.464 138.954 460.721 138.623C460.982 138.287 461.339 138.037 461.792 137.874C462.245 137.706 462.767 137.622 463.36 137.622C464.051 137.622 464.613 137.713 465.047 137.895C465.481 138.077 465.801 138.341 466.006 138.686C466.211 139.027 466.314 139.44 466.314 139.925V145H464.879L464.739 143.698C464.482 144.244 464.153 144.622 463.752 144.832C463.355 145.037 462.9 145.14 462.387 145.14ZM462.94 143.985C463.15 143.985 463.358 143.948 463.563 143.873C463.768 143.794 463.953 143.689 464.116 143.558C464.284 143.423 464.417 143.273 464.515 143.11C464.618 142.947 464.671 142.776 464.676 142.599V141.458L463.787 141.472C463.348 141.477 462.963 141.523 462.632 141.612C462.305 141.701 462.051 141.843 461.869 142.039C461.687 142.23 461.596 142.487 461.596 142.809C461.596 143.178 461.724 143.467 461.981 143.677C462.238 143.882 462.557 143.985 462.94 143.985ZM468.128 145V137.762H469.787V138.798C469.997 138.481 470.282 138.205 470.641 137.972C471.005 137.739 471.467 137.622 472.027 137.622C472.284 137.622 472.543 137.666 472.804 137.755C473.07 137.844 473.315 137.974 473.539 138.147C473.768 138.32 473.95 138.534 474.085 138.791C474.314 138.45 474.617 138.17 474.995 137.951C475.378 137.732 475.807 137.622 476.283 137.622C476.544 137.622 476.813 137.664 477.088 137.748C477.368 137.832 477.625 137.972 477.858 138.168C478.091 138.364 478.28 138.632 478.425 138.973C478.57 139.309 478.642 139.731 478.642 140.24V145H476.941V140.443C476.941 140.084 476.878 139.801 476.752 139.596C476.626 139.391 476.463 139.246 476.262 139.162C476.066 139.073 475.856 139.029 475.632 139.029C475.431 139.029 475.221 139.069 475.002 139.148C474.787 139.227 474.603 139.358 474.449 139.54C474.3 139.722 474.225 139.967 474.225 140.275V145H472.524V140.17C472.524 139.918 472.459 139.708 472.328 139.54C472.197 139.372 472.032 139.246 471.831 139.162C471.635 139.073 471.434 139.029 471.229 139.029C471.019 139.029 470.804 139.073 470.585 139.162C470.37 139.251 470.191 139.386 470.046 139.568C469.901 139.75 469.829 139.986 469.829 140.275V145H468.128ZM483.673 145.14C482.977 145.14 482.364 144.993 481.832 144.699C481.304 144.4 480.891 143.976 480.593 143.425C480.299 142.874 480.152 142.219 480.152 141.458C480.152 140.716 480.285 140.058 480.551 139.484C480.821 138.905 481.211 138.45 481.72 138.119C482.233 137.788 482.851 137.622 483.575 137.622C484.289 137.622 484.888 137.774 485.374 138.077C485.859 138.38 486.228 138.805 486.48 139.351C486.732 139.892 486.858 140.527 486.858 141.255V141.773H481.853C481.848 142.184 481.913 142.548 482.049 142.865C482.184 143.182 482.385 143.432 482.651 143.614C482.917 143.791 483.246 143.88 483.638 143.88C484.039 143.88 484.387 143.791 484.681 143.614C484.979 143.432 485.178 143.157 485.276 142.788H486.83C486.746 143.292 486.545 143.719 486.228 144.069C485.915 144.419 485.532 144.685 485.08 144.867C484.632 145.049 484.163 145.14 483.673 145.14ZM481.846 140.716H485.248C485.248 140.366 485.185 140.051 485.059 139.771C484.937 139.486 484.753 139.262 484.506 139.099C484.258 138.931 483.946 138.847 483.568 138.847C483.194 138.847 482.879 138.938 482.623 139.12C482.366 139.302 482.172 139.538 482.042 139.827C481.911 140.112 481.846 140.408 481.846 140.716ZM488.248 139.932V137.986H490.173V139.932H488.248ZM488.248 144.958V143.026H490.173V144.958H488.248ZM494.905 138.525L495.696 136.698L495.038 136.649V134.878H496.9V136.432L495.591 138.525H494.905ZM496.595 145L500.228 134.878H502.076L505.709 145H504.001L503.098 142.459H499.22L498.31 145H496.595ZM499.626 140.947H502.671L501.152 136.53L499.626 140.947ZM509.981 145.14C509.318 145.14 508.728 144.995 508.21 144.706C507.696 144.412 507.293 143.987 506.999 143.432C506.705 142.872 506.558 142.198 506.558 141.409C506.558 140.658 506.695 140 506.971 139.435C507.251 138.866 507.645 138.422 508.154 138.105C508.667 137.783 509.276 137.622 509.981 137.622C510.545 137.622 511.042 137.734 511.472 137.958C511.901 138.182 512.244 138.492 512.501 138.889C512.762 139.286 512.918 139.736 512.97 140.24H511.521C511.483 140.021 511.402 139.813 511.276 139.617C511.15 139.416 510.979 139.255 510.765 139.134C510.555 139.008 510.298 138.945 509.995 138.945C509.449 138.945 509.008 139.146 508.672 139.547C508.336 139.948 508.168 140.564 508.168 141.395C508.168 142.16 508.326 142.769 508.644 143.222C508.966 143.675 509.425 143.901 510.023 143.901C510.321 143.901 510.578 143.836 510.793 143.705C511.007 143.57 511.175 143.404 511.297 143.208C511.423 143.007 511.502 142.807 511.535 142.606H512.949C512.907 143.096 512.755 143.532 512.494 143.915C512.232 144.298 511.887 144.599 511.458 144.818C511.028 145.033 510.536 145.14 509.981 145.14ZM514.517 145V137.762H516.176V138.798C516.386 138.481 516.67 138.205 517.03 137.972C517.394 137.739 517.856 137.622 518.416 137.622C518.672 137.622 518.931 137.666 519.193 137.755C519.459 137.844 519.704 137.974 519.928 138.147C520.156 138.32 520.338 138.534 520.474 138.791C520.702 138.45 521.006 138.17 521.384 137.951C521.766 137.732 522.196 137.622 522.672 137.622C522.933 137.622 523.201 137.664 523.477 137.748C523.757 137.832 524.013 137.972 524.247 138.168C524.48 138.364 524.669 138.632 524.814 138.973C524.958 139.309 525.031 139.731 525.031 140.24V145H523.33V140.443C523.33 140.084 523.267 139.801 523.141 139.596C523.015 139.391 522.851 139.246 522.651 139.162C522.455 139.073 522.245 139.029 522.021 139.029C521.82 139.029 521.61 139.069 521.391 139.148C521.176 139.227 520.992 139.358 520.838 139.54C520.688 139.722 520.614 139.967 520.614 140.275V145H518.913V140.17C518.913 139.918 518.847 139.708 518.717 139.54C518.586 139.372 518.42 139.246 518.22 139.162C518.024 139.073 517.823 139.029 517.618 139.029C517.408 139.029 517.193 139.073 516.974 139.162C516.759 139.251 516.579 139.386 516.435 139.568C516.29 139.75 516.218 139.986 516.218 140.275V145H514.517ZM530.061 145.14C529.366 145.14 528.752 144.993 528.22 144.699C527.693 144.4 527.28 143.976 526.981 143.425C526.687 142.874 526.54 142.219 526.54 141.458C526.54 140.716 526.673 140.058 526.939 139.484C527.21 138.905 527.6 138.45 528.108 138.119C528.622 137.788 529.24 137.622 529.963 137.622C530.677 137.622 531.277 137.774 531.762 138.077C532.248 138.38 532.616 138.805 532.868 139.351C533.12 139.892 533.246 140.527 533.246 141.255V141.773H528.241C528.237 142.184 528.302 142.548 528.437 142.865C528.573 143.182 528.773 143.432 529.039 143.614C529.305 143.791 529.634 143.88 530.026 143.88C530.428 143.88 530.775 143.791 531.069 143.614C531.368 143.432 531.566 143.157 531.664 142.788H533.218C533.134 143.292 532.934 143.719 532.616 144.069C532.304 144.419 531.921 144.685 531.468 144.867C531.02 145.049 530.551 145.14 530.061 145.14ZM528.234 140.716H531.636C531.636 140.366 531.573 140.051 531.447 139.771C531.326 139.486 531.142 139.262 530.894 139.099C530.647 138.931 530.334 138.847 529.956 138.847C529.583 138.847 529.268 138.938 529.011 139.12C528.755 139.302 528.561 139.538 528.43 139.827C528.3 140.112 528.234 140.408 528.234 140.716ZM534.061 138.525L534.852 136.698L534.194 136.649V134.878H536.056V136.432L534.747 138.525H534.061Z" fill="black"/>
<path d="M415.948 309.056C415.374 309.056 414.928 308.981 414.611 308.832C414.298 308.678 414.081 308.461 413.96 308.181C413.839 307.901 413.778 307.567 413.778 307.18V302.966H412.602V301.762H413.827L414.254 299.613H415.479V301.755H417.096V302.966H415.479L415.486 307.117C415.486 307.332 415.509 307.49 415.556 307.593C415.607 307.691 415.687 307.756 415.794 307.789C415.906 307.817 416.053 307.831 416.235 307.831H417.131V308.909C417.033 308.946 416.888 308.979 416.697 309.007C416.51 309.04 416.261 309.056 415.948 309.056ZM418.731 309V301.762H420.362V309H418.731ZM418.703 300.495V298.885H420.39V300.495H418.703ZM425.218 309.056C424.644 309.056 424.198 308.981 423.881 308.832C423.568 308.678 423.351 308.461 423.23 308.181C423.108 307.901 423.048 307.567 423.048 307.18V302.966H421.872V301.762H423.097L423.524 299.613H424.749V301.755H426.366V302.966H424.749L424.756 307.117C424.756 307.332 424.779 307.49 424.826 307.593C424.877 307.691 424.956 307.756 425.064 307.789C425.176 307.817 425.323 307.831 425.505 307.831H426.401V308.909C426.303 308.946 426.158 308.979 425.967 309.007C425.78 309.04 425.53 309.056 425.218 309.056ZM430.059 309.105C429.592 309.105 429.219 309.047 428.939 308.93C428.659 308.813 428.449 308.657 428.309 308.461C428.169 308.265 428.078 308.046 428.036 307.803C427.994 307.556 427.973 307.304 427.973 307.047V298.598H429.639V306.851C429.639 307.164 429.702 307.406 429.828 307.579C429.959 307.752 430.169 307.852 430.458 307.88L430.822 307.894V308.965C430.696 309.002 430.568 309.035 430.437 309.063C430.306 309.091 430.18 309.105 430.059 309.105ZM435.232 309.14C434.537 309.14 433.923 308.993 433.391 308.699C432.864 308.4 432.451 307.976 432.152 307.425C431.858 306.874 431.711 306.219 431.711 305.458C431.711 304.716 431.844 304.058 432.11 303.484C432.381 302.905 432.771 302.45 433.279 302.119C433.793 301.788 434.411 301.622 435.134 301.622C435.848 301.622 436.448 301.774 436.933 302.077C437.419 302.38 437.787 302.805 438.039 303.351C438.291 303.892 438.417 304.527 438.417 305.255V305.773H433.412C433.408 306.184 433.473 306.548 433.608 306.865C433.744 307.182 433.944 307.432 434.21 307.614C434.476 307.791 434.805 307.88 435.197 307.88C435.599 307.88 435.946 307.791 436.24 307.614C436.539 307.432 436.737 307.157 436.835 306.788H438.389C438.305 307.292 438.105 307.719 437.787 308.069C437.475 308.419 437.092 308.685 436.639 308.867C436.191 309.049 435.722 309.14 435.232 309.14ZM433.405 304.716H436.807C436.807 304.366 436.744 304.051 436.618 303.771C436.497 303.486 436.313 303.262 436.065 303.099C435.818 302.931 435.505 302.847 435.127 302.847C434.754 302.847 434.439 302.938 434.182 303.12C433.926 303.302 433.732 303.538 433.601 303.827C433.471 304.112 433.405 304.408 433.405 304.716ZM439.807 303.932V301.986H441.732V303.932H439.807ZM439.807 308.958V307.026H441.732V308.958H439.807ZM446.465 302.525L447.256 300.698L446.598 300.649V298.878H448.46V300.432L447.151 302.525H446.465ZM454.095 309.14C453.591 309.14 453.108 309.079 452.646 308.958C452.184 308.832 451.762 308.648 451.379 308.405C451.001 308.158 450.689 307.852 450.441 307.488C450.194 307.119 450.042 306.69 449.986 306.2H451.75C451.825 306.541 451.972 306.828 452.191 307.061C452.415 307.294 452.698 307.472 453.038 307.593C453.379 307.714 453.759 307.775 454.179 307.775C454.553 307.775 454.9 307.719 455.222 307.607C455.544 307.495 455.806 307.329 456.006 307.11C456.207 306.886 456.307 306.611 456.307 306.284C456.307 305.915 456.177 305.628 455.915 305.423C455.659 305.213 455.29 305.047 454.809 304.926L452.828 304.457C452.315 304.34 451.867 304.17 451.484 303.946C451.106 303.722 450.812 303.428 450.602 303.064C450.392 302.695 450.287 302.245 450.287 301.713C450.287 301.106 450.453 300.581 450.784 300.138C451.12 299.695 451.575 299.354 452.149 299.116C452.723 298.873 453.37 298.752 454.088 298.752C454.91 298.752 455.603 298.89 456.167 299.165C456.732 299.436 457.161 299.8 457.455 300.257C457.749 300.714 457.899 301.216 457.903 301.762H456.181C456.144 301.356 456.025 301.036 455.824 300.803C455.624 300.565 455.369 300.392 455.061 300.285C454.753 300.178 454.413 300.124 454.039 300.124C453.377 300.124 452.884 300.266 452.562 300.551C452.24 300.836 452.079 301.169 452.079 301.552C452.079 301.911 452.198 302.196 452.436 302.406C452.674 302.616 453.038 302.779 453.528 302.896L455.411 303.337C456.041 303.468 456.548 303.668 456.93 303.939C457.313 304.21 457.591 304.532 457.763 304.905C457.941 305.274 458.029 305.682 458.029 306.13C458.029 306.718 457.861 307.238 457.525 307.691C457.194 308.144 456.734 308.498 456.146 308.755C455.558 309.012 454.875 309.14 454.095 309.14ZM462.743 309.14C462.053 309.14 461.451 308.993 460.937 308.699C460.424 308.4 460.025 307.973 459.74 307.418C459.46 306.863 459.32 306.195 459.32 305.416C459.32 304.66 459.458 303.997 459.733 303.428C460.009 302.859 460.401 302.415 460.909 302.098C461.423 301.781 462.036 301.622 462.75 301.622C463.441 301.622 464.041 301.774 464.549 302.077C465.058 302.38 465.45 302.814 465.725 303.379C466.005 303.944 466.145 304.623 466.145 305.416C466.145 306.149 466.012 306.795 465.746 307.355C465.485 307.91 465.1 308.347 464.591 308.664C464.087 308.981 463.471 309.14 462.743 309.14ZM462.75 307.845C463.142 307.845 463.464 307.738 463.716 307.523C463.973 307.308 464.164 307.014 464.29 306.641C464.416 306.268 464.479 305.843 464.479 305.367C464.479 304.924 464.423 304.515 464.311 304.142C464.199 303.769 464.015 303.47 463.758 303.246C463.506 303.017 463.17 302.903 462.75 302.903C462.354 302.903 462.025 303.008 461.763 303.218C461.507 303.423 461.315 303.713 461.189 304.086C461.063 304.455 461 304.882 461 305.367C461 305.806 461.056 306.214 461.168 306.592C461.28 306.965 461.465 307.269 461.721 307.502C461.978 307.731 462.321 307.845 462.75 307.845ZM468.339 309V302.966H466.911V301.762H468.339V300.684C468.339 300.105 468.498 299.66 468.815 299.347C469.137 299.034 469.602 298.878 470.208 298.878H471.734L471.741 300.04H470.733C470.458 300.04 470.269 300.112 470.166 300.257C470.064 300.397 470.012 300.619 470.012 300.922V301.762H471.671V302.966H470.04V309H468.339ZM475.626 309.056C475.052 309.056 474.606 308.981 474.289 308.832C473.976 308.678 473.759 308.461 473.638 308.181C473.517 307.901 473.456 307.567 473.456 307.18V302.966H472.28V301.762H473.505L473.932 299.613H475.157V301.755H476.774V302.966H475.157L475.164 307.117C475.164 307.332 475.187 307.49 475.234 307.593C475.285 307.691 475.365 307.756 475.472 307.789C475.584 307.817 475.731 307.831 475.913 307.831H476.809V308.909C476.711 308.946 476.566 308.979 476.375 309.007C476.188 309.04 475.939 309.056 475.626 309.056ZM479.991 309L477.695 301.762H479.228L480.733 306.739H480.817L482.28 301.762H483.519L485.024 306.732H485.108L486.564 301.762H488.125L485.829 309H484.359L482.875 304.177L481.426 309H479.991ZM491.234 309.14C490.772 309.14 490.356 309.056 489.988 308.888C489.624 308.715 489.337 308.47 489.127 308.153C488.921 307.831 488.819 307.441 488.819 306.984C488.819 306.186 489.106 305.584 489.68 305.178C490.258 304.772 491.178 304.56 492.438 304.541L493.523 304.513V304.023C493.523 303.64 493.408 303.342 493.18 303.127C492.956 302.908 492.606 302.8 492.13 302.805C491.775 302.81 491.453 302.894 491.164 303.057C490.874 303.216 490.683 303.484 490.59 303.862H489.141C489.169 303.367 489.311 302.954 489.568 302.623C489.829 302.287 490.186 302.037 490.639 301.874C491.091 301.706 491.614 301.622 492.207 301.622C492.897 301.622 493.46 301.713 493.894 301.895C494.328 302.077 494.647 302.341 494.853 302.686C495.058 303.027 495.161 303.44 495.161 303.925V309H493.726L493.586 307.698C493.329 308.244 493 308.622 492.599 308.832C492.202 309.037 491.747 309.14 491.234 309.14ZM491.787 307.985C491.997 307.985 492.204 307.948 492.41 307.873C492.615 307.794 492.799 307.689 492.963 307.558C493.131 307.423 493.264 307.273 493.362 307.11C493.464 306.947 493.518 306.776 493.523 306.599V305.458L492.634 305.472C492.195 305.477 491.81 305.523 491.479 305.612C491.152 305.701 490.898 305.843 490.716 306.039C490.534 306.23 490.443 306.487 490.443 306.809C490.443 307.178 490.571 307.467 490.828 307.677C491.084 307.882 491.404 307.985 491.787 307.985ZM496.975 309V301.762H498.606V303.33C498.722 302.971 498.888 302.665 499.103 302.413C499.322 302.156 499.579 301.96 499.873 301.825C500.167 301.69 500.486 301.622 500.832 301.622C500.916 301.622 500.997 301.627 501.077 301.636C501.156 301.645 501.214 301.662 501.252 301.685V303.316C501.2 303.293 501.133 303.276 501.049 303.267C500.969 303.258 500.899 303.253 500.839 303.253C500.489 303.225 500.178 303.239 499.908 303.295C499.642 303.351 499.415 303.447 499.229 303.582C499.047 303.713 498.909 303.881 498.816 304.086C498.722 304.287 498.676 304.522 498.676 304.793V309H496.975ZM505.752 309.14C505.057 309.14 504.443 308.993 503.911 308.699C503.384 308.4 502.971 307.976 502.672 307.425C502.378 306.874 502.231 306.219 502.231 305.458C502.231 304.716 502.364 304.058 502.63 303.484C502.901 302.905 503.29 302.45 503.799 302.119C504.312 301.788 504.931 301.622 505.654 301.622C506.368 301.622 506.968 301.774 507.453 302.077C507.938 302.38 508.307 302.805 508.559 303.351C508.811 303.892 508.937 304.527 508.937 305.255V305.773H503.932C503.927 306.184 503.993 306.548 504.128 306.865C504.263 307.182 504.464 307.432 504.73 307.614C504.996 307.791 505.325 307.88 505.717 307.88C506.118 307.88 506.466 307.791 506.76 307.614C507.059 307.432 507.257 307.157 507.355 306.788H508.909C508.825 307.292 508.624 307.719 508.307 308.069C507.994 308.419 507.612 308.685 507.159 308.867C506.711 309.049 506.242 309.14 505.752 309.14ZM503.925 304.716H507.327C507.327 304.366 507.264 304.051 507.138 303.771C507.017 303.486 506.832 303.262 506.585 303.099C506.338 302.931 506.025 302.847 505.647 302.847C505.274 302.847 504.959 302.938 504.702 303.12C504.445 303.302 504.252 303.538 504.121 303.827C503.99 304.112 503.925 304.408 503.925 304.716ZM516.84 309.14C516.144 309.14 515.531 308.993 514.999 308.699C514.471 308.4 514.058 307.976 513.76 307.425C513.466 306.874 513.319 306.219 513.319 305.458C513.319 304.716 513.452 304.058 513.718 303.484C513.988 302.905 514.378 302.45 514.887 302.119C515.4 301.788 516.018 301.622 516.742 301.622C517.456 301.622 518.055 301.774 518.541 302.077C519.026 302.38 519.395 302.805 519.647 303.351C519.899 303.892 520.025 304.527 520.025 305.255V305.773H515.02C515.015 306.184 515.08 306.548 515.216 306.865C515.351 307.182 515.552 307.432 515.818 307.614C516.084 307.791 516.413 307.88 516.805 307.88C517.206 307.88 517.554 307.791 517.848 307.614C518.146 307.432 518.345 307.157 518.443 306.788H519.997C519.913 307.292 519.712 307.719 519.395 308.069C519.082 308.419 518.699 308.685 518.247 308.867C517.799 309.049 517.33 309.14 516.84 309.14ZM515.013 304.716H518.415C518.415 304.366 518.352 304.051 518.226 303.771C518.104 303.486 517.92 303.262 517.673 303.099C517.425 302.931 517.113 302.847 516.735 302.847C516.361 302.847 516.046 302.938 515.79 303.12C515.533 303.302 515.339 303.538 515.209 303.827C515.078 304.112 515.013 304.408 515.013 304.716ZM521.653 309V301.762H523.319V302.798C523.431 302.611 523.582 302.432 523.774 302.259C523.97 302.086 524.21 301.946 524.495 301.839C524.779 301.732 525.113 301.678 525.496 301.678C525.944 301.678 526.359 301.767 526.742 301.944C527.129 302.121 527.439 302.399 527.673 302.777C527.911 303.155 528.03 303.643 528.03 304.24V309H526.322V304.443C526.322 303.967 526.191 303.615 525.93 303.386C525.668 303.153 525.339 303.036 524.943 303.036C524.672 303.036 524.415 303.083 524.173 303.176C523.93 303.265 523.732 303.402 523.578 303.589C523.428 303.771 523.354 304 523.354 304.275V309H521.653ZM533.076 311.394C531.858 311.394 530.922 311.231 530.269 310.904C529.615 310.577 529.289 310.129 529.289 309.56C529.289 309.303 529.352 309.089 529.478 308.916C529.604 308.743 529.753 308.601 529.926 308.489C530.098 308.377 530.257 308.291 530.402 308.23C530.546 308.169 530.64 308.125 530.682 308.097C530.602 308.05 530.497 307.99 530.367 307.915C530.236 307.84 530.117 307.738 530.01 307.607C529.907 307.476 529.856 307.306 529.856 307.096C529.856 306.853 529.97 306.629 530.199 306.424C530.432 306.219 530.78 306.072 531.242 305.983C530.789 305.764 530.441 305.467 530.199 305.094C529.956 304.721 529.835 304.333 529.835 303.932C529.835 303.456 529.972 303.048 530.248 302.707C530.528 302.366 530.915 302.105 531.41 301.923C531.904 301.741 532.481 301.65 533.139 301.65C533.619 301.65 534.018 301.704 534.336 301.811C534.658 301.918 534.956 302.063 535.232 302.245C535.325 302.208 535.456 302.156 535.624 302.091C535.792 302.021 535.976 301.946 536.177 301.867C536.377 301.783 536.571 301.704 536.758 301.629C536.944 301.55 537.101 301.484 537.227 301.433L537.22 302.84L535.967 303.064C536.027 303.199 536.074 303.346 536.107 303.505C536.144 303.664 536.163 303.804 536.163 303.925C536.163 304.345 536.044 304.735 535.806 305.094C535.572 305.449 535.22 305.733 534.749 305.948C534.282 306.163 533.699 306.27 532.999 306.27C532.929 306.27 532.833 306.268 532.712 306.263C532.59 306.258 532.492 306.254 532.418 306.249C532.04 306.263 531.781 306.307 531.641 306.382C531.501 306.457 531.431 306.538 531.431 306.627C531.431 306.753 531.536 306.837 531.746 306.879C531.956 306.921 532.292 306.958 532.754 306.991C532.917 307 533.132 307.012 533.398 307.026C533.664 307.04 533.96 307.059 534.287 307.082C535.113 307.133 535.738 307.341 536.163 307.705C536.587 308.064 536.8 308.531 536.8 309.105C536.8 309.772 536.492 310.321 535.876 310.75C535.26 311.179 534.326 311.394 533.076 311.394ZM533.363 310.393C533.974 310.393 534.427 310.309 534.721 310.141C535.015 309.973 535.162 309.726 535.162 309.399C535.162 309.147 535.061 308.942 534.861 308.783C534.66 308.624 534.361 308.531 533.965 308.503L532.138 308.391C531.937 308.377 531.746 308.414 531.564 308.503C531.386 308.587 531.242 308.706 531.13 308.86C531.018 309.009 530.962 309.175 530.962 309.357C530.962 309.698 531.155 309.954 531.543 310.127C531.935 310.304 532.541 310.393 533.363 310.393ZM533.055 305.269C533.498 305.269 533.857 305.157 534.133 304.933C534.408 304.704 534.546 304.382 534.546 303.967C534.546 303.538 534.408 303.204 534.133 302.966C533.857 302.723 533.498 302.602 533.055 302.602C532.602 302.602 532.236 302.723 531.956 302.966C531.68 303.209 531.543 303.542 531.543 303.967C531.543 304.368 531.676 304.686 531.942 304.919C532.208 305.152 532.579 305.269 533.055 305.269ZM538.647 309V301.762H540.278V309H538.647ZM538.619 300.495V298.885H540.306V300.495H538.619ZM542.297 309V301.762H543.963V302.798C544.075 302.611 544.227 302.432 544.418 302.259C544.614 302.086 544.854 301.946 545.139 301.839C545.424 301.732 545.757 301.678 546.14 301.678C546.588 301.678 547.003 301.767 547.386 301.944C547.773 302.121 548.084 302.399 548.317 302.777C548.555 303.155 548.674 303.643 548.674 304.24V309H546.966V304.443C546.966 303.967 546.835 303.615 546.574 303.386C546.313 303.153 545.984 303.036 545.587 303.036C545.316 303.036 545.06 303.083 544.817 303.176C544.574 303.265 544.376 303.402 544.222 303.589C544.073 303.771 543.998 304 543.998 304.275V309H542.297ZM553.699 309.14C553.004 309.14 552.39 308.993 551.858 308.699C551.331 308.4 550.918 307.976 550.619 307.425C550.325 306.874 550.178 306.219 550.178 305.458C550.178 304.716 550.311 304.058 550.577 303.484C550.848 302.905 551.238 302.45 551.746 302.119C552.26 301.788 552.878 301.622 553.601 301.622C554.315 301.622 554.915 301.774 555.4 302.077C555.886 302.38 556.254 302.805 556.506 303.351C556.758 303.892 556.884 304.527 556.884 305.255V305.773H551.879C551.875 306.184 551.94 306.548 552.075 306.865C552.211 307.182 552.411 307.432 552.677 307.614C552.943 307.791 553.272 307.88 553.664 307.88C554.066 307.88 554.413 307.791 554.707 307.614C555.006 307.432 555.204 307.157 555.302 306.788H556.856C556.772 307.292 556.572 307.719 556.254 308.069C555.942 308.419 555.559 308.685 555.106 308.867C554.658 309.049 554.189 309.14 553.699 309.14ZM551.872 304.716H555.274C555.274 304.366 555.211 304.051 555.085 303.771C554.964 303.486 554.78 303.262 554.532 303.099C554.285 302.931 553.972 302.847 553.594 302.847C553.221 302.847 552.906 302.938 552.649 303.12C552.393 303.302 552.199 303.538 552.068 303.827C551.938 304.112 551.872 304.408 551.872 304.716ZM561.711 309.14C561.016 309.14 560.402 308.993 559.87 308.699C559.343 308.4 558.93 307.976 558.631 307.425C558.337 306.874 558.19 306.219 558.19 305.458C558.19 304.716 558.323 304.058 558.589 303.484C558.86 302.905 559.249 302.45 559.758 302.119C560.271 301.788 560.89 301.622 561.613 301.622C562.327 301.622 562.927 301.774 563.412 302.077C563.897 302.38 564.266 302.805 564.518 303.351C564.77 303.892 564.896 304.527 564.896 305.255V305.773H559.891C559.886 306.184 559.952 306.548 560.087 306.865C560.222 307.182 560.423 307.432 560.689 307.614C560.955 307.791 561.284 307.88 561.676 307.88C562.077 307.88 562.425 307.791 562.719 307.614C563.018 307.432 563.216 307.157 563.314 306.788H564.868C564.784 307.292 564.583 307.719 564.266 308.069C563.953 308.419 563.571 308.685 563.118 308.867C562.67 309.049 562.201 309.14 561.711 309.14ZM559.884 304.716H563.286C563.286 304.366 563.223 304.051 563.097 303.771C562.976 303.486 562.791 303.262 562.544 303.099C562.297 302.931 561.984 302.847 561.606 302.847C561.233 302.847 560.918 302.938 560.661 303.12C560.404 303.302 560.211 303.538 560.08 303.827C559.949 304.112 559.884 304.408 559.884 304.716ZM566.524 309V301.762H568.155V303.33C568.271 302.971 568.437 302.665 568.652 302.413C568.871 302.156 569.128 301.96 569.422 301.825C569.716 301.69 570.035 301.622 570.381 301.622C570.465 301.622 570.546 301.627 570.626 301.636C570.705 301.645 570.763 301.662 570.801 301.685V303.316C570.749 303.293 570.682 303.276 570.598 303.267C570.518 303.258 570.448 303.253 570.388 303.253C570.038 303.225 569.727 303.239 569.457 303.295C569.191 303.351 568.964 303.447 568.778 303.582C568.596 303.713 568.458 303.881 568.365 304.086C568.271 304.287 568.225 304.522 568.225 304.793V309H566.524ZM572.15 302.525L572.941 300.698L572.283 300.649V298.878H574.145V300.432L572.836 302.525H572.15Z" fill="black"/>
<path d="M440.983 187C441.536 187.009 441.991 186.569 442 186.017L442.15 177.018C442.159 176.466 441.719 176.011 441.167 176.001C440.614 175.992 440.159 176.432 440.15 176.985L440.017 184.983L432.018 184.85C431.466 184.841 431.011 185.281 431.001 185.833C430.992 186.386 431.432 186.841 431.985 186.85L440.983 187ZM323 64L322.281 64.6952L440.281 186.695L441 186L441.719 185.305L323.719 63.3048L323 64Z" fill="black"/>
</svg>
