<svg width="294" height="185" viewBox="0 0 294 185" fill="none" xmlns="http://www.w3.org/2000/svg">
<path d="M57.6895 26H226.709Z" fill="black"/>
<path d="M57.6895 26H226.709" stroke="#A5ABB6"/>
<path d="M226.709 26L225.343 29.5L239 26L225.343 22.5L226.709 26Z" fill="#A5ABB6"/>
<path d="M145.5 11L145.5 102.384" stroke="#A5ABB6"/>
<path d="M145.5 102.384L142 100.982L145.5 115L149 100.982L145.5 102.384Z" fill="#A5ABB6"/>
<path d="M175.603 7.21436H113C111.895 7.21436 111 8.10979 111 9.21436V19.2144C111 20.3189 111.895 21.2144 113 21.2144H175.603C176.707 21.2144 177.603 20.3189 177.603 19.2144V9.21436C177.603 8.10979 176.707 7.21436 175.603 7.21436Z" fill="white"/>
<path d="M115.202 17L113.213 9.72727H114.108L115.628 15.6506H115.699L117.247 9.72727H118.241L119.79 15.6506H119.861L121.381 9.72727H122.276L120.287 17H119.378L117.773 11.2045H117.716L116.111 17H115.202ZM129.167 13.3636C129.167 14.1307 129.029 14.7936 128.752 15.3523C128.475 15.911 128.095 16.3419 127.612 16.6449C127.129 16.9479 126.577 17.0994 125.957 17.0994C125.337 17.0994 124.785 16.9479 124.302 16.6449C123.819 16.3419 123.439 15.911 123.162 15.3523C122.885 14.7936 122.747 14.1307 122.747 13.3636C122.747 12.5966 122.885 11.9337 123.162 11.375C123.439 10.8163 123.819 10.3854 124.302 10.0824C124.785 9.77936 125.337 9.62784 125.957 9.62784C126.577 9.62784 127.129 9.77936 127.612 10.0824C128.095 10.3854 128.475 10.8163 128.752 11.375C129.029 11.9337 129.167 12.5966 129.167 13.3636ZM128.315 13.3636C128.315 12.7339 128.21 12.2024 127.999 11.7692C127.791 11.3359 127.508 11.008 127.15 10.7855C126.795 10.563 126.398 10.4517 125.957 10.4517C125.517 10.4517 125.118 10.563 124.76 10.7855C124.405 11.008 124.122 11.3359 123.912 11.7692C123.703 12.2024 123.599 12.7339 123.599 13.3636C123.599 13.9934 123.703 14.5249 123.912 14.9581C124.122 15.3913 124.405 15.7192 124.76 15.9418C125.118 16.1643 125.517 16.2756 125.957 16.2756C126.398 16.2756 126.795 16.1643 127.15 15.9418C127.508 15.7192 127.791 15.3913 127.999 14.9581C128.21 14.5249 128.315 13.9934 128.315 13.3636ZM130.648 17V9.72727H133.106C133.674 9.72727 134.14 9.82434 134.505 10.0185C134.869 10.2102 135.139 10.4742 135.314 10.8104C135.49 11.1465 135.577 11.5289 135.577 11.9574C135.577 12.3859 135.49 12.7659 135.314 13.0973C135.139 13.4287 134.871 13.6892 134.508 13.8786C134.146 14.0656 133.683 14.1591 133.12 14.1591H131.131V13.3636H133.091C133.48 13.3636 133.792 13.3068 134.029 13.1932C134.268 13.0795 134.441 12.9186 134.547 12.7102C134.656 12.4995 134.711 12.2486 134.711 11.9574C134.711 11.6662 134.656 11.4117 134.547 11.1939C134.439 10.9761 134.265 10.808 134.025 10.6896C133.786 10.5689 133.47 10.5085 133.077 10.5085H131.529V17H130.648ZM134.072 13.733L135.861 17H134.839L133.077 13.733H134.072ZM137.045 17V9.72727H137.925V13.3352H138.011L141.278 9.72727H142.428L139.374 13.0085L142.428 17H141.363L138.835 13.6193L137.925 14.642V17H137.045ZM143.568 17V9.72727H147.957V10.5085H144.449V12.9659H147.73V13.7472H144.449V16.2188H148.014V17H143.568ZM151.789 17H149.545V9.72727H151.888C152.594 9.72727 153.198 9.87287 153.7 10.1641C154.201 10.4529 154.586 10.8684 154.854 11.4105C155.121 11.9503 155.255 12.5966 155.255 13.3494C155.255 14.107 155.12 14.7592 154.85 15.3061C154.58 15.8506 154.187 16.2696 153.671 16.5632C153.155 16.8544 152.528 17 151.789 17ZM150.425 16.2188H151.732C152.334 16.2188 152.832 16.1027 153.227 15.8707C153.623 15.6387 153.917 15.3085 154.112 14.88C154.306 14.4515 154.403 13.9413 154.403 13.3494C154.403 12.7623 154.307 12.2569 154.115 11.8331C153.923 11.407 153.637 11.0803 153.256 10.853C152.875 10.6233 152.4 10.5085 151.832 10.5085H150.425V16.2188ZM159.982 17V17.7812H155.437V17H159.982ZM161.152 17H160.228L162.899 9.72727H163.808L166.478 17H165.555L163.382 10.8778H163.325L161.152 17ZM161.493 14.1591H165.214V14.9403H161.493V14.1591ZM166.364 10.5085V9.72727H171.818V10.5085H169.531V17H168.651V10.5085H166.364Z" fill="black"/>
<path d="M171.359 21.2144H118V45.2144H171.359V21.2144Z" fill="white"/>
<path d="M122.182 24.5455V25.2557H119.242V24.5455H122.182ZM120.123 30V23.7926C120.123 23.4801 120.196 23.2197 120.343 23.0114C120.49 22.803 120.68 22.6468 120.915 22.5426C121.149 22.4384 121.396 22.3864 121.657 22.3864C121.863 22.3864 122.031 22.4029 122.161 22.4361C122.291 22.4692 122.388 22.5 122.452 22.5284L122.211 23.2528C122.168 23.2386 122.109 23.2209 122.033 23.1996C121.96 23.1783 121.863 23.1676 121.742 23.1676C121.465 23.1676 121.265 23.2375 121.142 23.3771C121.021 23.5168 120.961 23.7216 120.961 23.9915V30H120.123ZM123.357 30V24.5455H124.167V25.3693H124.223C124.323 25.0994 124.503 24.8804 124.763 24.7124C125.024 24.5443 125.317 24.4602 125.644 24.4602C125.705 24.4602 125.782 24.4614 125.875 24.4638C125.967 24.4661 126.037 24.4697 126.084 24.4744V25.3267C126.056 25.3196 125.991 25.3089 125.889 25.2947C125.789 25.2782 125.684 25.2699 125.573 25.2699C125.308 25.2699 125.071 25.3255 124.863 25.4368C124.657 25.5457 124.493 25.6972 124.373 25.8913C124.254 26.0831 124.195 26.3021 124.195 26.5483V30H123.357ZM129.127 30.1136C128.635 30.1136 128.203 29.9964 127.831 29.7621C127.462 29.5277 127.173 29.1998 126.965 28.7784C126.759 28.357 126.656 27.8646 126.656 27.3011C126.656 26.733 126.759 26.237 126.965 25.8132C127.173 25.3894 127.462 25.0604 127.831 24.826C128.203 24.5916 128.635 24.4744 129.127 24.4744C129.62 24.4744 130.051 24.5916 130.42 24.826C130.792 25.0604 131.081 25.3894 131.287 25.8132C131.495 26.237 131.599 26.733 131.599 27.3011C131.599 27.8646 131.495 28.357 131.287 28.7784C131.081 29.1998 130.792 29.5277 130.42 29.7621C130.051 29.9964 129.62 30.1136 129.127 30.1136ZM129.127 29.3608C129.502 29.3608 129.809 29.2649 130.051 29.0732C130.292 28.8814 130.471 28.6293 130.587 28.3168C130.703 28.0043 130.761 27.6657 130.761 27.3011C130.761 26.9366 130.703 26.5968 130.587 26.282C130.471 25.9671 130.292 25.7126 130.051 25.5185C129.809 25.3243 129.502 25.2273 129.127 25.2273C128.753 25.2273 128.446 25.3243 128.204 25.5185C127.963 25.7126 127.784 25.9671 127.668 26.282C127.552 26.5968 127.494 26.9366 127.494 27.3011C127.494 27.6657 127.552 28.0043 127.668 28.3168C127.784 28.6293 127.963 28.8814 128.204 29.0732C128.446 29.2649 128.753 29.3608 129.127 29.3608ZM132.878 30V24.5455H133.688V25.3977H133.759C133.873 25.1065 134.056 24.8804 134.309 24.7195C134.563 24.5561 134.867 24.4744 135.222 24.4744C135.582 24.4744 135.881 24.5561 136.121 24.7195C136.362 24.8804 136.55 25.1065 136.685 25.3977H136.742C136.882 25.116 137.091 24.8923 137.371 24.7266C137.65 24.5585 137.985 24.4744 138.376 24.4744C138.863 24.4744 139.262 24.6271 139.572 24.9325C139.882 25.2356 140.037 25.7079 140.037 26.3494V30H139.199V26.3494C139.199 25.947 139.089 25.6593 138.869 25.4865C138.649 25.3137 138.39 25.2273 138.091 25.2273C137.708 25.2273 137.411 25.3433 137.2 25.5753C136.989 25.8049 136.884 26.0961 136.884 26.4489V30H136.032V26.2642C136.032 25.9541 135.931 25.7043 135.73 25.5149C135.529 25.3232 135.269 25.2273 134.952 25.2273C134.734 25.2273 134.531 25.2853 134.341 25.4013C134.154 25.5173 134.003 25.6783 133.887 25.8842C133.773 26.0878 133.716 26.3234 133.716 26.5909V30H132.878ZM142.181 30.0568C142.005 30.0568 141.855 29.9941 141.73 29.8686C141.604 29.7431 141.541 29.5928 141.541 29.4176C141.541 29.2424 141.604 29.0921 141.73 28.9666C141.855 28.8411 142.005 28.7784 142.181 28.7784C142.356 28.7784 142.506 28.8411 142.632 28.9666C142.757 29.0921 142.82 29.2424 142.82 29.4176C142.82 29.5336 142.79 29.6402 142.731 29.7372C142.674 29.8343 142.597 29.9124 142.5 29.9716C142.405 30.0284 142.299 30.0568 142.181 30.0568ZM142.181 26.0085C142.005 26.0085 141.855 25.9458 141.73 25.8203C141.604 25.6948 141.541 25.5445 141.541 25.3693C141.541 25.1941 141.604 25.0438 141.73 24.9183C141.855 24.7929 142.005 24.7301 142.181 24.7301C142.356 24.7301 142.506 24.7929 142.632 24.9183C142.757 25.0438 142.82 25.1941 142.82 25.3693C142.82 25.4853 142.79 25.5919 142.731 25.6889C142.674 25.786 142.597 25.8641 142.5 25.9233C142.405 25.9801 142.299 26.0085 142.181 26.0085Z" fill="black"/>
<path d="M147.088 30V29.3608L149.488 26.733C149.77 26.4252 150.002 26.1577 150.184 25.9304C150.367 25.7008 150.502 25.4853 150.589 25.2841C150.679 25.0805 150.724 24.8674 150.724 24.6449C150.724 24.3892 150.663 24.1679 150.54 23.9808C150.419 23.7938 150.253 23.6494 150.042 23.5476C149.832 23.4458 149.595 23.3949 149.332 23.3949C149.053 23.3949 148.809 23.4529 148.601 23.5689C148.395 23.6825 148.235 23.8423 148.121 24.0483C148.01 24.2543 147.954 24.4957 147.954 24.7727H147.116C147.116 24.3466 147.214 23.9725 147.411 23.6506C147.607 23.3286 147.875 23.0777 148.214 22.8977C148.554 22.7178 148.937 22.6278 149.361 22.6278C149.787 22.6278 150.164 22.7178 150.493 22.8977C150.822 23.0777 151.08 23.3203 151.267 23.6257C151.455 23.9311 151.548 24.2708 151.548 24.6449C151.548 24.9124 151.499 25.174 151.402 25.4297C151.308 25.683 151.142 25.9659 150.905 26.2784C150.671 26.5885 150.345 26.9673 149.929 27.4148L148.295 29.1619V29.2188H151.676V30H147.088ZM155.515 30.0994C154.98 30.0994 154.524 29.9538 154.147 29.6626C153.771 29.3691 153.483 28.9441 153.285 28.3878C153.086 27.8291 152.986 27.1544 152.986 26.3636C152.986 25.5777 153.086 24.9065 153.285 24.3501C153.486 23.7914 153.775 23.3653 154.151 23.0717C154.53 22.7758 154.984 22.6278 155.515 22.6278C156.045 22.6278 156.498 22.7758 156.875 23.0717C157.254 23.3653 157.542 23.7914 157.741 24.3501C157.942 24.9065 158.043 25.5777 158.043 26.3636C158.043 27.1544 157.944 27.8291 157.745 28.3878C157.546 28.9441 157.258 29.3691 156.882 29.6626C156.505 29.9538 156.05 30.0994 155.515 30.0994ZM155.515 29.3182C156.045 29.3182 156.457 29.0625 156.75 28.5511C157.044 28.0398 157.191 27.3106 157.191 26.3636C157.191 25.7339 157.123 25.1977 156.988 24.755C156.856 24.3123 156.664 23.9749 156.413 23.7429C156.165 23.5109 155.865 23.3949 155.515 23.3949C154.989 23.3949 154.578 23.6541 154.282 24.1726C153.986 24.6887 153.839 25.419 153.839 26.3636C153.839 26.9934 153.905 27.5284 154.037 27.9688C154.17 28.4091 154.361 28.7441 154.609 28.9737C154.86 29.2034 155.162 29.3182 155.515 29.3182ZM161.765 30.0994C161.23 30.0994 160.774 29.9538 160.397 29.6626C160.021 29.3691 159.733 28.9441 159.535 28.3878C159.336 27.8291 159.236 27.1544 159.236 26.3636C159.236 25.5777 159.336 24.9065 159.535 24.3501C159.736 23.7914 160.025 23.3653 160.401 23.0717C160.78 22.7758 161.234 22.6278 161.765 22.6278C162.295 22.6278 162.748 22.7758 163.125 23.0717C163.504 23.3653 163.792 23.7914 163.991 24.3501C164.192 24.9065 164.293 25.5777 164.293 26.3636C164.293 27.1544 164.194 27.8291 163.995 28.3878C163.796 28.9441 163.508 29.3691 163.132 29.6626C162.755 29.9538 162.3 30.0994 161.765 30.0994ZM161.765 29.3182C162.295 29.3182 162.707 29.0625 163 28.5511C163.294 28.0398 163.441 27.3106 163.441 26.3636C163.441 25.7339 163.373 25.1977 163.238 24.755C163.106 24.3123 162.914 23.9749 162.663 23.7429C162.415 23.5109 162.115 23.3949 161.765 23.3949C161.239 23.3949 160.828 23.6541 160.532 24.1726C160.236 24.6887 160.089 25.419 160.089 26.3636C160.089 26.9934 160.155 27.5284 160.287 27.9688C160.42 28.4091 160.611 28.7441 160.859 28.9737C161.11 29.2034 161.412 29.3182 161.765 29.3182ZM168.199 22.7273V30H167.319V23.6506H167.276L165.5 24.8295V23.9347L167.319 22.7273H168.199Z" fill="black"/>
<path d="M134.401 36.5455V37.2557H131.574V36.5455H134.401ZM132.398 35.2386H133.236V40.4375C133.236 40.6742 133.27 40.8518 133.339 40.9702C133.41 41.0862 133.5 41.1643 133.609 41.2045C133.72 41.2424 133.837 41.2614 133.961 41.2614C134.053 41.2614 134.129 41.2566 134.188 41.2472C134.247 41.2353 134.294 41.2259 134.33 41.2188L134.5 41.9716C134.444 41.9929 134.364 42.0142 134.262 42.0355C134.161 42.0592 134.032 42.071 133.875 42.071C133.639 42.071 133.407 42.0201 133.179 41.9183C132.954 41.8165 132.767 41.6615 132.618 41.4531C132.471 41.2448 132.398 40.982 132.398 40.6648V35.2386ZM137.819 42.1136C137.326 42.1136 136.894 41.9964 136.523 41.7621C136.153 41.5277 135.865 41.1998 135.656 40.7784C135.45 40.357 135.347 39.8646 135.347 39.3011C135.347 38.733 135.45 38.237 135.656 37.8132C135.865 37.3894 136.153 37.0604 136.523 36.826C136.894 36.5916 137.326 36.4744 137.819 36.4744C138.311 36.4744 138.742 36.5916 139.112 36.826C139.483 37.0604 139.772 37.3894 139.978 37.8132C140.186 38.237 140.29 38.733 140.29 39.3011C140.29 39.8646 140.186 40.357 139.978 40.7784C139.772 41.1998 139.483 41.5277 139.112 41.7621C138.742 41.9964 138.311 42.1136 137.819 42.1136ZM137.819 41.3608C138.193 41.3608 138.501 41.2649 138.742 41.0732C138.984 40.8814 139.162 40.6293 139.278 40.3168C139.394 40.0043 139.452 39.6657 139.452 39.3011C139.452 38.9366 139.394 38.5968 139.278 38.282C139.162 37.9671 138.984 37.7126 138.742 37.5185C138.501 37.3243 138.193 37.2273 137.819 37.2273C137.445 37.2273 137.137 37.3243 136.896 37.5185C136.654 37.7126 136.475 37.9671 136.359 38.282C136.243 38.5968 136.185 38.9366 136.185 39.3011C136.185 39.6657 136.243 40.0043 136.359 40.3168C136.475 40.6293 136.654 40.8814 136.896 41.0732C137.137 41.2649 137.445 41.3608 137.819 41.3608ZM142.181 42.0568C142.005 42.0568 141.855 41.9941 141.73 41.8686C141.604 41.7431 141.541 41.5928 141.541 41.4176C141.541 41.2424 141.604 41.0921 141.73 40.9666C141.855 40.8411 142.005 40.7784 142.181 40.7784C142.356 40.7784 142.506 40.8411 142.632 40.9666C142.757 41.0921 142.82 41.2424 142.82 41.4176C142.82 41.5336 142.79 41.6402 142.731 41.7372C142.674 41.8343 142.597 41.9124 142.5 41.9716C142.405 42.0284 142.299 42.0568 142.181 42.0568ZM142.181 38.0085C142.005 38.0085 141.855 37.9458 141.73 37.8203C141.604 37.6948 141.541 37.5445 141.541 37.3693C141.541 37.1941 141.604 37.0438 141.73 36.9183C141.855 36.7929 142.005 36.7301 142.181 36.7301C142.356 36.7301 142.506 36.7929 142.632 36.9183C142.757 37.0438 142.82 37.1941 142.82 37.3693C142.82 37.4853 142.79 37.5919 142.731 37.6889C142.674 37.786 142.597 37.8641 142.5 37.9233C142.405 37.9801 142.299 38.0085 142.181 38.0085Z" fill="black"/>
<path d="M147.088 42V41.3608L149.488 38.733C149.77 38.4252 150.002 38.1577 150.184 37.9304C150.367 37.7008 150.502 37.4853 150.589 37.2841C150.679 37.0805 150.724 36.8674 150.724 36.6449C150.724 36.3892 150.663 36.1679 150.54 35.9808C150.419 35.7938 150.253 35.6494 150.042 35.5476C149.832 35.4458 149.595 35.3949 149.332 35.3949C149.053 35.3949 148.809 35.4529 148.601 35.5689C148.395 35.6825 148.235 35.8423 148.121 36.0483C148.01 36.2543 147.954 36.4957 147.954 36.7727H147.116C147.116 36.3466 147.214 35.9725 147.411 35.6506C147.607 35.3286 147.875 35.0777 148.214 34.8977C148.554 34.7178 148.937 34.6278 149.361 34.6278C149.787 34.6278 150.164 34.7178 150.493 34.8977C150.822 35.0777 151.08 35.3203 151.267 35.6257C151.455 35.9311 151.548 36.2708 151.548 36.6449C151.548 36.9124 151.499 37.174 151.402 37.4297C151.308 37.683 151.142 37.9659 150.905 38.2784C150.671 38.5885 150.345 38.9673 149.929 39.4148L148.295 41.1619V41.2188H151.676V42H147.088ZM155.515 42.0994C154.98 42.0994 154.524 41.9538 154.147 41.6626C153.771 41.3691 153.483 40.9441 153.285 40.3878C153.086 39.8291 152.986 39.1544 152.986 38.3636C152.986 37.5777 153.086 36.9065 153.285 36.3501C153.486 35.7914 153.775 35.3653 154.151 35.0717C154.53 34.7758 154.984 34.6278 155.515 34.6278C156.045 34.6278 156.498 34.7758 156.875 35.0717C157.254 35.3653 157.542 35.7914 157.741 36.3501C157.942 36.9065 158.043 37.5777 158.043 38.3636C158.043 39.1544 157.944 39.8291 157.745 40.3878C157.546 40.9441 157.258 41.3691 156.882 41.6626C156.505 41.9538 156.05 42.0994 155.515 42.0994ZM155.515 41.3182C156.045 41.3182 156.457 41.0625 156.75 40.5511C157.044 40.0398 157.191 39.3106 157.191 38.3636C157.191 37.7339 157.123 37.1977 156.988 36.755C156.856 36.3123 156.664 35.9749 156.413 35.7429C156.165 35.5109 155.865 35.3949 155.515 35.3949C154.989 35.3949 154.578 35.6541 154.282 36.1726C153.986 36.6887 153.839 37.419 153.839 38.3636C153.839 38.9934 153.905 39.5284 154.037 39.9688C154.17 40.4091 154.361 40.7441 154.609 40.9737C154.86 41.2034 155.162 41.3182 155.515 41.3182ZM161.765 42.0994C161.23 42.0994 160.774 41.9538 160.397 41.6626C160.021 41.3691 159.733 40.9441 159.535 40.3878C159.336 39.8291 159.236 39.1544 159.236 38.3636C159.236 37.5777 159.336 36.9065 159.535 36.3501C159.736 35.7914 160.025 35.3653 160.401 35.0717C160.78 34.7758 161.234 34.6278 161.765 34.6278C162.295 34.6278 162.748 34.7758 163.125 35.0717C163.504 35.3653 163.792 35.7914 163.991 36.3501C164.192 36.9065 164.293 37.5777 164.293 38.3636C164.293 39.1544 164.194 39.8291 163.995 40.3878C163.796 40.9441 163.508 41.3691 163.132 41.6626C162.755 41.9538 162.3 42.0994 161.765 42.0994ZM161.765 41.3182C162.295 41.3182 162.707 41.0625 163 40.5511C163.294 40.0398 163.441 39.3106 163.441 38.3636C163.441 37.7339 163.373 37.1977 163.238 36.755C163.106 36.3123 162.914 35.9749 162.663 35.7429C162.415 35.5109 162.115 35.3949 161.765 35.3949C161.239 35.3949 160.828 35.6541 160.532 36.1726C160.236 36.6887 160.089 37.419 160.089 38.3636C160.089 38.9934 160.155 39.5284 160.287 39.9688C160.42 40.4091 160.611 40.7441 160.859 40.9737C161.11 41.2034 161.412 41.3182 161.765 41.3182ZM167.915 42.0994C167.499 42.0994 167.123 42.0166 166.79 41.8509C166.456 41.6851 166.188 41.4579 165.987 41.169C165.786 40.8802 165.676 40.5511 165.657 40.1818H166.509C166.542 40.5109 166.691 40.7831 166.956 40.9986C167.224 41.2116 167.544 41.3182 167.915 41.3182C168.214 41.3182 168.479 41.2483 168.711 41.1087C168.945 40.969 169.129 40.7772 169.261 40.5334C169.396 40.2872 169.464 40.009 169.464 39.6989C169.464 39.3816 169.394 39.0987 169.254 38.8501C169.117 38.5992 168.927 38.4015 168.686 38.2571C168.444 38.1127 168.169 38.0393 167.858 38.0369C167.636 38.0346 167.407 38.0689 167.173 38.1399C166.939 38.2086 166.746 38.2973 166.594 38.4062L165.77 38.3068L166.211 34.7273H169.989V35.5085H166.949L166.694 37.6534H166.736C166.885 37.535 167.072 37.4368 167.297 37.3587C167.522 37.2805 167.757 37.2415 168 37.2415C168.446 37.2415 168.842 37.348 169.19 37.5611C169.54 37.7718 169.815 38.0606 170.014 38.4276C170.215 38.7945 170.316 39.2135 170.316 39.6847C170.316 40.1487 170.212 40.563 170.003 40.9276C169.797 41.2898 169.513 41.5762 169.151 41.7869C168.789 41.9953 168.377 42.0994 167.915 42.0994Z" fill="black"/>
<path d="M173.603 70H111C109.895 70 109 70.8954 109 72V82C109 83.1046 109.895 84 111 84H173.603C174.707 84 175.603 83.1046 175.603 82V72C175.603 70.8954 174.707 70 173.603 70Z" fill="white"/>
<path d="M124.761 74.5129V81.7856H123.881V74.5129H124.761ZM132.294 74.5129V81.7856H131.442L127.479 76.0754H127.408V81.7856H126.527V74.5129H127.379L131.357 80.2373H131.428V74.5129H132.294ZM138.049 81.7856V82.5669H133.503V81.7856H138.049ZM138.92 81.7856V74.5129H141.377C141.945 74.5129 142.412 74.61 142.776 74.8041C143.141 74.9959 143.411 75.2598 143.586 75.596C143.761 75.9322 143.849 76.3145 143.849 76.743C143.849 77.1715 143.761 77.5515 143.586 77.8829C143.411 78.2144 143.142 78.4748 142.78 78.6642C142.418 78.8512 141.955 78.9447 141.391 78.9447H139.403V78.1493H141.363C141.751 78.1493 142.064 78.0925 142.3 77.9788C142.54 77.8652 142.712 77.7042 142.819 77.4959C142.928 77.2852 142.982 77.0342 142.982 76.743C142.982 76.4518 142.928 76.1973 142.819 75.9795C142.71 75.7617 142.536 75.5936 142.297 75.4753C142.058 75.3545 141.742 75.2942 141.349 75.2942H139.8V81.7856H138.92ZM142.343 78.5186L144.133 81.7856H143.11L141.349 78.5186H142.343ZM151.453 78.1493C151.453 78.9163 151.314 79.5792 151.037 80.1379C150.76 80.6966 150.38 81.1275 149.897 81.4305C149.414 81.7336 148.863 81.8851 148.242 81.8851C147.622 81.8851 147.07 81.7336 146.588 81.4305C146.105 81.1275 145.725 80.6966 145.448 80.1379C145.171 79.5792 145.032 78.9163 145.032 78.1493C145.032 77.3822 145.171 76.7194 145.448 76.1606C145.725 75.6019 146.105 75.1711 146.588 74.868C147.07 74.565 147.622 74.4135 148.242 74.4135C148.863 74.4135 149.414 74.565 149.897 74.868C150.38 75.1711 150.76 75.6019 151.037 76.1606C151.314 76.7194 151.453 77.3822 151.453 78.1493ZM150.6 78.1493C150.6 77.5195 150.495 76.9881 150.284 76.5548C150.076 76.1216 149.793 75.7937 149.436 75.5712C149.08 75.3486 148.683 75.2373 148.242 75.2373C147.802 75.2373 147.403 75.3486 147.046 75.5712C146.691 75.7937 146.408 76.1216 146.197 76.5548C145.989 76.9881 145.884 77.5195 145.884 78.1493C145.884 78.779 145.989 79.3105 146.197 79.7437C146.408 80.177 146.691 80.5049 147.046 80.7274C147.403 80.9499 147.802 81.0612 148.242 81.0612C148.683 81.0612 149.08 80.9499 149.436 80.7274C149.793 80.5049 150.076 80.177 150.284 79.7437C150.495 79.3105 150.6 78.779 150.6 78.1493ZM152.933 81.7856V74.5129H153.814V81.0044H157.195V81.7856H152.933ZM158.558 81.7856V74.5129H162.948V75.2942H159.439V77.7516H162.72V78.5328H159.439V81.0044H163.004V81.7856H158.558Z" fill="black"/>
<path d="M30.6895 53C45.0489 53 56.6895 41.3594 56.6895 27C56.6895 12.6406 45.0489 1 30.6895 1C16.33 1 4.68945 12.6406 4.68945 27C4.68945 41.3594 16.33 53 30.6895 53Z" fill="#4C8EDA" stroke="#2870C2" stroke-width="2"/>
<path d="M43.6126 20.8818H17.7662C14.3873 20.8818 11.6482 23.621 11.6482 26.9999C11.6482 30.3788 14.3873 33.1179 17.7662 33.1179H43.6126C46.9916 33.1179 49.7307 30.3788 49.7307 26.9999C49.7307 23.621 46.9916 20.8818 43.6126 20.8818Z" fill="white" stroke="black" stroke-width="0.815741"/>
<path d="M18.4846 29.1147V23.1821H20.4892C20.9547 23.1821 21.3351 23.2661 21.6306 23.4341C21.928 23.6002 22.1481 23.8252 22.291 24.1091C22.434 24.393 22.5054 24.7097 22.5054 25.0592C22.5054 25.4088 22.434 25.7264 22.291 26.0123C22.1501 26.2981 21.9318 26.526 21.6364 26.6959C21.3409 26.8639 20.9624 26.9479 20.5008 26.9479H19.064V26.3106H20.4776C20.7963 26.3106 21.0522 26.2556 21.2453 26.1455C21.4384 26.0354 21.5784 25.8867 21.6653 25.6994C21.7542 25.5102 21.7986 25.2968 21.7986 25.0592C21.7986 24.8217 21.7542 24.6092 21.6653 24.4219C21.5784 24.2346 21.4375 24.0878 21.2424 23.9816C21.0474 23.8735 20.7886 23.8194 20.4661 23.8194H19.2031V29.1147H18.4846ZM25.3877 29.2074C24.959 29.2074 24.5892 29.1128 24.2783 28.9236C23.9693 28.7324 23.7308 28.4659 23.5627 28.124C23.3967 27.7803 23.3136 27.3805 23.3136 26.9248C23.3136 26.469 23.3967 26.0673 23.5627 25.7197C23.7308 25.3701 23.9644 25.0978 24.2638 24.9028C24.565 24.7058 24.9165 24.6073 25.3182 24.6073C25.55 24.6073 25.7788 24.6459 26.0048 24.7232C26.2307 24.8004 26.4364 24.926 26.6218 25.0998C26.8072 25.2716 26.9549 25.4995 27.065 25.7834C27.1751 26.0673 27.2301 26.4169 27.2301 26.8321V27.1217H23.8003V26.5308H26.5349C26.5349 26.2797 26.4847 26.0557 26.3842 25.8587C26.2857 25.6618 26.1448 25.5063 25.9613 25.3923C25.7798 25.2784 25.5654 25.2214 25.3182 25.2214C25.0459 25.2214 24.8103 25.289 24.6114 25.4242C24.4144 25.5575 24.2628 25.7313 24.1566 25.9456C24.0504 26.16 23.9973 26.3898 23.9973 26.6351V27.029C23.9973 27.3651 24.0552 27.6499 24.1711 27.8836C24.2889 28.1153 24.4521 28.2921 24.6606 28.4137C24.8692 28.5335 25.1116 28.5933 25.3877 28.5933C25.5673 28.5933 25.7296 28.5682 25.8744 28.518C26.0212 28.4659 26.1477 28.3886 26.2539 28.2863C26.3601 28.182 26.4422 28.0526 26.5001 27.8981L27.1606 28.0835C27.0911 28.3075 26.9742 28.5045 26.8101 28.6744C26.6459 28.8424 26.4431 28.9738 26.2017 29.0684C25.9603 29.1611 25.689 29.2074 25.3877 29.2074ZM28.2701 29.1147V24.6653H28.9305V25.3373H28.9769C29.058 25.1172 29.2048 24.9385 29.4172 24.8014C29.6296 24.6643 29.8691 24.5957 30.1356 24.5957C30.1858 24.5957 30.2486 24.5967 30.3239 24.5986C30.3992 24.6006 30.4562 24.6035 30.4948 24.6073V25.3025C30.4716 25.2968 30.4185 25.2881 30.3355 25.2765C30.2544 25.263 30.1684 25.2562 30.0777 25.2562C29.8614 25.2562 29.6682 25.3016 29.4983 25.3923C29.3303 25.4812 29.197 25.6048 29.0985 25.7631C29.002 25.9196 28.9537 26.0982 28.9537 26.299V29.1147H28.2701ZM34.4569 25.6618L33.8428 25.8356C33.8042 25.7332 33.7472 25.6337 33.6719 25.5372C33.5985 25.4387 33.4981 25.3576 33.3706 25.2939C33.2431 25.2301 33.08 25.1983 32.881 25.1983C32.6087 25.1983 32.3818 25.261 32.2003 25.3866C32.0207 25.5102 31.9309 25.6675 31.9309 25.8587C31.9309 26.0287 31.9927 26.1629 32.1163 26.2614C32.2399 26.3599 32.433 26.442 32.6957 26.5076L33.3561 26.6698C33.754 26.7664 34.0504 26.9141 34.2454 27.1131C34.4405 27.31 34.538 27.564 34.538 27.8749C34.538 28.1298 34.4646 28.3577 34.3179 28.5586C34.173 28.7594 33.9702 28.9178 33.7095 29.0336C33.4488 29.1495 33.1456 29.2074 32.7999 29.2074C32.3461 29.2074 31.9705 29.109 31.6731 28.912C31.3757 28.715 31.1874 28.4272 31.1082 28.0487L31.7571 27.8865C31.8189 28.126 31.9357 28.3056 32.1076 28.4253C32.2814 28.545 32.5083 28.6049 32.7884 28.6049C33.107 28.6049 33.36 28.5373 33.5473 28.4021C33.7366 28.265 33.8312 28.1009 33.8312 27.9097C33.8312 27.7552 33.7771 27.6258 33.669 27.5215C33.5608 27.4153 33.3947 27.3361 33.1707 27.284L32.4291 27.1102C32.0217 27.0136 31.7223 26.8639 31.5311 26.6612C31.3419 26.4564 31.2472 26.2006 31.2472 25.8935C31.2472 25.6424 31.3177 25.4204 31.4587 25.2272C31.6016 25.0341 31.7957 24.8825 32.041 24.7724C32.2882 24.6624 32.5682 24.6073 32.881 24.6073C33.3214 24.6073 33.667 24.7039 33.9181 24.897C34.1711 25.0901 34.3507 25.345 34.4569 25.6618ZM37.3747 29.2074C36.973 29.2074 36.6206 29.1118 36.3174 28.9207C36.0161 28.7295 35.7805 28.462 35.6106 28.1182C35.4426 27.7745 35.3585 27.3728 35.3585 26.9132C35.3585 26.4497 35.4426 26.0451 35.6106 25.6994C35.7805 25.3537 36.0161 25.0853 36.3174 24.8941C36.6206 24.7029 36.973 24.6073 37.3747 24.6073C37.7764 24.6073 38.1279 24.7029 38.4292 24.8941C38.7324 25.0853 38.968 25.3537 39.136 25.6994C39.3059 26.0451 39.3909 26.4497 39.3909 26.9132C39.3909 27.3728 39.3059 27.7745 39.136 28.1182C38.968 28.462 38.7324 28.7295 38.4292 28.9207C38.1279 29.1118 37.7764 29.2074 37.3747 29.2074ZM37.3747 28.5933C37.6799 28.5933 37.9309 28.5151 38.1279 28.3587C38.3249 28.2023 38.4707 27.9966 38.5653 27.7417C38.6599 27.4867 38.7073 27.2106 38.7073 26.9132C38.7073 26.6158 38.6599 26.3386 38.5653 26.0818C38.4707 25.8249 38.3249 25.6173 38.1279 25.459C37.9309 25.3006 37.6799 25.2214 37.3747 25.2214C37.0696 25.2214 36.8185 25.3006 36.6216 25.459C36.4246 25.6173 36.2788 25.8249 36.1841 26.0818C36.0895 26.3386 36.0422 26.6158 36.0422 26.9132C36.0422 27.2106 36.0895 27.4867 36.1841 27.7417C36.2788 27.9966 36.4246 28.2023 36.6216 28.3587C36.8185 28.5151 37.0696 28.5933 37.3747 28.5933ZM41.1181 26.4381V29.1147H40.4345V24.6653H41.0949V25.3605H41.1529C41.2572 25.1345 41.4155 24.953 41.628 24.8159C41.8404 24.6768 42.1146 24.6073 42.4506 24.6073C42.7519 24.6073 43.0155 24.6691 43.2415 24.7927C43.4674 24.9144 43.6432 25.0998 43.7687 25.3489C43.8942 25.5961 43.957 25.9089 43.957 26.2875V29.1147H43.2733V26.3338C43.2733 25.9843 43.1826 25.712 43.001 25.5169C42.8195 25.3199 42.5704 25.2214 42.2537 25.2214C42.0354 25.2214 41.8404 25.2688 41.6685 25.3634C41.4986 25.458 41.3643 25.5961 41.2659 25.7776C41.1674 25.9592 41.1181 26.1793 41.1181 26.4381Z" fill="black"/>
<path d="M66.6895 56.2144H0V68.2144H66.6895V56.2144Z" fill="white"/>
<path d="M3.4264 61.7188V65H2.58833V59.5455H3.39799V60.3977H3.46902C3.59686 60.1207 3.79099 59.8982 4.0514 59.7301C4.31182 59.5597 4.64799 59.4744 5.05993 59.4744C5.42924 59.4744 5.7524 59.5502 6.02939 59.7017C6.30637 59.8509 6.52181 60.0781 6.67569 60.3835C6.82958 60.6866 6.90652 61.0701 6.90652 61.5341V65H6.06845V61.5909C6.06845 61.1624 5.95718 60.8286 5.73464 60.5895C5.5121 60.348 5.20671 60.2273 4.81845 60.2273C4.55093 60.2273 4.31182 60.2853 4.10112 60.4013C3.89279 60.5173 3.72825 60.6866 3.60751 60.9091C3.48677 61.1316 3.4264 61.4015 3.4264 61.7188ZM10.0431 65.1278C9.69741 65.1278 9.38373 65.0627 9.10201 64.9325C8.82028 64.8 8.59656 64.6094 8.43084 64.3608C8.26512 64.1098 8.18226 63.8068 8.18226 63.4517C8.18226 63.1392 8.24382 62.8859 8.36692 62.6918C8.49003 62.4953 8.65456 62.3414 8.86053 62.2301C9.0665 62.1188 9.29377 62.036 9.54235 61.9815C9.79329 61.9247 10.0454 61.8797 10.2987 61.8466C10.6302 61.804 10.8989 61.772 11.1048 61.7507C11.3132 61.727 11.4647 61.688 11.5594 61.6335C11.6565 61.5791 11.705 61.4844 11.705 61.3494V61.321C11.705 60.9706 11.6091 60.6984 11.4173 60.5043C11.228 60.3101 10.9403 60.2131 10.5544 60.2131C10.1543 60.2131 9.84064 60.3007 9.61337 60.4759C9.3861 60.651 9.2263 60.8381 9.13397 61.0369L8.33851 60.7528C8.48056 60.4214 8.66995 60.1634 8.90669 59.9787C9.1458 59.7917 9.40622 59.6615 9.68794 59.5881C9.97203 59.5123 10.2514 59.4744 10.526 59.4744C10.7012 59.4744 10.9024 59.4957 11.1297 59.5384C11.3593 59.5786 11.5807 59.6626 11.7938 59.7905C12.0092 59.9183 12.1879 60.1113 12.33 60.3693C12.472 60.6274 12.5431 60.973 12.5431 61.4062V65H11.705V64.2614H11.6624C11.6056 64.3797 11.5109 64.5064 11.3783 64.6413C11.2457 64.7763 11.0693 64.8911 10.8492 64.9858C10.629 65.0805 10.3603 65.1278 10.0431 65.1278ZM10.1709 64.375C10.5023 64.375 10.7817 64.3099 11.009 64.1797C11.2386 64.0495 11.4114 63.8814 11.5274 63.6754C11.6458 63.4695 11.705 63.2528 11.705 63.0256V62.2585C11.6695 62.3011 11.5914 62.3402 11.4706 62.3757C11.3522 62.4089 11.2149 62.4384 11.0587 62.4645C10.9048 62.4882 10.7545 62.5095 10.6077 62.5284C10.4633 62.545 10.3461 62.5592 10.2561 62.571C10.0383 62.5994 9.83472 62.6456 9.64533 62.7095C9.4583 62.7711 9.30679 62.8646 9.19078 62.9901C9.07715 63.1132 9.02033 63.2812 9.02033 63.4943C9.02033 63.7855 9.12805 64.0057 9.34348 64.1548C9.56129 64.3016 9.83709 64.375 10.1709 64.375ZM14.0727 65V59.5455H14.8824V60.3977H14.9534C15.067 60.1065 15.2505 59.8804 15.5038 59.7195C15.7571 59.5561 16.0613 59.4744 16.4165 59.4744C16.7763 59.4744 17.0758 59.5561 17.3149 59.7195C17.5564 59.8804 17.7446 60.1065 17.8795 60.3977H17.9363C18.076 60.116 18.2855 59.8923 18.5649 59.7266C18.8443 59.5585 19.1792 59.4744 19.5699 59.4744C20.0576 59.4744 20.4565 59.6271 20.7666 59.9325C21.0767 60.2356 21.2318 60.7079 21.2318 61.3494V65H20.3937V61.3494C20.3937 60.947 20.2836 60.6593 20.0635 60.4865C19.8433 60.3137 19.5841 60.2273 19.2858 60.2273C18.9023 60.2273 18.6051 60.3433 18.3944 60.5753C18.1837 60.8049 18.0784 61.0961 18.0784 61.4489V65H17.2261V61.2642C17.2261 60.9541 17.1255 60.7043 16.9243 60.5149C16.723 60.3232 16.4638 60.2273 16.1466 60.2273C15.9288 60.2273 15.7252 60.2853 15.5358 60.4013C15.3488 60.5173 15.1972 60.6783 15.0812 60.8842C14.9676 61.0878 14.9108 61.3234 14.9108 61.5909V65H14.0727ZM25.051 65.1136C24.5255 65.1136 24.0721 64.9976 23.691 64.7656C23.3122 64.5312 23.0198 64.2045 22.8138 63.7855C22.6102 63.3641 22.5084 62.8741 22.5084 62.3153C22.5084 61.7566 22.6102 61.2642 22.8138 60.8381C23.0198 60.4096 23.3063 60.0758 23.6732 59.8366C24.0425 59.5952 24.4734 59.4744 24.9658 59.4744C25.2499 59.4744 25.5305 59.5218 25.8074 59.6165C26.0844 59.7112 26.3366 59.8651 26.5638 60.0781C26.7911 60.2888 26.9722 60.5682 27.1072 60.9162C27.2421 61.2642 27.3096 61.6927 27.3096 62.2017V62.5568H23.105V61.8324H26.4573C26.4573 61.5246 26.3957 61.25 26.2726 61.0085C26.1519 60.767 25.9791 60.5765 25.7542 60.4368C25.5316 60.2971 25.2689 60.2273 24.9658 60.2273C24.632 60.2273 24.3432 60.3101 24.0993 60.4759C23.8579 60.6392 23.672 60.8523 23.5418 61.1151C23.4116 61.3778 23.3465 61.6596 23.3465 61.9602V62.4432C23.3465 62.8551 23.4175 63.2043 23.5596 63.4908C23.704 63.7749 23.904 63.9915 24.1597 64.1406C24.4154 64.2874 24.7125 64.3608 25.051 64.3608C25.2712 64.3608 25.4701 64.33 25.6476 64.2685C25.8276 64.2045 25.9826 64.1098 26.1128 63.9844C26.243 63.8565 26.3437 63.6979 26.4147 63.5085L27.2243 63.7358C27.1391 64.0104 26.9959 64.2519 26.7947 64.4602C26.5934 64.6662 26.3448 64.8272 26.0489 64.9432C25.753 65.0568 25.4204 65.1136 25.051 65.1136ZM29.1952 65.0568C29.02 65.0568 28.8697 64.9941 28.7442 64.8686C28.6188 64.7431 28.556 64.5928 28.556 64.4176C28.556 64.2424 28.6188 64.0921 28.7442 63.9666C28.8697 63.8411 29.02 63.7784 29.1952 63.7784C29.3704 63.7784 29.5207 63.8411 29.6462 63.9666C29.7717 64.0921 29.8344 64.2424 29.8344 64.4176C29.8344 64.5336 29.8048 64.6402 29.7456 64.7372C29.6888 64.8343 29.6119 64.9124 29.5148 64.9716C29.4201 65.0284 29.3136 65.0568 29.1952 65.0568ZM29.1952 61.0085C29.02 61.0085 28.8697 60.9458 28.7442 60.8203C28.6188 60.6948 28.556 60.5445 28.556 60.3693C28.556 60.1941 28.6188 60.0438 28.7442 59.9183C28.8697 59.7929 29.02 59.7301 29.1952 59.7301C29.3704 59.7301 29.5207 59.7929 29.6462 59.9183C29.7717 60.0438 29.8344 60.1941 29.8344 60.3693C29.8344 60.4853 29.8048 60.5919 29.7456 60.6889C29.6888 60.786 29.6119 60.8641 29.5148 60.9233C29.4201 60.9801 29.3136 61.0085 29.1952 61.0085Z" fill="black"/>
<path d="M34.2303 65V57.7273H36.6877C37.2582 57.7273 37.7246 57.8303 38.0868 58.0362C38.4514 58.2398 38.7213 58.5156 38.8965 58.8636C39.0717 59.2116 39.1593 59.5999 39.1593 60.0284C39.1593 60.4569 39.0717 60.8464 38.8965 61.1967C38.7237 61.5471 38.4561 61.8265 38.0939 62.0348C37.7317 62.2408 37.2677 62.3438 36.7019 62.3438H34.9405V61.5625H36.6735C37.0641 61.5625 37.3778 61.495 37.6145 61.3601C37.8513 61.2251 38.0229 61.0429 38.1294 60.8132C38.2383 60.5812 38.2928 60.3196 38.2928 60.0284C38.2928 59.7372 38.2383 59.4768 38.1294 59.2472C38.0229 59.0175 37.8501 58.8376 37.611 58.7074C37.3719 58.5748 37.0546 58.5085 36.6593 58.5085H35.111V65H34.2303ZM42.0694 65.1278C41.7238 65.1278 41.4101 65.0627 41.1284 64.9325C40.8467 64.8 40.6229 64.6094 40.4572 64.3608C40.2915 64.1098 40.2086 63.8068 40.2086 63.4517C40.2086 63.1392 40.2702 62.8859 40.3933 62.6918C40.5164 62.4953 40.6809 62.3414 40.8869 62.2301C41.0929 62.1188 41.3201 62.036 41.5687 61.9815C41.8197 61.9247 42.0718 61.8797 42.3251 61.8466C42.6565 61.804 42.9252 61.772 43.1312 61.7507C43.3395 61.727 43.4911 61.688 43.5858 61.6335C43.6828 61.5791 43.7314 61.4844 43.7314 61.3494V61.321C43.7314 60.9706 43.6355 60.6984 43.4437 60.5043C43.2543 60.3101 42.9667 60.2131 42.5808 60.2131C42.1807 60.2131 41.867 60.3007 41.6397 60.4759C41.4125 60.651 41.2527 60.8381 41.1603 61.0369L40.3649 60.7528C40.5069 60.4214 40.6963 60.1634 40.9331 59.9787C41.1722 59.7917 41.4326 59.6615 41.7143 59.5881C41.9984 59.5123 42.2778 59.4744 42.5524 59.4744C42.7276 59.4744 42.9288 59.4957 43.1561 59.5384C43.3857 59.5786 43.6071 59.6626 43.8201 59.7905C44.0356 59.9183 44.2143 60.1113 44.3564 60.3693C44.4984 60.6274 44.5694 60.973 44.5694 61.4062V65H43.7314V64.2614H43.6887C43.6319 64.3797 43.5372 64.5064 43.4047 64.6413C43.2721 64.7763 43.0957 64.8911 42.8755 64.9858C42.6554 65.0805 42.3867 65.1278 42.0694 65.1278ZM42.1973 64.375C42.5287 64.375 42.8081 64.3099 43.0353 64.1797C43.265 64.0495 43.4378 63.8814 43.5538 63.6754C43.6722 63.4695 43.7314 63.2528 43.7314 63.0256V62.2585C43.6958 62.3011 43.6177 62.3402 43.497 62.3757C43.3786 62.4089 43.2413 62.4384 43.085 62.4645C42.9312 62.4882 42.7808 62.5095 42.6341 62.5284C42.4896 62.545 42.3725 62.5592 42.2825 62.571C42.0647 62.5994 41.8611 62.6456 41.6717 62.7095C41.4847 62.7711 41.3332 62.8646 41.2172 62.9901C41.1035 63.1132 41.0467 63.2812 41.0467 63.4943C41.0467 63.7855 41.1544 64.0057 41.3699 64.1548C41.5877 64.3016 41.8635 64.375 42.1973 64.375ZM48.4712 59.5455V60.2557H45.6445V59.5455H48.4712ZM46.4684 58.2386H47.3065V63.4375C47.3065 63.6742 47.3408 63.8518 47.4094 63.9702C47.4805 64.0862 47.5704 64.1643 47.6793 64.2045C47.7906 64.2424 47.9078 64.2614 48.0309 64.2614C48.1232 64.2614 48.199 64.2566 48.2582 64.2472C48.3174 64.2353 48.3647 64.2259 48.4002 64.2188L48.5707 64.9716C48.5138 64.9929 48.4345 65.0142 48.3327 65.0355C48.2309 65.0592 48.1019 65.071 47.9457 65.071C47.7089 65.071 47.4769 65.0201 47.2496 64.9183C47.0247 64.8165 46.8377 64.6615 46.6886 64.4531C46.5418 64.2448 46.4684 63.982 46.4684 63.6648V58.2386ZM49.7319 65V59.5455H50.5415V60.3693H50.5984C50.6978 60.0994 50.8777 59.8804 51.1381 59.7124C51.3986 59.5443 51.6921 59.4602 52.0188 59.4602C52.0804 59.4602 52.1573 59.4614 52.2496 59.4638C52.342 59.4661 52.4118 59.4697 52.4592 59.4744V60.3267C52.4308 60.3196 52.3656 60.3089 52.2638 60.2947C52.1644 60.2782 52.0591 60.2699 51.9478 60.2699C51.6826 60.2699 51.4459 60.3255 51.2376 60.4368C51.0316 60.5457 50.8683 60.6972 50.7475 60.8913C50.6291 61.0831 50.57 61.3021 50.57 61.5483V65H49.7319ZM53.4526 65V59.5455H54.2907V65H53.4526ZM53.8787 58.6364C53.7154 58.6364 53.5745 58.5807 53.4561 58.4695C53.3401 58.3582 53.2821 58.2244 53.2821 58.0682C53.2821 57.9119 53.3401 57.7782 53.4561 57.6669C53.5745 57.5556 53.7154 57.5 53.8787 57.5C54.0421 57.5 54.1818 57.5556 54.2978 57.6669C54.4161 57.7782 54.4753 57.9119 54.4753 58.0682C54.4753 58.2244 54.4161 58.3582 54.2978 58.4695C54.1818 58.5807 54.0421 58.6364 53.8787 58.6364ZM58.0415 65.1136C57.5302 65.1136 57.0898 64.9929 56.7205 64.7514C56.3512 64.5099 56.0671 64.1773 55.8683 63.7536C55.6694 63.3298 55.57 62.8456 55.57 62.3011C55.57 61.7472 55.6718 61.2583 55.8754 60.8345C56.0813 60.4084 56.3678 60.0758 56.7347 59.8366C57.104 59.5952 57.5349 59.4744 58.0273 59.4744C58.4109 59.4744 58.7565 59.5455 59.0643 59.6875C59.372 59.8295 59.6242 60.0284 59.8207 60.2841C60.0172 60.5398 60.1391 60.8381 60.1864 61.179H59.3484C59.2844 60.9304 59.1424 60.7102 58.9222 60.5185C58.7044 60.3243 58.4109 60.2273 58.0415 60.2273C57.7148 60.2273 57.4284 60.3125 57.1822 60.483C56.9383 60.651 56.7478 60.889 56.6104 61.1967C56.4755 61.5021 56.408 61.8608 56.408 62.2727C56.408 62.6941 56.4743 63.0611 56.6069 63.3736C56.7418 63.6861 56.9312 63.9287 57.1751 64.1016C57.4213 64.2744 57.7101 64.3608 58.0415 64.3608C58.2594 64.3608 58.457 64.3229 58.6346 64.2472C58.8121 64.1714 58.9625 64.0625 59.0856 63.9205C59.2087 63.7784 59.2963 63.608 59.3484 63.4091H60.1864C60.1391 63.7311 60.0219 64.0211 59.8349 64.2791C59.6502 64.5348 59.4052 64.7384 59.0998 64.8899C58.7968 65.0391 58.444 65.1136 58.0415 65.1136ZM62.1928 63.0114L62.1786 61.9744H62.3491L64.7354 59.5455H65.7724L63.2298 62.1165H63.1587L62.1928 63.0114ZM61.4116 65V57.7273H62.2496V65H61.4116ZM64.8775 65L62.7468 62.3011L63.3434 61.7188L65.9428 65H64.8775Z" fill="black"/>
<path d="M296.689 56.2144H230V68.2144H296.689V56.2144Z" fill="white"/>
<path d="M233.426 61.7188V65H232.588V59.5455H233.398V60.3977H233.469C233.597 60.1207 233.791 59.8982 234.051 59.7301C234.312 59.5597 234.648 59.4744 235.06 59.4744C235.429 59.4744 235.752 59.5502 236.029 59.7017C236.306 59.8509 236.522 60.0781 236.676 60.3835C236.83 60.6866 236.907 61.0701 236.907 61.5341V65H236.068V61.5909C236.068 61.1624 235.957 60.8286 235.735 60.5895C235.512 60.348 235.207 60.2273 234.818 60.2273C234.551 60.2273 234.312 60.2853 234.101 60.4013C233.893 60.5173 233.728 60.6866 233.608 60.9091C233.487 61.1316 233.426 61.4015 233.426 61.7188ZM240.043 65.1278C239.697 65.1278 239.384 65.0627 239.102 64.9325C238.82 64.8 238.597 64.6094 238.431 64.3608C238.265 64.1098 238.182 63.8068 238.182 63.4517C238.182 63.1392 238.244 62.8859 238.367 62.6918C238.49 62.4953 238.655 62.3414 238.861 62.2301C239.066 62.1188 239.294 62.036 239.542 61.9815C239.793 61.9247 240.045 61.8797 240.299 61.8466C240.63 61.804 240.899 61.772 241.105 61.7507C241.313 61.727 241.465 61.688 241.559 61.6335C241.656 61.5791 241.705 61.4844 241.705 61.3494V61.321C241.705 60.9706 241.609 60.6984 241.417 60.5043C241.228 60.3101 240.94 60.2131 240.554 60.2131C240.154 60.2131 239.841 60.3007 239.613 60.4759C239.386 60.651 239.226 60.8381 239.134 61.0369L238.339 60.7528C238.481 60.4214 238.67 60.1634 238.907 59.9787C239.146 59.7917 239.406 59.6615 239.688 59.5881C239.972 59.5123 240.251 59.4744 240.526 59.4744C240.701 59.4744 240.902 59.4957 241.13 59.5384C241.359 59.5786 241.581 59.6626 241.794 59.7905C242.009 59.9183 242.188 60.1113 242.33 60.3693C242.472 60.6274 242.543 60.973 242.543 61.4062V65H241.705V64.2614H241.662C241.606 64.3797 241.511 64.5064 241.378 64.6413C241.246 64.7763 241.069 64.8911 240.849 64.9858C240.629 65.0805 240.36 65.1278 240.043 65.1278ZM240.171 64.375C240.502 64.375 240.782 64.3099 241.009 64.1797C241.239 64.0495 241.411 63.8814 241.527 63.6754C241.646 63.4695 241.705 63.2528 241.705 63.0256V62.2585C241.669 62.3011 241.591 62.3402 241.471 62.3757C241.352 62.4089 241.215 62.4384 241.059 62.4645C240.905 62.4882 240.754 62.5095 240.608 62.5284C240.463 62.545 240.346 62.5592 240.256 62.571C240.038 62.5994 239.835 62.6456 239.645 62.7095C239.458 62.7711 239.307 62.8646 239.191 62.9901C239.077 63.1132 239.02 63.2812 239.02 63.4943C239.02 63.7855 239.128 64.0057 239.343 64.1548C239.561 64.3016 239.837 64.375 240.171 64.375ZM244.073 65V59.5455H244.882V60.3977H244.953C245.067 60.1065 245.251 59.8804 245.504 59.7195C245.757 59.5561 246.061 59.4744 246.416 59.4744C246.776 59.4744 247.076 59.5561 247.315 59.7195C247.556 59.8804 247.745 60.1065 247.88 60.3977H247.936C248.076 60.116 248.286 59.8923 248.565 59.7266C248.844 59.5585 249.179 59.4744 249.57 59.4744C250.058 59.4744 250.456 59.6271 250.767 59.9325C251.077 60.2356 251.232 60.7079 251.232 61.3494V65H250.394V61.3494C250.394 60.947 250.284 60.6593 250.063 60.4865C249.843 60.3137 249.584 60.2273 249.286 60.2273C248.902 60.2273 248.605 60.3433 248.394 60.5753C248.184 60.8049 248.078 61.0961 248.078 61.4489V65H247.226V61.2642C247.226 60.9541 247.126 60.7043 246.924 60.5149C246.723 60.3232 246.464 60.2273 246.147 60.2273C245.929 60.2273 245.725 60.2853 245.536 60.4013C245.349 60.5173 245.197 60.6783 245.081 60.8842C244.968 61.0878 244.911 61.3234 244.911 61.5909V65H244.073ZM255.051 65.1136C254.525 65.1136 254.072 64.9976 253.691 64.7656C253.312 64.5312 253.02 64.2045 252.814 63.7855C252.61 63.3641 252.508 62.8741 252.508 62.3153C252.508 61.7566 252.61 61.2642 252.814 60.8381C253.02 60.4096 253.306 60.0758 253.673 59.8366C254.043 59.5952 254.473 59.4744 254.966 59.4744C255.25 59.4744 255.53 59.5218 255.807 59.6165C256.084 59.7112 256.337 59.8651 256.564 60.0781C256.791 60.2888 256.972 60.5682 257.107 60.9162C257.242 61.2642 257.31 61.6927 257.31 62.2017V62.5568H253.105V61.8324H256.457C256.457 61.5246 256.396 61.25 256.273 61.0085C256.152 60.767 255.979 60.5765 255.754 60.4368C255.532 60.2971 255.269 60.2273 254.966 60.2273C254.632 60.2273 254.343 60.3101 254.099 60.4759C253.858 60.6392 253.672 60.8523 253.542 61.1151C253.412 61.3778 253.347 61.6596 253.347 61.9602V62.4432C253.347 62.8551 253.418 63.2043 253.56 63.4908C253.704 63.7749 253.904 63.9915 254.16 64.1406C254.415 64.2874 254.713 64.3608 255.051 64.3608C255.271 64.3608 255.47 64.33 255.648 64.2685C255.828 64.2045 255.983 64.1098 256.113 63.9844C256.243 63.8565 256.344 63.6979 256.415 63.5085L257.224 63.7358C257.139 64.0104 256.996 64.2519 256.795 64.4602C256.593 64.6662 256.345 64.8272 256.049 64.9432C255.753 65.0568 255.42 65.1136 255.051 65.1136ZM259.195 65.0568C259.02 65.0568 258.87 64.9941 258.744 64.8686C258.619 64.7431 258.556 64.5928 258.556 64.4176C258.556 64.2424 258.619 64.0921 258.744 63.9666C258.87 63.8411 259.02 63.7784 259.195 63.7784C259.37 63.7784 259.521 63.8411 259.646 63.9666C259.772 64.0921 259.834 64.2424 259.834 64.4176C259.834 64.5336 259.805 64.6402 259.746 64.7372C259.689 64.8343 259.612 64.9124 259.515 64.9716C259.42 65.0284 259.314 65.0568 259.195 65.0568ZM259.195 61.0085C259.02 61.0085 258.87 60.9458 258.744 60.8203C258.619 60.6948 258.556 60.5445 258.556 60.3693C258.556 60.1941 258.619 60.0438 258.744 59.9183C258.87 59.7929 259.02 59.7301 259.195 59.7301C259.37 59.7301 259.521 59.7929 259.646 59.9183C259.772 60.0438 259.834 60.1941 259.834 60.3693C259.834 60.4853 259.805 60.5919 259.746 60.6889C259.689 60.786 259.612 60.8641 259.515 60.9233C259.42 60.9801 259.314 61.0085 259.195 61.0085Z" fill="black"/>
<path d="M264.529 65H263.605L266.276 57.7273H267.185L269.855 65H268.932L266.759 58.8778H266.702L264.529 65ZM264.869 62.1591H268.591V62.9403H264.869V62.1591ZM273.09 65.1136C272.579 65.1136 272.139 64.9929 271.769 64.7514C271.4 64.5099 271.116 64.1773 270.917 63.7536C270.718 63.3298 270.619 62.8456 270.619 62.3011C270.619 61.7472 270.721 61.2583 270.924 60.8345C271.13 60.4084 271.417 60.0758 271.784 59.8366C272.153 59.5952 272.584 59.4744 273.076 59.4744C273.46 59.4744 273.805 59.5455 274.113 59.6875C274.421 59.8295 274.673 60.0284 274.869 60.2841C275.066 60.5398 275.188 60.8381 275.235 61.179H274.397C274.333 60.9304 274.191 60.7102 273.971 60.5185C273.753 60.3243 273.46 60.2273 273.09 60.2273C272.764 60.2273 272.477 60.3125 272.231 60.483C271.987 60.651 271.797 60.889 271.659 61.1967C271.524 61.5021 271.457 61.8608 271.457 62.2727C271.457 62.6941 271.523 63.0611 271.656 63.3736C271.791 63.6861 271.98 63.9287 272.224 64.1016C272.47 64.2744 272.759 64.3608 273.09 64.3608C273.308 64.3608 273.506 64.3229 273.683 64.2472C273.861 64.1714 274.011 64.0625 274.134 63.9205C274.258 63.7784 274.345 63.608 274.397 63.4091H275.235C275.188 63.7311 275.071 64.0211 274.884 64.2791C274.699 64.5348 274.454 64.7384 274.149 64.8899C273.846 65.0391 273.493 65.1136 273.09 65.1136ZM276.46 65V59.5455H277.27V60.3977H277.341C277.455 60.1065 277.638 59.8804 277.892 59.7195C278.145 59.5561 278.449 59.4744 278.804 59.4744C279.164 59.4744 279.463 59.5561 279.703 59.7195C279.944 59.8804 280.132 60.1065 280.267 60.3977H280.324C280.464 60.116 280.673 59.8923 280.953 59.7266C281.232 59.5585 281.567 59.4744 281.958 59.4744C282.445 59.4744 282.844 59.6271 283.154 59.9325C283.464 60.2356 283.619 60.7079 283.619 61.3494V65H282.781V61.3494C282.781 60.947 282.671 60.6593 282.451 60.4865C282.231 60.3137 281.972 60.2273 281.673 60.2273C281.29 60.2273 280.993 60.3433 280.782 60.5753C280.571 60.8049 280.466 61.0961 280.466 61.4489V65H279.614V61.2642C279.614 60.9541 279.513 60.7043 279.312 60.5149C279.111 60.3232 278.852 60.2273 278.534 60.2273C278.316 60.2273 278.113 60.2853 277.923 60.4013C277.736 60.5173 277.585 60.6783 277.469 60.8842C277.355 61.0878 277.298 61.3234 277.298 61.5909V65H276.46ZM287.439 65.1136C286.913 65.1136 286.46 64.9976 286.079 64.7656C285.7 64.5312 285.407 64.2045 285.202 63.7855C284.998 63.3641 284.896 62.8741 284.896 62.3153C284.896 61.7566 284.998 61.2642 285.202 60.8381C285.407 60.4096 285.694 60.0758 286.061 59.8366C286.43 59.5952 286.861 59.4744 287.354 59.4744C287.638 59.4744 287.918 59.5218 288.195 59.6165C288.472 59.7112 288.724 59.8651 288.952 60.0781C289.179 60.2888 289.36 60.5682 289.495 60.9162C289.63 61.2642 289.697 61.6927 289.697 62.2017V62.5568H285.493V61.8324H288.845C288.845 61.5246 288.783 61.25 288.66 61.0085C288.54 60.767 288.367 60.5765 288.142 60.4368C287.919 60.2971 287.657 60.2273 287.354 60.2273C287.02 60.2273 286.731 60.3101 286.487 60.4759C286.246 60.6392 286.06 60.8523 285.93 61.1151C285.799 61.3778 285.734 61.6596 285.734 61.9602V62.4432C285.734 62.8551 285.805 63.2043 285.947 63.4908C286.092 63.7749 286.292 63.9915 286.547 64.1406C286.803 64.2874 287.1 64.3608 287.439 64.3608C287.659 64.3608 287.858 64.33 288.035 64.2685C288.215 64.2045 288.37 64.1098 288.501 63.9844C288.631 63.8565 288.731 63.6979 288.802 63.5085L289.612 63.7358C289.527 64.0104 289.384 64.2519 289.182 64.4602C288.981 64.6662 288.733 64.8272 288.437 64.9432C288.141 65.0568 287.808 65.1136 287.439 65.1136Z" fill="black"/>
<path d="M267 52C281.359 52 293 40.3594 293 26C293 11.6406 281.359 0 267 0C252.641 0 241 11.6406 241 26C241 40.3594 252.641 52 267 52Z" fill="#FE9200" stroke="#E27300" stroke-width="2"/>
<path d="M281.335 20.9761H252.665C249.891 20.9761 247.641 23.2254 247.641 26.0001C247.641 28.7749 249.891 31.0242 252.665 31.0242H281.335C284.109 31.0242 286.359 28.7749 286.359 26.0001C286.359 23.2254 284.109 20.9761 281.335 20.9761Z" fill="white" stroke="black" stroke-width="0.669876"/>
<path d="M257.176 24.8181H256.586C256.551 24.6484 256.49 24.4993 256.402 24.3709C256.317 24.2424 256.212 24.1346 256.088 24.0474C255.966 23.9586 255.831 23.8919 255.682 23.8475C255.533 23.8031 255.377 23.7809 255.215 23.7809C254.92 23.7809 254.653 23.8555 254.414 24.0045C254.176 24.1536 253.986 24.3733 253.845 24.6635C253.706 24.9537 253.636 25.3097 253.636 25.7316C253.636 26.1534 253.706 26.5094 253.845 26.7997C253.986 27.0899 254.176 27.3095 254.414 27.4586C254.653 27.6077 254.92 27.6822 255.215 27.6822C255.377 27.6822 255.533 27.66 255.682 27.6156C255.831 27.5712 255.966 27.5054 256.088 27.4182C256.212 27.3293 256.317 27.2207 256.402 27.0923C256.49 26.9622 256.551 26.8131 256.586 26.645H257.176C257.131 26.894 257.05 27.1168 256.933 27.3135C256.816 27.5101 256.67 27.6774 256.495 27.8154C256.321 27.9518 256.125 28.0557 255.908 28.127C255.692 28.1984 255.461 28.2341 255.215 28.2341C254.8 28.2341 254.43 28.1326 254.107 27.9296C253.783 27.7266 253.529 27.438 253.343 27.0637C253.158 26.6894 253.065 26.2454 253.065 25.7316C253.065 25.2177 253.158 24.7737 253.343 24.3994C253.529 24.0252 253.783 23.7365 254.107 23.5335C254.43 23.3305 254.8 23.2291 255.215 23.2291C255.461 23.2291 255.692 23.2647 255.908 23.3361C256.125 23.4075 256.321 23.5121 256.495 23.6501C256.67 23.7865 256.816 23.953 256.933 24.1497C257.05 24.3447 257.131 24.5675 257.176 24.8181ZM259.537 28.2436C259.207 28.2436 258.918 28.1651 258.669 28.0081C258.421 27.8511 258.228 27.6315 258.088 27.3492C257.95 27.0669 257.882 26.737 257.882 26.3596C257.882 25.979 257.95 25.6467 258.088 25.3629C258.228 25.079 258.421 24.8585 258.669 24.7015C258.918 24.5445 259.207 24.466 259.537 24.466C259.867 24.466 260.156 24.5445 260.403 24.7015C260.652 24.8585 260.846 25.079 260.983 25.3629C261.123 25.6467 261.193 25.979 261.193 26.3596C261.193 26.737 261.123 27.0669 260.983 27.3492C260.846 27.6315 260.652 27.8511 260.403 28.0081C260.156 28.1651 259.867 28.2436 259.537 28.2436ZM259.537 27.7393C259.788 27.7393 259.994 27.6751 260.156 27.5466C260.317 27.4182 260.437 27.2493 260.515 27.0399C260.593 26.8306 260.631 26.6038 260.631 26.3596C260.631 26.1154 260.593 25.8878 260.515 25.6769C260.437 25.4659 260.317 25.2955 260.156 25.1654C259.994 25.0354 259.788 24.9703 259.537 24.9703C259.287 24.9703 259.08 25.0354 258.919 25.1654C258.757 25.2955 258.637 25.4659 258.559 25.6769C258.482 25.8878 258.443 26.1154 258.443 26.3596C258.443 26.6038 258.482 26.8306 258.559 27.0399C258.637 27.2493 258.757 27.4182 258.919 27.5466C259.08 27.6751 259.287 27.7393 259.537 27.7393ZM262.05 28.1675V24.5136H262.592V25.0845H262.64C262.716 24.8895 262.839 24.738 263.008 24.6302C263.178 24.5207 263.382 24.466 263.62 24.466C263.861 24.466 264.061 24.5207 264.222 24.6302C264.383 24.738 264.509 24.8895 264.6 25.0845H264.638C264.732 24.8958 264.872 24.7459 265.059 24.6349C265.246 24.5223 265.471 24.466 265.732 24.466C266.059 24.466 266.326 24.5683 266.534 24.7729C266.742 24.9759 266.845 25.2923 266.845 25.7221V28.1675H266.284V25.7221C266.284 25.4525 266.21 25.2598 266.063 25.144C265.915 25.0282 265.742 24.9703 265.542 24.9703C265.285 24.9703 265.086 25.0481 264.945 25.2035C264.804 25.3573 264.733 25.5524 264.733 25.7887V28.1675H264.162V25.665C264.162 25.4572 264.095 25.2899 263.96 25.163C263.825 25.0346 263.652 24.9703 263.439 24.9703C263.293 24.9703 263.157 25.0092 263.03 25.0869C262.905 25.1646 262.803 25.2725 262.725 25.4104C262.649 25.5468 262.611 25.7046 262.611 25.8838V28.1675H262.05ZM267.872 29.5377V24.5136H268.414V25.094H268.481C268.522 25.0306 268.579 24.9497 268.652 24.8514C268.727 24.7515 268.833 24.6627 268.971 24.585C269.111 24.5057 269.299 24.466 269.537 24.466C269.845 24.466 270.116 24.543 270.351 24.6968C270.585 24.8506 270.769 25.0687 270.9 25.351C271.032 25.6332 271.098 25.9663 271.098 26.3501C271.098 26.737 271.032 27.0724 270.9 27.3563C270.769 27.6386 270.586 27.8574 270.353 28.0129C270.12 28.1667 269.851 28.2436 269.547 28.2436C269.312 28.2436 269.124 28.2047 268.983 28.127C268.842 28.0477 268.733 27.9581 268.657 27.8582C268.581 27.7567 268.522 27.6727 268.481 27.6061H268.433V29.5377H267.872ZM268.424 26.3405C268.424 26.6165 268.464 26.8599 268.545 27.0708C268.626 27.2802 268.744 27.4443 268.9 27.5633C269.055 27.6806 269.245 27.7393 269.471 27.7393C269.705 27.7393 269.901 27.6774 270.058 27.5537C270.217 27.4285 270.336 27.2604 270.415 27.0494C270.496 26.8369 270.536 26.6006 270.536 26.3405C270.536 26.0836 270.497 25.8521 270.417 25.6459C270.34 25.4382 270.221 25.274 270.063 25.1535C269.906 25.0314 269.708 24.9703 269.471 24.9703C269.242 24.9703 269.05 25.0282 268.895 25.144C268.739 25.2582 268.622 25.4184 268.543 25.6245C268.463 25.8291 268.424 26.0678 268.424 26.3405ZM273.029 28.2531C272.798 28.2531 272.588 28.2095 272.399 28.1223C272.21 28.0335 272.06 27.9058 271.949 27.7393C271.838 27.5712 271.783 27.3682 271.783 27.1303C271.783 26.921 271.824 26.7513 271.906 26.6212C271.989 26.4896 272.099 26.3865 272.237 26.312C272.375 26.2375 272.527 26.182 272.694 26.1455C272.862 26.1074 273.031 26.0773 273.201 26.0551C273.423 26.0265 273.603 26.0051 273.74 25.9909C273.88 25.975 273.982 25.9488 274.045 25.9124C274.11 25.8759 274.143 25.8124 274.143 25.7221V25.703C274.143 25.4683 274.078 25.2859 273.95 25.1559C273.823 25.0259 273.63 24.9608 273.372 24.9608C273.104 24.9608 272.894 25.0195 272.741 25.1369C272.589 25.2542 272.482 25.3795 272.42 25.5127L271.887 25.3224C271.983 25.1004 272.109 24.9275 272.268 24.8038C272.428 24.6785 272.603 24.5913 272.791 24.5422C272.982 24.4914 273.169 24.466 273.353 24.466C273.47 24.466 273.605 24.4803 273.757 24.5089C273.911 24.5358 274.059 24.5921 274.202 24.6778C274.346 24.7634 274.466 24.8926 274.561 25.0655C274.656 25.2384 274.704 25.4699 274.704 25.7601V28.1675H274.143V27.6727H274.114C274.076 27.752 274.012 27.8368 273.924 27.9272C273.835 28.0176 273.717 28.0945 273.569 28.158C273.422 28.2214 273.242 28.2531 273.029 28.2531ZM273.115 27.7488C273.337 27.7488 273.524 27.7052 273.676 27.618C273.83 27.5307 273.946 27.4182 274.024 27.2802C274.103 27.1422 274.143 26.9971 274.143 26.8449V26.331C274.119 26.3596 274.066 26.3857 273.986 26.4095C273.906 26.4317 273.814 26.4516 273.71 26.469C273.606 26.4849 273.506 26.4991 273.407 26.5118C273.311 26.5229 273.232 26.5324 273.172 26.5404C273.026 26.5594 272.89 26.5903 272.763 26.6331C272.638 26.6744 272.536 26.737 272.458 26.8211C272.382 26.9035 272.344 27.0161 272.344 27.1589C272.344 27.3539 272.416 27.5014 272.561 27.6013C272.707 27.6996 272.891 27.7488 273.115 27.7488ZM276.29 25.9695V28.1675H275.729V24.5136H276.271V25.0845H276.319C276.404 24.899 276.534 24.7499 276.709 24.6373C276.883 24.5231 277.108 24.466 277.384 24.466C277.632 24.466 277.848 24.5168 278.034 24.6183C278.219 24.7182 278.364 24.8704 278.467 25.075C278.57 25.278 278.621 25.5349 278.621 25.8458V28.1675H278.06V25.8838C278.06 25.5968 277.985 25.3732 277.836 25.213C277.687 25.0512 277.483 24.9703 277.222 24.9703C277.043 24.9703 276.883 25.0092 276.742 25.0869C276.602 25.1646 276.492 25.278 276.411 25.4271C276.33 25.5762 276.29 25.7569 276.29 25.9695ZM279.878 29.5377C279.783 29.5377 279.698 29.5298 279.623 29.5139C279.549 29.4996 279.497 29.4853 279.469 29.4711L279.611 28.9763C279.748 29.0112 279.868 29.0239 279.973 29.0143C280.078 29.0048 280.17 28.958 280.251 28.874C280.334 28.7915 280.409 28.6575 280.477 28.472L280.582 28.1865L279.231 24.5136H279.84L280.848 27.4253H280.886L281.895 24.5136H282.504L280.953 28.7003C280.883 28.8891 280.797 29.0453 280.694 29.169C280.591 29.2942 280.471 29.387 280.335 29.4473C280.2 29.5075 280.048 29.5377 279.878 29.5377Z" fill="black"/>
<path d="M145 169C159.359 169 171 157.359 171 143C171 128.641 159.359 117 145 117C130.641 117 119 128.641 119 143C119 157.359 130.641 169 145 169Z" fill="#B0BC00" stroke="#808900" stroke-width="2"/>
<path d="M158.488 137.313H131.512C128.372 137.313 125.826 139.859 125.826 143C125.826 146.141 128.372 148.687 131.512 148.687H158.488C161.628 148.687 164.174 146.141 164.174 143C164.174 139.859 161.628 137.313 158.488 137.313Z" fill="white" stroke="black" stroke-width="0.758241"/>
<path d="M132.18 145.53V140.015H134.043C134.476 140.015 134.83 140.093 135.104 140.25C135.381 140.404 135.585 140.613 135.718 140.877C135.851 141.141 135.918 141.435 135.918 141.76C135.918 142.085 135.851 142.38 135.718 142.646C135.587 142.912 135.384 143.123 135.11 143.281C134.835 143.438 134.483 143.516 134.054 143.516H132.719V142.923H134.033C134.329 142.923 134.567 142.872 134.746 142.77C134.926 142.668 135.056 142.529 135.137 142.355C135.219 142.179 135.261 141.981 135.261 141.76C135.261 141.539 135.219 141.342 135.137 141.168C135.056 140.994 134.925 140.857 134.744 140.758C134.562 140.658 134.322 140.608 134.022 140.608H132.848V145.53H132.18ZM138.543 145.616C138.169 145.616 137.842 145.527 137.56 145.349C137.28 145.172 137.061 144.923 136.903 144.604C136.747 144.284 136.669 143.911 136.669 143.483C136.669 143.053 136.747 142.677 136.903 142.355C137.061 142.034 137.28 141.784 137.56 141.607C137.842 141.429 138.169 141.34 138.543 141.34C138.916 141.34 139.243 141.429 139.523 141.607C139.805 141.784 140.024 142.034 140.18 142.355C140.338 142.677 140.417 143.053 140.417 143.483C140.417 143.911 140.338 144.284 140.18 144.604C140.024 144.923 139.805 145.172 139.523 145.349C139.243 145.527 138.916 145.616 138.543 145.616ZM138.543 145.045C138.826 145.045 139.06 144.972 139.243 144.827C139.426 144.682 139.562 144.49 139.649 144.253C139.737 144.017 139.781 143.76 139.781 143.483C139.781 143.207 139.737 142.949 139.649 142.711C139.562 142.472 139.426 142.279 139.243 142.132C139.06 141.985 138.826 141.911 138.543 141.911C138.259 141.911 138.026 141.985 137.843 142.132C137.66 142.279 137.524 142.472 137.436 142.711C137.348 142.949 137.304 143.207 137.304 143.483C137.304 143.76 137.348 144.017 137.436 144.253C137.524 144.49 137.66 144.682 137.843 144.827C138.026 144.972 138.259 145.045 138.543 145.045ZM144.316 142.32L143.746 142.482C143.71 142.387 143.657 142.294 143.587 142.204C143.519 142.113 143.425 142.037 143.307 141.978C143.188 141.919 143.037 141.889 142.852 141.889C142.599 141.889 142.388 141.948 142.219 142.064C142.052 142.179 141.968 142.326 141.968 142.503C141.968 142.661 142.026 142.786 142.141 142.878C142.256 142.969 142.435 143.045 142.679 143.106L143.293 143.257C143.663 143.347 143.939 143.484 144.12 143.669C144.301 143.852 144.392 144.088 144.392 144.377C144.392 144.614 144.324 144.826 144.187 145.013C144.053 145.199 143.864 145.347 143.622 145.454C143.379 145.562 143.098 145.616 142.776 145.616C142.354 145.616 142.005 145.524 141.729 145.341C141.452 145.158 141.277 144.891 141.204 144.539L141.807 144.388C141.864 144.611 141.973 144.778 142.133 144.889C142.294 145 142.505 145.056 142.766 145.056C143.062 145.056 143.297 144.993 143.471 144.867C143.647 144.74 143.735 144.587 143.735 144.41C143.735 144.266 143.685 144.146 143.584 144.049C143.484 143.95 143.329 143.877 143.121 143.828L142.432 143.666C142.053 143.577 141.775 143.438 141.597 143.249C141.421 143.059 141.333 142.821 141.333 142.536C141.333 142.302 141.399 142.096 141.53 141.916C141.662 141.737 141.843 141.596 142.071 141.494C142.301 141.391 142.561 141.34 142.852 141.34C143.261 141.34 143.582 141.43 143.816 141.609C144.051 141.789 144.218 142.026 144.316 142.32ZM145.348 145.53V141.394H145.984V145.53H145.348ZM145.672 140.705C145.548 140.705 145.441 140.662 145.351 140.578C145.263 140.494 145.219 140.392 145.219 140.274C145.219 140.155 145.263 140.054 145.351 139.97C145.441 139.885 145.548 139.843 145.672 139.843C145.795 139.843 145.901 139.885 145.989 139.97C146.079 140.054 146.124 140.155 146.124 140.274C146.124 140.392 146.079 140.494 145.989 140.578C145.901 140.662 145.795 140.705 145.672 140.705ZM148.946 141.394V141.932H146.803V141.394H148.946ZM147.428 140.403H148.063V144.345C148.063 144.525 148.089 144.659 148.141 144.749C148.195 144.837 148.263 144.896 148.346 144.927C148.43 144.955 148.519 144.97 148.613 144.97C148.683 144.97 148.74 144.966 148.785 144.959C148.83 144.95 148.866 144.943 148.893 144.937L149.022 145.508C148.979 145.524 148.919 145.541 148.841 145.557C148.764 145.575 148.666 145.584 148.548 145.584C148.368 145.584 148.192 145.545 148.02 145.468C147.85 145.391 147.708 145.273 147.595 145.115C147.483 144.957 147.428 144.758 147.428 144.517V140.403ZM149.902 145.53V141.394H150.538V145.53H149.902ZM150.225 140.705C150.102 140.705 149.995 140.662 149.905 140.578C149.817 140.494 149.773 140.392 149.773 140.274C149.773 140.155 149.817 140.054 149.905 139.97C149.995 139.885 150.102 139.843 150.225 139.843C150.349 139.843 150.455 139.885 150.543 139.97C150.633 140.054 150.678 140.155 150.678 140.274C150.678 140.392 150.633 140.494 150.543 140.578C150.455 140.662 150.349 140.705 150.225 140.705ZM153.382 145.616C153.008 145.616 152.681 145.527 152.399 145.349C152.119 145.172 151.9 144.923 151.742 144.604C151.586 144.284 151.508 143.911 151.508 143.483C151.508 143.053 151.586 142.677 151.742 142.355C151.9 142.034 152.119 141.784 152.399 141.607C152.681 141.429 153.008 141.34 153.382 141.34C153.755 141.34 154.082 141.429 154.362 141.607C154.644 141.784 154.863 142.034 155.019 142.355C155.177 142.677 155.256 143.053 155.256 143.483C155.256 143.911 155.177 144.284 155.019 144.604C154.863 144.923 154.644 145.172 154.362 145.349C154.082 145.527 153.755 145.616 153.382 145.616ZM153.382 145.045C153.665 145.045 153.899 144.972 154.082 144.827C154.265 144.682 154.401 144.49 154.488 144.253C154.576 144.017 154.62 143.76 154.62 143.483C154.62 143.207 154.576 142.949 154.488 142.711C154.401 142.472 154.265 142.279 154.082 142.132C153.899 141.985 153.665 141.911 153.382 141.911C153.098 141.911 152.865 141.985 152.682 142.132C152.499 142.279 152.363 142.472 152.275 142.711C152.187 142.949 152.143 143.207 152.143 143.483C152.143 143.76 152.187 144.017 152.275 144.253C152.363 144.49 152.499 144.682 152.682 144.827C152.865 144.972 153.098 145.045 153.382 145.045ZM156.861 143.042V145.53H156.226V141.394H156.84V142.04H156.894C156.991 141.83 157.138 141.661 157.335 141.534C157.533 141.405 157.788 141.34 158.1 141.34C158.38 141.34 158.625 141.398 158.835 141.512C159.045 141.625 159.208 141.798 159.325 142.029C159.442 142.259 159.5 142.55 159.5 142.902V145.53H158.865V142.945C158.865 142.62 158.78 142.367 158.612 142.186C158.443 142.002 158.211 141.911 157.917 141.911C157.714 141.911 157.533 141.955 157.373 142.043C157.215 142.131 157.09 142.259 156.999 142.428C156.907 142.597 156.861 142.801 156.861 143.042Z" fill="black"/>
<path d="M198.837 172.214H86V184.214H198.837V172.214Z" fill="white"/>
<path d="M89.5542 175.545V176.256H86.7275V175.545H89.5542ZM87.5514 174.239H88.3895V179.438C88.3895 179.674 88.4238 179.852 88.4925 179.97C88.5635 180.086 88.6534 180.164 88.7623 180.205C88.8736 180.242 88.9908 180.261 89.1139 180.261C89.2062 180.261 89.282 180.257 89.3412 180.247C89.4004 180.235 89.4477 180.226 89.4832 180.219L89.6537 180.972C89.5969 180.993 89.5175 181.014 89.4157 181.036C89.314 181.059 89.1849 181.071 89.0287 181.071C88.7919 181.071 88.5599 181.02 88.3327 180.918C88.1077 180.817 87.9207 180.661 87.7716 180.453C87.6248 180.245 87.5514 179.982 87.5514 179.665V174.239ZM90.8149 181V175.545H91.653V181H90.8149ZM91.241 174.636C91.0777 174.636 90.9368 174.581 90.8184 174.469C90.7024 174.358 90.6444 174.224 90.6444 174.068C90.6444 173.912 90.7024 173.778 90.8184 173.667C90.9368 173.556 91.0777 173.5 91.241 173.5C91.4044 173.5 91.5441 173.556 91.6601 173.667C91.7784 173.778 91.8376 173.912 91.8376 174.068C91.8376 174.224 91.7784 174.358 91.6601 174.469C91.5441 174.581 91.4044 174.636 91.241 174.636ZM95.5601 175.545V176.256H92.7334V175.545H95.5601ZM93.5573 174.239H94.3953V179.438C94.3953 179.674 94.4297 179.852 94.4983 179.97C94.5693 180.086 94.6593 180.164 94.7682 180.205C94.8795 180.242 94.9967 180.261 95.1198 180.261C95.2121 180.261 95.2878 180.257 95.347 180.247C95.4062 180.235 95.4536 180.226 95.4891 180.219L95.6595 180.972C95.6027 180.993 95.5234 181.014 95.4216 181.036C95.3198 181.059 95.1908 181.071 95.0345 181.071C94.7978 181.071 94.5658 181.02 94.3385 180.918C94.1136 180.817 93.9266 180.661 93.7774 180.453C93.6307 180.245 93.5573 179.982 93.5573 179.665V174.239ZM97.776 173.727V181H96.9379V173.727H97.776ZM101.598 181.114C101.072 181.114 100.619 180.998 100.238 180.766C99.859 180.531 99.5667 180.205 99.3607 179.786C99.1571 179.364 99.0553 178.874 99.0553 178.315C99.0553 177.757 99.1571 177.264 99.3607 176.838C99.5667 176.41 99.8531 176.076 100.22 175.837C100.589 175.595 101.02 175.474 101.513 175.474C101.797 175.474 102.077 175.522 102.354 175.616C102.631 175.711 102.883 175.865 103.111 176.078C103.338 176.289 103.519 176.568 103.654 176.916C103.789 177.264 103.856 177.693 103.856 178.202V178.557H99.6519V177.832H103.004C103.004 177.525 102.943 177.25 102.82 177.009C102.699 176.767 102.526 176.576 102.301 176.437C102.079 176.297 101.816 176.227 101.513 176.227C101.179 176.227 100.89 176.31 100.646 176.476C100.405 176.639 100.219 176.852 100.089 177.115C99.9585 177.378 99.8934 177.66 99.8934 177.96V178.443C99.8934 178.855 99.9644 179.204 100.106 179.491C100.251 179.775 100.451 179.991 100.707 180.141C100.962 180.287 101.259 180.361 101.598 180.361C101.818 180.361 102.017 180.33 102.195 180.268C102.374 180.205 102.53 180.11 102.66 179.984C102.79 179.857 102.891 179.698 102.962 179.509L103.771 179.736C103.686 180.01 103.543 180.252 103.342 180.46C103.14 180.666 102.892 180.827 102.596 180.943C102.3 181.057 101.967 181.114 101.598 181.114ZM105.742 181.057C105.567 181.057 105.417 180.994 105.291 180.869C105.166 180.743 105.103 180.593 105.103 180.418C105.103 180.242 105.166 180.092 105.291 179.967C105.417 179.841 105.567 179.778 105.742 179.778C105.917 179.778 106.068 179.841 106.193 179.967C106.319 180.092 106.381 180.242 106.381 180.418C106.381 180.534 106.352 180.64 106.293 180.737C106.236 180.834 106.159 180.912 106.062 180.972C105.967 181.028 105.86 181.057 105.742 181.057ZM105.742 177.009C105.567 177.009 105.417 176.946 105.291 176.82C105.166 176.695 105.103 176.545 105.103 176.369C105.103 176.194 105.166 176.044 105.291 175.918C105.417 175.793 105.567 175.73 105.742 175.73C105.917 175.73 106.068 175.793 106.193 175.918C106.319 176.044 106.381 176.194 106.381 176.369C106.381 176.485 106.352 176.592 106.293 176.689C106.236 176.786 106.159 176.864 106.062 176.923C105.967 176.98 105.86 177.009 105.742 177.009Z" fill="black"/>
<path d="M114.754 175.545C114.712 175.186 114.539 174.906 114.236 174.707C113.933 174.509 113.561 174.409 113.121 174.409C112.799 174.409 112.517 174.461 112.276 174.565C112.037 174.67 111.85 174.813 111.715 174.995C111.582 175.177 111.516 175.384 111.516 175.616C111.516 175.811 111.562 175.978 111.654 176.117C111.749 176.254 111.87 176.369 112.017 176.462C112.163 176.552 112.317 176.626 112.478 176.685C112.639 176.742 112.787 176.788 112.922 176.824L113.661 177.023C113.85 177.072 114.061 177.141 114.293 177.229C114.527 177.316 114.751 177.436 114.964 177.587C115.179 177.737 115.357 177.928 115.497 178.163C115.636 178.397 115.706 178.685 115.706 179.026C115.706 179.419 115.603 179.774 115.397 180.091C115.194 180.408 114.895 180.66 114.502 180.847C114.112 181.034 113.637 181.128 113.078 181.128C112.557 181.128 112.106 181.044 111.725 180.876C111.347 180.708 111.048 180.473 110.83 180.173C110.615 179.872 110.493 179.523 110.465 179.125H111.374C111.397 179.4 111.49 179.627 111.651 179.807C111.814 179.984 112.02 180.117 112.269 180.205C112.52 180.29 112.789 180.332 113.078 180.332C113.414 180.332 113.716 180.278 113.984 180.169C114.251 180.058 114.463 179.904 114.619 179.707C114.776 179.509 114.854 179.277 114.854 179.011C114.854 178.77 114.786 178.573 114.651 178.422C114.517 178.27 114.339 178.147 114.119 178.053C113.899 177.958 113.661 177.875 113.405 177.804L112.51 177.548C111.942 177.385 111.492 177.152 111.161 176.849C110.829 176.546 110.664 176.149 110.664 175.659C110.664 175.252 110.774 174.897 110.994 174.594C111.216 174.288 111.515 174.052 111.889 173.884C112.265 173.713 112.685 173.628 113.149 173.628C113.618 173.628 114.035 173.712 114.399 173.88C114.764 174.046 115.053 174.273 115.266 174.562C115.481 174.851 115.595 175.179 115.607 175.545H114.754ZM119.256 181.114C118.764 181.114 118.332 180.996 117.96 180.762C117.591 180.528 117.302 180.2 117.094 179.778C116.888 179.357 116.785 178.865 116.785 178.301C116.785 177.733 116.888 177.237 117.094 176.813C117.302 176.389 117.591 176.06 117.96 175.826C118.332 175.592 118.764 175.474 119.256 175.474C119.749 175.474 120.18 175.592 120.549 175.826C120.921 176.06 121.21 176.389 121.415 176.813C121.624 177.237 121.728 177.733 121.728 178.301C121.728 178.865 121.624 179.357 121.415 179.778C121.21 180.2 120.921 180.528 120.549 180.762C120.18 180.996 119.749 181.114 119.256 181.114ZM119.256 180.361C119.63 180.361 119.938 180.265 120.18 180.073C120.421 179.881 120.6 179.629 120.716 179.317C120.832 179.004 120.89 178.666 120.89 178.301C120.89 177.937 120.832 177.597 120.716 177.282C120.6 176.967 120.421 176.713 120.18 176.518C119.938 176.324 119.63 176.227 119.256 176.227C118.882 176.227 118.575 176.324 118.333 176.518C118.092 176.713 117.913 176.967 117.797 177.282C117.681 177.597 117.623 177.937 117.623 178.301C117.623 178.666 117.681 179.004 117.797 179.317C117.913 179.629 118.092 179.881 118.333 180.073C118.575 180.265 118.882 180.361 119.256 180.361ZM125.436 175.545V176.256H122.496V175.545H125.436ZM123.377 181V174.793C123.377 174.48 123.45 174.22 123.597 174.011C123.744 173.803 123.934 173.647 124.169 173.543C124.403 173.438 124.65 173.386 124.911 173.386C125.117 173.386 125.285 173.403 125.415 173.436C125.545 173.469 125.642 173.5 125.706 173.528L125.465 174.253C125.422 174.239 125.363 174.221 125.287 174.2C125.214 174.178 125.117 174.168 124.996 174.168C124.719 174.168 124.519 174.237 124.396 174.377C124.275 174.517 124.215 174.722 124.215 174.991V181H123.377ZM128.983 175.545V176.256H126.156V175.545H128.983ZM126.98 174.239H127.818V179.438C127.818 179.674 127.853 179.852 127.921 179.97C127.992 180.086 128.082 180.164 128.191 180.205C128.302 180.242 128.42 180.261 128.543 180.261C128.635 180.261 128.711 180.257 128.77 180.247C128.829 180.235 128.876 180.226 128.912 180.219L129.082 180.972C129.026 180.993 128.946 181.014 128.844 181.036C128.743 181.059 128.614 181.071 128.457 181.071C128.221 181.071 127.989 181.02 127.761 180.918C127.536 180.817 127.349 180.661 127.2 180.453C127.054 180.245 126.98 179.982 126.98 179.665V174.239ZM131.479 181L129.817 175.545H130.698L131.877 179.722H131.934L133.099 175.545H133.994L135.144 179.707H135.201L136.38 175.545H137.261L135.599 181H134.775L133.582 176.81H133.496L132.303 181H131.479ZM139.974 181.128C139.628 181.128 139.314 181.063 139.033 180.933C138.751 180.8 138.527 180.609 138.362 180.361C138.196 180.11 138.113 179.807 138.113 179.452C138.113 179.139 138.174 178.886 138.298 178.692C138.421 178.495 138.585 178.341 138.791 178.23C138.997 178.119 139.224 178.036 139.473 177.982C139.724 177.925 139.976 177.88 140.229 177.847C140.561 177.804 140.83 177.772 141.036 177.751C141.244 177.727 141.395 177.688 141.49 177.634C141.587 177.579 141.636 177.484 141.636 177.349V177.321C141.636 176.971 141.54 176.698 141.348 176.504C141.159 176.31 140.871 176.213 140.485 176.213C140.085 176.213 139.771 176.301 139.544 176.476C139.317 176.651 139.157 176.838 139.065 177.037L138.269 176.753C138.411 176.421 138.601 176.163 138.837 175.979C139.076 175.792 139.337 175.661 139.619 175.588C139.903 175.512 140.182 175.474 140.457 175.474C140.632 175.474 140.833 175.496 141.06 175.538C141.29 175.579 141.511 175.663 141.724 175.79C141.94 175.918 142.119 176.111 142.261 176.369C142.403 176.627 142.474 176.973 142.474 177.406V181H141.636V180.261H141.593C141.536 180.38 141.442 180.506 141.309 180.641C141.176 180.776 141 180.891 140.78 180.986C140.56 181.08 140.291 181.128 139.974 181.128ZM140.102 180.375C140.433 180.375 140.712 180.31 140.94 180.18C141.169 180.049 141.342 179.881 141.458 179.675C141.576 179.469 141.636 179.253 141.636 179.026V178.259C141.6 178.301 141.522 178.34 141.401 178.376C141.283 178.409 141.146 178.438 140.989 178.464C140.835 178.488 140.685 178.509 140.538 178.528C140.394 178.545 140.277 178.559 140.187 178.571C139.969 178.599 139.765 178.646 139.576 178.71C139.389 178.771 139.237 178.865 139.121 178.99C139.008 179.113 138.951 179.281 138.951 179.494C138.951 179.786 139.059 180.006 139.274 180.155C139.492 180.302 139.768 180.375 140.102 180.375ZM144.003 181V175.545H144.813V176.369H144.87C144.969 176.099 145.149 175.88 145.41 175.712C145.67 175.544 145.964 175.46 146.29 175.46C146.352 175.46 146.429 175.461 146.521 175.464C146.613 175.466 146.683 175.47 146.731 175.474V176.327C146.702 176.32 146.637 176.309 146.535 176.295C146.436 176.278 146.331 176.27 146.219 176.27C145.954 176.27 145.717 176.326 145.509 176.437C145.303 176.546 145.14 176.697 145.019 176.891C144.901 177.083 144.841 177.302 144.841 177.548V181H144.003ZM149.845 181.114C149.319 181.114 148.866 180.998 148.485 180.766C148.106 180.531 147.814 180.205 147.608 179.786C147.404 179.364 147.302 178.874 147.302 178.315C147.302 177.757 147.404 177.264 147.608 176.838C147.814 176.41 148.1 176.076 148.467 175.837C148.836 175.595 149.267 175.474 149.76 175.474C150.044 175.474 150.324 175.522 150.601 175.616C150.878 175.711 151.131 175.865 151.358 176.078C151.585 176.289 151.766 176.568 151.901 176.916C152.036 177.264 152.104 177.693 152.104 178.202V178.557H147.899V177.832H151.251C151.251 177.525 151.19 177.25 151.067 177.009C150.946 176.767 150.773 176.576 150.548 176.437C150.326 176.297 150.063 176.227 149.76 176.227C149.426 176.227 149.137 176.31 148.893 176.476C148.652 176.639 148.466 176.852 148.336 177.115C148.206 177.378 148.14 177.66 148.14 177.96V178.443C148.14 178.855 148.211 179.204 148.354 179.491C148.498 179.775 148.698 179.991 148.954 180.141C149.209 180.287 149.506 180.361 149.845 180.361C150.065 180.361 150.264 180.33 150.442 180.268C150.622 180.205 150.777 180.11 150.907 179.984C151.037 179.857 151.138 179.698 151.209 179.509L152.018 179.736C151.933 180.01 151.79 180.252 151.589 180.46C151.387 180.666 151.139 180.827 150.843 180.943C150.547 181.057 150.214 181.114 149.845 181.114ZM158.251 181.114C157.796 181.114 157.395 180.999 157.047 180.769C156.699 180.537 156.426 180.21 156.23 179.789C156.033 179.365 155.935 178.865 155.935 178.287C155.935 177.714 156.033 177.217 156.23 176.795C156.426 176.374 156.7 176.049 157.05 175.819C157.401 175.589 157.805 175.474 158.265 175.474C158.62 175.474 158.9 175.534 159.106 175.652C159.315 175.768 159.473 175.901 159.582 176.05C159.693 176.196 159.78 176.317 159.841 176.412H159.912V173.727H160.751V181H159.941V180.162H159.841C159.78 180.261 159.692 180.387 159.579 180.538C159.465 180.687 159.303 180.821 159.092 180.94C158.881 181.056 158.601 181.114 158.251 181.114ZM158.364 180.361C158.7 180.361 158.984 180.273 159.216 180.098C159.448 179.92 159.625 179.675 159.746 179.363C159.866 179.048 159.927 178.685 159.927 178.273C159.927 177.866 159.867 177.509 159.749 177.204C159.631 176.896 159.456 176.657 159.224 176.487C158.992 176.314 158.705 176.227 158.364 176.227C158.009 176.227 157.713 176.318 157.476 176.501C157.242 176.681 157.066 176.926 156.947 177.236C156.831 177.544 156.773 177.889 156.773 178.273C156.773 178.661 156.832 179.014 156.951 179.331C157.072 179.646 157.249 179.897 157.483 180.084C157.72 180.268 158.014 180.361 158.364 180.361ZM164.689 181.114C164.163 181.114 163.71 180.998 163.329 180.766C162.95 180.531 162.657 180.205 162.452 179.786C162.248 179.364 162.146 178.874 162.146 178.315C162.146 177.757 162.248 177.264 162.452 176.838C162.657 176.41 162.944 176.076 163.311 175.837C163.68 175.595 164.111 175.474 164.604 175.474C164.888 175.474 165.168 175.522 165.445 175.616C165.722 175.711 165.974 175.865 166.202 176.078C166.429 176.289 166.61 176.568 166.745 176.916C166.88 177.264 166.947 177.693 166.947 178.202V178.557H162.743V177.832H166.095C166.095 177.525 166.033 177.25 165.91 177.009C165.79 176.767 165.617 176.576 165.392 176.437C165.169 176.297 164.907 176.227 164.604 176.227C164.27 176.227 163.981 176.31 163.737 176.476C163.496 176.639 163.31 176.852 163.18 177.115C163.049 177.378 162.984 177.66 162.984 177.96V178.443C162.984 178.855 163.055 179.204 163.197 179.491C163.342 179.775 163.542 179.991 163.797 180.141C164.053 180.287 164.35 180.361 164.689 180.361C164.909 180.361 165.108 180.33 165.285 180.268C165.465 180.205 165.62 180.11 165.751 179.984C165.881 179.857 165.981 179.698 166.052 179.509L166.862 179.736C166.777 180.01 166.634 180.252 166.432 180.46C166.231 180.666 165.983 180.827 165.687 180.943C165.391 181.057 165.058 181.114 164.689 181.114ZM172.516 175.545L170.499 181H169.647L167.63 175.545H168.539L170.045 179.892H170.102L171.607 175.545H172.516ZM175.714 181.114C175.189 181.114 174.735 180.998 174.354 180.766C173.975 180.531 173.683 180.205 173.477 179.786C173.273 179.364 173.172 178.874 173.172 178.315C173.172 177.757 173.273 177.264 173.477 176.838C173.683 176.41 173.969 176.076 174.336 175.837C174.706 175.595 175.136 175.474 175.629 175.474C175.913 175.474 176.194 175.522 176.471 175.616C176.748 175.711 177 175.865 177.227 176.078C177.454 176.289 177.635 176.568 177.77 176.916C177.905 177.264 177.973 177.693 177.973 178.202V178.557H173.768V177.832H177.12C177.12 177.525 177.059 177.25 176.936 177.009C176.815 176.767 176.642 176.576 176.417 176.437C176.195 176.297 175.932 176.227 175.629 176.227C175.295 176.227 175.006 176.31 174.762 176.476C174.521 176.639 174.335 176.852 174.205 177.115C174.075 177.378 174.01 177.66 174.01 177.96V178.443C174.01 178.855 174.081 179.204 174.223 179.491C174.367 179.775 174.567 179.991 174.823 180.141C175.078 180.287 175.376 180.361 175.714 180.361C175.934 180.361 176.133 180.33 176.311 180.268C176.491 180.205 176.646 180.11 176.776 179.984C176.906 179.857 177.007 179.698 177.078 179.509L177.887 179.736C177.802 180.01 177.659 180.252 177.458 180.46C177.257 180.666 177.008 180.827 176.712 180.943C176.416 181.057 176.083 181.114 175.714 181.114ZM180.086 173.727V181H179.248V173.727H180.086ZM183.836 181.114C183.344 181.114 182.912 180.996 182.54 180.762C182.171 180.528 181.882 180.2 181.674 179.778C181.468 179.357 181.365 178.865 181.365 178.301C181.365 177.733 181.468 177.237 181.674 176.813C181.882 176.389 182.171 176.06 182.54 175.826C182.912 175.592 183.344 175.474 183.836 175.474C184.329 175.474 184.76 175.592 185.129 175.826C185.501 176.06 185.79 176.389 185.996 176.813C186.204 177.237 186.308 177.733 186.308 178.301C186.308 178.865 186.204 179.357 185.996 179.778C185.79 180.2 185.501 180.528 185.129 180.762C184.76 180.996 184.329 181.114 183.836 181.114ZM183.836 180.361C184.211 180.361 184.518 180.265 184.76 180.073C185.001 179.881 185.18 179.629 185.296 179.317C185.412 179.004 185.47 178.666 185.47 178.301C185.47 177.937 185.412 177.597 185.296 177.282C185.18 176.967 185.001 176.713 184.76 176.518C184.518 176.324 184.211 176.227 183.836 176.227C183.462 176.227 183.155 176.324 182.913 176.518C182.672 176.713 182.493 176.967 182.377 177.282C182.261 177.597 182.203 177.937 182.203 178.301C182.203 178.666 182.261 179.004 182.377 179.317C182.493 179.629 182.672 179.881 182.913 180.073C183.155 180.265 183.462 180.361 183.836 180.361ZM187.587 183.045V175.545H188.397V176.412H188.496C188.558 176.317 188.643 176.196 188.752 176.05C188.863 175.901 189.022 175.768 189.228 175.652C189.436 175.534 189.718 175.474 190.073 175.474C190.532 175.474 190.937 175.589 191.288 175.819C191.638 176.049 191.911 176.374 192.108 176.795C192.304 177.217 192.403 177.714 192.403 178.287C192.403 178.865 192.304 179.365 192.108 179.789C191.911 180.21 191.639 180.537 191.291 180.769C190.943 180.999 190.542 181.114 190.087 181.114C189.737 181.114 189.456 181.056 189.246 180.94C189.035 180.821 188.873 180.687 188.759 180.538C188.646 180.387 188.558 180.261 188.496 180.162H188.425V183.045H187.587ZM188.411 178.273C188.411 178.685 188.472 179.048 188.592 179.363C188.713 179.675 188.889 179.92 189.121 180.098C189.353 180.273 189.638 180.361 189.974 180.361C190.324 180.361 190.616 180.268 190.851 180.084C191.088 179.897 191.265 179.646 191.384 179.331C191.504 179.014 191.565 178.661 191.565 178.273C191.565 177.889 191.505 177.544 191.387 177.236C191.271 176.926 191.095 176.681 190.858 176.501C190.624 176.318 190.329 176.227 189.974 176.227C189.633 176.227 189.346 176.314 189.114 176.487C188.882 176.657 188.707 176.896 188.589 177.204C188.47 177.509 188.411 177.866 188.411 178.273ZM195.968 181.114C195.442 181.114 194.989 180.998 194.608 180.766C194.229 180.531 193.937 180.205 193.731 179.786C193.527 179.364 193.425 178.874 193.425 178.315C193.425 177.757 193.527 177.264 193.731 176.838C193.937 176.41 194.223 176.076 194.59 175.837C194.96 175.595 195.39 175.474 195.883 175.474C196.167 175.474 196.447 175.522 196.724 175.616C197.001 175.711 197.254 175.865 197.481 176.078C197.708 176.289 197.889 176.568 198.024 176.916C198.159 177.264 198.227 177.693 198.227 178.202V178.557H194.022V177.832H197.374C197.374 177.525 197.313 177.25 197.19 177.009C197.069 176.767 196.896 176.576 196.671 176.437C196.449 176.297 196.186 176.227 195.883 176.227C195.549 176.227 195.26 176.31 195.016 176.476C194.775 176.639 194.589 176.852 194.459 177.115C194.329 177.378 194.263 177.66 194.263 177.96V178.443C194.263 178.855 194.335 179.204 194.477 179.491C194.621 179.775 194.821 179.991 195.077 180.141C195.332 180.287 195.629 180.361 195.968 180.361C196.188 180.361 196.387 180.33 196.565 180.268C196.745 180.205 196.9 180.11 197.03 179.984C197.16 179.857 197.261 179.698 197.332 179.509L198.141 179.736C198.056 180.01 197.913 180.252 197.712 180.46C197.51 180.666 197.262 180.827 196.966 180.943C196.67 181.057 196.337 181.114 195.968 181.114ZM199.501 181V175.545H200.311V176.369H200.368C200.467 176.099 200.647 175.88 200.908 175.712C201.168 175.544 201.462 175.46 201.788 175.46C201.85 175.46 201.927 175.461 202.019 175.464C202.112 175.466 202.181 175.47 202.229 175.474V176.327C202.2 176.32 202.135 176.309 202.033 176.295C201.934 176.278 201.829 176.27 201.717 176.27C201.452 176.27 201.215 176.326 201.007 176.437C200.801 176.546 200.638 176.697 200.517 176.891C200.399 177.083 200.339 177.302 200.339 177.548V181H199.501Z" fill="black"/>
</svg>
