<svg width="492" height="464" viewBox="0 0 492 464" fill="none" xmlns="http://www.w3.org/2000/svg">
<path d="M354 91C354 55.6538 382.654 27 418 27C453.346 27 482 55.6538 482 91C482 126.346 453.346 155 418 155C382.654 155 354 126.346 354 91Z" fill="#FFDF81"/>
<path d="M392.566 96.1398C391.656 96.1398 390.879 95.9321 390.235 95.5168C389.596 95.1015 389.106 94.5041 388.765 93.7248C388.429 92.9455 388.261 92.0051 388.261 90.9038C388.261 89.8071 388.429 88.8738 388.765 88.1038C389.101 87.3338 389.589 86.7481 390.228 86.3468C390.872 85.9408 391.651 85.7378 392.566 85.7378C393.28 85.7378 393.912 85.8871 394.463 86.1858C395.014 86.4798 395.457 86.8741 395.793 87.3688C396.129 87.8635 396.327 88.4071 396.388 88.9998H395.009C394.934 88.6031 394.792 88.2438 394.582 87.9218C394.372 87.5998 394.097 87.3431 393.756 87.1518C393.415 86.9605 393.007 86.8648 392.531 86.8648C391.92 86.8648 391.402 87.0095 390.977 87.2988C390.557 87.5835 390.237 88.0245 390.018 88.6218C389.803 89.2191 389.696 89.9845 389.696 90.9178C389.696 92.3271 389.936 93.3631 390.417 94.0258C390.902 94.6838 391.607 95.0128 392.531 95.0128C393.007 95.0128 393.415 94.9125 393.756 94.7118C394.097 94.5111 394.372 94.2428 394.582 93.9068C394.792 93.5708 394.934 93.2068 395.009 92.8148H396.388C396.337 93.2441 396.22 93.6595 396.038 94.0608C395.861 94.4575 395.616 94.8121 395.303 95.1248C394.99 95.4375 394.605 95.6848 394.148 95.8668C393.695 96.0488 393.168 96.1398 392.566 96.1398ZM401.099 96.1398C400.432 96.1398 399.848 95.9975 399.349 95.7128C398.854 95.4235 398.469 95.0011 398.194 94.4458C397.919 93.8905 397.781 93.2115 397.781 92.4088C397.781 91.6528 397.909 90.9901 398.166 90.4208C398.423 89.8515 398.798 89.4105 399.293 89.0978C399.788 88.7805 400.392 88.6218 401.106 88.6218C401.773 88.6218 402.352 88.7688 402.842 89.0628C403.332 89.3521 403.712 89.7791 403.983 90.3438C404.258 90.9085 404.396 91.5968 404.396 92.4088C404.396 93.1461 404.27 93.7948 404.018 94.3548C403.766 94.9148 403.395 95.3535 402.905 95.6708C402.42 95.9835 401.818 96.1398 401.099 96.1398ZM401.106 95.1178C401.535 95.1178 401.899 95.0081 402.198 94.7888C402.497 94.5695 402.723 94.2545 402.877 93.8438C403.036 93.4331 403.115 92.9455 403.115 92.3808C403.115 91.8628 403.045 91.3985 402.905 90.9878C402.77 90.5725 402.555 90.2435 402.261 90.0008C401.967 89.7581 401.582 89.6368 401.106 89.6368C400.667 89.6368 400.296 89.7465 399.993 89.9658C399.69 90.1805 399.459 90.4931 399.3 90.9038C399.146 91.3145 399.069 91.8068 399.069 92.3808C399.069 92.8895 399.137 93.3515 399.272 93.7668C399.412 94.1821 399.631 94.5111 399.93 94.7538C400.233 94.9965 400.625 95.1178 401.106 95.1178ZM406.117 95.9998V88.7618H407.363V89.8118C407.564 89.4945 407.839 89.2168 408.189 88.9788C408.539 88.7408 408.994 88.6218 409.554 88.6218C409.815 88.6218 410.081 88.6661 410.352 88.7548C410.627 88.8435 410.879 88.9765 411.108 89.1538C411.337 89.3311 411.514 89.5481 411.64 89.8048C411.864 89.4501 412.167 89.1655 412.55 88.9508C412.933 88.7315 413.364 88.6218 413.845 88.6218C414.097 88.6218 414.361 88.6615 414.636 88.7408C414.911 88.8155 415.166 88.9508 415.399 89.1468C415.637 89.3381 415.831 89.6065 415.98 89.9518C416.129 90.2925 416.204 90.7311 416.204 91.2678V95.9998H414.902V91.3938C414.902 90.9551 414.832 90.6168 414.692 90.3788C414.552 90.1361 414.368 89.9658 414.139 89.8678C413.915 89.7698 413.675 89.7208 413.418 89.7208C413.194 89.7208 412.956 89.7651 412.704 89.8538C412.452 89.9425 412.237 90.0918 412.06 90.3018C411.883 90.5118 411.794 90.7988 411.794 91.1628V95.9998H410.506V91.0158C410.506 90.7311 410.429 90.4931 410.275 90.3018C410.126 90.1105 409.937 89.9658 409.708 89.8678C409.484 89.7698 409.26 89.7208 409.036 89.7208C408.789 89.7208 408.539 89.7698 408.287 89.8678C408.04 89.9658 407.83 90.1221 407.657 90.3368C407.489 90.5468 407.405 90.8221 407.405 91.1628V95.9998H406.117ZM418.23 98.2538V88.7618H419.518L419.532 90.0218C419.616 89.8725 419.724 89.7161 419.854 89.5528C419.99 89.3895 420.153 89.2378 420.344 89.0978C420.54 88.9578 420.767 88.8435 421.023 88.7548C421.285 88.6661 421.581 88.6218 421.912 88.6218C422.491 88.6218 423 88.7548 423.438 89.0208C423.882 89.2821 424.227 89.6835 424.474 90.2248C424.722 90.7661 424.845 91.4521 424.845 92.2828C424.845 93.1135 424.724 93.8158 424.481 94.3898C424.243 94.9591 423.898 95.3931 423.445 95.6918C422.993 95.9905 422.447 96.1398 421.807 96.1398C421.485 96.1398 421.198 96.0931 420.946 95.9998C420.699 95.9111 420.482 95.7945 420.295 95.6498C420.113 95.5005 419.959 95.3418 419.833 95.1738C419.712 95.0058 419.612 94.8448 419.532 94.6908V98.2538H418.23ZM421.562 95.1318C422.16 95.1318 422.647 94.9055 423.025 94.4528C423.403 93.9955 423.592 93.2861 423.592 92.3248C423.592 91.4988 423.42 90.8431 423.074 90.3578C422.729 89.8725 422.225 89.6298 421.562 89.6298C420.89 89.6298 420.382 89.8795 420.036 90.3788C419.691 90.8735 419.518 91.5221 419.518 92.3248C419.518 92.8428 419.595 93.3141 419.749 93.7388C419.903 94.1635 420.132 94.5018 420.435 94.7538C420.739 95.0058 421.114 95.1318 421.562 95.1318ZM428.518 96.1398C428.047 96.1398 427.631 96.0581 427.272 95.8948C426.917 95.7268 426.637 95.4865 426.432 95.1738C426.231 94.8611 426.131 94.4831 426.131 94.0398C426.131 93.2371 426.411 92.6398 426.971 92.2478C427.531 91.8558 428.429 91.6458 429.666 91.6178L430.954 91.5828V91.0158C430.954 90.5725 430.821 90.2225 430.555 89.9658C430.289 89.7045 429.878 89.5738 429.323 89.5738C428.908 89.5785 428.541 89.6765 428.224 89.8678C427.907 90.0591 427.704 90.3718 427.615 90.8058H426.474C426.502 90.3345 426.633 89.9378 426.866 89.6158C427.104 89.2891 427.438 89.0418 427.867 88.8738C428.296 88.7058 428.803 88.6218 429.386 88.6218C430.016 88.6218 430.539 88.7105 430.954 88.8878C431.374 89.0651 431.687 89.3265 431.892 89.6718C432.102 90.0171 432.207 90.4418 432.207 90.9458V95.9998H431.101L431.003 94.6418C430.728 95.2065 430.373 95.5985 429.939 95.8178C429.51 96.0325 429.036 96.1398 428.518 96.1398ZM428.903 95.2088C429.15 95.2088 429.393 95.1645 429.631 95.0758C429.874 94.9871 430.093 94.8681 430.289 94.7188C430.49 94.5648 430.651 94.3945 430.772 94.2078C430.893 94.0165 430.954 93.8205 430.954 93.6198V92.3808L429.883 92.4018C429.328 92.4111 428.866 92.4671 428.497 92.5698C428.128 92.6725 427.851 92.8335 427.664 93.0528C427.477 93.2721 427.384 93.5591 427.384 93.9138C427.384 94.3198 427.526 94.6371 427.811 94.8658C428.096 95.0945 428.46 95.2088 428.903 95.2088ZM434.226 95.9998V88.7618H435.479V89.8118C435.596 89.6111 435.757 89.4221 435.962 89.2448C436.172 89.0675 436.424 88.9251 436.718 88.8178C437.017 88.7105 437.36 88.6568 437.747 88.6568C438.205 88.6568 438.625 88.7478 439.007 88.9298C439.395 89.1118 439.703 89.3965 439.931 89.7838C440.165 90.1665 440.281 90.6611 440.281 91.2678V95.9998H438.986V91.3938C438.986 90.8291 438.837 90.4115 438.538 90.1408C438.244 89.8655 437.862 89.7278 437.39 89.7278C437.064 89.7278 436.758 89.7815 436.473 89.8888C436.189 89.9915 435.958 90.1501 435.78 90.3648C435.603 90.5748 435.514 90.8408 435.514 91.1628V95.9998H434.226ZM442.795 98.3098C442.37 98.3098 442.079 98.2795 441.92 98.2188C441.761 98.1581 441.682 98.1278 441.682 98.1278V97.2878L442.424 97.3018C442.69 97.3111 442.912 97.2925 443.089 97.2458C443.266 97.1991 443.409 97.1361 443.516 97.0568C443.623 96.9775 443.705 96.8888 443.761 96.7908C443.822 96.6928 443.871 96.5995 443.908 96.5108L444.16 95.8248L441.332 88.7618H442.641L444.776 94.3478L446.897 88.7618H448.164L445.119 96.5458C444.928 97.0031 444.715 97.3601 444.482 97.6168C444.253 97.8735 443.997 98.0531 443.712 98.1558C443.432 98.2585 443.126 98.3098 442.795 98.3098Z" fill="#1A1B1D"/>
<path d="M189 373C189 337.654 217.654 309 253 309C288.346 309 317 337.654 317 373C317 408.346 288.346 437 253 437C217.654 437 189 408.346 189 373Z" fill="#56C7E4"/>
<path d="M10 91C10 55.6538 38.6538 27 74 27C109.346 27 138 55.6538 138 91C138 126.346 109.346 155 74 155C38.6538 155 10 126.346 10 91Z" fill="#C990C0"/>
<path d="M52.7239 95.9999V85.8779H56.1469C56.8703 85.8779 57.5143 85.9992 58.0789 86.2419C58.6436 86.4846 59.0869 86.8439 59.4089 87.3199C59.7356 87.7959 59.8989 88.3816 59.8989 89.0769C59.8989 89.7489 59.7473 90.3229 59.4439 90.7989C59.1453 91.2749 58.7276 91.6366 58.1909 91.8839C57.6543 92.1312 57.0313 92.2549 56.3219 92.2549H54.0539V95.9999H52.7239ZM54.0469 91.1629H56.2939C56.9893 91.1629 57.5539 90.9692 57.9879 90.5819C58.4219 90.1946 58.6389 89.6672 58.6389 88.9999C58.6389 88.3279 58.4149 87.8192 57.9669 87.4739C57.5189 87.1286 56.9403 86.9559 56.2309 86.9559H54.0469V91.1629ZM64.3079 96.1399C63.6359 96.1399 63.0433 95.9929 62.5299 95.6989C62.0166 95.4049 61.6153 94.9826 61.3259 94.4319C61.0366 93.8812 60.8919 93.2209 60.8919 92.4509C60.8919 91.6902 61.0226 91.0229 61.2839 90.4489C61.5453 89.8749 61.9233 89.4269 62.4179 89.1049C62.9173 88.7829 63.5169 88.6219 64.2169 88.6219C64.8983 88.6219 65.4746 88.7689 65.9459 89.0629C66.4173 89.3569 66.7743 89.7722 67.0169 90.3089C67.2643 90.8409 67.3879 91.4732 67.3879 92.2059V92.6819H62.2009C62.2009 93.1392 62.2756 93.5546 62.4249 93.9279C62.5789 94.2966 62.8099 94.5906 63.1179 94.8099C63.4259 95.0292 63.8156 95.1389 64.2869 95.1389C64.7489 95.1389 65.1456 95.0316 65.4769 94.8169C65.8129 94.6022 66.0276 94.2919 66.1209 93.8859H67.3389C67.2549 94.3759 67.0589 94.7889 66.7509 95.1249C66.4476 95.4609 66.0813 95.7152 65.6519 95.8879C65.2273 96.0559 64.7793 96.1399 64.3079 96.1399ZM62.2079 91.8069H66.1419C66.1419 91.3916 66.0719 91.0182 65.9319 90.6869C65.7919 90.3509 65.5773 90.0872 65.2879 89.8959C65.0033 89.6999 64.6439 89.6019 64.2099 89.6019C63.7573 89.6019 63.3816 89.7116 63.0829 89.9309C62.7843 90.1456 62.5626 90.4232 62.4179 90.7639C62.2733 91.0999 62.2033 91.4476 62.2079 91.8069ZM69.1786 95.9999V88.7619H70.4106V90.1549C70.532 89.8096 70.7023 89.5249 70.9216 89.3009C71.141 89.0722 71.3906 88.9019 71.6706 88.7899C71.9553 88.6779 72.2493 88.6219 72.5526 88.6219C72.66 88.6219 72.765 88.6289 72.8676 88.6429C72.9703 88.6569 73.0496 88.6802 73.1056 88.7129V89.9659C73.0356 89.9332 72.9446 89.9122 72.8326 89.9029C72.7253 89.8889 72.6343 89.8819 72.5596 89.8819C72.2703 89.8632 71.9996 89.8819 71.7476 89.9379C71.4956 89.9892 71.274 90.0802 71.0826 90.2109C70.8913 90.3416 70.7396 90.5142 70.6276 90.7289C70.5203 90.9389 70.4666 91.1956 70.4666 91.4989V95.9999H69.1786ZM77.2104 96.1399C76.7064 96.1399 76.2374 96.0629 75.8034 95.9089C75.374 95.7502 75.017 95.5052 74.7324 95.1739C74.4477 94.8379 74.2704 94.4109 74.2004 93.8929H75.3764C75.437 94.1776 75.5536 94.4156 75.7263 94.6069C75.8989 94.7936 76.1114 94.9359 76.3634 95.0339C76.62 95.1272 76.9 95.1739 77.2034 95.1739C77.6934 95.1739 78.0877 95.0829 78.3864 94.9009C78.685 94.7189 78.8344 94.4389 78.8344 94.0609C78.8344 93.7949 78.755 93.5826 78.5964 93.4239C78.4424 93.2606 78.1997 93.1416 77.8684 93.0669L76.3704 92.6959C75.787 92.5559 75.3204 92.3366 74.9704 92.0379C74.625 91.7392 74.45 91.3216 74.4454 90.7849C74.4454 90.3602 74.548 89.9869 74.7534 89.6649C74.9587 89.3429 75.2643 89.0886 75.6703 88.9019C76.0809 88.7152 76.592 88.6219 77.2034 88.6219C77.992 88.6219 78.6267 88.7992 79.1074 89.1539C79.588 89.5039 79.84 90.0196 79.8634 90.7009H78.7154C78.6687 90.3556 78.5147 90.0826 78.2534 89.8819C77.992 89.6766 77.6374 89.5739 77.1894 89.5739C76.732 89.5739 76.3564 89.6672 76.0624 89.8539C75.773 90.0359 75.6284 90.3206 75.6284 90.7079C75.6284 90.9646 75.731 91.1676 75.9364 91.3169C76.1464 91.4616 76.4497 91.5829 76.8464 91.6809L78.3024 92.0449C78.6337 92.1336 78.909 92.2502 79.1284 92.3949C79.3477 92.5396 79.5204 92.7006 79.6464 92.8779C79.7724 93.0552 79.861 93.2419 79.9124 93.4379C79.9684 93.6292 79.9964 93.8136 79.9964 93.9909C79.9964 94.4342 79.8867 94.8169 79.6674 95.1389C79.448 95.4562 79.1307 95.7036 78.7154 95.8809C78.3 96.0536 77.7984 96.1399 77.2104 96.1399ZM84.5864 96.1399C83.9191 96.1399 83.3357 95.9976 82.8364 95.7129C82.3417 95.4236 81.9567 95.0012 81.6814 94.4459C81.4061 93.8906 81.2684 93.2116 81.2684 92.4089C81.2684 91.6529 81.3967 90.9902 81.6534 90.4209C81.9101 89.8516 82.2857 89.4106 82.7804 89.0979C83.2751 88.7806 83.8794 88.6219 84.5934 88.6219C85.2607 88.6219 85.8394 88.7689 86.3294 89.0629C86.8194 89.3522 87.1997 89.7792 87.4704 90.3439C87.7457 90.9086 87.8834 91.5969 87.8834 92.4089C87.8834 93.1462 87.7574 93.7949 87.5054 94.3549C87.2534 94.9149 86.8824 95.3536 86.3924 95.6709C85.9071 95.9836 85.3051 96.1399 84.5864 96.1399ZM84.5934 95.1179C85.0227 95.1179 85.3867 95.0082 85.6854 94.7889C85.9841 94.5696 86.2104 94.2546 86.3644 93.8439C86.5231 93.4332 86.6024 92.9456 86.6024 92.3809C86.6024 91.8629 86.5324 91.3986 86.3924 90.9879C86.2571 90.5726 86.0424 90.2436 85.7484 90.0009C85.4544 89.7582 85.0694 89.6369 84.5934 89.6369C84.1547 89.6369 83.7837 89.7466 83.4804 89.9659C83.1771 90.1806 82.9461 90.4932 82.7874 90.9039C82.6334 91.3146 82.5564 91.8069 82.5564 92.3809C82.5564 92.8896 82.6241 93.3516 82.7594 93.7669C82.8994 94.1822 83.1187 94.5112 83.4174 94.7539C83.7207 94.9966 84.1127 95.1179 84.5934 95.1179ZM89.6044 95.9999V88.7619H90.8574V89.8119C90.9741 89.6112 91.1351 89.4222 91.3404 89.2449C91.5504 89.0676 91.8024 88.9252 92.0964 88.8179C92.3951 88.7106 92.7381 88.6569 93.1254 88.6569C93.5827 88.6569 94.0027 88.7479 94.3854 88.9299C94.7727 89.1119 95.0806 89.3966 95.3093 89.7839C95.5426 90.1666 95.6594 90.6612 95.6594 91.2679V95.9999H94.3644V91.3939C94.3644 90.8292 94.2151 90.4116 93.9164 90.1409C93.6224 89.8656 93.2397 89.7279 92.7684 89.7279C92.4417 89.7279 92.136 89.7816 91.8513 89.8889C91.5666 89.9916 91.3357 90.1502 91.1584 90.3649C90.9811 90.5749 90.8924 90.8409 90.8924 91.1629V95.9999H89.6044Z" fill="white"/>
<path d="M253 123.995C252.997 123.442 252.547 122.997 251.995 123C251.442 123.003 250.997 123.453 251 124.005L253 123.995ZM251.398 197.693C251.401 198.245 251.851 198.691 252.404 198.688C252.956 198.685 253.401 198.234 253.398 197.682L251.398 197.693ZM253.583 231.807C253.58 231.255 253.13 230.81 252.577 230.813C252.025 230.816 251.58 231.266 251.583 231.818L253.583 231.807ZM252.278 306.211C252.67 306.599 253.304 306.596 253.692 306.203L260.021 299.805C260.41 299.412 260.406 298.779 260.014 298.391C259.621 298.002 258.988 298.006 258.6 298.399L252.973 304.086L247.286 298.46C246.893 298.071 246.26 298.075 245.872 298.467C245.483 298.86 245.487 299.493 245.88 299.881L252.278 306.211ZM251 124.005L251.398 197.693L253.398 197.682L253 123.995L251 124.005ZM251.583 231.818L251.981 305.505L253.981 305.495L253.583 231.807L251.583 231.818Z" fill="#1A1B1D"/>
<path d="M351.207 91.7073C351.598 91.3168 351.598 90.6836 351.207 90.2931L344.843 83.9291C344.453 83.5386 343.819 83.5386 343.429 83.9291C343.038 84.3197 343.038 84.9528 343.429 85.3433L349.086 91.0002L343.429 96.6571C343.038 97.0476 343.038 97.6807 343.429 98.0713C343.819 98.4618 344.453 98.4618 344.843 98.0713L351.207 91.7073ZM294.562 90.0002C294.01 90.0002 293.562 90.4479 293.562 91.0002C293.562 91.5525 294.01 92.0002 294.562 92.0002V90.0002ZM197.438 92.0002C197.99 92.0002 198.438 91.5525 198.438 91.0002C198.438 90.4479 197.99 90.0002 197.438 90.0002V92.0002ZM141.5 90.0002C140.948 90.0002 140.5 90.4479 140.5 91.0002C140.5 91.5525 140.948 92.0002 141.5 92.0002V90.0002ZM350.5 90.0002H294.562V92.0002H350.5V90.0002ZM197.438 90.0002H141.5V92.0002H197.438V90.0002Z" fill="#1A1B1D"/>
<path d="M207.53 75.5002L204.706 65.3184H206.322L208.306 73.2033H208.4L210.463 65.3184H212.064L214.127 73.2083H214.222L216.2 65.3184H217.821L214.992 75.5002H213.446L211.303 67.8738H211.224L209.081 75.5002H207.53ZM227.407 70.4093C227.407 71.4964 227.208 72.4311 226.81 73.2133C226.412 73.9922 225.867 74.5921 225.174 75.013C224.485 75.4306 223.701 75.6394 222.823 75.6394C221.941 75.6394 221.154 75.4306 220.461 75.013C219.772 74.5921 219.228 73.9905 218.831 73.2083C218.433 72.4261 218.234 71.4931 218.234 70.4093C218.234 69.3222 218.433 68.3892 218.831 67.6103C219.228 66.8281 219.772 66.2282 220.461 65.8106C221.154 65.3896 221.941 65.1792 222.823 65.1792C223.701 65.1792 224.485 65.3896 225.174 65.8106C225.867 66.2282 226.412 66.8281 226.81 67.6103C227.208 68.3892 227.407 69.3222 227.407 70.4093ZM225.885 70.4093C225.885 69.5807 225.751 68.883 225.483 68.3163C225.217 67.7462 224.853 67.3153 224.389 67.0236C223.928 66.7287 223.406 66.5812 222.823 66.5812C222.236 66.5812 221.712 66.7287 221.252 67.0236C220.791 67.3153 220.426 67.7462 220.158 68.3163C219.893 68.883 219.76 69.5807 219.76 70.4093C219.76 71.2379 219.893 71.9372 220.158 72.5073C220.426 73.0741 220.791 73.5049 221.252 73.7999C221.712 74.0916 222.236 74.2374 222.823 74.2374C223.406 74.2374 223.928 74.0916 224.389 73.7999C224.853 73.5049 225.217 73.0741 225.483 72.5073C225.751 71.9372 225.885 71.2379 225.885 70.4093ZM229.168 75.5002V65.3184H232.797C233.586 65.3184 234.24 65.4543 234.761 65.7261C235.285 65.9978 235.676 66.374 235.934 66.8546C236.193 67.3319 236.322 67.8837 236.322 68.5101C236.322 69.1332 236.191 69.6818 235.929 70.1557C235.671 70.6264 235.28 70.9926 234.756 71.2545C234.236 71.5163 233.581 71.6472 232.792 71.6472H230.043V70.3248H232.653C233.15 70.3248 233.554 70.2535 233.866 70.111C234.181 69.9685 234.411 69.7613 234.557 69.4895C234.703 69.2178 234.776 68.8913 234.776 68.5101C234.776 68.1257 234.701 67.7926 234.552 67.5109C234.406 67.2291 234.176 67.0137 233.861 66.8645C233.549 66.7121 233.14 66.6359 232.633 66.6359H230.704V75.5002H229.168ZM234.194 70.9064L236.71 75.5002H234.96L232.494 70.9064H234.194ZM238.037 75.5002V65.3184H239.573V70.1806H239.698L243.968 65.3184H245.902L241.796 69.9022L245.917 75.5002H244.068L240.777 70.9512L239.573 72.3333V75.5002H238.037ZM247.18 75.5002V65.3184H253.564V66.6408H248.716V69.7431H253.231V71.0606H248.716V74.1778H253.623V75.5002H247.18ZM258.758 75.5002H255.462V65.3184H258.862C259.86 65.3184 260.717 65.5222 261.433 65.9299C262.148 66.3342 262.697 66.9159 263.078 67.6749C263.463 68.4306 263.655 69.3371 263.655 70.3944C263.655 71.455 263.461 72.3664 263.073 73.1288C262.689 73.8911 262.132 74.4777 261.403 74.8887C260.674 75.2964 259.792 75.5002 258.758 75.5002ZM256.998 74.1579H258.673C259.449 74.1579 260.094 74.012 260.607 73.7204C261.121 73.4254 261.505 72.9995 261.761 72.4427C262.016 71.8825 262.143 71.1998 262.143 70.3944C262.143 69.5956 262.016 68.9178 261.761 68.361C261.509 67.8042 261.133 67.3816 260.632 67.0932C260.132 66.8049 259.51 66.6607 258.768 66.6607H256.998V74.1579ZM270.185 75.5002V76.763H263.717V75.5002H270.185ZM271.996 75.5002H270.365L274.03 65.3184H275.804L279.468 75.5002H277.838L274.959 67.1678H274.88L271.996 75.5002ZM272.27 71.513H277.559V72.8056H272.27V71.513ZM279.08 66.6408V65.3184H286.96V66.6408H283.783V75.5002H282.251V66.6408H279.08ZM215.315 88.8638V90.057H210.999V88.8638H215.315ZM212.183 96.5002V87.9789C212.183 87.5016 212.287 87.1055 212.496 86.7907C212.705 86.4725 212.981 86.2355 213.326 86.0797C213.671 85.9207 214.045 85.8411 214.45 85.8411C214.748 85.8411 215.003 85.866 215.215 85.9157C215.427 85.9621 215.585 86.0052 215.688 86.0449L215.34 87.2481C215.27 87.2282 215.181 87.205 215.071 87.1785C214.962 87.1486 214.829 87.1337 214.673 87.1337C214.312 87.1337 214.054 87.2232 213.898 87.4022C213.745 87.5812 213.669 87.8397 213.669 88.1778V96.5002H212.183ZM216.695 96.5002V88.8638H218.131V90.0769H218.211C218.35 89.6659 218.595 89.3428 218.947 89.1074C219.301 88.8688 219.702 88.7495 220.15 88.7495C220.243 88.7495 220.352 88.7528 220.478 88.7594C220.607 88.7661 220.708 88.7743 220.781 88.7843V90.2062C220.722 90.1896 220.615 90.1714 220.463 90.1515C220.311 90.1283 220.158 90.1167 220.006 90.1167C219.654 90.1167 219.341 90.1913 219.066 90.3404C218.794 90.4862 218.579 90.6901 218.42 90.9519C218.261 91.2104 218.181 91.5054 218.181 91.8368V96.5002H216.695ZM224.857 96.6543C224.141 96.6543 223.516 96.4903 222.982 96.1621C222.449 95.834 222.035 95.375 221.74 94.785C221.445 94.195 221.297 93.5056 221.297 92.7168C221.297 91.9247 221.445 91.232 221.74 90.6387C222.035 90.0454 222.449 89.5847 222.982 89.2566C223.516 88.9285 224.141 88.7644 224.857 88.7644C225.573 88.7644 226.197 88.9285 226.731 89.2566C227.265 89.5847 227.679 90.0454 227.974 90.6387C228.269 91.232 228.416 91.9247 228.416 92.7168C228.416 93.5056 228.269 94.195 227.974 94.785C227.679 95.375 227.265 95.834 226.731 96.1621C226.197 96.4903 225.573 96.6543 224.857 96.6543ZM224.862 95.4064C225.326 95.4064 225.71 95.2838 226.015 95.0386C226.32 94.7933 226.545 94.4668 226.691 94.0591C226.84 93.6515 226.915 93.2024 226.915 92.7118C226.915 92.2246 226.84 91.7772 226.691 91.3695C226.545 90.9585 226.32 90.6288 226.015 90.3802C225.71 90.1316 225.326 90.0073 224.862 90.0073C224.394 90.0073 224.007 90.1316 223.698 90.3802C223.393 90.6288 223.166 90.9585 223.017 91.3695C222.871 91.7772 222.799 92.2246 222.799 92.7118C222.799 93.2024 222.871 93.6515 223.017 94.0591C223.166 94.4668 223.393 94.7933 223.698 95.0386C224.007 95.2838 224.394 95.4064 224.862 95.4064ZM229.922 96.5002V88.8638H231.349V90.1067H231.443C231.602 89.6858 231.862 89.3577 232.224 89.1224C232.585 88.8837 233.017 88.7644 233.521 88.7644C234.032 88.7644 234.459 88.8837 234.804 89.1224C235.152 89.361 235.409 89.6891 235.574 90.1067H235.654C235.836 89.6991 236.126 89.3743 236.524 89.1323C236.922 88.887 237.396 88.7644 237.946 88.7644C238.639 88.7644 239.204 88.9815 239.641 89.4157C240.082 89.8499 240.302 90.5045 240.302 91.3795V96.5002H238.816V91.5187C238.816 91.0016 238.675 90.6271 238.393 90.3951C238.112 90.1631 237.775 90.0471 237.384 90.0471C236.9 90.0471 236.524 90.1962 236.256 90.4945C235.987 90.7895 235.853 91.169 235.853 91.633V96.5002H234.371V91.4242C234.371 91.0099 234.242 90.6768 233.983 90.4249C233.725 90.173 233.389 90.0471 232.974 90.0471C232.693 90.0471 232.432 90.1216 232.194 90.2708C231.958 90.4166 231.768 90.6205 231.622 90.8823C231.479 91.1441 231.408 91.4474 231.408 91.7921V96.5002H229.922ZM243.12 96.5947C242.848 96.5947 242.615 96.4985 242.419 96.3063C242.224 96.1108 242.126 95.8754 242.126 95.6003C242.126 95.3286 242.224 95.0966 242.419 94.9043C242.615 94.7088 242.848 94.611 243.12 94.611C243.392 94.611 243.626 94.7088 243.821 94.9043C244.017 95.0966 244.114 95.3286 244.114 95.6003C244.114 95.7826 244.068 95.95 243.975 96.1025C243.886 96.2516 243.766 96.3709 243.617 96.4604C243.468 96.5499 243.302 96.5947 243.12 96.5947ZM243.12 91.0364C242.848 91.0364 242.615 90.9386 242.419 90.7431C242.224 90.5475 242.126 90.3139 242.126 90.0421C242.126 89.7703 242.224 89.5383 242.419 89.3461C242.615 89.1505 242.848 89.0528 243.12 89.0528C243.392 89.0528 243.626 89.1505 243.821 89.3461C244.017 89.5383 244.114 89.7703 244.114 90.0421C244.114 90.2244 244.068 90.3918 243.975 90.5442C243.886 90.6934 243.766 90.8127 243.617 90.9022C243.468 90.9917 243.302 91.0364 243.12 91.0364ZM249.483 96.5002V95.3866L252.928 91.817C253.296 91.4292 253.599 91.0895 253.838 90.7978C254.08 90.5028 254.26 90.2227 254.38 89.9576C254.499 89.6924 254.559 89.4107 254.559 89.1124C254.559 88.7743 254.479 88.4827 254.32 88.2374C254.161 87.9888 253.944 87.7983 253.669 87.6657C253.394 87.5298 253.084 87.4618 252.739 87.4618C252.375 87.4618 252.056 87.5364 251.785 87.6856C251.513 87.8347 251.304 88.0452 251.158 88.317C251.012 88.5887 250.939 88.9069 250.939 89.2715H249.473C249.473 88.6517 249.615 88.1098 249.9 87.6458C250.185 87.1818 250.577 86.8222 251.074 86.567C251.571 86.3084 252.136 86.1792 252.769 86.1792C253.409 86.1792 253.972 86.3068 254.459 86.562C254.95 86.8139 255.333 87.1586 255.608 87.5961C255.883 88.0303 256.02 88.5208 256.02 89.0677C256.02 89.4455 255.949 89.8151 255.807 90.1763C255.667 90.5376 255.424 90.9403 255.076 91.3844C254.728 91.8252 254.244 92.3605 253.624 92.9903L251.601 95.1082V95.1827H256.184V96.5002H249.483ZM261.459 96.6692C260.674 96.6659 260.003 96.4588 259.446 96.0478C258.889 95.6368 258.463 95.0386 258.168 94.253C257.873 93.4675 257.726 92.5213 257.726 91.4143C257.726 90.3106 257.873 89.3676 258.168 88.5854C258.467 87.8032 258.894 87.2066 259.451 86.7957C260.011 86.3847 260.681 86.1792 261.459 86.1792C262.238 86.1792 262.906 86.3863 263.463 86.8006C264.02 87.2116 264.446 87.8082 264.741 88.5904C265.039 89.3693 265.188 90.3106 265.188 91.4143C265.188 92.5246 265.041 93.4725 264.746 94.258C264.451 95.0402 264.025 95.6385 263.468 96.0528C262.911 96.4637 262.242 96.6692 261.459 96.6692ZM261.459 95.3418C262.149 95.3418 262.687 95.0054 263.075 94.3326C263.466 93.6598 263.662 92.687 263.662 91.4143C263.662 90.5691 263.572 89.8548 263.393 89.2715C263.218 88.6849 262.964 88.2407 262.633 87.9391C262.305 87.6342 261.914 87.4817 261.459 87.4817C260.773 87.4817 260.235 87.8198 259.844 88.4959C259.453 89.1721 259.255 90.1448 259.252 91.4143C259.252 92.2627 259.34 92.9803 259.516 93.567C259.695 94.1503 259.948 94.5928 260.276 94.8944C260.604 95.1927 260.999 95.3418 261.459 95.3418ZM270.343 96.6692C269.557 96.6659 268.886 96.4588 268.329 96.0478C267.772 95.6368 267.346 95.0386 267.051 94.253C266.756 93.4675 266.609 92.5213 266.609 91.4143C266.609 90.3106 266.756 89.3676 267.051 88.5854C267.35 87.8032 267.777 87.2066 268.334 86.7957C268.894 86.3847 269.564 86.1792 270.343 86.1792C271.121 86.1792 271.789 86.3863 272.346 86.8006C272.903 87.2116 273.329 87.8082 273.624 88.5904C273.922 89.3693 274.071 90.3106 274.071 91.4143C274.071 92.5246 273.924 93.4725 273.629 94.258C273.334 95.0402 272.908 95.6385 272.351 96.0528C271.794 96.4637 271.125 96.6692 270.343 96.6692ZM270.343 95.3418C271.032 95.3418 271.571 95.0054 271.958 94.3326C272.349 93.6598 272.545 92.687 272.545 91.4143C272.545 90.5691 272.455 89.8548 272.277 89.2715C272.101 88.6849 271.847 88.2407 271.516 87.9391C271.188 87.6342 270.797 87.4817 270.343 87.4817C269.656 87.4817 269.118 87.8198 268.727 88.4959C268.336 89.1721 268.139 90.1448 268.135 91.4143C268.135 92.2627 268.223 92.9803 268.399 93.567C268.578 94.1503 268.831 94.5928 269.159 94.8944C269.487 95.1927 269.882 95.3418 270.343 95.3418ZM279.544 86.3184V96.5002H278.003V87.8596H277.943L275.507 89.4505V87.9789L278.047 86.3184H279.544ZM222.816 109.864V111.057H218.645V109.864H222.816ZM219.763 108.034H221.25V115.258C221.25 115.546 221.293 115.763 221.379 115.909C221.465 116.052 221.576 116.149 221.712 116.202C221.851 116.252 222.002 116.277 222.165 116.277C222.284 116.277 222.388 116.269 222.478 116.252C222.567 116.236 222.637 116.222 222.687 116.212L222.955 117.44C222.869 117.473 222.746 117.507 222.587 117.54C222.428 117.576 222.229 117.596 221.991 117.599C221.599 117.606 221.235 117.536 220.897 117.391C220.559 117.245 220.285 117.019 220.076 116.714C219.868 116.41 219.763 116.027 219.763 115.566V108.034ZM227.441 117.654C226.725 117.654 226.1 117.49 225.566 117.162C225.033 116.834 224.619 116.375 224.324 115.785C224.029 115.195 223.881 114.505 223.881 113.717C223.881 112.924 224.029 112.232 224.324 111.638C224.619 111.045 225.033 110.585 225.566 110.256C226.1 109.928 226.725 109.764 227.441 109.764C228.157 109.764 228.781 109.928 229.315 110.256C229.849 110.585 230.263 111.045 230.558 111.638C230.853 112.232 231 112.924 231 113.717C231 114.505 230.853 115.195 230.558 115.785C230.263 116.375 229.849 116.834 229.315 117.162C228.781 117.49 228.157 117.654 227.441 117.654ZM227.446 116.406C227.91 116.406 228.294 116.284 228.599 116.038C228.904 115.793 229.129 115.467 229.275 115.059C229.424 114.651 229.499 114.202 229.499 113.712C229.499 113.224 229.424 112.777 229.275 112.369C229.129 111.958 228.904 111.629 228.599 111.38C228.294 111.131 227.91 111.007 227.446 111.007C226.978 111.007 226.591 111.131 226.282 111.38C225.977 111.629 225.75 111.958 225.601 112.369C225.455 112.777 225.383 113.224 225.383 113.712C225.383 114.202 225.455 114.651 225.601 115.059C225.75 115.467 225.977 115.793 226.282 116.038C226.591 116.284 226.978 116.406 227.446 116.406ZM233.485 117.594C233.213 117.594 232.98 117.498 232.784 117.306C232.589 117.111 232.491 116.875 232.491 116.6C232.491 116.328 232.589 116.096 232.784 115.904C232.98 115.709 233.213 115.611 233.485 115.611C233.757 115.611 233.991 115.709 234.186 115.904C234.382 116.096 234.479 116.328 234.479 116.6C234.479 116.782 234.433 116.95 234.34 117.102C234.251 117.251 234.131 117.371 233.982 117.46C233.833 117.55 233.667 117.594 233.485 117.594ZM233.485 112.036C233.213 112.036 232.98 111.938 232.784 111.743C232.589 111.547 232.491 111.314 232.491 111.042C232.491 110.77 232.589 110.538 232.784 110.346C232.98 110.15 233.213 110.053 233.485 110.053C233.757 110.053 233.991 110.15 234.186 110.346C234.382 110.538 234.479 110.77 234.479 111.042C234.479 111.224 234.433 111.392 234.34 111.544C234.251 111.693 234.131 111.812 233.982 111.902C233.833 111.991 233.667 112.036 233.485 112.036ZM239.848 117.5V116.386L243.293 112.817C243.661 112.429 243.964 112.089 244.203 111.798C244.445 111.503 244.625 111.223 244.745 110.957C244.864 110.692 244.924 110.411 244.924 110.112C244.924 109.774 244.844 109.482 244.685 109.237C244.526 108.989 244.309 108.798 244.034 108.665C243.759 108.53 243.449 108.462 243.104 108.462C242.74 108.462 242.421 108.536 242.15 108.685C241.878 108.835 241.669 109.045 241.523 109.317C241.377 109.589 241.304 109.907 241.304 110.271H239.838C239.838 109.652 239.98 109.11 240.265 108.646C240.55 108.182 240.941 107.822 241.439 107.567C241.936 107.308 242.501 107.179 243.134 107.179C243.774 107.179 244.337 107.307 244.824 107.562C245.315 107.814 245.698 108.158 245.973 108.596C246.248 109.03 246.385 109.521 246.385 110.067C246.385 110.445 246.314 110.815 246.172 111.176C246.032 111.537 245.789 111.94 245.441 112.384C245.093 112.825 244.609 113.36 243.989 113.99L241.966 116.108V116.183H246.549V117.5H239.848ZM251.824 117.669C251.039 117.666 250.368 117.459 249.811 117.048C249.254 116.637 248.828 116.038 248.533 115.253C248.238 114.467 248.091 113.521 248.091 112.414C248.091 111.31 248.238 110.367 248.533 109.585C248.831 108.803 249.259 108.206 249.816 107.795C250.376 107.384 251.046 107.179 251.824 107.179C252.603 107.179 253.271 107.386 253.828 107.8C254.385 108.211 254.811 108.808 255.106 109.59C255.404 110.369 255.553 111.31 255.553 112.414C255.553 113.524 255.406 114.472 255.111 115.258C254.816 116.04 254.39 116.638 253.833 117.053C253.276 117.464 252.607 117.669 251.824 117.669ZM251.824 116.342C252.514 116.342 253.052 116.005 253.44 115.332C253.831 114.66 254.027 113.687 254.027 112.414C254.027 111.569 253.937 110.855 253.758 110.271C253.583 109.685 253.329 109.241 252.998 108.939C252.67 108.634 252.278 108.482 251.824 108.482C251.138 108.482 250.6 108.82 250.209 109.496C249.818 110.172 249.62 111.145 249.617 112.414C249.617 113.263 249.705 113.98 249.881 114.567C250.059 115.15 250.313 115.593 250.641 115.894C250.969 116.192 251.364 116.342 251.824 116.342ZM260.708 117.669C259.922 117.666 259.251 117.459 258.694 117.048C258.137 116.637 257.711 116.038 257.416 115.253C257.121 114.467 256.974 113.521 256.974 112.414C256.974 111.31 257.121 110.367 257.416 109.585C257.715 108.803 258.142 108.206 258.699 107.795C259.259 107.384 259.929 107.179 260.708 107.179C261.486 107.179 262.154 107.386 262.711 107.8C263.268 108.211 263.694 108.808 263.989 109.59C264.287 110.369 264.436 111.31 264.436 112.414C264.436 113.524 264.289 114.472 263.994 115.258C263.699 116.04 263.273 116.638 262.716 117.053C262.159 117.464 261.49 117.669 260.708 117.669ZM260.708 116.342C261.397 116.342 261.935 116.005 262.323 115.332C262.714 114.66 262.91 113.687 262.91 112.414C262.91 111.569 262.82 110.855 262.641 110.271C262.466 109.685 262.212 109.241 261.881 108.939C261.553 108.634 261.162 108.482 260.708 108.482C260.021 108.482 259.483 108.82 259.092 109.496C258.701 110.172 258.503 111.145 258.5 112.414C258.5 113.263 258.588 113.98 258.764 114.567C258.943 115.15 259.196 115.593 259.524 115.894C259.852 116.192 260.247 116.342 260.708 116.342ZM269.407 117.639C268.784 117.639 268.223 117.52 267.726 117.281C267.232 117.039 266.838 116.708 266.543 116.287C266.248 115.866 266.091 115.385 266.071 114.845H267.562C267.599 115.283 267.793 115.642 268.144 115.924C268.495 116.206 268.916 116.347 269.407 116.347C269.798 116.347 270.144 116.257 270.446 116.078C270.751 115.896 270.989 115.646 271.162 115.327C271.337 115.009 271.425 114.646 271.425 114.239C271.425 113.824 271.336 113.455 271.157 113.13C270.978 112.805 270.731 112.55 270.416 112.364C270.104 112.179 269.746 112.084 269.342 112.081C269.034 112.081 268.724 112.134 268.412 112.24C268.101 112.346 267.849 112.485 267.657 112.658L266.25 112.449L266.821 107.318H272.419V108.636H268.099L267.776 111.484H267.836C268.035 111.292 268.298 111.131 268.626 111.002C268.958 110.873 269.312 110.808 269.69 110.808C270.31 110.808 270.862 110.956 271.346 111.251C271.833 111.546 272.216 111.948 272.494 112.459C272.776 112.966 272.915 113.549 272.912 114.209C272.915 114.868 272.766 115.457 272.464 115.974C272.166 116.491 271.752 116.898 271.221 117.197C270.694 117.492 270.089 117.639 269.407 117.639Z" fill="black" fill-opacity="0.8"/>
<path d="M25.9658 17.0001V9.76214H27.6318V10.7981C27.7438 10.6114 27.8955 10.4318 28.0868 10.2591C28.2828 10.0864 28.5231 9.94647 28.8078 9.83914C29.0925 9.73181 29.4261 9.67814 29.8088 9.67814C30.2568 9.67814 30.6721 9.76681 31.0548 9.94414C31.4421 10.1214 31.7525 10.3991 31.9858 10.7771C32.2238 11.1551 32.3428 11.6428 32.3428 12.2401V17.0001H30.6348V12.4431C30.6348 11.9671 30.5041 11.6148 30.2428 11.3861C29.9815 11.1528 29.6525 11.0361 29.2558 11.0361C28.9851 11.0361 28.7285 11.0828 28.4858 11.1761C28.2431 11.2648 28.0448 11.4024 27.8908 11.5891C27.7415 11.7711 27.6668 11.9998 27.6668 12.2751V17.0001H25.9658ZM36.2209 17.1401C35.7589 17.1401 35.3436 17.0561 34.9749 16.8881C34.6109 16.7154 34.3239 16.4704 34.1139 16.1531C33.9086 15.8311 33.8059 15.4414 33.8059 14.9841C33.8059 14.1861 34.0929 13.5841 34.6669 13.1781C35.2456 12.7721 36.1649 12.5598 37.4249 12.5411L38.5099 12.5131V12.0231C38.5099 11.6404 38.3956 11.3418 38.1669 11.1271C37.9429 10.9078 37.5929 10.8004 37.1169 10.8051C36.7622 10.8098 36.4402 10.8938 36.1509 11.0571C35.8616 11.2158 35.6702 11.4841 35.5769 11.8621H34.1279C34.1559 11.3674 34.2982 10.9544 34.5549 10.6231C34.8162 10.2871 35.1732 10.0374 35.6259 9.87414C36.0786 9.70614 36.6012 9.62214 37.1939 9.62214C37.8846 9.62214 38.4469 9.71314 38.8809 9.89514C39.3149 10.0771 39.6346 10.3408 39.8399 10.6861C40.0452 11.0268 40.1479 11.4398 40.1479 11.9251V17.0001H38.7129L38.5729 15.6981C38.3162 16.2441 37.9872 16.6221 37.5859 16.8321C37.1892 17.0374 36.7342 17.1401 36.2209 17.1401ZM36.7739 15.9851C36.9839 15.9851 37.1916 15.9478 37.3969 15.8731C37.6022 15.7938 37.7866 15.6888 37.9499 15.5581C38.1179 15.4228 38.2509 15.2734 38.3489 15.1101C38.4516 14.9468 38.5052 14.7764 38.5099 14.5991V13.4581L37.6209 13.4721C37.1822 13.4768 36.7972 13.5234 36.4659 13.6121C36.1392 13.7008 35.8849 13.8431 35.7029 14.0391C35.5209 14.2304 35.4299 14.4871 35.4299 14.8091C35.4299 15.1778 35.5582 15.4671 35.8149 15.6771C36.0716 15.8824 36.3912 15.9851 36.7739 15.9851ZM41.9619 17.0001V9.76214H43.6209V10.7981C43.8309 10.4808 44.1156 10.2054 44.4749 9.97214C44.8389 9.73881 45.3009 9.62214 45.8609 9.62214C46.1176 9.62214 46.3766 9.66647 46.6379 9.75514C46.9039 9.84381 47.1489 9.97447 47.3729 10.1471C47.6016 10.3198 47.7836 10.5344 47.9189 10.7911C48.1476 10.4504 48.4509 10.1704 48.8289 9.95114C49.2116 9.73181 49.6409 9.62214 50.1169 9.62214C50.3782 9.62214 50.6466 9.66414 50.9219 9.74814C51.2019 9.83214 51.4586 9.97214 51.6919 10.1681C51.9252 10.3641 52.1142 10.6324 52.2589 10.9731C52.4036 11.3091 52.4759 11.7314 52.4759 12.2401V17.0001H50.7749V12.4431C50.7749 12.0838 50.7119 11.8014 50.5859 11.5961C50.4599 11.3908 50.2966 11.2461 50.0959 11.1621C49.8999 11.0734 49.6899 11.0291 49.4659 11.0291C49.2652 11.0291 49.0552 11.0688 48.8359 11.1481C48.6212 11.2274 48.4369 11.3581 48.2829 11.5401C48.1336 11.7221 48.0589 11.9671 48.0589 12.2751V17.0001H46.3579V12.1701C46.3579 11.9181 46.2926 11.7081 46.1619 11.5401C46.0312 11.3721 45.8656 11.2461 45.6649 11.1621C45.4689 11.0734 45.2682 11.0291 45.0629 11.0291C44.8529 11.0291 44.6382 11.0734 44.4189 11.1621C44.2042 11.2508 44.0246 11.3861 43.8799 11.5681C43.7352 11.7501 43.6629 11.9858 43.6629 12.2751V17.0001H41.9619ZM57.5066 17.1401C56.8113 17.1401 56.1976 16.9931 55.6656 16.6991C55.1383 16.4004 54.7253 15.9758 54.4266 15.4251C54.1326 14.8744 53.9856 14.2188 53.9856 13.4581C53.9856 12.7161 54.1186 12.0581 54.3846 11.4841C54.6553 10.9054 55.0449 10.4504 55.5536 10.1191C56.0669 9.78781 56.6853 9.62214 57.4086 9.62214C58.1226 9.62214 58.7223 9.77381 59.2076 10.0771C59.6929 10.3804 60.0616 10.8051 60.3136 11.3511C60.5656 11.8924 60.6916 12.5271 60.6916 13.2551V13.7731H55.6866C55.6819 14.1838 55.7473 14.5478 55.8826 14.8651C56.0179 15.1824 56.2186 15.4321 56.4846 15.6141C56.7506 15.7914 57.0796 15.8801 57.4716 15.8801C57.8729 15.8801 58.2206 15.7914 58.5146 15.6141C58.8133 15.4321 59.0116 15.1568 59.1096 14.7881H60.6636C60.5796 15.2921 60.3789 15.7191 60.0616 16.0691C59.7489 16.4191 59.3663 16.6851 58.9136 16.8671C58.4656 17.0491 57.9966 17.1401 57.5066 17.1401ZM55.6796 12.7161H59.0816C59.0816 12.3661 59.0186 12.0511 58.8926 11.7711C58.7713 11.4864 58.5869 11.2624 58.3396 11.0991C58.0923 10.9311 57.7796 10.8471 57.4016 10.8471C57.0283 10.8471 56.7133 10.9381 56.4566 11.1201C56.1999 11.3021 56.0063 11.5378 55.8756 11.8271C55.7449 12.1118 55.6796 12.4081 55.6796 12.7161ZM62.0813 11.9321V9.98614H64.0063V11.9321H62.0813ZM62.0813 16.9581V15.0261H64.0063V16.9581H62.0813ZM69.3689 10.4971L68.8999 6.87814H70.7549L70.2649 10.4971H69.3689ZM72.8322 17.0001V6.87814H76.4232C77.1512 6.87814 77.8022 7.00414 78.3762 7.25614C78.9549 7.50347 79.4099 7.86981 79.7412 8.35514C80.0726 8.84047 80.2382 9.43781 80.2382 10.1471C80.2382 10.8144 80.0866 11.3861 79.7832 11.8621C79.4846 12.3381 79.0669 12.7021 78.5302 12.9541C77.9936 13.2061 77.3659 13.3321 76.6472 13.3321H74.5612V17.0001H72.8322ZM74.5472 11.9671H76.6052C77.1979 11.9671 77.6809 11.7898 78.0542 11.4351C78.4322 11.0804 78.6212 10.6184 78.6212 10.0491C78.6212 9.47047 78.4252 9.02247 78.0332 8.70514C77.6412 8.38314 77.1489 8.22214 76.5562 8.22214H74.5472V11.9671ZM83.5256 17.1401C83.0636 17.1401 82.6483 17.0561 82.2796 16.8881C81.9156 16.7154 81.6286 16.4704 81.4186 16.1531C81.2133 15.8311 81.1106 15.4414 81.1106 14.9841C81.1106 14.1861 81.3976 13.5841 81.9716 13.1781C82.5503 12.7721 83.4696 12.5598 84.7296 12.5411L85.8146 12.5131V12.0231C85.8146 11.6404 85.7003 11.3418 85.4716 11.1271C85.2476 10.9078 84.8976 10.8004 84.4216 10.8051C84.0669 10.8098 83.7449 10.8938 83.4556 11.0571C83.1663 11.2158 82.9749 11.4841 82.8816 11.8621H81.4326C81.4606 11.3674 81.6029 10.9544 81.8596 10.6231C82.1209 10.2871 82.4779 10.0374 82.9306 9.87414C83.3833 9.70614 83.9059 9.62214 84.4986 9.62214C85.1893 9.62214 85.7516 9.71314 86.1856 9.89514C86.6196 10.0771 86.9393 10.3408 87.1446 10.6861C87.3499 11.0268 87.4526 11.4398 87.4526 11.9251V17.0001H86.0176L85.8776 15.6981C85.6209 16.2441 85.2919 16.6221 84.8906 16.8321C84.4939 17.0374 84.0389 17.1401 83.5256 17.1401ZM84.0786 15.9851C84.2886 15.9851 84.4963 15.9478 84.7016 15.8731C84.9069 15.7938 85.0913 15.6888 85.2546 15.5581C85.4226 15.4228 85.5556 15.2734 85.6536 15.1101C85.7563 14.9468 85.8099 14.7764 85.8146 14.5991V13.4581L84.9256 13.4721C84.4869 13.4768 84.1019 13.5234 83.7706 13.6121C83.4439 13.7008 83.1896 13.8431 83.0076 14.0391C82.8256 14.2304 82.7346 14.4871 82.7346 14.8091C82.7346 15.1778 82.8629 15.4671 83.1196 15.6771C83.3763 15.8824 83.6959 15.9851 84.0786 15.9851ZM91.8845 17.0561C91.3105 17.0561 90.8648 16.9814 90.5475 16.8321C90.2348 16.6781 90.0178 16.4611 89.8965 16.1811C89.7751 15.9011 89.7145 15.5674 89.7145 15.1801V10.9661H88.5385V9.76214H89.7635L90.1905 7.61314H91.4155V9.75514H93.0325V10.9661H91.4155L91.4225 15.1171C91.4225 15.3318 91.4458 15.4904 91.4925 15.5931C91.5438 15.6911 91.6231 15.7564 91.7305 15.7891C91.8425 15.8171 91.9895 15.8311 92.1715 15.8311H93.0675V16.9091C92.9695 16.9464 92.8248 16.9791 92.6335 17.0071C92.4468 17.0398 92.1971 17.0561 91.8845 17.0561ZM94.6396 17.0001V9.76214H96.2706V11.3301C96.3873 10.9708 96.553 10.6651 96.7676 10.4131C96.987 10.1564 97.2437 9.96047 97.5377 9.82514C97.8317 9.68981 98.1513 9.62214 98.4966 9.62214C98.5806 9.62214 98.6623 9.62681 98.7416 9.63614C98.821 9.64547 98.8793 9.66181 98.9166 9.68514V11.3161C98.8653 11.2928 98.7976 11.2764 98.7136 11.2671C98.6343 11.2578 98.5643 11.2531 98.5036 11.2531C98.1536 11.2251 97.8433 11.2391 97.5726 11.2951C97.3066 11.3511 97.0803 11.4468 96.8936 11.5821C96.7116 11.7128 96.574 11.8808 96.4806 12.0861C96.3873 12.2868 96.3406 12.5224 96.3406 12.7931V17.0001H94.6396ZM100.301 17.0001V9.76214H101.932V17.0001H100.301ZM100.273 8.49514V6.88514H101.96V8.49514H100.273ZM106.92 17.1401C106.257 17.1401 105.667 16.9954 105.149 16.7061C104.636 16.4121 104.232 15.9874 103.938 15.4321C103.644 14.8721 103.497 14.1978 103.497 13.4091C103.497 12.6578 103.635 11.9998 103.91 11.4351C104.19 10.8658 104.584 10.4224 105.093 10.1051C105.606 9.78314 106.215 9.62214 106.92 9.62214C107.485 9.62214 107.982 9.73414 108.411 9.95814C108.84 10.1821 109.183 10.4924 109.44 10.8891C109.701 11.2858 109.858 11.7361 109.909 12.2401H108.46C108.423 12.0208 108.341 11.8131 108.215 11.6171C108.089 11.4164 107.919 11.2554 107.704 11.1341C107.494 11.0081 107.237 10.9451 106.934 10.9451C106.388 10.9451 105.947 11.1458 105.611 11.5471C105.275 11.9484 105.107 12.5644 105.107 13.3951C105.107 14.1604 105.266 14.7694 105.583 15.2221C105.905 15.6748 106.365 15.9011 106.962 15.9011C107.261 15.9011 107.517 15.8358 107.732 15.7051C107.947 15.5698 108.115 15.4041 108.236 15.2081C108.362 15.0074 108.441 14.8068 108.474 14.6061H109.888C109.846 15.0961 109.694 15.5324 109.433 15.9151C109.172 16.2978 108.826 16.5988 108.397 16.8181C107.968 17.0328 107.475 17.1401 106.92 17.1401ZM111.456 17.0001V6.59814H113.15V13.0451L116.153 9.76214H118.022L115.404 12.5901L118.155 17.0001H116.426L114.326 13.6471L113.15 14.8791V17.0001H111.456ZM119.271 10.4971L118.802 6.87814H120.657L120.167 10.4971H119.271Z" fill="black"/>
<path d="M375.966 16.9999V9.76193H377.632V10.7979C377.744 10.6112 377.896 10.4316 378.087 10.2589C378.283 10.0862 378.523 9.94626 378.808 9.83893C379.093 9.7316 379.426 9.67793 379.809 9.67793C380.257 9.67793 380.672 9.7666 381.055 9.94393C381.442 10.1212 381.753 10.3989 381.986 10.7769C382.224 11.1549 382.343 11.6426 382.343 12.2399V16.9999H380.635V12.4429C380.635 11.9669 380.504 11.6146 380.243 11.3859C379.982 11.1526 379.653 11.0359 379.256 11.0359C378.985 11.0359 378.729 11.0826 378.486 11.1759C378.243 11.2646 378.045 11.4022 377.891 11.5889C377.742 11.7709 377.667 11.9996 377.667 12.2749V16.9999H375.966ZM386.221 17.1399C385.759 17.1399 385.344 17.0559 384.975 16.8879C384.611 16.7152 384.324 16.4702 384.114 16.1529C383.909 15.8309 383.806 15.4412 383.806 14.9839C383.806 14.1859 384.093 13.5839 384.667 13.1779C385.246 12.7719 386.165 12.5596 387.425 12.5409L388.51 12.5129V12.0229C388.51 11.6402 388.396 11.3416 388.167 11.1269C387.943 10.9076 387.593 10.8002 387.117 10.8049C386.762 10.8096 386.44 10.8936 386.151 11.0569C385.862 11.2156 385.67 11.4839 385.577 11.8619H384.128C384.156 11.3672 384.298 10.9542 384.555 10.6229C384.816 10.2869 385.173 10.0372 385.626 9.87393C386.079 9.70593 386.601 9.62193 387.194 9.62193C387.885 9.62193 388.447 9.71293 388.881 9.89493C389.315 10.0769 389.635 10.3406 389.84 10.6859C390.045 11.0266 390.148 11.4396 390.148 11.9249V16.9999H388.713L388.573 15.6979C388.316 16.2439 387.987 16.6219 387.586 16.8319C387.189 17.0372 386.734 17.1399 386.221 17.1399ZM386.774 15.9849C386.984 15.9849 387.192 15.9476 387.397 15.8729C387.602 15.7936 387.787 15.6886 387.95 15.5579C388.118 15.4226 388.251 15.2732 388.349 15.1099C388.452 14.9466 388.505 14.7762 388.51 14.5989V13.4579L387.621 13.4719C387.182 13.4766 386.797 13.5232 386.466 13.6119C386.139 13.7006 385.885 13.8429 385.703 14.0389C385.521 14.2302 385.43 14.4869 385.43 14.8089C385.43 15.1776 385.558 15.4669 385.815 15.6769C386.072 15.8822 386.391 15.9849 386.774 15.9849ZM391.962 16.9999V9.76193H393.621V10.7979C393.831 10.4806 394.116 10.2052 394.475 9.97193C394.839 9.7386 395.301 9.62193 395.861 9.62193C396.118 9.62193 396.377 9.66626 396.638 9.75493C396.904 9.8436 397.149 9.97426 397.373 10.1469C397.602 10.3196 397.784 10.5342 397.919 10.7909C398.148 10.4502 398.451 10.1702 398.829 9.95093C399.212 9.7316 399.641 9.62193 400.117 9.62193C400.378 9.62193 400.647 9.66393 400.922 9.74793C401.202 9.83193 401.459 9.97193 401.692 10.1679C401.925 10.3639 402.114 10.6322 402.259 10.9729C402.404 11.3089 402.476 11.7312 402.476 12.2399V16.9999H400.775V12.4429C400.775 12.0836 400.712 11.8012 400.586 11.5959C400.46 11.3906 400.297 11.2459 400.096 11.1619C399.9 11.0732 399.69 11.0289 399.466 11.0289C399.265 11.0289 399.055 11.0686 398.836 11.1479C398.621 11.2272 398.437 11.3579 398.283 11.5399C398.134 11.7219 398.059 11.9669 398.059 12.2749V16.9999H396.358V12.1699C396.358 11.9179 396.293 11.7079 396.162 11.5399C396.031 11.3719 395.866 11.2459 395.665 11.1619C395.469 11.0732 395.268 11.0289 395.063 11.0289C394.853 11.0289 394.638 11.0732 394.419 11.1619C394.204 11.2506 394.025 11.3859 393.88 11.5679C393.735 11.7499 393.663 11.9856 393.663 12.2749V16.9999H391.962ZM407.507 17.1399C406.811 17.1399 406.198 16.9929 405.666 16.6989C405.138 16.4002 404.725 15.9756 404.427 15.4249C404.133 14.8742 403.986 14.2186 403.986 13.4579C403.986 12.7159 404.119 12.0579 404.385 11.4839C404.655 10.9052 405.045 10.4502 405.554 10.1189C406.067 9.7876 406.685 9.62193 407.409 9.62193C408.123 9.62193 408.722 9.7736 409.208 10.0769C409.693 10.3802 410.062 10.8049 410.314 11.3509C410.566 11.8922 410.692 12.5269 410.692 13.2549V13.7729H405.687C405.682 14.1836 405.747 14.5476 405.883 14.8649C406.018 15.1822 406.219 15.4319 406.485 15.6139C406.751 15.7912 407.08 15.8799 407.472 15.8799C407.873 15.8799 408.221 15.7912 408.515 15.6139C408.813 15.4319 409.012 15.1566 409.11 14.7879H410.664C410.58 15.2919 410.379 15.7189 410.062 16.0689C409.749 16.4189 409.366 16.6849 408.914 16.8669C408.466 17.0489 407.997 17.1399 407.507 17.1399ZM405.68 12.7159H409.082C409.082 12.3659 409.019 12.0509 408.893 11.7709C408.771 11.4862 408.587 11.2622 408.34 11.0989C408.092 10.9309 407.78 10.8469 407.402 10.8469C407.028 10.8469 406.713 10.9379 406.457 11.1199C406.2 11.3019 406.006 11.5376 405.876 11.8269C405.745 12.1116 405.68 12.4079 405.68 12.7159ZM412.082 11.9319V9.98593H414.007V11.9319H412.082ZM412.082 16.9579V15.0259H414.007V16.9579H412.082ZM418.739 10.5249L419.53 8.69793L418.872 8.64893V6.87793H420.734V8.43193L419.425 10.5249H418.739ZM420.429 16.9999L424.062 6.87793H425.91L429.543 16.9999H427.835L426.932 14.4589H423.054L422.144 16.9999H420.429ZM423.46 12.9469H426.505L424.986 8.52993L423.46 12.9469ZM433.815 17.1399C433.152 17.1399 432.562 16.9952 432.044 16.7059C431.53 16.4119 431.127 15.9872 430.833 15.4319C430.539 14.8719 430.392 14.1976 430.392 13.4089C430.392 12.6576 430.529 11.9996 430.805 11.4349C431.085 10.8656 431.479 10.4222 431.988 10.1049C432.501 9.78293 433.11 9.62193 433.815 9.62193C434.379 9.62193 434.876 9.73393 435.306 9.95793C435.735 10.1819 436.078 10.4922 436.335 10.8889C436.596 11.2856 436.752 11.7359 436.804 12.2399H435.355C435.317 12.0206 435.236 11.8129 435.11 11.6169C434.984 11.4162 434.813 11.2552 434.599 11.1339C434.389 11.0079 434.132 10.9449 433.829 10.9449C433.283 10.9449 432.842 11.1456 432.506 11.5469C432.17 11.9482 432.002 12.5642 432.002 13.3949C432.002 14.1602 432.16 14.7692 432.478 15.2219C432.8 15.6746 433.259 15.9009 433.857 15.9009C434.155 15.9009 434.412 15.8356 434.627 15.7049C434.841 15.5696 435.009 15.4039 435.131 15.2079C435.257 15.0072 435.336 14.8066 435.369 14.6059H436.783C436.741 15.0959 436.589 15.5322 436.328 15.9149C436.066 16.2976 435.721 16.5986 435.292 16.8179C434.862 17.0326 434.37 17.1399 433.815 17.1399ZM438.351 16.9999V9.76193H440.01V10.7979C440.22 10.4806 440.504 10.2052 440.864 9.97193C441.228 9.7386 441.69 9.62193 442.25 9.62193C442.506 9.62193 442.765 9.66626 443.027 9.75493C443.293 9.8436 443.538 9.97426 443.762 10.1469C443.99 10.3196 444.172 10.5342 444.308 10.7909C444.536 10.4502 444.84 10.1702 445.218 9.95093C445.6 9.7316 446.03 9.62193 446.506 9.62193C446.767 9.62193 447.035 9.66393 447.311 9.74793C447.591 9.83193 447.847 9.97193 448.081 10.1679C448.314 10.3639 448.503 10.6322 448.648 10.9729C448.792 11.3089 448.865 11.7312 448.865 12.2399V16.9999H447.164V12.4429C447.164 12.0836 447.101 11.8012 446.975 11.5959C446.849 11.3906 446.685 11.2459 446.485 11.1619C446.289 11.0732 446.079 11.0289 445.855 11.0289C445.654 11.0289 445.444 11.0686 445.225 11.1479C445.01 11.2272 444.826 11.3579 444.672 11.5399C444.522 11.7219 444.448 11.9669 444.448 12.2749V16.9999H442.747V12.1699C442.747 11.9179 442.681 11.7079 442.551 11.5399C442.42 11.3719 442.254 11.2459 442.054 11.1619C441.858 11.0732 441.657 11.0289 441.452 11.0289C441.242 11.0289 441.027 11.0732 440.808 11.1619C440.593 11.2506 440.413 11.3859 440.269 11.5679C440.124 11.7499 440.052 11.9856 440.052 12.2749V16.9999H438.351ZM453.895 17.1399C453.2 17.1399 452.586 16.9929 452.054 16.6989C451.527 16.4002 451.114 15.9756 450.815 15.4249C450.521 14.8742 450.374 14.2186 450.374 13.4579C450.374 12.7159 450.507 12.0579 450.773 11.4839C451.044 10.9052 451.434 10.4502 451.942 10.1189C452.456 9.7876 453.074 9.62193 453.797 9.62193C454.511 9.62193 455.111 9.7736 455.596 10.0769C456.082 10.3802 456.45 10.8049 456.702 11.3509C456.954 11.8922 457.08 12.5269 457.08 13.2549V13.7729H452.075C452.071 14.1836 452.136 14.5476 452.271 14.8649C452.407 15.1822 452.607 15.4319 452.873 15.6139C453.139 15.7912 453.468 15.8799 453.86 15.8799C454.262 15.8799 454.609 15.7912 454.903 15.6139C455.202 15.4319 455.4 15.1566 455.498 14.7879H457.052C456.968 15.2919 456.768 15.7189 456.45 16.0689C456.138 16.4189 455.755 16.6849 455.302 16.8669C454.854 17.0489 454.385 17.1399 453.895 17.1399ZM452.068 12.7159H455.47C455.47 12.3659 455.407 12.0509 455.281 11.7709C455.16 11.4862 454.976 11.2622 454.728 11.0989C454.481 10.9309 454.168 10.8469 453.79 10.8469C453.417 10.8469 453.102 10.9379 452.845 11.1199C452.589 11.3019 452.395 11.5376 452.264 11.8269C452.134 12.1116 452.068 12.4079 452.068 12.7159ZM457.895 10.5249L458.686 8.69793L458.028 8.64893V6.87793H459.89V8.43193L458.581 10.5249H457.895Z" fill="black"/>
<path d="M174.871 454.056C174.297 454.056 173.851 453.981 173.534 453.832C173.221 453.678 173.004 453.461 172.883 453.181C172.762 452.901 172.701 452.567 172.701 452.18V447.966H171.525V446.762H172.75L173.177 444.613H174.402V446.755H176.019V447.966H174.402L174.409 452.117C174.409 452.332 174.432 452.49 174.479 452.593C174.53 452.691 174.61 452.756 174.717 452.789C174.829 452.817 174.976 452.831 175.158 452.831H176.054V453.909C175.956 453.946 175.811 453.979 175.62 454.007C175.433 454.04 175.184 454.056 174.871 454.056ZM177.654 454V446.762H179.285V454H177.654ZM177.626 445.495V443.885H179.313V445.495H177.626ZM184.141 454.056C183.567 454.056 183.121 453.981 182.804 453.832C182.491 453.678 182.274 453.461 182.153 453.181C182.031 452.901 181.971 452.567 181.971 452.18V447.966H180.795V446.762H182.02L182.447 444.613H183.672V446.755H185.289V447.966H183.672L183.679 452.117C183.679 452.332 183.702 452.49 183.749 452.593C183.8 452.691 183.879 452.756 183.987 452.789C184.099 452.817 184.246 452.831 184.428 452.831H185.324V453.909C185.226 453.946 185.081 453.979 184.89 454.007C184.703 454.04 184.453 454.056 184.141 454.056ZM188.982 454.105C188.515 454.105 188.142 454.047 187.862 453.93C187.582 453.813 187.372 453.657 187.232 453.461C187.092 453.265 187.001 453.046 186.959 452.803C186.917 452.556 186.896 452.304 186.896 452.047V443.598H188.562V451.851C188.562 452.164 188.625 452.406 188.751 452.579C188.881 452.752 189.091 452.852 189.381 452.88L189.745 452.894V453.965C189.619 454.002 189.49 454.035 189.36 454.063C189.229 454.091 189.103 454.105 188.982 454.105ZM194.155 454.14C193.46 454.14 192.846 453.993 192.314 453.699C191.787 453.4 191.374 452.976 191.075 452.425C190.781 451.874 190.634 451.219 190.634 450.458C190.634 449.716 190.767 449.058 191.033 448.484C191.304 447.905 191.694 447.45 192.202 447.119C192.716 446.788 193.334 446.622 194.057 446.622C194.771 446.622 195.371 446.774 195.856 447.077C196.342 447.38 196.71 447.805 196.962 448.351C197.214 448.892 197.34 449.527 197.34 450.255V450.773H192.335C192.331 451.184 192.396 451.548 192.531 451.865C192.667 452.182 192.867 452.432 193.133 452.614C193.399 452.791 193.728 452.88 194.12 452.88C194.522 452.88 194.869 452.791 195.163 452.614C195.462 452.432 195.66 452.157 195.758 451.788H197.312C197.228 452.292 197.028 452.719 196.71 453.069C196.398 453.419 196.015 453.685 195.562 453.867C195.114 454.049 194.645 454.14 194.155 454.14ZM192.328 449.716H195.73C195.73 449.366 195.667 449.051 195.541 448.771C195.42 448.486 195.236 448.262 194.988 448.099C194.741 447.931 194.428 447.847 194.05 447.847C193.677 447.847 193.362 447.938 193.105 448.12C192.849 448.302 192.655 448.538 192.524 448.827C192.394 449.112 192.328 449.408 192.328 449.716ZM198.73 448.932V446.986H200.655V448.932H198.73ZM198.73 453.958V452.026H200.655V453.958H198.73ZM209.546 454.14C209.042 454.14 208.559 454.079 208.097 453.958C207.635 453.832 207.212 453.648 206.83 453.405C206.452 453.158 206.139 452.852 205.892 452.488C205.644 452.119 205.493 451.69 205.437 451.2H207.201C207.275 451.541 207.422 451.828 207.642 452.061C207.866 452.294 208.148 452.472 208.489 452.593C208.829 452.714 209.21 452.775 209.63 452.775C210.003 452.775 210.351 452.719 210.673 452.607C210.995 452.495 211.256 452.329 211.457 452.11C211.657 451.886 211.757 451.611 211.757 451.284C211.757 450.915 211.627 450.628 211.366 450.423C211.109 450.213 210.74 450.047 210.26 449.926L208.279 449.457C207.765 449.34 207.317 449.17 206.935 448.946C206.557 448.722 206.263 448.428 206.053 448.064C205.843 447.695 205.738 447.245 205.738 446.713C205.738 446.106 205.903 445.581 206.235 445.138C206.571 444.695 207.026 444.354 207.6 444.116C208.174 443.873 208.82 443.752 209.539 443.752C210.36 443.752 211.053 443.89 211.618 444.165C212.182 444.436 212.612 444.8 212.906 445.257C213.2 445.714 213.349 446.216 213.354 446.762H211.632C211.594 446.356 211.475 446.036 211.275 445.803C211.074 445.565 210.82 445.392 210.512 445.285C210.204 445.178 209.863 445.124 209.49 445.124C208.827 445.124 208.335 445.266 208.013 445.551C207.691 445.836 207.53 446.169 207.53 446.552C207.53 446.911 207.649 447.196 207.887 447.406C208.125 447.616 208.489 447.779 208.979 447.896L210.862 448.337C211.492 448.468 211.998 448.668 212.381 448.939C212.763 449.21 213.041 449.532 213.214 449.905C213.391 450.274 213.48 450.682 213.48 451.13C213.48 451.718 213.312 452.238 212.976 452.691C212.644 453.144 212.185 453.498 211.597 453.755C211.009 454.012 210.325 454.14 209.546 454.14ZM218.193 454.14C217.503 454.14 216.901 453.993 216.387 453.699C215.874 453.4 215.475 452.973 215.19 452.418C214.91 451.863 214.77 451.195 214.77 450.416C214.77 449.66 214.908 448.997 215.183 448.428C215.459 447.859 215.851 447.415 216.359 447.098C216.873 446.781 217.486 446.622 218.2 446.622C218.891 446.622 219.491 446.774 219.999 447.077C220.508 447.38 220.9 447.814 221.175 448.379C221.455 448.944 221.595 449.623 221.595 450.416C221.595 451.149 221.462 451.795 221.196 452.355C220.935 452.91 220.55 453.347 220.041 453.664C219.537 453.981 218.921 454.14 218.193 454.14ZM218.2 452.845C218.592 452.845 218.914 452.738 219.166 452.523C219.423 452.308 219.614 452.014 219.74 451.641C219.866 451.268 219.929 450.843 219.929 450.367C219.929 449.924 219.873 449.515 219.761 449.142C219.649 448.769 219.465 448.47 219.208 448.246C218.956 448.017 218.62 447.903 218.2 447.903C217.804 447.903 217.475 448.008 217.213 448.218C216.957 448.423 216.765 448.713 216.639 449.086C216.513 449.455 216.45 449.882 216.45 450.367C216.45 450.806 216.506 451.214 216.618 451.592C216.73 451.965 216.915 452.269 217.171 452.502C217.428 452.731 217.771 452.845 218.2 452.845ZM223.789 454V447.966H222.361V446.762H223.789V445.684C223.789 445.105 223.948 444.66 224.265 444.347C224.587 444.034 225.052 443.878 225.658 443.878H227.184L227.191 445.04H226.183C225.908 445.04 225.719 445.112 225.616 445.257C225.514 445.397 225.462 445.619 225.462 445.922V446.762H227.121V447.966H225.49V454H223.789ZM231.076 454.056C230.502 454.056 230.056 453.981 229.739 453.832C229.426 453.678 229.209 453.461 229.088 453.181C228.967 452.901 228.906 452.567 228.906 452.18V447.966H227.73V446.762H228.955L229.382 444.613H230.607V446.755H232.224V447.966H230.607L230.614 452.117C230.614 452.332 230.637 452.49 230.684 452.593C230.735 452.691 230.815 452.756 230.922 452.789C231.034 452.817 231.181 452.831 231.363 452.831H232.259V453.909C232.161 453.946 232.016 453.979 231.825 454.007C231.638 454.04 231.389 454.056 231.076 454.056ZM235.441 454L233.145 446.762H234.678L236.183 451.739H236.267L237.73 446.762H238.969L240.474 451.732H240.558L242.014 446.762H243.575L241.279 454H239.809L238.325 449.177L236.876 454H235.441ZM246.684 454.14C246.222 454.14 245.807 454.056 245.438 453.888C245.074 453.715 244.787 453.47 244.577 453.153C244.372 452.831 244.269 452.441 244.269 451.984C244.269 451.186 244.556 450.584 245.13 450.178C245.709 449.772 246.628 449.56 247.888 449.541L248.973 449.513V449.023C248.973 448.64 248.859 448.342 248.63 448.127C248.406 447.908 248.056 447.8 247.58 447.805C247.225 447.81 246.903 447.894 246.614 448.057C246.325 448.216 246.133 448.484 246.04 448.862H244.591C244.619 448.367 244.761 447.954 245.018 447.623C245.279 447.287 245.636 447.037 246.089 446.874C246.542 446.706 247.064 446.622 247.657 446.622C248.348 446.622 248.91 446.713 249.344 446.895C249.778 447.077 250.098 447.341 250.303 447.686C250.508 448.027 250.611 448.44 250.611 448.925V454H249.176L249.036 452.698C248.779 453.244 248.45 453.622 248.049 453.832C247.652 454.037 247.197 454.14 246.684 454.14ZM247.237 452.985C247.447 452.985 247.655 452.948 247.86 452.873C248.065 452.794 248.25 452.689 248.413 452.558C248.581 452.423 248.714 452.273 248.812 452.11C248.915 451.947 248.968 451.776 248.973 451.599V450.458L248.084 450.472C247.645 450.477 247.26 450.523 246.929 450.612C246.602 450.701 246.348 450.843 246.166 451.039C245.984 451.23 245.893 451.487 245.893 451.809C245.893 452.178 246.021 452.467 246.278 452.677C246.535 452.882 246.854 452.985 247.237 452.985ZM252.425 454V446.762H254.056V448.33C254.173 447.971 254.338 447.665 254.553 447.413C254.772 447.156 255.029 446.96 255.323 446.825C255.617 446.69 255.937 446.622 256.282 446.622C256.366 446.622 256.448 446.627 256.527 446.636C256.606 446.645 256.665 446.662 256.702 446.685V448.316C256.651 448.293 256.583 448.276 256.499 448.267C256.42 448.258 256.35 448.253 256.289 448.253C255.939 448.225 255.629 448.239 255.358 448.295C255.092 448.351 254.866 448.447 254.679 448.582C254.497 448.713 254.359 448.881 254.266 449.086C254.173 449.287 254.126 449.522 254.126 449.793V454H252.425ZM261.202 454.14C260.507 454.14 259.893 453.993 259.361 453.699C258.834 453.4 258.421 452.976 258.122 452.425C257.828 451.874 257.681 451.219 257.681 450.458C257.681 449.716 257.814 449.058 258.08 448.484C258.351 447.905 258.74 447.45 259.249 447.119C259.762 446.788 260.381 446.622 261.104 446.622C261.818 446.622 262.418 446.774 262.903 447.077C263.388 447.38 263.757 447.805 264.009 448.351C264.261 448.892 264.387 449.527 264.387 450.255V450.773H259.382C259.377 451.184 259.443 451.548 259.578 451.865C259.713 452.182 259.914 452.432 260.18 452.614C260.446 452.791 260.775 452.88 261.167 452.88C261.568 452.88 261.916 452.791 262.21 452.614C262.509 452.432 262.707 452.157 262.805 451.788H264.359C264.275 452.292 264.074 452.719 263.757 453.069C263.444 453.419 263.062 453.685 262.609 453.867C262.161 454.049 261.692 454.14 261.202 454.14ZM259.375 449.716H262.777C262.777 449.366 262.714 449.051 262.588 448.771C262.467 448.486 262.282 448.262 262.035 448.099C261.788 447.931 261.475 447.847 261.097 447.847C260.724 447.847 260.409 447.938 260.152 448.12C259.895 448.302 259.702 448.538 259.571 448.827C259.44 449.112 259.375 449.408 259.375 449.716ZM271.779 454.14C270.822 454.14 270.071 453.811 269.525 453.153C268.979 452.495 268.706 451.559 268.706 450.346C268.706 449.59 268.816 448.934 269.035 448.379C269.259 447.819 269.588 447.387 270.022 447.084C270.456 446.776 270.99 446.622 271.625 446.622C271.924 446.622 272.194 446.659 272.437 446.734C272.684 446.804 272.904 446.897 273.095 447.014C273.286 447.131 273.447 447.259 273.578 447.399C273.713 447.539 273.818 447.679 273.893 447.819V443.598H275.608V454H274.348L274.159 452.516C274.098 452.689 274.012 452.871 273.9 453.062C273.793 453.249 273.646 453.424 273.459 453.587C273.277 453.75 273.048 453.883 272.773 453.986C272.498 454.089 272.166 454.14 271.779 454.14ZM272.129 452.887C272.74 452.887 273.186 452.689 273.466 452.292C273.751 451.891 273.893 451.228 273.893 450.304C273.888 449.777 273.823 449.333 273.697 448.974C273.576 448.615 273.389 448.344 273.137 448.162C272.885 447.98 272.556 447.889 272.15 447.889C271.637 447.889 271.214 448.078 270.883 448.456C270.556 448.834 270.393 449.45 270.393 450.304C270.393 451.153 270.545 451.797 270.848 452.236C271.151 452.67 271.578 452.887 272.129 452.887ZM280.726 454.14C280.03 454.14 279.417 453.993 278.885 453.699C278.357 453.4 277.944 452.976 277.646 452.425C277.352 451.874 277.205 451.219 277.205 450.458C277.205 449.716 277.338 449.058 277.604 448.484C277.874 447.905 278.264 447.45 278.773 447.119C279.286 446.788 279.904 446.622 280.628 446.622C281.342 446.622 281.941 446.774 282.427 447.077C282.912 447.38 283.281 447.805 283.533 448.351C283.785 448.892 283.911 449.527 283.911 450.255V450.773H278.906C278.901 451.184 278.966 451.548 279.102 451.865C279.237 452.182 279.438 452.432 279.704 452.614C279.97 452.791 280.299 452.88 280.691 452.88C281.092 452.88 281.44 452.791 281.734 452.614C282.032 452.432 282.231 452.157 282.329 451.788H283.883C283.799 452.292 283.598 452.719 283.281 453.069C282.968 453.419 282.585 453.685 282.133 453.867C281.685 454.049 281.216 454.14 280.726 454.14ZM278.899 449.716H282.301C282.301 449.366 282.238 449.051 282.112 448.771C281.99 448.486 281.806 448.262 281.559 448.099C281.311 447.931 280.999 447.847 280.621 447.847C280.247 447.847 279.932 447.938 279.676 448.12C279.419 448.302 279.225 448.538 279.095 448.827C278.964 449.112 278.899 449.408 278.899 449.716ZM287.321 454L284.647 446.762H286.208L287.944 451.83H288.035L289.764 446.762H291.332L288.665 454H287.321ZM295.56 454.14C294.864 454.14 294.251 453.993 293.719 453.699C293.191 453.4 292.778 452.976 292.48 452.425C292.186 451.874 292.039 451.219 292.039 450.458C292.039 449.716 292.172 449.058 292.438 448.484C292.708 447.905 293.098 447.45 293.607 447.119C294.12 446.788 294.738 446.622 295.462 446.622C296.176 446.622 296.775 446.774 297.261 447.077C297.746 447.38 298.115 447.805 298.367 448.351C298.619 448.892 298.745 449.527 298.745 450.255V450.773H293.74C293.735 451.184 293.8 451.548 293.936 451.865C294.071 452.182 294.272 452.432 294.538 452.614C294.804 452.791 295.133 452.88 295.525 452.88C295.926 452.88 296.274 452.791 296.568 452.614C296.866 452.432 297.065 452.157 297.163 451.788H298.717C298.633 452.292 298.432 452.719 298.115 453.069C297.802 453.419 297.419 453.685 296.967 453.867C296.519 454.049 296.05 454.14 295.56 454.14ZM293.733 449.716H297.135C297.135 449.366 297.072 449.051 296.946 448.771C296.824 448.486 296.64 448.262 296.393 448.099C296.145 447.931 295.833 447.847 295.455 447.847C295.081 447.847 294.766 447.938 294.51 448.12C294.253 448.302 294.059 448.538 293.929 448.827C293.798 449.112 293.733 449.408 293.733 449.716ZM302.458 454.105C301.992 454.105 301.618 454.047 301.338 453.93C301.058 453.813 300.848 453.657 300.708 453.461C300.568 453.265 300.477 453.046 300.435 452.803C300.393 452.556 300.372 452.304 300.372 452.047V443.598H302.038V451.851C302.038 452.164 302.101 452.406 302.227 452.579C302.358 452.752 302.568 452.852 302.857 452.88L303.221 452.894V453.965C303.095 454.002 302.967 454.035 302.836 454.063C302.706 454.091 302.58 454.105 302.458 454.105ZM307.471 454.14C306.78 454.14 306.178 453.993 305.665 453.699C305.151 453.4 304.752 452.973 304.468 452.418C304.188 451.863 304.048 451.195 304.048 450.416C304.048 449.66 304.185 448.997 304.461 448.428C304.736 447.859 305.128 447.415 305.637 447.098C306.15 446.781 306.764 446.622 307.478 446.622C308.168 446.622 308.768 446.774 309.277 447.077C309.785 447.38 310.177 447.814 310.453 448.379C310.733 448.944 310.873 449.623 310.873 450.416C310.873 451.149 310.74 451.795 310.474 452.355C310.212 452.91 309.827 453.347 309.319 453.664C308.815 453.981 308.199 454.14 307.471 454.14ZM307.478 452.845C307.87 452.845 308.192 452.738 308.444 452.523C308.7 452.308 308.892 452.014 309.018 451.641C309.144 451.268 309.207 450.843 309.207 450.367C309.207 449.924 309.151 449.515 309.039 449.142C308.927 448.769 308.742 448.47 308.486 448.246C308.234 448.017 307.898 447.903 307.478 447.903C307.081 447.903 306.752 448.008 306.491 448.218C306.234 448.423 306.043 448.713 305.917 449.086C305.791 449.455 305.728 449.882 305.728 450.367C305.728 450.806 305.784 451.214 305.896 451.592C306.008 451.965 306.192 452.269 306.449 452.502C306.705 452.731 307.048 452.845 307.478 452.845ZM312.431 456.254V446.762H314.132L314.146 447.903C314.239 447.744 314.358 447.588 314.503 447.434C314.652 447.28 314.823 447.142 315.014 447.021C315.21 446.9 315.427 446.804 315.665 446.734C315.903 446.659 316.164 446.622 316.449 446.622C317.004 446.622 317.497 446.755 317.926 447.021C318.355 447.282 318.691 447.686 318.934 448.232C319.181 448.778 319.305 449.469 319.305 450.304C319.305 451.158 319.179 451.87 318.927 452.439C318.675 453.008 318.323 453.435 317.87 453.72C317.417 454 316.892 454.14 316.295 454.14C316.02 454.14 315.768 454.103 315.539 454.028C315.315 453.953 315.114 453.851 314.937 453.72C314.76 453.589 314.603 453.447 314.468 453.293C314.337 453.139 314.228 452.978 314.139 452.81V456.254H312.431ZM315.917 452.866C316.43 452.866 316.855 452.663 317.191 452.257C317.527 451.846 317.695 451.205 317.695 450.332C317.695 449.576 317.536 448.981 317.219 448.547C316.906 448.108 316.472 447.889 315.917 447.889C315.32 447.889 314.872 448.12 314.573 448.582C314.274 449.039 314.125 449.623 314.125 450.332C314.125 450.789 314.19 451.212 314.321 451.599C314.456 451.982 314.655 452.29 314.916 452.523C315.182 452.752 315.516 452.866 315.917 452.866ZM324.052 454.14C323.356 454.14 322.743 453.993 322.211 453.699C321.683 453.4 321.27 452.976 320.972 452.425C320.678 451.874 320.531 451.219 320.531 450.458C320.531 449.716 320.664 449.058 320.93 448.484C321.2 447.905 321.59 447.45 322.099 447.119C322.612 446.788 323.23 446.622 323.954 446.622C324.668 446.622 325.267 446.774 325.753 447.077C326.238 447.38 326.607 447.805 326.859 448.351C327.111 448.892 327.237 449.527 327.237 450.255V450.773H322.232C322.227 451.184 322.292 451.548 322.428 451.865C322.563 452.182 322.764 452.432 323.03 452.614C323.296 452.791 323.625 452.88 324.017 452.88C324.418 452.88 324.766 452.791 325.06 452.614C325.358 452.432 325.557 452.157 325.655 451.788H327.209C327.125 452.292 326.924 452.719 326.607 453.069C326.294 453.419 325.911 453.685 325.459 453.867C325.011 454.049 324.542 454.14 324.052 454.14ZM322.225 449.716H325.627C325.627 449.366 325.564 449.051 325.438 448.771C325.316 448.486 325.132 448.262 324.885 448.099C324.637 447.931 324.325 447.847 323.947 447.847C323.573 447.847 323.258 447.938 323.002 448.12C322.745 448.302 322.551 448.538 322.421 448.827C322.29 449.112 322.225 449.408 322.225 449.716ZM328.864 454V446.762H330.495V448.33C330.612 447.971 330.778 447.665 330.992 447.413C331.212 447.156 331.468 446.96 331.762 446.825C332.056 446.69 332.376 446.622 332.721 446.622C332.805 446.622 332.887 446.627 332.966 446.636C333.046 446.645 333.104 446.662 333.141 446.685V448.316C333.09 448.293 333.022 448.276 332.938 448.267C332.859 448.258 332.789 448.253 332.728 448.253C332.378 448.225 332.068 448.239 331.797 448.295C331.531 448.351 331.305 448.447 331.118 448.582C330.936 448.713 330.799 448.881 330.705 449.086C330.612 449.287 330.565 449.522 330.565 449.793V454H328.864Z" fill="black"/>
<path d="M239.845 378V367.878H243.765C244.493 367.878 245.102 367.99 245.592 368.214C246.082 368.433 246.448 368.751 246.691 369.166C246.933 369.577 247.055 370.069 247.055 370.643C247.055 371.194 246.957 371.651 246.761 372.015C246.569 372.379 246.324 372.673 246.026 372.897C245.727 373.116 245.417 373.287 245.095 373.408L247.083 378H245.711L243.863 373.639H241.14V378H239.845ZM241.14 372.568H243.345C244.105 372.568 244.693 372.414 245.109 372.106C245.524 371.793 245.732 371.331 245.732 370.72C245.732 370.123 245.545 369.677 245.172 369.383C244.803 369.084 244.297 368.935 243.653 368.935H241.14V372.568ZM251.719 378.14C251.052 378.14 250.468 377.998 249.969 377.713C249.474 377.424 249.089 377.001 248.814 376.446C248.539 375.891 248.401 375.212 248.401 374.409C248.401 373.653 248.529 372.99 248.786 372.421C249.043 371.852 249.418 371.411 249.913 371.098C250.408 370.781 251.012 370.622 251.726 370.622C252.393 370.622 252.972 370.769 253.462 371.063C253.952 371.352 254.332 371.779 254.603 372.344C254.878 372.909 255.016 373.597 255.016 374.409C255.016 375.146 254.89 375.795 254.638 376.355C254.386 376.915 254.015 377.354 253.525 377.671C253.04 377.984 252.438 378.14 251.719 378.14ZM251.726 377.118C252.155 377.118 252.519 377.008 252.818 376.789C253.117 376.57 253.343 376.255 253.497 375.844C253.656 375.433 253.735 374.946 253.735 374.381C253.735 373.863 253.665 373.399 253.525 372.988C253.39 372.573 253.175 372.244 252.881 372.001C252.587 371.758 252.202 371.637 251.726 371.637C251.287 371.637 250.916 371.747 250.613 371.966C250.31 372.181 250.079 372.493 249.92 372.904C249.766 373.315 249.689 373.807 249.689 374.381C249.689 374.89 249.757 375.352 249.892 375.767C250.032 376.182 250.251 376.511 250.55 376.754C250.853 376.997 251.245 377.118 251.726 377.118ZM258.564 378.091C258.172 378.091 257.855 378.037 257.612 377.93C257.374 377.823 257.19 377.678 257.059 377.496C256.933 377.314 256.847 377.106 256.8 376.873C256.758 376.635 256.737 376.39 256.737 376.138V367.598H258.011V376.012C258.011 376.376 258.081 376.649 258.221 376.831C258.366 377.013 258.566 377.113 258.823 377.132L259.215 377.139V377.979C259.108 378.012 258.996 378.037 258.879 378.056C258.762 378.079 258.657 378.091 258.564 378.091ZM263.693 378.14C263.021 378.14 262.428 377.993 261.915 377.699C261.401 377.405 261 376.983 260.711 376.432C260.421 375.881 260.277 375.221 260.277 374.451C260.277 373.69 260.407 373.023 260.669 372.449C260.93 371.875 261.308 371.427 261.803 371.105C262.302 370.783 262.902 370.622 263.602 370.622C264.283 370.622 264.859 370.769 265.331 371.063C265.802 371.357 266.159 371.772 266.402 372.309C266.649 372.841 266.773 373.473 266.773 374.206V374.682H261.586C261.586 375.139 261.66 375.555 261.81 375.928C261.964 376.297 262.195 376.591 262.503 376.81C262.811 377.029 263.2 377.139 263.672 377.139C264.134 377.139 264.53 377.032 264.862 376.817C265.198 376.602 265.412 376.292 265.506 375.886H266.724C266.639 376.376 266.444 376.789 266.136 377.125C265.832 377.461 265.466 377.715 265.037 377.888C264.612 378.056 264.164 378.14 263.693 378.14ZM261.593 373.807H265.527C265.527 373.392 265.457 373.018 265.317 372.687C265.177 372.351 264.962 372.087 264.673 371.896C264.388 371.7 264.029 371.602 263.595 371.602C263.142 371.602 262.766 371.712 262.468 371.931C262.169 372.146 261.947 372.423 261.803 372.764C261.658 373.1 261.588 373.448 261.593 373.807Z" fill="#1A1B1D"/>
<path d="M226.981 207.818V218H225.445V207.818H226.981ZM237.282 207.818V218H235.87L230.695 210.533H230.601V218H229.064V207.818H230.486L235.667 215.295H235.761V207.818H237.282ZM245.182 218V219.263H238.714V218H245.182ZM246.133 218V207.818H249.763C250.551 207.818 251.206 207.954 251.726 208.226C252.25 208.498 252.641 208.874 252.9 209.354C253.158 209.832 253.287 210.384 253.287 211.01C253.287 211.633 253.156 212.182 252.895 212.656C252.636 213.126 252.245 213.492 251.721 213.754C251.201 214.016 250.546 214.147 249.758 214.147H247.008V212.825H249.618C250.116 212.825 250.52 212.753 250.831 212.611C251.146 212.468 251.377 212.261 251.522 211.989C251.668 211.718 251.741 211.391 251.741 211.01C251.741 210.625 251.667 210.292 251.517 210.011C251.372 209.729 251.141 209.513 250.826 209.364C250.515 209.212 250.106 209.136 249.598 209.136H247.669V218H246.133ZM251.16 213.406L253.675 218H251.925L249.459 213.406H251.16ZM263.847 212.909C263.847 213.996 263.648 214.931 263.251 215.713C262.853 216.492 262.308 217.092 261.615 217.513C260.926 217.93 260.142 218.139 259.263 218.139C258.382 218.139 257.595 217.93 256.902 217.513C256.212 217.092 255.669 216.49 255.271 215.708C254.873 214.926 254.675 213.993 254.675 212.909C254.675 211.822 254.873 210.889 255.271 210.11C255.669 209.328 256.212 208.728 256.902 208.31C257.595 207.889 258.382 207.679 259.263 207.679C260.142 207.679 260.926 207.889 261.615 208.31C262.308 208.728 262.853 209.328 263.251 210.11C263.648 210.889 263.847 211.822 263.847 212.909ZM262.326 212.909C262.326 212.08 262.192 211.383 261.923 210.816C261.658 210.246 261.293 209.815 260.829 209.523C260.369 209.228 259.847 209.081 259.263 209.081C258.677 209.081 258.153 209.228 257.692 209.523C257.232 209.815 256.867 210.246 256.599 210.816C256.333 211.383 256.201 212.08 256.201 212.909C256.201 213.738 256.333 214.437 256.599 215.007C256.867 215.574 257.232 216.005 257.692 216.3C258.153 216.591 258.677 216.737 259.263 216.737C259.847 216.737 260.369 216.591 260.829 216.3C261.293 216.005 261.658 215.574 261.923 215.007C262.192 214.437 262.326 213.738 262.326 212.909ZM265.608 218V207.818H267.145V216.678H271.758V218H265.608ZM273.357 218V207.818H279.74V209.141H274.893V212.243H279.407V213.56H274.893V216.678H279.8V218H273.357Z" fill="black" fill-opacity="0.8"/>
</svg>
