<svg width="48" height="48" viewBox="0 0 48 48" fill="none" xmlns="http://www.w3.org/2000/svg">
<g clip-path="url(#clip0_1396_9397)">
<path d="M9.614 26.084L1.5 36L9 37.5L12 46.5L19.888 33.984" stroke="#4C99A4" stroke-width="2" stroke-linecap="round" stroke-linejoin="round"/>
<path d="M38.3861 26.084L46.5001 36L39.0001 37.5L36.0001 46.5L28.1121 33.984" stroke="#4C99A4" stroke-width="2" stroke-linecap="round" stroke-linejoin="round"/>
<path d="M7.5 18C7.5 22.3761 9.23839 26.5729 12.3327 29.6673C15.4271 32.7616 19.6239 34.5 24 34.5C28.3761 34.5 32.5729 32.7616 35.6673 29.6673C38.7616 26.5729 40.5 22.3761 40.5 18C40.5 13.6239 38.7616 9.42709 35.6673 6.33274C32.5729 3.23839 28.3761 1.5 24 1.5C19.6239 1.5 15.4271 3.23839 12.3327 6.33274C9.23839 9.42709 7.5 13.6239 7.5 18V18Z" stroke="#5CC3C9" stroke-width="2" stroke-linecap="round" stroke-linejoin="round"/>
<path d="M25.062 8.58373L27.558 13.4997H31.812C32.0462 13.494 32.2767 13.5591 32.4733 13.6864C32.6699 13.8138 32.8235 13.9975 32.914 14.2136C33.0045 14.4296 33.0278 14.668 32.9807 14.8974C32.9336 15.1269 32.8183 15.3368 32.65 15.4997L28.744 19.3357L30.908 24.3057C31.0034 24.5334 31.0249 24.7852 30.9695 25.0257C30.914 25.2662 30.7844 25.4832 30.599 25.6461C30.4136 25.8089 30.1817 25.9095 29.9361 25.9334C29.6904 25.9574 29.4435 25.9037 29.23 25.7797L24 22.8377L18.77 25.7797C18.5566 25.9037 18.3096 25.9574 18.064 25.9334C17.8184 25.9095 17.5865 25.8089 17.4011 25.6461C17.2156 25.4832 17.086 25.2662 17.0306 25.0257C16.9752 24.7852 16.9966 24.5334 17.092 24.3057L19.256 19.3357L15.35 15.4917C15.1817 15.3288 15.0665 15.1189 15.0194 14.8894C14.9723 14.6599 14.9955 14.4216 15.086 14.2056C15.1766 13.9895 15.3302 13.8058 15.5268 13.6784C15.7234 13.5511 15.9538 13.486 16.188 13.4917H20.442L22.94 8.58373C23.042 8.39073 23.1947 8.22921 23.3816 8.11654C23.5686 8.00387 23.7827 7.94434 24.001 7.94434C24.2193 7.94434 24.4335 8.00387 24.6204 8.11654C24.8074 8.22921 24.9601 8.39073 25.062 8.58373V8.58373Z" stroke="#4C99A4" stroke-width="2" stroke-linecap="round" stroke-linejoin="round"/>
</g>
<defs>
<clipPath id="clip0_1396_9397">
<rect width="48" height="48" fill="white"/>
</clipPath>
</defs>
</svg>
