<svg width="50" height="46" viewBox="0 0 50 46" fill="none" xmlns="http://www.w3.org/2000/svg">
<path d="M33.5842 0C23.7619 0 17.1689 5.76603 17.1689 16.8977V24.8097C18.1104 24.3403 19.1874 24.0718 20.3306 24.0718C21.4739 24.0718 22.5509 24.3403 23.5601 24.8097V16.8302C23.5601 9.58859 27.529 5.90099 33.5842 5.90099C39.6394 5.90099 43.6084 9.58859 43.6084 16.8302V34.1973H49.9995V16.8302C50.0672 5.63258 43.4066 0 33.5842 0Z" fill="#4C99A4"/>
<path d="M2.77211 19.1129C1.96477 19.5148 1.22519 20.1851 0.685945 21.0579C0.148209 21.9292 -0.0536257 22.8679 0.0126497 23.8067C0.0804294 25.4833 1.02185 27.0248 2.56877 27.8961C3.98166 28.6999 5.59638 28.499 7.14331 28.1645C9.02762 27.6951 10.6423 27.4942 12.3234 28.5005H12.3911C15.2847 30.177 15.2847 34.4015 12.3911 36.0765H12.3234C10.6409 37.0826 9.02616 36.8815 7.14331 36.4124C5.66264 36.0105 4.04792 35.8096 2.56877 36.6811C1.02185 37.5522 0.146705 39.1612 0.0126497 40.7701C-0.0551358 41.7089 0.146705 42.6477 0.685945 43.5189C1.22368 44.3906 1.89698 45.0608 2.77211 45.464C4.25278 46.2018 6.06931 46.2018 7.61625 45.3306C9.02914 44.527 9.70243 42.9839 10.1061 41.5078C10.6439 39.6309 11.2494 38.1548 12.9996 37.216C14.6821 36.21 16.2968 36.4124 18.1797 36.8815C19.6604 37.2836 21.2751 37.4847 22.7542 36.6135C24.3012 35.7421 25.1763 34.133 25.3104 32.5239V31.8536C25.2426 30.177 24.3012 28.6354 22.7542 27.7641C21.3413 26.9589 19.7266 27.1613 18.1797 27.4957C16.2954 27.9651 14.6807 28.166 12.9996 27.1598C11.3171 26.1536 10.6454 24.7454 10.1061 22.8679C9.70243 21.3923 9.02914 19.9181 7.61625 19.0454C6.06931 18.3751 4.25278 18.3751 2.77211 19.1129Z" fill="#014063"/>
</svg>
