<svg width="48" height="48" viewBox="0 0 48 48" fill="none" xmlns="http://www.w3.org/2000/svg">
<path d="M37.5 7.50195C42.4706 7.50195 46.5 6.15881 46.5 4.50195C46.5 2.8451 42.4706 1.50195 37.5 1.50195C32.5294 1.50195 28.5 2.8451 28.5 4.50195C28.5 6.15881 32.5294 7.50195 37.5 7.50195Z" stroke="#5CC3C9" stroke-width="2" stroke-linecap="round" stroke-linejoin="round"/>
<path d="M46.5 4.50195V13.502C46.5 15.158 42.47 16.502 37.5 16.502C32.53 16.502 28.5 15.158 28.5 13.502V4.50195" stroke="#5CC3C9" stroke-width="2" stroke-linecap="round" stroke-linejoin="round"/>
<path d="M46.5 13.502V22.502C46.5 24.158 42.47 25.502 37.5 25.502C32.53 25.502 28.5 24.158 28.5 22.502V13.502" stroke="#5CC3C9" stroke-width="2" stroke-linecap="round" stroke-linejoin="round"/>
<path d="M12 13.502L7.5 18V13.502C7.5 11.9107 8.13214 10.3845 9.25736 9.25931C10.3826 8.13409 11.9087 7.50195 13.5 7.50195H22.5" stroke="#5CC3C9" stroke-width="2" stroke-linecap="round" stroke-linejoin="round"/>
<path d="M3 13.502L7.5 18.002" stroke="#5CC3C9" stroke-width="2" stroke-linecap="round" stroke-linejoin="round"/>
<path d="M18 3.00195L22.5 7.50195L18 12.002" stroke="#5CC3C9" stroke-width="2" stroke-linecap="round" stroke-linejoin="round"/>
<path d="M2.26923 44H21.7308M2.26923 44C1.56825 44 1 43.4292 1 42.725M2.26923 44H10.7308C11.4317 44 12 43.4292 12 42.725M1 42.725V28.275M1 42.725V41.025C1 40.3208 1.56825 39.75 2.26923 39.75M23 42.725V28.275M23 42.725C23 43.4292 22.4317 44 21.7308 44M23 42.725V41.025C23 40.3208 22.4317 39.75 21.7308 39.75M21.7308 44H13.2692C12.5683 44 12 43.4292 12 42.725M23 28.275C23 27.5708 22.4317 27 21.7308 27H2.26923C1.56825 27 1 27.5708 1 28.275M23 28.275V29.975C23 30.6792 22.4317 31.25 21.7308 31.25M1 28.275V29.975C1 30.6792 1.56825 31.25 2.26923 31.25M2.26923 31.25H21.7308M2.26923 31.25H10.7308C11.4317 31.25 12 31.8208 12 32.525M2.26923 31.25C1.56825 31.25 1 31.8208 1 32.525V34.225C1 34.9292 1.56825 35.5 2.26923 35.5M21.7308 31.25H13.2692C12.5683 31.25 12 31.8208 12 32.525M21.7308 31.25C22.4317 31.25 23 31.8208 23 32.525V34.225C23 34.9292 22.4317 35.5 21.7308 35.5M2.26923 35.5H10.7308M2.26923 35.5C1.56825 35.5 1 36.0708 1 36.775V38.475C1 39.1792 1.56825 39.75 2.26923 39.75M12 34.225V32.525M12 34.225C12 34.9292 11.4317 35.5 10.7308 35.5M12 34.225C12 34.9292 12.5683 35.5 13.2692 35.5M10.7308 35.5C11.4317 35.5 12 36.0708 12 36.775M13.2692 35.5H21.7308M13.2692 35.5C12.5683 35.5 12 36.0708 12 36.775M21.7308 35.5C22.4317 35.5 23 36.0708 23 36.775V38.475C23 39.1792 22.4317 39.75 21.7308 39.75M2.26923 39.75H10.7308M12 38.475V36.775M12 38.475C12 39.1792 11.4317 39.75 10.7308 39.75M12 38.475C12 39.1792 12.5683 39.75 13.2692 39.75M10.7308 39.75C11.4317 39.75 12 40.3208 12 41.025M12 42.725V41.025M12 41.025C12 40.3208 12.5683 39.75 13.2692 39.75M13.2692 39.75H21.7308" stroke="#4C99A4" stroke-width="2" stroke-linecap="round" stroke-linejoin="round"/>
</svg>
