<svg width="48" height="48" viewBox="0 0 48 48" fill="none" xmlns="http://www.w3.org/2000/svg">
<g clip-path="url(#clip0_1129_653)">
<path d="M45.236 29.746L29.974 45L22.474 46.5L23.974 39L39.236 23.738C40.0293 22.9448 41.1052 22.4991 42.227 22.4991C43.3488 22.4991 44.4247 22.9448 45.218 23.738L45.236 23.756C45.63 24.1489 45.9425 24.6157 46.1558 25.1297C46.3691 25.6436 46.4789 26.1946 46.4789 26.751C46.4789 27.3074 46.3691 27.8584 46.1558 28.3723C45.9425 28.8863 45.63 29.3531 45.236 29.746V29.746Z" stroke="#4C99A4" stroke-width="2" stroke-linecap="round" stroke-linejoin="round"/>
<path d="M16.474 40.508H4.474C3.67835 40.508 2.91529 40.1919 2.35268 39.6293C1.79007 39.0667 1.474 38.3036 1.474 37.508V4.508C1.474 3.71235 1.79007 2.94928 2.35268 2.38668C2.91529 1.82407 3.67835 1.508 4.474 1.508H25.732C26.126 1.50782 26.5162 1.58526 26.8803 1.73591C27.2444 1.88656 27.5753 2.10746 27.854 2.386L33.6 8.128C33.8785 8.40671 34.0994 8.73756 34.2501 9.10166C34.4007 9.46576 34.4782 9.85596 34.478 10.25V16.508" stroke="#5CC3C9" stroke-width="2" stroke-linecap="round" stroke-linejoin="round"/>
<path d="M17.974 12.008L22.474 16.508L17.974 21.008" stroke="#4C99A4" stroke-width="2" stroke-linecap="round" stroke-linejoin="round"/>
<path d="M11.974 12.008L7.474 16.508L11.974 21.008" stroke="#4C99A4" stroke-width="2" stroke-linecap="round" stroke-linejoin="round"/>
</g>
<defs>
<clipPath id="clip0_1129_653">
<rect width="48" height="48" fill="white"/>
</clipPath>
</defs>
</svg>
