<svg width="70" height="70" viewBox="0 0 70 70" fill="none" xmlns="http://www.w3.org/2000/svg">
<g clip-path="url(#clip0_1372_3938)">
<path d="M51.5 21.502V39.502C51.5 40.2976 51.1839 41.0607 50.6213 41.6233C50.0587 42.1859 49.2956 42.502 48.5 42.502H21.5C20.7044 42.502 19.9413 42.1859 19.3787 41.6233C18.8161 41.0607 18.5 40.2976 18.5 39.502V21.502" stroke="#002B66" stroke-width="3" stroke-linecap="round" stroke-linejoin="round"/>
<path d="M54.496 57.502H15.504C14.9928 57.5019 14.4901 57.3713 14.0436 57.1224C13.5971 56.8735 13.2215 56.5147 12.9527 56.0799C12.6838 55.6451 12.5305 55.1488 12.5072 54.6381C12.484 54.1275 12.5917 53.6193 12.82 53.162L16.492 45.82C16.9901 44.8232 17.756 43.9848 18.7037 43.3987C19.6515 42.8127 20.7437 42.5022 21.858 42.502H48.142C49.2564 42.5022 50.3486 42.8127 51.2964 43.3987C52.2441 43.9848 53.01 44.8232 53.508 45.82L57.18 53.162C57.4084 53.6193 57.5161 54.1275 57.4929 54.6381C57.4696 55.1488 57.3163 55.6451 57.0474 56.0799C56.7786 56.5147 56.403 56.8735 55.9565 57.1224C55.51 57.3713 55.0073 57.5019 54.496 57.502Z" stroke="#002B66" stroke-width="3" stroke-linecap="round" stroke-linejoin="round"/>
<path d="M32 51.502H38" stroke="#002B66" stroke-width="3" stroke-linecap="round" stroke-linejoin="round"/>
<path d="M35 15.8239C35 15.8239 35.954 12.8239 44.122 12.5039C44.2895 12.4892 44.4583 12.5078 44.6186 12.5588C44.7788 12.6098 44.9274 12.6921 45.0555 12.8009C45.1837 12.9098 45.289 13.043 45.3653 13.1928C45.4416 13.3427 45.4874 13.5062 45.5 13.6739V26.0219C45.4725 26.3469 45.3208 26.6488 45.0764 26.8648C44.8321 27.0808 44.5139 27.1944 44.188 27.1819C35.968 27.4759 35 30.5019 35 30.5019V15.8239ZM35 15.8239C35 15.8239 34.046 12.8139 25.878 12.5039C25.7105 12.4892 25.5417 12.5078 25.3814 12.5588C25.2212 12.6098 25.0726 12.6921 24.9445 12.8009C24.8163 12.9098 24.711 13.043 24.6347 13.1928C24.5584 13.3427 24.5126 13.5062 24.5 13.6739V26.0219C24.5275 26.3469 24.6792 26.6488 24.9236 26.8648C25.1679 27.0808 25.4861 27.1944 25.812 27.1819C34.032 27.4759 35 30.5019 35 30.5019" stroke="#002B66" stroke-width="3" stroke-linecap="round" stroke-linejoin="round"/>
</g>
<defs>
<clipPath id="clip0_1372_3938">
<rect width="48" height="48" fill="white" transform="translate(11 11)"/>
</clipPath>
</defs>
</svg>
