<svg width="16" height="16" viewBox="0 0 16 16" fill="none" xmlns="http://www.w3.org/2000/svg">
<path d="M2.83955 6.76443C2.65792 8.15379 2.54759 9.56556 2.51235 10.996C4.44301 11.802 6.27929 12.789 8 13.9357C9.72071 12.789 11.557 11.802 13.4876 10.996C13.4524 9.56557 13.3421 8.1538 13.1605 6.76446M2.83955 6.76443C2.25575 6.5682 1.66486 6.38738 1.06738 6.22247C3.23097 4.70591 5.55161 3.39813 8.00003 2.32837C10.4485 3.39813 12.7691 4.70592 14.9327 6.22247C14.3352 6.3874 13.7443 6.56822 13.1605 6.76446M2.83955 6.76443C4.63104 7.3666 6.35586 8.11392 8.00003 8.99242C9.64418 8.11393 11.369 7.36662 13.1605 6.76446M4.5 10C4.77614 10 5 9.77614 5 9.5C5 9.22386 4.77614 9 4.5 9C4.22386 9 4 9.22386 4 9.5C4 9.77614 4.22386 10 4.5 10ZM4.5 10V7.54965C5.62765 6.84899 6.79575 6.2073 8 5.62886M3.32843 13.3284C4.10947 12.5474 4.5 11.5237 4.5 10.5V9.5" stroke="black" stroke-width="1.5" stroke-linecap="round" stroke-linejoin="round"/>
</svg>
