<svg width="48" height="48" viewBox="0 0 48 48" fill="none" xmlns="http://www.w3.org/2000/svg">
<path d="M27 28.4961C26.0151 28.4961 25.0398 28.3021 24.1299 27.9252C23.2199 27.5483 22.3931 26.9958 21.6967 26.2994C21.0003 25.603 20.4478 24.7762 20.0709 23.8662C19.694 22.9563 19.5 21.981 19.5 20.9961C19.5 20.0112 19.694 19.0359 20.0709 18.126C20.4478 17.216 21.0003 16.3892 21.6967 15.6928C22.3931 14.9964 23.2199 14.4439 24.1299 14.067C25.0398 13.6901 26.0151 13.4961 27 13.4961C27.9849 13.4961 28.9602 13.6901 29.8701 14.067C30.7801 14.4439 31.6069 14.9964 32.3033 15.6928C32.9997 16.3892 33.5522 17.216 33.9291 18.126C34.306 19.0359 34.5 20.0112 34.5 20.9961C34.5 21.981 34.306 22.9563 33.9291 23.8662C33.5522 24.7762 32.9997 25.603 32.3033 26.2994C31.6069 26.9958 30.7801 27.5483 29.8701 27.9252C28.9602 28.3021 27.9849 28.4961 27 28.4961ZM27 28.4961V37.4961M27 37.4961C28.1935 37.4961 29.3381 37.9702 30.182 38.8141C31.0259 39.658 31.5 40.8026 31.5 41.9961C31.5 43.1896 31.0259 44.3342 30.182 45.1781C29.3381 46.022 28.1935 46.4961 27 46.4961C25.8065 46.4961 24.6619 46.022 23.818 45.1781C22.9741 44.3342 22.5 43.1896 22.5 41.9961C22.5 40.8026 22.9741 39.658 23.818 38.8141C24.6619 37.9702 25.8065 37.4961 27 37.4961ZM32.3019 15.6961L38.8219 9.17609M33.588 24.5841L38.158 29.1541M21.702 26.2941L9.18 38.8161M20.002 18.2981L11.22 13.0281M37.5 5.99609C37.5 7.18957 37.9741 8.33416 38.818 9.17807C39.6619 10.022 40.8065 10.4961 42 10.4961C43.1935 10.4961 44.3381 10.022 45.182 9.17807C46.0259 8.33416 46.5 7.18957 46.5 5.99609C46.5 4.80262 46.0259 3.65803 45.182 2.81411C44.3381 1.9702 43.1935 1.49609 42 1.49609C40.8065 1.49609 39.6619 1.9702 38.818 2.81411C37.9741 3.65803 37.5 4.80262 37.5 5.99609ZM37.5 31.4961C37.5 32.6896 37.9741 33.8342 38.818 34.6781C39.6619 35.522 40.8065 35.9961 42 35.9961C43.1935 35.9961 44.3381 35.522 45.182 34.6781C46.0259 33.8342 46.5 32.6896 46.5 31.4961C46.5 30.3026 46.0259 29.158 45.182 28.3141C44.3381 27.4702 43.1935 26.9961 42 26.9961C40.8065 26.9961 39.6619 27.4702 38.818 28.3141C37.9741 29.158 37.5 30.3026 37.5 31.4961ZM1.5 41.9961C1.5 42.587 1.6164 43.1722 1.84254 43.7182C2.06869 44.2641 2.40016 44.7602 2.81802 45.1781C3.23588 45.5959 3.73196 45.9274 4.27792 46.1536C4.82389 46.3797 5.40905 46.4961 6 46.4961C6.59095 46.4961 7.17611 46.3797 7.72208 46.1536C8.26804 45.9274 8.76412 45.5959 9.18198 45.1781C9.59984 44.7602 9.93131 44.2641 10.1575 43.7182C10.3836 43.1722 10.5 42.587 10.5 41.9961C10.5 41.4051 10.3836 40.82 10.1575 40.274C9.93131 39.7281 9.59984 39.232 9.18198 38.8141C8.76412 38.3962 8.26804 38.0648 7.72208 37.8386C7.17611 37.6125 6.59095 37.4961 6 37.4961C5.40905 37.4961 4.82389 37.6125 4.27792 37.8386C3.73196 38.0648 3.23588 38.3962 2.81802 38.8141C2.40016 39.232 2.06869 39.7281 1.84254 40.274C1.6164 40.82 1.5 41.4051 1.5 41.9961ZM3 10.4961C3 11.6896 3.47411 12.8342 4.31802 13.6781C5.16193 14.522 6.30653 14.9961 7.5 14.9961C8.69347 14.9961 9.83807 14.522 10.682 13.6781C11.5259 12.8342 12 11.6896 12 10.4961C12 9.30262 11.5259 8.15803 10.682 7.31411C9.83807 6.4702 8.69347 5.99609 7.5 5.99609C6.30653 5.99609 5.16193 6.4702 4.31802 7.31411C3.47411 8.15803 3 9.30262 3 10.4961Z" stroke="#5CC3C9" stroke-width="1.5" stroke-linecap="round" stroke-linejoin="round"/>
<circle cx="42" cy="6" r="4.5" stroke="#4C99A4" stroke-width="1.5"/>
<circle cx="7.5" cy="10.5" r="4.5" stroke="#4C99A4" stroke-width="1.5"/>
<circle cx="27" cy="42" r="4.5" stroke="#4C99A4" stroke-width="1.5"/>
<circle cx="27" cy="21" r="7.5" stroke="#4C99A4" stroke-width="1.5"/>
<circle cx="6" cy="42" r="4.5" stroke="#4C99A4" stroke-width="1.5"/>
<circle cx="42" cy="31.5" r="4.5" stroke="#4C99A4" stroke-width="1.5"/>
</svg>
