<svg width="54" height="52" viewBox="0 0 54 52" fill="none" xmlns="http://www.w3.org/2000/svg">
<path d="M30.9297 18.5342C36.9756 22.0448 41.8981 26.095 44.9774 29.7735C46.5198 31.6161 47.5634 33.3224 48.0759 34.7837C48.5899 36.2492 48.53 37.3375 48.0902 38.1036C47.6504 38.8696 46.7433 39.466 45.2244 39.751C43.7097 40.0352 41.7187 39.9795 39.3607 39.5574C34.6535 38.7147 28.7046 36.4524 22.6587 32.9418C16.6128 29.4313 11.6902 25.3811 8.61099 21.7025C7.06855 19.8599 6.02499 18.1536 5.51243 16.6923C4.99842 15.2268 5.05836 14.1386 5.49813 13.3725C5.93791 12.6064 6.84505 12.0101 8.36399 11.725C9.8786 11.4408 11.8697 11.4966 14.2276 11.9187C18.9348 12.7614 24.8837 15.0237 30.9297 18.5342Z" stroke="#5CC3C9" stroke-width="2"/>
<path d="M30.9303 32.9355C24.8843 36.446 18.9354 38.7084 14.2282 39.551C11.8703 39.9731 9.87922 40.0289 8.36461 39.7447C6.84567 39.4596 5.93853 38.8633 5.49875 38.0972C5.05898 37.3312 4.99904 36.2429 5.51305 34.7774C6.0256 33.3161 7.06916 31.6098 8.61161 29.7672C11.6908 26.0886 16.6134 22.0385 22.6593 18.5279C28.7052 15.0173 34.6541 12.755 39.3613 11.9123C41.7193 11.4902 43.7104 11.4345 45.225 11.7187C46.7439 12.0038 47.6511 12.6001 48.0908 13.3662C48.5306 14.1322 48.5905 15.2205 48.0765 16.686C47.564 18.1473 46.5204 19.8536 44.978 21.6962C41.8987 25.3747 36.9762 29.4249 30.9303 32.9355Z" stroke="#5CC3C9" stroke-width="2"/>
<path fill-rule="evenodd" clip-rule="evenodd" d="M32.7403 38.7693C32.3763 40.4124 31.9471 41.9178 31.4654 43.2554C30.6723 45.4579 29.7749 47.0991 28.8787 48.1518C27.9758 49.2125 27.2638 49.4707 26.7946 49.4707C26.3254 49.4707 25.6135 49.2125 24.7105 48.1518C23.8143 47.0991 22.9169 45.4579 22.1238 43.2554C21.6423 41.9183 21.2132 40.4134 20.8493 38.771C20.2034 39.0011 19.5672 39.2135 18.9424 39.4077C20.5818 46.6541 23.4856 51.4707 26.7946 51.4707C30.1038 51.4707 33.0079 46.6533 34.6472 39.406C34.0224 39.2118 33.3862 38.9995 32.7403 38.7693ZM32.7381 12.6915C33.384 12.4613 34.0202 12.2489 34.6449 12.0547C33.0052 4.81292 30.1023 0 26.7946 0C23.4872 0 20.5844 4.81217 18.9446 12.053C19.5694 12.2472 20.2056 12.4596 20.8515 12.6898C21.215 11.0512 21.6433 9.54973 22.1238 8.21527C22.9169 6.01274 23.8143 4.37158 24.7105 3.31887C25.6135 2.25819 26.3254 2 26.7946 2C27.2638 2 27.9758 2.25819 28.8787 3.31887C29.7749 4.37158 30.6723 6.01274 31.4654 8.21527C31.9461 9.55018 32.3745 11.0522 32.7381 12.6915Z" fill="#5CC3C9"/>
<circle cx="26.5889" cy="25.6016" r="3" fill="#4C99A4"/>
</svg>
