<svg width="48" height="48" viewBox="0 0 48 48" fill="none" xmlns="http://www.w3.org/2000/svg">
<g clip-path="url(#clip0_4563_69)">
<path d="M27 28.496V37.496M27 37.496C28.1935 37.496 29.3381 37.9701 30.182 38.814C31.0259 39.6579 31.5 40.8025 31.5 41.996C31.5 43.1894 31.0259 44.334 30.182 45.178C29.3381 46.0219 28.1935 46.496 27 46.496C25.8065 46.496 24.6619 46.0219 23.818 45.178C22.9741 44.334 22.5 43.1894 22.5 41.996C22.5 40.8025 22.9741 39.6579 23.818 38.814C24.6619 37.9701 25.8065 37.496 27 37.496ZM32.3019 15.696L38.8219 9.17597M33.588 24.584L38.158 29.154M21.702 26.294L9.18 38.816M20.002 18.298L11.22 13.028M37.5 5.99597C37.5 7.18945 37.9741 8.33404 38.818 9.17795C39.6619 10.0219 40.8065 10.496 42 10.496C43.1935 10.496 44.3381 10.0219 45.182 9.17795C46.0259 8.33404 46.5 7.18945 46.5 5.99597C46.5 4.8025 46.0259 3.6579 45.182 2.81399C44.3381 1.97008 43.1935 1.49597 42 1.49597C40.8065 1.49597 39.6619 1.97008 38.818 2.81399C37.9741 3.6579 37.5 4.8025 37.5 5.99597ZM37.5 31.496C37.5 32.6894 37.9741 33.834 38.818 34.678C39.6619 35.5219 40.8065 35.996 42 35.996C43.1935 35.996 44.3381 35.5219 45.182 34.678C46.0259 33.834 46.5 32.6894 46.5 31.496C46.5 30.3025 46.0259 29.1579 45.182 28.314C44.3381 27.4701 43.1935 26.996 42 26.996C40.8065 26.996 39.6619 27.4701 38.818 28.314C37.9741 29.1579 37.5 30.3025 37.5 31.496ZM1.5 41.996C1.5 42.5869 1.6164 43.1721 1.84254 43.718C2.06869 44.264 2.40016 44.7601 2.81802 45.178C3.23588 45.5958 3.73196 45.9273 4.27792 46.1534C4.82389 46.3796 5.40905 46.496 6 46.496C6.59095 46.496 7.17611 46.3796 7.72208 46.1534C8.26804 45.9273 8.76412 45.5958 9.18198 45.178C9.59984 44.7601 9.93131 44.264 10.1575 43.718C10.3836 43.1721 10.5 42.5869 10.5 41.996C10.5 41.405 10.3836 40.8199 10.1575 40.2739C9.93131 39.7279 9.59984 39.2319 9.18198 38.814C8.76412 38.3961 8.26804 38.0647 7.72208 37.8385C7.17611 37.6124 6.59095 37.496 6 37.496C5.40905 37.496 4.82389 37.6124 4.27792 37.8385C3.73196 38.0647 3.23588 38.3961 2.81802 38.814C2.40016 39.2319 2.06869 39.7279 1.84254 40.2739C1.6164 40.8199 1.5 41.405 1.5 41.996ZM3 10.496C3 11.6894 3.47411 12.834 4.31802 13.678C5.16193 14.5219 6.30653 14.996 7.5 14.996C8.69347 14.996 9.83807 14.5219 10.682 13.678C11.5259 12.834 12 11.6894 12 10.496C12 9.3025 11.5259 8.15791 10.682 7.31399C9.83807 6.47008 8.69347 5.99597 7.5 5.99597C6.30653 5.99597 5.16193 6.47008 4.31802 7.31399C3.47411 8.15791 3 9.3025 3 10.496Z" stroke="#5CC3C9" stroke-width="2" stroke-linecap="round" stroke-linejoin="round"/>
<path d="M19.5 20.996C19.5 21.9809 19.694 22.9562 20.0709 23.8661C20.4478 24.776 21.0003 25.6028 21.6967 26.2993C22.3931 26.9957 23.2199 27.5482 24.1299 27.9251C25.0398 28.302 26.0151 28.496 27 28.496C27.9849 28.496 28.9602 28.302 29.8701 27.9251C30.7801 27.5482 31.6069 26.9957 32.3033 26.2993C32.9997 25.6028 33.5522 24.776 33.9291 23.8661C34.306 22.9562 34.5 21.9809 34.5 20.996C34.5 20.0111 34.306 19.0358 33.9291 18.1258C33.5522 17.2159 32.9997 16.3891 32.3033 15.6927C31.6069 14.9962 30.7801 14.4438 29.8701 14.0669C28.9602 13.69 27.9849 13.496 27 13.496C26.0151 13.496 25.0398 13.69 24.1299 14.0669C23.2199 14.4438 22.3931 14.9962 21.6967 15.6927C21.0003 16.3891 20.4478 17.2159 20.0709 18.1258C19.694 19.0358 19.5 20.0111 19.5 20.996Z" stroke="#4C99A4" stroke-width="2" stroke-linecap="round" stroke-linejoin="round"/>
</g>
<defs>
<clipPath id="clip0_4563_69">
<rect width="48" height="48" fill="white"/>
</clipPath>
</defs>
</svg>
