<svg width="48" height="48" viewBox="0 0 48 48" fill="none" xmlns="http://www.w3.org/2000/svg">
<path d="M24 12.0039V36.0039" stroke="#5CC3C9" stroke-width="2" stroke-linecap="round" stroke-linejoin="round"/>
<path d="M15 27.0039L24 36.0039L33 27.0039" stroke="#5CC3C9" stroke-width="2" stroke-linecap="round" stroke-linejoin="round"/>
<path d="M1.5 10.5039V4.50391C1.5 3.70826 1.81607 2.9452 2.37868 2.38259C2.94129 1.81998 3.70435 1.50391 4.5 1.50391H10.5" stroke="#4C99A4" stroke-width="2" stroke-linecap="round" stroke-linejoin="round"/>
<path d="M1.5 37.5039V43.5039C1.5 44.2996 1.81607 45.0626 2.37868 45.6252C2.94129 46.1878 3.70435 46.5039 4.5 46.5039H10.5" stroke="#4C99A4" stroke-width="2" stroke-linecap="round" stroke-linejoin="round"/>
<path d="M1.5 19.5039V28.5039" stroke="#4C99A4" stroke-width="2" stroke-linecap="round" stroke-linejoin="round"/>
<path d="M46.5 10.5039V4.50391C46.5 3.70826 46.1839 2.9452 45.6213 2.38259C45.0587 1.81998 44.2956 1.50391 43.5 1.50391H37.5" stroke="#4C99A4" stroke-width="2" stroke-linecap="round" stroke-linejoin="round"/>
<path d="M46.5 37.5039V43.5039C46.5 44.2996 46.1839 45.0626 45.6213 45.6252C45.0587 46.1878 44.2956 46.5039 43.5 46.5039H37.5" stroke="#4C99A4" stroke-width="2" stroke-linecap="round" stroke-linejoin="round"/>
<path d="M46.5 19.5039V28.5039" stroke="#4C99A4" stroke-width="2" stroke-linecap="round" stroke-linejoin="round"/>
<path d="M28.5 46.5039H19.5" stroke="#4C99A4" stroke-width="2" stroke-linecap="round" stroke-linejoin="round"/>
<path d="M28.5 1.50391H19.5" stroke="#4C99A4" stroke-width="2" stroke-linecap="round" stroke-linejoin="round"/>
</svg>
