<svg width="48" height="48" viewBox="0 0 48 48" fill="none" xmlns="http://www.w3.org/2000/svg">
<path d="M46.5 13.5H1.5" stroke="#5CC3C9" stroke-width="2" stroke-linecap="round" stroke-linejoin="round"/>
<path d="M25.5 28.5H34.5" stroke="#5CC3C9" stroke-width="2" stroke-linecap="round" stroke-linejoin="round"/>
<path d="M13.5 22.5L19.5 28.5L13.5 34.5" stroke="#5CC3C9" stroke-width="2" stroke-linecap="round" stroke-linejoin="round"/>
<path d="M4.5 43.5C3.70435 43.5 2.94129 43.1839 2.37868 42.6213C1.81607 42.0587 1.5 41.2956 1.5 40.5V7.73C1.50264 6.87416 1.84379 6.05413 2.44896 5.44896C3.05413 4.84379 3.87416 4.50264 4.73 4.5H43.286C44.1376 4.50264 44.9536 4.8421 45.5557 5.44427C46.1579 6.04644 46.4974 6.86241 46.5 7.714V40.27C46.4974 41.1258 46.1562 41.9459 45.551 42.551C44.9459 43.1562 44.1258 43.4974 43.27 43.5H4.5Z" stroke="#4C99A4" stroke-width="2" stroke-linecap="round" stroke-linejoin="round"/>
</svg>
