<svg width="842" height="434" viewBox="0 0 842 434" fill="none" xmlns="http://www.w3.org/2000/svg">
<path d="M357 370C357 334.654 385.654 306 421 306C456.346 306 485 334.654 485 370C485 405.346 456.346 434 421 434C385.654 434 357 405.346 357 370Z" fill="#FFDF81"/>
<path d="M397.297 375.14C396.938 375.14 396.599 375.098 396.282 375.014C395.969 374.93 395.762 374.867 395.659 374.825L395.75 373.586C395.895 373.637 396.06 373.703 396.247 373.782C396.438 373.857 396.674 373.894 396.954 373.894C397.411 373.894 397.724 373.768 397.892 373.516C398.065 373.264 398.151 372.839 398.151 372.242V364.878H399.446V372.613C399.446 373.15 399.385 373.607 399.264 373.985C399.143 374.363 398.926 374.65 398.613 374.846C398.305 375.042 397.866 375.14 397.297 375.14ZM404.65 375.14C403.978 375.14 403.385 374.993 402.872 374.699C402.358 374.405 401.957 373.983 401.668 373.432C401.378 372.881 401.234 372.221 401.234 371.451C401.234 370.69 401.364 370.023 401.626 369.449C401.887 368.875 402.265 368.427 402.76 368.105C403.259 367.783 403.859 367.622 404.559 367.622C405.24 367.622 405.816 367.769 406.288 368.063C406.759 368.357 407.116 368.772 407.359 369.309C407.606 369.841 407.73 370.473 407.73 371.206V371.682H402.543C402.543 372.139 402.617 372.555 402.767 372.928C402.921 373.297 403.152 373.591 403.46 373.81C403.768 374.029 404.157 374.139 404.629 374.139C405.091 374.139 405.487 374.032 405.819 373.817C406.155 373.602 406.369 373.292 406.463 372.886H407.681C407.597 373.376 407.401 373.789 407.093 374.125C406.789 374.461 406.423 374.715 405.994 374.888C405.569 375.056 405.121 375.14 404.65 375.14ZM402.55 370.807H406.484C406.484 370.392 406.414 370.018 406.274 369.687C406.134 369.351 405.919 369.087 405.63 368.896C405.345 368.7 404.986 368.602 404.552 368.602C404.099 368.602 403.723 368.712 403.425 368.931C403.126 369.146 402.904 369.423 402.76 369.764C402.615 370.1 402.545 370.448 402.55 370.807ZM409.52 375V367.762H410.773V368.812C410.89 368.611 411.051 368.422 411.256 368.245C411.466 368.068 411.718 367.925 412.012 367.818C412.311 367.711 412.654 367.657 413.041 367.657C413.499 367.657 413.919 367.748 414.301 367.93C414.689 368.112 414.997 368.397 415.225 368.784C415.459 369.167 415.575 369.661 415.575 370.268V375H414.28V370.394C414.28 369.829 414.131 369.412 413.832 369.141C413.538 368.866 413.156 368.728 412.684 368.728C412.358 368.728 412.052 368.782 411.767 368.889C411.483 368.992 411.252 369.15 411.074 369.365C410.897 369.575 410.808 369.841 410.808 370.163V375H409.52ZM417.6 375V367.762H418.853V368.812C418.97 368.611 419.131 368.422 419.336 368.245C419.546 368.068 419.798 367.925 420.092 367.818C420.391 367.711 420.734 367.657 421.121 367.657C421.579 367.657 421.999 367.748 422.381 367.93C422.769 368.112 423.077 368.397 423.305 368.784C423.539 369.167 423.655 369.661 423.655 370.268V375H422.36V370.394C422.36 369.829 422.211 369.412 421.912 369.141C421.618 368.866 421.236 368.728 420.764 368.728C420.438 368.728 420.132 368.782 419.847 368.889C419.563 368.992 419.332 369.15 419.154 369.365C418.977 369.575 418.888 369.841 418.888 370.163V375H417.6ZM425.715 375V367.762H426.968V375H425.715ZM425.68 366.229V364.885H427.003V366.229H425.68ZM430.105 375V368.707H428.572V367.762H430.105V366.642C430.105 366.068 430.25 365.632 430.539 365.333C430.833 365.03 431.272 364.878 431.855 364.878H433.22L433.227 365.795H432.149C431.851 365.795 431.648 365.874 431.54 366.033C431.433 366.192 431.379 366.432 431.379 366.754V367.762H433.157V368.707H431.4V375H430.105ZM437.653 375.14C436.981 375.14 436.389 374.993 435.875 374.699C435.362 374.405 434.961 373.983 434.671 373.432C434.382 372.881 434.237 372.221 434.237 371.451C434.237 370.69 434.368 370.023 434.629 369.449C434.891 368.875 435.269 368.427 435.763 368.105C436.263 367.783 436.862 367.622 437.562 367.622C438.244 367.622 438.82 367.769 439.291 368.063C439.763 368.357 440.12 368.772 440.362 369.309C440.61 369.841 440.733 370.473 440.733 371.206V371.682H435.546C435.546 372.139 435.621 372.555 435.77 372.928C435.924 373.297 436.155 373.591 436.463 373.81C436.771 374.029 437.161 374.139 437.632 374.139C438.094 374.139 438.491 374.032 438.822 373.817C439.158 373.602 439.373 373.292 439.466 372.886H440.684C440.6 373.376 440.404 373.789 440.096 374.125C439.793 374.461 439.427 374.715 438.997 374.888C438.573 375.056 438.125 375.14 437.653 375.14ZM435.553 370.807H439.487C439.487 370.392 439.417 370.018 439.277 369.687C439.137 369.351 438.923 369.087 438.633 368.896C438.349 368.7 437.989 368.602 437.555 368.602C437.103 368.602 436.727 368.712 436.428 368.931C436.13 369.146 435.908 369.423 435.763 369.764C435.619 370.1 435.549 370.448 435.553 370.807ZM442.524 375V367.762H443.756V369.155C443.877 368.81 444.048 368.525 444.267 368.301C444.486 368.072 444.736 367.902 445.016 367.79C445.301 367.678 445.595 367.622 445.898 367.622C446.005 367.622 446.11 367.629 446.213 367.643C446.316 367.657 446.395 367.68 446.451 367.713V368.966C446.381 368.933 446.29 368.912 446.178 368.903C446.071 368.889 445.98 368.882 445.905 368.882C445.616 368.863 445.345 368.882 445.093 368.938C444.841 368.989 444.619 369.08 444.428 369.211C444.237 369.342 444.085 369.514 443.973 369.729C443.866 369.939 443.812 370.196 443.812 370.499V375H442.524Z" fill="black"/>
<path d="M357 64C357 28.6538 385.654 0 421 0C456.346 0 485 28.6538 485 64C485 99.3462 456.346 128 421 128C385.654 128 357 99.3462 357 64Z" fill="#FFDF81"/>
<path d="M408.467 69.14C408.108 69.14 407.769 69.098 407.452 69.014C407.139 68.93 406.932 68.867 406.829 68.825L406.92 67.586C407.065 67.6373 407.23 67.7027 407.417 67.782C407.608 67.8567 407.844 67.894 408.124 67.894C408.581 67.894 408.894 67.768 409.062 67.516C409.235 67.264 409.321 66.8393 409.321 66.242V58.878H410.616V66.613C410.616 67.1497 410.555 67.607 410.434 67.985C410.313 68.363 410.096 68.65 409.783 68.846C409.475 69.042 409.036 69.14 408.467 69.14ZM415.658 69.14C414.991 69.14 414.408 68.9977 413.908 68.713C413.414 68.4237 413.029 68.0013 412.753 67.446C412.478 66.8907 412.34 66.2117 412.34 65.409C412.34 64.653 412.469 63.9903 412.725 63.421C412.982 62.8517 413.358 62.4107 413.852 62.098C414.347 61.7807 414.951 61.622 415.665 61.622C416.333 61.622 416.911 61.769 417.401 62.063C417.891 62.3523 418.272 62.7793 418.542 63.344C418.818 63.9087 418.955 64.597 418.955 65.409C418.955 66.1463 418.829 66.795 418.577 67.355C418.325 67.915 417.954 68.3537 417.464 68.671C416.979 68.9837 416.377 69.14 415.658 69.14ZM415.665 68.118C416.095 68.118 416.459 68.0083 416.757 67.789C417.056 67.5697 417.282 67.2547 417.436 66.844C417.595 66.4333 417.674 65.9457 417.674 65.381C417.674 64.863 417.604 64.3987 417.464 63.988C417.329 63.5727 417.114 63.2437 416.82 63.001C416.526 62.7583 416.141 62.637 415.665 62.637C415.227 62.637 414.856 62.7467 414.552 62.966C414.249 63.1807 414.018 63.4933 413.859 63.904C413.705 64.3147 413.628 64.807 413.628 65.381C413.628 65.8897 413.696 66.3517 413.831 66.767C413.971 67.1823 414.191 67.5113 414.489 67.754C414.793 67.9967 415.185 68.118 415.665 68.118ZM420.676 69V58.598H421.936V62.826C422.058 62.6253 422.221 62.4387 422.426 62.266C422.632 62.0887 422.881 61.9463 423.175 61.839C423.469 61.727 423.81 61.671 424.197 61.671C424.669 61.671 425.096 61.7597 425.478 61.937C425.861 62.1097 426.164 62.357 426.388 62.679C426.612 63.001 426.724 63.3837 426.724 63.827V69H425.429V64.086C425.429 63.652 425.28 63.3183 424.981 63.085C424.687 62.847 424.302 62.728 423.826 62.728C423.504 62.728 423.201 62.7817 422.916 62.889C422.632 62.9917 422.401 63.1503 422.223 63.365C422.051 63.575 421.964 63.8433 421.964 64.17V69H420.676ZM428.743 69V61.762H429.996V62.812C430.113 62.6113 430.274 62.4223 430.479 62.245C430.689 62.0677 430.941 61.9253 431.235 61.818C431.534 61.7107 431.877 61.657 432.264 61.657C432.721 61.657 433.141 61.748 433.524 61.93C433.911 62.112 434.219 62.3967 434.448 62.784C434.681 63.1667 434.798 63.6613 434.798 64.268V69H433.503V64.394C433.503 63.8293 433.354 63.4117 433.055 63.141C432.761 62.8657 432.378 62.728 431.907 62.728C431.58 62.728 431.275 62.7817 430.99 62.889C430.705 62.9917 430.474 63.1503 430.297 63.365C430.12 63.575 430.031 63.841 430.031 64.163V69H428.743Z" fill="black"/>
<path d="M106 156C106 120.654 134.654 92 170 92C205.346 92 234 120.654 234 156C234 191.346 205.346 220 170 220C134.654 220 106 191.346 106 156Z" fill="#FFDF81"/>
<path d="M154.623 161V150.878H156.415L159.467 159.236L162.561 150.878H164.346V161H163.009V152.817L160.076 161H158.865L155.953 152.894V161H154.623ZM168.747 161.14C168.275 161.14 167.86 161.058 167.501 160.895C167.146 160.727 166.866 160.487 166.661 160.174C166.46 159.861 166.36 159.483 166.36 159.04C166.36 158.237 166.64 157.64 167.2 157.248C167.76 156.856 168.658 156.646 169.895 156.618L171.183 156.583V156.016C171.183 155.573 171.05 155.223 170.784 154.966C170.518 154.705 170.107 154.574 169.552 154.574C169.136 154.579 168.77 154.677 168.453 154.868C168.135 155.059 167.932 155.372 167.844 155.806H166.703C166.731 155.335 166.861 154.938 167.095 154.616C167.333 154.289 167.666 154.042 168.096 153.874C168.525 153.706 169.031 153.622 169.615 153.622C170.245 153.622 170.767 153.711 171.183 153.888C171.603 154.065 171.915 154.327 172.121 154.672C172.331 155.017 172.436 155.442 172.436 155.946V161H171.33L171.232 159.642C170.956 160.207 170.602 160.599 170.168 160.818C169.738 161.033 169.265 161.14 168.747 161.14ZM169.132 160.209C169.379 160.209 169.622 160.165 169.86 160.076C170.102 159.987 170.322 159.868 170.518 159.719C170.718 159.565 170.879 159.395 171.001 159.208C171.122 159.017 171.183 158.821 171.183 158.62V157.381L170.112 157.402C169.556 157.411 169.094 157.467 168.726 157.57C168.357 157.673 168.079 157.834 167.893 158.053C167.706 158.272 167.613 158.559 167.613 158.914C167.613 159.32 167.755 159.637 168.04 159.866C168.324 160.095 168.688 160.209 169.132 160.209ZM174.455 161V153.762H175.687V155.155C175.808 154.81 175.978 154.525 176.198 154.301C176.417 154.072 176.667 153.902 176.947 153.79C177.231 153.678 177.525 153.622 177.829 153.622C177.936 153.622 178.041 153.629 178.144 153.643C178.246 153.657 178.326 153.68 178.382 153.713V154.966C178.312 154.933 178.221 154.912 178.109 154.903C178.001 154.889 177.91 154.882 177.836 154.882C177.546 154.863 177.276 154.882 177.024 154.938C176.772 154.989 176.55 155.08 176.359 155.211C176.167 155.342 176.016 155.514 175.904 155.729C175.796 155.939 175.743 156.196 175.743 156.499V161H174.455ZM179.924 161V150.598H181.212V157.381L184.614 153.762H186.098L183.487 156.52L186.28 161H184.908L182.64 157.367L181.212 158.844V161H179.924Z" fill="black"/>
<path d="M353.688 313.924C354.108 314.283 354.739 314.232 355.098 313.812C355.456 313.392 355.406 312.761 354.985 312.402L354.337 313.163L353.688 313.924ZM345 305.203L344.351 305.964V305.964L345 305.203ZM317.091 280.094C316.671 279.736 316.039 279.786 315.681 280.206C315.323 280.626 315.373 281.258 315.793 281.616L316.442 280.855L317.091 280.094ZM269.039 242.606C269.454 242.971 270.086 242.93 270.45 242.515C270.815 242.1 270.774 241.468 270.359 241.104L269.699 241.855L269.039 242.606ZM260.411 233.696L261.071 232.945H261.071L260.411 233.696ZM236.599 211.839C236.048 211.874 235.63 212.35 235.665 212.901L236.247 221.882C236.283 222.433 236.758 222.851 237.309 222.816C237.86 222.78 238.278 222.304 238.243 221.753L237.726 213.77L245.709 213.253C246.26 213.217 246.678 212.742 246.642 212.19C246.607 211.639 246.131 211.221 245.58 211.257L236.599 211.839ZM354.337 313.163L354.985 312.402L345.649 304.442L345 305.203L344.351 305.964L353.688 313.924L354.337 313.163ZM345 305.203L345.649 304.442L317.091 280.094L316.442 280.855L315.793 281.616L344.351 305.964L345 305.203ZM269.699 241.855L270.359 241.104L261.071 232.945L260.411 233.696L259.751 234.448L269.039 242.606L269.699 241.855ZM260.411 233.696L261.071 232.945L237.323 212.085L236.663 212.836L236.003 213.588L259.751 234.448L260.411 233.696Z" fill="black" fill-opacity="0.8"/>
<path d="M228.329 255.719V267.355H226.573V255.719H228.329ZM237.056 258.775C236.996 258.238 236.746 257.821 236.306 257.525C235.867 257.226 235.314 257.077 234.647 257.077C234.17 257.077 233.757 257.152 233.409 257.304C233.06 257.452 232.789 257.656 232.596 257.917C232.407 258.175 232.312 258.469 232.312 258.798C232.312 259.075 232.376 259.313 232.505 259.514C232.638 259.715 232.81 259.883 233.022 260.02C233.238 260.152 233.469 260.264 233.715 260.355C233.962 260.442 234.198 260.514 234.426 260.571L235.562 260.866C235.933 260.957 236.314 261.08 236.704 261.236C237.094 261.391 237.456 261.596 237.789 261.849C238.123 262.103 238.391 262.417 238.596 262.792C238.804 263.167 238.909 263.616 238.909 264.139C238.909 264.798 238.738 265.383 238.397 265.895C238.06 266.406 237.57 266.81 236.926 267.105C236.285 267.4 235.511 267.548 234.602 267.548C233.73 267.548 232.977 267.41 232.34 267.133C231.704 266.857 231.206 266.465 230.846 265.957C230.486 265.446 230.287 264.84 230.249 264.139H232.011C232.045 264.56 232.181 264.91 232.42 265.19C232.662 265.467 232.971 265.673 233.346 265.81C233.725 265.942 234.14 266.008 234.59 266.008C235.087 266.008 235.528 265.931 235.914 265.775C236.304 265.616 236.611 265.397 236.835 265.116C237.058 264.832 237.17 264.501 237.17 264.122C237.17 263.777 237.071 263.495 236.874 263.275C236.681 263.056 236.418 262.874 236.085 262.73C235.755 262.586 235.382 262.459 234.965 262.349L233.59 261.974C232.659 261.721 231.92 261.347 231.374 260.855C230.833 260.363 230.562 259.711 230.562 258.9C230.562 258.23 230.744 257.645 231.107 257.145C231.471 256.645 231.963 256.256 232.585 255.98C233.206 255.7 233.907 255.56 234.687 255.56C235.475 255.56 236.17 255.698 236.772 255.974C237.378 256.251 237.855 256.631 238.204 257.116C238.552 257.597 238.734 258.15 238.749 258.775H237.056ZM246.927 267.355V268.798H239.535V267.355H246.927ZM248.014 267.355V255.719H255.23V257.23H249.77V260.775H254.713V262.281H249.77V267.355H248.014ZM257.213 267.355V255.719H261.361C262.262 255.719 263.01 255.874 263.605 256.185C264.203 256.495 264.65 256.925 264.946 257.474C265.241 258.02 265.389 258.65 265.389 259.366C265.389 260.078 265.239 260.705 264.94 261.247C264.645 261.785 264.198 262.203 263.599 262.503C263.005 262.802 262.256 262.952 261.355 262.952H258.213V261.44H261.196C261.764 261.44 262.226 261.359 262.582 261.196C262.942 261.033 263.205 260.796 263.372 260.486C263.539 260.175 263.622 259.802 263.622 259.366C263.622 258.927 263.537 258.546 263.366 258.224C263.2 257.902 262.936 257.656 262.577 257.486C262.22 257.311 261.753 257.224 261.173 257.224H258.969V267.355H257.213ZM262.957 262.105L265.832 267.355H263.832L261.014 262.105H262.957ZM269.105 255.719V267.355H267.349V255.719H269.105ZM271.486 267.355V255.719H278.781V257.23H273.242V260.775H278.401V262.281H273.242V265.844H278.85V267.355H271.486ZM290.343 255.719V267.355H288.729L282.814 258.821H282.706V267.355H280.951V255.719H282.576L288.496 264.264H288.604V255.719H290.343ZM296.495 267.355H292.728V255.719H296.614C297.754 255.719 298.733 255.952 299.552 256.417C300.37 256.88 300.997 257.544 301.432 258.412C301.872 259.275 302.091 260.311 302.091 261.52C302.091 262.732 301.87 263.774 301.427 264.645C300.987 265.516 300.351 266.186 299.517 266.656C298.684 267.122 297.677 267.355 296.495 267.355ZM294.483 265.821H296.398C297.284 265.821 298.021 265.654 298.608 265.321C299.195 264.984 299.635 264.497 299.927 263.861C300.218 263.221 300.364 262.44 300.364 261.52C300.364 260.607 300.218 259.832 299.927 259.196C299.639 258.56 299.209 258.077 298.637 257.747C298.065 257.417 297.355 257.253 296.506 257.253H294.483V265.821ZM310.445 258.775C310.385 258.238 310.135 257.821 309.695 257.525C309.256 257.226 308.703 257.077 308.036 257.077C307.559 257.077 307.146 257.152 306.797 257.304C306.449 257.452 306.178 257.656 305.985 257.917C305.796 258.175 305.701 258.469 305.701 258.798C305.701 259.075 305.765 259.313 305.894 259.514C306.027 259.715 306.199 259.883 306.411 260.02C306.627 260.152 306.858 260.264 307.104 260.355C307.35 260.442 307.587 260.514 307.814 260.571L308.951 260.866C309.322 260.957 309.703 261.08 310.093 261.236C310.483 261.391 310.845 261.596 311.178 261.849C311.511 262.103 311.78 262.417 311.985 262.792C312.193 263.167 312.297 263.616 312.297 264.139C312.297 264.798 312.127 265.383 311.786 265.895C311.449 266.406 310.958 266.81 310.314 267.105C309.674 267.4 308.9 267.548 307.991 267.548C307.119 267.548 306.366 267.41 305.729 267.133C305.093 266.857 304.595 266.465 304.235 265.957C303.875 265.446 303.676 264.84 303.638 264.139H305.4C305.434 264.56 305.57 264.91 305.809 265.19C306.051 265.467 306.36 265.673 306.735 265.81C307.114 265.942 307.528 266.008 307.979 266.008C308.475 266.008 308.917 265.931 309.303 265.775C309.693 265.616 310 265.397 310.224 265.116C310.447 264.832 310.559 264.501 310.559 264.122C310.559 263.777 310.46 263.495 310.263 263.275C310.07 263.056 309.807 262.874 309.474 262.73C309.144 262.586 308.771 262.459 308.354 262.349L306.979 261.974C306.047 261.721 305.309 261.347 304.763 260.855C304.222 260.363 303.951 259.711 303.951 258.9C303.951 258.23 304.133 257.645 304.496 257.145C304.86 256.645 305.352 256.256 305.974 255.98C306.595 255.7 307.296 255.56 308.076 255.56C308.864 255.56 309.559 255.698 310.161 255.974C310.767 256.251 311.244 256.631 311.593 257.116C311.941 257.597 312.123 258.15 312.138 258.775H310.445ZM320.316 267.355V268.798H312.924V267.355H320.316ZM323.681 267.355L320.454 255.719H322.301L324.568 264.73H324.676L327.033 255.719H328.863L331.221 264.736H331.329L333.59 255.719H335.443L332.21 267.355H330.443L327.994 258.639H327.903L325.454 267.355H323.681ZM338.623 255.719V267.355H336.867V255.719H338.623ZM340.43 257.23V255.719H349.436V257.23H345.805V267.355H344.055V257.23H340.43ZM351.25 267.355V255.719H353.005V260.775H358.807V255.719H360.568V267.355H358.807V262.281H353.005V267.355H351.25Z" fill="black" fill-opacity="0.8"/>
<path d="M420 302.5C420 303.052 420.448 303.5 421 303.5C421.552 303.5 422 303.052 422 302.5H421H420ZM422 233.696C422 233.144 421.552 232.696 421 232.696C420.448 232.696 420 233.144 420 233.696H421H422ZM420 194.696C420 195.249 420.448 195.696 421 195.696C421.552 195.696 422 195.249 422 194.696H421H420ZM421.707 130.793C421.317 130.402 420.683 130.402 420.293 130.793L413.929 137.157C413.538 137.547 413.538 138.181 413.929 138.571C414.319 138.962 414.953 138.962 415.343 138.571L421 132.914L426.657 138.571C427.047 138.962 427.681 138.962 428.071 138.571C428.462 138.181 428.462 137.547 428.071 137.157L421.707 130.793ZM421 302.5H422V233.696H421H420V302.5H421ZM421 194.696H422V131.5H421H420V194.696H421Z" fill="black" fill-opacity="0.8"/>
<path d="M355.758 208.56V220.196H354.003V208.56H355.758ZM364.486 211.617C364.425 211.079 364.175 210.662 363.736 210.367C363.296 210.068 362.743 209.918 362.077 209.918C361.599 209.918 361.186 209.994 360.838 210.145C360.489 210.293 360.219 210.497 360.025 210.759C359.836 211.016 359.741 211.31 359.741 211.639C359.741 211.916 359.806 212.155 359.935 212.355C360.067 212.556 360.239 212.725 360.452 212.861C360.668 212.994 360.899 213.105 361.145 213.196C361.391 213.283 361.628 213.355 361.855 213.412L362.991 213.708C363.363 213.799 363.743 213.922 364.133 214.077C364.524 214.232 364.885 214.437 365.219 214.691C365.552 214.944 365.821 215.259 366.025 215.634C366.234 216.009 366.338 216.458 366.338 216.98C366.338 217.639 366.168 218.225 365.827 218.736C365.489 219.247 364.999 219.651 364.355 219.946C363.715 220.242 362.94 220.389 362.031 220.389C361.16 220.389 360.406 220.251 359.77 219.975C359.133 219.698 358.635 219.306 358.275 218.799C357.916 218.287 357.717 217.681 357.679 216.98H359.44C359.474 217.401 359.611 217.751 359.849 218.032C360.092 218.308 360.4 218.514 360.775 218.651C361.154 218.783 361.569 218.85 362.02 218.85C362.516 218.85 362.957 218.772 363.344 218.617C363.734 218.458 364.041 218.238 364.264 217.958C364.488 217.674 364.599 217.342 364.599 216.963C364.599 216.619 364.501 216.336 364.304 216.117C364.111 215.897 363.847 215.715 363.514 215.571C363.185 215.427 362.811 215.3 362.395 215.191L361.02 214.816C360.088 214.562 359.349 214.189 358.804 213.696C358.262 213.204 357.991 212.552 357.991 211.742C357.991 211.071 358.173 210.486 358.537 209.986C358.9 209.486 359.393 209.098 360.014 208.821C360.635 208.541 361.336 208.401 362.116 208.401C362.904 208.401 363.599 208.539 364.202 208.816C364.808 209.092 365.285 209.473 365.633 209.958C365.982 210.439 366.164 210.992 366.179 211.617H364.486ZM374.357 220.196V221.639H366.965V220.196H374.357ZM375.443 220.196V208.56H382.659V210.071H377.199V213.617H382.142V215.122H377.199V220.196H375.443ZM384.642 220.196V208.56H388.79C389.692 208.56 390.44 208.715 391.034 209.026C391.633 209.336 392.08 209.766 392.375 210.316C392.671 210.861 392.818 211.492 392.818 212.208C392.818 212.92 392.669 213.547 392.37 214.088C392.074 214.626 391.627 215.045 391.029 215.344C390.434 215.643 389.686 215.793 388.784 215.793H385.642V214.282H388.625C389.193 214.282 389.656 214.2 390.012 214.037C390.372 213.874 390.635 213.638 390.801 213.327C390.968 213.016 391.051 212.643 391.051 212.208C391.051 211.768 390.966 211.388 390.796 211.066C390.629 210.744 390.366 210.497 390.006 210.327C389.65 210.153 389.182 210.066 388.603 210.066H386.398V220.196H384.642ZM390.387 214.946L393.262 220.196H391.262L388.443 214.946H390.387ZM396.535 208.56V220.196H394.779V208.56H396.535ZM398.915 220.196V208.56H406.211V210.071H400.671V213.617H405.83V215.122H400.671V218.685H406.279V220.196H398.915ZM417.772 208.56V220.196H416.158L410.244 211.662H410.136V220.196H408.38V208.56H410.005L415.925 217.105H416.033V208.56H417.772ZM423.924 220.196H420.157V208.56H424.043C425.184 208.56 426.163 208.793 426.981 209.259C427.799 209.721 428.426 210.386 428.862 211.253C429.301 212.117 429.521 213.153 429.521 214.361C429.521 215.573 429.299 216.615 428.856 217.486C428.417 218.357 427.78 219.028 426.947 219.497C426.114 219.963 425.106 220.196 423.924 220.196ZM421.913 218.662H423.828C424.714 218.662 425.451 218.496 426.038 218.162C426.625 217.825 427.064 217.338 427.356 216.702C427.648 216.062 427.793 215.282 427.793 214.361C427.793 213.448 427.648 212.674 427.356 212.037C427.068 211.401 426.638 210.918 426.066 210.588C425.494 210.259 424.784 210.094 423.936 210.094H421.913V218.662ZM437.875 211.617C437.814 211.079 437.564 210.662 437.125 210.367C436.685 210.068 436.132 209.918 435.465 209.918C434.988 209.918 434.575 209.994 434.227 210.145C433.878 210.293 433.608 210.497 433.414 210.759C433.225 211.016 433.13 211.31 433.13 211.639C433.13 211.916 433.195 212.155 433.323 212.355C433.456 212.556 433.628 212.725 433.84 212.861C434.056 212.994 434.287 213.105 434.534 213.196C434.78 213.283 435.017 213.355 435.244 213.412L436.38 213.708C436.751 213.799 437.132 213.922 437.522 214.077C437.912 214.232 438.274 214.437 438.608 214.691C438.941 214.944 439.21 215.259 439.414 215.634C439.623 216.009 439.727 216.458 439.727 216.98C439.727 217.639 439.556 218.225 439.215 218.736C438.878 219.247 438.388 219.651 437.744 219.946C437.104 220.242 436.329 220.389 435.42 220.389C434.549 220.389 433.795 220.251 433.159 219.975C432.522 219.698 432.024 219.306 431.664 218.799C431.304 218.287 431.106 217.681 431.068 216.98H432.829C432.863 217.401 433 217.751 433.238 218.032C433.481 218.308 433.789 218.514 434.164 218.651C434.543 218.783 434.958 218.85 435.409 218.85C435.905 218.85 436.346 218.772 436.733 218.617C437.123 218.458 437.429 218.238 437.653 217.958C437.876 217.674 437.988 217.342 437.988 216.963C437.988 216.619 437.89 216.336 437.693 216.117C437.5 215.897 437.236 215.715 436.903 215.571C436.573 215.427 436.2 215.3 435.784 215.191L434.409 214.816C433.477 214.562 432.738 214.189 432.193 213.696C431.651 213.204 431.38 212.552 431.38 211.742C431.38 211.071 431.562 210.486 431.926 209.986C432.289 209.486 432.782 209.098 433.403 208.821C434.024 208.541 434.725 208.401 435.505 208.401C436.293 208.401 436.988 208.539 437.59 208.816C438.197 209.092 438.674 209.473 439.022 209.958C439.371 210.439 439.553 210.992 439.568 211.617H437.875ZM447.745 220.196V221.639H440.353V220.196H447.745ZM451.111 220.196L447.883 208.56H449.73L451.997 217.571H452.105L454.463 208.56H456.292L458.65 217.577H458.758L461.02 208.56H462.872L459.639 220.196H457.872L455.423 211.48H455.332L452.883 220.196H451.111ZM466.053 208.56V220.196H464.297V208.56H466.053ZM467.859 210.071V208.56H476.865V210.071H473.234V220.196H471.484V210.071H467.859ZM478.679 220.196V208.56H480.435V213.617H486.236V208.56H487.997V220.196H486.236V215.122H480.435V220.196H478.679Z" fill="black" fill-opacity="0.8"/>
<path d="M0 370C0 334.654 28.6538 306 64 306C99.3462 306 128 334.654 128 370C128 405.346 99.3462 434 64 434C28.6538 434 0 405.346 0 370Z" fill="#FFDF81"/>
<path d="M51.5312 375L55.1922 364.878H56.6552L60.3162 375H58.9932L57.9992 372.228H53.8482L52.8472 375H51.5312ZM54.1912 371.038H57.6422L55.9202 366.145L54.1912 371.038ZM61.9606 375V367.762H63.2136V368.812C63.3303 368.611 63.4913 368.422 63.6966 368.245C63.9066 368.068 64.1586 367.925 64.4526 367.818C64.7513 367.711 65.0943 367.657 65.4816 367.657C65.939 367.657 66.359 367.748 66.7416 367.93C67.129 368.112 67.437 368.397 67.6656 368.784C67.899 369.167 68.0156 369.661 68.0156 370.268V375H66.7206V370.394C66.7206 369.829 66.5713 369.412 66.2726 369.141C65.9786 368.866 65.596 368.728 65.1246 368.728C64.798 368.728 64.4923 368.782 64.2076 368.889C63.923 368.992 63.692 369.15 63.5146 369.365C63.3373 369.575 63.2486 369.841 63.2486 370.163V375H61.9606ZM70.0407 375V367.762H71.2937V368.812C71.4104 368.611 71.5714 368.422 71.7767 368.245C71.9867 368.068 72.2387 367.925 72.5327 367.818C72.8314 367.711 73.1744 367.657 73.5617 367.657C74.0191 367.657 74.4391 367.748 74.8217 367.93C75.2091 368.112 75.5171 368.397 75.7457 368.784C75.9791 369.167 76.0957 369.661 76.0957 370.268V375H74.8007V370.394C74.8007 369.829 74.6514 369.412 74.3527 369.141C74.0587 368.866 73.6761 368.728 73.2047 368.728C72.8781 368.728 72.5724 368.782 72.2877 368.889C72.0031 368.992 71.7721 369.15 71.5947 369.365C71.4174 369.575 71.3287 369.841 71.3287 370.163V375H70.0407Z" fill="black"/>
<path d="M353.5 371C354.052 371 354.5 370.552 354.5 370C354.5 369.448 354.052 369 353.5 369V370V371ZM314.86 369C314.308 369 313.86 369.448 313.86 370C313.86 370.552 314.308 371 314.86 371V370V369ZM162.86 371C163.412 371 163.86 370.552 163.86 370C163.86 369.448 163.412 369 162.86 369V370V371ZM130.793 369.293C130.402 369.683 130.402 370.317 130.793 370.707L137.157 377.071C137.547 377.462 138.181 377.462 138.571 377.071C138.962 376.681 138.962 376.047 138.571 375.657L132.914 370L138.571 364.343C138.962 363.953 138.962 363.319 138.571 362.929C138.181 362.538 137.547 362.538 137.157 362.929L130.793 369.293ZM353.5 370V369H314.86V370V371H353.5V370ZM162.86 370V369H131.5V370V371H162.86V370Z" fill="black" fill-opacity="0.8"/>
<path d="M173.618 364.364V376H171.862V364.364H173.618ZM182.346 367.42C182.285 366.883 182.035 366.466 181.596 366.17C181.156 365.871 180.603 365.722 179.936 365.722C179.459 365.722 179.046 365.797 178.698 365.949C178.349 366.097 178.079 366.301 177.885 366.562C177.696 366.82 177.601 367.114 177.601 367.443C177.601 367.72 177.666 367.958 177.794 368.159C177.927 368.36 178.099 368.528 178.311 368.665C178.527 368.797 178.758 368.909 179.005 369C179.251 369.087 179.488 369.159 179.715 369.216L180.851 369.511C181.222 369.602 181.603 369.725 181.993 369.881C182.383 370.036 182.745 370.241 183.079 370.494C183.412 370.748 183.681 371.062 183.885 371.438C184.094 371.812 184.198 372.261 184.198 372.784C184.198 373.443 184.027 374.028 183.686 374.54C183.349 375.051 182.859 375.455 182.215 375.75C181.575 376.045 180.8 376.193 179.891 376.193C179.02 376.193 178.266 376.055 177.63 375.778C176.993 375.502 176.495 375.11 176.135 374.602C175.775 374.091 175.577 373.485 175.539 372.784H177.3C177.334 373.205 177.471 373.555 177.709 373.835C177.952 374.112 178.26 374.318 178.635 374.455C179.014 374.587 179.429 374.653 179.88 374.653C180.376 374.653 180.817 374.576 181.204 374.42C181.594 374.261 181.9 374.042 182.124 373.761C182.347 373.477 182.459 373.146 182.459 372.767C182.459 372.422 182.361 372.14 182.164 371.92C181.971 371.701 181.707 371.519 181.374 371.375C181.044 371.231 180.671 371.104 180.255 370.994L178.88 370.619C177.948 370.366 177.209 369.992 176.664 369.5C176.122 369.008 175.851 368.356 175.851 367.545C175.851 366.875 176.033 366.29 176.397 365.79C176.76 365.29 177.253 364.902 177.874 364.625C178.495 364.345 179.196 364.205 179.976 364.205C180.764 364.205 181.459 364.343 182.061 364.619C182.668 364.896 183.145 365.277 183.493 365.761C183.842 366.242 184.024 366.795 184.039 367.42H182.346ZM192.216 376V377.443H184.824V376H192.216ZM193.303 376V364.364H200.519V365.875H195.059V369.42H200.002V370.926H195.059V376H193.303ZM202.502 376V364.364H206.65C207.551 364.364 208.3 364.519 208.894 364.83C209.493 365.14 209.94 365.57 210.235 366.119C210.531 366.665 210.678 367.295 210.678 368.011C210.678 368.723 210.529 369.35 210.229 369.892C209.934 370.43 209.487 370.848 208.889 371.148C208.294 371.447 207.546 371.597 206.644 371.597H203.502V370.085H206.485C207.053 370.085 207.515 370.004 207.872 369.841C208.231 369.678 208.495 369.441 208.661 369.131C208.828 368.82 208.911 368.447 208.911 368.011C208.911 367.572 208.826 367.191 208.656 366.869C208.489 366.547 208.226 366.301 207.866 366.131C207.51 365.956 207.042 365.869 206.462 365.869H204.258V376H202.502ZM208.247 370.75L211.122 376H209.122L206.303 370.75H208.247ZM214.394 364.364V376H212.639V364.364H214.394ZM216.775 376V364.364H224.071V365.875H218.531V369.42H223.69V370.926H218.531V374.489H224.139V376H216.775ZM235.632 364.364V376H234.018L228.103 367.466H227.996V376H226.24V364.364H227.865L233.785 372.909H233.893V364.364H235.632ZM241.784 376H238.017V364.364H241.903C243.043 364.364 244.023 364.597 244.841 365.062C245.659 365.525 246.286 366.189 246.722 367.057C247.161 367.92 247.381 368.956 247.381 370.165C247.381 371.377 247.159 372.419 246.716 373.29C246.276 374.161 245.64 374.831 244.807 375.301C243.973 375.767 242.966 376 241.784 376ZM239.773 374.466H241.687C242.574 374.466 243.311 374.299 243.898 373.966C244.485 373.629 244.924 373.142 245.216 372.506C245.507 371.866 245.653 371.085 245.653 370.165C245.653 369.252 245.507 368.477 245.216 367.841C244.928 367.205 244.498 366.722 243.926 366.392C243.354 366.062 242.644 365.898 241.795 365.898H239.773V374.466ZM255.734 367.42C255.674 366.883 255.424 366.466 254.984 366.17C254.545 365.871 253.992 365.722 253.325 365.722C252.848 365.722 252.435 365.797 252.087 365.949C251.738 366.097 251.467 366.301 251.274 366.562C251.085 366.82 250.99 367.114 250.99 367.443C250.99 367.72 251.055 367.958 251.183 368.159C251.316 368.36 251.488 368.528 251.7 368.665C251.916 368.797 252.147 368.909 252.394 369C252.64 369.087 252.876 369.159 253.104 369.216L254.24 369.511C254.611 369.602 254.992 369.725 255.382 369.881C255.772 370.036 256.134 370.241 256.467 370.494C256.801 370.748 257.07 371.062 257.274 371.438C257.483 371.812 257.587 372.261 257.587 372.784C257.587 373.443 257.416 374.028 257.075 374.54C256.738 375.051 256.248 375.455 255.604 375.75C254.964 376.045 254.189 376.193 253.28 376.193C252.409 376.193 251.655 376.055 251.019 375.778C250.382 375.502 249.884 375.11 249.524 374.602C249.164 374.091 248.965 373.485 248.928 372.784H250.689C250.723 373.205 250.859 373.555 251.098 373.835C251.34 374.112 251.649 374.318 252.024 374.455C252.403 374.587 252.818 374.653 253.269 374.653C253.765 374.653 254.206 374.576 254.592 374.42C254.983 374.261 255.289 374.042 255.513 373.761C255.736 373.477 255.848 373.146 255.848 372.767C255.848 372.422 255.75 372.14 255.553 371.92C255.359 371.701 255.096 371.519 254.763 371.375C254.433 371.231 254.06 371.104 253.644 370.994L252.269 370.619C251.337 370.366 250.598 369.992 250.053 369.5C249.511 369.008 249.24 368.356 249.24 367.545C249.24 366.875 249.422 366.29 249.786 365.79C250.149 365.29 250.642 364.902 251.263 364.625C251.884 364.345 252.585 364.205 253.365 364.205C254.153 364.205 254.848 364.343 255.45 364.619C256.056 364.896 256.534 365.277 256.882 365.761C257.231 366.242 257.412 366.795 257.428 367.42H255.734ZM265.605 376V377.443H258.213V376H265.605ZM268.97 376L265.743 364.364H267.59L269.857 373.375H269.965L272.323 364.364H274.152L276.51 373.381H276.618L278.88 364.364H280.732L277.499 376H275.732L273.283 367.284H273.192L270.743 376H268.97ZM283.912 364.364V376H282.157V364.364H283.912ZM285.719 365.875V364.364H294.725V365.875H291.094V376H289.344V365.875H285.719ZM296.539 376V364.364H298.295V369.42H304.096V364.364H305.857V376H304.096V370.926H298.295V376H296.539Z" fill="black" fill-opacity="0.8"/>
<path d="M714 370C714 334.654 742.654 306 778 306C813.346 306 842 334.654 842 370C842 405.346 813.346 434 778 434C742.654 434 714 405.346 714 370Z" fill="#FFDF81"/>
<path d="M754.454 375V364.878H756.246L759.298 373.236L762.392 364.878H764.177V375H762.84V366.817L759.907 375H758.696L755.784 366.894V375H754.454ZM769.552 375.14C768.88 375.14 768.287 374.993 767.774 374.699C767.261 374.405 766.859 373.983 766.57 373.432C766.281 372.881 766.136 372.221 766.136 371.451C766.136 370.69 766.267 370.023 766.528 369.449C766.789 368.875 767.167 368.427 767.662 368.105C768.161 367.783 768.761 367.622 769.461 367.622C770.142 367.622 770.719 367.769 771.19 368.063C771.661 368.357 772.018 368.772 772.261 369.309C772.508 369.841 772.632 370.473 772.632 371.206V371.682H767.445C767.445 372.139 767.52 372.555 767.669 372.928C767.823 373.297 768.054 373.591 768.362 373.81C768.67 374.029 769.06 374.139 769.531 374.139C769.993 374.139 770.39 374.032 770.721 373.817C771.057 373.602 771.272 373.292 771.365 372.886H772.583C772.499 373.376 772.303 373.789 771.995 374.125C771.692 374.461 771.325 374.715 770.896 374.888C770.471 375.056 770.023 375.14 769.552 375.14ZM767.452 370.807H771.386C771.386 370.392 771.316 370.018 771.176 369.687C771.036 369.351 770.821 369.087 770.532 368.896C770.247 368.7 769.888 368.602 769.454 368.602C769.001 368.602 768.626 368.712 768.327 368.931C768.028 369.146 767.807 369.423 767.662 369.764C767.517 370.1 767.447 370.448 767.452 370.807ZM776.25 375.091C775.858 375.091 775.54 375.037 775.298 374.93C775.06 374.823 774.875 374.678 774.745 374.496C774.619 374.314 774.532 374.106 774.486 373.873C774.444 373.635 774.423 373.39 774.423 373.138V364.598H775.697V373.012C775.697 373.376 775.767 373.649 775.907 373.831C776.051 374.013 776.252 374.113 776.509 374.132L776.901 374.139V374.979C776.793 375.012 776.681 375.037 776.565 375.056C776.448 375.079 776.343 375.091 776.25 375.091ZM778.627 375V367.762H779.88V375H778.627ZM778.592 366.229V364.885H779.915V366.229H778.592ZM784.655 375.14C784.151 375.14 783.682 375.063 783.248 374.909C782.819 374.75 782.462 374.505 782.177 374.174C781.893 373.838 781.715 373.411 781.645 372.893H782.821C782.882 373.178 782.999 373.416 783.171 373.607C783.344 373.794 783.556 373.936 783.808 374.034C784.065 374.127 784.345 374.174 784.648 374.174C785.138 374.174 785.533 374.083 785.831 373.901C786.13 373.719 786.279 373.439 786.279 373.061C786.279 372.795 786.2 372.583 786.041 372.424C785.887 372.261 785.645 372.142 785.313 372.067L783.815 371.696C783.232 371.556 782.765 371.337 782.415 371.038C782.07 370.739 781.895 370.322 781.89 369.785C781.89 369.36 781.993 368.987 782.198 368.665C782.404 368.343 782.709 368.089 783.115 367.902C783.526 367.715 784.037 367.622 784.648 367.622C785.437 367.622 786.072 367.799 786.552 368.154C787.033 368.504 787.285 369.02 787.308 369.701H786.16C786.114 369.356 785.96 369.083 785.698 368.882C785.437 368.677 785.082 368.574 784.634 368.574C784.177 368.574 783.801 368.667 783.507 368.854C783.218 369.036 783.073 369.321 783.073 369.708C783.073 369.965 783.176 370.168 783.381 370.317C783.591 370.462 783.895 370.583 784.291 370.681L785.747 371.045C786.079 371.134 786.354 371.25 786.573 371.395C786.793 371.54 786.965 371.701 787.091 371.878C787.217 372.055 787.306 372.242 787.357 372.438C787.413 372.629 787.441 372.814 787.441 372.991C787.441 373.434 787.332 373.817 787.112 374.139C786.893 374.456 786.576 374.704 786.16 374.881C785.745 375.054 785.243 375.14 784.655 375.14ZM791.71 375.14C791.206 375.14 790.737 375.063 790.303 374.909C789.874 374.75 789.517 374.505 789.232 374.174C788.947 373.838 788.77 373.411 788.7 372.893H789.876C789.937 373.178 790.053 373.416 790.226 373.607C790.399 373.794 790.611 373.936 790.863 374.034C791.12 374.127 791.4 374.174 791.703 374.174C792.193 374.174 792.587 374.083 792.886 373.901C793.185 373.719 793.334 373.439 793.334 373.061C793.334 372.795 793.255 372.583 793.096 372.424C792.942 372.261 792.699 372.142 792.368 372.067L790.87 371.696C790.287 371.556 789.82 371.337 789.47 371.038C789.125 370.739 788.95 370.322 788.945 369.785C788.945 369.36 789.048 368.987 789.253 368.665C789.458 368.343 789.764 368.089 790.17 367.902C790.581 367.715 791.092 367.622 791.703 367.622C792.492 367.622 793.126 367.799 793.607 368.154C794.088 368.504 794.34 369.02 794.363 369.701H793.215C793.168 369.356 793.014 369.083 792.753 368.882C792.492 368.677 792.137 368.574 791.689 368.574C791.232 368.574 790.856 368.667 790.562 368.854C790.273 369.036 790.128 369.321 790.128 369.708C790.128 369.965 790.231 370.168 790.436 370.317C790.646 370.462 790.949 370.583 791.346 370.681L792.802 371.045C793.133 371.134 793.409 371.25 793.628 371.395C793.847 371.54 794.02 371.701 794.146 371.878C794.272 372.055 794.361 372.242 794.412 372.438C794.468 372.629 794.496 372.814 794.496 372.991C794.496 373.434 794.386 373.817 794.167 374.139C793.948 374.456 793.63 374.704 793.215 374.881C792.8 375.054 792.298 375.14 791.71 375.14ZM798.246 375.14C797.774 375.14 797.359 375.058 797 374.895C796.645 374.727 796.365 374.487 796.16 374.174C795.959 373.861 795.859 373.483 795.859 373.04C795.859 372.237 796.139 371.64 796.699 371.248C797.259 370.856 798.157 370.646 799.394 370.618L800.682 370.583V370.016C800.682 369.573 800.549 369.223 800.283 368.966C800.017 368.705 799.606 368.574 799.051 368.574C798.635 368.579 798.269 368.677 797.952 368.868C797.634 369.059 797.431 369.372 797.343 369.806H796.202C796.23 369.335 796.36 368.938 796.594 368.616C796.832 368.289 797.165 368.042 797.595 367.874C798.024 367.706 798.53 367.622 799.114 367.622C799.744 367.622 800.266 367.711 800.682 367.888C801.102 368.065 801.414 368.327 801.62 368.672C801.83 369.017 801.935 369.442 801.935 369.946V375H800.829L800.731 373.642C800.455 374.207 800.101 374.599 799.667 374.818C799.237 375.033 798.764 375.14 798.246 375.14ZM798.631 374.209C798.878 374.209 799.121 374.165 799.359 374.076C799.601 373.987 799.821 373.868 800.017 373.719C800.217 373.565 800.378 373.395 800.5 373.208C800.621 373.017 800.682 372.821 800.682 372.62V371.381L799.611 371.402C799.055 371.411 798.593 371.467 798.225 371.57C797.856 371.673 797.578 371.834 797.392 372.053C797.205 372.272 797.112 372.559 797.112 372.914C797.112 373.32 797.254 373.637 797.539 373.866C797.823 374.095 798.187 374.209 798.631 374.209Z" fill="black"/>
<path d="M488.5 369C487.948 369 487.5 369.448 487.5 370C487.5 370.552 487.948 371 488.5 371V370V369ZM527.14 371C527.692 371 528.14 370.552 528.14 370C528.14 369.448 527.692 369 527.14 369V370V371ZM679.14 369C678.588 369 678.14 369.448 678.14 370C678.14 370.552 678.588 371 679.14 371V370V369ZM711.207 370.707C711.598 370.317 711.598 369.683 711.207 369.293L704.843 362.929C704.453 362.538 703.819 362.538 703.429 362.929C703.038 363.319 703.038 363.953 703.429 364.343L709.086 370L703.429 375.657C703.038 376.047 703.038 376.681 703.429 377.071C703.819 377.462 704.453 377.462 704.843 377.071L711.207 370.707ZM488.5 370V371H527.14V370V369H488.5V370ZM679.14 370V371H710.5V370V369H679.14V370Z" fill="black" fill-opacity="0.8"/>
<path d="M537.898 364.364V376H536.143V364.364H537.898ZM546.626 367.42C546.565 366.883 546.315 366.466 545.876 366.17C545.436 365.871 544.883 365.722 544.217 365.722C543.739 365.722 543.327 365.797 542.978 365.949C542.63 366.097 542.359 366.301 542.166 366.562C541.976 366.82 541.882 367.114 541.882 367.443C541.882 367.72 541.946 367.958 542.075 368.159C542.207 368.36 542.38 368.528 542.592 368.665C542.808 368.797 543.039 368.909 543.285 369C543.531 369.087 543.768 369.159 543.995 369.216L545.132 369.511C545.503 369.602 545.883 369.725 546.274 369.881C546.664 370.036 547.025 370.241 547.359 370.494C547.692 370.748 547.961 371.062 548.166 371.438C548.374 371.812 548.478 372.261 548.478 372.784C548.478 373.443 548.308 374.028 547.967 374.54C547.63 375.051 547.139 375.455 546.495 375.75C545.855 376.045 545.08 376.193 544.171 376.193C543.3 376.193 542.546 376.055 541.91 375.778C541.274 375.502 540.775 375.11 540.416 374.602C540.056 374.091 539.857 373.485 539.819 372.784H541.58C541.614 373.205 541.751 373.555 541.989 373.835C542.232 374.112 542.541 374.318 542.916 374.455C543.294 374.587 543.709 374.653 544.16 374.653C544.656 374.653 545.097 374.576 545.484 374.42C545.874 374.261 546.181 374.042 546.404 373.761C546.628 373.477 546.739 373.146 546.739 372.767C546.739 372.422 546.641 372.14 546.444 371.92C546.251 371.701 545.988 371.519 545.654 371.375C545.325 371.231 544.952 371.104 544.535 370.994L543.16 370.619C542.228 370.366 541.489 369.992 540.944 369.5C540.402 369.008 540.132 368.356 540.132 367.545C540.132 366.875 540.313 366.29 540.677 365.79C541.041 365.29 541.533 364.902 542.154 364.625C542.775 364.345 543.476 364.205 544.257 364.205C545.044 364.205 545.739 364.343 546.342 364.619C546.948 364.896 547.425 365.277 547.774 365.761C548.122 366.242 548.304 366.795 548.319 367.42H546.626ZM556.497 376V377.443H549.105V376H556.497ZM557.583 376V364.364H564.799V365.875H559.339V369.42H564.282V370.926H559.339V376H557.583ZM566.782 376V364.364H570.93C571.832 364.364 572.58 364.519 573.175 364.83C573.773 365.14 574.22 365.57 574.515 366.119C574.811 366.665 574.959 367.295 574.959 368.011C574.959 368.723 574.809 369.35 574.51 369.892C574.214 370.43 573.767 370.848 573.169 371.148C572.574 371.447 571.826 371.597 570.925 371.597H567.782V370.085H570.765C571.334 370.085 571.796 370.004 572.152 369.841C572.512 369.678 572.775 369.441 572.942 369.131C573.108 368.82 573.192 368.447 573.192 368.011C573.192 367.572 573.106 367.191 572.936 366.869C572.769 366.547 572.506 366.301 572.146 366.131C571.79 365.956 571.322 365.869 570.743 365.869H568.538V376H566.782ZM572.527 370.75L575.402 376H573.402L570.584 370.75H572.527ZM578.675 364.364V376H576.919V364.364H578.675ZM581.055 376V364.364H588.351V365.875H582.811V369.42H587.97V370.926H582.811V374.489H588.419V376H581.055ZM599.912 364.364V376H598.299L592.384 367.466H592.276V376H590.52V364.364H592.145L598.066 372.909H598.174V364.364H599.912ZM606.064 376H602.297V364.364H606.184C607.324 364.364 608.303 364.597 609.121 365.062C609.939 365.525 610.566 366.189 611.002 367.057C611.441 367.92 611.661 368.956 611.661 370.165C611.661 371.377 611.439 372.419 610.996 373.29C610.557 374.161 609.92 374.831 609.087 375.301C608.254 375.767 607.246 376 606.064 376ZM604.053 374.466H605.968C606.854 374.466 607.591 374.299 608.178 373.966C608.765 373.629 609.204 373.142 609.496 372.506C609.788 371.866 609.934 371.085 609.934 370.165C609.934 369.252 609.788 368.477 609.496 367.841C609.208 367.205 608.778 366.722 608.206 366.392C607.634 366.062 606.924 365.898 606.076 365.898H604.053V374.466ZM620.015 367.42C619.954 366.883 619.704 366.466 619.265 366.17C618.825 365.871 618.272 365.722 617.606 365.722C617.128 365.722 616.715 365.797 616.367 365.949C616.018 366.097 615.748 366.301 615.554 366.562C615.365 366.82 615.27 367.114 615.27 367.443C615.27 367.72 615.335 367.958 615.464 368.159C615.596 368.36 615.768 368.528 615.981 368.665C616.197 368.797 616.428 368.909 616.674 369C616.92 369.087 617.157 369.159 617.384 369.216L618.52 369.511C618.892 369.602 619.272 369.725 619.662 369.881C620.053 370.036 620.414 370.241 620.748 370.494C621.081 370.748 621.35 371.062 621.554 371.438C621.763 371.812 621.867 372.261 621.867 372.784C621.867 373.443 621.697 374.028 621.356 374.54C621.018 375.051 620.528 375.455 619.884 375.75C619.244 376.045 618.469 376.193 617.56 376.193C616.689 376.193 615.935 376.055 615.299 375.778C614.662 375.502 614.164 375.11 613.804 374.602C613.445 374.091 613.246 373.485 613.208 372.784H614.969C615.003 373.205 615.14 373.555 615.378 373.835C615.621 374.112 615.929 374.318 616.304 374.455C616.683 374.587 617.098 374.653 617.549 374.653C618.045 374.653 618.486 374.576 618.873 374.42C619.263 374.261 619.57 374.042 619.793 373.761C620.017 373.477 620.128 373.146 620.128 372.767C620.128 372.422 620.03 372.14 619.833 371.92C619.64 371.701 619.376 371.519 619.043 371.375C618.714 371.231 618.34 371.104 617.924 370.994L616.549 370.619C615.617 370.366 614.878 369.992 614.333 369.5C613.791 369.008 613.52 368.356 613.52 367.545C613.52 366.875 613.702 366.29 614.066 365.79C614.429 365.29 614.922 364.902 615.543 364.625C616.164 364.345 616.865 364.205 617.645 364.205C618.433 364.205 619.128 364.343 619.731 364.619C620.337 364.896 620.814 365.277 621.162 365.761C621.511 366.242 621.693 366.795 621.708 367.42H620.015ZM629.886 376V377.443H622.494V376H629.886ZM633.251 376L630.023 364.364H631.87L634.137 373.375H634.245L636.603 364.364H638.433L640.791 373.381H640.899L643.16 364.364H645.012L641.779 376H640.012L637.563 367.284H637.472L635.023 376H633.251ZM648.193 364.364V376H646.437V364.364H648.193ZM650 365.875V364.364H659.005V365.875H655.375V376H653.625V365.875H650ZM660.819 376V364.364H662.575V369.42H668.376V364.364H670.138V376H668.376V370.926H662.575V376H660.819Z" fill="black" fill-opacity="0.8"/>
<path d="M608 156C608 120.654 636.654 92 672 92C707.346 92 736 120.654 736 156C736 191.346 707.346 220 672 220C636.654 220 608 191.346 608 156Z" fill="#FFDF81"/>
<path d="M660.491 161.14C659.996 161.14 659.527 161.082 659.084 160.965C658.64 160.844 658.237 160.664 657.873 160.426C657.513 160.188 657.215 159.894 656.977 159.544C656.743 159.189 656.596 158.779 656.536 158.312H657.894C657.978 158.695 658.143 159.017 658.391 159.278C658.643 159.539 658.953 159.735 659.322 159.866C659.695 159.997 660.103 160.062 660.547 160.062C660.976 160.062 661.37 159.994 661.73 159.859C662.094 159.724 662.385 159.528 662.605 159.271C662.824 159.01 662.934 158.697 662.934 158.333C662.934 157.932 662.803 157.61 662.542 157.367C662.28 157.12 661.877 156.921 661.331 156.772L659.245 156.233C658.773 156.116 658.356 155.953 657.992 155.743C657.632 155.528 657.35 155.248 657.145 154.903C656.939 154.553 656.837 154.119 656.837 153.601C656.837 153.027 656.995 152.528 657.313 152.103C657.63 151.674 658.059 151.342 658.601 151.109C659.147 150.871 659.763 150.752 660.449 150.752C661.242 150.752 661.909 150.89 662.451 151.165C662.997 151.44 663.41 151.802 663.69 152.25C663.97 152.698 664.11 153.176 664.11 153.685H662.78C662.738 153.223 662.602 152.859 662.374 152.593C662.145 152.322 661.86 152.129 661.52 152.012C661.179 151.891 660.808 151.83 660.407 151.83C659.683 151.83 659.135 151.996 658.762 152.327C658.393 152.654 658.209 153.043 658.209 153.496C658.209 153.911 658.342 154.238 658.608 154.476C658.874 154.714 659.266 154.898 659.784 155.029L661.814 155.554C662.416 155.694 662.894 155.897 663.249 156.163C663.608 156.429 663.865 156.739 664.019 157.094C664.177 157.444 664.257 157.824 664.257 158.235C664.257 158.795 664.1 159.294 663.788 159.733C663.475 160.172 663.036 160.517 662.472 160.769C661.912 161.016 661.251 161.14 660.491 161.14ZM668.149 161.14C667.678 161.14 667.262 161.058 666.903 160.895C666.548 160.727 666.268 160.487 666.063 160.174C665.862 159.861 665.762 159.483 665.762 159.04C665.762 158.237 666.042 157.64 666.602 157.248C667.162 156.856 668.06 156.646 669.297 156.618L670.585 156.583V156.016C670.585 155.573 670.452 155.223 670.186 154.966C669.92 154.705 669.509 154.574 668.954 154.574C668.539 154.579 668.172 154.677 667.855 154.868C667.538 155.059 667.335 155.372 667.246 155.806H666.105C666.133 155.335 666.264 154.938 666.497 154.616C666.735 154.289 667.069 154.042 667.498 153.874C667.927 153.706 668.434 153.622 669.017 153.622C669.647 153.622 670.17 153.711 670.585 153.888C671.005 154.065 671.318 154.327 671.523 154.672C671.733 155.017 671.838 155.442 671.838 155.946V161H670.732L670.634 159.642C670.359 160.207 670.004 160.599 669.57 160.818C669.141 161.033 668.667 161.14 668.149 161.14ZM668.534 160.209C668.781 160.209 669.024 160.165 669.262 160.076C669.505 159.987 669.724 159.868 669.92 159.719C670.121 159.565 670.282 159.395 670.403 159.208C670.524 159.017 670.585 158.821 670.585 158.62V157.381L669.514 157.402C668.959 157.411 668.497 157.467 668.128 157.57C667.759 157.673 667.482 157.834 667.295 158.053C667.108 158.272 667.015 158.559 667.015 158.914C667.015 159.32 667.157 159.637 667.442 159.866C667.727 160.095 668.091 160.209 668.534 160.209ZM675.684 161.091C675.292 161.091 674.975 161.037 674.732 160.93C674.494 160.823 674.31 160.678 674.179 160.496C674.053 160.314 673.967 160.106 673.92 159.873C673.878 159.635 673.857 159.39 673.857 159.138V150.598H675.131V159.012C675.131 159.376 675.201 159.649 675.341 159.831C675.486 160.013 675.686 160.113 675.943 160.132L676.335 160.139V160.979C676.228 161.012 676.116 161.037 675.999 161.056C675.882 161.079 675.777 161.091 675.684 161.091ZM679.717 161.091C679.325 161.091 679.008 161.037 678.765 160.93C678.527 160.823 678.343 160.678 678.212 160.496C678.086 160.314 678 160.106 677.953 159.873C677.911 159.635 677.89 159.39 677.89 159.138V150.598H679.164V159.012C679.164 159.376 679.234 159.649 679.374 159.831C679.519 160.013 679.72 160.113 679.976 160.132L680.368 160.139V160.979C680.261 161.012 680.149 161.037 680.032 161.056C679.916 161.079 679.811 161.091 679.717 161.091ZM682.576 163.31C682.152 163.31 681.86 163.28 681.701 163.219C681.543 163.158 681.463 163.128 681.463 163.128V162.288L682.205 162.302C682.471 162.311 682.693 162.293 682.87 162.246C683.048 162.199 683.19 162.136 683.297 162.057C683.405 161.978 683.486 161.889 683.542 161.791C683.603 161.693 683.652 161.6 683.689 161.511L683.941 160.825L681.113 153.762H682.422L684.557 159.348L686.678 153.762H687.945L684.9 161.546C684.709 162.003 684.497 162.36 684.263 162.617C684.035 162.874 683.778 163.053 683.493 163.156C683.213 163.259 682.908 163.31 682.576 163.31Z" fill="black"/>
<path d="M487.015 312.402C486.595 312.761 486.544 313.392 486.903 313.812C487.261 314.232 487.892 314.283 488.312 313.924L487.664 313.163L487.015 312.402ZM497 305.203L497.649 305.964V305.964L497 305.203ZM526.207 281.616C526.627 281.258 526.677 280.626 526.319 280.206C525.961 279.786 525.33 279.736 524.909 280.094L525.558 280.855L526.207 281.616ZM570.652 241.094C570.232 241.452 570.182 242.083 570.54 242.504C570.898 242.924 571.53 242.974 571.95 242.616L571.301 241.855L570.652 241.094ZM580.87 233.696L580.222 232.935V232.935L580.87 233.696ZM606.334 212.916C606.377 212.365 605.967 211.883 605.416 211.84L596.444 211.126C595.894 211.082 595.412 211.493 595.368 212.043C595.325 212.594 595.735 213.076 596.286 213.119L604.261 213.754L603.626 221.729C603.582 222.279 603.993 222.761 604.544 222.805C605.094 222.849 605.576 222.438 605.62 221.887L606.334 212.916ZM487.664 313.163L488.312 313.924L497.649 305.964L497 305.203L496.351 304.442L487.015 312.402L487.664 313.163ZM497 305.203L497.649 305.964L526.207 281.616L525.558 280.855L524.909 280.094L496.351 304.442L497 305.203ZM571.301 241.855L571.95 242.616L581.519 234.457L580.87 233.696L580.222 232.935L570.652 241.094L571.301 241.855ZM580.87 233.696L581.519 234.457L605.986 213.597L605.337 212.836L604.688 212.075L580.222 232.935L580.87 233.696Z" fill="black" fill-opacity="0.8"/>
<path d="M483.188 255.719V267.355H481.432V255.719H483.188ZM491.915 258.775C491.855 258.238 491.605 257.821 491.165 257.525C490.726 257.226 490.173 257.077 489.506 257.077C489.029 257.077 488.616 257.152 488.268 257.304C487.919 257.452 487.648 257.656 487.455 257.917C487.266 258.175 487.171 258.469 487.171 258.798C487.171 259.075 487.235 259.313 487.364 259.514C487.497 259.715 487.669 259.883 487.881 260.02C488.097 260.152 488.328 260.264 488.574 260.355C488.821 260.442 489.057 260.514 489.285 260.571L490.421 260.866C490.792 260.957 491.173 261.08 491.563 261.236C491.953 261.391 492.315 261.596 492.648 261.849C492.982 262.103 493.251 262.417 493.455 262.792C493.663 263.167 493.768 263.616 493.768 264.139C493.768 264.798 493.597 265.383 493.256 265.895C492.919 266.406 492.429 266.81 491.785 267.105C491.145 267.4 490.37 267.548 489.461 267.548C488.59 267.548 487.836 267.41 487.199 267.133C486.563 266.857 486.065 266.465 485.705 265.957C485.345 265.446 485.146 264.84 485.109 264.139H486.87C486.904 264.56 487.04 264.91 487.279 265.19C487.521 265.467 487.83 265.673 488.205 265.81C488.584 265.942 488.999 266.008 489.449 266.008C489.946 266.008 490.387 265.931 490.773 265.775C491.163 265.616 491.47 265.397 491.694 265.116C491.917 264.832 492.029 264.501 492.029 264.122C492.029 263.777 491.931 263.495 491.734 263.275C491.54 263.056 491.277 262.874 490.944 262.73C490.614 262.586 490.241 262.459 489.824 262.349L488.449 261.974C487.518 261.721 486.779 261.347 486.234 260.855C485.692 260.363 485.421 259.711 485.421 258.9C485.421 258.23 485.603 257.645 485.967 257.145C486.33 256.645 486.823 256.256 487.444 255.98C488.065 255.7 488.766 255.56 489.546 255.56C490.334 255.56 491.029 255.698 491.631 255.974C492.237 256.251 492.715 256.631 493.063 257.116C493.412 257.597 493.593 258.15 493.609 258.775H491.915ZM501.786 267.355V268.798H494.394V267.355H501.786ZM502.873 267.355V255.719H510.089V257.23H504.629V260.775H509.572V262.281H504.629V267.355H502.873ZM512.072 267.355V255.719H516.22C517.121 255.719 517.869 255.874 518.464 256.185C519.063 256.495 519.51 256.925 519.805 257.474C520.1 258.02 520.248 258.65 520.248 259.366C520.248 260.078 520.099 260.705 519.799 261.247C519.504 261.785 519.057 262.203 518.458 262.503C517.864 262.802 517.116 262.952 516.214 262.952H513.072V261.44H516.055C516.623 261.44 517.085 261.359 517.441 261.196C517.801 261.033 518.064 260.796 518.231 260.486C518.398 260.175 518.481 259.802 518.481 259.366C518.481 258.927 518.396 258.546 518.225 258.224C518.059 257.902 517.796 257.656 517.436 257.486C517.08 257.311 516.612 257.224 516.032 257.224H513.828V267.355H512.072ZM517.816 262.105L520.691 267.355H518.691L515.873 262.105H517.816ZM523.964 255.719V267.355H522.209V255.719H523.964ZM526.345 267.355V255.719H533.64V257.23H528.101V260.775H533.26V262.281H528.101V265.844H533.709V267.355H526.345ZM545.202 255.719V267.355H543.588L537.673 258.821H537.565V267.355H535.81V255.719H537.435L543.355 264.264H543.463V255.719H545.202ZM551.354 267.355H547.587V255.719H551.473C552.613 255.719 553.592 255.952 554.411 256.417C555.229 256.88 555.856 257.544 556.291 258.412C556.731 259.275 556.95 260.311 556.95 261.52C556.95 262.732 556.729 263.774 556.286 264.645C555.846 265.516 555.21 266.186 554.377 266.656C553.543 267.122 552.536 267.355 551.354 267.355ZM549.342 265.821H551.257C552.144 265.821 552.88 265.654 553.467 265.321C554.055 264.984 554.494 264.497 554.786 263.861C555.077 263.221 555.223 262.44 555.223 261.52C555.223 260.607 555.077 259.832 554.786 259.196C554.498 258.56 554.068 258.077 553.496 257.747C552.924 257.417 552.214 257.253 551.365 257.253H549.342V265.821ZM565.304 258.775C565.244 258.238 564.994 257.821 564.554 257.525C564.115 257.226 563.562 257.077 562.895 257.077C562.418 257.077 562.005 257.152 561.657 257.304C561.308 257.452 561.037 257.656 560.844 257.917C560.655 258.175 560.56 258.469 560.56 258.798C560.56 259.075 560.624 259.313 560.753 259.514C560.886 259.715 561.058 259.883 561.27 260.02C561.486 260.152 561.717 260.264 561.963 260.355C562.21 260.442 562.446 260.514 562.674 260.571L563.81 260.866C564.181 260.957 564.562 261.08 564.952 261.236C565.342 261.391 565.704 261.596 566.037 261.849C566.371 262.103 566.639 262.417 566.844 262.792C567.052 263.167 567.157 263.616 567.157 264.139C567.157 264.798 566.986 265.383 566.645 265.895C566.308 266.406 565.818 266.81 565.174 267.105C564.533 267.4 563.759 267.548 562.85 267.548C561.978 267.548 561.225 267.41 560.588 267.133C559.952 266.857 559.454 266.465 559.094 265.957C558.734 265.446 558.535 264.84 558.497 264.139H560.259C560.293 264.56 560.429 264.91 560.668 265.19C560.91 265.467 561.219 265.673 561.594 265.81C561.973 265.942 562.388 266.008 562.838 266.008C563.335 266.008 563.776 265.931 564.162 265.775C564.552 265.616 564.859 265.397 565.083 265.116C565.306 264.832 565.418 264.501 565.418 264.122C565.418 263.777 565.319 263.495 565.122 263.275C564.929 263.056 564.666 262.874 564.333 262.73C564.003 262.586 563.63 262.459 563.213 262.349L561.838 261.974C560.907 261.721 560.168 261.347 559.622 260.855C559.081 260.363 558.81 259.711 558.81 258.9C558.81 258.23 558.992 257.645 559.355 257.145C559.719 256.645 560.211 256.256 560.833 255.98C561.454 255.7 562.155 255.56 562.935 255.56C563.723 255.56 564.418 255.698 565.02 255.974C565.626 256.251 566.103 256.631 566.452 257.116C566.8 257.597 566.982 258.15 566.997 258.775H565.304ZM575.175 267.355V268.798H567.783V267.355H575.175ZM578.54 267.355L575.313 255.719H577.16L579.427 264.73H579.535L581.893 255.719H583.722L586.08 264.736H586.188L588.449 255.719H590.302L587.069 267.355H585.302L582.853 258.639H582.762L580.313 267.355H578.54ZM593.482 255.719V267.355H591.727V255.719H593.482ZM595.289 257.23V255.719H604.295V257.23H600.664V267.355H598.914V257.23H595.289ZM606.109 267.355V255.719H607.865V260.775H613.666V255.719H615.427V267.355H613.666V262.281H607.865V267.355H606.109Z" fill="black" fill-opacity="0.8"/>
</svg>
