<svg width="479" height="128" viewBox="0 0 479 128" fill="none" xmlns="http://www.w3.org/2000/svg">
<path d="M351 64C351 28.6538 379.654 0 415 0C450.346 0 479 28.6538 479 64C479 99.3462 450.346 128 415 128C379.654 128 351 99.3462 351 64Z" fill="#56C7E4"/>
<path d="M399.623 69V58.878H401.415L404.467 67.236L407.561 58.878H409.346V69H408.009V60.817L405.076 69H403.865L400.953 60.894V69H399.623ZM413.747 69.14C413.275 69.14 412.86 69.0583 412.501 68.895C412.146 68.727 411.866 68.4867 411.661 68.174C411.46 67.8613 411.36 67.4833 411.36 67.04C411.36 66.2373 411.64 65.64 412.2 65.248C412.76 64.856 413.658 64.646 414.895 64.618L416.183 64.583V64.016C416.183 63.5727 416.05 63.2227 415.784 62.966C415.518 62.7047 415.107 62.574 414.552 62.574C414.136 62.5787 413.77 62.6767 413.453 62.868C413.135 63.0593 412.932 63.372 412.844 63.806H411.703C411.731 63.3347 411.861 62.938 412.095 62.616C412.333 62.2893 412.666 62.042 413.096 61.874C413.525 61.706 414.031 61.622 414.615 61.622C415.245 61.622 415.767 61.7107 416.183 61.888C416.603 62.0653 416.915 62.3267 417.121 62.672C417.331 63.0173 417.436 63.442 417.436 63.946V69H416.33L416.232 67.642C415.956 68.2067 415.602 68.5987 415.168 68.818C414.738 69.0327 414.265 69.14 413.747 69.14ZM414.132 68.209C414.379 68.209 414.622 68.1647 414.86 68.076C415.102 67.9873 415.322 67.8683 415.518 67.719C415.718 67.565 415.879 67.3947 416.001 67.208C416.122 67.0167 416.183 66.8207 416.183 66.62V65.381L415.112 65.402C414.556 65.4113 414.094 65.4673 413.726 65.57C413.357 65.6727 413.079 65.8337 412.893 66.053C412.706 66.2723 412.613 66.5593 412.613 66.914C412.613 67.32 412.755 67.6373 413.04 67.866C413.324 68.0947 413.688 68.209 414.132 68.209ZM419.455 69V61.762H420.687V63.155C420.808 62.8097 420.978 62.525 421.198 62.301C421.417 62.0723 421.667 61.902 421.947 61.79C422.231 61.678 422.525 61.622 422.829 61.622C422.936 61.622 423.041 61.629 423.144 61.643C423.246 61.657 423.326 61.6803 423.382 61.713V62.966C423.312 62.9333 423.221 62.9123 423.109 62.903C423.001 62.889 422.91 62.882 422.836 62.882C422.546 62.8633 422.276 62.882 422.024 62.938C421.772 62.9893 421.55 63.0803 421.359 63.211C421.167 63.3417 421.016 63.5143 420.904 63.729C420.796 63.939 420.743 64.1957 420.743 64.499V69H419.455ZM424.924 69V58.598H426.212V65.381L429.614 61.762H431.098L428.487 64.52L431.28 69H429.908L427.64 65.367L426.212 66.844V69H424.924Z" fill="black"/>
<path d="M0 64C0 28.6538 28.6538 0 64 0C99.3462 0 128 28.6538 128 64C128 99.3462 99.3462 128 64 128C28.6538 128 0 99.3462 0 64Z" fill="#C990C0"/>
<path d="M40.2971 69.14C39.9378 69.14 39.5995 69.098 39.2821 69.014C38.9695 68.93 38.7618 68.867 38.6591 68.825L38.7501 67.586C38.8948 67.6373 39.0605 67.7027 39.2471 67.782C39.4385 67.8567 39.6741 67.894 39.9541 67.894C40.4115 67.894 40.7241 67.768 40.8921 67.516C41.0648 67.264 41.1511 66.8393 41.1511 66.242V58.878H42.4461V66.613C42.4461 67.1497 42.3855 67.607 42.2641 67.985C42.1428 68.363 41.9258 68.65 41.6131 68.846C41.3051 69.042 40.8665 69.14 40.2971 69.14ZM47.6495 69.14C46.9775 69.14 46.3849 68.993 45.8715 68.699C45.3582 68.405 44.9569 67.9827 44.6675 67.432C44.3782 66.8813 44.2335 66.221 44.2335 65.451C44.2335 64.6903 44.3642 64.023 44.6255 63.449C44.8869 62.875 45.2649 62.427 45.7595 62.105C46.2589 61.783 46.8585 61.622 47.5585 61.622C48.2399 61.622 48.8162 61.769 49.2875 62.063C49.7589 62.357 50.1159 62.7723 50.3585 63.309C50.6059 63.841 50.7295 64.4733 50.7295 65.206V65.682H45.5425C45.5425 66.1393 45.6172 66.5547 45.7665 66.928C45.9205 67.2967 46.1515 67.5907 46.4595 67.81C46.7675 68.0293 47.1572 68.139 47.6285 68.139C48.0905 68.139 48.4872 68.0317 48.8185 67.817C49.1545 67.6023 49.3692 67.292 49.4625 66.886H50.6805C50.5965 67.376 50.4005 67.789 50.0925 68.125C49.7892 68.461 49.4229 68.7153 48.9935 68.888C48.5689 69.056 48.1209 69.14 47.6495 69.14ZM45.5495 64.807H49.4835C49.4835 64.3917 49.4135 64.0183 49.2735 63.687C49.1335 63.351 48.9189 63.0873 48.6295 62.896C48.3449 62.7 47.9855 62.602 47.5515 62.602C47.0989 62.602 46.7232 62.7117 46.4245 62.931C46.1259 63.1457 45.9042 63.4233 45.7595 63.764C45.6149 64.1 45.5449 64.4477 45.5495 64.807ZM52.5202 69V61.762H53.7732V62.812C53.8899 62.6113 54.0509 62.4223 54.2562 62.245C54.4662 62.0677 54.7182 61.9253 55.0122 61.818C55.3109 61.7107 55.6539 61.657 56.0412 61.657C56.4986 61.657 56.9186 61.748 57.3012 61.93C57.6886 62.112 57.9966 62.3967 58.2252 62.784C58.4586 63.1667 58.5752 63.6613 58.5752 64.268V69H57.2802V64.394C57.2802 63.8293 57.1309 63.4117 56.8322 63.141C56.5382 62.8657 56.1556 62.728 55.6842 62.728C55.3576 62.728 55.0519 62.7817 54.7672 62.889C54.4826 62.9917 54.2516 63.1503 54.0742 63.365C53.8969 63.575 53.8082 63.841 53.8082 64.163V69H52.5202ZM60.6003 69V61.762H61.8533V62.812C61.97 62.6113 62.131 62.4223 62.3363 62.245C62.5463 62.0677 62.7983 61.9253 63.0923 61.818C63.391 61.7107 63.734 61.657 64.1213 61.657C64.5786 61.657 64.9986 61.748 65.3813 61.93C65.7686 62.112 66.0766 62.3967 66.3053 62.784C66.5386 63.1667 66.6553 63.6613 66.6553 64.268V69H65.3603V64.394C65.3603 63.8293 65.211 63.4117 64.9123 63.141C64.6183 62.8657 64.2356 62.728 63.7643 62.728C63.4376 62.728 63.132 62.7817 62.8473 62.889C62.5626 62.9917 62.3316 63.1503 62.1543 63.365C61.977 63.575 61.8883 63.841 61.8883 64.163V69H60.6003ZM68.7154 69V61.762H69.9684V69H68.7154ZM68.6804 60.229V58.885H70.0034V60.229H68.6804ZM73.1054 69V62.707H71.5724V61.762H73.1054V60.642C73.1054 60.068 73.25 59.6317 73.5394 59.333C73.8334 59.0297 74.272 58.878 74.8554 58.878H76.2204L76.2274 59.795H75.1494C74.8507 59.795 74.6477 59.8743 74.5404 60.033C74.433 60.1917 74.3794 60.432 74.3794 60.754V61.762H76.1574V62.707H74.4004V69H73.1054ZM80.6534 69.14C79.9814 69.14 79.3888 68.993 78.8754 68.699C78.3621 68.405 77.9608 67.9827 77.6714 67.432C77.3821 66.8813 77.2374 66.221 77.2374 65.451C77.2374 64.6903 77.3681 64.023 77.6294 63.449C77.8908 62.875 78.2688 62.427 78.7634 62.105C79.2628 61.783 79.8624 61.622 80.5624 61.622C81.2438 61.622 81.8201 61.769 82.2914 62.063C82.7628 62.357 83.1198 62.7723 83.3624 63.309C83.6098 63.841 83.7334 64.4733 83.7334 65.206V65.682H78.5464C78.5464 66.1393 78.6211 66.5547 78.7704 66.928C78.9244 67.2967 79.1554 67.5907 79.4634 67.81C79.7714 68.0293 80.1611 68.139 80.6324 68.139C81.0944 68.139 81.4911 68.0317 81.8224 67.817C82.1584 67.6023 82.3731 67.292 82.4664 66.886H83.6844C83.6004 67.376 83.4044 67.789 83.0964 68.125C82.7931 68.461 82.4268 68.7153 81.9974 68.888C81.5728 69.056 81.1248 69.14 80.6534 69.14ZM78.5534 64.807H82.4874C82.4874 64.3917 82.4174 64.0183 82.2774 63.687C82.1374 63.351 81.9228 63.0873 81.6334 62.896C81.3488 62.7 80.9894 62.602 80.5554 62.602C80.1028 62.602 79.7271 62.7117 79.4284 62.931C79.1298 63.1457 78.9081 63.4233 78.7634 63.764C78.6188 64.1 78.5488 64.4477 78.5534 64.807ZM85.5241 69V61.762H86.7561V63.155C86.8775 62.8097 87.0478 62.525 87.2671 62.301C87.4865 62.0723 87.7361 61.902 88.0161 61.79C88.3008 61.678 88.5948 61.622 88.8981 61.622C89.0055 61.622 89.1105 61.629 89.2131 61.643C89.3158 61.657 89.3951 61.6803 89.4511 61.713V62.966C89.3811 62.9333 89.2901 62.9123 89.1781 62.903C89.0708 62.889 88.9798 62.882 88.9051 62.882C88.6158 62.8633 88.3451 62.882 88.0931 62.938C87.8411 62.9893 87.6195 63.0803 87.4281 63.211C87.2368 63.3417 87.0851 63.5143 86.9731 63.729C86.8658 63.939 86.8121 64.1957 86.8121 64.499V69H85.5241Z" fill="black"/>
<path d="M348.207 64.7071C348.598 64.3166 348.598 63.6834 348.207 63.2929L341.843 56.9289C341.453 56.5384 340.819 56.5384 340.429 56.9289C340.038 57.3195 340.038 57.9526 340.429 58.3431L346.086 64L340.429 69.6569C340.038 70.0474 340.038 70.6805 340.429 71.0711C340.819 71.4616 341.453 71.4616 341.843 71.0711L348.207 64.7071ZM313.958 63C313.406 63 312.958 63.4477 312.958 64C312.958 64.5523 313.406 65 313.958 65V64V63ZM157.958 65C158.51 65 158.958 64.5523 158.958 64C158.958 63.4477 158.51 63 157.958 63V64V65ZM131.5 63C130.948 63 130.5 63.4477 130.5 64C130.5 64.5523 130.948 65 131.5 65V64V63ZM347.5 64V63H313.958V64V65H347.5V64ZM157.958 64V63H131.5V64V65H157.958V64Z" fill="black" fill-opacity="0.8"/>
<path d="M167.766 68.5568C167.455 68.5568 167.188 68.447 166.965 68.2273C166.741 68.0038 166.63 67.7348 166.63 67.4205C166.63 67.1098 166.741 66.8447 166.965 66.625C167.188 66.4015 167.455 66.2898 167.766 66.2898C168.077 66.2898 168.344 66.4015 168.567 66.625C168.791 66.8447 168.902 67.1098 168.902 67.4205C168.902 67.6288 168.849 67.8201 168.743 67.9943C168.641 68.1648 168.505 68.3011 168.334 68.4034C168.164 68.5057 167.974 68.5568 167.766 68.5568ZM167.766 62.7273C167.455 62.7273 167.188 62.6174 166.965 62.3977C166.741 62.1742 166.63 61.9053 166.63 61.5909C166.63 61.2803 166.741 61.0152 166.965 60.7955C167.188 60.572 167.455 60.4602 167.766 60.4602C168.077 60.4602 168.344 60.572 168.567 60.7955C168.791 61.0152 168.902 61.2803 168.902 61.5909C168.902 61.7992 168.849 61.9905 168.743 62.1648C168.641 62.3352 168.505 62.4716 168.334 62.5739C168.164 62.6761 167.974 62.7273 167.766 62.7273ZM172.894 58.3636V70H171.138V58.3636H172.894ZM181.621 61.4205C181.561 60.8826 181.311 60.4659 180.871 60.1705C180.432 59.8712 179.879 59.7216 179.212 59.7216C178.735 59.7216 178.322 59.7973 177.974 59.9489C177.625 60.0966 177.354 60.3011 177.161 60.5625C176.972 60.8201 176.877 61.1136 176.877 61.4432C176.877 61.7197 176.941 61.9583 177.07 62.1591C177.203 62.3598 177.375 62.5284 177.587 62.6648C177.803 62.7973 178.034 62.9091 178.28 63C178.527 63.0871 178.763 63.1591 178.991 63.2159L180.127 63.5114C180.498 63.6023 180.879 63.7254 181.269 63.8807C181.659 64.036 182.021 64.2405 182.354 64.4943C182.688 64.7481 182.957 65.0625 183.161 65.4375C183.369 65.8125 183.474 66.2614 183.474 66.7841C183.474 67.4432 183.303 68.0284 182.962 68.5398C182.625 69.0511 182.135 69.4545 181.491 69.75C180.85 70.0455 180.076 70.1932 179.167 70.1932C178.296 70.1932 177.542 70.0549 176.905 69.7784C176.269 69.5019 175.771 69.1098 175.411 68.6023C175.051 68.0909 174.852 67.4848 174.815 66.7841H176.576C176.61 67.2045 176.746 67.5549 176.985 67.8352C177.227 68.1117 177.536 68.3182 177.911 68.4545C178.29 68.5871 178.705 68.6534 179.155 68.6534C179.652 68.6534 180.093 68.5758 180.479 68.4205C180.869 68.2614 181.176 68.0417 181.4 67.7614C181.623 67.4773 181.735 67.1458 181.735 66.767C181.735 66.4223 181.636 66.1402 181.44 65.9205C181.246 65.7008 180.983 65.5189 180.65 65.375C180.32 65.2311 179.947 65.1042 179.53 64.9943L178.155 64.6193C177.224 64.3655 176.485 63.9924 175.94 63.5C175.398 63.0076 175.127 62.3561 175.127 61.5455C175.127 60.875 175.309 60.2898 175.672 59.7898C176.036 59.2898 176.529 58.9015 177.15 58.625C177.771 58.3447 178.472 58.2045 179.252 58.2045C180.04 58.2045 180.735 58.3428 181.337 58.6193C181.943 58.8958 182.421 59.2765 182.769 59.7614C183.118 60.2424 183.299 60.7955 183.315 61.4205H181.621ZM191.492 70V71.4432H184.1V70H191.492ZM192.579 70V58.3636H199.795V59.875H194.335V63.4205H199.278V64.9261H194.335V70H192.579ZM201.778 70V58.3636H205.926C206.827 58.3636 207.575 58.5189 208.17 58.8295C208.769 59.1402 209.215 59.5701 209.511 60.1193C209.806 60.6648 209.954 61.2955 209.954 62.0114C209.954 62.7235 209.804 63.3504 209.505 63.892C209.21 64.4299 208.763 64.8485 208.164 65.1477C207.57 65.447 206.822 65.5966 205.92 65.5966H202.778V64.0852H205.761C206.329 64.0852 206.791 64.0038 207.147 63.8409C207.507 63.678 207.77 63.4413 207.937 63.1307C208.104 62.8201 208.187 62.447 208.187 62.0114C208.187 61.572 208.102 61.1913 207.931 60.8693C207.765 60.5473 207.501 60.3011 207.142 60.1307C206.786 59.9564 206.318 59.8693 205.738 59.8693H203.534V70H201.778ZM207.522 64.75L210.397 70H208.397L205.579 64.75H207.522ZM213.67 58.3636V70H211.914V58.3636H213.67ZM216.051 70V58.3636H223.346V59.875H217.807V63.4205H222.966V64.9261H217.807V68.4886H223.415V70H216.051ZM234.908 58.3636V70H233.294L227.379 61.4659H227.271V70H225.516V58.3636H227.141L233.061 66.9091H233.169V58.3636H234.908ZM241.06 70H237.293V58.3636H241.179C242.319 58.3636 243.298 58.5966 244.117 59.0625C244.935 59.5246 245.562 60.1894 245.997 61.0568C246.437 61.9205 246.656 62.9564 246.656 64.1648C246.656 65.3769 246.435 66.4186 245.992 67.2898C245.552 68.161 244.916 68.8314 244.083 69.3011C243.249 69.767 242.242 70 241.06 70ZM239.048 68.4659H240.963C241.85 68.4659 242.586 68.2992 243.173 67.9659C243.761 67.6288 244.2 67.142 244.492 66.5057C244.783 65.8655 244.929 65.0852 244.929 64.1648C244.929 63.2519 244.783 62.4773 244.492 61.8409C244.204 61.2045 243.774 60.7216 243.202 60.392C242.63 60.0625 241.92 59.8977 241.071 59.8977H239.048V68.4659ZM255.01 61.4205C254.95 60.8826 254.7 60.4659 254.26 60.1705C253.821 59.8712 253.268 59.7216 252.601 59.7216C252.124 59.7216 251.711 59.7973 251.362 59.9489C251.014 60.0966 250.743 60.3011 250.55 60.5625C250.361 60.8201 250.266 61.1136 250.266 61.4432C250.266 61.7197 250.33 61.9583 250.459 62.1591C250.592 62.3598 250.764 62.5284 250.976 62.6648C251.192 62.7973 251.423 62.9091 251.669 63C251.915 63.0871 252.152 63.1591 252.38 63.2159L253.516 63.5114C253.887 63.6023 254.268 63.7254 254.658 63.8807C255.048 64.036 255.41 64.2405 255.743 64.4943C256.076 64.7481 256.345 65.0625 256.55 65.4375C256.758 65.8125 256.862 66.2614 256.862 66.7841C256.862 67.4432 256.692 68.0284 256.351 68.5398C256.014 69.0511 255.523 69.4545 254.88 69.75C254.239 70.0455 253.465 70.1932 252.556 70.1932C251.684 70.1932 250.931 70.0549 250.294 69.7784C249.658 69.5019 249.16 69.1098 248.8 68.6023C248.44 68.0909 248.241 67.4848 248.203 66.7841H249.965C249.999 67.2045 250.135 67.5549 250.374 67.8352C250.616 68.1117 250.925 68.3182 251.3 68.4545C251.679 68.5871 252.094 68.6534 252.544 68.6534C253.04 68.6534 253.482 68.5758 253.868 68.4205C254.258 68.2614 254.565 68.0417 254.789 67.7614C255.012 67.4773 255.124 67.1458 255.124 66.767C255.124 66.4223 255.025 66.1402 254.828 65.9205C254.635 65.7008 254.372 65.5189 254.039 65.375C253.709 65.2311 253.336 65.1042 252.919 64.9943L251.544 64.6193C250.612 64.3655 249.874 63.9924 249.328 63.5C248.787 63.0076 248.516 62.3561 248.516 61.5455C248.516 60.875 248.698 60.2898 249.061 59.7898C249.425 59.2898 249.917 58.9015 250.539 58.625C251.16 58.3447 251.861 58.2045 252.641 58.2045C253.429 58.2045 254.124 58.3428 254.726 58.6193C255.332 58.8958 255.809 59.2765 256.158 59.7614C256.506 60.2424 256.688 60.7955 256.703 61.4205H255.01ZM264.881 70V71.4432H257.489V70H264.881ZM268.246 70L265.019 58.3636H266.866L269.133 67.375H269.241L271.599 58.3636H273.428L275.786 67.3807H275.894L278.155 58.3636H280.008L276.775 70H275.008L272.559 61.2841H272.468L270.019 70H268.246ZM283.188 58.3636V70H281.432V58.3636H283.188ZM284.995 59.875V58.3636H294.001V59.875H290.37V70H288.62V59.875H284.995ZM295.815 70V58.3636H297.571V63.4205H303.372V58.3636H305.133V70H303.372V64.9261H297.571V70H295.815Z" fill="black" fill-opacity="0.8"/>
</svg>
