<svg width="715" height="658" viewBox="0 0 715 658" fill="none" xmlns="http://www.w3.org/2000/svg">
<path d="M223 64C223 28.6538 251.654 0 287 0C322.346 0 351 28.6538 351 64C351 99.3462 322.346 128 287 128C251.654 128 223 99.3462 223 64Z" fill="#F79767"/>
<path d="M232.716 69L236.377 58.878H237.84L241.501 69H240.178L239.184 66.228H235.033L234.032 69H232.716ZM235.376 65.038H238.827L237.105 60.145L235.376 65.038ZM246.816 69V58.878H253.123L253.116 60.012H248.146V63.358H252.612V64.478H248.146V69H246.816ZM257.716 69.14C257.044 69.14 256.451 68.993 255.938 68.699C255.425 68.405 255.023 67.9827 254.734 67.432C254.445 66.8813 254.3 66.221 254.3 65.451C254.3 64.6903 254.431 64.023 254.692 63.449C254.953 62.875 255.331 62.427 255.826 62.105C256.325 61.783 256.925 61.622 257.625 61.622C258.306 61.622 258.883 61.769 259.354 62.063C259.825 62.357 260.182 62.7723 260.425 63.309C260.672 63.841 260.796 64.4733 260.796 65.206V65.682H255.609C255.609 66.1393 255.684 66.5547 255.833 66.928C255.987 67.2967 256.218 67.5907 256.526 67.81C256.834 68.0293 257.224 68.139 257.695 68.139C258.157 68.139 258.554 68.0317 258.885 67.817C259.221 67.6023 259.436 67.292 259.529 66.886H260.747C260.663 67.376 260.467 67.789 260.159 68.125C259.856 68.461 259.489 68.7153 259.06 68.888C258.635 69.056 258.187 69.14 257.716 69.14ZM255.616 64.807H259.55C259.55 64.3917 259.48 64.0183 259.34 63.687C259.2 63.351 258.985 63.0873 258.696 62.896C258.411 62.7 258.052 62.602 257.618 62.602C257.165 62.602 256.79 62.7117 256.491 62.931C256.192 63.1457 255.971 63.4233 255.826 63.764C255.681 64.1 255.611 64.4477 255.616 64.807ZM264.024 69L261.784 61.762H262.988L264.64 67.327H264.752L266.383 61.762H267.363L269.057 67.313H269.176L270.758 61.762H271.976L269.778 69H268.504L266.859 63.659L265.284 69H264.024ZM280.747 69.14C279.861 69.14 279.095 68.937 278.451 68.531C277.807 68.1203 277.313 67.53 276.967 66.76C276.622 65.99 276.449 65.059 276.449 63.967C276.449 62.8657 276.624 61.9253 276.974 61.146C277.329 60.3667 277.833 59.7717 278.486 59.361C279.14 58.9457 279.912 58.738 280.803 58.738C281.312 58.738 281.79 58.8267 282.238 59.004C282.686 59.1813 283.083 59.424 283.428 59.732C283.774 60.0353 284.049 60.383 284.254 60.775C284.464 61.167 284.583 61.5753 284.611 62H283.225C283.16 61.6267 283.015 61.279 282.791 60.957C282.567 60.635 282.283 60.376 281.937 60.18C281.597 59.984 281.212 59.886 280.782 59.886C280.199 59.886 279.686 60.0307 279.242 60.32C278.804 60.6047 278.461 61.0457 278.213 61.643C277.971 62.2403 277.849 63.0057 277.849 63.939C277.849 64.6577 277.924 65.2737 278.073 65.787C278.223 66.3003 278.43 66.718 278.696 67.04C278.967 67.3573 279.282 67.593 279.641 67.747C280.005 67.8963 280.397 67.971 280.817 67.971C281.242 67.971 281.611 67.8963 281.923 67.747C282.241 67.5977 282.504 67.4063 282.714 67.173C282.924 66.935 283.085 66.6807 283.197 66.41C283.314 66.1347 283.377 65.871 283.386 65.619L283.428 64.723H280.964V63.771L284.772 63.778V69H283.799V67.46C283.622 67.7493 283.398 68.0223 283.127 68.279C282.857 68.5357 282.525 68.7433 282.133 68.902C281.746 69.0607 281.284 69.14 280.747 69.14ZM289.93 69.14C289.263 69.14 288.679 68.9977 288.18 68.713C287.685 68.4237 287.3 68.0013 287.025 67.446C286.75 66.8907 286.612 66.2117 286.612 65.409C286.612 64.653 286.74 63.9903 286.997 63.421C287.254 62.8517 287.629 62.4107 288.124 62.098C288.619 61.7807 289.223 61.622 289.937 61.622C290.604 61.622 291.183 61.769 291.673 62.063C292.163 62.3523 292.543 62.7793 292.814 63.344C293.089 63.9087 293.227 64.597 293.227 65.409C293.227 66.1463 293.101 66.795 292.849 67.355C292.597 67.915 292.226 68.3537 291.736 68.671C291.251 68.9837 290.649 69.14 289.93 69.14ZM289.937 68.118C290.366 68.118 290.73 68.0083 291.029 67.789C291.328 67.5697 291.554 67.2547 291.708 66.844C291.867 66.4333 291.946 65.9457 291.946 65.381C291.946 64.863 291.876 64.3987 291.736 63.988C291.601 63.5727 291.386 63.2437 291.092 63.001C290.798 62.7583 290.413 62.637 289.937 62.637C289.498 62.637 289.127 62.7467 288.824 62.966C288.521 63.1807 288.29 63.4933 288.131 63.904C287.977 64.3147 287.9 64.807 287.9 65.381C287.9 65.8897 287.968 66.3517 288.103 66.767C288.243 67.1823 288.462 67.5113 288.761 67.754C289.064 67.9967 289.456 68.118 289.937 68.118ZM297.846 69.14C297.179 69.14 296.595 68.9977 296.096 68.713C295.601 68.4237 295.216 68.0013 294.941 67.446C294.666 66.8907 294.528 66.2117 294.528 65.409C294.528 64.653 294.656 63.9903 294.913 63.421C295.17 62.8517 295.545 62.4107 296.04 62.098C296.535 61.7807 297.139 61.622 297.853 61.622C298.52 61.622 299.099 61.769 299.589 62.063C300.079 62.3523 300.459 62.7793 300.73 63.344C301.005 63.9087 301.143 64.597 301.143 65.409C301.143 66.1463 301.017 66.795 300.765 67.355C300.513 67.915 300.142 68.3537 299.652 68.671C299.167 68.9837 298.565 69.14 297.846 69.14ZM297.853 68.118C298.282 68.118 298.646 68.0083 298.945 67.789C299.244 67.5697 299.47 67.2547 299.624 66.844C299.783 66.4333 299.862 65.9457 299.862 65.381C299.862 64.863 299.792 64.3987 299.652 63.988C299.517 63.5727 299.302 63.2437 299.008 63.001C298.714 62.7583 298.329 62.637 297.853 62.637C297.414 62.637 297.043 62.7467 296.74 62.966C296.437 63.1807 296.206 63.4933 296.047 63.904C295.893 64.3147 295.816 64.807 295.816 65.381C295.816 65.8897 295.884 66.3517 296.019 66.767C296.159 67.1823 296.378 67.5113 296.677 67.754C296.98 67.9967 297.372 68.118 297.853 68.118ZM305.503 69.14C304.56 69.14 303.814 68.818 303.263 68.174C302.717 67.53 302.444 66.5897 302.444 65.353C302.444 64.6017 302.554 63.946 302.773 63.386C302.992 62.826 303.321 62.392 303.76 62.084C304.199 61.776 304.745 61.622 305.398 61.622C305.748 61.622 306.056 61.6663 306.322 61.755C306.588 61.8437 306.819 61.9557 307.015 62.091C307.211 62.2263 307.37 62.3663 307.491 62.511C307.617 62.6557 307.71 62.7887 307.771 62.91V58.598H309.08V69H308.086L307.946 67.516C307.899 67.656 307.825 67.8193 307.722 68.006C307.619 68.188 307.475 68.3677 307.288 68.545C307.106 68.7177 306.868 68.86 306.574 68.972C306.28 69.084 305.923 69.14 305.503 69.14ZM305.734 68.146C306.462 68.146 306.982 67.9243 307.295 67.481C307.612 67.033 307.771 66.3027 307.771 65.29C307.766 64.7253 307.696 64.2447 307.561 63.848C307.426 63.4513 307.211 63.1503 306.917 62.945C306.628 62.735 306.24 62.63 305.755 62.63C305.162 62.63 304.679 62.8423 304.306 63.267C303.933 63.6917 303.746 64.366 303.746 65.29C303.746 66.1953 303.914 66.8977 304.25 67.397C304.586 67.8963 305.081 68.146 305.734 68.146ZM314.888 69V58.878H316.68L319.732 67.236L322.826 58.878H324.611V69H323.274V60.817L320.341 69H319.13L316.218 60.894V69H314.888ZM329.985 69.14C329.313 69.14 328.721 68.993 328.207 68.699C327.694 68.405 327.293 67.9827 327.003 67.432C326.714 66.8813 326.569 66.221 326.569 65.451C326.569 64.6903 326.7 64.023 326.961 63.449C327.223 62.875 327.601 62.427 328.095 62.105C328.595 61.783 329.194 61.622 329.894 61.622C330.576 61.622 331.152 61.769 331.623 62.063C332.095 62.357 332.452 62.7723 332.694 63.309C332.942 63.841 333.065 64.4733 333.065 65.206V65.682H327.878C327.878 66.1393 327.953 66.5547 328.102 66.928C328.256 67.2967 328.487 67.5907 328.795 67.81C329.103 68.0293 329.493 68.139 329.964 68.139C330.426 68.139 330.823 68.0317 331.154 67.817C331.49 67.6023 331.705 67.292 331.798 66.886H333.016C332.932 67.376 332.736 67.789 332.428 68.125C332.125 68.461 331.759 68.7153 331.329 68.888C330.905 69.056 330.457 69.14 329.985 69.14ZM327.885 64.807H331.819C331.819 64.3917 331.749 64.0183 331.609 63.687C331.469 63.351 331.255 63.0873 330.965 62.896C330.681 62.7 330.321 62.602 329.887 62.602C329.435 62.602 329.059 62.7117 328.76 62.931C328.462 63.1457 328.24 63.4233 328.095 63.764C327.951 64.1 327.881 64.4477 327.885 64.807ZM334.856 69V61.762H336.109V62.812C336.226 62.6113 336.387 62.4223 336.592 62.245C336.802 62.0677 337.054 61.9253 337.348 61.818C337.647 61.7107 337.99 61.657 338.377 61.657C338.834 61.657 339.254 61.748 339.637 61.93C340.024 62.112 340.332 62.3967 340.561 62.784C340.794 63.1667 340.911 63.6613 340.911 64.268V69H339.616V64.394C339.616 63.8293 339.467 63.4117 339.168 63.141C338.874 62.8657 338.491 62.728 338.02 62.728C337.693 62.728 337.388 62.7817 337.103 62.889C336.818 62.9917 336.587 63.1503 336.41 63.365C336.233 63.575 336.144 63.841 336.144 64.163V69H334.856Z" fill="black"/>
<path d="M223 594C223 558.654 251.654 530 287 530C322.346 530 351 558.654 351 594C351 629.346 322.346 658 287 658C251.654 658 223 629.346 223 594Z" fill="#F79767"/>
<path d="M263.856 599V590.068H260.587V588.878H268.245V590.068H265.158V599H263.856ZM271.575 599.14C270.908 599.14 270.325 598.998 269.825 598.713C269.331 598.424 268.946 598.001 268.67 597.446C268.395 596.891 268.257 596.212 268.257 595.409C268.257 594.653 268.386 593.99 268.642 593.421C268.899 592.852 269.275 592.411 269.769 592.098C270.264 591.781 270.868 591.622 271.582 591.622C272.25 591.622 272.828 591.769 273.318 592.063C273.808 592.352 274.189 592.779 274.459 593.344C274.735 593.909 274.872 594.597 274.872 595.409C274.872 596.146 274.746 596.795 274.494 597.355C274.242 597.915 273.871 598.354 273.381 598.671C272.896 598.984 272.294 599.14 271.575 599.14ZM271.582 598.118C272.012 598.118 272.376 598.008 272.674 597.789C272.973 597.57 273.199 597.255 273.353 596.844C273.512 596.433 273.591 595.946 273.591 595.381C273.591 594.863 273.521 594.399 273.381 593.988C273.246 593.573 273.031 593.244 272.737 593.001C272.443 592.758 272.058 592.637 271.582 592.637C271.144 592.637 270.773 592.747 270.469 592.966C270.166 593.181 269.935 593.493 269.776 593.904C269.622 594.315 269.545 594.807 269.545 595.381C269.545 595.89 269.613 596.352 269.748 596.767C269.888 597.182 270.108 597.511 270.406 597.754C270.71 597.997 271.102 598.118 271.582 598.118ZM276.593 601.254V591.762H277.881L277.895 593.022C277.979 592.873 278.087 592.716 278.217 592.553C278.353 592.39 278.516 592.238 278.707 592.098C278.903 591.958 279.13 591.844 279.386 591.755C279.648 591.666 279.944 591.622 280.275 591.622C280.854 591.622 281.363 591.755 281.801 592.021C282.245 592.282 282.59 592.684 282.837 593.225C283.085 593.766 283.208 594.452 283.208 595.283C283.208 596.114 283.087 596.816 282.844 597.39C282.606 597.959 282.261 598.393 281.808 598.692C281.356 598.991 280.81 599.14 280.17 599.14C279.848 599.14 279.561 599.093 279.309 599C279.062 598.911 278.845 598.795 278.658 598.65C278.476 598.501 278.322 598.342 278.196 598.174C278.075 598.006 277.975 597.845 277.895 597.691V601.254H276.593ZM279.925 598.132C280.523 598.132 281.01 597.906 281.388 597.453C281.766 596.996 281.955 596.286 281.955 595.325C281.955 594.499 281.783 593.843 281.437 593.358C281.092 592.873 280.588 592.63 279.925 592.63C279.253 592.63 278.745 592.88 278.399 593.379C278.054 593.874 277.881 594.522 277.881 595.325C277.881 595.843 277.958 596.314 278.112 596.739C278.266 597.164 278.495 597.502 278.798 597.754C279.102 598.006 279.477 598.132 279.925 598.132ZM292.239 599.14C291.352 599.14 290.587 598.937 289.943 598.531C289.299 598.12 288.804 597.53 288.459 596.76C288.113 595.99 287.941 595.059 287.941 593.967C287.941 592.866 288.116 591.925 288.466 591.146C288.82 590.367 289.324 589.772 289.978 589.361C290.631 588.946 291.403 588.738 292.295 588.738C292.803 588.738 293.282 588.827 293.73 589.004C294.178 589.181 294.574 589.424 294.92 589.732C295.265 590.035 295.54 590.383 295.746 590.775C295.956 591.167 296.075 591.575 296.103 592H294.717C294.651 591.627 294.507 591.279 294.283 590.957C294.059 590.635 293.774 590.376 293.429 590.18C293.088 589.984 292.703 589.886 292.274 589.886C291.69 589.886 291.177 590.031 290.734 590.32C290.295 590.605 289.952 591.046 289.705 591.643C289.462 592.24 289.341 593.006 289.341 593.939C289.341 594.658 289.415 595.274 289.565 595.787C289.714 596.3 289.922 596.718 290.188 597.04C290.458 597.357 290.773 597.593 291.133 597.747C291.497 597.896 291.889 597.971 292.309 597.971C292.733 597.971 293.102 597.896 293.415 597.747C293.732 597.598 293.996 597.406 294.206 597.173C294.416 596.935 294.577 596.681 294.689 596.41C294.805 596.135 294.868 595.871 294.878 595.619L294.92 594.723H292.456V593.771L296.264 593.778V599H295.291V597.46C295.113 597.749 294.889 598.022 294.619 598.279C294.348 598.536 294.017 598.743 293.625 598.902C293.237 599.061 292.775 599.14 292.239 599.14ZM301.183 599.14C300.805 599.135 300.448 599.082 300.112 598.979C299.781 598.872 299.487 598.715 299.23 598.51C298.973 598.305 298.77 598.05 298.621 597.747C298.476 597.439 298.404 597.082 298.404 596.676V591.762H299.699V596.543C299.699 597.014 299.844 597.397 300.133 597.691C300.427 597.985 300.868 598.132 301.456 598.132C301.988 598.132 302.415 597.994 302.737 597.719C303.064 597.439 303.227 597.024 303.227 596.473V591.762H304.515V599H303.486L303.353 597.614C303.264 597.978 303.113 598.272 302.898 598.496C302.688 598.72 302.434 598.886 302.135 598.993C301.841 599.096 301.524 599.145 301.183 599.14ZM306.726 599V591.762H307.979V592.812C308.096 592.611 308.257 592.422 308.462 592.245C308.672 592.068 308.924 591.925 309.218 591.818C309.517 591.711 309.86 591.657 310.247 591.657C310.705 591.657 311.125 591.748 311.507 591.93C311.895 592.112 312.203 592.397 312.431 592.784C312.665 593.167 312.781 593.661 312.781 594.268V599H311.486V594.394C311.486 593.829 311.337 593.412 311.038 593.141C310.744 592.866 310.362 592.728 309.89 592.728C309.564 592.728 309.258 592.782 308.973 592.889C308.689 592.992 308.458 593.15 308.28 593.365C308.103 593.575 308.014 593.841 308.014 594.163V599H306.726Z" fill="black"/>
<path d="M587 64C587 28.6538 615.654 0 651 0C686.346 0 715 28.6538 715 64C715 99.3462 686.346 128 651 128C615.654 128 587 99.3462 587 64Z" fill="#FFDF81"/>
<path d="M612.477 69V58.878H613.821V64.114L618.357 58.878H619.904L616.523 62.854L620.198 69H618.735L615.578 63.799L613.821 65.808V69H612.477ZM624.402 69.14C623.73 69.14 623.138 68.993 622.624 68.699C622.111 68.405 621.71 67.9827 621.42 67.432C621.131 66.8813 620.986 66.221 620.986 65.451C620.986 64.6903 621.117 64.023 621.378 63.449C621.64 62.875 622.018 62.427 622.512 62.105C623.012 61.783 623.611 61.622 624.311 61.622C624.993 61.622 625.569 61.769 626.04 62.063C626.512 62.357 626.869 62.7723 627.111 63.309C627.359 63.841 627.482 64.4733 627.482 65.206V65.682H622.295C622.295 66.1393 622.37 66.5547 622.519 66.928C622.673 67.2967 622.904 67.5907 623.212 67.81C623.52 68.0293 623.91 68.139 624.381 68.139C624.843 68.139 625.24 68.0317 625.571 67.817C625.907 67.6023 626.122 67.292 626.215 66.886H627.433C627.349 67.376 627.153 67.789 626.845 68.125C626.542 68.461 626.176 68.7153 625.746 68.888C625.322 69.056 624.874 69.14 624.402 69.14ZM622.302 64.807H626.236C626.236 64.3917 626.166 64.0183 626.026 63.687C625.886 63.351 625.672 63.0873 625.382 62.896C625.098 62.7 624.738 62.602 624.304 62.602C623.852 62.602 623.476 62.7117 623.177 62.931C622.879 63.1457 622.657 63.4233 622.512 63.764C622.368 64.1 622.298 64.4477 622.302 64.807ZM631.012 69L628.394 61.762H629.612L631.537 67.376H631.656L633.588 61.762H634.799L632.195 69H631.012ZM636.24 69V61.762H637.493V69H636.24ZM636.205 60.229V58.885H637.528V60.229H636.205ZM639.746 69V61.762H640.999V62.812C641.115 62.6113 641.276 62.4223 641.482 62.245C641.692 62.0677 641.944 61.9253 642.238 61.818C642.536 61.7107 642.879 61.657 643.267 61.657C643.724 61.657 644.144 61.748 644.527 61.93C644.914 62.112 645.222 62.3967 645.451 62.784C645.684 63.1667 645.801 63.6613 645.801 64.268V69H644.506V64.394C644.506 63.8293 644.356 63.4117 644.058 63.141C643.764 62.8657 643.381 62.728 642.91 62.728C642.583 62.728 642.277 62.7817 641.993 62.889C641.708 62.9917 641.477 63.1503 641.3 63.365C641.122 63.575 641.034 63.841 641.034 64.163V69H639.746ZM651.496 69V58.878H654.751C655.983 58.878 656.914 59.1043 657.544 59.557C658.179 60.0097 658.496 60.663 658.496 61.517C658.496 62.0537 658.356 62.5133 658.076 62.896C657.801 63.2787 657.316 63.5937 656.62 63.841C657.017 63.925 657.351 64.0463 657.621 64.205C657.897 64.3637 658.116 64.5503 658.279 64.765C658.447 64.975 658.566 65.2083 658.636 65.465C658.711 65.7217 658.748 65.9923 658.748 66.277C658.748 67.1917 658.422 67.8753 657.768 68.328C657.12 68.776 656.149 69 654.856 69H651.496ZM652.791 67.922H654.842C655.687 67.922 656.329 67.7843 656.767 67.509C657.211 67.229 657.432 66.7997 657.432 66.221C657.432 65.7963 657.323 65.4533 657.103 65.192C656.889 64.926 656.597 64.7323 656.228 64.611C655.86 64.4897 655.449 64.429 654.996 64.429H652.791V67.922ZM652.791 63.33H654.996C655.262 63.33 655.526 63.3043 655.787 63.253C656.049 63.2017 656.289 63.113 656.508 62.987C656.728 62.861 656.905 62.693 657.04 62.483C657.176 62.2683 657.243 62 657.243 61.678C657.243 61.09 657.017 60.656 656.564 60.376C656.116 60.0913 655.533 59.949 654.814 59.949H652.791V63.33ZM662.653 69.14C662.181 69.14 661.766 69.0583 661.407 68.895C661.052 68.727 660.772 68.4867 660.567 68.174C660.366 67.8613 660.266 67.4833 660.266 67.04C660.266 66.2373 660.546 65.64 661.106 65.248C661.666 64.856 662.564 64.646 663.801 64.618L665.089 64.583V64.016C665.089 63.5727 664.956 63.2227 664.69 62.966C664.424 62.7047 664.013 62.574 663.458 62.574C663.042 62.5787 662.676 62.6767 662.359 62.868C662.041 63.0593 661.838 63.372 661.75 63.806H660.609C660.637 63.3347 660.767 62.938 661.001 62.616C661.239 62.2893 661.572 62.042 662.002 61.874C662.431 61.706 662.937 61.622 663.521 61.622C664.151 61.622 664.673 61.7107 665.089 61.888C665.509 62.0653 665.821 62.3267 666.027 62.672C666.237 63.0173 666.342 63.442 666.342 63.946V69H665.236L665.138 67.642C664.862 68.2067 664.508 68.5987 664.074 68.818C663.644 69.0327 663.171 69.14 662.653 69.14ZM663.038 68.209C663.285 68.209 663.528 68.1647 663.766 68.076C664.008 67.9873 664.228 67.8683 664.424 67.719C664.624 67.565 664.785 67.3947 664.907 67.208C665.028 67.0167 665.089 66.8207 665.089 66.62V65.381L664.018 65.402C663.462 65.4113 663 65.4673 662.632 65.57C662.263 65.6727 661.985 65.8337 661.799 66.053C661.612 66.2723 661.519 66.5593 661.519 66.914C661.519 67.32 661.661 67.6373 661.946 67.866C662.23 68.0947 662.594 68.209 663.038 68.209ZM671.273 69.14C670.62 69.14 670.041 68.9977 669.537 68.713C669.038 68.4283 668.646 68.0083 668.361 67.453C668.081 66.8977 667.941 66.2163 667.941 65.409C667.941 64.653 668.069 63.9927 668.326 63.428C668.587 62.8587 668.965 62.4153 669.46 62.098C669.959 61.7807 670.564 61.622 671.273 61.622C671.791 61.622 672.255 61.7223 672.666 61.923C673.081 62.119 673.422 62.399 673.688 62.763C673.954 63.127 674.117 63.5563 674.178 64.051H673.03C672.988 63.799 672.89 63.568 672.736 63.358C672.587 63.148 672.388 62.98 672.141 62.854C671.898 62.728 671.611 62.665 671.28 62.665C670.659 62.665 670.153 62.889 669.761 63.337C669.374 63.785 669.18 64.471 669.18 65.395C669.18 66.2303 669.357 66.9 669.712 67.404C670.071 67.9033 670.599 68.153 671.294 68.153C671.625 68.153 671.915 68.09 672.162 67.964C672.409 67.8333 672.608 67.663 672.757 67.453C672.906 67.2383 673.002 67.0097 673.044 66.767H674.171C674.11 67.2523 673.945 67.6723 673.674 68.027C673.408 68.3817 673.067 68.657 672.652 68.853C672.241 69.0443 671.782 69.14 671.273 69.14ZM678.833 69.14C678.166 69.14 677.583 68.9977 677.083 68.713C676.589 68.4237 676.204 68.0013 675.928 67.446C675.653 66.8907 675.515 66.2117 675.515 65.409C675.515 64.653 675.644 63.9903 675.9 63.421C676.157 62.8517 676.533 62.4107 677.027 62.098C677.522 61.7807 678.126 61.622 678.84 61.622C679.508 61.622 680.086 61.769 680.576 62.063C681.066 62.3523 681.447 62.7793 681.717 63.344C681.993 63.9087 682.13 64.597 682.13 65.409C682.13 66.1463 682.004 66.795 681.752 67.355C681.5 67.915 681.129 68.3537 680.639 68.671C680.154 68.9837 679.552 69.14 678.833 69.14ZM678.84 68.118C679.27 68.118 679.634 68.0083 679.932 67.789C680.231 67.5697 680.457 67.2547 680.611 66.844C680.77 66.4333 680.849 65.9457 680.849 65.381C680.849 64.863 680.779 64.3987 680.639 63.988C680.504 63.5727 680.289 63.2437 679.995 63.001C679.701 62.7583 679.316 62.637 678.84 62.637C678.402 62.637 678.031 62.7467 677.727 62.966C677.424 63.1807 677.193 63.4933 677.034 63.904C676.88 64.3147 676.803 64.807 676.803 65.381C676.803 65.8897 676.871 66.3517 677.006 66.767C677.146 67.1823 677.366 67.5113 677.664 67.754C677.968 67.9967 678.36 68.118 678.84 68.118ZM683.851 69V61.762H685.104V62.812C685.221 62.6113 685.382 62.4223 685.587 62.245C685.797 62.0677 686.049 61.9253 686.343 61.818C686.642 61.7107 686.985 61.657 687.372 61.657C687.83 61.657 688.25 61.748 688.632 61.93C689.02 62.112 689.328 62.3967 689.556 62.784C689.79 63.1667 689.906 63.6613 689.906 64.268V69H688.611V64.394C688.611 63.8293 688.462 63.4117 688.163 63.141C687.869 62.8657 687.487 62.728 687.015 62.728C686.689 62.728 686.383 62.7817 686.098 62.889C685.814 62.9917 685.583 63.1503 685.405 63.365C685.228 63.575 685.139 63.841 685.139 64.163V69H683.851Z" fill="black"/>
<path d="M0 319C0 283.654 28.6538 255 64 255C99.3462 255 128 283.654 128 319C128 354.346 99.3462 383 64 383C28.6538 383 0 354.346 0 319Z" fill="#FFDF81"/>
<path d="M31.3127 324V315.068H28.0437V313.878H35.7017V315.068H32.6147V324H31.3127ZM39.0325 324.14C38.3651 324.14 37.7818 323.998 37.2825 323.713C36.7878 323.424 36.4028 323.001 36.1275 322.446C35.8521 321.891 35.7145 321.212 35.7145 320.409C35.7145 319.653 35.8428 318.99 36.0995 318.421C36.3561 317.852 36.7318 317.411 37.2265 317.098C37.7211 316.781 38.3255 316.622 39.0395 316.622C39.7068 316.622 40.2855 316.769 40.7755 317.063C41.2655 317.352 41.6458 317.779 41.9165 318.344C42.1918 318.909 42.3295 319.597 42.3295 320.409C42.3295 321.146 42.2035 321.795 41.9515 322.355C41.6995 322.915 41.3285 323.354 40.8385 323.671C40.3531 323.984 39.7511 324.14 39.0325 324.14ZM39.0395 323.118C39.4688 323.118 39.8328 323.008 40.1315 322.789C40.4301 322.57 40.6565 322.255 40.8105 321.844C40.9691 321.433 41.0485 320.946 41.0485 320.381C41.0485 319.863 40.9785 319.399 40.8385 318.988C40.7031 318.573 40.4885 318.244 40.1945 318.001C39.9005 317.758 39.5155 317.637 39.0395 317.637C38.6008 317.637 38.2298 317.747 37.9265 317.966C37.6231 318.181 37.3921 318.493 37.2335 318.904C37.0795 319.315 37.0025 319.807 37.0025 320.381C37.0025 320.89 37.0701 321.352 37.2055 321.767C37.3455 322.182 37.5648 322.511 37.8635 322.754C38.1668 322.997 38.5588 323.118 39.0395 323.118ZM44.0505 324V316.762H45.2965V317.812C45.4972 317.495 45.7725 317.217 46.1225 316.979C46.4725 316.741 46.9275 316.622 47.4875 316.622C47.7488 316.622 48.0148 316.666 48.2855 316.755C48.5608 316.844 48.8128 316.977 49.0415 317.154C49.2702 317.331 49.4475 317.548 49.5735 317.805C49.7975 317.45 50.1008 317.166 50.4835 316.951C50.8662 316.732 51.2978 316.622 51.7785 316.622C52.0305 316.622 52.2942 316.662 52.5695 316.741C52.8448 316.816 53.0992 316.951 53.3325 317.147C53.5705 317.338 53.7642 317.607 53.9135 317.952C54.0628 318.293 54.1375 318.731 54.1375 319.268V324H52.8355V319.394C52.8355 318.955 52.7655 318.617 52.6255 318.379C52.4855 318.136 52.3012 317.966 52.0725 317.868C51.8485 317.77 51.6082 317.721 51.3515 317.721C51.1275 317.721 50.8895 317.765 50.6375 317.854C50.3855 317.943 50.1708 318.092 49.9935 318.302C49.8162 318.512 49.7275 318.799 49.7275 319.163V324H48.4395V319.016C48.4395 318.731 48.3625 318.493 48.2085 318.302C48.0592 318.111 47.8702 317.966 47.6415 317.868C47.4175 317.77 47.1935 317.721 46.9695 317.721C46.7222 317.721 46.4725 317.77 46.2205 317.868C45.9732 317.966 45.7632 318.122 45.5905 318.337C45.4225 318.547 45.3385 318.822 45.3385 319.163V324H44.0505ZM63.5581 324.14C62.6481 324.14 61.8711 323.932 61.2271 323.517C60.5877 323.102 60.0977 322.504 59.7571 321.725C59.4211 320.946 59.2531 320.005 59.2531 318.904C59.2531 317.807 59.4211 316.874 59.7571 316.104C60.0931 315.334 60.5807 314.748 61.2201 314.347C61.8641 313.941 62.6434 313.738 63.5581 313.738C64.2721 313.738 64.9044 313.887 65.4551 314.186C66.0057 314.48 66.4491 314.874 66.7851 315.369C67.1211 315.864 67.3194 316.407 67.3801 317H66.0011C65.9264 316.603 65.7841 316.244 65.5741 315.922C65.3641 315.6 65.0887 315.343 64.7481 315.152C64.4074 314.961 63.9991 314.865 63.5231 314.865C62.9117 314.865 62.3937 315.01 61.9691 315.299C61.5491 315.584 61.2294 316.025 61.0101 316.622C60.7954 317.219 60.6881 317.985 60.6881 318.918C60.6881 320.327 60.9284 321.363 61.4091 322.026C61.8944 322.684 62.5991 323.013 63.5231 323.013C63.9991 323.013 64.4074 322.913 64.7481 322.712C65.0887 322.511 65.3641 322.243 65.5741 321.907C65.7841 321.571 65.9264 321.207 66.0011 320.815H67.3801C67.3287 321.244 67.2121 321.66 67.0301 322.061C66.8527 322.458 66.6077 322.812 66.2951 323.125C65.9824 323.438 65.5974 323.685 65.1401 323.867C64.6874 324.049 64.1601 324.14 63.5581 324.14ZM69.2067 324V316.762H70.4387V318.155C70.5601 317.81 70.7304 317.525 70.9497 317.301C71.1691 317.072 71.4187 316.902 71.6987 316.79C71.9834 316.678 72.2774 316.622 72.5807 316.622C72.6881 316.622 72.7931 316.629 72.8957 316.643C72.9984 316.657 73.0777 316.68 73.1337 316.713V317.966C73.0637 317.933 72.9727 317.912 72.8607 317.903C72.7534 317.889 72.6624 317.882 72.5877 317.882C72.2984 317.863 72.0277 317.882 71.7757 317.938C71.5237 317.989 71.3021 318.08 71.1107 318.211C70.9194 318.342 70.7677 318.514 70.6557 318.729C70.5484 318.939 70.4947 319.196 70.4947 319.499V324H69.2067ZM77.3355 324.14C76.9575 324.135 76.6005 324.082 76.2645 323.979C75.9332 323.872 75.6392 323.715 75.3825 323.51C75.1258 323.305 74.9228 323.05 74.7735 322.747C74.6288 322.439 74.5565 322.082 74.5565 321.676V316.762H75.8515V321.543C75.8515 322.014 75.9962 322.397 76.2855 322.691C76.5795 322.985 77.0205 323.132 77.6085 323.132C78.1405 323.132 78.5675 322.994 78.8895 322.719C79.2162 322.439 79.3795 322.024 79.3795 321.473V316.762H80.6675V324H79.6385L79.5055 322.614C79.4168 322.978 79.2652 323.272 79.0505 323.496C78.8405 323.72 78.5862 323.886 78.2875 323.993C77.9935 324.096 77.6762 324.145 77.3355 324.14ZM82.9136 324V316.762H84.1666V324H82.9136ZM82.8786 315.229V313.885H84.2016V315.229H82.8786ZM88.9416 324.14C88.4376 324.14 87.9686 324.063 87.5346 323.909C87.1053 323.75 86.7483 323.505 86.4636 323.174C86.1789 322.838 86.0016 322.411 85.9316 321.893H87.1076C87.1683 322.178 87.2849 322.416 87.4576 322.607C87.6303 322.794 87.8426 322.936 88.0946 323.034C88.3513 323.127 88.6313 323.174 88.9346 323.174C89.4246 323.174 89.8189 323.083 90.1176 322.901C90.4163 322.719 90.5656 322.439 90.5656 322.061C90.5656 321.795 90.4863 321.583 90.3276 321.424C90.1736 321.261 89.9309 321.142 89.5996 321.067L88.1016 320.696C87.5183 320.556 87.0516 320.337 86.7016 320.038C86.3563 319.739 86.1813 319.322 86.1766 318.785C86.1766 318.36 86.2793 317.987 86.4846 317.665C86.6899 317.343 86.9956 317.089 87.4016 316.902C87.8123 316.715 88.3233 316.622 88.9346 316.622C89.7233 316.622 90.3579 316.799 90.8386 317.154C91.3193 317.504 91.5713 318.02 91.5946 318.701H90.4466C90.3999 318.356 90.2459 318.083 89.9846 317.882C89.7233 317.677 89.3686 317.574 88.9206 317.574C88.4633 317.574 88.0876 317.667 87.7936 317.854C87.5043 318.036 87.3596 318.321 87.3596 318.708C87.3596 318.965 87.4623 319.168 87.6676 319.317C87.8776 319.462 88.1809 319.583 88.5776 319.681L90.0336 320.045C90.3649 320.134 90.6403 320.25 90.8596 320.395C91.0789 320.54 91.2516 320.701 91.3776 320.878C91.5036 321.055 91.5923 321.242 91.6436 321.438C91.6996 321.629 91.7276 321.814 91.7276 321.991C91.7276 322.434 91.6179 322.817 91.3986 323.139C91.1793 323.456 90.8619 323.704 90.4466 323.881C90.0313 324.054 89.5296 324.14 88.9416 324.14ZM96.4786 324.14C95.8066 324.14 95.214 323.993 94.7006 323.699C94.1873 323.405 93.786 322.983 93.4966 322.432C93.2073 321.881 93.0626 321.221 93.0626 320.451C93.0626 319.69 93.1933 319.023 93.4546 318.449C93.716 317.875 94.094 317.427 94.5886 317.105C95.088 316.783 95.6876 316.622 96.3876 316.622C97.069 316.622 97.6453 316.769 98.1166 317.063C98.588 317.357 98.945 317.772 99.1876 318.309C99.435 318.841 99.5586 319.473 99.5586 320.206V320.682H94.3716C94.3716 321.139 94.4463 321.555 94.5956 321.928C94.7496 322.297 94.9806 322.591 95.2886 322.81C95.5966 323.029 95.9863 323.139 96.4576 323.139C96.9196 323.139 97.3163 323.032 97.6476 322.817C97.9836 322.602 98.1983 322.292 98.2916 321.886H99.5096C99.4256 322.376 99.2296 322.789 98.9216 323.125C98.6183 323.461 98.252 323.715 97.8226 323.888C97.398 324.056 96.95 324.14 96.4786 324.14ZM94.3786 319.807H98.3126C98.3126 319.392 98.2426 319.018 98.1026 318.687C97.9626 318.351 97.748 318.087 97.4586 317.896C97.174 317.7 96.8146 317.602 96.3806 317.602C95.928 317.602 95.5523 317.712 95.2536 317.931C94.955 318.146 94.7333 318.423 94.5886 318.764C94.444 319.1 94.374 319.448 94.3786 319.807Z" fill="black"/>
<path d="M587 594C587 558.654 615.654 530 651 530C686.346 530 715 558.654 715 594C715 629.346 686.346 658 651 658C615.654 658 587 629.346 587 594Z" fill="#FFDF81"/>
<path d="M619.88 599V588.878H621.672L624.724 597.236L627.818 588.878H629.603V599H628.266V590.817L625.333 599H624.122L621.21 590.894V599H619.88ZM634.978 599.14C634.306 599.14 633.713 598.993 633.2 598.699C632.686 598.405 632.285 597.983 631.996 597.432C631.706 596.881 631.562 596.221 631.562 595.451C631.562 594.69 631.692 594.023 631.954 593.449C632.215 592.875 632.593 592.427 633.088 592.105C633.587 591.783 634.187 591.622 634.887 591.622C635.568 591.622 636.144 591.769 636.616 592.063C637.087 592.357 637.444 592.772 637.687 593.309C637.934 593.841 638.058 594.473 638.058 595.206V595.682H632.871C632.871 596.139 632.945 596.555 633.095 596.928C633.249 597.297 633.48 597.591 633.788 597.81C634.096 598.029 634.485 598.139 634.957 598.139C635.419 598.139 635.815 598.032 636.147 597.817C636.483 597.602 636.697 597.292 636.791 596.886H638.009C637.925 597.376 637.729 597.789 637.421 598.125C637.117 598.461 636.751 598.715 636.322 598.888C635.897 599.056 635.449 599.14 634.978 599.14ZM632.878 594.807H636.812C636.812 594.392 636.742 594.018 636.602 593.687C636.462 593.351 636.247 593.087 635.958 592.896C635.673 592.7 635.314 592.602 634.88 592.602C634.427 592.602 634.051 592.712 633.753 592.931C633.454 593.146 633.232 593.423 633.088 593.764C632.943 594.1 632.873 594.448 632.878 594.807ZM642.853 601.394C641.719 601.394 640.834 601.228 640.2 600.897C639.565 600.57 639.248 600.101 639.248 599.49C639.248 599.229 639.308 599.007 639.43 598.825C639.551 598.638 639.696 598.484 639.864 598.363C640.032 598.242 640.188 598.146 640.333 598.076C640.477 598.001 640.573 597.948 640.62 597.915C640.536 597.868 640.435 597.81 640.319 597.74C640.202 597.67 640.097 597.577 640.004 597.46C639.915 597.343 639.871 597.192 639.871 597.005C639.871 596.776 639.978 596.566 640.193 596.375C640.407 596.184 640.727 596.041 641.152 595.948C640.727 595.733 640.396 595.449 640.158 595.094C639.92 594.739 639.801 594.354 639.801 593.939C639.801 593.472 639.927 593.066 640.179 592.721C640.431 592.376 640.792 592.112 641.264 591.93C641.735 591.743 642.297 591.65 642.951 591.65C643.422 591.65 643.816 591.706 644.134 591.818C644.456 591.925 644.754 592.079 645.03 592.28C645.104 592.247 645.223 592.198 645.387 592.133C645.55 592.063 645.727 591.988 645.919 591.909C646.115 591.83 646.297 591.755 646.465 591.685C646.637 591.61 646.775 591.554 646.878 591.517L646.871 592.714L645.604 592.952C645.678 593.101 645.737 593.265 645.779 593.442C645.821 593.619 645.842 593.785 645.842 593.939C645.842 594.364 645.73 594.749 645.506 595.094C645.286 595.439 644.953 595.715 644.505 595.92C644.057 596.125 643.497 596.228 642.825 596.228C642.769 596.228 642.696 596.228 642.608 596.228C642.524 596.223 642.451 596.219 642.391 596.214C641.896 596.228 641.555 596.284 641.369 596.382C641.187 596.475 641.096 596.58 641.096 596.697C641.096 596.832 641.201 596.926 641.411 596.977C641.621 597.028 641.975 597.073 642.475 597.11C642.657 597.119 642.881 597.131 643.147 597.145C643.417 597.159 643.718 597.178 644.05 597.201C644.806 597.248 645.389 597.441 645.8 597.782C646.21 598.123 646.416 598.582 646.416 599.161C646.416 599.819 646.122 600.356 645.534 600.771C644.95 601.186 644.057 601.394 642.853 601.394ZM643.084 600.561C643.751 600.561 644.262 600.461 644.617 600.26C644.976 600.059 645.156 599.756 645.156 599.35C645.156 599.061 645.046 598.825 644.827 598.643C644.607 598.456 644.276 598.349 643.833 598.321L641.803 598.188C641.621 598.179 641.432 598.225 641.236 598.328C641.04 598.426 640.874 598.564 640.739 598.741C640.603 598.918 640.536 599.119 640.536 599.343C640.536 599.726 640.743 600.024 641.159 600.239C641.574 600.454 642.216 600.561 643.084 600.561ZM642.867 595.395C643.385 595.395 643.802 595.274 644.12 595.031C644.442 594.788 644.603 594.429 644.603 593.953C644.603 593.463 644.442 593.09 644.12 592.833C643.802 592.576 643.385 592.448 642.867 592.448C642.335 592.448 641.905 592.579 641.579 592.84C641.257 593.097 641.096 593.468 641.096 593.953C641.096 594.41 641.25 594.765 641.558 595.017C641.87 595.269 642.307 595.395 642.867 595.395ZM652.173 599V588.878H656.093C656.821 588.878 657.43 588.99 657.92 589.214C658.41 589.433 658.776 589.751 659.019 590.166C659.262 590.577 659.383 591.069 659.383 591.643C659.383 592.194 659.285 592.651 659.089 593.015C658.898 593.379 658.653 593.673 658.354 593.897C658.055 594.116 657.745 594.287 657.423 594.408L659.411 599H658.039L656.191 594.639H653.468V599H652.173ZM653.468 593.568H655.673C656.434 593.568 657.022 593.414 657.437 593.106C657.852 592.793 658.06 592.331 658.06 591.72C658.06 591.123 657.873 590.677 657.5 590.383C657.131 590.084 656.625 589.935 655.981 589.935H653.468V593.568ZM662.103 601.31C661.678 601.31 661.386 601.28 661.228 601.219C661.069 601.158 660.99 601.128 660.99 601.128V600.288L661.732 600.302C661.998 600.311 662.219 600.293 662.397 600.246C662.574 600.199 662.716 600.136 662.824 600.057C662.931 599.978 663.013 599.889 663.069 599.791C663.129 599.693 663.178 599.6 663.216 599.511L663.468 598.825L660.64 591.762H661.949L664.084 597.348L666.205 591.762H667.472L664.427 599.546C664.235 600.003 664.023 600.36 663.79 600.617C663.561 600.874 663.304 601.053 663.02 601.156C662.74 601.259 662.434 601.31 662.103 601.31ZM670.74 599.14C670.268 599.14 669.853 599.058 669.494 598.895C669.139 598.727 668.859 598.487 668.654 598.174C668.453 597.861 668.353 597.483 668.353 597.04C668.353 596.237 668.633 595.64 669.193 595.248C669.753 594.856 670.651 594.646 671.888 594.618L673.176 594.583V594.016C673.176 593.573 673.043 593.223 672.777 592.966C672.511 592.705 672.1 592.574 671.545 592.574C671.129 592.579 670.763 592.677 670.446 592.868C670.128 593.059 669.925 593.372 669.837 593.806H668.696C668.724 593.335 668.854 592.938 669.088 592.616C669.326 592.289 669.659 592.042 670.089 591.874C670.518 591.706 671.024 591.622 671.608 591.622C672.238 591.622 672.76 591.711 673.176 591.888C673.596 592.065 673.908 592.327 674.114 592.672C674.324 593.017 674.429 593.442 674.429 593.946V599H673.323L673.225 597.642C672.949 598.207 672.595 598.599 672.161 598.818C671.731 599.033 671.258 599.14 670.74 599.14ZM671.125 598.209C671.372 598.209 671.615 598.165 671.853 598.076C672.095 597.987 672.315 597.868 672.511 597.719C672.711 597.565 672.872 597.395 672.994 597.208C673.115 597.017 673.176 596.821 673.176 596.62V595.381L672.105 595.402C671.549 595.411 671.087 595.467 670.719 595.57C670.35 595.673 670.072 595.834 669.886 596.053C669.699 596.272 669.606 596.559 669.606 596.914C669.606 597.32 669.748 597.637 670.033 597.866C670.317 598.095 670.681 598.209 671.125 598.209ZM676.448 599V591.762H677.701V592.812C677.818 592.611 677.979 592.422 678.184 592.245C678.394 592.068 678.646 591.925 678.94 591.818C679.239 591.711 679.582 591.657 679.969 591.657C680.426 591.657 680.846 591.748 681.229 591.93C681.616 592.112 681.924 592.397 682.153 592.784C682.386 593.167 682.503 593.661 682.503 594.268V599H681.208V594.394C681.208 593.829 681.059 593.412 680.76 593.141C680.466 592.866 680.083 592.728 679.612 592.728C679.285 592.728 678.98 592.782 678.695 592.889C678.41 592.992 678.179 593.15 678.002 593.365C677.825 593.575 677.736 593.841 677.736 594.163V599H676.448Z" fill="black"/>
<path d="M353.793 63.2929C353.402 63.6834 353.402 64.3166 353.793 64.7071L360.157 71.0711C360.547 71.4616 361.181 71.4616 361.571 71.0711C361.962 70.6805 361.962 70.0474 361.571 69.6569L355.914 64L361.571 58.3431C361.962 57.9526 361.962 57.3195 361.571 56.9289C361.181 56.5384 360.547 56.5384 360.157 56.9289L353.793 63.2929ZM424.755 65C425.307 65 425.755 64.5523 425.755 64C425.755 63.4477 425.307 63 424.755 63V64V65ZM520.755 63C520.203 63 519.755 63.4477 519.755 64C519.755 64.5523 520.203 65 520.755 65V64V63ZM583.5 65C584.052 65 584.5 64.5523 584.5 64C584.5 63.4477 584.052 63 583.5 63V64V65ZM354.5 64V65H424.755V64V63H354.5V64ZM520.755 64V65H583.5V64V63H520.755V64Z" fill="black" fill-opacity="0.8"/>
<path d="M434.947 68.5568C434.636 68.5568 434.369 68.447 434.146 68.2273C433.922 68.0038 433.81 67.7348 433.81 67.4205C433.81 67.1098 433.922 66.8447 434.146 66.625C434.369 66.4015 434.636 66.2898 434.947 66.2898C435.257 66.2898 435.524 66.4015 435.748 66.625C435.971 66.8447 436.083 67.1098 436.083 67.4205C436.083 67.6288 436.03 67.8201 435.924 67.9943C435.822 68.1648 435.685 68.3011 435.515 68.4034C435.345 68.5057 435.155 68.5568 434.947 68.5568ZM434.947 62.7273C434.636 62.7273 434.369 62.6174 434.146 62.3977C433.922 62.1742 433.81 61.9053 433.81 61.5909C433.81 61.2803 433.922 61.0152 434.146 60.7955C434.369 60.572 434.636 60.4602 434.947 60.4602C435.257 60.4602 435.524 60.572 435.748 60.7955C435.971 61.0152 436.083 61.2803 436.083 61.5909C436.083 61.7992 436.03 61.9905 435.924 62.1648C435.822 62.3352 435.685 62.4716 435.515 62.5739C435.345 62.6761 435.155 62.7273 434.947 62.7273ZM439.302 70H437.438L441.626 58.3636H443.654L447.842 70H445.978L442.688 60.4773H442.598L439.302 70ZM439.615 65.4432H445.66V66.9205H439.615V65.4432ZM458.464 62.1477H456.691C456.623 61.7689 456.496 61.4356 456.311 61.1477C456.125 60.8598 455.898 60.6155 455.629 60.4148C455.36 60.214 455.059 60.0625 454.725 59.9602C454.396 59.858 454.046 59.8068 453.674 59.8068C453.004 59.8068 452.404 59.9754 451.873 60.3125C451.347 60.6496 450.93 61.1439 450.623 61.7955C450.32 62.447 450.169 63.2424 450.169 64.1818C450.169 65.1288 450.32 65.928 450.623 66.5795C450.93 67.2311 451.349 67.7235 451.879 68.0568C452.409 68.3902 453.006 68.5568 453.669 68.5568C454.036 68.5568 454.385 68.5076 454.714 68.4091C455.047 68.3068 455.349 68.1572 455.618 67.9602C455.886 67.7633 456.114 67.5227 456.299 67.2386C456.489 66.9508 456.619 66.6212 456.691 66.25L458.464 66.2557C458.369 66.8277 458.186 67.3542 457.913 67.8352C457.644 68.3125 457.297 68.7254 456.873 69.0739C456.453 69.4186 455.972 69.6856 455.43 69.875C454.888 70.0644 454.297 70.1591 453.657 70.1591C452.65 70.1591 451.752 69.9205 450.964 69.4432C450.176 68.9621 449.555 68.2746 449.1 67.3807C448.65 66.4867 448.424 65.4205 448.424 64.1818C448.424 62.9394 448.652 61.8731 449.106 60.983C449.561 60.089 450.182 59.4034 450.97 58.9261C451.758 58.4451 452.654 58.2045 453.657 58.2045C454.275 58.2045 454.85 58.2936 455.385 58.4716C455.922 58.6458 456.405 58.9034 456.833 59.2443C457.261 59.5814 457.616 59.9943 457.896 60.483C458.176 60.9678 458.366 61.5227 458.464 62.1477ZM459.815 59.875V58.3636H468.821V59.875H465.19V70H463.44V59.875H459.815ZM470.635 70V58.3636H477.93V59.875H472.391V63.4205H477.55V64.9261H472.391V68.4886H477.998V70H470.635ZM483.867 70H480.099V58.3636H483.986C485.126 58.3636 486.105 58.5966 486.923 59.0625C487.742 59.5246 488.368 60.1894 488.804 61.0568C489.243 61.9205 489.463 62.9564 489.463 64.1648C489.463 65.3769 489.242 66.4186 488.798 67.2898C488.359 68.161 487.723 68.8314 486.889 69.3011C486.056 69.767 485.048 70 483.867 70ZM481.855 68.4659H483.77C484.656 68.4659 485.393 68.2992 485.98 67.9659C486.567 67.6288 487.007 67.142 487.298 66.5057C487.59 65.8655 487.736 65.0852 487.736 64.1648C487.736 63.2519 487.59 62.4773 487.298 61.8409C487.01 61.2045 486.581 60.7216 486.009 60.392C485.437 60.0625 484.726 59.8977 483.878 59.8977H481.855V68.4659ZM496.926 70V71.4432H489.534V70H496.926ZM499.769 58.3636V70H498.013V58.3636H499.769ZM511.542 58.3636V70H509.928L504.013 61.4659H503.905V70H502.15V58.3636H503.775L509.695 66.9091H509.803V58.3636H511.542Z" fill="black" fill-opacity="0.8"/>
<path d="M229.725 130.568C229.688 130.017 229.211 129.6 228.66 129.637L219.68 130.238C219.129 130.275 218.713 130.752 218.749 131.303C218.786 131.854 219.263 132.271 219.814 132.234L227.796 131.699L228.331 139.681C228.367 140.233 228.844 140.649 229.395 140.612C229.946 140.576 230.363 140.099 230.326 139.548L229.725 130.568ZM221.754 138.608L221.001 137.95L221.001 137.95L221.754 138.608ZM221.096 139.361L221.849 140.019L221.849 140.019L221.096 139.361ZM190.054 173.338C189.691 173.754 189.733 174.385 190.149 174.749C190.565 175.113 191.196 175.07 191.56 174.654L190.807 173.996L190.054 173.338ZM157.454 213.654C157.818 213.239 157.775 212.607 157.36 212.243C156.944 211.88 156.312 211.922 155.948 212.338L156.701 212.996L157.454 213.654ZM125.754 248.384L126.507 249.042L126.507 249.042L125.754 248.384ZM125.096 249.137L124.343 248.479L124.343 248.479L125.096 249.137ZM121.52 251.707C121.156 252.123 121.198 252.755 121.614 253.118C122.03 253.482 122.662 253.439 123.025 253.024L122.272 252.365L121.52 251.707ZM228.727 130.635L227.974 129.976L221.001 137.95L221.754 138.608L222.507 139.267L229.48 131.293L228.727 130.635ZM221.754 138.608L221.001 137.95L220.343 138.703L221.096 139.361L221.849 140.019L222.507 139.267L221.754 138.608ZM221.096 139.361L220.343 138.703L190.054 173.338L190.807 173.996L191.56 174.654L221.849 140.019L221.096 139.361ZM156.701 212.996L155.948 212.338L125.001 247.726L125.754 248.384L126.507 249.042L157.454 213.654L156.701 212.996ZM125.754 248.384L125.001 247.726L124.343 248.479L125.096 249.137L125.849 249.795L126.507 249.042L125.754 248.384ZM125.096 249.137L124.343 248.479L121.52 251.707L122.272 252.365L123.025 253.024L125.849 249.795L125.096 249.137Z" fill="black" fill-opacity="0.8"/>
<path d="M135.946 198.053C135.636 198.053 135.369 197.943 135.145 197.723C134.922 197.5 134.81 197.231 134.81 196.917C134.81 196.606 134.922 196.341 135.145 196.121C135.369 195.898 135.636 195.786 135.946 195.786C136.257 195.786 136.524 195.898 136.747 196.121C136.971 196.341 137.083 196.606 137.083 196.917C137.083 197.125 137.03 197.316 136.924 197.49C136.821 197.661 136.685 197.797 136.515 197.9C136.344 198.002 136.155 198.053 135.946 198.053ZM135.946 192.223C135.636 192.223 135.369 192.114 135.145 191.894C134.922 191.67 134.81 191.401 134.81 191.087C134.81 190.776 134.922 190.511 135.145 190.292C135.369 190.068 135.636 189.956 135.946 189.956C136.257 189.956 136.524 190.068 136.747 190.292C136.971 190.511 137.083 190.776 137.083 191.087C137.083 191.295 137.03 191.487 136.924 191.661C136.821 191.831 136.685 191.968 136.515 192.07C136.344 192.172 136.155 192.223 135.946 192.223ZM140.302 199.496H138.438L142.625 187.86H144.654L148.841 199.496H146.978L143.688 189.973H143.597L140.302 199.496ZM140.614 194.939H146.66V196.417H140.614V194.939ZM159.464 191.644H157.691C157.623 191.265 157.496 190.932 157.31 190.644C157.125 190.356 156.897 190.112 156.628 189.911C156.359 189.71 156.058 189.559 155.725 189.456C155.395 189.354 155.045 189.303 154.674 189.303C154.003 189.303 153.403 189.471 152.873 189.809C152.346 190.146 151.93 190.64 151.623 191.292C151.32 191.943 151.168 192.739 151.168 193.678C151.168 194.625 151.32 195.424 151.623 196.076C151.93 196.727 152.348 197.22 152.878 197.553C153.409 197.886 154.005 198.053 154.668 198.053C155.036 198.053 155.384 198.004 155.714 197.905C156.047 197.803 156.348 197.653 156.617 197.456C156.886 197.259 157.113 197.019 157.299 196.735C157.488 196.447 157.619 196.117 157.691 195.746L159.464 195.752C159.369 196.324 159.185 196.85 158.913 197.331C158.644 197.809 158.297 198.221 157.873 198.57C157.452 198.915 156.971 199.182 156.43 199.371C155.888 199.56 155.297 199.655 154.657 199.655C153.649 199.655 152.752 199.417 151.964 198.939C151.176 198.458 150.555 197.771 150.1 196.877C149.649 195.983 149.424 194.917 149.424 193.678C149.424 192.435 149.651 191.369 150.106 190.479C150.56 189.585 151.181 188.9 151.969 188.422C152.757 187.941 153.653 187.701 154.657 187.701C155.274 187.701 155.85 187.79 156.384 187.968C156.922 188.142 157.405 188.4 157.833 188.74C158.261 189.078 158.615 189.49 158.895 189.979C159.176 190.464 159.365 191.019 159.464 191.644ZM160.815 189.371V187.86H169.82V189.371H166.19V199.496H164.44V189.371H160.815ZM171.634 199.496V187.86H178.93V189.371H173.39V192.917H178.549V194.422H173.39V197.985H178.998V199.496H171.634ZM184.866 199.496H181.099V187.86H184.985C186.126 187.86 187.105 188.093 187.923 188.559C188.741 189.021 189.368 189.685 189.804 190.553C190.243 191.417 190.463 192.453 190.463 193.661C190.463 194.873 190.241 195.915 189.798 196.786C189.358 197.657 188.722 198.328 187.889 198.797C187.055 199.263 186.048 199.496 184.866 199.496ZM182.855 197.962H184.769C185.656 197.962 186.393 197.795 186.98 197.462C187.567 197.125 188.006 196.638 188.298 196.002C188.59 195.362 188.735 194.581 188.735 193.661C188.735 192.748 188.59 191.973 188.298 191.337C188.01 190.701 187.58 190.218 187.008 189.888C186.436 189.559 185.726 189.394 184.877 189.394H182.855V197.962ZM197.926 199.496V200.939H190.534V199.496H197.926ZM200.768 187.86V199.496H199.013V187.86H200.768ZM212.541 187.86V199.496H210.928L205.013 190.962H204.905V199.496H203.149V187.86H204.774L210.695 196.405H210.803V187.86H212.541Z" fill="black" fill-opacity="0.8"/>
<path d="M232.794 528.276C233.343 528.334 233.835 527.935 233.892 527.386L234.827 518.434C234.884 517.885 234.485 517.393 233.936 517.336C233.387 517.278 232.895 517.677 232.838 518.227L232.007 526.183L224.05 525.352C223.501 525.295 223.009 525.694 222.952 526.243C222.894 526.792 223.293 527.284 223.842 527.342L232.794 528.276ZM222.248 514.149L223.024 513.519L223.024 513.519L222.248 514.149ZM221.618 513.372L220.841 514.002L220.841 514.002L221.618 513.372ZM190.207 473.049C189.859 472.62 189.23 472.554 188.801 472.902C188.372 473.25 188.306 473.88 188.654 474.309L189.431 473.679L190.207 473.049ZM157.028 435.309C157.376 435.738 158.006 435.804 158.435 435.456C158.864 435.108 158.93 434.478 158.582 434.049L157.805 434.679L157.028 435.309ZM126.248 395.763L127.024 395.133L127.024 395.133L126.248 395.763ZM125.618 394.986L124.841 395.616L124.841 395.616L125.618 394.986ZM118.88 385.089C118.532 384.66 117.902 384.594 117.473 384.942C117.044 385.29 116.978 385.92 117.326 386.349L118.103 385.719L118.88 385.089ZM232.897 527.282L233.674 526.652L223.024 513.519L222.248 514.149L221.471 514.778L232.121 527.912L232.897 527.282ZM222.248 514.149L223.024 513.519L222.395 512.742L221.618 513.372L220.841 514.002L221.471 514.778L222.248 514.149ZM221.618 513.372L222.395 512.742L190.207 473.049L189.431 473.679L188.654 474.309L220.841 514.002L221.618 513.372ZM157.805 434.679L158.582 434.049L127.024 395.133L126.248 395.763L125.471 396.393L157.028 435.309L157.805 434.679ZM126.248 395.763L127.024 395.133L126.395 394.356L125.618 394.986L124.841 395.616L125.471 396.393L126.248 395.763ZM125.618 394.986L126.395 394.356L118.88 385.089L118.103 385.719L117.326 386.349L124.841 395.616L125.618 394.986Z" fill="black" fill-opacity="0.8"/>
<path d="M135.81 458.736C135.499 458.736 135.232 458.626 135.008 458.406C134.785 458.182 134.673 457.914 134.673 457.599C134.673 457.289 134.785 457.023 135.008 456.804C135.232 456.58 135.499 456.468 135.81 456.468C136.12 456.468 136.387 456.58 136.611 456.804C136.834 457.023 136.946 457.289 136.946 457.599C136.946 457.807 136.893 457.999 136.787 458.173C136.685 458.343 136.548 458.48 136.378 458.582C136.207 458.684 136.018 458.736 135.81 458.736ZM135.81 452.906C135.499 452.906 135.232 452.796 135.008 452.576C134.785 452.353 134.673 452.084 134.673 451.77C134.673 451.459 134.785 451.194 135.008 450.974C135.232 450.751 135.499 450.639 135.81 450.639C136.12 450.639 136.387 450.751 136.611 450.974C136.834 451.194 136.946 451.459 136.946 451.77C136.946 451.978 136.893 452.169 136.787 452.343C136.685 452.514 136.548 452.65 136.378 452.753C136.207 452.855 136.018 452.906 135.81 452.906ZM140.165 460.179H138.301L142.489 448.542H144.517L148.705 460.179H146.841L143.551 450.656H143.46L140.165 460.179ZM140.477 455.622H146.523V457.099H140.477V455.622ZM159.327 452.326H157.554C157.486 451.948 157.359 451.614 157.174 451.326C156.988 451.039 156.761 450.794 156.492 450.593C156.223 450.393 155.922 450.241 155.588 450.139C155.259 450.037 154.908 449.986 154.537 449.986C153.867 449.986 153.266 450.154 152.736 450.491C152.209 450.828 151.793 451.323 151.486 451.974C151.183 452.626 151.031 453.421 151.031 454.361C151.031 455.307 151.183 456.107 151.486 456.758C151.793 457.41 152.211 457.902 152.742 458.236C153.272 458.569 153.869 458.736 154.531 458.736C154.899 458.736 155.247 458.686 155.577 458.588C155.91 458.486 156.211 458.336 156.48 458.139C156.749 457.942 156.977 457.701 157.162 457.417C157.352 457.129 157.482 456.8 157.554 456.429L159.327 456.434C159.232 457.006 159.049 457.533 158.776 458.014C158.507 458.491 158.16 458.904 157.736 459.253C157.316 459.597 156.834 459.864 156.293 460.054C155.751 460.243 155.16 460.338 154.52 460.338C153.513 460.338 152.615 460.099 151.827 459.622C151.039 459.141 150.418 458.453 149.963 457.559C149.513 456.665 149.287 455.599 149.287 454.361C149.287 453.118 149.514 452.052 149.969 451.162C150.424 450.268 151.045 449.582 151.833 449.105C152.62 448.624 153.516 448.383 154.52 448.383C155.138 448.383 155.713 448.472 156.247 448.65C156.785 448.825 157.268 449.082 157.696 449.423C158.124 449.76 158.478 450.173 158.759 450.662C159.039 451.147 159.228 451.701 159.327 452.326ZM160.678 450.054V448.542H169.684V450.054H166.053V460.179H164.303V450.054H160.678ZM171.498 460.179V448.542H178.793V450.054H173.253V453.599H178.412V455.105H173.253V458.667H178.861V460.179H171.498ZM184.729 460.179H180.962V448.542H184.849C185.989 448.542 186.968 448.775 187.786 449.241C188.604 449.703 189.231 450.368 189.667 451.236C190.106 452.099 190.326 453.135 190.326 454.343C190.326 455.556 190.104 456.597 189.661 457.468C189.222 458.34 188.585 459.01 187.752 459.48C186.919 459.946 185.911 460.179 184.729 460.179ZM182.718 458.645H184.633C185.519 458.645 186.256 458.478 186.843 458.145C187.43 457.807 187.869 457.321 188.161 456.684C188.453 456.044 188.599 455.264 188.599 454.343C188.599 453.431 188.453 452.656 188.161 452.02C187.873 451.383 187.443 450.9 186.871 450.571C186.299 450.241 185.589 450.076 184.741 450.076H182.718V458.645ZM197.789 460.179V461.622H190.397V460.179H197.789ZM200.632 448.542V460.179H198.876V448.542H200.632ZM212.404 448.542V460.179H210.791L204.876 451.645H204.768V460.179H203.012V448.542H204.637L210.558 457.088H210.666V448.542H212.404Z" fill="black" fill-opacity="0.8"/>
<path d="M353.793 593.293C353.402 593.683 353.402 594.317 353.793 594.707L360.157 601.071C360.547 601.462 361.181 601.462 361.571 601.071C361.962 600.681 361.962 600.047 361.571 599.657L355.914 594L361.571 588.343C361.962 587.953 361.962 587.319 361.571 586.929C361.181 586.538 360.547 586.538 360.157 586.929L353.793 593.293ZM424.755 595C425.307 595 425.755 594.552 425.755 594C425.755 593.448 425.307 593 424.755 593V594V595ZM520.755 593C520.203 593 519.755 593.448 519.755 594C519.755 594.552 520.203 595 520.755 595V594V593ZM583.5 595C584.052 595 584.5 594.552 584.5 594C584.5 593.448 584.052 593 583.5 593V594V595ZM354.5 594V595H424.755V594V593H354.5V594ZM520.755 594V595H583.5V594V593H520.755V594Z" fill="black" fill-opacity="0.8"/>
<path d="M434.947 598.557C434.636 598.557 434.369 598.447 434.146 598.227C433.922 598.004 433.81 597.735 433.81 597.42C433.81 597.11 433.922 596.845 434.146 596.625C434.369 596.402 434.636 596.29 434.947 596.29C435.257 596.29 435.524 596.402 435.748 596.625C435.971 596.845 436.083 597.11 436.083 597.42C436.083 597.629 436.03 597.82 435.924 597.994C435.822 598.165 435.685 598.301 435.515 598.403C435.345 598.506 435.155 598.557 434.947 598.557ZM434.947 592.727C434.636 592.727 434.369 592.617 434.146 592.398C433.922 592.174 433.81 591.905 433.81 591.591C433.81 591.28 433.922 591.015 434.146 590.795C434.369 590.572 434.636 590.46 434.947 590.46C435.257 590.46 435.524 590.572 435.748 590.795C435.971 591.015 436.083 591.28 436.083 591.591C436.083 591.799 436.03 591.991 435.924 592.165C435.822 592.335 435.685 592.472 435.515 592.574C435.345 592.676 435.155 592.727 434.947 592.727ZM439.302 600H437.438L441.626 588.364H443.654L447.842 600H445.978L442.688 590.477H442.598L439.302 600ZM439.615 595.443H445.66V596.92H439.615V595.443ZM458.464 592.148H456.691C456.623 591.769 456.496 591.436 456.311 591.148C456.125 590.86 455.898 590.616 455.629 590.415C455.36 590.214 455.059 590.062 454.725 589.96C454.396 589.858 454.046 589.807 453.674 589.807C453.004 589.807 452.404 589.975 451.873 590.312C451.347 590.65 450.93 591.144 450.623 591.795C450.32 592.447 450.169 593.242 450.169 594.182C450.169 595.129 450.32 595.928 450.623 596.58C450.93 597.231 451.349 597.723 451.879 598.057C452.409 598.39 453.006 598.557 453.669 598.557C454.036 598.557 454.385 598.508 454.714 598.409C455.047 598.307 455.349 598.157 455.618 597.96C455.886 597.763 456.114 597.523 456.299 597.239C456.489 596.951 456.619 596.621 456.691 596.25L458.464 596.256C458.369 596.828 458.186 597.354 457.913 597.835C457.644 598.312 457.297 598.725 456.873 599.074C456.453 599.419 455.972 599.686 455.43 599.875C454.888 600.064 454.297 600.159 453.657 600.159C452.65 600.159 451.752 599.92 450.964 599.443C450.176 598.962 449.555 598.275 449.1 597.381C448.65 596.487 448.424 595.42 448.424 594.182C448.424 592.939 448.652 591.873 449.106 590.983C449.561 590.089 450.182 589.403 450.97 588.926C451.758 588.445 452.654 588.205 453.657 588.205C454.275 588.205 454.85 588.294 455.385 588.472C455.922 588.646 456.405 588.903 456.833 589.244C457.261 589.581 457.616 589.994 457.896 590.483C458.176 590.968 458.366 591.523 458.464 592.148ZM459.815 589.875V588.364H468.821V589.875H465.19V600H463.44V589.875H459.815ZM470.635 600V588.364H477.93V589.875H472.391V593.42H477.55V594.926H472.391V598.489H477.998V600H470.635ZM483.867 600H480.099V588.364H483.986C485.126 588.364 486.105 588.597 486.923 589.062C487.742 589.525 488.368 590.189 488.804 591.057C489.243 591.92 489.463 592.956 489.463 594.165C489.463 595.377 489.242 596.419 488.798 597.29C488.359 598.161 487.723 598.831 486.889 599.301C486.056 599.767 485.048 600 483.867 600ZM481.855 598.466H483.77C484.656 598.466 485.393 598.299 485.98 597.966C486.567 597.629 487.007 597.142 487.298 596.506C487.59 595.866 487.736 595.085 487.736 594.165C487.736 593.252 487.59 592.477 487.298 591.841C487.01 591.205 486.581 590.722 486.009 590.392C485.437 590.062 484.726 589.898 483.878 589.898H481.855V598.466ZM496.926 600V601.443H489.534V600H496.926ZM499.769 588.364V600H498.013V588.364H499.769ZM511.542 588.364V600H509.928L504.013 591.466H503.905V600H502.15V588.364H503.775L509.695 596.909H509.803V588.364H511.542Z" fill="black" fill-opacity="0.8"/>
</svg>
