<svg width="390" height="119" viewBox="0 0 390 119" fill="none" xmlns="http://www.w3.org/2000/svg">
<path d="M104.93 52.0186H276.173Z" fill="black"/>
<path d="M104.93 52.0186H276.173" stroke="#A5ABB6"/>
<path d="M276.173 52.0186L275.123 55.5186L285.623 52.0186L275.123 48.5186L276.173 52.0186Z" fill="#A5ABB6"/>
<path d="M226.118 45.0186H154.985C153.881 45.0186 152.985 45.914 152.985 47.0186V57.0186C152.985 58.1231 153.881 59.0186 154.985 59.0186H226.118C227.223 59.0186 228.118 58.1231 228.118 57.0186V47.0186C228.118 45.914 227.223 45.0186 226.118 45.0186Z" fill="white"/>
<path d="M156.747 47.5315V54.8042H155.866V47.5315H156.747ZM164.28 47.5315V54.8042H163.427L159.464 49.094H159.393V54.8042H158.513V47.5315H159.365L163.342 53.2559H163.413V47.5315H164.28ZM170.034 54.8042V55.5854H165.489V54.8042H170.034ZM170.905 54.8042V47.5315H171.786V54.0229H175.166V54.8042H170.905ZM177.287 54.8042H176.364L179.035 47.5315H179.944L182.614 54.8042H181.691L179.517 48.682H179.461L177.287 54.8042ZM177.628 51.9633H181.35V52.7445H177.628V51.9633ZM189.514 47.5315V54.8042H188.662L184.699 49.094H184.628V54.8042H183.747V47.5315H184.599L188.576 53.2559H188.647V47.5315H189.514ZM196.248 49.8042C196.17 49.5651 196.067 49.3508 195.939 49.1614C195.813 48.9697 195.663 48.8063 195.488 48.6714C195.315 48.5364 195.119 48.4335 194.898 48.3624C194.678 48.2914 194.437 48.2559 194.174 48.2559C193.743 48.2559 193.351 48.3672 192.998 48.5897C192.646 48.8122 192.365 49.1401 192.157 49.5734C191.949 50.0066 191.844 50.5381 191.844 51.1678C191.844 51.7976 191.95 52.3291 192.16 52.7623C192.371 53.1955 192.656 53.5234 193.016 53.746C193.376 53.9685 193.781 54.0798 194.231 54.0798C194.647 54.0798 195.014 53.991 195.332 53.8134C195.651 53.6335 195.9 53.3802 196.077 53.0535C196.257 52.7244 196.347 52.3373 196.347 51.8923L196.617 51.9491H194.43V51.1678H197.199V51.9491C197.199 52.548 197.072 53.0689 196.816 53.5116C196.563 53.9543 196.212 54.2976 195.765 54.5414C195.32 54.7829 194.808 54.9036 194.231 54.9036C193.587 54.9036 193.021 54.7521 192.533 54.4491C192.048 54.1461 191.669 53.7152 191.397 53.1565C191.127 52.5978 190.992 51.9349 190.992 51.1678C190.992 50.5926 191.069 50.0753 191.223 49.616C191.379 49.1543 191.599 48.7613 191.883 48.437C192.168 48.1127 192.504 47.8641 192.892 47.6913C193.28 47.5185 193.708 47.432 194.174 47.432C194.557 47.432 194.915 47.49 195.246 47.606C195.58 47.7197 195.877 47.8819 196.138 48.0926C196.4 48.3009 196.619 48.5506 196.795 48.8418C196.97 49.1307 197.091 49.4515 197.157 49.8042H196.248ZM203.481 47.5315H204.361V52.3468C204.361 52.844 204.244 53.2879 204.01 53.6785C203.778 54.0667 203.45 54.3733 203.026 54.5982C202.602 54.8208 202.105 54.932 201.535 54.932C200.964 54.932 200.467 54.8208 200.043 54.5982C199.619 54.3733 199.29 54.0667 199.056 53.6785C198.824 53.2879 198.708 52.844 198.708 52.3468V47.5315H199.589V52.2758C199.589 52.6309 199.667 52.947 199.823 53.2239C199.979 53.4986 200.202 53.7152 200.491 53.8738C200.782 54.0301 201.13 54.1082 201.535 54.1082C201.939 54.1082 202.287 54.0301 202.579 53.8738C202.87 53.7152 203.092 53.4986 203.246 53.2239C203.402 52.947 203.481 52.6309 203.481 52.2758V47.5315ZM206.418 54.8042H205.495L208.165 47.5315H209.074L211.745 54.8042H210.822L208.648 48.682H208.592L206.418 54.8042ZM206.759 51.9633H210.481V52.7445H206.759V51.9633ZM217.508 49.8042C217.429 49.5651 217.326 49.3508 217.199 49.1614C217.073 48.9697 216.923 48.8063 216.748 48.6714C216.575 48.5364 216.378 48.4335 216.158 48.3624C215.938 48.2914 215.696 48.2559 215.434 48.2559C215.003 48.2559 214.611 48.3672 214.258 48.5897C213.906 48.8122 213.625 49.1401 213.417 49.5734C213.208 50.0066 213.104 50.5381 213.104 51.1678C213.104 51.7976 213.209 52.3291 213.42 52.7623C213.631 53.1955 213.916 53.5234 214.276 53.746C214.636 53.9685 215.041 54.0798 215.491 54.0798C215.907 54.0798 216.274 53.991 216.591 53.8134C216.911 53.6335 217.16 53.3802 217.337 53.0535C217.517 52.7244 217.607 52.3373 217.607 51.8923L217.877 51.9491H215.689V51.1678H218.459V51.9491C218.459 52.548 218.331 53.0689 218.076 53.5116C217.822 53.9543 217.472 54.2976 217.025 54.5414C216.58 54.7829 216.068 54.9036 215.491 54.9036C214.847 54.9036 214.281 54.7521 213.793 54.4491C213.308 54.1461 212.929 53.7152 212.657 53.1565C212.387 52.5978 212.252 51.9349 212.252 51.1678C212.252 50.5926 212.329 50.0753 212.483 49.616C212.639 49.1543 212.859 48.7613 213.143 48.437C213.427 48.1127 213.763 47.8641 214.152 47.6913C214.54 47.5185 214.967 47.432 215.434 47.432C215.817 47.432 216.175 47.49 216.506 47.606C216.84 47.7197 217.137 47.8819 217.397 48.0926C217.66 48.3009 217.879 48.5506 218.054 48.8418C218.23 49.1307 218.35 49.4515 218.417 49.8042H217.508ZM219.968 54.8042V47.5315H224.357V48.3127H220.848V50.7701H224.13V51.5514H220.848V54.0229H224.414V54.8042H219.968Z" fill="black"/>
<path d="M52.9302 103.019C81.0967 103.019 103.93 80.1851 103.93 52.0186C103.93 23.852 81.0967 1.01855 52.9302 1.01855C24.7637 1.01855 1.93018 23.852 1.93018 52.0186C1.93018 80.1851 24.7637 103.019 52.9302 103.019Z" fill="#4C8EDA" stroke="#2870C2" stroke-width="2"/>
<path d="M68.9351 43.0186H36.9253C31.9547 43.0186 27.9253 47.048 27.9253 52.0186C27.9253 56.9891 31.9547 61.0186 36.9253 61.0186H68.9351C73.9056 61.0186 77.9351 56.9891 77.9351 52.0186C77.9351 47.048 73.9056 43.0186 68.9351 43.0186Z" fill="white" stroke="black" stroke-width="2"/>
<path d="M37.9821 46.6341H39.2435L42.2094 53.8784H42.3117L45.2776 46.6341H46.5389V55.3613H45.5503V48.7306H45.4651L42.7378 55.3613H41.7832L39.056 48.7306H38.9707V55.3613H37.9821V46.6341ZM51.1806 55.4977C50.5897 55.4977 50.0712 55.3571 49.6252 55.0758C49.182 54.7946 48.8354 54.4011 48.5854 53.8954C48.3383 53.3897 48.2147 52.7988 48.2147 52.1227C48.2147 51.4409 48.3383 50.8457 48.5854 50.3372C48.8354 49.8287 49.182 49.4338 49.6252 49.1525C50.0712 48.8713 50.5897 48.7306 51.1806 48.7306C51.7715 48.7306 52.2886 48.8713 52.7318 49.1525C53.1778 49.4338 53.5244 49.8287 53.7715 50.3372C54.0215 50.8457 54.1465 51.4409 54.1465 52.1227C54.1465 52.7988 54.0215 53.3897 53.7715 53.8954C53.5244 54.4011 53.1778 54.7946 52.7318 55.0758C52.2886 55.3571 51.7715 55.4977 51.1806 55.4977ZM51.1806 54.5943C51.6295 54.5943 51.9988 54.4792 52.2886 54.2491C52.5783 54.019 52.7928 53.7164 52.932 53.3414C53.0712 52.9664 53.1408 52.5602 53.1408 52.1227C53.1408 51.6852 53.0712 51.2775 52.932 50.8997C52.7928 50.5218 52.5783 50.2164 52.2886 49.9835C51.9988 49.7505 51.6295 49.6341 51.1806 49.6341C50.7318 49.6341 50.3624 49.7505 50.0727 49.9835C49.7829 50.2164 49.5684 50.5218 49.4292 50.8997C49.29 51.2775 49.2204 51.6852 49.2204 52.1227C49.2204 52.5602 49.29 52.9664 49.4292 53.3414C49.5684 53.7164 49.7829 54.019 50.0727 54.2491C50.3624 54.4792 50.7318 54.5943 51.1806 54.5943ZM60.7996 48.8159L58.3791 55.3613H57.3564L54.9359 48.8159H56.0269L57.8337 54.0318H57.9019L59.7087 48.8159H60.7996ZM62.127 55.3613V48.8159H63.1327V55.3613H62.127ZM62.6384 47.725C62.4423 47.725 62.2733 47.6582 62.1313 47.5247C61.9921 47.3912 61.9225 47.2306 61.9225 47.0431C61.9225 46.8556 61.9921 46.6951 62.1313 46.5616C62.2733 46.4281 62.4423 46.3613 62.6384 46.3613C62.8344 46.3613 63.002 46.4281 63.1412 46.5616C63.2832 46.6951 63.3543 46.8556 63.3543 47.0431C63.3543 47.2306 63.2832 47.3912 63.1412 47.5247C63.002 47.6582 62.8344 47.725 62.6384 47.725ZM67.719 55.4977C67.0883 55.4977 66.5443 55.3585 66.0869 55.0801C65.6323 54.7988 65.2815 54.4068 65.0343 53.9039C64.79 53.3983 64.6678 52.8102 64.6678 52.1397C64.6678 51.4693 64.79 50.8784 65.0343 50.367C65.2815 49.8528 65.6252 49.4522 66.0656 49.1653C66.5087 48.8755 67.0258 48.7306 67.6167 48.7306C67.9576 48.7306 68.2943 48.7875 68.6266 48.9011C68.959 49.0147 69.2616 49.1994 69.5343 49.4551C69.807 49.7079 70.0244 50.0431 70.1863 50.4608C70.3482 50.8784 70.4292 51.3926 70.4292 52.0034V52.4295H65.3837V51.5602H69.4065C69.4065 51.1909 69.3326 50.8613 69.1849 50.5716C69.04 50.2818 68.8326 50.0531 68.5627 49.8855C68.2957 49.7179 67.9803 49.6341 67.6167 49.6341C67.2161 49.6341 66.8695 49.7335 66.5769 49.9324C66.2872 50.1284 66.0641 50.3841 65.9079 50.6994C65.7516 51.0147 65.6735 51.3528 65.6735 51.7136V52.2931C65.6735 52.7875 65.7587 53.2065 65.9292 53.5502C66.1025 53.8912 66.3426 54.1511 66.6494 54.3301C66.9562 54.5062 67.3127 54.5943 67.719 54.5943C67.9832 54.5943 68.2218 54.5574 68.4349 54.4835C68.6508 54.4068 68.8369 54.2931 68.9931 54.1426C69.1494 53.9892 69.2701 53.7988 69.3553 53.5716L70.3269 53.8443C70.2247 54.1738 70.0528 54.4636 69.8113 54.7136C69.5698 54.9608 69.2715 55.1539 68.9164 55.2931C68.5613 55.4295 68.1622 55.4977 67.719 55.4977Z" fill="black"/>
<path d="M84.3389 106.019H21.5215V118.019H84.3389V106.019Z" fill="white"/>
<path d="M22.6319 109.35V110.06H19.8052V109.35H22.6319ZM20.629 108.043H21.4671V113.242C21.4671 113.478 21.5014 113.656 21.5701 113.774C21.6411 113.89 21.7311 113.968 21.84 114.009C21.9512 114.047 22.0684 114.066 22.1915 114.066C22.2839 114.066 22.3596 114.061 22.4188 114.051C22.478 114.04 22.5253 114.03 22.5609 114.023L22.7313 114.776C22.6745 114.797 22.5952 114.818 22.4934 114.84C22.3916 114.863 22.2626 114.875 22.1063 114.875C21.8696 114.875 21.6376 114.824 21.4103 114.723C21.1854 114.621 20.9984 114.466 20.8492 114.257C20.7024 114.049 20.629 113.786 20.629 113.469V108.043ZM23.8925 114.804V109.35H24.7306V114.804H23.8925ZM24.3187 108.441C24.1553 108.441 24.0145 108.385 23.8961 108.274C23.7801 108.162 23.7221 108.029 23.7221 107.872C23.7221 107.716 23.7801 107.582 23.8961 107.471C24.0145 107.36 24.1553 107.304 24.3187 107.304C24.482 107.304 24.6217 107.36 24.7377 107.471C24.8561 107.582 24.9153 107.716 24.9153 107.872C24.9153 108.029 24.8561 108.162 24.7377 108.274C24.6217 108.385 24.482 108.441 24.3187 108.441ZM28.6377 109.35V110.06H25.811V109.35H28.6377ZM26.6349 108.043H27.473V113.242C27.473 113.478 27.5073 113.656 27.5759 113.774C27.647 113.89 27.7369 113.968 27.8458 114.009C27.9571 114.047 28.0743 114.066 28.1974 114.066C28.2897 114.066 28.3655 114.061 28.4247 114.051C28.4839 114.04 28.5312 114.03 28.5667 114.023L28.7372 114.776C28.6804 114.797 28.601 114.818 28.4992 114.84C28.3974 114.863 28.2684 114.875 28.1122 114.875C27.8754 114.875 27.6434 114.824 27.4161 114.723C27.1912 114.621 27.0042 114.466 26.8551 114.257C26.7083 114.049 26.6349 113.786 26.6349 113.469V108.043ZM30.8536 107.531V114.804H30.0156V107.531H30.8536ZM34.6756 114.918C34.15 114.918 33.6966 114.802 33.3155 114.57C32.9367 114.335 32.6443 114.009 32.4383 113.59C32.2347 113.168 32.1329 112.678 32.1329 112.12C32.1329 111.561 32.2347 111.068 32.4383 110.642C32.6443 110.214 32.9308 109.88 33.2977 109.641C33.667 109.399 34.0979 109.279 34.5903 109.279C34.8744 109.279 35.155 109.326 35.432 109.421C35.7089 109.515 35.9611 109.669 36.1883 109.882C36.4156 110.093 36.5967 110.372 36.7317 110.72C36.8666 111.068 36.9341 111.497 36.9341 112.006V112.361H32.7295V111.637H36.0818C36.0818 111.329 36.0203 111.054 35.8972 110.813C35.7764 110.571 35.6036 110.381 35.3787 110.241C35.1561 110.101 34.8934 110.031 34.5903 110.031C34.2565 110.031 33.9677 110.114 33.7239 110.28C33.4824 110.443 33.2965 110.656 33.1663 110.919C33.0361 111.182 32.971 111.464 32.971 111.764V112.247C32.971 112.659 33.042 113.009 33.1841 113.295C33.3285 113.579 33.5285 113.796 33.7842 113.945C34.0399 114.092 34.337 114.165 34.6756 114.165C34.8957 114.165 35.0946 114.134 35.2722 114.073C35.4521 114.009 35.6071 113.914 35.7373 113.789C35.8676 113.661 35.9682 113.502 36.0392 113.313L36.8489 113.54C36.7636 113.815 36.6204 114.056 36.4192 114.264C36.2179 114.47 35.9694 114.631 35.6734 114.747C35.3775 114.861 35.0449 114.918 34.6756 114.918ZM38.8197 114.861C38.6445 114.861 38.4942 114.798 38.3687 114.673C38.2433 114.547 38.1805 114.397 38.1805 114.222C38.1805 114.047 38.2433 113.896 38.3687 113.771C38.4942 113.645 38.6445 113.583 38.8197 113.583C38.9949 113.583 39.1453 113.645 39.2707 113.771C39.3962 113.896 39.4589 114.047 39.4589 114.222C39.4589 114.338 39.4293 114.444 39.3702 114.541C39.3133 114.638 39.2364 114.717 39.1393 114.776C39.0446 114.833 38.9381 114.861 38.8197 114.861ZM38.8197 110.813C38.6445 110.813 38.4942 110.75 38.3687 110.625C38.2433 110.499 38.1805 110.349 38.1805 110.174C38.1805 109.998 38.2433 109.848 38.3687 109.723C38.4942 109.597 38.6445 109.534 38.8197 109.534C38.9949 109.534 39.1453 109.597 39.2707 109.723C39.3962 109.848 39.4589 109.998 39.4589 110.174C39.4589 110.29 39.4293 110.396 39.3702 110.493C39.3133 110.59 39.2364 110.668 39.1393 110.727C39.0446 110.784 38.9381 110.813 38.8197 110.813ZM44.1873 114.804H43.264L45.9344 107.531H46.8435L49.514 114.804H48.5907L46.4174 108.682H46.3606L44.1873 114.804ZM44.5282 111.963H48.2498V112.745H44.5282V111.963ZM50.5332 116.85V109.35H51.3428V110.216H51.4422C51.5038 110.121 51.589 110.001 51.6979 109.854C51.8092 109.705 51.9678 109.572 52.1738 109.456C52.3821 109.338 52.6638 109.279 53.019 109.279C53.4782 109.279 53.8831 109.393 54.2334 109.623C54.5838 109.853 54.8573 110.178 55.0538 110.6C55.2503 111.021 55.3485 111.518 55.3485 112.091C55.3485 112.669 55.2503 113.169 55.0538 113.593C54.8573 114.015 54.585 114.341 54.237 114.573C53.889 114.803 53.4877 114.918 53.0332 114.918C52.6828 114.918 52.4022 114.86 52.1915 114.744C51.9808 114.625 51.8187 114.492 51.705 114.343C51.5914 114.191 51.5038 114.066 51.4422 113.966H51.3712V116.85H50.5332ZM51.357 112.077C51.357 112.489 51.4174 112.852 51.5381 113.167C51.6589 113.48 51.8352 113.725 52.0672 113.902C52.2993 114.077 52.5833 114.165 52.9195 114.165C53.2699 114.165 53.5623 114.073 53.7967 113.888C54.0334 113.701 54.211 113.45 54.3293 113.135C54.4501 112.818 54.5104 112.465 54.5104 112.077C54.5104 111.693 54.4512 111.348 54.3329 111.04C54.2169 110.73 54.0405 110.485 53.8038 110.305C53.5694 110.123 53.2746 110.031 52.9195 110.031C52.5786 110.031 52.2922 110.118 52.0601 110.291C51.8281 110.461 51.653 110.7 51.5346 111.008C51.4162 111.313 51.357 111.67 51.357 112.077ZM58.8428 114.918C58.3504 114.918 57.9183 114.801 57.5467 114.566C57.1773 114.332 56.8885 114.004 56.6802 113.583C56.4742 113.161 56.3712 112.669 56.3712 112.105C56.3712 111.537 56.4742 111.041 56.6802 110.617C56.8885 110.194 57.1773 109.865 57.5467 109.63C57.9183 109.396 58.3504 109.279 58.8428 109.279C59.3352 109.279 59.7661 109.396 60.1354 109.63C60.5071 109.865 60.7959 110.194 61.0019 110.617C61.2102 111.041 61.3144 111.537 61.3144 112.105C61.3144 112.669 61.2102 113.161 61.0019 113.583C60.7959 114.004 60.5071 114.332 60.1354 114.566C59.7661 114.801 59.3352 114.918 58.8428 114.918ZM58.8428 114.165C59.2169 114.165 59.5246 114.069 59.7661 113.877C60.0076 113.686 60.1863 113.433 60.3023 113.121C60.4183 112.808 60.4763 112.47 60.4763 112.105C60.4763 111.741 60.4183 111.401 60.3023 111.086C60.1863 110.771 60.0076 110.517 59.7661 110.323C59.5246 110.129 59.2169 110.031 58.8428 110.031C58.4688 110.031 58.161 110.129 57.9195 110.323C57.678 110.517 57.4993 110.771 57.3833 111.086C57.2673 111.401 57.2093 111.741 57.2093 112.105C57.2093 112.47 57.2673 112.808 57.3833 113.121C57.4993 113.433 57.678 113.686 57.9195 113.877C58.161 114.069 58.4688 114.165 58.8428 114.165ZM63.4318 107.531V114.804H62.5937V107.531H63.4318ZM65.8048 107.531V114.804H64.9668V107.531H65.8048ZM69.5557 114.918C69.0633 114.918 68.6312 114.801 68.2595 114.566C67.8902 114.332 67.6014 114.004 67.3931 113.583C67.1871 113.161 67.0841 112.669 67.0841 112.105C67.0841 111.537 67.1871 111.041 67.3931 110.617C67.6014 110.194 67.8902 109.865 68.2595 109.63C68.6312 109.396 69.0633 109.279 69.5557 109.279C70.0481 109.279 70.479 109.396 70.8483 109.63C71.22 109.865 71.5088 110.194 71.7148 110.617C71.9231 111.041 72.0273 111.537 72.0273 112.105C72.0273 112.669 71.9231 113.161 71.7148 113.583C71.5088 114.004 71.22 114.332 70.8483 114.566C70.479 114.801 70.0481 114.918 69.5557 114.918ZM69.5557 114.165C69.9298 114.165 70.2375 114.069 70.479 113.877C70.7205 113.686 70.8992 113.433 71.0152 113.121C71.1312 112.808 71.1892 112.47 71.1892 112.105C71.1892 111.741 71.1312 111.401 71.0152 111.086C70.8992 110.771 70.7205 110.517 70.479 110.323C70.2375 110.129 69.9298 110.031 69.5557 110.031C69.1817 110.031 68.8739 110.129 68.6324 110.323C68.3909 110.517 68.2122 110.771 68.0962 111.086C67.9802 111.401 67.9222 111.741 67.9222 112.105C67.9222 112.47 67.9802 112.808 68.0962 113.121C68.2122 113.433 68.3909 113.686 68.6324 113.877C68.8739 114.069 69.1817 114.165 69.5557 114.165ZM78.6617 107.531V114.804H77.781V108.455H77.7384L75.9628 109.634V108.739L77.781 107.531H78.6617ZM83.2107 114.904C82.742 114.904 82.3241 114.823 81.9572 114.662C81.5926 114.501 81.3026 114.277 81.0871 113.991C80.8741 113.702 80.7581 113.367 80.7391 112.986H81.634C81.653 113.22 81.7334 113.423 81.8755 113.593C82.0175 113.761 82.2034 113.892 82.433 113.984C82.6627 114.076 82.9172 114.122 83.1965 114.122C83.509 114.122 83.786 114.068 84.0275 113.959C84.269 113.85 84.4583 113.699 84.5957 113.504C84.733 113.31 84.8016 113.085 84.8016 112.83C84.8016 112.562 84.7353 112.327 84.6028 112.123C84.4702 111.917 84.2761 111.756 84.0204 111.64C83.7647 111.524 83.4522 111.466 83.0829 111.466H82.5005V110.685H83.0829C83.3717 110.685 83.625 110.633 83.8428 110.529C84.063 110.424 84.2346 110.278 84.3577 110.088C84.4832 109.899 84.5459 109.676 84.5459 109.421C84.5459 109.174 84.4915 108.96 84.3826 108.778C84.2737 108.596 84.1198 108.454 83.9209 108.352C83.7244 108.25 83.4924 108.199 83.2249 108.199C82.974 108.199 82.7372 108.245 82.5147 108.338C82.2945 108.428 82.1146 108.559 81.9749 108.732C81.8352 108.902 81.7595 109.108 81.7476 109.35H80.8954C80.9096 108.968 81.0244 108.635 81.2398 108.348C81.4553 108.059 81.737 107.835 82.085 107.674C82.4354 107.513 82.8201 107.432 83.2391 107.432C83.6889 107.432 84.0748 107.523 84.3968 107.705C84.7188 107.885 84.9662 108.123 85.139 108.419C85.3118 108.715 85.3982 109.035 85.3982 109.378C85.3982 109.788 85.2905 110.137 85.0751 110.426C84.862 110.714 84.572 110.915 84.205 111.026V111.083C84.6643 111.158 85.023 111.354 85.281 111.669C85.5391 111.981 85.6681 112.368 85.6681 112.83C85.6681 113.225 85.5604 113.58 85.3449 113.895C85.1319 114.208 84.8407 114.454 84.4714 114.634C84.1021 114.814 83.6818 114.904 83.2107 114.904Z" fill="black"/>
<path d="M337.623 103.019C365.79 103.019 388.623 80.1851 388.623 52.0186C388.623 23.852 365.79 1.01855 337.623 1.01855C309.457 1.01855 286.623 23.852 286.623 52.0186C286.623 80.1851 309.457 103.019 337.623 103.019Z" fill="#AEA1FF" stroke="#7B64FF" stroke-width="2"/>
<path d="M364.319 43.0186H310.928C305.957 43.0186 301.928 47.048 301.928 52.0186C301.928 56.9891 305.957 61.0186 310.928 61.0186H364.319C369.289 61.0186 373.319 56.9891 373.319 52.0186C373.319 47.048 369.289 43.0186 364.319 43.0186Z" fill="white" stroke="black" stroke-width="2"/>
<path d="M311.985 55.3613V46.6341H313.042V54.4238H317.098V55.3613H311.985ZM320.525 55.5147C320.11 55.5147 319.733 55.4366 319.395 55.2804C319.057 55.1213 318.789 54.8926 318.59 54.5943C318.391 54.2931 318.292 53.9295 318.292 53.5034C318.292 53.1284 318.365 52.8244 318.513 52.5914C318.661 52.3556 318.858 52.171 319.106 52.0375C319.353 51.9039 319.625 51.8045 319.924 51.7392C320.225 51.671 320.527 51.617 320.831 51.5772C321.229 51.5261 321.552 51.4877 321.799 51.4622C322.049 51.4338 322.231 51.3869 322.344 51.3216C322.461 51.2562 322.519 51.1426 322.519 50.9806V50.9466C322.519 50.5261 322.404 50.1994 322.174 49.9664C321.946 49.7335 321.601 49.617 321.138 49.617C320.658 49.617 320.282 49.7221 320.009 49.9324C319.736 50.1426 319.544 50.367 319.434 50.6056L318.479 50.2647C318.65 49.867 318.877 49.5574 319.161 49.3358C319.448 49.1113 319.76 48.9551 320.098 48.867C320.439 48.7761 320.775 48.7306 321.104 48.7306C321.314 48.7306 321.556 48.7562 321.829 48.8074C322.104 48.8556 322.37 48.9565 322.625 49.1099C322.884 49.2633 323.098 49.4949 323.269 49.8045C323.439 50.1142 323.525 50.5289 323.525 51.0488V55.3613H322.519V54.475H322.468C322.4 54.617 322.286 54.769 322.127 54.9309C321.968 55.0929 321.756 55.2306 321.492 55.3443C321.228 55.4579 320.905 55.5147 320.525 55.5147ZM320.678 54.6113C321.076 54.6113 321.411 54.5332 321.684 54.377C321.959 54.2207 322.167 54.019 322.306 53.7718C322.448 53.5247 322.519 53.2647 322.519 52.992V52.0716C322.476 52.1227 322.383 52.1696 322.238 52.2122C322.096 52.252 321.931 52.2875 321.743 52.3187C321.559 52.3471 321.378 52.3727 321.202 52.3954C321.029 52.4153 320.888 52.4324 320.78 52.4466C320.519 52.4806 320.275 52.536 320.047 52.6127C319.823 52.6866 319.641 52.7988 319.502 52.9494C319.365 53.0971 319.297 53.2988 319.297 53.5545C319.297 53.9039 319.427 54.1681 319.685 54.3471C319.946 54.5233 320.277 54.6113 320.678 54.6113ZM326.366 51.4238V55.3613H325.36V48.8159H326.332V49.8386H326.417C326.57 49.5062 326.803 49.2392 327.116 49.0375C327.428 48.8329 327.832 48.7306 328.326 48.7306C328.769 48.7306 329.157 48.8216 329.489 49.0034C329.822 49.1824 330.08 49.4551 330.265 49.8216C330.45 50.1852 330.542 50.6454 330.542 51.2022V55.3613H329.536V51.2704C329.536 50.7562 329.403 50.3556 329.136 50.0687C328.869 49.7789 328.502 49.6341 328.036 49.6341C327.715 49.6341 327.428 49.7037 327.175 49.8429C326.925 49.9821 326.728 50.1852 326.583 50.4522C326.438 50.7193 326.366 51.0431 326.366 51.4238ZM335.022 57.9522C334.536 57.9522 334.118 57.8897 333.769 57.7647C333.419 57.6426 333.128 57.4806 332.895 57.2789C332.665 57.0801 332.482 56.867 332.346 56.6397L333.147 56.0772C333.238 56.1966 333.353 56.3329 333.492 56.4863C333.631 56.6426 333.821 56.7775 334.063 56.8912C334.307 57.0076 334.627 57.0659 335.022 57.0659C335.55 57.0659 335.986 56.938 336.33 56.6824C336.674 56.4267 336.846 56.0261 336.846 55.4806V54.1511H336.76C336.687 54.2704 336.581 54.4181 336.445 54.5943C336.312 54.7676 336.118 54.9224 335.865 55.0588C335.615 55.1923 335.277 55.2591 334.851 55.2591C334.323 55.2591 333.848 55.1341 333.428 54.8841C333.01 54.6341 332.679 54.2704 332.435 53.7931C332.194 53.3159 332.073 52.7363 332.073 52.0545C332.073 51.3841 332.191 50.8002 332.427 50.3031C332.662 49.8031 332.99 49.4167 333.411 49.144C333.831 48.8684 334.317 48.7306 334.868 48.7306C335.294 48.7306 335.633 48.8017 335.883 48.9437C336.135 49.0829 336.329 49.242 336.462 49.421C336.598 49.5971 336.704 49.742 336.777 49.8556H336.88V48.8159H337.851V55.5488C337.851 56.1113 337.723 56.5687 337.468 56.921C337.215 57.2761 336.874 57.536 336.445 57.7008C336.019 57.8684 335.544 57.9522 335.022 57.9522ZM334.988 54.3556C335.391 54.3556 335.732 54.2633 336.01 54.0787C336.289 53.894 336.5 53.6284 336.645 53.2818C336.79 52.9352 336.863 52.5204 336.863 52.0375C336.863 51.5659 336.792 51.1497 336.65 50.7889C336.508 50.4281 336.297 50.1454 336.019 49.9409C335.74 49.7363 335.397 49.6341 334.988 49.6341C334.562 49.6341 334.206 49.742 333.922 49.9579C333.641 50.1738 333.429 50.4636 333.287 50.8272C333.148 51.1909 333.079 51.5943 333.079 52.0375C333.079 52.492 333.15 52.894 333.292 53.2434C333.437 53.59 333.65 53.8627 333.931 54.0616C334.215 54.2576 334.567 54.3556 334.988 54.3556ZM343.817 52.6852V48.8159H344.823V55.3613H343.817V54.2534H343.749C343.596 54.5858 343.357 54.8684 343.033 55.1014C342.709 55.3315 342.3 55.4466 341.806 55.4466C341.397 55.4466 341.033 55.3571 340.715 55.1781C340.397 54.9963 340.147 54.7235 339.965 54.3599C339.783 53.9934 339.692 53.5318 339.692 52.975V48.8159H340.698V52.9068C340.698 53.3841 340.831 53.7647 341.098 54.0488C341.368 54.3329 341.712 54.475 342.13 54.475C342.38 54.475 342.634 54.411 342.892 54.2832C343.154 54.1554 343.373 53.9593 343.549 53.6951C343.728 53.4309 343.817 53.0943 343.817 52.6852ZM348.591 55.5147C348.176 55.5147 347.8 55.4366 347.462 55.2804C347.124 55.1213 346.855 54.8926 346.656 54.5943C346.457 54.2931 346.358 53.9295 346.358 53.5034C346.358 53.1284 346.432 52.8244 346.58 52.5914C346.727 52.3556 346.925 52.171 347.172 52.0375C347.419 51.9039 347.692 51.8045 347.99 51.7392C348.291 51.671 348.594 51.617 348.898 51.5772C349.296 51.5261 349.618 51.4877 349.865 51.4622C350.115 51.4338 350.297 51.3869 350.411 51.3216C350.527 51.2562 350.585 51.1426 350.585 50.9806V50.9466C350.585 50.5261 350.47 50.1994 350.24 49.9664C350.013 49.7335 349.668 49.617 349.205 49.617C348.724 49.617 348.348 49.7221 348.075 49.9324C347.803 50.1426 347.611 50.367 347.5 50.6056L346.546 50.2647C346.716 49.867 346.943 49.5574 347.227 49.3358C347.514 49.1113 347.827 48.9551 348.165 48.867C348.506 48.7761 348.841 48.7306 349.171 48.7306C349.381 48.7306 349.622 48.7562 349.895 48.8074C350.171 48.8556 350.436 48.9565 350.692 49.1099C350.95 49.2633 351.165 49.4949 351.335 49.8045C351.506 50.1142 351.591 50.5289 351.591 51.0488V55.3613H350.585V54.475H350.534C350.466 54.617 350.352 54.769 350.193 54.9309C350.034 55.0929 349.823 55.2306 349.558 55.3443C349.294 55.4579 348.972 55.5147 348.591 55.5147ZM348.744 54.6113C349.142 54.6113 349.477 54.5332 349.75 54.377C350.026 54.2207 350.233 54.019 350.372 53.7718C350.514 53.5247 350.585 53.2647 350.585 52.992V52.0716C350.543 52.1227 350.449 52.1696 350.304 52.2122C350.162 52.252 349.997 52.2875 349.81 52.3187C349.625 52.3471 349.445 52.3727 349.269 52.3954C349.095 52.4153 348.955 52.4324 348.847 52.4466C348.585 52.4806 348.341 52.536 348.114 52.6127C347.889 52.6866 347.707 52.7988 347.568 52.9494C347.432 53.0971 347.364 53.2988 347.364 53.5545C347.364 53.9039 347.493 54.1681 347.751 54.3471C348.013 54.5233 348.344 54.6113 348.744 54.6113ZM356.069 57.9522C355.583 57.9522 355.165 57.8897 354.816 57.7647C354.466 57.6426 354.175 57.4806 353.942 57.2789C353.712 57.0801 353.529 56.867 353.392 56.6397L354.194 56.0772C354.285 56.1966 354.4 56.3329 354.539 56.4863C354.678 56.6426 354.868 56.7775 355.11 56.8912C355.354 57.0076 355.674 57.0659 356.069 57.0659C356.597 57.0659 357.033 56.938 357.377 56.6824C357.721 56.4267 357.892 56.0261 357.892 55.4806V54.1511H357.807C357.733 54.2704 357.628 54.4181 357.492 54.5943C357.358 54.7676 357.165 54.9224 356.912 55.0588C356.662 55.1923 356.324 55.2591 355.898 55.2591C355.37 55.2591 354.895 55.1341 354.475 54.8841C354.057 54.6341 353.726 54.2704 353.482 53.7931C353.24 53.3159 353.12 52.7363 353.12 52.0545C353.12 51.3841 353.238 50.8002 353.473 50.3031C353.709 49.8031 354.037 49.4167 354.458 49.144C354.878 48.8684 355.364 48.7306 355.915 48.7306C356.341 48.7306 356.679 48.8017 356.929 48.9437C357.182 49.0829 357.375 49.242 357.509 49.421C357.645 49.5971 357.75 49.742 357.824 49.8556H357.927V48.8159H358.898V55.5488C358.898 56.1113 358.77 56.5687 358.515 56.921C358.262 57.2761 357.921 57.536 357.492 57.7008C357.066 57.8684 356.591 57.9522 356.069 57.9522ZM356.035 54.3556C356.438 54.3556 356.779 54.2633 357.057 54.0787C357.336 53.894 357.547 53.6284 357.692 53.2818C357.837 52.9352 357.91 52.5204 357.91 52.0375C357.91 51.5659 357.838 51.1497 357.696 50.7889C357.554 50.4281 357.344 50.1454 357.066 49.9409C356.787 49.7363 356.444 49.6341 356.035 49.6341C355.608 49.6341 355.253 49.742 354.969 49.9579C354.688 50.1738 354.476 50.4636 354.334 50.8272C354.195 51.1909 354.125 51.5943 354.125 52.0375C354.125 52.492 354.196 52.894 354.338 53.2434C354.483 53.59 354.696 53.8627 354.978 54.0616C355.262 54.2576 355.614 54.3556 356.035 54.3556ZM363.483 55.4977C362.853 55.4977 362.309 55.3585 361.851 55.0801C361.397 54.7988 361.046 54.4068 360.799 53.9039C360.554 53.3983 360.432 52.8102 360.432 52.1397C360.432 51.4693 360.554 50.8784 360.799 50.367C361.046 49.8528 361.39 49.4522 361.83 49.1653C362.273 48.8755 362.79 48.7306 363.381 48.7306C363.722 48.7306 364.059 48.7875 364.391 48.9011C364.723 49.0147 365.026 49.1994 365.299 49.4551C365.571 49.7079 365.789 50.0431 365.951 50.4608C366.113 50.8784 366.194 51.3926 366.194 52.0034V52.4295H361.148V51.5602H365.171C365.171 51.1909 365.097 50.8613 364.949 50.5716C364.804 50.2818 364.597 50.0531 364.327 49.8855C364.06 49.7179 363.745 49.6341 363.381 49.6341C362.981 49.6341 362.634 49.7335 362.341 49.9324C362.052 50.1284 361.829 50.3841 361.672 50.6994C361.516 51.0147 361.438 51.3528 361.438 51.7136V52.2931C361.438 52.7875 361.523 53.2065 361.694 53.5502C361.867 53.8912 362.107 54.1511 362.414 54.3301C362.721 54.5062 363.077 54.5943 363.483 54.5943C363.748 54.5943 363.986 54.5574 364.199 54.4835C364.415 54.4068 364.601 54.2931 364.758 54.1426C364.914 53.9892 365.035 53.7988 365.12 53.5716L366.091 53.8443C365.989 54.1738 365.817 54.4636 365.576 54.7136C365.334 54.9608 365.036 55.1539 364.681 55.2931C364.326 55.4295 363.927 55.4977 363.483 55.4977Z" fill="black"/>
<path d="M372.086 106.019H303.16V118.019H372.086V106.019Z" fill="white"/>
<path d="M306.587 111.523V114.804H305.749V109.35H306.558V110.202H306.629C306.757 109.925 306.951 109.702 307.212 109.534C307.472 109.364 307.808 109.279 308.22 109.279C308.59 109.279 308.913 109.354 309.19 109.506C309.467 109.655 309.682 109.882 309.836 110.188C309.99 110.491 310.067 110.874 310.067 111.338V114.804H309.229V111.395C309.229 110.967 309.118 110.633 308.895 110.394C308.673 110.152 308.367 110.031 307.979 110.031C307.711 110.031 307.472 110.089 307.262 110.205C307.053 110.321 306.889 110.491 306.768 110.713C306.647 110.936 306.587 111.206 306.587 111.523ZM313.203 114.932C312.858 114.932 312.544 114.867 312.262 114.737C311.981 114.604 311.757 114.414 311.591 114.165C311.426 113.914 311.343 113.611 311.343 113.256C311.343 112.943 311.404 112.69 311.527 112.496C311.65 112.299 311.815 112.146 312.021 112.034C312.227 111.923 312.454 111.84 312.703 111.786C312.954 111.729 313.206 111.684 313.459 111.651C313.791 111.608 314.059 111.576 314.265 111.555C314.474 111.531 314.625 111.492 314.72 111.438C314.817 111.383 314.865 111.289 314.865 111.154V111.125C314.865 110.775 314.77 110.503 314.578 110.308C314.388 110.114 314.101 110.017 313.715 110.017C313.315 110.017 313.001 110.105 312.774 110.28C312.546 110.455 312.387 110.642 312.294 110.841L311.499 110.557C311.641 110.226 311.83 109.968 312.067 109.783C312.306 109.596 312.567 109.466 312.848 109.392C313.132 109.317 313.412 109.279 313.686 109.279C313.862 109.279 314.063 109.3 314.29 109.343C314.52 109.383 314.741 109.467 314.954 109.595C315.17 109.723 315.348 109.915 315.49 110.174C315.632 110.432 315.703 110.777 315.703 111.21V114.804H314.865V114.066H314.823C314.766 114.184 314.671 114.311 314.539 114.446C314.406 114.58 314.23 114.695 314.01 114.79C313.789 114.885 313.521 114.932 313.203 114.932ZM313.331 114.179C313.663 114.179 313.942 114.114 314.169 113.984C314.399 113.854 314.572 113.686 314.688 113.48C314.806 113.274 314.865 113.057 314.865 112.83V112.063C314.83 112.105 314.752 112.144 314.631 112.18C314.513 112.213 314.375 112.243 314.219 112.269C314.065 112.292 313.915 112.314 313.768 112.333C313.624 112.349 313.506 112.363 313.417 112.375C313.199 112.404 312.995 112.45 312.806 112.514C312.619 112.575 312.467 112.669 312.351 112.794C312.238 112.917 312.181 113.085 312.181 113.299C312.181 113.59 312.288 113.81 312.504 113.959C312.722 114.106 312.997 114.179 313.331 114.179ZM317.233 114.804V109.35H318.043V110.202H318.114C318.227 109.911 318.411 109.685 318.664 109.524C318.918 109.36 319.222 109.279 319.577 109.279C319.937 109.279 320.236 109.36 320.475 109.524C320.717 109.685 320.905 109.911 321.04 110.202H321.097C321.236 109.92 321.446 109.696 321.725 109.531C322.005 109.363 322.34 109.279 322.73 109.279C323.218 109.279 323.617 109.431 323.927 109.737C324.237 110.04 324.392 110.512 324.392 111.154V114.804H323.554V111.154C323.554 110.751 323.444 110.464 323.224 110.291C323.004 110.118 322.744 110.031 322.446 110.031C322.063 110.031 321.766 110.147 321.555 110.379C321.344 110.609 321.239 110.9 321.239 111.253V114.804H320.387V111.068C320.387 110.758 320.286 110.509 320.085 110.319C319.883 110.127 319.624 110.031 319.307 110.031C319.089 110.031 318.886 110.089 318.696 110.205C318.509 110.321 318.358 110.482 318.242 110.688C318.128 110.892 318.071 111.128 318.071 111.395V114.804H317.233ZM328.211 114.918C327.686 114.918 327.233 114.802 326.851 114.57C326.473 114.335 326.18 114.009 325.974 113.59C325.771 113.168 325.669 112.678 325.669 112.12C325.669 111.561 325.771 111.068 325.974 110.642C326.18 110.214 326.467 109.88 326.834 109.641C327.203 109.399 327.634 109.279 328.126 109.279C328.41 109.279 328.691 109.326 328.968 109.421C329.245 109.515 329.497 109.669 329.724 109.882C329.952 110.093 330.133 110.372 330.268 110.72C330.402 111.068 330.47 111.497 330.47 112.006V112.361H326.265V111.637H329.618C329.618 111.329 329.556 111.054 329.433 110.813C329.312 110.571 329.139 110.381 328.915 110.241C328.692 110.101 328.429 110.031 328.126 110.031C327.792 110.031 327.504 110.114 327.26 110.28C327.018 110.443 326.832 110.656 326.702 110.919C326.572 111.182 326.507 111.464 326.507 111.764V112.247C326.507 112.659 326.578 113.009 326.72 113.295C326.864 113.579 327.064 113.796 327.32 113.945C327.576 114.092 327.873 114.165 328.211 114.165C328.432 114.165 328.63 114.134 328.808 114.073C328.988 114.009 329.143 113.914 329.273 113.789C329.403 113.661 329.504 113.502 329.575 113.313L330.385 113.54C330.3 113.815 330.156 114.056 329.955 114.264C329.754 114.47 329.505 114.631 329.209 114.747C328.913 114.861 328.581 114.918 328.211 114.918ZM332.356 114.861C332.18 114.861 332.03 114.798 331.905 114.673C331.779 114.547 331.716 114.397 331.716 114.222C331.716 114.047 331.779 113.896 331.905 113.771C332.03 113.645 332.18 113.583 332.356 113.583C332.531 113.583 332.681 113.645 332.807 113.771C332.932 113.896 332.995 114.047 332.995 114.222C332.995 114.338 332.965 114.444 332.906 114.541C332.849 114.638 332.772 114.717 332.675 114.776C332.581 114.833 332.474 114.861 332.356 114.861ZM332.356 110.813C332.18 110.813 332.03 110.75 331.905 110.625C331.779 110.499 331.716 110.349 331.716 110.174C331.716 109.998 331.779 109.848 331.905 109.723C332.03 109.597 332.18 109.534 332.356 109.534C332.531 109.534 332.681 109.597 332.807 109.723C332.932 109.848 332.995 109.998 332.995 110.174C332.995 110.29 332.965 110.396 332.906 110.493C332.849 110.59 332.772 110.668 332.675 110.727C332.581 110.784 332.474 110.813 332.356 110.813Z" fill="black"/>
<path d="M337.391 114.804V107.531H341.78V108.313H338.271V110.77H341.553V111.551H338.271V114.023H341.837V114.804H337.391ZM344.092 111.523V114.804H343.254V109.35H344.063V110.202H344.134C344.262 109.925 344.456 109.702 344.717 109.534C344.977 109.364 345.313 109.279 345.725 109.279C346.095 109.279 346.418 109.354 346.695 109.506C346.972 109.655 347.187 109.882 347.341 110.188C347.495 110.491 347.572 110.874 347.572 111.338V114.804H346.734V111.395C346.734 110.967 346.622 110.633 346.4 110.394C346.177 110.152 345.872 110.031 345.484 110.031C345.216 110.031 344.977 110.089 344.766 110.205C344.558 110.321 344.394 110.491 344.273 110.713C344.152 110.936 344.092 111.206 344.092 111.523ZM351.305 116.963C350.9 116.963 350.552 116.911 350.261 116.807C349.97 116.705 349.727 116.57 349.533 116.402C349.341 116.236 349.188 116.059 349.075 115.87L349.742 115.401C349.818 115.5 349.914 115.614 350.03 115.742C350.146 115.872 350.305 115.984 350.506 116.079C350.71 116.176 350.976 116.225 351.305 116.225C351.745 116.225 352.109 116.118 352.395 115.905C352.682 115.692 352.825 115.358 352.825 114.904V113.796H352.754C352.692 113.895 352.605 114.018 352.491 114.165C352.38 114.309 352.219 114.438 352.008 114.552C351.8 114.663 351.518 114.719 351.163 114.719C350.723 114.719 350.327 114.615 349.977 114.406C349.629 114.198 349.353 113.895 349.149 113.497C348.948 113.1 348.848 112.617 348.848 112.049C348.848 111.49 348.946 111.003 349.142 110.589C349.339 110.172 349.612 109.85 349.963 109.623C350.313 109.393 350.718 109.279 351.177 109.279C351.532 109.279 351.814 109.338 352.022 109.456C352.233 109.572 352.394 109.705 352.505 109.854C352.619 110.001 352.706 110.121 352.768 110.216H352.853V109.35H353.663V114.96C353.663 115.429 353.556 115.81 353.343 116.104C353.133 116.4 352.848 116.616 352.491 116.754C352.136 116.893 351.741 116.963 351.305 116.963ZM351.277 113.966C351.613 113.966 351.897 113.889 352.129 113.735C352.361 113.581 352.537 113.36 352.658 113.071C352.779 112.782 352.839 112.437 352.839 112.034C352.839 111.641 352.78 111.294 352.661 110.994C352.543 110.693 352.368 110.458 352.136 110.287C351.904 110.117 351.617 110.031 351.277 110.031C350.921 110.031 350.625 110.121 350.389 110.301C350.154 110.481 349.978 110.723 349.86 111.026C349.744 111.329 349.686 111.665 349.686 112.034C349.686 112.413 349.745 112.748 349.863 113.039C349.984 113.328 350.161 113.555 350.396 113.721C350.633 113.884 350.926 113.966 351.277 113.966ZM356.035 107.531V114.804H355.197V107.531H356.035ZM357.57 114.804V109.35H358.408V114.804H357.57ZM357.996 108.441C357.833 108.441 357.692 108.385 357.574 108.274C357.458 108.162 357.4 108.029 357.4 107.872C357.4 107.716 357.458 107.582 357.574 107.471C357.692 107.36 357.833 107.304 357.996 107.304C358.16 107.304 358.299 107.36 358.415 107.471C358.534 107.582 358.593 107.716 358.593 107.872C358.593 108.029 358.534 108.162 358.415 108.274C358.299 108.385 358.16 108.441 357.996 108.441ZM363.807 110.571L363.054 110.784C363.007 110.659 362.937 110.537 362.844 110.419C362.754 110.298 362.631 110.198 362.475 110.12C362.319 110.042 362.119 110.003 361.875 110.003C361.541 110.003 361.263 110.08 361.04 110.234C360.82 110.385 360.71 110.578 360.71 110.813C360.71 111.021 360.786 111.186 360.937 111.306C361.089 111.427 361.326 111.528 361.648 111.608L362.457 111.807C362.945 111.925 363.308 112.107 363.547 112.35C363.787 112.592 363.906 112.903 363.906 113.284C363.906 113.597 363.816 113.876 363.636 114.122C363.459 114.369 363.21 114.563 362.891 114.705C362.571 114.847 362.199 114.918 361.775 114.918C361.219 114.918 360.759 114.797 360.394 114.556C360.029 114.314 359.799 113.961 359.702 113.497L360.497 113.299C360.573 113.592 360.716 113.812 360.927 113.959C361.14 114.106 361.418 114.179 361.761 114.179C362.152 114.179 362.462 114.096 362.692 113.931C362.924 113.763 363.04 113.561 363.04 113.327C363.04 113.138 362.973 112.979 362.841 112.851C362.708 112.721 362.505 112.624 362.23 112.56L361.321 112.347C360.821 112.228 360.454 112.045 360.22 111.796C359.988 111.545 359.872 111.232 359.872 110.855C359.872 110.548 359.958 110.275 360.131 110.039C360.306 109.802 360.544 109.616 360.845 109.481C361.148 109.346 361.491 109.279 361.875 109.279C362.415 109.279 362.838 109.397 363.146 109.634C363.456 109.87 363.676 110.183 363.807 110.571ZM366.006 111.523V114.804H365.168V107.531H366.006V110.202H366.077C366.205 109.92 366.396 109.696 366.652 109.531C366.91 109.363 367.253 109.279 367.682 109.279C368.054 109.279 368.379 109.353 368.658 109.502C368.938 109.649 369.154 109.875 369.308 110.181C369.465 110.484 369.543 110.87 369.543 111.338V114.804H368.705V111.395C368.705 110.962 368.592 110.627 368.367 110.39C368.145 110.151 367.836 110.031 367.44 110.031C367.166 110.031 366.92 110.089 366.702 110.205C366.486 110.321 366.316 110.491 366.19 110.713C366.067 110.936 366.006 111.206 366.006 111.523Z" fill="black"/>
</svg>
