<svg width="105" height="131" viewBox="0 0 105 131" fill="none" xmlns="http://www.w3.org/2000/svg">
<path d="M52.3326 103.019C80.4991 103.019 103.333 80.1851 103.333 52.0186C103.333 23.852 80.4991 1.01855 52.3326 1.01855C24.1661 1.01855 1.33258 23.852 1.33258 52.0186C1.33258 80.1851 24.1661 103.019 52.3326 103.019Z" fill="#4C8EDA" stroke="#2870C2" stroke-width="2"/>
<path d="M68.3375 43.0186H36.3277C31.3571 43.0186 27.3277 47.048 27.3277 52.0186C27.3277 56.9891 31.3571 61.0186 36.3277 61.0186H68.3375C73.308 61.0186 77.3375 56.9891 77.3375 52.0186C77.3375 47.048 73.308 43.0186 68.3375 43.0186Z" fill="white" stroke="black" stroke-width="2"/>
<path d="M37.3845 46.6341H38.6459L41.6118 53.8784H41.7141L44.68 46.6341H45.9413V55.3613H44.9527V48.7306H44.8675L42.1402 55.3613H41.1857L38.4584 48.7306H38.3732V55.3613H37.3845V46.6341ZM50.583 55.4977C49.9921 55.4977 49.4736 55.3571 49.0276 55.0758C48.5844 54.7946 48.2379 54.4011 47.9879 53.8954C47.7407 53.3897 47.6171 52.7988 47.6171 52.1227C47.6171 51.4409 47.7407 50.8457 47.9879 50.3372C48.2379 49.8287 48.5844 49.4338 49.0276 49.1525C49.4736 48.8713 49.9921 48.7306 50.583 48.7306C51.1739 48.7306 51.691 48.8713 52.1342 49.1525C52.5802 49.4338 52.9268 49.8287 53.1739 50.3372C53.4239 50.8457 53.5489 51.4409 53.5489 52.1227C53.5489 52.7988 53.4239 53.3897 53.1739 53.8954C52.9268 54.4011 52.5802 54.7946 52.1342 55.0758C51.691 55.3571 51.1739 55.4977 50.583 55.4977ZM50.583 54.5943C51.0319 54.5943 51.4012 54.4792 51.691 54.2491C51.9808 54.019 52.1952 53.7164 52.3344 53.3414C52.4736 52.9664 52.5433 52.5602 52.5433 52.1227C52.5433 51.6852 52.4736 51.2775 52.3344 50.8997C52.1952 50.5218 51.9808 50.2164 51.691 49.9835C51.4012 49.7505 51.0319 49.6341 50.583 49.6341C50.1342 49.6341 49.7648 49.7505 49.4751 49.9835C49.1853 50.2164 48.9708 50.5218 48.8316 50.8997C48.6924 51.2775 48.6228 51.6852 48.6228 52.1227C48.6228 52.5602 48.6924 52.9664 48.8316 53.3414C48.9708 53.7164 49.1853 54.019 49.4751 54.2491C49.7648 54.4792 50.1342 54.5943 50.583 54.5943ZM60.202 48.8159L57.7815 55.3613H56.7588L54.3384 48.8159H55.4293L57.2361 54.0318H57.3043L59.1111 48.8159H60.202ZM61.5294 55.3613V48.8159H62.5351V55.3613H61.5294ZM62.0408 47.725C61.8447 47.725 61.6757 47.6582 61.5337 47.5247C61.3945 47.3912 61.3249 47.2306 61.3249 47.0431C61.3249 46.8556 61.3945 46.6951 61.5337 46.5616C61.6757 46.4281 61.8447 46.3613 62.0408 46.3613C62.2368 46.3613 62.4044 46.4281 62.5436 46.5616C62.6857 46.6951 62.7567 46.8556 62.7567 47.0431C62.7567 47.2306 62.6857 47.3912 62.5436 47.5247C62.4044 47.6582 62.2368 47.725 62.0408 47.725ZM67.1214 55.4977C66.4907 55.4977 65.9467 55.3585 65.4893 55.0801C65.0347 54.7988 64.6839 54.4068 64.4367 53.9039C64.1924 53.3983 64.0702 52.8102 64.0702 52.1397C64.0702 51.4693 64.1924 50.8784 64.4367 50.367C64.6839 49.8528 65.0276 49.4522 65.468 49.1653C65.9111 48.8755 66.4282 48.7306 67.0191 48.7306C67.36 48.7306 67.6967 48.7875 68.029 48.9011C68.3614 49.0147 68.664 49.1994 68.9367 49.4551C69.2094 49.7079 69.4268 50.0431 69.5887 50.4608C69.7506 50.8784 69.8316 51.3926 69.8316 52.0034V52.4295H64.7861V51.5602H68.8089C68.8089 51.1909 68.735 50.8613 68.5873 50.5716C68.4424 50.2818 68.235 50.0531 67.9651 49.8855C67.6981 49.7179 67.3827 49.6341 67.0191 49.6341C66.6185 49.6341 66.2719 49.7335 65.9793 49.9324C65.6896 50.1284 65.4665 50.3841 65.3103 50.6994C65.154 51.0147 65.0759 51.3528 65.0759 51.7136V52.2931C65.0759 52.7875 65.1611 53.2065 65.3316 53.5502C65.5049 53.8912 65.745 54.1511 66.0518 54.3301C66.3586 54.5062 66.7151 54.5943 67.1214 54.5943C67.3856 54.5943 67.6242 54.5574 67.8373 54.4835C68.0532 54.4068 68.2393 54.2931 68.3955 54.1426C68.5518 53.9892 68.6725 53.7988 68.7577 53.5716L69.7293 53.8443C69.6271 54.1738 69.4552 54.4636 69.2137 54.7136C68.9722 54.9608 68.6739 55.1539 68.3188 55.2931C67.9637 55.4295 67.5646 55.4977 67.1214 55.4977Z" fill="black"/>
<path d="M94.586 106.019H10.0792V130.019H94.586V106.019Z" fill="white"/>
<path d="M22.0343 109.35V110.06H19.2076V109.35H22.0343ZM20.0314 108.043H20.8695V113.242C20.8695 113.478 20.9038 113.656 20.9725 113.774C21.0435 113.89 21.1335 113.968 21.2424 114.009C21.3537 114.047 21.4708 114.066 21.5939 114.066C21.6863 114.066 21.762 114.061 21.8212 114.051C21.8804 114.04 21.9278 114.03 21.9633 114.023L22.1337 114.776C22.0769 114.797 21.9976 114.818 21.8958 114.84C21.794 114.863 21.665 114.875 21.5087 114.875C21.272 114.875 21.04 114.824 20.8127 114.723C20.5878 114.621 20.4008 114.466 20.2516 114.257C20.1048 114.049 20.0314 113.786 20.0314 113.469V108.043ZM23.2949 114.804V109.35H24.133V114.804H23.2949ZM23.7211 108.441C23.5577 108.441 23.4169 108.385 23.2985 108.274C23.1825 108.162 23.1245 108.029 23.1245 107.872C23.1245 107.716 23.1825 107.582 23.2985 107.471C23.4169 107.36 23.5577 107.304 23.7211 107.304C23.8844 107.304 24.0241 107.36 24.1401 107.471C24.2585 107.582 24.3177 107.716 24.3177 107.872C24.3177 108.029 24.2585 108.162 24.1401 108.274C24.0241 108.385 23.8844 108.441 23.7211 108.441ZM28.0401 109.35V110.06H25.2134V109.35H28.0401ZM26.0373 108.043H26.8754V113.242C26.8754 113.478 26.9097 113.656 26.9784 113.774C27.0494 113.89 27.1393 113.968 27.2482 114.009C27.3595 114.047 27.4767 114.066 27.5998 114.066C27.6921 114.066 27.7679 114.061 27.8271 114.051C27.8863 114.04 27.9336 114.03 27.9691 114.023L28.1396 114.776C28.0828 114.797 28.0034 114.818 27.9017 114.84C27.7999 114.863 27.6708 114.875 27.5146 114.875C27.2778 114.875 27.0458 114.824 26.8186 114.723C26.5936 114.621 26.4066 114.466 26.2575 114.257C26.1107 114.049 26.0373 113.786 26.0373 113.469V108.043ZM30.2561 107.531V114.804H29.418V107.531H30.2561ZM34.078 114.918C33.5524 114.918 33.099 114.802 32.7179 114.57C32.3391 114.335 32.0467 114.009 31.8407 113.59C31.6371 113.168 31.5354 112.678 31.5354 112.12C31.5354 111.561 31.6371 111.068 31.8407 110.642C32.0467 110.214 32.3332 109.88 32.7001 109.641C33.0694 109.399 33.5003 109.279 33.9927 109.279C34.2768 109.279 34.5574 109.326 34.8344 109.421C35.1113 109.515 35.3635 109.669 35.5907 109.882C35.818 110.093 35.9991 110.372 36.1341 110.72C36.269 111.068 36.3365 111.497 36.3365 112.006V112.361H32.1319V111.637H35.4842C35.4842 111.329 35.4227 111.054 35.2996 110.813C35.1788 110.571 35.006 110.381 34.7811 110.241C34.5586 110.101 34.2958 110.031 33.9927 110.031C33.6589 110.031 33.3701 110.114 33.1263 110.28C32.8848 110.443 32.6989 110.656 32.5687 110.919C32.4385 111.182 32.3734 111.464 32.3734 111.764V112.247C32.3734 112.659 32.4444 113.009 32.5865 113.295C32.7309 113.579 32.9309 113.796 33.1866 113.945C33.4423 114.092 33.7394 114.165 34.078 114.165C34.2981 114.165 34.497 114.134 34.6746 114.073C34.8545 114.009 35.0095 113.914 35.1398 113.789C35.27 113.661 35.3706 113.502 35.4416 113.313L36.2513 113.54C36.166 113.815 36.0228 114.056 35.8216 114.264C35.6203 114.47 35.3718 114.631 35.0758 114.747C34.7799 114.861 34.4473 114.918 34.078 114.918ZM38.2221 114.861C38.047 114.861 37.8966 114.798 37.7711 114.673C37.6457 114.547 37.5829 114.397 37.5829 114.222C37.5829 114.047 37.6457 113.896 37.7711 113.771C37.8966 113.645 38.047 113.583 38.2221 113.583C38.3973 113.583 38.5477 113.645 38.6731 113.771C38.7986 113.896 38.8613 114.047 38.8613 114.222C38.8613 114.338 38.8318 114.444 38.7726 114.541C38.7157 114.638 38.6388 114.717 38.5417 114.776C38.447 114.833 38.3405 114.861 38.2221 114.861ZM38.2221 110.813C38.047 110.813 37.8966 110.75 37.7711 110.625C37.6457 110.499 37.5829 110.349 37.5829 110.174C37.5829 109.998 37.6457 109.848 37.7711 109.723C37.8966 109.597 38.047 109.534 38.2221 109.534C38.3973 109.534 38.5477 109.597 38.6731 109.723C38.7986 109.848 38.8613 109.998 38.8613 110.174C38.8613 110.29 38.8318 110.396 38.7726 110.493C38.7157 110.59 38.6388 110.668 38.5417 110.727C38.447 110.784 38.3405 110.813 38.2221 110.813ZM43.5897 114.804H42.6664L45.3368 107.531H46.2459L48.9164 114.804H47.9931L45.8198 108.682H45.763L43.5897 114.804ZM43.9306 111.963H47.6522V112.745H43.9306V111.963ZM49.9356 116.85V109.35H50.7452V110.216H50.8447C50.9062 110.121 50.9914 110.001 51.1003 109.854C51.2116 109.705 51.3702 109.572 51.5762 109.456C51.7845 109.338 52.0662 109.279 52.4214 109.279C52.8806 109.279 53.2855 109.393 53.6358 109.623C53.9862 109.853 54.2597 110.178 54.4562 110.6C54.6527 111.021 54.7509 111.518 54.7509 112.091C54.7509 112.669 54.6527 113.169 54.4562 113.593C54.2597 114.015 53.9874 114.341 53.6394 114.573C53.2914 114.803 52.8901 114.918 52.4356 114.918C52.0852 114.918 51.8046 114.86 51.5939 114.744C51.3832 114.625 51.2211 114.492 51.1074 114.343C50.9938 114.191 50.9062 114.066 50.8447 113.966H50.7736V116.85H49.9356ZM50.7594 112.077C50.7594 112.489 50.8198 112.852 50.9405 113.167C51.0613 113.48 51.2376 113.725 51.4697 113.902C51.7017 114.077 51.9858 114.165 52.3219 114.165C52.6723 114.165 52.9647 114.073 53.1991 113.888C53.4358 113.701 53.6134 113.45 53.7317 113.135C53.8525 112.818 53.9128 112.465 53.9128 112.077C53.9128 111.693 53.8537 111.348 53.7353 111.04C53.6193 110.73 53.4429 110.485 53.2062 110.305C52.9718 110.123 52.677 110.031 52.3219 110.031C51.981 110.031 51.6946 110.118 51.4626 110.291C51.2305 110.461 51.0554 110.7 50.937 111.008C50.8186 111.313 50.7594 111.67 50.7594 112.077ZM58.2452 114.918C57.7528 114.918 57.3207 114.801 56.9491 114.566C56.5797 114.332 56.2909 114.004 56.0826 113.583C55.8766 113.161 55.7736 112.669 55.7736 112.105C55.7736 111.537 55.8766 111.041 56.0826 110.617C56.2909 110.194 56.5797 109.865 56.9491 109.63C57.3207 109.396 57.7528 109.279 58.2452 109.279C58.7376 109.279 59.1685 109.396 59.5378 109.63C59.9095 109.865 60.1983 110.194 60.4043 110.617C60.6126 111.041 60.7168 111.537 60.7168 112.105C60.7168 112.669 60.6126 113.161 60.4043 113.583C60.1983 114.004 59.9095 114.332 59.5378 114.566C59.1685 114.801 58.7376 114.918 58.2452 114.918ZM58.2452 114.165C58.6193 114.165 58.927 114.069 59.1685 113.877C59.41 113.686 59.5887 113.433 59.7047 113.121C59.8207 112.808 59.8787 112.47 59.8787 112.105C59.8787 111.741 59.8207 111.401 59.7047 111.086C59.5887 110.771 59.41 110.517 59.1685 110.323C58.927 110.129 58.6193 110.031 58.2452 110.031C57.8712 110.031 57.5634 110.129 57.3219 110.323C57.0804 110.517 56.9017 110.771 56.7857 111.086C56.6697 111.401 56.6117 111.741 56.6117 112.105C56.6117 112.47 56.6697 112.808 56.7857 113.121C56.9017 113.433 57.0804 113.686 57.3219 113.877C57.5634 114.069 57.8712 114.165 58.2452 114.165ZM62.8342 107.531V114.804H61.9961V107.531H62.8342ZM65.2072 107.531V114.804H64.3692V107.531H65.2072ZM68.9581 114.918C68.4657 114.918 68.0336 114.801 67.6619 114.566C67.2926 114.332 67.0038 114.004 66.7955 113.583C66.5895 113.161 66.4865 112.669 66.4865 112.105C66.4865 111.537 66.5895 111.041 66.7955 110.617C67.0038 110.194 67.2926 109.865 67.6619 109.63C68.0336 109.396 68.4657 109.279 68.9581 109.279C69.4505 109.279 69.8814 109.396 70.2507 109.63C70.6224 109.865 70.9112 110.194 71.1172 110.617C71.3255 111.041 71.4297 111.537 71.4297 112.105C71.4297 112.669 71.3255 113.161 71.1172 113.583C70.9112 114.004 70.6224 114.332 70.2507 114.566C69.8814 114.801 69.4505 114.918 68.9581 114.918ZM68.9581 114.165C69.3322 114.165 69.6399 114.069 69.8814 113.877C70.1229 113.686 70.3016 113.433 70.4176 113.121C70.5336 112.808 70.5916 112.47 70.5916 112.105C70.5916 111.741 70.5336 111.401 70.4176 111.086C70.3016 110.771 70.1229 110.517 69.8814 110.323C69.6399 110.129 69.3322 110.031 68.9581 110.031C68.5841 110.031 68.2763 110.129 68.0348 110.323C67.7933 110.517 67.6146 110.771 67.4986 111.086C67.3826 111.401 67.3246 111.741 67.3246 112.105C67.3246 112.47 67.3826 112.808 67.4986 113.121C67.6146 113.433 67.7933 113.686 68.0348 113.877C68.2763 114.069 68.5841 114.165 68.9581 114.165ZM78.0641 107.531V114.804H77.1834V108.455H77.1408L75.3653 109.634V108.739L77.1834 107.531H78.0641ZM82.6131 114.904C82.1444 114.904 81.7265 114.823 81.3596 114.662C80.995 114.501 80.705 114.277 80.4895 113.991C80.2765 113.702 80.1605 113.367 80.1415 112.986H81.0364C81.0554 113.22 81.1358 113.423 81.2779 113.593C81.4199 113.761 81.6058 113.892 81.8354 113.984C82.0651 114.076 82.3196 114.122 82.5989 114.122C82.9114 114.122 83.1884 114.068 83.4299 113.959C83.6714 113.85 83.8608 113.699 83.9981 113.504C84.1354 113.31 84.204 113.085 84.204 112.83C84.204 112.562 84.1377 112.327 84.0052 112.123C83.8726 111.917 83.6785 111.756 83.4228 111.64C83.1671 111.524 82.8546 111.466 82.4853 111.466H81.9029V110.685H82.4853C82.7741 110.685 83.0274 110.633 83.2452 110.529C83.4654 110.424 83.637 110.278 83.7601 110.088C83.8856 109.899 83.9483 109.676 83.9483 109.421C83.9483 109.174 83.8939 108.96 83.785 108.778C83.6761 108.596 83.5222 108.454 83.3233 108.352C83.1269 108.25 82.8948 108.199 82.6273 108.199C82.3764 108.199 82.1396 108.245 81.9171 108.338C81.6969 108.428 81.517 108.559 81.3773 108.732C81.2376 108.902 81.1619 109.108 81.1501 109.35H80.2978C80.312 108.968 80.4268 108.635 80.6422 108.348C80.8577 108.059 81.1394 107.835 81.4874 107.674C81.8378 107.513 82.2225 107.432 82.6415 107.432C83.0913 107.432 83.4772 107.523 83.7992 107.705C84.1212 107.885 84.3686 108.123 84.5414 108.419C84.7142 108.715 84.8006 109.035 84.8006 109.378C84.8006 109.788 84.6929 110.137 84.4775 110.426C84.2644 110.714 83.9744 110.915 83.6074 111.026V111.083C84.0667 111.158 84.4254 111.354 84.6834 111.669C84.9415 111.981 85.0705 112.368 85.0705 112.83C85.0705 113.225 84.9628 113.58 84.7474 113.895C84.5343 114.208 84.2431 114.454 83.8738 114.634C83.5045 114.814 83.0842 114.904 82.6131 114.904Z" fill="black"/>
<path d="M9.9875 119.531V126.804H9.14943V119.531H9.9875ZM13.1276 126.932C12.7819 126.932 12.4683 126.867 12.1865 126.737C11.9048 126.604 11.6811 126.414 11.5154 126.165C11.3497 125.914 11.2668 125.611 11.2668 125.256C11.2668 124.943 11.3283 124.69 11.4515 124.496C11.5746 124.299 11.7391 124.146 11.9451 124.034C12.151 123.923 12.3783 123.84 12.6269 123.786C12.8778 123.729 13.13 123.684 13.3833 123.651C13.7147 123.608 13.9834 123.576 14.1894 123.555C14.3977 123.531 14.5492 123.492 14.6439 123.438C14.741 123.383 14.7895 123.289 14.7895 123.154V123.125C14.7895 122.775 14.6936 122.503 14.5019 122.308C14.3125 122.114 14.0248 122.017 13.639 122.017C13.2389 122.017 12.9252 122.105 12.6979 122.28C12.4706 122.455 12.3108 122.642 12.2185 122.841L11.423 122.557C11.5651 122.226 11.7545 121.968 11.9912 121.783C12.2303 121.596 12.4908 121.466 12.7725 121.392C13.0566 121.317 13.3359 121.279 13.6105 121.279C13.7857 121.279 13.987 121.3 14.2142 121.343C14.4439 121.383 14.6652 121.467 14.8783 121.595C15.0937 121.723 15.2725 121.915 15.4145 122.174C15.5566 122.432 15.6276 122.777 15.6276 123.21V126.804H14.7895V126.066H14.7469C14.6901 126.184 14.5954 126.311 14.4628 126.446C14.3302 126.58 14.1539 126.695 13.9337 126.79C13.7135 126.885 13.4448 126.932 13.1276 126.932ZM13.2554 126.179C13.5869 126.179 13.8662 126.114 14.0935 125.984C14.3231 125.854 14.496 125.686 14.612 125.48C14.7303 125.274 14.7895 125.057 14.7895 124.83V124.063C14.754 124.105 14.6759 124.144 14.5551 124.18C14.4368 124.213 14.2995 124.243 14.1432 124.269C13.9893 124.292 13.839 124.314 13.6922 124.333C13.5478 124.349 13.4306 124.363 13.3407 124.375C13.1229 124.404 12.9193 124.45 12.7299 124.514C12.5428 124.575 12.3913 124.669 12.2753 124.794C12.1617 124.917 12.1049 125.085 12.1049 125.299C12.1049 125.59 12.2126 125.81 12.428 125.959C12.6458 126.106 12.9216 126.179 13.2554 126.179ZM17.9953 123.523V126.804H17.1572V121.35H17.9669V122.202H18.0379C18.1658 121.925 18.3599 121.702 18.6203 121.534C18.8807 121.364 19.2169 121.279 19.6288 121.279C19.9982 121.279 20.3213 121.354 20.5983 121.506C20.8753 121.655 21.0907 121.882 21.2446 122.188C21.3985 122.491 21.4754 122.874 21.4754 123.338V126.804H20.6374V123.395C20.6374 122.967 20.5261 122.633 20.3036 122.394C20.081 122.152 19.7756 122.031 19.3874 122.031C19.1198 122.031 18.8807 122.089 18.67 122.205C18.4617 122.321 18.2972 122.491 18.1764 122.713C18.0557 122.936 17.9953 123.206 17.9953 123.523ZM25.2086 128.963C24.8037 128.963 24.4557 128.911 24.1645 128.807C23.8733 128.705 23.6307 128.57 23.4365 128.402C23.2448 128.236 23.0921 128.059 22.9784 127.87L23.6461 127.401C23.7218 127.5 23.8177 127.614 23.9337 127.742C24.0497 127.872 24.2083 127.984 24.4096 128.079C24.6132 128.176 24.8795 128.225 25.2086 128.225C25.6489 128.225 26.0123 128.118 26.2988 127.905C26.5852 127.692 26.7284 127.358 26.7284 126.904V125.796H26.6574C26.5959 125.895 26.5083 126.018 26.3946 126.165C26.2834 126.309 26.1224 126.438 25.9117 126.552C25.7033 126.663 25.4216 126.719 25.0665 126.719C24.6262 126.719 24.2308 126.615 23.8804 126.406C23.5324 126.198 23.2566 125.895 23.053 125.497C22.8518 125.1 22.7512 124.617 22.7512 124.049C22.7512 123.49 22.8494 123.003 23.0459 122.589C23.2424 122.172 23.5158 121.85 23.8662 121.623C24.2166 121.393 24.6214 121.279 25.0807 121.279C25.4358 121.279 25.7176 121.338 25.9259 121.456C26.1366 121.572 26.2976 121.705 26.4088 121.854C26.5225 122.001 26.6101 122.121 26.6716 122.216H26.7569V121.35H27.5665V126.96C27.5665 127.429 27.46 127.81 27.2469 128.104C27.0362 128.4 26.7521 128.616 26.3946 128.754C26.0395 128.893 25.6442 128.963 25.2086 128.963ZM25.1801 125.966C25.5163 125.966 25.8004 125.889 26.0324 125.735C26.2644 125.581 26.4408 125.36 26.5615 125.071C26.6823 124.782 26.7426 124.437 26.7426 124.034C26.7426 123.641 26.6835 123.294 26.5651 122.994C26.4467 122.693 26.2715 122.458 26.0395 122.287C25.8075 122.117 25.5211 122.031 25.1801 122.031C24.825 122.031 24.5291 122.121 24.2924 122.301C24.058 122.481 23.8816 122.723 23.7632 123.026C23.6472 123.329 23.5892 123.665 23.5892 124.034C23.5892 124.413 23.6484 124.748 23.7668 125.039C23.8875 125.328 24.0651 125.555 24.2995 125.721C24.5362 125.884 24.8298 125.966 25.1801 125.966ZM32.5381 124.574V121.35H33.3762V126.804H32.5381V125.881H32.4813C32.3534 126.158 32.1546 126.393 31.8847 126.588C31.6148 126.779 31.2739 126.875 30.862 126.875C30.5211 126.875 30.218 126.801 29.9529 126.652C29.6877 126.5 29.4794 126.273 29.3279 125.97C29.1764 125.664 29.1006 125.28 29.1006 124.816V121.35H29.9387V124.759C29.9387 125.156 30.0499 125.474 30.2725 125.71C30.4974 125.947 30.7838 126.066 31.1319 126.066C31.3402 126.066 31.5521 126.012 31.7675 125.906C31.9853 125.799 32.1676 125.636 32.3144 125.416C32.4635 125.196 32.5381 124.915 32.5381 124.574ZM36.5163 126.932C36.1706 126.932 35.8569 126.867 35.5752 126.737C35.2935 126.604 35.0698 126.414 34.904 126.165C34.7383 125.914 34.6555 125.611 34.6555 125.256C34.6555 124.943 34.717 124.69 34.8401 124.496C34.9632 124.299 35.1278 124.146 35.3337 124.034C35.5397 123.923 35.767 123.84 36.0156 123.786C36.2665 123.729 36.5186 123.684 36.7719 123.651C37.1034 123.608 37.3721 123.576 37.5781 123.555C37.7864 123.531 37.9379 123.492 38.0326 123.438C38.1297 123.383 38.1782 123.289 38.1782 123.154V123.125C38.1782 122.775 38.0823 122.503 37.8906 122.308C37.7012 122.114 37.4135 122.017 37.0276 122.017C36.6275 122.017 36.3138 122.105 36.0866 122.28C35.8593 122.455 35.6995 122.642 35.6072 122.841L34.8117 122.557C34.9538 122.226 35.1432 121.968 35.3799 121.783C35.619 121.596 35.8794 121.466 36.1611 121.392C36.4452 121.317 36.7246 121.279 36.9992 121.279C37.1744 121.279 37.3756 121.3 37.6029 121.343C37.8326 121.383 38.0539 121.467 38.267 121.595C38.4824 121.723 38.6611 121.915 38.8032 122.174C38.9452 122.432 39.0163 122.777 39.0163 123.21V126.804H38.1782V126.066H38.1356C38.0788 126.184 37.9841 126.311 37.8515 126.446C37.7189 126.58 37.5425 126.695 37.3224 126.79C37.1022 126.885 36.8335 126.932 36.5163 126.932ZM36.6441 126.179C36.9755 126.179 37.2549 126.114 37.4822 125.984C37.7118 125.854 37.8846 125.686 38.0006 125.48C38.119 125.274 38.1782 125.057 38.1782 124.83V124.063C38.1427 124.105 38.0646 124.144 37.9438 124.18C37.8254 124.213 37.6881 124.243 37.5319 124.269C37.378 124.292 37.2277 124.314 37.0809 124.333C36.9365 124.349 36.8193 124.363 36.7293 124.375C36.5115 124.404 36.3079 124.45 36.1185 124.514C35.9315 124.575 35.78 124.669 35.664 124.794C35.5504 124.917 35.4935 125.085 35.4935 125.299C35.4935 125.59 35.6013 125.81 35.8167 125.959C36.0345 126.106 36.3103 126.179 36.6441 126.179ZM42.7476 128.963C42.3428 128.963 41.9948 128.911 41.7036 128.807C41.4124 128.705 41.1697 128.57 40.9756 128.402C40.7838 128.236 40.6311 128.059 40.5175 127.87L41.1851 127.401C41.2609 127.5 41.3568 127.614 41.4728 127.742C41.5888 127.872 41.7474 127.984 41.9486 128.079C42.1522 128.176 42.4185 128.225 42.7476 128.225C43.188 128.225 43.5514 128.118 43.8378 127.905C44.1243 127.692 44.2675 127.358 44.2675 126.904V125.796H44.1965C44.1349 125.895 44.0473 126.018 43.9337 126.165C43.8224 126.309 43.6614 126.438 43.4507 126.552C43.2424 126.663 42.9607 126.719 42.6056 126.719C42.1652 126.719 41.7699 126.615 41.4195 126.406C41.0715 126.198 40.7957 125.895 40.5921 125.497C40.3908 125.1 40.2902 124.617 40.2902 124.049C40.2902 123.49 40.3885 123.003 40.585 122.589C40.7815 122.172 41.0549 121.85 41.4053 121.623C41.7557 121.393 42.1605 121.279 42.6198 121.279C42.9749 121.279 43.2566 121.338 43.4649 121.456C43.6757 121.572 43.8366 121.705 43.9479 121.854C44.0615 122.001 44.1491 122.121 44.2107 122.216H44.2959V121.35H45.1056V126.96C45.1056 127.429 44.999 127.81 44.786 128.104C44.5753 128.4 44.2912 128.616 43.9337 128.754C43.5786 128.893 43.1832 128.963 42.7476 128.963ZM42.7192 125.966C43.0554 125.966 43.3395 125.889 43.5715 125.735C43.8035 125.581 43.9799 125.36 44.1006 125.071C44.2213 124.782 44.2817 124.437 44.2817 124.034C44.2817 123.641 44.2225 123.294 44.1042 122.994C43.9858 122.693 43.8106 122.458 43.5786 122.287C43.3466 122.117 43.0601 122.031 42.7192 122.031C42.3641 122.031 42.0682 122.121 41.8314 122.301C41.5971 122.481 41.4207 122.723 41.3023 123.026C41.1863 123.329 41.1283 123.665 41.1283 124.034C41.1283 124.413 41.1875 124.748 41.3059 125.039C41.4266 125.328 41.6042 125.555 41.8385 125.721C42.0753 125.884 42.3688 125.966 42.7192 125.966ZM48.9266 126.918C48.401 126.918 47.9477 126.802 47.5665 126.57C47.1877 126.335 46.8953 126.009 46.6894 125.59C46.4858 125.168 46.384 124.678 46.384 124.12C46.384 123.561 46.4858 123.068 46.6894 122.642C46.8953 122.214 47.1818 121.88 47.5488 121.641C47.9181 121.399 48.3489 121.279 48.8414 121.279C49.1255 121.279 49.406 121.326 49.683 121.421C49.96 121.515 50.2121 121.669 50.4394 121.882C50.6667 122.093 50.8478 122.372 50.9827 122.72C51.1176 123.068 51.1851 123.497 51.1851 124.006V124.361H46.9806V123.637H50.3328C50.3328 123.329 50.2713 123.054 50.1482 122.813C50.0274 122.571 49.8546 122.381 49.6297 122.241C49.4072 122.101 49.1444 122.031 48.8414 122.031C48.5076 122.031 48.2187 122.114 47.9749 122.28C47.7334 122.443 47.5476 122.656 47.4174 122.919C47.2872 123.182 47.2221 123.464 47.2221 123.764V124.247C47.2221 124.659 47.2931 125.009 47.4351 125.295C47.5795 125.579 47.7796 125.796 48.0353 125.945C48.2909 126.092 48.5881 126.165 48.9266 126.165C49.1468 126.165 49.3456 126.134 49.5232 126.073C49.7031 126.009 49.8582 125.914 49.9884 125.789C50.1186 125.661 50.2192 125.502 50.2902 125.313L51.0999 125.54C51.0147 125.815 50.8714 126.056 50.6702 126.264C50.469 126.47 50.2204 126.631 49.9245 126.747C49.6285 126.861 49.2959 126.918 48.9266 126.918ZM56.3236 122.571L55.5708 122.784C55.5234 122.659 55.4536 122.537 55.3613 122.419C55.2713 122.298 55.1482 122.198 54.9919 122.12C54.8357 122.042 54.6356 122.003 54.3918 122.003C54.058 122.003 53.7798 122.08 53.5573 122.234C53.3371 122.385 53.227 122.578 53.227 122.813C53.227 123.021 53.3028 123.186 53.4543 123.306C53.6058 123.427 53.8426 123.528 54.1645 123.608L54.9742 123.807C55.4619 123.925 55.8253 124.107 56.0644 124.35C56.3035 124.592 56.423 124.903 56.423 125.284C56.423 125.597 56.3331 125.876 56.1532 126.122C55.9756 126.369 55.727 126.563 55.4074 126.705C55.0878 126.847 54.7161 126.918 54.2924 126.918C53.736 126.918 53.2756 126.797 52.911 126.556C52.5464 126.314 52.3156 125.961 52.2185 125.497L53.014 125.299C53.0897 125.592 53.2329 125.812 53.4436 125.959C53.6567 126.106 53.9349 126.179 54.2782 126.179C54.6688 126.179 54.9789 126.096 55.2086 125.931C55.4406 125.763 55.5566 125.561 55.5566 125.327C55.5566 125.138 55.4903 124.979 55.3577 124.851C55.2251 124.721 55.0215 124.624 54.7469 124.56L53.8378 124.347C53.3383 124.228 52.9713 124.045 52.737 123.796C52.505 123.545 52.389 123.232 52.389 122.855C52.389 122.548 52.4754 122.275 52.6482 122.039C52.8234 121.802 53.0613 121.616 53.362 121.481C53.665 121.346 54.0083 121.279 54.3918 121.279C54.9316 121.279 55.3553 121.397 55.6631 121.634C55.9732 121.87 56.1934 122.183 56.3236 122.571ZM58.2954 126.861C58.1202 126.861 57.9699 126.798 57.8444 126.673C57.7189 126.547 57.6562 126.397 57.6562 126.222C57.6562 126.047 57.7189 125.896 57.8444 125.771C57.9699 125.645 58.1202 125.583 58.2954 125.583C58.4706 125.583 58.6209 125.645 58.7464 125.771C58.8719 125.896 58.9346 126.047 58.9346 126.222C58.9346 126.338 58.905 126.444 58.8458 126.541C58.789 126.638 58.712 126.717 58.615 126.776C58.5203 126.833 58.4138 126.861 58.2954 126.861ZM58.2954 122.813C58.1202 122.813 57.9699 122.75 57.8444 122.625C57.7189 122.499 57.6562 122.349 57.6562 122.174C57.6562 121.998 57.7189 121.848 57.8444 121.723C57.9699 121.597 58.1202 121.534 58.2954 121.534C58.4706 121.534 58.6209 121.597 58.7464 121.723C58.8719 121.848 58.9346 121.998 58.9346 122.174C58.9346 122.29 58.905 122.396 58.8458 122.493C58.789 122.59 58.712 122.668 58.615 122.727C58.5203 122.784 58.4138 122.813 58.2954 122.813ZM63.3646 126.804V119.531H67.7538V120.313H64.2453V122.77H67.5266V123.551H64.2453V126.023H67.8107V126.804H63.3646ZM70.0656 123.523V126.804H69.2276V121.35H70.0372V122.202H70.1082C70.2361 121.925 70.4302 121.702 70.6906 121.534C70.951 121.364 71.2872 121.279 71.6991 121.279C72.0685 121.279 72.3916 121.354 72.6686 121.506C72.9456 121.655 73.161 121.882 73.3149 122.188C73.4688 122.491 73.5457 122.874 73.5457 123.338V126.804H72.7077V123.395C72.7077 122.967 72.5964 122.633 72.3739 122.394C72.1513 122.152 71.8459 122.031 71.4577 122.031C71.1902 122.031 70.951 122.089 70.7403 122.205C70.532 122.321 70.3675 122.491 70.2467 122.713C70.126 122.936 70.0656 123.206 70.0656 123.523ZM77.2789 128.963C76.874 128.963 76.526 128.911 76.2348 128.807C75.9436 128.705 75.701 128.57 75.5069 128.402C75.3151 128.236 75.1624 128.059 75.0488 127.87L75.7164 127.401C75.7921 127.5 75.888 127.614 76.004 127.742C76.12 127.872 76.2786 127.984 76.4799 128.079C76.6835 128.176 76.9498 128.225 77.2789 128.225C77.7192 128.225 78.0826 128.118 78.3691 127.905C78.6555 127.692 78.7988 127.358 78.7988 126.904V125.796H78.7277C78.6662 125.895 78.5786 126.018 78.4649 126.165C78.3537 126.309 78.1927 126.438 77.982 126.552C77.7737 126.663 77.4919 126.719 77.1368 126.719C76.6965 126.719 76.3011 126.615 75.9507 126.406C75.6027 126.198 75.3269 125.895 75.1233 125.497C74.9221 125.1 74.8215 124.617 74.8215 124.049C74.8215 123.49 74.9197 123.003 75.1162 122.589C75.3127 122.172 75.5862 121.85 75.9365 121.623C76.2869 121.393 76.6917 121.279 77.151 121.279C77.5061 121.279 77.7879 121.338 77.9962 121.456C78.2069 121.572 78.3679 121.705 78.4792 121.854C78.5928 122.001 78.6804 122.121 78.7419 122.216H78.8272V121.35H79.6368V126.96C79.6368 127.429 79.5303 127.81 79.3172 128.104C79.1065 128.4 78.8224 128.616 78.4649 128.754C78.1098 128.893 77.7145 128.963 77.2789 128.963ZM77.2505 125.966C77.5866 125.966 77.8707 125.889 78.1027 125.735C78.3347 125.581 78.5111 125.36 78.6319 125.071C78.7526 124.782 78.813 124.437 78.813 124.034C78.813 123.641 78.7538 123.294 78.6354 122.994C78.517 122.693 78.3418 122.458 78.1098 122.287C77.8778 122.117 77.5914 122.031 77.2505 122.031C76.8953 122.031 76.5994 122.121 76.3627 122.301C76.1283 122.481 75.9519 122.723 75.8336 123.026C75.7176 123.329 75.6596 123.665 75.6596 124.034C75.6596 124.413 75.7187 124.748 75.8371 125.039C75.9578 125.328 76.1354 125.555 76.3698 125.721C76.6065 125.884 76.9001 125.966 77.2505 125.966ZM82.009 119.531V126.804H81.1709V119.531H82.009ZM83.544 126.804V121.35H84.382V126.804H83.544ZM83.9701 120.441C83.8067 120.441 83.6659 120.385 83.5475 120.274C83.4315 120.162 83.3735 120.029 83.3735 119.872C83.3735 119.716 83.4315 119.582 83.5475 119.471C83.6659 119.36 83.8067 119.304 83.9701 119.304C84.1335 119.304 84.2731 119.36 84.3891 119.471C84.5075 119.582 84.5667 119.716 84.5667 119.872C84.5667 120.029 84.5075 120.162 84.3891 120.274C84.2731 120.385 84.1335 120.441 83.9701 120.441ZM89.7806 122.571L89.0278 122.784C88.9805 122.659 88.9106 122.537 88.8183 122.419C88.7283 122.298 88.6052 122.198 88.449 122.12C88.2927 122.042 88.0927 122.003 87.8488 122.003C87.515 122.003 87.2368 122.08 87.0143 122.234C86.7941 122.385 86.6841 122.578 86.6841 122.813C86.6841 123.021 86.7598 123.186 86.9113 123.306C87.0628 123.427 87.2996 123.528 87.6216 123.608L88.4312 123.807C88.9189 123.925 89.2823 124.107 89.5214 124.35C89.7605 124.592 89.8801 124.903 89.8801 125.284C89.8801 125.597 89.7901 125.876 89.6102 126.122C89.4326 126.369 89.1841 126.563 88.8645 126.705C88.5448 126.847 88.1732 126.918 87.7494 126.918C87.1931 126.918 86.7326 126.797 86.368 126.556C86.0034 126.314 85.7726 125.961 85.6755 125.497L86.471 125.299C86.5467 125.592 86.69 125.812 86.9007 125.959C87.1137 126.106 87.3919 126.179 87.7352 126.179C88.1258 126.179 88.4359 126.096 88.6656 125.931C88.8976 125.763 89.0136 125.561 89.0136 125.327C89.0136 125.138 88.9473 124.979 88.8147 124.851C88.6822 124.721 88.4786 124.624 88.2039 124.56L87.2948 124.347C86.7953 124.228 86.4284 124.045 86.194 123.796C85.962 123.545 85.846 123.232 85.846 122.855C85.846 122.548 85.9324 122.275 86.1052 122.039C86.2804 121.802 86.5183 121.616 86.819 121.481C87.122 121.346 87.4653 121.279 87.8488 121.279C88.3886 121.279 88.8124 121.397 89.1201 121.634C89.4303 121.87 89.6504 122.183 89.7806 122.571ZM91.9797 123.523V126.804H91.1416V119.531H91.9797V122.202H92.0507C92.1786 121.92 92.3703 121.696 92.626 121.531C92.884 121.363 93.2273 121.279 93.6558 121.279C94.0275 121.279 94.353 121.353 94.6324 121.502C94.9117 121.649 95.1284 121.875 95.2822 122.181C95.4385 122.484 95.5166 122.87 95.5166 123.338V126.804H94.6786V123.395C94.6786 122.962 94.5661 122.627 94.3412 122.39C94.1187 122.151 93.8097 122.031 93.4143 122.031C93.1397 122.031 92.8935 122.089 92.6757 122.205C92.4603 122.321 92.2898 122.491 92.1643 122.713C92.0412 122.936 91.9797 123.206 91.9797 123.523Z" fill="black"/>
</svg>
