<svg width="617" height="449" viewBox="0 0 617 449" fill="none" xmlns="http://www.w3.org/2000/svg">
<path d="M242 361C242 325.654 270.654 297 306 297V297C341.346 297 370 325.654 370 361V361C370 396.346 341.346 425 306 425V425C270.654 425 242 396.346 242 361V361Z" fill="#FFDF81"/>
<path d="M293.212 366.14C292.718 366.14 292.249 366.082 291.805 365.965C291.362 365.844 290.958 365.664 290.594 365.426C290.235 365.188 289.936 364.894 289.698 364.544C289.465 364.189 289.318 363.779 289.257 363.312H290.615C290.699 363.695 290.865 364.017 291.112 364.278C291.364 364.539 291.675 364.735 292.043 364.866C292.417 364.997 292.825 365.062 293.268 365.062C293.698 365.062 294.092 364.994 294.451 364.859C294.815 364.724 295.107 364.528 295.326 364.271C295.546 364.01 295.655 363.697 295.655 363.333C295.655 362.932 295.525 362.61 295.263 362.367C295.002 362.12 294.598 361.921 294.052 361.772L291.966 361.233C291.495 361.116 291.077 360.953 290.713 360.743C290.354 360.528 290.072 360.248 289.866 359.903C289.661 359.553 289.558 359.119 289.558 358.601C289.558 358.027 289.717 357.528 290.034 357.103C290.352 356.674 290.781 356.342 291.322 356.109C291.868 355.871 292.484 355.752 293.17 355.752C293.964 355.752 294.631 355.89 295.172 356.165C295.718 356.44 296.131 356.802 296.411 357.25C296.691 357.698 296.831 358.176 296.831 358.685H295.501C295.459 358.223 295.324 357.859 295.095 357.593C294.867 357.322 294.582 357.129 294.241 357.012C293.901 356.891 293.53 356.83 293.128 356.83C292.405 356.83 291.857 356.996 291.483 357.327C291.115 357.654 290.93 358.043 290.93 358.496C290.93 358.911 291.063 359.238 291.329 359.476C291.595 359.714 291.987 359.898 292.505 360.029L294.535 360.554C295.137 360.694 295.616 360.897 295.97 361.163C296.33 361.429 296.586 361.739 296.74 362.094C296.899 362.444 296.978 362.824 296.978 363.235C296.978 363.795 296.822 364.294 296.509 364.733C296.197 365.172 295.758 365.517 295.193 365.769C294.633 366.016 293.973 366.14 293.212 366.14ZM301.261 366.035C300.762 366.035 300.374 365.967 300.099 365.832C299.824 365.697 299.63 365.496 299.518 365.23C299.411 364.964 299.357 364.637 299.357 364.25V359.707H298.181V358.762H299.392L299.707 356.655H300.659V358.755H302.29V359.707H300.659V364.208C300.659 364.465 300.685 364.654 300.736 364.775C300.792 364.892 300.883 364.966 301.009 364.999C301.135 365.032 301.312 365.048 301.541 365.048H302.332V365.916C302.243 365.949 302.108 365.977 301.926 366C301.749 366.023 301.527 366.035 301.261 366.035ZM306.039 366.14C305.567 366.14 305.152 366.058 304.793 365.895C304.438 365.727 304.158 365.487 303.953 365.174C303.752 364.861 303.652 364.483 303.652 364.04C303.652 363.237 303.932 362.64 304.492 362.248C305.052 361.856 305.95 361.646 307.187 361.618L308.475 361.583V361.016C308.475 360.573 308.342 360.223 308.076 359.966C307.81 359.705 307.399 359.574 306.844 359.574C306.428 359.579 306.062 359.677 305.745 359.868C305.427 360.059 305.224 360.372 305.136 360.806H303.995C304.023 360.335 304.153 359.938 304.387 359.616C304.625 359.289 304.958 359.042 305.388 358.874C305.817 358.706 306.323 358.622 306.907 358.622C307.537 358.622 308.059 358.711 308.475 358.888C308.895 359.065 309.207 359.327 309.413 359.672C309.623 360.017 309.728 360.442 309.728 360.946V366H308.622L308.524 364.642C308.248 365.207 307.894 365.599 307.46 365.818C307.03 366.033 306.557 366.14 306.039 366.14ZM306.424 365.209C306.671 365.209 306.914 365.165 307.152 365.076C307.394 364.987 307.614 364.868 307.81 364.719C308.01 364.565 308.171 364.395 308.293 364.208C308.414 364.017 308.475 363.821 308.475 363.62V362.381L307.404 362.402C306.848 362.411 306.386 362.467 306.018 362.57C305.649 362.673 305.371 362.834 305.185 363.053C304.998 363.272 304.905 363.559 304.905 363.914C304.905 364.32 305.047 364.637 305.332 364.866C305.616 365.095 305.98 365.209 306.424 365.209ZM314.099 366.035C313.6 366.035 313.212 365.967 312.937 365.832C312.662 365.697 312.468 365.496 312.356 365.23C312.249 364.964 312.195 364.637 312.195 364.25V359.707H311.019V358.762H312.23L312.545 356.655H313.497V358.755H315.128V359.707H313.497V364.208C313.497 364.465 313.523 364.654 313.574 364.775C313.63 364.892 313.721 364.966 313.847 364.999C313.973 365.032 314.15 365.048 314.379 365.048H315.17V365.916C315.081 365.949 314.946 365.977 314.764 366C314.587 366.023 314.365 366.035 314.099 366.035ZM319.755 366.14C319.083 366.14 318.49 365.993 317.977 365.699C317.464 365.405 317.062 364.983 316.773 364.432C316.484 363.881 316.339 363.221 316.339 362.451C316.339 361.69 316.47 361.023 316.731 360.449C316.992 359.875 317.37 359.427 317.865 359.105C318.364 358.783 318.964 358.622 319.664 358.622C320.345 358.622 320.922 358.769 321.393 359.063C321.864 359.357 322.221 359.772 322.464 360.309C322.711 360.841 322.835 361.473 322.835 362.206V362.682H317.648C317.648 363.139 317.723 363.555 317.872 363.928C318.026 364.297 318.257 364.591 318.565 364.81C318.873 365.029 319.263 365.139 319.734 365.139C320.196 365.139 320.593 365.032 320.924 364.817C321.26 364.602 321.475 364.292 321.568 363.886H322.786C322.702 364.376 322.506 364.789 322.198 365.125C321.895 365.461 321.528 365.715 321.099 365.888C320.674 366.056 320.226 366.14 319.755 366.14ZM317.655 361.807H321.589C321.589 361.392 321.519 361.018 321.379 360.687C321.239 360.351 321.024 360.087 320.735 359.896C320.45 359.7 320.091 359.602 319.657 359.602C319.204 359.602 318.829 359.712 318.53 359.931C318.231 360.146 318.01 360.423 317.865 360.764C317.72 361.1 317.65 361.448 317.655 361.807Z" fill="#1A1B1D"/>
<path d="M484 361C484 325.654 512.654 297 548 297V297C583.346 297 612 325.654 612 361V361C612 396.346 583.346 425 548 425V425C512.654 425 484 396.346 484 361V361Z" fill="#FFDF81"/>
<path d="M535.212 366.14C534.718 366.14 534.249 366.082 533.805 365.965C533.362 365.844 532.958 365.664 532.594 365.426C532.235 365.188 531.936 364.894 531.698 364.544C531.465 364.189 531.318 363.779 531.257 363.312H532.615C532.699 363.695 532.865 364.017 533.112 364.278C533.364 364.539 533.675 364.735 534.043 364.866C534.417 364.997 534.825 365.062 535.268 365.062C535.698 365.062 536.092 364.994 536.451 364.859C536.815 364.724 537.107 364.528 537.326 364.271C537.546 364.01 537.655 363.697 537.655 363.333C537.655 362.932 537.525 362.61 537.263 362.367C537.002 362.12 536.598 361.921 536.052 361.772L533.966 361.233C533.495 361.116 533.077 360.953 532.713 360.743C532.354 360.528 532.072 360.248 531.866 359.903C531.661 359.553 531.558 359.119 531.558 358.601C531.558 358.027 531.717 357.528 532.034 357.103C532.352 356.674 532.781 356.342 533.322 356.109C533.868 355.871 534.484 355.752 535.17 355.752C535.964 355.752 536.631 355.89 537.172 356.165C537.718 356.44 538.131 356.802 538.411 357.25C538.691 357.698 538.831 358.176 538.831 358.685H537.501C537.459 358.223 537.324 357.859 537.095 357.593C536.867 357.322 536.582 357.129 536.241 357.012C535.901 356.891 535.53 356.83 535.128 356.83C534.405 356.83 533.857 356.996 533.483 357.327C533.115 357.654 532.93 358.043 532.93 358.496C532.93 358.911 533.063 359.238 533.329 359.476C533.595 359.714 533.987 359.898 534.505 360.029L536.535 360.554C537.137 360.694 537.616 360.897 537.97 361.163C538.33 361.429 538.586 361.739 538.74 362.094C538.899 362.444 538.978 362.824 538.978 363.235C538.978 363.795 538.822 364.294 538.509 364.733C538.197 365.172 537.758 365.517 537.193 365.769C536.633 366.016 535.973 366.14 535.212 366.14ZM543.261 366.035C542.762 366.035 542.374 365.967 542.099 365.832C541.824 365.697 541.63 365.496 541.518 365.23C541.411 364.964 541.357 364.637 541.357 364.25V359.707H540.181V358.762H541.392L541.707 356.655H542.659V358.755H544.29V359.707H542.659V364.208C542.659 364.465 542.685 364.654 542.736 364.775C542.792 364.892 542.883 364.966 543.009 364.999C543.135 365.032 543.312 365.048 543.541 365.048H544.332V365.916C544.243 365.949 544.108 365.977 543.926 366C543.749 366.023 543.527 366.035 543.261 366.035ZM548.039 366.14C547.567 366.14 547.152 366.058 546.793 365.895C546.438 365.727 546.158 365.487 545.953 365.174C545.752 364.861 545.652 364.483 545.652 364.04C545.652 363.237 545.932 362.64 546.492 362.248C547.052 361.856 547.95 361.646 549.187 361.618L550.475 361.583V361.016C550.475 360.573 550.342 360.223 550.076 359.966C549.81 359.705 549.399 359.574 548.844 359.574C548.428 359.579 548.062 359.677 547.745 359.868C547.427 360.059 547.224 360.372 547.136 360.806H545.995C546.023 360.335 546.153 359.938 546.387 359.616C546.625 359.289 546.958 359.042 547.388 358.874C547.817 358.706 548.323 358.622 548.907 358.622C549.537 358.622 550.059 358.711 550.475 358.888C550.895 359.065 551.207 359.327 551.413 359.672C551.623 360.017 551.728 360.442 551.728 360.946V366H550.622L550.524 364.642C550.248 365.207 549.894 365.599 549.46 365.818C549.03 366.033 548.557 366.14 548.039 366.14ZM548.424 365.209C548.671 365.209 548.914 365.165 549.152 365.076C549.394 364.987 549.614 364.868 549.81 364.719C550.01 364.565 550.171 364.395 550.293 364.208C550.414 364.017 550.475 363.821 550.475 363.62V362.381L549.404 362.402C548.848 362.411 548.386 362.467 548.018 362.57C547.649 362.673 547.371 362.834 547.185 363.053C546.998 363.272 546.905 363.559 546.905 363.914C546.905 364.32 547.047 364.637 547.332 364.866C547.616 365.095 547.98 365.209 548.424 365.209ZM556.099 366.035C555.6 366.035 555.212 365.967 554.937 365.832C554.662 365.697 554.468 365.496 554.356 365.23C554.249 364.964 554.195 364.637 554.195 364.25V359.707H553.019V358.762H554.23L554.545 356.655H555.497V358.755H557.128V359.707H555.497V364.208C555.497 364.465 555.523 364.654 555.574 364.775C555.63 364.892 555.721 364.966 555.847 364.999C555.973 365.032 556.15 365.048 556.379 365.048H557.17V365.916C557.081 365.949 556.946 365.977 556.764 366C556.587 366.023 556.365 366.035 556.099 366.035ZM561.755 366.14C561.083 366.14 560.49 365.993 559.977 365.699C559.464 365.405 559.062 364.983 558.773 364.432C558.484 363.881 558.339 363.221 558.339 362.451C558.339 361.69 558.47 361.023 558.731 360.449C558.992 359.875 559.37 359.427 559.865 359.105C560.364 358.783 560.964 358.622 561.664 358.622C562.345 358.622 562.922 358.769 563.393 359.063C563.864 359.357 564.221 359.772 564.464 360.309C564.711 360.841 564.835 361.473 564.835 362.206V362.682H559.648C559.648 363.139 559.723 363.555 559.872 363.928C560.026 364.297 560.257 364.591 560.565 364.81C560.873 365.029 561.263 365.139 561.734 365.139C562.196 365.139 562.593 365.032 562.924 364.817C563.26 364.602 563.475 364.292 563.568 363.886H564.786C564.702 364.376 564.506 364.789 564.198 365.125C563.895 365.461 563.528 365.715 563.099 365.888C562.674 366.056 562.226 366.14 561.755 366.14ZM559.655 361.807H563.589C563.589 361.392 563.519 361.018 563.379 360.687C563.239 360.351 563.024 360.087 562.735 359.896C562.45 359.7 562.091 359.602 561.657 359.602C561.204 359.602 560.829 359.712 560.53 359.931C560.231 360.146 560.01 360.423 559.865 360.764C559.72 361.1 559.65 361.448 559.655 361.807Z" fill="#1A1B1D"/>
<path d="M0 361C0 325.654 28.6538 297 64 297V297C99.3462 297 128 325.654 128 361V361C128 396.346 99.3462 425 64 425V425C28.6538 425 0 396.346 0 361V361Z" fill="#FFDF81"/>
<path d="M51.2123 366.14C50.7176 366.14 50.2486 366.082 49.8053 365.965C49.362 365.844 48.9583 365.664 48.5943 365.426C48.235 365.188 47.9363 364.894 47.6983 364.544C47.465 364.189 47.318 363.779 47.2573 363.312H48.6153C48.6993 363.695 48.865 364.017 49.1123 364.278C49.3643 364.539 49.6746 364.735 50.0433 364.866C50.4166 364.997 50.825 365.062 51.2683 365.062C51.6976 365.062 52.092 364.994 52.4513 364.859C52.8153 364.724 53.107 364.528 53.3263 364.271C53.5456 364.01 53.6553 363.697 53.6553 363.333C53.6553 362.932 53.5246 362.61 53.2633 362.367C53.002 362.12 52.5983 361.921 52.0523 361.772L49.9663 361.233C49.495 361.116 49.0773 360.953 48.7133 360.743C48.354 360.528 48.0716 360.248 47.8663 359.903C47.661 359.553 47.5583 359.119 47.5583 358.601C47.5583 358.027 47.717 357.528 48.0343 357.103C48.3516 356.674 48.781 356.342 49.3223 356.109C49.8683 355.871 50.4843 355.752 51.1703 355.752C51.9636 355.752 52.631 355.89 53.1723 356.165C53.7183 356.44 54.1313 356.802 54.4113 357.25C54.6913 357.698 54.8313 358.176 54.8313 358.685H53.5013C53.4593 358.223 53.324 357.859 53.0953 357.593C52.8666 357.322 52.582 357.129 52.2413 357.012C51.9006 356.891 51.5296 356.83 51.1283 356.83C50.405 356.83 49.8566 356.996 49.4833 357.327C49.1146 357.654 48.9303 358.043 48.9303 358.496C48.9303 358.911 49.0633 359.238 49.3293 359.476C49.5953 359.714 49.9873 359.898 50.5053 360.029L52.5353 360.554C53.1373 360.694 53.6156 360.897 53.9703 361.163C54.3296 361.429 54.5863 361.739 54.7403 362.094C54.899 362.444 54.9783 362.824 54.9783 363.235C54.9783 363.795 54.822 364.294 54.5093 364.733C54.1966 365.172 53.758 365.517 53.1933 365.769C52.6333 366.016 51.973 366.14 51.2123 366.14ZM59.2611 366.035C58.7618 366.035 58.3744 365.967 58.0991 365.832C57.8238 365.697 57.6301 365.496 57.5181 365.23C57.4108 364.964 57.3571 364.637 57.3571 364.25V359.707H56.1811V358.762H57.3921L57.7071 356.655H58.6591V358.755H60.2901V359.707H58.6591V364.208C58.6591 364.465 58.6848 364.654 58.7361 364.775C58.7921 364.892 58.8831 364.966 59.0091 364.999C59.1351 365.032 59.3124 365.048 59.5411 365.048H60.3321V365.916C60.2434 365.949 60.1081 365.977 59.9261 366C59.7488 366.023 59.5271 366.035 59.2611 366.035ZM64.0385 366.14C63.5672 366.14 63.1518 366.058 62.7925 365.895C62.4378 365.727 62.1578 365.487 61.9525 365.174C61.7518 364.861 61.6515 364.483 61.6515 364.04C61.6515 363.237 61.9315 362.64 62.4915 362.248C63.0515 361.856 63.9498 361.646 65.1865 361.618L66.4745 361.583V361.016C66.4745 360.573 66.3415 360.223 66.0755 359.966C65.8095 359.705 65.3988 359.574 64.8435 359.574C64.4282 359.579 64.0618 359.677 63.7445 359.868C63.4272 360.059 63.2242 360.372 63.1355 360.806H61.9945C62.0225 360.335 62.1532 359.938 62.3865 359.616C62.6245 359.289 62.9582 359.042 63.3875 358.874C63.8168 358.706 64.3232 358.622 64.9065 358.622C65.5365 358.622 66.0592 358.711 66.4745 358.888C66.8945 359.065 67.2072 359.327 67.4125 359.672C67.6225 360.017 67.7275 360.442 67.7275 360.946V366H66.6215L66.5235 364.642C66.2482 365.207 65.8935 365.599 65.4595 365.818C65.0302 366.033 64.5565 366.14 64.0385 366.14ZM64.4235 365.209C64.6708 365.209 64.9135 365.165 65.1515 365.076C65.3942 364.987 65.6135 364.868 65.8095 364.719C66.0102 364.565 66.1712 364.395 66.2925 364.208C66.4138 364.017 66.4745 363.821 66.4745 363.62V362.381L65.4035 362.402C64.8482 362.411 64.3862 362.467 64.0175 362.57C63.6488 362.673 63.3712 362.834 63.1845 363.053C62.9978 363.272 62.9045 363.559 62.9045 363.914C62.9045 364.32 63.0468 364.637 63.3315 364.866C63.6162 365.095 63.9802 365.209 64.4235 365.209ZM72.099 366.035C71.5997 366.035 71.2123 365.967 70.937 365.832C70.6617 365.697 70.468 365.496 70.356 365.23C70.2487 364.964 70.195 364.637 70.195 364.25V359.707H69.019V358.762H70.23L70.545 356.655H71.497V358.755H73.128V359.707H71.497V364.208C71.497 364.465 71.5227 364.654 71.574 364.775C71.63 364.892 71.721 364.966 71.847 364.999C71.973 365.032 72.1503 365.048 72.379 365.048H73.17V365.916C73.0813 365.949 72.946 365.977 72.764 366C72.5867 366.023 72.365 366.035 72.099 366.035ZM77.755 366.14C77.083 366.14 76.4903 365.993 75.977 365.699C75.4637 365.405 75.0623 364.983 74.773 364.432C74.4837 363.881 74.339 363.221 74.339 362.451C74.339 361.69 74.4697 361.023 74.731 360.449C74.9923 359.875 75.3703 359.427 75.865 359.105C76.3643 358.783 76.964 358.622 77.664 358.622C78.3453 358.622 78.9217 358.769 79.393 359.063C79.8643 359.357 80.2213 359.772 80.464 360.309C80.7113 360.841 80.835 361.473 80.835 362.206V362.682H75.648C75.648 363.139 75.7227 363.555 75.872 363.928C76.026 364.297 76.257 364.591 76.565 364.81C76.873 365.029 77.2627 365.139 77.734 365.139C78.196 365.139 78.5927 365.032 78.924 364.817C79.26 364.602 79.4747 364.292 79.568 363.886H80.786C80.702 364.376 80.506 364.789 80.198 365.125C79.8947 365.461 79.5283 365.715 79.099 365.888C78.6743 366.056 78.2263 366.14 77.755 366.14ZM75.655 361.807H79.589C79.589 361.392 79.519 361.018 79.379 360.687C79.239 360.351 79.0243 360.087 78.735 359.896C78.4503 359.7 78.091 359.602 77.657 359.602C77.2043 359.602 76.8287 359.712 76.53 359.931C76.2313 360.146 76.0097 360.423 75.865 360.764C75.7203 361.1 75.6503 361.448 75.655 361.807Z" fill="#1A1B1D"/>
<path d="M242 64C242 28.6538 270.654 0 306 0V0C341.346 0 370 28.6538 370 64V64C370 99.3462 341.346 128 306 128V128C270.654 128 242 99.3462 242 64V64Z" fill="#C990C0"/>
<path d="M281.641 69V58.878H285.064C285.787 58.878 286.431 58.9993 286.996 59.242C287.56 59.4847 288.004 59.844 288.326 60.32C288.652 60.796 288.816 61.3817 288.816 62.077C288.816 62.749 288.664 63.323 288.361 63.799C288.062 64.275 287.644 64.6367 287.108 64.884C286.571 65.1313 285.948 65.255 285.239 65.255H282.971V69H281.641ZM282.964 64.163H285.211C285.906 64.163 286.471 63.9693 286.905 63.582C287.339 63.1947 287.556 62.6673 287.556 62C287.556 61.328 287.332 60.8193 286.884 60.474C286.436 60.1287 285.857 59.956 285.148 59.956H282.964V64.163ZM290.289 69V61.762H291.521V63.155C291.642 62.8097 291.812 62.525 292.032 62.301C292.251 62.0723 292.501 61.902 292.781 61.79C293.065 61.678 293.359 61.622 293.663 61.622C293.77 61.622 293.875 61.629 293.978 61.643C294.08 61.657 294.16 61.6803 294.216 61.713V62.966C294.146 62.9333 294.055 62.9123 293.943 62.903C293.835 62.889 293.744 62.882 293.67 62.882C293.38 62.8633 293.11 62.882 292.858 62.938C292.606 62.9893 292.384 63.0803 292.193 63.211C292.001 63.3417 291.85 63.5143 291.738 63.729C291.63 63.939 291.577 64.1957 291.577 64.499V69H290.289ZM298.546 69.14C297.879 69.14 297.295 68.9977 296.796 68.713C296.301 68.4237 295.916 68.0013 295.641 67.446C295.366 66.8907 295.228 66.2117 295.228 65.409C295.228 64.653 295.356 63.9903 295.613 63.421C295.87 62.8517 296.245 62.4107 296.74 62.098C297.235 61.7807 297.839 61.622 298.553 61.622C299.22 61.622 299.799 61.769 300.289 62.063C300.779 62.3523 301.159 62.7793 301.43 63.344C301.705 63.9087 301.843 64.597 301.843 65.409C301.843 66.1463 301.717 66.795 301.465 67.355C301.213 67.915 300.842 68.3537 300.352 68.671C299.867 68.9837 299.265 69.14 298.546 69.14ZM298.553 68.118C298.982 68.118 299.346 68.0083 299.645 67.789C299.944 67.5697 300.17 67.2547 300.324 66.844C300.483 66.4333 300.562 65.9457 300.562 65.381C300.562 64.863 300.492 64.3987 300.352 63.988C300.217 63.5727 300.002 63.2437 299.708 63.001C299.414 62.7583 299.029 62.637 298.553 62.637C298.114 62.637 297.743 62.7467 297.44 62.966C297.137 63.1807 296.906 63.4933 296.747 63.904C296.593 64.3147 296.516 64.807 296.516 65.381C296.516 65.8897 296.584 66.3517 296.719 66.767C296.859 67.1823 297.078 67.5113 297.377 67.754C297.68 67.9967 298.072 68.118 298.553 68.118ZM306.203 69.14C305.26 69.14 304.514 68.818 303.963 68.174C303.417 67.53 303.144 66.5897 303.144 65.353C303.144 64.6017 303.254 63.946 303.473 63.386C303.692 62.826 304.021 62.392 304.46 62.084C304.899 61.776 305.445 61.622 306.098 61.622C306.448 61.622 306.756 61.6663 307.022 61.755C307.288 61.8437 307.519 61.9557 307.715 62.091C307.911 62.2263 308.07 62.3663 308.191 62.511C308.317 62.6557 308.41 62.7887 308.471 62.91V58.598H309.78V69H308.786L308.646 67.516C308.599 67.656 308.525 67.8193 308.422 68.006C308.319 68.188 308.175 68.3677 307.988 68.545C307.806 68.7177 307.568 68.86 307.274 68.972C306.98 69.084 306.623 69.14 306.203 69.14ZM306.434 68.146C307.162 68.146 307.682 67.9243 307.995 67.481C308.312 67.033 308.471 66.3027 308.471 65.29C308.466 64.7253 308.396 64.2447 308.261 63.848C308.126 63.4513 307.911 63.1503 307.617 62.945C307.328 62.735 306.94 62.63 306.455 62.63C305.862 62.63 305.379 62.8423 305.006 63.267C304.633 63.6917 304.446 64.366 304.446 65.29C304.446 66.1953 304.614 66.8977 304.95 67.397C305.286 67.8963 305.781 68.146 306.434 68.146ZM314.578 69.14C314.2 69.1353 313.843 69.0817 313.507 68.979C313.175 68.8717 312.881 68.7153 312.625 68.51C312.368 68.3047 312.165 68.0503 312.016 67.747C311.871 67.439 311.799 67.082 311.799 66.676V61.762H313.094V66.543C313.094 67.0143 313.238 67.397 313.528 67.691C313.822 67.985 314.263 68.132 314.851 68.132C315.383 68.132 315.81 67.9943 316.132 67.719C316.458 67.439 316.622 67.0237 316.622 66.473V61.762H317.91V69H316.881L316.748 67.614C316.659 67.978 316.507 68.272 316.293 68.496C316.083 68.72 315.828 68.8857 315.53 68.993C315.236 69.0957 314.918 69.1447 314.578 69.14ZM322.951 69.14C322.297 69.14 321.719 68.9977 321.215 68.713C320.715 68.4283 320.323 68.0083 320.039 67.453C319.759 66.8977 319.619 66.2163 319.619 65.409C319.619 64.653 319.747 63.9927 320.004 63.428C320.265 62.8587 320.643 62.4153 321.138 62.098C321.637 61.7807 322.241 61.622 322.951 61.622C323.469 61.622 323.933 61.7223 324.344 61.923C324.759 62.119 325.1 62.399 325.366 62.763C325.632 63.127 325.795 63.5563 325.856 64.051H324.708C324.666 63.799 324.568 63.568 324.414 63.358C324.264 63.148 324.066 62.98 323.819 62.854C323.576 62.728 323.289 62.665 322.958 62.665C322.337 62.665 321.831 62.889 321.439 63.337C321.051 63.785 320.858 64.471 320.858 65.395C320.858 66.2303 321.035 66.9 321.39 67.404C321.749 67.9033 322.276 68.153 322.972 68.153C323.303 68.153 323.592 68.09 323.84 67.964C324.087 67.8333 324.285 67.663 324.435 67.453C324.584 67.2383 324.68 67.0097 324.722 66.767H325.849C325.788 67.2523 325.622 67.6723 325.352 68.027C325.086 68.3817 324.745 68.657 324.33 68.853C323.919 69.0443 323.459 69.14 322.951 69.14ZM329.979 69.035C329.48 69.035 329.092 68.9673 328.817 68.832C328.542 68.6967 328.348 68.496 328.236 68.23C328.129 67.964 328.075 67.6373 328.075 67.25V62.707H326.899V61.762H328.11L328.425 59.655H329.377V61.755H331.008V62.707H329.377V67.208C329.377 67.4647 329.403 67.6537 329.454 67.775C329.51 67.8917 329.601 67.9663 329.727 67.999C329.853 68.0317 330.03 68.048 330.259 68.048H331.05V68.916C330.961 68.9487 330.826 68.9767 330.644 69C330.467 69.0233 330.245 69.035 329.979 69.035Z" fill="white"/>
<path d="M117.364 294.388C117.42 294.938 117.911 295.338 118.461 295.281L127.414 294.368C127.963 294.312 128.363 293.821 128.307 293.271C128.251 292.722 127.76 292.322 127.211 292.378L119.252 293.19L118.44 285.232C118.384 284.682 117.893 284.282 117.344 284.338C116.794 284.394 116.394 284.885 116.451 285.435L117.364 294.388ZM158.512 245.008L157.736 244.377L157.736 244.377L158.512 245.008ZM160.714 242.306L161.489 242.938L161.489 242.938L160.714 242.306ZM172.242 228.158L173.017 228.79L173.017 228.79L172.242 228.158ZM173.649 228.014C173.997 227.586 173.933 226.956 173.505 226.607C173.077 226.259 172.447 226.323 172.098 226.751L173.649 228.014ZM199.904 192.626C199.555 193.054 199.619 193.684 200.047 194.033C200.475 194.382 201.105 194.318 201.454 193.889L199.904 192.626ZM208.637 183.491L209.412 184.123L209.412 184.123L208.637 183.491ZM212.839 178.334L213.614 178.966L213.614 178.966L212.839 178.334ZM252.416 131.345C252.765 130.917 252.701 130.287 252.273 129.938C251.845 129.589 251.215 129.653 250.866 130.082L252.416 131.345ZM119.134 294.918L159.287 245.64L157.736 244.377L117.584 293.655L119.134 294.918ZM159.287 245.64L161.489 242.938L159.938 241.674L157.736 244.377L159.287 245.64ZM161.489 242.938L173.017 228.79L171.466 227.526L159.938 241.674L161.489 242.938ZM173.017 228.79L173.649 228.014L172.098 226.751L171.466 227.526L173.017 228.79ZM201.454 193.889L209.412 184.123L207.861 182.86L199.904 192.626L201.454 193.889ZM209.412 184.123L213.614 178.966L212.063 177.703L207.861 182.86L209.412 184.123ZM213.614 178.966L252.416 131.345L250.866 130.082L212.063 177.703L213.614 178.966Z" fill="#1A1B1D"/>
<path d="M168.638 215.82V205.638H174.952V206.961H170.174V210.063H174.5V211.381H170.174V215.82H168.638ZM178.224 205.638V215.82H176.687V205.638H178.224ZM180.307 215.82V205.638H183.936C184.725 205.638 185.379 205.774 185.9 206.046C186.423 206.318 186.815 206.694 187.073 207.175C187.332 207.652 187.461 208.204 187.461 208.83C187.461 209.453 187.33 210.002 187.068 210.476C186.81 210.946 186.419 211.313 185.895 211.575C185.374 211.836 184.72 211.967 183.931 211.967H181.182V210.645H183.792C184.289 210.645 184.693 210.574 185.005 210.431C185.32 210.289 185.55 210.081 185.696 209.81C185.842 209.538 185.915 209.211 185.915 208.83C185.915 208.446 185.84 208.113 185.691 207.831C185.545 207.549 185.315 207.334 185 207.185C184.688 207.032 184.279 206.956 183.772 206.956H181.843V215.82H180.307ZM185.333 211.227L187.849 215.82H186.099L183.633 211.227H185.333ZM194.729 208.313C194.676 207.843 194.458 207.478 194.073 207.219C193.689 206.958 193.205 206.827 192.622 206.827C192.204 206.827 191.843 206.893 191.538 207.026C191.233 207.155 190.996 207.334 190.827 207.562C190.661 207.788 190.578 208.045 190.578 208.333C190.578 208.575 190.635 208.784 190.747 208.959C190.863 209.135 191.014 209.283 191.2 209.402C191.389 209.518 191.591 209.616 191.806 209.695C192.022 209.771 192.229 209.834 192.428 209.884L193.422 210.143C193.747 210.222 194.08 210.33 194.421 210.466C194.763 210.602 195.079 210.781 195.371 211.003C195.662 211.225 195.898 211.5 196.077 211.828C196.259 212.156 196.35 212.549 196.35 213.006C196.35 213.583 196.201 214.095 195.903 214.543C195.608 214.99 195.179 215.343 194.615 215.602C194.055 215.86 193.377 215.989 192.582 215.989C191.819 215.989 191.16 215.868 190.603 215.626C190.046 215.384 189.61 215.041 189.296 214.597C188.981 214.15 188.807 213.619 188.774 213.006H190.315C190.345 213.374 190.464 213.681 190.673 213.926C190.885 214.168 191.155 214.349 191.483 214.468C191.814 214.584 192.177 214.642 192.572 214.642C193.006 214.642 193.392 214.574 193.73 214.438C194.072 214.299 194.34 214.107 194.536 213.861C194.731 213.613 194.829 213.323 194.829 212.991C194.829 212.69 194.743 212.443 194.57 212.251C194.401 212.058 194.171 211.899 193.879 211.773C193.591 211.647 193.265 211.536 192.9 211.44L191.697 211.112C190.881 210.89 190.235 210.564 189.758 210.133C189.284 209.702 189.047 209.132 189.047 208.423C189.047 207.836 189.206 207.324 189.524 206.886C189.842 206.449 190.273 206.109 190.817 205.867C191.36 205.622 191.974 205.499 192.656 205.499C193.346 205.499 193.954 205.62 194.481 205.862C195.011 206.104 195.429 206.437 195.734 206.861C196.039 207.282 196.198 207.766 196.211 208.313H194.729ZM197.53 206.961V205.638H205.41V206.961H202.233V215.82H200.702V206.961H197.53Z" fill="black" fill-opacity="0.8"/>
<path d="M493.539 295.282C494.089 295.338 494.58 294.938 494.636 294.388L495.549 285.435C495.606 284.885 495.206 284.394 494.656 284.338C494.107 284.282 493.616 284.682 493.56 285.232L492.748 293.19L484.789 292.378C484.24 292.322 483.749 292.722 483.693 293.272C483.637 293.821 484.037 294.312 484.586 294.368L493.539 295.282ZM450.637 241.509L451.412 240.877L451.412 240.877L450.637 241.509ZM449.786 240.465L449.011 241.097L449.011 241.097L449.786 240.465ZM439.902 226.751C439.553 226.323 438.923 226.259 438.495 226.608C438.067 226.956 438.003 227.586 438.352 228.015L439.902 226.751ZM411.178 194.665C411.526 195.093 412.156 195.157 412.584 194.808C413.013 194.459 413.077 193.83 412.728 193.401L411.178 194.665ZM411.321 193.258L412.096 192.626L412.096 192.626L411.321 193.258ZM400.661 180.175L399.886 180.807L399.886 180.807L400.661 180.175ZM400.03 179.4L400.805 178.769L400.805 178.769L400.03 179.4ZM361.134 130.082C360.785 129.654 360.155 129.589 359.727 129.938C359.299 130.287 359.235 130.917 359.584 131.345L361.134 130.082ZM494.416 293.655L451.412 240.877L449.861 242.14L492.866 294.918L494.416 293.655ZM451.412 240.877L450.562 239.834L449.011 241.097L449.861 242.14L451.412 240.877ZM450.562 239.834L439.902 226.751L438.352 228.015L449.011 241.097L450.562 239.834ZM412.728 193.401L412.096 192.626L410.546 193.889L411.178 194.665L412.728 193.401ZM412.096 192.626L401.437 179.544L399.886 180.807L410.546 193.889L412.096 192.626ZM401.437 179.544L400.805 178.769L399.255 180.032L399.886 180.807L401.437 179.544ZM400.805 178.769L361.134 130.082L359.584 131.345L399.255 180.032L400.805 178.769Z" fill="#E2E3E5"/>
<path d="M408.438 215.82V205.638H409.974V214.498H414.588V215.82H408.438ZM417.566 215.82H415.935L419.599 205.638H421.374L425.038 215.82H423.407L420.529 207.488H420.449L417.566 215.82ZM417.839 211.833H423.129V213.126H417.839V211.833ZM431.826 208.313C431.773 207.843 431.554 207.478 431.169 207.219C430.785 206.958 430.301 206.827 429.718 206.827C429.3 206.827 428.939 206.893 428.634 207.026C428.329 207.155 428.092 207.334 427.923 207.562C427.757 207.788 427.674 208.045 427.674 208.333C427.674 208.575 427.731 208.784 427.843 208.96C427.959 209.135 428.11 209.283 428.296 209.402C428.485 209.518 428.687 209.616 428.902 209.695C429.118 209.772 429.325 209.835 429.524 209.884L430.518 210.143C430.843 210.222 431.176 210.33 431.517 210.466C431.859 210.602 432.175 210.781 432.467 211.003C432.759 211.225 432.994 211.5 433.173 211.828C433.355 212.156 433.446 212.549 433.446 213.006C433.446 213.583 433.297 214.095 432.999 214.543C432.704 214.99 432.275 215.343 431.711 215.602C431.151 215.86 430.473 215.989 429.678 215.989C428.916 215.989 428.256 215.868 427.699 215.626C427.142 215.384 426.707 215.041 426.392 214.597C426.077 214.15 425.903 213.62 425.87 213.006H427.411C427.441 213.374 427.56 213.681 427.769 213.926C427.981 214.168 428.251 214.349 428.579 214.468C428.911 214.584 429.274 214.642 429.668 214.642C430.102 214.642 430.488 214.574 430.826 214.438C431.168 214.299 431.436 214.107 431.632 213.862C431.827 213.613 431.925 213.323 431.925 212.991C431.925 212.69 431.839 212.443 431.667 212.251C431.498 212.058 431.267 211.899 430.976 211.773C430.687 211.647 430.361 211.536 429.996 211.44L428.793 211.112C427.978 210.89 427.331 210.564 426.854 210.133C426.38 209.702 426.143 209.132 426.143 208.423C426.143 207.836 426.302 207.324 426.62 206.886C426.939 206.449 427.369 206.109 427.913 205.867C428.457 205.622 429.07 205.499 429.752 205.499C430.442 205.499 431.05 205.62 431.577 205.862C432.107 206.104 432.525 206.437 432.83 206.862C433.135 207.282 433.294 207.766 433.307 208.313H431.826ZM434.626 206.961V205.638H442.506V206.961H439.329V215.82H437.798V206.961H434.626Z" fill="#E2E3E5"/>
<path d="M239.207 361.707C239.598 361.317 239.598 360.683 239.207 360.293L232.843 353.929C232.453 353.538 231.819 353.538 231.429 353.929C231.038 354.319 231.038 354.953 231.429 355.343L237.086 361L231.429 366.657C231.038 367.047 231.038 367.681 231.429 368.071C231.819 368.462 232.453 368.462 232.843 368.071L239.207 361.707ZM208.637 360C208.084 360 207.637 360.448 207.637 361C207.637 361.552 208.084 362 208.637 362V360ZM158.512 362C159.064 362 159.512 361.552 159.512 361C159.512 360.448 159.064 360 158.512 360V362ZM131.5 360C130.948 360 130.5 360.448 130.5 361C130.5 361.552 130.948 362 131.5 362V360ZM238.5 360H208.637V362H238.5V360ZM158.512 360H131.5V362H158.512V360Z" fill="#1A1B1D"/>
<path d="M174.473 356.318V366.5H173.061L167.886 359.033H167.791V366.5H166.255V356.318H167.677L172.857 363.795H172.952V356.318H174.473ZM176.56 366.5V356.318H182.943V357.641H178.096V360.743H182.61V362.06H178.096V365.178H183.003V366.5H176.56ZM185.91 356.318L188.346 360.3H188.426L190.862 356.318H192.642L189.47 361.409L192.662 366.5H190.872L188.426 362.572H188.346L185.9 366.5H184.111L187.357 361.409L184.13 356.318H185.91ZM193.509 357.641V356.318H201.389V357.641H198.213V366.5H196.681V357.641H193.509Z" fill="black" fill-opacity="0.8"/>
<path d="M481.207 361.707C481.598 361.317 481.598 360.683 481.207 360.293L474.843 353.929C474.453 353.538 473.819 353.538 473.429 353.929C473.038 354.319 473.038 354.953 473.429 355.343L479.086 361L473.429 366.657C473.038 367.047 473.038 367.681 473.429 368.071C473.819 368.462 474.453 368.462 474.843 368.071L481.207 361.707ZM450.637 360C450.084 360 449.637 360.448 449.637 361C449.637 361.552 450.084 362 450.637 362V360ZM400.512 362C401.064 362 401.512 361.552 401.512 361C401.512 360.448 401.064 360 400.512 360V362ZM373.5 360C372.948 360 372.5 360.448 372.5 361C372.5 361.552 372.948 362 373.5 362V360ZM480.5 360H450.637V362H480.5V360ZM400.512 360H373.5V362H400.512V360Z" fill="#1A1B1D"/>
<path d="M416.473 356.318V366.5H415.061L409.886 359.033H409.791V366.5H408.255V356.318H409.677L414.857 363.795H414.952V356.318H416.473ZM418.56 366.5V356.318H424.943V357.641H420.096V360.743H424.61V362.06H420.096V365.178H425.003V366.5H418.56ZM427.91 356.318L430.346 360.3H430.426L432.862 356.318H434.642L431.47 361.409L434.662 366.5H432.872L430.426 362.572H430.346L427.9 366.5H426.111L429.357 361.409L426.13 356.318H427.91ZM435.509 357.641V356.318H443.389V357.641H440.213V366.5H438.681V357.641H435.509Z" fill="black" fill-opacity="0.8"/>
<path d="M293.994 145V137.762H295.625V145H293.994ZM293.966 136.495V134.885H295.653V136.495H293.966ZM300.263 145.14C299.307 145.14 298.555 144.811 298.009 144.153C297.463 143.495 297.19 142.559 297.19 141.346C297.19 140.59 297.3 139.934 297.519 139.379C297.743 138.819 298.072 138.387 298.506 138.084C298.94 137.776 299.475 137.622 300.109 137.622C300.408 137.622 300.679 137.659 300.921 137.734C301.169 137.804 301.388 137.897 301.579 138.014C301.771 138.131 301.932 138.259 302.062 138.399C302.198 138.539 302.303 138.679 302.377 138.819V134.598H304.092V145H302.832L302.643 143.516C302.583 143.689 302.496 143.871 302.384 144.062C302.277 144.249 302.13 144.424 301.943 144.587C301.761 144.75 301.533 144.883 301.257 144.986C300.982 145.089 300.651 145.14 300.263 145.14ZM300.613 143.887C301.225 143.887 301.67 143.689 301.95 143.292C302.235 142.891 302.377 142.228 302.377 141.304C302.373 140.777 302.307 140.333 302.181 139.974C302.06 139.615 301.873 139.344 301.621 139.162C301.369 138.98 301.04 138.889 300.634 138.889C300.121 138.889 299.699 139.078 299.367 139.456C299.041 139.834 298.877 140.45 298.877 141.304C298.877 142.153 299.029 142.797 299.332 143.236C299.636 143.67 300.063 143.887 300.613 143.887ZM305.773 139.932V137.986H307.698V139.932H305.773ZM305.773 144.958V143.026H307.698V144.958H305.773ZM314.229 145V137.202H312.353V136.187C312.946 136.187 313.415 136.138 313.76 136.04C314.11 135.937 314.365 135.788 314.523 135.592C314.687 135.396 314.78 135.158 314.803 134.878H315.965V145H314.229Z" fill="black"/>
<path d="M21.966 442V434.762H23.632V435.798C23.744 435.611 23.8957 435.432 24.087 435.259C24.283 435.086 24.5233 434.946 24.808 434.839C25.0927 434.732 25.4263 434.678 25.809 434.678C26.257 434.678 26.6723 434.767 27.055 434.944C27.4423 435.121 27.7527 435.399 27.986 435.777C28.224 436.155 28.343 436.643 28.343 437.24V442H26.635V437.443C26.635 436.967 26.5043 436.615 26.243 436.386C25.9817 436.153 25.6527 436.036 25.256 436.036C24.9853 436.036 24.7287 436.083 24.486 436.176C24.2433 436.265 24.045 436.402 23.891 436.589C23.7417 436.771 23.667 437 23.667 437.275V442H21.966ZM32.2211 442.14C31.7591 442.14 31.3438 442.056 30.9751 441.888C30.6111 441.715 30.3241 441.47 30.1141 441.153C29.9088 440.831 29.8061 440.441 29.8061 439.984C29.8061 439.186 30.0931 438.584 30.6671 438.178C31.2458 437.772 32.1651 437.56 33.4251 437.541L34.5101 437.513V437.023C34.5101 436.64 34.3958 436.342 34.1671 436.127C33.9431 435.908 33.5931 435.8 33.1171 435.805C32.7624 435.81 32.4404 435.894 32.1511 436.057C31.8618 436.216 31.6704 436.484 31.5771 436.862H30.1281C30.1561 436.367 30.2984 435.954 30.5551 435.623C30.8164 435.287 31.1734 435.037 31.6261 434.874C32.0788 434.706 32.6014 434.622 33.1941 434.622C33.8848 434.622 34.4471 434.713 34.8811 434.895C35.3151 435.077 35.6348 435.341 35.8401 435.686C36.0454 436.027 36.1481 436.44 36.1481 436.925V442H34.7131L34.5731 440.698C34.3164 441.244 33.9874 441.622 33.5861 441.832C33.1894 442.037 32.7344 442.14 32.2211 442.14ZM32.7741 440.985C32.9841 440.985 33.1918 440.948 33.3971 440.873C33.6024 440.794 33.7868 440.689 33.9501 440.558C34.1181 440.423 34.2511 440.273 34.3491 440.11C34.4518 439.947 34.5054 439.776 34.5101 439.599V438.458L33.6211 438.472C33.1824 438.477 32.7974 438.523 32.4661 438.612C32.1394 438.701 31.8851 438.843 31.7031 439.039C31.5211 439.23 31.4301 439.487 31.4301 439.809C31.4301 440.178 31.5584 440.467 31.8151 440.677C32.0718 440.882 32.3914 440.985 32.7741 440.985ZM37.9621 442V434.762H39.6211V435.798C39.8311 435.481 40.1158 435.205 40.4751 434.972C40.8391 434.739 41.3011 434.622 41.8611 434.622C42.1178 434.622 42.3768 434.666 42.6381 434.755C42.9041 434.844 43.1491 434.974 43.3731 435.147C43.6018 435.32 43.7838 435.534 43.9191 435.791C44.1478 435.45 44.4511 435.17 44.8291 434.951C45.2118 434.732 45.6411 434.622 46.1171 434.622C46.3784 434.622 46.6468 434.664 46.9221 434.748C47.2021 434.832 47.4588 434.972 47.6921 435.168C47.9254 435.364 48.1144 435.632 48.2591 435.973C48.4038 436.309 48.4761 436.731 48.4761 437.24V442H46.7751V437.443C46.7751 437.084 46.7121 436.801 46.5861 436.596C46.4601 436.391 46.2968 436.246 46.0961 436.162C45.9001 436.073 45.6901 436.029 45.4661 436.029C45.2654 436.029 45.0554 436.069 44.8361 436.148C44.6214 436.227 44.4371 436.358 44.2831 436.54C44.1338 436.722 44.0591 436.967 44.0591 437.275V442H42.3581V437.17C42.3581 436.918 42.2928 436.708 42.1621 436.54C42.0314 436.372 41.8658 436.246 41.6651 436.162C41.4691 436.073 41.2684 436.029 41.0631 436.029C40.8531 436.029 40.6384 436.073 40.4191 436.162C40.2044 436.251 40.0248 436.386 39.8801 436.568C39.7354 436.75 39.6631 436.986 39.6631 437.275V442H37.9621ZM53.5068 442.14C52.8115 442.14 52.1978 441.993 51.6658 441.699C51.1385 441.4 50.7255 440.976 50.4268 440.425C50.1328 439.874 49.9858 439.219 49.9858 438.458C49.9858 437.716 50.1188 437.058 50.3848 436.484C50.6555 435.905 51.0451 435.45 51.5538 435.119C52.0671 434.788 52.6855 434.622 53.4088 434.622C54.1228 434.622 54.7225 434.774 55.2078 435.077C55.6931 435.38 56.0618 435.805 56.3138 436.351C56.5658 436.892 56.6918 437.527 56.6918 438.255V438.773H51.6868C51.6821 439.184 51.7475 439.548 51.8828 439.865C52.0181 440.182 52.2188 440.432 52.4848 440.614C52.7508 440.791 53.0798 440.88 53.4718 440.88C53.8731 440.88 54.2208 440.791 54.5148 440.614C54.8135 440.432 55.0118 440.157 55.1098 439.788H56.6638C56.5798 440.292 56.3791 440.719 56.0618 441.069C55.7491 441.419 55.3665 441.685 54.9138 441.867C54.4658 442.049 53.9968 442.14 53.5068 442.14ZM51.6798 437.716H55.0818C55.0818 437.366 55.0188 437.051 54.8928 436.771C54.7715 436.486 54.5871 436.262 54.3398 436.099C54.0925 435.931 53.7798 435.847 53.4018 435.847C53.0285 435.847 52.7135 435.938 52.4568 436.12C52.2001 436.302 52.0065 436.538 51.8758 436.827C51.7451 437.112 51.6798 437.408 51.6798 437.716ZM58.0815 436.932V434.986H60.0065V436.932H58.0815ZM58.0815 441.958V440.026H60.0065V441.958H58.0815ZM64.7391 435.525L65.5301 433.698L64.8721 433.649V431.878H66.7341V433.432L65.4251 435.525H64.7391ZM72.6777 442.14C71.7491 442.14 70.9511 441.928 70.2837 441.503C69.6211 441.074 69.1101 440.467 68.7507 439.683C68.3961 438.894 68.2187 437.959 68.2187 436.876C68.2187 435.798 68.3961 434.876 68.7507 434.111C69.1054 433.346 69.6141 432.76 70.2767 432.354C70.9441 431.943 71.7444 431.738 72.6777 431.738C73.4197 431.738 74.0777 431.89 74.6517 432.193C75.2257 432.492 75.6877 432.898 76.0377 433.411C76.3924 433.924 76.6024 434.496 76.6677 435.126H74.8687C74.7987 434.753 74.6681 434.419 74.4767 434.125C74.2901 433.831 74.0427 433.598 73.7347 433.425C73.4267 433.252 73.0581 433.166 72.6287 433.166C72.0921 433.166 71.6347 433.294 71.2567 433.551C70.8834 433.803 70.5964 434.204 70.3957 434.755C70.1997 435.306 70.1017 436.02 70.1017 436.897C70.1017 438.227 70.3211 439.195 70.7597 439.802C71.1984 440.409 71.8214 440.712 72.6287 440.712C73.0581 440.712 73.4267 440.619 73.7347 440.432C74.0427 440.241 74.2901 439.989 74.4767 439.676C74.6681 439.359 74.7987 439.013 74.8687 438.64H76.6677C76.6117 439.097 76.4951 439.536 76.3177 439.956C76.1451 440.376 75.9001 440.752 75.5827 441.083C75.2654 441.41 74.8664 441.669 74.3857 441.86C73.9097 442.047 73.3404 442.14 72.6777 442.14ZM78.3351 442V431.598H80.0151V435.812C80.1318 435.63 80.2858 435.455 80.4771 435.287C80.6685 435.114 80.9018 434.974 81.1771 434.867C81.4571 434.755 81.7908 434.699 82.1781 434.699C82.6401 434.699 83.0625 434.788 83.4451 434.965C83.8278 435.142 84.1335 435.399 84.3621 435.735C84.5908 436.066 84.7051 436.463 84.7051 436.925V442H82.9971V437.212C82.9971 436.839 82.8641 436.549 82.5981 436.344C82.3368 436.139 82.0055 436.036 81.6041 436.036C81.3381 436.036 81.0838 436.083 80.8411 436.176C80.5985 436.269 80.4025 436.409 80.2531 436.596C80.1085 436.778 80.0361 437.007 80.0361 437.282V442H78.3351ZM88.5766 442.14C88.1146 442.14 87.6992 442.056 87.3306 441.888C86.9666 441.715 86.6796 441.47 86.4696 441.153C86.2642 440.831 86.1616 440.441 86.1616 439.984C86.1616 439.186 86.4486 438.584 87.0226 438.178C87.6012 437.772 88.5206 437.56 89.7806 437.541L90.8656 437.513V437.023C90.8656 436.64 90.7512 436.342 90.5226 436.127C90.2986 435.908 89.9486 435.8 89.4726 435.805C89.1179 435.81 88.7959 435.894 88.5066 436.057C88.2172 436.216 88.0259 436.484 87.9326 436.862H86.4836C86.5116 436.367 86.6539 435.954 86.9106 435.623C87.1719 435.287 87.5289 435.037 87.9816 434.874C88.4342 434.706 88.9569 434.622 89.5496 434.622C90.2402 434.622 90.8026 434.713 91.2366 434.895C91.6706 435.077 91.9902 435.341 92.1956 435.686C92.4009 436.027 92.5036 436.44 92.5036 436.925V442H91.0686L90.9286 440.698C90.6719 441.244 90.3429 441.622 89.9416 441.832C89.5449 442.037 89.0899 442.14 88.5766 442.14ZM89.1296 440.985C89.3396 440.985 89.5472 440.948 89.7526 440.873C89.9579 440.794 90.1422 440.689 90.3056 440.558C90.4736 440.423 90.6066 440.273 90.7046 440.11C90.8072 439.947 90.8609 439.776 90.8656 439.599V438.458L89.9766 438.472C89.5379 438.477 89.1529 438.523 88.8216 438.612C88.4949 438.701 88.2406 438.843 88.0586 439.039C87.8766 439.23 87.7856 439.487 87.7856 439.809C87.7856 440.178 87.9139 440.467 88.1706 440.677C88.4272 440.882 88.7469 440.985 89.1296 440.985ZM94.3456 442V434.762H95.9766V442H94.3456ZM94.3176 433.495V431.885H96.0046V433.495H94.3176ZM97.9953 442V434.762H99.6263V436.33C99.743 435.971 99.9086 435.665 100.123 435.413C100.343 435.156 100.599 434.96 100.893 434.825C101.187 434.69 101.507 434.622 101.852 434.622C101.936 434.622 102.018 434.627 102.097 434.636C102.177 434.645 102.235 434.662 102.272 434.685V436.316C102.221 436.293 102.153 436.276 102.069 436.267C101.99 436.258 101.92 436.253 101.859 436.253C101.509 436.225 101.199 436.239 100.928 436.295C100.662 436.351 100.436 436.447 100.249 436.582C100.067 436.713 99.9296 436.881 99.8363 437.086C99.743 437.287 99.6963 437.522 99.6963 437.793V442H97.9953ZM103.622 435.525L104.413 433.698L103.755 433.649V431.878H105.617V433.432L104.308 435.525H103.622Z" fill="black"/>
<path d="M221.966 442V434.762H223.632V435.798C223.744 435.611 223.896 435.432 224.087 435.259C224.283 435.086 224.523 434.946 224.808 434.839C225.093 434.732 225.426 434.678 225.809 434.678C226.257 434.678 226.672 434.767 227.055 434.944C227.442 435.121 227.753 435.399 227.986 435.777C228.224 436.155 228.343 436.643 228.343 437.24V442H226.635V437.443C226.635 436.967 226.504 436.615 226.243 436.386C225.982 436.153 225.653 436.036 225.256 436.036C224.985 436.036 224.729 436.083 224.486 436.176C224.243 436.265 224.045 436.402 223.891 436.589C223.742 436.771 223.667 437 223.667 437.275V442H221.966ZM232.221 442.14C231.759 442.14 231.344 442.056 230.975 441.888C230.611 441.715 230.324 441.47 230.114 441.153C229.909 440.831 229.806 440.441 229.806 439.984C229.806 439.186 230.093 438.584 230.667 438.178C231.246 437.772 232.165 437.56 233.425 437.541L234.51 437.513V437.023C234.51 436.64 234.396 436.342 234.167 436.127C233.943 435.908 233.593 435.8 233.117 435.805C232.762 435.81 232.44 435.894 232.151 436.057C231.862 436.216 231.67 436.484 231.577 436.862H230.128C230.156 436.367 230.298 435.954 230.555 435.623C230.816 435.287 231.173 435.037 231.626 434.874C232.079 434.706 232.601 434.622 233.194 434.622C233.885 434.622 234.447 434.713 234.881 434.895C235.315 435.077 235.635 435.341 235.84 435.686C236.045 436.027 236.148 436.44 236.148 436.925V442H234.713L234.573 440.698C234.316 441.244 233.987 441.622 233.586 441.832C233.189 442.037 232.734 442.14 232.221 442.14ZM232.774 440.985C232.984 440.985 233.192 440.948 233.397 440.873C233.602 440.794 233.787 440.689 233.95 440.558C234.118 440.423 234.251 440.273 234.349 440.11C234.452 439.947 234.505 439.776 234.51 439.599V438.458L233.621 438.472C233.182 438.477 232.797 438.523 232.466 438.612C232.139 438.701 231.885 438.843 231.703 439.039C231.521 439.23 231.43 439.487 231.43 439.809C231.43 440.178 231.558 440.467 231.815 440.677C232.072 440.882 232.391 440.985 232.774 440.985ZM237.962 442V434.762H239.621V435.798C239.831 435.481 240.116 435.205 240.475 434.972C240.839 434.739 241.301 434.622 241.861 434.622C242.118 434.622 242.377 434.666 242.638 434.755C242.904 434.844 243.149 434.974 243.373 435.147C243.602 435.32 243.784 435.534 243.919 435.791C244.148 435.45 244.451 435.17 244.829 434.951C245.212 434.732 245.641 434.622 246.117 434.622C246.378 434.622 246.647 434.664 246.922 434.748C247.202 434.832 247.459 434.972 247.692 435.168C247.925 435.364 248.114 435.632 248.259 435.973C248.404 436.309 248.476 436.731 248.476 437.24V442H246.775V437.443C246.775 437.084 246.712 436.801 246.586 436.596C246.46 436.391 246.297 436.246 246.096 436.162C245.9 436.073 245.69 436.029 245.466 436.029C245.265 436.029 245.055 436.069 244.836 436.148C244.621 436.227 244.437 436.358 244.283 436.54C244.134 436.722 244.059 436.967 244.059 437.275V442H242.358V437.17C242.358 436.918 242.293 436.708 242.162 436.54C242.031 436.372 241.866 436.246 241.665 436.162C241.469 436.073 241.268 436.029 241.063 436.029C240.853 436.029 240.638 436.073 240.419 436.162C240.204 436.251 240.025 436.386 239.88 436.568C239.735 436.75 239.663 436.986 239.663 437.275V442H237.962ZM253.507 442.14C252.811 442.14 252.198 441.993 251.666 441.699C251.138 441.4 250.725 440.976 250.427 440.425C250.133 439.874 249.986 439.219 249.986 438.458C249.986 437.716 250.119 437.058 250.385 436.484C250.655 435.905 251.045 435.45 251.554 435.119C252.067 434.788 252.685 434.622 253.409 434.622C254.123 434.622 254.722 434.774 255.208 435.077C255.693 435.38 256.062 435.805 256.314 436.351C256.566 436.892 256.692 437.527 256.692 438.255V438.773H251.687C251.682 439.184 251.747 439.548 251.883 439.865C252.018 440.182 252.219 440.432 252.485 440.614C252.751 440.791 253.08 440.88 253.472 440.88C253.873 440.88 254.221 440.791 254.515 440.614C254.813 440.432 255.012 440.157 255.11 439.788H256.664C256.58 440.292 256.379 440.719 256.062 441.069C255.749 441.419 255.366 441.685 254.914 441.867C254.466 442.049 253.997 442.14 253.507 442.14ZM251.68 437.716H255.082C255.082 437.366 255.019 437.051 254.893 436.771C254.771 436.486 254.587 436.262 254.34 436.099C254.092 435.931 253.78 435.847 253.402 435.847C253.028 435.847 252.713 435.938 252.457 436.12C252.2 436.302 252.006 436.538 251.876 436.827C251.745 437.112 251.68 437.408 251.68 437.716ZM258.082 436.932V434.986H260.007V436.932H258.082ZM258.082 441.958V440.026H260.007V441.958H258.082ZM264.739 435.525L265.53 433.698L264.872 433.649V431.878H266.734V433.432L265.425 435.525H264.739ZM268.737 442V431.878H272.328C273.056 431.878 273.707 432.004 274.281 432.256C274.859 432.503 275.314 432.87 275.646 433.355C275.977 433.84 276.143 434.438 276.143 435.147C276.143 435.814 275.991 436.386 275.688 436.862C275.389 437.338 274.971 437.702 274.435 437.954C273.898 438.206 273.27 438.332 272.552 438.332H270.466V442H268.737ZM270.452 436.967H272.51C273.102 436.967 273.585 436.79 273.959 436.435C274.337 436.08 274.526 435.618 274.526 435.049C274.526 434.47 274.33 434.022 273.938 433.705C273.546 433.383 273.053 433.222 272.461 433.222H270.452V436.967ZM277.501 442V434.762H279.132V436.33C279.249 435.971 279.414 435.665 279.629 435.413C279.848 435.156 280.105 434.96 280.399 434.825C280.693 434.69 281.013 434.622 281.358 434.622C281.442 434.622 281.524 434.627 281.603 434.636C281.682 434.645 281.741 434.662 281.778 434.685V436.316C281.727 436.293 281.659 436.276 281.575 436.267C281.496 436.258 281.426 436.253 281.365 436.253C281.015 436.225 280.705 436.239 280.434 436.295C280.168 436.351 279.942 436.447 279.755 436.582C279.573 436.713 279.435 436.881 279.342 437.086C279.249 437.287 279.202 437.522 279.202 437.793V442H277.501ZM286.117 442.14C285.427 442.14 284.825 441.993 284.311 441.699C283.798 441.4 283.399 440.973 283.114 440.418C282.834 439.863 282.694 439.195 282.694 438.416C282.694 437.66 282.832 436.997 283.107 436.428C283.383 435.859 283.775 435.415 284.283 435.098C284.797 434.781 285.41 434.622 286.124 434.622C286.815 434.622 287.415 434.774 287.923 435.077C288.432 435.38 288.824 435.814 289.099 436.379C289.379 436.944 289.519 437.623 289.519 438.416C289.519 439.149 289.386 439.795 289.12 440.355C288.859 440.91 288.474 441.347 287.965 441.664C287.461 441.981 286.845 442.14 286.117 442.14ZM286.124 440.845C286.516 440.845 286.838 440.738 287.09 440.523C287.347 440.308 287.538 440.014 287.664 439.641C287.79 439.268 287.853 438.843 287.853 438.367C287.853 437.924 287.797 437.515 287.685 437.142C287.573 436.769 287.389 436.47 287.132 436.246C286.88 436.017 286.544 435.903 286.124 435.903C285.728 435.903 285.399 436.008 285.137 436.218C284.881 436.423 284.689 436.713 284.563 437.086C284.437 437.455 284.374 437.882 284.374 438.367C284.374 438.806 284.43 439.214 284.542 439.592C284.654 439.965 284.839 440.269 285.095 440.502C285.352 440.731 285.695 440.845 286.124 440.845ZM291.713 442V435.966H290.285V434.762H291.713V433.684C291.713 433.105 291.872 432.66 292.189 432.347C292.511 432.034 292.976 431.878 293.582 431.878H295.108L295.115 433.04H294.107C293.832 433.04 293.643 433.112 293.54 433.257C293.438 433.397 293.386 433.619 293.386 433.922V434.762H295.045V435.966H293.414V442H291.713ZM299.513 442.14C298.817 442.14 298.204 441.993 297.672 441.699C297.144 441.4 296.731 440.976 296.433 440.425C296.139 439.874 295.992 439.219 295.992 438.458C295.992 437.716 296.125 437.058 296.391 436.484C296.661 435.905 297.051 435.45 297.56 435.119C298.073 434.788 298.691 434.622 299.415 434.622C300.129 434.622 300.728 434.774 301.214 435.077C301.699 435.38 302.068 435.805 302.32 436.351C302.572 436.892 302.698 437.527 302.698 438.255V438.773H297.693C297.688 439.184 297.753 439.548 297.889 439.865C298.024 440.182 298.225 440.432 298.491 440.614C298.757 440.791 299.086 440.88 299.478 440.88C299.879 440.88 300.227 440.791 300.521 440.614C300.819 440.432 301.018 440.157 301.116 439.788H302.67C302.586 440.292 302.385 440.719 302.068 441.069C301.755 441.419 301.372 441.685 300.92 441.867C300.472 442.049 300.003 442.14 299.513 442.14ZM297.686 437.716H301.088C301.088 437.366 301.025 437.051 300.899 436.771C300.777 436.486 300.593 436.262 300.346 436.099C300.098 435.931 299.786 435.847 299.408 435.847C299.034 435.847 298.719 435.938 298.463 436.12C298.206 436.302 298.012 436.538 297.882 436.827C297.751 437.112 297.686 437.408 297.686 437.716ZM307.07 442.14C306.566 442.14 306.088 442.061 305.635 441.902C305.187 441.739 304.809 441.484 304.501 441.139C304.198 440.794 304.006 440.348 303.927 439.802H305.425C305.49 440.068 305.605 440.285 305.768 440.453C305.936 440.621 306.132 440.745 306.356 440.824C306.585 440.899 306.82 440.936 307.063 440.936C307.497 440.936 307.847 440.861 308.113 440.712C308.379 440.563 308.512 440.332 308.512 440.019C308.512 439.79 308.437 439.608 308.288 439.473C308.143 439.338 307.905 439.235 307.574 439.165L306.202 438.85C305.586 438.715 305.094 438.491 304.725 438.178C304.356 437.865 304.17 437.424 304.165 436.855C304.16 436.426 304.268 436.043 304.487 435.707C304.706 435.371 305.033 435.107 305.467 434.916C305.901 434.72 306.435 434.622 307.07 434.622C307.915 434.622 308.591 434.811 309.1 435.189C309.613 435.562 309.877 436.097 309.891 436.792H308.442C308.391 436.479 308.244 436.237 308.001 436.064C307.758 435.887 307.443 435.798 307.056 435.798C306.655 435.798 306.326 435.875 306.069 436.029C305.812 436.183 305.684 436.419 305.684 436.736C305.684 436.955 305.78 437.128 305.971 437.254C306.167 437.38 306.463 437.487 306.86 437.576L308.162 437.891C308.535 437.984 308.841 438.11 309.079 438.269C309.317 438.428 309.501 438.603 309.632 438.794C309.767 438.981 309.861 439.174 309.912 439.375C309.968 439.571 309.996 439.753 309.996 439.921C309.996 440.388 309.875 440.787 309.632 441.118C309.394 441.445 309.056 441.697 308.617 441.874C308.183 442.051 307.667 442.14 307.07 442.14ZM314.275 442.14C313.771 442.14 313.293 442.061 312.84 441.902C312.392 441.739 312.014 441.484 311.706 441.139C311.403 440.794 311.211 440.348 311.132 439.802H312.63C312.695 440.068 312.81 440.285 312.973 440.453C313.141 440.621 313.337 440.745 313.561 440.824C313.79 440.899 314.025 440.936 314.268 440.936C314.702 440.936 315.052 440.861 315.318 440.712C315.584 440.563 315.717 440.332 315.717 440.019C315.717 439.79 315.642 439.608 315.493 439.473C315.348 439.338 315.11 439.235 314.779 439.165L313.407 438.85C312.791 438.715 312.299 438.491 311.93 438.178C311.561 437.865 311.375 437.424 311.37 436.855C311.365 436.426 311.473 436.043 311.692 435.707C311.911 435.371 312.238 435.107 312.672 434.916C313.106 434.72 313.64 434.622 314.275 434.622C315.12 434.622 315.796 434.811 316.305 435.189C316.818 435.562 317.082 436.097 317.096 436.792H315.647C315.596 436.479 315.449 436.237 315.206 436.064C314.963 435.887 314.648 435.798 314.261 435.798C313.86 435.798 313.531 435.875 313.274 436.029C313.017 436.183 312.889 436.419 312.889 436.736C312.889 436.955 312.985 437.128 313.176 437.254C313.372 437.38 313.668 437.487 314.065 437.576L315.367 437.891C315.74 437.984 316.046 438.11 316.284 438.269C316.522 438.428 316.706 438.603 316.837 438.794C316.972 438.981 317.066 439.174 317.117 439.375C317.173 439.571 317.201 439.753 317.201 439.921C317.201 440.388 317.08 440.787 316.837 441.118C316.599 441.445 316.261 441.697 315.822 441.874C315.388 442.051 314.872 442.14 314.275 442.14ZM318.777 442V434.762H320.408V442H318.777ZM318.749 433.495V431.885H320.436V433.495H318.749ZM325.397 442.14C324.706 442.14 324.104 441.993 323.591 441.699C323.077 441.4 322.678 440.973 322.394 440.418C322.114 439.863 321.974 439.195 321.974 438.416C321.974 437.66 322.111 436.997 322.387 436.428C322.662 435.859 323.054 435.415 323.563 435.098C324.076 434.781 324.69 434.622 325.404 434.622C326.094 434.622 326.694 434.774 327.203 435.077C327.711 435.38 328.103 435.814 328.379 436.379C328.659 436.944 328.799 437.623 328.799 438.416C328.799 439.149 328.666 439.795 328.4 440.355C328.138 440.91 327.753 441.347 327.245 441.664C326.741 441.981 326.125 442.14 325.397 442.14ZM325.404 440.845C325.796 440.845 326.118 440.738 326.37 440.523C326.626 440.308 326.818 440.014 326.944 439.641C327.07 439.268 327.133 438.843 327.133 438.367C327.133 437.924 327.077 437.515 326.965 437.142C326.853 436.769 326.668 436.47 326.412 436.246C326.16 436.017 325.824 435.903 325.404 435.903C325.007 435.903 324.678 436.008 324.417 436.218C324.16 436.423 323.969 436.713 323.843 437.086C323.717 437.455 323.654 437.882 323.654 438.367C323.654 438.806 323.71 439.214 323.822 439.592C323.934 439.965 324.118 440.269 324.375 440.502C324.631 440.731 324.974 440.845 325.404 440.845ZM330.357 442V434.762H332.023V435.798C332.135 435.611 332.286 435.432 332.478 435.259C332.674 435.086 332.914 434.946 333.199 434.839C333.483 434.732 333.817 434.678 334.2 434.678C334.648 434.678 335.063 434.767 335.446 434.944C335.833 435.121 336.143 435.399 336.377 435.777C336.615 436.155 336.734 436.643 336.734 437.24V442H335.026V437.443C335.026 436.967 334.895 436.615 334.634 436.386C334.372 436.153 334.043 436.036 333.647 436.036C333.376 436.036 333.119 436.083 332.877 436.176C332.634 436.265 332.436 436.402 332.282 436.589C332.132 436.771 332.058 437 332.058 437.275V442H330.357ZM340.612 442.14C340.15 442.14 339.734 442.056 339.366 441.888C339.002 441.715 338.715 441.47 338.505 441.153C338.299 440.831 338.197 440.441 338.197 439.984C338.197 439.186 338.484 438.584 339.058 438.178C339.636 437.772 340.556 437.56 341.816 437.541L342.901 437.513V437.023C342.901 436.64 342.786 436.342 342.558 436.127C342.334 435.908 341.984 435.8 341.508 435.805C341.153 435.81 340.831 435.894 340.542 436.057C340.252 436.216 340.061 436.484 339.968 436.862H338.519C338.547 436.367 338.689 435.954 338.946 435.623C339.207 435.287 339.564 435.037 340.017 434.874C340.469 434.706 340.992 434.622 341.585 434.622C342.275 434.622 342.838 434.713 343.272 434.895C343.706 435.077 344.025 435.341 344.231 435.686C344.436 436.027 344.539 436.44 344.539 436.925V442H343.104L342.964 440.698C342.707 441.244 342.378 441.622 341.977 441.832C341.58 442.037 341.125 442.14 340.612 442.14ZM341.165 440.985C341.375 440.985 341.582 440.948 341.788 440.873C341.993 440.794 342.177 440.689 342.341 440.558C342.509 440.423 342.642 440.273 342.74 440.11C342.842 439.947 342.896 439.776 342.901 439.599V438.458L342.012 438.472C341.573 438.477 341.188 438.523 340.857 438.612C340.53 438.701 340.276 438.843 340.094 439.039C339.912 439.23 339.821 439.487 339.821 439.809C339.821 440.178 339.949 440.467 340.206 440.677C340.462 440.882 340.782 440.985 341.165 440.985ZM348.439 442.105C347.972 442.105 347.599 442.047 347.319 441.93C347.039 441.813 346.829 441.657 346.689 441.461C346.549 441.265 346.458 441.046 346.416 440.803C346.374 440.556 346.353 440.304 346.353 440.047V431.598H348.019V439.851C348.019 440.164 348.082 440.406 348.208 440.579C348.338 440.752 348.548 440.852 348.838 440.88L349.202 440.894V441.965C349.076 442.002 348.947 442.035 348.817 442.063C348.686 442.091 348.56 442.105 348.439 442.105ZM356.979 442.14C356.316 442.14 355.726 441.995 355.208 441.706C354.694 441.412 354.291 440.987 353.997 440.432C353.703 439.872 353.556 439.198 353.556 438.409C353.556 437.658 353.693 437 353.969 436.435C354.249 435.866 354.643 435.422 355.152 435.105C355.665 434.783 356.274 434.622 356.979 434.622C357.543 434.622 358.04 434.734 358.47 434.958C358.899 435.182 359.242 435.492 359.499 435.889C359.76 436.286 359.916 436.736 359.968 437.24H358.519C358.481 437.021 358.4 436.813 358.274 436.617C358.148 436.416 357.977 436.255 357.763 436.134C357.553 436.008 357.296 435.945 356.993 435.945C356.447 435.945 356.006 436.146 355.67 436.547C355.334 436.948 355.166 437.564 355.166 438.395C355.166 439.16 355.324 439.769 355.642 440.222C355.964 440.675 356.423 440.901 357.021 440.901C357.319 440.901 357.576 440.836 357.791 440.705C358.005 440.57 358.173 440.404 358.295 440.208C358.421 440.007 358.5 439.807 358.533 439.606H359.947C359.905 440.096 359.753 440.532 359.492 440.915C359.23 441.298 358.885 441.599 358.456 441.818C358.026 442.033 357.534 442.14 356.979 442.14ZM361.515 442V431.598H363.195V435.812C363.311 435.63 363.465 435.455 363.657 435.287C363.848 435.114 364.081 434.974 364.357 434.867C364.637 434.755 364.97 434.699 365.358 434.699C365.82 434.699 366.242 434.788 366.625 434.965C367.007 435.142 367.313 435.399 367.542 435.735C367.77 436.066 367.885 436.463 367.885 436.925V442H366.177V437.212C366.177 436.839 366.044 436.549 365.778 436.344C365.516 436.139 365.185 436.036 364.784 436.036C364.518 436.036 364.263 436.083 364.021 436.176C363.778 436.269 363.582 436.409 363.433 436.596C363.288 436.778 363.216 437.007 363.216 437.282V442H361.515ZM371.756 442.14C371.294 442.14 370.879 442.056 370.51 441.888C370.146 441.715 369.859 441.47 369.649 441.153C369.444 440.831 369.341 440.441 369.341 439.984C369.341 439.186 369.628 438.584 370.202 438.178C370.781 437.772 371.7 437.56 372.96 437.541L374.045 437.513V437.023C374.045 436.64 373.931 436.342 373.702 436.127C373.478 435.908 373.128 435.8 372.652 435.805C372.298 435.81 371.976 435.894 371.686 436.057C371.397 436.216 371.206 436.484 371.112 436.862H369.663C369.691 436.367 369.834 435.954 370.09 435.623C370.352 435.287 370.709 435.037 371.161 434.874C371.614 434.706 372.137 434.622 372.729 434.622C373.42 434.622 373.982 434.713 374.416 434.895C374.85 435.077 375.17 435.341 375.375 435.686C375.581 436.027 375.683 436.44 375.683 436.925V442H374.248L374.108 440.698C373.852 441.244 373.523 441.622 373.121 441.832C372.725 442.037 372.27 442.14 371.756 442.14ZM372.309 440.985C372.519 440.985 372.727 440.948 372.932 440.873C373.138 440.794 373.322 440.689 373.485 440.558C373.653 440.423 373.786 440.273 373.884 440.11C373.987 439.947 374.041 439.776 374.045 439.599V438.458L373.156 438.472C372.718 438.477 372.333 438.523 372.001 438.612C371.675 438.701 371.42 438.843 371.238 439.039C371.056 439.23 370.965 439.487 370.965 439.809C370.965 440.178 371.094 440.467 371.35 440.677C371.607 440.882 371.927 440.985 372.309 440.985ZM377.525 442V434.762H379.156V442H377.525ZM377.497 433.495V431.885H379.184V433.495H377.497ZM381.175 442V434.762H382.806V436.33C382.923 435.971 383.088 435.665 383.303 435.413C383.522 435.156 383.779 434.96 384.073 434.825C384.367 434.69 384.687 434.622 385.032 434.622C385.116 434.622 385.198 434.627 385.277 434.636C385.356 434.645 385.415 434.662 385.452 434.685V436.316C385.401 436.293 385.333 436.276 385.249 436.267C385.17 436.258 385.1 436.253 385.039 436.253C384.689 436.225 384.379 436.239 384.108 436.295C383.842 436.351 383.616 436.447 383.429 436.582C383.247 436.713 383.109 436.881 383.016 437.086C382.923 437.287 382.876 437.522 382.876 437.793V442H381.175ZM386.802 435.525L387.593 433.698L386.935 433.649V431.878H388.797V433.432L387.488 435.525H386.802Z" fill="black"/>
<path d="M479.966 442V434.762H481.632V435.798C481.744 435.611 481.896 435.432 482.087 435.259C482.283 435.086 482.523 434.946 482.808 434.839C483.093 434.732 483.426 434.678 483.809 434.678C484.257 434.678 484.672 434.767 485.055 434.944C485.442 435.121 485.753 435.399 485.986 435.777C486.224 436.155 486.343 436.643 486.343 437.24V442H484.635V437.443C484.635 436.967 484.504 436.615 484.243 436.386C483.982 436.153 483.653 436.036 483.256 436.036C482.985 436.036 482.729 436.083 482.486 436.176C482.243 436.265 482.045 436.402 481.891 436.589C481.742 436.771 481.667 437 481.667 437.275V442H479.966ZM490.221 442.14C489.759 442.14 489.344 442.056 488.975 441.888C488.611 441.715 488.324 441.47 488.114 441.153C487.909 440.831 487.806 440.441 487.806 439.984C487.806 439.186 488.093 438.584 488.667 438.178C489.246 437.772 490.165 437.56 491.425 437.541L492.51 437.513V437.023C492.51 436.64 492.396 436.342 492.167 436.127C491.943 435.908 491.593 435.8 491.117 435.805C490.762 435.81 490.44 435.894 490.151 436.057C489.862 436.216 489.67 436.484 489.577 436.862H488.128C488.156 436.367 488.298 435.954 488.555 435.623C488.816 435.287 489.173 435.037 489.626 434.874C490.079 434.706 490.601 434.622 491.194 434.622C491.885 434.622 492.447 434.713 492.881 434.895C493.315 435.077 493.635 435.341 493.84 435.686C494.045 436.027 494.148 436.44 494.148 436.925V442H492.713L492.573 440.698C492.316 441.244 491.987 441.622 491.586 441.832C491.189 442.037 490.734 442.14 490.221 442.14ZM490.774 440.985C490.984 440.985 491.192 440.948 491.397 440.873C491.602 440.794 491.787 440.689 491.95 440.558C492.118 440.423 492.251 440.273 492.349 440.11C492.452 439.947 492.505 439.776 492.51 439.599V438.458L491.621 438.472C491.182 438.477 490.797 438.523 490.466 438.612C490.139 438.701 489.885 438.843 489.703 439.039C489.521 439.23 489.43 439.487 489.43 439.809C489.43 440.178 489.558 440.467 489.815 440.677C490.072 440.882 490.391 440.985 490.774 440.985ZM495.962 442V434.762H497.621V435.798C497.831 435.481 498.116 435.205 498.475 434.972C498.839 434.739 499.301 434.622 499.861 434.622C500.118 434.622 500.377 434.666 500.638 434.755C500.904 434.844 501.149 434.974 501.373 435.147C501.602 435.32 501.784 435.534 501.919 435.791C502.148 435.45 502.451 435.17 502.829 434.951C503.212 434.732 503.641 434.622 504.117 434.622C504.378 434.622 504.647 434.664 504.922 434.748C505.202 434.832 505.459 434.972 505.692 435.168C505.925 435.364 506.114 435.632 506.259 435.973C506.404 436.309 506.476 436.731 506.476 437.24V442H504.775V437.443C504.775 437.084 504.712 436.801 504.586 436.596C504.46 436.391 504.297 436.246 504.096 436.162C503.9 436.073 503.69 436.029 503.466 436.029C503.265 436.029 503.055 436.069 502.836 436.148C502.621 436.227 502.437 436.358 502.283 436.54C502.134 436.722 502.059 436.967 502.059 437.275V442H500.358V437.17C500.358 436.918 500.293 436.708 500.162 436.54C500.031 436.372 499.866 436.246 499.665 436.162C499.469 436.073 499.268 436.029 499.063 436.029C498.853 436.029 498.638 436.073 498.419 436.162C498.204 436.251 498.025 436.386 497.88 436.568C497.735 436.75 497.663 436.986 497.663 437.275V442H495.962ZM511.507 442.14C510.811 442.14 510.198 441.993 509.666 441.699C509.138 441.4 508.725 440.976 508.427 440.425C508.133 439.874 507.986 439.219 507.986 438.458C507.986 437.716 508.119 437.058 508.385 436.484C508.655 435.905 509.045 435.45 509.554 435.119C510.067 434.788 510.685 434.622 511.409 434.622C512.123 434.622 512.722 434.774 513.208 435.077C513.693 435.38 514.062 435.805 514.314 436.351C514.566 436.892 514.692 437.527 514.692 438.255V438.773H509.687C509.682 439.184 509.747 439.548 509.883 439.865C510.018 440.182 510.219 440.432 510.485 440.614C510.751 440.791 511.08 440.88 511.472 440.88C511.873 440.88 512.221 440.791 512.515 440.614C512.813 440.432 513.012 440.157 513.11 439.788H514.664C514.58 440.292 514.379 440.719 514.062 441.069C513.749 441.419 513.366 441.685 512.914 441.867C512.466 442.049 511.997 442.14 511.507 442.14ZM509.68 437.716H513.082C513.082 437.366 513.019 437.051 512.893 436.771C512.771 436.486 512.587 436.262 512.34 436.099C512.092 435.931 511.78 435.847 511.402 435.847C511.028 435.847 510.713 435.938 510.457 436.12C510.2 436.302 510.006 436.538 509.876 436.827C509.745 437.112 509.68 437.408 509.68 437.716ZM516.082 436.932V434.986H518.007V436.932H516.082ZM516.082 441.958V440.026H518.007V441.958H516.082ZM522.739 435.525L523.53 433.698L522.872 433.649V431.878H524.734V433.432L523.425 435.525H522.739ZM530.657 442.14C529.751 442.14 528.965 441.932 528.298 441.517C527.63 441.102 527.117 440.509 526.758 439.739C526.398 438.964 526.219 438.04 526.219 436.967C526.219 435.884 526.405 434.951 526.779 434.167C527.152 433.383 527.677 432.783 528.354 432.368C529.035 431.948 529.833 431.738 530.748 431.738C531.308 431.738 531.823 431.831 532.295 432.018C532.771 432.205 533.186 432.457 533.541 432.774C533.9 433.091 534.182 433.453 534.388 433.859C534.593 434.265 534.707 434.687 534.731 435.126H532.932C532.866 434.781 532.733 434.463 532.533 434.174C532.337 433.88 532.082 433.644 531.77 433.467C531.462 433.29 531.109 433.201 530.713 433.201C530.204 433.201 529.749 433.329 529.348 433.586C528.951 433.843 528.638 434.246 528.41 434.797C528.186 435.343 528.074 436.052 528.074 436.925C528.074 437.616 528.144 438.199 528.284 438.675C528.428 439.146 528.624 439.527 528.872 439.816C529.124 440.101 529.413 440.308 529.74 440.439C530.066 440.565 530.412 440.628 530.776 440.628C531.13 440.628 531.443 440.567 531.714 440.446C531.984 440.325 532.213 440.166 532.4 439.97C532.591 439.774 532.738 439.564 532.841 439.34C532.948 439.111 533.011 438.89 533.03 438.675L533.093 437.933H530.832V436.729L534.871 436.743V442H533.667V440.579C533.494 440.836 533.275 441.083 533.009 441.321C532.747 441.559 532.425 441.755 532.043 441.909C531.665 442.063 531.203 442.14 530.657 442.14ZM539.03 442.14C538.568 442.14 538.152 442.056 537.784 441.888C537.42 441.715 537.133 441.47 536.923 441.153C536.717 440.831 536.615 440.441 536.615 439.984C536.615 439.186 536.902 438.584 537.476 438.178C538.054 437.772 538.974 437.56 540.234 437.541L541.319 437.513V437.023C541.319 436.64 541.204 436.342 540.976 436.127C540.752 435.908 540.402 435.8 539.926 435.805C539.571 435.81 539.249 435.894 538.96 436.057C538.67 436.216 538.479 436.484 538.386 436.862H536.937C536.965 436.367 537.107 435.954 537.364 435.623C537.625 435.287 537.982 435.037 538.435 434.874C538.887 434.706 539.41 434.622 540.003 434.622C540.693 434.622 541.256 434.713 541.69 434.895C542.124 435.077 542.443 435.341 542.649 435.686C542.854 436.027 542.957 436.44 542.957 436.925V442H541.522L541.382 440.698C541.125 441.244 540.796 441.622 540.395 441.832C539.998 442.037 539.543 442.14 539.03 442.14ZM539.583 440.985C539.793 440.985 540 440.948 540.206 440.873C540.411 440.794 540.595 440.689 540.759 440.558C540.927 440.423 541.06 440.273 541.158 440.11C541.26 439.947 541.314 439.776 541.319 439.599V438.458L540.43 438.472C539.991 438.477 539.606 438.523 539.275 438.612C538.948 438.701 538.694 438.843 538.512 439.039C538.33 439.23 538.239 439.487 538.239 439.809C538.239 440.178 538.367 440.467 538.624 440.677C538.88 440.882 539.2 440.985 539.583 440.985ZM544.771 442V434.762H546.43V435.798C546.64 435.481 546.924 435.205 547.284 434.972C547.648 434.739 548.11 434.622 548.67 434.622C548.926 434.622 549.185 434.666 549.447 434.755C549.713 434.844 549.958 434.974 550.182 435.147C550.41 435.32 550.592 435.534 550.728 435.791C550.956 435.45 551.26 435.17 551.638 434.951C552.02 434.732 552.45 434.622 552.926 434.622C553.187 434.622 553.455 434.664 553.731 434.748C554.011 434.832 554.267 434.972 554.501 435.168C554.734 435.364 554.923 435.632 555.068 435.973C555.212 436.309 555.285 436.731 555.285 437.24V442H553.584V437.443C553.584 437.084 553.521 436.801 553.395 436.596C553.269 436.391 553.105 436.246 552.905 436.162C552.709 436.073 552.499 436.029 552.275 436.029C552.074 436.029 551.864 436.069 551.645 436.148C551.43 436.227 551.246 436.358 551.092 436.54C550.942 436.722 550.868 436.967 550.868 437.275V442H549.167V437.17C549.167 436.918 549.101 436.708 548.971 436.54C548.84 436.372 548.674 436.246 548.474 436.162C548.278 436.073 548.077 436.029 547.872 436.029C547.662 436.029 547.447 436.073 547.228 436.162C547.013 436.251 546.833 436.386 546.689 436.568C546.544 436.75 546.472 436.986 546.472 437.275V442H544.771ZM557.144 442V434.762H558.775V442H557.144ZM557.116 433.495V431.885H558.803V433.495H557.116ZM560.794 442V434.762H562.46V435.798C562.572 435.611 562.724 435.432 562.915 435.259C563.111 435.086 563.351 434.946 563.636 434.839C563.921 434.732 564.254 434.678 564.637 434.678C565.085 434.678 565.5 434.767 565.883 434.944C566.27 435.121 566.581 435.399 566.814 435.777C567.052 436.155 567.171 436.643 567.171 437.24V442H565.463V437.443C565.463 436.967 565.332 436.615 565.071 436.386C564.81 436.153 564.481 436.036 564.084 436.036C563.813 436.036 563.557 436.083 563.314 436.176C563.071 436.265 562.873 436.402 562.719 436.589C562.57 436.771 562.495 437 562.495 437.275V442H560.794ZM572.217 444.394C570.999 444.394 570.064 444.231 569.41 443.904C568.757 443.577 568.43 443.129 568.43 442.56C568.43 442.303 568.493 442.089 568.619 441.916C568.745 441.743 568.895 441.601 569.067 441.489C569.24 441.377 569.399 441.291 569.543 441.23C569.688 441.169 569.781 441.125 569.823 441.097C569.744 441.05 569.639 440.99 569.508 440.915C569.378 440.84 569.259 440.738 569.151 440.607C569.049 440.476 568.997 440.306 568.997 440.096C568.997 439.853 569.112 439.629 569.34 439.424C569.574 439.219 569.921 439.072 570.383 438.983C569.931 438.764 569.583 438.467 569.34 438.094C569.098 437.721 568.976 437.333 568.976 436.932C568.976 436.456 569.114 436.048 569.389 435.707C569.669 435.366 570.057 435.105 570.551 434.923C571.046 434.741 571.622 434.65 572.28 434.65C572.761 434.65 573.16 434.704 573.477 434.811C573.799 434.918 574.098 435.063 574.373 435.245C574.467 435.208 574.597 435.156 574.765 435.091C574.933 435.021 575.118 434.946 575.318 434.867C575.519 434.783 575.713 434.704 575.899 434.629C576.086 434.55 576.242 434.484 576.368 434.433L576.361 435.84L575.108 436.064C575.169 436.199 575.216 436.346 575.248 436.505C575.286 436.664 575.304 436.804 575.304 436.925C575.304 437.345 575.185 437.735 574.947 438.094C574.714 438.449 574.362 438.733 573.89 438.948C573.424 439.163 572.84 439.27 572.14 439.27C572.07 439.27 571.975 439.268 571.853 439.263C571.732 439.258 571.634 439.254 571.559 439.249C571.181 439.263 570.922 439.307 570.782 439.382C570.642 439.457 570.572 439.538 570.572 439.627C570.572 439.753 570.677 439.837 570.887 439.879C571.097 439.921 571.433 439.958 571.895 439.991C572.059 440 572.273 440.012 572.539 440.026C572.805 440.04 573.102 440.059 573.428 440.082C574.254 440.133 574.88 440.341 575.304 440.705C575.729 441.064 575.941 441.531 575.941 442.105C575.941 442.772 575.633 443.321 575.017 443.75C574.401 444.179 573.468 444.394 572.217 444.394ZM572.504 443.393C573.116 443.393 573.568 443.309 573.862 443.141C574.156 442.973 574.303 442.726 574.303 442.399C574.303 442.147 574.203 441.942 574.002 441.783C573.802 441.624 573.503 441.531 573.106 441.503L571.279 441.391C571.079 441.377 570.887 441.414 570.705 441.503C570.528 441.587 570.383 441.706 570.271 441.86C570.159 442.009 570.103 442.175 570.103 442.357C570.103 442.698 570.297 442.954 570.684 443.127C571.076 443.304 571.683 443.393 572.504 443.393ZM572.196 438.269C572.64 438.269 572.999 438.157 573.274 437.933C573.55 437.704 573.687 437.382 573.687 436.967C573.687 436.538 573.55 436.204 573.274 435.966C572.999 435.723 572.64 435.602 572.196 435.602C571.744 435.602 571.377 435.723 571.097 435.966C570.822 436.209 570.684 436.542 570.684 436.967C570.684 437.368 570.817 437.686 571.083 437.919C571.349 438.152 571.72 438.269 572.196 438.269ZM583.943 442.14C583.281 442.14 582.69 441.995 582.172 441.706C581.659 441.412 581.255 440.987 580.961 440.432C580.667 439.872 580.52 439.198 580.52 438.409C580.52 437.658 580.658 437 580.933 436.435C581.213 435.866 581.608 435.422 582.116 435.105C582.63 434.783 583.239 434.622 583.943 434.622C584.508 434.622 585.005 434.734 585.434 434.958C585.864 435.182 586.207 435.492 586.463 435.889C586.725 436.286 586.881 436.736 586.932 437.24H585.483C585.446 437.021 585.364 436.813 585.238 436.617C585.112 436.416 584.942 436.255 584.727 436.134C584.517 436.008 584.261 435.945 583.957 435.945C583.411 435.945 582.97 436.146 582.634 436.547C582.298 436.948 582.13 437.564 582.13 438.395C582.13 439.16 582.289 439.769 582.606 440.222C582.928 440.675 583.388 440.901 583.985 440.901C584.284 440.901 584.541 440.836 584.755 440.705C584.97 440.57 585.138 440.404 585.259 440.208C585.385 440.007 585.465 439.807 585.497 439.606H586.911C586.869 440.096 586.718 440.532 586.456 440.915C586.195 441.298 585.85 441.599 585.42 441.818C584.991 442.033 584.499 442.14 583.943 442.14ZM588.48 442V431.598H590.16V435.812C590.276 435.63 590.43 435.455 590.622 435.287C590.813 435.114 591.046 434.974 591.322 434.867C591.602 434.755 591.935 434.699 592.323 434.699C592.785 434.699 593.207 434.788 593.59 434.965C593.972 435.142 594.278 435.399 594.507 435.735C594.735 436.066 594.85 436.463 594.85 436.925V442H593.142V437.212C593.142 436.839 593.009 436.549 592.743 436.344C592.481 436.139 592.15 436.036 591.749 436.036C591.483 436.036 591.228 436.083 590.986 436.176C590.743 436.269 590.547 436.409 590.398 436.596C590.253 436.778 590.181 437.007 590.181 437.282V442H588.48ZM598.721 442.14C598.259 442.14 597.844 442.056 597.475 441.888C597.111 441.715 596.824 441.47 596.614 441.153C596.409 440.831 596.306 440.441 596.306 439.984C596.306 439.186 596.593 438.584 597.167 438.178C597.746 437.772 598.665 437.56 599.925 437.541L601.01 437.513V437.023C601.01 436.64 600.896 436.342 600.667 436.127C600.443 435.908 600.093 435.8 599.617 435.805C599.262 435.81 598.94 435.894 598.651 436.057C598.362 436.216 598.17 436.484 598.077 436.862H596.628C596.656 436.367 596.798 435.954 597.055 435.623C597.316 435.287 597.673 435.037 598.126 434.874C598.579 434.706 599.101 434.622 599.694 434.622C600.385 434.622 600.947 434.713 601.381 434.895C601.815 435.077 602.135 435.341 602.34 435.686C602.545 436.027 602.648 436.44 602.648 436.925V442H601.213L601.073 440.698C600.816 441.244 600.487 441.622 600.086 441.832C599.689 442.037 599.234 442.14 598.721 442.14ZM599.274 440.985C599.484 440.985 599.692 440.948 599.897 440.873C600.102 440.794 600.287 440.689 600.45 440.558C600.618 440.423 600.751 440.273 600.849 440.11C600.952 439.947 601.005 439.776 601.01 439.599V438.458L600.121 438.472C599.682 438.477 599.297 438.523 598.966 438.612C598.639 438.701 598.385 438.843 598.203 439.039C598.021 439.23 597.93 439.487 597.93 439.809C597.93 440.178 598.058 440.467 598.315 440.677C598.572 440.882 598.891 440.985 599.274 440.985ZM604.49 442V434.762H606.121V442H604.49ZM604.462 433.495V431.885H606.149V433.495H604.462ZM608.14 442V434.762H609.771V436.33C609.887 435.971 610.053 435.665 610.268 435.413C610.487 435.156 610.744 434.96 611.038 434.825C611.332 434.69 611.651 434.622 611.997 434.622C612.081 434.622 612.162 434.627 612.242 434.636C612.321 434.645 612.379 434.662 612.417 434.685V436.316C612.365 436.293 612.298 436.276 612.214 436.267C612.134 436.258 612.064 436.253 612.004 436.253C611.654 436.225 611.343 436.239 611.073 436.295C610.807 436.351 610.58 436.447 610.394 436.582C610.212 436.713 610.074 436.881 609.981 437.086C609.887 437.287 609.841 437.522 609.841 437.793V442H608.14ZM613.766 435.525L614.557 433.698L613.899 433.649V431.878H615.761V433.432L614.452 435.525H613.766Z" fill="black"/>
</svg>
