<svg width="613" height="490" viewBox="0 0 613 490" fill="none" xmlns="http://www.w3.org/2000/svg">
<path d="M0 64C0 28.6538 28.6538 0 64 0V0C99.3462 0 128 28.6538 128 64V64C128 99.3462 99.3462 128 64 128V128C28.6538 128 0 99.3462 0 64V64Z" fill="#FFDF81"/>
<path d="M31.5656 69V60.068H28.2966V58.878H35.9546V60.068H32.8676V69H31.5656ZM39.2854 69.14C38.6181 69.14 38.0347 68.9977 37.5354 68.713C37.0407 68.4237 36.6557 68.0013 36.3804 67.446C36.1051 66.8907 35.9674 66.2117 35.9674 65.409C35.9674 64.653 36.0957 63.9903 36.3524 63.421C36.6091 62.8517 36.9847 62.4107 37.4794 62.098C37.9741 61.7807 38.5784 61.622 39.2924 61.622C39.9597 61.622 40.5384 61.769 41.0284 62.063C41.5184 62.3523 41.8987 62.7793 42.1694 63.344C42.4447 63.9087 42.5824 64.597 42.5824 65.409C42.5824 66.1463 42.4564 66.795 42.2044 67.355C41.9524 67.915 41.5814 68.3537 41.0914 68.671C40.6061 68.9837 40.0041 69.14 39.2854 69.14ZM39.2924 68.118C39.7217 68.118 40.0857 68.0083 40.3844 67.789C40.6831 67.5697 40.9094 67.2547 41.0634 66.844C41.2221 66.4333 41.3014 65.9457 41.3014 65.381C41.3014 64.863 41.2314 64.3987 41.0914 63.988C40.9561 63.5727 40.7414 63.2437 40.4474 63.001C40.1534 62.7583 39.7684 62.637 39.2924 62.637C38.8537 62.637 38.4827 62.7467 38.1794 62.966C37.8761 63.1807 37.6451 63.4933 37.4864 63.904C37.3324 64.3147 37.2554 64.807 37.2554 65.381C37.2554 65.8897 37.3231 66.3517 37.4584 66.767C37.5984 67.1823 37.8177 67.5113 38.1164 67.754C38.4197 67.9967 38.8117 68.118 39.2924 68.118ZM44.3034 69V61.762H45.5494V62.812C45.7501 62.4947 46.0254 62.217 46.3754 61.979C46.7254 61.741 47.1804 61.622 47.7404 61.622C48.0018 61.622 48.2678 61.6663 48.5384 61.755C48.8138 61.8437 49.0658 61.9767 49.2944 62.154C49.5231 62.3313 49.7004 62.5483 49.8264 62.805C50.0504 62.4503 50.3538 62.1657 50.7364 61.951C51.1191 61.7317 51.5508 61.622 52.0314 61.622C52.2834 61.622 52.5471 61.6617 52.8224 61.741C53.0978 61.8157 53.3521 61.951 53.5854 62.147C53.8234 62.3383 54.0171 62.6067 54.1664 62.952C54.3158 63.2927 54.3904 63.7313 54.3904 64.268V69H53.0884V64.394C53.0884 63.9553 53.0184 63.617 52.8784 63.379C52.7384 63.1363 52.5541 62.966 52.3254 62.868C52.1014 62.77 51.8611 62.721 51.6044 62.721C51.3804 62.721 51.1424 62.7653 50.8904 62.854C50.6384 62.9427 50.4238 63.092 50.2464 63.302C50.0691 63.512 49.9804 63.799 49.9804 64.163V69H48.6924V64.016C48.6924 63.7313 48.6154 63.4933 48.4614 63.302C48.3121 63.1107 48.1231 62.966 47.8944 62.868C47.6704 62.77 47.4464 62.721 47.2224 62.721C46.9751 62.721 46.7254 62.77 46.4734 62.868C46.2261 62.966 46.0161 63.1223 45.8434 63.337C45.6754 63.547 45.5914 63.8223 45.5914 64.163V69H44.3034ZM60.087 69V58.878H61.382V63.19H66.842V58.878H68.137V69H66.842V64.331H61.382V69H60.087ZM72.5287 69.14C72.0574 69.14 71.6421 69.0583 71.2827 68.895C70.9281 68.727 70.6481 68.4867 70.4427 68.174C70.2421 67.8613 70.1417 67.4833 70.1417 67.04C70.1417 66.2373 70.4217 65.64 70.9817 65.248C71.5417 64.856 72.4401 64.646 73.6767 64.618L74.9647 64.583V64.016C74.9647 63.5727 74.8317 63.2227 74.5657 62.966C74.2997 62.7047 73.8891 62.574 73.3337 62.574C72.9184 62.5787 72.5521 62.6767 72.2347 62.868C71.9174 63.0593 71.7144 63.372 71.6257 63.806H70.4847C70.5127 63.3347 70.6434 62.938 70.8767 62.616C71.1147 62.2893 71.4484 62.042 71.8777 61.874C72.3071 61.706 72.8134 61.622 73.3967 61.622C74.0267 61.622 74.5494 61.7107 74.9647 61.888C75.3847 62.0653 75.6974 62.3267 75.9027 62.672C76.1127 63.0173 76.2177 63.442 76.2177 63.946V69H75.1117L75.0137 67.642C74.7384 68.2067 74.3837 68.5987 73.9497 68.818C73.5204 69.0327 73.0467 69.14 72.5287 69.14ZM72.9137 68.209C73.1611 68.209 73.4037 68.1647 73.6417 68.076C73.8844 67.9873 74.1037 67.8683 74.2997 67.719C74.5004 67.565 74.6614 67.3947 74.7827 67.208C74.9041 67.0167 74.9647 66.8207 74.9647 66.62V65.381L73.8937 65.402C73.3384 65.4113 72.8764 65.4673 72.5077 65.57C72.1391 65.6727 71.8614 65.8337 71.6747 66.053C71.4881 66.2723 71.3947 66.5593 71.3947 66.914C71.3947 67.32 71.5371 67.6373 71.8217 67.866C72.1064 68.0947 72.4704 68.209 72.9137 68.209ZM78.237 69V61.762H79.49V62.812C79.6067 62.6113 79.7677 62.4223 79.973 62.245C80.183 62.0677 80.435 61.9253 80.729 61.818C81.0277 61.7107 81.3707 61.657 81.758 61.657C82.2153 61.657 82.6353 61.748 83.018 61.93C83.4053 62.112 83.7133 62.3967 83.942 62.784C84.1753 63.1667 84.292 63.6613 84.292 64.268V69H82.997V64.394C82.997 63.8293 82.8477 63.4117 82.549 63.141C82.255 62.8657 81.8723 62.728 81.401 62.728C81.0743 62.728 80.7687 62.7817 80.484 62.889C80.1993 62.9917 79.9683 63.1503 79.791 63.365C79.6137 63.575 79.525 63.841 79.525 64.163V69H78.237ZM86.3171 69V58.598H87.6051V65.381L91.0071 61.762H92.4911L89.8801 64.52L92.6731 69H91.3011L89.0331 65.367L87.6051 66.844V69H86.3171ZM96.6184 69.14C96.1144 69.14 95.6454 69.063 95.2114 68.909C94.782 68.7503 94.425 68.5053 94.1404 68.174C93.8557 67.838 93.6784 67.411 93.6084 66.893H94.7844C94.845 67.1777 94.9617 67.4157 95.1344 67.607C95.307 67.7937 95.5194 67.936 95.7714 68.034C96.028 68.1273 96.308 68.174 96.6114 68.174C97.1014 68.174 97.4957 68.083 97.7944 67.901C98.093 67.719 98.2424 67.439 98.2424 67.061C98.2424 66.795 98.163 66.5827 98.0044 66.424C97.8504 66.2607 97.6077 66.1417 97.2764 66.067L95.7784 65.696C95.195 65.556 94.7284 65.3367 94.3784 65.038C94.033 64.7393 93.858 64.3217 93.8534 63.785C93.8534 63.3603 93.956 62.987 94.1614 62.665C94.3667 62.343 94.6724 62.0887 95.0784 61.902C95.489 61.7153 96 61.622 96.6114 61.622C97.4 61.622 98.0347 61.7993 98.5154 62.154C98.996 62.504 99.248 63.0197 99.2714 63.701H98.1234C98.0767 63.3557 97.9227 63.0827 97.6614 62.882C97.4 62.6767 97.0454 62.574 96.5974 62.574C96.14 62.574 95.7644 62.6673 95.4704 62.854C95.181 63.036 95.0364 63.3207 95.0364 63.708C95.0364 63.9647 95.139 64.1677 95.3444 64.317C95.5544 64.4617 95.8577 64.583 96.2544 64.681L97.7104 65.045C98.0417 65.1337 98.317 65.2503 98.5364 65.395C98.7557 65.5397 98.9284 65.7007 99.0544 65.878C99.1804 66.0553 99.269 66.242 99.3204 66.438C99.3764 66.6293 99.4044 66.8137 99.4044 66.991C99.4044 67.4343 99.2947 67.817 99.0754 68.139C98.856 68.4563 98.5387 68.7037 98.1234 68.881C97.708 69.0537 97.2064 69.14 96.6184 69.14Z" fill="#1A1B1D"/>
<path d="M485 64C485 28.6538 513.654 0 549 0V0C584.346 0 613 28.6538 613 64V64C613 99.3462 584.346 128 549 128V128C513.654 128 485 99.3462 485 64V64Z" fill="#FFDF81"/>
<path d="M503.504 69V58.878H504.799V63.19H510.259V58.878H511.554V69H510.259V64.331H504.799V69H503.504ZM516.617 69.14C516.239 69.1353 515.882 69.0817 515.546 68.979C515.214 68.8717 514.92 68.7153 514.664 68.51C514.407 68.3047 514.204 68.0503 514.055 67.747C513.91 67.439 513.838 67.082 513.838 66.676V61.762H515.133V66.543C515.133 67.0143 515.277 67.397 515.567 67.691C515.861 67.985 516.302 68.132 516.89 68.132C517.422 68.132 517.849 67.9943 518.171 67.719C518.497 67.439 518.661 67.0237 518.661 66.473V61.762H519.949V69H518.92L518.787 67.614C518.698 67.978 518.546 68.272 518.332 68.496C518.122 68.72 517.867 68.8857 517.569 68.993C517.275 69.0957 516.957 69.1447 516.617 69.14ZM525.109 71.394C523.975 71.394 523.091 71.2283 522.456 70.897C521.822 70.5703 521.504 70.1013 521.504 69.49C521.504 69.2287 521.565 69.007 521.686 68.825C521.808 68.6383 521.952 68.4843 522.12 68.363C522.288 68.2417 522.445 68.146 522.589 68.076C522.734 68.0013 522.83 67.9477 522.876 67.915C522.792 67.8683 522.692 67.81 522.575 67.74C522.459 67.67 522.354 67.5767 522.26 67.46C522.172 67.3433 522.127 67.1917 522.127 67.005C522.127 66.7763 522.235 66.5663 522.449 66.375C522.664 66.1837 522.984 66.0413 523.408 65.948C522.984 65.7333 522.652 65.4487 522.414 65.094C522.176 64.7393 522.057 64.3543 522.057 63.939C522.057 63.4723 522.183 63.0663 522.435 62.721C522.687 62.3757 523.049 62.112 523.52 61.93C523.992 61.7433 524.554 61.65 525.207 61.65C525.679 61.65 526.073 61.706 526.39 61.818C526.712 61.9253 527.011 62.0793 527.286 62.28C527.361 62.2473 527.48 62.1983 527.643 62.133C527.807 62.063 527.984 61.9883 528.175 61.909C528.371 61.8297 528.553 61.755 528.721 61.685C528.894 61.6103 529.032 61.5543 529.134 61.517L529.127 62.714L527.86 62.952C527.935 63.1013 527.993 63.2647 528.035 63.442C528.077 63.6193 528.098 63.785 528.098 63.939C528.098 64.3637 527.986 64.7487 527.762 65.094C527.543 65.4393 527.209 65.7147 526.761 65.92C526.313 66.1253 525.753 66.228 525.081 66.228C525.025 66.228 524.953 66.228 524.864 66.228C524.78 66.2233 524.708 66.2187 524.647 66.214C524.153 66.228 523.812 66.284 523.625 66.382C523.443 66.4753 523.352 66.5803 523.352 66.697C523.352 66.8323 523.457 66.9257 523.667 66.977C523.877 67.0283 524.232 67.0727 524.731 67.11C524.913 67.1193 525.137 67.131 525.403 67.145C525.674 67.159 525.975 67.1777 526.306 67.201C527.062 67.2477 527.646 67.4413 528.056 67.782C528.467 68.1227 528.672 68.5823 528.672 69.161C528.672 69.819 528.378 70.3557 527.79 70.771C527.207 71.1863 526.313 71.394 525.109 71.394ZM525.34 70.561C526.008 70.561 526.519 70.4607 526.873 70.26C527.233 70.0593 527.412 69.756 527.412 69.35C527.412 69.0607 527.303 68.825 527.083 68.643C526.864 68.4563 526.533 68.349 526.089 68.321L524.059 68.188C523.877 68.1787 523.688 68.2253 523.492 68.328C523.296 68.426 523.131 68.5637 522.995 68.741C522.86 68.9183 522.792 69.119 522.792 69.343C522.792 69.7257 523 70.0243 523.415 70.239C523.831 70.4537 524.472 70.561 525.34 70.561ZM525.123 65.395C525.641 65.395 526.059 65.2737 526.376 65.031C526.698 64.7883 526.859 64.429 526.859 63.953C526.859 63.463 526.698 63.0897 526.376 62.833C526.059 62.5763 525.641 62.448 525.123 62.448C524.591 62.448 524.162 62.5787 523.835 62.84C523.513 63.0967 523.352 63.4677 523.352 63.953C523.352 64.4103 523.506 64.765 523.814 65.017C524.127 65.269 524.563 65.395 525.123 65.395ZM533.439 69.14C532.771 69.14 532.188 68.9977 531.689 68.713C531.194 68.4237 530.809 68.0013 530.534 67.446C530.258 66.8907 530.121 66.2117 530.121 65.409C530.121 64.653 530.249 63.9903 530.506 63.421C530.762 62.8517 531.138 62.4107 531.633 62.098C532.127 61.7807 532.732 61.622 533.446 61.622C534.113 61.622 534.692 61.769 535.182 62.063C535.672 62.3523 536.052 62.7793 536.323 63.344C536.598 63.9087 536.736 64.597 536.736 65.409C536.736 66.1463 536.61 66.795 536.358 67.355C536.106 67.915 535.735 68.3537 535.245 68.671C534.759 68.9837 534.157 69.14 533.439 69.14ZM533.446 68.118C533.875 68.118 534.239 68.0083 534.538 67.789C534.836 67.5697 535.063 67.2547 535.217 66.844C535.375 66.4333 535.455 65.9457 535.455 65.381C535.455 64.863 535.385 64.3987 535.245 63.988C535.109 63.5727 534.895 63.2437 534.601 63.001C534.307 62.7583 533.922 62.637 533.446 62.637C533.007 62.637 532.636 62.7467 532.333 62.966C532.029 63.1807 531.798 63.4933 531.64 63.904C531.486 64.3147 531.409 64.807 531.409 65.381C531.409 65.8897 531.476 66.3517 531.612 66.767C531.752 67.1823 531.971 67.5113 532.27 67.754C532.573 67.9967 532.965 68.118 533.446 68.118ZM543.621 69L540.702 58.878H542.011L544.251 66.935L546.533 58.878H547.548L549.823 66.935L552.105 58.878H553.407L550.453 69H549.256L547.037 61.153L544.783 69H543.621ZM557.211 69.14C556.539 69.14 555.946 68.993 555.433 68.699C554.92 68.405 554.518 67.9827 554.229 67.432C553.94 66.8813 553.795 66.221 553.795 65.451C553.795 64.6903 553.926 64.023 554.187 63.449C554.448 62.875 554.826 62.427 555.321 62.105C555.82 61.783 556.42 61.622 557.12 61.622C557.801 61.622 558.378 61.769 558.849 62.063C559.32 62.357 559.677 62.7723 559.92 63.309C560.167 63.841 560.291 64.4733 560.291 65.206V65.682H555.104C555.104 66.1393 555.179 66.5547 555.328 66.928C555.482 67.2967 555.713 67.5907 556.021 67.81C556.329 68.0293 556.719 68.139 557.19 68.139C557.652 68.139 558.049 68.0317 558.38 67.817C558.716 67.6023 558.931 67.292 559.024 66.886H560.242C560.158 67.376 559.962 67.789 559.654 68.125C559.351 68.461 558.984 68.7153 558.555 68.888C558.13 69.056 557.682 69.14 557.211 69.14ZM555.111 64.807H559.045C559.045 64.3917 558.975 64.0183 558.835 63.687C558.695 63.351 558.48 63.0873 558.191 62.896C557.906 62.7 557.547 62.602 557.113 62.602C556.66 62.602 556.285 62.7117 555.986 62.931C555.687 63.1457 555.466 63.4233 555.321 63.764C555.176 64.1 555.106 64.4477 555.111 64.807ZM564.03 69.14C563.558 69.14 563.143 69.0583 562.784 68.895C562.429 68.727 562.149 68.4867 561.944 68.174C561.743 67.8613 561.643 67.4833 561.643 67.04C561.643 66.2373 561.923 65.64 562.483 65.248C563.043 64.856 563.941 64.646 565.178 64.618L566.466 64.583V64.016C566.466 63.5727 566.333 63.2227 566.067 62.966C565.801 62.7047 565.39 62.574 564.835 62.574C564.419 62.5787 564.053 62.6767 563.736 62.868C563.418 63.0593 563.215 63.372 563.127 63.806H561.986C562.014 63.3347 562.144 62.938 562.378 62.616C562.616 62.2893 562.949 62.042 563.379 61.874C563.808 61.706 564.314 61.622 564.898 61.622C565.528 61.622 566.05 61.7107 566.466 61.888C566.886 62.0653 567.198 62.3267 567.404 62.672C567.614 63.0173 567.719 63.442 567.719 63.946V69H566.613L566.515 67.642C566.239 68.2067 565.885 68.5987 565.451 68.818C565.021 69.0327 564.548 69.14 564.03 69.14ZM564.415 68.209C564.662 68.209 564.905 68.1647 565.143 68.076C565.385 67.9873 565.605 67.8683 565.801 67.719C566.001 67.565 566.162 67.3947 566.284 67.208C566.405 67.0167 566.466 66.8207 566.466 66.62V65.381L565.395 65.402C564.839 65.4113 564.377 65.4673 564.009 65.57C563.64 65.6727 563.362 65.8337 563.176 66.053C562.989 66.2723 562.896 66.5593 562.896 66.914C562.896 67.32 563.038 67.6373 563.323 67.866C563.607 68.0947 563.971 68.209 564.415 68.209ZM571.382 69L568.764 61.762H569.982L571.907 67.376H572.026L573.958 61.762H575.169L572.565 69H571.382ZM576.609 69V61.762H577.862V69H576.609ZM576.574 60.229V58.885H577.897V60.229H576.574ZM580.115 69V61.762H581.368V62.812C581.485 62.6113 581.646 62.4223 581.851 62.245C582.061 62.0677 582.313 61.9253 582.607 61.818C582.906 61.7107 583.249 61.657 583.636 61.657C584.093 61.657 584.513 61.748 584.896 61.93C585.283 62.112 585.591 62.3967 585.82 62.784C586.053 63.1667 586.17 63.6613 586.17 64.268V69H584.875V64.394C584.875 63.8293 584.726 63.4117 584.427 63.141C584.133 62.8657 583.75 62.728 583.279 62.728C582.952 62.728 582.647 62.7817 582.362 62.889C582.077 62.9917 581.846 63.1503 581.669 63.365C581.492 63.575 581.403 63.841 581.403 64.163V69H580.115ZM591.254 71.394C590.12 71.394 589.236 71.2283 588.601 70.897C587.966 70.5703 587.649 70.1013 587.649 69.49C587.649 69.2287 587.71 69.007 587.831 68.825C587.952 68.6383 588.097 68.4843 588.265 68.363C588.433 68.2417 588.589 68.146 588.734 68.076C588.879 68.0013 588.974 67.9477 589.021 67.915C588.937 67.8683 588.837 67.81 588.72 67.74C588.603 67.67 588.498 67.5767 588.405 67.46C588.316 67.3433 588.272 67.1917 588.272 67.005C588.272 66.7763 588.379 66.5663 588.594 66.375C588.809 66.1837 589.128 66.0413 589.553 65.948C589.128 65.7333 588.797 65.4487 588.559 65.094C588.321 64.7393 588.202 64.3543 588.202 63.939C588.202 63.4723 588.328 63.0663 588.58 62.721C588.832 62.3757 589.194 62.112 589.665 61.93C590.136 61.7433 590.699 61.65 591.352 61.65C591.823 61.65 592.218 61.706 592.535 61.818C592.857 61.9253 593.156 62.0793 593.431 62.28C593.506 62.2473 593.625 62.1983 593.788 62.133C593.951 62.063 594.129 61.9883 594.32 61.909C594.516 61.8297 594.698 61.755 594.866 61.685C595.039 61.6103 595.176 61.5543 595.279 61.517L595.272 62.714L594.005 62.952C594.08 63.1013 594.138 63.2647 594.18 63.442C594.222 63.6193 594.243 63.785 594.243 63.939C594.243 64.3637 594.131 64.7487 593.907 65.094C593.688 65.4393 593.354 65.7147 592.906 65.92C592.458 66.1253 591.898 66.228 591.226 66.228C591.17 66.228 591.098 66.228 591.009 66.228C590.925 66.2233 590.853 66.2187 590.792 66.214C590.297 66.228 589.957 66.284 589.77 66.382C589.588 66.4753 589.497 66.5803 589.497 66.697C589.497 66.8323 589.602 66.9257 589.812 66.977C590.022 67.0283 590.377 67.0727 590.876 67.11C591.058 67.1193 591.282 67.131 591.548 67.145C591.819 67.159 592.12 67.1777 592.451 67.201C593.207 67.2477 593.79 67.4413 594.201 67.782C594.612 68.1227 594.817 68.5823 594.817 69.161C594.817 69.819 594.523 70.3557 593.935 70.771C593.352 71.1863 592.458 71.394 591.254 71.394ZM591.485 70.561C592.152 70.561 592.663 70.4607 593.018 70.26C593.377 70.0593 593.557 69.756 593.557 69.35C593.557 69.0607 593.447 68.825 593.228 68.643C593.009 68.4563 592.677 68.349 592.234 68.321L590.204 68.188C590.022 68.1787 589.833 68.2253 589.637 68.328C589.441 68.426 589.275 68.5637 589.14 68.741C589.005 68.9183 588.937 69.119 588.937 69.343C588.937 69.7257 589.145 70.0243 589.56 70.239C589.975 70.4537 590.617 70.561 591.485 70.561ZM591.268 65.395C591.786 65.395 592.204 65.2737 592.521 65.031C592.843 64.7883 593.004 64.429 593.004 63.953C593.004 63.463 592.843 63.0897 592.521 62.833C592.204 62.5763 591.786 62.448 591.268 62.448C590.736 62.448 590.307 62.5787 589.98 62.84C589.658 63.0967 589.497 63.4677 589.497 63.953C589.497 64.4103 589.651 64.765 589.959 65.017C590.272 65.269 590.708 65.395 591.268 65.395Z" fill="#1A1B1D"/>
<path d="M245 426C245 390.654 273.654 362 309 362V362C344.346 362 373 390.654 373 426V426C373 461.346 344.346 490 309 490V490C273.654 490 245 461.346 245 426V426Z" fill="#FFDF81"/>
<path d="M256.572 431L256.579 420.878H257.902V429.838H262.683V431H256.572ZM266.184 431.14C265.713 431.14 265.297 431.058 264.938 430.895C264.583 430.727 264.303 430.487 264.098 430.174C263.897 429.861 263.797 429.483 263.797 429.04C263.797 428.237 264.077 427.64 264.637 427.248C265.197 426.856 266.095 426.646 267.332 426.618L268.62 426.583V426.016C268.62 425.573 268.487 425.223 268.221 424.966C267.955 424.705 267.544 424.574 266.989 424.574C266.574 424.579 266.207 424.677 265.89 424.868C265.573 425.059 265.37 425.372 265.281 425.806H264.14C264.168 425.335 264.299 424.938 264.532 424.616C264.77 424.289 265.104 424.042 265.533 423.874C265.962 423.706 266.469 423.622 267.052 423.622C267.682 423.622 268.205 423.711 268.62 423.888C269.04 424.065 269.353 424.327 269.558 424.672C269.768 425.017 269.873 425.442 269.873 425.946V431H268.767L268.669 429.642C268.394 430.207 268.039 430.599 267.605 430.818C267.176 431.033 266.702 431.14 266.184 431.14ZM266.569 430.209C266.816 430.209 267.059 430.165 267.297 430.076C267.54 429.987 267.759 429.868 267.955 429.719C268.156 429.565 268.317 429.395 268.438 429.208C268.559 429.017 268.62 428.821 268.62 428.62V427.381L267.549 427.402C266.994 427.411 266.532 427.467 266.163 427.57C265.794 427.673 265.517 427.834 265.33 428.053C265.143 428.272 265.05 428.559 265.05 428.914C265.05 429.32 265.192 429.637 265.477 429.866C265.762 430.095 266.126 430.209 266.569 430.209ZM271.892 431V423.762H273.145V424.812C273.262 424.611 273.423 424.422 273.628 424.245C273.838 424.068 274.09 423.925 274.384 423.818C274.683 423.711 275.026 423.657 275.413 423.657C275.871 423.657 276.291 423.748 276.673 423.93C277.061 424.112 277.369 424.397 277.597 424.784C277.831 425.167 277.947 425.661 277.947 426.268V431H276.652V426.394C276.652 425.829 276.503 425.412 276.204 425.141C275.91 424.866 275.528 424.728 275.056 424.728C274.73 424.728 274.424 424.782 274.139 424.889C273.855 424.992 273.624 425.15 273.446 425.365C273.269 425.575 273.18 425.841 273.18 426.163V431H271.892ZM281.975 431.14C281.504 431.14 281.088 431.058 280.729 430.895C280.374 430.727 280.094 430.487 279.889 430.174C279.688 429.861 279.588 429.483 279.588 429.04C279.588 428.237 279.868 427.64 280.428 427.248C280.988 426.856 281.886 426.646 283.123 426.618L284.411 426.583V426.016C284.411 425.573 284.278 425.223 284.012 424.966C283.746 424.705 283.335 424.574 282.78 424.574C282.365 424.579 281.998 424.677 281.681 424.868C281.364 425.059 281.161 425.372 281.072 425.806H279.931C279.959 425.335 280.09 424.938 280.323 424.616C280.561 424.289 280.895 424.042 281.324 423.874C281.753 423.706 282.26 423.622 282.843 423.622C283.473 423.622 283.996 423.711 284.411 423.888C284.831 424.065 285.144 424.327 285.349 424.672C285.559 425.017 285.664 425.442 285.664 425.946V431H284.558L284.46 429.642C284.185 430.207 283.83 430.599 283.396 430.818C282.967 431.033 282.493 431.14 281.975 431.14ZM282.36 430.209C282.607 430.209 282.85 430.165 283.088 430.076C283.331 429.987 283.55 429.868 283.746 429.719C283.947 429.565 284.108 429.395 284.229 429.208C284.35 429.017 284.411 428.821 284.411 428.62V427.381L283.34 427.402C282.785 427.411 282.323 427.467 281.954 427.57C281.585 427.673 281.308 427.834 281.121 428.053C280.934 428.272 280.841 428.559 280.841 428.914C280.841 429.32 280.983 429.637 281.268 429.866C281.553 430.095 281.917 430.209 282.36 430.209ZM292.929 431L290.01 420.878H291.319L293.559 428.935L295.841 420.878H296.856L299.131 428.935L301.413 420.878H302.715L299.761 431H298.564L296.345 423.153L294.091 431H292.929ZM305.518 431.14C305.047 431.14 304.631 431.058 304.272 430.895C303.917 430.727 303.637 430.487 303.432 430.174C303.231 429.861 303.131 429.483 303.131 429.04C303.131 428.237 303.411 427.64 303.971 427.248C304.531 426.856 305.429 426.646 306.666 426.618L307.954 426.583V426.016C307.954 425.573 307.821 425.223 307.555 424.966C307.289 424.705 306.878 424.574 306.323 424.574C305.908 424.579 305.541 424.677 305.224 424.868C304.907 425.059 304.704 425.372 304.615 425.806H303.474C303.502 425.335 303.633 424.938 303.866 424.616C304.104 424.289 304.438 424.042 304.867 423.874C305.296 423.706 305.803 423.622 306.386 423.622C307.016 423.622 307.539 423.711 307.954 423.888C308.374 424.065 308.687 424.327 308.892 424.672C309.102 425.017 309.207 425.442 309.207 425.946V431H308.101L308.003 429.642C307.728 430.207 307.373 430.599 306.939 430.818C306.51 431.033 306.036 431.14 305.518 431.14ZM305.903 430.209C306.15 430.209 306.393 430.165 306.631 430.076C306.874 429.987 307.093 429.868 307.289 429.719C307.49 429.565 307.651 429.395 307.772 429.208C307.893 429.017 307.954 428.821 307.954 428.62V427.381L306.883 427.402C306.328 427.411 305.866 427.467 305.497 427.57C305.128 427.673 304.851 427.834 304.664 428.053C304.477 428.272 304.384 428.559 304.384 428.914C304.384 429.32 304.526 429.637 304.811 429.866C305.096 430.095 305.46 430.209 305.903 430.209ZM314.138 431.14C313.485 431.14 312.906 430.998 312.402 430.713C311.903 430.428 311.511 430.008 311.226 429.453C310.946 428.898 310.806 428.216 310.806 427.409C310.806 426.653 310.935 425.993 311.191 425.428C311.453 424.859 311.831 424.415 312.325 424.098C312.825 423.781 313.429 423.622 314.138 423.622C314.656 423.622 315.121 423.722 315.531 423.923C315.947 424.119 316.287 424.399 316.553 424.763C316.819 425.127 316.983 425.556 317.043 426.051H315.895C315.853 425.799 315.755 425.568 315.601 425.358C315.452 425.148 315.254 424.98 315.006 424.854C314.764 424.728 314.477 424.665 314.145 424.665C313.525 424.665 313.018 424.889 312.626 425.337C312.239 425.785 312.045 426.471 312.045 427.395C312.045 428.23 312.223 428.9 312.577 429.404C312.937 429.903 313.464 430.153 314.159 430.153C314.491 430.153 314.78 430.09 315.027 429.964C315.275 429.833 315.473 429.663 315.622 429.453C315.772 429.238 315.867 429.01 315.909 428.767H317.036C316.976 429.252 316.81 429.672 316.539 430.027C316.273 430.382 315.933 430.657 315.517 430.853C315.107 431.044 314.647 431.14 314.138 431.14ZM318.759 431V420.598H320.019V424.826C320.141 424.625 320.304 424.439 320.509 424.266C320.715 424.089 320.964 423.946 321.258 423.839C321.552 423.727 321.893 423.671 322.28 423.671C322.752 423.671 323.179 423.76 323.561 423.937C323.944 424.11 324.247 424.357 324.471 424.679C324.695 425.001 324.807 425.384 324.807 425.827V431H323.512V426.086C323.512 425.652 323.363 425.318 323.064 425.085C322.77 424.847 322.385 424.728 321.909 424.728C321.587 424.728 321.284 424.782 320.999 424.889C320.715 424.992 320.484 425.15 320.306 425.365C320.134 425.575 320.047 425.843 320.047 426.17V431H318.759ZM329.724 431.14C329.057 431.14 328.473 430.998 327.974 430.713C327.479 430.424 327.094 430.001 326.819 429.446C326.544 428.891 326.406 428.212 326.406 427.409C326.406 426.653 326.534 425.99 326.791 425.421C327.048 424.852 327.423 424.411 327.918 424.098C328.413 423.781 329.017 423.622 329.731 423.622C330.398 423.622 330.977 423.769 331.467 424.063C331.957 424.352 332.337 424.779 332.608 425.344C332.883 425.909 333.021 426.597 333.021 427.409C333.021 428.146 332.895 428.795 332.643 429.355C332.391 429.915 332.02 430.354 331.53 430.671C331.045 430.984 330.443 431.14 329.724 431.14ZM329.731 430.118C330.16 430.118 330.524 430.008 330.823 429.789C331.122 429.57 331.348 429.255 331.502 428.844C331.661 428.433 331.74 427.946 331.74 427.381C331.74 426.863 331.67 426.399 331.53 425.988C331.395 425.573 331.18 425.244 330.886 425.001C330.592 424.758 330.207 424.637 329.731 424.637C329.292 424.637 328.921 424.747 328.618 424.966C328.315 425.181 328.084 425.493 327.925 425.904C327.771 426.315 327.694 426.807 327.694 427.381C327.694 427.89 327.762 428.352 327.897 428.767C328.037 429.182 328.256 429.511 328.555 429.754C328.858 429.997 329.25 430.118 329.731 430.118ZM336.179 431L333.939 423.762H335.143L336.795 429.327H336.907L338.538 423.762H339.518L341.212 429.313H341.331L342.913 423.762H344.131L341.933 431H340.659L339.014 425.659L337.439 431H336.179ZM348.037 431.14C347.533 431.14 347.064 431.063 346.63 430.909C346.201 430.75 345.844 430.505 345.559 430.174C345.275 429.838 345.097 429.411 345.027 428.893H346.203C346.264 429.178 346.381 429.416 346.553 429.607C346.726 429.794 346.938 429.936 347.19 430.034C347.447 430.127 347.727 430.174 348.03 430.174C348.52 430.174 348.915 430.083 349.213 429.901C349.512 429.719 349.661 429.439 349.661 429.061C349.661 428.795 349.582 428.583 349.423 428.424C349.269 428.261 349.027 428.142 348.695 428.067L347.197 427.696C346.614 427.556 346.147 427.337 345.797 427.038C345.452 426.739 345.277 426.322 345.272 425.785C345.272 425.36 345.375 424.987 345.58 424.665C345.786 424.343 346.091 424.089 346.497 423.902C346.908 423.715 347.419 423.622 348.03 423.622C348.819 423.622 349.454 423.799 349.934 424.154C350.415 424.504 350.667 425.02 350.69 425.701H349.542C349.496 425.356 349.342 425.083 349.08 424.882C348.819 424.677 348.464 424.574 348.016 424.574C347.559 424.574 347.183 424.667 346.889 424.854C346.6 425.036 346.455 425.321 346.455 425.708C346.455 425.965 346.558 426.168 346.763 426.317C346.973 426.462 347.277 426.583 347.673 426.681L349.129 427.045C349.461 427.134 349.736 427.25 349.955 427.395C350.175 427.54 350.347 427.701 350.473 427.878C350.599 428.055 350.688 428.242 350.739 428.438C350.795 428.629 350.823 428.814 350.823 428.991C350.823 429.434 350.714 429.817 350.494 430.139C350.275 430.456 349.958 430.704 349.542 430.881C349.127 431.054 348.625 431.14 348.037 431.14ZM352.515 431V420.598H353.803V427.381L357.205 423.762H358.689L356.078 426.52L358.871 431H357.499L355.231 427.367L353.803 428.844V431H352.515ZM360.412 431V423.762H361.665V431H360.412ZM360.377 422.229V420.885H361.7V422.229H360.377Z" fill="#1A1B1D"/>
<path d="M485 296C485 260.654 513.654 232 549 232V232C584.346 232 613 260.654 613 296V296C613 331.346 584.346 360 549 360V360C513.654 360 485 331.346 485 296V296Z" fill="#FFDF81"/>
<path d="M517.741 301V292.068H514.472V290.878H522.13V292.068H519.043V301H517.741ZM523.534 301V290.598H524.794V294.826C524.915 294.625 525.079 294.439 525.284 294.266C525.489 294.089 525.739 293.946 526.033 293.839C526.327 293.727 526.668 293.671 527.055 293.671C527.526 293.671 527.953 293.76 528.336 293.937C528.719 294.11 529.022 294.357 529.246 294.679C529.47 295.001 529.582 295.384 529.582 295.827V301H528.287V296.086C528.287 295.652 528.138 295.318 527.839 295.085C527.545 294.847 527.16 294.728 526.684 294.728C526.362 294.728 526.059 294.782 525.774 294.889C525.489 294.992 525.258 295.15 525.081 295.365C524.908 295.575 524.822 295.843 524.822 296.17V301H523.534ZM534.659 301.14C533.987 301.14 533.395 300.993 532.881 300.699C532.368 300.405 531.967 299.983 531.677 299.432C531.388 298.881 531.243 298.221 531.243 297.451C531.243 296.69 531.374 296.023 531.635 295.449C531.897 294.875 532.275 294.427 532.769 294.105C533.269 293.783 533.868 293.622 534.568 293.622C535.25 293.622 535.826 293.769 536.297 294.063C536.769 294.357 537.126 294.772 537.368 295.309C537.616 295.841 537.739 296.473 537.739 297.206V297.682H532.552C532.552 298.139 532.627 298.555 532.776 298.928C532.93 299.297 533.161 299.591 533.469 299.81C533.777 300.029 534.167 300.139 534.638 300.139C535.1 300.139 535.497 300.032 535.828 299.817C536.164 299.602 536.379 299.292 536.472 298.886H537.69C537.606 299.376 537.41 299.789 537.102 300.125C536.799 300.461 536.433 300.715 536.003 300.888C535.579 301.056 535.131 301.14 534.659 301.14ZM532.559 296.807H536.493C536.493 296.392 536.423 296.018 536.283 295.687C536.143 295.351 535.929 295.087 535.639 294.896C535.355 294.7 534.995 294.602 534.561 294.602C534.109 294.602 533.733 294.712 533.434 294.931C533.136 295.146 532.914 295.423 532.769 295.764C532.625 296.1 532.555 296.448 532.559 296.807ZM543.118 301V290.878H544.91L547.962 299.236L551.056 290.878H552.841V301H551.504V292.817L548.571 301H547.36L544.448 292.894V301H543.118ZM557.242 301.14C556.77 301.14 556.355 301.058 555.996 300.895C555.641 300.727 555.361 300.487 555.156 300.174C554.955 299.861 554.855 299.483 554.855 299.04C554.855 298.237 555.135 297.64 555.695 297.248C556.255 296.856 557.153 296.646 558.39 296.618L559.678 296.583V296.016C559.678 295.573 559.545 295.223 559.279 294.966C559.013 294.705 558.602 294.574 558.047 294.574C557.631 294.579 557.265 294.677 556.948 294.868C556.63 295.059 556.427 295.372 556.339 295.806H555.198C555.226 295.335 555.356 294.938 555.59 294.616C555.828 294.289 556.161 294.042 556.591 293.874C557.02 293.706 557.526 293.622 558.11 293.622C558.74 293.622 559.262 293.711 559.678 293.888C560.098 294.065 560.41 294.327 560.616 294.672C560.826 295.017 560.931 295.442 560.931 295.946V301H559.825L559.727 299.642C559.451 300.207 559.097 300.599 558.663 300.818C558.233 301.033 557.76 301.14 557.242 301.14ZM557.627 300.209C557.874 300.209 558.117 300.165 558.355 300.076C558.597 299.987 558.817 299.868 559.013 299.719C559.213 299.565 559.374 299.395 559.496 299.208C559.617 299.017 559.678 298.821 559.678 298.62V297.381L558.607 297.402C558.051 297.411 557.589 297.467 557.221 297.57C556.852 297.673 556.574 297.834 556.388 298.053C556.201 298.272 556.108 298.559 556.108 298.914C556.108 299.32 556.25 299.637 556.535 299.866C556.819 300.095 557.183 300.209 557.627 300.209ZM565.302 301.035C564.803 301.035 564.415 300.967 564.14 300.832C563.865 300.697 563.671 300.496 563.559 300.23C563.452 299.964 563.398 299.637 563.398 299.25V294.707H562.222V293.762H563.433L563.748 291.655H564.7V293.755H566.331V294.707H564.7V299.208C564.7 299.465 564.726 299.654 564.777 299.775C564.833 299.892 564.924 299.966 565.05 299.999C565.176 300.032 565.353 300.048 565.582 300.048H566.373V300.916C566.284 300.949 566.149 300.977 565.967 301C565.79 301.023 565.568 301.035 565.302 301.035ZM568.091 301V293.762H569.323V295.155C569.444 294.81 569.614 294.525 569.834 294.301C570.053 294.072 570.303 293.902 570.583 293.79C570.867 293.678 571.161 293.622 571.465 293.622C571.572 293.622 571.677 293.629 571.78 293.643C571.882 293.657 571.962 293.68 572.018 293.713V294.966C571.948 294.933 571.857 294.912 571.745 294.903C571.637 294.889 571.546 294.882 571.472 294.882C571.182 294.863 570.912 294.882 570.66 294.938C570.408 294.989 570.186 295.08 569.995 295.211C569.803 295.342 569.652 295.514 569.54 295.729C569.432 295.939 569.379 296.196 569.379 296.499V301H568.091ZM573.594 301V293.762H574.847V301H573.594ZM573.559 292.229V290.885H574.882V292.229H573.559ZM576.388 301L579.174 297.241L576.612 293.762H578.019L579.902 296.303L581.785 293.762H583.199L580.623 297.241L583.409 301H582.002L579.895 298.165L577.802 301H576.388Z" fill="#1A1B1D"/>
<path d="M0 296C0 260.654 28.6538 232 64 232V232C99.3462 232 128 260.654 128 296V296C128 331.346 99.3462 360 64 360V360C28.6538 360 0 331.346 0 296V296Z" fill="#FFDF81"/>
<path d="M31.6411 301.14C30.7311 301.14 29.9541 300.932 29.3101 300.517C28.6707 300.102 28.1807 299.504 27.8401 298.725C27.5041 297.946 27.3361 297.005 27.3361 295.904C27.3361 294.807 27.5041 293.874 27.8401 293.104C28.1761 292.334 28.6637 291.748 29.3031 291.347C29.9471 290.941 30.7264 290.738 31.6411 290.738C32.3551 290.738 32.9874 290.887 33.5381 291.186C34.0887 291.48 34.5321 291.874 34.8681 292.369C35.2041 292.864 35.4024 293.407 35.4631 294H34.0841C34.0094 293.603 33.8671 293.244 33.6571 292.922C33.4471 292.6 33.1717 292.343 32.8311 292.152C32.4904 291.961 32.0821 291.865 31.6061 291.865C30.9947 291.865 30.4767 292.01 30.0521 292.299C29.6321 292.584 29.3124 293.025 29.0931 293.622C28.8784 294.219 28.7711 294.985 28.7711 295.918C28.7711 297.327 29.0114 298.363 29.4921 299.026C29.9774 299.684 30.6821 300.013 31.6061 300.013C32.0821 300.013 32.4904 299.913 32.8311 299.712C33.1717 299.511 33.4471 299.243 33.6571 298.907C33.8671 298.571 34.0094 298.207 34.0841 297.815H35.4631C35.4117 298.244 35.2951 298.66 35.1131 299.061C34.9357 299.458 34.6907 299.812 34.3781 300.125C34.0654 300.438 33.6804 300.685 33.2231 300.867C32.7704 301.049 32.2431 301.14 31.6411 301.14ZM39.1168 301.091C38.7248 301.091 38.4074 301.037 38.1648 300.93C37.9268 300.823 37.7424 300.678 37.6118 300.496C37.4858 300.314 37.3994 300.106 37.3528 299.873C37.3108 299.635 37.2898 299.39 37.2898 299.138V290.598H38.5638V299.012C38.5638 299.376 38.6338 299.649 38.7738 299.831C38.9184 300.013 39.1191 300.113 39.3758 300.132L39.7678 300.139V300.979C39.6604 301.012 39.5484 301.037 39.4318 301.056C39.3151 301.079 39.2101 301.091 39.1168 301.091ZM44.0842 301.14C43.4169 301.14 42.8336 300.998 42.3342 300.713C41.8396 300.424 41.4546 300.001 41.1792 299.446C40.9039 298.891 40.7662 298.212 40.7662 297.409C40.7662 296.653 40.8946 295.99 41.1512 295.421C41.4079 294.852 41.7836 294.411 42.2782 294.098C42.7729 293.781 43.3772 293.622 44.0912 293.622C44.7586 293.622 45.3372 293.769 45.8272 294.063C46.3172 294.352 46.6976 294.779 46.9682 295.344C47.2436 295.909 47.3812 296.597 47.3812 297.409C47.3812 298.146 47.2552 298.795 47.0032 299.355C46.7512 299.915 46.3802 300.354 45.8902 300.671C45.4049 300.984 44.8029 301.14 44.0842 301.14ZM44.0912 300.118C44.5206 300.118 44.8846 300.008 45.1832 299.789C45.4819 299.57 45.7082 299.255 45.8622 298.844C46.0209 298.433 46.1002 297.946 46.1002 297.381C46.1002 296.863 46.0302 296.399 45.8902 295.988C45.7549 295.573 45.5402 295.244 45.2462 295.001C44.9522 294.758 44.5672 294.637 44.0912 294.637C43.6526 294.637 43.2816 294.747 42.9782 294.966C42.6749 295.181 42.4439 295.493 42.2852 295.904C42.1312 296.315 42.0542 296.807 42.0542 297.381C42.0542 297.89 42.1219 298.352 42.2572 298.767C42.3972 299.182 42.6166 299.511 42.9152 299.754C43.2186 299.997 43.6106 300.118 44.0912 300.118ZM51.7349 301.14C51.3569 301.135 50.9999 301.082 50.6639 300.979C50.3326 300.872 50.0386 300.715 49.7819 300.51C49.5252 300.305 49.3222 300.05 49.1729 299.747C49.0282 299.439 48.9559 299.082 48.9559 298.676V293.762H50.2509V298.543C50.2509 299.014 50.3956 299.397 50.6849 299.691C50.9789 299.985 51.4199 300.132 52.0079 300.132C52.5399 300.132 52.9669 299.994 53.2889 299.719C53.6156 299.439 53.7789 299.024 53.7789 298.473V293.762H55.0669V301H54.0379L53.9049 299.614C53.8162 299.978 53.6646 300.272 53.4499 300.496C53.2399 300.72 52.9856 300.886 52.6869 300.993C52.3929 301.096 52.0756 301.145 51.7349 301.14ZM59.835 301.14C58.8923 301.14 58.1457 300.818 57.595 300.174C57.049 299.53 56.776 298.59 56.776 297.353C56.776 296.602 56.8857 295.946 57.105 295.386C57.3243 294.826 57.6533 294.392 58.092 294.084C58.5307 293.776 59.0767 293.622 59.73 293.622C60.08 293.622 60.388 293.666 60.654 293.755C60.92 293.844 61.151 293.956 61.347 294.091C61.543 294.226 61.7017 294.366 61.823 294.511C61.949 294.656 62.0423 294.789 62.103 294.91V290.598H63.412V301H62.418L62.278 299.516C62.2313 299.656 62.1567 299.819 62.054 300.006C61.9513 300.188 61.8067 300.368 61.62 300.545C61.438 300.718 61.2 300.86 60.906 300.972C60.612 301.084 60.255 301.14 59.835 301.14ZM60.066 300.146C60.794 300.146 61.3143 299.924 61.627 299.481C61.9443 299.033 62.103 298.303 62.103 297.29C62.0983 296.725 62.0283 296.245 61.893 295.848C61.7577 295.451 61.543 295.15 61.249 294.945C60.9597 294.735 60.5723 294.63 60.087 294.63C59.4943 294.63 59.0113 294.842 58.638 295.267C58.2647 295.692 58.078 296.366 58.078 297.29C58.078 298.195 58.246 298.898 58.582 299.397C58.918 299.896 59.4127 300.146 60.066 300.146ZM68.4638 301L72.1248 290.878H73.5878L77.2488 301H75.9258L74.9318 298.228H70.7808L69.7798 301H68.4638ZM71.1238 297.038H74.5748L72.8528 292.145L71.1238 297.038ZM80.7806 301.035C80.2813 301.035 79.894 300.967 79.6186 300.832C79.3433 300.697 79.1496 300.496 79.0376 300.23C78.9303 299.964 78.8766 299.637 78.8766 299.25V294.707H77.7006V293.762H78.9116L79.2266 291.655H80.1786V293.755H81.8096V294.707H80.1786V299.208C80.1786 299.465 80.2043 299.654 80.2556 299.775C80.3116 299.892 80.4026 299.966 80.5286 299.999C80.6546 300.032 80.832 300.048 81.0606 300.048H81.8516V300.916C81.763 300.949 81.6276 300.977 81.4456 301C81.2683 301.023 81.0466 301.035 80.7806 301.035ZM85.396 301.091C85.004 301.091 84.6867 301.037 84.444 300.93C84.206 300.823 84.0217 300.678 83.891 300.496C83.765 300.314 83.6787 300.106 83.632 299.873C83.59 299.635 83.569 299.39 83.569 299.138V290.598H84.843V299.012C84.843 299.376 84.913 299.649 85.053 299.831C85.1977 300.013 85.3984 300.113 85.655 300.132L86.047 300.139V300.979C85.9397 301.012 85.8277 301.037 85.711 301.056C85.5944 301.079 85.4894 301.091 85.396 301.091ZM89.769 301.14C89.2976 301.14 88.8823 301.058 88.523 300.895C88.1683 300.727 87.8883 300.487 87.683 300.174C87.4823 299.861 87.382 299.483 87.382 299.04C87.382 298.237 87.662 297.64 88.222 297.248C88.782 296.856 89.6803 296.646 90.917 296.618L92.205 296.583V296.016C92.205 295.573 92.072 295.223 91.806 294.966C91.54 294.705 91.1293 294.574 90.574 294.574C90.1586 294.579 89.7923 294.677 89.475 294.868C89.1576 295.059 88.9546 295.372 88.866 295.806H87.725C87.753 295.335 87.8836 294.938 88.117 294.616C88.355 294.289 88.6886 294.042 89.118 293.874C89.5473 293.706 90.0536 293.622 90.637 293.622C91.267 293.622 91.7896 293.711 92.205 293.888C92.625 294.065 92.9376 294.327 93.143 294.672C93.353 295.017 93.458 295.442 93.458 295.946V301H92.352L92.254 299.642C91.9786 300.207 91.624 300.599 91.19 300.818C90.7606 301.033 90.287 301.14 89.769 301.14ZM90.154 300.209C90.4013 300.209 90.644 300.165 90.882 300.076C91.1246 299.987 91.344 299.868 91.54 299.719C91.7406 299.565 91.9016 299.395 92.023 299.208C92.1443 299.017 92.205 298.821 92.205 298.62V297.381L91.134 297.402C90.5786 297.411 90.1166 297.467 89.748 297.57C89.3793 297.673 89.1016 297.834 88.915 298.053C88.7283 298.272 88.635 298.559 88.635 298.914C88.635 299.32 88.7773 299.637 89.062 299.866C89.3466 300.095 89.7106 300.209 90.154 300.209ZM98.0129 301.14C97.5089 301.14 97.0399 301.063 96.6059 300.909C96.1766 300.75 95.8196 300.505 95.5349 300.174C95.2502 299.838 95.0729 299.411 95.0029 298.893H96.1789C96.2396 299.178 96.3562 299.416 96.5289 299.607C96.7016 299.794 96.9139 299.936 97.1659 300.034C97.4226 300.127 97.7026 300.174 98.0059 300.174C98.4959 300.174 98.8902 300.083 99.1889 299.901C99.4876 299.719 99.6369 299.439 99.6369 299.061C99.6369 298.795 99.5576 298.583 99.3989 298.424C99.2449 298.261 99.0022 298.142 98.6709 298.067L97.1729 297.696C96.5896 297.556 96.1229 297.337 95.7729 297.038C95.4276 296.739 95.2526 296.322 95.2479 295.785C95.2479 295.36 95.3506 294.987 95.5559 294.665C95.7612 294.343 96.0669 294.089 96.4729 293.902C96.8836 293.715 97.3946 293.622 98.0059 293.622C98.7946 293.622 99.4292 293.799 99.9099 294.154C100.391 294.504 100.643 295.02 100.666 295.701H99.5179C99.4712 295.356 99.3172 295.083 99.0559 294.882C98.7946 294.677 98.4399 294.574 97.9919 294.574C97.5346 294.574 97.1589 294.667 96.8649 294.854C96.5756 295.036 96.4309 295.321 96.4309 295.708C96.4309 295.965 96.5336 296.168 96.7389 296.317C96.9489 296.462 97.2522 296.583 97.6489 296.681L99.1049 297.045C99.4362 297.134 99.7116 297.25 99.9309 297.395C100.15 297.54 100.323 297.701 100.449 297.878C100.575 298.055 100.664 298.242 100.715 298.438C100.771 298.629 100.799 298.814 100.799 298.991C100.799 299.434 100.689 299.817 100.47 300.139C100.251 300.456 99.9332 300.704 99.5179 300.881C99.1026 301.054 98.6009 301.14 98.0129 301.14Z" fill="#1A1B1D"/>
<path d="M63.6464 229.354C63.8417 229.549 64.1583 229.549 64.3536 229.354L67.5355 226.172C67.7308 225.976 67.7308 225.66 67.5355 225.464C67.3403 225.269 67.0237 225.269 66.8284 225.464L64 228.293L61.1716 225.464C60.9763 225.269 60.6597 225.269 60.4645 225.464C60.2692 225.66 60.2692 225.976 60.4645 226.172L63.6464 229.354ZM63.5 131L63.5 161H64.5L64.5 131H63.5ZM63.5 199L63.5 229H64.5L64.5 199H63.5Z" fill="#1A1B1D"/>
<path d="M29.27 179.694L29.27 178.049H30.817L30.817 179.694H29.27ZM29.27 184.958V183.327H30.817V184.958H29.27ZM32.704 185L36.365 174.878H37.828L41.489 185H40.166L39.172 182.228H35.021L34.02 185H32.704ZM35.364 181.038H38.815L37.093 176.145L35.364 181.038ZM46.6313 185.14C45.7213 185.14 44.9443 184.932 44.3003 184.517C43.661 184.102 43.171 183.504 42.8303 182.725C42.4943 181.946 42.3263 181.005 42.3263 179.904C42.3263 178.807 42.4943 177.874 42.8303 177.104C43.1663 176.334 43.654 175.748 44.2933 175.347C44.9373 174.941 45.7166 174.738 46.6313 174.738C47.3453 174.738 47.9776 174.887 48.5283 175.186C49.079 175.48 49.5223 175.874 49.8583 176.369C50.1943 176.864 50.3926 177.407 50.4533 178H49.0743C48.9996 177.603 48.8573 177.244 48.6473 176.922C48.4373 176.6 48.162 176.343 47.8213 176.152C47.4806 175.961 47.0723 175.865 46.5963 175.865C45.985 175.865 45.467 176.01 45.0423 176.299C44.6223 176.584 44.3026 177.025 44.0833 177.622C43.8686 178.219 43.7613 178.985 43.7613 179.918C43.7613 181.327 44.0016 182.363 44.4823 183.026C44.9676 183.684 45.6723 184.013 46.5963 184.013C47.0723 184.013 47.4806 183.913 47.8213 183.712C48.162 183.511 48.4373 183.243 48.6473 182.907C48.8573 182.571 48.9996 182.207 49.0743 181.815H50.4533C50.402 182.244 50.2853 182.66 50.1033 183.061C49.926 183.458 49.681 183.812 49.3683 184.125C49.0556 184.438 48.6706 184.685 48.2133 184.867C47.7606 185.049 47.2333 185.14 46.6313 185.14ZM54.5402 185L54.5402 176.068H51.2712V174.878H58.9292V176.068H55.8422L55.8422 185H54.5402ZM60.5987 185L60.5987 174.878H66.9827L66.9757 176.019H61.9007V179.323H66.4717V180.457H61.8937V183.831L67.1157 183.845V185H60.5987ZM69.3624 185V174.878C69.3951 174.878 69.4931 174.88 69.6564 174.885C69.8244 174.885 70.0274 174.885 70.2654 174.885C70.5034 174.88 70.7507 174.88 71.0074 174.885C71.2641 174.885 71.4997 174.887 71.7144 174.892C72.9557 174.911 73.9614 175.114 74.7314 175.501C75.5061 175.884 76.0731 176.441 76.4324 177.174C76.7964 177.907 76.9784 178.807 76.9784 179.876C76.9784 180.996 76.7824 181.936 76.3904 182.697C76.0031 183.458 75.4104 184.032 74.6124 184.419C73.8191 184.806 72.8087 185 71.5814 185H69.3624ZM70.6924 183.887H71.5814C72.4167 183.887 73.1354 183.759 73.7374 183.502C74.3394 183.241 74.8014 182.818 75.1234 182.235C75.4501 181.652 75.6134 180.872 75.6134 179.897C75.6134 178.922 75.4547 178.149 75.1374 177.58C74.8247 177.011 74.3721 176.605 73.7794 176.362C73.1867 176.115 72.4727 175.991 71.6374 175.991H70.6924V183.887ZM78.402 186.659V185.644L83.897 185.637V186.652L78.402 186.659ZM86.1788 185V174.878H87.4738V185H86.1788ZM90.1436 185V174.878H91.3826L96.7306 182.746L96.7306 174.878H98.0256L98.0256 185H96.8706L91.4386 177.02V185H90.1436Z" fill="#1A1B1D"/>
<path d="M234.998 418.816L235.29 418.41L235.29 418.41L234.998 418.816ZM160.955 365.636L161.247 365.23L161.247 365.23L160.955 365.636ZM148.998 357.048L148.707 357.455L148.707 357.455L148.998 357.048ZM130.356 343.224C130.083 343.268 129.899 343.525 129.943 343.798L130.671 348.239C130.716 348.511 130.973 348.696 131.246 348.651C131.518 348.606 131.703 348.349 131.658 348.077L131.011 344.129L134.958 343.482C135.231 343.437 135.415 343.18 135.371 342.908C135.326 342.635 135.069 342.451 134.796 342.495L130.356 343.224ZM242.855 423.844L235.29 418.41L234.707 419.222L242.272 424.656L242.855 423.844ZM235.29 418.41L218.744 406.526L218.16 407.338L234.707 419.222L235.29 418.41ZM165.836 368.526L161.247 365.23L160.664 366.042L165.253 369.338L165.836 368.526ZM161.247 365.23L149.29 356.642L148.707 357.455L160.664 366.042L161.247 365.23ZM149.29 356.642L130.728 343.311L130.145 344.123L148.707 357.455L149.29 356.642Z" fill="#1A1B1D"/>
<path d="M156.768 387.626V385.981H158.315V387.626H156.768ZM156.768 392.89V391.259H158.315V392.89H156.768ZM160.548 392.932V382.81C160.581 382.81 160.679 382.813 160.842 382.817C161.01 382.817 161.213 382.817 161.451 382.817C161.689 382.813 161.936 382.813 162.193 382.817C162.45 382.817 162.685 382.82 162.9 382.824C164.141 382.843 165.147 383.046 165.917 383.433C166.692 383.816 167.259 384.374 167.618 385.106C167.982 385.839 168.164 386.74 168.164 387.808C168.164 388.928 167.968 389.869 167.576 390.629C167.189 391.39 166.596 391.964 165.798 392.351C165.005 392.739 163.994 392.932 162.767 392.932H160.548ZM161.878 391.819H162.767C163.602 391.819 164.321 391.691 164.923 391.434C165.525 391.173 165.987 390.751 166.309 390.167C166.636 389.584 166.799 388.805 166.799 387.829C166.799 386.854 166.64 386.082 166.323 385.512C166.01 384.943 165.558 384.537 164.965 384.294C164.372 384.047 163.658 383.923 162.823 383.923H161.878V391.819ZM170.255 392.932V382.81H171.55V392.932H170.255ZM174.22 392.932V382.81H178.14C178.868 382.81 179.477 382.922 179.967 383.146C180.457 383.366 180.823 383.683 181.066 384.098C181.309 384.509 181.43 385.001 181.43 385.575C181.43 386.126 181.332 386.583 181.136 386.947C180.945 387.311 180.7 387.605 180.401 387.829C180.102 388.049 179.792 388.219 179.47 388.34L181.458 392.932H180.086L178.238 388.571H175.515V392.932H174.22ZM175.515 387.5H177.72C178.481 387.5 179.069 387.346 179.484 387.038C179.899 386.726 180.107 386.264 180.107 385.652C180.107 385.055 179.92 384.609 179.547 384.315C179.178 384.017 178.672 383.867 178.028 383.867H175.515V387.5ZM183.695 392.932V382.81H190.079L190.072 383.951H184.997V387.255H189.568V388.389H184.99V391.763L190.212 391.777V392.932H183.695ZM196.073 393.072C195.163 393.072 194.386 392.865 193.742 392.449C193.103 392.034 192.613 391.437 192.272 390.657C191.936 389.878 191.768 388.938 191.768 387.836C191.768 386.74 191.936 385.806 192.272 385.036C192.608 384.266 193.096 383.681 193.735 383.279C194.379 382.873 195.158 382.67 196.073 382.67C196.787 382.67 197.419 382.82 197.97 383.118C198.521 383.412 198.964 383.807 199.3 384.301C199.636 384.796 199.834 385.34 199.895 385.932H198.516C198.441 385.536 198.299 385.176 198.089 384.854C197.879 384.532 197.604 384.276 197.263 384.084C196.922 383.893 196.514 383.797 196.038 383.797C195.427 383.797 194.909 383.942 194.484 384.231C194.064 384.516 193.744 384.957 193.525 385.554C193.31 386.152 193.203 386.917 193.203 387.85C193.203 389.26 193.443 390.296 193.924 390.958C194.409 391.616 195.114 391.945 196.038 391.945C196.514 391.945 196.922 391.845 197.263 391.644C197.604 391.444 197.879 391.175 198.089 390.839C198.299 390.503 198.441 390.139 198.516 389.747H199.895C199.844 390.177 199.727 390.592 199.545 390.993C199.368 391.39 199.123 391.745 198.81 392.057C198.497 392.37 198.112 392.617 197.655 392.799C197.202 392.981 196.675 393.072 196.073 393.072ZM203.982 392.932V384H200.713V382.81H208.371V384H205.284V392.932H203.982ZM210.04 392.932V382.81H216.424L216.417 383.951H211.342V387.255H215.913V388.389H211.335V391.763L216.557 391.777V392.932H210.04ZM218.804 392.932V382.81C218.837 382.81 218.935 382.813 219.098 382.817C219.266 382.817 219.469 382.817 219.707 382.817C219.945 382.813 220.192 382.813 220.449 382.817C220.706 382.817 220.941 382.82 221.156 382.824C222.397 382.843 223.403 383.046 224.173 383.433C224.948 383.816 225.515 384.374 225.874 385.106C226.238 385.839 226.42 386.74 226.42 387.808C226.42 388.928 226.224 389.869 225.832 390.629C225.445 391.39 224.852 391.964 224.054 392.351C223.261 392.739 222.25 392.932 221.023 392.932H218.804ZM220.134 391.819H221.023C221.858 391.819 222.577 391.691 223.179 391.434C223.781 391.173 224.243 390.751 224.565 390.167C224.892 389.584 225.055 388.805 225.055 387.829C225.055 386.854 224.896 386.082 224.579 385.512C224.266 384.943 223.814 384.537 223.221 384.294C222.628 384.047 221.914 383.923 221.079 383.923H220.134V391.819Z" fill="#1A1B1D"/>
<path d="M386 416.398L386.297 416.8L386.297 416.8L386 416.398ZM398.815 406.932L398.518 406.53L398.518 406.53L398.815 406.932ZM472 352.875L471.703 352.473L471.703 352.473L472 352.875ZM483.081 345.129C483.122 344.856 482.934 344.602 482.661 344.561L478.211 343.892C477.938 343.851 477.683 344.039 477.642 344.312C477.601 344.585 477.789 344.84 478.063 344.881L482.018 345.475L481.423 349.431C481.382 349.704 481.571 349.959 481.844 350C482.117 350.041 482.371 349.853 482.412 349.579L483.081 345.129ZM375.71 424.62L386.297 416.8L385.703 415.996L375.116 423.815L375.71 424.62ZM386.297 416.8L399.112 407.335L398.518 406.53L385.703 415.996L386.297 416.8ZM399.112 407.335L403.574 404.039L402.98 403.234L398.518 406.53L399.112 407.335ZM455.02 366.039L472.297 353.277L471.703 352.473L454.426 365.234L455.02 366.039ZM472.297 353.277L482.884 345.457L482.29 344.653L471.703 352.473L472.297 353.277Z" fill="#1A1B1D"/>
<path d="M393.77 384.33V382.685H395.317V384.33H393.77ZM393.77 389.594V387.963H395.317V389.594H393.77ZM397.55 389.636V379.514C397.583 379.514 397.681 379.517 397.844 379.521C398.012 379.521 398.215 379.521 398.453 379.521C398.691 379.517 398.938 379.517 399.195 379.521C399.452 379.521 399.687 379.524 399.902 379.528C401.143 379.547 402.149 379.75 402.919 380.137C403.694 380.52 404.261 381.078 404.62 381.81C404.984 382.543 405.166 383.444 405.166 384.512C405.166 385.632 404.97 386.573 404.578 387.333C404.191 388.094 403.598 388.668 402.8 389.055C402.007 389.443 400.996 389.636 399.769 389.636H397.55ZM398.88 388.523H399.769C400.604 388.523 401.323 388.395 401.925 388.138C402.527 387.877 402.989 387.455 403.311 386.871C403.638 386.288 403.801 385.509 403.801 384.533C403.801 383.558 403.642 382.786 403.325 382.216C403.012 381.647 402.56 381.241 401.967 380.998C401.374 380.751 400.66 380.627 399.825 380.627H398.88V388.523ZM407.257 389.636V379.514H408.552V389.636H407.257ZM411.222 389.636V379.514H415.142C415.87 379.514 416.479 379.626 416.969 379.85C417.459 380.07 417.825 380.387 418.068 380.802C418.31 381.213 418.432 381.705 418.432 382.279C418.432 382.83 418.334 383.287 418.138 383.651C417.946 384.015 417.701 384.309 417.403 384.533C417.104 384.753 416.794 384.923 416.472 385.044L418.46 389.636H417.088L415.24 385.275H412.517V389.636H411.222ZM412.517 384.204H414.722C415.482 384.204 416.07 384.05 416.486 383.742C416.901 383.43 417.109 382.968 417.109 382.356C417.109 381.759 416.922 381.313 416.549 381.019C416.18 380.721 415.674 380.571 415.03 380.571H412.517V384.204ZM420.696 389.636V379.514H427.08L427.073 380.655H421.998V383.959H426.569V385.093H421.991V388.467L427.213 388.481V389.636H420.696ZM433.075 389.776C432.165 389.776 431.388 389.569 430.744 389.153C430.104 388.738 429.614 388.141 429.274 387.361C428.938 386.582 428.77 385.642 428.77 384.54C428.77 383.444 428.938 382.51 429.274 381.74C429.61 380.97 430.097 380.385 430.737 379.983C431.381 379.577 432.16 379.374 433.075 379.374C433.789 379.374 434.421 379.524 434.972 379.822C435.522 380.116 435.966 380.511 436.302 381.005C436.638 381.5 436.836 382.044 436.897 382.636H435.518C435.443 382.24 435.301 381.88 435.091 381.558C434.881 381.236 434.605 380.98 434.265 380.788C433.924 380.597 433.516 380.501 433.04 380.501C432.428 380.501 431.91 380.646 431.486 380.935C431.066 381.22 430.746 381.661 430.527 382.258C430.312 382.856 430.205 383.621 430.205 384.554C430.205 385.964 430.445 387 430.926 387.662C431.411 388.32 432.116 388.649 433.04 388.649C433.516 388.649 433.924 388.549 434.265 388.348C434.605 388.148 434.881 387.879 435.091 387.543C435.301 387.207 435.443 386.843 435.518 386.451H436.897C436.845 386.881 436.729 387.296 436.547 387.697C436.369 388.094 436.124 388.449 435.812 388.761C435.499 389.074 435.114 389.321 434.657 389.503C434.204 389.685 433.677 389.776 433.075 389.776ZM440.984 389.636V380.704H437.715V379.514H445.373V380.704H442.286V389.636H440.984ZM447.042 389.636V379.514H453.426L453.419 380.655H448.344V383.959H452.915V385.093H448.337V388.467L453.559 388.481V389.636H447.042ZM455.806 389.636V379.514C455.838 379.514 455.936 379.517 456.1 379.521C456.268 379.521 456.471 379.521 456.709 379.521C456.947 379.517 457.194 379.517 457.451 379.521C457.707 379.521 457.943 379.524 458.158 379.528C459.399 379.547 460.405 379.75 461.175 380.137C461.949 380.52 462.516 381.078 462.876 381.81C463.24 382.543 463.422 383.444 463.422 384.512C463.422 385.632 463.226 386.573 462.834 387.333C462.446 388.094 461.854 388.668 461.056 389.055C460.262 389.443 459.252 389.636 458.025 389.636H455.806ZM457.136 388.523H458.025C458.86 388.523 459.579 388.395 460.181 388.138C460.783 387.877 461.245 387.455 461.567 386.871C461.893 386.288 462.057 385.509 462.057 384.533C462.057 383.558 461.898 382.786 461.581 382.216C461.268 381.647 460.815 381.241 460.223 380.998C459.63 380.751 458.916 380.627 458.081 380.627H457.136V388.523Z" fill="#1A1B1D"/>
<path d="M548.646 229.354C548.842 229.549 549.158 229.549 549.354 229.354L552.536 226.172C552.731 225.976 552.731 225.66 552.536 225.464C552.34 225.269 552.024 225.269 551.828 225.464L549 228.293L546.172 225.464C545.976 225.269 545.66 225.269 545.464 225.464C545.269 225.66 545.269 225.976 545.464 226.172L548.646 229.354ZM548.5 131V161H549.5V131H548.5ZM548.5 199V229H549.5V199H548.5Z" fill="#1A1B1D"/>
<path d="M514.27 179.694V178.049H515.817V179.694H514.27ZM514.27 184.958V183.327H515.817V184.958H514.27ZM517.704 185L521.365 174.878H522.828L526.489 185H525.166L524.172 182.228H520.021L519.02 185H517.704ZM520.364 181.038H523.815L522.093 176.145L520.364 181.038ZM531.631 185.14C530.721 185.14 529.944 184.932 529.3 184.517C528.661 184.102 528.171 183.504 527.83 182.725C527.494 181.946 527.326 181.005 527.326 179.904C527.326 178.807 527.494 177.874 527.83 177.104C528.166 176.334 528.654 175.748 529.293 175.347C529.937 174.941 530.717 174.738 531.631 174.738C532.345 174.738 532.978 174.887 533.528 175.186C534.079 175.48 534.522 175.874 534.858 176.369C535.194 176.864 535.393 177.407 535.453 178H534.074C534 177.603 533.857 177.244 533.647 176.922C533.437 176.6 533.162 176.343 532.821 176.152C532.481 175.961 532.072 175.865 531.596 175.865C530.985 175.865 530.467 176.01 530.042 176.299C529.622 176.584 529.303 177.025 529.083 177.622C528.869 178.219 528.761 178.985 528.761 179.918C528.761 181.327 529.002 182.363 529.482 183.026C529.968 183.684 530.672 184.013 531.596 184.013C532.072 184.013 532.481 183.913 532.821 183.712C533.162 183.511 533.437 183.243 533.647 182.907C533.857 182.571 534 182.207 534.074 181.815H535.453C535.402 182.244 535.285 182.66 535.103 183.061C534.926 183.458 534.681 183.812 534.368 184.125C534.056 184.438 533.671 184.685 533.213 184.867C532.761 185.049 532.233 185.14 531.631 185.14ZM539.54 185V176.068H536.271V174.878H543.929V176.068H540.842V185H539.54ZM545.599 185V174.878H551.983L551.976 176.019H546.901V179.323H551.472V180.457H546.894V183.831L552.116 183.845V185H545.599ZM554.362 185V174.878C554.395 174.878 554.493 174.88 554.656 174.885C554.824 174.885 555.027 174.885 555.265 174.885C555.503 174.88 555.751 174.88 556.007 174.885C556.264 174.885 556.5 174.887 556.714 174.892C557.956 174.911 558.961 175.114 559.731 175.501C560.506 175.884 561.073 176.441 561.432 177.174C561.796 177.907 561.978 178.807 561.978 179.876C561.978 180.996 561.782 181.936 561.39 182.697C561.003 183.458 560.41 184.032 559.612 184.419C558.819 184.806 557.809 185 556.581 185H554.362ZM555.692 183.887H556.581C557.417 183.887 558.135 183.759 558.737 183.502C559.339 183.241 559.801 182.818 560.123 182.235C560.45 181.652 560.613 180.872 560.613 179.897C560.613 178.922 560.455 178.149 560.137 177.58C559.825 177.011 559.372 176.605 558.779 176.362C558.187 176.115 557.473 175.991 556.637 175.991H555.692V183.887ZM563.402 186.659V185.644L568.897 185.637V186.652L563.402 186.659ZM571.179 185V174.878H572.474V185H571.179ZM575.144 185V174.878H576.383L581.731 182.746V174.878H583.026V185H581.871L576.439 177.02V185H575.144Z" fill="#1A1B1D"/>
<path d="M485.241 64.4379L485.679 64.1966L485.197 63.3208L484.759 63.5621L485.241 64.4379ZM350.314 138.221L350.555 138.659L350.555 138.659L350.314 138.221ZM265.314 185.062L265.072 184.624L265.314 185.062ZM240.022 199L239.78 198.562L239.78 198.562L240.022 199ZM234.998 201.768L235.24 202.206L235.24 202.206L234.998 201.768ZM148.998 249.16L148.757 248.722L148.757 248.722L148.998 249.16ZM130.147 259.145C130.07 259.41 130.223 259.687 130.488 259.764L134.811 261.015C135.076 261.092 135.354 260.939 135.43 260.674C135.507 260.409 135.354 260.131 135.089 260.054L131.247 258.942L132.359 255.1C132.436 254.835 132.283 254.558 132.018 254.481C131.752 254.404 131.475 254.557 131.398 254.822L130.147 259.145ZM484.759 63.5621L350.072 137.784L350.555 138.659L485.241 64.4379L484.759 63.5621ZM350.072 137.784L342.051 142.204L342.534 143.08L350.555 138.659L350.072 137.784ZM273.094 180.204L265.072 184.624L265.555 185.5L273.577 181.08L273.094 180.204ZM265.072 184.624L239.78 198.562L240.263 199.438L265.555 185.5L265.072 184.624ZM239.78 198.562L234.757 201.33L235.24 202.206L240.263 199.438L239.78 198.562ZM234.757 201.33L148.757 248.722L149.24 249.598L235.24 202.206L234.757 201.33ZM148.757 248.722L130.386 258.846L130.869 259.722L149.24 249.598L148.757 248.722Z" fill="#1A1B1D"/>
<path d="M273.084 161.336V159.691H274.631V161.336H273.084ZM273.084 166.6V164.969H274.631V166.6H273.084ZM276.518 166.642L280.179 156.52H281.642L285.303 166.642H283.98L282.986 163.87H278.835L277.834 166.642H276.518ZM279.178 162.68H282.629L280.907 157.787L279.178 162.68ZM290.445 166.782C289.535 166.782 288.758 166.574 288.114 166.159C287.475 165.744 286.985 165.146 286.644 164.367C286.308 163.588 286.14 162.647 286.14 161.546C286.14 160.449 286.308 159.516 286.644 158.746C286.98 157.976 287.468 157.39 288.107 156.989C288.751 156.583 289.53 156.38 290.445 156.38C291.159 156.38 291.791 156.529 292.342 156.828C292.893 157.122 293.336 157.516 293.672 158.011C294.008 158.506 294.206 159.049 294.267 159.642H292.888C292.813 159.245 292.671 158.886 292.461 158.564C292.251 158.242 291.976 157.985 291.635 157.794C291.294 157.603 290.886 157.507 290.41 157.507C289.799 157.507 289.281 157.652 288.856 157.941C288.436 158.226 288.116 158.667 287.897 159.264C287.682 159.861 287.575 160.627 287.575 161.56C287.575 162.969 287.815 164.005 288.296 164.668C288.781 165.326 289.486 165.655 290.41 165.655C290.886 165.655 291.294 165.555 291.635 165.354C291.976 165.153 292.251 164.885 292.461 164.549C292.671 164.213 292.813 163.849 292.888 163.457H294.267C294.216 163.886 294.099 164.302 293.917 164.703C293.74 165.1 293.495 165.454 293.182 165.767C292.869 166.08 292.484 166.327 292.027 166.509C291.574 166.691 291.047 166.782 290.445 166.782ZM298.354 166.642V157.71H295.085V156.52H302.743V157.71H299.656V166.642H298.354ZM304.412 166.642V156.52H310.796L310.789 157.661H305.714V160.965H310.285V162.099H305.707V165.473L310.929 165.487V166.642H304.412ZM313.176 166.642V156.52C313.209 156.52 313.307 156.522 313.47 156.527C313.638 156.527 313.841 156.527 314.079 156.527C314.317 156.522 314.564 156.522 314.821 156.527C315.078 156.527 315.313 156.529 315.528 156.534C316.769 156.553 317.775 156.756 318.545 157.143C319.32 157.526 319.887 158.083 320.246 158.816C320.61 159.549 320.792 160.449 320.792 161.518C320.792 162.638 320.596 163.578 320.204 164.339C319.817 165.1 319.224 165.674 318.426 166.061C317.633 166.448 316.622 166.642 315.395 166.642H313.176ZM314.506 165.529H315.395C316.23 165.529 316.949 165.401 317.551 165.144C318.153 164.883 318.615 164.46 318.937 163.877C319.264 163.294 319.427 162.514 319.427 161.539C319.427 160.564 319.268 159.791 318.951 159.222C318.638 158.653 318.186 158.247 317.593 158.004C317 157.757 316.286 157.633 315.451 157.633H314.506V165.529ZM322.216 168.301V167.286L327.711 167.279V168.294L322.216 168.301ZM329.993 166.642V156.52H331.288V166.642H329.993ZM333.957 166.642V156.52H335.196L340.544 164.388V156.52H341.839V166.642H340.684L335.252 158.662V166.642H333.957Z" fill="#1A1B1D"/>
</svg>
