<svg xmlns="http://www.w3.org/2000/svg" width="490.9307861328125" height="233.28628540039062" viewBox="-310.6546325683594 -157.048583984375 490.9307861328125 233.28628540039062"><title>Neo4j Graph Visualization</title><desc>Created using Neo4j (http://www.neo4j.com/)</desc><g class="layer relationships"><g class="relationship" transform="translate(-274.154645676432 -110.00443442554194) rotate(389.19776502004146)"><path class="b-outline" fill="#A5ABB6" stroke="none" d="M 32.5 0.5 L 51.167555558557765 0.5 L 51.167555558557765 -0.5 L 32.5 -0.5 Z M 96.73005555855777 0.5 L 115.39761111711553 0.5 L 115.39761111711553 3.5 L 122.39761111711553 0 L 115.39761111711553 -3.5 L 115.39761111711553 -0.5 L 96.73005555855777 -0.5 Z"/><text text-anchor="middle" pointer-events="none" font-size="8px" fill="#000000" x="73.94880555855777" y="3" font-family="Helvetica Neue, Helvetica, Arial, sans-serif">ACTED_IN</text></g><g class="relationship" transform="translate(-4.650103958502029 -120.548590667193) rotate(389.26176038875553)"><path class="b-outline" fill="#A5ABB6" stroke="none" d="M 32.5 0.5 L 58.78693500999674 0.5 L 58.78693500999674 -0.5 L 32.5 -0.5 Z M 104.34943500999674 0.5 L 130.63637001999348 0.5 L 130.63637001999348 3.5 L 137.63637001999348 0 L 130.63637001999348 -3.5 L 130.63637001999348 -0.5 L 104.34943500999674 -0.5 Z"/><text text-anchor="middle" pointer-events="none" font-size="8px" fill="#000000" x="81.56818500999674" y="3" font-family="Helvetica Neue, Helvetica, Arial, sans-serif">ACTED_IN</text></g><g class="relationship" transform="translate(-4.650103958502029 -120.548590667193) rotate(507.3314992985878)"><path class="b-outline" fill="#A5ABB6" stroke="none" d="M 32.5 0.5 L 53.48046747284533 0.5 L 53.48046747284533 -0.5 L 32.5 -0.5 Z M 99.04296747284533 0.5 L 120.02343494569067 0.5 L 120.02343494569067 3.5 L 127.02343494569067 0 L 120.02343494569067 -3.5 L 120.02343494569067 -0.5 L 99.04296747284533 -0.5 Z"/><text text-anchor="middle" pointer-events="none" font-size="8px" fill="#000000" x="76.26171747284533" y="3" transform="rotate(180 76.26171747284533 0)" font-family="Helvetica Neue, Helvetica, Arial, sans-serif">ACTED_IN</text></g><g class="relationship" transform="translate(-5.306946830292759 39.737701821613385) rotate(332.6465941419365)"><path class="b-outline" fill="#A5ABB6" stroke="none" d="M 32.5 0.5 L 56.979968816021284 0.5 L 56.979968816021284 -0.5 L 32.5 -0.5 Z M 103.87059381602128 0.5 L 128.35056263204257 0.5 L 128.35056263204257 3.5 L 135.35056263204257 0 L 128.35056263204257 -3.5 L 128.35056263204257 -0.5 L 103.87059381602128 -0.5 Z"/><text text-anchor="middle" pointer-events="none" font-size="8px" fill="#000000" x="80.42528131602128" y="3" font-family="Helvetica Neue, Helvetica, Arial, sans-serif">DIRECTED</text></g><g class="relationship" transform="translate(-5.306946830292759 39.737701821613385) rotate(209.03479643801734)"><path class="b-outline" fill="#A5ABB6" stroke="none" d="M 32.5 0.5 L 49.47431931161839 0.5 L 49.47431931161839 -0.5 L 32.5 -0.5 Z M 96.36494431161839 0.5 L 113.33926362323677 0.5 L 113.33926362323677 3.5 L 120.33926362323677 0 L 113.33926362323677 -3.5 L 113.33926362323677 -0.5 L 96.36494431161839 -0.5 Z"/><text text-anchor="middle" pointer-events="none" font-size="8px" fill="#000000" x="72.91963181161839" y="3" transform="rotate(180 72.91963181161839 0)" font-family="Helvetica Neue, Helvetica, Arial, sans-serif">DIRECTED</text></g></g><g class="layer nodes"><g class="node" aria-label="graph-node0" transform="translate(-274.154645676432,-110.00443442554194)"><circle class="b-outline" cx="0" cy="0" r="32.5" fill="#57C7E3" stroke="#23b3d7" stroke-width="2px"/><text class="caption" text-anchor="middle" pointer-events="none" x="0" y="5" font-size="10px" fill="#2A2C34" font-family="Helvetica Neue, Helvetica, Arial, sans-serif"> Tom Hanks</text></g><g class="node" aria-label="graph-node1" transform="translate(-4.650103958502029,-120.548590667193)"><circle class="b-outline" cx="0" cy="0" r="32.5" fill="#57C7E3" stroke="#23b3d7" stroke-width="2px"/><text class="caption" text-anchor="middle" pointer-events="none" x="0" y="0" font-size="10px" fill="#2A2C34" font-family="Helvetica Neue, Helvetica, Arial, sans-serif"> Hugo</text><text class="caption" text-anchor="middle" pointer-events="none" x="0" y="10" font-size="10px" fill="#2A2C34" font-family="Helvetica Neue, Helvetica, Arial, sans-serif"> Weaving</text></g><g class="node" aria-label="graph-node2" transform="translate(-138.9381535689514,-34.44141309938804)"><circle class="b-outline" cx="0" cy="0" r="32.5" fill="#8DCC93" stroke="#5db665" stroke-width="2px"/><text class="caption" text-anchor="middle" pointer-events="none" x="0" y="5" font-size="10px" fill="#2A2C34" font-family="Helvetica Neue, Helvetica, Arial, sans-serif"> Cloud Atlas</text></g><g class="node" aria-label="graph-node3" transform="translate(143.77613289784904,-37.38587897353486)"><circle class="b-outline" cx="0" cy="0" r="32.5" fill="#8DCC93" stroke="#5db665" stroke-width="2px"/><text class="caption" text-anchor="middle" pointer-events="none" x="0" y="5" font-size="10px" fill="#2A2C34" font-family="Helvetica Neue, Helvetica, Arial, sans-serif"> The Matrix</text></g><g class="node" aria-label="graph-node4" transform="translate(-5.306946830292759,39.737701821613385)"><circle class="b-outline" cx="0" cy="0" r="32.5" fill="#57C7E3" stroke="#23b3d7" stroke-width="2px"/><text class="caption" text-anchor="middle" pointer-events="none" x="0" y="0" font-size="10px" fill="#2A2C34" font-family="Helvetica Neue, Helvetica, Arial, sans-serif"> Lana</text><text class="caption" text-anchor="middle" pointer-events="none" x="0" y="10" font-size="10px" fill="#2A2C34" font-family="Helvetica Neue, Helvetica, Arial, sans-serif"> Wachowski</text></g></g></svg>