<svg width="442" height="128" viewBox="0 0 442 128" fill="none" xmlns="http://www.w3.org/2000/svg">
<path d="M0 64C0 28.6538 28.6538 0 64 0V0C99.3462 0 128 28.6538 128 64V64C128 99.3462 99.3462 128 64 128V128C28.6538 128 0 99.3462 0 64V64Z" fill="#FFDF81"/>
<path d="M42.7237 69V58.878H46.1467C46.8701 58.878 47.5141 58.9993 48.0787 59.242C48.6434 59.4847 49.0867 59.844 49.4087 60.32C49.7354 60.796 49.8987 61.3817 49.8987 62.077C49.8987 62.749 49.7471 63.323 49.4437 63.799C49.1451 64.275 48.7274 64.6367 48.1907 64.884C47.6541 65.1313 47.0311 65.255 46.3217 65.255H44.0537V69H42.7237ZM44.0467 64.163H46.2937C46.9891 64.163 47.5537 63.9693 47.9877 63.582C48.4217 63.1947 48.6387 62.6673 48.6387 62C48.6387 61.328 48.4147 60.8193 47.9667 60.474C47.5187 60.1287 46.9401 59.956 46.2307 59.956H44.0467V64.163ZM54.3077 69.14C53.6357 69.14 53.0431 68.993 52.5297 68.699C52.0164 68.405 51.6151 67.9827 51.3257 67.432C51.0364 66.8813 50.8917 66.221 50.8917 65.451C50.8917 64.6903 51.0224 64.023 51.2837 63.449C51.5451 62.875 51.9231 62.427 52.4177 62.105C52.9171 61.783 53.5167 61.622 54.2167 61.622C54.8981 61.622 55.4744 61.769 55.9457 62.063C56.4171 62.357 56.7741 62.7723 57.0167 63.309C57.2641 63.841 57.3877 64.4733 57.3877 65.206V65.682H52.2007C52.2007 66.1393 52.2754 66.5547 52.4247 66.928C52.5787 67.2967 52.8097 67.5907 53.1177 67.81C53.4257 68.0293 53.8154 68.139 54.2867 68.139C54.7487 68.139 55.1454 68.0317 55.4767 67.817C55.8127 67.6023 56.0274 67.292 56.1207 66.886H57.3387C57.2547 67.376 57.0587 67.789 56.7507 68.125C56.4474 68.461 56.0811 68.7153 55.6517 68.888C55.2271 69.056 54.7791 69.14 54.3077 69.14ZM52.2077 64.807H56.1417C56.1417 64.3917 56.0717 64.0183 55.9317 63.687C55.7917 63.351 55.5771 63.0873 55.2877 62.896C55.0031 62.7 54.6437 62.602 54.2097 62.602C53.7571 62.602 53.3814 62.7117 53.0827 62.931C52.7841 63.1457 52.5624 63.4233 52.4177 63.764C52.2731 64.1 52.2031 64.4477 52.2077 64.807ZM59.1784 69V61.762H60.4104V63.155C60.5318 62.8097 60.7021 62.525 60.9214 62.301C61.1408 62.0723 61.3904 61.902 61.6704 61.79C61.9551 61.678 62.2491 61.622 62.5524 61.622C62.6598 61.622 62.7648 61.629 62.8674 61.643C62.9701 61.657 63.0494 61.6803 63.1054 61.713V62.966C63.0354 62.9333 62.9444 62.9123 62.8324 62.903C62.7251 62.889 62.6341 62.882 62.5594 62.882C62.2701 62.8633 61.9994 62.882 61.7474 62.938C61.4954 62.9893 61.2738 63.0803 61.0824 63.211C60.8911 63.3417 60.7394 63.5143 60.6274 63.729C60.5201 63.939 60.4664 64.1957 60.4664 64.499V69H59.1784ZM67.2102 69.14C66.7062 69.14 66.2372 69.063 65.8032 68.909C65.3738 68.7503 65.0168 68.5053 64.7322 68.174C64.4475 67.838 64.2702 67.411 64.2002 66.893H65.3762C65.4368 67.1777 65.5535 67.4157 65.7262 67.607C65.8988 67.7937 66.1112 67.936 66.3632 68.034C66.6198 68.1273 66.8998 68.174 67.2032 68.174C67.6932 68.174 68.0875 68.083 68.3862 67.901C68.6848 67.719 68.8342 67.439 68.8342 67.061C68.8342 66.795 68.7548 66.5827 68.5962 66.424C68.4422 66.2607 68.1995 66.1417 67.8682 66.067L66.3702 65.696C65.7868 65.556 65.3202 65.3367 64.9702 65.038C64.6248 64.7393 64.4498 64.3217 64.4452 63.785C64.4452 63.3603 64.5478 62.987 64.7532 62.665C64.9585 62.343 65.2642 62.0887 65.6702 61.902C66.0808 61.7153 66.5918 61.622 67.2032 61.622C67.9918 61.622 68.6265 61.7993 69.1072 62.154C69.5878 62.504 69.8398 63.0197 69.8632 63.701H68.7152C68.6685 63.3557 68.5145 63.0827 68.2532 62.882C67.9918 62.6767 67.6372 62.574 67.1892 62.574C66.7318 62.574 66.3562 62.6673 66.0622 62.854C65.7728 63.036 65.6282 63.3207 65.6282 63.708C65.6282 63.9647 65.7308 64.1677 65.9362 64.317C66.1462 64.4617 66.4495 64.583 66.8462 64.681L68.3022 65.045C68.6335 65.1337 68.9088 65.2503 69.1282 65.395C69.3475 65.5397 69.5202 65.7007 69.6462 65.878C69.7722 66.0553 69.8608 66.242 69.9122 66.438C69.9682 66.6293 69.9962 66.8137 69.9962 66.991C69.9962 67.4343 69.8865 67.817 69.6672 68.139C69.4478 68.4563 69.1305 68.7037 68.7152 68.881C68.2998 69.0537 67.7982 69.14 67.2102 69.14ZM74.5862 69.14C73.9189 69.14 73.3355 68.9977 72.8362 68.713C72.3415 68.4237 71.9565 68.0013 71.6812 67.446C71.4059 66.8907 71.2682 66.2117 71.2682 65.409C71.2682 64.653 71.3965 63.9903 71.6532 63.421C71.9099 62.8517 72.2855 62.4107 72.7802 62.098C73.2749 61.7807 73.8792 61.622 74.5932 61.622C75.2605 61.622 75.8392 61.769 76.3292 62.063C76.8192 62.3523 77.1995 62.7793 77.4702 63.344C77.7455 63.9087 77.8832 64.597 77.8832 65.409C77.8832 66.1463 77.7572 66.795 77.5052 67.355C77.2532 67.915 76.8822 68.3537 76.3922 68.671C75.9069 68.9837 75.3049 69.14 74.5862 69.14ZM74.5932 68.118C75.0225 68.118 75.3865 68.0083 75.6852 67.789C75.9839 67.5697 76.2102 67.2547 76.3642 66.844C76.5229 66.4333 76.6022 65.9457 76.6022 65.381C76.6022 64.863 76.5322 64.3987 76.3922 63.988C76.2569 63.5727 76.0422 63.2437 75.7482 63.001C75.4542 62.7583 75.0692 62.637 74.5932 62.637C74.1545 62.637 73.7835 62.7467 73.4802 62.966C73.1769 63.1807 72.9459 63.4933 72.7872 63.904C72.6332 64.3147 72.5562 64.807 72.5562 65.381C72.5562 65.8897 72.6239 66.3517 72.7592 66.767C72.8992 67.1823 73.1185 67.5113 73.4172 67.754C73.7205 67.9967 74.1125 68.118 74.5932 68.118ZM79.6042 69V61.762H80.8572V62.812C80.9739 62.6113 81.1349 62.4223 81.3402 62.245C81.5502 62.0677 81.8022 61.9253 82.0962 61.818C82.3949 61.7107 82.7379 61.657 83.1252 61.657C83.5825 61.657 84.0025 61.748 84.3852 61.93C84.7725 62.112 85.0805 62.3967 85.3092 62.784C85.5425 63.1667 85.6592 63.6613 85.6592 64.268V69H84.3642V64.394C84.3642 63.8293 84.2149 63.4117 83.9162 63.141C83.6222 62.8657 83.2395 62.728 82.7682 62.728C82.4415 62.728 82.1359 62.7817 81.8512 62.889C81.5665 62.9917 81.3355 63.1503 81.1582 63.365C80.9809 63.575 80.8922 63.841 80.8922 64.163V69H79.6042Z" fill="#1A1B1D"/>
<path d="M314 64C314 28.6538 342.654 0 378 0V0C413.346 0 442 28.6538 442 64V64C442 99.3462 413.346 128 378 128V128C342.654 128 314 99.3462 314 64V64Z" fill="#FFDF81"/>
<path d="M356.724 69V58.878H360.147C360.87 58.878 361.514 58.9993 362.079 59.242C362.643 59.4847 363.087 59.844 363.409 60.32C363.735 60.796 363.899 61.3817 363.899 62.077C363.899 62.749 363.747 63.323 363.444 63.799C363.145 64.275 362.727 64.6367 362.191 64.884C361.654 65.1313 361.031 65.255 360.322 65.255H358.054V69H356.724ZM358.047 64.163H360.294C360.989 64.163 361.554 63.9693 361.988 63.582C362.422 63.1947 362.639 62.6673 362.639 62C362.639 61.328 362.415 60.8193 361.967 60.474C361.519 60.1287 360.94 59.956 360.231 59.956H358.047V64.163ZM368.308 69.14C367.636 69.14 367.043 68.993 366.53 68.699C366.016 68.405 365.615 67.9827 365.326 67.432C365.036 66.8813 364.892 66.221 364.892 65.451C364.892 64.6903 365.022 64.023 365.284 63.449C365.545 62.875 365.923 62.427 366.418 62.105C366.917 61.783 367.517 61.622 368.217 61.622C368.898 61.622 369.474 61.769 369.946 62.063C370.417 62.357 370.774 62.7723 371.017 63.309C371.264 63.841 371.388 64.4733 371.388 65.206V65.682H366.201C366.201 66.1393 366.275 66.5547 366.425 66.928C366.579 67.2967 366.81 67.5907 367.118 67.81C367.426 68.0293 367.815 68.139 368.287 68.139C368.749 68.139 369.145 68.0317 369.477 67.817C369.813 67.6023 370.027 67.292 370.121 66.886H371.339C371.255 67.376 371.059 67.789 370.751 68.125C370.447 68.461 370.081 68.7153 369.652 68.888C369.227 69.056 368.779 69.14 368.308 69.14ZM366.208 64.807H370.142C370.142 64.3917 370.072 64.0183 369.932 63.687C369.792 63.351 369.577 63.0873 369.288 62.896C369.003 62.7 368.644 62.602 368.21 62.602C367.757 62.602 367.381 62.7117 367.083 62.931C366.784 63.1457 366.562 63.4233 366.418 63.764C366.273 64.1 366.203 64.4477 366.208 64.807ZM373.178 69V61.762H374.41V63.155C374.532 62.8097 374.702 62.525 374.921 62.301C375.141 62.0723 375.39 61.902 375.67 61.79C375.955 61.678 376.249 61.622 376.552 61.622C376.66 61.622 376.765 61.629 376.867 61.643C376.97 61.657 377.049 61.6803 377.105 61.713V62.966C377.035 62.9333 376.944 62.9123 376.832 62.903C376.725 62.889 376.634 62.882 376.559 62.882C376.27 62.8633 375.999 62.882 375.747 62.938C375.495 62.9893 375.274 63.0803 375.082 63.211C374.891 63.3417 374.739 63.5143 374.627 63.729C374.52 63.939 374.466 64.1957 374.466 64.499V69H373.178ZM381.21 69.14C380.706 69.14 380.237 69.063 379.803 68.909C379.374 68.7503 379.017 68.5053 378.732 68.174C378.447 67.838 378.27 67.411 378.2 66.893H379.376C379.437 67.1777 379.553 67.4157 379.726 67.607C379.899 67.7937 380.111 67.936 380.363 68.034C380.62 68.1273 380.9 68.174 381.203 68.174C381.693 68.174 382.087 68.083 382.386 67.901C382.685 67.719 382.834 67.439 382.834 67.061C382.834 66.795 382.755 66.5827 382.596 66.424C382.442 66.2607 382.199 66.1417 381.868 66.067L380.37 65.696C379.787 65.556 379.32 65.3367 378.97 65.038C378.625 64.7393 378.45 64.3217 378.445 63.785C378.445 63.3603 378.548 62.987 378.753 62.665C378.958 62.343 379.264 62.0887 379.67 61.902C380.081 61.7153 380.592 61.622 381.203 61.622C381.992 61.622 382.626 61.7993 383.107 62.154C383.588 62.504 383.84 63.0197 383.863 63.701H382.715C382.668 63.3557 382.514 63.0827 382.253 62.882C381.992 62.6767 381.637 62.574 381.189 62.574C380.732 62.574 380.356 62.6673 380.062 62.854C379.773 63.036 379.628 63.3207 379.628 63.708C379.628 63.9647 379.731 64.1677 379.936 64.317C380.146 64.4617 380.449 64.583 380.846 64.681L382.302 65.045C382.633 65.1337 382.909 65.2503 383.128 65.395C383.347 65.5397 383.52 65.7007 383.646 65.878C383.772 66.0553 383.861 66.242 383.912 66.438C383.968 66.6293 383.996 66.8137 383.996 66.991C383.996 67.4343 383.886 67.817 383.667 68.139C383.448 68.4563 383.13 68.7037 382.715 68.881C382.3 69.0537 381.798 69.14 381.21 69.14ZM388.586 69.14C387.919 69.14 387.336 68.9977 386.836 68.713C386.342 68.4237 385.957 68.0013 385.681 67.446C385.406 66.8907 385.268 66.2117 385.268 65.409C385.268 64.653 385.397 63.9903 385.653 63.421C385.91 62.8517 386.286 62.4107 386.78 62.098C387.275 61.7807 387.879 61.622 388.593 61.622C389.261 61.622 389.839 61.769 390.329 62.063C390.819 62.3523 391.2 62.7793 391.47 63.344C391.746 63.9087 391.883 64.597 391.883 65.409C391.883 66.1463 391.757 66.795 391.505 67.355C391.253 67.915 390.882 68.3537 390.392 68.671C389.907 68.9837 389.305 69.14 388.586 69.14ZM388.593 68.118C389.023 68.118 389.387 68.0083 389.685 67.789C389.984 67.5697 390.21 67.2547 390.364 66.844C390.523 66.4333 390.602 65.9457 390.602 65.381C390.602 64.863 390.532 64.3987 390.392 63.988C390.257 63.5727 390.042 63.2437 389.748 63.001C389.454 62.7583 389.069 62.637 388.593 62.637C388.155 62.637 387.784 62.7467 387.48 62.966C387.177 63.1807 386.946 63.4933 386.787 63.904C386.633 64.3147 386.556 64.807 386.556 65.381C386.556 65.8897 386.624 66.3517 386.759 66.767C386.899 67.1823 387.119 67.5113 387.417 67.754C387.721 67.9967 388.113 68.118 388.593 68.118ZM393.604 69V61.762H394.857V62.812C394.974 62.6113 395.135 62.4223 395.34 62.245C395.55 62.0677 395.802 61.9253 396.096 61.818C396.395 61.7107 396.738 61.657 397.125 61.657C397.583 61.657 398.003 61.748 398.385 61.93C398.773 62.112 399.081 62.3967 399.309 62.784C399.543 63.1667 399.659 63.6613 399.659 64.268V69H398.364V64.394C398.364 63.8293 398.215 63.4117 397.916 63.141C397.622 62.8657 397.24 62.728 396.768 62.728C396.442 62.728 396.136 62.7817 395.851 62.889C395.567 62.9917 395.336 63.1503 395.158 63.365C394.981 63.575 394.892 63.841 394.892 64.163V69H393.604Z" fill="#1A1B1D"/>
<path d="M42.7237 69V58.878H46.1467C46.8701 58.878 47.5141 58.9993 48.0787 59.242C48.6434 59.4847 49.0867 59.844 49.4087 60.32C49.7354 60.796 49.8987 61.3817 49.8987 62.077C49.8987 62.749 49.7471 63.323 49.4437 63.799C49.1451 64.275 48.7274 64.6367 48.1907 64.884C47.6541 65.1313 47.0311 65.255 46.3217 65.255H44.0537V69H42.7237ZM44.0467 64.163H46.2937C46.9891 64.163 47.5537 63.9693 47.9877 63.582C48.4217 63.1947 48.6387 62.6673 48.6387 62C48.6387 61.328 48.4147 60.8193 47.9667 60.474C47.5187 60.1287 46.9401 59.956 46.2307 59.956H44.0467V64.163ZM54.3077 69.14C53.6357 69.14 53.0431 68.993 52.5297 68.699C52.0164 68.405 51.6151 67.9827 51.3257 67.432C51.0364 66.8813 50.8917 66.221 50.8917 65.451C50.8917 64.6903 51.0224 64.023 51.2837 63.449C51.5451 62.875 51.9231 62.427 52.4177 62.105C52.9171 61.783 53.5167 61.622 54.2167 61.622C54.8981 61.622 55.4744 61.769 55.9457 62.063C56.4171 62.357 56.7741 62.7723 57.0167 63.309C57.2641 63.841 57.3877 64.4733 57.3877 65.206V65.682H52.2007C52.2007 66.1393 52.2754 66.5547 52.4247 66.928C52.5787 67.2967 52.8097 67.5907 53.1177 67.81C53.4257 68.0293 53.8154 68.139 54.2867 68.139C54.7487 68.139 55.1454 68.0317 55.4767 67.817C55.8127 67.6023 56.0274 67.292 56.1207 66.886H57.3387C57.2547 67.376 57.0587 67.789 56.7507 68.125C56.4474 68.461 56.0811 68.7153 55.6517 68.888C55.2271 69.056 54.7791 69.14 54.3077 69.14ZM52.2077 64.807H56.1417C56.1417 64.3917 56.0717 64.0183 55.9317 63.687C55.7917 63.351 55.5771 63.0873 55.2877 62.896C55.0031 62.7 54.6437 62.602 54.2097 62.602C53.7571 62.602 53.3814 62.7117 53.0827 62.931C52.7841 63.1457 52.5624 63.4233 52.4177 63.764C52.2731 64.1 52.2031 64.4477 52.2077 64.807ZM59.1784 69V61.762H60.4104V63.155C60.5318 62.8097 60.7021 62.525 60.9214 62.301C61.1408 62.0723 61.3904 61.902 61.6704 61.79C61.9551 61.678 62.2491 61.622 62.5524 61.622C62.6598 61.622 62.7648 61.629 62.8674 61.643C62.9701 61.657 63.0494 61.6803 63.1054 61.713V62.966C63.0354 62.9333 62.9444 62.9123 62.8324 62.903C62.7251 62.889 62.6341 62.882 62.5594 62.882C62.2701 62.8633 61.9994 62.882 61.7474 62.938C61.4954 62.9893 61.2738 63.0803 61.0824 63.211C60.8911 63.3417 60.7394 63.5143 60.6274 63.729C60.5201 63.939 60.4664 64.1957 60.4664 64.499V69H59.1784ZM67.2102 69.14C66.7062 69.14 66.2372 69.063 65.8032 68.909C65.3738 68.7503 65.0168 68.5053 64.7322 68.174C64.4475 67.838 64.2702 67.411 64.2002 66.893H65.3762C65.4368 67.1777 65.5535 67.4157 65.7262 67.607C65.8988 67.7937 66.1112 67.936 66.3632 68.034C66.6198 68.1273 66.8998 68.174 67.2032 68.174C67.6932 68.174 68.0875 68.083 68.3862 67.901C68.6848 67.719 68.8342 67.439 68.8342 67.061C68.8342 66.795 68.7548 66.5827 68.5962 66.424C68.4422 66.2607 68.1995 66.1417 67.8682 66.067L66.3702 65.696C65.7868 65.556 65.3202 65.3367 64.9702 65.038C64.6248 64.7393 64.4498 64.3217 64.4452 63.785C64.4452 63.3603 64.5478 62.987 64.7532 62.665C64.9585 62.343 65.2642 62.0887 65.6702 61.902C66.0808 61.7153 66.5918 61.622 67.2032 61.622C67.9918 61.622 68.6265 61.7993 69.1072 62.154C69.5878 62.504 69.8398 63.0197 69.8632 63.701H68.7152C68.6685 63.3557 68.5145 63.0827 68.2532 62.882C67.9918 62.6767 67.6372 62.574 67.1892 62.574C66.7318 62.574 66.3562 62.6673 66.0622 62.854C65.7728 63.036 65.6282 63.3207 65.6282 63.708C65.6282 63.9647 65.7308 64.1677 65.9362 64.317C66.1462 64.4617 66.4495 64.583 66.8462 64.681L68.3022 65.045C68.6335 65.1337 68.9088 65.2503 69.1282 65.395C69.3475 65.5397 69.5202 65.7007 69.6462 65.878C69.7722 66.0553 69.8608 66.242 69.9122 66.438C69.9682 66.6293 69.9962 66.8137 69.9962 66.991C69.9962 67.4343 69.8865 67.817 69.6672 68.139C69.4478 68.4563 69.1305 68.7037 68.7152 68.881C68.2998 69.0537 67.7982 69.14 67.2102 69.14ZM74.5862 69.14C73.9189 69.14 73.3355 68.9977 72.8362 68.713C72.3415 68.4237 71.9565 68.0013 71.6812 67.446C71.4059 66.8907 71.2682 66.2117 71.2682 65.409C71.2682 64.653 71.3965 63.9903 71.6532 63.421C71.9099 62.8517 72.2855 62.4107 72.7802 62.098C73.2749 61.7807 73.8792 61.622 74.5932 61.622C75.2605 61.622 75.8392 61.769 76.3292 62.063C76.8192 62.3523 77.1995 62.7793 77.4702 63.344C77.7455 63.9087 77.8832 64.597 77.8832 65.409C77.8832 66.1463 77.7572 66.795 77.5052 67.355C77.2532 67.915 76.8822 68.3537 76.3922 68.671C75.9069 68.9837 75.3049 69.14 74.5862 69.14ZM74.5932 68.118C75.0225 68.118 75.3865 68.0083 75.6852 67.789C75.9839 67.5697 76.2102 67.2547 76.3642 66.844C76.5229 66.4333 76.6022 65.9457 76.6022 65.381C76.6022 64.863 76.5322 64.3987 76.3922 63.988C76.2569 63.5727 76.0422 63.2437 75.7482 63.001C75.4542 62.7583 75.0692 62.637 74.5932 62.637C74.1545 62.637 73.7835 62.7467 73.4802 62.966C73.1769 63.1807 72.9459 63.4933 72.7872 63.904C72.6332 64.3147 72.5562 64.807 72.5562 65.381C72.5562 65.8897 72.6239 66.3517 72.7592 66.767C72.8992 67.1823 73.1185 67.5113 73.4172 67.754C73.7205 67.9967 74.1125 68.118 74.5932 68.118ZM79.6042 69V61.762H80.8572V62.812C80.9739 62.6113 81.1349 62.4223 81.3402 62.245C81.5502 62.0677 81.8022 61.9253 82.0962 61.818C82.3949 61.7107 82.7379 61.657 83.1252 61.657C83.5825 61.657 84.0025 61.748 84.3852 61.93C84.7725 62.112 85.0805 62.3967 85.3092 62.784C85.5425 63.1667 85.6592 63.6613 85.6592 64.268V69H84.3642V64.394C84.3642 63.8293 84.2149 63.4117 83.9162 63.141C83.6222 62.8657 83.2395 62.728 82.7682 62.728C82.4415 62.728 82.1359 62.7817 81.8512 62.889C81.5665 62.9917 81.3355 63.1503 81.1582 63.365C80.9809 63.575 80.8922 63.841 80.8922 64.163V69H79.6042Z" fill="#1A1B1D"/>
<path d="M311.207 64.7071C311.598 64.3166 311.598 63.6834 311.207 63.2929L304.843 56.9289C304.453 56.5384 303.819 56.5384 303.429 56.9289C303.038 57.3195 303.038 57.9526 303.429 58.3431L309.086 64L303.429 69.6569C303.038 70.0474 303.038 70.6805 303.429 71.0711C303.819 71.4616 304.453 71.4616 304.843 71.0711L311.207 64.7071ZM258.677 63C258.125 63 257.677 63.4477 257.677 64C257.677 64.5523 258.125 65 258.677 65V63ZM178.552 65C179.105 65 179.552 64.5523 179.552 64C179.552 63.4477 179.105 63 178.552 63V65ZM131.5 63C130.948 63 130.5 63.4477 130.5 64C130.5 64.5523 130.948 65 131.5 65V63ZM310.5 63H258.677V65H310.5V63ZM178.552 63H131.5V65H178.552V63Z" fill="#1A1B1D"/>
<path d="M186.357 69.5V59.3182H192.671V60.6406H187.894V63.7429H192.219V65.0604H187.894V69.5H186.357ZM203.251 64.4091C203.251 65.4962 203.052 66.4309 202.654 67.2131C202.257 67.992 201.712 68.5919 201.019 69.0128C200.329 69.4304 199.546 69.6392 198.667 69.6392C197.786 69.6392 196.998 69.4304 196.306 69.0128C195.616 68.5919 195.073 67.9903 194.675 67.2081C194.277 66.4259 194.078 65.4929 194.078 64.4091C194.078 63.322 194.277 62.389 194.675 61.6101C195.073 60.8279 195.616 60.228 196.306 59.8104C196.998 59.3894 197.786 59.179 198.667 59.179C199.546 59.179 200.329 59.3894 201.019 59.8104C201.712 60.228 202.257 60.8279 202.654 61.6101C203.052 62.389 203.251 63.322 203.251 64.4091ZM201.73 64.4091C201.73 63.5805 201.596 62.8828 201.327 62.3161C201.062 61.746 200.697 61.3151 200.233 61.0234C199.773 60.7285 199.251 60.581 198.667 60.581C198.081 60.581 197.557 60.7285 197.096 61.0234C196.636 61.3151 196.271 61.746 196.002 62.3161C195.737 62.8828 195.605 63.5805 195.605 64.4091C195.605 65.2377 195.737 65.937 196.002 66.5071C196.271 67.0739 196.636 67.5047 197.096 67.7997C197.557 68.0914 198.081 68.2372 198.667 68.2372C199.251 68.2372 199.773 68.0914 200.233 67.7997C200.697 67.5047 201.062 67.0739 201.327 66.5071C201.596 65.937 201.73 65.2377 201.73 64.4091ZM205.012 69.5V59.3182H206.549V68.1776H211.162V69.5H205.012ZM212.761 69.5V59.3182H214.297V68.1776H218.911V69.5H212.761ZM228.957 64.4091C228.957 65.4962 228.758 66.4309 228.36 67.2131C227.963 67.992 227.417 68.5919 226.725 69.0128C226.035 69.4304 225.252 69.6392 224.373 69.6392C223.492 69.6392 222.704 69.4304 222.012 69.0128C221.322 68.5919 220.779 67.9903 220.381 67.2081C219.983 66.4259 219.784 65.4929 219.784 64.4091C219.784 63.322 219.983 62.389 220.381 61.6101C220.779 60.8279 221.322 60.228 222.012 59.8104C222.704 59.3894 223.492 59.179 224.373 59.179C225.252 59.179 226.035 59.3894 226.725 59.8104C227.417 60.228 227.963 60.8279 228.36 61.6101C228.758 62.389 228.957 63.322 228.957 64.4091ZM227.436 64.4091C227.436 63.5805 227.301 62.8828 227.033 62.3161C226.768 61.746 226.403 61.3151 225.939 61.0234C225.479 60.7285 224.957 60.581 224.373 60.581C223.787 60.581 223.263 60.7285 222.802 61.0234C222.341 61.3151 221.977 61.746 221.708 62.3161C221.443 62.8828 221.311 63.5805 221.311 64.4091C221.311 65.2377 221.443 65.937 221.708 66.5071C221.977 67.0739 222.341 67.5047 222.802 67.7997C223.263 68.0914 223.787 68.2372 224.373 68.2372C224.957 68.2372 225.479 68.0914 225.939 67.7997C226.403 67.5047 226.768 67.0739 227.033 66.5071C227.301 65.937 227.436 65.2377 227.436 64.4091ZM232.589 69.5L229.765 59.3182H231.381L233.364 67.2031H233.459L235.522 59.3182H237.123L239.186 67.2081H239.281L241.259 59.3182H242.88L240.051 69.5H238.505L236.362 61.8736H236.283L234.14 69.5H232.589ZM249.653 61.9929C249.6 61.5223 249.381 61.1577 248.996 60.8991C248.612 60.6373 248.128 60.5064 247.545 60.5064C247.127 60.5064 246.766 60.5727 246.461 60.7053C246.156 60.8345 245.919 61.0135 245.75 61.2422C245.584 61.4676 245.501 61.7244 245.501 62.0128C245.501 62.2547 245.558 62.4635 245.671 62.6392C245.787 62.8149 245.937 62.9624 246.123 63.0817C246.312 63.1977 246.514 63.2955 246.729 63.375C246.945 63.4512 247.152 63.5142 247.351 63.5639L248.345 63.8224C248.67 63.902 249.003 64.0097 249.345 64.1456C249.686 64.2815 250.002 64.4605 250.294 64.6825C250.586 64.9046 250.821 65.1797 251 65.5078C251.182 65.8359 251.273 66.2287 251.273 66.6861C251.273 67.2628 251.124 67.7749 250.826 68.2223C250.531 68.6697 250.102 69.0227 249.538 69.2812C248.978 69.5398 248.3 69.669 247.505 69.669C246.743 69.669 246.083 69.5481 245.526 69.3061C244.97 69.0642 244.534 68.7211 244.219 68.277C243.904 67.8295 243.73 67.2992 243.697 66.6861H245.238C245.268 67.054 245.387 67.3606 245.596 67.6058C245.808 67.8478 246.078 68.0284 246.406 68.1477C246.738 68.2637 247.101 68.3217 247.495 68.3217C247.929 68.3217 248.315 68.2538 248.653 68.1179C248.995 67.9787 249.263 67.7865 249.459 67.5412C249.654 67.2926 249.752 67.0026 249.752 66.6712C249.752 66.3696 249.666 66.1226 249.494 65.9304C249.325 65.7382 249.094 65.5791 248.803 65.4531C248.514 65.3272 248.188 65.2161 247.823 65.12L246.62 64.7919C245.805 64.5698 245.158 64.2434 244.681 63.8125C244.207 63.3816 243.97 62.8116 243.97 62.1023C243.97 61.5156 244.129 61.0036 244.447 60.5661C244.766 60.1286 245.197 59.7888 245.74 59.5469C246.284 59.3016 246.897 59.179 247.58 59.179C248.269 59.179 248.877 59.3 249.404 59.5419C249.934 59.7839 250.352 60.117 250.657 60.5412C250.962 60.9621 251.121 61.446 251.134 61.9929H249.653Z" fill="black" fill-opacity="0.8"/>
</svg>
