<svg width="1142" height="466" viewBox="0 0 1142 466" fill="none" xmlns="http://www.w3.org/2000/svg">
<path d="M47 64C47 28.6538 75.6538 0 111 0V0C146.346 0 175 28.6538 175 64V64C175 99.3462 146.346 128 111 128V128C75.6538 128 47 99.3462 47 64V64Z" fill="#56C7E4"/>
<path d="M95.8009 69V58.878H99.0559C100.288 58.878 101.219 59.1043 101.849 59.557C102.484 60.0097 102.801 60.663 102.801 61.517C102.801 62.0537 102.661 62.5133 102.381 62.896C102.106 63.2787 101.62 63.5937 100.925 63.841C101.322 63.925 101.655 64.0463 101.926 64.205C102.201 64.3637 102.421 64.5503 102.584 64.765C102.752 64.975 102.871 65.2083 102.941 65.465C103.016 65.7217 103.053 65.9923 103.053 66.277C103.053 67.1917 102.726 67.8753 102.073 68.328C101.424 68.776 100.454 69 99.1609 69H95.8009ZM97.0959 67.922H99.1469C99.9915 67.922 100.633 67.7843 101.072 67.509C101.515 67.229 101.737 66.7997 101.737 66.221C101.737 65.7963 101.627 65.4533 101.408 65.192C101.193 64.926 100.902 64.7323 100.533 64.611C100.164 64.4897 99.7535 64.429 99.3009 64.429H97.0959V67.922ZM97.0959 63.33H99.3009C99.5669 63.33 99.8305 63.3043 100.092 63.253C100.353 63.2017 100.594 63.113 100.813 62.987C101.032 62.861 101.21 62.693 101.345 62.483C101.48 62.2683 101.548 62 101.548 61.678C101.548 61.09 101.322 60.656 100.869 60.376C100.421 60.0913 99.8375 59.949 99.1189 59.949H97.0959V63.33ZM106.957 69.14C106.486 69.14 106.071 69.0583 105.711 68.895C105.357 68.727 105.077 68.4867 104.871 68.174C104.671 67.8613 104.57 67.4833 104.57 67.04C104.57 66.2373 104.85 65.64 105.41 65.248C105.97 64.856 106.869 64.646 108.105 64.618L109.393 64.583V64.016C109.393 63.5727 109.26 63.2227 108.994 62.966C108.728 62.7047 108.318 62.574 107.762 62.574C107.347 62.5787 106.981 62.6767 106.663 62.868C106.346 63.0593 106.143 63.372 106.054 63.806H104.913C104.941 63.3347 105.072 62.938 105.305 62.616C105.543 62.2893 105.877 62.042 106.306 61.874C106.736 61.706 107.242 61.622 107.825 61.622C108.455 61.622 108.978 61.7107 109.393 61.888C109.813 62.0653 110.126 62.3267 110.331 62.672C110.541 63.0173 110.646 63.442 110.646 63.946V69H109.54L109.442 67.642C109.167 68.2067 108.812 68.5987 108.378 68.818C107.949 69.0327 107.475 69.14 106.957 69.14ZM107.342 68.209C107.59 68.209 107.832 68.1647 108.07 68.076C108.313 67.9873 108.532 67.8683 108.728 67.719C108.929 67.565 109.09 67.3947 109.211 67.208C109.333 67.0167 109.393 66.8207 109.393 66.62V65.381L108.322 65.402C107.767 65.4113 107.305 65.4673 106.936 65.57C106.568 65.6727 106.29 65.8337 106.103 66.053C105.917 66.2723 105.823 66.5593 105.823 66.914C105.823 67.32 105.966 67.6373 106.25 67.866C106.535 68.0947 106.899 68.209 107.342 68.209ZM112.666 69V61.762H113.919V62.812C114.035 62.6113 114.196 62.4223 114.402 62.245C114.612 62.0677 114.864 61.9253 115.158 61.818C115.456 61.7107 115.799 61.657 116.187 61.657C116.644 61.657 117.064 61.748 117.447 61.93C117.834 62.112 118.142 62.3967 118.371 62.784C118.604 63.1667 118.721 63.6613 118.721 64.268V69H117.426V64.394C117.426 63.8293 117.276 63.4117 116.978 63.141C116.684 62.8657 116.301 62.728 115.83 62.728C115.503 62.728 115.197 62.7817 114.913 62.889C114.628 62.9917 114.397 63.1503 114.22 63.365C114.042 63.575 113.954 63.841 113.954 64.163V69H112.666ZM120.746 69V58.598H122.034V65.381L125.436 61.762H126.92L124.309 64.52L127.102 69H125.73L123.462 65.367L122.034 66.844V69H120.746Z" fill="#1A1B1D"/>
<path d="M1014 64C1014 28.6538 1042.65 0 1078 0V0C1113.35 0 1142 28.6538 1142 64V64C1142 99.3462 1113.35 128 1078 128V128C1042.65 128 1014 99.3462 1014 64V64Z" fill="#8DCC93"/>
<path d="M1058.88 69V58.878H1062.31C1063.03 58.878 1063.67 58.9993 1064.24 59.242C1064.8 59.4847 1065.25 59.844 1065.57 60.32C1065.9 60.796 1066.06 61.3817 1066.06 62.077C1066.06 62.749 1065.91 63.323 1065.6 63.799C1065.31 64.275 1064.89 64.6367 1064.35 64.884C1063.81 65.1313 1063.19 65.255 1062.48 65.255H1060.21V69H1058.88ZM1060.21 64.163H1062.45C1063.15 64.163 1063.71 63.9693 1064.15 63.582C1064.58 63.1947 1064.8 62.6673 1064.8 62C1064.8 61.328 1064.57 60.8193 1064.13 60.474C1063.68 60.1287 1063.1 59.956 1062.39 59.956H1060.21V64.163ZM1067.53 69V58.598H1068.79V62.826C1068.91 62.6253 1069.08 62.4387 1069.28 62.266C1069.49 62.0887 1069.74 61.9463 1070.03 61.839C1070.32 61.727 1070.67 61.671 1071.05 61.671C1071.52 61.671 1071.95 61.7597 1072.33 61.937C1072.72 62.1097 1073.02 62.357 1073.24 62.679C1073.47 63.001 1073.58 63.3837 1073.58 63.827V69H1072.28V64.086C1072.28 63.652 1072.14 63.3183 1071.84 63.085C1071.54 62.847 1071.16 62.728 1070.68 62.728C1070.36 62.728 1070.06 62.7817 1069.77 62.889C1069.49 62.9917 1069.26 63.1503 1069.08 63.365C1068.91 63.575 1068.82 63.8433 1068.82 64.17V69H1067.53ZM1078.5 69.14C1077.83 69.14 1077.25 68.9977 1076.75 68.713C1076.25 68.4237 1075.87 68.0013 1075.59 67.446C1075.32 66.8907 1075.18 66.2117 1075.18 65.409C1075.18 64.653 1075.31 63.9903 1075.56 63.421C1075.82 62.8517 1076.2 62.4107 1076.69 62.098C1077.19 61.7807 1077.79 61.622 1078.5 61.622C1079.17 61.622 1079.75 61.769 1080.24 62.063C1080.73 62.3523 1081.11 62.7793 1081.38 63.344C1081.66 63.9087 1081.79 64.597 1081.79 65.409C1081.79 66.1463 1081.67 66.795 1081.42 67.355C1081.16 67.915 1080.79 68.3537 1080.3 68.671C1079.82 68.9837 1079.22 69.14 1078.5 69.14ZM1078.5 68.118C1078.93 68.118 1079.3 68.0083 1079.6 67.789C1079.89 67.5697 1080.12 67.2547 1080.27 66.844C1080.43 66.4333 1080.51 65.9457 1080.51 65.381C1080.51 64.863 1080.44 64.3987 1080.3 63.988C1080.17 63.5727 1079.95 63.2437 1079.66 63.001C1079.36 62.7583 1078.98 62.637 1078.5 62.637C1078.06 62.637 1077.69 62.7467 1077.39 62.966C1077.09 63.1807 1076.86 63.4933 1076.7 63.904C1076.54 64.3147 1076.47 64.807 1076.47 65.381C1076.47 65.8897 1076.53 66.3517 1076.67 66.767C1076.81 67.1823 1077.03 67.5113 1077.33 67.754C1077.63 67.9967 1078.02 68.118 1078.5 68.118ZM1083.51 69V61.762H1084.77V62.812C1084.88 62.6113 1085.05 62.4223 1085.25 62.245C1085.46 62.0677 1085.71 61.9253 1086.01 61.818C1086.31 61.7107 1086.65 61.657 1087.04 61.657C1087.49 61.657 1087.91 61.748 1088.3 61.93C1088.68 62.112 1088.99 62.3967 1089.22 62.784C1089.45 63.1667 1089.57 63.6613 1089.57 64.268V69H1088.27V64.394C1088.27 63.8293 1088.13 63.4117 1087.83 63.141C1087.53 62.8657 1087.15 62.728 1086.68 62.728C1086.35 62.728 1086.05 62.7817 1085.76 62.889C1085.48 62.9917 1085.25 63.1503 1085.07 63.365C1084.89 63.575 1084.8 63.841 1084.8 64.163V69H1083.51ZM1094.65 69.14C1093.98 69.14 1093.39 68.993 1092.88 68.699C1092.36 68.405 1091.96 67.9827 1091.67 67.432C1091.38 66.8813 1091.24 66.221 1091.24 65.451C1091.24 64.6903 1091.37 64.023 1091.63 63.449C1091.89 62.875 1092.27 62.427 1092.76 62.105C1093.26 61.783 1093.86 61.622 1094.56 61.622C1095.24 61.622 1095.82 61.769 1096.29 62.063C1096.76 62.357 1097.12 62.7723 1097.36 63.309C1097.61 63.841 1097.73 64.4733 1097.73 65.206V65.682H1092.55C1092.55 66.1393 1092.62 66.5547 1092.77 66.928C1092.92 67.2967 1093.16 67.5907 1093.46 67.81C1093.77 68.0293 1094.16 68.139 1094.63 68.139C1095.09 68.139 1095.49 68.0317 1095.82 67.817C1096.16 67.6023 1096.37 67.292 1096.47 66.886H1097.68C1097.6 67.376 1097.4 67.789 1097.1 68.125C1096.79 68.461 1096.43 68.7153 1096 68.888C1095.57 69.056 1095.12 69.14 1094.65 69.14ZM1092.55 64.807H1096.49C1096.49 64.3917 1096.42 64.0183 1096.28 63.687C1096.14 63.351 1095.92 63.0873 1095.63 62.896C1095.35 62.7 1094.99 62.602 1094.56 62.602C1094.1 62.602 1093.73 62.7117 1093.43 62.931C1093.13 63.1457 1092.91 63.4233 1092.76 63.764C1092.62 64.1 1092.55 64.4477 1092.55 64.807Z" fill="#1A1B1D"/>
<path d="M1014 402C1014 366.654 1042.65 338 1078 338V338C1113.35 338 1142 366.654 1142 402V402C1142 437.346 1113.35 466 1078 466V466C1042.65 466 1014 437.346 1014 402V402Z" fill="#F16767"/>
<path d="M1045.3 407V396.878H1046.54L1051.89 404.746V396.878H1053.18V407H1052.03L1046.6 399.02V407H1045.3ZM1055.86 407V396.878H1057.15V407H1055.86ZM1062.96 407V399.762H1064.21V400.812C1064.33 400.611 1064.49 400.422 1064.69 400.245C1064.9 400.068 1065.16 399.925 1065.45 399.818C1065.75 399.711 1066.09 399.657 1066.48 399.657C1066.94 399.657 1067.36 399.748 1067.74 399.93C1068.13 400.112 1068.44 400.397 1068.66 400.784C1068.9 401.167 1069.01 401.661 1069.01 402.268V407H1067.72V402.394C1067.72 401.829 1067.57 401.412 1067.27 401.141C1066.98 400.866 1066.59 400.728 1066.12 400.728C1065.8 400.728 1065.49 400.782 1065.21 400.889C1064.92 400.992 1064.69 401.15 1064.51 401.365C1064.34 401.575 1064.25 401.841 1064.25 402.163V407H1062.96ZM1073.7 407.14C1073.32 407.135 1072.96 407.082 1072.63 406.979C1072.3 406.872 1072 406.715 1071.75 406.51C1071.49 406.305 1071.29 406.05 1071.14 405.747C1070.99 405.439 1070.92 405.082 1070.92 404.676V399.762H1072.21V404.543C1072.21 405.014 1072.36 405.397 1072.65 405.691C1072.94 405.985 1073.38 406.132 1073.97 406.132C1074.5 406.132 1074.93 405.994 1075.25 405.719C1075.58 405.439 1075.74 405.024 1075.74 404.473V399.762H1077.03V407H1076L1075.87 405.614C1075.78 405.978 1075.63 406.272 1075.41 406.496C1075.2 406.72 1074.95 406.886 1074.65 406.993C1074.36 407.096 1074.04 407.145 1073.7 407.14ZM1079.24 407V399.762H1080.49V400.812C1080.69 400.495 1080.96 400.217 1081.31 399.979C1081.66 399.741 1082.12 399.622 1082.68 399.622C1082.94 399.622 1083.21 399.666 1083.48 399.755C1083.75 399.844 1084 399.977 1084.23 400.154C1084.46 400.331 1084.64 400.548 1084.76 400.805C1084.99 400.45 1085.29 400.166 1085.67 399.951C1086.06 399.732 1086.49 399.622 1086.97 399.622C1087.22 399.622 1087.49 399.662 1087.76 399.741C1088.04 399.816 1088.29 399.951 1088.52 400.147C1088.76 400.338 1088.96 400.607 1089.1 400.952C1089.25 401.293 1089.33 401.731 1089.33 402.268V407H1088.03V402.394C1088.03 401.955 1087.96 401.617 1087.82 401.379C1087.68 401.136 1087.49 400.966 1087.26 400.868C1087.04 400.77 1086.8 400.721 1086.54 400.721C1086.32 400.721 1086.08 400.765 1085.83 400.854C1085.58 400.943 1085.36 401.092 1085.18 401.302C1085.01 401.512 1084.92 401.799 1084.92 402.163V407H1083.63V402.016C1083.63 401.731 1083.55 401.493 1083.4 401.302C1083.25 401.111 1083.06 400.966 1082.83 400.868C1082.61 400.77 1082.38 400.721 1082.16 400.721C1081.91 400.721 1081.66 400.77 1081.41 400.868C1081.16 400.966 1080.95 401.122 1080.78 401.337C1080.61 401.547 1080.53 401.822 1080.53 402.163V407H1079.24ZM1094.93 407.14C1094.51 407.14 1094.15 407.084 1093.85 406.972C1093.56 406.86 1093.33 406.718 1093.14 406.545C1092.95 406.368 1092.81 406.188 1092.71 406.006C1092.6 405.819 1092.53 405.656 1092.48 405.516L1092.34 407H1091.36V396.598H1092.66V400.91C1092.72 400.789 1092.81 400.656 1092.93 400.511C1093.06 400.366 1093.22 400.226 1093.41 400.091C1093.61 399.956 1093.84 399.844 1094.11 399.755C1094.38 399.666 1094.68 399.622 1095.03 399.622C1095.94 399.622 1096.65 399.937 1097.19 400.567C1097.72 401.197 1097.99 402.126 1097.99 403.353C1097.99 404.114 1097.88 404.779 1097.65 405.348C1097.42 405.913 1097.08 406.354 1096.63 406.671C1096.17 406.984 1095.61 407.14 1094.93 407.14ZM1094.7 406.146C1095.29 406.146 1095.77 405.92 1096.14 405.467C1096.5 405.01 1096.69 404.284 1096.69 403.29C1096.69 402.445 1096.52 401.792 1096.17 401.33C1095.83 400.863 1095.33 400.63 1094.67 400.63C1094.19 400.63 1093.81 400.735 1093.51 400.945C1093.22 401.15 1093.01 401.451 1092.87 401.848C1092.73 402.245 1092.66 402.725 1092.66 403.29C1092.66 404.303 1092.81 405.033 1093.13 405.481C1093.44 405.924 1093.97 406.146 1094.7 406.146ZM1102.77 407.14C1102.1 407.14 1101.5 406.993 1100.99 406.699C1100.48 406.405 1100.08 405.983 1099.79 405.432C1099.5 404.881 1099.35 404.221 1099.35 403.451C1099.35 402.69 1099.48 402.023 1099.74 401.449C1100.01 400.875 1100.38 400.427 1100.88 400.105C1101.38 399.783 1101.98 399.622 1102.68 399.622C1103.36 399.622 1103.93 399.769 1104.41 400.063C1104.88 400.357 1105.23 400.772 1105.48 401.309C1105.72 401.841 1105.85 402.473 1105.85 403.206V403.682H1100.66C1100.66 404.139 1100.74 404.555 1100.88 404.928C1101.04 405.297 1101.27 405.591 1101.58 405.81C1101.89 406.029 1102.28 406.139 1102.75 406.139C1103.21 406.139 1103.61 406.032 1103.94 405.817C1104.27 405.602 1104.49 405.292 1104.58 404.886H1105.8C1105.71 405.376 1105.52 405.789 1105.21 406.125C1104.91 406.461 1104.54 406.715 1104.11 406.888C1103.69 407.056 1103.24 407.14 1102.77 407.14ZM1100.67 402.807H1104.6C1104.6 402.392 1104.53 402.018 1104.39 401.687C1104.25 401.351 1104.04 401.087 1103.75 400.896C1103.46 400.7 1103.1 400.602 1102.67 400.602C1102.22 400.602 1101.84 400.712 1101.54 400.931C1101.24 401.146 1101.02 401.423 1100.88 401.764C1100.73 402.1 1100.66 402.448 1100.67 402.807ZM1107.64 407V399.762H1108.87V401.155C1108.99 400.81 1109.16 400.525 1109.38 400.301C1109.6 400.072 1109.85 399.902 1110.13 399.79C1110.42 399.678 1110.71 399.622 1111.01 399.622C1111.12 399.622 1111.22 399.629 1111.33 399.643C1111.43 399.657 1111.51 399.68 1111.57 399.713V400.966C1111.5 400.933 1111.4 400.912 1111.29 400.903C1111.19 400.889 1111.09 400.882 1111.02 400.882C1110.73 400.863 1110.46 400.882 1110.21 400.938C1109.96 400.989 1109.73 401.08 1109.54 401.211C1109.35 401.342 1109.2 401.514 1109.09 401.729C1108.98 401.939 1108.93 402.196 1108.93 402.499V407H1107.64Z" fill="white"/>
<path d="M1014 233C1014 197.654 1042.65 169 1078 169V169C1113.35 169 1142 197.654 1142 233V233C1142 268.346 1113.35 297 1078 297V297C1042.65 297 1014 268.346 1014 233V233Z" fill="#ECB4C9"/>
<path d="M1061.28 238V227.878H1067.67L1067.66 229.019H1062.59V232.323H1067.16V233.457H1062.58V236.831L1067.8 236.845V238H1061.28ZM1069.52 238V230.762H1070.77V231.812C1070.97 231.495 1071.24 231.217 1071.59 230.979C1071.94 230.741 1072.4 230.622 1072.96 230.622C1073.22 230.622 1073.49 230.666 1073.76 230.755C1074.03 230.844 1074.28 230.977 1074.51 231.154C1074.74 231.331 1074.92 231.548 1075.04 231.805C1075.27 231.45 1075.57 231.166 1075.95 230.951C1076.34 230.732 1076.77 230.622 1077.25 230.622C1077.5 230.622 1077.76 230.662 1078.04 230.741C1078.32 230.816 1078.57 230.951 1078.8 231.147C1079.04 231.338 1079.23 231.607 1079.38 231.952C1079.53 232.293 1079.61 232.731 1079.61 233.268V238H1078.31V233.394C1078.31 232.955 1078.24 232.617 1078.1 232.379C1077.96 232.136 1077.77 231.966 1077.54 231.868C1077.32 231.77 1077.08 231.721 1076.82 231.721C1076.6 231.721 1076.36 231.765 1076.11 231.854C1075.86 231.943 1075.64 232.092 1075.46 232.302C1075.29 232.512 1075.2 232.799 1075.2 233.163V238H1073.91V233.016C1073.91 232.731 1073.83 232.493 1073.68 232.302C1073.53 232.111 1073.34 231.966 1073.11 231.868C1072.89 231.77 1072.66 231.721 1072.44 231.721C1072.19 231.721 1071.94 231.77 1071.69 231.868C1071.44 231.966 1071.23 232.122 1071.06 232.337C1070.89 232.547 1070.81 232.822 1070.81 233.163V238H1069.52ZM1083.64 238.14C1083.17 238.14 1082.75 238.058 1082.39 237.895C1082.04 237.727 1081.76 237.487 1081.55 237.174C1081.35 236.861 1081.25 236.483 1081.25 236.04C1081.25 235.237 1081.53 234.64 1082.09 234.248C1082.65 233.856 1083.55 233.646 1084.79 233.618L1086.07 233.583V233.016C1086.07 232.573 1085.94 232.223 1085.67 231.966C1085.41 231.705 1085 231.574 1084.44 231.574C1084.03 231.579 1083.66 231.677 1083.34 231.868C1083.03 232.059 1082.82 232.372 1082.73 232.806H1081.59C1081.62 232.335 1081.75 231.938 1081.99 231.616C1082.22 231.289 1082.56 231.042 1082.99 230.874C1083.42 230.706 1083.92 230.622 1084.51 230.622C1085.14 230.622 1085.66 230.711 1086.07 230.888C1086.49 231.065 1086.81 231.327 1087.01 231.672C1087.22 232.017 1087.33 232.442 1087.33 232.946V238H1086.22L1086.12 236.642C1085.85 237.207 1085.49 237.599 1085.06 237.818C1084.63 238.033 1084.16 238.14 1083.64 238.14ZM1084.02 237.209C1084.27 237.209 1084.51 237.165 1084.75 237.076C1084.99 236.987 1085.21 236.868 1085.41 236.719C1085.61 236.565 1085.77 236.395 1085.89 236.208C1086.01 236.017 1086.07 235.821 1086.07 235.62V234.381L1085 234.402C1084.45 234.411 1083.98 234.467 1083.62 234.57C1083.25 234.673 1082.97 234.834 1082.78 235.053C1082.6 235.272 1082.5 235.559 1082.5 235.914C1082.5 236.32 1082.65 236.637 1082.93 236.866C1083.21 237.095 1083.58 237.209 1084.02 237.209ZM1089.38 238V230.762H1090.63V238H1089.38ZM1089.35 229.229V227.885H1090.67V229.229H1089.35ZM1094.71 238.091C1094.32 238.091 1094 238.037 1093.76 237.93C1093.52 237.823 1093.34 237.678 1093.21 237.496C1093.08 237.314 1093 237.106 1092.95 236.873C1092.91 236.635 1092.89 236.39 1092.89 236.138V227.598H1094.16V236.012C1094.16 236.376 1094.23 236.649 1094.37 236.831C1094.52 237.013 1094.72 237.113 1094.97 237.132L1095.36 237.139V237.979C1095.26 238.012 1095.15 238.037 1095.03 238.056C1094.91 238.079 1094.81 238.091 1094.71 238.091Z" fill="#1A1B1D"/>
<path d="M47 402C47 366.654 75.6538 338 111 338V338C146.346 338 175 366.654 175 402V402C175 437.346 146.346 466 111 466V466C75.6538 466 47 437.346 47 402V402Z" fill="#F79767"/>
<path d="M81.2745 407V396.878H83.0665L86.1185 405.236L89.2125 396.878H90.9975V407H89.6605V398.817L86.7275 407H85.5165L82.6045 398.894V407H81.2745ZM96.3722 407.14C95.7002 407.14 95.1075 406.993 94.5942 406.699C94.0809 406.405 93.6795 405.983 93.3902 405.432C93.1009 404.881 92.9562 404.221 92.9562 403.451C92.9562 402.69 93.0869 402.023 93.3482 401.449C93.6095 400.875 93.9875 400.427 94.4822 400.105C94.9815 399.783 95.5812 399.622 96.2812 399.622C96.9625 399.622 97.5389 399.769 98.0102 400.063C98.4815 400.357 98.8385 400.772 99.0812 401.309C99.3285 401.841 99.4522 402.473 99.4522 403.206V403.682H94.2652C94.2652 404.139 94.3399 404.555 94.4892 404.928C94.6432 405.297 94.8742 405.591 95.1822 405.81C95.4902 406.029 95.8799 406.139 96.3512 406.139C96.8132 406.139 97.2099 406.032 97.5412 405.817C97.8772 405.602 98.0919 405.292 98.1852 404.886H99.4032C99.3192 405.376 99.1232 405.789 98.8152 406.125C98.5119 406.461 98.1455 406.715 97.7162 406.888C97.2915 407.056 96.8435 407.14 96.3722 407.14ZM94.2722 402.807H98.2062C98.2062 402.392 98.1362 402.018 97.9962 401.687C97.8562 401.351 97.6415 401.087 97.3522 400.896C97.0675 400.7 96.7082 400.602 96.2742 400.602C95.8215 400.602 95.4459 400.712 95.1472 400.931C94.8485 401.146 94.6269 401.423 94.4822 401.764C94.3375 402.1 94.2675 402.448 94.2722 402.807ZM101.243 407V399.762H102.475V401.155C102.596 400.81 102.767 400.525 102.986 400.301C103.205 400.072 103.455 399.902 103.735 399.79C104.02 399.678 104.314 399.622 104.617 399.622C104.724 399.622 104.829 399.629 104.932 399.643C105.035 399.657 105.114 399.68 105.17 399.713V400.966C105.1 400.933 105.009 400.912 104.897 400.903C104.79 400.889 104.699 400.882 104.624 400.882C104.335 400.863 104.064 400.882 103.812 400.938C103.56 400.989 103.338 401.08 103.147 401.211C102.956 401.342 102.804 401.514 102.692 401.729C102.585 401.939 102.531 402.196 102.531 402.499V407H101.243ZM109.514 407.14C108.861 407.14 108.282 406.998 107.778 406.713C107.279 406.428 106.887 406.008 106.602 405.453C106.322 404.898 106.182 404.216 106.182 403.409C106.182 402.653 106.311 401.993 106.567 401.428C106.829 400.859 107.207 400.415 107.701 400.098C108.201 399.781 108.805 399.622 109.514 399.622C110.032 399.622 110.497 399.722 110.907 399.923C111.323 400.119 111.663 400.399 111.929 400.763C112.195 401.127 112.359 401.556 112.419 402.051H111.271C111.229 401.799 111.131 401.568 110.977 401.358C110.828 401.148 110.63 400.98 110.382 400.854C110.14 400.728 109.853 400.665 109.521 400.665C108.901 400.665 108.394 400.889 108.002 401.337C107.615 401.785 107.421 402.471 107.421 403.395C107.421 404.23 107.599 404.9 107.953 405.404C108.313 405.903 108.84 406.153 109.535 406.153C109.867 406.153 110.156 406.09 110.403 405.964C110.651 405.833 110.849 405.663 110.998 405.453C111.148 405.238 111.243 405.01 111.285 404.767H112.412C112.352 405.252 112.186 405.672 111.915 406.027C111.649 406.382 111.309 406.657 110.893 406.853C110.483 407.044 110.023 407.14 109.514 407.14ZM114.135 407V396.598H115.395V400.826C115.517 400.625 115.68 400.439 115.885 400.266C116.091 400.089 116.34 399.946 116.634 399.839C116.928 399.727 117.269 399.671 117.656 399.671C118.128 399.671 118.555 399.76 118.937 399.937C119.32 400.11 119.623 400.357 119.847 400.679C120.071 401.001 120.183 401.384 120.183 401.827V407H118.888V402.086C118.888 401.652 118.739 401.318 118.44 401.085C118.146 400.847 117.761 400.728 117.285 400.728C116.963 400.728 116.66 400.782 116.375 400.889C116.091 400.992 115.86 401.15 115.682 401.365C115.51 401.575 115.423 401.843 115.423 402.17V407H114.135ZM124.205 407.14C123.733 407.14 123.318 407.058 122.959 406.895C122.604 406.727 122.324 406.487 122.119 406.174C121.918 405.861 121.818 405.483 121.818 405.04C121.818 404.237 122.098 403.64 122.658 403.248C123.218 402.856 124.116 402.646 125.353 402.618L126.641 402.583V402.016C126.641 401.573 126.508 401.223 126.242 400.966C125.976 400.705 125.565 400.574 125.01 400.574C124.594 400.579 124.228 400.677 123.911 400.868C123.593 401.059 123.39 401.372 123.302 401.806H122.161C122.189 401.335 122.319 400.938 122.553 400.616C122.791 400.289 123.124 400.042 123.554 399.874C123.983 399.706 124.489 399.622 125.073 399.622C125.703 399.622 126.225 399.711 126.641 399.888C127.061 400.065 127.373 400.327 127.579 400.672C127.789 401.017 127.894 401.442 127.894 401.946V407H126.788L126.69 405.642C126.414 406.207 126.06 406.599 125.626 406.818C125.196 407.033 124.723 407.14 124.205 407.14ZM124.59 406.209C124.837 406.209 125.08 406.165 125.318 406.076C125.56 405.987 125.78 405.868 125.976 405.719C126.176 405.565 126.337 405.395 126.459 405.208C126.58 405.017 126.641 404.821 126.641 404.62V403.381L125.57 403.402C125.014 403.411 124.552 403.467 124.184 403.57C123.815 403.673 123.537 403.834 123.351 404.053C123.164 404.272 123.071 404.559 123.071 404.914C123.071 405.32 123.213 405.637 123.498 405.866C123.782 406.095 124.146 406.209 124.59 406.209ZM129.913 407V399.762H131.166V400.812C131.282 400.611 131.443 400.422 131.649 400.245C131.859 400.068 132.111 399.925 132.405 399.818C132.703 399.711 133.046 399.657 133.434 399.657C133.891 399.657 134.311 399.748 134.694 399.93C135.081 400.112 135.389 400.397 135.618 400.784C135.851 401.167 135.968 401.661 135.968 402.268V407H134.673V402.394C134.673 401.829 134.523 401.412 134.225 401.141C133.931 400.866 133.548 400.728 133.077 400.728C132.75 400.728 132.444 400.782 132.16 400.889C131.875 400.992 131.644 401.15 131.467 401.365C131.289 401.575 131.201 401.841 131.201 402.163V407H129.913ZM140.345 407.035C139.846 407.035 139.458 406.967 139.183 406.832C138.908 406.697 138.714 406.496 138.602 406.23C138.495 405.964 138.441 405.637 138.441 405.25V400.707H137.265V399.762H138.476L138.791 397.655H139.743V399.755H141.374V400.707H139.743V405.208C139.743 405.465 139.769 405.654 139.82 405.775C139.876 405.892 139.967 405.966 140.093 405.999C140.219 406.032 140.396 406.048 140.625 406.048H141.416V406.916C141.327 406.949 141.192 406.977 141.01 407C140.833 407.023 140.611 407.035 140.345 407.035Z" fill="#1A1B1D"/>
<path d="M731 233C731 197.654 759.654 169 795 169V169C830.346 169 859 197.654 859 233V233C859 268.346 830.346 297 795 297V297C759.654 297 731 268.346 731 233V233Z" fill="#C990C0"/>
<path d="M780.852 238.14C779.942 238.14 779.165 237.932 778.521 237.517C777.882 237.102 777.392 236.504 777.051 235.725C776.715 234.946 776.547 234.005 776.547 232.904C776.547 231.807 776.715 230.874 777.051 230.104C777.387 229.334 777.875 228.748 778.514 228.347C779.158 227.941 779.937 227.738 780.852 227.738C781.566 227.738 782.198 227.887 782.749 228.186C783.3 228.48 783.743 228.874 784.079 229.369C784.415 229.864 784.613 230.407 784.674 231H783.295C783.22 230.603 783.078 230.244 782.868 229.922C782.658 229.6 782.383 229.343 782.042 229.152C781.701 228.961 781.293 228.865 780.817 228.865C780.206 228.865 779.688 229.01 779.263 229.299C778.843 229.584 778.523 230.025 778.304 230.622C778.089 231.219 777.982 231.985 777.982 232.918C777.982 234.327 778.222 235.363 778.703 236.026C779.188 236.684 779.893 237.013 780.817 237.013C781.293 237.013 781.701 236.913 782.042 236.712C782.383 236.511 782.658 236.243 782.868 235.907C783.078 235.571 783.22 235.207 783.295 234.815H784.674C784.623 235.244 784.506 235.66 784.324 236.061C784.147 236.458 783.902 236.812 783.589 237.125C783.276 237.438 782.891 237.685 782.434 237.867C781.981 238.049 781.454 238.14 780.852 238.14ZM788.328 238.091C787.936 238.091 787.618 238.037 787.376 237.93C787.138 237.823 786.953 237.678 786.823 237.496C786.697 237.314 786.61 237.106 786.564 236.873C786.522 236.635 786.501 236.39 786.501 236.138V227.598H787.775V236.012C787.775 236.376 787.845 236.649 787.985 236.831C788.129 237.013 788.33 237.113 788.587 237.132L788.979 237.139V237.979C788.871 238.012 788.759 238.037 788.643 238.056C788.526 238.079 788.421 238.091 788.328 238.091ZM790.706 238V230.762H791.959V238H790.706ZM790.671 229.229V227.885H791.994V229.229H790.671ZM797.189 238.14C796.517 238.14 795.924 237.993 795.411 237.699C794.897 237.405 794.496 236.983 794.207 236.432C793.917 235.881 793.773 235.221 793.773 234.451C793.773 233.69 793.903 233.023 794.165 232.449C794.426 231.875 794.804 231.427 795.299 231.105C795.798 230.783 796.398 230.622 797.098 230.622C797.779 230.622 798.355 230.769 798.827 231.063C799.298 231.357 799.655 231.772 799.898 232.309C800.145 232.841 800.269 233.473 800.269 234.206V234.682H795.082C795.082 235.139 795.156 235.555 795.306 235.928C795.46 236.297 795.691 236.591 795.999 236.81C796.307 237.029 796.696 237.139 797.168 237.139C797.63 237.139 798.026 237.032 798.358 236.817C798.694 236.602 798.908 236.292 799.002 235.886H800.22C800.136 236.376 799.94 236.789 799.632 237.125C799.328 237.461 798.962 237.715 798.533 237.888C798.108 238.056 797.66 238.14 797.189 238.14ZM795.089 233.807H799.023C799.023 233.392 798.953 233.018 798.813 232.687C798.673 232.351 798.458 232.087 798.169 231.896C797.884 231.7 797.525 231.602 797.091 231.602C796.638 231.602 796.262 231.712 795.964 231.931C795.665 232.146 795.443 232.423 795.299 232.764C795.154 233.1 795.084 233.448 795.089 233.807ZM802.059 238V230.762H803.312V231.812C803.429 231.611 803.59 231.422 803.795 231.245C804.005 231.068 804.257 230.925 804.551 230.818C804.85 230.711 805.193 230.657 805.58 230.657C806.038 230.657 806.458 230.748 806.84 230.93C807.228 231.112 807.536 231.397 807.764 231.784C807.998 232.167 808.114 232.661 808.114 233.268V238H806.819V233.394C806.819 232.829 806.67 232.412 806.371 232.141C806.077 231.866 805.695 231.728 805.223 231.728C804.897 231.728 804.591 231.782 804.306 231.889C804.022 231.992 803.791 232.15 803.613 232.365C803.436 232.575 803.347 232.841 803.347 233.163V238H802.059ZM812.492 238.035C811.992 238.035 811.605 237.967 811.33 237.832C811.054 237.697 810.861 237.496 810.749 237.23C810.641 236.964 810.588 236.637 810.588 236.25V231.707H809.412V230.762H810.623L810.938 228.655H811.89V230.755H813.521V231.707H811.89V236.208C811.89 236.465 811.915 236.654 811.967 236.775C812.023 236.892 812.114 236.966 812.24 236.999C812.366 237.032 812.543 237.048 812.772 237.048H813.563V237.916C813.474 237.949 813.339 237.977 813.157 238C812.979 238.023 812.758 238.035 812.492 238.035Z" fill="white"/>
<path d="M312 233C312 197.654 340.654 169 376 169V169C411.346 169 440 197.654 440 233V233C440 268.346 411.346 297 376 297V297C340.654 297 312 268.346 312 233V233Z" fill="#FFDF81"/>
<path d="M341.665 238V229.068H338.396V227.878H346.054V229.068H342.967V238H341.665ZM347.007 238V230.762H348.239V232.155C348.36 231.81 348.53 231.525 348.75 231.301C348.969 231.072 349.219 230.902 349.499 230.79C349.783 230.678 350.077 230.622 350.381 230.622C350.488 230.622 350.593 230.629 350.696 230.643C350.798 230.657 350.878 230.68 350.934 230.713V231.966C350.864 231.933 350.773 231.912 350.661 231.903C350.553 231.889 350.462 231.882 350.388 231.882C350.098 231.863 349.828 231.882 349.576 231.938C349.324 231.989 349.102 232.08 348.911 232.211C348.719 232.342 348.568 232.514 348.456 232.729C348.348 232.939 348.295 233.196 348.295 233.499V238H347.007ZM354.246 238.14C353.774 238.14 353.359 238.058 353 237.895C352.645 237.727 352.365 237.487 352.16 237.174C351.959 236.861 351.859 236.483 351.859 236.04C351.859 235.237 352.139 234.64 352.699 234.248C353.259 233.856 354.157 233.646 355.394 233.618L356.682 233.583V233.016C356.682 232.573 356.549 232.223 356.283 231.966C356.017 231.705 355.606 231.574 355.051 231.574C354.635 231.579 354.269 231.677 353.952 231.868C353.634 232.059 353.431 232.372 353.343 232.806H352.202C352.23 232.335 352.36 231.938 352.594 231.616C352.832 231.289 353.165 231.042 353.595 230.874C354.024 230.706 354.53 230.622 355.114 230.622C355.744 230.622 356.266 230.711 356.682 230.888C357.102 231.065 357.414 231.327 357.62 231.672C357.83 232.017 357.935 232.442 357.935 232.946V238H356.829L356.731 236.642C356.455 237.207 356.101 237.599 355.667 237.818C355.237 238.033 354.764 238.14 354.246 238.14ZM354.631 237.209C354.878 237.209 355.121 237.165 355.359 237.076C355.601 236.987 355.821 236.868 356.017 236.719C356.217 236.565 356.378 236.395 356.5 236.208C356.621 236.017 356.682 235.821 356.682 235.62V234.381L355.611 234.402C355.055 234.411 354.593 234.467 354.225 234.57C353.856 234.673 353.578 234.834 353.392 235.053C353.205 235.272 353.112 235.559 353.112 235.914C353.112 236.32 353.254 236.637 353.539 236.866C353.823 237.095 354.187 237.209 354.631 237.209ZM359.954 238V230.762H361.207V231.812C361.323 231.611 361.484 231.422 361.69 231.245C361.9 231.068 362.152 230.925 362.446 230.818C362.744 230.711 363.087 230.657 363.475 230.657C363.932 230.657 364.352 230.748 364.735 230.93C365.122 231.112 365.43 231.397 365.659 231.784C365.892 232.167 366.009 232.661 366.009 233.268V238H364.714V233.394C364.714 232.829 364.564 232.412 364.266 232.141C363.972 231.866 363.589 231.728 363.118 231.728C362.791 231.728 362.485 231.782 362.201 231.889C361.916 231.992 361.685 232.15 361.508 232.365C361.33 232.575 361.242 232.841 361.242 233.163V238H359.954ZM370.57 238.14C370.066 238.14 369.597 238.063 369.163 237.909C368.733 237.75 368.376 237.505 368.092 237.174C367.807 236.838 367.63 236.411 367.56 235.893H368.736C368.796 236.178 368.913 236.416 369.086 236.607C369.258 236.794 369.471 236.936 369.723 237.034C369.979 237.127 370.259 237.174 370.563 237.174C371.053 237.174 371.447 237.083 371.746 236.901C372.044 236.719 372.194 236.439 372.194 236.061C372.194 235.795 372.114 235.583 371.956 235.424C371.802 235.261 371.559 235.142 371.228 235.067L369.73 234.696C369.146 234.556 368.68 234.337 368.33 234.038C367.984 233.739 367.809 233.322 367.805 232.785C367.805 232.36 367.907 231.987 368.113 231.665C368.318 231.343 368.624 231.089 369.03 230.902C369.44 230.715 369.951 230.622 370.563 230.622C371.351 230.622 371.986 230.799 372.467 231.154C372.947 231.504 373.199 232.02 373.223 232.701H372.075C372.028 232.356 371.874 232.083 371.613 231.882C371.351 231.677 370.997 231.574 370.549 231.574C370.091 231.574 369.716 231.667 369.422 231.854C369.132 232.036 368.988 232.321 368.988 232.708C368.988 232.965 369.09 233.168 369.296 233.317C369.506 233.462 369.809 233.583 370.206 233.681L371.662 234.045C371.993 234.134 372.268 234.25 372.488 234.395C372.707 234.54 372.88 234.701 373.006 234.878C373.132 235.055 373.22 235.242 373.272 235.438C373.328 235.629 373.356 235.814 373.356 235.991C373.356 236.434 373.246 236.817 373.027 237.139C372.807 237.456 372.49 237.704 372.075 237.881C371.659 238.054 371.158 238.14 370.57 238.14ZM377.105 238.14C376.634 238.14 376.218 238.058 375.859 237.895C375.504 237.727 375.224 237.487 375.019 237.174C374.818 236.861 374.718 236.483 374.718 236.04C374.718 235.237 374.998 234.64 375.558 234.248C376.118 233.856 377.016 233.646 378.253 233.618L379.541 233.583V233.016C379.541 232.573 379.408 232.223 379.142 231.966C378.876 231.705 378.465 231.574 377.91 231.574C377.495 231.579 377.128 231.677 376.811 231.868C376.494 232.059 376.291 232.372 376.202 232.806H375.061C375.089 232.335 375.22 231.938 375.453 231.616C375.691 231.289 376.025 231.042 376.454 230.874C376.883 230.706 377.39 230.622 377.973 230.622C378.603 230.622 379.126 230.711 379.541 230.888C379.961 231.065 380.274 231.327 380.479 231.672C380.689 232.017 380.794 232.442 380.794 232.946V238H379.688L379.59 236.642C379.315 237.207 378.96 237.599 378.526 237.818C378.097 238.033 377.623 238.14 377.105 238.14ZM377.49 237.209C377.737 237.209 377.98 237.165 378.218 237.076C378.461 236.987 378.68 236.868 378.876 236.719C379.077 236.565 379.238 236.395 379.359 236.208C379.48 236.017 379.541 235.821 379.541 235.62V234.381L378.47 234.402C377.915 234.411 377.453 234.467 377.084 234.57C376.715 234.673 376.438 234.834 376.251 235.053C376.064 235.272 375.971 235.559 375.971 235.914C375.971 236.32 376.113 236.637 376.398 236.866C376.683 237.095 377.047 237.209 377.49 237.209ZM385.725 238.14C385.072 238.14 384.493 237.998 383.989 237.713C383.49 237.428 383.098 237.008 382.813 236.453C382.533 235.898 382.393 235.216 382.393 234.409C382.393 233.653 382.522 232.993 382.778 232.428C383.04 231.859 383.418 231.415 383.912 231.098C384.412 230.781 385.016 230.622 385.725 230.622C386.243 230.622 386.708 230.722 387.118 230.923C387.534 231.119 387.874 231.399 388.14 231.763C388.406 232.127 388.57 232.556 388.63 233.051H387.482C387.44 232.799 387.342 232.568 387.188 232.358C387.039 232.148 386.841 231.98 386.593 231.854C386.351 231.728 386.064 231.665 385.732 231.665C385.112 231.665 384.605 231.889 384.213 232.337C383.826 232.785 383.632 233.471 383.632 234.395C383.632 235.23 383.81 235.9 384.164 236.404C384.524 236.903 385.051 237.153 385.746 237.153C386.078 237.153 386.367 237.09 386.614 236.964C386.862 236.833 387.06 236.663 387.209 236.453C387.359 236.238 387.454 236.01 387.496 235.767H388.623C388.563 236.252 388.397 236.672 388.126 237.027C387.86 237.382 387.52 237.657 387.104 237.853C386.694 238.044 386.234 238.14 385.725 238.14ZM392.753 238.035C392.254 238.035 391.867 237.967 391.591 237.832C391.316 237.697 391.122 237.496 391.01 237.23C390.903 236.964 390.849 236.637 390.849 236.25V231.707H389.673V230.762H390.884L391.199 228.655H392.151V230.755H393.782V231.707H392.151V236.208C392.151 236.465 392.177 236.654 392.228 236.775C392.284 236.892 392.375 236.966 392.501 236.999C392.627 237.032 392.805 237.048 393.033 237.048H393.824V237.916C393.736 237.949 393.6 237.977 393.418 238C393.241 238.023 393.019 238.035 392.753 238.035ZM395.577 238V230.762H396.83V238H395.577ZM395.542 229.229V227.885H396.865V229.229H395.542ZM401.899 238.14C401.231 238.14 400.648 237.998 400.149 237.713C399.654 237.424 399.269 237.001 398.994 236.446C398.718 235.891 398.581 235.212 398.581 234.409C398.581 233.653 398.709 232.99 398.966 232.421C399.222 231.852 399.598 231.411 400.093 231.098C400.587 230.781 401.192 230.622 401.906 230.622C402.573 230.622 403.152 230.769 403.642 231.063C404.132 231.352 404.512 231.779 404.783 232.344C405.058 232.909 405.196 233.597 405.196 234.409C405.196 235.146 405.07 235.795 404.818 236.355C404.566 236.915 404.195 237.354 403.705 237.671C403.219 237.984 402.617 238.14 401.899 238.14ZM401.906 237.118C402.335 237.118 402.699 237.008 402.998 236.789C403.296 236.57 403.523 236.255 403.677 235.844C403.835 235.433 403.915 234.946 403.915 234.381C403.915 233.863 403.845 233.399 403.705 232.988C403.569 232.573 403.355 232.244 403.061 232.001C402.767 231.758 402.382 231.637 401.906 231.637C401.467 231.637 401.096 231.747 400.793 231.966C400.489 232.181 400.258 232.493 400.1 232.904C399.946 233.315 399.869 233.807 399.869 234.381C399.869 234.89 399.936 235.352 400.072 235.767C400.212 236.182 400.431 236.511 400.73 236.754C401.033 236.997 401.425 237.118 401.906 237.118ZM406.917 238V230.762H408.17V231.812C408.286 231.611 408.447 231.422 408.653 231.245C408.863 231.068 409.115 230.925 409.409 230.818C409.707 230.711 410.05 230.657 410.438 230.657C410.895 230.657 411.315 230.748 411.698 230.93C412.085 231.112 412.393 231.397 412.622 231.784C412.855 232.167 412.972 232.661 412.972 233.268V238H411.677V233.394C411.677 232.829 411.527 232.412 411.229 232.141C410.935 231.866 410.552 231.728 410.081 231.728C409.754 231.728 409.448 231.782 409.164 231.889C408.879 231.992 408.648 232.15 408.471 232.365C408.293 232.575 408.205 232.841 408.205 233.163V238H406.917Z" fill="#1A1B1D"/>
<path d="M727.5 233H619.278M544.153 233H443.5" stroke="#1A1B1D" stroke-width="2" stroke-linecap="round" stroke-linejoin="bevel"/>
<path d="M552.16 238.5V228.318H558.474V229.641H553.696V232.743H558.022V234.06H553.696V238.5H552.16ZM561.745 228.318V238.5H560.209V228.318H561.745ZM563.829 238.5V228.318H567.458C568.247 228.318 568.901 228.454 569.422 228.726C569.945 228.998 570.336 229.374 570.595 229.854C570.853 230.332 570.983 230.884 570.983 231.51C570.983 232.133 570.852 232.682 570.59 233.156C570.331 233.626 569.94 233.992 569.417 234.254C568.896 234.516 568.242 234.647 567.453 234.647H564.704V233.325H567.314C567.811 233.325 568.215 233.253 568.527 233.111C568.842 232.968 569.072 232.761 569.218 232.489C569.364 232.218 569.437 231.891 569.437 231.51C569.437 231.125 569.362 230.792 569.213 230.511C569.067 230.229 568.837 230.013 568.522 229.864C568.21 229.712 567.801 229.636 567.294 229.636H565.365V238.5H563.829ZM568.855 233.906L571.371 238.5H569.621L567.155 233.906H568.855ZM578.251 230.993C578.198 230.522 577.98 230.158 577.595 229.899C577.211 229.637 576.727 229.506 576.143 229.506C575.726 229.506 575.364 229.573 575.06 229.705C574.755 229.835 574.518 230.013 574.349 230.242C574.183 230.468 574.1 230.724 574.1 231.013C574.1 231.255 574.156 231.464 574.269 231.639C574.385 231.815 574.536 231.962 574.721 232.082C574.91 232.198 575.113 232.295 575.328 232.375C575.543 232.451 575.751 232.514 575.949 232.564L576.944 232.822C577.269 232.902 577.602 233.01 577.943 233.146C578.284 233.281 578.601 233.46 578.893 233.683C579.184 233.905 579.42 234.18 579.599 234.508C579.781 234.836 579.872 235.229 579.872 235.686C579.872 236.263 579.723 236.775 579.425 237.222C579.13 237.67 578.7 238.023 578.137 238.281C577.577 238.54 576.899 238.669 576.104 238.669C575.341 238.669 574.682 238.548 574.125 238.306C573.568 238.064 573.132 237.721 572.817 237.277C572.502 236.83 572.328 236.299 572.295 235.686H573.837C573.866 236.054 573.986 236.361 574.194 236.606C574.407 236.848 574.677 237.028 575.005 237.148C575.336 237.264 575.699 237.322 576.094 237.322C576.528 237.322 576.914 237.254 577.252 237.118C577.593 236.979 577.862 236.786 578.057 236.541C578.253 236.293 578.351 236.003 578.351 235.671C578.351 235.37 578.265 235.123 578.092 234.93C577.923 234.738 577.693 234.579 577.401 234.453C577.113 234.327 576.786 234.216 576.422 234.12L575.219 233.792C574.403 233.57 573.757 233.243 573.28 232.812C572.806 232.382 572.569 231.812 572.569 231.102C572.569 230.516 572.728 230.004 573.046 229.566C573.364 229.129 573.795 228.789 574.339 228.547C574.882 228.302 575.495 228.179 576.178 228.179C576.868 228.179 577.476 228.3 578.003 228.542C578.533 228.784 578.951 229.117 579.256 229.541C579.561 229.962 579.72 230.446 579.733 230.993H578.251ZM581.052 229.641V228.318H588.932V229.641H585.755V238.5H584.224V229.641H581.052ZM595.061 238.5V239.763H588.592V238.5H595.061ZM594.716 229.641V228.318H602.596V229.641H599.419V238.5H597.888V229.641H594.716ZM605.253 228.318L607.689 232.3H607.768L610.204 228.318H611.984L608.812 233.409L612.004 238.5H610.214L607.768 234.572H607.689L605.243 238.5H603.453L606.699 233.409L603.473 228.318H605.253Z" fill="black" fill-opacity="0.8"/>
<path d="M795 300.5V313C795 315.209 793.209 317 791 317H615.54M543.415 317H380C377.791 317 376 315.209 376 313V300.5" stroke="#1A1B1D" stroke-width="2" stroke-linecap="round" stroke-linejoin="bevel"/>
<path d="M551.273 322.5V312.318H552.81V321.178H557.423V322.5H551.273ZM560.401 322.5H558.771L562.435 312.318H564.21L567.874 322.5H566.243L563.365 314.168H563.285L560.401 322.5ZM560.675 318.513H565.965V319.805H560.675V318.513ZM574.661 314.993C574.608 314.522 574.39 314.158 574.005 313.899C573.621 313.637 573.137 313.506 572.553 313.506C572.136 313.506 571.774 313.573 571.47 313.705C571.165 313.835 570.928 314.013 570.759 314.242C570.593 314.468 570.51 314.724 570.51 315.013C570.51 315.255 570.566 315.464 570.679 315.639C570.795 315.815 570.946 315.962 571.131 316.082C571.32 316.198 571.523 316.295 571.738 316.375C571.953 316.451 572.161 316.514 572.359 316.564L573.354 316.822C573.679 316.902 574.012 317.01 574.353 317.146C574.694 317.281 575.011 317.46 575.303 317.683C575.594 317.905 575.83 318.18 576.009 318.508C576.191 318.836 576.282 319.229 576.282 319.686C576.282 320.263 576.133 320.775 575.835 321.222C575.54 321.67 575.11 322.023 574.547 322.281C573.987 322.54 573.309 322.669 572.514 322.669C571.751 322.669 571.092 322.548 570.535 322.306C569.978 322.064 569.542 321.721 569.227 321.277C568.913 320.83 568.739 320.299 568.705 319.686H570.247C570.276 320.054 570.396 320.361 570.605 320.606C570.817 320.848 571.087 321.028 571.415 321.148C571.746 321.264 572.109 321.322 572.504 321.322C572.938 321.322 573.324 321.254 573.662 321.118C574.003 320.979 574.272 320.786 574.467 320.541C574.663 320.293 574.761 320.003 574.761 319.671C574.761 319.37 574.675 319.123 574.502 318.93C574.333 318.738 574.103 318.579 573.811 318.453C573.523 318.327 573.196 318.216 572.832 318.12L571.629 317.792C570.813 317.57 570.167 317.243 569.69 316.812C569.216 316.382 568.979 315.812 568.979 315.102C568.979 314.516 569.138 314.004 569.456 313.566C569.774 313.129 570.205 312.789 570.749 312.547C571.292 312.302 571.905 312.179 572.588 312.179C573.278 312.179 573.886 312.3 574.413 312.542C574.943 312.784 575.361 313.117 575.666 313.541C575.971 313.962 576.13 314.446 576.143 314.993H574.661ZM577.462 313.641V312.318H585.342V313.641H582.165V322.5H580.634V313.641H577.462ZM591.471 322.5V323.763H585.002V322.5H591.471ZM591.126 313.641V312.318H599.006V313.641H595.829V322.5H594.298V313.641H591.126ZM601.663 312.318L604.099 316.3H604.178L606.614 312.318H608.394L605.222 317.409L608.414 322.5H606.624L604.178 318.572H604.099L601.653 322.5H599.863L603.109 317.409L599.883 312.318H601.663Z" fill="black" fill-opacity="0.8"/>
<path d="M795 165.5V153C795 150.791 793.209 149 791 149H628.54M530.415 149H380C377.791 149 376 150.791 376 153V165.5" stroke="#1A1B1D" stroke-width="2" stroke-linecap="round" stroke-linejoin="bevel"/>
<path d="M795 165.5V153C795 150.791 793.209 149 791 149H628.54M530.415 149H380C377.791 149 376 150.791 376 153V165.5" stroke="#1A1B1D" stroke-width="2" stroke-linecap="round" stroke-linejoin="bevel"/>
<path d="M538.46 154.5V144.318H542.089C542.881 144.318 543.537 144.462 544.058 144.751C544.578 145.039 544.968 145.433 545.226 145.934C545.485 146.431 545.614 146.991 545.614 147.614C545.614 148.241 545.483 148.804 545.221 149.305C544.963 149.802 544.571 150.196 544.048 150.488C543.527 150.776 542.873 150.92 542.084 150.92H539.588V149.618H541.945C542.445 149.618 542.851 149.532 543.163 149.359C543.474 149.184 543.703 148.945 543.849 148.643C543.995 148.342 544.068 147.999 544.068 147.614C544.068 147.23 543.995 146.888 543.849 146.59C543.703 146.292 543.473 146.058 543.158 145.889C542.846 145.72 542.435 145.636 541.925 145.636H539.996V154.5H538.46ZM547.261 154.5V144.318H553.644V145.641H548.797V148.743H553.311V150.06H548.797V153.178H553.704V154.5H547.261ZM555.542 154.5V144.318H559.172C559.96 144.318 560.615 144.454 561.135 144.726C561.659 144.998 562.05 145.374 562.309 145.854C562.567 146.332 562.696 146.884 562.696 147.51C562.696 148.133 562.566 148.682 562.304 149.156C562.045 149.626 561.654 149.992 561.13 150.254C560.61 150.516 559.955 150.647 559.167 150.647H556.417V149.325H559.027C559.525 149.325 559.929 149.253 560.24 149.111C560.555 148.968 560.786 148.761 560.932 148.489C561.077 148.218 561.15 147.891 561.15 147.51C561.15 147.125 561.076 146.792 560.927 146.511C560.781 146.229 560.55 146.013 560.236 145.864C559.924 145.712 559.515 145.636 559.008 145.636H557.079V154.5H555.542ZM560.569 149.906L563.084 154.5H561.334L558.868 149.906H560.569ZM564.412 154.5V144.318H570.726V145.641H565.948V148.743H570.273V150.06H565.948V154.5H564.412ZM581.305 149.409C581.305 150.496 581.106 151.431 580.709 152.213C580.311 152.992 579.766 153.592 579.073 154.013C578.384 154.43 577.6 154.639 576.722 154.639C575.84 154.639 575.053 154.43 574.36 154.013C573.671 153.592 573.127 152.99 572.729 152.208C572.332 151.426 572.133 150.493 572.133 149.409C572.133 148.322 572.332 147.389 572.729 146.61C573.127 145.828 573.671 145.228 574.36 144.81C575.053 144.389 575.84 144.179 576.722 144.179C577.6 144.179 578.384 144.389 579.073 144.81C579.766 145.228 580.311 145.828 580.709 146.61C581.106 147.389 581.305 148.322 581.305 149.409ZM579.784 149.409C579.784 148.58 579.65 147.883 579.381 147.316C579.116 146.746 578.752 146.315 578.288 146.023C577.827 145.728 577.305 145.581 576.722 145.581C576.135 145.581 575.611 145.728 575.151 146.023C574.69 146.315 574.325 146.746 574.057 147.316C573.792 147.883 573.659 148.58 573.659 149.409C573.659 150.238 573.792 150.937 574.057 151.507C574.325 152.074 574.69 152.505 575.151 152.8C575.611 153.091 576.135 153.237 576.722 153.237C577.305 153.237 577.827 153.091 578.288 152.8C578.752 152.505 579.116 152.074 579.381 151.507C579.65 150.937 579.784 150.238 579.784 149.409ZM583.067 154.5V144.318H586.696C587.485 144.318 588.139 144.454 588.66 144.726C589.183 144.998 589.574 145.374 589.833 145.854C590.092 146.332 590.221 146.884 590.221 147.51C590.221 148.133 590.09 148.682 589.828 149.156C589.57 149.626 589.178 149.992 588.655 150.254C588.134 150.516 587.48 150.647 586.691 150.647H583.942V149.325H586.552C587.049 149.325 587.453 149.253 587.765 149.111C588.08 148.968 588.31 148.761 588.456 148.489C588.602 148.218 588.675 147.891 588.675 147.51C588.675 147.125 588.6 146.792 588.451 146.511C588.305 146.229 588.075 146.013 587.76 145.864C587.448 145.712 587.039 145.636 586.532 145.636H584.603V154.5H583.067ZM588.093 149.906L590.609 154.5H588.859L586.393 149.906H588.093ZM591.936 144.318H593.8L597.042 152.233H597.161L600.403 144.318H602.267V154.5H600.805V147.132H600.711L597.708 154.485H596.495L593.492 147.127H593.398V154.5H591.936V144.318ZM604.347 154.5V144.318H610.73V145.641H605.883V148.743H610.397V150.06H605.883V153.178H610.79V154.5H604.347ZM615.924 154.5H612.628V144.318H616.029C617.026 144.318 617.883 144.522 618.599 144.93C619.315 145.334 619.863 145.916 620.245 146.675C620.629 147.43 620.821 148.337 620.821 149.394C620.821 150.455 620.627 151.366 620.24 152.129C619.855 152.891 619.298 153.478 618.569 153.888C617.84 154.296 616.958 154.5 615.924 154.5ZM614.164 153.158H615.84C616.615 153.158 617.26 153.012 617.774 152.72C618.287 152.425 618.672 151.999 618.927 151.442C619.182 150.882 619.31 150.2 619.31 149.394C619.31 148.595 619.182 147.918 618.927 147.361C618.675 146.804 618.299 146.381 617.799 146.093C617.298 145.805 616.677 145.661 615.934 145.661H614.164V153.158Z" fill="black" fill-opacity="0.8"/>
<path d="M1011.96 104.258C1012.1 103.722 1011.78 103.179 1011.24 103.044L1002.51 100.843C1001.98 100.707 1001.43 101.032 1001.3 101.568C1001.16 102.103 1001.49 102.647 1002.02 102.782L1009.78 104.738L1007.82 112.495C1007.69 113.031 1008.01 113.574 1008.55 113.71C1009.08 113.845 1009.63 113.52 1009.76 112.984L1011.96 104.258ZM998.577 111.429L998.064 110.57L998.064 110.57L998.577 111.429ZM983.078 120.684L982.565 119.826L982.565 119.826L983.078 120.684ZM979.59 122.768L980.102 123.626L980.102 123.626L979.59 122.768ZM964.235 131.937L964.747 132.796L964.747 132.796L964.235 131.937ZM962.574 131.764C962.1 132.047 961.945 132.661 962.228 133.135C962.511 133.61 963.125 133.764 963.599 133.481L962.574 131.764ZM906.455 167.606C906.929 167.323 907.084 166.709 906.801 166.235C906.518 165.761 905.904 165.606 905.43 165.889L906.455 167.606ZM889.465 176.588L889.977 177.446L889.977 177.446L889.465 176.588ZM885.953 178.685L885.44 177.826L885.44 177.826L885.953 178.685ZM870.452 187.942L869.939 187.083L869.939 187.083L870.452 187.942ZM861.492 192.127C861.018 192.411 860.863 193.025 861.146 193.499C861.429 193.973 862.043 194.128 862.518 193.845L861.492 192.127ZM1010.48 103.155L998.064 110.57L999.09 112.287L1011.51 104.872L1010.48 103.155ZM998.064 110.57L982.565 119.826L983.591 121.543L999.09 112.287L998.064 110.57ZM982.565 119.826L979.077 121.909L980.102 123.626L983.591 121.543L982.565 119.826ZM979.077 121.909L963.722 131.079L964.747 132.796L980.102 123.626L979.077 121.909ZM963.722 131.079L962.574 131.764L963.599 133.481L964.747 132.796L963.722 131.079ZM905.43 165.889L888.952 175.729L889.977 177.446L906.455 167.606L905.43 165.889ZM888.952 175.729L885.44 177.826L886.466 179.543L889.977 177.446L888.952 175.729ZM885.44 177.826L869.939 187.083L870.965 188.8L886.466 179.543L885.44 177.826ZM869.939 187.083L861.492 192.127L862.518 193.845L870.965 188.8L869.939 187.083Z" fill="#1A1B1D"/>
<path d="M893.97 155.186V145.004H895.506V149.428H900.582V145.004H902.123V155.186H900.582V150.746H895.506V155.186H893.97ZM905.067 155.186H903.436L907.1 145.004H908.875L912.539 155.186H910.908L908.03 146.853H907.95L905.067 155.186ZM905.34 151.198H910.63V152.491H905.34V151.198ZM919.327 147.678C919.274 147.208 919.055 146.843 918.67 146.585C918.286 146.323 917.802 146.192 917.219 146.192C916.801 146.192 916.44 146.258 916.135 146.391C915.83 146.52 915.593 146.699 915.424 146.928C915.258 147.153 915.175 147.41 915.175 147.698C915.175 147.94 915.232 148.149 915.344 148.325C915.46 148.5 915.611 148.648 915.797 148.767C915.986 148.883 916.188 148.981 916.403 149.061C916.619 149.137 916.826 149.2 917.025 149.249L918.019 149.508C918.344 149.588 918.677 149.695 919.018 149.831C919.36 149.967 919.676 150.146 919.968 150.368C920.26 150.59 920.495 150.865 920.674 151.193C920.856 151.521 920.947 151.914 920.947 152.372C920.947 152.948 920.798 153.46 920.5 153.908C920.205 154.355 919.776 154.708 919.212 154.967C918.652 155.225 917.974 155.355 917.179 155.355C916.417 155.355 915.757 155.234 915.2 154.992C914.643 154.75 914.207 154.407 913.893 153.963C913.578 153.515 913.404 152.985 913.371 152.372H914.912C914.942 152.74 915.061 153.046 915.27 153.291C915.482 153.533 915.752 153.714 916.08 153.833C916.412 153.949 916.774 154.007 917.169 154.007C917.603 154.007 917.989 153.939 918.327 153.803C918.669 153.664 918.937 153.472 919.133 153.227C919.328 152.978 919.426 152.688 919.426 152.357C919.426 152.055 919.34 151.808 919.167 151.616C918.998 151.424 918.768 151.265 918.476 151.139C918.188 151.013 917.862 150.902 917.497 150.806L916.294 150.477C915.479 150.255 914.832 149.929 914.355 149.498C913.881 149.067 913.644 148.497 913.644 147.788C913.644 147.201 913.803 146.689 914.121 146.252C914.439 145.814 914.87 145.474 915.414 145.232C915.957 144.987 916.571 144.865 917.253 144.865C917.943 144.865 918.551 144.985 919.078 145.227C919.608 145.469 920.026 145.802 920.331 146.227C920.636 146.648 920.795 147.132 920.808 147.678H919.327ZM927.964 155.186V156.448H921.496V155.186H927.964ZM928.915 155.186V145.004H932.544C933.336 145.004 933.992 145.148 934.513 145.436C935.033 145.725 935.422 146.119 935.681 146.619C935.939 147.117 936.069 147.677 936.069 148.3C936.069 148.926 935.938 149.49 935.676 149.99C935.417 150.487 935.026 150.882 934.503 151.173C933.982 151.462 933.328 151.606 932.539 151.606H930.043V150.303H932.4C932.9 150.303 933.306 150.217 933.618 150.045C933.929 149.869 934.158 149.631 934.304 149.329C934.45 149.027 934.522 148.684 934.522 148.3C934.522 147.915 934.45 147.574 934.304 147.276C934.158 146.977 933.928 146.744 933.613 146.575C933.301 146.406 932.89 146.321 932.38 146.321H930.451V155.186H928.915ZM937.716 155.186V145.004H939.252V149.428H944.328V145.004H945.869V155.186H944.328V150.746H939.252V155.186H937.716ZM956.797 150.095C956.797 151.182 956.598 152.116 956.2 152.899C955.802 153.677 955.257 154.277 954.564 154.698C953.875 155.116 953.091 155.325 952.213 155.325C951.331 155.325 950.544 155.116 949.851 154.698C949.162 154.277 948.618 153.676 948.221 152.894C947.823 152.111 947.624 151.178 947.624 150.095C947.624 149.008 947.823 148.075 948.221 147.296C948.618 146.513 949.162 145.914 949.851 145.496C950.544 145.075 951.331 144.865 952.213 144.865C953.091 144.865 953.875 145.075 954.564 145.496C955.257 145.914 955.802 146.513 956.2 147.296C956.598 148.075 956.797 149.008 956.797 150.095ZM955.275 150.095C955.275 149.266 955.141 148.568 954.873 148.002C954.608 147.432 954.243 147.001 953.779 146.709C953.318 146.414 952.796 146.267 952.213 146.267C951.626 146.267 951.103 146.414 950.642 146.709C950.181 147.001 949.817 147.432 949.548 148.002C949.283 148.568 949.15 149.266 949.15 150.095C949.15 150.923 949.283 151.623 949.548 152.193C949.817 152.759 950.181 153.19 950.642 153.485C951.103 153.777 951.626 153.923 952.213 153.923C952.796 153.923 953.318 153.777 953.779 153.485C954.243 153.19 954.608 152.759 954.873 152.193C955.141 151.623 955.275 150.923 955.275 150.095ZM966.776 145.004V155.186H965.364L960.189 147.718H960.094V155.186H958.558V145.004H959.98L965.16 152.481H965.255V145.004H966.776ZM968.863 155.186V145.004H975.246V146.326H970.399V149.428H974.913V150.746H970.399V153.863H975.306V155.186H968.863Z" fill="black" fill-opacity="0.8"/>
<path d="M1011.21 233.707C1011.6 233.317 1011.6 232.683 1011.21 232.293L1004.84 225.929C1004.45 225.538 1003.82 225.538 1003.43 225.929C1003.04 226.319 1003.04 226.953 1003.43 227.343L1009.09 233L1003.43 238.657C1003.04 239.047 1003.04 239.681 1003.43 240.071C1003.82 240.462 1004.45 240.462 1004.84 240.071L1011.21 233.707ZM979.59 232C979.038 232 978.59 232.448 978.59 233C978.59 233.552 979.038 234 979.59 234V232ZM889.465 234C890.017 234 890.465 233.552 890.465 233C890.465 232.448 890.017 232 889.465 232V234ZM862.5 232C861.948 232 861.5 232.448 861.5 233C861.5 233.552 861.948 234 862.5 234V232ZM1010.5 232H979.59V234H1010.5V232ZM889.465 232H862.5V234H889.465V232Z" fill="#1A1B1D"/>
<path d="M897.242 238.5V228.318H898.779V232.743H903.855V228.318H905.396V238.5H903.855V234.06H898.779V238.5H897.242ZM908.339 238.5H906.708L910.373 228.318H912.147L915.811 238.5H914.181L911.302 230.168H911.223L908.339 238.5ZM908.613 234.513H913.902V235.805H908.613V234.513ZM922.599 230.993C922.546 230.522 922.327 230.158 921.943 229.899C921.558 229.637 921.074 229.506 920.491 229.506C920.073 229.506 919.712 229.573 919.407 229.705C919.102 229.835 918.865 230.013 918.696 230.242C918.531 230.468 918.448 230.724 918.448 231.013C918.448 231.255 918.504 231.464 918.617 231.639C918.733 231.815 918.884 231.962 919.069 232.082C919.258 232.198 919.46 232.295 919.676 232.375C919.891 232.451 920.098 232.514 920.297 232.564L921.291 232.822C921.616 232.902 921.949 233.01 922.291 233.146C922.632 233.281 922.949 233.46 923.24 233.683C923.532 233.905 923.767 234.18 923.946 234.508C924.129 234.836 924.22 235.229 924.22 235.686C924.22 236.263 924.071 236.775 923.772 237.222C923.477 237.67 923.048 238.023 922.485 238.281C921.925 238.54 921.247 238.669 920.451 238.669C919.689 238.669 919.029 238.548 918.473 238.306C917.916 238.064 917.48 237.721 917.165 237.277C916.85 236.83 916.676 236.299 916.643 235.686H918.184C918.214 236.054 918.333 236.361 918.542 236.606C918.754 236.848 919.024 237.028 919.353 237.148C919.684 237.264 920.047 237.322 920.441 237.322C920.876 237.322 921.262 237.254 921.6 237.118C921.941 236.979 922.21 236.786 922.405 236.541C922.601 236.293 922.698 236.003 922.698 235.671C922.698 235.37 922.612 235.123 922.44 234.93C922.271 234.738 922.041 234.579 921.749 234.453C921.461 234.327 921.134 234.216 920.769 234.12L919.566 233.792C918.751 233.57 918.105 233.243 917.627 232.812C917.153 232.382 916.916 231.812 916.916 231.102C916.916 230.516 917.076 230.004 917.394 229.566C917.712 229.129 918.143 228.789 918.686 228.547C919.23 228.302 919.843 228.179 920.526 228.179C921.215 228.179 921.823 228.3 922.35 228.542C922.881 228.784 923.298 229.117 923.603 229.541C923.908 229.962 924.067 230.446 924.081 230.993H922.599ZM931.236 238.5V239.763H924.768V238.5H931.236ZM932.187 238.5V228.318H938.57V229.641H933.723V232.743H938.237V234.06H933.723V237.178H938.63V238.5H932.187ZM940.469 228.318H942.333L945.574 236.233H945.694L948.935 228.318H950.799V238.5H949.338V231.132H949.243L946.241 238.485H945.027L942.025 231.127H941.93V238.5H940.469V228.318ZM953.739 238.5H952.108L955.772 228.318H957.547L961.211 238.5H959.581L956.702 230.168H956.623L953.739 238.5ZM954.012 234.513H959.302V235.805H954.012V234.513ZM964.064 228.318V238.5H962.528V228.318H964.064ZM966.147 238.5V228.318H967.683V237.178H972.297V238.5H966.147Z" fill="black" fill-opacity="0.8"/>
<path d="M1011.24 362.956C1011.78 362.821 1012.1 362.278 1011.96 361.742L1009.76 353.015C1009.63 352.48 1009.08 352.155 1008.55 352.29C1008.01 352.425 1007.69 352.969 1007.82 353.504L1009.78 361.261L1002.02 363.218C1001.49 363.353 1001.16 363.897 1001.3 364.432C1001.43 364.968 1001.98 365.292 1002.51 365.157L1011.24 362.956ZM998.577 354.571L998.064 355.429L998.064 355.429L998.577 354.571ZM983.078 345.315L982.565 346.174L982.565 346.174L983.078 345.315ZM979.59 343.232L980.102 342.374L980.102 342.374L979.59 343.232ZM964.235 334.063L964.747 333.204L964.747 333.204L964.235 334.063ZM963.599 332.518C963.125 332.235 962.511 332.39 962.228 332.864C961.945 333.339 962.1 333.952 962.574 334.236L963.599 332.518ZM905.43 300.111C905.904 300.394 906.518 300.239 906.801 299.765C907.084 299.291 906.929 298.677 906.455 298.393L905.43 300.111ZM889.465 289.412L889.977 288.553L889.977 288.553L889.465 289.412ZM885.953 287.315L885.44 288.173L885.44 288.173L885.953 287.315ZM873.599 279.938L874.112 279.079L874.112 279.079L873.599 279.938ZM870.452 278.058L869.939 278.917L869.939 278.917L870.452 278.058ZM862.518 272.155C862.043 271.872 861.429 272.027 861.146 272.501C860.863 272.975 861.018 273.589 861.492 273.872L862.518 272.155ZM1011.51 361.128L999.09 353.712L998.064 355.429L1010.48 362.845L1011.51 361.128ZM999.09 353.712L983.591 344.457L982.565 346.174L998.064 355.429L999.09 353.712ZM983.591 344.457L980.102 342.374L979.077 344.091L982.565 346.174L983.591 344.457ZM980.102 342.374L964.747 333.204L963.722 334.921L979.077 344.091L980.102 342.374ZM964.747 333.204L963.599 332.518L962.574 334.236L963.722 334.921L964.747 333.204ZM906.455 298.393L889.977 288.553L888.952 290.271L905.43 300.111L906.455 298.393ZM889.977 288.553L886.466 286.456L885.44 288.173L888.952 290.271L889.977 288.553ZM886.466 286.456L874.112 279.079L873.087 280.796L885.44 288.173L886.466 286.456ZM874.112 279.079L870.965 277.2L869.939 278.917L873.087 280.796L874.112 279.079ZM870.965 277.2L862.518 272.155L861.492 273.872L869.939 278.917L870.965 277.2Z" fill="#1A1B1D"/>
<path d="M878.219 321.814V311.633H879.756V316.057H884.832V311.633H886.373V321.814H884.832V317.375H879.756V321.814H878.219ZM889.316 321.814H887.685L891.349 311.633H893.124L896.788 321.814H895.158L892.279 313.482H892.2L889.316 321.814ZM889.59 317.827H894.879V319.12H889.59V317.827ZM903.576 314.307C903.523 313.837 903.304 313.472 902.92 313.214C902.535 312.952 902.051 312.821 901.468 312.821C901.05 312.821 900.689 312.887 900.384 313.02C900.079 313.149 899.842 313.328 899.673 313.557C899.508 313.782 899.425 314.039 899.425 314.327C899.425 314.569 899.481 314.778 899.594 314.954C899.71 315.129 899.861 315.277 900.046 315.396C900.235 315.512 900.437 315.61 900.653 315.689C900.868 315.766 901.075 315.829 901.274 315.878L902.268 316.137C902.593 316.216 902.926 316.324 903.268 316.46C903.609 316.596 903.926 316.775 904.217 316.997C904.509 317.219 904.744 317.494 904.923 317.822C905.106 318.15 905.197 318.543 905.197 319.001C905.197 319.577 905.048 320.089 904.749 320.537C904.454 320.984 904.025 321.337 903.462 321.596C902.901 321.854 902.224 321.983 901.428 321.983C900.666 321.983 900.006 321.863 899.45 321.621C898.893 321.379 898.457 321.036 898.142 320.591C897.827 320.144 897.653 319.614 897.62 319.001H899.161C899.191 319.368 899.31 319.675 899.519 319.92C899.731 320.162 900.001 320.343 900.33 320.462C900.661 320.578 901.024 320.636 901.418 320.636C901.852 320.636 902.239 320.568 902.577 320.432C902.918 320.293 903.187 320.101 903.382 319.856C903.578 319.607 903.675 319.317 903.675 318.986C903.675 318.684 903.589 318.437 903.417 318.245C903.248 318.053 903.017 317.894 902.726 317.768C902.437 317.642 902.111 317.531 901.746 317.434L900.543 317.106C899.728 316.884 899.082 316.558 898.604 316.127C898.13 315.696 897.893 315.126 897.893 314.417C897.893 313.83 898.053 313.318 898.371 312.881C898.689 312.443 899.12 312.103 899.663 311.861C900.207 311.616 900.82 311.493 901.503 311.493C902.192 311.493 902.8 311.614 903.327 311.856C903.858 312.098 904.275 312.431 904.58 312.856C904.885 313.277 905.044 313.76 905.057 314.307H903.576ZM912.213 321.814V323.077H905.745V321.814H912.213ZM921.382 311.633V321.814H919.97L914.795 314.347H914.7V321.814H913.164V311.633H914.586L919.766 319.11H919.861V311.633H921.382ZM925.005 311.633V321.814H923.469V311.633H925.005ZM932.901 321.814V323.077H926.433V321.814H932.901ZM942.07 311.633V321.814H940.658L935.483 314.347H935.389V321.814H933.852V311.633H935.274L940.455 319.11H940.549V311.633H942.07ZM950.705 311.633H952.246V318.329C952.246 319.042 952.079 319.673 951.744 320.224C951.409 320.77 950.939 321.201 950.332 321.516C949.725 321.828 949.015 321.983 948.199 321.983C947.387 321.983 946.678 321.828 946.071 321.516C945.465 321.201 944.994 320.77 944.659 320.224C944.325 319.673 944.157 319.042 944.157 318.329V311.633H945.694V318.205C945.694 318.666 945.795 319.075 945.997 319.433C946.202 319.791 946.492 320.073 946.867 320.278C947.241 320.48 947.685 320.581 948.199 320.581C948.716 320.581 949.162 320.48 949.537 320.278C949.914 320.073 950.203 319.791 950.402 319.433C950.604 319.075 950.705 318.666 950.705 318.205V311.633ZM954.326 311.633H956.19L959.431 319.547H959.551L962.792 311.633H964.657V321.814H963.195V314.447H963.1L960.098 321.8H958.884L955.882 314.442H955.787V321.814H954.326V311.633ZM966.736 321.814V311.633H970.465C971.187 311.633 971.785 311.752 972.259 311.991C972.733 312.226 973.088 312.546 973.323 312.95C973.559 313.351 973.676 313.804 973.676 314.307C973.676 314.732 973.598 315.09 973.443 315.381C973.287 315.67 973.078 315.902 972.816 316.077C972.558 316.25 972.273 316.376 971.961 316.455V316.555C972.299 316.571 972.629 316.68 972.95 316.883C973.275 317.081 973.544 317.365 973.756 317.733C973.968 318.101 974.074 318.548 974.074 319.075C974.074 319.595 973.951 320.063 973.706 320.477C973.464 320.888 973.09 321.215 972.583 321.456C972.075 321.695 971.428 321.814 970.639 321.814H966.736ZM968.272 320.497H970.49C971.225 320.497 971.752 320.354 972.071 320.069C972.389 319.784 972.548 319.428 972.548 319.001C972.548 318.679 972.467 318.384 972.304 318.116C972.142 317.847 971.91 317.633 971.608 317.474C971.31 317.315 970.955 317.236 970.544 317.236H968.272V320.497ZM968.272 316.037H970.33C970.675 316.037 970.985 315.971 971.26 315.839C971.539 315.706 971.759 315.52 971.921 315.282C972.087 315.04 972.17 314.755 972.17 314.427C972.17 314.006 972.022 313.653 971.727 313.368C971.433 313.083 970.98 312.94 970.37 312.94H968.272V316.037ZM975.742 321.814V311.633H982.126V312.955H977.278V316.057H981.793V317.375H977.278V320.492H982.185V321.814H975.742ZM984.024 321.814V311.633H987.653C988.442 311.633 989.096 311.769 989.617 312.04C990.14 312.312 990.532 312.688 990.79 313.169C991.049 313.646 991.178 314.198 991.178 314.824C991.178 315.448 991.047 315.996 990.785 316.47C990.527 316.941 990.135 317.307 989.612 317.569C989.091 317.831 988.437 317.961 987.648 317.961H984.899V316.639H987.509C988.006 316.639 988.41 316.568 988.722 316.425C989.037 316.283 989.267 316.076 989.413 315.804C989.559 315.532 989.632 315.206 989.632 314.824C989.632 314.44 989.557 314.107 989.408 313.825C989.262 313.543 989.032 313.328 988.717 313.179C988.405 313.026 987.996 312.95 987.489 312.95H985.56V321.814H984.024ZM989.05 317.221L991.566 321.814H989.816L987.35 317.221H989.05Z" fill="black" fill-opacity="0.8"/>
<path d="M176.975 359.087C176.855 359.626 177.196 360.16 177.735 360.28L186.523 362.223C187.062 362.343 187.596 362.002 187.715 361.463C187.834 360.924 187.494 360.39 186.955 360.271L179.144 358.543L180.871 350.732C180.991 350.192 180.65 349.658 180.111 349.539C179.572 349.42 179.038 349.76 178.919 350.3L176.975 359.087ZM217.529 334.063L218.067 334.906L218.067 334.906L217.529 334.063ZM218.492 333.449L217.954 332.606L217.954 332.606L218.492 333.449ZM229.222 327.792C229.688 327.495 229.825 326.877 229.528 326.411C229.231 325.945 228.613 325.808 228.147 326.105L229.222 327.792ZM261.272 304.98C260.806 305.277 260.67 305.896 260.967 306.361C261.264 306.827 261.882 306.964 262.347 306.667L261.272 304.98ZM271.039 299.938L271.577 300.781L271.577 300.781L271.039 299.938ZM272.001 299.324L271.464 298.481L271.464 298.481L272.001 299.324ZM302.4 279.938L301.862 279.095L301.862 279.095L302.4 279.938ZM309.587 276.54C310.053 276.243 310.189 275.625 309.892 275.16C309.595 274.694 308.977 274.557 308.512 274.854L309.587 276.54ZM178.489 360.146L218.067 334.906L216.992 333.22L177.413 358.46L178.489 360.146ZM218.067 334.906L219.03 334.292L217.954 332.606L216.992 333.22L218.067 334.906ZM219.03 334.292L229.222 327.792L228.147 326.105L217.954 332.606L219.03 334.292ZM262.347 306.667L271.577 300.781L270.501 299.095L261.272 304.98L262.347 306.667ZM271.577 300.781L272.539 300.167L271.464 298.481L270.501 299.095L271.577 300.781ZM272.539 300.167L302.938 280.781L301.862 279.095L271.464 298.481L272.539 300.167ZM302.938 280.781L309.587 276.54L308.512 274.854L301.862 279.095L302.938 280.781Z" fill="#1A1B1D"/>
<path d="M236.22 313.027V311.704H244.1V313.027H240.923V321.886H239.392V313.027H236.22ZM254.094 316.795C254.094 317.882 253.895 318.817 253.497 319.599C253.1 320.378 252.555 320.978 251.862 321.399C251.172 321.817 250.389 322.025 249.51 322.025C248.629 322.025 247.841 321.817 247.149 321.399C246.459 320.978 245.916 320.377 245.518 319.594C245.12 318.812 244.921 317.879 244.921 316.795C244.921 315.708 245.12 314.775 245.518 313.996C245.916 313.214 246.459 312.614 247.149 312.197C247.841 311.776 248.629 311.565 249.51 311.565C250.389 311.565 251.172 311.776 251.862 312.197C252.555 312.614 253.1 313.214 253.497 313.996C253.895 314.775 254.094 315.708 254.094 316.795ZM252.573 316.795C252.573 315.967 252.439 315.269 252.17 314.702C251.905 314.132 251.54 313.701 251.076 313.41C250.616 313.115 250.094 312.967 249.51 312.967C248.924 312.967 248.4 313.115 247.939 313.41C247.479 313.701 247.114 314.132 246.845 314.702C246.58 315.269 246.448 315.967 246.448 316.795C246.448 317.624 246.58 318.323 246.845 318.893C247.114 319.46 247.479 319.891 247.939 320.186C248.4 320.478 248.924 320.623 249.51 320.623C250.094 320.623 250.616 320.478 251.076 320.186C251.54 319.891 251.905 319.46 252.17 318.893C252.439 318.323 252.573 317.624 252.573 316.795Z" fill="black" fill-opacity="0.8"/>
<path d="M177.735 105.721C177.196 105.84 176.855 106.374 176.975 106.913L178.919 115.701C179.038 116.24 179.572 116.581 180.111 116.461C180.65 116.342 180.991 115.808 180.871 115.269L179.144 107.458L186.955 105.73C187.494 105.611 187.834 105.077 187.715 104.537C187.596 103.998 187.062 103.658 186.523 103.777L177.735 105.721ZM217.529 131.938L218.067 131.095L218.067 131.095L217.529 131.938ZM218.493 132.552L217.955 133.395L217.955 133.395L218.493 132.552ZM228.147 139.895C228.613 140.192 229.231 140.055 229.528 139.59C229.825 139.124 229.688 138.506 229.222 138.209L228.147 139.895ZM262.347 159.334C261.882 159.037 261.264 159.174 260.967 159.639C260.67 160.105 260.806 160.723 261.272 161.02L262.347 159.334ZM271.039 166.063L271.577 165.22L271.577 165.22L271.039 166.063ZM272.002 166.677L271.465 167.52L271.465 167.52L272.002 166.677ZM308.512 191.146C308.977 191.443 309.595 191.307 309.892 190.841C310.189 190.375 310.053 189.757 309.587 189.46L308.512 191.146ZM177.413 107.54L216.992 132.781L218.067 131.095L178.489 105.854L177.413 107.54ZM216.992 132.781L217.955 133.395L219.03 131.709L218.067 131.095L216.992 132.781ZM217.955 133.395L228.147 139.895L229.222 138.209L219.03 131.709L217.955 133.395ZM261.272 161.02L270.501 166.906L271.577 165.22L262.347 159.334L261.272 161.02ZM270.501 166.906L271.465 167.52L272.54 165.834L271.577 165.22L270.501 166.906ZM271.465 167.52L308.512 191.146L309.587 189.46L272.54 165.834L271.465 167.52Z" fill="#1A1B1D"/>
<path d="M236.22 146.255V144.932H244.1V146.255H240.923V155.114H239.392V146.255H236.22ZM254.094 150.023C254.094 151.11 253.895 152.045 253.497 152.827C253.1 153.606 252.555 154.206 251.862 154.627C251.172 155.045 250.389 155.253 249.51 155.253C248.629 155.253 247.841 155.045 247.149 154.627C246.459 154.206 245.916 153.605 245.518 152.822C245.12 152.04 244.921 151.107 244.921 150.023C244.921 148.936 245.12 148.003 245.518 147.224C245.916 146.442 246.459 145.842 247.149 145.425C247.841 145.004 248.629 144.793 249.51 144.793C250.389 144.793 251.172 145.004 251.862 145.425C252.555 145.842 253.1 146.442 253.497 147.224C253.895 148.003 254.094 148.936 254.094 150.023ZM252.573 150.023C252.573 149.195 252.439 148.497 252.17 147.93C251.905 147.36 251.54 146.929 251.076 146.638C250.616 146.343 250.094 146.195 249.51 146.195C248.924 146.195 248.4 146.343 247.939 146.638C247.479 146.929 247.114 147.36 246.845 147.93C246.58 148.497 246.448 149.195 246.448 150.023C246.448 150.852 246.58 151.551 246.845 152.121C247.114 152.688 247.479 153.119 247.939 153.414C248.4 153.706 248.924 153.851 249.51 153.851C250.094 153.851 250.616 153.706 251.076 153.414C251.54 153.119 251.905 152.688 252.17 152.121C252.439 151.551 252.573 150.852 252.573 150.023Z" fill="black" fill-opacity="0.8"/>
<path d="M47.7092 402.705C48.0997 402.315 48.0997 401.681 47.7092 401.291L41.3452 394.927C40.9547 394.536 40.3215 394.536 39.931 394.927C39.5405 395.317 39.5405 395.951 39.931 396.341L45.5879 401.998L39.931 407.655C39.5405 408.045 39.5405 408.678 39.931 409.069C40.3215 409.46 40.9547 409.46 41.3452 409.069L47.7092 402.705ZM111.885 337.529C106.506 327.404 100.157 320.741 93.2753 316.906C86.3848 313.067 79.0332 312.105 71.7354 313.261C57.191 315.565 42.8648 326.271 32.468 339.377C22.0802 352.472 15.4121 368.222 16.49 380.833C17.0324 387.18 19.5444 392.767 24.5621 396.75C29.5602 400.717 36.9254 402.998 47.0021 402.998L47.0021 400.998C37.2038 400.998 30.3348 398.779 25.8055 395.184C21.2957 391.604 18.9873 386.566 18.4827 380.663C17.4666 368.775 23.7981 353.525 34.0349 340.62C44.2628 327.727 58.1864 317.433 72.0484 315.236C78.9538 314.143 85.8445 315.055 92.3019 318.653C98.768 322.256 104.873 328.593 110.119 338.467L111.885 337.529Z" fill="black"/>
</svg>
