<svg width="861" height="551" viewBox="0 0 861 551" fill="none" xmlns="http://www.w3.org/2000/svg">
<g clip-path="url(#clip0_1810_7835)">
<mask id="path-1-inside-1_1810_7835" fill="white">
<path d="M0 33.2167C0 25.4562 6.29115 19.165 14.0517 19.165H846.614C854.374 19.165 860.665 25.4562 860.665 33.2167V536.948C860.665 544.709 854.374 551 846.614 551H14.0517C6.29116 551 0 544.709 0 536.948V33.2167Z"/>
</mask>
<path d="M0 33.2167C0 25.4562 6.29115 19.165 14.0517 19.165H846.614C854.374 19.165 860.665 25.4562 860.665 33.2167V536.948C860.665 544.709 854.374 551 846.614 551H14.0517C6.29116 551 0 544.709 0 536.948V33.2167Z" fill="white"/>
<rect y="94.1074" width="2248.27" height="1189.71" fill="#F5F7FA"/>
<g filter="url(#filter0_d_1810_7835)">
<rect x="108.901" y="118.697" width="309.137" height="36.016" rx="6.00266" fill="white"/>
<rect x="109.277" y="119.072" width="308.387" height="35.2656" rx="5.62749" stroke="#EEF1F6" stroke-width="0.750332"/>
</g>
<path d="M0 94.1074H74.9423V1283.82H0V94.1074Z" fill="white"/>
<line x1="74.3569" y1="1358.76" x2="74.3568" y2="94.1075" stroke="#EEF1F6" stroke-width="1.17097"/>
<rect width="2248.27" height="74.9423" transform="translate(0 19.165)" fill="#151E29"/>
<path d="M38.2596 47.3916C32.9944 47.3916 29.4609 50.4692 29.4609 56.4396V60.6964C29.9955 60.4326 30.5822 60.2926 31.1779 60.2867C31.7746 60.2868 32.3635 60.4235 32.8998 60.6864V56.4197C32.8998 52.5476 35.0298 50.5592 38.2746 50.5592C41.5193 50.5592 43.6195 52.5476 43.6195 56.4197V65.7225H47.0484V56.4197C47.0583 50.4143 43.5249 47.3916 38.2596 47.3916Z" fill="white"/>
<path d="M48.9238 56.7848C48.9238 51.354 52.9051 47.3721 58.5138 47.3721C64.1225 47.3721 68.0341 51.369 68.0341 56.7848V58.0489H52.5269C53.0246 61.2364 55.4134 63.01 58.4989 63.01C60.808 63.01 62.4304 62.2856 63.4755 60.7318H67.2578C65.8892 64.0592 62.6444 66.1976 58.4989 66.1976C52.8902 66.1976 48.9238 62.2156 48.9238 56.7848ZM64.426 54.9762C63.7393 52.1134 61.4003 50.5596 58.5138 50.5596C55.6274 50.5596 53.3232 52.1534 52.6364 54.9762H64.426Z" fill="white"/>
<path d="M69.8652 56.7847C69.8652 51.3589 73.8465 47.377 79.4552 47.377C85.0639 47.377 89.0452 51.3739 89.0452 56.7847C89.0452 62.1955 85.0639 66.1975 79.4552 66.1975C73.8465 66.1975 69.8652 62.2155 69.8652 56.7847ZM85.5864 56.7847C85.5864 53.1675 83.133 50.5595 79.4552 50.5595C75.7775 50.5595 73.329 53.1675 73.329 56.7847C73.329 60.4019 75.7775 63.0099 79.4502 63.0099C83.123 63.0099 85.5864 60.4069 85.5864 56.7847V56.7847Z" fill="white"/>
<path d="M108.634 69.2853H109.032C111.232 69.2853 112.058 68.286 112.058 65.788V47.9717H115.487V65.5581C115.487 69.9747 113.755 72.253 109.355 72.253H108.634V69.2853Z" fill="white"/>
<path d="M106.922 67.4464H103.493V63.2047H94.8084C94.0156 63.2325 93.2305 63.0395 92.5401 62.6471C91.8498 62.2547 91.281 61.6782 90.8968 60.9814C90.5847 60.3265 90.463 59.5965 90.5458 58.8753C90.6285 58.1541 90.9123 57.471 91.3646 56.9046L99.158 46.6375C99.6966 45.9076 100.451 45.3668 101.313 45.0916C102.175 44.8165 103.102 44.8212 103.962 45.105C104.821 45.3887 105.57 45.9371 106.101 46.6723C106.632 47.4075 106.919 48.2921 106.922 49.2005V60.1521H109.494V63.2047H106.922V67.4464ZM94.2162 58.7831C94.1137 58.9295 94.0581 59.1038 94.0569 59.2827C94.0563 59.3964 94.0781 59.5091 94.1211 59.6143C94.1642 59.7194 94.2275 59.815 94.3076 59.8954C94.3877 59.9758 94.4829 60.0394 94.5876 60.0826C94.6924 60.1258 94.8046 60.1477 94.9179 60.1471H103.493V49.1156C103.499 48.9299 103.444 48.7472 103.337 48.5956C103.231 48.444 103.077 48.3318 102.9 48.2762C102.798 48.2471 102.693 48.2319 102.587 48.2312C102.453 48.2312 102.321 48.2644 102.203 48.3281C102.085 48.3917 101.984 48.4838 101.91 48.596L94.2162 58.7831Z" fill="white"/>
<path d="M113.789 40.6621C113.208 40.6611 112.64 40.8332 112.156 41.1565C111.673 41.4798 111.296 41.9398 111.073 42.4783C110.85 43.0169 110.791 43.6097 110.903 44.1818C111.016 44.754 111.295 45.2797 111.706 45.6924C112.116 46.1052 112.64 46.3864 113.209 46.5006C113.779 46.6147 114.37 46.5566 114.906 46.3337C115.443 46.1107 115.902 45.7329 116.225 45.248C116.548 44.7632 116.72 44.1931 116.72 43.6098C116.72 42.8289 116.411 42.0799 115.862 41.5272C115.312 40.9746 114.567 40.6634 113.789 40.6621V40.6621Z" fill="white"/>
<path d="M31.0279 61.3819C30.3911 61.3826 29.7722 61.5933 29.2662 61.9815L26.0414 59.7682C26.1131 59.5095 26.15 59.2423 26.1508 58.9738C26.1577 58.3906 25.9918 57.8184 25.6742 57.33C25.3566 56.8416 24.9015 56.459 24.3668 56.2308C23.8322 56.0025 23.242 55.9389 22.6712 56.0481C22.1005 56.1573 21.5749 56.4342 21.1613 56.8438C20.7477 57.2535 20.4646 57.7773 20.3481 58.3487C20.2316 58.9201 20.2869 59.5134 20.5069 60.0533C20.7269 60.5931 21.1018 61.0551 21.5839 61.3807C22.066 61.7062 22.6336 61.8805 23.2146 61.8816C23.8516 61.882 24.4709 61.6712 24.9764 61.282L28.1913 63.5103C28.0452 64.0314 28.0452 64.5829 28.1913 65.1041L24.9664 67.3174C24.4637 66.9302 23.8482 66.7196 23.2146 66.7178C22.6335 66.7168 22.0651 66.889 21.5815 67.2125C21.0979 67.5361 20.7207 67.9964 20.4979 68.5352C20.275 69.074 20.2165 69.6671 20.3296 70.2394C20.4428 70.8117 20.7225 71.3374 21.1334 71.7499C21.5444 72.1625 22.068 72.4433 22.638 72.5569C23.2081 72.6705 23.7989 72.6117 24.3356 72.388C24.8723 72.1642 25.3308 71.7856 25.6531 71.3001C25.9754 70.8146 26.1469 70.244 26.1459 69.6606C26.1457 69.3956 26.1106 69.1319 26.0414 68.8762L29.2662 66.6629C29.7722 67.0511 30.3911 67.2617 31.0279 67.2624C31.7686 67.2093 32.4616 66.8765 32.9676 66.3309C33.4736 65.7853 33.7549 65.0676 33.7549 64.3222C33.7549 63.5768 33.4736 62.859 32.9676 62.3135C32.4616 61.7679 31.7686 61.4351 31.0279 61.3819V61.3819Z" fill="white"/>
<path d="M18.7354 123.381C18.7354 120.794 20.8324 118.697 23.4192 118.697H51.5226C54.1095 118.697 56.2065 120.794 56.2065 123.381V151.485C56.2065 154.071 54.1095 156.168 51.5226 156.168H23.4192C20.8324 156.168 18.7354 154.071 18.7354 151.485V123.381Z" fill="#EEF1F6"/>
<path d="M18.7354 170.22C18.7354 167.633 20.8324 165.536 23.4192 165.536H51.5226C54.1095 165.536 56.2065 167.633 56.2065 170.22V198.323C56.2065 200.91 54.1095 203.007 51.5226 203.007H23.4192C20.8324 203.007 18.7354 200.91 18.7354 198.323V170.22Z" fill="#EEF1F6"/>
<path d="M18.7354 217.059C18.7354 214.472 20.8324 212.375 23.4192 212.375H51.5226C54.1095 212.375 56.2065 214.472 56.2065 217.059V245.162C56.2065 247.749 54.1095 249.846 51.5226 249.846H23.4192C20.8324 249.846 18.7354 247.749 18.7354 245.162V217.059Z" fill="#EEF1F6"/>
<g clip-path="url(#clip1_1810_7835)">
<path d="M289.854 360.893L302.605 348.121" stroke="#B2B7BD" stroke-width="0.970161"/>
<path d="M302.605 348.122L303.017 348.888L304.194 346.53L301.84 347.709L302.605 348.122Z" fill="#B2B7BD"/>
<path d="M273.41 364.724L227.239 348.966" stroke="#B2B7BD" stroke-width="0.970161"/>
<path d="M227.239 348.966L227.744 348.258L225.112 348.24L227.207 349.836L227.239 348.966Z" fill="#B2B7BD"/>
<path d="M224.637 340.662L259.557 323.61" stroke="#B2B7BD" stroke-width="0.970161"/>
<path d="M259.558 323.61L259.698 324.47L261.578 322.624L258.969 322.971L259.558 323.61Z" fill="#B2B7BD"/>
<path d="M218.486 335.466L225.458 311.553" stroke="#B2B7BD" stroke-width="0.970161"/>
<path d="M225.457 311.553L226.186 312.027L226.087 309.392L224.588 311.56L225.457 311.553Z" fill="#B2B7BD"/>
<path d="M237.971 303.857L259.364 313.324" stroke="#B2B7BD" stroke-width="0.970161"/>
<path d="M259.365 313.324L258.8 313.985L261.42 314.233L259.473 312.46L259.365 313.324Z" fill="#B2B7BD"/>
<path d="M235.802 292.686L264.199 263.392" stroke="#B2B7BD" stroke-width="0.970161"/>
<path d="M264.199 263.393L264.622 264.153L265.764 261.778L263.428 262.991L264.199 263.393Z" fill="#B2B7BD"/>
<path d="M279.619 261.777L308.016 291.07" stroke="#B2B7BD" stroke-width="0.970161"/>
<path d="M308.015 291.071L307.244 291.472L309.581 292.686L308.438 290.311L308.015 291.071Z" fill="#B2B7BD"/>
<path d="M271.117 244.797L265.21 207.895" stroke="#B2B7BD" stroke-width="0.970161"/>
<path d="M265.211 207.894L266.072 208.009L264.855 205.672L264.429 208.273L265.211 207.894Z" fill="#B2B7BD"/>
<path d="M280.676 248.694L313.405 224.355" stroke="#B2B7BD" stroke-width="0.970161"/>
<path d="M313.405 224.354L313.7 225.173L315.209 223.012L312.708 223.834L313.405 224.354Z" fill="#B2B7BD"/>
<path d="M263.564 250.679L208.5 226.828" stroke="#B2B7BD" stroke-width="0.970161"/>
<path d="M208.5 226.827L209.059 226.161L206.437 225.933L208.398 227.691L208.5 226.827Z" fill="#B2B7BD"/>
<path d="M282.618 254.025L327.863 251.262" stroke="#B2B7BD" stroke-width="0.970161"/>
<path d="M327.862 251.262L327.664 252.11L330.106 251.125L327.562 250.445L327.862 251.262Z" fill="#B2B7BD"/>
<path d="M275.977 245.23L286.72 214.48" stroke="#B2B7BD" stroke-width="0.970161"/>
<path d="M286.72 214.481L287.423 214.992L287.462 212.356L285.852 214.441L286.72 214.481Z" fill="#B2B7BD"/>
<path d="M219.294 297.162L169.781 283.361" stroke="#B2B7BD" stroke-width="0.970161"/>
<path d="M169.781 283.361L170.245 282.625L167.616 282.758L169.799 284.231L169.781 283.361Z" fill="#B2B7BD"/>
<path d="M495.157 360.893L507.908 348.121" stroke="#B2B7BD" stroke-width="0.970161"/>
<path d="M507.908 348.122L508.32 348.888L509.497 346.53L507.143 347.709L507.908 348.122Z" fill="#B2B7BD"/>
<path d="M478.713 364.724L432.542 348.966" stroke="#B2B7BD" stroke-width="0.970161"/>
<path d="M432.541 348.966L433.046 348.258L430.414 348.24L432.509 349.836L432.541 348.966Z" fill="#B2B7BD"/>
<path d="M429.939 340.662L464.86 323.61" stroke="#B2B7BD" stroke-width="0.970161"/>
<path d="M464.861 323.61L465.001 324.47L466.881 322.624L464.271 322.971L464.861 323.61Z" fill="#B2B7BD"/>
<path d="M423.789 335.466L430.76 311.554" stroke="#B2B7BD" stroke-width="0.970161"/>
<path d="M430.76 311.553L431.489 312.027L431.39 309.392L429.891 311.56L430.76 311.553Z" fill="#B2B7BD"/>
<path d="M443.273 303.857L464.667 313.324" stroke="#B2B7BD" stroke-width="0.970161"/>
<path d="M464.667 313.324L464.103 313.985L466.723 314.233L464.775 312.46L464.667 313.324Z" fill="#B2B7BD"/>
<path d="M441.104 292.686L469.501 263.392" stroke="#B2B7BD" stroke-width="0.970161"/>
<path d="M469.502 263.393L469.925 264.153L471.067 261.778L468.73 262.991L469.502 263.393Z" fill="#B2B7BD"/>
<path d="M484.922 261.777L513.319 291.07" stroke="#B2B7BD" stroke-width="0.970161"/>
<path d="M513.318 291.071L512.547 291.472L514.884 292.686L513.741 290.311L513.318 291.071Z" fill="#B2B7BD"/>
<path d="M476.42 244.797L470.513 207.895" stroke="#B2B7BD" stroke-width="0.970161"/>
<path d="M470.514 207.894L471.375 208.009L470.158 205.672L469.731 208.273L470.514 207.894Z" fill="#B2B7BD"/>
<path d="M484.922 247.485L528.657 202.37" stroke="#B2B7BD" stroke-width="0.970161"/>
<path d="M528.657 202.371L529.08 203.131L530.222 200.756L527.886 201.97L528.657 202.371Z" fill="#B2B7BD"/>
<path d="M468.867 250.679L413.803 226.828" stroke="#B2B7BD" stroke-width="0.970161"/>
<path d="M413.802 226.827L414.362 226.161L411.74 225.933L413.701 227.691L413.802 226.827Z" fill="#B2B7BD"/>
<path d="M487.353 251.261L557.169 226.112" stroke="#B2B7BD" stroke-width="0.970161"/>
<path d="M557.169 226.112L557.216 226.981L559.284 225.35L556.652 225.412L557.169 226.112Z" fill="#B2B7BD"/>
<path d="M481.279 245.23L492.022 214.48" stroke="#B2B7BD" stroke-width="0.970161"/>
<path d="M492.022 214.481L492.726 214.992L492.765 212.356L491.154 214.441L492.022 214.481Z" fill="#B2B7BD"/>
<path d="M424.597 297.162L375.083 283.361" stroke="#B2B7BD" stroke-width="0.970161"/>
<path d="M375.084 283.361L375.548 282.625L372.919 282.758L375.102 284.231L375.084 283.361Z" fill="#B2B7BD"/>
<path d="M702.783 364.56L808.765 326.311" stroke="#B2B7BD" stroke-width="0.970161"/>
<path d="M808.764 326.312L808.811 327.181L810.878 325.549L808.247 325.612L808.764 326.312Z" fill="#B2B7BD"/>
<path d="M684.015 364.724L637.844 348.966" stroke="#B2B7BD" stroke-width="0.970161"/>
<path d="M637.844 348.966L638.348 348.258L635.716 348.24L637.812 349.836L637.844 348.966Z" fill="#B2B7BD"/>
<path d="M635.242 340.662L670.163 323.61" stroke="#B2B7BD" stroke-width="0.970161"/>
<path d="M670.163 323.61L670.304 324.47L672.183 322.624L669.574 322.971L670.163 323.61Z" fill="#B2B7BD"/>
<path d="M629.092 335.466L636.063 311.553" stroke="#B2B7BD" stroke-width="0.970161"/>
<path d="M636.062 311.553L636.791 312.027L636.692 309.392L635.193 311.56L636.062 311.553Z" fill="#B2B7BD"/>
<path d="M648.576 303.857L669.97 313.324" stroke="#B2B7BD" stroke-width="0.970161"/>
<path d="M669.97 313.324L669.405 313.985L672.026 314.233L670.078 312.46L669.97 313.324Z" fill="#B2B7BD"/>
<path d="M646.407 292.686L674.804 263.392" stroke="#B2B7BD" stroke-width="0.970161"/>
<path d="M674.804 263.393L675.228 264.153L676.37 261.778L674.033 262.991L674.804 263.393Z" fill="#B2B7BD"/>
<path d="M690.224 261.777L718.62 291.07" stroke="#B2B7BD" stroke-width="0.970161"/>
<path d="M718.622 291.071L717.851 291.472L720.187 292.686L719.045 290.311L718.622 291.071Z" fill="#B2B7BD"/>
<path d="M681.723 244.797L675.816 207.895" stroke="#B2B7BD" stroke-width="0.970161"/>
<path d="M675.816 207.894L676.677 208.009L675.46 205.672L675.033 208.273L675.816 207.894Z" fill="#B2B7BD"/>
<path d="M691.281 248.694L724.01 224.355" stroke="#B2B7BD" stroke-width="0.970161"/>
<path d="M724.01 224.354L724.306 225.173L725.815 223.012L723.313 223.834L724.01 224.354Z" fill="#B2B7BD"/>
<path d="M674.17 250.679L619.106 226.828" stroke="#B2B7BD" stroke-width="0.970161"/>
<path d="M619.105 226.827L619.665 226.161L617.042 225.933L619.004 227.691L619.105 226.827Z" fill="#B2B7BD"/>
<path d="M693.223 254.025L738.467 251.262" stroke="#B2B7BD" stroke-width="0.970161"/>
<path d="M738.467 251.262L738.268 252.11L740.71 251.125L738.167 250.445L738.467 251.262Z" fill="#B2B7BD"/>
<path d="M686.582 245.23L697.325 214.481" stroke="#B2B7BD" stroke-width="0.970161"/>
<path d="M697.325 214.481L698.028 214.992L698.067 212.356L696.457 214.441L697.325 214.481Z" fill="#B2B7BD"/>
<path d="M629.899 297.162L580.386 283.361" stroke="#B2B7BD" stroke-width="0.970161"/>
<path d="M580.386 283.361L580.85 282.625L578.221 282.758L580.403 284.231L580.386 283.361Z" fill="#B2B7BD"/>
<path d="M442.115 563.512L454.866 550.74" stroke="#B2B7BD" stroke-width="0.970161"/>
<path d="M454.867 550.74L455.279 551.506L456.456 549.148L454.102 550.327L454.867 550.74Z" fill="#B2B7BD"/>
<path d="M379.5 551.584L380.005 550.876L377.373 550.858L379.468 552.454L379.5 551.584Z" fill="#B2B7BD"/>
<path d="M376.898 543.281L411.819 526.229" stroke="#B2B7BD" stroke-width="0.970161"/>
<path d="M411.819 526.228L411.959 527.087L413.839 525.241L411.229 525.588L411.819 526.228Z" fill="#B2B7BD"/>
<path d="M370.747 538.085L377.718 514.173" stroke="#B2B7BD" stroke-width="0.970161"/>
<path d="M377.719 514.172L378.448 514.646L378.349 512.012L376.85 514.179L377.719 514.172Z" fill="#B2B7BD"/>
<path d="M390.231 506.476L411.625 515.942" stroke="#B2B7BD" stroke-width="0.970161"/>
<path d="M411.625 515.942L411.061 516.603L413.681 516.851L411.733 515.078L411.625 515.942Z" fill="#B2B7BD"/>
<path d="M388.063 495.305L416.46 466.012" stroke="#B2B7BD" stroke-width="0.970161"/>
<path d="M416.461 466.011L416.884 466.771L418.026 464.396L415.689 465.609L416.461 466.011Z" fill="#B2B7BD"/>
<path d="M431.881 464.396L460.278 493.69" stroke="#B2B7BD" stroke-width="0.970161"/>
<path d="M460.278 493.69L459.507 494.091L461.844 495.305L460.701 492.93L460.278 493.69Z" fill="#B2B7BD"/>
<path d="M423.379 447.415L417.472 410.513" stroke="#B2B7BD" stroke-width="0.970161"/>
<path d="M417.472 410.514L418.333 410.629L417.116 408.291L416.689 410.893L417.472 410.514Z" fill="#B2B7BD"/>
<path d="M432.938 451.313L465.666 426.974" stroke="#B2B7BD" stroke-width="0.970161"/>
<path d="M465.666 426.973L465.962 427.792L467.471 425.632L464.97 426.453L465.666 426.973Z" fill="#B2B7BD"/>
<path d="M415.825 453.297L360.761 429.446" stroke="#B2B7BD" stroke-width="0.970161"/>
<path d="M360.761 429.446L361.321 428.78L358.699 428.553L360.66 430.311L360.761 429.446Z" fill="#B2B7BD"/>
<path d="M434.896 457.052L563.003 454.489" stroke="#B2B7BD" stroke-width="0.970161"/>
<path d="M563.003 454.49L562.77 455.328L565.25 454.445L562.736 453.661L563.003 454.49Z" fill="#B2B7BD"/>
<path d="M428.237 447.85L438.98 417.1" stroke="#B2B7BD" stroke-width="0.970161"/>
<path d="M438.98 417.099L439.684 417.61L439.723 414.974L438.112 417.06L438.98 417.099Z" fill="#B2B7BD"/>
<path d="M371.557 499.78L322.043 485.979" stroke="#B2B7BD" stroke-width="0.970161"/>
<path d="M322.042 485.979L322.506 485.243L319.877 485.376L322.06 486.85L322.042 485.979Z" fill="#B2B7BD"/>
<path d="M341.985 418.159L292.123 375.831" stroke="#B2B7BD" stroke-width="0.970161"/>
<path d="M292.123 375.831L292.852 375.357L290.409 374.376L291.775 376.629L292.123 375.831Z" fill="#B2B7BD"/>
<path d="M416.554 388.547L419.759 357.175" stroke="#B2B7BD" stroke-width="0.970161"/>
<path d="M419.76 357.175L420.562 357.509L419.989 354.936L418.906 357.339L419.76 357.175Z" fill="#B2B7BD"/>
<path d="M319.887 344.382L404.925 392.454" stroke="#B2B7BD" stroke-width="0.970161"/>
<path d="M404.925 392.453L404.298 393.057L406.882 393.56L405.116 391.604L404.925 392.453Z" fill="#B2B7BD"/>
<path d="M484.37 415.28L615.374 350.437" stroke="#B2B7BD" stroke-width="0.970161"/>
<path d="M615.373 350.437L615.518 351.296L617.388 349.44L614.78 349.801L615.373 350.437Z" fill="#B2B7BD"/>
<path d="M583.229 448.379L683.575 375.128" stroke="#B2B7BD" stroke-width="0.970161"/>
<path d="M683.575 375.129L683.863 375.95L685.391 373.803L682.883 374.603L683.575 375.129Z" fill="#B2B7BD"/>
<path d="M578.585 221.979H595.723" stroke="#B2B7BD" stroke-width="0.970161"/>
<path d="M595.723 221.98L595.474 222.814L597.971 221.98L595.474 221.146L595.723 221.98Z" fill="#B2B7BD"/>
<path d="M568.641 231.941V267.876" stroke="#B2B7BD" stroke-width="0.970161"/>
<path d="M568.64 267.875L567.808 267.625L568.64 270.126L569.473 267.625L568.64 267.875Z" fill="#B2B7BD"/>
<path d="M544.543 200.271L559.576 213.814" stroke="#B2B7BD" stroke-width="0.970161"/>
<path d="M559.576 213.813L558.834 214.266L561.247 215.319L559.947 213.026L559.576 213.813Z" fill="#B2B7BD"/>
<path d="M848.1 274.415L860.851 261.643" stroke="#B2B7BD" stroke-width="0.970161"/>
<path d="M860.85 261.644L861.262 262.41L862.439 260.052L860.085 261.231L860.85 261.644Z" fill="#B2B7BD"/>
<path d="M831.655 278.246L785.484 262.488" stroke="#B2B7BD" stroke-width="0.970161"/>
<path d="M785.483 262.488L785.988 261.779L783.356 261.762L785.451 263.357L785.483 262.488Z" fill="#B2B7BD"/>
<path d="M782.882 254.185L817.803 237.132" stroke="#B2B7BD" stroke-width="0.970161"/>
<path d="M817.803 237.132L817.943 237.991L819.823 236.146L817.214 236.492L817.803 237.132Z" fill="#B2B7BD"/>
<path d="M776.731 248.988L783.703 225.076" stroke="#B2B7BD" stroke-width="0.970161"/>
<path d="M783.703 225.077L784.432 225.55L784.333 222.916L782.834 225.083L783.703 225.077Z" fill="#B2B7BD"/>
<path d="M796.216 217.379L817.61 226.846" stroke="#B2B7BD" stroke-width="0.970161"/>
<path d="M817.61 226.846L817.045 227.508L819.665 227.756L817.718 225.982L817.61 226.846Z" fill="#B2B7BD"/>
<path d="M716.021 567.68L750.942 550.627" stroke="#B2B7BD" stroke-width="0.970161"/>
<path d="M750.941 550.627L751.081 551.486L752.961 549.641L750.352 549.987L750.941 550.627Z" fill="#B2B7BD"/>
<path d="M709.869 562.482L716.841 538.57" stroke="#B2B7BD" stroke-width="0.970161"/>
<path d="M716.841 538.571L717.57 539.045L717.471 536.41L715.972 538.577L716.841 538.571Z" fill="#B2B7BD"/>
<path d="M729.354 530.874L750.748 540.341" stroke="#B2B7BD" stroke-width="0.970161"/>
<path d="M750.748 540.341L750.184 541.003L752.804 541.251L750.856 539.478L750.748 540.341Z" fill="#B2B7BD"/>
<path d="M710.678 524.179L661.164 510.378" stroke="#B2B7BD" stroke-width="0.970161"/>
<path d="M661.165 510.378L661.629 509.642L659 509.774L661.183 511.248L661.165 510.378Z" fill="#B2B7BD"/>
<path d="M579.224 563.512L591.975 550.74" stroke="#B2B7BD" stroke-width="0.970161"/>
<path d="M591.975 550.74L592.387 551.506L593.564 549.148L591.21 550.327L591.975 550.74Z" fill="#B2B7BD"/>
<path d="M516.608 551.584L517.113 550.876L514.481 550.858L516.576 552.454L516.608 551.584Z" fill="#B2B7BD"/>
<path d="M514.006 543.281L548.927 526.229" stroke="#B2B7BD" stroke-width="0.970161"/>
<path d="M548.927 526.228L549.067 527.087L550.947 525.241L548.338 525.588L548.927 526.228Z" fill="#B2B7BD"/>
<path d="M507.855 538.085L514.827 514.173" stroke="#B2B7BD" stroke-width="0.970161"/>
<path d="M514.827 514.172L515.556 514.646L515.457 512.012L513.958 514.179L514.827 514.172Z" fill="#B2B7BD"/>
<path d="M527.34 506.476L548.734 515.942" stroke="#B2B7BD" stroke-width="0.970161"/>
<path d="M548.734 515.942L548.169 516.603L550.789 516.851L548.842 515.078L548.734 515.942Z" fill="#B2B7BD"/>
<path d="M718.187 476.619L730.938 463.848" stroke="#B2B7BD" stroke-width="0.970161"/>
<path d="M730.937 463.847L731.349 464.614L732.526 462.256L730.172 463.435L730.937 463.847Z" fill="#B2B7BD"/>
<path d="M701.741 480.449L655.57 464.691" stroke="#B2B7BD" stroke-width="0.970161"/>
<path d="M655.571 464.692L656.076 463.983L653.444 463.966L655.539 465.562L655.571 464.692Z" fill="#B2B7BD"/>
<path d="M652.97 456.389L687.89 439.336" stroke="#B2B7BD" stroke-width="0.970161"/>
<path d="M687.889 439.336L688.029 440.195L689.909 438.35L687.3 438.696L687.889 439.336Z" fill="#B2B7BD"/>
<path d="M646.817 451.191L653.789 427.279" stroke="#B2B7BD" stroke-width="0.970161"/>
<path d="M653.789 427.28L654.518 427.754L654.419 425.119L652.92 427.286L653.789 427.28Z" fill="#B2B7BD"/>
<path d="M666.304 419.583L687.698 429.05" stroke="#B2B7BD" stroke-width="0.970161"/>
<path d="M687.697 429.05L687.132 429.712L689.752 429.96L687.805 428.187L687.697 429.05Z" fill="#B2B7BD"/>
<path d="M647.627 412.888L598.114 399.087" stroke="#B2B7BD" stroke-width="0.970161"/>
<path d="M598.113 399.087L598.577 398.351L595.948 398.483L598.131 399.957L598.113 399.087Z" fill="#B2B7BD"/>
<path d="M639.531 506.048L618.001 503.747" stroke="#B2B7BD" stroke-width="0.970161"/>
<path d="M618.001 503.746L618.338 502.944L615.766 503.507L618.161 504.602L618.001 503.746Z" fill="#B2B7BD"/>
<path d="M569.118 517.178L594.558 506.985" stroke="#B2B7BD" stroke-width="0.970161"/>
<path d="M594.559 506.986L594.636 507.853L596.645 506.15L594.018 506.305L594.559 506.986Z" fill="#B2B7BD"/>
<path d="M513.671 493.606L481.062 430.538" stroke="#B2B7BD" stroke-width="0.970161"/>
<path d="M481.061 430.537L481.915 430.376L480.027 428.538L480.437 431.143L481.061 430.537Z" fill="#B2B7BD"/>
<path d="M775.943 449.876L753.036 424.6" stroke="#B2B7BD" stroke-width="0.970161"/>
<path d="M753.035 424.599L753.819 424.224L751.525 422.932L752.587 425.345L753.035 424.599Z" fill="#B2B7BD"/>
<path d="M780.401 466.958L764.629 535.744" stroke="#B2B7BD" stroke-width="0.970161"/>
<path d="M764.629 535.744L763.874 535.313L764.126 537.938L765.496 535.687L764.629 535.744Z" fill="#B2B7BD"/>
<path d="M772.694 456.78L751.737 455.789" stroke="#B2B7BD" stroke-width="0.970161"/>
<path d="M751.736 455.789L752.025 454.968L749.491 455.683L751.946 456.634L751.736 455.789Z" fill="#B2B7BD"/>
<path d="M746.656 405.765L771.718 270.556" stroke="#B2B7BD" stroke-width="0.970161"/>
<path d="M771.718 270.557L772.491 270.955L772.129 268.343L770.854 270.65L771.718 270.557Z" fill="#B2B7BD"/>
<path d="M824.771 313.308L835.507 292.326" stroke="#B2B7BD" stroke-width="0.970161"/>
<path d="M835.507 292.326L836.134 292.929L836.532 290.322L834.652 292.168L835.507 292.326Z" fill="#B2B7BD"/>
<path d="M865.521 217.054L840.081 227.246" stroke="#B2B7BD" stroke-width="0.970161"/>
<path d="M840.081 227.246L840.004 226.379L837.994 228.082L840.622 227.927L840.081 227.246Z" fill="#B2B7BD"/>
<path d="M282.823 377.274C287.972 377.274 292.146 373.094 292.146 367.936C292.146 362.779 287.972 358.599 282.823 358.599C277.674 358.599 273.5 362.779 273.5 367.936C273.5 373.094 277.674 377.274 282.823 377.274Z" fill="#FFDF81"/>
<path d="M311.226 348.825C316.375 348.825 320.549 344.644 320.549 339.487C320.549 334.33 316.375 330.149 311.226 330.149C306.077 330.149 301.903 334.33 301.903 339.487C301.903 344.644 306.077 348.825 311.226 348.825Z" fill="#FFDF81"/>
<path d="M215.699 354.365C220.848 354.365 225.022 350.184 225.022 345.027C225.022 339.87 220.848 335.689 215.699 335.689C210.55 335.689 206.376 339.87 206.376 345.027C206.376 350.184 210.55 354.365 215.699 354.365Z" fill="#FFDF81"/>
<path d="M270.516 327.596C275.665 327.596 279.839 323.415 279.839 318.258C279.839 313.101 275.665 308.92 270.516 308.92C265.367 308.92 261.193 313.101 261.193 318.258C261.193 323.415 265.367 327.596 270.516 327.596Z" fill="#FFDF81"/>
<path d="M228.875 309.17C234.023 309.17 238.197 304.989 238.197 299.832C238.197 294.675 234.023 290.494 228.875 290.494C223.726 290.494 219.552 294.675 219.552 299.832C219.552 304.989 223.726 309.17 228.875 309.17Z" fill="#FFDF81"/>
<path d="M272.692 263.97C277.841 263.97 282.015 259.789 282.015 254.632C282.015 249.475 277.841 245.294 272.692 245.294C267.543 245.294 263.369 249.475 263.369 254.632C263.369 259.789 267.543 263.97 272.692 263.97Z" fill="#FFDF81"/>
<path d="M316.509 309.17C321.658 309.17 325.832 304.989 325.832 299.832C325.832 294.675 321.658 290.494 316.509 290.494C311.36 290.494 307.187 294.675 307.187 299.832C307.187 304.989 311.36 309.17 316.509 309.17Z" fill="#FFDF81"/>
<path d="M263.28 205.175C268.429 205.175 272.603 200.994 272.603 195.837C272.603 190.68 268.429 186.499 263.28 186.499C258.131 186.499 253.957 190.68 253.957 195.837C253.957 200.994 258.131 205.175 263.28 205.175Z" fill="#F16767"/>
<path d="M323.193 226.413C328.342 226.413 332.516 222.232 332.516 217.075C332.516 211.918 328.342 207.737 323.193 207.737C318.044 207.737 313.87 211.918 313.87 217.075C313.87 222.232 318.044 226.413 323.193 226.413Z" fill="#FFDF81"/>
<path d="M197.31 231.317C202.459 231.317 206.633 227.137 206.633 221.979C206.633 216.822 202.459 212.642 197.31 212.642C192.161 212.642 187.987 216.822 187.987 221.979C187.987 227.137 192.161 231.317 197.31 231.317Z" fill="#F16767"/>
<path d="M340.031 259.857C345.18 259.857 349.354 255.677 349.354 250.52C349.354 245.362 345.18 241.182 340.031 241.182C334.882 241.182 330.708 245.362 330.708 250.52C330.708 255.677 334.882 259.857 340.031 259.857Z" fill="#FFDF81"/>
<path d="M290.746 212.292C295.894 212.292 300.068 208.111 300.068 202.954C300.068 197.797 295.894 193.616 290.746 193.616C285.597 193.616 281.423 197.797 281.423 202.954C281.423 208.111 285.597 212.292 290.746 212.292Z" fill="#FFDF81"/>
<path d="M158.036 289.424C163.185 289.424 167.358 285.243 167.358 280.086C167.358 274.929 163.185 270.748 158.036 270.748C152.887 270.748 148.713 274.929 148.713 280.086C148.713 285.243 152.887 289.424 158.036 289.424Z" fill="#F16767"/>
<path d="M488.126 377.274C493.274 377.274 497.448 373.094 497.448 367.936C497.448 362.779 493.274 358.599 488.126 358.599C482.977 358.599 478.803 362.779 478.803 367.936C478.803 373.094 482.977 377.274 488.126 377.274Z" fill="#F79767"/>
<path d="M516.528 348.825C521.677 348.825 525.851 344.644 525.851 339.487C525.851 334.33 521.677 330.149 516.528 330.149C511.379 330.149 507.205 334.33 507.205 339.487C507.205 344.644 511.379 348.825 516.528 348.825Z" fill="#F79767"/>
<path d="M421.001 354.365C426.149 354.365 430.323 350.184 430.323 345.027C430.323 339.87 426.149 335.689 421.001 335.689C415.852 335.689 411.678 339.87 411.678 345.027C411.678 350.184 415.852 354.365 421.001 354.365Z" fill="#F79767"/>
<path d="M475.819 327.596C480.968 327.596 485.142 323.415 485.142 318.258C485.142 313.101 480.968 308.92 475.819 308.92C470.67 308.92 466.496 313.101 466.496 318.258C466.496 323.415 470.67 327.596 475.819 327.596Z" fill="#F16767"/>
<path d="M434.177 309.17C439.326 309.17 443.5 304.989 443.5 299.832C443.5 294.675 439.326 290.494 434.177 290.494C429.028 290.494 424.854 294.675 424.854 299.832C424.854 304.989 429.028 309.17 434.177 309.17Z" fill="#F16767"/>
<path d="M477.995 263.97C483.143 263.97 487.317 259.789 487.317 254.632C487.317 249.475 483.143 245.294 477.995 245.294C472.846 245.294 468.672 249.475 468.672 254.632C468.672 259.789 472.846 263.97 477.995 263.97Z" fill="#F16767"/>
<path d="M521.811 309.17C526.96 309.17 531.134 304.989 531.134 299.832C531.134 294.675 526.96 290.494 521.811 290.494C516.662 290.494 512.488 294.675 512.488 299.832C512.488 304.989 516.662 309.17 521.811 309.17Z" fill="#F16767"/>
<path d="M468.583 205.175C473.731 205.175 477.905 200.994 477.905 195.837C477.905 190.68 473.731 186.499 468.583 186.499C463.434 186.499 459.26 190.68 459.26 195.837C459.26 200.994 463.434 205.175 468.583 205.175Z" fill="#F16767"/>
<path d="M537.15 202.947C542.299 202.947 546.473 198.767 546.473 193.609C546.473 188.452 542.299 184.271 537.15 184.271C532.001 184.271 527.827 188.452 527.827 193.609C527.827 198.767 532.001 202.947 537.15 202.947Z" fill="#F16767"/>
<path d="M402.612 231.317C407.761 231.317 411.935 227.137 411.935 221.979C411.935 216.822 407.761 212.642 402.612 212.642C397.463 212.642 393.289 216.822 393.289 221.979C393.289 227.137 397.463 231.317 402.612 231.317Z" fill="#F16767"/>
<path d="M568.641 231.317C573.79 231.317 577.964 227.137 577.964 221.979C577.964 216.822 573.79 212.642 568.641 212.642C563.492 212.642 559.318 216.822 559.318 221.979C559.318 227.137 563.492 231.317 568.641 231.317Z" fill="#F16767"/>
<path d="M496.048 212.292C501.197 212.292 505.371 208.111 505.371 202.954C505.371 197.797 501.197 193.616 496.048 193.616C490.9 193.616 486.726 197.797 486.726 202.954C486.726 208.111 490.9 212.292 496.048 212.292Z" fill="#F16767"/>
<path d="M363.338 289.424C368.487 289.424 372.661 285.243 372.661 280.086C372.661 274.929 368.487 270.748 363.338 270.748C358.19 270.748 354.016 274.929 354.016 280.086C354.016 285.243 358.19 289.424 363.338 289.424Z" fill="#FFDF81"/>
<path d="M693.428 377.274C698.577 377.274 702.751 373.094 702.751 367.936C702.751 362.779 698.577 358.599 693.428 358.599C688.279 358.599 684.105 362.779 684.105 367.936C684.105 373.094 688.279 377.274 693.428 377.274Z" fill="#C990C0"/>
<path d="M820.234 331.51C825.383 331.51 829.557 327.329 829.557 322.172C829.557 317.015 825.383 312.834 820.234 312.834C815.085 312.834 810.911 317.015 810.911 322.172C810.911 327.329 815.085 331.51 820.234 331.51Z" fill="#56C7E4"/>
<path d="M626.303 354.365C631.452 354.365 635.626 350.184 635.626 345.027C635.626 339.87 631.452 335.689 626.303 335.689C621.154 335.689 616.98 339.87 616.98 345.027C616.98 350.184 621.154 354.365 626.303 354.365Z" fill="#C990C0"/>
<path d="M681.122 327.596C686.27 327.596 690.444 323.415 690.444 318.258C690.444 313.101 686.27 308.92 681.122 308.92C675.973 308.92 671.799 313.101 671.799 318.258C671.799 323.415 675.973 327.596 681.122 327.596Z" fill="#C990C0"/>
<path d="M639.48 309.17C644.629 309.17 648.803 304.989 648.803 299.832C648.803 294.675 644.629 290.494 639.48 290.494C634.331 290.494 630.157 294.675 630.157 299.832C630.157 304.989 634.331 309.17 639.48 309.17Z" fill="#C990C0"/>
<path d="M683.297 263.97C688.446 263.97 692.62 259.789 692.62 254.632C692.62 249.475 688.446 245.294 683.297 245.294C678.149 245.294 673.975 249.475 673.975 254.632C673.975 259.789 678.149 263.97 683.297 263.97Z" fill="#F16767"/>
<path d="M727.114 309.17C732.263 309.17 736.437 304.989 736.437 299.832C736.437 294.675 732.263 290.494 727.114 290.494C721.965 290.494 717.791 294.675 717.791 299.832C717.791 304.989 721.965 309.17 727.114 309.17Z" fill="#56C7E4"/>
<path d="M673.885 205.175C679.034 205.175 683.208 200.994 683.208 195.837C683.208 190.68 679.034 186.499 673.885 186.499C668.736 186.499 664.562 190.68 664.562 195.837C664.562 200.994 668.736 205.175 673.885 205.175Z" fill="#F16767"/>
<path d="M733.798 226.413C738.947 226.413 743.121 222.232 743.121 217.075C743.121 211.918 738.947 207.737 733.798 207.737C728.65 207.737 724.476 211.918 724.476 217.075C724.476 222.232 728.65 226.413 733.798 226.413Z" fill="#F16767"/>
<path d="M607.915 231.317C613.063 231.317 617.237 227.137 617.237 221.979C617.237 216.822 613.063 212.642 607.915 212.642C602.766 212.642 598.592 216.822 598.592 221.979C598.592 227.137 602.766 231.317 607.915 231.317Z" fill="#F16767"/>
<path d="M750.636 259.857C755.785 259.857 759.959 255.677 759.959 250.52C759.959 245.362 755.785 241.182 750.636 241.182C745.487 241.182 741.313 245.362 741.313 250.52C741.313 255.677 745.487 259.857 750.636 259.857Z" fill="#F16767"/>
<path d="M701.351 212.292C706.5 212.292 710.674 208.111 710.674 202.954C710.674 197.797 706.5 193.616 701.351 193.616C696.202 193.616 692.028 197.797 692.028 202.954C692.028 208.111 696.202 212.292 701.351 212.292Z" fill="#F16767"/>
<path d="M568.641 289.424C573.79 289.424 577.964 285.243 577.964 280.086C577.964 274.929 573.79 270.748 568.641 270.748C563.492 270.748 559.318 274.929 559.318 280.086C559.318 285.243 563.492 289.424 568.641 289.424Z" fill="#C990C0"/>
<path d="M463.488 551.443C468.637 551.443 472.811 547.263 472.811 542.105C472.811 536.948 468.637 532.768 463.488 532.768C458.339 532.768 454.165 536.948 454.165 542.105C454.165 547.263 458.339 551.443 463.488 551.443Z" fill="#D8C7AE"/>
<path d="M367.96 556.984C373.108 556.984 377.282 552.804 377.282 547.646C377.282 542.489 373.108 538.309 367.96 538.309C362.811 538.309 358.637 542.489 358.637 547.646C358.637 552.804 362.811 556.984 367.96 556.984Z" fill="#D8C7AE"/>
<path d="M422.778 530.215C427.927 530.215 432.101 526.034 432.101 520.877C432.101 515.72 427.927 511.539 422.778 511.539C417.629 511.539 413.455 515.72 413.455 520.877C413.455 526.034 417.629 530.215 422.778 530.215Z" fill="#D8C7AE"/>
<path d="M381.135 511.788C386.284 511.788 390.458 507.607 390.458 502.45C390.458 497.293 386.284 493.112 381.135 493.112C375.986 493.112 371.812 497.293 371.812 502.45C371.812 507.607 375.986 511.788 381.135 511.788Z" fill="#F79767"/>
<path d="M424.953 466.589C430.102 466.589 434.275 462.408 434.275 457.251C434.275 452.094 430.102 447.913 424.953 447.913C419.804 447.913 415.63 452.094 415.63 457.251C415.63 462.408 419.804 466.589 424.953 466.589Z" fill="#F79767"/>
<path d="M468.77 511.788C473.919 511.788 478.093 507.607 478.093 502.45C478.093 497.293 473.919 493.112 468.77 493.112C463.621 493.112 459.447 497.293 459.447 502.45C459.447 507.607 463.621 511.788 468.77 511.788Z" fill="#F79767"/>
<path d="M415.542 407.793C420.69 407.793 424.864 403.612 424.864 398.455C424.864 393.298 420.69 389.117 415.542 389.117C410.393 389.117 406.219 393.298 406.219 398.455C406.219 403.612 410.393 407.793 415.542 407.793Z" fill="#F79767"/>
<path d="M475.455 429.032C480.603 429.032 484.777 424.851 484.777 419.694C484.777 414.537 480.603 410.356 475.455 410.356C470.306 410.356 466.132 414.537 466.132 419.694C466.132 424.851 470.306 429.032 475.455 429.032Z" fill="#F79767"/>
<path d="M349.572 433.936C354.721 433.936 358.895 429.756 358.895 424.599C358.895 419.441 354.721 415.261 349.572 415.261C344.423 415.261 340.249 419.441 340.249 424.599C340.249 429.756 344.423 433.936 349.572 433.936Z" fill="#FFDF81"/>
<path d="M575.193 463.583C580.342 463.583 584.516 459.402 584.516 454.245C584.516 449.088 580.342 444.907 575.193 444.907C570.044 444.907 565.87 449.088 565.87 454.245C565.87 459.402 570.044 463.583 575.193 463.583Z" fill="#F79767"/>
<path d="M443.007 414.91C448.156 414.91 452.33 410.729 452.33 405.572C452.33 400.415 448.156 396.234 443.007 396.234C437.859 396.234 433.685 400.415 433.685 405.572C433.685 410.729 437.859 414.91 443.007 414.91Z" fill="#F79767"/>
<path d="M310.297 492.043C315.446 492.043 319.62 487.862 319.62 482.705C319.62 477.548 315.446 473.367 310.297 473.367C305.149 473.367 300.975 477.548 300.975 482.705C300.975 487.862 305.149 492.043 310.297 492.043Z" fill="#D8C7AE"/>
<path d="M841.068 290.796C846.217 290.796 850.391 286.615 850.391 281.458C850.391 276.301 846.217 272.12 841.068 272.12C835.919 272.12 831.745 276.301 831.745 281.458C831.745 286.615 835.919 290.796 841.068 290.796Z" fill="#56C7E4"/>
<path d="M869.471 262.347C874.62 262.347 878.794 258.166 878.794 253.009C878.794 247.852 874.62 243.671 869.471 243.671C864.322 243.671 860.148 247.852 860.148 253.009C860.148 258.166 864.322 262.347 869.471 262.347Z" fill="#D8C7AE"/>
<path d="M828.762 241.119C833.911 241.119 838.085 236.938 838.085 231.781C838.085 226.624 833.911 222.443 828.762 222.443C823.613 222.443 819.439 226.624 819.439 231.781C819.439 236.938 823.613 241.119 828.762 241.119Z" fill="#D8C7AE"/>
<path d="M787.12 222.692C792.268 222.692 796.442 218.512 796.442 213.354C796.442 208.197 792.268 204.017 787.12 204.017C781.971 204.017 777.797 208.197 777.797 213.354C777.797 218.512 781.971 222.692 787.12 222.692Z" fill="#D8C7AE"/>
<path d="M761.9 554.613C767.049 554.613 771.223 550.433 771.223 545.275C771.223 540.118 767.049 535.938 761.9 535.938C756.751 535.938 752.577 540.118 752.577 545.275C752.577 550.433 756.751 554.613 761.9 554.613Z" fill="#F16767"/>
<path d="M720.258 536.187C725.407 536.187 729.581 532.007 729.581 526.85C729.581 521.692 725.407 517.512 720.258 517.512C715.109 517.512 710.936 521.692 710.936 526.85C710.936 532.007 715.109 536.187 720.258 536.187Z" fill="#F16767"/>
<path d="M782.627 466.589C787.776 466.589 791.95 462.408 791.95 457.251C791.95 452.094 787.776 447.913 782.627 447.913C777.479 447.913 773.305 452.094 773.305 457.251C773.305 462.408 777.479 466.589 782.627 466.589Z" fill="#56C7E4"/>
<path d="M649.419 516.442C654.568 516.442 658.742 512.262 658.742 507.104C658.742 501.947 654.568 497.767 649.419 497.767C644.271 497.767 640.097 501.947 640.097 507.104C640.097 512.262 644.271 516.442 649.419 516.442Z" fill="#F16767"/>
<path d="M600.596 551.443C605.745 551.443 609.919 547.263 609.919 542.105C609.919 536.948 605.745 532.768 600.596 532.768C595.447 532.768 591.273 536.948 591.273 542.105C591.273 547.263 595.447 551.443 600.596 551.443Z" fill="#F16767"/>
<path d="M505.068 556.984C510.217 556.984 514.391 552.804 514.391 547.646C514.391 542.489 510.217 538.309 505.068 538.309C499.919 538.309 495.745 542.489 495.745 547.646C495.745 552.804 499.919 556.984 505.068 556.984Z" fill="#D8C7AE"/>
<path d="M559.886 530.215C565.035 530.215 569.209 526.034 569.209 520.877C569.209 515.72 565.035 511.539 559.886 511.539C554.737 511.539 550.563 515.72 550.563 520.877C550.563 526.034 554.737 530.215 559.886 530.215Z" fill="#F16767"/>
<path d="M518.244 511.788C523.393 511.788 527.566 507.607 527.566 502.45C527.566 497.293 523.393 493.112 518.244 493.112C513.095 493.112 508.921 497.293 508.921 502.45C508.921 507.607 513.095 511.788 518.244 511.788Z" fill="#F79767"/>
<path d="M605.878 511.788C611.027 511.788 615.201 507.607 615.201 502.45C615.201 497.293 611.027 493.112 605.878 493.112C600.73 493.112 596.556 497.293 596.556 502.45C596.556 507.607 600.73 511.788 605.878 511.788Z" fill="#F16767"/>
<path d="M711.155 493C716.304 493 720.478 488.819 720.478 483.662C720.478 478.505 716.304 474.324 711.155 474.324C706.006 474.324 701.832 478.505 701.832 483.662C701.832 488.819 706.006 493 711.155 493Z" fill="#56C7E4"/>
<path d="M739.558 464.551C744.707 464.551 748.881 460.37 748.881 455.213C748.881 450.056 744.707 445.875 739.558 445.875C734.409 445.875 730.235 450.056 730.235 455.213C730.235 460.37 734.409 464.551 739.558 464.551Z" fill="#56C7E4"/>
<path d="M644.031 470.091C649.18 470.091 653.354 465.91 653.354 460.753C653.354 455.596 649.18 451.415 644.031 451.415C638.882 451.415 634.708 455.596 634.708 460.753C634.708 465.91 638.882 470.091 644.031 470.091Z" fill="#D8C7AE"/>
<path d="M698.848 443.322C703.997 443.322 708.171 439.141 708.171 433.984C708.171 428.827 703.997 424.646 698.848 424.646C693.699 424.646 689.525 428.827 689.525 433.984C689.525 439.141 693.699 443.322 698.848 443.322Z" fill="#D8C7AE"/>
<path d="M657.207 424.896C662.355 424.896 666.529 420.716 666.529 415.559C666.529 410.401 662.355 406.221 657.207 406.221C652.058 406.221 647.884 410.401 647.884 415.559C647.884 420.716 652.058 424.896 657.207 424.896Z" fill="#C990C0"/>
<path d="M744.841 424.896C749.99 424.896 754.164 420.716 754.164 415.559C754.164 410.401 749.99 406.221 744.841 406.221C739.693 406.221 735.519 410.401 735.519 415.559C735.519 420.716 739.693 424.896 744.841 424.896Z" fill="#56C7E4"/>
<path d="M586.368 405.151C591.516 405.151 595.69 400.971 595.69 395.813C595.69 390.656 591.516 386.476 586.368 386.476C581.219 386.476 577.045 390.656 577.045 395.813C577.045 400.971 581.219 405.151 586.368 405.151Z" fill="#C990C0"/>
<path d="M761.9 556.984C767.049 556.984 771.223 552.804 771.223 547.646C771.223 542.489 767.049 538.309 761.9 538.309C756.751 538.309 752.577 542.489 752.577 547.646C752.577 552.804 756.751 556.984 761.9 556.984Z" fill="#F16767"/>
</g>
<path d="M773.383 266.83C778.532 266.83 782.706 262.953 782.706 258.17C782.706 253.386 778.532 249.509 773.383 249.509C768.235 249.509 764.061 253.386 764.061 258.17C764.061 262.953 768.235 266.83 773.383 266.83Z" fill="#56C7E4"/>
</g>
<path d="M14.0517 20.336H846.614V17.9941H14.0517V20.336ZM859.494 33.2167V536.948H861.836V33.2167H859.494ZM846.614 549.829H14.0517V552.171H846.614V549.829ZM1.17097 536.948V33.2167H-1.17097V536.948H1.17097ZM14.0517 549.829C6.93787 549.829 1.17097 544.062 1.17097 536.948H-1.17097C-1.17097 545.355 5.64446 552.171 14.0517 552.171V549.829ZM859.494 536.948C859.494 544.062 853.728 549.829 846.614 549.829V552.171C855.021 552.171 861.836 545.355 861.836 536.948H859.494ZM846.614 20.336C853.728 20.336 859.494 26.1029 859.494 33.2167H861.836C861.836 24.8095 855.021 17.9941 846.614 17.9941V20.336ZM14.0517 17.9941C5.64444 17.9941 -1.17097 24.8095 -1.17097 33.2167H1.17097C1.17097 26.1029 6.93787 20.336 14.0517 20.336V17.9941Z" fill="#E6E9EE" mask="url(#path-1-inside-1_1810_7835)"/>
<mask id="path-267-inside-2_1810_7835" fill="white">
<path d="M218.387 15.6452C218.387 7.0046 225.391 0 234.032 0H340.322C348.963 0 355.967 7.00459 355.967 15.6452V58.0753C355.967 66.7159 348.963 73.7205 340.322 73.7205H234.032C225.391 73.7205 218.387 66.7159 218.387 58.0753V15.6452Z"/>
</mask>
<path d="M218.387 15.6452C218.387 7.0046 225.391 0 234.032 0H340.322C348.963 0 355.967 7.00459 355.967 15.6452V58.0753C355.967 66.7159 348.963 73.7205 340.322 73.7205H234.032C225.391 73.7205 218.387 66.7159 218.387 58.0753V15.6452Z" fill="#151E29"/>
<path d="M234.032 2.60753H340.322V-2.60753H234.032V2.60753ZM353.36 15.6452V58.0753H358.575V15.6452H353.36ZM340.322 71.113H234.032V76.328H340.322V71.113ZM220.994 58.0753V15.6452H215.779V58.0753H220.994ZM234.032 71.113C226.831 71.113 220.994 65.2758 220.994 58.0753H215.779C215.779 68.156 223.951 76.328 234.032 76.328V71.113ZM353.36 58.0753C353.36 65.2758 347.523 71.113 340.322 71.113V76.328C350.403 76.328 358.575 68.156 358.575 58.0753H353.36ZM340.322 2.60753C347.523 2.60753 353.36 8.44469 353.36 15.6452H358.575C358.575 5.56449 350.403 -2.60753 340.322 -2.60753V2.60753ZM234.032 -2.60753C223.951 -2.60753 215.779 5.5645 215.779 15.6452H220.994C220.994 8.44469 226.831 2.60753 234.032 2.60753V-2.60753Z" fill="white" mask="url(#path-267-inside-2_1810_7835)"/>
<path d="M251.283 43.8604V29.1539H261.066V31.2816H253.849V35.3285H260.608V37.4563H253.849V41.7326H261.066V43.8604H251.283ZM262.061 43.8604L266.337 38.5827L262.332 33.6597H265.378L267.839 36.8096L270.301 33.6597H273.346L269.32 38.6036L273.618 43.8604H270.551L267.818 40.4184L265.107 43.8604H262.061ZM274.867 47.6152V33.6597H277.412V35.2868C277.704 34.7305 278.142 34.2855 278.726 33.9517C279.324 33.618 279.999 33.4511 280.75 33.4511C281.64 33.4511 282.419 33.6666 283.086 34.0978C283.768 34.5289 284.296 35.1408 284.671 35.9335C285.047 36.7122 285.235 37.6509 285.235 38.7496C285.235 39.8343 285.047 40.78 284.671 41.5866C284.296 42.3793 283.774 42.9912 283.107 43.4223C282.439 43.8534 281.654 44.069 280.75 44.069C280.027 44.069 279.373 43.916 278.789 43.61C278.219 43.2902 277.781 42.866 277.475 42.3376V47.6152H274.867ZM280.02 42.0872C280.798 42.0872 281.424 41.8091 281.897 41.2528C282.37 40.6826 282.606 39.8482 282.606 38.7496C282.606 37.637 282.37 36.8096 281.897 36.2672C281.424 35.7109 280.798 35.4328 280.02 35.4328C279.241 35.4328 278.615 35.7109 278.142 36.2672C277.669 36.8096 277.433 37.637 277.433 38.7496C277.433 39.8482 277.669 40.6826 278.142 41.2528C278.615 41.8091 279.241 42.0872 280.02 42.0872ZM290.921 44.069C289.711 44.069 288.815 43.7421 288.23 43.0885C287.66 42.421 287.375 41.4475 287.375 40.1681V29.1539H289.983V40.0429C289.983 41.2945 290.511 41.9203 291.568 41.9203C291.721 41.9203 291.874 41.9134 292.027 41.8995C292.18 41.8856 292.326 41.8578 292.465 41.816L292.423 43.8812C291.923 44.0064 291.422 44.069 290.921 44.069ZM298.587 44.069C297.53 44.069 296.612 43.8534 295.833 43.4223C295.054 42.9912 294.449 42.3793 294.018 41.5866C293.587 40.78 293.371 39.8343 293.371 38.7496C293.371 37.6649 293.587 36.7261 294.018 35.9335C294.449 35.1408 295.054 34.5289 295.833 34.0978C296.612 33.6666 297.53 33.4511 298.587 33.4511C299.643 33.4511 300.561 33.6666 301.34 34.0978C302.119 34.5289 302.724 35.1408 303.155 35.9335C303.586 36.7261 303.802 37.6649 303.802 38.7496C303.802 39.8343 303.586 40.78 303.155 41.5866C302.724 42.3793 302.119 42.9912 301.34 43.4223C300.561 43.8534 299.643 44.069 298.587 44.069ZM298.587 42.0872C299.365 42.0872 299.991 41.8091 300.464 41.2528C300.937 40.6826 301.173 39.8482 301.173 38.7496C301.173 37.637 300.937 36.8096 300.464 36.2672C299.991 35.7109 299.365 35.4328 298.587 35.4328C297.808 35.4328 297.182 35.7109 296.709 36.2672C296.236 36.8096 296 37.637 296 38.7496C296 39.8482 296.236 40.6826 296.709 41.2528C297.182 41.8091 297.808 42.0872 298.587 42.0872ZM305.954 43.8604V33.6597H308.499V35.4537C308.999 34.2438 310.07 33.5762 311.711 33.4511L312.504 33.3885L312.671 35.5997L311.169 35.7457C309.458 35.9126 308.603 36.7887 308.603 38.3741V43.8604H305.954ZM318.987 44.069C317.833 44.069 316.838 43.8534 316.004 43.4223C315.17 42.9912 314.523 42.3793 314.064 41.5866C313.619 40.7939 313.397 39.8552 313.397 38.7704C313.397 37.7135 313.612 36.7887 314.043 35.996C314.488 35.2033 315.093 34.5845 315.858 34.1395C316.637 33.6805 317.52 33.4511 318.507 33.4511C319.954 33.4511 321.094 33.91 321.928 34.8279C322.777 35.7457 323.201 36.9973 323.201 38.5827V39.3545H315.9C316.094 41.1763 317.137 42.0872 319.029 42.0872C319.599 42.0872 320.169 42.0038 320.739 41.8369C321.31 41.6561 321.831 41.378 322.304 41.0025L323.034 42.7548C322.547 43.1581 321.935 43.4779 321.198 43.7143C320.461 43.9507 319.724 44.069 318.987 44.069ZM318.612 35.2242C317.847 35.2242 317.228 35.4606 316.755 35.9335C316.282 36.4063 315.997 37.046 315.9 37.8526H321.031C320.976 37.0043 320.739 36.3576 320.322 35.9126C319.919 35.4537 319.349 35.2242 318.612 35.2242Z" fill="white"/>
<mask id="path-270-inside-3_1810_7835" fill="white">
<path d="M370.928 15.6452C370.928 7.0046 377.932 0 386.573 0H477.863C486.504 0 493.508 7.00459 493.508 15.6452V58.0753C493.508 66.7159 486.504 73.7205 477.863 73.7205H386.573C377.932 73.7205 370.928 66.7159 370.928 58.0753V15.6452Z"/>
</mask>
<path d="M370.928 15.6452C370.928 7.0046 377.932 0 386.573 0H477.863C486.504 0 493.508 7.00459 493.508 15.6452V58.0753C493.508 66.7159 486.504 73.7205 477.863 73.7205H386.573C377.932 73.7205 370.928 66.7159 370.928 58.0753V15.6452Z" fill="#151E29"/>
<path d="M386.573 2.60753H477.863V-2.60753H386.573V2.60753ZM490.901 15.6452V58.0753H496.116V15.6452H490.901ZM477.863 71.113H386.573V76.328H477.863V71.113ZM373.535 58.0753V15.6452H368.32V58.0753H373.535ZM386.573 71.113C379.372 71.113 373.535 65.2758 373.535 58.0753H368.32C368.32 68.156 376.492 76.328 386.573 76.328V71.113ZM490.901 58.0753C490.901 65.2758 485.064 71.113 477.863 71.113V76.328C487.944 76.328 496.116 68.156 496.116 58.0753H490.901ZM477.863 2.60753C485.064 2.60753 490.901 8.44469 490.901 15.6452H496.116C496.116 5.56449 487.944 -2.60753 477.863 -2.60753V2.60753ZM386.573 -2.60753C376.492 -2.60753 368.32 5.5645 368.32 15.6452H373.535C373.535 8.44469 379.372 2.60753 386.573 2.60753V-2.60753Z" fill="white" mask="url(#path-270-inside-3_1810_7835)"/>
<path d="M414.4 48.3036L412.377 45.0285C411.973 44.3888 411.313 44.069 410.395 44.069C408.976 44.069 407.739 43.7561 406.682 43.1302C405.625 42.5044 404.804 41.6283 404.22 40.5019C403.636 39.3615 403.344 38.0264 403.344 36.4967C403.344 34.953 403.636 33.618 404.22 32.4915C404.804 31.3651 405.625 30.4959 406.682 29.884C407.739 29.2582 408.983 28.9453 410.416 28.9453C411.848 28.9453 413.093 29.2582 414.15 29.884C415.207 30.4959 416.027 31.3651 416.611 32.4915C417.195 33.618 417.487 34.9461 417.487 36.4758C417.487 38.1446 417.14 39.577 416.444 40.773C415.763 41.969 414.817 42.8452 413.607 43.4014C414.205 43.5961 414.72 44.062 415.151 44.7991L416.674 47.2189L414.4 48.3036ZM410.416 41.7743C411.765 41.7743 412.815 41.3084 413.566 40.3767C414.317 39.4449 414.692 38.1516 414.692 36.4967C414.692 34.8279 414.317 33.5345 413.566 32.6167C412.829 31.6988 411.779 31.2399 410.416 31.2399C409.067 31.2399 408.017 31.6988 407.266 32.6167C406.515 33.5345 406.14 34.8279 406.14 36.4967C406.14 38.1516 406.515 39.4449 407.266 40.3767C408.017 41.3084 409.067 41.7743 410.416 41.7743ZM423.645 44.069C421.141 44.069 419.89 42.6644 419.89 39.8552V33.6597H422.497V39.8969C422.497 40.6201 422.643 41.1555 422.935 41.5031C423.227 41.8508 423.693 42.0246 424.333 42.0246C425.028 42.0246 425.598 41.7882 426.043 41.3154C426.488 40.8287 426.711 40.1889 426.711 39.3963V33.6597H429.319V43.8604H426.774V42.3376C426.092 43.4918 425.049 44.069 423.645 44.069ZM437.06 44.069C435.906 44.069 434.911 43.8534 434.077 43.4223C433.242 42.9912 432.596 42.3793 432.137 41.5866C431.692 40.7939 431.469 39.8552 431.469 38.7704C431.469 37.7135 431.685 36.7887 432.116 35.996C432.561 35.2033 433.166 34.5845 433.931 34.1395C434.71 33.6805 435.593 33.4511 436.58 33.4511C438.026 33.4511 439.167 33.91 440.001 34.8279C440.849 35.7457 441.274 36.9973 441.274 38.5827V39.3545H433.972C434.167 41.1763 435.21 42.0872 437.101 42.0872C437.672 42.0872 438.242 42.0038 438.812 41.8369C439.382 41.6561 439.904 41.378 440.377 41.0025L441.107 42.7548C440.62 43.1581 440.008 43.4779 439.271 43.7143C438.534 43.9507 437.797 44.069 437.06 44.069ZM436.684 35.2242C435.919 35.2242 435.301 35.4606 434.828 35.9335C434.355 36.4063 434.07 37.046 433.972 37.8526H439.104C439.048 37.0043 438.812 36.3576 438.395 35.9126C437.992 35.4537 437.421 35.2242 436.684 35.2242ZM443.339 43.8604V33.6597H445.883V35.4537C446.384 34.2438 447.455 33.5762 449.096 33.4511L449.889 33.3885L450.056 35.5997L448.554 35.7457C446.843 35.9126 445.988 36.7887 445.988 38.3741V43.8604H443.339ZM453.057 47.6152L454.934 43.4431L450.7 33.6597H453.474L456.332 40.7939L459.252 33.6597H461.881L455.748 47.6152H453.057Z" fill="white"/>
<mask id="path-273-inside-4_1810_7835" fill="white">
<path d="M509.126 15.6452C509.126 7.0046 516.131 0 524.771 0H622.062C630.702 0 637.707 7.00459 637.707 15.6452V58.0753C637.707 66.7159 630.702 73.7205 622.062 73.7205H524.771C516.131 73.7205 509.126 66.7159 509.126 58.0753V15.6452Z"/>
</mask>
<path d="M509.126 15.6452C509.126 7.0046 516.131 0 524.771 0H622.062C630.702 0 637.707 7.00459 637.707 15.6452V58.0753C637.707 66.7159 630.702 73.7205 622.062 73.7205H524.771C516.131 73.7205 509.126 66.7159 509.126 58.0753V15.6452Z" fill="#151E29"/>
<path d="M524.771 2.60753H622.062V-2.60753H524.771V2.60753ZM635.099 15.6452V58.0753H640.314V15.6452H635.099ZM622.062 71.113H524.771V76.328H622.062V71.113ZM511.734 58.0753V15.6452H506.518V58.0753H511.734ZM524.771 71.113C517.571 71.113 511.734 65.2758 511.734 58.0753H506.518C506.518 68.156 514.69 76.328 524.771 76.328V71.113ZM635.099 58.0753C635.099 65.2758 629.262 71.113 622.062 71.113V76.328C632.142 76.328 640.314 68.156 640.314 58.0753H635.099ZM622.062 2.60753C629.262 2.60753 635.099 8.44469 635.099 15.6452H640.314C640.314 5.56449 632.142 -2.60753 622.062 -2.60753V2.60753ZM524.771 -2.60753C514.69 -2.60753 506.518 5.5645 506.518 15.6452H511.734C511.734 8.44469 517.571 2.60753 524.771 2.60753V-2.60753Z" fill="white" mask="url(#path-273-inside-4_1810_7835)"/>
<path d="M542.022 43.8604V29.1539H544.692V43.8604H542.022ZM547.681 43.8604V33.6597H550.226V35.2242C550.532 34.6679 550.956 34.2368 551.498 33.9309C552.04 33.611 552.666 33.4511 553.375 33.4511C554.905 33.4511 555.906 34.1186 556.379 35.4537C556.699 34.8279 557.158 34.3411 557.756 33.9935C558.354 33.6319 559.036 33.4511 559.8 33.4511C562.095 33.4511 563.242 34.8487 563.242 37.644V43.8604H560.635V37.7483C560.635 36.9695 560.503 36.3993 560.238 36.0378C559.988 35.6762 559.557 35.4954 558.945 35.4954C558.264 35.4954 557.728 35.7388 557.339 36.2255C556.95 36.6983 556.755 37.3589 556.755 38.2072V43.8604H554.147V37.7483C554.147 36.9695 554.015 36.3993 553.751 36.0378C553.501 35.6762 553.076 35.4954 552.478 35.4954C551.797 35.4954 551.262 35.7388 550.872 36.2255C550.483 36.6983 550.288 37.3589 550.288 38.2072V43.8604H547.681ZM565.932 47.6152V33.6597H568.477V35.2868C568.769 34.7305 569.207 34.2855 569.791 33.9517C570.389 33.618 571.064 33.4511 571.815 33.4511C572.705 33.4511 573.484 33.6666 574.151 34.0978C574.833 34.5289 575.361 35.1408 575.737 35.9335C576.112 36.7122 576.3 37.6509 576.3 38.7496C576.3 39.8343 576.112 40.78 575.737 41.5866C575.361 42.3793 574.84 42.9912 574.172 43.4223C573.505 43.8534 572.719 44.069 571.815 44.069C571.092 44.069 570.438 43.916 569.854 43.61C569.284 43.2902 568.846 42.866 568.54 42.3376V47.6152H565.932ZM571.085 42.0872C571.864 42.0872 572.489 41.8091 572.962 41.2528C573.435 40.6826 573.671 39.8482 573.671 38.7496C573.671 37.637 573.435 36.8096 572.962 36.2672C572.489 35.7109 571.864 35.4328 571.085 35.4328C570.306 35.4328 569.68 35.7109 569.207 36.2672C568.735 36.8096 568.498 37.637 568.498 38.7496C568.498 39.8482 568.735 40.6826 569.207 41.2528C569.68 41.8091 570.306 42.0872 571.085 42.0872ZM583.092 44.069C582.035 44.069 581.117 43.8534 580.339 43.4223C579.56 42.9912 578.955 42.3793 578.524 41.5866C578.093 40.78 577.877 39.8343 577.877 38.7496C577.877 37.6649 578.093 36.7261 578.524 35.9335C578.955 35.1408 579.56 34.5289 580.339 34.0978C581.117 33.6666 582.035 33.4511 583.092 33.4511C584.149 33.4511 585.067 33.6666 585.846 34.0978C586.625 34.5289 587.229 35.1408 587.661 35.9335C588.092 36.7261 588.307 37.6649 588.307 38.7496C588.307 39.8343 588.092 40.78 587.661 41.5866C587.229 42.3793 586.625 42.9912 585.846 43.4223C585.067 43.8534 584.149 44.069 583.092 44.069ZM583.092 42.0872C583.871 42.0872 584.497 41.8091 584.97 41.2528C585.442 40.6826 585.679 39.8482 585.679 38.7496C585.679 37.637 585.442 36.8096 584.97 36.2672C584.497 35.7109 583.871 35.4328 583.092 35.4328C582.313 35.4328 581.688 35.7109 581.215 36.2672C580.742 36.8096 580.506 37.637 580.506 38.7496C580.506 39.8482 580.742 40.6826 581.215 41.2528C581.688 41.8091 582.313 42.0872 583.092 42.0872ZM590.459 43.8604V33.6597H593.004V35.4537C593.505 34.2438 594.576 33.5762 596.217 33.4511L597.01 33.3885L597.176 35.5997L595.674 35.7457C593.964 35.9126 593.109 36.7887 593.109 38.3741V43.8604H590.459ZM603.892 44.069C601.194 44.069 599.845 42.7339 599.845 40.0638V35.6206H597.884V33.6597H599.845V30.6141H602.452V33.6597H605.54V35.6206H602.452V39.9178C602.452 40.5853 602.598 41.0859 602.891 41.4197C603.183 41.7535 603.655 41.9203 604.309 41.9203C604.504 41.9203 604.705 41.8995 604.914 41.8578C605.123 41.8021 605.338 41.7465 605.561 41.6909L605.957 43.61C605.707 43.7491 605.387 43.8604 604.997 43.9438C604.622 44.0272 604.253 44.069 603.892 44.069Z" fill="white"/>
<defs>
<filter id="filter0_d_1810_7835" x="102.899" y="115.696" width="321.142" height="48.0209" filterUnits="userSpaceOnUse" color-interpolation-filters="sRGB">
<feFlood flood-opacity="0" result="BackgroundImageFix"/>
<feColorMatrix in="SourceAlpha" type="matrix" values="0 0 0 0 0 0 0 0 0 0 0 0 0 0 0 0 0 0 127 0" result="hardAlpha"/>
<feOffset dy="3.00133"/>
<feGaussianBlur stdDeviation="3.00133"/>
<feComposite in2="hardAlpha" operator="out"/>
<feColorMatrix type="matrix" values="0 0 0 0 0.0470588 0 0 0 0 0.101961 0 0 0 0 0.145098 0 0 0 0.04 0"/>
<feBlend mode="normal" in2="BackgroundImageFix" result="effect1_dropShadow_1810_7835"/>
<feBlend mode="normal" in="SourceGraphic" in2="effect1_dropShadow_1810_7835" result="shape"/>
</filter>
<clipPath id="clip0_1810_7835">
<path d="M0 33.2167C0 25.4562 6.29115 19.165 14.0517 19.165H846.614C854.374 19.165 860.665 25.4562 860.665 33.2167V536.948C860.665 544.709 854.374 551 846.614 551H14.0517C6.29116 551 0 544.709 0 536.948V33.2167Z" fill="white"/>
</clipPath>
<clipPath id="clip1_1810_7835">
<rect width="735.382" height="420.08" fill="white" transform="translate(148.713 184.271)"/>
</clipPath>
</defs>
</svg>
