<svg xmlns="http://www.w3.org/2000/svg" width="325" height="146" viewBox="0 0 325 146"><defs><style type="text/css"/></defs><g transform="translate(162.50088067979394 136.22171566686558) scale(1)"><g class="relationship"><g transform="translate(-133.59463067979394 -18.090819681597864) rotate(-29.999999999999996)" stroke-width="1" stroke="#A5ABB6"><path d="M 27 0 L 117.81179197053542 0"/><polygon points="-9.45,0 -10.5,3.5 0,0 -10.5,-3.5" fill="#A5ABB6" transform="translate(127.26179197053543 0) rotate(0)" stroke="none"/></g><g transform="translate(-70.8892853727784 -54.29376767423171) rotate(-29.999999999999996) translate(0 -7)"><g transform="translate(0 0)"><g transform="translate(-15.8916015625 0)" fill="#ffffff" stroke="#000000" stroke-width="0"><rect x="0" y="0" width="31.783203125" height="14" rx="2" ry="2" stroke="none"/><text xml:space="preserve" x="2" y="9.78564453125" stroke="none" text-anchor="left" font-family="sans-serif" font-size="10" font-weight="normal" fill="#000000">READ</text></g></g></g></g><g class="relationship"><g transform="translate(-133.59463067979394 -18.090819681597864) rotate(0)" stroke-width="1" stroke="#A5ABB6"><path d="M 27 0 L 230.73926135958806 0"/><polygon points="-9.45,0 -10.5,3.5 0,0 -10.5,-3.5" fill="#A5ABB6" transform="translate(240.18926135958804 0) rotate(0)" stroke="none"/></g><g transform="translate(-4.724999999999909 -18.090819681597864) rotate(0) translate(0 -7)"><g transform="translate(0 0)"><g transform="translate(-47.0048828125 0)" fill="#ffffff" stroke="#000000" stroke-width="0"><rect x="0" y="0" width="94.009765625" height="14" rx="2" ry="2" stroke="none"/><text xml:space="preserve" x="2" y="9.78564453125" stroke="none" text-anchor="left" font-family="sans-serif" font-size="10" font-weight="normal" fill="#000000">IS_FRIENDS_WITH</text></g></g></g></g><g class="relationship"><g transform="translate(133.5946306797941 -18.090819681597864) rotate(-150.00000000000003)" stroke-width="1" stroke="#A5ABB6"><path d="M 27 0 L 117.81179197053542 0"/><polygon points="-9.45,0 -10.5,3.5 0,0 -10.5,-3.5" fill="#A5ABB6" transform="translate(127.26179197053543 0) rotate(0)" stroke="none"/></g><g transform="translate(70.88928537277857 -54.29376767423171) rotate(29.999999999999993) translate(0 -7)"><g transform="translate(0 0)"><g transform="translate(-15.8916015625 0)" fill="#ffffff" stroke="#000000" stroke-width="0"><rect x="0" y="0" width="31.783203125" height="14" rx="2" ry="2" stroke="none"/><text xml:space="preserve" x="2" y="9.78564453125" stroke="none" text-anchor="left" font-family="sans-serif" font-size="10" font-weight="normal" fill="#000000">READ</text></g></g></g></g><g class="node"><g fill="#4C8EDA" stroke="#2870c2" stroke-width="2"><circle cx="7.384176715712886e-14" cy="-95.22171566686558" r="26"/></g><g transform="translate(7.384176715712886e-14 -95.22171566686558)"><g transform="scale(1) translate(0 -7)"><g transform="translate(0 0)"><g transform="translate(-18.396484375 0)"><g fill="#ffffff" stroke="#000000" stroke-width="0"><rect x="0" y="0" width="36.79296875" height="14" rx="7" ry="7" stroke="none"/><text xml:space="preserve" x="7" y="9.78564453125" stroke="none" font-family="sans-serif" font-size="10" font-weight="normal" fill="#000000">Book</text></g></g></g></g><g transform="translate(1.7757378587636622e-15 -41)"><g transform="translate(0 0)"><g transform="translate(-52.52685546875 0)" fill="white"><rect x="0" y="0" width="105.0537109375" height="12" rx="0" ry="0" stroke="none"/><g font-family="sans-serif" font-size="10" font-weight="normal" fill="#000000" text-anchor="end"><text xml:space="preserve" x="21.1181640625" y="8.78564453125" stroke="none">title:</text><text xml:space="preserve" x="23.896484375" y="8.78564453125" stroke="none" text-anchor="start">Graph Databases</text></g></g></g></g></g></g><g class="node"><g fill="#fe9200" stroke="#e27300" stroke-width="2"><circle cx="-133.59463067979394" cy="-18.090819681597864" r="26"/></g><g transform="translate(-133.59463067979394 -18.090819681597864)"><g transform="scale(0.8371425754952827) translate(0 -7)"><g transform="translate(0 0)"><g transform="translate(-22.84228515625 0)"><g fill="#ffffff" stroke="#000000" stroke-width="0"><rect x="0" y="0" width="45.6845703125" height="14" rx="7" ry="7" stroke="none"/><text xml:space="preserve" x="7" y="9.78564453125" stroke="none" font-family="sans-serif" font-size="10" font-weight="normal" fill="#000000">Person</text></g></g></g></g><g transform="translate(1.7757378587636622e-15 -41)"><g transform="translate(0 0)"><g transform="translate(-28.90625 0)" fill="white"><rect x="0" y="0" width="57.8125" height="12" rx="0" ry="0" stroke="none"/><g font-family="sans-serif" font-size="10" font-weight="normal" fill="#000000" text-anchor="end"><text xml:space="preserve" x="30.5712890625" y="8.78564453125" stroke="none">name:</text><text xml:space="preserve" x="33.349609375" y="8.78564453125" stroke="none" text-anchor="start">John</text></g></g></g></g></g></g><g class="node"><g fill="#fe9200" stroke="#e27300" stroke-width="2"><circle cx="133.5946306797941" cy="-18.090819681597864" r="26"/></g><g transform="translate(133.5946306797941 -18.090819681597864)"><g transform="scale(0.8371425754952827) translate(0 -7)"><g transform="translate(0 0)"><g transform="translate(-22.84228515625 0)"><g fill="#ffffff" stroke="#000000" stroke-width="0"><rect x="0" y="0" width="45.6845703125" height="14" rx="7" ry="7" stroke="none"/><text xml:space="preserve" x="7" y="9.78564453125" stroke="none" font-family="sans-serif" font-size="10" font-weight="normal" fill="#000000">Person</text></g></g></g></g><g transform="translate(1.7757378587636622e-15 -41)"><g transform="translate(0 0)"><g transform="translate(-28.9013671875 0)" fill="white"><rect x="0" y="0" width="57.802734375" height="12" rx="0" ry="0" stroke="none"/><g font-family="sans-serif" font-size="10" font-weight="normal" fill="#000000" text-anchor="end"><text xml:space="preserve" x="30.5712890625" y="8.78564453125" stroke="none">name:</text><text xml:space="preserve" x="33.349609375" y="8.78564453125" stroke="none" text-anchor="start">Sally</text></g></g></g></g></g></g></g></svg>