<svg width="830" height="476" viewBox="0 0 830 476" fill="none" xmlns="http://www.w3.org/2000/svg">
<path d="M336.871 469.056C336.297 469.056 335.851 468.981 335.534 468.832C335.221 468.678 335.004 468.461 334.883 468.181C334.762 467.901 334.701 467.567 334.701 467.18V462.966H333.525V461.762H334.75L335.177 459.613H336.402V461.755H338.019V462.966H336.402L336.409 467.117C336.409 467.332 336.432 467.49 336.479 467.593C336.53 467.691 336.61 467.756 336.717 467.789C336.829 467.817 336.976 467.831 337.158 467.831H338.054V468.909C337.956 468.946 337.811 468.979 337.62 469.007C337.433 469.04 337.184 469.056 336.871 469.056ZM339.654 469V461.762H341.285V469H339.654ZM339.626 460.495V458.885H341.313V460.495H339.626ZM346.141 469.056C345.567 469.056 345.121 468.981 344.804 468.832C344.491 468.678 344.274 468.461 344.153 468.181C344.031 467.901 343.971 467.567 343.971 467.18V462.966H342.795V461.762H344.02L344.447 459.613H345.672V461.755H347.289V462.966H345.672L345.679 467.117C345.679 467.332 345.702 467.49 345.749 467.593C345.8 467.691 345.879 467.756 345.987 467.789C346.099 467.817 346.246 467.831 346.428 467.831H347.324V468.909C347.226 468.946 347.081 468.979 346.89 469.007C346.703 469.04 346.453 469.056 346.141 469.056ZM350.982 469.105C350.515 469.105 350.142 469.047 349.862 468.93C349.582 468.813 349.372 468.657 349.232 468.461C349.092 468.265 349.001 468.046 348.959 467.803C348.917 467.556 348.896 467.304 348.896 467.047V458.598H350.562V466.851C350.562 467.164 350.625 467.406 350.751 467.579C350.881 467.752 351.091 467.852 351.381 467.88L351.745 467.894V468.965C351.619 469.002 351.49 469.035 351.36 469.063C351.229 469.091 351.103 469.105 350.982 469.105ZM356.155 469.14C355.46 469.14 354.846 468.993 354.314 468.699C353.787 468.4 353.374 467.976 353.075 467.425C352.781 466.874 352.634 466.219 352.634 465.458C352.634 464.716 352.767 464.058 353.033 463.484C353.304 462.905 353.694 462.45 354.202 462.119C354.716 461.788 355.334 461.622 356.057 461.622C356.771 461.622 357.371 461.774 357.856 462.077C358.342 462.38 358.71 462.805 358.962 463.351C359.214 463.892 359.34 464.527 359.34 465.255V465.773H354.335C354.331 466.184 354.396 466.548 354.531 466.865C354.667 467.182 354.867 467.432 355.133 467.614C355.399 467.791 355.728 467.88 356.12 467.88C356.522 467.88 356.869 467.791 357.163 467.614C357.462 467.432 357.66 467.157 357.758 466.788H359.312C359.228 467.292 359.028 467.719 358.71 468.069C358.398 468.419 358.015 468.685 357.562 468.867C357.114 469.049 356.645 469.14 356.155 469.14ZM354.328 464.716H357.73C357.73 464.366 357.667 464.051 357.541 463.771C357.42 463.486 357.236 463.262 356.988 463.099C356.741 462.931 356.428 462.847 356.05 462.847C355.677 462.847 355.362 462.938 355.105 463.12C354.849 463.302 354.655 463.538 354.524 463.827C354.394 464.112 354.328 464.408 354.328 464.716ZM360.73 463.932V461.986H362.655V463.932H360.73ZM360.73 468.958V467.026H362.655V468.958H360.73ZM371.546 469.14C371.042 469.14 370.559 469.079 370.097 468.958C369.635 468.832 369.212 468.648 368.83 468.405C368.452 468.158 368.139 467.852 367.892 467.488C367.644 467.119 367.493 466.69 367.437 466.2H369.201C369.275 466.541 369.422 466.828 369.642 467.061C369.866 467.294 370.148 467.472 370.489 467.593C370.829 467.714 371.21 467.775 371.63 467.775C372.003 467.775 372.351 467.719 372.673 467.607C372.995 467.495 373.256 467.329 373.457 467.11C373.657 466.886 373.757 466.611 373.757 466.284C373.757 465.915 373.627 465.628 373.366 465.423C373.109 465.213 372.74 465.047 372.26 464.926L370.279 464.457C369.765 464.34 369.317 464.17 368.935 463.946C368.557 463.722 368.263 463.428 368.053 463.064C367.843 462.695 367.738 462.245 367.738 461.713C367.738 461.106 367.903 460.581 368.235 460.138C368.571 459.695 369.026 459.354 369.6 459.116C370.174 458.873 370.82 458.752 371.539 458.752C372.36 458.752 373.053 458.89 373.618 459.165C374.182 459.436 374.612 459.8 374.906 460.257C375.2 460.714 375.349 461.216 375.354 461.762H373.632C373.594 461.356 373.475 461.036 373.275 460.803C373.074 460.565 372.82 460.392 372.512 460.285C372.204 460.178 371.863 460.124 371.49 460.124C370.827 460.124 370.335 460.266 370.013 460.551C369.691 460.836 369.53 461.169 369.53 461.552C369.53 461.911 369.649 462.196 369.887 462.406C370.125 462.616 370.489 462.779 370.979 462.896L372.862 463.337C373.492 463.468 373.998 463.668 374.381 463.939C374.763 464.21 375.041 464.532 375.214 464.905C375.391 465.274 375.48 465.682 375.48 466.13C375.48 466.718 375.312 467.238 374.976 467.691C374.644 468.144 374.185 468.498 373.597 468.755C373.009 469.012 372.325 469.14 371.546 469.14ZM380.193 469.14C379.503 469.14 378.901 468.993 378.387 468.699C377.874 468.4 377.475 467.973 377.19 467.418C376.91 466.863 376.77 466.195 376.77 465.416C376.77 464.66 376.908 463.997 377.183 463.428C377.459 462.859 377.851 462.415 378.359 462.098C378.873 461.781 379.486 461.622 380.2 461.622C380.891 461.622 381.491 461.774 381.999 462.077C382.508 462.38 382.9 462.814 383.175 463.379C383.455 463.944 383.595 464.623 383.595 465.416C383.595 466.149 383.462 466.795 383.196 467.355C382.935 467.91 382.55 468.347 382.041 468.664C381.537 468.981 380.921 469.14 380.193 469.14ZM380.2 467.845C380.592 467.845 380.914 467.738 381.166 467.523C381.423 467.308 381.614 467.014 381.74 466.641C381.866 466.268 381.929 465.843 381.929 465.367C381.929 464.924 381.873 464.515 381.761 464.142C381.649 463.769 381.465 463.47 381.208 463.246C380.956 463.017 380.62 462.903 380.2 462.903C379.804 462.903 379.475 463.008 379.213 463.218C378.957 463.423 378.765 463.713 378.639 464.086C378.513 464.455 378.45 464.882 378.45 465.367C378.45 465.806 378.506 466.214 378.618 466.592C378.73 466.965 378.915 467.269 379.171 467.502C379.428 467.731 379.771 467.845 380.2 467.845ZM385.789 469V462.966H384.361V461.762H385.789V460.684C385.789 460.105 385.948 459.66 386.265 459.347C386.587 459.034 387.052 458.878 387.658 458.878H389.184L389.191 460.04H388.183C387.908 460.04 387.719 460.112 387.616 460.257C387.514 460.397 387.462 460.619 387.462 460.922V461.762H389.121V462.966H387.49V469H385.789ZM393.076 469.056C392.502 469.056 392.056 468.981 391.739 468.832C391.426 468.678 391.209 468.461 391.088 468.181C390.967 467.901 390.906 467.567 390.906 467.18V462.966H389.73V461.762H390.955L391.382 459.613H392.607V461.755H394.224V462.966H392.607L392.614 467.117C392.614 467.332 392.637 467.49 392.684 467.593C392.735 467.691 392.815 467.756 392.922 467.789C393.034 467.817 393.181 467.831 393.363 467.831H394.259V468.909C394.161 468.946 394.016 468.979 393.825 469.007C393.638 469.04 393.389 469.056 393.076 469.056ZM397.441 469L395.145 461.762H396.678L398.183 466.739H398.267L399.73 461.762H400.969L402.474 466.732H402.558L404.014 461.762H405.575L403.279 469H401.809L400.325 464.177L398.876 469H397.441ZM408.684 469.14C408.222 469.14 407.807 469.056 407.438 468.888C407.074 468.715 406.787 468.47 406.577 468.153C406.372 467.831 406.269 467.441 406.269 466.984C406.269 466.186 406.556 465.584 407.13 465.178C407.709 464.772 408.628 464.56 409.888 464.541L410.973 464.513V464.023C410.973 463.64 410.859 463.342 410.63 463.127C410.406 462.908 410.056 462.8 409.58 462.805C409.225 462.81 408.903 462.894 408.614 463.057C408.325 463.216 408.133 463.484 408.04 463.862H406.591C406.619 463.367 406.761 462.954 407.018 462.623C407.279 462.287 407.636 462.037 408.089 461.874C408.542 461.706 409.064 461.622 409.657 461.622C410.348 461.622 410.91 461.713 411.344 461.895C411.778 462.077 412.098 462.341 412.303 462.686C412.508 463.027 412.611 463.44 412.611 463.925V469H411.176L411.036 467.698C410.779 468.244 410.45 468.622 410.049 468.832C409.652 469.037 409.197 469.14 408.684 469.14ZM409.237 467.985C409.447 467.985 409.655 467.948 409.86 467.873C410.065 467.794 410.25 467.689 410.413 467.558C410.581 467.423 410.714 467.273 410.812 467.11C410.915 466.947 410.968 466.776 410.973 466.599V465.458L410.084 465.472C409.645 465.477 409.26 465.523 408.929 465.612C408.602 465.701 408.348 465.843 408.166 466.039C407.984 466.23 407.893 466.487 407.893 466.809C407.893 467.178 408.021 467.467 408.278 467.677C408.535 467.882 408.854 467.985 409.237 467.985ZM414.425 469V461.762H416.056V463.33C416.173 462.971 416.338 462.665 416.553 462.413C416.772 462.156 417.029 461.96 417.323 461.825C417.617 461.69 417.937 461.622 418.282 461.622C418.366 461.622 418.448 461.627 418.527 461.636C418.606 461.645 418.665 461.662 418.702 461.685V463.316C418.651 463.293 418.583 463.276 418.499 463.267C418.42 463.258 418.35 463.253 418.289 463.253C417.939 463.225 417.629 463.239 417.358 463.295C417.092 463.351 416.866 463.447 416.679 463.582C416.497 463.713 416.359 463.881 416.266 464.086C416.173 464.287 416.126 464.522 416.126 464.793V469H414.425ZM423.202 469.14C422.507 469.14 421.893 468.993 421.361 468.699C420.834 468.4 420.421 467.976 420.122 467.425C419.828 466.874 419.681 466.219 419.681 465.458C419.681 464.716 419.814 464.058 420.08 463.484C420.351 462.905 420.74 462.45 421.249 462.119C421.762 461.788 422.381 461.622 423.104 461.622C423.818 461.622 424.418 461.774 424.903 462.077C425.388 462.38 425.757 462.805 426.009 463.351C426.261 463.892 426.387 464.527 426.387 465.255V465.773H421.382C421.377 466.184 421.443 466.548 421.578 466.865C421.713 467.182 421.914 467.432 422.18 467.614C422.446 467.791 422.775 467.88 423.167 467.88C423.568 467.88 423.916 467.791 424.21 467.614C424.509 467.432 424.707 467.157 424.805 466.788H426.359C426.275 467.292 426.074 467.719 425.757 468.069C425.444 468.419 425.062 468.685 424.609 468.867C424.161 469.049 423.692 469.14 423.202 469.14ZM421.375 464.716H424.777C424.777 464.366 424.714 464.051 424.588 463.771C424.467 463.486 424.282 463.262 424.035 463.099C423.788 462.931 423.475 462.847 423.097 462.847C422.724 462.847 422.409 462.938 422.152 463.12C421.895 463.302 421.702 463.538 421.571 463.827C421.44 464.112 421.375 464.408 421.375 464.716ZM433.779 469.14C432.822 469.14 432.071 468.811 431.525 468.153C430.979 467.495 430.706 466.559 430.706 465.346C430.706 464.59 430.816 463.934 431.035 463.379C431.259 462.819 431.588 462.387 432.022 462.084C432.456 461.776 432.99 461.622 433.625 461.622C433.924 461.622 434.194 461.659 434.437 461.734C434.684 461.804 434.904 461.897 435.095 462.014C435.286 462.131 435.447 462.259 435.578 462.399C435.713 462.539 435.818 462.679 435.893 462.819V458.598H437.608V469H436.348L436.159 467.516C436.098 467.689 436.012 467.871 435.9 468.062C435.793 468.249 435.646 468.424 435.459 468.587C435.277 468.75 435.048 468.883 434.773 468.986C434.498 469.089 434.166 469.14 433.779 469.14ZM434.129 467.887C434.74 467.887 435.186 467.689 435.466 467.292C435.751 466.891 435.893 466.228 435.893 465.304C435.888 464.777 435.823 464.333 435.697 463.974C435.576 463.615 435.389 463.344 435.137 463.162C434.885 462.98 434.556 462.889 434.15 462.889C433.637 462.889 433.214 463.078 432.883 463.456C432.556 463.834 432.393 464.45 432.393 465.304C432.393 466.153 432.545 466.797 432.848 467.236C433.151 467.67 433.578 467.887 434.129 467.887ZM442.726 469.14C442.03 469.14 441.417 468.993 440.885 468.699C440.357 468.4 439.944 467.976 439.646 467.425C439.352 466.874 439.205 466.219 439.205 465.458C439.205 464.716 439.338 464.058 439.604 463.484C439.874 462.905 440.264 462.45 440.773 462.119C441.286 461.788 441.904 461.622 442.628 461.622C443.342 461.622 443.941 461.774 444.427 462.077C444.912 462.38 445.281 462.805 445.533 463.351C445.785 463.892 445.911 464.527 445.911 465.255V465.773H440.906C440.901 466.184 440.966 466.548 441.102 466.865C441.237 467.182 441.438 467.432 441.704 467.614C441.97 467.791 442.299 467.88 442.691 467.88C443.092 467.88 443.44 467.791 443.734 467.614C444.032 467.432 444.231 467.157 444.329 466.788H445.883C445.799 467.292 445.598 467.719 445.281 468.069C444.968 468.419 444.585 468.685 444.133 468.867C443.685 469.049 443.216 469.14 442.726 469.14ZM440.899 464.716H444.301C444.301 464.366 444.238 464.051 444.112 463.771C443.99 463.486 443.806 463.262 443.559 463.099C443.311 462.931 442.999 462.847 442.621 462.847C442.247 462.847 441.932 462.938 441.676 463.12C441.419 463.302 441.225 463.538 441.095 463.827C440.964 464.112 440.899 464.408 440.899 464.716ZM449.321 469L446.647 461.762H448.208L449.944 466.83H450.035L451.764 461.762H453.332L450.665 469H449.321ZM457.56 469.14C456.864 469.14 456.251 468.993 455.719 468.699C455.191 468.4 454.778 467.976 454.48 467.425C454.186 466.874 454.039 466.219 454.039 465.458C454.039 464.716 454.172 464.058 454.438 463.484C454.708 462.905 455.098 462.45 455.607 462.119C456.12 461.788 456.738 461.622 457.462 461.622C458.176 461.622 458.775 461.774 459.261 462.077C459.746 462.38 460.115 462.805 460.367 463.351C460.619 463.892 460.745 464.527 460.745 465.255V465.773H455.74C455.735 466.184 455.8 466.548 455.936 466.865C456.071 467.182 456.272 467.432 456.538 467.614C456.804 467.791 457.133 467.88 457.525 467.88C457.926 467.88 458.274 467.791 458.568 467.614C458.866 467.432 459.065 467.157 459.163 466.788H460.717C460.633 467.292 460.432 467.719 460.115 468.069C459.802 468.419 459.419 468.685 458.967 468.867C458.519 469.049 458.05 469.14 457.56 469.14ZM455.733 464.716H459.135C459.135 464.366 459.072 464.051 458.946 463.771C458.824 463.486 458.64 463.262 458.393 463.099C458.145 462.931 457.833 462.847 457.455 462.847C457.081 462.847 456.766 462.938 456.51 463.12C456.253 463.302 456.059 463.538 455.929 463.827C455.798 464.112 455.733 464.408 455.733 464.716ZM464.458 469.105C463.992 469.105 463.618 469.047 463.338 468.93C463.058 468.813 462.848 468.657 462.708 468.461C462.568 468.265 462.477 468.046 462.435 467.803C462.393 467.556 462.372 467.304 462.372 467.047V458.598H464.038V466.851C464.038 467.164 464.101 467.406 464.227 467.579C464.358 467.752 464.568 467.852 464.857 467.88L465.221 467.894V468.965C465.095 469.002 464.967 469.035 464.836 469.063C464.706 469.091 464.58 469.105 464.458 469.105ZM469.471 469.14C468.78 469.14 468.178 468.993 467.665 468.699C467.151 468.4 466.752 467.973 466.468 467.418C466.188 466.863 466.048 466.195 466.048 465.416C466.048 464.66 466.185 463.997 466.461 463.428C466.736 462.859 467.128 462.415 467.637 462.098C468.15 461.781 468.764 461.622 469.478 461.622C470.168 461.622 470.768 461.774 471.277 462.077C471.785 462.38 472.177 462.814 472.453 463.379C472.733 463.944 472.873 464.623 472.873 465.416C472.873 466.149 472.74 466.795 472.474 467.355C472.212 467.91 471.827 468.347 471.319 468.664C470.815 468.981 470.199 469.14 469.471 469.14ZM469.478 467.845C469.87 467.845 470.192 467.738 470.444 467.523C470.7 467.308 470.892 467.014 471.018 466.641C471.144 466.268 471.207 465.843 471.207 465.367C471.207 464.924 471.151 464.515 471.039 464.142C470.927 463.769 470.742 463.47 470.486 463.246C470.234 463.017 469.898 462.903 469.478 462.903C469.081 462.903 468.752 463.008 468.491 463.218C468.234 463.423 468.043 463.713 467.917 464.086C467.791 464.455 467.728 464.882 467.728 465.367C467.728 465.806 467.784 466.214 467.896 466.592C468.008 466.965 468.192 467.269 468.449 467.502C468.705 467.731 469.048 467.845 469.478 467.845ZM474.431 471.254V461.762H476.132L476.146 462.903C476.239 462.744 476.358 462.588 476.503 462.434C476.652 462.28 476.823 462.142 477.014 462.021C477.21 461.9 477.427 461.804 477.665 461.734C477.903 461.659 478.164 461.622 478.449 461.622C479.004 461.622 479.497 461.755 479.926 462.021C480.355 462.282 480.691 462.686 480.934 463.232C481.181 463.778 481.305 464.469 481.305 465.304C481.305 466.158 481.179 466.87 480.927 467.439C480.675 468.008 480.323 468.435 479.87 468.72C479.417 469 478.892 469.14 478.295 469.14C478.02 469.14 477.768 469.103 477.539 469.028C477.315 468.953 477.114 468.851 476.937 468.72C476.76 468.589 476.603 468.447 476.468 468.293C476.337 468.139 476.228 467.978 476.139 467.81V471.254H474.431ZM477.917 467.866C478.43 467.866 478.855 467.663 479.191 467.257C479.527 466.846 479.695 466.205 479.695 465.332C479.695 464.576 479.536 463.981 479.219 463.547C478.906 463.108 478.472 462.889 477.917 462.889C477.32 462.889 476.872 463.12 476.573 463.582C476.274 464.039 476.125 464.623 476.125 465.332C476.125 465.789 476.19 466.212 476.321 466.599C476.456 466.982 476.655 467.29 476.916 467.523C477.182 467.752 477.516 467.866 477.917 467.866ZM486.052 469.14C485.356 469.14 484.743 468.993 484.211 468.699C483.683 468.4 483.27 467.976 482.972 467.425C482.678 466.874 482.531 466.219 482.531 465.458C482.531 464.716 482.664 464.058 482.93 463.484C483.2 462.905 483.59 462.45 484.099 462.119C484.612 461.788 485.23 461.622 485.954 461.622C486.668 461.622 487.267 461.774 487.753 462.077C488.238 462.38 488.607 462.805 488.859 463.351C489.111 463.892 489.237 464.527 489.237 465.255V465.773H484.232C484.227 466.184 484.292 466.548 484.428 466.865C484.563 467.182 484.764 467.432 485.03 467.614C485.296 467.791 485.625 467.88 486.017 467.88C486.418 467.88 486.766 467.791 487.06 467.614C487.358 467.432 487.557 467.157 487.655 466.788H489.209C489.125 467.292 488.924 467.719 488.607 468.069C488.294 468.419 487.911 468.685 487.459 468.867C487.011 469.049 486.542 469.14 486.052 469.14ZM484.225 464.716H487.627C487.627 464.366 487.564 464.051 487.438 463.771C487.316 463.486 487.132 463.262 486.885 463.099C486.637 462.931 486.325 462.847 485.947 462.847C485.573 462.847 485.258 462.938 485.002 463.12C484.745 463.302 484.551 463.538 484.421 463.827C484.29 464.112 484.225 464.408 484.225 464.716ZM490.864 469V461.762H492.495V463.33C492.612 462.971 492.778 462.665 492.992 462.413C493.212 462.156 493.468 461.96 493.762 461.825C494.056 461.69 494.376 461.622 494.721 461.622C494.805 461.622 494.887 461.627 494.966 461.636C495.046 461.645 495.104 461.662 495.141 461.685V463.316C495.09 463.293 495.022 463.276 494.938 463.267C494.859 463.258 494.789 463.253 494.728 463.253C494.378 463.225 494.068 463.239 493.797 463.295C493.531 463.351 493.305 463.447 493.118 463.582C492.936 463.713 492.799 463.881 492.705 464.086C492.612 464.287 492.565 464.522 492.565 464.793V469H490.864Z" fill="black"/>
<path d="M15.966 41V33.762H17.632V34.798C17.744 34.6113 17.8957 34.4317 18.087 34.259C18.283 34.0863 18.5233 33.9463 18.808 33.839C19.0927 33.7317 19.4263 33.678 19.809 33.678C20.257 33.678 20.6723 33.7667 21.055 33.944C21.4423 34.1213 21.7527 34.399 21.986 34.777C22.224 35.155 22.343 35.6427 22.343 36.24V41H20.635V36.443C20.635 35.967 20.5043 35.6147 20.243 35.386C19.9817 35.1527 19.6527 35.036 19.256 35.036C18.9853 35.036 18.7287 35.0827 18.486 35.176C18.2433 35.2647 18.045 35.4023 17.891 35.589C17.7417 35.771 17.667 35.9997 17.667 36.275V41H15.966ZM26.2211 41.14C25.7591 41.14 25.3438 41.056 24.9751 40.888C24.6111 40.7153 24.3241 40.4703 24.1141 40.153C23.9088 39.831 23.8061 39.4413 23.8061 38.984C23.8061 38.186 24.0931 37.584 24.6671 37.178C25.2458 36.772 26.1651 36.5597 27.4251 36.541L28.5101 36.513V36.023C28.5101 35.6403 28.3958 35.3417 28.1671 35.127C27.9431 34.9077 27.5931 34.8003 27.1171 34.805C26.7624 34.8097 26.4404 34.8937 26.1511 35.057C25.8618 35.2157 25.6704 35.484 25.5771 35.862H24.1281C24.1561 35.3673 24.2984 34.9543 24.5551 34.623C24.8164 34.287 25.1734 34.0373 25.6261 33.874C26.0788 33.706 26.6014 33.622 27.1941 33.622C27.8848 33.622 28.4471 33.713 28.8811 33.895C29.3151 34.077 29.6348 34.3407 29.8401 34.686C30.0454 35.0267 30.1481 35.4397 30.1481 35.925V41H28.7131L28.5731 39.698C28.3164 40.244 27.9874 40.622 27.5861 40.832C27.1894 41.0373 26.7344 41.14 26.2211 41.14ZM26.7741 39.985C26.9841 39.985 27.1918 39.9477 27.3971 39.873C27.6024 39.7937 27.7868 39.6887 27.9501 39.558C28.1181 39.4227 28.2511 39.2733 28.3491 39.11C28.4518 38.9467 28.5054 38.7763 28.5101 38.599V37.458L27.6211 37.472C27.1824 37.4767 26.7974 37.5233 26.4661 37.612C26.1394 37.7007 25.8851 37.843 25.7031 38.039C25.5211 38.2303 25.4301 38.487 25.4301 38.809C25.4301 39.1777 25.5584 39.467 25.8151 39.677C26.0718 39.8823 26.3914 39.985 26.7741 39.985ZM31.9621 41V33.762H33.6211V34.798C33.8311 34.4807 34.1158 34.2053 34.4751 33.972C34.8391 33.7387 35.3011 33.622 35.8611 33.622C36.1178 33.622 36.3768 33.6663 36.6381 33.755C36.9041 33.8437 37.1491 33.9743 37.3731 34.147C37.6018 34.3197 37.7838 34.5343 37.9191 34.791C38.1478 34.4503 38.4511 34.1703 38.8291 33.951C39.2118 33.7317 39.6411 33.622 40.1171 33.622C40.3784 33.622 40.6468 33.664 40.9221 33.748C41.2021 33.832 41.4588 33.972 41.6921 34.168C41.9254 34.364 42.1144 34.6323 42.2591 34.973C42.4038 35.309 42.4761 35.7313 42.4761 36.24V41H40.7751V36.443C40.7751 36.0837 40.7121 35.8013 40.5861 35.596C40.4601 35.3907 40.2968 35.246 40.0961 35.162C39.9001 35.0733 39.6901 35.029 39.4661 35.029C39.2654 35.029 39.0554 35.0687 38.8361 35.148C38.6214 35.2273 38.4371 35.358 38.2831 35.54C38.1338 35.722 38.0591 35.967 38.0591 36.275V41H36.3581V36.17C36.3581 35.918 36.2928 35.708 36.1621 35.54C36.0314 35.372 35.8658 35.246 35.6651 35.162C35.4691 35.0733 35.2684 35.029 35.0631 35.029C34.8531 35.029 34.6384 35.0733 34.4191 35.162C34.2044 35.2507 34.0248 35.386 33.8801 35.568C33.7354 35.75 33.6631 35.9857 33.6631 36.275V41H31.9621ZM47.5068 41.14C46.8115 41.14 46.1978 40.993 45.6658 40.699C45.1385 40.4003 44.7255 39.9757 44.4268 39.425C44.1328 38.8743 43.9858 38.2187 43.9858 37.458C43.9858 36.716 44.1188 36.058 44.3848 35.484C44.6555 34.9053 45.0451 34.4503 45.5538 34.119C46.0671 33.7877 46.6855 33.622 47.4088 33.622C48.1228 33.622 48.7225 33.7737 49.2078 34.077C49.6931 34.3803 50.0618 34.805 50.3138 35.351C50.5658 35.8923 50.6918 36.527 50.6918 37.255V37.773H45.6868C45.6821 38.1837 45.7475 38.5477 45.8828 38.865C46.0181 39.1823 46.2188 39.432 46.4848 39.614C46.7508 39.7913 47.0798 39.88 47.4718 39.88C47.8731 39.88 48.2208 39.7913 48.5148 39.614C48.8135 39.432 49.0118 39.1567 49.1098 38.788H50.6638C50.5798 39.292 50.3791 39.719 50.0618 40.069C49.7491 40.419 49.3665 40.685 48.9138 40.867C48.4658 41.049 47.9968 41.14 47.5068 41.14ZM45.6798 36.716H49.0818C49.0818 36.366 49.0188 36.051 48.8928 35.771C48.7715 35.4863 48.5871 35.2623 48.3398 35.099C48.0925 34.931 47.7798 34.847 47.4018 34.847C47.0285 34.847 46.7135 34.938 46.4568 35.12C46.2001 35.302 46.0065 35.5377 45.8758 35.827C45.7451 36.1117 45.6798 36.408 45.6798 36.716ZM52.0815 35.932V33.986H54.0065V35.932H52.0815ZM52.0815 40.958V39.026H54.0065V40.958H52.0815ZM59.3691 34.497L58.9001 30.878H60.7551L60.2651 34.497H59.3691ZM62.8324 41V30.878H66.4234C67.1514 30.878 67.8024 31.004 68.3764 31.256C68.9551 31.5033 69.4101 31.8697 69.7414 32.355C70.0728 32.8403 70.2384 33.4377 70.2384 34.147C70.2384 34.8143 70.0868 35.386 69.7834 35.862C69.4848 36.338 69.0671 36.702 68.5304 36.954C67.9938 37.206 67.3661 37.332 66.6474 37.332H64.5614V41H62.8324ZM64.5474 35.967H66.6054C67.1981 35.967 67.6811 35.7897 68.0544 35.435C68.4324 35.0803 68.6214 34.6183 68.6214 34.049C68.6214 33.4703 68.4254 33.0223 68.0334 32.705C67.6414 32.383 67.1491 32.222 66.5564 32.222H64.5474V35.967ZM73.5258 41.14C73.0638 41.14 72.6485 41.056 72.2798 40.888C71.9158 40.7153 71.6288 40.4703 71.4188 40.153C71.2135 39.831 71.1108 39.4413 71.1108 38.984C71.1108 38.186 71.3978 37.584 71.9718 37.178C72.5505 36.772 73.4698 36.5597 74.7298 36.541L75.8148 36.513V36.023C75.8148 35.6403 75.7005 35.3417 75.4718 35.127C75.2478 34.9077 74.8978 34.8003 74.4218 34.805C74.0671 34.8097 73.7451 34.8937 73.4558 35.057C73.1665 35.2157 72.9751 35.484 72.8818 35.862H71.4328C71.4608 35.3673 71.6031 34.9543 71.8598 34.623C72.1211 34.287 72.4781 34.0373 72.9308 33.874C73.3835 33.706 73.9061 33.622 74.4988 33.622C75.1895 33.622 75.7518 33.713 76.1858 33.895C76.6198 34.077 76.9395 34.3407 77.1448 34.686C77.3501 35.0267 77.4528 35.4397 77.4528 35.925V41H76.0178L75.8778 39.698C75.6211 40.244 75.2921 40.622 74.8908 40.832C74.4941 41.0373 74.0391 41.14 73.5258 41.14ZM74.0788 39.985C74.2888 39.985 74.4965 39.9477 74.7018 39.873C74.9071 39.7937 75.0915 39.6887 75.2548 39.558C75.4228 39.4227 75.5558 39.2733 75.6538 39.11C75.7565 38.9467 75.8101 38.7763 75.8148 38.599V37.458L74.9258 37.472C74.4871 37.4767 74.1021 37.5233 73.7708 37.612C73.4441 37.7007 73.1898 37.843 73.0078 38.039C72.8258 38.2303 72.7348 38.487 72.7348 38.809C72.7348 39.1777 72.8631 39.467 73.1198 39.677C73.3765 39.8823 73.6961 39.985 74.0788 39.985ZM81.8847 41.056C81.3107 41.056 80.865 40.9813 80.5477 40.832C80.235 40.678 80.018 40.461 79.8967 40.181C79.7753 39.901 79.7147 39.5673 79.7147 39.18V34.966H78.5387V33.762H79.7637L80.1907 31.613H81.4157V33.755H83.0327V34.966H81.4157L81.4227 39.117C81.4227 39.3317 81.446 39.4903 81.4927 39.593C81.544 39.691 81.6233 39.7563 81.7307 39.789C81.8427 39.817 81.9897 39.831 82.1717 39.831H83.0677V40.909C82.9697 40.9463 82.825 40.979 82.6337 41.007C82.447 41.0397 82.1973 41.056 81.8847 41.056ZM84.6398 41V33.762H86.2708V35.33C86.3875 34.9707 86.5532 34.665 86.7678 34.413C86.9872 34.1563 87.2438 33.9603 87.5378 33.825C87.8318 33.6897 88.1515 33.622 88.4968 33.622C88.5808 33.622 88.6625 33.6267 88.7418 33.636C88.8212 33.6453 88.8795 33.6617 88.9168 33.685V35.316C88.8655 35.2927 88.7978 35.2763 88.7138 35.267C88.6345 35.2577 88.5645 35.253 88.5038 35.253C88.1538 35.225 87.8435 35.239 87.5728 35.295C87.3068 35.351 87.0805 35.4467 86.8938 35.582C86.7118 35.7127 86.5742 35.8807 86.4808 36.086C86.3875 36.2867 86.3408 36.5223 86.3408 36.793V41H84.6398ZM90.3006 41V33.762H91.9316V41H90.3006ZM90.2726 32.495V30.885H91.9596V32.495H90.2726ZM96.92 41.14C96.2573 41.14 95.667 40.9953 95.149 40.706C94.6357 40.412 94.232 39.9873 93.938 39.432C93.644 38.872 93.497 38.1977 93.497 37.409C93.497 36.6577 93.6347 35.9997 93.91 35.435C94.19 34.8657 94.5843 34.4223 95.093 34.105C95.6063 33.783 96.2153 33.622 96.92 33.622C97.4847 33.622 97.9817 33.734 98.411 33.958C98.8403 34.182 99.1833 34.4923 99.44 34.889C99.7013 35.2857 99.8577 35.736 99.909 36.24H98.46C98.4227 36.0207 98.341 35.813 98.215 35.617C98.089 35.4163 97.9187 35.2553 97.704 35.134C97.494 35.008 97.2373 34.945 96.934 34.945C96.388 34.945 95.947 35.1457 95.611 35.547C95.275 35.9483 95.107 36.5643 95.107 37.395C95.107 38.1603 95.2657 38.7693 95.583 39.222C95.905 39.6747 96.3647 39.901 96.962 39.901C97.2607 39.901 97.5173 39.8357 97.732 39.705C97.9467 39.5697 98.1147 39.404 98.236 39.208C98.362 39.0073 98.4413 38.8067 98.474 38.606H99.888C99.846 39.096 99.6943 39.5323 99.433 39.915C99.1717 40.2977 98.8263 40.5987 98.397 40.818C97.9677 41.0327 97.4753 41.14 96.92 41.14ZM101.456 41V30.598H103.15V37.045L106.153 33.762H108.022L105.404 36.59L108.155 41H106.426L104.326 37.647L103.15 38.879V41H101.456ZM109.188 34.525L109.979 32.698L109.321 32.649V30.878H111.183V32.432L109.874 34.525H109.188Z" fill="black"/>
<path d="M380.848 17V10.966H379.42V9.762H380.848V8.684C380.848 8.10533 381.007 7.65967 381.324 7.347C381.646 7.03433 382.11 6.878 382.717 6.878H384.243L384.25 8.04H383.242C382.967 8.04 382.778 8.11233 382.675 8.257C382.572 8.397 382.521 8.61867 382.521 8.922V9.762H384.18V10.966H382.549V17H380.848ZM385.517 17V9.762H387.148V11.33C387.264 10.9707 387.43 10.665 387.645 10.413C387.864 10.1563 388.121 9.96033 388.415 9.825C388.709 9.68967 389.028 9.622 389.374 9.622C389.458 9.622 389.539 9.62667 389.619 9.636C389.698 9.64533 389.756 9.66167 389.794 9.685V11.316C389.742 11.2927 389.675 11.2763 389.591 11.267C389.511 11.2577 389.441 11.253 389.381 11.253C389.031 11.225 388.72 11.239 388.45 11.295C388.184 11.351 387.957 11.4467 387.771 11.582C387.589 11.7127 387.451 11.8807 387.358 12.086C387.264 12.2867 387.218 12.5223 387.218 12.793V17H385.517ZM394.133 17.14C393.442 17.14 392.84 16.993 392.327 16.699C391.814 16.4003 391.415 15.9733 391.13 15.418C390.85 14.8627 390.71 14.1953 390.71 13.416C390.71 12.66 390.848 11.9973 391.123 11.428C391.398 10.8587 391.79 10.4153 392.299 10.098C392.812 9.78067 393.426 9.622 394.14 9.622C394.831 9.622 395.43 9.77367 395.939 10.077C396.448 10.3803 396.84 10.8143 397.115 11.379C397.395 11.9437 397.535 12.6227 397.535 13.416C397.535 14.1487 397.402 14.795 397.136 15.355C396.875 15.9103 396.49 16.3467 395.981 16.664C395.477 16.9813 394.861 17.14 394.133 17.14ZM394.14 15.845C394.532 15.845 394.854 15.7377 395.106 15.523C395.363 15.3083 395.554 15.0143 395.68 14.641C395.806 14.2677 395.869 13.843 395.869 13.367C395.869 12.9237 395.813 12.5153 395.701 12.142C395.589 11.7687 395.405 11.47 395.148 11.246C394.896 11.0173 394.56 10.903 394.14 10.903C393.743 10.903 393.414 11.008 393.153 11.218C392.896 11.4233 392.705 11.7127 392.579 12.086C392.453 12.4547 392.39 12.8817 392.39 13.367C392.39 13.8057 392.446 14.214 392.558 14.592C392.67 14.9653 392.854 15.2687 393.111 15.502C393.368 15.7307 393.711 15.845 394.14 15.845ZM399.093 17V9.762H400.752V10.798C400.962 10.4807 401.247 10.2053 401.606 9.972C401.97 9.73867 402.432 9.622 402.992 9.622C403.249 9.622 403.508 9.66633 403.769 9.755C404.035 9.84367 404.28 9.97433 404.504 10.147C404.733 10.3197 404.915 10.5343 405.05 10.791C405.279 10.4503 405.582 10.1703 405.96 9.951C406.343 9.73167 406.772 9.622 407.248 9.622C407.509 9.622 407.778 9.664 408.053 9.748C408.333 9.832 408.59 9.972 408.823 10.168C409.056 10.364 409.245 10.6323 409.39 10.973C409.535 11.309 409.607 11.7313 409.607 12.24V17H407.906V12.443C407.906 12.0837 407.843 11.8013 407.717 11.596C407.591 11.3907 407.428 11.246 407.227 11.162C407.031 11.0733 406.821 11.029 406.597 11.029C406.396 11.029 406.186 11.0687 405.967 11.148C405.752 11.2273 405.568 11.358 405.414 11.54C405.265 11.722 405.19 11.967 405.19 12.275V17H403.489V12.17C403.489 11.918 403.424 11.708 403.293 11.54C403.162 11.372 402.997 11.246 402.796 11.162C402.6 11.0733 402.399 11.029 402.194 11.029C401.984 11.029 401.769 11.0733 401.55 11.162C401.335 11.2507 401.156 11.386 401.011 11.568C400.866 11.75 400.794 11.9857 400.794 12.275V17H399.093ZM411.201 11.932V9.986H413.126V11.932H411.201ZM411.201 16.958V15.026H413.126V16.958H411.201ZM417.984 17V16.09V15.621C417.984 15.103 418.08 14.6573 418.271 14.284C418.463 13.906 418.717 13.577 419.034 13.297C419.352 13.017 419.699 12.7697 420.077 12.555C420.46 12.3357 420.838 12.1303 421.211 11.939C421.589 11.743 421.937 11.5423 422.254 11.337C422.572 11.127 422.826 10.8937 423.017 10.637C423.213 10.3803 423.311 10.0747 423.311 9.72C423.311 9.26733 423.15 8.89867 422.828 8.614C422.511 8.32467 422.079 8.18 421.533 8.18C420.955 8.18 420.476 8.34567 420.098 8.677C419.725 9.00833 419.503 9.475 419.433 10.077H417.781C417.791 9.461 417.938 8.901 418.222 8.397C418.507 7.893 418.929 7.49167 419.489 7.193C420.049 6.88967 420.747 6.738 421.582 6.738C422.306 6.738 422.929 6.864 423.451 7.116C423.979 7.36333 424.385 7.711 424.669 8.159C424.959 8.60233 425.103 9.12033 425.103 9.713C425.103 10.231 425.008 10.6743 424.816 11.043C424.63 11.4117 424.38 11.7313 424.067 12.002C423.759 12.268 423.419 12.5037 423.045 12.709C422.677 12.9143 422.306 13.108 421.932 13.29C421.564 13.4673 421.223 13.654 420.91 13.85C420.602 14.0413 420.353 14.2607 420.161 14.508C419.975 14.7553 419.881 15.0517 419.881 15.397V15.544H425.124V17H417.984ZM430.209 17.154C429.037 17.154 428.116 16.713 427.444 15.831C426.776 14.949 426.443 13.6633 426.443 11.974C426.443 10.8353 426.597 9.87867 426.905 9.104C427.213 8.32467 427.649 7.73667 428.214 7.34C428.778 6.93867 429.446 6.738 430.216 6.738C431.373 6.738 432.288 7.18367 432.96 8.075C433.636 8.96167 433.975 10.2567 433.975 11.96C433.975 13.654 433.639 14.9443 432.967 15.831C432.299 16.713 431.38 17.154 430.209 17.154ZM430.216 15.733C430.874 15.733 431.364 15.4413 431.686 14.858C432.008 14.2747 432.169 13.311 432.169 11.967C432.169 10.595 432.005 9.61033 431.679 9.013C431.352 8.41567 430.862 8.117 430.209 8.117C429.555 8.117 429.061 8.418 428.725 9.02C428.393 9.622 428.228 10.6043 428.228 11.967C428.228 13.3063 428.393 14.27 428.725 14.858C429.061 15.4413 429.558 15.733 430.216 15.733ZM438.959 17.154C437.787 17.154 436.866 16.713 436.194 15.831C435.526 14.949 435.193 13.6633 435.193 11.974C435.193 10.8353 435.347 9.87867 435.655 9.104C435.963 8.32467 436.399 7.73667 436.964 7.34C437.528 6.93867 438.196 6.738 438.966 6.738C440.123 6.738 441.038 7.18367 441.71 8.075C442.386 8.96167 442.725 10.2567 442.725 11.96C442.725 13.654 442.389 14.9443 441.717 15.831C441.049 16.713 440.13 17.154 438.959 17.154ZM438.966 15.733C439.624 15.733 440.114 15.4413 440.436 14.858C440.758 14.2747 440.919 13.311 440.919 11.967C440.919 10.595 440.755 9.61033 440.429 9.013C440.102 8.41567 439.612 8.117 438.959 8.117C438.305 8.117 437.811 8.418 437.475 9.02C437.143 9.622 436.978 10.6043 436.978 11.967C436.978 13.3063 437.143 14.27 437.475 14.858C437.811 15.4413 438.308 15.733 438.966 15.733ZM445.866 17V9.202H443.99V8.187C444.583 8.187 445.052 8.138 445.397 8.04C445.747 7.93733 446.002 7.788 446.16 7.592C446.324 7.396 446.417 7.158 446.44 6.878H447.602V17H445.866ZM382.871 41.056C382.297 41.056 381.851 40.9813 381.534 40.832C381.221 40.678 381.004 40.461 380.883 40.181C380.762 39.901 380.701 39.5673 380.701 39.18V34.966H379.525V33.762H380.75L381.177 31.613H382.402V33.755H384.019V34.966H382.402L382.409 39.117C382.409 39.3317 382.432 39.4903 382.479 39.593C382.53 39.691 382.61 39.7563 382.717 39.789C382.829 39.817 382.976 39.831 383.158 39.831H384.054V40.909C383.956 40.9463 383.811 40.979 383.62 41.007C383.433 41.0397 383.184 41.056 382.871 41.056ZM388.459 41.14C387.768 41.14 387.166 40.993 386.653 40.699C386.14 40.4003 385.741 39.9733 385.456 39.418C385.176 38.8627 385.036 38.1953 385.036 37.416C385.036 36.66 385.174 35.9973 385.449 35.428C385.724 34.8587 386.116 34.4153 386.625 34.098C387.138 33.7807 387.752 33.622 388.466 33.622C389.157 33.622 389.756 33.7737 390.265 34.077C390.774 34.3803 391.166 34.8143 391.441 35.379C391.721 35.9437 391.861 36.6227 391.861 37.416C391.861 38.1487 391.728 38.795 391.462 39.355C391.201 39.9103 390.816 40.3467 390.307 40.664C389.803 40.9813 389.187 41.14 388.459 41.14ZM388.466 39.845C388.858 39.845 389.18 39.7377 389.432 39.523C389.689 39.3083 389.88 39.0143 390.006 38.641C390.132 38.2677 390.195 37.843 390.195 37.367C390.195 36.9237 390.139 36.5153 390.027 36.142C389.915 35.7687 389.731 35.47 389.474 35.246C389.222 35.0173 388.886 34.903 388.466 34.903C388.069 34.903 387.74 35.008 387.479 35.218C387.222 35.4233 387.031 35.7127 386.905 36.086C386.779 36.4547 386.716 36.8817 386.716 37.367C386.716 37.8057 386.772 38.214 386.884 38.592C386.996 38.9653 387.18 39.2687 387.437 39.502C387.694 39.7307 388.037 39.845 388.466 39.845ZM393.181 35.932V33.986H395.106V35.932H393.181ZM393.181 40.958V39.026H395.106V40.958H393.181ZM399.965 41V40.09V39.621C399.965 39.103 400.06 38.6573 400.252 38.284C400.443 37.906 400.697 37.577 401.015 37.297C401.332 37.017 401.68 36.7697 402.058 36.555C402.44 36.3357 402.818 36.1303 403.192 35.939C403.57 35.743 403.917 35.5423 404.235 35.337C404.552 35.127 404.806 34.8937 404.998 34.637C405.194 34.3803 405.292 34.0747 405.292 33.72C405.292 33.2673 405.131 32.8987 404.809 32.614C404.491 32.3247 404.06 32.18 403.514 32.18C402.935 32.18 402.457 32.3457 402.079 32.677C401.705 33.0083 401.484 33.475 401.414 34.077H399.762C399.771 33.461 399.918 32.901 400.203 32.397C400.487 31.893 400.91 31.4917 401.47 31.193C402.03 30.8897 402.727 30.738 403.563 30.738C404.286 30.738 404.909 30.864 405.432 31.116C405.959 31.3633 406.365 31.711 406.65 32.159C406.939 32.6023 407.084 33.1203 407.084 33.713C407.084 34.231 406.988 34.6743 406.797 35.043C406.61 35.4117 406.36 35.7313 406.048 36.002C405.74 36.268 405.399 36.5037 405.026 36.709C404.657 36.9143 404.286 37.108 403.913 37.29C403.544 37.4673 403.203 37.654 402.891 37.85C402.583 38.0413 402.333 38.2607 402.142 38.508C401.955 38.7553 401.862 39.0517 401.862 39.397V39.544H407.105V41H399.965ZM412.189 41.154C411.018 41.154 410.096 40.713 409.424 39.831C408.757 38.949 408.423 37.6633 408.423 35.974C408.423 34.8353 408.577 33.8787 408.885 33.104C409.193 32.3247 409.63 31.7367 410.194 31.34C410.759 30.9387 411.426 30.738 412.196 30.738C413.354 30.738 414.268 31.1837 414.94 32.075C415.617 32.9617 415.955 34.2567 415.955 35.96C415.955 37.654 415.619 38.9443 414.947 39.831C414.28 40.713 413.361 41.154 412.189 41.154ZM412.196 39.733C412.854 39.733 413.344 39.4413 413.666 38.858C413.988 38.2747 414.149 37.311 414.149 35.967C414.149 34.595 413.986 33.6103 413.659 33.013C413.333 32.4157 412.843 32.117 412.189 32.117C411.536 32.117 411.041 32.418 410.705 33.02C410.374 33.622 410.208 34.6043 410.208 35.967C410.208 37.3063 410.374 38.27 410.705 38.858C411.041 39.4413 411.538 39.733 412.196 39.733ZM420.939 41.154C419.768 41.154 418.846 40.713 418.174 39.831C417.507 38.949 417.173 37.6633 417.173 35.974C417.173 34.8353 417.327 33.8787 417.635 33.104C417.943 32.3247 418.38 31.7367 418.944 31.34C419.509 30.9387 420.176 30.738 420.946 30.738C422.104 30.738 423.018 31.1837 423.69 32.075C424.367 32.9617 424.705 34.2567 424.705 35.96C424.705 37.654 424.369 38.9443 423.697 39.831C423.03 40.713 422.111 41.154 420.939 41.154ZM420.946 39.733C421.604 39.733 422.094 39.4413 422.416 38.858C422.738 38.2747 422.899 37.311 422.899 35.967C422.899 34.595 422.736 33.6103 422.409 33.013C422.083 32.4157 421.593 32.117 420.939 32.117C420.286 32.117 419.791 32.418 419.455 33.02C419.124 33.622 418.958 34.6043 418.958 35.967C418.958 37.3063 419.124 38.27 419.455 38.858C419.791 39.4413 420.288 39.733 420.946 39.733ZM430.108 41.154C429.464 41.154 428.864 41.049 428.309 40.839C427.758 40.6243 427.282 40.3303 426.881 39.957C426.484 39.5837 426.188 39.1567 425.992 38.676L427.371 37.948C427.543 38.2933 427.749 38.6037 427.987 38.879C428.229 39.1543 428.512 39.3713 428.834 39.53C429.16 39.684 429.534 39.761 429.954 39.761C430.612 39.761 431.139 39.579 431.536 39.215C431.937 38.8463 432.138 38.3563 432.138 37.745C432.138 37.367 432.044 37.031 431.858 36.737C431.676 36.443 431.426 36.2143 431.109 36.051C430.796 35.883 430.439 35.799 430.038 35.799C429.8 35.799 429.576 35.82 429.366 35.862C429.16 35.904 428.953 35.9833 428.743 36.1C428.533 36.212 428.306 36.3823 428.064 36.611C428.017 36.6343 427.982 36.646 427.959 36.646C427.94 36.6413 427.905 36.6273 427.854 36.604L426.545 36.072L427.007 30.878H433.3L433.237 32.299H428.393L428.162 35.113C428.521 34.861 428.883 34.679 429.247 34.567C429.611 34.455 430.012 34.399 430.451 34.399C431.095 34.399 431.68 34.525 432.208 34.777C432.735 35.029 433.155 35.4 433.468 35.89C433.78 36.38 433.937 36.9797 433.937 37.689C433.937 38.3983 433.778 39.012 433.461 39.53C433.148 40.048 432.705 40.4493 432.131 40.734C431.561 41.014 430.887 41.154 430.108 41.154Z" fill="black"/>
<path d="M723.966 41V33.762H725.632V34.798C725.744 34.6113 725.896 34.4317 726.087 34.259C726.283 34.0863 726.523 33.9463 726.808 33.839C727.093 33.7317 727.426 33.678 727.809 33.678C728.257 33.678 728.672 33.7667 729.055 33.944C729.442 34.1213 729.753 34.399 729.986 34.777C730.224 35.155 730.343 35.6427 730.343 36.24V41H728.635V36.443C728.635 35.967 728.504 35.6147 728.243 35.386C727.982 35.1527 727.653 35.036 727.256 35.036C726.985 35.036 726.729 35.0827 726.486 35.176C726.243 35.2647 726.045 35.4023 725.891 35.589C725.742 35.771 725.667 35.9997 725.667 36.275V41H723.966ZM734.221 41.14C733.759 41.14 733.344 41.056 732.975 40.888C732.611 40.7153 732.324 40.4703 732.114 40.153C731.909 39.831 731.806 39.4413 731.806 38.984C731.806 38.186 732.093 37.584 732.667 37.178C733.246 36.772 734.165 36.5597 735.425 36.541L736.51 36.513V36.023C736.51 35.6403 736.396 35.3417 736.167 35.127C735.943 34.9077 735.593 34.8003 735.117 34.805C734.762 34.8097 734.44 34.8937 734.151 35.057C733.862 35.2157 733.67 35.484 733.577 35.862H732.128C732.156 35.3673 732.298 34.9543 732.555 34.623C732.816 34.287 733.173 34.0373 733.626 33.874C734.079 33.706 734.601 33.622 735.194 33.622C735.885 33.622 736.447 33.713 736.881 33.895C737.315 34.077 737.635 34.3407 737.84 34.686C738.045 35.0267 738.148 35.4397 738.148 35.925V41H736.713L736.573 39.698C736.316 40.244 735.987 40.622 735.586 40.832C735.189 41.0373 734.734 41.14 734.221 41.14ZM734.774 39.985C734.984 39.985 735.192 39.9477 735.397 39.873C735.602 39.7937 735.787 39.6887 735.95 39.558C736.118 39.4227 736.251 39.2733 736.349 39.11C736.452 38.9467 736.505 38.7763 736.51 38.599V37.458L735.621 37.472C735.182 37.4767 734.797 37.5233 734.466 37.612C734.139 37.7007 733.885 37.843 733.703 38.039C733.521 38.2303 733.43 38.487 733.43 38.809C733.43 39.1777 733.558 39.467 733.815 39.677C734.072 39.8823 734.391 39.985 734.774 39.985ZM739.962 41V33.762H741.621V34.798C741.831 34.4807 742.116 34.2053 742.475 33.972C742.839 33.7387 743.301 33.622 743.861 33.622C744.118 33.622 744.377 33.6663 744.638 33.755C744.904 33.8437 745.149 33.9743 745.373 34.147C745.602 34.3197 745.784 34.5343 745.919 34.791C746.148 34.4503 746.451 34.1703 746.829 33.951C747.212 33.7317 747.641 33.622 748.117 33.622C748.378 33.622 748.647 33.664 748.922 33.748C749.202 33.832 749.459 33.972 749.692 34.168C749.925 34.364 750.114 34.6323 750.259 34.973C750.404 35.309 750.476 35.7313 750.476 36.24V41H748.775V36.443C748.775 36.0837 748.712 35.8013 748.586 35.596C748.46 35.3907 748.297 35.246 748.096 35.162C747.9 35.0733 747.69 35.029 747.466 35.029C747.265 35.029 747.055 35.0687 746.836 35.148C746.621 35.2273 746.437 35.358 746.283 35.54C746.134 35.722 746.059 35.967 746.059 36.275V41H744.358V36.17C744.358 35.918 744.293 35.708 744.162 35.54C744.031 35.372 743.866 35.246 743.665 35.162C743.469 35.0733 743.268 35.029 743.063 35.029C742.853 35.029 742.638 35.0733 742.419 35.162C742.204 35.2507 742.025 35.386 741.88 35.568C741.735 35.75 741.663 35.9857 741.663 36.275V41H739.962ZM755.507 41.14C754.811 41.14 754.198 40.993 753.666 40.699C753.138 40.4003 752.725 39.9757 752.427 39.425C752.133 38.8743 751.986 38.2187 751.986 37.458C751.986 36.716 752.119 36.058 752.385 35.484C752.655 34.9053 753.045 34.4503 753.554 34.119C754.067 33.7877 754.685 33.622 755.409 33.622C756.123 33.622 756.722 33.7737 757.208 34.077C757.693 34.3803 758.062 34.805 758.314 35.351C758.566 35.8923 758.692 36.527 758.692 37.255V37.773H753.687C753.682 38.1837 753.747 38.5477 753.883 38.865C754.018 39.1823 754.219 39.432 754.485 39.614C754.751 39.7913 755.08 39.88 755.472 39.88C755.873 39.88 756.221 39.7913 756.515 39.614C756.813 39.432 757.012 39.1567 757.11 38.788H758.664C758.58 39.292 758.379 39.719 758.062 40.069C757.749 40.419 757.366 40.685 756.914 40.867C756.466 41.049 755.997 41.14 755.507 41.14ZM753.68 36.716H757.082C757.082 36.366 757.019 36.051 756.893 35.771C756.771 35.4863 756.587 35.2623 756.34 35.099C756.092 34.931 755.78 34.847 755.402 34.847C755.028 34.847 754.713 34.938 754.457 35.12C754.2 35.302 754.006 35.5377 753.876 35.827C753.745 36.1117 753.68 36.408 753.68 36.716ZM760.082 35.932V33.986H762.007V35.932H760.082ZM760.082 40.958V39.026H762.007V40.958H760.082ZM766.739 34.525L767.53 32.698L766.872 32.649V30.878H768.734V32.432L767.425 34.525H766.739ZM768.429 41L772.062 30.878H773.91L777.543 41H775.835L774.932 38.459H771.054L770.144 41H768.429ZM771.46 36.947H774.505L772.986 32.53L771.46 36.947ZM781.815 41.14C781.152 41.14 780.562 40.9953 780.044 40.706C779.53 40.412 779.127 39.9873 778.833 39.432C778.539 38.872 778.392 38.1977 778.392 37.409C778.392 36.6577 778.529 35.9997 778.805 35.435C779.085 34.8657 779.479 34.4223 779.988 34.105C780.501 33.783 781.11 33.622 781.815 33.622C782.379 33.622 782.876 33.734 783.306 33.958C783.735 34.182 784.078 34.4923 784.335 34.889C784.596 35.2857 784.752 35.736 784.804 36.24H783.355C783.317 36.0207 783.236 35.813 783.11 35.617C782.984 35.4163 782.813 35.2553 782.599 35.134C782.389 35.008 782.132 34.945 781.829 34.945C781.283 34.945 780.842 35.1457 780.506 35.547C780.17 35.9483 780.002 36.5643 780.002 37.395C780.002 38.1603 780.16 38.7693 780.478 39.222C780.8 39.6747 781.259 39.901 781.857 39.901C782.155 39.901 782.412 39.8357 782.627 39.705C782.841 39.5697 783.009 39.404 783.131 39.208C783.257 39.0073 783.336 38.8067 783.369 38.606H784.783C784.741 39.096 784.589 39.5323 784.328 39.915C784.066 40.2977 783.721 40.5987 783.292 40.818C782.862 41.0327 782.37 41.14 781.815 41.14ZM786.351 41V33.762H788.01V34.798C788.22 34.4807 788.504 34.2053 788.864 33.972C789.228 33.7387 789.69 33.622 790.25 33.622C790.506 33.622 790.765 33.6663 791.027 33.755C791.293 33.8437 791.538 33.9743 791.762 34.147C791.99 34.3197 792.172 34.5343 792.308 34.791C792.536 34.4503 792.84 34.1703 793.218 33.951C793.6 33.7317 794.03 33.622 794.506 33.622C794.767 33.622 795.035 33.664 795.311 33.748C795.591 33.832 795.847 33.972 796.081 34.168C796.314 34.364 796.503 34.6323 796.648 34.973C796.792 35.309 796.865 35.7313 796.865 36.24V41H795.164V36.443C795.164 36.0837 795.101 35.8013 794.975 35.596C794.849 35.3907 794.685 35.246 794.485 35.162C794.289 35.0733 794.079 35.029 793.855 35.029C793.654 35.029 793.444 35.0687 793.225 35.148C793.01 35.2273 792.826 35.358 792.672 35.54C792.522 35.722 792.448 35.967 792.448 36.275V41H790.747V36.17C790.747 35.918 790.681 35.708 790.551 35.54C790.42 35.372 790.254 35.246 790.054 35.162C789.858 35.0733 789.657 35.029 789.452 35.029C789.242 35.029 789.027 35.0733 788.808 35.162C788.593 35.2507 788.413 35.386 788.269 35.568C788.124 35.75 788.052 35.9857 788.052 36.275V41H786.351ZM801.895 41.14C801.2 41.14 800.586 40.993 800.054 40.699C799.527 40.4003 799.114 39.9757 798.815 39.425C798.521 38.8743 798.374 38.2187 798.374 37.458C798.374 36.716 798.507 36.058 798.773 35.484C799.044 34.9053 799.434 34.4503 799.942 34.119C800.456 33.7877 801.074 33.622 801.797 33.622C802.511 33.622 803.111 33.7737 803.596 34.077C804.082 34.3803 804.45 34.805 804.702 35.351C804.954 35.8923 805.08 36.527 805.08 37.255V37.773H800.075C800.071 38.1837 800.136 38.5477 800.271 38.865C800.407 39.1823 800.607 39.432 800.873 39.614C801.139 39.7913 801.468 39.88 801.86 39.88C802.262 39.88 802.609 39.7913 802.903 39.614C803.202 39.432 803.4 39.1567 803.498 38.788H805.052C804.968 39.292 804.768 39.719 804.45 40.069C804.138 40.419 803.755 40.685 803.302 40.867C802.854 41.049 802.385 41.14 801.895 41.14ZM800.068 36.716H803.47C803.47 36.366 803.407 36.051 803.281 35.771C803.16 35.4863 802.976 35.2623 802.728 35.099C802.481 34.931 802.168 34.847 801.79 34.847C801.417 34.847 801.102 34.938 800.845 35.12C800.589 35.302 800.395 35.5377 800.264 35.827C800.134 36.1117 800.068 36.408 800.068 36.716ZM805.895 34.525L806.686 32.698L806.028 32.649V30.878H807.89V32.432L806.581 34.525H805.895Z" fill="black"/>
<path d="M0 112C0 76.6538 28.6538 48 64 48V48C99.3462 48 128 76.6538 128 112V112C128 147.346 99.3462 176 64 176V176C28.6538 176 0 147.346 0 112V112Z" fill="#C990C0"/>
<path d="M42.7237 117V106.878H46.1467C46.8701 106.878 47.5141 106.999 48.0787 107.242C48.6434 107.485 49.0867 107.844 49.4087 108.32C49.7354 108.796 49.8987 109.382 49.8987 110.077C49.8987 110.749 49.7471 111.323 49.4437 111.799C49.1451 112.275 48.7274 112.637 48.1907 112.884C47.6541 113.131 47.0311 113.255 46.3217 113.255H44.0537V117H42.7237ZM44.0467 112.163H46.2937C46.9891 112.163 47.5537 111.969 47.9877 111.582C48.4217 111.195 48.6387 110.667 48.6387 110C48.6387 109.328 48.4147 108.819 47.9667 108.474C47.5187 108.129 46.9401 107.956 46.2307 107.956H44.0467V112.163ZM54.3077 117.14C53.6357 117.14 53.0431 116.993 52.5297 116.699C52.0164 116.405 51.6151 115.983 51.3257 115.432C51.0364 114.881 50.8917 114.221 50.8917 113.451C50.8917 112.69 51.0224 112.023 51.2837 111.449C51.5451 110.875 51.9231 110.427 52.4177 110.105C52.9171 109.783 53.5167 109.622 54.2167 109.622C54.8981 109.622 55.4744 109.769 55.9457 110.063C56.4171 110.357 56.7741 110.772 57.0167 111.309C57.2641 111.841 57.3877 112.473 57.3877 113.206V113.682H52.2007C52.2007 114.139 52.2754 114.555 52.4247 114.928C52.5787 115.297 52.8097 115.591 53.1177 115.81C53.4257 116.029 53.8154 116.139 54.2867 116.139C54.7487 116.139 55.1454 116.032 55.4767 115.817C55.8127 115.602 56.0274 115.292 56.1207 114.886H57.3387C57.2547 115.376 57.0587 115.789 56.7507 116.125C56.4474 116.461 56.0811 116.715 55.6517 116.888C55.2271 117.056 54.7791 117.14 54.3077 117.14ZM52.2077 112.807H56.1417C56.1417 112.392 56.0717 112.018 55.9317 111.687C55.7917 111.351 55.5771 111.087 55.2877 110.896C55.0031 110.7 54.6437 110.602 54.2097 110.602C53.7571 110.602 53.3814 110.712 53.0827 110.931C52.7841 111.146 52.5624 111.423 52.4177 111.764C52.2731 112.1 52.2031 112.448 52.2077 112.807ZM59.1784 117V109.762H60.4104V111.155C60.5318 110.81 60.7021 110.525 60.9214 110.301C61.1408 110.072 61.3904 109.902 61.6704 109.79C61.9551 109.678 62.2491 109.622 62.5524 109.622C62.6598 109.622 62.7648 109.629 62.8674 109.643C62.9701 109.657 63.0494 109.68 63.1054 109.713V110.966C63.0354 110.933 62.9444 110.912 62.8324 110.903C62.7251 110.889 62.6341 110.882 62.5594 110.882C62.2701 110.863 61.9994 110.882 61.7474 110.938C61.4954 110.989 61.2738 111.08 61.0824 111.211C60.8911 111.342 60.7394 111.514 60.6274 111.729C60.5201 111.939 60.4664 112.196 60.4664 112.499V117H59.1784ZM67.2102 117.14C66.7062 117.14 66.2372 117.063 65.8032 116.909C65.3738 116.75 65.0168 116.505 64.7322 116.174C64.4475 115.838 64.2702 115.411 64.2002 114.893H65.3762C65.4368 115.178 65.5535 115.416 65.7262 115.607C65.8988 115.794 66.1112 115.936 66.3632 116.034C66.6198 116.127 66.8998 116.174 67.2032 116.174C67.6932 116.174 68.0875 116.083 68.3862 115.901C68.6848 115.719 68.8342 115.439 68.8342 115.061C68.8342 114.795 68.7548 114.583 68.5962 114.424C68.4422 114.261 68.1995 114.142 67.8682 114.067L66.3702 113.696C65.7868 113.556 65.3202 113.337 64.9702 113.038C64.6248 112.739 64.4498 112.322 64.4452 111.785C64.4452 111.36 64.5478 110.987 64.7532 110.665C64.9585 110.343 65.2642 110.089 65.6702 109.902C66.0808 109.715 66.5918 109.622 67.2032 109.622C67.9918 109.622 68.6265 109.799 69.1072 110.154C69.5878 110.504 69.8398 111.02 69.8632 111.701H68.7152C68.6685 111.356 68.5145 111.083 68.2532 110.882C67.9918 110.677 67.6372 110.574 67.1892 110.574C66.7318 110.574 66.3562 110.667 66.0622 110.854C65.7728 111.036 65.6282 111.321 65.6282 111.708C65.6282 111.965 65.7308 112.168 65.9362 112.317C66.1462 112.462 66.4495 112.583 66.8462 112.681L68.3022 113.045C68.6335 113.134 68.9088 113.25 69.1282 113.395C69.3475 113.54 69.5202 113.701 69.6462 113.878C69.7722 114.055 69.8608 114.242 69.9122 114.438C69.9682 114.629 69.9962 114.814 69.9962 114.991C69.9962 115.434 69.8865 115.817 69.6672 116.139C69.4478 116.456 69.1305 116.704 68.7152 116.881C68.2998 117.054 67.7982 117.14 67.2102 117.14ZM74.5862 117.14C73.9189 117.14 73.3355 116.998 72.8362 116.713C72.3415 116.424 71.9565 116.001 71.6812 115.446C71.4059 114.891 71.2682 114.212 71.2682 113.409C71.2682 112.653 71.3965 111.99 71.6532 111.421C71.9099 110.852 72.2855 110.411 72.7802 110.098C73.2749 109.781 73.8792 109.622 74.5932 109.622C75.2605 109.622 75.8392 109.769 76.3292 110.063C76.8192 110.352 77.1995 110.779 77.4702 111.344C77.7455 111.909 77.8832 112.597 77.8832 113.409C77.8832 114.146 77.7572 114.795 77.5052 115.355C77.2532 115.915 76.8822 116.354 76.3922 116.671C75.9069 116.984 75.3049 117.14 74.5862 117.14ZM74.5932 116.118C75.0225 116.118 75.3865 116.008 75.6852 115.789C75.9839 115.57 76.2102 115.255 76.3642 114.844C76.5229 114.433 76.6022 113.946 76.6022 113.381C76.6022 112.863 76.5322 112.399 76.3922 111.988C76.2569 111.573 76.0422 111.244 75.7482 111.001C75.4542 110.758 75.0692 110.637 74.5932 110.637C74.1545 110.637 73.7835 110.747 73.4802 110.966C73.1769 111.181 72.9459 111.493 72.7872 111.904C72.6332 112.315 72.5562 112.807 72.5562 113.381C72.5562 113.89 72.6239 114.352 72.7592 114.767C72.8992 115.182 73.1185 115.511 73.4172 115.754C73.7205 115.997 74.1125 116.118 74.5932 116.118ZM79.6042 117V109.762H80.8572V110.812C80.9739 110.611 81.1349 110.422 81.3402 110.245C81.5502 110.068 81.8022 109.925 82.0962 109.818C82.3949 109.711 82.7379 109.657 83.1252 109.657C83.5825 109.657 84.0025 109.748 84.3852 109.93C84.7725 110.112 85.0805 110.397 85.3092 110.784C85.5425 111.167 85.6592 111.661 85.6592 112.268V117H84.3642V112.394C84.3642 111.829 84.2149 111.412 83.9162 111.141C83.6222 110.866 83.2395 110.728 82.7682 110.728C82.4415 110.728 82.1359 110.782 81.8512 110.889C81.5665 110.992 81.3355 111.15 81.1582 111.365C80.9809 111.575 80.8922 111.841 80.8922 112.163V117H79.6042Z" fill="white"/>
<path d="M351 112C351 76.6538 379.654 48 415 48V48C450.346 48 479 76.6538 479 112V112C479 147.346 450.346 176 415 176V176C379.654 176 351 147.346 351 112V112Z" fill="#F16767"/>
<path d="M375.622 117V106.878H382.006L381.999 108.019H376.924V111.323H381.495V112.457H376.917V115.831L382.139 115.845V117H375.622ZM383.86 117V109.762H385.106V110.812C385.307 110.495 385.582 110.217 385.932 109.979C386.282 109.741 386.737 109.622 387.297 109.622C387.558 109.622 387.824 109.666 388.095 109.755C388.37 109.844 388.622 109.977 388.851 110.154C389.08 110.331 389.257 110.548 389.383 110.805C389.607 110.45 389.91 110.166 390.293 109.951C390.676 109.732 391.107 109.622 391.588 109.622C391.84 109.622 392.104 109.662 392.379 109.741C392.654 109.816 392.909 109.951 393.142 110.147C393.38 110.338 393.574 110.607 393.723 110.952C393.872 111.293 393.947 111.731 393.947 112.268V117H392.645V112.394C392.645 111.955 392.575 111.617 392.435 111.379C392.295 111.136 392.111 110.966 391.882 110.868C391.658 110.77 391.418 110.721 391.161 110.721C390.937 110.721 390.699 110.765 390.447 110.854C390.195 110.943 389.98 111.092 389.803 111.302C389.626 111.512 389.537 111.799 389.537 112.163V117H388.249V112.016C388.249 111.731 388.172 111.493 388.018 111.302C387.869 111.111 387.68 110.966 387.451 110.868C387.227 110.77 387.003 110.721 386.779 110.721C386.532 110.721 386.282 110.77 386.03 110.868C385.783 110.966 385.573 111.122 385.4 111.337C385.232 111.547 385.148 111.822 385.148 112.163V117H383.86ZM395.973 119.254V109.762H397.261L397.275 111.022C397.359 110.873 397.467 110.716 397.597 110.553C397.733 110.39 397.896 110.238 398.087 110.098C398.283 109.958 398.51 109.844 398.766 109.755C399.028 109.666 399.324 109.622 399.655 109.622C400.234 109.622 400.743 109.755 401.181 110.021C401.625 110.282 401.97 110.684 402.217 111.225C402.465 111.766 402.588 112.452 402.588 113.283C402.588 114.114 402.467 114.816 402.224 115.39C401.986 115.959 401.641 116.393 401.188 116.692C400.736 116.991 400.19 117.14 399.55 117.14C399.228 117.14 398.941 117.093 398.689 117C398.442 116.911 398.225 116.795 398.038 116.65C397.856 116.501 397.702 116.342 397.576 116.174C397.455 116.006 397.355 115.845 397.275 115.691V119.254H395.973ZM399.305 116.132C399.903 116.132 400.39 115.906 400.768 115.453C401.146 114.996 401.335 114.286 401.335 113.325C401.335 112.499 401.163 111.843 400.817 111.358C400.472 110.873 399.968 110.63 399.305 110.63C398.633 110.63 398.125 110.88 397.779 111.379C397.434 111.874 397.261 112.522 397.261 113.325C397.261 113.843 397.338 114.314 397.492 114.739C397.646 115.164 397.875 115.502 398.178 115.754C398.482 116.006 398.857 116.132 399.305 116.132ZM406.14 117.091C405.748 117.091 405.431 117.037 405.188 116.93C404.95 116.823 404.766 116.678 404.635 116.496C404.509 116.314 404.423 116.106 404.376 115.873C404.334 115.635 404.313 115.39 404.313 115.138V106.598H405.587V115.012C405.587 115.376 405.657 115.649 405.797 115.831C405.942 116.013 406.143 116.113 406.399 116.132L406.791 116.139V116.979C406.684 117.012 406.572 117.037 406.455 117.056C406.339 117.079 406.234 117.091 406.14 117.091ZM411.108 117.14C410.44 117.14 409.857 116.998 409.358 116.713C408.863 116.424 408.478 116.001 408.203 115.446C407.927 114.891 407.79 114.212 407.79 113.409C407.79 112.653 407.918 111.99 408.175 111.421C408.431 110.852 408.807 110.411 409.302 110.098C409.796 109.781 410.401 109.622 411.115 109.622C411.782 109.622 412.361 109.769 412.851 110.063C413.341 110.352 413.721 110.779 413.992 111.344C414.267 111.909 414.405 112.597 414.405 113.409C414.405 114.146 414.279 114.795 414.027 115.355C413.775 115.915 413.404 116.354 412.914 116.671C412.428 116.984 411.826 117.14 411.108 117.14ZM411.115 116.118C411.544 116.118 411.908 116.008 412.207 115.789C412.505 115.57 412.732 115.255 412.886 114.844C413.044 114.433 413.124 113.946 413.124 113.381C413.124 112.863 413.054 112.399 412.914 111.988C412.778 111.573 412.564 111.244 412.27 111.001C411.976 110.758 411.591 110.637 411.115 110.637C410.676 110.637 410.305 110.747 410.002 110.966C409.698 111.181 409.467 111.493 409.309 111.904C409.155 112.315 409.078 112.807 409.078 113.381C409.078 113.89 409.145 114.352 409.281 114.767C409.421 115.182 409.64 115.511 409.939 115.754C410.242 115.997 410.634 116.118 411.115 116.118ZM416.751 119.31C416.326 119.31 416.035 119.28 415.876 119.219C415.717 119.158 415.638 119.128 415.638 119.128V118.288L416.38 118.302C416.646 118.311 416.868 118.293 417.045 118.246C417.222 118.199 417.365 118.136 417.472 118.057C417.579 117.978 417.661 117.889 417.717 117.791C417.778 117.693 417.827 117.6 417.864 117.511L418.116 116.825L415.288 109.762H416.597L418.732 115.348L420.853 109.762H422.12L419.075 117.546C418.884 118.003 418.671 118.36 418.438 118.617C418.209 118.874 417.953 119.053 417.668 119.156C417.388 119.259 417.082 119.31 416.751 119.31ZM423.522 117V109.762H424.768V110.812C424.969 110.495 425.244 110.217 425.594 109.979C425.944 109.741 426.399 109.622 426.959 109.622C427.221 109.622 427.487 109.666 427.757 109.755C428.033 109.844 428.285 109.977 428.513 110.154C428.742 110.331 428.919 110.548 429.045 110.805C429.269 110.45 429.573 110.166 429.955 109.951C430.338 109.732 430.77 109.622 431.25 109.622C431.502 109.622 431.766 109.662 432.041 109.741C432.317 109.816 432.571 109.951 432.804 110.147C433.042 110.338 433.236 110.607 433.385 110.952C433.535 111.293 433.609 111.731 433.609 112.268V117H432.307V112.394C432.307 111.955 432.237 111.617 432.097 111.379C431.957 111.136 431.773 110.966 431.544 110.868C431.32 110.77 431.08 110.721 430.823 110.721C430.599 110.721 430.361 110.765 430.109 110.854C429.857 110.943 429.643 111.092 429.465 111.302C429.288 111.512 429.199 111.799 429.199 112.163V117H427.911V112.016C427.911 111.731 427.834 111.493 427.68 111.302C427.531 111.111 427.342 110.966 427.113 110.868C426.889 110.77 426.665 110.721 426.441 110.721C426.194 110.721 425.944 110.77 425.692 110.868C425.445 110.966 425.235 111.122 425.062 111.337C424.894 111.547 424.81 111.822 424.81 112.163V117H423.522ZM438.694 117.14C438.022 117.14 437.43 116.993 436.916 116.699C436.403 116.405 436.002 115.983 435.712 115.432C435.423 114.881 435.278 114.221 435.278 113.451C435.278 112.69 435.409 112.023 435.67 111.449C435.932 110.875 436.31 110.427 436.804 110.105C437.304 109.783 437.903 109.622 438.603 109.622C439.285 109.622 439.861 109.769 440.332 110.063C440.804 110.357 441.161 110.772 441.403 111.309C441.651 111.841 441.774 112.473 441.774 113.206V113.682H436.587C436.587 114.139 436.662 114.555 436.811 114.928C436.965 115.297 437.196 115.591 437.504 115.81C437.812 116.029 438.202 116.139 438.673 116.139C439.135 116.139 439.532 116.032 439.863 115.817C440.199 115.602 440.414 115.292 440.507 114.886H441.725C441.641 115.376 441.445 115.789 441.137 116.125C440.834 116.461 440.468 116.715 440.038 116.888C439.614 117.056 439.166 117.14 438.694 117.14ZM436.594 112.807H440.528C440.528 112.392 440.458 112.018 440.318 111.687C440.178 111.351 439.964 111.087 439.674 110.896C439.39 110.7 439.03 110.602 438.596 110.602C438.144 110.602 437.768 110.712 437.469 110.931C437.171 111.146 436.949 111.423 436.804 111.764C436.66 112.1 436.59 112.448 436.594 112.807ZM443.565 117V109.762H444.818V110.812C444.935 110.611 445.096 110.422 445.301 110.245C445.511 110.068 445.763 109.925 446.057 109.818C446.356 109.711 446.699 109.657 447.086 109.657C447.543 109.657 447.963 109.748 448.346 109.93C448.733 110.112 449.041 110.397 449.27 110.784C449.503 111.167 449.62 111.661 449.62 112.268V117H448.325V112.394C448.325 111.829 448.176 111.412 447.877 111.141C447.583 110.866 447.2 110.728 446.729 110.728C446.402 110.728 446.097 110.782 445.812 110.889C445.527 110.992 445.296 111.15 445.119 111.365C444.942 111.575 444.853 111.841 444.853 112.163V117H443.565ZM453.997 117.035C453.498 117.035 453.111 116.967 452.835 116.832C452.56 116.697 452.366 116.496 452.254 116.23C452.147 115.964 452.093 115.637 452.093 115.25V110.707H450.917V109.762H452.128L452.443 107.655H453.395V109.755H455.026V110.707H453.395V115.208C453.395 115.465 453.421 115.654 453.472 115.775C453.528 115.892 453.619 115.966 453.745 115.999C453.871 116.032 454.049 116.048 454.277 116.048H455.068V116.916C454.98 116.949 454.844 116.977 454.662 117C454.485 117.023 454.263 117.035 453.997 117.035Z" fill="white"/>
<path d="M702 112C702 76.6538 730.654 48 766 48V48C801.346 48 830 76.6538 830 112V112C830 147.346 801.346 176 766 176V176C730.654 176 702 147.346 702 112V112Z" fill="#FFDF81"/>
<path d="M740.566 117.14C739.656 117.14 738.879 116.932 738.235 116.517C737.596 116.102 737.106 115.504 736.765 114.725C736.429 113.946 736.261 113.005 736.261 111.904C736.261 110.807 736.429 109.874 736.765 109.104C737.101 108.334 737.589 107.748 738.228 107.347C738.872 106.941 739.651 106.738 740.566 106.738C741.28 106.738 741.912 106.887 742.463 107.186C743.014 107.48 743.457 107.874 743.793 108.369C744.129 108.864 744.327 109.407 744.388 110H743.009C742.934 109.603 742.792 109.244 742.582 108.922C742.372 108.6 742.097 108.343 741.756 108.152C741.415 107.961 741.007 107.865 740.531 107.865C739.92 107.865 739.402 108.01 738.977 108.299C738.557 108.584 738.237 109.025 738.018 109.622C737.803 110.219 737.696 110.985 737.696 111.918C737.696 113.327 737.936 114.363 738.417 115.026C738.902 115.684 739.607 116.013 740.531 116.013C741.007 116.013 741.415 115.913 741.756 115.712C742.097 115.511 742.372 115.243 742.582 114.907C742.792 114.571 742.934 114.207 743.009 113.815H744.388C744.337 114.244 744.22 114.66 744.038 115.061C743.861 115.458 743.616 115.812 743.303 116.125C742.99 116.438 742.605 116.685 742.148 116.867C741.695 117.049 741.168 117.14 740.566 117.14ZM749.099 117.14C748.432 117.14 747.848 116.998 747.349 116.713C746.854 116.424 746.469 116.001 746.194 115.446C745.919 114.891 745.781 114.212 745.781 113.409C745.781 112.653 745.909 111.99 746.166 111.421C746.423 110.852 746.798 110.411 747.293 110.098C747.788 109.781 748.392 109.622 749.106 109.622C749.773 109.622 750.352 109.769 750.842 110.063C751.332 110.352 751.712 110.779 751.983 111.344C752.258 111.909 752.396 112.597 752.396 113.409C752.396 114.146 752.27 114.795 752.018 115.355C751.766 115.915 751.395 116.354 750.905 116.671C750.42 116.984 749.818 117.14 749.099 117.14ZM749.106 116.118C749.535 116.118 749.899 116.008 750.198 115.789C750.497 115.57 750.723 115.255 750.877 114.844C751.036 114.433 751.115 113.946 751.115 113.381C751.115 112.863 751.045 112.399 750.905 111.988C750.77 111.573 750.555 111.244 750.261 111.001C749.967 110.758 749.582 110.637 749.106 110.637C748.667 110.637 748.296 110.747 747.993 110.966C747.69 111.181 747.459 111.493 747.3 111.904C747.146 112.315 747.069 112.807 747.069 113.381C747.069 113.89 747.137 114.352 747.272 114.767C747.412 115.182 747.631 115.511 747.93 115.754C748.233 115.997 748.625 116.118 749.106 116.118ZM754.117 117V109.762H755.363V110.812C755.564 110.495 755.839 110.217 756.189 109.979C756.539 109.741 756.994 109.622 757.554 109.622C757.815 109.622 758.081 109.666 758.352 109.755C758.627 109.844 758.879 109.977 759.108 110.154C759.337 110.331 759.514 110.548 759.64 110.805C759.864 110.45 760.167 110.166 760.55 109.951C760.933 109.732 761.364 109.622 761.845 109.622C762.097 109.622 762.361 109.662 762.636 109.741C762.911 109.816 763.166 109.951 763.399 110.147C763.637 110.338 763.831 110.607 763.98 110.952C764.129 111.293 764.204 111.731 764.204 112.268V117H762.902V112.394C762.902 111.955 762.832 111.617 762.692 111.379C762.552 111.136 762.368 110.966 762.139 110.868C761.915 110.77 761.675 110.721 761.418 110.721C761.194 110.721 760.956 110.765 760.704 110.854C760.452 110.943 760.237 111.092 760.06 111.302C759.883 111.512 759.794 111.799 759.794 112.163V117H758.506V112.016C758.506 111.731 758.429 111.493 758.275 111.302C758.126 111.111 757.937 110.966 757.708 110.868C757.484 110.77 757.26 110.721 757.036 110.721C756.789 110.721 756.539 110.77 756.287 110.868C756.04 110.966 755.83 111.122 755.657 111.337C755.489 111.547 755.405 111.822 755.405 112.163V117H754.117ZM766.23 119.254V109.762H767.518L767.532 111.022C767.616 110.873 767.724 110.716 767.854 110.553C767.99 110.39 768.153 110.238 768.344 110.098C768.54 109.958 768.767 109.844 769.023 109.755C769.285 109.666 769.581 109.622 769.912 109.622C770.491 109.622 771 109.755 771.438 110.021C771.882 110.282 772.227 110.684 772.474 111.225C772.722 111.766 772.845 112.452 772.845 113.283C772.845 114.114 772.724 114.816 772.481 115.39C772.243 115.959 771.898 116.393 771.445 116.692C770.993 116.991 770.447 117.14 769.807 117.14C769.485 117.14 769.198 117.093 768.946 117C768.699 116.911 768.482 116.795 768.295 116.65C768.113 116.501 767.959 116.342 767.833 116.174C767.712 116.006 767.612 115.845 767.532 115.691V119.254H766.23ZM769.562 116.132C770.16 116.132 770.647 115.906 771.025 115.453C771.403 114.996 771.592 114.286 771.592 113.325C771.592 112.499 771.42 111.843 771.074 111.358C770.729 110.873 770.225 110.63 769.562 110.63C768.89 110.63 768.382 110.88 768.036 111.379C767.691 111.874 767.518 112.522 767.518 113.325C767.518 113.843 767.595 114.314 767.749 114.739C767.903 115.164 768.132 115.502 768.435 115.754C768.739 116.006 769.114 116.132 769.562 116.132ZM776.518 117.14C776.047 117.14 775.631 117.058 775.272 116.895C774.917 116.727 774.637 116.487 774.432 116.174C774.231 115.861 774.131 115.483 774.131 115.04C774.131 114.237 774.411 113.64 774.971 113.248C775.531 112.856 776.429 112.646 777.666 112.618L778.954 112.583V112.016C778.954 111.573 778.821 111.223 778.555 110.966C778.289 110.705 777.878 110.574 777.323 110.574C776.908 110.579 776.541 110.677 776.224 110.868C775.907 111.059 775.704 111.372 775.615 111.806H774.474C774.502 111.335 774.633 110.938 774.866 110.616C775.104 110.289 775.438 110.042 775.867 109.874C776.296 109.706 776.803 109.622 777.386 109.622C778.016 109.622 778.539 109.711 778.954 109.888C779.374 110.065 779.687 110.327 779.892 110.672C780.102 111.017 780.207 111.442 780.207 111.946V117H779.101L779.003 115.642C778.728 116.207 778.373 116.599 777.939 116.818C777.51 117.033 777.036 117.14 776.518 117.14ZM776.903 116.209C777.15 116.209 777.393 116.165 777.631 116.076C777.874 115.987 778.093 115.868 778.289 115.719C778.49 115.565 778.651 115.395 778.772 115.208C778.893 115.017 778.954 114.821 778.954 114.62V113.381L777.883 113.402C777.328 113.411 776.866 113.467 776.497 113.57C776.128 113.673 775.851 113.834 775.664 114.053C775.477 114.272 775.384 114.559 775.384 114.914C775.384 115.32 775.526 115.637 775.811 115.866C776.096 116.095 776.46 116.209 776.903 116.209ZM782.226 117V109.762H783.479V110.812C783.596 110.611 783.757 110.422 783.962 110.245C784.172 110.068 784.424 109.925 784.718 109.818C785.017 109.711 785.36 109.657 785.747 109.657C786.205 109.657 786.625 109.748 787.007 109.93C787.395 110.112 787.703 110.397 787.931 110.784C788.165 111.167 788.281 111.661 788.281 112.268V117H786.986V112.394C786.986 111.829 786.837 111.412 786.538 111.141C786.244 110.866 785.862 110.728 785.39 110.728C785.064 110.728 784.758 110.782 784.473 110.889C784.189 110.992 783.958 111.15 783.78 111.365C783.603 111.575 783.514 111.841 783.514 112.163V117H782.226ZM790.795 119.31C790.37 119.31 790.079 119.28 789.92 119.219C789.761 119.158 789.682 119.128 789.682 119.128V118.288L790.424 118.302C790.69 118.311 790.912 118.293 791.089 118.246C791.266 118.199 791.409 118.136 791.516 118.057C791.623 117.978 791.705 117.889 791.761 117.791C791.822 117.693 791.871 117.6 791.908 117.511L792.16 116.825L789.332 109.762H790.641L792.776 115.348L794.897 109.762H796.164L793.119 117.546C792.928 118.003 792.715 118.36 792.482 118.617C792.253 118.874 791.997 119.053 791.712 119.156C791.432 119.259 791.126 119.31 790.795 119.31Z" fill="#1A1B1D"/>
<path d="M351 388C351 352.654 379.654 324 415 324V324C450.346 324 479 352.654 479 388V388C479 423.346 450.346 452 415 452V452C379.654 452 351 423.346 351 388V388Z" fill="#56C7E4"/>
<path d="M401.845 393V382.878H405.765C406.493 382.878 407.102 382.99 407.592 383.214C408.082 383.433 408.448 383.751 408.691 384.166C408.933 384.577 409.055 385.069 409.055 385.643C409.055 386.194 408.957 386.651 408.761 387.015C408.569 387.379 408.324 387.673 408.026 387.897C407.727 388.116 407.417 388.287 407.095 388.408L409.083 393H407.711L405.863 388.639H403.14V393H401.845ZM403.14 387.568H405.345C406.105 387.568 406.693 387.414 407.109 387.106C407.524 386.793 407.732 386.331 407.732 385.72C407.732 385.123 407.545 384.677 407.172 384.383C406.803 384.084 406.297 383.935 405.653 383.935H403.14V387.568ZM413.719 393.14C413.052 393.14 412.468 392.998 411.969 392.713C411.474 392.424 411.089 392.001 410.814 391.446C410.539 390.891 410.401 390.212 410.401 389.409C410.401 388.653 410.529 387.99 410.786 387.421C411.043 386.852 411.418 386.411 411.913 386.098C412.408 385.781 413.012 385.622 413.726 385.622C414.393 385.622 414.972 385.769 415.462 386.063C415.952 386.352 416.332 386.779 416.603 387.344C416.878 387.909 417.016 388.597 417.016 389.409C417.016 390.146 416.89 390.795 416.638 391.355C416.386 391.915 416.015 392.354 415.525 392.671C415.04 392.984 414.438 393.14 413.719 393.14ZM413.726 392.118C414.155 392.118 414.519 392.008 414.818 391.789C415.117 391.57 415.343 391.255 415.497 390.844C415.656 390.433 415.735 389.946 415.735 389.381C415.735 388.863 415.665 388.399 415.525 387.988C415.39 387.573 415.175 387.244 414.881 387.001C414.587 386.758 414.202 386.637 413.726 386.637C413.287 386.637 412.916 386.747 412.613 386.966C412.31 387.181 412.079 387.493 411.92 387.904C411.766 388.315 411.689 388.807 411.689 389.381C411.689 389.89 411.757 390.352 411.892 390.767C412.032 391.182 412.251 391.511 412.55 391.754C412.853 391.997 413.245 392.118 413.726 392.118ZM420.564 393.091C420.172 393.091 419.855 393.037 419.612 392.93C419.374 392.823 419.19 392.678 419.059 392.496C418.933 392.314 418.847 392.106 418.8 391.873C418.758 391.635 418.737 391.39 418.737 391.138V382.598H420.011V391.012C420.011 391.376 420.081 391.649 420.221 391.831C420.366 392.013 420.566 392.113 420.823 392.132L421.215 392.139V392.979C421.108 393.012 420.996 393.037 420.879 393.056C420.762 393.079 420.657 393.091 420.564 393.091ZM425.693 393.14C425.021 393.14 424.428 392.993 423.915 392.699C423.401 392.405 423 391.983 422.711 391.432C422.421 390.881 422.277 390.221 422.277 389.451C422.277 388.69 422.407 388.023 422.669 387.449C422.93 386.875 423.308 386.427 423.803 386.105C424.302 385.783 424.902 385.622 425.602 385.622C426.283 385.622 426.859 385.769 427.331 386.063C427.802 386.357 428.159 386.772 428.402 387.309C428.649 387.841 428.773 388.473 428.773 389.206V389.682H423.586C423.586 390.139 423.66 390.555 423.81 390.928C423.964 391.297 424.195 391.591 424.503 391.81C424.811 392.029 425.2 392.139 425.672 392.139C426.134 392.139 426.53 392.032 426.862 391.817C427.198 391.602 427.412 391.292 427.506 390.886H428.724C428.639 391.376 428.444 391.789 428.136 392.125C427.832 392.461 427.466 392.715 427.037 392.888C426.612 393.056 426.164 393.14 425.693 393.14ZM423.593 388.807H427.527C427.527 388.392 427.457 388.018 427.317 387.687C427.177 387.351 426.962 387.087 426.673 386.896C426.388 386.7 426.029 386.602 425.595 386.602C425.142 386.602 424.766 386.712 424.468 386.931C424.169 387.146 423.947 387.423 423.803 387.764C423.658 388.1 423.588 388.448 423.593 388.807Z" fill="#1A1B1D"/>
<path d="M348.207 112.707C348.598 112.317 348.598 111.683 348.207 111.293L341.843 104.929C341.453 104.538 340.819 104.538 340.429 104.929C340.038 105.319 340.038 105.953 340.429 106.343L346.086 112L340.429 117.657C340.038 118.047 340.038 118.681 340.429 119.071C340.819 119.462 341.453 119.462 341.843 119.071L348.207 112.707ZM296.184 111C295.632 111 295.184 111.448 295.184 112C295.184 112.552 295.632 113 296.184 113V111ZM177.059 113C177.611 113 178.059 112.552 178.059 112C178.059 111.448 177.611 111 177.059 111V113ZM131.5 111C130.948 111 130.5 111.448 130.5 112C130.5 112.552 130.948 113 131.5 113V111ZM347.5 112V111H296.184V112V113H347.5V112ZM177.059 112V111H131.5V112V113H177.059V112Z" fill="#1A1B1D"/>
<path d="M186.89 117.5L184.066 107.318H185.682L187.665 115.203H187.76L189.823 107.318H191.424L193.487 115.208H193.581L195.56 107.318H197.181L194.352 117.5H192.806L190.663 109.874H190.584L188.441 117.5H186.89ZM206.766 112.409C206.766 113.496 206.567 114.431 206.17 115.213C205.772 115.992 205.227 116.592 204.534 117.013C203.845 117.43 203.061 117.639 202.182 117.639C201.301 117.639 200.514 117.43 199.821 117.013C199.131 116.592 198.588 115.99 198.19 115.208C197.792 114.426 197.594 113.493 197.594 112.409C197.594 111.322 197.792 110.389 198.19 109.61C198.588 108.828 199.131 108.228 199.821 107.81C200.514 107.389 201.301 107.179 202.182 107.179C203.061 107.179 203.845 107.389 204.534 107.81C205.227 108.228 205.772 108.828 206.17 109.61C206.567 110.389 206.766 111.322 206.766 112.409ZM205.245 112.409C205.245 111.58 205.111 110.883 204.842 110.316C204.577 109.746 204.212 109.315 203.748 109.023C203.288 108.728 202.766 108.581 202.182 108.581C201.596 108.581 201.072 108.728 200.611 109.023C200.151 109.315 199.786 109.746 199.518 110.316C199.252 110.883 199.12 111.58 199.12 112.409C199.12 113.238 199.252 113.937 199.518 114.507C199.786 115.074 200.151 115.505 200.611 115.8C201.072 116.091 201.596 116.237 202.182 116.237C202.766 116.237 203.288 116.091 203.748 115.8C204.212 115.505 204.577 115.074 204.842 114.507C205.111 113.937 205.245 113.238 205.245 112.409ZM208.528 117.5V107.318H212.157C212.946 107.318 213.6 107.454 214.121 107.726C214.644 107.998 215.035 108.374 215.294 108.854C215.552 109.332 215.682 109.884 215.682 110.51C215.682 111.133 215.551 111.682 215.289 112.156C215.03 112.626 214.639 112.992 214.116 113.254C213.595 113.516 212.941 113.647 212.152 113.647H209.403V112.325H212.013C212.51 112.325 212.914 112.253 213.226 112.111C213.541 111.968 213.771 111.761 213.917 111.489C214.063 111.218 214.135 110.891 214.135 110.51C214.135 110.125 214.061 109.792 213.912 109.511C213.766 109.229 213.536 109.013 213.221 108.864C212.909 108.712 212.5 108.636 211.993 108.636H210.064V117.5H208.528ZM213.554 112.906L216.069 117.5H214.319L211.854 112.906H213.554ZM217.397 117.5V107.318H218.933V112.18H219.057L223.328 107.318H225.262L221.155 111.902L225.277 117.5H223.427L220.136 112.951L218.933 114.333V117.5H217.397ZM226.54 117.5V107.318H232.923V108.641H228.076V111.743H232.59V113.06H228.076V116.178H232.983V117.5H226.54ZM238.118 117.5H234.821V107.318H238.222C239.22 107.318 240.076 107.522 240.792 107.93C241.508 108.334 242.057 108.916 242.438 109.675C242.822 110.43 243.015 111.337 243.015 112.394C243.015 113.455 242.821 114.366 242.433 115.129C242.048 115.891 241.492 116.478 240.762 116.888C240.033 117.296 239.152 117.5 238.118 117.5ZM236.358 116.158H238.033C238.809 116.158 239.453 116.012 239.967 115.72C240.481 115.425 240.865 114.999 241.12 114.442C241.376 113.882 241.503 113.2 241.503 112.394C241.503 111.595 241.376 110.918 241.12 110.361C240.868 109.804 240.492 109.381 239.992 109.093C239.491 108.805 238.87 108.661 238.127 108.661H236.358V116.158ZM249.545 117.5V118.763H243.077V117.5H249.545ZM250.496 117.5V107.318H256.81V108.641H252.032V111.743H256.357V113.06H252.032V117.5H250.496ZM258.545 117.5V107.318H262.174C262.963 107.318 263.618 107.454 264.138 107.726C264.662 107.998 265.053 108.374 265.311 108.854C265.57 109.332 265.699 109.884 265.699 110.51C265.699 111.133 265.568 111.682 265.306 112.156C265.048 112.626 264.657 112.992 264.133 113.254C263.613 113.516 262.958 113.647 262.169 113.647H259.42V112.325H262.03C262.527 112.325 262.932 112.253 263.243 112.111C263.558 111.968 263.788 111.761 263.934 111.489C264.08 111.218 264.153 110.891 264.153 110.51C264.153 110.125 264.078 109.792 263.929 109.511C263.783 109.229 263.553 109.013 263.238 108.864C262.927 108.712 262.517 108.636 262.01 108.636H260.081V117.5H258.545ZM263.571 112.906L266.087 117.5H264.337L261.871 112.906H263.571ZM276.259 112.409C276.259 113.496 276.06 114.431 275.662 115.213C275.264 115.992 274.719 116.592 274.027 117.013C273.337 117.43 272.553 117.639 271.675 117.639C270.793 117.639 270.006 117.43 269.314 117.013C268.624 116.592 268.081 115.99 267.683 115.208C267.285 114.426 267.086 113.493 267.086 112.409C267.086 111.322 267.285 110.389 267.683 109.61C268.081 108.828 268.624 108.228 269.314 107.81C270.006 107.389 270.793 107.179 271.675 107.179C272.553 107.179 273.337 107.389 274.027 107.81C274.719 108.228 275.264 108.828 275.662 109.61C276.06 110.389 276.259 111.322 276.259 112.409ZM274.738 112.409C274.738 111.58 274.603 110.883 274.335 110.316C274.07 109.746 273.705 109.315 273.241 109.023C272.78 108.728 272.258 108.581 271.675 108.581C271.088 108.581 270.565 108.728 270.104 109.023C269.643 109.315 269.279 109.746 269.01 110.316C268.745 110.883 268.613 111.58 268.613 112.409C268.613 113.238 268.745 113.937 269.01 114.507C269.279 115.074 269.643 115.505 270.104 115.8C270.565 116.091 271.088 116.237 271.675 116.237C272.258 116.237 272.78 116.091 273.241 115.8C273.705 115.505 274.07 115.074 274.335 114.507C274.603 113.937 274.738 113.238 274.738 112.409ZM278.02 107.318H279.884L283.126 115.233H283.245L286.487 107.318H288.351V117.5H286.889V110.132H286.795L283.792 117.485H282.579L279.576 110.127H279.482V117.5H278.02V107.318Z" fill="black" fill-opacity="0.8"/>
<path d="M699.207 112.707C699.598 112.317 699.598 111.683 699.207 111.293L692.843 104.929C692.453 104.538 691.819 104.538 691.429 104.929C691.038 105.319 691.038 105.953 691.429 106.343L697.086 112L691.429 117.657C691.038 118.047 691.038 118.681 691.429 119.071C691.819 119.462 692.453 119.462 692.843 119.071L699.207 112.707ZM640.684 111C640.132 111 639.684 111.448 639.684 112C639.684 112.552 640.132 113 640.684 113V111ZM534.559 113C535.111 113 535.559 112.552 535.559 112C535.559 111.448 535.111 111 534.559 111V113ZM482.5 111C481.948 111 481.5 111.448 481.5 112C481.5 112.552 481.948 113 482.5 113V111ZM698.5 112V111H640.684V112V113H698.5V112ZM534.559 112V111H482.5V112V113H534.559V112Z" fill="#1A1B1D"/>
<path d="M543.221 117.5H541.59L545.255 107.318H547.029L550.693 117.5H549.063L546.184 109.168H546.105L543.221 117.5ZM543.495 113.513H548.784V114.805H543.495V113.513ZM550.305 108.641V107.318H558.184V108.641H555.008V117.5H553.476V108.641H550.305ZM564.313 117.5V118.763H557.845V117.5H564.313ZM573.16 110.629H571.609C571.55 110.298 571.439 110.006 571.276 109.754C571.114 109.502 570.915 109.289 570.68 109.113C570.444 108.937 570.181 108.805 569.889 108.715C569.601 108.626 569.294 108.581 568.969 108.581C568.383 108.581 567.857 108.728 567.393 109.023C566.933 109.318 566.568 109.751 566.3 110.321C566.034 110.891 565.902 111.587 565.902 112.409C565.902 113.238 566.034 113.937 566.3 114.507C566.568 115.077 566.934 115.508 567.398 115.8C567.862 116.091 568.384 116.237 568.964 116.237C569.286 116.237 569.591 116.194 569.879 116.108C570.171 116.018 570.434 115.888 570.67 115.715C570.905 115.543 571.104 115.332 571.266 115.084C571.432 114.832 571.546 114.544 571.609 114.219L573.16 114.224C573.078 114.724 572.917 115.185 572.678 115.606C572.443 116.023 572.14 116.385 571.768 116.69C571.4 116.991 570.98 117.225 570.506 117.391C570.032 117.556 569.515 117.639 568.954 117.639C568.073 117.639 567.287 117.43 566.598 117.013C565.909 116.592 565.365 115.99 564.967 115.208C564.573 114.426 564.376 113.493 564.376 112.409C564.376 111.322 564.574 110.389 564.972 109.61C565.37 108.828 565.913 108.228 566.603 107.81C567.292 107.389 568.076 107.179 568.954 107.179C569.495 107.179 569.998 107.257 570.466 107.413C570.936 107.565 571.359 107.79 571.734 108.089C572.108 108.384 572.418 108.745 572.663 109.173C572.909 109.597 573.074 110.082 573.16 110.629ZM583.689 112.409C583.689 113.496 583.49 114.431 583.093 115.213C582.695 115.992 582.15 116.592 581.457 117.013C580.767 117.43 579.984 117.639 579.105 117.639C578.224 117.639 577.437 117.43 576.744 117.013C576.054 116.592 575.511 115.99 575.113 115.208C574.715 114.426 574.517 113.493 574.517 112.409C574.517 111.322 574.715 110.389 575.113 109.61C575.511 108.828 576.054 108.228 576.744 107.81C577.437 107.389 578.224 107.179 579.105 107.179C579.984 107.179 580.767 107.389 581.457 107.81C582.15 108.228 582.695 108.828 583.093 109.61C583.49 110.389 583.689 111.322 583.689 112.409ZM582.168 112.409C582.168 111.58 582.034 110.883 581.765 110.316C581.5 109.746 581.135 109.315 580.671 109.023C580.211 108.728 579.689 108.581 579.105 108.581C578.519 108.581 577.995 108.728 577.534 109.023C577.074 109.315 576.709 109.746 576.441 110.316C576.175 110.883 576.043 111.58 576.043 112.409C576.043 113.238 576.175 113.937 576.441 114.507C576.709 115.074 577.074 115.505 577.534 115.8C577.995 116.091 578.519 116.237 579.105 116.237C579.689 116.237 580.211 116.091 580.671 115.8C581.135 115.505 581.5 115.074 581.765 114.507C582.034 113.937 582.168 113.238 582.168 112.409ZM585.45 107.318H587.315L590.556 115.233H590.676L593.917 107.318H595.781V117.5H594.32V110.132H594.225L591.222 117.485H590.009L587.007 110.127H586.912V117.5H585.45V107.318ZM597.861 117.5V107.318H601.49C602.282 107.318 602.939 107.462 603.459 107.751C603.979 108.039 604.369 108.433 604.627 108.934C604.886 109.431 605.015 109.991 605.015 110.614C605.015 111.241 604.884 111.804 604.622 112.305C604.364 112.802 603.973 113.196 603.449 113.488C602.929 113.776 602.274 113.92 601.485 113.92H598.989V112.618H601.346C601.846 112.618 602.252 112.532 602.564 112.359C602.876 112.184 603.104 111.945 603.25 111.643C603.396 111.342 603.469 110.999 603.469 110.614C603.469 110.23 603.396 109.888 603.25 109.59C603.104 109.292 602.874 109.058 602.559 108.889C602.247 108.72 601.836 108.636 601.326 108.636H599.397V117.5H597.861ZM606.442 117.5H604.811L608.475 107.318H610.25L613.914 117.5H612.284L609.405 109.168H609.325L606.442 117.5ZM606.715 113.513H612.005V114.805H606.715V113.513ZM623.449 107.318V117.5H622.037L616.861 110.033H616.767V117.5H615.231V107.318H616.652L621.833 114.795H621.927V107.318H623.449ZM624.75 107.318H626.495L629.155 111.947H629.264L631.924 107.318H633.669L629.975 113.503V117.5H628.444V113.503L624.75 107.318Z" fill="black" fill-opacity="0.8"/>
<path d="M414.293 321.207C414.683 321.598 415.317 321.598 415.707 321.207L422.071 314.843C422.462 314.453 422.462 313.819 422.071 313.429C421.681 313.038 421.047 313.038 420.657 313.429L415 319.086L409.343 313.429C408.953 313.038 408.319 313.038 407.929 313.429C407.538 313.819 407.538 314.453 407.929 314.843L414.293 321.207ZM416 265.184C416 264.631 415.552 264.184 415 264.184C414.448 264.184 414 264.631 414 265.184H416ZM414 231.059C414 231.611 414.448 232.059 415 232.059C415.552 232.059 416 231.611 416 231.059H414ZM416 179.5C416 178.948 415.552 178.5 415 178.5C414.448 178.5 414 178.948 414 179.5H416ZM415 320.5H416V265.184H415H414V320.5H415ZM415 231.059H416V179.5H415H414V231.059H415Z" fill="#1A1B1D"/>
<path d="M389.481 243.439V253.621H387.945V243.439H389.481ZM399.782 243.439V253.621H398.37L393.195 246.154H393.101V253.621H391.564V243.439H392.986L398.167 250.917H398.261V243.439H399.782ZM407.682 253.621V254.884H401.214V253.621H407.682ZM408.633 253.621V243.439H412.263C413.051 243.439 413.706 243.575 414.226 243.847C414.75 244.119 415.141 244.495 415.4 244.975C415.658 245.453 415.787 246.005 415.787 246.631C415.787 247.254 415.656 247.803 415.395 248.277C415.136 248.747 414.745 249.114 414.221 249.375C413.701 249.637 413.046 249.768 412.258 249.768H409.508V248.446H412.118C412.616 248.446 413.02 248.374 413.331 248.232C413.646 248.089 413.877 247.882 414.022 247.61C414.168 247.339 414.241 247.012 414.241 246.631C414.241 246.247 414.167 245.913 414.017 245.632C413.872 245.35 413.641 245.135 413.326 244.985C413.015 244.833 412.606 244.757 412.098 244.757H410.169V253.621H408.633ZM413.66 249.027L416.175 253.621H414.425L411.959 249.027H413.66ZM426.347 248.53C426.347 249.617 426.148 250.552 425.751 251.334C425.353 252.113 424.808 252.713 424.115 253.134C423.426 253.551 422.642 253.76 421.763 253.76C420.882 253.76 420.095 253.551 419.402 253.134C418.712 252.713 418.169 252.111 417.771 251.329C417.373 250.547 417.175 249.614 417.175 248.53C417.175 247.443 417.373 246.51 417.771 245.731C418.169 244.949 418.712 244.349 419.402 243.931C420.095 243.511 420.882 243.3 421.763 243.3C422.642 243.3 423.426 243.511 424.115 243.931C424.808 244.349 425.353 244.949 425.751 245.731C426.148 246.51 426.347 247.443 426.347 248.53ZM424.826 248.53C424.826 247.702 424.692 247.004 424.423 246.437C424.158 245.867 423.793 245.436 423.329 245.145C422.869 244.85 422.347 244.702 421.763 244.702C421.177 244.702 420.653 244.85 420.192 245.145C419.732 245.436 419.367 245.867 419.099 246.437C418.833 247.004 418.701 247.702 418.701 248.53C418.701 249.359 418.833 250.058 419.099 250.628C419.367 251.195 419.732 251.626 420.192 251.921C420.653 252.212 421.177 252.358 421.763 252.358C422.347 252.358 422.869 252.212 423.329 251.921C423.793 251.626 424.158 251.195 424.423 250.628C424.692 250.058 424.826 249.359 424.826 248.53ZM428.108 253.621V243.439H429.645V252.299H434.258V253.621H428.108ZM435.857 253.621V243.439H442.24V244.762H437.393V247.864H441.907V249.181H437.393V252.299H442.3V253.621H435.857Z" fill="black" fill-opacity="0.8"/>
</svg>
