<svg xmlns="http://www.w3.org/2000/svg" width="435" height="255" viewBox="0 0 435 255"><defs><style type="text/css"/></defs><g transform="translate(123.2671727563394 -5.404902137582184) scale(1)"><g class="relationship"><g transform="translate(-89.9224461938394 58.404902137582184) rotate(0)" stroke-width="1" stroke="#A5ABB6"><path d="M 27 0 L 148.1578903409382 0"/><polygon points="-9.45,0 -10.5,3.5 0,0 -10.5,-3.5" fill="#A5ABB6" transform="translate(157.60789034093818 0) rotate(0)" stroke="none"/></g><g transform="translate(-2.343501023370308 58.404902137582184) rotate(0) translate(0 -7)"><g transform="translate(0 0)"><g transform="translate(-42 0)" fill="#ffffff" stroke="#000000" stroke-width="0"><rect x="0" y="0" width="84" height="14" rx="2" ry="2" stroke="none"/><text xml:space="preserve" x="2" y="9.78564453125" stroke="none" text-anchor="left" font-family="sans-serif" font-size="10" font-weight="normal" fill="#000000">WORKED_FROM</text></g></g></g></g><g class="relationship"><g transform="translate(94.68544414709878 58.404902137582184) rotate(0)" stroke-width="1" stroke="#A5ABB6"><path d="M 27 0 L 124.15789034093812 0"/><polygon points="-9.45,0 -10.5,3.5 0,0 -10.5,-3.5" fill="#A5ABB6" transform="translate(133.60789034093813 0) rotate(0)" stroke="none"/></g><g transform="translate(170.26438931756786 58.404902137582184) rotate(0) translate(0 -7)"><g transform="translate(0 0)"><g transform="translate(-23.396484375 0)" fill="#ffffff" stroke="#000000" stroke-width="0"><rect x="0" y="0" width="46.79296875" height="14" rx="2" ry="2" stroke="none"/><text xml:space="preserve" x="2" y="9.78564453125" stroke="none" text-anchor="left" font-family="sans-serif" font-size="10" font-weight="normal" fill="#000000">IN_ROLE</text></g></g></g></g><g class="relationship"><g transform="translate(94.68544414709878 58.404902137582184) rotate(90)" stroke-width="1" stroke="#A5ABB6"><path d="M 27 0 L 124.15789034093812 0"/><polygon points="-9.45,0 -10.5,3.5 0,0 -10.5,-3.5" fill="#A5ABB6" transform="translate(133.60789034093813 0) rotate(0)" stroke="none"/></g><g transform="translate(94.68544414709878 133.98384730805125) rotate(0) translate(0 -7)"><g transform="translate(0 0)"><g transform="translate(-35.71337890625 0)" fill="#ffffff" stroke="#000000" stroke-width="0"><rect x="0" y="0" width="71.4267578125" height="14" rx="2" ry="2" stroke="none"/><text xml:space="preserve" x="2" y="9.78564453125" stroke="none" text-anchor="left" font-family="sans-serif" font-size="10" font-weight="normal" fill="#000000">AT_COMPANY</text></g></g></g></g><g class="node"><g fill="#4C8EDA" stroke="#2870c2" stroke-width="2"><circle cx="-89.9224461938394" cy="58.404902137582184" r="26"/></g><g transform="translate(-89.9224461938394 58.404902137582184)"><g transform="scale(0.8157408233556053) translate(0 -7.5)"><g transform="translate(0 0)"><g transform="translate(-23.34228515625 0)"><g fill="#ffffff" stroke="#000000" stroke-width="1"><rect x="0" y="0" width="46.6845703125" height="15" rx="7.5" ry="7.5"/><text xml:space="preserve" x="7.5" y="10.28564453125" stroke="none" font-family="sans-serif" font-size="10" font-weight="normal" fill="#000000">Person</text></g></g></g></g><g transform="translate(1.7757378587636622e-15 -41)"><g transform="translate(0 0)"><g transform="translate(-33.3447265625 0)" fill="white"><rect x="0" y="0" width="66.689453125" height="12" rx="0" ry="0" stroke="none"/><g font-family="sans-serif" font-size="10" font-weight="normal" fill="#000000" text-anchor="end"><text xml:space="preserve" x="30.5712890625" y="8.78564453125" stroke="none">name:</text><text xml:space="preserve" x="33.349609375" y="8.78564453125" stroke="none" text-anchor="start">Patrick</text></g></g></g></g></g></g><g class="node"><g fill="#aea1ff" stroke="#7b64ff" stroke-width="2"><circle cx="94.68544414709878" cy="58.404902137582184" r="26"/></g><g transform="translate(94.68544414709878 58.404902137582184)"><g transform="scale(0.5543806645876861) translate(0 -7.5)"><g transform="translate(0 0)"><g transform="translate(-35.2880859375 0)"><g fill="#ffffff" stroke="#000000" stroke-width="1"><rect x="0" y="0" width="70.576171875" height="15" rx="7.5" ry="7.5"/><text xml:space="preserve" x="7.5" y="10.28564453125" stroke="none" font-family="sans-serif" font-size="10" font-weight="normal" fill="#000000">Employment</text></g></g></g></g><g transform="translate(1.7757378587636622e-15 -53)"><g transform="translate(0 0)"><g transform="translate(-26.6796875 0)" fill="white"><rect x="0" y="0" width="53.359375" height="24" rx="0" ry="0" stroke="none"/><g font-family="sans-serif" font-size="10" font-weight="normal" fill="#000000" text-anchor="end"><text xml:space="preserve" x="25.556640625" y="8.78564453125" stroke="none">from:</text><text xml:space="preserve" x="28.3349609375" y="8.78564453125" stroke="none" text-anchor="start">2001</text><text xml:space="preserve" x="25.556640625" y="20.78564453125" stroke="none" text-anchor="end">to:</text><text xml:space="preserve" x="28.3349609375" y="20.78564453125" stroke="none" text-anchor="start">2005</text></g></g></g></g></g></g><g class="node"><g fill="#b0bc00" stroke="#808900" stroke-width="2"><circle cx="255.29333448803692" cy="58.404902137582184" r="26"/></g><g transform="translate(255.29333448803692 58.404902137582184)"><g transform="scale(0.7582411585540744) translate(0 -7.5)"><g transform="translate(0 0)"><g transform="translate(-25.2880859375 0)"><g fill="#ffffff" stroke="#000000" stroke-width="1"><rect x="0" y="0" width="50.576171875" height="15" rx="7.5" ry="7.5"/><text xml:space="preserve" x="7.5" y="10.28564453125" stroke="none" font-family="sans-serif" font-size="10" font-weight="normal" fill="#000000">Position</text></g></g></g></g><g transform="translate(1.7757378587636622e-15 -41)"><g transform="translate(0 0)"><g transform="translate(-56.41845703125 0)" fill="white"><rect x="0" y="0" width="112.8369140625" height="12" rx="0" ry="0" stroke="none"/><g font-family="sans-serif" font-size="10" font-weight="normal" fill="#000000" text-anchor="end"><text xml:space="preserve" x="21.1181640625" y="8.78564453125" stroke="none">title:</text><text xml:space="preserve" x="23.896484375" y="8.78564453125" stroke="none" text-anchor="start">Software developer</text></g></g></g></g></g></g><g class="node"><g fill="#fe9200" stroke="#e27300" stroke-width="2"><circle cx="94.68544414709878" cy="219.0127924785203" r="26"/></g><g transform="translate(94.68544414709878 219.0127924785203)"><g transform="scale(0.6698756471294153) translate(0 -7.5)"><g transform="translate(0 0)"><g transform="translate(-28.89892578125 0)"><g fill="#ffffff" stroke="#000000" stroke-width="1"><rect x="0" y="0" width="57.7978515625" height="15" rx="7.5" ry="7.5"/><text xml:space="preserve" x="7.5" y="10.28564453125" stroke="none" font-family="sans-serif" font-size="10" font-weight="normal" fill="#000000">Company</text></g></g></g></g><g transform="translate(1.7757378587636622e-15 29)"><g transform="translate(0 0)"><g transform="translate(-30.8447265625 0)" fill="white"><rect x="0" y="0" width="61.689453125" height="12" rx="0" ry="0" stroke="none"/><g font-family="sans-serif" font-size="10" font-weight="normal" fill="#000000" text-anchor="end"><text xml:space="preserve" x="30.5712890625" y="8.78564453125" stroke="none">name:</text><text xml:space="preserve" x="33.349609375" y="8.78564453125" stroke="none" text-anchor="start">Acme</text></g></g></g></g></g></g></g></svg>