<svg width="850" height="507" viewBox="0 0 850 507" fill="none" xmlns="http://www.w3.org/2000/svg">
<path d="M354 135C354 99.6538 382.654 71 418 71C453.346 71 482 99.6538 482 135C482 170.346 453.346 199 418 199C382.654 199 354 170.346 354 135Z" fill="#F16767"/>
<path d="M378.622 140V129.878H385.006L384.999 131.019H379.924V134.323H384.495V135.457H379.917V138.831L385.139 138.845V140H378.622ZM386.86 140V132.762H388.106V133.812C388.307 133.495 388.582 133.217 388.932 132.979C389.282 132.741 389.737 132.622 390.297 132.622C390.558 132.622 390.824 132.666 391.095 132.755C391.37 132.844 391.622 132.977 391.851 133.154C392.08 133.331 392.257 133.548 392.383 133.805C392.607 133.45 392.91 133.166 393.293 132.951C393.676 132.732 394.107 132.622 394.588 132.622C394.84 132.622 395.104 132.662 395.379 132.741C395.654 132.816 395.909 132.951 396.142 133.147C396.38 133.338 396.574 133.607 396.723 133.952C396.872 134.293 396.947 134.731 396.947 135.268V140H395.645V135.394C395.645 134.955 395.575 134.617 395.435 134.379C395.295 134.136 395.111 133.966 394.882 133.868C394.658 133.77 394.418 133.721 394.161 133.721C393.937 133.721 393.699 133.765 393.447 133.854C393.195 133.943 392.98 134.092 392.803 134.302C392.626 134.512 392.537 134.799 392.537 135.163V140H391.249V135.016C391.249 134.731 391.172 134.493 391.018 134.302C390.869 134.111 390.68 133.966 390.451 133.868C390.227 133.77 390.003 133.721 389.779 133.721C389.532 133.721 389.282 133.77 389.03 133.868C388.783 133.966 388.573 134.122 388.4 134.337C388.232 134.547 388.148 134.822 388.148 135.163V140H386.86ZM398.973 142.254V132.762H400.261L400.275 134.022C400.359 133.873 400.467 133.716 400.597 133.553C400.733 133.39 400.896 133.238 401.087 133.098C401.283 132.958 401.51 132.844 401.766 132.755C402.028 132.666 402.324 132.622 402.655 132.622C403.234 132.622 403.743 132.755 404.181 133.021C404.625 133.282 404.97 133.684 405.217 134.225C405.465 134.766 405.588 135.452 405.588 136.283C405.588 137.114 405.467 137.816 405.224 138.39C404.986 138.959 404.641 139.393 404.188 139.692C403.736 139.991 403.19 140.14 402.55 140.14C402.228 140.14 401.941 140.093 401.689 140C401.442 139.911 401.225 139.795 401.038 139.65C400.856 139.501 400.702 139.342 400.576 139.174C400.455 139.006 400.355 138.845 400.275 138.691V142.254H398.973ZM402.305 139.132C402.903 139.132 403.39 138.906 403.768 138.453C404.146 137.996 404.335 137.286 404.335 136.325C404.335 135.499 404.163 134.843 403.817 134.358C403.472 133.873 402.968 133.63 402.305 133.63C401.633 133.63 401.125 133.88 400.779 134.379C400.434 134.874 400.261 135.522 400.261 136.325C400.261 136.843 400.338 137.314 400.492 137.739C400.646 138.164 400.875 138.502 401.178 138.754C401.482 139.006 401.857 139.132 402.305 139.132ZM409.14 140.091C408.748 140.091 408.431 140.037 408.188 139.93C407.95 139.823 407.766 139.678 407.635 139.496C407.509 139.314 407.423 139.106 407.376 138.873C407.334 138.635 407.313 138.39 407.313 138.138V129.598H408.587V138.012C408.587 138.376 408.657 138.649 408.797 138.831C408.942 139.013 409.143 139.113 409.399 139.132L409.791 139.139V139.979C409.684 140.012 409.572 140.037 409.455 140.056C409.339 140.079 409.234 140.091 409.14 140.091ZM414.108 140.14C413.44 140.14 412.857 139.998 412.358 139.713C411.863 139.424 411.478 139.001 411.203 138.446C410.927 137.891 410.79 137.212 410.79 136.409C410.79 135.653 410.918 134.99 411.175 134.421C411.431 133.852 411.807 133.411 412.302 133.098C412.796 132.781 413.401 132.622 414.115 132.622C414.782 132.622 415.361 132.769 415.851 133.063C416.341 133.352 416.721 133.779 416.992 134.344C417.267 134.909 417.405 135.597 417.405 136.409C417.405 137.146 417.279 137.795 417.027 138.355C416.775 138.915 416.404 139.354 415.914 139.671C415.428 139.984 414.826 140.14 414.108 140.14ZM414.115 139.118C414.544 139.118 414.908 139.008 415.207 138.789C415.505 138.57 415.732 138.255 415.886 137.844C416.044 137.433 416.124 136.946 416.124 136.381C416.124 135.863 416.054 135.399 415.914 134.988C415.778 134.573 415.564 134.244 415.27 134.001C414.976 133.758 414.591 133.637 414.115 133.637C413.676 133.637 413.305 133.747 413.002 133.966C412.698 134.181 412.467 134.493 412.309 134.904C412.155 135.315 412.078 135.807 412.078 136.381C412.078 136.89 412.145 137.352 412.281 137.767C412.421 138.182 412.64 138.511 412.939 138.754C413.242 138.997 413.634 139.118 414.115 139.118ZM419.751 142.31C419.326 142.31 419.035 142.28 418.876 142.219C418.717 142.158 418.638 142.128 418.638 142.128V141.288L419.38 141.302C419.646 141.311 419.868 141.293 420.045 141.246C420.222 141.199 420.365 141.136 420.472 141.057C420.579 140.978 420.661 140.889 420.717 140.791C420.778 140.693 420.827 140.6 420.864 140.511L421.116 139.825L418.288 132.762H419.597L421.732 138.348L423.853 132.762H425.12L422.075 140.546C421.884 141.003 421.671 141.36 421.438 141.617C421.209 141.874 420.953 142.053 420.668 142.156C420.388 142.259 420.082 142.31 419.751 142.31ZM426.522 140V132.762H427.768V133.812C427.969 133.495 428.244 133.217 428.594 132.979C428.944 132.741 429.399 132.622 429.959 132.622C430.221 132.622 430.487 132.666 430.757 132.755C431.033 132.844 431.285 132.977 431.513 133.154C431.742 133.331 431.919 133.548 432.045 133.805C432.269 133.45 432.573 133.166 432.955 132.951C433.338 132.732 433.77 132.622 434.25 132.622C434.502 132.622 434.766 132.662 435.041 132.741C435.317 132.816 435.571 132.951 435.804 133.147C436.042 133.338 436.236 133.607 436.385 133.952C436.535 134.293 436.609 134.731 436.609 135.268V140H435.307V135.394C435.307 134.955 435.237 134.617 435.097 134.379C434.957 134.136 434.773 133.966 434.544 133.868C434.32 133.77 434.08 133.721 433.823 133.721C433.599 133.721 433.361 133.765 433.109 133.854C432.857 133.943 432.643 134.092 432.465 134.302C432.288 134.512 432.199 134.799 432.199 135.163V140H430.911V135.016C430.911 134.731 430.834 134.493 430.68 134.302C430.531 134.111 430.342 133.966 430.113 133.868C429.889 133.77 429.665 133.721 429.441 133.721C429.194 133.721 428.944 133.77 428.692 133.868C428.445 133.966 428.235 134.122 428.062 134.337C427.894 134.547 427.81 134.822 427.81 135.163V140H426.522ZM441.694 140.14C441.022 140.14 440.43 139.993 439.916 139.699C439.403 139.405 439.002 138.983 438.712 138.432C438.423 137.881 438.278 137.221 438.278 136.451C438.278 135.69 438.409 135.023 438.67 134.449C438.932 133.875 439.31 133.427 439.804 133.105C440.304 132.783 440.903 132.622 441.603 132.622C442.285 132.622 442.861 132.769 443.332 133.063C443.804 133.357 444.161 133.772 444.403 134.309C444.651 134.841 444.774 135.473 444.774 136.206V136.682H439.587C439.587 137.139 439.662 137.555 439.811 137.928C439.965 138.297 440.196 138.591 440.504 138.81C440.812 139.029 441.202 139.139 441.673 139.139C442.135 139.139 442.532 139.032 442.863 138.817C443.199 138.602 443.414 138.292 443.507 137.886H444.725C444.641 138.376 444.445 138.789 444.137 139.125C443.834 139.461 443.468 139.715 443.038 139.888C442.614 140.056 442.166 140.14 441.694 140.14ZM439.594 135.807H443.528C443.528 135.392 443.458 135.018 443.318 134.687C443.178 134.351 442.964 134.087 442.674 133.896C442.39 133.7 442.03 133.602 441.596 133.602C441.144 133.602 440.768 133.712 440.469 133.931C440.171 134.146 439.949 134.423 439.804 134.764C439.66 135.1 439.59 135.448 439.594 135.807ZM446.565 140V132.762H447.818V133.812C447.935 133.611 448.096 133.422 448.301 133.245C448.511 133.068 448.763 132.925 449.057 132.818C449.356 132.711 449.699 132.657 450.086 132.657C450.543 132.657 450.963 132.748 451.346 132.93C451.733 133.112 452.041 133.397 452.27 133.784C452.503 134.167 452.62 134.661 452.62 135.268V140H451.325V135.394C451.325 134.829 451.176 134.412 450.877 134.141C450.583 133.866 450.2 133.728 449.729 133.728C449.402 133.728 449.097 133.782 448.812 133.889C448.527 133.992 448.296 134.15 448.119 134.365C447.942 134.575 447.853 134.841 447.853 135.163V140H446.565ZM456.997 140.035C456.498 140.035 456.111 139.967 455.835 139.832C455.56 139.697 455.366 139.496 455.254 139.23C455.147 138.964 455.093 138.637 455.093 138.25V133.707H453.917V132.762H455.128L455.443 130.655H456.395V132.755H458.026V133.707H456.395V138.208C456.395 138.465 456.421 138.654 456.472 138.775C456.528 138.892 456.619 138.966 456.745 138.999C456.871 139.032 457.049 139.048 457.277 139.048H458.068V139.916C457.98 139.949 457.844 139.977 457.662 140C457.485 140.023 457.263 140.035 456.997 140.035Z" fill="white"/>
<path d="M10 135C10 99.6538 38.6538 71 74 71C109.346 71 138 99.6538 138 135C138 170.346 109.346 199 74 199C38.6538 199 10 170.346 10 135Z" fill="#C990C0"/>
<path d="M52.7237 140V129.878H56.1467C56.8701 129.878 57.5141 129.999 58.0787 130.242C58.6434 130.485 59.0867 130.844 59.4087 131.32C59.7354 131.796 59.8987 132.382 59.8987 133.077C59.8987 133.749 59.7471 134.323 59.4437 134.799C59.1451 135.275 58.7274 135.637 58.1907 135.884C57.6541 136.131 57.0311 136.255 56.3217 136.255H54.0537V140H52.7237ZM54.0467 135.163H56.2937C56.9891 135.163 57.5537 134.969 57.9877 134.582C58.4217 134.195 58.6387 133.667 58.6387 133C58.6387 132.328 58.4147 131.819 57.9667 131.474C57.5187 131.129 56.9401 130.956 56.2307 130.956H54.0467V135.163ZM64.3077 140.14C63.6357 140.14 63.0431 139.993 62.5297 139.699C62.0164 139.405 61.6151 138.983 61.3257 138.432C61.0364 137.881 60.8917 137.221 60.8917 136.451C60.8917 135.69 61.0224 135.023 61.2837 134.449C61.5451 133.875 61.9231 133.427 62.4177 133.105C62.9171 132.783 63.5167 132.622 64.2167 132.622C64.8981 132.622 65.4744 132.769 65.9457 133.063C66.4171 133.357 66.7741 133.772 67.0167 134.309C67.2641 134.841 67.3877 135.473 67.3877 136.206V136.682H62.2007C62.2007 137.139 62.2754 137.555 62.4247 137.928C62.5787 138.297 62.8097 138.591 63.1177 138.81C63.4257 139.029 63.8154 139.139 64.2867 139.139C64.7487 139.139 65.1454 139.032 65.4767 138.817C65.8127 138.602 66.0274 138.292 66.1207 137.886H67.3387C67.2547 138.376 67.0587 138.789 66.7507 139.125C66.4474 139.461 66.0811 139.715 65.6517 139.888C65.2271 140.056 64.7791 140.14 64.3077 140.14ZM62.2077 135.807H66.1417C66.1417 135.392 66.0717 135.018 65.9317 134.687C65.7917 134.351 65.5771 134.087 65.2877 133.896C65.0031 133.7 64.6437 133.602 64.2097 133.602C63.7571 133.602 63.3814 133.712 63.0827 133.931C62.7841 134.146 62.5624 134.423 62.4177 134.764C62.2731 135.1 62.2031 135.448 62.2077 135.807ZM69.1784 140V132.762H70.4104V134.155C70.5318 133.81 70.7021 133.525 70.9214 133.301C71.1408 133.072 71.3904 132.902 71.6704 132.79C71.9551 132.678 72.2491 132.622 72.5524 132.622C72.6598 132.622 72.7648 132.629 72.8674 132.643C72.9701 132.657 73.0494 132.68 73.1054 132.713V133.966C73.0354 133.933 72.9444 133.912 72.8324 133.903C72.7251 133.889 72.6341 133.882 72.5594 133.882C72.2701 133.863 71.9994 133.882 71.7474 133.938C71.4954 133.989 71.2738 134.08 71.0824 134.211C70.8911 134.342 70.7394 134.514 70.6274 134.729C70.5201 134.939 70.4664 135.196 70.4664 135.499V140H69.1784ZM77.2102 140.14C76.7062 140.14 76.2372 140.063 75.8032 139.909C75.3738 139.75 75.0168 139.505 74.7322 139.174C74.4475 138.838 74.2702 138.411 74.2002 137.893H75.3762C75.4368 138.178 75.5535 138.416 75.7262 138.607C75.8988 138.794 76.1112 138.936 76.3632 139.034C76.6198 139.127 76.8998 139.174 77.2032 139.174C77.6932 139.174 78.0875 139.083 78.3862 138.901C78.6848 138.719 78.8342 138.439 78.8342 138.061C78.8342 137.795 78.7548 137.583 78.5962 137.424C78.4422 137.261 78.1995 137.142 77.8682 137.067L76.3702 136.696C75.7868 136.556 75.3202 136.337 74.9702 136.038C74.6248 135.739 74.4498 135.322 74.4452 134.785C74.4452 134.36 74.5478 133.987 74.7532 133.665C74.9585 133.343 75.2642 133.089 75.6702 132.902C76.0808 132.715 76.5918 132.622 77.2032 132.622C77.9918 132.622 78.6265 132.799 79.1072 133.154C79.5878 133.504 79.8398 134.02 79.8632 134.701H78.7152C78.6685 134.356 78.5145 134.083 78.2532 133.882C77.9918 133.677 77.6372 133.574 77.1892 133.574C76.7318 133.574 76.3562 133.667 76.0622 133.854C75.7728 134.036 75.6282 134.321 75.6282 134.708C75.6282 134.965 75.7308 135.168 75.9362 135.317C76.1462 135.462 76.4495 135.583 76.8462 135.681L78.3022 136.045C78.6335 136.134 78.9088 136.25 79.1282 136.395C79.3475 136.54 79.5202 136.701 79.6462 136.878C79.7722 137.055 79.8608 137.242 79.9122 137.438C79.9682 137.629 79.9962 137.814 79.9962 137.991C79.9962 138.434 79.8865 138.817 79.6672 139.139C79.4478 139.456 79.1305 139.704 78.7152 139.881C78.2998 140.054 77.7982 140.14 77.2102 140.14ZM84.5862 140.14C83.9189 140.14 83.3355 139.998 82.8362 139.713C82.3415 139.424 81.9565 139.001 81.6812 138.446C81.4059 137.891 81.2682 137.212 81.2682 136.409C81.2682 135.653 81.3965 134.99 81.6532 134.421C81.9099 133.852 82.2855 133.411 82.7802 133.098C83.2749 132.781 83.8792 132.622 84.5932 132.622C85.2605 132.622 85.8392 132.769 86.3292 133.063C86.8192 133.352 87.1995 133.779 87.4702 134.344C87.7455 134.909 87.8832 135.597 87.8832 136.409C87.8832 137.146 87.7572 137.795 87.5052 138.355C87.2532 138.915 86.8822 139.354 86.3922 139.671C85.9069 139.984 85.3049 140.14 84.5862 140.14ZM84.5932 139.118C85.0225 139.118 85.3865 139.008 85.6852 138.789C85.9839 138.57 86.2102 138.255 86.3642 137.844C86.5229 137.433 86.6022 136.946 86.6022 136.381C86.6022 135.863 86.5322 135.399 86.3922 134.988C86.2569 134.573 86.0422 134.244 85.7482 134.001C85.4542 133.758 85.0692 133.637 84.5932 133.637C84.1545 133.637 83.7835 133.747 83.4802 133.966C83.1769 134.181 82.9459 134.493 82.7872 134.904C82.6332 135.315 82.5562 135.807 82.5562 136.381C82.5562 136.89 82.6239 137.352 82.7592 137.767C82.8992 138.182 83.1185 138.511 83.4172 138.754C83.7205 138.997 84.1125 139.118 84.5932 139.118ZM89.6042 140V132.762H90.8572V133.812C90.9739 133.611 91.1349 133.422 91.3402 133.245C91.5502 133.068 91.8022 132.925 92.0962 132.818C92.3949 132.711 92.7379 132.657 93.1252 132.657C93.5825 132.657 94.0025 132.748 94.3852 132.93C94.7725 133.112 95.0805 133.397 95.3092 133.784C95.5425 134.167 95.6592 134.661 95.6592 135.268V140H94.3642V135.394C94.3642 134.829 94.2149 134.412 93.9162 134.141C93.6222 133.866 93.2395 133.728 92.7682 133.728C92.4415 133.728 92.1359 133.782 91.8512 133.889C91.5665 133.992 91.3355 134.15 91.1582 134.365C90.9809 134.575 90.8922 134.841 90.8922 135.163V140H89.6042Z" fill="white"/>
<path d="M351 399C351 363.654 379.654 335 415 335C450.346 335 479 363.654 479 399C479 434.346 450.346 463 415 463C379.654 463 351 434.346 351 399Z" fill="#FFDF81"/>
<path d="M389.566 404.14C388.656 404.14 387.879 403.932 387.235 403.517C386.596 403.102 386.106 402.504 385.765 401.725C385.429 400.946 385.261 400.005 385.261 398.904C385.261 397.807 385.429 396.874 385.765 396.104C386.101 395.334 386.589 394.748 387.228 394.347C387.872 393.941 388.651 393.738 389.566 393.738C390.28 393.738 390.912 393.887 391.463 394.186C392.014 394.48 392.457 394.874 392.793 395.369C393.129 395.864 393.327 396.407 393.388 397H392.009C391.934 396.603 391.792 396.244 391.582 395.922C391.372 395.6 391.097 395.343 390.756 395.152C390.415 394.961 390.007 394.865 389.531 394.865C388.92 394.865 388.402 395.01 387.977 395.299C387.557 395.584 387.237 396.025 387.018 396.622C386.803 397.219 386.696 397.985 386.696 398.918C386.696 400.327 386.936 401.363 387.417 402.026C387.902 402.684 388.607 403.013 389.531 403.013C390.007 403.013 390.415 402.913 390.756 402.712C391.097 402.511 391.372 402.243 391.582 401.907C391.792 401.571 391.934 401.207 392.009 400.815H393.388C393.337 401.244 393.22 401.66 393.038 402.061C392.861 402.458 392.616 402.812 392.303 403.125C391.99 403.438 391.605 403.685 391.148 403.867C390.695 404.049 390.168 404.14 389.566 404.14ZM398.099 404.14C397.432 404.14 396.848 403.998 396.349 403.713C395.854 403.424 395.469 403.001 395.194 402.446C394.919 401.891 394.781 401.212 394.781 400.409C394.781 399.653 394.909 398.99 395.166 398.421C395.423 397.852 395.798 397.411 396.293 397.098C396.788 396.781 397.392 396.622 398.106 396.622C398.773 396.622 399.352 396.769 399.842 397.063C400.332 397.352 400.712 397.779 400.983 398.344C401.258 398.909 401.396 399.597 401.396 400.409C401.396 401.146 401.27 401.795 401.018 402.355C400.766 402.915 400.395 403.354 399.905 403.671C399.42 403.984 398.818 404.14 398.099 404.14ZM398.106 403.118C398.535 403.118 398.899 403.008 399.198 402.789C399.497 402.57 399.723 402.255 399.877 401.844C400.036 401.433 400.115 400.946 400.115 400.381C400.115 399.863 400.045 399.399 399.905 398.988C399.77 398.573 399.555 398.244 399.261 398.001C398.967 397.758 398.582 397.637 398.106 397.637C397.667 397.637 397.296 397.747 396.993 397.966C396.69 398.181 396.459 398.493 396.3 398.904C396.146 399.315 396.069 399.807 396.069 400.381C396.069 400.89 396.137 401.352 396.272 401.767C396.412 402.182 396.631 402.511 396.93 402.754C397.233 402.997 397.625 403.118 398.106 403.118ZM403.117 404V396.762H404.363V397.812C404.564 397.495 404.839 397.217 405.189 396.979C405.539 396.741 405.994 396.622 406.554 396.622C406.815 396.622 407.081 396.666 407.352 396.755C407.627 396.844 407.879 396.977 408.108 397.154C408.337 397.331 408.514 397.548 408.64 397.805C408.864 397.45 409.167 397.166 409.55 396.951C409.933 396.732 410.364 396.622 410.845 396.622C411.097 396.622 411.361 396.662 411.636 396.741C411.911 396.816 412.166 396.951 412.399 397.147C412.637 397.338 412.831 397.607 412.98 397.952C413.129 398.293 413.204 398.731 413.204 399.268V404H411.902V399.394C411.902 398.955 411.832 398.617 411.692 398.379C411.552 398.136 411.368 397.966 411.139 397.868C410.915 397.77 410.675 397.721 410.418 397.721C410.194 397.721 409.956 397.765 409.704 397.854C409.452 397.943 409.237 398.092 409.06 398.302C408.883 398.512 408.794 398.799 408.794 399.163V404H407.506V399.016C407.506 398.731 407.429 398.493 407.275 398.302C407.126 398.111 406.937 397.966 406.708 397.868C406.484 397.77 406.26 397.721 406.036 397.721C405.789 397.721 405.539 397.77 405.287 397.868C405.04 397.966 404.83 398.122 404.657 398.337C404.489 398.547 404.405 398.822 404.405 399.163V404H403.117ZM415.23 406.254V396.762H416.518L416.532 398.022C416.616 397.873 416.724 397.716 416.854 397.553C416.99 397.39 417.153 397.238 417.344 397.098C417.54 396.958 417.767 396.844 418.023 396.755C418.285 396.666 418.581 396.622 418.912 396.622C419.491 396.622 420 396.755 420.438 397.021C420.882 397.282 421.227 397.684 421.474 398.225C421.722 398.766 421.845 399.452 421.845 400.283C421.845 401.114 421.724 401.816 421.481 402.39C421.243 402.959 420.898 403.393 420.445 403.692C419.993 403.991 419.447 404.14 418.807 404.14C418.485 404.14 418.198 404.093 417.946 404C417.699 403.911 417.482 403.795 417.295 403.65C417.113 403.501 416.959 403.342 416.833 403.174C416.712 403.006 416.612 402.845 416.532 402.691V406.254H415.23ZM418.562 403.132C419.16 403.132 419.647 402.906 420.025 402.453C420.403 401.996 420.592 401.286 420.592 400.325C420.592 399.499 420.42 398.843 420.074 398.358C419.729 397.873 419.225 397.63 418.562 397.63C417.89 397.63 417.382 397.88 417.036 398.379C416.691 398.874 416.518 399.522 416.518 400.325C416.518 400.843 416.595 401.314 416.749 401.739C416.903 402.164 417.132 402.502 417.435 402.754C417.739 403.006 418.114 403.132 418.562 403.132ZM425.518 404.14C425.047 404.14 424.631 404.058 424.272 403.895C423.917 403.727 423.637 403.487 423.432 403.174C423.231 402.861 423.131 402.483 423.131 402.04C423.131 401.237 423.411 400.64 423.971 400.248C424.531 399.856 425.429 399.646 426.666 399.618L427.954 399.583V399.016C427.954 398.573 427.821 398.223 427.555 397.966C427.289 397.705 426.878 397.574 426.323 397.574C425.908 397.579 425.541 397.677 425.224 397.868C424.907 398.059 424.704 398.372 424.615 398.806H423.474C423.502 398.335 423.633 397.938 423.866 397.616C424.104 397.289 424.438 397.042 424.867 396.874C425.296 396.706 425.803 396.622 426.386 396.622C427.016 396.622 427.539 396.711 427.954 396.888C428.374 397.065 428.687 397.327 428.892 397.672C429.102 398.017 429.207 398.442 429.207 398.946V404H428.101L428.003 402.642C427.728 403.207 427.373 403.599 426.939 403.818C426.51 404.033 426.036 404.14 425.518 404.14ZM425.903 403.209C426.15 403.209 426.393 403.165 426.631 403.076C426.874 402.987 427.093 402.868 427.289 402.719C427.49 402.565 427.651 402.395 427.772 402.208C427.893 402.017 427.954 401.821 427.954 401.62V400.381L426.883 400.402C426.328 400.411 425.866 400.467 425.497 400.57C425.128 400.673 424.851 400.834 424.664 401.053C424.477 401.272 424.384 401.559 424.384 401.914C424.384 402.32 424.526 402.637 424.811 402.866C425.096 403.095 425.46 403.209 425.903 403.209ZM431.226 404V396.762H432.479V397.812C432.596 397.611 432.757 397.422 432.962 397.245C433.172 397.068 433.424 396.925 433.718 396.818C434.017 396.711 434.36 396.657 434.747 396.657C435.205 396.657 435.625 396.748 436.007 396.93C436.395 397.112 436.703 397.397 436.931 397.784C437.165 398.167 437.281 398.661 437.281 399.268V404H435.986V399.394C435.986 398.829 435.837 398.412 435.538 398.141C435.244 397.866 434.862 397.728 434.39 397.728C434.064 397.728 433.758 397.782 433.473 397.889C433.189 397.992 432.958 398.15 432.78 398.365C432.603 398.575 432.514 398.841 432.514 399.163V404H431.226ZM439.795 406.31C439.37 406.31 439.079 406.28 438.92 406.219C438.761 406.158 438.682 406.128 438.682 406.128V405.288L439.424 405.302C439.69 405.311 439.912 405.293 440.089 405.246C440.266 405.199 440.409 405.136 440.516 405.057C440.623 404.978 440.705 404.889 440.761 404.791C440.822 404.693 440.871 404.6 440.908 404.511L441.16 403.825L438.332 396.762H439.641L441.776 402.348L443.897 396.762H445.164L442.119 404.546C441.928 405.003 441.715 405.36 441.482 405.617C441.253 405.874 440.997 406.053 440.712 406.156C440.432 406.259 440.126 406.31 439.795 406.31Z" fill="#1A1B1D"/>
<path d="M415.052 332.199C415.438 332.594 416.071 332.601 416.466 332.215L422.902 325.924C423.297 325.538 423.304 324.905 422.918 324.51C422.532 324.115 421.899 324.108 421.504 324.494L415.783 330.086L410.191 324.365C409.805 323.97 409.172 323.963 408.777 324.349C408.382 324.735 408.375 325.368 408.761 325.763L415.052 332.199ZM417.306 284.074C417.312 283.522 416.87 283.069 416.317 283.063C415.765 283.056 415.312 283.499 415.306 284.051L417.306 284.074ZM415.694 249.926C415.688 250.478 416.13 250.931 416.683 250.937C417.235 250.944 417.688 250.501 417.694 249.949L415.694 249.926ZM418.233 202.511C418.239 201.959 417.797 201.506 417.244 201.5C416.692 201.494 416.239 201.936 416.233 202.488L418.233 202.511ZM416.767 331.512L417.306 284.074L415.306 284.051L414.767 331.489L416.767 331.512ZM417.694 249.949L418.233 202.511L416.233 202.488L415.694 249.926L417.694 249.949Z" fill="#1A1B1D"/>
<path d="M372.099 272.5H370.469L374.133 262.318H375.908L379.572 272.5H377.941L375.062 264.168H374.983L372.099 272.5ZM372.373 268.513H377.663V269.805H372.373V268.513ZM379.183 263.641V262.318H387.063V263.641H383.886V272.5H382.355V263.641H379.183ZM393.192 272.5V273.763H386.724V272.5H393.192ZM402.039 265.629H400.488C400.428 265.298 400.317 265.006 400.154 264.754C399.992 264.502 399.793 264.289 399.558 264.113C399.323 263.937 399.059 263.805 398.767 263.715C398.479 263.626 398.172 263.581 397.848 263.581C397.261 263.581 396.736 263.728 396.272 264.023C395.811 264.318 395.446 264.751 395.178 265.321C394.913 265.891 394.78 266.587 394.78 267.409C394.78 268.238 394.913 268.937 395.178 269.507C395.446 270.077 395.813 270.508 396.277 270.8C396.741 271.091 397.263 271.237 397.843 271.237C398.164 271.237 398.469 271.194 398.757 271.108C399.049 271.018 399.313 270.888 399.548 270.715C399.783 270.543 399.982 270.332 400.145 270.084C400.31 269.832 400.425 269.544 400.488 269.219L402.039 269.224C401.956 269.724 401.795 270.185 401.556 270.606C401.321 271.023 401.018 271.385 400.647 271.69C400.279 271.991 399.858 272.225 399.384 272.391C398.91 272.556 398.393 272.639 397.833 272.639C396.951 272.639 396.166 272.43 395.476 272.013C394.787 271.592 394.243 270.99 393.846 270.208C393.451 269.426 393.254 268.493 393.254 267.409C393.254 266.322 393.453 265.389 393.85 264.61C394.248 263.828 394.792 263.228 395.481 262.81C396.171 262.389 396.954 262.179 397.833 262.179C398.373 262.179 398.877 262.257 399.344 262.413C399.815 262.565 400.237 262.79 400.612 263.089C400.986 263.384 401.296 263.745 401.542 264.173C401.787 264.597 401.953 265.082 402.039 265.629ZM412.567 267.409C412.567 268.496 412.369 269.431 411.971 270.213C411.573 270.992 411.028 271.592 410.335 272.013C409.646 272.43 408.862 272.639 407.984 272.639C407.102 272.639 406.315 272.43 405.622 272.013C404.933 271.592 404.389 270.99 403.991 270.208C403.594 269.426 403.395 268.493 403.395 267.409C403.395 266.322 403.594 265.389 403.991 264.61C404.389 263.828 404.933 263.228 405.622 262.81C406.315 262.389 407.102 262.179 407.984 262.179C408.862 262.179 409.646 262.389 410.335 262.81C411.028 263.228 411.573 263.828 411.971 264.61C412.369 265.389 412.567 266.322 412.567 267.409ZM411.046 267.409C411.046 266.58 410.912 265.883 410.643 265.316C410.378 264.746 410.014 264.315 409.55 264.023C409.089 263.728 408.567 263.581 407.984 263.581C407.397 263.581 406.873 263.728 406.413 264.023C405.952 264.315 405.587 264.746 405.319 265.316C405.054 265.883 404.921 266.58 404.921 267.409C404.921 268.238 405.054 268.937 405.319 269.507C405.587 270.074 405.952 270.505 406.413 270.8C406.873 271.091 407.397 271.237 407.984 271.237C408.567 271.237 409.089 271.091 409.55 270.8C410.014 270.505 410.378 270.074 410.643 269.507C410.912 268.937 411.046 268.238 411.046 267.409ZM414.329 262.318H416.193L419.435 270.233H419.554L422.795 262.318H424.66V272.5H423.198V265.132H423.104L420.101 272.485H418.888L415.885 265.127H415.79V272.5H414.329V262.318ZM426.739 272.5V262.318H430.368C431.161 262.318 431.817 262.462 432.337 262.751C432.858 263.039 433.247 263.433 433.506 263.934C433.764 264.431 433.893 264.991 433.893 265.614C433.893 266.241 433.762 266.804 433.501 267.305C433.242 267.802 432.851 268.196 432.327 268.488C431.807 268.776 431.152 268.92 430.363 268.92H427.868V267.618H430.224C430.725 267.618 431.131 267.532 431.442 267.359C431.754 267.184 431.983 266.945 432.128 266.643C432.274 266.342 432.347 265.999 432.347 265.614C432.347 265.23 432.274 264.888 432.128 264.59C431.983 264.292 431.752 264.058 431.437 263.889C431.126 263.72 430.715 263.636 430.204 263.636H428.275V272.5H426.739ZM435.32 272.5H433.69L437.354 262.318H439.128L442.793 272.5H441.162L438.283 264.168H438.204L435.32 272.5ZM435.594 268.513H440.883V269.805H435.594V268.513ZM452.327 262.318V272.5H450.915L445.74 265.033H445.645V272.5H444.109V262.318H445.531L450.711 269.795H450.806V262.318H452.327ZM453.628 262.318H455.373L458.033 266.947H458.143L460.802 262.318H462.547L458.854 268.503V272.5H457.322V268.503L453.628 262.318Z" fill="black" fill-opacity="0.8"/>
<path d="M351.207 135.707C351.598 135.317 351.598 134.683 351.207 134.293L344.843 127.929C344.453 127.538 343.819 127.538 343.429 127.929C343.038 128.319 343.038 128.953 343.429 129.343L349.086 135L343.429 140.657C343.038 141.047 343.038 141.681 343.429 142.071C343.819 142.462 344.453 142.462 344.843 142.071L351.207 135.707ZM305.562 134C305.01 134 304.562 134.448 304.562 135C304.562 135.552 305.01 136 305.562 136V134ZM186.438 136C186.99 136 187.438 135.552 187.438 135C187.438 134.448 186.99 134 186.438 134V136ZM141.5 134C140.948 134 140.5 134.448 140.5 135C140.5 135.552 140.948 136 141.5 136V134ZM350.5 134H305.562V136H350.5V134ZM186.438 134H141.5V136H186.438V134Z" fill="#1A1B1D"/>
<path d="M196.268 140.5L193.444 130.318H195.06L197.044 138.203H197.138L199.201 130.318H200.802L202.865 138.208H202.96L204.938 130.318H206.559L203.73 140.5H202.184L200.041 132.874H199.962L197.819 140.5H196.268ZM216.144 135.409C216.144 136.496 215.946 137.431 215.548 138.213C215.15 138.992 214.605 139.592 213.912 140.013C213.223 140.43 212.439 140.639 211.561 140.639C210.679 140.639 209.892 140.43 209.199 140.013C208.51 139.592 207.966 138.99 207.569 138.208C207.171 137.426 206.972 136.493 206.972 135.409C206.972 134.322 207.171 133.389 207.569 132.61C207.966 131.828 208.51 131.228 209.199 130.81C209.892 130.389 210.679 130.179 211.561 130.179C212.439 130.179 213.223 130.389 213.912 130.81C214.605 131.228 215.15 131.828 215.548 132.61C215.946 133.389 216.144 134.322 216.144 135.409ZM214.623 135.409C214.623 134.58 214.489 133.883 214.22 133.316C213.955 132.746 213.591 132.315 213.127 132.023C212.666 131.728 212.144 131.581 211.561 131.581C210.974 131.581 210.45 131.728 209.99 132.023C209.529 132.315 209.164 132.746 208.896 133.316C208.631 133.883 208.498 134.58 208.498 135.409C208.498 136.238 208.631 136.937 208.896 137.507C209.164 138.074 209.529 138.505 209.99 138.8C210.45 139.091 210.974 139.237 211.561 139.237C212.144 139.237 212.666 139.091 213.127 138.8C213.591 138.505 213.955 138.074 214.22 137.507C214.489 136.937 214.623 136.238 214.623 135.409ZM217.906 140.5V130.318H221.535C222.324 130.318 222.978 130.454 223.499 130.726C224.023 130.998 224.414 131.374 224.672 131.854C224.931 132.332 225.06 132.884 225.06 133.51C225.06 134.133 224.929 134.682 224.667 135.156C224.409 135.626 224.018 135.992 223.494 136.254C222.974 136.516 222.319 136.647 221.53 136.647H218.781V135.325H221.391C221.888 135.325 222.292 135.253 222.604 135.111C222.919 134.968 223.149 134.761 223.295 134.489C223.441 134.218 223.514 133.891 223.514 133.51C223.514 133.125 223.439 132.792 223.29 132.511C223.144 132.229 222.914 132.013 222.599 131.864C222.287 131.712 221.878 131.636 221.371 131.636H219.442V140.5H217.906ZM222.932 135.906L225.448 140.5H223.698L221.232 135.906H222.932ZM226.775 140.5V130.318H228.311V135.18H228.436L232.706 130.318H234.64L230.534 134.902L234.655 140.5H232.806L229.515 135.951L228.311 137.333V140.5H226.775ZM235.918 140.5V130.318H242.302V131.641H237.454V134.743H241.969V136.06H237.454V139.178H242.361V140.5H235.918ZM247.496 140.5H244.2V130.318H247.6C248.598 130.318 249.455 130.522 250.171 130.93C250.886 131.334 251.435 131.916 251.816 132.675C252.201 133.43 252.393 134.337 252.393 135.394C252.393 136.455 252.199 137.366 251.811 138.129C251.427 138.891 250.87 139.478 250.141 139.888C249.412 140.296 248.53 140.5 247.496 140.5ZM245.736 139.158H247.411C248.187 139.158 248.832 139.012 249.345 138.72C249.859 138.425 250.243 137.999 250.499 137.442C250.754 136.882 250.881 136.2 250.881 135.394C250.881 134.595 250.754 133.918 250.499 133.361C250.247 132.804 249.871 132.381 249.37 132.093C248.87 131.805 248.248 131.661 247.506 131.661H245.736V139.158ZM258.923 140.5V141.763H252.455V140.5H258.923ZM259.874 140.5V130.318H266.188V131.641H261.41V134.743H265.736V136.06H261.41V140.5H259.874ZM267.923 140.5V130.318H271.552C272.341 130.318 272.996 130.454 273.516 130.726C274.04 130.998 274.431 131.374 274.69 131.854C274.948 132.332 275.077 132.884 275.077 133.51C275.077 134.133 274.946 134.682 274.685 135.156C274.426 135.626 274.035 135.992 273.511 136.254C272.991 136.516 272.336 136.647 271.547 136.647H268.798V135.325H271.408C271.905 135.325 272.31 135.253 272.621 135.111C272.936 134.968 273.167 134.761 273.312 134.489C273.458 134.218 273.531 133.891 273.531 133.51C273.531 133.125 273.457 132.792 273.307 132.511C273.162 132.229 272.931 132.013 272.616 131.864C272.305 131.712 271.896 131.636 271.388 131.636H269.459V140.5H267.923ZM272.949 135.906L275.465 140.5H273.715L271.249 135.906H272.949ZM285.637 135.409C285.637 136.496 285.438 137.431 285.041 138.213C284.643 138.992 284.098 139.592 283.405 140.013C282.715 140.43 281.932 140.639 281.053 140.639C280.172 140.639 279.385 140.43 278.692 140.013C278.002 139.592 277.459 138.99 277.061 138.208C276.663 137.426 276.465 136.493 276.465 135.409C276.465 134.322 276.663 133.389 277.061 132.61C277.459 131.828 278.002 131.228 278.692 130.81C279.385 130.389 280.172 130.179 281.053 130.179C281.932 130.179 282.715 130.389 283.405 130.81C284.098 131.228 284.643 131.828 285.041 132.61C285.438 133.389 285.637 134.322 285.637 135.409ZM284.116 135.409C284.116 134.58 283.982 133.883 283.713 133.316C283.448 132.746 283.083 132.315 282.619 132.023C282.159 131.728 281.637 131.581 281.053 131.581C280.467 131.581 279.943 131.728 279.482 132.023C279.022 132.315 278.657 132.746 278.389 133.316C278.123 133.883 277.991 134.58 277.991 135.409C277.991 136.238 278.123 136.937 278.389 137.507C278.657 138.074 279.022 138.505 279.482 138.8C279.943 139.091 280.467 139.237 281.053 139.237C281.637 139.237 282.159 139.091 282.619 138.8C283.083 138.505 283.448 138.074 283.713 137.507C283.982 136.937 284.116 136.238 284.116 135.409ZM287.398 130.318H289.263L292.504 138.233H292.624L295.865 130.318H297.729V140.5H296.268V133.132H296.173L293.17 140.485H291.957L288.955 133.127H288.86V140.5H287.398V130.318Z" fill="black" fill-opacity="0.8"/>
<path d="M25.966 61V53.762H27.632V54.798C27.744 54.6113 27.8957 54.4317 28.087 54.259C28.283 54.0863 28.5233 53.9463 28.808 53.839C29.0927 53.7317 29.4263 53.678 29.809 53.678C30.257 53.678 30.6723 53.7667 31.055 53.944C31.4423 54.1213 31.7527 54.399 31.986 54.777C32.224 55.155 32.343 55.6427 32.343 56.24V61H30.635V56.443C30.635 55.967 30.5043 55.6147 30.243 55.386C29.9817 55.1527 29.6527 55.036 29.256 55.036C28.9853 55.036 28.7287 55.0827 28.486 55.176C28.2433 55.2647 28.045 55.4023 27.891 55.589C27.7417 55.771 27.667 55.9997 27.667 56.275V61H25.966ZM36.2211 61.14C35.7591 61.14 35.3438 61.056 34.9751 60.888C34.6111 60.7153 34.3241 60.4703 34.1141 60.153C33.9088 59.831 33.8061 59.4413 33.8061 58.984C33.8061 58.186 34.0931 57.584 34.6671 57.178C35.2458 56.772 36.1651 56.5597 37.4251 56.541L38.5101 56.513V56.023C38.5101 55.6403 38.3958 55.3417 38.1671 55.127C37.9431 54.9077 37.5931 54.8003 37.1171 54.805C36.7624 54.8097 36.4404 54.8937 36.1511 55.057C35.8618 55.2157 35.6704 55.484 35.5771 55.862H34.1281C34.1561 55.3673 34.2984 54.9543 34.5551 54.623C34.8164 54.287 35.1734 54.0373 35.6261 53.874C36.0788 53.706 36.6014 53.622 37.1941 53.622C37.8848 53.622 38.4471 53.713 38.8811 53.895C39.3151 54.077 39.6348 54.3407 39.8401 54.686C40.0454 55.0267 40.1481 55.4397 40.1481 55.925V61H38.7131L38.5731 59.698C38.3164 60.244 37.9874 60.622 37.5861 60.832C37.1894 61.0373 36.7344 61.14 36.2211 61.14ZM36.7741 59.985C36.9841 59.985 37.1918 59.9477 37.3971 59.873C37.6024 59.7937 37.7868 59.6887 37.9501 59.558C38.1181 59.4227 38.2511 59.2733 38.3491 59.11C38.4518 58.9467 38.5054 58.7763 38.5101 58.599V57.458L37.6211 57.472C37.1824 57.4767 36.7974 57.5233 36.4661 57.612C36.1394 57.7007 35.8851 57.843 35.7031 58.039C35.5211 58.2303 35.4301 58.487 35.4301 58.809C35.4301 59.1777 35.5584 59.467 35.8151 59.677C36.0718 59.8823 36.3914 59.985 36.7741 59.985ZM41.9621 61V53.762H43.6211V54.798C43.8311 54.4807 44.1158 54.2053 44.4751 53.972C44.8391 53.7387 45.3011 53.622 45.8611 53.622C46.1178 53.622 46.3768 53.6663 46.6381 53.755C46.9041 53.8437 47.1491 53.9743 47.3731 54.147C47.6018 54.3197 47.7838 54.5343 47.9191 54.791C48.1478 54.4503 48.4511 54.1703 48.8291 53.951C49.2118 53.7317 49.6411 53.622 50.1171 53.622C50.3784 53.622 50.6468 53.664 50.9221 53.748C51.2021 53.832 51.4588 53.972 51.6921 54.168C51.9254 54.364 52.1144 54.6323 52.2591 54.973C52.4038 55.309 52.4761 55.7313 52.4761 56.24V61H50.7751V56.443C50.7751 56.0837 50.7121 55.8013 50.5861 55.596C50.4601 55.3907 50.2968 55.246 50.0961 55.162C49.9001 55.0733 49.6901 55.029 49.4661 55.029C49.2654 55.029 49.0554 55.0687 48.8361 55.148C48.6214 55.2273 48.4371 55.358 48.2831 55.54C48.1338 55.722 48.0591 55.967 48.0591 56.275V61H46.3581V56.17C46.3581 55.918 46.2928 55.708 46.1621 55.54C46.0314 55.372 45.8658 55.246 45.6651 55.162C45.4691 55.0733 45.2684 55.029 45.0631 55.029C44.8531 55.029 44.6384 55.0733 44.4191 55.162C44.2044 55.2507 44.0248 55.386 43.8801 55.568C43.7354 55.75 43.6631 55.9857 43.6631 56.275V61H41.9621ZM57.5068 61.14C56.8115 61.14 56.1978 60.993 55.6658 60.699C55.1385 60.4003 54.7255 59.9757 54.4268 59.425C54.1328 58.8743 53.9858 58.2187 53.9858 57.458C53.9858 56.716 54.1188 56.058 54.3848 55.484C54.6555 54.9053 55.0451 54.4503 55.5538 54.119C56.0671 53.7877 56.6855 53.622 57.4088 53.622C58.1228 53.622 58.7225 53.7737 59.2078 54.077C59.6931 54.3803 60.0618 54.805 60.3138 55.351C60.5658 55.8923 60.6918 56.527 60.6918 57.255V57.773H55.6868C55.6821 58.1837 55.7475 58.5477 55.8828 58.865C56.0181 59.1823 56.2188 59.432 56.4848 59.614C56.7508 59.7913 57.0798 59.88 57.4718 59.88C57.8731 59.88 58.2208 59.7913 58.5148 59.614C58.8135 59.432 59.0118 59.1567 59.1098 58.788H60.6638C60.5798 59.292 60.3791 59.719 60.0618 60.069C59.7491 60.419 59.3665 60.685 58.9138 60.867C58.4658 61.049 57.9968 61.14 57.5068 61.14ZM55.6798 56.716H59.0818C59.0818 56.366 59.0188 56.051 58.8928 55.771C58.7715 55.4863 58.5871 55.2623 58.3398 55.099C58.0925 54.931 57.7798 54.847 57.4018 54.847C57.0285 54.847 56.7135 54.938 56.4568 55.12C56.2001 55.302 56.0065 55.5377 55.8758 55.827C55.7451 56.1117 55.6798 56.408 55.6798 56.716ZM62.0815 55.932V53.986H64.0065V55.932H62.0815ZM62.0815 60.958V59.026H64.0065V60.958H62.0815ZM69.3691 54.497L68.9001 50.878H70.7551L70.2651 54.497H69.3691ZM72.8324 61V50.878H76.4234C77.1514 50.878 77.8024 51.004 78.3764 51.256C78.9551 51.5033 79.4101 51.8697 79.7414 52.355C80.0728 52.8403 80.2384 53.4377 80.2384 54.147C80.2384 54.8143 80.0868 55.386 79.7834 55.862C79.4848 56.338 79.0671 56.702 78.5304 56.954C77.9938 57.206 77.3661 57.332 76.6474 57.332H74.5614V61H72.8324ZM74.5474 55.967H76.6054C77.1981 55.967 77.6811 55.7897 78.0544 55.435C78.4324 55.0803 78.6214 54.6183 78.6214 54.049C78.6214 53.4703 78.4254 53.0223 78.0334 52.705C77.6414 52.383 77.1491 52.222 76.5564 52.222H74.5474V55.967ZM83.5258 61.14C83.0638 61.14 82.6485 61.056 82.2798 60.888C81.9158 60.7153 81.6288 60.4703 81.4188 60.153C81.2135 59.831 81.1108 59.4413 81.1108 58.984C81.1108 58.186 81.3978 57.584 81.9718 57.178C82.5505 56.772 83.4698 56.5597 84.7298 56.541L85.8148 56.513V56.023C85.8148 55.6403 85.7005 55.3417 85.4718 55.127C85.2478 54.9077 84.8978 54.8003 84.4218 54.805C84.0671 54.8097 83.7451 54.8937 83.4558 55.057C83.1665 55.2157 82.9751 55.484 82.8818 55.862H81.4328C81.4608 55.3673 81.6031 54.9543 81.8598 54.623C82.1211 54.287 82.4781 54.0373 82.9308 53.874C83.3835 53.706 83.9061 53.622 84.4988 53.622C85.1895 53.622 85.7518 53.713 86.1858 53.895C86.6198 54.077 86.9395 54.3407 87.1448 54.686C87.3501 55.0267 87.4528 55.4397 87.4528 55.925V61H86.0178L85.8778 59.698C85.6211 60.244 85.2921 60.622 84.8908 60.832C84.4941 61.0373 84.0391 61.14 83.5258 61.14ZM84.0788 59.985C84.2888 59.985 84.4965 59.9477 84.7018 59.873C84.9071 59.7937 85.0915 59.6887 85.2548 59.558C85.4228 59.4227 85.5558 59.2733 85.6538 59.11C85.7565 58.9467 85.8101 58.7763 85.8148 58.599V57.458L84.9258 57.472C84.4871 57.4767 84.1021 57.5233 83.7708 57.612C83.4441 57.7007 83.1898 57.843 83.0078 58.039C82.8258 58.2303 82.7348 58.487 82.7348 58.809C82.7348 59.1777 82.8631 59.467 83.1198 59.677C83.3765 59.8823 83.6961 59.985 84.0788 59.985ZM91.8847 61.056C91.3107 61.056 90.865 60.9813 90.5477 60.832C90.235 60.678 90.018 60.461 89.8967 60.181C89.7753 59.901 89.7147 59.5673 89.7147 59.18V54.966H88.5387V53.762H89.7637L90.1907 51.613H91.4157V53.755H93.0327V54.966H91.4157L91.4227 59.117C91.4227 59.3317 91.446 59.4903 91.4927 59.593C91.544 59.691 91.6233 59.7563 91.7307 59.789C91.8427 59.817 91.9897 59.831 92.1717 59.831H93.0677V60.909C92.9697 60.9463 92.825 60.979 92.6337 61.007C92.447 61.0397 92.1973 61.056 91.8847 61.056ZM94.6398 61V53.762H96.2708V55.33C96.3875 54.9707 96.5532 54.665 96.7678 54.413C96.9872 54.1563 97.2438 53.9603 97.5378 53.825C97.8318 53.6897 98.1515 53.622 98.4968 53.622C98.5808 53.622 98.6625 53.6267 98.7418 53.636C98.8212 53.6453 98.8795 53.6617 98.9168 53.685V55.316C98.8655 55.2927 98.7978 55.2763 98.7138 55.267C98.6345 55.2577 98.5645 55.253 98.5038 55.253C98.1538 55.225 97.8435 55.239 97.5728 55.295C97.3068 55.351 97.0805 55.4467 96.8938 55.582C96.7118 55.7127 96.5742 55.8807 96.4808 56.086C96.3875 56.2867 96.3408 56.5223 96.3408 56.793V61H94.6398ZM100.301 61V53.762H101.932V61H100.301ZM100.273 52.495V50.885H101.96V52.495H100.273ZM106.92 61.14C106.257 61.14 105.667 60.9953 105.149 60.706C104.636 60.412 104.232 59.9873 103.938 59.432C103.644 58.872 103.497 58.1977 103.497 57.409C103.497 56.6577 103.635 55.9997 103.91 55.435C104.19 54.8657 104.584 54.4223 105.093 54.105C105.606 53.783 106.215 53.622 106.92 53.622C107.485 53.622 107.982 53.734 108.411 53.958C108.84 54.182 109.183 54.4923 109.44 54.889C109.701 55.2857 109.858 55.736 109.909 56.24H108.46C108.423 56.0207 108.341 55.813 108.215 55.617C108.089 55.4163 107.919 55.2553 107.704 55.134C107.494 55.008 107.237 54.945 106.934 54.945C106.388 54.945 105.947 55.1457 105.611 55.547C105.275 55.9483 105.107 56.5643 105.107 57.395C105.107 58.1603 105.266 58.7693 105.583 59.222C105.905 59.6747 106.365 59.901 106.962 59.901C107.261 59.901 107.517 59.8357 107.732 59.705C107.947 59.5697 108.115 59.404 108.236 59.208C108.362 59.0073 108.441 58.8067 108.474 58.606H109.888C109.846 59.096 109.694 59.5323 109.433 59.915C109.172 60.2977 108.826 60.5987 108.397 60.818C107.968 61.0327 107.475 61.14 106.92 61.14ZM111.456 61V50.598H113.15V57.045L116.153 53.762H118.022L115.404 56.59L118.155 61H116.426L114.326 57.647L113.15 58.879V61H111.456ZM119.271 54.497L118.802 50.878H120.657L120.167 54.497H119.271Z" fill="black"/>
<path d="M369.966 480V472.762H371.632V473.798C371.744 473.611 371.896 473.432 372.087 473.259C372.283 473.086 372.523 472.946 372.808 472.839C373.093 472.732 373.426 472.678 373.809 472.678C374.257 472.678 374.672 472.767 375.055 472.944C375.442 473.121 375.753 473.399 375.986 473.777C376.224 474.155 376.343 474.643 376.343 475.24V480H374.635V475.443C374.635 474.967 374.504 474.615 374.243 474.386C373.982 474.153 373.653 474.036 373.256 474.036C372.985 474.036 372.729 474.083 372.486 474.176C372.243 474.265 372.045 474.402 371.891 474.589C371.742 474.771 371.667 475 371.667 475.275V480H369.966ZM380.221 480.14C379.759 480.14 379.344 480.056 378.975 479.888C378.611 479.715 378.324 479.47 378.114 479.153C377.909 478.831 377.806 478.441 377.806 477.984C377.806 477.186 378.093 476.584 378.667 476.178C379.246 475.772 380.165 475.56 381.425 475.541L382.51 475.513V475.023C382.51 474.64 382.396 474.342 382.167 474.127C381.943 473.908 381.593 473.8 381.117 473.805C380.762 473.81 380.44 473.894 380.151 474.057C379.862 474.216 379.67 474.484 379.577 474.862H378.128C378.156 474.367 378.298 473.954 378.555 473.623C378.816 473.287 379.173 473.037 379.626 472.874C380.079 472.706 380.601 472.622 381.194 472.622C381.885 472.622 382.447 472.713 382.881 472.895C383.315 473.077 383.635 473.341 383.84 473.686C384.045 474.027 384.148 474.44 384.148 474.925V480H382.713L382.573 478.698C382.316 479.244 381.987 479.622 381.586 479.832C381.189 480.037 380.734 480.14 380.221 480.14ZM380.774 478.985C380.984 478.985 381.192 478.948 381.397 478.873C381.602 478.794 381.787 478.689 381.95 478.558C382.118 478.423 382.251 478.273 382.349 478.11C382.452 477.947 382.505 477.776 382.51 477.599V476.458L381.621 476.472C381.182 476.477 380.797 476.523 380.466 476.612C380.139 476.701 379.885 476.843 379.703 477.039C379.521 477.23 379.43 477.487 379.43 477.809C379.43 478.178 379.558 478.467 379.815 478.677C380.072 478.882 380.391 478.985 380.774 478.985ZM385.962 480V472.762H387.621V473.798C387.831 473.481 388.116 473.205 388.475 472.972C388.839 472.739 389.301 472.622 389.861 472.622C390.118 472.622 390.377 472.666 390.638 472.755C390.904 472.844 391.149 472.974 391.373 473.147C391.602 473.32 391.784 473.534 391.919 473.791C392.148 473.45 392.451 473.17 392.829 472.951C393.212 472.732 393.641 472.622 394.117 472.622C394.378 472.622 394.647 472.664 394.922 472.748C395.202 472.832 395.459 472.972 395.692 473.168C395.925 473.364 396.114 473.632 396.259 473.973C396.404 474.309 396.476 474.731 396.476 475.24V480H394.775V475.443C394.775 475.084 394.712 474.801 394.586 474.596C394.46 474.391 394.297 474.246 394.096 474.162C393.9 474.073 393.69 474.029 393.466 474.029C393.265 474.029 393.055 474.069 392.836 474.148C392.621 474.227 392.437 474.358 392.283 474.54C392.134 474.722 392.059 474.967 392.059 475.275V480H390.358V475.17C390.358 474.918 390.293 474.708 390.162 474.54C390.031 474.372 389.866 474.246 389.665 474.162C389.469 474.073 389.268 474.029 389.063 474.029C388.853 474.029 388.638 474.073 388.419 474.162C388.204 474.251 388.025 474.386 387.88 474.568C387.735 474.75 387.663 474.986 387.663 475.275V480H385.962ZM401.507 480.14C400.811 480.14 400.198 479.993 399.666 479.699C399.138 479.4 398.725 478.976 398.427 478.425C398.133 477.874 397.986 477.219 397.986 476.458C397.986 475.716 398.119 475.058 398.385 474.484C398.655 473.905 399.045 473.45 399.554 473.119C400.067 472.788 400.685 472.622 401.409 472.622C402.123 472.622 402.722 472.774 403.208 473.077C403.693 473.38 404.062 473.805 404.314 474.351C404.566 474.892 404.692 475.527 404.692 476.255V476.773H399.687C399.682 477.184 399.747 477.548 399.883 477.865C400.018 478.182 400.219 478.432 400.485 478.614C400.751 478.791 401.08 478.88 401.472 478.88C401.873 478.88 402.221 478.791 402.515 478.614C402.813 478.432 403.012 478.157 403.11 477.788H404.664C404.58 478.292 404.379 478.719 404.062 479.069C403.749 479.419 403.366 479.685 402.914 479.867C402.466 480.049 401.997 480.14 401.507 480.14ZM399.68 475.716H403.082C403.082 475.366 403.019 475.051 402.893 474.771C402.771 474.486 402.587 474.262 402.34 474.099C402.092 473.931 401.78 473.847 401.402 473.847C401.028 473.847 400.713 473.938 400.457 474.12C400.2 474.302 400.006 474.538 399.876 474.827C399.745 475.112 399.68 475.408 399.68 475.716ZM406.082 474.932V472.986H408.007V474.932H406.082ZM406.082 479.958V478.026H408.007V479.958H406.082ZM412.739 473.525L413.53 471.698L412.872 471.649V469.878H414.734V471.432L413.425 473.525H412.739ZM414.429 480L418.062 469.878H419.91L423.543 480H421.835L420.932 477.459H417.054L416.144 480H414.429ZM417.46 475.947H420.505L418.986 471.53L417.46 475.947ZM427.815 480.14C427.152 480.14 426.562 479.995 426.044 479.706C425.53 479.412 425.127 478.987 424.833 478.432C424.539 477.872 424.392 477.198 424.392 476.409C424.392 475.658 424.529 475 424.805 474.435C425.085 473.866 425.479 473.422 425.988 473.105C426.501 472.783 427.11 472.622 427.815 472.622C428.379 472.622 428.876 472.734 429.306 472.958C429.735 473.182 430.078 473.492 430.335 473.889C430.596 474.286 430.752 474.736 430.804 475.24H429.355C429.317 475.021 429.236 474.813 429.11 474.617C428.984 474.416 428.813 474.255 428.599 474.134C428.389 474.008 428.132 473.945 427.829 473.945C427.283 473.945 426.842 474.146 426.506 474.547C426.17 474.948 426.002 475.564 426.002 476.395C426.002 477.16 426.16 477.769 426.478 478.222C426.8 478.675 427.259 478.901 427.857 478.901C428.155 478.901 428.412 478.836 428.627 478.705C428.841 478.57 429.009 478.404 429.131 478.208C429.257 478.007 429.336 477.807 429.369 477.606H430.783C430.741 478.096 430.589 478.532 430.328 478.915C430.066 479.298 429.721 479.599 429.292 479.818C428.862 480.033 428.37 480.14 427.815 480.14ZM432.351 480V472.762H434.01V473.798C434.22 473.481 434.504 473.205 434.864 472.972C435.228 472.739 435.69 472.622 436.25 472.622C436.506 472.622 436.765 472.666 437.027 472.755C437.293 472.844 437.538 472.974 437.762 473.147C437.99 473.32 438.172 473.534 438.308 473.791C438.536 473.45 438.84 473.17 439.218 472.951C439.6 472.732 440.03 472.622 440.506 472.622C440.767 472.622 441.035 472.664 441.311 472.748C441.591 472.832 441.847 472.972 442.081 473.168C442.314 473.364 442.503 473.632 442.648 473.973C442.792 474.309 442.865 474.731 442.865 475.24V480H441.164V475.443C441.164 475.084 441.101 474.801 440.975 474.596C440.849 474.391 440.685 474.246 440.485 474.162C440.289 474.073 440.079 474.029 439.855 474.029C439.654 474.029 439.444 474.069 439.225 474.148C439.01 474.227 438.826 474.358 438.672 474.54C438.522 474.722 438.448 474.967 438.448 475.275V480H436.747V475.17C436.747 474.918 436.681 474.708 436.551 474.54C436.42 474.372 436.254 474.246 436.054 474.162C435.858 474.073 435.657 474.029 435.452 474.029C435.242 474.029 435.027 474.073 434.808 474.162C434.593 474.251 434.413 474.386 434.269 474.568C434.124 474.75 434.052 474.986 434.052 475.275V480H432.351ZM447.895 480.14C447.2 480.14 446.586 479.993 446.054 479.699C445.527 479.4 445.114 478.976 444.815 478.425C444.521 477.874 444.374 477.219 444.374 476.458C444.374 475.716 444.507 475.058 444.773 474.484C445.044 473.905 445.434 473.45 445.942 473.119C446.456 472.788 447.074 472.622 447.797 472.622C448.511 472.622 449.111 472.774 449.596 473.077C450.082 473.38 450.45 473.805 450.702 474.351C450.954 474.892 451.08 475.527 451.08 476.255V476.773H446.075C446.071 477.184 446.136 477.548 446.271 477.865C446.407 478.182 446.607 478.432 446.873 478.614C447.139 478.791 447.468 478.88 447.86 478.88C448.262 478.88 448.609 478.791 448.903 478.614C449.202 478.432 449.4 478.157 449.498 477.788H451.052C450.968 478.292 450.768 478.719 450.45 479.069C450.138 479.419 449.755 479.685 449.302 479.867C448.854 480.049 448.385 480.14 447.895 480.14ZM446.068 475.716H449.47C449.47 475.366 449.407 475.051 449.281 474.771C449.16 474.486 448.976 474.262 448.728 474.099C448.481 473.931 448.168 473.847 447.79 473.847C447.417 473.847 447.102 473.938 446.845 474.12C446.589 474.302 446.395 474.538 446.264 474.827C446.134 475.112 446.068 475.408 446.068 475.716ZM451.895 473.525L452.686 471.698L452.028 471.649V469.878H453.89V471.432L452.581 473.525H451.895Z" fill="black"/>
<path d="M383.848 37V30.966H382.42V29.762H383.848V28.684C383.848 28.1053 384.007 27.6597 384.324 27.347C384.646 27.0343 385.11 26.878 385.717 26.878H387.243L387.25 28.04H386.242C385.967 28.04 385.778 28.1123 385.675 28.257C385.572 28.397 385.521 28.6187 385.521 28.922V29.762H387.18V30.966H385.549V37H383.848ZM388.517 37V29.762H390.148V31.33C390.264 30.9707 390.43 30.665 390.645 30.413C390.864 30.1563 391.121 29.9603 391.415 29.825C391.709 29.6897 392.028 29.622 392.374 29.622C392.458 29.622 392.539 29.6267 392.619 29.636C392.698 29.6453 392.756 29.6617 392.794 29.685V31.316C392.742 31.2927 392.675 31.2763 392.591 31.267C392.511 31.2577 392.441 31.253 392.381 31.253C392.031 31.225 391.72 31.239 391.45 31.295C391.184 31.351 390.957 31.4467 390.771 31.582C390.589 31.7127 390.451 31.8807 390.358 32.086C390.264 32.2867 390.218 32.5223 390.218 32.793V37H388.517ZM397.133 37.14C396.442 37.14 395.84 36.993 395.327 36.699C394.814 36.4003 394.415 35.9733 394.13 35.418C393.85 34.8627 393.71 34.1953 393.71 33.416C393.71 32.66 393.848 31.9973 394.123 31.428C394.398 30.8587 394.79 30.4153 395.299 30.098C395.812 29.7807 396.426 29.622 397.14 29.622C397.831 29.622 398.43 29.7737 398.939 30.077C399.448 30.3803 399.84 30.8143 400.115 31.379C400.395 31.9437 400.535 32.6227 400.535 33.416C400.535 34.1487 400.402 34.795 400.136 35.355C399.875 35.9103 399.49 36.3467 398.981 36.664C398.477 36.9813 397.861 37.14 397.133 37.14ZM397.14 35.845C397.532 35.845 397.854 35.7377 398.106 35.523C398.363 35.3083 398.554 35.0143 398.68 34.641C398.806 34.2677 398.869 33.843 398.869 33.367C398.869 32.9237 398.813 32.5153 398.701 32.142C398.589 31.7687 398.405 31.47 398.148 31.246C397.896 31.0173 397.56 30.903 397.14 30.903C396.743 30.903 396.414 31.008 396.153 31.218C395.896 31.4233 395.705 31.7127 395.579 32.086C395.453 32.4547 395.39 32.8817 395.39 33.367C395.39 33.8057 395.446 34.214 395.558 34.592C395.67 34.9653 395.854 35.2687 396.111 35.502C396.368 35.7307 396.711 35.845 397.14 35.845ZM402.093 37V29.762H403.752V30.798C403.962 30.4807 404.247 30.2053 404.606 29.972C404.97 29.7387 405.432 29.622 405.992 29.622C406.249 29.622 406.508 29.6663 406.769 29.755C407.035 29.8437 407.28 29.9743 407.504 30.147C407.733 30.3197 407.915 30.5343 408.05 30.791C408.279 30.4503 408.582 30.1703 408.96 29.951C409.343 29.7317 409.772 29.622 410.248 29.622C410.509 29.622 410.778 29.664 411.053 29.748C411.333 29.832 411.59 29.972 411.823 30.168C412.056 30.364 412.245 30.6323 412.39 30.973C412.535 31.309 412.607 31.7313 412.607 32.24V37H410.906V32.443C410.906 32.0837 410.843 31.8013 410.717 31.596C410.591 31.3907 410.428 31.246 410.227 31.162C410.031 31.0733 409.821 31.029 409.597 31.029C409.396 31.029 409.186 31.0687 408.967 31.148C408.752 31.2273 408.568 31.358 408.414 31.54C408.265 31.722 408.19 31.967 408.19 32.275V37H406.489V32.17C406.489 31.918 406.424 31.708 406.293 31.54C406.162 31.372 405.997 31.246 405.796 31.162C405.6 31.0733 405.399 31.029 405.194 31.029C404.984 31.029 404.769 31.0733 404.55 31.162C404.335 31.2507 404.156 31.386 404.011 31.568C403.866 31.75 403.794 31.9857 403.794 32.275V37H402.093ZM414.201 31.932V29.986H416.126V31.932H414.201ZM414.201 36.958V35.026H416.126V36.958H414.201ZM420.984 37V36.09V35.621C420.984 35.103 421.08 34.6573 421.271 34.284C421.463 33.906 421.717 33.577 422.034 33.297C422.352 33.017 422.699 32.7697 423.077 32.555C423.46 32.3357 423.838 32.1303 424.211 31.939C424.589 31.743 424.937 31.5423 425.254 31.337C425.572 31.127 425.826 30.8937 426.017 30.637C426.213 30.3803 426.311 30.0747 426.311 29.72C426.311 29.2673 426.15 28.8987 425.828 28.614C425.511 28.3247 425.079 28.18 424.533 28.18C423.955 28.18 423.476 28.3457 423.098 28.677C422.725 29.0083 422.503 29.475 422.433 30.077H420.781C420.791 29.461 420.938 28.901 421.222 28.397C421.507 27.893 421.929 27.4917 422.489 27.193C423.049 26.8897 423.747 26.738 424.582 26.738C425.306 26.738 425.929 26.864 426.451 27.116C426.979 27.3633 427.385 27.711 427.669 28.159C427.959 28.6023 428.103 29.1203 428.103 29.713C428.103 30.231 428.008 30.6743 427.816 31.043C427.63 31.4117 427.38 31.7313 427.067 32.002C426.759 32.268 426.419 32.5037 426.045 32.709C425.677 32.9143 425.306 33.108 424.932 33.29C424.564 33.4673 424.223 33.654 423.91 33.85C423.602 34.0413 423.353 34.2607 423.161 34.508C422.975 34.7553 422.881 35.0517 422.881 35.397V35.544H428.124V37H420.984ZM433.209 37.154C432.037 37.154 431.116 36.713 430.444 35.831C429.776 34.949 429.443 33.6633 429.443 31.974C429.443 30.8353 429.597 29.8787 429.905 29.104C430.213 28.3247 430.649 27.7367 431.214 27.34C431.778 26.9387 432.446 26.738 433.216 26.738C434.373 26.738 435.288 27.1837 435.96 28.075C436.636 28.9617 436.975 30.2567 436.975 31.96C436.975 33.654 436.639 34.9443 435.967 35.831C435.299 36.713 434.38 37.154 433.209 37.154ZM433.216 35.733C433.874 35.733 434.364 35.4413 434.686 34.858C435.008 34.2747 435.169 33.311 435.169 31.967C435.169 30.595 435.005 29.6103 434.679 29.013C434.352 28.4157 433.862 28.117 433.209 28.117C432.555 28.117 432.061 28.418 431.725 29.02C431.393 29.622 431.228 30.6043 431.228 31.967C431.228 33.3063 431.393 34.27 431.725 34.858C432.061 35.4413 432.558 35.733 433.216 35.733ZM441.959 37.154C440.787 37.154 439.866 36.713 439.194 35.831C438.526 34.949 438.193 33.6633 438.193 31.974C438.193 30.8353 438.347 29.8787 438.655 29.104C438.963 28.3247 439.399 27.7367 439.964 27.34C440.528 26.9387 441.196 26.738 441.966 26.738C443.123 26.738 444.038 27.1837 444.71 28.075C445.386 28.9617 445.725 30.2567 445.725 31.96C445.725 33.654 445.389 34.9443 444.717 35.831C444.049 36.713 443.13 37.154 441.959 37.154ZM441.966 35.733C442.624 35.733 443.114 35.4413 443.436 34.858C443.758 34.2747 443.919 33.311 443.919 31.967C443.919 30.595 443.755 29.6103 443.429 29.013C443.102 28.4157 442.612 28.117 441.959 28.117C441.305 28.117 440.811 28.418 440.475 29.02C440.143 29.622 439.978 30.6043 439.978 31.967C439.978 33.3063 440.143 34.27 440.475 34.858C440.811 35.4413 441.308 35.733 441.966 35.733ZM448.866 37V29.202H446.99V28.187C447.583 28.187 448.052 28.138 448.397 28.04C448.747 27.9373 449.002 27.788 449.16 27.592C449.324 27.396 449.417 27.158 449.44 26.878H450.602V37H448.866ZM385.871 61.056C385.297 61.056 384.851 60.9813 384.534 60.832C384.221 60.678 384.004 60.461 383.883 60.181C383.762 59.901 383.701 59.5673 383.701 59.18V54.966H382.525V53.762H383.75L384.177 51.613H385.402V53.755H387.019V54.966H385.402L385.409 59.117C385.409 59.3317 385.432 59.4903 385.479 59.593C385.53 59.691 385.61 59.7563 385.717 59.789C385.829 59.817 385.976 59.831 386.158 59.831H387.054V60.909C386.956 60.9463 386.811 60.979 386.62 61.007C386.433 61.0397 386.184 61.056 385.871 61.056ZM391.459 61.14C390.768 61.14 390.166 60.993 389.653 60.699C389.14 60.4003 388.741 59.9733 388.456 59.418C388.176 58.8627 388.036 58.1953 388.036 57.416C388.036 56.66 388.174 55.9973 388.449 55.428C388.724 54.8587 389.116 54.4153 389.625 54.098C390.138 53.7807 390.752 53.622 391.466 53.622C392.157 53.622 392.756 53.7737 393.265 54.077C393.774 54.3803 394.166 54.8143 394.441 55.379C394.721 55.9437 394.861 56.6227 394.861 57.416C394.861 58.1487 394.728 58.795 394.462 59.355C394.201 59.9103 393.816 60.3467 393.307 60.664C392.803 60.9813 392.187 61.14 391.459 61.14ZM391.466 59.845C391.858 59.845 392.18 59.7377 392.432 59.523C392.689 59.3083 392.88 59.0143 393.006 58.641C393.132 58.2677 393.195 57.843 393.195 57.367C393.195 56.9237 393.139 56.5153 393.027 56.142C392.915 55.7687 392.731 55.47 392.474 55.246C392.222 55.0173 391.886 54.903 391.466 54.903C391.069 54.903 390.74 55.008 390.479 55.218C390.222 55.4233 390.031 55.7127 389.905 56.086C389.779 56.4547 389.716 56.8817 389.716 57.367C389.716 57.8057 389.772 58.214 389.884 58.592C389.996 58.9653 390.18 59.2687 390.437 59.502C390.694 59.7307 391.037 59.845 391.466 59.845ZM396.181 55.932V53.986H398.106V55.932H396.181ZM396.181 60.958V59.026H398.106V60.958H396.181ZM402.965 61V60.09V59.621C402.965 59.103 403.06 58.6573 403.252 58.284C403.443 57.906 403.697 57.577 404.015 57.297C404.332 57.017 404.68 56.7697 405.058 56.555C405.44 56.3357 405.818 56.1303 406.192 55.939C406.57 55.743 406.917 55.5423 407.235 55.337C407.552 55.127 407.806 54.8937 407.998 54.637C408.194 54.3803 408.292 54.0747 408.292 53.72C408.292 53.2673 408.131 52.8987 407.809 52.614C407.491 52.3247 407.06 52.18 406.514 52.18C405.935 52.18 405.457 52.3457 405.079 52.677C404.705 53.0083 404.484 53.475 404.414 54.077H402.762C402.771 53.461 402.918 52.901 403.203 52.397C403.487 51.893 403.91 51.4917 404.47 51.193C405.03 50.8897 405.727 50.738 406.563 50.738C407.286 50.738 407.909 50.864 408.432 51.116C408.959 51.3633 409.365 51.711 409.65 52.159C409.939 52.6023 410.084 53.1203 410.084 53.713C410.084 54.231 409.988 54.6743 409.797 55.043C409.61 55.4117 409.36 55.7313 409.048 56.002C408.74 56.268 408.399 56.5037 408.026 56.709C407.657 56.9143 407.286 57.108 406.913 57.29C406.544 57.4673 406.203 57.654 405.891 57.85C405.583 58.0413 405.333 58.2607 405.142 58.508C404.955 58.7553 404.862 59.0517 404.862 59.397V59.544H410.105V61H402.965ZM415.189 61.154C414.018 61.154 413.096 60.713 412.424 59.831C411.757 58.949 411.423 57.6633 411.423 55.974C411.423 54.8353 411.577 53.8787 411.885 53.104C412.193 52.3247 412.63 51.7367 413.194 51.34C413.759 50.9387 414.426 50.738 415.196 50.738C416.354 50.738 417.268 51.1837 417.94 52.075C418.617 52.9617 418.955 54.2567 418.955 55.96C418.955 57.654 418.619 58.9443 417.947 59.831C417.28 60.713 416.361 61.154 415.189 61.154ZM415.196 59.733C415.854 59.733 416.344 59.4413 416.666 58.858C416.988 58.2747 417.149 57.311 417.149 55.967C417.149 54.595 416.986 53.6103 416.659 53.013C416.333 52.4157 415.843 52.117 415.189 52.117C414.536 52.117 414.041 52.418 413.705 53.02C413.374 53.622 413.208 54.6043 413.208 55.967C413.208 57.3063 413.374 58.27 413.705 58.858C414.041 59.4413 414.538 59.733 415.196 59.733ZM423.939 61.154C422.768 61.154 421.846 60.713 421.174 59.831C420.507 58.949 420.173 57.6633 420.173 55.974C420.173 54.8353 420.327 53.8787 420.635 53.104C420.943 52.3247 421.38 51.7367 421.944 51.34C422.509 50.9387 423.176 50.738 423.946 50.738C425.104 50.738 426.018 51.1837 426.69 52.075C427.367 52.9617 427.705 54.2567 427.705 55.96C427.705 57.654 427.369 58.9443 426.697 59.831C426.03 60.713 425.111 61.154 423.939 61.154ZM423.946 59.733C424.604 59.733 425.094 59.4413 425.416 58.858C425.738 58.2747 425.899 57.311 425.899 55.967C425.899 54.595 425.736 53.6103 425.409 53.013C425.083 52.4157 424.593 52.117 423.939 52.117C423.286 52.117 422.791 52.418 422.455 53.02C422.124 53.622 421.958 54.6043 421.958 55.967C421.958 57.3063 422.124 58.27 422.455 58.858C422.791 59.4413 423.288 59.733 423.946 59.733ZM433.108 61.154C432.464 61.154 431.864 61.049 431.309 60.839C430.758 60.6243 430.282 60.3303 429.881 59.957C429.484 59.5837 429.188 59.1567 428.992 58.676L430.371 57.948C430.543 58.2933 430.749 58.6037 430.987 58.879C431.229 59.1543 431.512 59.3713 431.834 59.53C432.16 59.684 432.534 59.761 432.954 59.761C433.612 59.761 434.139 59.579 434.536 59.215C434.937 58.8463 435.138 58.3563 435.138 57.745C435.138 57.367 435.044 57.031 434.858 56.737C434.676 56.443 434.426 56.2143 434.109 56.051C433.796 55.883 433.439 55.799 433.038 55.799C432.8 55.799 432.576 55.82 432.366 55.862C432.16 55.904 431.953 55.9833 431.743 56.1C431.533 56.212 431.306 56.3823 431.064 56.611C431.017 56.6343 430.982 56.646 430.959 56.646C430.94 56.6413 430.905 56.6273 430.854 56.604L429.545 56.072L430.007 50.878H436.3L436.237 52.299H431.393L431.162 55.113C431.521 54.861 431.883 54.679 432.247 54.567C432.611 54.455 433.012 54.399 433.451 54.399C434.095 54.399 434.68 54.525 435.208 54.777C435.735 55.029 436.155 55.4 436.468 55.89C436.78 56.38 436.937 56.9797 436.937 57.689C436.937 58.3983 436.778 59.012 436.461 59.53C436.148 60.048 435.705 60.4493 435.131 60.734C434.561 61.014 433.887 61.154 433.108 61.154Z" fill="black"/>
<path d="M678.871 64.056C678.297 64.056 677.851 63.9813 677.534 63.832C677.221 63.678 677.004 63.461 676.883 63.181C676.762 62.901 676.701 62.5673 676.701 62.18V57.966H675.525V56.762H676.75L677.177 54.613H678.402V56.755H680.019V57.966H678.402L678.409 62.117C678.409 62.3317 678.432 62.4903 678.479 62.593C678.53 62.691 678.61 62.7563 678.717 62.789C678.829 62.817 678.976 62.831 679.158 62.831H680.054V63.909C679.956 63.9463 679.811 63.979 679.62 64.007C679.433 64.0397 679.184 64.056 678.871 64.056ZM681.654 64V56.762H683.285V64H681.654ZM681.626 55.495V53.885H683.313V55.495H681.626ZM688.141 64.056C687.567 64.056 687.121 63.9813 686.804 63.832C686.491 63.678 686.274 63.461 686.153 63.181C686.031 62.901 685.971 62.5673 685.971 62.18V57.966H684.795V56.762H686.02L686.447 54.613H687.672V56.755H689.289V57.966H687.672L687.679 62.117C687.679 62.3317 687.702 62.4903 687.749 62.593C687.8 62.691 687.879 62.7563 687.987 62.789C688.099 62.817 688.246 62.831 688.428 62.831H689.324V63.909C689.226 63.9463 689.081 63.979 688.89 64.007C688.703 64.0397 688.453 64.056 688.141 64.056ZM692.982 64.105C692.515 64.105 692.142 64.0467 691.862 63.93C691.582 63.8133 691.372 63.657 691.232 63.461C691.092 63.265 691.001 63.0457 690.959 62.803C690.917 62.5557 690.896 62.3037 690.896 62.047V53.598H692.562V61.851C692.562 62.1637 692.625 62.4063 692.751 62.579C692.881 62.7517 693.091 62.852 693.381 62.88L693.745 62.894V63.965C693.619 64.0023 693.49 64.035 693.36 64.063C693.229 64.091 693.103 64.105 692.982 64.105ZM698.155 64.14C697.46 64.14 696.846 63.993 696.314 63.699C695.787 63.4003 695.374 62.9757 695.075 62.425C694.781 61.8743 694.634 61.2187 694.634 60.458C694.634 59.716 694.767 59.058 695.033 58.484C695.304 57.9053 695.694 57.4503 696.202 57.119C696.716 56.7877 697.334 56.622 698.057 56.622C698.771 56.622 699.371 56.7737 699.856 57.077C700.342 57.3803 700.71 57.805 700.962 58.351C701.214 58.8923 701.34 59.527 701.34 60.255V60.773H696.335C696.331 61.1837 696.396 61.5477 696.531 61.865C696.667 62.1823 696.867 62.432 697.133 62.614C697.399 62.7913 697.728 62.88 698.12 62.88C698.522 62.88 698.869 62.7913 699.163 62.614C699.462 62.432 699.66 62.1567 699.758 61.788H701.312C701.228 62.292 701.028 62.719 700.71 63.069C700.398 63.419 700.015 63.685 699.562 63.867C699.114 64.049 698.645 64.14 698.155 64.14ZM696.328 59.716H699.73C699.73 59.366 699.667 59.051 699.541 58.771C699.42 58.4863 699.236 58.2623 698.988 58.099C698.741 57.931 698.428 57.847 698.05 57.847C697.677 57.847 697.362 57.938 697.105 58.12C696.849 58.302 696.655 58.5377 696.524 58.827C696.394 59.1117 696.328 59.408 696.328 59.716ZM702.73 58.932V56.986H704.655V58.932H702.73ZM702.73 63.958V62.026H704.655V63.958H702.73ZM713.546 64.14C713.042 64.14 712.559 64.0793 712.097 63.958C711.635 63.832 711.212 63.6477 710.83 63.405C710.452 63.1577 710.139 62.852 709.892 62.488C709.644 62.1193 709.493 61.69 709.437 61.2H711.201C711.275 61.5407 711.422 61.8277 711.642 62.061C711.866 62.2943 712.148 62.4717 712.489 62.593C712.829 62.7143 713.21 62.775 713.63 62.775C714.003 62.775 714.351 62.719 714.673 62.607C714.995 62.495 715.256 62.3293 715.457 62.11C715.657 61.886 715.757 61.6107 715.757 61.284C715.757 60.9153 715.627 60.6283 715.366 60.423C715.109 60.213 714.74 60.0473 714.26 59.926L712.279 59.457C711.765 59.3403 711.317 59.17 710.935 58.946C710.557 58.722 710.263 58.428 710.053 58.064C709.843 57.6953 709.738 57.245 709.738 56.713C709.738 56.1063 709.903 55.5813 710.235 55.138C710.571 54.6947 711.026 54.354 711.6 54.116C712.174 53.8733 712.82 53.752 713.539 53.752C714.36 53.752 715.053 53.8897 715.618 54.165C716.182 54.4357 716.612 54.7997 716.906 55.257C717.2 55.7143 717.349 56.216 717.354 56.762H715.632C715.594 56.356 715.475 56.0363 715.275 55.803C715.074 55.565 714.82 55.3923 714.512 55.285C714.204 55.1777 713.863 55.124 713.49 55.124C712.827 55.124 712.335 55.2663 712.013 55.551C711.691 55.8357 711.53 56.1693 711.53 56.552C711.53 56.9113 711.649 57.196 711.887 57.406C712.125 57.616 712.489 57.7793 712.979 57.896L714.862 58.337C715.492 58.4677 715.998 58.6683 716.381 58.939C716.763 59.2097 717.041 59.5317 717.214 59.905C717.391 60.2737 717.48 60.682 717.48 61.13C717.48 61.718 717.312 62.2383 716.976 62.691C716.644 63.1437 716.185 63.4983 715.597 63.755C715.009 64.0117 714.325 64.14 713.546 64.14ZM722.193 64.14C721.503 64.14 720.901 63.993 720.387 63.699C719.874 63.4003 719.475 62.9733 719.19 62.418C718.91 61.8627 718.77 61.1953 718.77 60.416C718.77 59.66 718.908 58.9973 719.183 58.428C719.459 57.8587 719.851 57.4153 720.359 57.098C720.873 56.7807 721.486 56.622 722.2 56.622C722.891 56.622 723.491 56.7737 723.999 57.077C724.508 57.3803 724.9 57.8143 725.175 58.379C725.455 58.9437 725.595 59.6227 725.595 60.416C725.595 61.1487 725.462 61.795 725.196 62.355C724.935 62.9103 724.55 63.3467 724.041 63.664C723.537 63.9813 722.921 64.14 722.193 64.14ZM722.2 62.845C722.592 62.845 722.914 62.7377 723.166 62.523C723.423 62.3083 723.614 62.0143 723.74 61.641C723.866 61.2677 723.929 60.843 723.929 60.367C723.929 59.9237 723.873 59.5153 723.761 59.142C723.649 58.7687 723.465 58.47 723.208 58.246C722.956 58.0173 722.62 57.903 722.2 57.903C721.804 57.903 721.475 58.008 721.213 58.218C720.957 58.4233 720.765 58.7127 720.639 59.086C720.513 59.4547 720.45 59.8817 720.45 60.367C720.45 60.8057 720.506 61.214 720.618 61.592C720.73 61.9653 720.915 62.2687 721.171 62.502C721.428 62.7307 721.771 62.845 722.2 62.845ZM727.789 64V57.966H726.361V56.762H727.789V55.684C727.789 55.1053 727.948 54.6597 728.265 54.347C728.587 54.0343 729.052 53.878 729.658 53.878H731.184L731.191 55.04H730.183C729.908 55.04 729.719 55.1123 729.616 55.257C729.514 55.397 729.462 55.6187 729.462 55.922V56.762H731.121V57.966H729.49V64H727.789ZM735.076 64.056C734.502 64.056 734.056 63.9813 733.739 63.832C733.426 63.678 733.209 63.461 733.088 63.181C732.967 62.901 732.906 62.5673 732.906 62.18V57.966H731.73V56.762H732.955L733.382 54.613H734.607V56.755H736.224V57.966H734.607L734.614 62.117C734.614 62.3317 734.637 62.4903 734.684 62.593C734.735 62.691 734.815 62.7563 734.922 62.789C735.034 62.817 735.181 62.831 735.363 62.831H736.259V63.909C736.161 63.9463 736.016 63.979 735.825 64.007C735.638 64.0397 735.389 64.056 735.076 64.056ZM739.441 64L737.145 56.762H738.678L740.183 61.739H740.267L741.73 56.762H742.969L744.474 61.732H744.558L746.014 56.762H747.575L745.279 64H743.809L742.325 59.177L740.876 64H739.441ZM750.684 64.14C750.222 64.14 749.807 64.056 749.438 63.888C749.074 63.7153 748.787 63.4703 748.577 63.153C748.372 62.831 748.269 62.4413 748.269 61.984C748.269 61.186 748.556 60.584 749.13 60.178C749.709 59.772 750.628 59.5597 751.888 59.541L752.973 59.513V59.023C752.973 58.6403 752.859 58.3417 752.63 58.127C752.406 57.9077 752.056 57.8003 751.58 57.805C751.225 57.8097 750.903 57.8937 750.614 58.057C750.325 58.2157 750.133 58.484 750.04 58.862H748.591C748.619 58.3673 748.761 57.9543 749.018 57.623C749.279 57.287 749.636 57.0373 750.089 56.874C750.542 56.706 751.064 56.622 751.657 56.622C752.348 56.622 752.91 56.713 753.344 56.895C753.778 57.077 754.098 57.3407 754.303 57.686C754.508 58.0267 754.611 58.4397 754.611 58.925V64H753.176L753.036 62.698C752.779 63.244 752.45 63.622 752.049 63.832C751.652 64.0373 751.197 64.14 750.684 64.14ZM751.237 62.985C751.447 62.985 751.655 62.9477 751.86 62.873C752.065 62.7937 752.25 62.6887 752.413 62.558C752.581 62.4227 752.714 62.2733 752.812 62.11C752.915 61.9467 752.968 61.7763 752.973 61.599V60.458L752.084 60.472C751.645 60.4767 751.26 60.5233 750.929 60.612C750.602 60.7007 750.348 60.843 750.166 61.039C749.984 61.2303 749.893 61.487 749.893 61.809C749.893 62.1777 750.021 62.467 750.278 62.677C750.535 62.8823 750.854 62.985 751.237 62.985ZM756.425 64V56.762H758.056V58.33C758.173 57.9707 758.338 57.665 758.553 57.413C758.772 57.1563 759.029 56.9603 759.323 56.825C759.617 56.6897 759.937 56.622 760.282 56.622C760.366 56.622 760.448 56.6267 760.527 56.636C760.606 56.6453 760.665 56.6617 760.702 56.685V58.316C760.651 58.2927 760.583 58.2763 760.499 58.267C760.42 58.2577 760.35 58.253 760.289 58.253C759.939 58.225 759.629 58.239 759.358 58.295C759.092 58.351 758.866 58.4467 758.679 58.582C758.497 58.7127 758.359 58.8807 758.266 59.086C758.173 59.2867 758.126 59.5223 758.126 59.793V64H756.425ZM765.202 64.14C764.507 64.14 763.893 63.993 763.361 63.699C762.834 63.4003 762.421 62.9757 762.122 62.425C761.828 61.8743 761.681 61.2187 761.681 60.458C761.681 59.716 761.814 59.058 762.08 58.484C762.351 57.9053 762.74 57.4503 763.249 57.119C763.762 56.7877 764.381 56.622 765.104 56.622C765.818 56.622 766.418 56.7737 766.903 57.077C767.388 57.3803 767.757 57.805 768.009 58.351C768.261 58.8923 768.387 59.527 768.387 60.255V60.773H763.382C763.377 61.1837 763.443 61.5477 763.578 61.865C763.713 62.1823 763.914 62.432 764.18 62.614C764.446 62.7913 764.775 62.88 765.167 62.88C765.568 62.88 765.916 62.7913 766.21 62.614C766.509 62.432 766.707 62.1567 766.805 61.788H768.359C768.275 62.292 768.074 62.719 767.757 63.069C767.444 63.419 767.062 63.685 766.609 63.867C766.161 64.049 765.692 64.14 765.202 64.14ZM763.375 59.716H766.777C766.777 59.366 766.714 59.051 766.588 58.771C766.467 58.4863 766.282 58.2623 766.035 58.099C765.788 57.931 765.475 57.847 765.097 57.847C764.724 57.847 764.409 57.938 764.152 58.12C763.895 58.302 763.702 58.5377 763.571 58.827C763.44 59.1117 763.375 59.408 763.375 59.716ZM775.779 64.14C774.822 64.14 774.071 63.811 773.525 63.153C772.979 62.495 772.706 61.5593 772.706 60.346C772.706 59.59 772.816 58.9343 773.035 58.379C773.259 57.819 773.588 57.3873 774.022 57.084C774.456 56.776 774.99 56.622 775.625 56.622C775.924 56.622 776.194 56.6593 776.437 56.734C776.684 56.804 776.904 56.8973 777.095 57.014C777.286 57.1307 777.447 57.259 777.578 57.399C777.713 57.539 777.818 57.679 777.893 57.819V53.598H779.608V64H778.348L778.159 62.516C778.098 62.6887 778.012 62.8707 777.9 63.062C777.793 63.2487 777.646 63.4237 777.459 63.587C777.277 63.7503 777.048 63.8833 776.773 63.986C776.498 64.0887 776.166 64.14 775.779 64.14ZM776.129 62.887C776.74 62.887 777.186 62.6887 777.466 62.292C777.751 61.8907 777.893 61.228 777.893 60.304C777.888 59.7767 777.823 59.3333 777.697 58.974C777.576 58.6147 777.389 58.344 777.137 58.162C776.885 57.98 776.556 57.889 776.15 57.889C775.637 57.889 775.214 58.078 774.883 58.456C774.556 58.834 774.393 59.45 774.393 60.304C774.393 61.1533 774.545 61.7973 774.848 62.236C775.151 62.67 775.578 62.887 776.129 62.887ZM784.726 64.14C784.03 64.14 783.417 63.993 782.885 63.699C782.357 63.4003 781.944 62.9757 781.646 62.425C781.352 61.8743 781.205 61.2187 781.205 60.458C781.205 59.716 781.338 59.058 781.604 58.484C781.874 57.9053 782.264 57.4503 782.773 57.119C783.286 56.7877 783.904 56.622 784.628 56.622C785.342 56.622 785.941 56.7737 786.427 57.077C786.912 57.3803 787.281 57.805 787.533 58.351C787.785 58.8923 787.911 59.527 787.911 60.255V60.773H782.906C782.901 61.1837 782.966 61.5477 783.102 61.865C783.237 62.1823 783.438 62.432 783.704 62.614C783.97 62.7913 784.299 62.88 784.691 62.88C785.092 62.88 785.44 62.7913 785.734 62.614C786.032 62.432 786.231 62.1567 786.329 61.788H787.883C787.799 62.292 787.598 62.719 787.281 63.069C786.968 63.419 786.585 63.685 786.133 63.867C785.685 64.049 785.216 64.14 784.726 64.14ZM782.899 59.716H786.301C786.301 59.366 786.238 59.051 786.112 58.771C785.99 58.4863 785.806 58.2623 785.559 58.099C785.311 57.931 784.999 57.847 784.621 57.847C784.247 57.847 783.932 57.938 783.676 58.12C783.419 58.302 783.225 58.5377 783.095 58.827C782.964 59.1117 782.899 59.408 782.899 59.716ZM791.321 64L788.647 56.762H790.208L791.944 61.83H792.035L793.764 56.762H795.332L792.665 64H791.321ZM799.56 64.14C798.864 64.14 798.251 63.993 797.719 63.699C797.191 63.4003 796.778 62.9757 796.48 62.425C796.186 61.8743 796.039 61.2187 796.039 60.458C796.039 59.716 796.172 59.058 796.438 58.484C796.708 57.9053 797.098 57.4503 797.607 57.119C798.12 56.7877 798.738 56.622 799.462 56.622C800.176 56.622 800.775 56.7737 801.261 57.077C801.746 57.3803 802.115 57.805 802.367 58.351C802.619 58.8923 802.745 59.527 802.745 60.255V60.773H797.74C797.735 61.1837 797.8 61.5477 797.936 61.865C798.071 62.1823 798.272 62.432 798.538 62.614C798.804 62.7913 799.133 62.88 799.525 62.88C799.926 62.88 800.274 62.7913 800.568 62.614C800.866 62.432 801.065 62.1567 801.163 61.788H802.717C802.633 62.292 802.432 62.719 802.115 63.069C801.802 63.419 801.419 63.685 800.967 63.867C800.519 64.049 800.05 64.14 799.56 64.14ZM797.733 59.716H801.135C801.135 59.366 801.072 59.051 800.946 58.771C800.824 58.4863 800.64 58.2623 800.393 58.099C800.145 57.931 799.833 57.847 799.455 57.847C799.081 57.847 798.766 57.938 798.51 58.12C798.253 58.302 798.059 58.5377 797.929 58.827C797.798 59.1117 797.733 59.408 797.733 59.716ZM806.458 64.105C805.992 64.105 805.618 64.0467 805.338 63.93C805.058 63.8133 804.848 63.657 804.708 63.461C804.568 63.265 804.477 63.0457 804.435 62.803C804.393 62.5557 804.372 62.3037 804.372 62.047V53.598H806.038V61.851C806.038 62.1637 806.101 62.4063 806.227 62.579C806.358 62.7517 806.568 62.852 806.857 62.88L807.221 62.894V63.965C807.095 64.0023 806.967 64.035 806.836 64.063C806.706 64.091 806.58 64.105 806.458 64.105ZM811.471 64.14C810.78 64.14 810.178 63.993 809.665 63.699C809.151 63.4003 808.752 62.9733 808.468 62.418C808.188 61.8627 808.048 61.1953 808.048 60.416C808.048 59.66 808.185 58.9973 808.461 58.428C808.736 57.8587 809.128 57.4153 809.637 57.098C810.15 56.7807 810.764 56.622 811.478 56.622C812.168 56.622 812.768 56.7737 813.277 57.077C813.785 57.3803 814.177 57.8143 814.453 58.379C814.733 58.9437 814.873 59.6227 814.873 60.416C814.873 61.1487 814.74 61.795 814.474 62.355C814.212 62.9103 813.827 63.3467 813.319 63.664C812.815 63.9813 812.199 64.14 811.471 64.14ZM811.478 62.845C811.87 62.845 812.192 62.7377 812.444 62.523C812.7 62.3083 812.892 62.0143 813.018 61.641C813.144 61.2677 813.207 60.843 813.207 60.367C813.207 59.9237 813.151 59.5153 813.039 59.142C812.927 58.7687 812.742 58.47 812.486 58.246C812.234 58.0173 811.898 57.903 811.478 57.903C811.081 57.903 810.752 58.008 810.491 58.218C810.234 58.4233 810.043 58.7127 809.917 59.086C809.791 59.4547 809.728 59.8817 809.728 60.367C809.728 60.8057 809.784 61.214 809.896 61.592C810.008 61.9653 810.192 62.2687 810.449 62.502C810.705 62.7307 811.048 62.845 811.478 62.845ZM816.431 66.254V56.762H818.132L818.146 57.903C818.239 57.7443 818.358 57.588 818.503 57.434C818.652 57.28 818.823 57.1423 819.014 57.021C819.21 56.8997 819.427 56.804 819.665 56.734C819.903 56.6593 820.164 56.622 820.449 56.622C821.004 56.622 821.497 56.755 821.926 57.021C822.355 57.2823 822.691 57.686 822.934 58.232C823.181 58.778 823.305 59.4687 823.305 60.304C823.305 61.158 823.179 61.8697 822.927 62.439C822.675 63.0083 822.323 63.4353 821.87 63.72C821.417 64 820.892 64.14 820.295 64.14C820.02 64.14 819.768 64.1027 819.539 64.028C819.315 63.9533 819.114 63.8507 818.937 63.72C818.76 63.5893 818.603 63.447 818.468 63.293C818.337 63.139 818.228 62.978 818.139 62.81V66.254H816.431ZM819.917 62.866C820.43 62.866 820.855 62.663 821.191 62.257C821.527 61.8463 821.695 61.2047 821.695 60.332C821.695 59.576 821.536 58.981 821.219 58.547C820.906 58.1083 820.472 57.889 819.917 57.889C819.32 57.889 818.872 58.12 818.573 58.582C818.274 59.0393 818.125 59.6227 818.125 60.332C818.125 60.7893 818.19 61.2117 818.321 61.599C818.456 61.9817 818.655 62.2897 818.916 62.523C819.182 62.7517 819.516 62.866 819.917 62.866ZM828.052 64.14C827.356 64.14 826.743 63.993 826.211 63.699C825.683 63.4003 825.27 62.9757 824.972 62.425C824.678 61.8743 824.531 61.2187 824.531 60.458C824.531 59.716 824.664 59.058 824.93 58.484C825.2 57.9053 825.59 57.4503 826.099 57.119C826.612 56.7877 827.23 56.622 827.954 56.622C828.668 56.622 829.267 56.7737 829.753 57.077C830.238 57.3803 830.607 57.805 830.859 58.351C831.111 58.8923 831.237 59.527 831.237 60.255V60.773H826.232C826.227 61.1837 826.292 61.5477 826.428 61.865C826.563 62.1823 826.764 62.432 827.03 62.614C827.296 62.7913 827.625 62.88 828.017 62.88C828.418 62.88 828.766 62.7913 829.06 62.614C829.358 62.432 829.557 62.1567 829.655 61.788H831.209C831.125 62.292 830.924 62.719 830.607 63.069C830.294 63.419 829.911 63.685 829.459 63.867C829.011 64.049 828.542 64.14 828.052 64.14ZM826.225 59.716H829.627C829.627 59.366 829.564 59.051 829.438 58.771C829.316 58.4863 829.132 58.2623 828.885 58.099C828.637 57.931 828.325 57.847 827.947 57.847C827.573 57.847 827.258 57.938 827.002 58.12C826.745 58.302 826.551 58.5377 826.421 58.827C826.29 59.1117 826.225 59.408 826.225 59.716ZM832.864 64V56.762H834.495V58.33C834.612 57.9707 834.778 57.665 834.992 57.413C835.212 57.1563 835.468 56.9603 835.762 56.825C836.056 56.6897 836.376 56.622 836.721 56.622C836.805 56.622 836.887 56.6267 836.966 56.636C837.046 56.6453 837.104 56.6617 837.141 56.685V58.316C837.09 58.2927 837.022 58.2763 836.938 58.267C836.859 58.2577 836.789 58.253 836.728 58.253C836.378 58.225 836.068 58.239 835.797 58.295C835.531 58.351 835.305 58.4467 835.118 58.582C834.936 58.7127 834.799 58.8807 834.705 59.086C834.612 59.2867 834.565 59.5223 834.565 59.793V64H832.864Z" fill="black"/>
<path d="M693 135C693 99.6538 721.654 71 757 71C792.346 71 821 99.6538 821 135C821 170.346 792.346 199 757 199C721.654 199 693 170.346 693 135Z" fill="#56C7E4"/>
<path d="M690.207 135.707C690.598 135.317 690.598 134.683 690.207 134.293L683.843 127.929C683.453 127.538 682.819 127.538 682.429 127.929C682.038 128.319 682.038 128.953 682.429 129.343L688.086 135L682.429 140.657C682.038 141.047 682.038 141.681 682.429 142.071C682.819 142.462 683.453 142.462 683.843 142.071L690.207 135.707ZM622.562 134C622.01 134 621.562 134.448 621.562 135C621.562 135.552 622.01 136 622.562 136V134ZM552.438 136C552.99 136 553.438 135.552 553.438 135C553.438 134.448 552.99 134 552.438 134V136ZM485.5 134C484.948 134 484.5 134.448 484.5 135C484.5 135.552 484.948 136 485.5 136V134ZM689.5 134H622.562V136H689.5V134ZM552.438 134H485.5V136H552.438V134Z" fill="#1A1B1D"/>
<path d="M561.981 130.318V140.5H560.445V130.318H561.981ZM572.282 130.318V140.5H570.87L565.695 133.033H565.601V140.5H564.064V130.318H565.486L570.667 137.795H570.761V130.318H572.282ZM580.182 140.5V141.763H573.714V140.5H580.182ZM581.133 140.5V130.318H584.763C585.551 130.318 586.206 130.454 586.726 130.726C587.25 130.998 587.641 131.374 587.9 131.854C588.158 132.332 588.287 132.884 588.287 133.51C588.287 134.133 588.156 134.682 587.895 135.156C587.636 135.626 587.245 135.992 586.721 136.254C586.201 136.516 585.546 136.647 584.758 136.647H582.008V135.325H584.618C585.116 135.325 585.52 135.253 585.831 135.111C586.146 134.968 586.377 134.761 586.522 134.489C586.668 134.218 586.741 133.891 586.741 133.51C586.741 133.125 586.667 132.792 586.517 132.511C586.372 132.229 586.141 132.013 585.826 131.864C585.515 131.712 585.106 131.636 584.598 131.636H582.669V140.5H581.133ZM586.16 135.906L588.675 140.5H586.925L584.459 135.906H586.16ZM598.847 135.409C598.847 136.496 598.648 137.431 598.251 138.213C597.853 138.992 597.308 139.592 596.615 140.013C595.926 140.43 595.142 140.639 594.263 140.639C593.382 140.639 592.595 140.43 591.902 140.013C591.212 139.592 590.669 138.99 590.271 138.208C589.873 137.426 589.675 136.493 589.675 135.409C589.675 134.322 589.873 133.389 590.271 132.61C590.669 131.828 591.212 131.228 591.902 130.81C592.595 130.389 593.382 130.179 594.263 130.179C595.142 130.179 595.926 130.389 596.615 130.81C597.308 131.228 597.853 131.828 598.251 132.61C598.648 133.389 598.847 134.322 598.847 135.409ZM597.326 135.409C597.326 134.58 597.192 133.883 596.923 133.316C596.658 132.746 596.293 132.315 595.829 132.023C595.369 131.728 594.847 131.581 594.263 131.581C593.677 131.581 593.153 131.728 592.692 132.023C592.232 132.315 591.867 132.746 591.599 133.316C591.333 133.883 591.201 134.58 591.201 135.409C591.201 136.238 591.333 136.937 591.599 137.507C591.867 138.074 592.232 138.505 592.692 138.8C593.153 139.091 593.677 139.237 594.263 139.237C594.847 139.237 595.369 139.091 595.829 138.8C596.293 138.505 596.658 138.074 596.923 137.507C597.192 136.937 597.326 136.238 597.326 135.409ZM600.608 140.5V130.318H602.145V139.178H606.758V140.5H600.608ZM608.357 140.5V130.318H614.74V131.641H609.893V134.743H614.407V136.06H609.893V139.178H614.8V140.5H608.357Z" fill="black" fill-opacity="0.8"/>
<path d="M743.845 140V129.878H747.765C748.493 129.878 749.102 129.99 749.592 130.214C750.082 130.433 750.448 130.751 750.691 131.166C750.933 131.577 751.055 132.069 751.055 132.643C751.055 133.194 750.957 133.651 750.761 134.015C750.569 134.379 750.324 134.673 750.026 134.897C749.727 135.116 749.417 135.287 749.095 135.408L751.083 140H749.711L747.863 135.639H745.14V140H743.845ZM745.14 134.568H747.345C748.105 134.568 748.693 134.414 749.109 134.106C749.524 133.793 749.732 133.331 749.732 132.72C749.732 132.123 749.545 131.677 749.172 131.383C748.803 131.084 748.297 130.935 747.653 130.935H745.14V134.568ZM755.719 140.14C755.052 140.14 754.468 139.998 753.969 139.713C753.474 139.424 753.089 139.001 752.814 138.446C752.539 137.891 752.401 137.212 752.401 136.409C752.401 135.653 752.529 134.99 752.786 134.421C753.043 133.852 753.418 133.411 753.913 133.098C754.408 132.781 755.012 132.622 755.726 132.622C756.393 132.622 756.972 132.769 757.462 133.063C757.952 133.352 758.332 133.779 758.603 134.344C758.878 134.909 759.016 135.597 759.016 136.409C759.016 137.146 758.89 137.795 758.638 138.355C758.386 138.915 758.015 139.354 757.525 139.671C757.04 139.984 756.438 140.14 755.719 140.14ZM755.726 139.118C756.155 139.118 756.519 139.008 756.818 138.789C757.117 138.57 757.343 138.255 757.497 137.844C757.656 137.433 757.735 136.946 757.735 136.381C757.735 135.863 757.665 135.399 757.525 134.988C757.39 134.573 757.175 134.244 756.881 134.001C756.587 133.758 756.202 133.637 755.726 133.637C755.287 133.637 754.916 133.747 754.613 133.966C754.31 134.181 754.079 134.493 753.92 134.904C753.766 135.315 753.689 135.807 753.689 136.381C753.689 136.89 753.757 137.352 753.892 137.767C754.032 138.182 754.251 138.511 754.55 138.754C754.853 138.997 755.245 139.118 755.726 139.118ZM762.564 140.091C762.172 140.091 761.855 140.037 761.612 139.93C761.374 139.823 761.19 139.678 761.059 139.496C760.933 139.314 760.847 139.106 760.8 138.873C760.758 138.635 760.737 138.39 760.737 138.138V129.598H762.011V138.012C762.011 138.376 762.081 138.649 762.221 138.831C762.366 139.013 762.566 139.113 762.823 139.132L763.215 139.139V139.979C763.108 140.012 762.996 140.037 762.879 140.056C762.762 140.079 762.657 140.091 762.564 140.091ZM767.693 140.14C767.021 140.14 766.428 139.993 765.915 139.699C765.401 139.405 765 138.983 764.711 138.432C764.421 137.881 764.277 137.221 764.277 136.451C764.277 135.69 764.407 135.023 764.669 134.449C764.93 133.875 765.308 133.427 765.803 133.105C766.302 132.783 766.902 132.622 767.602 132.622C768.283 132.622 768.859 132.769 769.331 133.063C769.802 133.357 770.159 133.772 770.402 134.309C770.649 134.841 770.773 135.473 770.773 136.206V136.682H765.586C765.586 137.139 765.66 137.555 765.81 137.928C765.964 138.297 766.195 138.591 766.503 138.81C766.811 139.029 767.2 139.139 767.672 139.139C768.134 139.139 768.53 139.032 768.862 138.817C769.198 138.602 769.412 138.292 769.506 137.886H770.724C770.639 138.376 770.444 138.789 770.136 139.125C769.832 139.461 769.466 139.715 769.037 139.888C768.612 140.056 768.164 140.14 767.693 140.14ZM765.593 135.807H769.527C769.527 135.392 769.457 135.018 769.317 134.687C769.177 134.351 768.962 134.087 768.673 133.896C768.388 133.7 768.029 133.602 767.595 133.602C767.142 133.602 766.766 133.712 766.468 133.931C766.169 134.146 765.947 134.423 765.803 134.764C765.658 135.1 765.588 135.448 765.593 135.807Z" fill="#1A1B1D"/>
</svg>
