<svg xmlns="http://www.w3.org/2000/svg" width="335" height="98" viewBox="0 0 335 98"><defs><style type="text/css"/></defs><g transform="translate(48.0712890625 45) scale(1)"><g class="relationship"><g transform="translate(-5 -3) rotate(0)" stroke-width="1" stroke="#A5ABB6"><path d="M 42 0 L 198.05 0"/><polygon points="-9.45,0 -10.5,3.5 0,0 -10.5,-3.5" fill="#A5ABB6" transform="translate(207.5 0) rotate(0)" stroke="none"/></g><g transform="translate(115.025 -3) rotate(0) translate(0 -13)"><g transform="translate(0 0)"><g transform="translate(-26.7265625 0)" fill="#ffffff" stroke="#000000" stroke-width="0"><rect x="0" y="0" width="53.453125" height="14" rx="2" ry="2" stroke="none"/><text xml:space="preserve" x="2" y="9.78564453125" stroke="none" text-anchor="left" font-family="sans-serif" font-size="10" font-weight="normal" fill="#000000">ACTED_IN</text></g></g><g transform="translate(0 14)"><g transform="translate(-38.623046875 0)" fill="white"><rect x="0" y="0" width="77.24609375" height="12" rx="0" ry="0" stroke="none"/><g font-family="sans-serif" font-size="10" font-weight="normal" fill="#000000" text-anchor="end"><text xml:space="preserve" x="27.2314453125" y="8.78564453125" stroke="none">roles:</text><text xml:space="preserve" x="30.009765625" y="8.78564453125" stroke="none" text-anchor="start">Jim Lovell</text></g></g></g></g></g><g class="node"><g fill="#fe9200" stroke="#e27300" stroke-width="2"><circle cx="-5" cy="-3" r="41"/></g><g transform="translate(-5 -3)"><g transform="scale(1) translate(0 -8)"><g transform="translate(0 0)"><g transform="translate(-23.84228515625 0)"><g fill="#ffffff" stroke="#000000" stroke-width="2"><rect x="0" y="0" width="47.6845703125" height="16" rx="8" ry="8"/><text xml:space="preserve" x="8" y="10.78564453125" stroke="none" font-family="sans-serif" font-size="10" font-weight="normal" fill="#000000">Person</text></g></g></g></g><g transform="translate(2.6942229581241772e-15 44)"><g transform="translate(0 0)"><g transform="translate(-43.0712890625 0)" fill="white"><rect x="0" y="0" width="86.142578125" height="12" rx="0" ry="0" stroke="none"/><g font-family="sans-serif" font-size="10" font-weight="normal" fill="#000000" text-anchor="end"><text xml:space="preserve" x="30.5712890625" y="8.78564453125" stroke="none">name:</text><text xml:space="preserve" x="33.349609375" y="8.78564453125" stroke="none" text-anchor="start">Tom Hanks</text></g></g></g></g></g></g><g class="node"><g fill="#4C8EDA" stroke="#2870c2" stroke-width="2"><circle cx="244.5" cy="-3" r="41"/></g><g transform="translate(244.5 -3)"><g transform="scale(1) translate(0 -8)"><g transform="translate(0 0)"><g transform="translate(-21.33740234375 0)"><g fill="#ffffff" stroke="#000000" stroke-width="2"><rect x="0" y="0" width="42.6748046875" height="16" rx="8" ry="8"/><text xml:space="preserve" x="8" y="10.78564453125" stroke="none" font-family="sans-serif" font-size="10" font-weight="normal" fill="#000000">Movie</text></g></g></g></g><g transform="translate(2.6942229581241772e-15 44)"><g transform="translate(0 0)"><g transform="translate(-31.40869140625 0)" fill="white"><rect x="0" y="0" width="62.8173828125" height="12" rx="0" ry="0" stroke="none"/><g font-family="sans-serif" font-size="10" font-weight="normal" fill="#000000" text-anchor="middle"><text xml:space="preserve" x="31.40869140625" y="8.78564453125" stroke="none">title: Apollo 13</text></g></g></g></g></g></g></g></svg>