<svg width="513" height="496" viewBox="0 0 513 496" fill="none" xmlns="http://www.w3.org/2000/svg">
<path d="M0 261C0 225.654 28.6538 197 64 197V197C99.3462 197 128 225.654 128 261V261C128 296.346 99.3462 325 64 325V325C28.6538 325 0 296.346 0 261V261Z" fill="#FFDF81"/>
<path d="M42.7237 266V255.878H46.1467C46.8701 255.878 47.5141 255.999 48.0787 256.242C48.6434 256.485 49.0867 256.844 49.4087 257.32C49.7354 257.796 49.8987 258.382 49.8987 259.077C49.8987 259.749 49.7471 260.323 49.4437 260.799C49.1451 261.275 48.7274 261.637 48.1907 261.884C47.6541 262.131 47.0311 262.255 46.3217 262.255H44.0537V266H42.7237ZM44.0467 261.163H46.2937C46.9891 261.163 47.5537 260.969 47.9877 260.582C48.4217 260.195 48.6387 259.667 48.6387 259C48.6387 258.328 48.4147 257.819 47.9667 257.474C47.5187 257.129 46.9401 256.956 46.2307 256.956H44.0467V261.163ZM54.3077 266.14C53.6357 266.14 53.0431 265.993 52.5297 265.699C52.0164 265.405 51.6151 264.983 51.3257 264.432C51.0364 263.881 50.8917 263.221 50.8917 262.451C50.8917 261.69 51.0224 261.023 51.2837 260.449C51.5451 259.875 51.9231 259.427 52.4177 259.105C52.9171 258.783 53.5167 258.622 54.2167 258.622C54.8981 258.622 55.4744 258.769 55.9457 259.063C56.4171 259.357 56.7741 259.772 57.0167 260.309C57.2641 260.841 57.3877 261.473 57.3877 262.206V262.682H52.2007C52.2007 263.139 52.2754 263.555 52.4247 263.928C52.5787 264.297 52.8097 264.591 53.1177 264.81C53.4257 265.029 53.8154 265.139 54.2867 265.139C54.7487 265.139 55.1454 265.032 55.4767 264.817C55.8127 264.602 56.0274 264.292 56.1207 263.886H57.3387C57.2547 264.376 57.0587 264.789 56.7507 265.125C56.4474 265.461 56.0811 265.715 55.6517 265.888C55.2271 266.056 54.7791 266.14 54.3077 266.14ZM52.2077 261.807H56.1417C56.1417 261.392 56.0717 261.018 55.9317 260.687C55.7917 260.351 55.5771 260.087 55.2877 259.896C55.0031 259.7 54.6437 259.602 54.2097 259.602C53.7571 259.602 53.3814 259.712 53.0827 259.931C52.7841 260.146 52.5624 260.423 52.4177 260.764C52.2731 261.1 52.2031 261.448 52.2077 261.807ZM59.1784 266V258.762H60.4104V260.155C60.5318 259.81 60.7021 259.525 60.9214 259.301C61.1408 259.072 61.3904 258.902 61.6704 258.79C61.9551 258.678 62.2491 258.622 62.5524 258.622C62.6598 258.622 62.7648 258.629 62.8674 258.643C62.9701 258.657 63.0494 258.68 63.1054 258.713V259.966C63.0354 259.933 62.9444 259.912 62.8324 259.903C62.7251 259.889 62.6341 259.882 62.5594 259.882C62.2701 259.863 61.9994 259.882 61.7474 259.938C61.4954 259.989 61.2738 260.08 61.0824 260.211C60.8911 260.342 60.7394 260.514 60.6274 260.729C60.5201 260.939 60.4664 261.196 60.4664 261.499V266H59.1784ZM67.2102 266.14C66.7062 266.14 66.2372 266.063 65.8032 265.909C65.3738 265.75 65.0168 265.505 64.7322 265.174C64.4475 264.838 64.2702 264.411 64.2002 263.893H65.3762C65.4368 264.178 65.5535 264.416 65.7262 264.607C65.8988 264.794 66.1112 264.936 66.3632 265.034C66.6198 265.127 66.8998 265.174 67.2032 265.174C67.6932 265.174 68.0875 265.083 68.3862 264.901C68.6848 264.719 68.8342 264.439 68.8342 264.061C68.8342 263.795 68.7548 263.583 68.5962 263.424C68.4422 263.261 68.1995 263.142 67.8682 263.067L66.3702 262.696C65.7868 262.556 65.3202 262.337 64.9702 262.038C64.6248 261.739 64.4498 261.322 64.4452 260.785C64.4452 260.36 64.5478 259.987 64.7532 259.665C64.9585 259.343 65.2642 259.089 65.6702 258.902C66.0808 258.715 66.5918 258.622 67.2032 258.622C67.9918 258.622 68.6265 258.799 69.1072 259.154C69.5878 259.504 69.8398 260.02 69.8632 260.701H68.7152C68.6685 260.356 68.5145 260.083 68.2532 259.882C67.9918 259.677 67.6372 259.574 67.1892 259.574C66.7318 259.574 66.3562 259.667 66.0622 259.854C65.7728 260.036 65.6282 260.321 65.6282 260.708C65.6282 260.965 65.7308 261.168 65.9362 261.317C66.1462 261.462 66.4495 261.583 66.8462 261.681L68.3022 262.045C68.6335 262.134 68.9088 262.25 69.1282 262.395C69.3475 262.54 69.5202 262.701 69.6462 262.878C69.7722 263.055 69.8608 263.242 69.9122 263.438C69.9682 263.629 69.9962 263.814 69.9962 263.991C69.9962 264.434 69.8865 264.817 69.6672 265.139C69.4478 265.456 69.1305 265.704 68.7152 265.881C68.2998 266.054 67.7982 266.14 67.2102 266.14ZM74.5862 266.14C73.9189 266.14 73.3355 265.998 72.8362 265.713C72.3415 265.424 71.9565 265.001 71.6812 264.446C71.4059 263.891 71.2682 263.212 71.2682 262.409C71.2682 261.653 71.3965 260.99 71.6532 260.421C71.9099 259.852 72.2855 259.411 72.7802 259.098C73.2749 258.781 73.8792 258.622 74.5932 258.622C75.2605 258.622 75.8392 258.769 76.3292 259.063C76.8192 259.352 77.1995 259.779 77.4702 260.344C77.7455 260.909 77.8832 261.597 77.8832 262.409C77.8832 263.146 77.7572 263.795 77.5052 264.355C77.2532 264.915 76.8822 265.354 76.3922 265.671C75.9069 265.984 75.3049 266.14 74.5862 266.14ZM74.5932 265.118C75.0225 265.118 75.3865 265.008 75.6852 264.789C75.9839 264.57 76.2102 264.255 76.3642 263.844C76.5229 263.433 76.6022 262.946 76.6022 262.381C76.6022 261.863 76.5322 261.399 76.3922 260.988C76.2569 260.573 76.0422 260.244 75.7482 260.001C75.4542 259.758 75.0692 259.637 74.5932 259.637C74.1545 259.637 73.7835 259.747 73.4802 259.966C73.1769 260.181 72.9459 260.493 72.7872 260.904C72.6332 261.315 72.5562 261.807 72.5562 262.381C72.5562 262.89 72.6239 263.352 72.7592 263.767C72.8992 264.182 73.1185 264.511 73.4172 264.754C73.7205 264.997 74.1125 265.118 74.5932 265.118ZM79.6042 266V258.762H80.8572V259.812C80.9739 259.611 81.1349 259.422 81.3402 259.245C81.5502 259.068 81.8022 258.925 82.0962 258.818C82.3949 258.711 82.7379 258.657 83.1252 258.657C83.5825 258.657 84.0025 258.748 84.3852 258.93C84.7725 259.112 85.0805 259.397 85.3092 259.784C85.5425 260.167 85.6592 260.661 85.6592 261.268V266H84.3642V261.394C84.3642 260.829 84.2149 260.412 83.9162 260.141C83.6222 259.866 83.2395 259.728 82.7682 259.728C82.4415 259.728 82.1359 259.782 81.8512 259.889C81.5665 259.992 81.3355 260.15 81.1582 260.365C80.9809 260.575 80.8922 260.841 80.8922 261.163V266H79.6042Z" fill="black"/>
<path d="M385 90C385 54.6538 413.654 26 449 26V26C484.346 26 513 54.6538 513 90V90C513 125.346 484.346 154 449 154V154C413.654 154 385 125.346 385 90V90Z" fill="#C990C0"/>
<path d="M411.536 95V84.878C411.569 84.878 411.667 84.8803 411.83 84.885C411.998 84.885 412.201 84.885 412.439 84.885C412.677 84.8803 412.925 84.8803 413.181 84.885C413.438 84.885 413.674 84.8873 413.888 84.892C415.13 84.9107 416.135 85.1137 416.905 85.501C417.68 85.8837 418.247 86.4413 418.606 87.174C418.97 87.9067 419.152 88.8073 419.152 89.876C419.152 90.996 418.956 91.9363 418.564 92.697C418.177 93.4577 417.584 94.0317 416.786 94.419C415.993 94.8063 414.983 95 413.755 95H411.536ZM412.866 93.887H413.755C414.591 93.887 415.309 93.7587 415.911 93.502C416.513 93.2407 416.975 92.8183 417.297 92.235C417.624 91.6517 417.787 90.8723 417.787 89.897C417.787 88.9217 417.629 88.1493 417.311 87.58C416.999 87.0107 416.546 86.6047 415.953 86.362C415.361 86.1147 414.647 85.991 413.811 85.991H412.866V93.887ZM424.036 95.14C423.364 95.14 422.772 94.993 422.258 94.699C421.745 94.405 421.344 93.9827 421.054 93.432C420.765 92.8813 420.62 92.221 420.62 91.451C420.62 90.6903 420.751 90.023 421.012 89.449C421.274 88.875 421.652 88.427 422.146 88.105C422.646 87.783 423.245 87.622 423.945 87.622C424.627 87.622 425.203 87.769 425.674 88.063C426.146 88.357 426.503 88.7723 426.745 89.309C426.993 89.841 427.116 90.4733 427.116 91.206V91.682H421.929C421.929 92.1393 422.004 92.5547 422.153 92.928C422.307 93.2967 422.538 93.5907 422.846 93.81C423.154 94.0293 423.544 94.139 424.015 94.139C424.477 94.139 424.874 94.0317 425.205 93.817C425.541 93.6023 425.756 93.292 425.849 92.886H427.067C426.983 93.376 426.787 93.789 426.479 94.125C426.176 94.461 425.81 94.7153 425.38 94.888C424.956 95.056 424.508 95.14 424.036 95.14ZM421.936 90.807H425.87C425.87 90.3917 425.8 90.0183 425.66 89.687C425.52 89.351 425.306 89.0873 425.016 88.896C424.732 88.7 424.372 88.602 423.938 88.602C423.486 88.602 423.11 88.7117 422.811 88.931C422.513 89.1457 422.291 89.4233 422.146 89.764C422.002 90.1 421.932 90.4477 421.936 90.807ZM428.907 97.254V87.762H430.195L430.209 89.022C430.293 88.8727 430.4 88.7163 430.531 88.553C430.666 88.3897 430.83 88.238 431.021 88.098C431.217 87.958 431.443 87.8437 431.7 87.755C431.961 87.6663 432.258 87.622 432.589 87.622C433.168 87.622 433.676 87.755 434.115 88.021C434.558 88.2823 434.904 88.6837 435.151 89.225C435.398 89.7663 435.522 90.4523 435.522 91.283C435.522 92.1137 435.401 92.816 435.158 93.39C434.92 93.9593 434.575 94.3933 434.122 94.692C433.669 94.9907 433.123 95.14 432.484 95.14C432.162 95.14 431.875 95.0933 431.623 95C431.376 94.9113 431.159 94.7947 430.972 94.65C430.79 94.5007 430.636 94.342 430.51 94.174C430.389 94.006 430.288 93.845 430.209 93.691V97.254H428.907ZM432.239 94.132C432.836 94.132 433.324 93.9057 433.702 93.453C434.08 92.9957 434.269 92.2863 434.269 91.325C434.269 90.499 434.096 89.8433 433.751 89.358C433.406 88.8727 432.902 88.63 432.239 88.63C431.567 88.63 431.058 88.8797 430.713 89.379C430.368 89.8737 430.195 90.5223 430.195 91.325C430.195 91.843 430.272 92.3143 430.426 92.739C430.58 93.1637 430.809 93.502 431.112 93.754C431.415 94.006 431.791 94.132 432.239 94.132ZM439.195 95.14C438.723 95.14 438.308 95.0583 437.949 94.895C437.594 94.727 437.314 94.4867 437.109 94.174C436.908 93.8613 436.808 93.4833 436.808 93.04C436.808 92.2373 437.088 91.64 437.648 91.248C438.208 90.856 439.106 90.646 440.343 90.618L441.631 90.583V90.016C441.631 89.5727 441.498 89.2227 441.232 88.966C440.966 88.7047 440.555 88.574 440 88.574C439.584 88.5787 439.218 88.6767 438.901 88.868C438.583 89.0593 438.38 89.372 438.292 89.806H437.151C437.179 89.3347 437.309 88.938 437.543 88.616C437.781 88.2893 438.114 88.042 438.544 87.874C438.973 87.706 439.479 87.622 440.063 87.622C440.693 87.622 441.215 87.7107 441.631 87.888C442.051 88.0653 442.363 88.3267 442.569 88.672C442.779 89.0173 442.884 89.442 442.884 89.946V95H441.778L441.68 93.642C441.404 94.2067 441.05 94.5987 440.616 94.818C440.186 95.0327 439.713 95.14 439.195 95.14ZM439.58 94.209C439.827 94.209 440.07 94.1647 440.308 94.076C440.55 93.9873 440.77 93.8683 440.966 93.719C441.166 93.565 441.327 93.3947 441.449 93.208C441.57 93.0167 441.631 92.8207 441.631 92.62V91.381L440.56 91.402C440.004 91.4113 439.542 91.4673 439.174 91.57C438.805 91.6727 438.527 91.8337 438.341 92.053C438.154 92.2723 438.061 92.5593 438.061 92.914C438.061 93.32 438.203 93.6373 438.488 93.866C438.772 94.0947 439.136 94.209 439.58 94.209ZM444.903 95V87.762H446.135V89.155C446.256 88.8097 446.427 88.525 446.646 88.301C446.865 88.0723 447.115 87.902 447.395 87.79C447.68 87.678 447.974 87.622 448.277 87.622C448.384 87.622 448.489 87.629 448.592 87.643C448.695 87.657 448.774 87.6803 448.83 87.713V88.966C448.76 88.9333 448.669 88.9123 448.557 88.903C448.45 88.889 448.359 88.882 448.284 88.882C447.995 88.8633 447.724 88.882 447.472 88.938C447.22 88.9893 446.998 89.0803 446.807 89.211C446.616 89.3417 446.464 89.5143 446.352 89.729C446.245 89.939 446.191 90.1957 446.191 90.499V95H444.903ZM452.82 95.035C452.32 95.035 451.933 94.9673 451.658 94.832C451.382 94.6967 451.189 94.496 451.077 94.23C450.969 93.964 450.916 93.6373 450.916 93.25V88.707H449.74V87.762H450.951L451.266 85.655H452.218V87.755H453.849V88.707H452.218V93.208C452.218 93.4647 452.243 93.6537 452.295 93.775C452.351 93.8917 452.442 93.9663 452.568 93.999C452.694 94.0317 452.871 94.048 453.1 94.048H453.891V94.916C453.802 94.9487 453.667 94.9767 453.485 95C453.307 95.0233 453.086 95.035 452.82 95.035ZM455.608 95V87.762H456.854V88.812C457.055 88.4947 457.33 88.217 457.68 87.979C458.03 87.741 458.485 87.622 459.045 87.622C459.306 87.622 459.572 87.6663 459.843 87.755C460.118 87.8437 460.37 87.9767 460.599 88.154C460.828 88.3313 461.005 88.5483 461.131 88.805C461.355 88.4503 461.658 88.1657 462.041 87.951C462.424 87.7317 462.855 87.622 463.336 87.622C463.588 87.622 463.852 87.6617 464.127 87.741C464.402 87.8157 464.657 87.951 464.89 88.147C465.128 88.3383 465.322 88.6067 465.471 88.952C465.62 89.2927 465.695 89.7313 465.695 90.268V95H464.393V90.394C464.393 89.9553 464.323 89.617 464.183 89.379C464.043 89.1363 463.859 88.966 463.63 88.868C463.406 88.77 463.166 88.721 462.909 88.721C462.685 88.721 462.447 88.7653 462.195 88.854C461.943 88.9427 461.728 89.092 461.551 89.302C461.374 89.512 461.285 89.799 461.285 90.163V95H459.997V90.016C459.997 89.7313 459.92 89.4933 459.766 89.302C459.617 89.1107 459.428 88.966 459.199 88.868C458.975 88.77 458.751 88.721 458.527 88.721C458.28 88.721 458.03 88.77 457.778 88.868C457.531 88.966 457.321 89.1223 457.148 89.337C456.98 89.547 456.896 89.8223 456.896 90.163V95H455.608ZM470.78 95.14C470.108 95.14 469.516 94.993 469.002 94.699C468.489 94.405 468.088 93.9827 467.798 93.432C467.509 92.8813 467.364 92.221 467.364 91.451C467.364 90.6903 467.495 90.023 467.756 89.449C468.018 88.875 468.396 88.427 468.89 88.105C469.39 87.783 469.989 87.622 470.689 87.622C471.371 87.622 471.947 87.769 472.418 88.063C472.89 88.357 473.247 88.7723 473.489 89.309C473.737 89.841 473.86 90.4733 473.86 91.206V91.682H468.673C468.673 92.1393 468.748 92.5547 468.897 92.928C469.051 93.2967 469.282 93.5907 469.59 93.81C469.898 94.0293 470.288 94.139 470.759 94.139C471.221 94.139 471.618 94.0317 471.949 93.817C472.285 93.6023 472.5 93.292 472.593 92.886H473.811C473.727 93.376 473.531 93.789 473.223 94.125C472.92 94.461 472.554 94.7153 472.124 94.888C471.7 95.056 471.252 95.14 470.78 95.14ZM468.68 90.807H472.614C472.614 90.3917 472.544 90.0183 472.404 89.687C472.264 89.351 472.05 89.0873 471.76 88.896C471.476 88.7 471.116 88.602 470.682 88.602C470.23 88.602 469.854 88.7117 469.555 88.931C469.257 89.1457 469.035 89.4233 468.89 89.764C468.746 90.1 468.676 90.4477 468.68 90.807ZM475.651 95V87.762H476.904V88.812C477.021 88.6113 477.182 88.4223 477.387 88.245C477.597 88.0677 477.849 87.9253 478.143 87.818C478.442 87.7107 478.785 87.657 479.172 87.657C479.629 87.657 480.049 87.748 480.432 87.93C480.819 88.112 481.127 88.3967 481.356 88.784C481.589 89.1667 481.706 89.6613 481.706 90.268V95H480.411V90.394C480.411 89.8293 480.262 89.4117 479.963 89.141C479.669 88.8657 479.286 88.728 478.815 88.728C478.488 88.728 478.183 88.7817 477.898 88.889C477.613 88.9917 477.382 89.1503 477.205 89.365C477.028 89.575 476.939 89.841 476.939 90.163V95H475.651ZM486.083 95.035C485.584 95.035 485.197 94.9673 484.921 94.832C484.646 94.6967 484.452 94.496 484.34 94.23C484.233 93.964 484.179 93.6373 484.179 93.25V88.707H483.003V87.762H484.214L484.529 85.655H485.481V87.755H487.112V88.707H485.481V93.208C485.481 93.4647 485.507 93.6537 485.558 93.775C485.614 93.8917 485.705 93.9663 485.831 93.999C485.957 94.0317 486.135 94.048 486.363 94.048H487.154V94.916C487.066 94.9487 486.93 94.9767 486.748 95C486.571 95.0233 486.349 95.035 486.083 95.035Z" fill="white"/>
<path d="M130.792 230.239C130.288 230.464 130.06 231.054 130.284 231.559C130.509 232.064 131.099 232.291 131.604 232.067L131.198 231.153L130.792 230.239ZM197.25 201.816L197.655 202.73L197.655 202.73L197.25 201.816ZM213.002 195.914C213.507 195.69 213.734 195.099 213.51 194.594C213.286 194.089 212.695 193.862 212.19 194.086L212.596 195L213.002 195.914ZM299.997 155.086C299.492 155.31 299.265 155.901 299.489 156.406C299.713 156.911 300.304 157.138 300.809 156.914L300.403 156L299.997 155.086ZM382.734 120.206C382.933 119.69 382.676 119.112 382.16 118.913L373.761 115.681C373.245 115.482 372.667 115.739 372.468 116.255C372.27 116.77 372.527 117.349 373.042 117.547L380.508 120.421L377.635 127.887C377.436 128.402 377.693 128.981 378.209 129.179C378.724 129.378 379.303 129.121 379.501 128.605L382.734 120.206ZM315.06 149.49L315.466 150.404L315.06 149.49ZM315.443 149.48L315.802 148.547L315.443 149.48ZM316.282 149.268L317.196 148.862L316.282 149.268ZM316.431 148.881L316.837 149.795L316.431 148.881ZM315.909 149.66L315.55 150.593L315.909 149.66ZM316.282 149.268L317.196 148.862L316.282 149.268ZM131.198 231.153L131.604 232.067L197.655 202.73L197.25 201.816L196.844 200.902L130.792 230.239L131.198 231.153ZM197.25 201.816L197.655 202.73L198.569 202.324L198.163 201.41L197.758 200.496L196.844 200.902L197.25 201.816ZM198.163 201.41L198.569 202.324L213.002 195.914L212.596 195L212.19 194.086L197.758 200.496L198.163 201.41ZM300.403 156L300.809 156.914L315.466 150.404L315.06 149.49L314.654 148.576L299.997 155.086L300.403 156ZM315.443 149.48L315.084 150.413L315.55 150.593L315.909 149.66L316.269 148.727L315.802 148.547L315.443 149.48ZM316.431 148.881L316.837 149.795L382.207 120.761L381.801 119.847L381.395 118.933L316.025 147.967L316.431 148.881ZM315.06 149.49L315.466 150.404C315.345 150.458 315.207 150.461 315.084 150.413L315.443 149.48L315.802 148.547C315.431 148.404 315.018 148.415 314.654 148.576L315.06 149.49ZM316.282 149.268L317.196 148.862C317.355 149.219 317.194 149.636 316.837 149.795L316.431 148.881L316.025 147.967C315.373 148.257 315.079 149.021 315.368 149.674L316.282 149.268ZM315.909 149.66L315.55 150.593C316.625 151.007 317.664 149.914 317.196 148.862L316.282 149.268L315.368 149.674C315.113 149.098 315.681 148.5 316.269 148.727L315.909 149.66Z" fill="black" fill-opacity="0.8"/>
<path d="M206.625 181.5V169.864H210.886C211.712 169.864 212.396 170 212.938 170.273C213.479 170.542 213.885 170.907 214.154 171.369C214.422 171.828 214.557 172.345 214.557 172.92C214.557 173.405 214.468 173.814 214.29 174.148C214.112 174.477 213.873 174.742 213.574 174.943C213.279 175.14 212.953 175.284 212.597 175.375V175.489C212.983 175.508 213.36 175.633 213.727 175.864C214.099 176.091 214.405 176.415 214.648 176.835C214.89 177.256 215.011 177.767 215.011 178.369C215.011 178.964 214.871 179.498 214.591 179.972C214.314 180.441 213.886 180.814 213.307 181.091C212.727 181.364 211.987 181.5 211.085 181.5H206.625ZM208.381 179.994H210.915C211.756 179.994 212.358 179.831 212.722 179.506C213.085 179.18 213.267 178.773 213.267 178.284C213.267 177.917 213.174 177.58 212.989 177.273C212.803 176.966 212.538 176.722 212.193 176.54C211.852 176.358 211.447 176.267 210.977 176.267H208.381V179.994ZM208.381 174.898H210.733C211.127 174.898 211.481 174.822 211.796 174.67C212.114 174.519 212.366 174.307 212.551 174.034C212.741 173.758 212.835 173.432 212.835 173.057C212.835 172.576 212.667 172.172 212.33 171.847C211.993 171.521 211.475 171.358 210.779 171.358H208.381V174.898ZM216.918 181.5V169.864H224.213V171.375H218.674V174.92H223.833V176.426H218.674V179.989H224.281V181.5H216.918ZM226.382 181.5V169.864H228.138V179.989H233.411V181.5H226.382ZM244.893 175.682C244.893 176.924 244.665 177.992 244.211 178.886C243.756 179.777 243.133 180.462 242.341 180.943C241.554 181.42 240.658 181.659 239.654 181.659C238.646 181.659 237.747 181.42 236.955 180.943C236.167 180.462 235.546 179.775 235.091 178.881C234.637 177.987 234.41 176.92 234.41 175.682C234.41 174.439 234.637 173.373 235.091 172.483C235.546 171.589 236.167 170.903 236.955 170.426C237.747 169.945 238.646 169.705 239.654 169.705C240.658 169.705 241.554 169.945 242.341 170.426C243.133 170.903 243.756 171.589 244.211 172.483C244.665 173.373 244.893 174.439 244.893 175.682ZM243.154 175.682C243.154 174.735 243.001 173.937 242.694 173.29C242.391 172.638 241.974 172.146 241.444 171.812C240.917 171.475 240.321 171.307 239.654 171.307C238.983 171.307 238.385 171.475 237.858 171.812C237.332 172.146 236.915 172.638 236.608 173.29C236.305 173.937 236.154 174.735 236.154 175.682C236.154 176.629 236.305 177.428 236.608 178.08C236.915 178.727 237.332 179.22 237.858 179.557C238.385 179.89 238.983 180.057 239.654 180.057C240.321 180.057 240.917 179.89 241.444 179.557C241.974 179.22 242.391 178.727 242.694 178.08C243.001 177.428 243.154 176.629 243.154 175.682ZM256.298 169.864V181.5H254.684L248.769 172.966H248.661V181.5H246.905V169.864H248.53L254.451 178.409H254.559V169.864H256.298ZM266.558 173.54C266.448 173.195 266.3 172.886 266.114 172.614C265.933 172.337 265.715 172.102 265.461 171.909C265.207 171.712 264.917 171.562 264.592 171.46C264.27 171.358 263.916 171.307 263.529 171.307C262.874 171.307 262.283 171.475 261.756 171.812C261.23 172.15 260.813 172.644 260.506 173.295C260.203 173.943 260.052 174.737 260.052 175.676C260.052 176.619 260.205 177.417 260.512 178.068C260.819 178.72 261.239 179.214 261.774 179.551C262.308 179.888 262.916 180.057 263.597 180.057C264.23 180.057 264.781 179.928 265.251 179.67C265.724 179.413 266.09 179.049 266.347 178.58C266.609 178.106 266.739 177.549 266.739 176.909L267.194 176.994H263.864V175.545H268.438V176.869C268.438 177.847 268.23 178.695 267.813 179.415C267.4 180.131 266.828 180.684 266.097 181.074C265.37 181.464 264.537 181.659 263.597 181.659C262.544 181.659 261.62 181.417 260.825 180.932C260.033 180.447 259.416 179.759 258.972 178.869C258.529 177.975 258.308 176.915 258.308 175.688C258.308 174.759 258.436 173.926 258.694 173.188C258.952 172.449 259.313 171.822 259.779 171.307C260.249 170.788 260.8 170.392 261.433 170.119C262.069 169.843 262.764 169.705 263.518 169.705C264.147 169.705 264.732 169.797 265.274 169.983C265.819 170.169 266.304 170.432 266.728 170.773C267.156 171.114 267.51 171.519 267.791 171.989C268.071 172.455 268.26 172.972 268.359 173.54H266.558ZM276.838 172.92C276.777 172.383 276.527 171.966 276.088 171.67C275.648 171.371 275.095 171.222 274.428 171.222C273.951 171.222 273.538 171.297 273.19 171.449C272.841 171.597 272.571 171.801 272.377 172.062C272.188 172.32 272.093 172.614 272.093 172.943C272.093 173.22 272.158 173.458 272.286 173.659C272.419 173.86 272.591 174.028 272.803 174.165C273.019 174.297 273.25 174.409 273.497 174.5C273.743 174.587 273.98 174.659 274.207 174.716L275.343 175.011C275.714 175.102 276.095 175.225 276.485 175.381C276.875 175.536 277.237 175.741 277.571 175.994C277.904 176.248 278.173 176.562 278.377 176.938C278.586 177.312 278.69 177.761 278.69 178.284C278.69 178.943 278.519 179.528 278.178 180.04C277.841 180.551 277.351 180.955 276.707 181.25C276.067 181.545 275.292 181.693 274.383 181.693C273.512 181.693 272.758 181.555 272.122 181.278C271.485 181.002 270.987 180.61 270.627 180.102C270.267 179.591 270.069 178.985 270.031 178.284H271.792C271.826 178.705 271.963 179.055 272.201 179.335C272.444 179.612 272.752 179.818 273.127 179.955C273.506 180.087 273.921 180.153 274.372 180.153C274.868 180.153 275.309 180.076 275.696 179.92C276.086 179.761 276.392 179.542 276.616 179.261C276.839 178.977 276.951 178.646 276.951 178.267C276.951 177.922 276.853 177.64 276.656 177.42C276.463 177.201 276.199 177.019 275.866 176.875C275.536 176.731 275.163 176.604 274.747 176.494L273.372 176.119C272.44 175.866 271.701 175.492 271.156 175C270.614 174.508 270.343 173.856 270.343 173.045C270.343 172.375 270.525 171.79 270.889 171.29C271.252 170.79 271.745 170.402 272.366 170.125C272.987 169.845 273.688 169.705 274.468 169.705C275.256 169.705 275.951 169.843 276.553 170.119C277.16 170.396 277.637 170.777 277.985 171.261C278.334 171.742 278.516 172.295 278.531 172.92H276.838ZM286.708 181.5V182.943H279.316V181.5H286.708ZM286.315 171.375V169.864H295.321V171.375H291.69V181.5H289.94V171.375H286.315ZM306.743 175.682C306.743 176.924 306.516 177.992 306.061 178.886C305.606 179.777 304.983 180.462 304.192 180.943C303.404 181.42 302.508 181.659 301.504 181.659C300.497 181.659 299.597 181.42 298.805 180.943C298.017 180.462 297.396 179.775 296.942 178.881C296.487 177.987 296.26 176.92 296.26 175.682C296.26 174.439 296.487 173.373 296.942 172.483C297.396 171.589 298.017 170.903 298.805 170.426C299.597 169.945 300.497 169.705 301.504 169.705C302.508 169.705 303.404 169.945 304.192 170.426C304.983 170.903 305.606 171.589 306.061 172.483C306.516 173.373 306.743 174.439 306.743 175.682ZM305.004 175.682C305.004 174.735 304.851 173.937 304.544 173.29C304.241 172.638 303.824 172.146 303.294 171.812C302.767 171.475 302.171 171.307 301.504 171.307C300.834 171.307 300.235 171.475 299.709 171.812C299.182 172.146 298.766 172.638 298.459 173.29C298.156 173.937 298.004 174.735 298.004 175.682C298.004 176.629 298.156 177.428 298.459 178.08C298.766 178.727 299.182 179.22 299.709 179.557C300.235 179.89 300.834 180.057 301.504 180.057C302.171 180.057 302.767 179.89 303.294 179.557C303.824 179.22 304.241 178.727 304.544 178.08C304.851 177.428 305.004 176.629 305.004 175.682Z" fill="black" fill-opacity="0.8"/>
<path d="M22.966 344V336.762H24.632V337.798C24.744 337.611 24.8957 337.432 25.087 337.259C25.283 337.086 25.5233 336.946 25.808 336.839C26.0927 336.732 26.4263 336.678 26.809 336.678C27.257 336.678 27.6723 336.767 28.055 336.944C28.4423 337.121 28.7527 337.399 28.986 337.777C29.224 338.155 29.343 338.643 29.343 339.24V344H27.635V339.443C27.635 338.967 27.5043 338.615 27.243 338.386C26.9817 338.153 26.6527 338.036 26.256 338.036C25.9853 338.036 25.7287 338.083 25.486 338.176C25.2433 338.265 25.045 338.402 24.891 338.589C24.7417 338.771 24.667 339 24.667 339.275V344H22.966ZM33.2211 344.14C32.7591 344.14 32.3438 344.056 31.9751 343.888C31.6111 343.715 31.3241 343.47 31.1141 343.153C30.9088 342.831 30.8061 342.441 30.8061 341.984C30.8061 341.186 31.0931 340.584 31.6671 340.178C32.2458 339.772 33.1651 339.56 34.4251 339.541L35.5101 339.513V339.023C35.5101 338.64 35.3958 338.342 35.1671 338.127C34.9431 337.908 34.5931 337.8 34.1171 337.805C33.7624 337.81 33.4404 337.894 33.1511 338.057C32.8618 338.216 32.6704 338.484 32.5771 338.862H31.1281C31.1561 338.367 31.2984 337.954 31.5551 337.623C31.8164 337.287 32.1734 337.037 32.6261 336.874C33.0788 336.706 33.6014 336.622 34.1941 336.622C34.8848 336.622 35.4471 336.713 35.8811 336.895C36.3151 337.077 36.6348 337.341 36.8401 337.686C37.0454 338.027 37.1481 338.44 37.1481 338.925V344H35.7131L35.5731 342.698C35.3164 343.244 34.9874 343.622 34.5861 343.832C34.1894 344.037 33.7344 344.14 33.2211 344.14ZM33.7741 342.985C33.9841 342.985 34.1918 342.948 34.3971 342.873C34.6024 342.794 34.7868 342.689 34.9501 342.558C35.1181 342.423 35.2511 342.273 35.3491 342.11C35.4518 341.947 35.5054 341.776 35.5101 341.599V340.458L34.6211 340.472C34.1824 340.477 33.7974 340.523 33.4661 340.612C33.1394 340.701 32.8851 340.843 32.7031 341.039C32.5211 341.23 32.4301 341.487 32.4301 341.809C32.4301 342.178 32.5584 342.467 32.8151 342.677C33.0718 342.882 33.3914 342.985 33.7741 342.985ZM38.9621 344V336.762H40.6211V337.798C40.8311 337.481 41.1158 337.205 41.4751 336.972C41.8391 336.739 42.3011 336.622 42.8611 336.622C43.1178 336.622 43.3768 336.666 43.6381 336.755C43.9041 336.844 44.1491 336.974 44.3731 337.147C44.6018 337.32 44.7838 337.534 44.9191 337.791C45.1478 337.45 45.4511 337.17 45.8291 336.951C46.2118 336.732 46.6411 336.622 47.1171 336.622C47.3784 336.622 47.6468 336.664 47.9221 336.748C48.2021 336.832 48.4588 336.972 48.6921 337.168C48.9254 337.364 49.1144 337.632 49.2591 337.973C49.4038 338.309 49.4761 338.731 49.4761 339.24V344H47.7751V339.443C47.7751 339.084 47.7121 338.801 47.5861 338.596C47.4601 338.391 47.2968 338.246 47.0961 338.162C46.9001 338.073 46.6901 338.029 46.4661 338.029C46.2654 338.029 46.0554 338.069 45.8361 338.148C45.6214 338.227 45.4371 338.358 45.2831 338.54C45.1338 338.722 45.0591 338.967 45.0591 339.275V344H43.3581V339.17C43.3581 338.918 43.2928 338.708 43.1621 338.54C43.0314 338.372 42.8658 338.246 42.6651 338.162C42.4691 338.073 42.2684 338.029 42.0631 338.029C41.8531 338.029 41.6384 338.073 41.4191 338.162C41.2044 338.251 41.0248 338.386 40.8801 338.568C40.7354 338.75 40.6631 338.986 40.6631 339.275V344H38.9621ZM54.5068 344.14C53.8115 344.14 53.1978 343.993 52.6658 343.699C52.1385 343.4 51.7255 342.976 51.4268 342.425C51.1328 341.874 50.9858 341.219 50.9858 340.458C50.9858 339.716 51.1188 339.058 51.3848 338.484C51.6555 337.905 52.0451 337.45 52.5538 337.119C53.0671 336.788 53.6855 336.622 54.4088 336.622C55.1228 336.622 55.7225 336.774 56.2078 337.077C56.6931 337.38 57.0618 337.805 57.3138 338.351C57.5658 338.892 57.6918 339.527 57.6918 340.255V340.773H52.6868C52.6821 341.184 52.7475 341.548 52.8828 341.865C53.0181 342.182 53.2188 342.432 53.4848 342.614C53.7508 342.791 54.0798 342.88 54.4718 342.88C54.8731 342.88 55.2208 342.791 55.5148 342.614C55.8135 342.432 56.0118 342.157 56.1098 341.788H57.6638C57.5798 342.292 57.3791 342.719 57.0618 343.069C56.7491 343.419 56.3665 343.685 55.9138 343.867C55.4658 344.049 54.9968 344.14 54.5068 344.14ZM52.6798 339.716H56.0818C56.0818 339.366 56.0188 339.051 55.8928 338.771C55.7715 338.486 55.5871 338.262 55.3398 338.099C55.0925 337.931 54.7798 337.847 54.4018 337.847C54.0285 337.847 53.7135 337.938 53.4568 338.12C53.2001 338.302 53.0065 338.538 52.8758 338.827C52.7451 339.112 52.6798 339.408 52.6798 339.716ZM59.0815 338.932V336.986H61.0065V338.932H59.0815ZM59.0815 343.958V342.026H61.0065V343.958H59.0815ZM65.6691 337.091V335.537L66.9781 333.444H67.6641L66.8661 335.271L67.5311 335.327V337.091H65.6691ZM67.6752 344L71.3082 333.878H73.1562L76.7892 344H75.0812L74.1782 341.459H70.3002L69.3902 344H67.6752ZM70.7062 339.947H73.7512L72.2322 335.53L70.7062 339.947ZM80.3137 344.105C79.8471 344.105 79.4737 344.047 79.1937 343.93C78.9137 343.813 78.7037 343.657 78.5637 343.461C78.4237 343.265 78.3327 343.046 78.2907 342.803C78.2487 342.556 78.2277 342.304 78.2277 342.047V333.598H79.8937V341.851C79.8937 342.164 79.9567 342.406 80.0827 342.579C80.2134 342.752 80.4234 342.852 80.7127 342.88L81.0767 342.894V343.965C80.9507 344.002 80.8224 344.035 80.6917 344.063C80.5611 344.091 80.4351 344.105 80.3137 344.105ZM82.6307 344V336.762H84.2617V344H82.6307ZM82.6027 335.495V333.885H84.2897V335.495H82.6027ZM89.2501 344.14C88.5874 344.14 87.9971 343.995 87.4791 343.706C86.9658 343.412 86.5621 342.987 86.2681 342.432C85.9741 341.872 85.8271 341.198 85.8271 340.409C85.8271 339.658 85.9648 339 86.2401 338.435C86.5201 337.866 86.9144 337.422 87.4231 337.105C87.9364 336.783 88.5454 336.622 89.2501 336.622C89.8148 336.622 90.3118 336.734 90.7411 336.958C91.1704 337.182 91.5134 337.492 91.7701 337.889C92.0314 338.286 92.1878 338.736 92.2391 339.24H90.7901C90.7528 339.021 90.6711 338.813 90.5451 338.617C90.4191 338.416 90.2488 338.255 90.0341 338.134C89.8241 338.008 89.5674 337.945 89.2641 337.945C88.7181 337.945 88.2771 338.146 87.9411 338.547C87.6051 338.948 87.4371 339.564 87.4371 340.395C87.4371 341.16 87.5958 341.769 87.9131 342.222C88.2351 342.675 88.6948 342.901 89.2921 342.901C89.5908 342.901 89.8474 342.836 90.0621 342.705C90.2768 342.57 90.4448 342.404 90.5661 342.208C90.6921 342.007 90.7714 341.807 90.8041 341.606H92.2181C92.1761 342.096 92.0244 342.532 91.7631 342.915C91.5018 343.298 91.1564 343.599 90.7271 343.818C90.2978 344.033 89.8054 344.14 89.2501 344.14ZM97.0263 344.14C96.331 344.14 95.7173 343.993 95.1853 343.699C94.658 343.4 94.245 342.976 93.9463 342.425C93.6523 341.874 93.5053 341.219 93.5053 340.458C93.5053 339.716 93.6383 339.058 93.9043 338.484C94.175 337.905 94.5647 337.45 95.0733 337.119C95.5867 336.788 96.205 336.622 96.9283 336.622C97.6423 336.622 98.242 336.774 98.7273 337.077C99.2127 337.38 99.5813 337.805 99.8333 338.351C100.085 338.892 100.211 339.527 100.211 340.255V340.773H95.2063C95.2017 341.184 95.267 341.548 95.4023 341.865C95.5377 342.182 95.7383 342.432 96.0043 342.614C96.2703 342.791 96.5993 342.88 96.9913 342.88C97.3927 342.88 97.7403 342.791 98.0343 342.614C98.333 342.432 98.5313 342.157 98.6293 341.788H100.183C100.099 342.292 99.8987 342.719 99.5813 343.069C99.2687 343.419 98.886 343.685 98.4333 343.867C97.9853 344.049 97.5163 344.14 97.0263 344.14ZM95.1993 339.716H98.6013C98.6013 339.366 98.5383 339.051 98.4123 338.771C98.291 338.486 98.1067 338.262 97.8593 338.099C97.612 337.931 97.2993 337.847 96.9213 337.847C96.548 337.847 96.233 337.938 95.9763 338.12C95.7197 338.302 95.526 338.538 95.3953 338.827C95.2647 339.112 95.1993 339.408 95.1993 339.716ZM101.026 337.525L101.817 335.698L101.159 335.649V333.878H103.021V335.432L101.712 337.525H101.026Z" fill="black"/>
<path d="M387.966 17V9.762H389.632V10.798C389.744 10.6113 389.896 10.4317 390.087 10.259C390.283 10.0863 390.523 9.94633 390.808 9.839C391.093 9.73167 391.426 9.678 391.809 9.678C392.257 9.678 392.672 9.76667 393.055 9.944C393.442 10.1213 393.753 10.399 393.986 10.777C394.224 11.155 394.343 11.6427 394.343 12.24V17H392.635V12.443C392.635 11.967 392.504 11.6147 392.243 11.386C391.982 11.1527 391.653 11.036 391.256 11.036C390.985 11.036 390.729 11.0827 390.486 11.176C390.243 11.2647 390.045 11.4023 389.891 11.589C389.742 11.771 389.667 11.9997 389.667 12.275V17H387.966ZM398.221 17.14C397.759 17.14 397.344 17.056 396.975 16.888C396.611 16.7153 396.324 16.4703 396.114 16.153C395.909 15.831 395.806 15.4413 395.806 14.984C395.806 14.186 396.093 13.584 396.667 13.178C397.246 12.772 398.165 12.5597 399.425 12.541L400.51 12.513V12.023C400.51 11.6403 400.396 11.3417 400.167 11.127C399.943 10.9077 399.593 10.8003 399.117 10.805C398.762 10.8097 398.44 10.8937 398.151 11.057C397.862 11.2157 397.67 11.484 397.577 11.862H396.128C396.156 11.3673 396.298 10.9543 396.555 10.623C396.816 10.287 397.173 10.0373 397.626 9.874C398.079 9.706 398.601 9.622 399.194 9.622C399.885 9.622 400.447 9.713 400.881 9.895C401.315 10.077 401.635 10.3407 401.84 10.686C402.045 11.0267 402.148 11.4397 402.148 11.925V17H400.713L400.573 15.698C400.316 16.244 399.987 16.622 399.586 16.832C399.189 17.0373 398.734 17.14 398.221 17.14ZM398.774 15.985C398.984 15.985 399.192 15.9477 399.397 15.873C399.602 15.7937 399.787 15.6887 399.95 15.558C400.118 15.4227 400.251 15.2733 400.349 15.11C400.452 14.9467 400.505 14.7763 400.51 14.599V13.458L399.621 13.472C399.182 13.4767 398.797 13.5233 398.466 13.612C398.139 13.7007 397.885 13.843 397.703 14.039C397.521 14.2303 397.43 14.487 397.43 14.809C397.43 15.1777 397.558 15.467 397.815 15.677C398.072 15.8823 398.391 15.985 398.774 15.985ZM403.962 17V9.762H405.621V10.798C405.831 10.4807 406.116 10.2053 406.475 9.972C406.839 9.73867 407.301 9.622 407.861 9.622C408.118 9.622 408.377 9.66633 408.638 9.755C408.904 9.84367 409.149 9.97433 409.373 10.147C409.602 10.3197 409.784 10.5343 409.919 10.791C410.148 10.4503 410.451 10.1703 410.829 9.951C411.212 9.73167 411.641 9.622 412.117 9.622C412.378 9.622 412.647 9.664 412.922 9.748C413.202 9.832 413.459 9.972 413.692 10.168C413.925 10.364 414.114 10.6323 414.259 10.973C414.404 11.309 414.476 11.7313 414.476 12.24V17H412.775V12.443C412.775 12.0837 412.712 11.8013 412.586 11.596C412.46 11.3907 412.297 11.246 412.096 11.162C411.9 11.0733 411.69 11.029 411.466 11.029C411.265 11.029 411.055 11.0687 410.836 11.148C410.621 11.2273 410.437 11.358 410.283 11.54C410.134 11.722 410.059 11.967 410.059 12.275V17H408.358V12.17C408.358 11.918 408.293 11.708 408.162 11.54C408.031 11.372 407.866 11.246 407.665 11.162C407.469 11.0733 407.268 11.029 407.063 11.029C406.853 11.029 406.638 11.0733 406.419 11.162C406.204 11.2507 406.025 11.386 405.88 11.568C405.735 11.75 405.663 11.9857 405.663 12.275V17H403.962ZM419.507 17.14C418.811 17.14 418.198 16.993 417.666 16.699C417.138 16.4003 416.725 15.9757 416.427 15.425C416.133 14.8743 415.986 14.2187 415.986 13.458C415.986 12.716 416.119 12.058 416.385 11.484C416.655 10.9053 417.045 10.4503 417.554 10.119C418.067 9.78767 418.685 9.622 419.409 9.622C420.123 9.622 420.722 9.77367 421.208 10.077C421.693 10.3803 422.062 10.805 422.314 11.351C422.566 11.8923 422.692 12.527 422.692 13.255V13.773H417.687C417.682 14.1837 417.747 14.5477 417.883 14.865C418.018 15.1823 418.219 15.432 418.485 15.614C418.751 15.7913 419.08 15.88 419.472 15.88C419.873 15.88 420.221 15.7913 420.515 15.614C420.813 15.432 421.012 15.1567 421.11 14.788H422.664C422.58 15.292 422.379 15.719 422.062 16.069C421.749 16.419 421.366 16.685 420.914 16.867C420.466 17.049 419.997 17.14 419.507 17.14ZM417.68 12.716H421.082C421.082 12.366 421.019 12.051 420.893 11.771C420.771 11.4863 420.587 11.2623 420.34 11.099C420.092 10.931 419.78 10.847 419.402 10.847C419.028 10.847 418.713 10.938 418.457 11.12C418.2 11.302 418.006 11.5377 417.876 11.827C417.745 12.1117 417.68 12.408 417.68 12.716ZM424.082 11.932V9.986H426.007V11.932H424.082ZM424.082 16.958V15.026H426.007V16.958H424.082ZM431.369 10.497L430.9 6.878H432.755L432.265 10.497H431.369ZM438.934 17L438.941 14.599H434.23V13.15L438.892 6.878H440.586V13.15H442.203V14.599H440.586V17H438.934ZM435.826 13.15H438.927V8.992L435.826 13.15ZM443.842 17V6.878H450.464L450.457 8.32H445.571V11.232H449.883V12.653H445.571V17H443.842ZM456.19 17.14C455.257 17.14 454.503 16.986 453.929 16.678C453.36 16.3653 452.947 15.9173 452.69 15.334C452.433 14.746 452.305 14.0367 452.305 13.206V6.878H454.048V13.381C454.048 14.165 454.239 14.7437 454.622 15.117C455.009 15.4903 455.532 15.677 456.19 15.677C456.633 15.677 457.018 15.5953 457.345 15.432C457.672 15.2687 457.924 15.019 458.101 14.683C458.278 14.3423 458.367 13.9083 458.367 13.381V6.878H460.089V13.304C460.089 14.1067 459.958 14.795 459.697 15.369C459.436 15.9383 459.018 16.377 458.444 16.685C457.875 16.9883 457.123 17.14 456.19 17.14ZM464.518 17V8.411H461.368V6.878H469.264V8.411H466.226V17H464.518ZM474.674 17.14C473.741 17.14 472.987 16.986 472.413 16.678C471.844 16.3653 471.431 15.9173 471.174 15.334C470.918 14.746 470.789 14.0367 470.789 13.206V6.878H472.532V13.381C472.532 14.165 472.724 14.7437 473.106 15.117C473.494 15.4903 474.016 15.677 474.674 15.677C475.118 15.677 475.503 15.5953 475.829 15.432C476.156 15.2687 476.408 15.019 476.585 14.683C476.763 14.3423 476.851 13.9083 476.851 13.381V6.878H478.573V13.304C478.573 14.1067 478.443 14.795 478.181 15.369C477.92 15.9383 477.502 16.377 476.928 16.685C476.359 16.9883 475.608 17.14 474.674 17.14ZM480.784 17V6.878H484.893C485.667 6.878 486.304 6.99933 486.804 7.242C487.308 7.48 487.681 7.81833 487.924 8.257C488.166 8.691 488.288 9.19967 488.288 9.783C488.288 10.3243 488.199 10.7793 488.022 11.148C487.844 11.512 487.613 11.8107 487.329 12.044C487.049 12.2727 486.748 12.4593 486.426 12.604L488.358 17H486.58L484.837 12.891H482.485V17H480.784ZM482.485 11.54H484.508C485.152 11.54 485.653 11.3907 486.013 11.092C486.377 10.7933 486.559 10.378 486.559 9.846C486.559 9.32333 486.391 8.91967 486.055 8.635C485.719 8.35033 485.275 8.208 484.725 8.208H482.485V11.54ZM490.395 17V6.878H497.087L497.08 8.341H492.11V11.176H496.499V12.618H492.096V15.516L497.185 15.523V17H490.395ZM498.675 10.525L499.466 8.698L498.808 8.649V6.878H500.67V8.432L499.361 10.525H498.675Z" fill="black"/>
<path d="M385 261C385 225.654 413.654 197 449 197V197C484.346 197 513 225.654 513 261V261C513 296.346 484.346 325 449 325V325C413.654 325 385 296.346 385 261V261Z" fill="#C990C0"/>
<path d="M411.536 266V255.878C411.569 255.878 411.667 255.88 411.83 255.885C411.998 255.885 412.201 255.885 412.439 255.885C412.677 255.88 412.925 255.88 413.181 255.885C413.438 255.885 413.674 255.887 413.888 255.892C415.13 255.911 416.135 256.114 416.905 256.501C417.68 256.884 418.247 257.441 418.606 258.174C418.97 258.907 419.152 259.807 419.152 260.876C419.152 261.996 418.956 262.936 418.564 263.697C418.177 264.458 417.584 265.032 416.786 265.419C415.993 265.806 414.983 266 413.755 266H411.536ZM412.866 264.887H413.755C414.591 264.887 415.309 264.759 415.911 264.502C416.513 264.241 416.975 263.818 417.297 263.235C417.624 262.652 417.787 261.872 417.787 260.897C417.787 259.922 417.629 259.149 417.311 258.58C416.999 258.011 416.546 257.605 415.953 257.362C415.361 257.115 414.647 256.991 413.811 256.991H412.866V264.887ZM424.036 266.14C423.364 266.14 422.772 265.993 422.258 265.699C421.745 265.405 421.344 264.983 421.054 264.432C420.765 263.881 420.62 263.221 420.62 262.451C420.62 261.69 420.751 261.023 421.012 260.449C421.274 259.875 421.652 259.427 422.146 259.105C422.646 258.783 423.245 258.622 423.945 258.622C424.627 258.622 425.203 258.769 425.674 259.063C426.146 259.357 426.503 259.772 426.745 260.309C426.993 260.841 427.116 261.473 427.116 262.206V262.682H421.929C421.929 263.139 422.004 263.555 422.153 263.928C422.307 264.297 422.538 264.591 422.846 264.81C423.154 265.029 423.544 265.139 424.015 265.139C424.477 265.139 424.874 265.032 425.205 264.817C425.541 264.602 425.756 264.292 425.849 263.886H427.067C426.983 264.376 426.787 264.789 426.479 265.125C426.176 265.461 425.81 265.715 425.38 265.888C424.956 266.056 424.508 266.14 424.036 266.14ZM421.936 261.807H425.87C425.87 261.392 425.8 261.018 425.66 260.687C425.52 260.351 425.306 260.087 425.016 259.896C424.732 259.7 424.372 259.602 423.938 259.602C423.486 259.602 423.11 259.712 422.811 259.931C422.513 260.146 422.291 260.423 422.146 260.764C422.002 261.1 421.932 261.448 421.936 261.807ZM428.907 268.254V258.762H430.195L430.209 260.022C430.293 259.873 430.4 259.716 430.531 259.553C430.666 259.39 430.83 259.238 431.021 259.098C431.217 258.958 431.443 258.844 431.7 258.755C431.961 258.666 432.258 258.622 432.589 258.622C433.168 258.622 433.676 258.755 434.115 259.021C434.558 259.282 434.904 259.684 435.151 260.225C435.398 260.766 435.522 261.452 435.522 262.283C435.522 263.114 435.401 263.816 435.158 264.39C434.92 264.959 434.575 265.393 434.122 265.692C433.669 265.991 433.123 266.14 432.484 266.14C432.162 266.14 431.875 266.093 431.623 266C431.376 265.911 431.159 265.795 430.972 265.65C430.79 265.501 430.636 265.342 430.51 265.174C430.389 265.006 430.288 264.845 430.209 264.691V268.254H428.907ZM432.239 265.132C432.836 265.132 433.324 264.906 433.702 264.453C434.08 263.996 434.269 263.286 434.269 262.325C434.269 261.499 434.096 260.843 433.751 260.358C433.406 259.873 432.902 259.63 432.239 259.63C431.567 259.63 431.058 259.88 430.713 260.379C430.368 260.874 430.195 261.522 430.195 262.325C430.195 262.843 430.272 263.314 430.426 263.739C430.58 264.164 430.809 264.502 431.112 264.754C431.415 265.006 431.791 265.132 432.239 265.132ZM439.195 266.14C438.723 266.14 438.308 266.058 437.949 265.895C437.594 265.727 437.314 265.487 437.109 265.174C436.908 264.861 436.808 264.483 436.808 264.04C436.808 263.237 437.088 262.64 437.648 262.248C438.208 261.856 439.106 261.646 440.343 261.618L441.631 261.583V261.016C441.631 260.573 441.498 260.223 441.232 259.966C440.966 259.705 440.555 259.574 440 259.574C439.584 259.579 439.218 259.677 438.901 259.868C438.583 260.059 438.38 260.372 438.292 260.806H437.151C437.179 260.335 437.309 259.938 437.543 259.616C437.781 259.289 438.114 259.042 438.544 258.874C438.973 258.706 439.479 258.622 440.063 258.622C440.693 258.622 441.215 258.711 441.631 258.888C442.051 259.065 442.363 259.327 442.569 259.672C442.779 260.017 442.884 260.442 442.884 260.946V266H441.778L441.68 264.642C441.404 265.207 441.05 265.599 440.616 265.818C440.186 266.033 439.713 266.14 439.195 266.14ZM439.58 265.209C439.827 265.209 440.07 265.165 440.308 265.076C440.55 264.987 440.77 264.868 440.966 264.719C441.166 264.565 441.327 264.395 441.449 264.208C441.57 264.017 441.631 263.821 441.631 263.62V262.381L440.56 262.402C440.004 262.411 439.542 262.467 439.174 262.57C438.805 262.673 438.527 262.834 438.341 263.053C438.154 263.272 438.061 263.559 438.061 263.914C438.061 264.32 438.203 264.637 438.488 264.866C438.772 265.095 439.136 265.209 439.58 265.209ZM444.903 266V258.762H446.135V260.155C446.256 259.81 446.427 259.525 446.646 259.301C446.865 259.072 447.115 258.902 447.395 258.79C447.68 258.678 447.974 258.622 448.277 258.622C448.384 258.622 448.489 258.629 448.592 258.643C448.695 258.657 448.774 258.68 448.83 258.713V259.966C448.76 259.933 448.669 259.912 448.557 259.903C448.45 259.889 448.359 259.882 448.284 259.882C447.995 259.863 447.724 259.882 447.472 259.938C447.22 259.989 446.998 260.08 446.807 260.211C446.616 260.342 446.464 260.514 446.352 260.729C446.245 260.939 446.191 261.196 446.191 261.499V266H444.903ZM452.82 266.035C452.32 266.035 451.933 265.967 451.658 265.832C451.382 265.697 451.189 265.496 451.077 265.23C450.969 264.964 450.916 264.637 450.916 264.25V259.707H449.74V258.762H450.951L451.266 256.655H452.218V258.755H453.849V259.707H452.218V264.208C452.218 264.465 452.243 264.654 452.295 264.775C452.351 264.892 452.442 264.966 452.568 264.999C452.694 265.032 452.871 265.048 453.1 265.048H453.891V265.916C453.802 265.949 453.667 265.977 453.485 266C453.307 266.023 453.086 266.035 452.82 266.035ZM455.608 266V258.762H456.854V259.812C457.055 259.495 457.33 259.217 457.68 258.979C458.03 258.741 458.485 258.622 459.045 258.622C459.306 258.622 459.572 258.666 459.843 258.755C460.118 258.844 460.37 258.977 460.599 259.154C460.828 259.331 461.005 259.548 461.131 259.805C461.355 259.45 461.658 259.166 462.041 258.951C462.424 258.732 462.855 258.622 463.336 258.622C463.588 258.622 463.852 258.662 464.127 258.741C464.402 258.816 464.657 258.951 464.89 259.147C465.128 259.338 465.322 259.607 465.471 259.952C465.62 260.293 465.695 260.731 465.695 261.268V266H464.393V261.394C464.393 260.955 464.323 260.617 464.183 260.379C464.043 260.136 463.859 259.966 463.63 259.868C463.406 259.77 463.166 259.721 462.909 259.721C462.685 259.721 462.447 259.765 462.195 259.854C461.943 259.943 461.728 260.092 461.551 260.302C461.374 260.512 461.285 260.799 461.285 261.163V266H459.997V261.016C459.997 260.731 459.92 260.493 459.766 260.302C459.617 260.111 459.428 259.966 459.199 259.868C458.975 259.77 458.751 259.721 458.527 259.721C458.28 259.721 458.03 259.77 457.778 259.868C457.531 259.966 457.321 260.122 457.148 260.337C456.98 260.547 456.896 260.822 456.896 261.163V266H455.608ZM470.78 266.14C470.108 266.14 469.516 265.993 469.002 265.699C468.489 265.405 468.088 264.983 467.798 264.432C467.509 263.881 467.364 263.221 467.364 262.451C467.364 261.69 467.495 261.023 467.756 260.449C468.018 259.875 468.396 259.427 468.89 259.105C469.39 258.783 469.989 258.622 470.689 258.622C471.371 258.622 471.947 258.769 472.418 259.063C472.89 259.357 473.247 259.772 473.489 260.309C473.737 260.841 473.86 261.473 473.86 262.206V262.682H468.673C468.673 263.139 468.748 263.555 468.897 263.928C469.051 264.297 469.282 264.591 469.59 264.81C469.898 265.029 470.288 265.139 470.759 265.139C471.221 265.139 471.618 265.032 471.949 264.817C472.285 264.602 472.5 264.292 472.593 263.886H473.811C473.727 264.376 473.531 264.789 473.223 265.125C472.92 265.461 472.554 265.715 472.124 265.888C471.7 266.056 471.252 266.14 470.78 266.14ZM468.68 261.807H472.614C472.614 261.392 472.544 261.018 472.404 260.687C472.264 260.351 472.05 260.087 471.76 259.896C471.476 259.7 471.116 259.602 470.682 259.602C470.23 259.602 469.854 259.712 469.555 259.931C469.257 260.146 469.035 260.423 468.89 260.764C468.746 261.1 468.676 261.448 468.68 261.807ZM475.651 266V258.762H476.904V259.812C477.021 259.611 477.182 259.422 477.387 259.245C477.597 259.068 477.849 258.925 478.143 258.818C478.442 258.711 478.785 258.657 479.172 258.657C479.629 258.657 480.049 258.748 480.432 258.93C480.819 259.112 481.127 259.397 481.356 259.784C481.589 260.167 481.706 260.661 481.706 261.268V266H480.411V261.394C480.411 260.829 480.262 260.412 479.963 260.141C479.669 259.866 479.286 259.728 478.815 259.728C478.488 259.728 478.183 259.782 477.898 259.889C477.613 259.992 477.382 260.15 477.205 260.365C477.028 260.575 476.939 260.841 476.939 261.163V266H475.651ZM486.083 266.035C485.584 266.035 485.197 265.967 484.921 265.832C484.646 265.697 484.452 265.496 484.34 265.23C484.233 264.964 484.179 264.637 484.179 264.25V259.707H483.003V258.762H484.214L484.529 256.655H485.481V258.755H487.112V259.707H485.481V264.208C485.481 264.465 485.507 264.654 485.558 264.775C485.614 264.892 485.705 264.966 485.831 264.999C485.957 265.032 486.135 265.048 486.363 265.048H487.154V265.916C487.066 265.949 486.93 265.977 486.748 266C486.571 266.023 486.349 266.035 486.083 266.035Z" fill="white"/>
<path d="M402.966 187V179.762H404.632V180.798C404.744 180.611 404.896 180.432 405.087 180.259C405.283 180.086 405.523 179.946 405.808 179.839C406.093 179.732 406.426 179.678 406.809 179.678C407.257 179.678 407.672 179.767 408.055 179.944C408.442 180.121 408.753 180.399 408.986 180.777C409.224 181.155 409.343 181.643 409.343 182.24V187H407.635V182.443C407.635 181.967 407.504 181.615 407.243 181.386C406.982 181.153 406.653 181.036 406.256 181.036C405.985 181.036 405.729 181.083 405.486 181.176C405.243 181.265 405.045 181.402 404.891 181.589C404.742 181.771 404.667 182 404.667 182.275V187H402.966ZM413.221 187.14C412.759 187.14 412.344 187.056 411.975 186.888C411.611 186.715 411.324 186.47 411.114 186.153C410.909 185.831 410.806 185.441 410.806 184.984C410.806 184.186 411.093 183.584 411.667 183.178C412.246 182.772 413.165 182.56 414.425 182.541L415.51 182.513V182.023C415.51 181.64 415.396 181.342 415.167 181.127C414.943 180.908 414.593 180.8 414.117 180.805C413.762 180.81 413.44 180.894 413.151 181.057C412.862 181.216 412.67 181.484 412.577 181.862H411.128C411.156 181.367 411.298 180.954 411.555 180.623C411.816 180.287 412.173 180.037 412.626 179.874C413.079 179.706 413.601 179.622 414.194 179.622C414.885 179.622 415.447 179.713 415.881 179.895C416.315 180.077 416.635 180.341 416.84 180.686C417.045 181.027 417.148 181.44 417.148 181.925V187H415.713L415.573 185.698C415.316 186.244 414.987 186.622 414.586 186.832C414.189 187.037 413.734 187.14 413.221 187.14ZM413.774 185.985C413.984 185.985 414.192 185.948 414.397 185.873C414.602 185.794 414.787 185.689 414.95 185.558C415.118 185.423 415.251 185.273 415.349 185.11C415.452 184.947 415.505 184.776 415.51 184.599V183.458L414.621 183.472C414.182 183.477 413.797 183.523 413.466 183.612C413.139 183.701 412.885 183.843 412.703 184.039C412.521 184.23 412.43 184.487 412.43 184.809C412.43 185.178 412.558 185.467 412.815 185.677C413.072 185.882 413.391 185.985 413.774 185.985ZM418.962 187V179.762H420.621V180.798C420.831 180.481 421.116 180.205 421.475 179.972C421.839 179.739 422.301 179.622 422.861 179.622C423.118 179.622 423.377 179.666 423.638 179.755C423.904 179.844 424.149 179.974 424.373 180.147C424.602 180.32 424.784 180.534 424.919 180.791C425.148 180.45 425.451 180.17 425.829 179.951C426.212 179.732 426.641 179.622 427.117 179.622C427.378 179.622 427.647 179.664 427.922 179.748C428.202 179.832 428.459 179.972 428.692 180.168C428.925 180.364 429.114 180.632 429.259 180.973C429.404 181.309 429.476 181.731 429.476 182.24V187H427.775V182.443C427.775 182.084 427.712 181.801 427.586 181.596C427.46 181.391 427.297 181.246 427.096 181.162C426.9 181.073 426.69 181.029 426.466 181.029C426.265 181.029 426.055 181.069 425.836 181.148C425.621 181.227 425.437 181.358 425.283 181.54C425.134 181.722 425.059 181.967 425.059 182.275V187H423.358V182.17C423.358 181.918 423.293 181.708 423.162 181.54C423.031 181.372 422.866 181.246 422.665 181.162C422.469 181.073 422.268 181.029 422.063 181.029C421.853 181.029 421.638 181.073 421.419 181.162C421.204 181.251 421.025 181.386 420.88 181.568C420.735 181.75 420.663 181.986 420.663 182.275V187H418.962ZM434.507 187.14C433.811 187.14 433.198 186.993 432.666 186.699C432.138 186.4 431.725 185.976 431.427 185.425C431.133 184.874 430.986 184.219 430.986 183.458C430.986 182.716 431.119 182.058 431.385 181.484C431.655 180.905 432.045 180.45 432.554 180.119C433.067 179.788 433.685 179.622 434.409 179.622C435.123 179.622 435.722 179.774 436.208 180.077C436.693 180.38 437.062 180.805 437.314 181.351C437.566 181.892 437.692 182.527 437.692 183.255V183.773H432.687C432.682 184.184 432.747 184.548 432.883 184.865C433.018 185.182 433.219 185.432 433.485 185.614C433.751 185.791 434.08 185.88 434.472 185.88C434.873 185.88 435.221 185.791 435.515 185.614C435.813 185.432 436.012 185.157 436.11 184.788H437.664C437.58 185.292 437.379 185.719 437.062 186.069C436.749 186.419 436.366 186.685 435.914 186.867C435.466 187.049 434.997 187.14 434.507 187.14ZM432.68 182.716H436.082C436.082 182.366 436.019 182.051 435.893 181.771C435.771 181.486 435.587 181.262 435.34 181.099C435.092 180.931 434.78 180.847 434.402 180.847C434.028 180.847 433.713 180.938 433.457 181.12C433.2 181.302 433.006 181.538 432.876 181.827C432.745 182.112 432.68 182.408 432.68 182.716ZM439.082 181.932V179.986H441.007V181.932H439.082ZM439.082 186.958V185.026H441.007V186.958H439.082ZM445.739 180.525L446.53 178.698L445.872 178.649V176.878H447.734V178.432L446.425 180.525H445.739ZM449.737 187V176.878H453.328C454.056 176.878 454.707 177.004 455.281 177.256C455.859 177.503 456.314 177.87 456.646 178.355C456.977 178.84 457.143 179.438 457.143 180.147C457.143 180.814 456.991 181.386 456.688 181.862C456.389 182.338 455.971 182.702 455.435 182.954C454.898 183.206 454.27 183.332 453.552 183.332H451.466V187H449.737ZM451.452 181.967H453.51C454.102 181.967 454.585 181.79 454.959 181.435C455.337 181.08 455.526 180.618 455.526 180.049C455.526 179.47 455.33 179.022 454.938 178.705C454.546 178.383 454.053 178.222 453.461 178.222H451.452V181.967ZM461.945 187.154C460.774 187.154 459.852 186.713 459.18 185.831C458.513 184.949 458.179 183.663 458.179 181.974C458.179 180.835 458.333 179.879 458.641 179.104C458.949 178.325 459.385 177.737 459.95 177.34C460.515 176.939 461.182 176.738 461.952 176.738C463.109 176.738 464.024 177.184 464.696 178.075C465.373 178.962 465.711 180.257 465.711 181.96C465.711 183.654 465.375 184.944 464.703 185.831C464.036 186.713 463.116 187.154 461.945 187.154ZM461.952 185.733C462.61 185.733 463.1 185.441 463.422 184.858C463.744 184.275 463.905 183.311 463.905 181.967C463.905 180.595 463.742 179.61 463.415 179.013C463.088 178.416 462.598 178.117 461.945 178.117C461.292 178.117 460.797 178.418 460.461 179.02C460.13 179.622 459.964 180.604 459.964 181.967C459.964 183.306 460.13 184.27 460.461 184.858C460.797 185.441 461.294 185.733 461.952 185.733ZM470.905 187.147C470.107 187.147 469.409 187.028 468.812 186.79C468.219 186.547 467.757 186.207 467.426 185.768C467.095 185.329 466.929 184.814 466.929 184.221C466.929 183.834 467.025 183.463 467.216 183.108C467.412 182.753 467.662 182.455 467.965 182.212C468.268 181.965 468.581 181.808 468.903 181.743C468.469 181.547 468.105 181.267 467.811 180.903C467.517 180.534 467.37 180.082 467.37 179.545C467.37 178.943 467.524 178.434 467.832 178.019C468.14 177.599 468.56 177.282 469.092 177.067C469.629 176.848 470.233 176.738 470.905 176.738C471.577 176.738 472.179 176.848 472.711 177.067C473.243 177.282 473.663 177.599 473.971 178.019C474.284 178.434 474.44 178.943 474.44 179.545C474.44 180.082 474.295 180.534 474.006 180.903C473.717 181.267 473.35 181.547 472.907 181.743C473.229 181.808 473.542 181.965 473.845 182.212C474.148 182.455 474.398 182.753 474.594 183.108C474.79 183.463 474.888 183.834 474.888 184.221C474.888 184.814 474.722 185.329 474.391 185.768C474.064 186.207 473.6 186.547 472.998 186.79C472.401 187.028 471.703 187.147 470.905 187.147ZM470.905 185.831C471.572 185.831 472.1 185.682 472.487 185.383C472.874 185.084 473.068 184.685 473.068 184.186C473.068 183.855 472.979 183.563 472.802 183.311C472.625 183.054 472.375 182.854 472.053 182.709C471.731 182.564 471.348 182.492 470.905 182.492C470.466 182.492 470.084 182.564 469.757 182.709C469.435 182.854 469.185 183.054 469.008 183.311C468.835 183.563 468.749 183.855 468.749 184.186C468.749 184.685 468.943 185.084 469.33 185.383C469.722 185.682 470.247 185.831 470.905 185.831ZM470.905 181.064C471.437 181.064 471.871 180.929 472.207 180.658C472.548 180.383 472.718 180 472.718 179.51C472.718 179.025 472.548 178.64 472.207 178.355C471.866 178.07 471.432 177.928 470.905 177.928C470.378 177.928 469.941 178.07 469.596 178.355C469.255 178.64 469.085 179.025 469.085 179.51C469.085 180 469.255 180.383 469.596 180.658C469.941 180.929 470.378 181.064 470.905 181.064ZM478.026 187V179.202H476.15V178.187C476.743 178.187 477.212 178.138 477.557 178.04C477.907 177.937 478.162 177.788 478.32 177.592C478.484 177.396 478.577 177.158 478.6 176.878H479.762V187H478.026ZM486.153 187.154C485.509 187.154 484.909 187.049 484.354 186.839C483.803 186.624 483.327 186.33 482.926 185.957C482.529 185.584 482.233 185.157 482.037 184.676L483.416 183.948C483.588 184.293 483.794 184.604 484.032 184.879C484.274 185.154 484.557 185.371 484.879 185.53C485.205 185.684 485.579 185.761 485.999 185.761C486.657 185.761 487.184 185.579 487.581 185.215C487.982 184.846 488.183 184.356 488.183 183.745C488.183 183.367 488.089 183.031 487.903 182.737C487.721 182.443 487.471 182.214 487.154 182.051C486.841 181.883 486.484 181.799 486.083 181.799C485.845 181.799 485.621 181.82 485.411 181.862C485.205 181.904 484.998 181.983 484.788 182.1C484.578 182.212 484.351 182.382 484.109 182.611C484.062 182.634 484.027 182.646 484.004 182.646C483.985 182.641 483.95 182.627 483.899 182.604L482.59 182.072L483.052 176.878H489.345L489.282 178.299H484.438L484.207 181.113C484.566 180.861 484.928 180.679 485.292 180.567C485.656 180.455 486.057 180.399 486.496 180.399C487.14 180.399 487.725 180.525 488.253 180.777C488.78 181.029 489.2 181.4 489.513 181.89C489.825 182.38 489.982 182.98 489.982 183.689C489.982 184.398 489.823 185.012 489.506 185.53C489.193 186.048 488.75 186.449 488.176 186.734C487.606 187.014 486.932 187.154 486.153 187.154ZM491.321 180.525L492.112 178.698L491.454 178.649V176.878H493.316V178.432L492.007 180.525H491.321Z" fill="black"/>
<path d="M131.5 260C130.948 260 130.5 260.448 130.5 261C130.5 261.552 130.948 262 131.5 262V261V260ZM197.5 262C198.052 262 198.5 261.552 198.5 261C198.5 260.448 198.052 260 197.5 260V261V262ZM315.5 260C314.948 260 314.5 260.448 314.5 261C314.5 261.552 314.948 262 315.5 262V261V260ZM382.207 261.707C382.598 261.317 382.598 260.683 382.207 260.293L375.843 253.929C375.453 253.538 374.819 253.538 374.429 253.929C374.038 254.319 374.038 254.953 374.429 255.343L380.086 261L374.429 266.657C374.038 267.047 374.038 267.681 374.429 268.071C374.819 268.462 375.453 268.462 375.843 268.071L382.207 261.707ZM131.5 261V262H197.5V261V260H131.5V261ZM315.5 261V262H381.5V261V260H315.5V261Z" fill="black" fill-opacity="0.8"/>
<path d="M206.625 267V255.364H210.886C211.712 255.364 212.396 255.5 212.938 255.773C213.479 256.042 213.885 256.407 214.154 256.869C214.422 257.328 214.557 257.845 214.557 258.42C214.557 258.905 214.468 259.314 214.29 259.648C214.112 259.977 213.873 260.242 213.574 260.443C213.279 260.64 212.953 260.784 212.597 260.875V260.989C212.983 261.008 213.36 261.133 213.727 261.364C214.099 261.591 214.405 261.915 214.648 262.335C214.89 262.756 215.011 263.267 215.011 263.869C215.011 264.464 214.871 264.998 214.591 265.472C214.314 265.941 213.886 266.314 213.307 266.591C212.727 266.864 211.987 267 211.085 267H206.625ZM208.381 265.494H210.915C211.756 265.494 212.358 265.331 212.722 265.006C213.085 264.68 213.267 264.273 213.267 263.784C213.267 263.417 213.174 263.08 212.989 262.773C212.803 262.466 212.538 262.222 212.193 262.04C211.852 261.858 211.447 261.767 210.977 261.767H208.381V265.494ZM208.381 260.398H210.733C211.127 260.398 211.481 260.322 211.796 260.17C212.114 260.019 212.366 259.807 212.551 259.534C212.741 259.258 212.835 258.932 212.835 258.557C212.835 258.076 212.667 257.672 212.33 257.347C211.993 257.021 211.475 256.858 210.779 256.858H208.381V260.398ZM216.918 267V255.364H224.213V256.875H218.674V260.42H223.833V261.926H218.674V265.489H224.281V267H216.918ZM226.382 267V255.364H228.138V265.489H233.411V267H226.382ZM244.893 261.182C244.893 262.424 244.665 263.492 244.211 264.386C243.756 265.277 243.133 265.962 242.341 266.443C241.554 266.92 240.658 267.159 239.654 267.159C238.646 267.159 237.747 266.92 236.955 266.443C236.167 265.962 235.546 265.275 235.091 264.381C234.637 263.487 234.41 262.42 234.41 261.182C234.41 259.939 234.637 258.873 235.091 257.983C235.546 257.089 236.167 256.403 236.955 255.926C237.747 255.445 238.646 255.205 239.654 255.205C240.658 255.205 241.554 255.445 242.341 255.926C243.133 256.403 243.756 257.089 244.211 257.983C244.665 258.873 244.893 259.939 244.893 261.182ZM243.154 261.182C243.154 260.235 243.001 259.437 242.694 258.79C242.391 258.138 241.974 257.646 241.444 257.312C240.917 256.975 240.321 256.807 239.654 256.807C238.983 256.807 238.385 256.975 237.858 257.312C237.332 257.646 236.915 258.138 236.608 258.79C236.305 259.437 236.154 260.235 236.154 261.182C236.154 262.129 236.305 262.928 236.608 263.58C236.915 264.227 237.332 264.72 237.858 265.057C238.385 265.39 238.983 265.557 239.654 265.557C240.321 265.557 240.917 265.39 241.444 265.057C241.974 264.72 242.391 264.227 242.694 263.58C243.001 262.928 243.154 262.129 243.154 261.182ZM256.298 255.364V267H254.684L248.769 258.466H248.661V267H246.905V255.364H248.53L254.451 263.909H254.559V255.364H256.298ZM266.558 259.04C266.448 258.695 266.3 258.386 266.114 258.114C265.933 257.837 265.715 257.602 265.461 257.409C265.207 257.212 264.917 257.062 264.592 256.96C264.27 256.858 263.916 256.807 263.529 256.807C262.874 256.807 262.283 256.975 261.756 257.312C261.23 257.65 260.813 258.144 260.506 258.795C260.203 259.443 260.052 260.237 260.052 261.176C260.052 262.119 260.205 262.917 260.512 263.568C260.819 264.22 261.239 264.714 261.774 265.051C262.308 265.388 262.916 265.557 263.597 265.557C264.23 265.557 264.781 265.428 265.251 265.17C265.724 264.913 266.09 264.549 266.347 264.08C266.609 263.606 266.739 263.049 266.739 262.409L267.194 262.494H263.864V261.045H268.438V262.369C268.438 263.347 268.23 264.195 267.813 264.915C267.4 265.631 266.828 266.184 266.097 266.574C265.37 266.964 264.537 267.159 263.597 267.159C262.544 267.159 261.62 266.917 260.825 266.432C260.033 265.947 259.416 265.259 258.972 264.369C258.529 263.475 258.308 262.415 258.308 261.188C258.308 260.259 258.436 259.426 258.694 258.688C258.952 257.949 259.313 257.322 259.779 256.807C260.249 256.288 260.8 255.892 261.433 255.619C262.069 255.343 262.764 255.205 263.518 255.205C264.147 255.205 264.732 255.297 265.274 255.483C265.819 255.669 266.304 255.932 266.728 256.273C267.156 256.614 267.51 257.019 267.791 257.489C268.071 257.955 268.26 258.472 268.359 259.04H266.558ZM276.838 258.42C276.777 257.883 276.527 257.466 276.088 257.17C275.648 256.871 275.095 256.722 274.428 256.722C273.951 256.722 273.538 256.797 273.19 256.949C272.841 257.097 272.571 257.301 272.377 257.562C272.188 257.82 272.093 258.114 272.093 258.443C272.093 258.72 272.158 258.958 272.286 259.159C272.419 259.36 272.591 259.528 272.803 259.665C273.019 259.797 273.25 259.909 273.497 260C273.743 260.087 273.98 260.159 274.207 260.216L275.343 260.511C275.714 260.602 276.095 260.725 276.485 260.881C276.875 261.036 277.237 261.241 277.571 261.494C277.904 261.748 278.173 262.062 278.377 262.438C278.586 262.812 278.69 263.261 278.69 263.784C278.69 264.443 278.519 265.028 278.178 265.54C277.841 266.051 277.351 266.455 276.707 266.75C276.067 267.045 275.292 267.193 274.383 267.193C273.512 267.193 272.758 267.055 272.122 266.778C271.485 266.502 270.987 266.11 270.627 265.602C270.267 265.091 270.069 264.485 270.031 263.784H271.792C271.826 264.205 271.963 264.555 272.201 264.835C272.444 265.112 272.752 265.318 273.127 265.455C273.506 265.587 273.921 265.653 274.372 265.653C274.868 265.653 275.309 265.576 275.696 265.42C276.086 265.261 276.392 265.042 276.616 264.761C276.839 264.477 276.951 264.146 276.951 263.767C276.951 263.422 276.853 263.14 276.656 262.92C276.463 262.701 276.199 262.519 275.866 262.375C275.536 262.231 275.163 262.104 274.747 261.994L273.372 261.619C272.44 261.366 271.701 260.992 271.156 260.5C270.614 260.008 270.343 259.356 270.343 258.545C270.343 257.875 270.525 257.29 270.889 256.79C271.252 256.29 271.745 255.902 272.366 255.625C272.987 255.345 273.688 255.205 274.468 255.205C275.256 255.205 275.951 255.343 276.553 255.619C277.16 255.896 277.637 256.277 277.985 256.761C278.334 257.242 278.516 257.795 278.531 258.42H276.838ZM286.708 267V268.443H279.316V267H286.708ZM286.315 256.875V255.364H295.321V256.875H291.69V267H289.94V256.875H286.315ZM306.743 261.182C306.743 262.424 306.516 263.492 306.061 264.386C305.606 265.277 304.983 265.962 304.192 266.443C303.404 266.92 302.508 267.159 301.504 267.159C300.497 267.159 299.597 266.92 298.805 266.443C298.017 265.962 297.396 265.275 296.942 264.381C296.487 263.487 296.26 262.42 296.26 261.182C296.26 259.939 296.487 258.873 296.942 257.983C297.396 257.089 298.017 256.403 298.805 255.926C299.597 255.445 300.497 255.205 301.504 255.205C302.508 255.205 303.404 255.445 304.192 255.926C304.983 256.403 305.606 257.089 306.061 257.983C306.516 258.873 306.743 259.939 306.743 261.182ZM305.004 261.182C305.004 260.235 304.851 259.437 304.544 258.79C304.241 258.138 303.824 257.646 303.294 257.312C302.767 256.975 302.171 256.807 301.504 256.807C300.834 256.807 300.235 256.975 299.709 257.312C299.182 257.646 298.766 258.138 298.459 258.79C298.156 259.437 298.004 260.235 298.004 261.182C298.004 262.129 298.156 262.928 298.459 263.58C298.766 264.227 299.182 264.72 299.709 265.057C300.235 265.39 300.834 265.557 301.504 265.557C302.171 265.557 302.767 265.39 303.294 265.057C303.824 264.72 304.241 264.227 304.544 263.58C304.851 262.928 305.004 262.129 305.004 261.182Z" fill="black" fill-opacity="0.8"/>
<path d="M384.5 432C384.5 396.654 413.154 368 448.5 368V368C483.846 368 512.5 396.654 512.5 432V432C512.5 467.346 483.846 496 448.5 496V496C413.154 496 384.5 467.346 384.5 432V432Z" fill="#C990C0"/>
<path d="M411.036 437V426.878C411.069 426.878 411.167 426.88 411.33 426.885C411.498 426.885 411.701 426.885 411.939 426.885C412.177 426.88 412.425 426.88 412.681 426.885C412.938 426.885 413.174 426.887 413.388 426.892C414.63 426.911 415.635 427.114 416.405 427.501C417.18 427.884 417.747 428.441 418.106 429.174C418.47 429.907 418.652 430.807 418.652 431.876C418.652 432.996 418.456 433.936 418.064 434.697C417.677 435.458 417.084 436.032 416.286 436.419C415.493 436.806 414.483 437 413.255 437H411.036ZM412.366 435.887H413.255C414.091 435.887 414.809 435.759 415.411 435.502C416.013 435.241 416.475 434.818 416.797 434.235C417.124 433.652 417.287 432.872 417.287 431.897C417.287 430.922 417.129 430.149 416.811 429.58C416.499 429.011 416.046 428.605 415.453 428.362C414.861 428.115 414.147 427.991 413.311 427.991H412.366V435.887ZM423.536 437.14C422.864 437.14 422.272 436.993 421.758 436.699C421.245 436.405 420.844 435.983 420.554 435.432C420.265 434.881 420.12 434.221 420.12 433.451C420.12 432.69 420.251 432.023 420.512 431.449C420.774 430.875 421.152 430.427 421.646 430.105C422.146 429.783 422.745 429.622 423.445 429.622C424.127 429.622 424.703 429.769 425.174 430.063C425.646 430.357 426.003 430.772 426.245 431.309C426.493 431.841 426.616 432.473 426.616 433.206V433.682H421.429C421.429 434.139 421.504 434.555 421.653 434.928C421.807 435.297 422.038 435.591 422.346 435.81C422.654 436.029 423.044 436.139 423.515 436.139C423.977 436.139 424.374 436.032 424.705 435.817C425.041 435.602 425.256 435.292 425.349 434.886H426.567C426.483 435.376 426.287 435.789 425.979 436.125C425.676 436.461 425.31 436.715 424.88 436.888C424.456 437.056 424.008 437.14 423.536 437.14ZM421.436 432.807H425.37C425.37 432.392 425.3 432.018 425.16 431.687C425.02 431.351 424.806 431.087 424.516 430.896C424.232 430.7 423.872 430.602 423.438 430.602C422.986 430.602 422.61 430.712 422.311 430.931C422.013 431.146 421.791 431.423 421.646 431.764C421.502 432.1 421.432 432.448 421.436 432.807ZM428.407 439.254V429.762H429.695L429.709 431.022C429.793 430.873 429.9 430.716 430.031 430.553C430.166 430.39 430.33 430.238 430.521 430.098C430.717 429.958 430.943 429.844 431.2 429.755C431.461 429.666 431.758 429.622 432.089 429.622C432.668 429.622 433.176 429.755 433.615 430.021C434.058 430.282 434.404 430.684 434.651 431.225C434.898 431.766 435.022 432.452 435.022 433.283C435.022 434.114 434.901 434.816 434.658 435.39C434.42 435.959 434.075 436.393 433.622 436.692C433.169 436.991 432.623 437.14 431.984 437.14C431.662 437.14 431.375 437.093 431.123 437C430.876 436.911 430.659 436.795 430.472 436.65C430.29 436.501 430.136 436.342 430.01 436.174C429.889 436.006 429.788 435.845 429.709 435.691V439.254H428.407ZM431.739 436.132C432.336 436.132 432.824 435.906 433.202 435.453C433.58 434.996 433.769 434.286 433.769 433.325C433.769 432.499 433.596 431.843 433.251 431.358C432.906 430.873 432.402 430.63 431.739 430.63C431.067 430.63 430.558 430.88 430.213 431.379C429.868 431.874 429.695 432.522 429.695 433.325C429.695 433.843 429.772 434.314 429.926 434.739C430.08 435.164 430.309 435.502 430.612 435.754C430.915 436.006 431.291 436.132 431.739 436.132ZM438.695 437.14C438.223 437.14 437.808 437.058 437.449 436.895C437.094 436.727 436.814 436.487 436.609 436.174C436.408 435.861 436.308 435.483 436.308 435.04C436.308 434.237 436.588 433.64 437.148 433.248C437.708 432.856 438.606 432.646 439.843 432.618L441.131 432.583V432.016C441.131 431.573 440.998 431.223 440.732 430.966C440.466 430.705 440.055 430.574 439.5 430.574C439.084 430.579 438.718 430.677 438.401 430.868C438.083 431.059 437.88 431.372 437.792 431.806H436.651C436.679 431.335 436.809 430.938 437.043 430.616C437.281 430.289 437.614 430.042 438.044 429.874C438.473 429.706 438.979 429.622 439.563 429.622C440.193 429.622 440.715 429.711 441.131 429.888C441.551 430.065 441.863 430.327 442.069 430.672C442.279 431.017 442.384 431.442 442.384 431.946V437H441.278L441.18 435.642C440.904 436.207 440.55 436.599 440.116 436.818C439.686 437.033 439.213 437.14 438.695 437.14ZM439.08 436.209C439.327 436.209 439.57 436.165 439.808 436.076C440.05 435.987 440.27 435.868 440.466 435.719C440.666 435.565 440.827 435.395 440.949 435.208C441.07 435.017 441.131 434.821 441.131 434.62V433.381L440.06 433.402C439.504 433.411 439.042 433.467 438.674 433.57C438.305 433.673 438.027 433.834 437.841 434.053C437.654 434.272 437.561 434.559 437.561 434.914C437.561 435.32 437.703 435.637 437.988 435.866C438.272 436.095 438.636 436.209 439.08 436.209ZM444.403 437V429.762H445.635V431.155C445.756 430.81 445.927 430.525 446.146 430.301C446.365 430.072 446.615 429.902 446.895 429.79C447.18 429.678 447.474 429.622 447.777 429.622C447.884 429.622 447.989 429.629 448.092 429.643C448.195 429.657 448.274 429.68 448.33 429.713V430.966C448.26 430.933 448.169 430.912 448.057 430.903C447.95 430.889 447.859 430.882 447.784 430.882C447.495 430.863 447.224 430.882 446.972 430.938C446.72 430.989 446.498 431.08 446.307 431.211C446.116 431.342 445.964 431.514 445.852 431.729C445.745 431.939 445.691 432.196 445.691 432.499V437H444.403ZM452.32 437.035C451.82 437.035 451.433 436.967 451.158 436.832C450.882 436.697 450.689 436.496 450.577 436.23C450.469 435.964 450.416 435.637 450.416 435.25V430.707H449.24V429.762H450.451L450.766 427.655H451.718V429.755H453.349V430.707H451.718V435.208C451.718 435.465 451.743 435.654 451.795 435.775C451.851 435.892 451.942 435.966 452.068 435.999C452.194 436.032 452.371 436.048 452.6 436.048H453.391V436.916C453.302 436.949 453.167 436.977 452.985 437C452.807 437.023 452.586 437.035 452.32 437.035ZM455.108 437V429.762H456.354V430.812C456.555 430.495 456.83 430.217 457.18 429.979C457.53 429.741 457.985 429.622 458.545 429.622C458.806 429.622 459.072 429.666 459.343 429.755C459.618 429.844 459.87 429.977 460.099 430.154C460.328 430.331 460.505 430.548 460.631 430.805C460.855 430.45 461.158 430.166 461.541 429.951C461.924 429.732 462.355 429.622 462.836 429.622C463.088 429.622 463.352 429.662 463.627 429.741C463.902 429.816 464.157 429.951 464.39 430.147C464.628 430.338 464.822 430.607 464.971 430.952C465.12 431.293 465.195 431.731 465.195 432.268V437H463.893V432.394C463.893 431.955 463.823 431.617 463.683 431.379C463.543 431.136 463.359 430.966 463.13 430.868C462.906 430.77 462.666 430.721 462.409 430.721C462.185 430.721 461.947 430.765 461.695 430.854C461.443 430.943 461.228 431.092 461.051 431.302C460.874 431.512 460.785 431.799 460.785 432.163V437H459.497V432.016C459.497 431.731 459.42 431.493 459.266 431.302C459.117 431.111 458.928 430.966 458.699 430.868C458.475 430.77 458.251 430.721 458.027 430.721C457.78 430.721 457.53 430.77 457.278 430.868C457.031 430.966 456.821 431.122 456.648 431.337C456.48 431.547 456.396 431.822 456.396 432.163V437H455.108ZM470.28 437.14C469.608 437.14 469.016 436.993 468.502 436.699C467.989 436.405 467.588 435.983 467.298 435.432C467.009 434.881 466.864 434.221 466.864 433.451C466.864 432.69 466.995 432.023 467.256 431.449C467.518 430.875 467.896 430.427 468.39 430.105C468.89 429.783 469.489 429.622 470.189 429.622C470.871 429.622 471.447 429.769 471.918 430.063C472.39 430.357 472.747 430.772 472.989 431.309C473.237 431.841 473.36 432.473 473.36 433.206V433.682H468.173C468.173 434.139 468.248 434.555 468.397 434.928C468.551 435.297 468.782 435.591 469.09 435.81C469.398 436.029 469.788 436.139 470.259 436.139C470.721 436.139 471.118 436.032 471.449 435.817C471.785 435.602 472 435.292 472.093 434.886H473.311C473.227 435.376 473.031 435.789 472.723 436.125C472.42 436.461 472.054 436.715 471.624 436.888C471.2 437.056 470.752 437.14 470.28 437.14ZM468.18 432.807H472.114C472.114 432.392 472.044 432.018 471.904 431.687C471.764 431.351 471.55 431.087 471.26 430.896C470.976 430.7 470.616 430.602 470.182 430.602C469.73 430.602 469.354 430.712 469.055 430.931C468.757 431.146 468.535 431.423 468.39 431.764C468.246 432.1 468.176 432.448 468.18 432.807ZM475.151 437V429.762H476.404V430.812C476.521 430.611 476.682 430.422 476.887 430.245C477.097 430.068 477.349 429.925 477.643 429.818C477.942 429.711 478.285 429.657 478.672 429.657C479.129 429.657 479.549 429.748 479.932 429.93C480.319 430.112 480.627 430.397 480.856 430.784C481.089 431.167 481.206 431.661 481.206 432.268V437H479.911V432.394C479.911 431.829 479.762 431.412 479.463 431.141C479.169 430.866 478.786 430.728 478.315 430.728C477.988 430.728 477.683 430.782 477.398 430.889C477.113 430.992 476.882 431.15 476.705 431.365C476.528 431.575 476.439 431.841 476.439 432.163V437H475.151ZM485.583 437.035C485.084 437.035 484.697 436.967 484.421 436.832C484.146 436.697 483.952 436.496 483.84 436.23C483.733 435.964 483.679 435.637 483.679 435.25V430.707H482.503V429.762H483.714L484.029 427.655H484.981V429.755H486.612V430.707H484.981V435.208C484.981 435.465 485.007 435.654 485.058 435.775C485.114 435.892 485.205 435.966 485.331 435.999C485.457 436.032 485.635 436.048 485.863 436.048H486.654V436.916C486.566 436.949 486.43 436.977 486.248 437C486.071 437.023 485.849 437.035 485.583 437.035Z" fill="white"/>
<path d="M409.966 359V351.762H411.632V352.798C411.744 352.611 411.896 352.432 412.087 352.259C412.283 352.086 412.523 351.946 412.808 351.839C413.093 351.732 413.426 351.678 413.809 351.678C414.257 351.678 414.672 351.767 415.055 351.944C415.442 352.121 415.753 352.399 415.986 352.777C416.224 353.155 416.343 353.643 416.343 354.24V359H414.635V354.443C414.635 353.967 414.504 353.615 414.243 353.386C413.982 353.153 413.653 353.036 413.256 353.036C412.985 353.036 412.729 353.083 412.486 353.176C412.243 353.265 412.045 353.402 411.891 353.589C411.742 353.771 411.667 354 411.667 354.275V359H409.966ZM420.221 359.14C419.759 359.14 419.344 359.056 418.975 358.888C418.611 358.715 418.324 358.47 418.114 358.153C417.909 357.831 417.806 357.441 417.806 356.984C417.806 356.186 418.093 355.584 418.667 355.178C419.246 354.772 420.165 354.56 421.425 354.541L422.51 354.513V354.023C422.51 353.64 422.396 353.342 422.167 353.127C421.943 352.908 421.593 352.8 421.117 352.805C420.762 352.81 420.44 352.894 420.151 353.057C419.862 353.216 419.67 353.484 419.577 353.862H418.128C418.156 353.367 418.298 352.954 418.555 352.623C418.816 352.287 419.173 352.037 419.626 351.874C420.079 351.706 420.601 351.622 421.194 351.622C421.885 351.622 422.447 351.713 422.881 351.895C423.315 352.077 423.635 352.341 423.84 352.686C424.045 353.027 424.148 353.44 424.148 353.925V359H422.713L422.573 357.698C422.316 358.244 421.987 358.622 421.586 358.832C421.189 359.037 420.734 359.14 420.221 359.14ZM420.774 357.985C420.984 357.985 421.192 357.948 421.397 357.873C421.602 357.794 421.787 357.689 421.95 357.558C422.118 357.423 422.251 357.273 422.349 357.11C422.452 356.947 422.505 356.776 422.51 356.599V355.458L421.621 355.472C421.182 355.477 420.797 355.523 420.466 355.612C420.139 355.701 419.885 355.843 419.703 356.039C419.521 356.23 419.43 356.487 419.43 356.809C419.43 357.178 419.558 357.467 419.815 357.677C420.072 357.882 420.391 357.985 420.774 357.985ZM425.962 359V351.762H427.621V352.798C427.831 352.481 428.116 352.205 428.475 351.972C428.839 351.739 429.301 351.622 429.861 351.622C430.118 351.622 430.377 351.666 430.638 351.755C430.904 351.844 431.149 351.974 431.373 352.147C431.602 352.32 431.784 352.534 431.919 352.791C432.148 352.45 432.451 352.17 432.829 351.951C433.212 351.732 433.641 351.622 434.117 351.622C434.378 351.622 434.647 351.664 434.922 351.748C435.202 351.832 435.459 351.972 435.692 352.168C435.925 352.364 436.114 352.632 436.259 352.973C436.404 353.309 436.476 353.731 436.476 354.24V359H434.775V354.443C434.775 354.084 434.712 353.801 434.586 353.596C434.46 353.391 434.297 353.246 434.096 353.162C433.9 353.073 433.69 353.029 433.466 353.029C433.265 353.029 433.055 353.069 432.836 353.148C432.621 353.227 432.437 353.358 432.283 353.54C432.134 353.722 432.059 353.967 432.059 354.275V359H430.358V354.17C430.358 353.918 430.293 353.708 430.162 353.54C430.031 353.372 429.866 353.246 429.665 353.162C429.469 353.073 429.268 353.029 429.063 353.029C428.853 353.029 428.638 353.073 428.419 353.162C428.204 353.251 428.025 353.386 427.88 353.568C427.735 353.75 427.663 353.986 427.663 354.275V359H425.962ZM441.507 359.14C440.811 359.14 440.198 358.993 439.666 358.699C439.138 358.4 438.725 357.976 438.427 357.425C438.133 356.874 437.986 356.219 437.986 355.458C437.986 354.716 438.119 354.058 438.385 353.484C438.655 352.905 439.045 352.45 439.554 352.119C440.067 351.788 440.685 351.622 441.409 351.622C442.123 351.622 442.722 351.774 443.208 352.077C443.693 352.38 444.062 352.805 444.314 353.351C444.566 353.892 444.692 354.527 444.692 355.255V355.773H439.687C439.682 356.184 439.747 356.548 439.883 356.865C440.018 357.182 440.219 357.432 440.485 357.614C440.751 357.791 441.08 357.88 441.472 357.88C441.873 357.88 442.221 357.791 442.515 357.614C442.813 357.432 443.012 357.157 443.11 356.788H444.664C444.58 357.292 444.379 357.719 444.062 358.069C443.749 358.419 443.366 358.685 442.914 358.867C442.466 359.049 441.997 359.14 441.507 359.14ZM439.68 354.716H443.082C443.082 354.366 443.019 354.051 442.893 353.771C442.771 353.486 442.587 353.262 442.34 353.099C442.092 352.931 441.78 352.847 441.402 352.847C441.028 352.847 440.713 352.938 440.457 353.12C440.2 353.302 440.006 353.538 439.876 353.827C439.745 354.112 439.68 354.408 439.68 354.716ZM446.082 353.932V351.986H448.007V353.932H446.082ZM446.082 358.958V357.026H448.007V358.958H446.082ZM452.739 352.525L453.53 350.698L452.872 350.649V348.878H454.734V350.432L453.425 352.525H452.739ZM454.429 359L458.062 348.878H459.91L463.543 359H461.835L460.932 356.459H457.054L456.144 359H454.429ZM457.46 354.947H460.505L458.986 350.53L457.46 354.947ZM469.343 359L469.35 356.599H464.639V355.15L469.301 348.878H470.995V355.15H472.612V356.599H470.995V359H469.343ZM466.235 355.15H469.336V350.992L466.235 355.15ZM473.851 359V358.09V357.621C473.851 357.103 473.947 356.657 474.138 356.284C474.33 355.906 474.584 355.577 474.901 355.297C475.219 355.017 475.566 354.77 475.944 354.555C476.327 354.336 476.705 354.13 477.078 353.939C477.456 353.743 477.804 353.542 478.121 353.337C478.439 353.127 478.693 352.894 478.884 352.637C479.08 352.38 479.178 352.075 479.178 351.72C479.178 351.267 479.017 350.899 478.695 350.614C478.378 350.325 477.946 350.18 477.4 350.18C476.822 350.18 476.343 350.346 475.965 350.677C475.592 351.008 475.37 351.475 475.3 352.077H473.648C473.658 351.461 473.805 350.901 474.089 350.397C474.374 349.893 474.796 349.492 475.356 349.193C475.916 348.89 476.614 348.738 477.449 348.738C478.173 348.738 478.796 348.864 479.318 349.116C479.846 349.363 480.252 349.711 480.536 350.159C480.826 350.602 480.97 351.12 480.97 351.713C480.97 352.231 480.875 352.674 480.683 353.043C480.497 353.412 480.247 353.731 479.934 354.002C479.626 354.268 479.286 354.504 478.912 354.709C478.544 354.914 478.173 355.108 477.799 355.29C477.431 355.467 477.09 355.654 476.777 355.85C476.469 356.041 476.22 356.261 476.028 356.508C475.842 356.755 475.748 357.052 475.748 357.397V357.544H480.991V359H473.851ZM482.366 352.525L483.157 350.698L482.499 350.649V348.878H484.361V350.432L483.052 352.525H482.366Z" fill="black"/>
<path d="M131.605 289.971C131.1 289.747 130.509 289.974 130.285 290.479C130.06 290.983 130.287 291.574 130.792 291.799L131.198 290.885L131.605 289.971ZM197.25 320.261L197.657 319.347L197.657 319.347L197.25 320.261ZM211.997 327.914C212.502 328.138 213.093 327.911 213.317 327.406C213.542 326.902 213.315 326.311 212.81 326.086L212.404 327L211.997 327.914ZM300.503 365.086C299.998 364.862 299.407 365.089 299.183 365.594C298.959 366.098 299.186 366.689 299.69 366.914L300.097 366L300.503 365.086ZM315.25 372.739L314.844 373.653L314.844 373.653L315.25 372.739ZM381.661 403.048C382.177 402.85 382.434 402.272 382.236 401.756L379.007 393.355C378.809 392.84 378.23 392.582 377.715 392.78C377.199 392.979 376.942 393.557 377.14 394.073L380.01 401.54L372.543 404.41C372.027 404.608 371.77 405.187 371.968 405.702C372.166 406.218 372.745 406.475 373.26 406.277L381.661 403.048ZM131.198 290.885L130.792 291.799L196.844 321.174L197.25 320.261L197.657 319.347L131.605 289.971L131.198 290.885ZM197.25 320.261L196.844 321.174L197.758 321.581L198.164 320.667L198.57 319.753L197.657 319.347L197.25 320.261ZM198.164 320.667L197.758 321.581L211.997 327.914L212.404 327L212.81 326.086L198.57 319.753L198.164 320.667ZM300.097 366L299.69 366.914L314.844 373.653L315.25 372.739L315.657 371.826L300.503 365.086L300.097 366ZM315.25 372.739L314.844 373.653L315.758 374.059L316.164 373.146L316.57 372.232L315.657 371.826L315.25 372.739ZM316.164 373.146L315.758 374.059L380.896 403.029L381.302 402.115L381.709 401.201L316.57 372.232L316.164 373.146Z" fill="black" fill-opacity="0.8"/>
<path d="M206.375 352.5V340.864H210.636C211.462 340.864 212.146 341 212.688 341.273C213.229 341.542 213.635 341.907 213.904 342.369C214.172 342.828 214.307 343.345 214.307 343.92C214.307 344.405 214.218 344.814 214.04 345.148C213.862 345.477 213.623 345.742 213.324 345.943C213.029 346.14 212.703 346.284 212.347 346.375V346.489C212.733 346.508 213.11 346.633 213.477 346.864C213.849 347.091 214.155 347.415 214.398 347.835C214.64 348.256 214.761 348.767 214.761 349.369C214.761 349.964 214.621 350.498 214.341 350.972C214.064 351.441 213.636 351.814 213.057 352.091C212.477 352.364 211.737 352.5 210.835 352.5H206.375ZM208.131 350.994H210.665C211.506 350.994 212.108 350.831 212.472 350.506C212.835 350.18 213.017 349.773 213.017 349.284C213.017 348.917 212.924 348.58 212.739 348.273C212.553 347.966 212.288 347.722 211.943 347.54C211.602 347.358 211.197 347.267 210.727 347.267H208.131V350.994ZM208.131 345.898H210.483C210.877 345.898 211.231 345.822 211.546 345.67C211.864 345.519 212.116 345.307 212.301 345.034C212.491 344.758 212.585 344.432 212.585 344.057C212.585 343.576 212.417 343.172 212.08 342.847C211.743 342.521 211.225 342.358 210.529 342.358H208.131V345.898ZM216.668 352.5V340.864H223.963V342.375H218.424V345.92H223.583V347.426H218.424V350.989H224.031V352.5H216.668ZM226.132 352.5V340.864H227.888V350.989H233.161V352.5H226.132ZM244.643 346.682C244.643 347.924 244.415 348.992 243.961 349.886C243.506 350.777 242.883 351.462 242.091 351.943C241.304 352.42 240.408 352.659 239.404 352.659C238.396 352.659 237.497 352.42 236.705 351.943C235.917 351.462 235.296 350.775 234.841 349.881C234.387 348.987 234.16 347.92 234.16 346.682C234.16 345.439 234.387 344.373 234.841 343.483C235.296 342.589 235.917 341.903 236.705 341.426C237.497 340.945 238.396 340.705 239.404 340.705C240.408 340.705 241.304 340.945 242.091 341.426C242.883 341.903 243.506 342.589 243.961 343.483C244.415 344.373 244.643 345.439 244.643 346.682ZM242.904 346.682C242.904 345.735 242.751 344.937 242.444 344.29C242.141 343.638 241.724 343.146 241.194 342.812C240.667 342.475 240.071 342.307 239.404 342.307C238.733 342.307 238.135 342.475 237.608 342.812C237.082 343.146 236.665 343.638 236.358 344.29C236.055 344.937 235.904 345.735 235.904 346.682C235.904 347.629 236.055 348.428 236.358 349.08C236.665 349.727 237.082 350.22 237.608 350.557C238.135 350.89 238.733 351.057 239.404 351.057C240.071 351.057 240.667 350.89 241.194 350.557C241.724 350.22 242.141 349.727 242.444 349.08C242.751 348.428 242.904 347.629 242.904 346.682ZM256.048 340.864V352.5H254.434L248.519 343.966H248.411V352.5H246.655V340.864H248.28L254.201 349.409H254.309V340.864H256.048ZM266.308 344.54C266.198 344.195 266.05 343.886 265.864 343.614C265.683 343.337 265.465 343.102 265.211 342.909C264.957 342.712 264.667 342.562 264.342 342.46C264.02 342.358 263.666 342.307 263.279 342.307C262.624 342.307 262.033 342.475 261.506 342.812C260.98 343.15 260.563 343.644 260.256 344.295C259.953 344.943 259.802 345.737 259.802 346.676C259.802 347.619 259.955 348.417 260.262 349.068C260.569 349.72 260.989 350.214 261.524 350.551C262.058 350.888 262.666 351.057 263.347 351.057C263.98 351.057 264.531 350.928 265.001 350.67C265.474 350.413 265.84 350.049 266.097 349.58C266.359 349.106 266.489 348.549 266.489 347.909L266.944 347.994H263.614V346.545H268.188V347.869C268.188 348.847 267.98 349.695 267.563 350.415C267.15 351.131 266.578 351.684 265.847 352.074C265.12 352.464 264.287 352.659 263.347 352.659C262.294 352.659 261.37 352.417 260.575 351.932C259.783 351.447 259.166 350.759 258.722 349.869C258.279 348.975 258.058 347.915 258.058 346.688C258.058 345.759 258.186 344.926 258.444 344.188C258.702 343.449 259.063 342.822 259.529 342.307C259.999 341.788 260.55 341.392 261.183 341.119C261.819 340.843 262.514 340.705 263.268 340.705C263.897 340.705 264.482 340.797 265.024 340.983C265.569 341.169 266.054 341.432 266.478 341.773C266.906 342.114 267.26 342.519 267.541 342.989C267.821 343.455 268.01 343.972 268.109 344.54H266.308ZM276.588 343.92C276.527 343.383 276.277 342.966 275.838 342.67C275.398 342.371 274.845 342.222 274.178 342.222C273.701 342.222 273.288 342.297 272.94 342.449C272.591 342.597 272.321 342.801 272.127 343.062C271.938 343.32 271.843 343.614 271.843 343.943C271.843 344.22 271.908 344.458 272.036 344.659C272.169 344.86 272.341 345.028 272.553 345.165C272.769 345.297 273 345.409 273.247 345.5C273.493 345.587 273.73 345.659 273.957 345.716L275.093 346.011C275.464 346.102 275.845 346.225 276.235 346.381C276.625 346.536 276.987 346.741 277.321 346.994C277.654 347.248 277.923 347.562 278.127 347.938C278.336 348.312 278.44 348.761 278.44 349.284C278.44 349.943 278.269 350.528 277.928 351.04C277.591 351.551 277.101 351.955 276.457 352.25C275.817 352.545 275.042 352.693 274.133 352.693C273.262 352.693 272.508 352.555 271.872 352.278C271.235 352.002 270.737 351.61 270.377 351.102C270.017 350.591 269.819 349.985 269.781 349.284H271.542C271.576 349.705 271.713 350.055 271.951 350.335C272.194 350.612 272.502 350.818 272.877 350.955C273.256 351.087 273.671 351.153 274.122 351.153C274.618 351.153 275.059 351.076 275.446 350.92C275.836 350.761 276.142 350.542 276.366 350.261C276.589 349.977 276.701 349.646 276.701 349.267C276.701 348.922 276.603 348.64 276.406 348.42C276.213 348.201 275.949 348.019 275.616 347.875C275.286 347.731 274.913 347.604 274.497 347.494L273.122 347.119C272.19 346.866 271.451 346.492 270.906 346C270.364 345.508 270.093 344.856 270.093 344.045C270.093 343.375 270.275 342.79 270.639 342.29C271.002 341.79 271.495 341.402 272.116 341.125C272.737 340.845 273.438 340.705 274.218 340.705C275.006 340.705 275.701 340.843 276.303 341.119C276.91 341.396 277.387 341.777 277.735 342.261C278.084 342.742 278.266 343.295 278.281 343.92H276.588ZM286.458 352.5V353.943H279.066V352.5H286.458ZM286.065 342.375V340.864H295.071V342.375H291.44V352.5H289.69V342.375H286.065ZM306.493 346.682C306.493 347.924 306.266 348.992 305.811 349.886C305.356 350.777 304.733 351.462 303.942 351.943C303.154 352.42 302.258 352.659 301.254 352.659C300.247 352.659 299.347 352.42 298.555 351.943C297.767 351.462 297.146 350.775 296.692 349.881C296.237 348.987 296.01 347.92 296.01 346.682C296.01 345.439 296.237 344.373 296.692 343.483C297.146 342.589 297.767 341.903 298.555 341.426C299.347 340.945 300.247 340.705 301.254 340.705C302.258 340.705 303.154 340.945 303.942 341.426C304.733 341.903 305.356 342.589 305.811 343.483C306.266 344.373 306.493 345.439 306.493 346.682ZM304.754 346.682C304.754 345.735 304.601 344.937 304.294 344.29C303.991 343.638 303.574 343.146 303.044 342.812C302.517 342.475 301.921 342.307 301.254 342.307C300.584 342.307 299.985 342.475 299.459 342.812C298.932 343.146 298.516 343.638 298.209 344.29C297.906 344.937 297.754 345.735 297.754 346.682C297.754 347.629 297.906 348.428 298.209 349.08C298.516 349.727 298.932 350.22 299.459 350.557C299.985 350.89 300.584 351.057 301.254 351.057C301.921 351.057 302.517 350.89 303.044 350.557C303.574 350.22 303.991 349.727 304.294 349.08C304.601 348.428 304.754 347.629 304.754 346.682Z" fill="black" fill-opacity="0.8"/>
</svg>
