<svg width="525" height="522" viewBox="0 0 525 522" fill="none" xmlns="http://www.w3.org/2000/svg">
<path d="M394 64C394 28.6538 422.654 0 458 0V0C493.346 0 522 28.6538 522 64V64C522 99.3462 493.346 128 458 128V128C422.654 128 394 99.3462 394 64V64Z" fill="#F16767"/>
<path d="M420.536 69V58.878C420.569 58.878 420.667 58.8803 420.83 58.885C420.998 58.885 421.201 58.885 421.439 58.885C421.677 58.8803 421.925 58.8803 422.181 58.885C422.438 58.885 422.674 58.8873 422.888 58.892C424.13 58.9107 425.135 59.1137 425.905 59.501C426.68 59.8837 427.247 60.4413 427.606 61.174C427.97 61.9067 428.152 62.8073 428.152 63.876C428.152 64.996 427.956 65.9363 427.564 66.697C427.177 67.4577 426.584 68.0317 425.786 68.419C424.993 68.8063 423.983 69 422.755 69H420.536ZM421.866 67.887H422.755C423.591 67.887 424.309 67.7587 424.911 67.502C425.513 67.2407 425.975 66.8183 426.297 66.235C426.624 65.6517 426.787 64.8723 426.787 63.897C426.787 62.9217 426.629 62.1493 426.311 61.58C425.999 61.0107 425.546 60.6047 424.953 60.362C424.361 60.1147 423.647 59.991 422.811 59.991H421.866V67.887ZM433.036 69.14C432.364 69.14 431.772 68.993 431.258 68.699C430.745 68.405 430.344 67.9827 430.054 67.432C429.765 66.8813 429.62 66.221 429.62 65.451C429.62 64.6903 429.751 64.023 430.012 63.449C430.274 62.875 430.652 62.427 431.146 62.105C431.646 61.783 432.245 61.622 432.945 61.622C433.627 61.622 434.203 61.769 434.674 62.063C435.146 62.357 435.503 62.7723 435.745 63.309C435.993 63.841 436.116 64.4733 436.116 65.206V65.682H430.929C430.929 66.1393 431.004 66.5547 431.153 66.928C431.307 67.2967 431.538 67.5907 431.846 67.81C432.154 68.0293 432.544 68.139 433.015 68.139C433.477 68.139 433.874 68.0317 434.205 67.817C434.541 67.6023 434.756 67.292 434.849 66.886H436.067C435.983 67.376 435.787 67.789 435.479 68.125C435.176 68.461 434.81 68.7153 434.38 68.888C433.956 69.056 433.508 69.14 433.036 69.14ZM430.936 64.807H434.87C434.87 64.3917 434.8 64.0183 434.66 63.687C434.52 63.351 434.306 63.0873 434.016 62.896C433.732 62.7 433.372 62.602 432.938 62.602C432.486 62.602 432.11 62.7117 431.811 62.931C431.513 63.1457 431.291 63.4233 431.146 63.764C431.002 64.1 430.932 64.4477 430.936 64.807ZM437.907 71.254V61.762H439.195L439.209 63.022C439.293 62.8727 439.4 62.7163 439.531 62.553C439.666 62.3897 439.83 62.238 440.021 62.098C440.217 61.958 440.443 61.8437 440.7 61.755C440.961 61.6663 441.258 61.622 441.589 61.622C442.168 61.622 442.676 61.755 443.115 62.021C443.558 62.2823 443.904 62.6837 444.151 63.225C444.398 63.7663 444.522 64.4523 444.522 65.283C444.522 66.1137 444.401 66.816 444.158 67.39C443.92 67.9593 443.575 68.3933 443.122 68.692C442.669 68.9907 442.123 69.14 441.484 69.14C441.162 69.14 440.875 69.0933 440.623 69C440.376 68.9113 440.159 68.7947 439.972 68.65C439.79 68.5007 439.636 68.342 439.51 68.174C439.389 68.006 439.288 67.845 439.209 67.691V71.254H437.907ZM441.239 68.132C441.836 68.132 442.324 67.9057 442.702 67.453C443.08 66.9957 443.269 66.2863 443.269 65.325C443.269 64.499 443.096 63.8433 442.751 63.358C442.406 62.8727 441.902 62.63 441.239 62.63C440.567 62.63 440.058 62.8797 439.713 63.379C439.368 63.8737 439.195 64.5223 439.195 65.325C439.195 65.843 439.272 66.3143 439.426 66.739C439.58 67.1637 439.809 67.502 440.112 67.754C440.415 68.006 440.791 68.132 441.239 68.132ZM448.195 69.14C447.723 69.14 447.308 69.0583 446.949 68.895C446.594 68.727 446.314 68.4867 446.109 68.174C445.908 67.8613 445.808 67.4833 445.808 67.04C445.808 66.2373 446.088 65.64 446.648 65.248C447.208 64.856 448.106 64.646 449.343 64.618L450.631 64.583V64.016C450.631 63.5727 450.498 63.2227 450.232 62.966C449.966 62.7047 449.555 62.574 449 62.574C448.584 62.5787 448.218 62.6767 447.901 62.868C447.583 63.0593 447.38 63.372 447.292 63.806H446.151C446.179 63.3347 446.309 62.938 446.543 62.616C446.781 62.2893 447.114 62.042 447.544 61.874C447.973 61.706 448.479 61.622 449.063 61.622C449.693 61.622 450.215 61.7107 450.631 61.888C451.051 62.0653 451.363 62.3267 451.569 62.672C451.779 63.0173 451.884 63.442 451.884 63.946V69H450.778L450.68 67.642C450.404 68.2067 450.05 68.5987 449.616 68.818C449.186 69.0327 448.713 69.14 448.195 69.14ZM448.58 68.209C448.827 68.209 449.07 68.1647 449.308 68.076C449.55 67.9873 449.77 67.8683 449.966 67.719C450.166 67.565 450.327 67.3947 450.449 67.208C450.57 67.0167 450.631 66.8207 450.631 66.62V65.381L449.56 65.402C449.004 65.4113 448.542 65.4673 448.174 65.57C447.805 65.6727 447.527 65.8337 447.341 66.053C447.154 66.2723 447.061 66.5593 447.061 66.914C447.061 67.32 447.203 67.6373 447.488 67.866C447.772 68.0947 448.136 68.209 448.58 68.209ZM453.903 69V61.762H455.135V63.155C455.256 62.8097 455.427 62.525 455.646 62.301C455.865 62.0723 456.115 61.902 456.395 61.79C456.68 61.678 456.974 61.622 457.277 61.622C457.384 61.622 457.489 61.629 457.592 61.643C457.695 61.657 457.774 61.6803 457.83 61.713V62.966C457.76 62.9333 457.669 62.9123 457.557 62.903C457.45 62.889 457.359 62.882 457.284 62.882C456.995 62.8633 456.724 62.882 456.472 62.938C456.22 62.9893 455.998 63.0803 455.807 63.211C455.616 63.3417 455.464 63.5143 455.352 63.729C455.245 63.939 455.191 64.1957 455.191 64.499V69H453.903ZM461.82 69.035C461.32 69.035 460.933 68.9673 460.658 68.832C460.382 68.6967 460.189 68.496 460.077 68.23C459.969 67.964 459.916 67.6373 459.916 67.25V62.707H458.74V61.762H459.951L460.266 59.655H461.218V61.755H462.849V62.707H461.218V67.208C461.218 67.4647 461.243 67.6537 461.295 67.775C461.351 67.8917 461.442 67.9663 461.568 67.999C461.694 68.0317 461.871 68.048 462.1 68.048H462.891V68.916C462.802 68.9487 462.667 68.9767 462.485 69C462.307 69.0233 462.086 69.035 461.82 69.035ZM464.608 69V61.762H465.854V62.812C466.055 62.4947 466.33 62.217 466.68 61.979C467.03 61.741 467.485 61.622 468.045 61.622C468.306 61.622 468.572 61.6663 468.843 61.755C469.118 61.8437 469.37 61.9767 469.599 62.154C469.828 62.3313 470.005 62.5483 470.131 62.805C470.355 62.4503 470.658 62.1657 471.041 61.951C471.424 61.7317 471.855 61.622 472.336 61.622C472.588 61.622 472.852 61.6617 473.127 61.741C473.402 61.8157 473.657 61.951 473.89 62.147C474.128 62.3383 474.322 62.6067 474.471 62.952C474.62 63.2927 474.695 63.7313 474.695 64.268V69H473.393V64.394C473.393 63.9553 473.323 63.617 473.183 63.379C473.043 63.1363 472.859 62.966 472.63 62.868C472.406 62.77 472.166 62.721 471.909 62.721C471.685 62.721 471.447 62.7653 471.195 62.854C470.943 62.9427 470.728 63.092 470.551 63.302C470.374 63.512 470.285 63.799 470.285 64.163V69H468.997V64.016C468.997 63.7313 468.92 63.4933 468.766 63.302C468.617 63.1107 468.428 62.966 468.199 62.868C467.975 62.77 467.751 62.721 467.527 62.721C467.28 62.721 467.03 62.77 466.778 62.868C466.531 62.966 466.321 63.1223 466.148 63.337C465.98 63.547 465.896 63.8223 465.896 64.163V69H464.608ZM479.78 69.14C479.108 69.14 478.516 68.993 478.002 68.699C477.489 68.405 477.088 67.9827 476.798 67.432C476.509 66.8813 476.364 66.221 476.364 65.451C476.364 64.6903 476.495 64.023 476.756 63.449C477.018 62.875 477.396 62.427 477.89 62.105C478.39 61.783 478.989 61.622 479.689 61.622C480.371 61.622 480.947 61.769 481.418 62.063C481.89 62.357 482.247 62.7723 482.489 63.309C482.737 63.841 482.86 64.4733 482.86 65.206V65.682H477.673C477.673 66.1393 477.748 66.5547 477.897 66.928C478.051 67.2967 478.282 67.5907 478.59 67.81C478.898 68.0293 479.288 68.139 479.759 68.139C480.221 68.139 480.618 68.0317 480.949 67.817C481.285 67.6023 481.5 67.292 481.593 66.886H482.811C482.727 67.376 482.531 67.789 482.223 68.125C481.92 68.461 481.554 68.7153 481.124 68.888C480.7 69.056 480.252 69.14 479.78 69.14ZM477.68 64.807H481.614C481.614 64.3917 481.544 64.0183 481.404 63.687C481.264 63.351 481.05 63.0873 480.76 62.896C480.476 62.7 480.116 62.602 479.682 62.602C479.23 62.602 478.854 62.7117 478.555 62.931C478.257 63.1457 478.035 63.4233 477.89 63.764C477.746 64.1 477.676 64.4477 477.68 64.807ZM484.651 69V61.762H485.904V62.812C486.021 62.6113 486.182 62.4223 486.387 62.245C486.597 62.0677 486.849 61.9253 487.143 61.818C487.442 61.7107 487.785 61.657 488.172 61.657C488.629 61.657 489.049 61.748 489.432 61.93C489.819 62.112 490.127 62.3967 490.356 62.784C490.589 63.1667 490.706 63.6613 490.706 64.268V69H489.411V64.394C489.411 63.8293 489.262 63.4117 488.963 63.141C488.669 62.8657 488.286 62.728 487.815 62.728C487.488 62.728 487.183 62.7817 486.898 62.889C486.613 62.9917 486.382 63.1503 486.205 63.365C486.028 63.575 485.939 63.841 485.939 64.163V69H484.651ZM495.083 69.035C494.584 69.035 494.197 68.9673 493.921 68.832C493.646 68.6967 493.452 68.496 493.34 68.23C493.233 67.964 493.179 67.6373 493.179 67.25V62.707H492.003V61.762H493.214L493.529 59.655H494.481V61.755H496.112V62.707H494.481V67.208C494.481 67.4647 494.507 67.6537 494.558 67.775C494.614 67.8917 494.705 67.9663 494.831 67.999C494.957 68.0317 495.135 68.048 495.363 68.048H496.154V68.916C496.066 68.9487 495.93 68.9767 495.748 69C495.571 69.0233 495.349 69.035 495.083 69.035Z" fill="white"/>
<path d="M394 250C394 214.654 422.654 186 458 186V186C493.346 186 522 214.654 522 250V250C522 285.346 493.346 314 458 314V314C422.654 314 394 285.346 394 250V250Z" fill="#F16767"/>
<path d="M420.536 255V244.878C420.569 244.878 420.667 244.88 420.83 244.885C420.998 244.885 421.201 244.885 421.439 244.885C421.677 244.88 421.925 244.88 422.181 244.885C422.438 244.885 422.674 244.887 422.888 244.892C424.13 244.911 425.135 245.114 425.905 245.501C426.68 245.884 427.247 246.441 427.606 247.174C427.97 247.907 428.152 248.807 428.152 249.876C428.152 250.996 427.956 251.936 427.564 252.697C427.177 253.458 426.584 254.032 425.786 254.419C424.993 254.806 423.983 255 422.755 255H420.536ZM421.866 253.887H422.755C423.591 253.887 424.309 253.759 424.911 253.502C425.513 253.241 425.975 252.818 426.297 252.235C426.624 251.652 426.787 250.872 426.787 249.897C426.787 248.922 426.629 248.149 426.311 247.58C425.999 247.011 425.546 246.605 424.953 246.362C424.361 246.115 423.647 245.991 422.811 245.991H421.866V253.887ZM433.036 255.14C432.364 255.14 431.772 254.993 431.258 254.699C430.745 254.405 430.344 253.983 430.054 253.432C429.765 252.881 429.62 252.221 429.62 251.451C429.62 250.69 429.751 250.023 430.012 249.449C430.274 248.875 430.652 248.427 431.146 248.105C431.646 247.783 432.245 247.622 432.945 247.622C433.627 247.622 434.203 247.769 434.674 248.063C435.146 248.357 435.503 248.772 435.745 249.309C435.993 249.841 436.116 250.473 436.116 251.206V251.682H430.929C430.929 252.139 431.004 252.555 431.153 252.928C431.307 253.297 431.538 253.591 431.846 253.81C432.154 254.029 432.544 254.139 433.015 254.139C433.477 254.139 433.874 254.032 434.205 253.817C434.541 253.602 434.756 253.292 434.849 252.886H436.067C435.983 253.376 435.787 253.789 435.479 254.125C435.176 254.461 434.81 254.715 434.38 254.888C433.956 255.056 433.508 255.14 433.036 255.14ZM430.936 250.807H434.87C434.87 250.392 434.8 250.018 434.66 249.687C434.52 249.351 434.306 249.087 434.016 248.896C433.732 248.7 433.372 248.602 432.938 248.602C432.486 248.602 432.11 248.712 431.811 248.931C431.513 249.146 431.291 249.423 431.146 249.764C431.002 250.1 430.932 250.448 430.936 250.807ZM437.907 257.254V247.762H439.195L439.209 249.022C439.293 248.873 439.4 248.716 439.531 248.553C439.666 248.39 439.83 248.238 440.021 248.098C440.217 247.958 440.443 247.844 440.7 247.755C440.961 247.666 441.258 247.622 441.589 247.622C442.168 247.622 442.676 247.755 443.115 248.021C443.558 248.282 443.904 248.684 444.151 249.225C444.398 249.766 444.522 250.452 444.522 251.283C444.522 252.114 444.401 252.816 444.158 253.39C443.92 253.959 443.575 254.393 443.122 254.692C442.669 254.991 442.123 255.14 441.484 255.14C441.162 255.14 440.875 255.093 440.623 255C440.376 254.911 440.159 254.795 439.972 254.65C439.79 254.501 439.636 254.342 439.51 254.174C439.389 254.006 439.288 253.845 439.209 253.691V257.254H437.907ZM441.239 254.132C441.836 254.132 442.324 253.906 442.702 253.453C443.08 252.996 443.269 252.286 443.269 251.325C443.269 250.499 443.096 249.843 442.751 249.358C442.406 248.873 441.902 248.63 441.239 248.63C440.567 248.63 440.058 248.88 439.713 249.379C439.368 249.874 439.195 250.522 439.195 251.325C439.195 251.843 439.272 252.314 439.426 252.739C439.58 253.164 439.809 253.502 440.112 253.754C440.415 254.006 440.791 254.132 441.239 254.132ZM448.195 255.14C447.723 255.14 447.308 255.058 446.949 254.895C446.594 254.727 446.314 254.487 446.109 254.174C445.908 253.861 445.808 253.483 445.808 253.04C445.808 252.237 446.088 251.64 446.648 251.248C447.208 250.856 448.106 250.646 449.343 250.618L450.631 250.583V250.016C450.631 249.573 450.498 249.223 450.232 248.966C449.966 248.705 449.555 248.574 449 248.574C448.584 248.579 448.218 248.677 447.901 248.868C447.583 249.059 447.38 249.372 447.292 249.806H446.151C446.179 249.335 446.309 248.938 446.543 248.616C446.781 248.289 447.114 248.042 447.544 247.874C447.973 247.706 448.479 247.622 449.063 247.622C449.693 247.622 450.215 247.711 450.631 247.888C451.051 248.065 451.363 248.327 451.569 248.672C451.779 249.017 451.884 249.442 451.884 249.946V255H450.778L450.68 253.642C450.404 254.207 450.05 254.599 449.616 254.818C449.186 255.033 448.713 255.14 448.195 255.14ZM448.58 254.209C448.827 254.209 449.07 254.165 449.308 254.076C449.55 253.987 449.77 253.868 449.966 253.719C450.166 253.565 450.327 253.395 450.449 253.208C450.57 253.017 450.631 252.821 450.631 252.62V251.381L449.56 251.402C449.004 251.411 448.542 251.467 448.174 251.57C447.805 251.673 447.527 251.834 447.341 252.053C447.154 252.272 447.061 252.559 447.061 252.914C447.061 253.32 447.203 253.637 447.488 253.866C447.772 254.095 448.136 254.209 448.58 254.209ZM453.903 255V247.762H455.135V249.155C455.256 248.81 455.427 248.525 455.646 248.301C455.865 248.072 456.115 247.902 456.395 247.79C456.68 247.678 456.974 247.622 457.277 247.622C457.384 247.622 457.489 247.629 457.592 247.643C457.695 247.657 457.774 247.68 457.83 247.713V248.966C457.76 248.933 457.669 248.912 457.557 248.903C457.45 248.889 457.359 248.882 457.284 248.882C456.995 248.863 456.724 248.882 456.472 248.938C456.22 248.989 455.998 249.08 455.807 249.211C455.616 249.342 455.464 249.514 455.352 249.729C455.245 249.939 455.191 250.196 455.191 250.499V255H453.903ZM461.82 255.035C461.32 255.035 460.933 254.967 460.658 254.832C460.382 254.697 460.189 254.496 460.077 254.23C459.969 253.964 459.916 253.637 459.916 253.25V248.707H458.74V247.762H459.951L460.266 245.655H461.218V247.755H462.849V248.707H461.218V253.208C461.218 253.465 461.243 253.654 461.295 253.775C461.351 253.892 461.442 253.966 461.568 253.999C461.694 254.032 461.871 254.048 462.1 254.048H462.891V254.916C462.802 254.949 462.667 254.977 462.485 255C462.307 255.023 462.086 255.035 461.82 255.035ZM464.608 255V247.762H465.854V248.812C466.055 248.495 466.33 248.217 466.68 247.979C467.03 247.741 467.485 247.622 468.045 247.622C468.306 247.622 468.572 247.666 468.843 247.755C469.118 247.844 469.37 247.977 469.599 248.154C469.828 248.331 470.005 248.548 470.131 248.805C470.355 248.45 470.658 248.166 471.041 247.951C471.424 247.732 471.855 247.622 472.336 247.622C472.588 247.622 472.852 247.662 473.127 247.741C473.402 247.816 473.657 247.951 473.89 248.147C474.128 248.338 474.322 248.607 474.471 248.952C474.62 249.293 474.695 249.731 474.695 250.268V255H473.393V250.394C473.393 249.955 473.323 249.617 473.183 249.379C473.043 249.136 472.859 248.966 472.63 248.868C472.406 248.77 472.166 248.721 471.909 248.721C471.685 248.721 471.447 248.765 471.195 248.854C470.943 248.943 470.728 249.092 470.551 249.302C470.374 249.512 470.285 249.799 470.285 250.163V255H468.997V250.016C468.997 249.731 468.92 249.493 468.766 249.302C468.617 249.111 468.428 248.966 468.199 248.868C467.975 248.77 467.751 248.721 467.527 248.721C467.28 248.721 467.03 248.77 466.778 248.868C466.531 248.966 466.321 249.122 466.148 249.337C465.98 249.547 465.896 249.822 465.896 250.163V255H464.608ZM479.78 255.14C479.108 255.14 478.516 254.993 478.002 254.699C477.489 254.405 477.088 253.983 476.798 253.432C476.509 252.881 476.364 252.221 476.364 251.451C476.364 250.69 476.495 250.023 476.756 249.449C477.018 248.875 477.396 248.427 477.89 248.105C478.39 247.783 478.989 247.622 479.689 247.622C480.371 247.622 480.947 247.769 481.418 248.063C481.89 248.357 482.247 248.772 482.489 249.309C482.737 249.841 482.86 250.473 482.86 251.206V251.682H477.673C477.673 252.139 477.748 252.555 477.897 252.928C478.051 253.297 478.282 253.591 478.59 253.81C478.898 254.029 479.288 254.139 479.759 254.139C480.221 254.139 480.618 254.032 480.949 253.817C481.285 253.602 481.5 253.292 481.593 252.886H482.811C482.727 253.376 482.531 253.789 482.223 254.125C481.92 254.461 481.554 254.715 481.124 254.888C480.7 255.056 480.252 255.14 479.78 255.14ZM477.68 250.807H481.614C481.614 250.392 481.544 250.018 481.404 249.687C481.264 249.351 481.05 249.087 480.76 248.896C480.476 248.7 480.116 248.602 479.682 248.602C479.23 248.602 478.854 248.712 478.555 248.931C478.257 249.146 478.035 249.423 477.89 249.764C477.746 250.1 477.676 250.448 477.68 250.807ZM484.651 255V247.762H485.904V248.812C486.021 248.611 486.182 248.422 486.387 248.245C486.597 248.068 486.849 247.925 487.143 247.818C487.442 247.711 487.785 247.657 488.172 247.657C488.629 247.657 489.049 247.748 489.432 247.93C489.819 248.112 490.127 248.397 490.356 248.784C490.589 249.167 490.706 249.661 490.706 250.268V255H489.411V250.394C489.411 249.829 489.262 249.412 488.963 249.141C488.669 248.866 488.286 248.728 487.815 248.728C487.488 248.728 487.183 248.782 486.898 248.889C486.613 248.992 486.382 249.15 486.205 249.365C486.028 249.575 485.939 249.841 485.939 250.163V255H484.651ZM495.083 255.035C494.584 255.035 494.197 254.967 493.921 254.832C493.646 254.697 493.452 254.496 493.34 254.23C493.233 253.964 493.179 253.637 493.179 253.25V248.707H492.003V247.762H493.214L493.529 245.655H494.481V247.755H496.112V248.707H494.481V253.208C494.481 253.465 494.507 253.654 494.558 253.775C494.614 253.892 494.705 253.966 494.831 253.999C494.957 254.032 495.135 254.048 495.363 254.048H496.154V254.916C496.066 254.949 495.93 254.977 495.748 255C495.571 255.023 495.349 255.035 495.083 255.035Z" fill="white"/>
<path d="M23.966 331V323.762H25.632V324.798C25.744 324.611 25.8957 324.432 26.087 324.259C26.283 324.086 26.5233 323.946 26.808 323.839C27.0927 323.732 27.4263 323.678 27.809 323.678C28.257 323.678 28.6723 323.767 29.055 323.944C29.4423 324.121 29.7527 324.399 29.986 324.777C30.224 325.155 30.343 325.643 30.343 326.24V331H28.635V326.443C28.635 325.967 28.5043 325.615 28.243 325.386C27.9817 325.153 27.6527 325.036 27.256 325.036C26.9853 325.036 26.7287 325.083 26.486 325.176C26.2433 325.265 26.045 325.402 25.891 325.589C25.7417 325.771 25.667 326 25.667 326.275V331H23.966ZM34.2211 331.14C33.7591 331.14 33.3438 331.056 32.9751 330.888C32.6111 330.715 32.3241 330.47 32.1141 330.153C31.9088 329.831 31.8061 329.441 31.8061 328.984C31.8061 328.186 32.0931 327.584 32.6671 327.178C33.2458 326.772 34.1651 326.56 35.4251 326.541L36.5101 326.513V326.023C36.5101 325.64 36.3958 325.342 36.1671 325.127C35.9431 324.908 35.5931 324.8 35.1171 324.805C34.7624 324.81 34.4404 324.894 34.1511 325.057C33.8618 325.216 33.6704 325.484 33.5771 325.862H32.1281C32.1561 325.367 32.2984 324.954 32.5551 324.623C32.8164 324.287 33.1734 324.037 33.6261 323.874C34.0788 323.706 34.6014 323.622 35.1941 323.622C35.8848 323.622 36.4471 323.713 36.8811 323.895C37.3151 324.077 37.6348 324.341 37.8401 324.686C38.0454 325.027 38.1481 325.44 38.1481 325.925V331H36.7131L36.5731 329.698C36.3164 330.244 35.9874 330.622 35.5861 330.832C35.1894 331.037 34.7344 331.14 34.2211 331.14ZM34.7741 329.985C34.9841 329.985 35.1918 329.948 35.3971 329.873C35.6024 329.794 35.7868 329.689 35.9501 329.558C36.1181 329.423 36.2511 329.273 36.3491 329.11C36.4518 328.947 36.5054 328.776 36.5101 328.599V327.458L35.6211 327.472C35.1824 327.477 34.7974 327.523 34.4661 327.612C34.1394 327.701 33.8851 327.843 33.7031 328.039C33.5211 328.23 33.4301 328.487 33.4301 328.809C33.4301 329.178 33.5584 329.467 33.8151 329.677C34.0718 329.882 34.3914 329.985 34.7741 329.985ZM39.9621 331V323.762H41.6211V324.798C41.8311 324.481 42.1158 324.205 42.4751 323.972C42.8391 323.739 43.3011 323.622 43.8611 323.622C44.1178 323.622 44.3768 323.666 44.6381 323.755C44.9041 323.844 45.1491 323.974 45.3731 324.147C45.6018 324.32 45.7838 324.534 45.9191 324.791C46.1478 324.45 46.4511 324.17 46.8291 323.951C47.2118 323.732 47.6411 323.622 48.1171 323.622C48.3784 323.622 48.6468 323.664 48.9221 323.748C49.2021 323.832 49.4588 323.972 49.6921 324.168C49.9254 324.364 50.1144 324.632 50.2591 324.973C50.4038 325.309 50.4761 325.731 50.4761 326.24V331H48.7751V326.443C48.7751 326.084 48.7121 325.801 48.5861 325.596C48.4601 325.391 48.2968 325.246 48.0961 325.162C47.9001 325.073 47.6901 325.029 47.4661 325.029C47.2654 325.029 47.0554 325.069 46.8361 325.148C46.6214 325.227 46.4371 325.358 46.2831 325.54C46.1338 325.722 46.0591 325.967 46.0591 326.275V331H44.3581V326.17C44.3581 325.918 44.2928 325.708 44.1621 325.54C44.0314 325.372 43.8658 325.246 43.6651 325.162C43.4691 325.073 43.2684 325.029 43.0631 325.029C42.8531 325.029 42.6384 325.073 42.4191 325.162C42.2044 325.251 42.0248 325.386 41.8801 325.568C41.7354 325.75 41.6631 325.986 41.6631 326.275V331H39.9621ZM55.5068 331.14C54.8115 331.14 54.1978 330.993 53.6658 330.699C53.1385 330.4 52.7255 329.976 52.4268 329.425C52.1328 328.874 51.9858 328.219 51.9858 327.458C51.9858 326.716 52.1188 326.058 52.3848 325.484C52.6555 324.905 53.0451 324.45 53.5538 324.119C54.0671 323.788 54.6855 323.622 55.4088 323.622C56.1228 323.622 56.7225 323.774 57.2078 324.077C57.6931 324.38 58.0618 324.805 58.3138 325.351C58.5658 325.892 58.6918 326.527 58.6918 327.255V327.773H53.6868C53.6821 328.184 53.7475 328.548 53.8828 328.865C54.0181 329.182 54.2188 329.432 54.4848 329.614C54.7508 329.791 55.0798 329.88 55.4718 329.88C55.8731 329.88 56.2208 329.791 56.5148 329.614C56.8135 329.432 57.0118 329.157 57.1098 328.788H58.6638C58.5798 329.292 58.3791 329.719 58.0618 330.069C57.7491 330.419 57.3665 330.685 56.9138 330.867C56.4658 331.049 55.9968 331.14 55.5068 331.14ZM53.6798 326.716H57.0818C57.0818 326.366 57.0188 326.051 56.8928 325.771C56.7715 325.486 56.5871 325.262 56.3398 325.099C56.0925 324.931 55.7798 324.847 55.4018 324.847C55.0285 324.847 54.7135 324.938 54.4568 325.12C54.2001 325.302 54.0065 325.538 53.8758 325.827C53.7451 326.112 53.6798 326.408 53.6798 326.716ZM60.0815 325.932V323.986H62.0065V325.932H60.0815ZM60.0815 330.958V329.026H62.0065V330.958H60.0815ZM66.7391 324.525L67.5301 322.698L66.8721 322.649V320.878H68.7341V322.432L67.4251 324.525H66.7391ZM68.4291 331L72.0621 320.878H73.9101L77.5431 331H75.8351L74.9321 328.459H71.0541L70.1441 331H68.4291ZM71.4601 326.947H74.5051L72.9861 322.53L71.4601 326.947ZM81.0676 331.105C80.601 331.105 80.2276 331.047 79.9476 330.93C79.6676 330.813 79.4576 330.657 79.3176 330.461C79.1776 330.265 79.0866 330.046 79.0446 329.803C79.0026 329.556 78.9816 329.304 78.9816 329.047V320.598H80.6476V328.851C80.6476 329.164 80.7106 329.406 80.8366 329.579C80.9673 329.752 81.1773 329.852 81.4666 329.88L81.8306 329.894V330.965C81.7046 331.002 81.5763 331.035 81.4456 331.063C81.315 331.091 81.189 331.105 81.0676 331.105ZM83.3846 331V323.762H85.0156V331H83.3846ZM83.3566 322.495V320.885H85.0436V322.495H83.3566ZM90.004 331.14C89.3413 331.14 88.751 330.995 88.233 330.706C87.7197 330.412 87.316 329.987 87.022 329.432C86.728 328.872 86.581 328.198 86.581 327.409C86.581 326.658 86.7187 326 86.994 325.435C87.274 324.866 87.6683 324.422 88.177 324.105C88.6903 323.783 89.2993 323.622 90.004 323.622C90.5687 323.622 91.0657 323.734 91.495 323.958C91.9243 324.182 92.2673 324.492 92.524 324.889C92.7853 325.286 92.9417 325.736 92.993 326.24H91.544C91.5067 326.021 91.425 325.813 91.299 325.617C91.173 325.416 91.0027 325.255 90.788 325.134C90.578 325.008 90.3213 324.945 90.018 324.945C89.472 324.945 89.031 325.146 88.695 325.547C88.359 325.948 88.191 326.564 88.191 327.395C88.191 328.16 88.3497 328.769 88.667 329.222C88.989 329.675 89.4487 329.901 90.046 329.901C90.3447 329.901 90.6013 329.836 90.816 329.705C91.0307 329.57 91.1987 329.404 91.32 329.208C91.446 329.007 91.5253 328.807 91.558 328.606H92.972C92.93 329.096 92.7783 329.532 92.517 329.915C92.2557 330.298 91.9103 330.599 91.481 330.818C91.0517 331.033 90.5593 331.14 90.004 331.14ZM97.7802 331.14C97.0849 331.14 96.4712 330.993 95.9392 330.699C95.4119 330.4 94.9989 329.976 94.7002 329.425C94.4062 328.874 94.2592 328.219 94.2592 327.458C94.2592 326.716 94.3922 326.058 94.6582 325.484C94.9289 324.905 95.3186 324.45 95.8272 324.119C96.3406 323.788 96.9589 323.622 97.6822 323.622C98.3962 323.622 98.9959 323.774 99.4812 324.077C99.9666 324.38 100.335 324.805 100.587 325.351C100.839 325.892 100.965 326.527 100.965 327.255V327.773H95.9602C95.9556 328.184 96.0209 328.548 96.1562 328.865C96.2916 329.182 96.4922 329.432 96.7582 329.614C97.0242 329.791 97.3532 329.88 97.7452 329.88C98.1466 329.88 98.4942 329.791 98.7882 329.614C99.0869 329.432 99.2852 329.157 99.3832 328.788H100.937C100.853 329.292 100.653 329.719 100.335 330.069C100.023 330.419 99.6399 330.685 99.1872 330.867C98.7392 331.049 98.2702 331.14 97.7802 331.14ZM95.9532 326.716H99.3552C99.3552 326.366 99.2922 326.051 99.1662 325.771C99.0449 325.486 98.8606 325.262 98.6132 325.099C98.3659 324.931 98.0532 324.847 97.6752 324.847C97.3019 324.847 96.9869 324.938 96.7302 325.12C96.4736 325.302 96.2799 325.538 96.1492 325.827C96.0186 326.112 95.9532 326.408 95.9532 326.716ZM101.78 324.525L102.571 322.698L101.913 322.649V320.878H103.775V322.432L102.466 324.525H101.78Z" fill="black"/>
<path d="M397.654 331.14C396.697 331.14 395.946 330.811 395.4 330.153C394.854 329.495 394.581 328.559 394.581 327.346C394.581 326.59 394.691 325.934 394.91 325.379C395.134 324.819 395.463 324.387 395.897 324.084C396.331 323.776 396.865 323.622 397.5 323.622C397.799 323.622 398.069 323.659 398.312 323.734C398.559 323.804 398.779 323.897 398.97 324.014C399.161 324.131 399.322 324.259 399.453 324.399C399.588 324.539 399.693 324.679 399.768 324.819V320.598H401.483V331H400.223L400.034 329.516C399.973 329.689 399.887 329.871 399.775 330.062C399.668 330.249 399.521 330.424 399.334 330.587C399.152 330.75 398.923 330.883 398.648 330.986C398.373 331.089 398.041 331.14 397.654 331.14ZM398.004 329.887C398.615 329.887 399.061 329.689 399.341 329.292C399.626 328.891 399.768 328.228 399.768 327.304C399.763 326.777 399.698 326.333 399.572 325.974C399.451 325.615 399.264 325.344 399.012 325.162C398.76 324.98 398.431 324.889 398.025 324.889C397.512 324.889 397.089 325.078 396.758 325.456C396.431 325.834 396.268 326.45 396.268 327.304C396.268 328.153 396.42 328.797 396.723 329.236C397.026 329.67 397.453 329.887 398.004 329.887ZM406.601 331.14C405.905 331.14 405.292 330.993 404.76 330.699C404.232 330.4 403.819 329.976 403.521 329.425C403.227 328.874 403.08 328.219 403.08 327.458C403.08 326.716 403.213 326.058 403.479 325.484C403.749 324.905 404.139 324.45 404.648 324.119C405.161 323.788 405.779 323.622 406.503 323.622C407.217 323.622 407.816 323.774 408.302 324.077C408.787 324.38 409.156 324.805 409.408 325.351C409.66 325.892 409.786 326.527 409.786 327.255V327.773H404.781C404.776 328.184 404.841 328.548 404.977 328.865C405.112 329.182 405.313 329.432 405.579 329.614C405.845 329.791 406.174 329.88 406.566 329.88C406.967 329.88 407.315 329.791 407.609 329.614C407.907 329.432 408.106 329.157 408.204 328.788H409.758C409.674 329.292 409.473 329.719 409.156 330.069C408.843 330.419 408.46 330.685 408.008 330.867C407.56 331.049 407.091 331.14 406.601 331.14ZM404.774 326.716H408.176C408.176 326.366 408.113 326.051 407.987 325.771C407.865 325.486 407.681 325.262 407.434 325.099C407.186 324.931 406.874 324.847 406.496 324.847C406.122 324.847 405.807 324.938 405.551 325.12C405.294 325.302 405.1 325.538 404.97 325.827C404.839 326.112 404.774 326.408 404.774 326.716ZM411.413 333.254V323.762H413.114L413.128 324.903C413.222 324.744 413.341 324.588 413.485 324.434C413.635 324.28 413.805 324.142 413.996 324.021C414.192 323.9 414.409 323.804 414.647 323.734C414.885 323.659 415.147 323.622 415.431 323.622C415.987 323.622 416.479 323.755 416.908 324.021C417.338 324.282 417.674 324.686 417.916 325.232C418.164 325.778 418.287 326.469 418.287 327.304C418.287 328.158 418.161 328.87 417.909 329.439C417.657 330.008 417.305 330.435 416.852 330.72C416.4 331 415.875 331.14 415.277 331.14C415.002 331.14 414.75 331.103 414.521 331.028C414.297 330.953 414.097 330.851 413.919 330.72C413.742 330.589 413.586 330.447 413.45 330.293C413.32 330.139 413.21 329.978 413.121 329.81V333.254H411.413ZM414.899 329.866C415.413 329.866 415.837 329.663 416.173 329.257C416.509 328.846 416.677 328.205 416.677 327.332C416.677 326.576 416.519 325.981 416.201 325.547C415.889 325.108 415.455 324.889 414.899 324.889C414.302 324.889 413.854 325.12 413.555 325.582C413.257 326.039 413.107 326.623 413.107 327.332C413.107 327.789 413.173 328.212 413.303 328.599C413.439 328.982 413.637 329.29 413.898 329.523C414.164 329.752 414.498 329.866 414.899 329.866ZM422.467 331.056C421.893 331.056 421.447 330.981 421.13 330.832C420.817 330.678 420.6 330.461 420.479 330.181C420.357 329.901 420.297 329.567 420.297 329.18V324.966H419.121V323.762H420.346L420.773 321.613H421.998V323.755H423.615V324.966H421.998L422.005 329.117C422.005 329.332 422.028 329.49 422.075 329.593C422.126 329.691 422.205 329.756 422.313 329.789C422.425 329.817 422.572 329.831 422.754 329.831H423.65V330.909C423.552 330.946 423.407 330.979 423.216 331.007C423.029 331.04 422.779 331.056 422.467 331.056ZM425.481 331V320.878H427.147L432.103 328.109V320.878H433.804V331H432.271L427.182 323.573V331H425.481ZM438.061 331.14C437.599 331.14 437.184 331.056 436.815 330.888C436.451 330.715 436.164 330.47 435.954 330.153C435.749 329.831 435.646 329.441 435.646 328.984C435.646 328.186 435.933 327.584 436.507 327.178C437.086 326.772 438.005 326.56 439.265 326.541L440.35 326.513V326.023C440.35 325.64 440.236 325.342 440.007 325.127C439.783 324.908 439.433 324.8 438.957 324.805C438.602 324.81 438.28 324.894 437.991 325.057C437.702 325.216 437.51 325.484 437.417 325.862H435.968C435.996 325.367 436.138 324.954 436.395 324.623C436.656 324.287 437.013 324.037 437.466 323.874C437.919 323.706 438.441 323.622 439.034 323.622C439.725 323.622 440.287 323.713 440.721 323.895C441.155 324.077 441.475 324.341 441.68 324.686C441.885 325.027 441.988 325.44 441.988 325.925V331H440.553L440.413 329.698C440.156 330.244 439.827 330.622 439.426 330.832C439.029 331.037 438.574 331.14 438.061 331.14ZM438.614 329.985C438.824 329.985 439.032 329.948 439.237 329.873C439.442 329.794 439.627 329.689 439.79 329.558C439.958 329.423 440.091 329.273 440.189 329.11C440.292 328.947 440.345 328.776 440.35 328.599V327.458L439.461 327.472C439.022 327.477 438.637 327.523 438.306 327.612C437.979 327.701 437.725 327.843 437.543 328.039C437.361 328.23 437.27 328.487 437.27 328.809C437.27 329.178 437.398 329.467 437.655 329.677C437.912 329.882 438.231 329.985 438.614 329.985ZM443.802 331V323.762H445.461V324.798C445.671 324.481 445.956 324.205 446.315 323.972C446.679 323.739 447.141 323.622 447.701 323.622C447.958 323.622 448.217 323.666 448.478 323.755C448.744 323.844 448.989 323.974 449.213 324.147C449.442 324.32 449.624 324.534 449.759 324.791C449.988 324.45 450.291 324.17 450.669 323.951C451.052 323.732 451.481 323.622 451.957 323.622C452.218 323.622 452.487 323.664 452.762 323.748C453.042 323.832 453.299 323.972 453.532 324.168C453.765 324.364 453.954 324.632 454.099 324.973C454.244 325.309 454.316 325.731 454.316 326.24V331H452.615V326.443C452.615 326.084 452.552 325.801 452.426 325.596C452.3 325.391 452.137 325.246 451.936 325.162C451.74 325.073 451.53 325.029 451.306 325.029C451.105 325.029 450.895 325.069 450.676 325.148C450.461 325.227 450.277 325.358 450.123 325.54C449.974 325.722 449.899 325.967 449.899 326.275V331H448.198V326.17C448.198 325.918 448.133 325.708 448.002 325.54C447.871 325.372 447.706 325.246 447.505 325.162C447.309 325.073 447.108 325.029 446.903 325.029C446.693 325.029 446.478 325.073 446.259 325.162C446.044 325.251 445.865 325.386 445.72 325.568C445.575 325.75 445.503 325.986 445.503 326.275V331H443.802ZM459.347 331.14C458.651 331.14 458.038 330.993 457.506 330.699C456.978 330.4 456.565 329.976 456.267 329.425C455.973 328.874 455.826 328.219 455.826 327.458C455.826 326.716 455.959 326.058 456.225 325.484C456.495 324.905 456.885 324.45 457.394 324.119C457.907 323.788 458.525 323.622 459.249 323.622C459.963 323.622 460.562 323.774 461.048 324.077C461.533 324.38 461.902 324.805 462.154 325.351C462.406 325.892 462.532 326.527 462.532 327.255V327.773H457.527C457.522 328.184 457.587 328.548 457.723 328.865C457.858 329.182 458.059 329.432 458.325 329.614C458.591 329.791 458.92 329.88 459.312 329.88C459.713 329.88 460.061 329.791 460.355 329.614C460.653 329.432 460.852 329.157 460.95 328.788H462.504C462.42 329.292 462.219 329.719 461.902 330.069C461.589 330.419 461.206 330.685 460.754 330.867C460.306 331.049 459.837 331.14 459.347 331.14ZM457.52 326.716H460.922C460.922 326.366 460.859 326.051 460.733 325.771C460.611 325.486 460.427 325.262 460.18 325.099C459.932 324.931 459.62 324.847 459.242 324.847C458.868 324.847 458.553 324.938 458.297 325.12C458.04 325.302 457.846 325.538 457.716 325.827C457.585 326.112 457.52 326.408 457.52 326.716ZM463.921 325.932V323.986H465.846V325.932H463.921ZM463.921 330.958V329.026H465.846V330.958H463.921ZM470.579 324.525L471.37 322.698L470.712 322.649V320.878H472.574V322.432L471.265 324.525H470.579ZM474.577 331V320.878H478.168C478.896 320.878 479.547 321.004 480.121 321.256C480.699 321.503 481.154 321.87 481.486 322.355C481.817 322.84 481.983 323.438 481.983 324.147C481.983 324.814 481.831 325.386 481.528 325.862C481.229 326.338 480.811 326.702 480.275 326.954C479.738 327.206 479.11 327.332 478.392 327.332H476.306V331H474.577ZM476.292 325.967H478.35C478.942 325.967 479.425 325.79 479.799 325.435C480.177 325.08 480.366 324.618 480.366 324.049C480.366 323.47 480.17 323.022 479.778 322.705C479.386 322.383 478.893 322.222 478.301 322.222H476.292V325.967ZM486.785 331.154C485.614 331.154 484.692 330.713 484.02 329.831C483.353 328.949 483.019 327.663 483.019 325.974C483.019 324.835 483.173 323.879 483.481 323.104C483.789 322.325 484.225 321.737 484.79 321.34C485.355 320.939 486.022 320.738 486.792 320.738C487.949 320.738 488.864 321.184 489.536 322.075C490.213 322.962 490.551 324.257 490.551 325.96C490.551 327.654 490.215 328.944 489.543 329.831C488.876 330.713 487.956 331.154 486.785 331.154ZM486.792 329.733C487.45 329.733 487.94 329.441 488.262 328.858C488.584 328.275 488.745 327.311 488.745 325.967C488.745 324.595 488.582 323.61 488.255 323.013C487.928 322.416 487.438 322.117 486.785 322.117C486.132 322.117 485.637 322.418 485.301 323.02C484.97 323.622 484.804 324.604 484.804 325.967C484.804 327.306 484.97 328.27 485.301 328.858C485.637 329.441 486.134 329.733 486.792 329.733ZM495.745 331.147C494.947 331.147 494.249 331.028 493.652 330.79C493.059 330.547 492.597 330.207 492.266 329.768C491.935 329.329 491.769 328.814 491.769 328.221C491.769 327.834 491.865 327.463 492.056 327.108C492.252 326.753 492.502 326.455 492.805 326.212C493.108 325.965 493.421 325.808 493.743 325.743C493.309 325.547 492.945 325.267 492.651 324.903C492.357 324.534 492.21 324.082 492.21 323.545C492.21 322.943 492.364 322.434 492.672 322.019C492.98 321.599 493.4 321.282 493.932 321.067C494.469 320.848 495.073 320.738 495.745 320.738C496.417 320.738 497.019 320.848 497.551 321.067C498.083 321.282 498.503 321.599 498.811 322.019C499.124 322.434 499.28 322.943 499.28 323.545C499.28 324.082 499.135 324.534 498.846 324.903C498.557 325.267 498.19 325.547 497.747 325.743C498.069 325.808 498.382 325.965 498.685 326.212C498.988 326.455 499.238 326.753 499.434 327.108C499.63 327.463 499.728 327.834 499.728 328.221C499.728 328.814 499.562 329.329 499.231 329.768C498.904 330.207 498.44 330.547 497.838 330.79C497.241 331.028 496.543 331.147 495.745 331.147ZM495.745 329.831C496.412 329.831 496.94 329.682 497.327 329.383C497.714 329.084 497.908 328.685 497.908 328.186C497.908 327.855 497.819 327.563 497.642 327.311C497.465 327.054 497.215 326.854 496.893 326.709C496.571 326.564 496.188 326.492 495.745 326.492C495.306 326.492 494.924 326.564 494.597 326.709C494.275 326.854 494.025 327.054 493.848 327.311C493.675 327.563 493.589 327.855 493.589 328.186C493.589 328.685 493.783 329.084 494.17 329.383C494.562 329.682 495.087 329.831 495.745 329.831ZM495.745 325.064C496.277 325.064 496.711 324.929 497.047 324.658C497.388 324.383 497.558 324 497.558 323.51C497.558 323.025 497.388 322.64 497.047 322.355C496.706 322.07 496.272 321.928 495.745 321.928C495.218 321.928 494.781 322.07 494.436 322.355C494.095 322.64 493.925 323.025 493.925 323.51C493.925 324 494.095 324.383 494.436 324.658C494.781 324.929 495.218 325.064 495.745 325.064ZM502.866 331V323.202H500.99V322.187C501.583 322.187 502.052 322.138 502.397 322.04C502.747 321.937 503.002 321.788 503.16 321.592C503.324 321.396 503.417 321.158 503.44 320.878H504.602V331H502.866ZM510.992 331.154C510.348 331.154 509.749 331.049 509.193 330.839C508.643 330.624 508.167 330.33 507.765 329.957C507.369 329.584 507.072 329.157 506.876 328.676L508.255 327.948C508.428 328.293 508.633 328.604 508.871 328.879C509.114 329.154 509.396 329.371 509.718 329.53C510.045 329.684 510.418 329.761 510.838 329.761C511.496 329.761 512.024 329.579 512.42 329.215C512.822 328.846 513.022 328.356 513.022 327.745C513.022 327.367 512.929 327.031 512.742 326.737C512.56 326.443 512.311 326.214 511.993 326.051C511.681 325.883 511.324 325.799 510.922 325.799C510.684 325.799 510.46 325.82 510.25 325.862C510.045 325.904 509.837 325.983 509.627 326.1C509.417 326.212 509.191 326.382 508.948 326.611C508.902 326.634 508.867 326.646 508.843 326.646C508.825 326.641 508.79 326.627 508.738 326.604L507.429 326.072L507.891 320.878H514.184L514.121 322.299H509.277L509.046 325.113C509.406 324.861 509.767 324.679 510.131 324.567C510.495 324.455 510.897 324.399 511.335 324.399C511.979 324.399 512.565 324.525 513.092 324.777C513.62 325.029 514.04 325.4 514.352 325.89C514.665 326.38 514.821 326.98 514.821 327.689C514.821 328.398 514.663 329.012 514.345 329.53C514.033 330.048 513.589 330.449 513.015 330.734C512.446 331.014 511.772 331.154 510.992 331.154ZM516.161 324.525L516.952 322.698L516.294 322.649V320.878H518.156V322.432L516.847 324.525H516.161Z" fill="black"/>
<path d="M380.654 147.14C379.697 147.14 378.946 146.811 378.4 146.153C377.854 145.495 377.581 144.559 377.581 143.346C377.581 142.59 377.691 141.934 377.91 141.379C378.134 140.819 378.463 140.387 378.897 140.084C379.331 139.776 379.865 139.622 380.5 139.622C380.799 139.622 381.069 139.659 381.312 139.734C381.559 139.804 381.779 139.897 381.97 140.014C382.161 140.131 382.322 140.259 382.453 140.399C382.588 140.539 382.693 140.679 382.768 140.819V136.598H384.483V147H383.223L383.034 145.516C382.973 145.689 382.887 145.871 382.775 146.062C382.668 146.249 382.521 146.424 382.334 146.587C382.152 146.75 381.923 146.883 381.648 146.986C381.373 147.089 381.041 147.14 380.654 147.14ZM381.004 145.887C381.615 145.887 382.061 145.689 382.341 145.292C382.626 144.891 382.768 144.228 382.768 143.304C382.763 142.777 382.698 142.333 382.572 141.974C382.451 141.615 382.264 141.344 382.012 141.162C381.76 140.98 381.431 140.889 381.025 140.889C380.512 140.889 380.089 141.078 379.758 141.456C379.431 141.834 379.268 142.45 379.268 143.304C379.268 144.153 379.42 144.797 379.723 145.236C380.026 145.67 380.453 145.887 381.004 145.887ZM389.601 147.14C388.905 147.14 388.292 146.993 387.76 146.699C387.232 146.4 386.819 145.976 386.521 145.425C386.227 144.874 386.08 144.219 386.08 143.458C386.08 142.716 386.213 142.058 386.479 141.484C386.749 140.905 387.139 140.45 387.648 140.119C388.161 139.788 388.779 139.622 389.503 139.622C390.217 139.622 390.816 139.774 391.302 140.077C391.787 140.38 392.156 140.805 392.408 141.351C392.66 141.892 392.786 142.527 392.786 143.255V143.773H387.781C387.776 144.184 387.841 144.548 387.977 144.865C388.112 145.182 388.313 145.432 388.579 145.614C388.845 145.791 389.174 145.88 389.566 145.88C389.967 145.88 390.315 145.791 390.609 145.614C390.907 145.432 391.106 145.157 391.204 144.788H392.758C392.674 145.292 392.473 145.719 392.156 146.069C391.843 146.419 391.46 146.685 391.008 146.867C390.56 147.049 390.091 147.14 389.601 147.14ZM387.774 142.716H391.176C391.176 142.366 391.113 142.051 390.987 141.771C390.865 141.486 390.681 141.262 390.434 141.099C390.186 140.931 389.874 140.847 389.496 140.847C389.122 140.847 388.807 140.938 388.551 141.12C388.294 141.302 388.1 141.538 387.97 141.827C387.839 142.112 387.774 142.408 387.774 142.716ZM394.413 149.254V139.762H396.114L396.128 140.903C396.222 140.744 396.341 140.588 396.485 140.434C396.635 140.28 396.805 140.142 396.996 140.021C397.192 139.9 397.409 139.804 397.647 139.734C397.885 139.659 398.147 139.622 398.431 139.622C398.987 139.622 399.479 139.755 399.908 140.021C400.338 140.282 400.674 140.686 400.916 141.232C401.164 141.778 401.287 142.469 401.287 143.304C401.287 144.158 401.161 144.87 400.909 145.439C400.657 146.008 400.305 146.435 399.852 146.72C399.4 147 398.875 147.14 398.277 147.14C398.002 147.14 397.75 147.103 397.521 147.028C397.297 146.953 397.097 146.851 396.919 146.72C396.742 146.589 396.586 146.447 396.45 146.293C396.32 146.139 396.21 145.978 396.121 145.81V149.254H394.413ZM397.899 145.866C398.413 145.866 398.837 145.663 399.173 145.257C399.509 144.846 399.677 144.205 399.677 143.332C399.677 142.576 399.519 141.981 399.201 141.547C398.889 141.108 398.455 140.889 397.899 140.889C397.302 140.889 396.854 141.12 396.555 141.582C396.257 142.039 396.107 142.623 396.107 143.332C396.107 143.789 396.173 144.212 396.303 144.599C396.439 144.982 396.637 145.29 396.898 145.523C397.164 145.752 397.498 145.866 397.899 145.866ZM405.467 147.056C404.893 147.056 404.447 146.981 404.13 146.832C403.817 146.678 403.6 146.461 403.479 146.181C403.357 145.901 403.297 145.567 403.297 145.18V140.966H402.121V139.762H403.346L403.773 137.613H404.998V139.755H406.615V140.966H404.998L405.005 145.117C405.005 145.332 405.028 145.49 405.075 145.593C405.126 145.691 405.205 145.756 405.313 145.789C405.425 145.817 405.572 145.831 405.754 145.831H406.65V146.909C406.552 146.946 406.407 146.979 406.216 147.007C406.029 147.04 405.779 147.056 405.467 147.056ZM408.481 147V136.878H410.147L415.103 144.109V136.878H416.804V147H415.271L410.182 139.573V147H408.481ZM421.061 147.14C420.599 147.14 420.184 147.056 419.815 146.888C419.451 146.715 419.164 146.47 418.954 146.153C418.749 145.831 418.646 145.441 418.646 144.984C418.646 144.186 418.933 143.584 419.507 143.178C420.086 142.772 421.005 142.56 422.265 142.541L423.35 142.513V142.023C423.35 141.64 423.236 141.342 423.007 141.127C422.783 140.908 422.433 140.8 421.957 140.805C421.602 140.81 421.28 140.894 420.991 141.057C420.702 141.216 420.51 141.484 420.417 141.862H418.968C418.996 141.367 419.138 140.954 419.395 140.623C419.656 140.287 420.013 140.037 420.466 139.874C420.919 139.706 421.441 139.622 422.034 139.622C422.725 139.622 423.287 139.713 423.721 139.895C424.155 140.077 424.475 140.341 424.68 140.686C424.885 141.027 424.988 141.44 424.988 141.925V147H423.553L423.413 145.698C423.156 146.244 422.827 146.622 422.426 146.832C422.029 147.037 421.574 147.14 421.061 147.14ZM421.614 145.985C421.824 145.985 422.032 145.948 422.237 145.873C422.442 145.794 422.627 145.689 422.79 145.558C422.958 145.423 423.091 145.273 423.189 145.11C423.292 144.947 423.345 144.776 423.35 144.599V143.458L422.461 143.472C422.022 143.477 421.637 143.523 421.306 143.612C420.979 143.701 420.725 143.843 420.543 144.039C420.361 144.23 420.27 144.487 420.27 144.809C420.27 145.178 420.398 145.467 420.655 145.677C420.912 145.882 421.231 145.985 421.614 145.985ZM426.802 147V139.762H428.461V140.798C428.671 140.481 428.956 140.205 429.315 139.972C429.679 139.739 430.141 139.622 430.701 139.622C430.958 139.622 431.217 139.666 431.478 139.755C431.744 139.844 431.989 139.974 432.213 140.147C432.442 140.32 432.624 140.534 432.759 140.791C432.988 140.45 433.291 140.17 433.669 139.951C434.052 139.732 434.481 139.622 434.957 139.622C435.218 139.622 435.487 139.664 435.762 139.748C436.042 139.832 436.299 139.972 436.532 140.168C436.765 140.364 436.954 140.632 437.099 140.973C437.244 141.309 437.316 141.731 437.316 142.24V147H435.615V142.443C435.615 142.084 435.552 141.801 435.426 141.596C435.3 141.391 435.137 141.246 434.936 141.162C434.74 141.073 434.53 141.029 434.306 141.029C434.105 141.029 433.895 141.069 433.676 141.148C433.461 141.227 433.277 141.358 433.123 141.54C432.974 141.722 432.899 141.967 432.899 142.275V147H431.198V142.17C431.198 141.918 431.133 141.708 431.002 141.54C430.871 141.372 430.706 141.246 430.505 141.162C430.309 141.073 430.108 141.029 429.903 141.029C429.693 141.029 429.478 141.073 429.259 141.162C429.044 141.251 428.865 141.386 428.72 141.568C428.575 141.75 428.503 141.986 428.503 142.275V147H426.802ZM442.347 147.14C441.651 147.14 441.038 146.993 440.506 146.699C439.978 146.4 439.565 145.976 439.267 145.425C438.973 144.874 438.826 144.219 438.826 143.458C438.826 142.716 438.959 142.058 439.225 141.484C439.495 140.905 439.885 140.45 440.394 140.119C440.907 139.788 441.525 139.622 442.249 139.622C442.963 139.622 443.562 139.774 444.048 140.077C444.533 140.38 444.902 140.805 445.154 141.351C445.406 141.892 445.532 142.527 445.532 143.255V143.773H440.527C440.522 144.184 440.587 144.548 440.723 144.865C440.858 145.182 441.059 145.432 441.325 145.614C441.591 145.791 441.92 145.88 442.312 145.88C442.713 145.88 443.061 145.791 443.355 145.614C443.653 145.432 443.852 145.157 443.95 144.788H445.504C445.42 145.292 445.219 145.719 444.902 146.069C444.589 146.419 444.206 146.685 443.754 146.867C443.306 147.049 442.837 147.14 442.347 147.14ZM440.52 142.716H443.922C443.922 142.366 443.859 142.051 443.733 141.771C443.611 141.486 443.427 141.262 443.18 141.099C442.932 140.931 442.62 140.847 442.242 140.847C441.868 140.847 441.553 140.938 441.297 141.12C441.04 141.302 440.846 141.538 440.716 141.827C440.585 142.112 440.52 142.408 440.52 142.716ZM446.921 141.932V139.986H448.846V141.932H446.921ZM446.921 146.958V145.026H448.846V146.958H446.921ZM453.579 140.525L454.37 138.698L453.712 138.649V136.878H455.574V138.432L454.265 140.525H453.579ZM461.679 147L461.686 144.599H456.975V143.15L461.637 136.878H463.331V143.15H464.948V144.599H463.331V147H461.679ZM458.571 143.15H461.672V138.992L458.571 143.15ZM466.586 147V136.878H473.208L473.201 138.32H468.315V141.232H472.627V142.653H468.315V147H466.586ZM478.934 147.14C478.001 147.14 477.247 146.986 476.673 146.678C476.104 146.365 475.691 145.917 475.434 145.334C475.178 144.746 475.049 144.037 475.049 143.206V136.878H476.792V143.381C476.792 144.165 476.984 144.744 477.366 145.117C477.754 145.49 478.276 145.677 478.934 145.677C479.378 145.677 479.763 145.595 480.089 145.432C480.416 145.269 480.668 145.019 480.845 144.683C481.023 144.342 481.111 143.908 481.111 143.381V136.878H482.833V143.304C482.833 144.107 482.703 144.795 482.441 145.369C482.18 145.938 481.762 146.377 481.188 146.685C480.619 146.988 479.868 147.14 478.934 147.14ZM487.262 147V138.411H484.112V136.878H492.008V138.411H488.97V147H487.262ZM497.419 147.14C496.485 147.14 495.732 146.986 495.158 146.678C494.588 146.365 494.175 145.917 493.919 145.334C493.662 144.746 493.534 144.037 493.534 143.206V136.878H495.277V143.381C495.277 144.165 495.468 144.744 495.851 145.117C496.238 145.49 496.761 145.677 497.419 145.677C497.862 145.677 498.247 145.595 498.574 145.432C498.9 145.269 499.152 145.019 499.33 144.683C499.507 144.342 499.596 143.908 499.596 143.381V136.878H501.318V143.304C501.318 144.107 501.187 144.795 500.926 145.369C500.664 145.938 500.247 146.377 499.673 146.685C499.103 146.988 498.352 147.14 497.419 147.14ZM503.528 147V136.878H507.637C508.411 136.878 509.048 136.999 509.548 137.242C510.052 137.48 510.425 137.818 510.668 138.257C510.91 138.691 511.032 139.2 511.032 139.783C511.032 140.324 510.943 140.779 510.766 141.148C510.588 141.512 510.357 141.811 510.073 142.044C509.793 142.273 509.492 142.459 509.17 142.604L511.102 147H509.324L507.581 142.891H505.229V147H503.528ZM505.229 141.54H507.252C507.896 141.54 508.397 141.391 508.757 141.092C509.121 140.793 509.303 140.378 509.303 139.846C509.303 139.323 509.135 138.92 508.799 138.635C508.463 138.35 508.019 138.208 507.469 138.208H505.229V141.54ZM513.139 147V136.878H519.831L519.824 138.341H514.854V141.176H519.243V142.618H514.84V145.516L519.929 145.523V147H513.139ZM521.419 140.525L522.21 138.698L521.552 138.649V136.878H523.414V138.432L522.105 140.525H521.419Z" fill="black"/>
<path d="M394 434C394 398.654 422.654 370 458 370V370C493.346 370 522 398.654 522 434V434C522 469.346 493.346 498 458 498V498C422.654 498 394 469.346 394 434V434Z" fill="#F16767"/>
<path d="M420.536 439V428.878C420.569 428.878 420.667 428.88 420.83 428.885C420.998 428.885 421.201 428.885 421.439 428.885C421.677 428.88 421.925 428.88 422.181 428.885C422.438 428.885 422.674 428.887 422.888 428.892C424.13 428.911 425.135 429.114 425.905 429.501C426.68 429.884 427.247 430.441 427.606 431.174C427.97 431.907 428.152 432.807 428.152 433.876C428.152 434.996 427.956 435.936 427.564 436.697C427.177 437.458 426.584 438.032 425.786 438.419C424.993 438.806 423.983 439 422.755 439H420.536ZM421.866 437.887H422.755C423.591 437.887 424.309 437.759 424.911 437.502C425.513 437.241 425.975 436.818 426.297 436.235C426.624 435.652 426.787 434.872 426.787 433.897C426.787 432.922 426.629 432.149 426.311 431.58C425.999 431.011 425.546 430.605 424.953 430.362C424.361 430.115 423.647 429.991 422.811 429.991H421.866V437.887ZM433.036 439.14C432.364 439.14 431.772 438.993 431.258 438.699C430.745 438.405 430.344 437.983 430.054 437.432C429.765 436.881 429.62 436.221 429.62 435.451C429.62 434.69 429.751 434.023 430.012 433.449C430.274 432.875 430.652 432.427 431.146 432.105C431.646 431.783 432.245 431.622 432.945 431.622C433.627 431.622 434.203 431.769 434.674 432.063C435.146 432.357 435.503 432.772 435.745 433.309C435.993 433.841 436.116 434.473 436.116 435.206V435.682H430.929C430.929 436.139 431.004 436.555 431.153 436.928C431.307 437.297 431.538 437.591 431.846 437.81C432.154 438.029 432.544 438.139 433.015 438.139C433.477 438.139 433.874 438.032 434.205 437.817C434.541 437.602 434.756 437.292 434.849 436.886H436.067C435.983 437.376 435.787 437.789 435.479 438.125C435.176 438.461 434.81 438.715 434.38 438.888C433.956 439.056 433.508 439.14 433.036 439.14ZM430.936 434.807H434.87C434.87 434.392 434.8 434.018 434.66 433.687C434.52 433.351 434.306 433.087 434.016 432.896C433.732 432.7 433.372 432.602 432.938 432.602C432.486 432.602 432.11 432.712 431.811 432.931C431.513 433.146 431.291 433.423 431.146 433.764C431.002 434.1 430.932 434.448 430.936 434.807ZM437.907 441.254V431.762H439.195L439.209 433.022C439.293 432.873 439.4 432.716 439.531 432.553C439.666 432.39 439.83 432.238 440.021 432.098C440.217 431.958 440.443 431.844 440.7 431.755C440.961 431.666 441.258 431.622 441.589 431.622C442.168 431.622 442.676 431.755 443.115 432.021C443.558 432.282 443.904 432.684 444.151 433.225C444.398 433.766 444.522 434.452 444.522 435.283C444.522 436.114 444.401 436.816 444.158 437.39C443.92 437.959 443.575 438.393 443.122 438.692C442.669 438.991 442.123 439.14 441.484 439.14C441.162 439.14 440.875 439.093 440.623 439C440.376 438.911 440.159 438.795 439.972 438.65C439.79 438.501 439.636 438.342 439.51 438.174C439.389 438.006 439.288 437.845 439.209 437.691V441.254H437.907ZM441.239 438.132C441.836 438.132 442.324 437.906 442.702 437.453C443.08 436.996 443.269 436.286 443.269 435.325C443.269 434.499 443.096 433.843 442.751 433.358C442.406 432.873 441.902 432.63 441.239 432.63C440.567 432.63 440.058 432.88 439.713 433.379C439.368 433.874 439.195 434.522 439.195 435.325C439.195 435.843 439.272 436.314 439.426 436.739C439.58 437.164 439.809 437.502 440.112 437.754C440.415 438.006 440.791 438.132 441.239 438.132ZM448.195 439.14C447.723 439.14 447.308 439.058 446.949 438.895C446.594 438.727 446.314 438.487 446.109 438.174C445.908 437.861 445.808 437.483 445.808 437.04C445.808 436.237 446.088 435.64 446.648 435.248C447.208 434.856 448.106 434.646 449.343 434.618L450.631 434.583V434.016C450.631 433.573 450.498 433.223 450.232 432.966C449.966 432.705 449.555 432.574 449 432.574C448.584 432.579 448.218 432.677 447.901 432.868C447.583 433.059 447.38 433.372 447.292 433.806H446.151C446.179 433.335 446.309 432.938 446.543 432.616C446.781 432.289 447.114 432.042 447.544 431.874C447.973 431.706 448.479 431.622 449.063 431.622C449.693 431.622 450.215 431.711 450.631 431.888C451.051 432.065 451.363 432.327 451.569 432.672C451.779 433.017 451.884 433.442 451.884 433.946V439H450.778L450.68 437.642C450.404 438.207 450.05 438.599 449.616 438.818C449.186 439.033 448.713 439.14 448.195 439.14ZM448.58 438.209C448.827 438.209 449.07 438.165 449.308 438.076C449.55 437.987 449.77 437.868 449.966 437.719C450.166 437.565 450.327 437.395 450.449 437.208C450.57 437.017 450.631 436.821 450.631 436.62V435.381L449.56 435.402C449.004 435.411 448.542 435.467 448.174 435.57C447.805 435.673 447.527 435.834 447.341 436.053C447.154 436.272 447.061 436.559 447.061 436.914C447.061 437.32 447.203 437.637 447.488 437.866C447.772 438.095 448.136 438.209 448.58 438.209ZM453.903 439V431.762H455.135V433.155C455.256 432.81 455.427 432.525 455.646 432.301C455.865 432.072 456.115 431.902 456.395 431.79C456.68 431.678 456.974 431.622 457.277 431.622C457.384 431.622 457.489 431.629 457.592 431.643C457.695 431.657 457.774 431.68 457.83 431.713V432.966C457.76 432.933 457.669 432.912 457.557 432.903C457.45 432.889 457.359 432.882 457.284 432.882C456.995 432.863 456.724 432.882 456.472 432.938C456.22 432.989 455.998 433.08 455.807 433.211C455.616 433.342 455.464 433.514 455.352 433.729C455.245 433.939 455.191 434.196 455.191 434.499V439H453.903ZM461.82 439.035C461.32 439.035 460.933 438.967 460.658 438.832C460.382 438.697 460.189 438.496 460.077 438.23C459.969 437.964 459.916 437.637 459.916 437.25V432.707H458.74V431.762H459.951L460.266 429.655H461.218V431.755H462.849V432.707H461.218V437.208C461.218 437.465 461.243 437.654 461.295 437.775C461.351 437.892 461.442 437.966 461.568 437.999C461.694 438.032 461.871 438.048 462.1 438.048H462.891V438.916C462.802 438.949 462.667 438.977 462.485 439C462.307 439.023 462.086 439.035 461.82 439.035ZM464.608 439V431.762H465.854V432.812C466.055 432.495 466.33 432.217 466.68 431.979C467.03 431.741 467.485 431.622 468.045 431.622C468.306 431.622 468.572 431.666 468.843 431.755C469.118 431.844 469.37 431.977 469.599 432.154C469.828 432.331 470.005 432.548 470.131 432.805C470.355 432.45 470.658 432.166 471.041 431.951C471.424 431.732 471.855 431.622 472.336 431.622C472.588 431.622 472.852 431.662 473.127 431.741C473.402 431.816 473.657 431.951 473.89 432.147C474.128 432.338 474.322 432.607 474.471 432.952C474.62 433.293 474.695 433.731 474.695 434.268V439H473.393V434.394C473.393 433.955 473.323 433.617 473.183 433.379C473.043 433.136 472.859 432.966 472.63 432.868C472.406 432.77 472.166 432.721 471.909 432.721C471.685 432.721 471.447 432.765 471.195 432.854C470.943 432.943 470.728 433.092 470.551 433.302C470.374 433.512 470.285 433.799 470.285 434.163V439H468.997V434.016C468.997 433.731 468.92 433.493 468.766 433.302C468.617 433.111 468.428 432.966 468.199 432.868C467.975 432.77 467.751 432.721 467.527 432.721C467.28 432.721 467.03 432.77 466.778 432.868C466.531 432.966 466.321 433.122 466.148 433.337C465.98 433.547 465.896 433.822 465.896 434.163V439H464.608ZM479.78 439.14C479.108 439.14 478.516 438.993 478.002 438.699C477.489 438.405 477.088 437.983 476.798 437.432C476.509 436.881 476.364 436.221 476.364 435.451C476.364 434.69 476.495 434.023 476.756 433.449C477.018 432.875 477.396 432.427 477.89 432.105C478.39 431.783 478.989 431.622 479.689 431.622C480.371 431.622 480.947 431.769 481.418 432.063C481.89 432.357 482.247 432.772 482.489 433.309C482.737 433.841 482.86 434.473 482.86 435.206V435.682H477.673C477.673 436.139 477.748 436.555 477.897 436.928C478.051 437.297 478.282 437.591 478.59 437.81C478.898 438.029 479.288 438.139 479.759 438.139C480.221 438.139 480.618 438.032 480.949 437.817C481.285 437.602 481.5 437.292 481.593 436.886H482.811C482.727 437.376 482.531 437.789 482.223 438.125C481.92 438.461 481.554 438.715 481.124 438.888C480.7 439.056 480.252 439.14 479.78 439.14ZM477.68 434.807H481.614C481.614 434.392 481.544 434.018 481.404 433.687C481.264 433.351 481.05 433.087 480.76 432.896C480.476 432.7 480.116 432.602 479.682 432.602C479.23 432.602 478.854 432.712 478.555 432.931C478.257 433.146 478.035 433.423 477.89 433.764C477.746 434.1 477.676 434.448 477.68 434.807ZM484.651 439V431.762H485.904V432.812C486.021 432.611 486.182 432.422 486.387 432.245C486.597 432.068 486.849 431.925 487.143 431.818C487.442 431.711 487.785 431.657 488.172 431.657C488.629 431.657 489.049 431.748 489.432 431.93C489.819 432.112 490.127 432.397 490.356 432.784C490.589 433.167 490.706 433.661 490.706 434.268V439H489.411V434.394C489.411 433.829 489.262 433.412 488.963 433.141C488.669 432.866 488.286 432.728 487.815 432.728C487.488 432.728 487.183 432.782 486.898 432.889C486.613 432.992 486.382 433.15 486.205 433.365C486.028 433.575 485.939 433.841 485.939 434.163V439H484.651ZM495.083 439.035C494.584 439.035 494.197 438.967 493.921 438.832C493.646 438.697 493.452 438.496 493.34 438.23C493.233 437.964 493.179 437.637 493.179 437.25V432.707H492.003V431.762H493.214L493.529 429.655H494.481V431.755H496.112V432.707H494.481V437.208C494.481 437.465 494.507 437.654 494.558 437.775C494.614 437.892 494.705 437.966 494.831 437.999C494.957 438.032 495.135 438.048 495.363 438.048H496.154V438.916C496.066 438.949 495.93 438.977 495.748 439C495.571 439.023 495.349 439.035 495.083 439.035Z" fill="white"/>
<path d="M406.654 515.14C405.697 515.14 404.946 514.811 404.4 514.153C403.854 513.495 403.581 512.559 403.581 511.346C403.581 510.59 403.691 509.934 403.91 509.379C404.134 508.819 404.463 508.387 404.897 508.084C405.331 507.776 405.865 507.622 406.5 507.622C406.799 507.622 407.069 507.659 407.312 507.734C407.559 507.804 407.779 507.897 407.97 508.014C408.161 508.131 408.322 508.259 408.453 508.399C408.588 508.539 408.693 508.679 408.768 508.819V504.598H410.483V515H409.223L409.034 513.516C408.973 513.689 408.887 513.871 408.775 514.062C408.668 514.249 408.521 514.424 408.334 514.587C408.152 514.75 407.923 514.883 407.648 514.986C407.373 515.089 407.041 515.14 406.654 515.14ZM407.004 513.887C407.615 513.887 408.061 513.689 408.341 513.292C408.626 512.891 408.768 512.228 408.768 511.304C408.763 510.777 408.698 510.333 408.572 509.974C408.451 509.615 408.264 509.344 408.012 509.162C407.76 508.98 407.431 508.889 407.025 508.889C406.512 508.889 406.089 509.078 405.758 509.456C405.431 509.834 405.268 510.45 405.268 511.304C405.268 512.153 405.42 512.797 405.723 513.236C406.026 513.67 406.453 513.887 407.004 513.887ZM415.601 515.14C414.905 515.14 414.292 514.993 413.76 514.699C413.232 514.4 412.819 513.976 412.521 513.425C412.227 512.874 412.08 512.219 412.08 511.458C412.08 510.716 412.213 510.058 412.479 509.484C412.749 508.905 413.139 508.45 413.648 508.119C414.161 507.788 414.779 507.622 415.503 507.622C416.217 507.622 416.816 507.774 417.302 508.077C417.787 508.38 418.156 508.805 418.408 509.351C418.66 509.892 418.786 510.527 418.786 511.255V511.773H413.781C413.776 512.184 413.841 512.548 413.977 512.865C414.112 513.182 414.313 513.432 414.579 513.614C414.845 513.791 415.174 513.88 415.566 513.88C415.967 513.88 416.315 513.791 416.609 513.614C416.907 513.432 417.106 513.157 417.204 512.788H418.758C418.674 513.292 418.473 513.719 418.156 514.069C417.843 514.419 417.46 514.685 417.008 514.867C416.56 515.049 416.091 515.14 415.601 515.14ZM413.774 510.716H417.176C417.176 510.366 417.113 510.051 416.987 509.771C416.865 509.486 416.681 509.262 416.434 509.099C416.186 508.931 415.874 508.847 415.496 508.847C415.122 508.847 414.807 508.938 414.551 509.12C414.294 509.302 414.1 509.538 413.97 509.827C413.839 510.112 413.774 510.408 413.774 510.716ZM420.413 517.254V507.762H422.114L422.128 508.903C422.222 508.744 422.341 508.588 422.485 508.434C422.635 508.28 422.805 508.142 422.996 508.021C423.192 507.9 423.409 507.804 423.647 507.734C423.885 507.659 424.147 507.622 424.431 507.622C424.987 507.622 425.479 507.755 425.908 508.021C426.338 508.282 426.674 508.686 426.916 509.232C427.164 509.778 427.287 510.469 427.287 511.304C427.287 512.158 427.161 512.87 426.909 513.439C426.657 514.008 426.305 514.435 425.852 514.72C425.4 515 424.875 515.14 424.277 515.14C424.002 515.14 423.75 515.103 423.521 515.028C423.297 514.953 423.097 514.851 422.919 514.72C422.742 514.589 422.586 514.447 422.45 514.293C422.32 514.139 422.21 513.978 422.121 513.81V517.254H420.413ZM423.899 513.866C424.413 513.866 424.837 513.663 425.173 513.257C425.509 512.846 425.677 512.205 425.677 511.332C425.677 510.576 425.519 509.981 425.201 509.547C424.889 509.108 424.455 508.889 423.899 508.889C423.302 508.889 422.854 509.12 422.555 509.582C422.257 510.039 422.107 510.623 422.107 511.332C422.107 511.789 422.173 512.212 422.303 512.599C422.439 512.982 422.637 513.29 422.898 513.523C423.164 513.752 423.498 513.866 423.899 513.866ZM431.467 515.056C430.893 515.056 430.447 514.981 430.13 514.832C429.817 514.678 429.6 514.461 429.479 514.181C429.357 513.901 429.297 513.567 429.297 513.18V508.966H428.121V507.762H429.346L429.773 505.613H430.998V507.755H432.615V508.966H430.998L431.005 513.117C431.005 513.332 431.028 513.49 431.075 513.593C431.126 513.691 431.205 513.756 431.313 513.789C431.425 513.817 431.572 513.831 431.754 513.831H432.65V514.909C432.552 514.946 432.407 514.979 432.216 515.007C432.029 515.04 431.779 515.056 431.467 515.056ZM434.481 515V504.878H436.147L441.103 512.109V504.878H442.804V515H441.271L436.182 507.573V515H434.481ZM447.061 515.14C446.599 515.14 446.184 515.056 445.815 514.888C445.451 514.715 445.164 514.47 444.954 514.153C444.749 513.831 444.646 513.441 444.646 512.984C444.646 512.186 444.933 511.584 445.507 511.178C446.086 510.772 447.005 510.56 448.265 510.541L449.35 510.513V510.023C449.35 509.64 449.236 509.342 449.007 509.127C448.783 508.908 448.433 508.8 447.957 508.805C447.602 508.81 447.28 508.894 446.991 509.057C446.702 509.216 446.51 509.484 446.417 509.862H444.968C444.996 509.367 445.138 508.954 445.395 508.623C445.656 508.287 446.013 508.037 446.466 507.874C446.919 507.706 447.441 507.622 448.034 507.622C448.725 507.622 449.287 507.713 449.721 507.895C450.155 508.077 450.475 508.341 450.68 508.686C450.885 509.027 450.988 509.44 450.988 509.925V515H449.553L449.413 513.698C449.156 514.244 448.827 514.622 448.426 514.832C448.029 515.037 447.574 515.14 447.061 515.14ZM447.614 513.985C447.824 513.985 448.032 513.948 448.237 513.873C448.442 513.794 448.627 513.689 448.79 513.558C448.958 513.423 449.091 513.273 449.189 513.11C449.292 512.947 449.345 512.776 449.35 512.599V511.458L448.461 511.472C448.022 511.477 447.637 511.523 447.306 511.612C446.979 511.701 446.725 511.843 446.543 512.039C446.361 512.23 446.27 512.487 446.27 512.809C446.27 513.178 446.398 513.467 446.655 513.677C446.912 513.882 447.231 513.985 447.614 513.985ZM452.802 515V507.762H454.461V508.798C454.671 508.481 454.956 508.205 455.315 507.972C455.679 507.739 456.141 507.622 456.701 507.622C456.958 507.622 457.217 507.666 457.478 507.755C457.744 507.844 457.989 507.974 458.213 508.147C458.442 508.32 458.624 508.534 458.759 508.791C458.988 508.45 459.291 508.17 459.669 507.951C460.052 507.732 460.481 507.622 460.957 507.622C461.218 507.622 461.487 507.664 461.762 507.748C462.042 507.832 462.299 507.972 462.532 508.168C462.765 508.364 462.954 508.632 463.099 508.973C463.244 509.309 463.316 509.731 463.316 510.24V515H461.615V510.443C461.615 510.084 461.552 509.801 461.426 509.596C461.3 509.391 461.137 509.246 460.936 509.162C460.74 509.073 460.53 509.029 460.306 509.029C460.105 509.029 459.895 509.069 459.676 509.148C459.461 509.227 459.277 509.358 459.123 509.54C458.974 509.722 458.899 509.967 458.899 510.275V515H457.198V510.17C457.198 509.918 457.133 509.708 457.002 509.54C456.871 509.372 456.706 509.246 456.505 509.162C456.309 509.073 456.108 509.029 455.903 509.029C455.693 509.029 455.478 509.073 455.259 509.162C455.044 509.251 454.865 509.386 454.72 509.568C454.575 509.75 454.503 509.986 454.503 510.275V515H452.802ZM468.347 515.14C467.651 515.14 467.038 514.993 466.506 514.699C465.978 514.4 465.565 513.976 465.267 513.425C464.973 512.874 464.826 512.219 464.826 511.458C464.826 510.716 464.959 510.058 465.225 509.484C465.495 508.905 465.885 508.45 466.394 508.119C466.907 507.788 467.525 507.622 468.249 507.622C468.963 507.622 469.562 507.774 470.048 508.077C470.533 508.38 470.902 508.805 471.154 509.351C471.406 509.892 471.532 510.527 471.532 511.255V511.773H466.527C466.522 512.184 466.587 512.548 466.723 512.865C466.858 513.182 467.059 513.432 467.325 513.614C467.591 513.791 467.92 513.88 468.312 513.88C468.713 513.88 469.061 513.791 469.355 513.614C469.653 513.432 469.852 513.157 469.95 512.788H471.504C471.42 513.292 471.219 513.719 470.902 514.069C470.589 514.419 470.206 514.685 469.754 514.867C469.306 515.049 468.837 515.14 468.347 515.14ZM466.52 510.716H469.922C469.922 510.366 469.859 510.051 469.733 509.771C469.611 509.486 469.427 509.262 469.18 509.099C468.932 508.931 468.62 508.847 468.242 508.847C467.868 508.847 467.553 508.938 467.297 509.12C467.04 509.302 466.846 509.538 466.716 509.827C466.585 510.112 466.52 510.408 466.52 510.716ZM472.921 509.932V507.986H474.846V509.932H472.921ZM472.921 514.958V513.026H474.846V514.958H472.921ZM479.579 508.525L480.37 506.698L479.712 506.649V504.878H481.574V506.432L480.265 508.525H479.579ZM481.269 515L484.902 504.878H486.75L490.383 515H488.675L487.772 512.459H483.894L482.984 515H481.269ZM484.3 510.947H487.345L485.826 506.53L484.3 510.947ZM496.182 515L496.189 512.599H491.478V511.15L496.14 504.878H497.834V511.15H499.451V512.599H497.834V515H496.182ZM493.074 511.15H496.175V506.992L493.074 511.15ZM500.691 515V514.09V513.621C500.691 513.103 500.787 512.657 500.978 512.284C501.17 511.906 501.424 511.577 501.741 511.297C502.059 511.017 502.406 510.77 502.784 510.555C503.167 510.336 503.545 510.13 503.918 509.939C504.296 509.743 504.644 509.542 504.961 509.337C505.279 509.127 505.533 508.894 505.724 508.637C505.92 508.38 506.018 508.075 506.018 507.72C506.018 507.267 505.857 506.899 505.535 506.614C505.218 506.325 504.786 506.18 504.24 506.18C503.662 506.18 503.183 506.346 502.805 506.677C502.432 507.008 502.21 507.475 502.14 508.077H500.488C500.498 507.461 500.645 506.901 500.929 506.397C501.214 505.893 501.636 505.492 502.196 505.193C502.756 504.89 503.454 504.738 504.289 504.738C505.013 504.738 505.636 504.864 506.158 505.116C506.686 505.363 507.092 505.711 507.376 506.159C507.666 506.602 507.81 507.12 507.81 507.713C507.81 508.231 507.715 508.674 507.523 509.043C507.337 509.412 507.087 509.731 506.774 510.002C506.466 510.268 506.126 510.504 505.752 510.709C505.384 510.914 505.013 511.108 504.639 511.29C504.271 511.467 503.93 511.654 503.617 511.85C503.309 512.041 503.06 512.261 502.868 512.508C502.682 512.755 502.588 513.052 502.588 513.397V513.544H507.831V515H500.691ZM509.206 508.525L509.997 506.698L509.339 506.649V504.878H511.201V506.432L509.892 508.525H509.206Z" fill="black"/>
<path d="M0 246C0 210.654 28.6538 182 64 182V182C99.3462 182 128 210.654 128 246V246C128 281.346 99.3462 310 64 310V310C28.6538 310 0 281.346 0 246V246Z" fill="#C990C0"/>
<path d="M42.7237 251V240.878H46.1467C46.8701 240.878 47.5141 240.999 48.0787 241.242C48.6434 241.485 49.0867 241.844 49.4087 242.32C49.7354 242.796 49.8987 243.382 49.8987 244.077C49.8987 244.749 49.7471 245.323 49.4437 245.799C49.1451 246.275 48.7274 246.637 48.1907 246.884C47.6541 247.131 47.0311 247.255 46.3217 247.255H44.0537V251H42.7237ZM44.0467 246.163H46.2937C46.9891 246.163 47.5537 245.969 47.9877 245.582C48.4217 245.195 48.6387 244.667 48.6387 244C48.6387 243.328 48.4147 242.819 47.9667 242.474C47.5187 242.129 46.9401 241.956 46.2307 241.956H44.0467V246.163ZM54.3077 251.14C53.6357 251.14 53.0431 250.993 52.5297 250.699C52.0164 250.405 51.6151 249.983 51.3257 249.432C51.0364 248.881 50.8917 248.221 50.8917 247.451C50.8917 246.69 51.0224 246.023 51.2837 245.449C51.5451 244.875 51.9231 244.427 52.4177 244.105C52.9171 243.783 53.5167 243.622 54.2167 243.622C54.8981 243.622 55.4744 243.769 55.9457 244.063C56.4171 244.357 56.7741 244.772 57.0167 245.309C57.2641 245.841 57.3877 246.473 57.3877 247.206V247.682H52.2007C52.2007 248.139 52.2754 248.555 52.4247 248.928C52.5787 249.297 52.8097 249.591 53.1177 249.81C53.4257 250.029 53.8154 250.139 54.2867 250.139C54.7487 250.139 55.1454 250.032 55.4767 249.817C55.8127 249.602 56.0274 249.292 56.1207 248.886H57.3387C57.2547 249.376 57.0587 249.789 56.7507 250.125C56.4474 250.461 56.0811 250.715 55.6517 250.888C55.2271 251.056 54.7791 251.14 54.3077 251.14ZM52.2077 246.807H56.1417C56.1417 246.392 56.0717 246.018 55.9317 245.687C55.7917 245.351 55.5771 245.087 55.2877 244.896C55.0031 244.7 54.6437 244.602 54.2097 244.602C53.7571 244.602 53.3814 244.712 53.0827 244.931C52.7841 245.146 52.5624 245.423 52.4177 245.764C52.2731 246.1 52.2031 246.448 52.2077 246.807ZM59.1784 251V243.762H60.4104V245.155C60.5318 244.81 60.7021 244.525 60.9214 244.301C61.1408 244.072 61.3904 243.902 61.6704 243.79C61.9551 243.678 62.2491 243.622 62.5524 243.622C62.6598 243.622 62.7648 243.629 62.8674 243.643C62.9701 243.657 63.0494 243.68 63.1054 243.713V244.966C63.0354 244.933 62.9444 244.912 62.8324 244.903C62.7251 244.889 62.6341 244.882 62.5594 244.882C62.2701 244.863 61.9994 244.882 61.7474 244.938C61.4954 244.989 61.2738 245.08 61.0824 245.211C60.8911 245.342 60.7394 245.514 60.6274 245.729C60.5201 245.939 60.4664 246.196 60.4664 246.499V251H59.1784ZM67.2102 251.14C66.7062 251.14 66.2372 251.063 65.8032 250.909C65.3738 250.75 65.0168 250.505 64.7322 250.174C64.4475 249.838 64.2702 249.411 64.2002 248.893H65.3762C65.4368 249.178 65.5535 249.416 65.7262 249.607C65.8988 249.794 66.1112 249.936 66.3632 250.034C66.6198 250.127 66.8998 250.174 67.2032 250.174C67.6932 250.174 68.0875 250.083 68.3862 249.901C68.6848 249.719 68.8342 249.439 68.8342 249.061C68.8342 248.795 68.7548 248.583 68.5962 248.424C68.4422 248.261 68.1995 248.142 67.8682 248.067L66.3702 247.696C65.7868 247.556 65.3202 247.337 64.9702 247.038C64.6248 246.739 64.4498 246.322 64.4452 245.785C64.4452 245.36 64.5478 244.987 64.7532 244.665C64.9585 244.343 65.2642 244.089 65.6702 243.902C66.0808 243.715 66.5918 243.622 67.2032 243.622C67.9918 243.622 68.6265 243.799 69.1072 244.154C69.5878 244.504 69.8398 245.02 69.8632 245.701H68.7152C68.6685 245.356 68.5145 245.083 68.2532 244.882C67.9918 244.677 67.6372 244.574 67.1892 244.574C66.7318 244.574 66.3562 244.667 66.0622 244.854C65.7728 245.036 65.6282 245.321 65.6282 245.708C65.6282 245.965 65.7308 246.168 65.9362 246.317C66.1462 246.462 66.4495 246.583 66.8462 246.681L68.3022 247.045C68.6335 247.134 68.9088 247.25 69.1282 247.395C69.3475 247.54 69.5202 247.701 69.6462 247.878C69.7722 248.055 69.8608 248.242 69.9122 248.438C69.9682 248.629 69.9962 248.814 69.9962 248.991C69.9962 249.434 69.8865 249.817 69.6672 250.139C69.4478 250.456 69.1305 250.704 68.7152 250.881C68.2998 251.054 67.7982 251.14 67.2102 251.14ZM74.5862 251.14C73.9189 251.14 73.3355 250.998 72.8362 250.713C72.3415 250.424 71.9565 250.001 71.6812 249.446C71.4059 248.891 71.2682 248.212 71.2682 247.409C71.2682 246.653 71.3965 245.99 71.6532 245.421C71.9099 244.852 72.2855 244.411 72.7802 244.098C73.2749 243.781 73.8792 243.622 74.5932 243.622C75.2605 243.622 75.8392 243.769 76.3292 244.063C76.8192 244.352 77.1995 244.779 77.4702 245.344C77.7455 245.909 77.8832 246.597 77.8832 247.409C77.8832 248.146 77.7572 248.795 77.5052 249.355C77.2532 249.915 76.8822 250.354 76.3922 250.671C75.9069 250.984 75.3049 251.14 74.5862 251.14ZM74.5932 250.118C75.0225 250.118 75.3865 250.008 75.6852 249.789C75.9839 249.57 76.2102 249.255 76.3642 248.844C76.5229 248.433 76.6022 247.946 76.6022 247.381C76.6022 246.863 76.5322 246.399 76.3922 245.988C76.2569 245.573 76.0422 245.244 75.7482 245.001C75.4542 244.758 75.0692 244.637 74.5932 244.637C74.1545 244.637 73.7835 244.747 73.4802 244.966C73.1769 245.181 72.9459 245.493 72.7872 245.904C72.6332 246.315 72.5562 246.807 72.5562 247.381C72.5562 247.89 72.6239 248.352 72.7592 248.767C72.8992 249.182 73.1185 249.511 73.4172 249.754C73.7205 249.997 74.1125 250.118 74.5932 250.118ZM79.6042 251V243.762H80.8572V244.812C80.9739 244.611 81.1349 244.422 81.3402 244.245C81.5502 244.068 81.8022 243.925 82.0962 243.818C82.3949 243.711 82.7379 243.657 83.1252 243.657C83.5825 243.657 84.0025 243.748 84.3852 243.93C84.7725 244.112 85.0805 244.397 85.3092 244.784C85.5425 245.167 85.6592 245.661 85.6592 246.268V251H84.3642V246.394C84.3642 245.829 84.2149 245.412 83.9162 245.141C83.6222 244.866 83.2395 244.728 82.7682 244.728C82.4415 244.728 82.1359 244.782 81.8512 244.889C81.5665 244.992 81.3355 245.15 81.1582 245.365C80.9809 245.575 80.8922 245.841 80.8922 246.163V251H79.6042Z" fill="white"/>
<path d="M391.2 250.029C391.594 249.642 391.601 249.009 391.214 248.615L384.915 242.187C384.529 241.792 383.896 241.786 383.501 242.172C383.107 242.559 383.1 243.192 383.487 243.586L389.086 249.3L383.372 254.899C382.978 255.286 382.971 255.919 383.358 256.314C383.744 256.708 384.377 256.715 384.772 256.328L391.2 250.029ZM309.121 247.488C308.569 247.483 308.117 247.926 308.111 248.478C308.106 249.031 308.549 249.483 309.101 249.488L309.121 247.488ZM206.967 248.451C207.519 248.457 207.971 248.014 207.977 247.462C207.982 246.909 207.539 246.457 206.987 246.452L206.967 248.451ZM131.51 245.685C130.958 245.68 130.505 246.123 130.5 246.675C130.494 247.227 130.937 247.68 131.49 247.685L131.51 245.685ZM390.5 249.315L390.51 248.315L309.121 247.488L309.111 248.488L309.101 249.488L390.49 250.315L390.5 249.315ZM206.977 247.452L206.987 246.452L205.987 246.441L205.977 247.441L205.967 248.441L206.967 248.451L206.977 247.452ZM205.977 247.441L205.987 246.441L131.51 245.685L131.5 246.685L131.49 247.685L205.967 248.441L205.977 247.441Z" fill="#1A1B1D"/>
<path d="M213.908 253.465V243.283H217.637C218.36 243.283 218.958 243.402 219.432 243.641C219.906 243.876 220.26 244.196 220.496 244.601C220.731 245.002 220.849 245.454 220.849 245.958C220.849 246.382 220.771 246.74 220.615 247.032C220.459 247.32 220.25 247.552 219.989 247.728C219.73 247.9 219.445 248.026 219.133 248.106V248.205C219.471 248.222 219.801 248.331 220.123 248.533C220.448 248.732 220.716 249.015 220.928 249.383C221.14 249.751 221.246 250.199 221.246 250.726C221.246 251.246 221.124 251.713 220.878 252.128C220.637 252.539 220.262 252.865 219.755 253.107C219.248 253.346 218.6 253.465 217.811 253.465H213.908ZM215.445 252.147H217.662C218.398 252.147 218.925 252.005 219.243 251.72C219.561 251.435 219.72 251.079 219.72 250.651C219.72 250.33 219.639 250.035 219.476 249.766C219.314 249.498 219.082 249.284 218.78 249.125C218.482 248.966 218.128 248.886 217.717 248.886H215.445V252.147ZM215.445 247.688H217.503C217.847 247.688 218.157 247.622 218.432 247.489C218.711 247.357 218.931 247.171 219.094 246.932C219.259 246.69 219.342 246.405 219.342 246.077C219.342 245.656 219.195 245.303 218.9 245.018C218.605 244.733 218.152 244.591 217.543 244.591H215.445V247.688ZM222.914 253.465V243.283H229.298V244.606H224.451V247.708H228.965V249.025H224.451V252.143H229.358V253.465H222.914ZM231.196 253.465V243.283H232.732V252.143H237.346V253.465H231.196ZM247.392 248.374C247.392 249.461 247.193 250.396 246.796 251.178C246.398 251.957 245.853 252.557 245.16 252.978C244.471 253.395 243.687 253.604 242.809 253.604C241.927 253.604 241.14 253.395 240.447 252.978C239.758 252.557 239.214 251.955 238.816 251.173C238.419 250.391 238.22 249.458 238.22 248.374C238.22 247.287 238.419 246.354 238.816 245.575C239.214 244.793 239.758 244.193 240.447 243.775C241.14 243.354 241.927 243.144 242.809 243.144C243.687 243.144 244.471 243.354 245.16 243.775C245.853 244.193 246.398 244.793 246.796 245.575C247.193 246.354 247.392 247.287 247.392 248.374ZM245.871 248.374C245.871 247.545 245.737 246.848 245.468 246.281C245.203 245.711 244.839 245.28 244.375 244.988C243.914 244.693 243.392 244.546 242.809 244.546C242.222 244.546 241.698 244.693 241.237 244.988C240.777 245.28 240.412 245.711 240.144 246.281C239.879 246.848 239.746 247.545 239.746 248.374C239.746 249.203 239.879 249.902 240.144 250.472C240.412 251.039 240.777 251.47 241.237 251.765C241.698 252.056 242.222 252.202 242.809 252.202C243.392 252.202 243.914 252.056 244.375 251.765C244.839 251.47 245.203 251.039 245.468 250.472C245.737 249.902 245.871 249.203 245.871 248.374ZM257.372 243.283V253.465H255.96L250.784 245.998H250.69V253.465H249.154V243.283H250.575L255.756 250.76H255.85V243.283H257.372ZM266.349 246.5C266.253 246.198 266.124 245.928 265.961 245.689C265.802 245.447 265.612 245.242 265.39 245.073C265.168 244.901 264.914 244.77 264.629 244.68C264.347 244.591 264.037 244.546 263.699 244.546C263.126 244.546 262.609 244.693 262.148 244.988C261.688 245.283 261.323 245.716 261.054 246.286C260.789 246.853 260.657 247.547 260.657 248.369C260.657 249.194 260.791 249.892 261.059 250.462C261.328 251.032 261.696 251.465 262.163 251.76C262.63 252.055 263.162 252.202 263.759 252.202C264.313 252.202 264.795 252.089 265.206 251.864C265.62 251.639 265.94 251.321 266.165 250.91C266.394 250.495 266.508 250.008 266.508 249.448L266.906 249.522H263.993V248.255H267.995V249.413C267.995 250.268 267.813 251.011 267.448 251.64C267.087 252.267 266.586 252.751 265.947 253.092C265.31 253.433 264.581 253.604 263.759 253.604C262.838 253.604 262.029 253.392 261.333 252.968C260.64 252.544 260.1 251.942 259.712 251.163C259.324 250.381 259.13 249.453 259.13 248.379C259.13 247.567 259.243 246.838 259.469 246.192C259.694 245.545 260.01 244.997 260.418 244.546C260.829 244.092 261.311 243.746 261.865 243.507C262.422 243.265 263.03 243.144 263.689 243.144C264.24 243.144 264.752 243.225 265.226 243.388C265.703 243.55 266.127 243.78 266.498 244.079C266.873 244.377 267.183 244.732 267.428 245.143C267.673 245.55 267.839 246.003 267.925 246.5H266.349ZM275.344 245.958C275.291 245.487 275.072 245.123 274.688 244.864C274.303 244.602 273.82 244.471 273.236 244.471C272.819 244.471 272.457 244.538 272.152 244.67C271.848 244.799 271.611 244.978 271.441 245.207C271.276 245.433 271.193 245.689 271.193 245.978C271.193 246.22 271.249 246.429 271.362 246.604C271.478 246.78 271.629 246.927 271.814 247.047C272.003 247.163 272.205 247.26 272.421 247.34C272.636 247.416 272.843 247.479 273.042 247.529L274.037 247.787C274.361 247.867 274.695 247.975 275.036 248.111C275.377 248.246 275.694 248.425 275.986 248.647C276.277 248.87 276.513 249.145 276.691 249.473C276.874 249.801 276.965 250.194 276.965 250.651C276.965 251.228 276.816 251.74 276.517 252.187C276.223 252.635 275.793 252.988 275.23 253.246C274.67 253.505 273.992 253.634 273.196 253.634C272.434 253.634 271.775 253.513 271.218 253.271C270.661 253.029 270.225 252.686 269.91 252.242C269.595 251.795 269.421 251.264 269.388 250.651H270.929C270.959 251.019 271.079 251.326 271.287 251.571C271.499 251.813 271.77 251.993 272.098 252.113C272.429 252.229 272.792 252.287 273.187 252.287C273.621 252.287 274.007 252.219 274.345 252.083C274.686 251.944 274.955 251.751 275.15 251.506C275.346 251.258 275.444 250.968 275.444 250.636C275.444 250.335 275.357 250.088 275.185 249.895C275.016 249.703 274.786 249.544 274.494 249.418C274.206 249.292 273.879 249.181 273.515 249.085L272.312 248.757C271.496 248.535 270.85 248.208 270.373 247.777C269.899 247.347 269.662 246.777 269.662 246.067C269.662 245.481 269.821 244.969 270.139 244.531C270.457 244.094 270.888 243.754 271.432 243.512C271.975 243.267 272.588 243.144 273.271 243.144C273.96 243.144 274.569 243.265 275.096 243.507C275.626 243.749 276.044 244.082 276.348 244.506C276.653 244.927 276.812 245.411 276.826 245.958H275.344ZM283.981 253.465V254.728H277.513V253.465H283.981ZM283.637 244.606V243.283H291.517V244.606H288.34V253.465H286.809V244.606H283.637ZM301.511 248.374C301.511 249.461 301.312 250.396 300.915 251.178C300.517 251.957 299.972 252.557 299.279 252.978C298.59 253.395 297.806 253.604 296.927 253.604C296.046 253.604 295.259 253.395 294.566 252.978C293.877 252.557 293.333 251.955 292.935 251.173C292.538 250.391 292.339 249.458 292.339 248.374C292.339 247.287 292.538 246.354 292.935 245.575C293.333 244.793 293.877 244.193 294.566 243.775C295.259 243.354 296.046 243.144 296.927 243.144C297.806 243.144 298.59 243.354 299.279 243.775C299.972 244.193 300.517 244.793 300.915 245.575C301.312 246.354 301.511 247.287 301.511 248.374ZM299.99 248.374C299.99 247.545 299.856 246.848 299.587 246.281C299.322 245.711 298.958 245.28 298.494 244.988C298.033 244.693 297.511 244.546 296.927 244.546C296.341 244.546 295.817 244.693 295.356 244.988C294.896 245.28 294.531 245.711 294.263 246.281C293.998 246.848 293.865 247.545 293.865 248.374C293.865 249.203 293.998 249.902 294.263 250.472C294.531 251.039 294.896 251.47 295.356 251.765C295.817 252.056 296.341 252.202 296.927 252.202C297.511 252.202 298.033 252.056 298.494 251.765C298.958 251.47 299.322 251.039 299.587 250.472C299.856 249.902 299.99 249.203 299.99 248.374Z" fill="black" fill-opacity="0.8"/>
<path d="M391.175 402.897C391.696 402.713 391.968 402.142 391.784 401.621L388.781 393.137C388.597 392.616 388.025 392.344 387.505 392.528C386.984 392.712 386.711 393.284 386.896 393.804L389.565 401.346L382.023 404.015C381.503 404.199 381.23 404.771 381.414 405.291C381.599 405.812 382.17 406.085 382.691 405.9L391.175 402.897ZM310.005 363.383L309.574 364.285L309.574 364.285L310.005 363.383ZM293.729 354.509C293.231 354.271 292.634 354.482 292.396 354.981C292.158 355.479 292.369 356.076 292.868 356.314L293.729 354.509ZM221.35 322.189C221.849 322.427 222.446 322.215 222.684 321.717C222.921 321.219 222.71 320.622 222.212 320.384L221.35 322.189ZM206.88 314.176L206.449 315.079L206.449 315.079L206.88 314.176ZM131.59 277.143C131.091 276.905 130.494 277.116 130.256 277.615C130.019 278.113 130.23 278.71 130.728 278.948L131.59 277.143ZM390.841 401.955L391.272 401.052L310.435 362.48L310.005 363.383L309.574 364.285L390.411 402.857L390.841 401.955ZM310.005 363.383L310.435 362.48L309.533 362.05L309.102 362.952L308.672 363.855L309.574 364.285L310.005 363.383ZM309.102 362.952L309.533 362.05L293.729 354.509L293.298 355.411L292.868 356.314L308.672 363.855L309.102 362.952ZM221.781 321.286L222.212 320.384L207.31 313.274L206.88 314.176L206.449 315.079L221.35 322.189L221.781 321.286ZM206.88 314.176L207.31 313.274L206.408 312.843L205.977 313.745L205.547 314.648L206.449 315.079L206.88 314.176ZM205.977 313.745L206.408 312.843L131.59 277.143L131.159 278.045L130.728 278.948L205.547 314.648L205.977 313.745Z" fill="#1A1B1D"/>
<path d="M213.899 343.849V333.667H217.628C218.35 333.667 218.948 333.786 219.422 334.025C219.896 334.26 220.251 334.58 220.486 334.985C220.722 335.386 220.839 335.838 220.839 336.342C220.839 336.766 220.761 337.124 220.606 337.416C220.45 337.704 220.241 337.936 219.979 338.112C219.721 338.284 219.436 338.41 219.124 338.49V338.589C219.462 338.606 219.792 338.715 220.113 338.917C220.438 339.116 220.707 339.399 220.919 339.767C221.131 340.135 221.237 340.583 221.237 341.11C221.237 341.63 221.114 342.097 220.869 342.512C220.627 342.923 220.253 343.249 219.746 343.491C219.239 343.73 218.591 343.849 217.802 343.849H213.899ZM215.435 342.531H217.653C218.388 342.531 218.915 342.389 219.234 342.104C219.552 341.819 219.711 341.463 219.711 341.035C219.711 340.713 219.63 340.418 219.467 340.15C219.305 339.882 219.073 339.668 218.771 339.509C218.473 339.35 218.118 339.27 217.707 339.27H215.435V342.531ZM215.435 338.072H217.493C217.838 338.072 218.148 338.006 218.423 337.873C218.702 337.74 218.922 337.555 219.084 337.316C219.25 337.074 219.333 336.789 219.333 336.461C219.333 336.04 219.185 335.687 218.89 335.402C218.596 335.117 218.143 334.975 217.533 334.975H215.435V338.072ZM222.905 343.849V333.667H229.289V334.99H224.441V338.092H228.956V339.409H224.441V342.526H229.348V343.849H222.905ZM231.187 343.849V333.667H232.723V342.526H237.337V343.849H231.187ZM247.383 338.758C247.383 339.845 247.184 340.78 246.786 341.562C246.389 342.341 245.843 342.941 245.151 343.362C244.461 343.779 243.678 343.988 242.799 343.988C241.918 343.988 241.13 343.779 240.438 343.362C239.748 342.941 239.205 342.339 238.807 341.557C238.409 340.775 238.21 339.842 238.21 338.758C238.21 337.671 238.409 336.738 238.807 335.959C239.205 335.177 239.748 334.577 240.438 334.159C241.13 333.738 241.918 333.528 242.799 333.528C243.678 333.528 244.461 333.738 245.151 334.159C245.843 334.577 246.389 335.177 246.786 335.959C247.184 336.738 247.383 337.671 247.383 338.758ZM245.862 338.758C245.862 337.929 245.727 337.232 245.459 336.665C245.194 336.095 244.829 335.664 244.365 335.372C243.905 335.077 243.383 334.93 242.799 334.93C242.213 334.93 241.689 335.077 241.228 335.372C240.768 335.664 240.403 336.095 240.134 336.665C239.869 337.232 239.737 337.929 239.737 338.758C239.737 339.587 239.869 340.286 240.134 340.856C240.403 341.423 240.768 341.854 241.228 342.149C241.689 342.44 242.213 342.586 242.799 342.586C243.383 342.586 243.905 342.44 244.365 342.149C244.829 341.854 245.194 341.423 245.459 340.856C245.727 340.286 245.862 339.587 245.862 338.758ZM257.362 333.667V343.849H255.95L250.775 336.382H250.681V343.849H249.144V333.667H250.566L255.747 341.144H255.841V333.667H257.362ZM266.34 336.884C266.244 336.582 266.115 336.312 265.952 336.073C265.793 335.831 265.602 335.626 265.38 335.457C265.158 335.284 264.905 335.154 264.62 335.064C264.338 334.975 264.028 334.93 263.69 334.93C263.117 334.93 262.6 335.077 262.139 335.372C261.678 335.667 261.314 336.1 261.045 336.67C260.78 337.237 260.647 337.931 260.647 338.753C260.647 339.578 260.782 340.276 261.05 340.846C261.319 341.416 261.687 341.849 262.154 342.144C262.621 342.439 263.153 342.586 263.75 342.586C264.303 342.586 264.785 342.473 265.196 342.248C265.611 342.023 265.931 341.704 266.156 341.293C266.385 340.879 266.499 340.392 266.499 339.832L266.897 339.906H263.983V338.639H267.986V339.797C267.986 340.652 267.803 341.395 267.439 342.024C267.077 342.651 266.577 343.135 265.937 343.476C265.301 343.817 264.572 343.988 263.75 343.988C262.828 343.988 262.02 343.776 261.324 343.352C260.631 342.927 260.091 342.326 259.703 341.547C259.315 340.765 259.121 339.837 259.121 338.763C259.121 337.951 259.234 337.222 259.459 336.575C259.685 335.929 260.001 335.381 260.409 334.93C260.82 334.476 261.302 334.129 261.856 333.891C262.412 333.649 263.021 333.528 263.68 333.528C264.23 333.528 264.742 333.609 265.216 333.771C265.694 333.934 266.118 334.164 266.489 334.463C266.864 334.761 267.174 335.115 267.419 335.526C267.664 335.934 267.83 336.387 267.916 336.884H266.34ZM275.335 336.342C275.282 335.871 275.063 335.507 274.679 335.248C274.294 334.986 273.81 334.855 273.227 334.855C272.809 334.855 272.448 334.922 272.143 335.054C271.838 335.183 271.601 335.362 271.432 335.591C271.267 335.816 271.184 336.073 271.184 336.362C271.184 336.604 271.24 336.812 271.353 336.988C271.469 337.164 271.619 337.311 271.805 337.431C271.994 337.547 272.196 337.644 272.412 337.724C272.627 337.8 272.834 337.863 273.033 337.913L274.027 338.171C274.352 338.251 274.685 338.359 275.027 338.494C275.368 338.63 275.685 338.809 275.976 339.031C276.268 339.253 276.503 339.529 276.682 339.857C276.865 340.185 276.956 340.578 276.956 341.035C276.956 341.612 276.807 342.124 276.508 342.571C276.213 343.019 275.784 343.372 275.221 343.63C274.66 343.889 273.983 344.018 273.187 344.018C272.425 344.018 271.765 343.897 271.208 343.655C270.652 343.413 270.216 343.07 269.901 342.626C269.586 342.178 269.412 341.648 269.379 341.035H270.92C270.95 341.403 271.069 341.709 271.278 341.955C271.49 342.197 271.76 342.377 272.088 342.497C272.42 342.613 272.783 342.671 273.177 342.671C273.611 342.671 273.998 342.603 274.336 342.467C274.677 342.328 274.945 342.135 275.141 341.89C275.337 341.641 275.434 341.351 275.434 341.02C275.434 340.718 275.348 340.472 275.176 340.279C275.007 340.087 274.776 339.928 274.485 339.802C274.196 339.676 273.87 339.565 273.505 339.469L272.302 339.141C271.487 338.919 270.841 338.592 270.363 338.161C269.889 337.731 269.652 337.16 269.652 336.451C269.652 335.865 269.811 335.352 270.13 334.915C270.448 334.477 270.879 334.138 271.422 333.896C271.966 333.65 272.579 333.528 273.262 333.528C273.951 333.528 274.559 333.649 275.086 333.891C275.617 334.133 276.034 334.466 276.339 334.89C276.644 335.311 276.803 335.795 276.816 336.342H275.335ZM283.972 343.849V345.112H277.504V343.849H283.972ZM283.628 334.99V333.667H291.508V334.99H288.331V343.849H286.8V334.99H283.628ZM301.502 338.758C301.502 339.845 301.303 340.78 300.905 341.562C300.508 342.341 299.962 342.941 299.27 343.362C298.58 343.779 297.797 343.988 296.918 343.988C296.037 343.988 295.249 343.779 294.557 343.362C293.867 342.941 293.324 342.339 292.926 341.557C292.528 340.775 292.329 339.842 292.329 338.758C292.329 337.671 292.528 336.738 292.926 335.959C293.324 335.177 293.867 334.577 294.557 334.159C295.249 333.738 296.037 333.528 296.918 333.528C297.797 333.528 298.58 333.738 299.27 334.159C299.962 334.577 300.508 335.177 300.905 335.959C301.303 336.738 301.502 337.671 301.502 338.758ZM299.981 338.758C299.981 337.929 299.846 337.232 299.578 336.665C299.313 336.095 298.948 335.664 298.484 335.372C298.024 335.077 297.502 334.93 296.918 334.93C296.332 334.93 295.808 335.077 295.347 335.372C294.886 335.664 294.522 336.095 294.253 336.665C293.988 337.232 293.856 337.929 293.856 338.758C293.856 339.587 293.988 340.286 294.253 340.856C294.522 341.423 294.886 341.854 295.347 342.149C295.808 342.44 296.332 342.586 296.918 342.586C297.502 342.586 298.024 342.44 298.484 342.149C298.948 341.854 299.313 341.423 299.578 340.856C299.846 340.286 299.981 339.587 299.981 338.758Z" fill="black" fill-opacity="0.8"/>
<path d="M391.761 95.3766C391.952 94.8583 391.686 94.2835 391.168 94.0927L382.722 90.9841C382.204 90.7933 381.629 91.0589 381.438 91.5772C381.247 92.0955 381.513 92.6703 382.031 92.861L389.539 95.6242L386.776 103.132C386.585 103.65 386.85 104.225 387.369 104.416C387.887 104.606 388.462 104.341 388.653 103.823L391.761 95.3766ZM294.058 138.628C293.557 138.86 293.338 139.454 293.57 139.955C293.801 140.456 294.396 140.675 294.897 140.444L294.058 138.628ZM221.022 174.569C221.523 174.337 221.742 173.743 221.511 173.241C221.279 172.74 220.685 172.521 220.183 172.753L221.022 174.569ZM206.885 179.997L206.466 179.09L206.466 179.09L206.885 179.997ZM130.758 214.061C130.257 214.293 130.038 214.887 130.27 215.388C130.501 215.89 131.095 216.108 131.597 215.877L130.758 214.061ZM309.102 132.521H310.102H309.102ZM308.867 132.889L309.286 133.797L308.867 132.889ZM309.726 132.179L310.265 131.337L309.726 132.179ZM309.102 132.521H310.102H309.102ZM310.236 132.257L309.816 131.349L310.236 132.257ZM309.801 132.227L310.339 131.385L309.801 132.227ZM390.823 95.0312L390.403 94.1234L309.816 131.349L310.236 132.257L310.655 133.165L391.242 95.939L390.823 95.0312ZM309.801 132.227L310.339 131.385L310.265 131.337L309.726 132.179L309.187 133.022L309.262 133.069L309.801 132.227ZM308.867 132.889L308.447 131.981L294.058 138.628L294.478 139.536L294.897 140.444L309.286 133.797L308.867 132.889ZM220.603 173.661L220.183 172.753L206.466 179.09L206.885 179.997L207.304 180.905L221.022 174.569L220.603 173.661ZM206.885 179.997L206.466 179.09L205.558 179.509L205.977 180.417L206.397 181.325L207.304 180.905L206.885 179.997ZM205.977 180.417L205.558 179.509L130.758 214.061L131.177 214.969L131.597 215.877L206.397 181.325L205.977 180.417ZM309.102 132.521H308.102C308.102 132.289 308.237 132.078 308.447 131.981L308.867 132.889L309.286 133.797C309.784 133.567 310.102 133.069 310.102 132.521H309.102ZM309.726 132.179L310.265 131.337C309.329 130.739 308.102 131.41 308.102 132.521H309.102H310.102C310.102 132.991 309.583 133.275 309.187 133.022L309.726 132.179ZM310.236 132.257L309.816 131.349C309.985 131.271 310.183 131.284 310.339 131.385L309.801 132.227L309.262 133.069C309.68 133.337 310.205 133.373 310.655 133.165L310.236 132.257Z" fill="#1A1B1D"/>
<path d="M213.899 162.098V151.916H217.628C218.351 151.916 218.949 152.036 219.423 152.274C219.897 152.51 220.252 152.83 220.487 153.234C220.722 153.635 220.84 154.087 220.84 154.591C220.84 155.015 220.762 155.373 220.606 155.665C220.45 155.953 220.242 156.185 219.98 156.361C219.721 156.533 219.436 156.659 219.125 156.739V156.838C219.463 156.855 219.792 156.964 220.114 157.166C220.439 157.365 220.707 157.649 220.919 158.017C221.132 158.384 221.238 158.832 221.238 159.359C221.238 159.879 221.115 160.347 220.87 160.761C220.628 161.172 220.253 161.498 219.746 161.74C219.239 161.979 218.591 162.098 217.802 162.098H213.899ZM215.436 160.781H217.653C218.389 160.781 218.916 160.638 219.234 160.353C219.552 160.068 219.711 159.712 219.711 159.284C219.711 158.963 219.63 158.668 219.468 158.399C219.305 158.131 219.073 157.917 218.772 157.758C218.473 157.599 218.119 157.519 217.708 157.519H215.436V160.781ZM215.436 156.321H217.494C217.839 156.321 218.149 156.255 218.424 156.122C218.702 155.99 218.922 155.804 219.085 155.566C219.251 155.324 219.333 155.039 219.333 154.71C219.333 154.29 219.186 153.937 218.891 153.652C218.596 153.366 218.144 153.224 217.534 153.224H215.436V156.321ZM222.906 162.098V151.916H229.289V153.239H224.442V156.341H228.956V157.659H224.442V160.776H229.349V162.098H222.906ZM231.187 162.098V151.916H232.723V160.776H237.337V162.098H231.187ZM247.384 157.007C247.384 158.094 247.185 159.029 246.787 159.811C246.389 160.59 245.844 161.19 245.151 161.611C244.462 162.029 243.678 162.237 242.8 162.237C241.918 162.237 241.131 162.029 240.438 161.611C239.749 161.19 239.205 160.589 238.808 159.806C238.41 159.024 238.211 158.091 238.211 157.007C238.211 155.92 238.41 154.987 238.808 154.208C239.205 153.426 239.749 152.826 240.438 152.409C241.131 151.988 241.918 151.777 242.8 151.777C243.678 151.777 244.462 151.988 245.151 152.409C245.844 152.826 246.389 153.426 246.787 154.208C247.185 154.987 247.384 155.92 247.384 157.007ZM245.862 157.007C245.862 156.179 245.728 155.481 245.46 154.914C245.194 154.344 244.83 153.913 244.366 153.622C243.905 153.327 243.383 153.179 242.8 153.179C242.213 153.179 241.689 153.327 241.229 153.622C240.768 153.913 240.403 154.344 240.135 154.914C239.87 155.481 239.737 156.179 239.737 157.007C239.737 157.836 239.87 158.535 240.135 159.105C240.403 159.672 240.768 160.103 241.229 160.398C241.689 160.69 242.213 160.835 242.8 160.835C243.383 160.835 243.905 160.69 244.366 160.398C244.83 160.103 245.194 159.672 245.46 159.105C245.728 158.535 245.862 157.836 245.862 157.007ZM257.363 151.916V162.098H255.951L250.776 154.631H250.681V162.098H249.145V151.916H250.567L255.747 159.394H255.842V151.916H257.363ZM266.34 155.133C266.244 154.831 266.115 154.561 265.953 154.323C265.794 154.081 265.603 153.875 265.381 153.706C265.159 153.534 264.905 153.403 264.62 153.313C264.339 153.224 264.029 153.179 263.691 153.179C263.117 153.179 262.6 153.327 262.139 153.622C261.679 153.917 261.314 154.349 261.046 154.919C260.781 155.486 260.648 156.18 260.648 157.002C260.648 157.828 260.782 158.525 261.051 159.095C261.319 159.665 261.687 160.098 262.154 160.393C262.622 160.688 263.154 160.835 263.75 160.835C264.304 160.835 264.786 160.723 265.197 160.497C265.611 160.272 265.931 159.954 266.156 159.543C266.385 159.129 266.5 158.641 266.5 158.081L266.897 158.156H263.984V156.888H267.986V158.046C267.986 158.902 267.804 159.644 267.439 160.274C267.078 160.9 266.577 161.384 265.938 161.725C265.301 162.067 264.572 162.237 263.75 162.237C262.829 162.237 262.02 162.025 261.324 161.601C260.631 161.177 260.091 160.575 259.703 159.796C259.316 159.014 259.122 158.086 259.122 157.012C259.122 156.2 259.234 155.471 259.46 154.825C259.685 154.178 260.002 153.63 260.409 153.179C260.82 152.725 261.303 152.379 261.856 152.14C262.413 151.898 263.021 151.777 263.681 151.777C264.231 151.777 264.743 151.858 265.217 152.021C265.694 152.183 266.118 152.414 266.49 152.712C266.864 153.01 267.174 153.365 267.419 153.776C267.665 154.183 267.83 154.636 267.916 155.133H266.34ZM275.335 154.591C275.282 154.12 275.064 153.756 274.679 153.497C274.295 153.236 273.811 153.105 273.227 153.105C272.81 153.105 272.449 153.171 272.144 153.303C271.839 153.433 271.602 153.612 271.433 153.84C271.267 154.066 271.184 154.323 271.184 154.611C271.184 154.853 271.24 155.062 271.353 155.237C271.469 155.413 271.62 155.561 271.806 155.68C271.994 155.796 272.197 155.894 272.412 155.973C272.628 156.049 272.835 156.112 273.034 156.162L274.028 156.421C274.353 156.5 274.686 156.608 275.027 156.744C275.369 156.88 275.685 157.059 275.977 157.281C276.268 157.503 276.504 157.778 276.683 158.106C276.865 158.434 276.956 158.827 276.956 159.284C276.956 159.861 276.807 160.373 276.509 160.821C276.214 161.268 275.785 161.621 275.221 161.879C274.661 162.138 273.983 162.267 273.188 162.267C272.425 162.267 271.766 162.146 271.209 161.904C270.652 161.662 270.216 161.319 269.901 160.875C269.587 160.428 269.413 159.897 269.379 159.284H270.921C270.95 159.652 271.07 159.959 271.279 160.204C271.491 160.446 271.761 160.627 272.089 160.746C272.42 160.862 272.783 160.92 273.178 160.92C273.612 160.92 273.998 160.852 274.336 160.716C274.678 160.577 274.946 160.385 275.142 160.139C275.337 159.891 275.435 159.601 275.435 159.269C275.435 158.968 275.349 158.721 275.176 158.529C275.007 158.336 274.777 158.177 274.485 158.051C274.197 157.925 273.87 157.814 273.506 157.718L272.303 157.39C271.487 157.168 270.841 156.842 270.364 156.411C269.89 155.98 269.653 155.41 269.653 154.701C269.653 154.114 269.812 153.602 270.13 153.164C270.448 152.727 270.879 152.387 271.423 152.145C271.966 151.9 272.579 151.777 273.262 151.777C273.952 151.777 274.56 151.898 275.087 152.14C275.617 152.382 276.035 152.715 276.34 153.139C276.645 153.56 276.804 154.044 276.817 154.591H275.335ZM283.972 162.098V163.361H277.504V162.098H283.972ZM283.628 153.239V151.916H291.508V153.239H288.331V162.098H286.8V153.239H283.628ZM301.502 157.007C301.502 158.094 301.304 159.029 300.906 159.811C300.508 160.59 299.963 161.19 299.27 161.611C298.581 162.029 297.797 162.237 296.919 162.237C296.037 162.237 295.25 162.029 294.557 161.611C293.868 161.19 293.324 160.589 292.926 159.806C292.529 159.024 292.33 158.091 292.33 157.007C292.33 155.92 292.529 154.987 292.926 154.208C293.324 153.426 293.868 152.826 294.557 152.409C295.25 151.988 296.037 151.777 296.919 151.777C297.797 151.777 298.581 151.988 299.27 152.409C299.963 152.826 300.508 153.426 300.906 154.208C301.304 154.987 301.502 155.92 301.502 157.007ZM299.981 157.007C299.981 156.179 299.847 155.481 299.578 154.914C299.313 154.344 298.949 153.913 298.485 153.622C298.024 153.327 297.502 153.179 296.919 153.179C296.332 153.179 295.808 153.327 295.348 153.622C294.887 153.913 294.522 154.344 294.254 154.914C293.989 155.481 293.856 156.179 293.856 157.007C293.856 157.836 293.989 158.535 294.254 159.105C294.522 159.672 294.887 160.103 295.348 160.398C295.808 160.69 296.332 160.835 296.919 160.835C297.502 160.835 298.024 160.69 298.485 160.398C298.949 160.103 299.313 159.672 299.578 159.105C299.847 158.535 299.981 157.836 299.981 157.007Z" fill="black" fill-opacity="0.8"/>
</svg>
