<svg width="290" height="128" viewBox="0 0 290 128" fill="none" xmlns="http://www.w3.org/2000/svg">
<path d="M162 64C162 28.6538 190.654 0 226 0C261.346 0 290 28.6538 290 64C290 99.3462 261.346 128 226 128C190.654 128 162 99.3462 162 64Z" fill="#56C7E4"/>
<path d="M182.616 69V58.878H188.923L188.916 60.012H183.946V63.358H188.412V64.478H183.946V69H182.616ZM193.356 69.14C192.688 69.14 192.105 68.9977 191.606 68.713C191.111 68.4237 190.726 68.0013 190.451 67.446C190.175 66.8907 190.038 66.2117 190.038 65.409C190.038 64.653 190.166 63.9903 190.423 63.421C190.679 62.8517 191.055 62.4107 191.55 62.098C192.044 61.7807 192.649 61.622 193.363 61.622C194.03 61.622 194.609 61.769 195.099 62.063C195.589 62.3523 195.969 62.7793 196.24 63.344C196.515 63.9087 196.653 64.597 196.653 65.409C196.653 66.1463 196.527 66.795 196.275 67.355C196.023 67.915 195.652 68.3537 195.162 68.671C194.676 68.9837 194.074 69.14 193.356 69.14ZM193.363 68.118C193.792 68.118 194.156 68.0083 194.455 67.789C194.753 67.5697 194.98 67.2547 195.134 66.844C195.292 66.4333 195.372 65.9457 195.372 65.381C195.372 64.863 195.302 64.3987 195.162 63.988C195.026 63.5727 194.812 63.2437 194.518 63.001C194.224 62.7583 193.839 62.637 193.363 62.637C192.924 62.637 192.553 62.7467 192.25 62.966C191.946 63.1807 191.715 63.4933 191.557 63.904C191.403 64.3147 191.326 64.807 191.326 65.381C191.326 65.8897 191.393 66.3517 191.529 66.767C191.669 67.1823 191.888 67.5113 192.187 67.754C192.49 67.9967 192.882 68.118 193.363 68.118ZM198.374 69V61.762H199.606V63.155C199.727 62.8097 199.897 62.525 200.117 62.301C200.336 62.0723 200.586 61.902 200.866 61.79C201.15 61.678 201.444 61.622 201.748 61.622C201.855 61.622 201.96 61.629 202.063 61.643C202.165 61.657 202.245 61.6803 202.301 61.713V62.966C202.231 62.9333 202.14 62.9123 202.028 62.903C201.92 62.889 201.829 62.882 201.755 62.882C201.465 62.8633 201.195 62.882 200.943 62.938C200.691 62.9893 200.469 63.0803 200.278 63.211C200.086 63.3417 199.935 63.5143 199.823 63.729C199.715 63.939 199.662 64.1957 199.662 64.499V69H198.374ZM203.842 69V61.762H205.074V63.155C205.196 62.8097 205.366 62.525 205.585 62.301C205.805 62.0723 206.054 61.902 206.334 61.79C206.619 61.678 206.913 61.622 207.216 61.622C207.324 61.622 207.429 61.629 207.531 61.643C207.634 61.657 207.713 61.6803 207.769 61.713V62.966C207.699 62.9333 207.608 62.9123 207.496 62.903C207.389 62.889 207.298 62.882 207.223 62.882C206.934 62.8633 206.663 62.882 206.411 62.938C206.159 62.9893 205.938 63.0803 205.746 63.211C205.555 63.3417 205.403 63.5143 205.291 63.729C205.184 63.939 205.13 64.1957 205.13 64.499V69H203.842ZM212.261 69.14C211.589 69.14 210.996 68.993 210.483 68.699C209.97 68.405 209.568 67.9827 209.279 67.432C208.99 66.8813 208.845 66.221 208.845 65.451C208.845 64.6903 208.976 64.023 209.237 63.449C209.498 62.875 209.876 62.427 210.371 62.105C210.87 61.783 211.47 61.622 212.17 61.622C212.851 61.622 213.428 61.769 213.899 62.063C214.37 62.357 214.727 62.7723 214.97 63.309C215.217 63.841 215.341 64.4733 215.341 65.206V65.682H210.154C210.154 66.1393 210.229 66.5547 210.378 66.928C210.532 67.2967 210.763 67.5907 211.071 67.81C211.379 68.0293 211.769 68.139 212.24 68.139C212.702 68.139 213.099 68.0317 213.43 67.817C213.766 67.6023 213.981 67.292 214.074 66.886H215.292C215.208 67.376 215.012 67.789 214.704 68.125C214.401 68.461 214.034 68.7153 213.605 68.888C213.18 69.056 212.732 69.14 212.261 69.14ZM210.161 64.807H214.095C214.095 64.3917 214.025 64.0183 213.885 63.687C213.745 63.351 213.53 63.0873 213.241 62.896C212.956 62.7 212.597 62.602 212.163 62.602C211.71 62.602 211.335 62.7117 211.036 62.931C210.737 63.1457 210.516 63.4233 210.371 63.764C210.226 64.1 210.156 64.4477 210.161 64.807ZM219.695 69.14C219.191 69.14 218.722 69.063 218.288 68.909C217.858 68.7503 217.501 68.5053 217.217 68.174C216.932 67.838 216.755 67.411 216.685 66.893H217.861C217.921 67.1777 218.038 67.4157 218.211 67.607C218.383 67.7937 218.596 67.936 218.848 68.034C219.104 68.1273 219.384 68.174 219.688 68.174C220.178 68.174 220.572 68.083 220.871 67.901C221.169 67.719 221.319 67.439 221.319 67.061C221.319 66.795 221.239 66.5827 221.081 66.424C220.927 66.2607 220.684 66.1417 220.353 66.067L218.855 65.696C218.271 65.556 217.805 65.3367 217.455 65.038C217.109 64.7393 216.934 64.3217 216.93 63.785C216.93 63.3603 217.032 62.987 217.238 62.665C217.443 62.343 217.749 62.0887 218.155 61.902C218.565 61.7153 219.076 61.622 219.688 61.622C220.476 61.622 221.111 61.7993 221.592 62.154C222.072 62.504 222.324 63.0197 222.348 63.701H221.2C221.153 63.3557 220.999 63.0827 220.738 62.882C220.476 62.6767 220.122 62.574 219.674 62.574C219.216 62.574 218.841 62.6673 218.547 62.854C218.257 63.036 218.113 63.3207 218.113 63.708C218.113 63.9647 218.215 64.1677 218.421 64.317C218.631 64.4617 218.934 64.583 219.331 64.681L220.787 65.045C221.118 65.1337 221.393 65.2503 221.613 65.395C221.832 65.5397 222.005 65.7007 222.131 65.878C222.257 66.0553 222.345 66.242 222.397 66.438C222.453 66.6293 222.481 66.8137 222.481 66.991C222.481 67.4343 222.371 67.817 222.152 68.139C221.932 68.4563 221.615 68.7037 221.2 68.881C220.784 69.0537 220.283 69.14 219.695 69.14ZM226.675 69.035C226.176 69.035 225.789 68.9673 225.513 68.832C225.238 68.6967 225.044 68.496 224.932 68.23C224.825 67.964 224.771 67.6373 224.771 67.25V62.707H223.595V61.762H224.806L225.121 59.655H226.073V61.755H227.704V62.707H226.073V67.208C226.073 67.4647 226.099 67.6537 226.15 67.775C226.206 67.8917 226.297 67.9663 226.423 67.999C226.549 68.0317 226.727 68.048 226.955 68.048H227.746V68.916C227.658 68.9487 227.522 68.9767 227.34 69C227.163 69.0233 226.941 69.035 226.675 69.035ZM236.851 69.14C235.964 69.14 235.199 68.937 234.555 68.531C233.911 68.1203 233.416 67.53 233.071 66.76C232.726 65.99 232.553 65.059 232.553 63.967C232.553 62.8657 232.728 61.9253 233.078 61.146C233.433 60.3667 233.937 59.7717 234.59 59.361C235.243 58.9457 236.016 58.738 236.907 58.738C237.416 58.738 237.894 58.8267 238.342 59.004C238.79 59.1813 239.187 59.424 239.532 59.732C239.877 60.0353 240.153 60.383 240.358 60.775C240.568 61.167 240.687 61.5753 240.715 62H239.329C239.264 61.6267 239.119 61.279 238.895 60.957C238.671 60.635 238.386 60.376 238.041 60.18C237.7 59.984 237.315 59.886 236.886 59.886C236.303 59.886 235.789 60.0307 235.346 60.32C234.907 60.6047 234.564 61.0457 234.317 61.643C234.074 62.2403 233.953 63.0057 233.953 63.939C233.953 64.6577 234.028 65.2737 234.177 65.787C234.326 66.3003 234.534 66.718 234.8 67.04C235.071 67.3573 235.386 67.593 235.745 67.747C236.109 67.8963 236.501 67.971 236.921 67.971C237.346 67.971 237.714 67.8963 238.027 67.747C238.344 67.5977 238.608 67.4063 238.818 67.173C239.028 66.935 239.189 66.6807 239.301 66.41C239.418 66.1347 239.481 65.871 239.49 65.619L239.532 64.723H237.068V63.771L240.876 63.778V69H239.903V67.46C239.726 67.7493 239.502 68.0223 239.231 68.279C238.96 68.5357 238.629 68.7433 238.237 68.902C237.85 69.0607 237.388 69.14 236.851 69.14ZM245.795 69.14C245.417 69.1353 245.06 69.0817 244.724 68.979C244.393 68.8717 244.099 68.7153 243.842 68.51C243.586 68.3047 243.383 68.0503 243.233 67.747C243.089 67.439 243.016 67.082 243.016 66.676V61.762H244.311V66.543C244.311 67.0143 244.456 67.397 244.745 67.691C245.039 67.985 245.48 68.132 246.068 68.132C246.6 68.132 247.027 67.9943 247.349 67.719C247.676 67.439 247.839 67.0237 247.839 66.473V61.762H249.127V69H248.098L247.965 67.614C247.877 67.978 247.725 68.272 247.51 68.496C247.3 68.72 247.046 68.8857 246.747 68.993C246.453 69.0957 246.136 69.1447 245.795 69.14ZM251.339 69V61.762H252.585V62.812C252.785 62.4947 253.061 62.217 253.411 61.979C253.761 61.741 254.216 61.622 254.776 61.622C255.037 61.622 255.303 61.6663 255.574 61.755C255.849 61.8437 256.101 61.9767 256.33 62.154C256.558 62.3313 256.736 62.5483 256.862 62.805C257.086 62.4503 257.389 62.1657 257.772 61.951C258.154 61.7317 258.586 61.622 259.067 61.622C259.319 61.622 259.582 61.6617 259.858 61.741C260.133 61.8157 260.387 61.951 260.621 62.147C260.859 62.3383 261.052 62.6067 261.202 62.952C261.351 63.2927 261.426 63.7313 261.426 64.268V69H260.124V64.394C260.124 63.9553 260.054 63.617 259.914 63.379C259.774 63.1363 259.589 62.966 259.361 62.868C259.137 62.77 258.896 62.721 258.64 62.721C258.416 62.721 258.178 62.7653 257.926 62.854C257.674 62.9427 257.459 63.092 257.282 63.302C257.104 63.512 257.016 63.799 257.016 64.163V69H255.728V64.016C255.728 63.7313 255.651 63.4933 255.497 63.302C255.347 63.1107 255.158 62.966 254.93 62.868C254.706 62.77 254.482 62.721 254.258 62.721C254.01 62.721 253.761 62.77 253.509 62.868C253.261 62.966 253.051 63.1223 252.879 63.337C252.711 63.547 252.627 63.8223 252.627 64.163V69H251.339ZM263.452 71.254V61.762H264.74L264.754 63.022C264.838 62.8727 264.945 62.7163 265.076 62.553C265.211 62.3897 265.375 62.238 265.566 62.098C265.762 61.958 265.988 61.8437 266.245 61.755C266.506 61.6663 266.803 61.622 267.134 61.622C267.713 61.622 268.221 61.755 268.66 62.021C269.103 62.2823 269.449 62.6837 269.696 63.225C269.943 63.7663 270.067 64.4523 270.067 65.283C270.067 66.1137 269.946 66.816 269.703 67.39C269.465 67.9593 269.12 68.3933 268.667 68.692C268.214 68.9907 267.668 69.14 267.029 69.14C266.707 69.14 266.42 69.0933 266.168 69C265.921 68.9113 265.704 68.7947 265.517 68.65C265.335 68.5007 265.181 68.342 265.055 68.174C264.934 68.006 264.833 67.845 264.754 67.691V71.254H263.452ZM266.784 68.132C267.381 68.132 267.869 67.9057 268.247 67.453C268.625 66.9957 268.814 66.2863 268.814 65.325C268.814 64.499 268.641 63.8433 268.296 63.358C267.951 62.8727 267.447 62.63 266.784 62.63C266.112 62.63 265.603 62.8797 265.258 63.379C264.913 63.8737 264.74 64.5223 264.74 65.325C264.74 65.843 264.817 66.3143 264.971 66.739C265.125 67.1637 265.354 67.502 265.657 67.754C265.96 68.006 266.336 68.132 266.784 68.132Z" fill="black"/>
<path d="M0 64C0 28.6538 28.6538 0 64 0C99.3462 0 128 28.6538 128 64C128 99.3462 99.3462 128 64 128C28.6538 128 0 99.3462 0 64Z" fill="#FFDF81"/>
<path d="M10.253 69V58.878H14.173C14.901 58.878 15.51 58.99 16 59.214C16.49 59.4333 16.8563 59.7507 17.099 60.166C17.3417 60.5767 17.463 61.069 17.463 61.643C17.463 62.1937 17.365 62.651 17.169 63.015C16.9777 63.379 16.7327 63.673 16.434 63.897C16.1353 64.1163 15.825 64.2867 15.503 64.408L17.491 69H16.119L14.271 64.639H11.548V69H10.253ZM11.548 63.568H13.753C14.5137 63.568 15.1017 63.414 15.517 63.106C15.9323 62.7933 16.14 62.3313 16.14 61.72C16.14 61.1227 15.9533 60.677 15.58 60.383C15.2113 60.0843 14.705 59.935 14.061 59.935H11.548V63.568ZM22.1272 69.14C21.4599 69.14 20.8765 68.9977 20.3772 68.713C19.8825 68.4237 19.4975 68.0013 19.2222 67.446C18.9469 66.8907 18.8092 66.2117 18.8092 65.409C18.8092 64.653 18.9375 63.9903 19.1942 63.421C19.4509 62.8517 19.8265 62.4107 20.3212 62.098C20.8159 61.7807 21.4202 61.622 22.1342 61.622C22.8015 61.622 23.3802 61.769 23.8702 62.063C24.3602 62.3523 24.7405 62.7793 25.0112 63.344C25.2865 63.9087 25.4242 64.597 25.4242 65.409C25.4242 66.1463 25.2982 66.795 25.0462 67.355C24.7942 67.915 24.4232 68.3537 23.9332 68.671C23.4479 68.9837 22.8459 69.14 22.1272 69.14ZM22.1342 68.118C22.5635 68.118 22.9275 68.0083 23.2262 67.789C23.5249 67.5697 23.7512 67.2547 23.9052 66.844C24.0639 66.4333 24.1432 65.9457 24.1432 65.381C24.1432 64.863 24.0732 64.3987 23.9332 63.988C23.7979 63.5727 23.5832 63.2437 23.2892 63.001C22.9952 62.7583 22.6102 62.637 22.1342 62.637C21.6955 62.637 21.3245 62.7467 21.0212 62.966C20.7179 63.1807 20.4869 63.4933 20.3282 63.904C20.1742 64.3147 20.0972 64.807 20.0972 65.381C20.0972 65.8897 20.1649 66.3517 20.3002 66.767C20.4402 67.1823 20.6595 67.5113 20.9582 67.754C21.2615 67.9967 21.6535 68.118 22.1342 68.118ZM30.7222 69.14C30.2976 69.14 29.9382 69.084 29.6442 68.972C29.3549 68.86 29.1169 68.7177 28.9302 68.545C28.7436 68.3677 28.5989 68.188 28.4962 68.006C28.3936 67.8193 28.3189 67.656 28.2722 67.516L28.1322 69H27.1452V58.598H28.4472V62.91C28.5079 62.7887 28.5989 62.6557 28.7202 62.511C28.8462 62.3663 29.0072 62.2263 29.2032 62.091C29.3992 61.9557 29.6302 61.8437 29.8962 61.755C30.1669 61.6663 30.4749 61.622 30.8202 61.622C31.7256 61.622 32.4442 61.937 32.9762 62.567C33.5129 63.197 33.7812 64.1257 33.7812 65.353C33.7812 66.1137 33.6669 66.7787 33.4382 67.348C33.2096 67.9127 32.8689 68.3537 32.4162 68.671C31.9636 68.9837 31.3989 69.14 30.7222 69.14ZM30.4912 68.146C31.0792 68.146 31.5576 67.9197 31.9262 67.467C32.2949 67.0097 32.4792 66.284 32.4792 65.29C32.4792 64.4453 32.3066 63.792 31.9612 63.33C31.6206 62.8633 31.1212 62.63 30.4632 62.63C29.9826 62.63 29.5952 62.735 29.3012 62.945C29.0119 63.1503 28.7972 63.4513 28.6572 63.848C28.5219 64.2447 28.4519 64.7253 28.4472 65.29C28.4472 66.3027 28.6036 67.033 28.9162 67.481C29.2336 67.9243 29.7586 68.146 30.4912 68.146ZM38.5577 69.14C37.8857 69.14 37.2931 68.993 36.7797 68.699C36.2664 68.405 35.8651 67.9827 35.5757 67.432C35.2864 66.8813 35.1417 66.221 35.1417 65.451C35.1417 64.6903 35.2724 64.023 35.5337 63.449C35.7951 62.875 36.1731 62.427 36.6677 62.105C37.1671 61.783 37.7667 61.622 38.4667 61.622C39.1481 61.622 39.7244 61.769 40.1957 62.063C40.6671 62.357 41.0241 62.7723 41.2667 63.309C41.5141 63.841 41.6377 64.4733 41.6377 65.206V65.682H36.4507C36.4507 66.1393 36.5254 66.5547 36.6747 66.928C36.8287 67.2967 37.0597 67.5907 37.3677 67.81C37.6757 68.0293 38.0654 68.139 38.5367 68.139C38.9987 68.139 39.3954 68.0317 39.7267 67.817C40.0627 67.6023 40.2774 67.292 40.3707 66.886H41.5887C41.5047 67.376 41.3087 67.789 41.0007 68.125C40.6974 68.461 40.3311 68.7153 39.9017 68.888C39.4771 69.056 39.0291 69.14 38.5577 69.14ZM36.4577 64.807H40.3917C40.3917 64.3917 40.3217 64.0183 40.1817 63.687C40.0417 63.351 39.8271 63.0873 39.5377 62.896C39.2531 62.7 38.8937 62.602 38.4597 62.602C38.0071 62.602 37.6314 62.7117 37.3327 62.931C37.0341 63.1457 36.8124 63.4233 36.6677 63.764C36.5231 64.1 36.4531 64.4477 36.4577 64.807ZM43.4284 69V61.762H44.6604V63.155C44.7818 62.8097 44.9521 62.525 45.1714 62.301C45.3908 62.0723 45.6404 61.902 45.9204 61.79C46.2051 61.678 46.4991 61.622 46.8024 61.622C46.9098 61.622 47.0148 61.629 47.1174 61.643C47.2201 61.657 47.2994 61.6803 47.3554 61.713V62.966C47.2854 62.9333 47.1944 62.9123 47.0824 62.903C46.9751 62.889 46.8841 62.882 46.8094 62.882C46.5201 62.8633 46.2494 62.882 45.9974 62.938C45.7454 62.9893 45.5238 63.0803 45.3324 63.211C45.1411 63.3417 44.9894 63.5143 44.8774 63.729C44.7701 63.939 44.7164 64.1957 44.7164 64.499V69H43.4284ZM51.3451 69.035C50.8458 69.035 50.4584 68.9673 50.1831 68.832C49.9078 68.6967 49.7141 68.496 49.6021 68.23C49.4948 67.964 49.4411 67.6373 49.4411 67.25V62.707H48.2651V61.762H49.4761L49.7911 59.655H50.7431V61.755H52.3741V62.707H50.7431V67.208C50.7431 67.4647 50.7688 67.6537 50.8201 67.775C50.8761 67.8917 50.9671 67.9663 51.0931 67.999C51.2191 68.0317 51.3964 68.048 51.6251 68.048H52.4161V68.916C52.3274 68.9487 52.1921 68.9767 52.0101 69C51.8328 69.0233 51.6111 69.035 51.3451 69.035ZM57.3558 69V68.286L62.8998 60.005H57.5938V58.878H64.7128V59.564L59.1198 67.859H64.6848V69H57.3558ZM69.3058 69.14C68.6338 69.14 68.0411 68.993 67.5278 68.699C67.0144 68.405 66.6131 67.9827 66.3238 67.432C66.0344 66.8813 65.8898 66.221 65.8898 65.451C65.8898 64.6903 66.0204 64.023 66.2818 63.449C66.5431 62.875 66.9211 62.427 67.4158 62.105C67.9151 61.783 68.5148 61.622 69.2148 61.622C69.8961 61.622 70.4724 61.769 70.9438 62.063C71.4151 62.357 71.7721 62.7723 72.0148 63.309C72.2621 63.841 72.3858 64.4733 72.3858 65.206V65.682H67.1988C67.1988 66.1393 67.2734 66.5547 67.4228 66.928C67.5768 67.2967 67.8078 67.5907 68.1158 67.81C68.4238 68.0293 68.8134 68.139 69.2848 68.139C69.7468 68.139 70.1434 68.0317 70.4748 67.817C70.8108 67.6023 71.0254 67.292 71.1188 66.886H72.3368C72.2528 67.376 72.0568 67.789 71.7488 68.125C71.4454 68.461 71.0791 68.7153 70.6498 68.888C70.2251 69.056 69.7771 69.14 69.3058 69.14ZM67.2058 64.807H71.1398C71.1398 64.3917 71.0698 64.0183 70.9298 63.687C70.7898 63.351 70.5751 63.0873 70.2858 62.896C70.0011 62.7 69.6418 62.602 69.2078 62.602C68.7551 62.602 68.3794 62.7117 68.0808 62.931C67.7821 63.1457 67.5604 63.4233 67.4158 63.764C67.2711 64.1 67.2011 64.4477 67.2058 64.807ZM74.1765 69V61.762H75.4225V62.812C75.6231 62.4947 75.8985 62.217 76.2485 61.979C76.5985 61.741 77.0535 61.622 77.6135 61.622C77.8748 61.622 78.1408 61.6663 78.4115 61.755C78.6868 61.8437 78.9388 61.9767 79.1675 62.154C79.3961 62.3313 79.5735 62.5483 79.6995 62.805C79.9235 62.4503 80.2268 62.1657 80.6095 61.951C80.9921 61.7317 81.4238 61.622 81.9045 61.622C82.1565 61.622 82.4201 61.6617 82.6955 61.741C82.9708 61.8157 83.2251 61.951 83.4585 62.147C83.6965 62.3383 83.8901 62.6067 84.0395 62.952C84.1888 63.2927 84.2635 63.7313 84.2635 64.268V69H82.9615V64.394C82.9615 63.9553 82.8915 63.617 82.7515 63.379C82.6115 63.1363 82.4271 62.966 82.1985 62.868C81.9745 62.77 81.7341 62.721 81.4775 62.721C81.2535 62.721 81.0155 62.7653 80.7635 62.854C80.5115 62.9427 80.2968 63.092 80.1195 63.302C79.9421 63.512 79.8535 63.799 79.8535 64.163V69H78.5655V64.016C78.5655 63.7313 78.4885 63.4933 78.3345 63.302C78.1851 63.1107 77.9961 62.966 77.7675 62.868C77.5435 62.77 77.3195 62.721 77.0955 62.721C76.8481 62.721 76.5985 62.77 76.3465 62.868C76.0991 62.966 75.8891 63.1223 75.7165 63.337C75.5485 63.547 75.4645 63.8223 75.4645 64.163V69H74.1765ZM89.3488 69.14C88.6768 69.14 88.0841 68.993 87.5708 68.699C87.0574 68.405 86.6561 67.9827 86.3668 67.432C86.0774 66.8813 85.9328 66.221 85.9328 65.451C85.9328 64.6903 86.0634 64.023 86.3248 63.449C86.5861 62.875 86.9641 62.427 87.4588 62.105C87.9581 61.783 88.5578 61.622 89.2578 61.622C89.9391 61.622 90.5154 61.769 90.9868 62.063C91.4581 62.357 91.8151 62.7723 92.0578 63.309C92.3051 63.841 92.4288 64.4733 92.4288 65.206V65.682H87.2418C87.2418 66.1393 87.3164 66.5547 87.4658 66.928C87.6198 67.2967 87.8508 67.5907 88.1588 67.81C88.4668 68.0293 88.8564 68.139 89.3278 68.139C89.7898 68.139 90.1864 68.0317 90.5178 67.817C90.8538 67.6023 91.0684 67.292 91.1618 66.886H92.3798C92.2957 67.376 92.0998 67.789 91.7918 68.125C91.4884 68.461 91.1221 68.7153 90.6928 68.888C90.2681 69.056 89.8201 69.14 89.3488 69.14ZM87.2488 64.807H91.1828C91.1828 64.3917 91.1128 64.0183 90.9728 63.687C90.8328 63.351 90.6181 63.0873 90.3288 62.896C90.0441 62.7 89.6848 62.602 89.2508 62.602C88.7981 62.602 88.4224 62.7117 88.1238 62.931C87.8251 63.1457 87.6034 63.4233 87.4588 63.764C87.3141 64.1 87.2441 64.4477 87.2488 64.807ZM97.1314 69.14C96.4781 69.14 95.8994 68.9977 95.3954 68.713C94.8961 68.4283 94.5041 68.0083 94.2194 67.453C93.9394 66.8977 93.7994 66.2163 93.7994 65.409C93.7994 64.653 93.9278 63.9927 94.1844 63.428C94.4458 62.8587 94.8238 62.4153 95.3184 62.098C95.8178 61.7807 96.4221 61.622 97.1314 61.622C97.6494 61.622 98.1138 61.7223 98.5244 61.923C98.9398 62.119 99.2804 62.399 99.5464 62.763C99.8124 63.127 99.9758 63.5563 100.036 64.051H98.8884C98.8464 63.799 98.7484 63.568 98.5944 63.358C98.4451 63.148 98.2468 62.98 97.9994 62.854C97.7568 62.728 97.4698 62.665 97.1384 62.665C96.5178 62.665 96.0114 62.889 95.6194 63.337C95.2321 63.785 95.0384 64.471 95.0384 65.395C95.0384 66.2303 95.2158 66.9 95.5704 67.404C95.9298 67.9033 96.4571 68.153 97.1524 68.153C97.4838 68.153 97.7731 68.09 98.0204 67.964C98.2678 67.8333 98.4661 67.663 98.6154 67.453C98.7648 67.2383 98.8604 67.0097 98.9024 66.767H100.029C99.9688 67.2523 99.8031 67.6723 99.5324 68.027C99.2664 68.3817 98.9258 68.657 98.5104 68.853C98.0998 69.0443 97.6401 69.14 97.1314 69.14ZM101.753 69V58.598H103.041V65.381L106.443 61.762H107.927L105.316 64.52L108.109 69H106.737L104.469 65.367L103.041 66.844V69H101.753ZM109.649 69V61.762H110.902V69H109.649ZM109.614 60.229V58.885H110.937V60.229H109.614ZM115.677 69.14C115.173 69.14 114.704 69.063 114.27 68.909C113.841 68.7503 113.484 68.5053 113.199 68.174C112.914 67.838 112.737 67.411 112.667 66.893H113.843C113.904 67.1777 114.02 67.4157 114.193 67.607C114.366 67.7937 114.578 67.936 114.83 68.034C115.087 68.1273 115.367 68.174 115.67 68.174C116.16 68.174 116.554 68.083 116.853 67.901C117.152 67.719 117.301 67.439 117.301 67.061C117.301 66.795 117.222 66.5827 117.063 66.424C116.909 66.2607 116.666 66.1417 116.335 66.067L114.837 65.696C114.254 65.556 113.787 65.3367 113.437 65.038C113.092 64.7393 112.917 64.3217 112.912 63.785C112.912 63.3603 113.015 62.987 113.22 62.665C113.425 62.343 113.731 62.0887 114.137 61.902C114.548 61.7153 115.059 61.622 115.67 61.622C116.459 61.622 117.093 61.7993 117.574 62.154C118.055 62.504 118.307 63.0197 118.33 63.701H117.182C117.135 63.3557 116.981 63.0827 116.72 62.882C116.459 62.6767 116.104 62.574 115.656 62.574C115.199 62.574 114.823 62.6673 114.529 62.854C114.24 63.036 114.095 63.3207 114.095 63.708C114.095 63.9647 114.198 64.1677 114.403 64.317C114.613 64.4617 114.916 64.583 115.313 64.681L116.769 65.045C117.1 65.1337 117.376 65.2503 117.595 65.395C117.814 65.5397 117.987 65.7007 118.113 65.878C118.239 66.0553 118.328 66.242 118.379 66.438C118.435 66.6293 118.463 66.8137 118.463 66.991C118.463 67.4343 118.353 67.817 118.134 68.139C117.915 68.4563 117.597 68.7037 117.182 68.881C116.767 69.0537 116.265 69.14 115.677 69.14Z" fill="black"/>
</svg>
