<svg xmlns="http://www.w3.org/2000/svg" width="593" height="104" viewBox="0 0 593 104"><defs><style type="text/css"/></defs><g transform="translate(-1120.8124338190319 647.8073490364595) scale(1)"><g class="relationship"><g transform="translate(1243.1766916315319 -595.8073490364595) rotate(0)" stroke-width="1" stroke="#A5ABB6"><path d="M 52 0 L 235.0744140625 0"/><polygon points="-9.45,0 -10.5,3.5 0,0 -10.5,-3.5" fill="#A5ABB6" transform="translate(244.5244140625 0) rotate(0)" stroke="none"/></g><g transform="translate(1386.713898662782 -595.8073490364595) rotate(0) translate(0 -13)"><g transform="translate(0 0)"><g transform="translate(-26.7265625 0)" fill="#ffffff" stroke="#000000" stroke-width="0"><rect x="0" y="0" width="53.453125" height="14" rx="2" ry="2" stroke="none"/><text xml:space="preserve" x="2" y="9.78564453125" stroke="none" text-anchor="left" font-family="sans-serif" font-size="10" font-weight="normal" fill="#000000">ACTED_IN</text></g></g><g transform="translate(0 14)"><g transform="translate(-28.62060546875 0)" fill="white"><rect x="0" y="0" width="57.2412109375" height="12" rx="0" ry="0" stroke="none"/><g font-family="sans-serif" font-size="10" font-weight="normal" fill="#000000" text-anchor="end"><text xml:space="preserve" x="27.2314453125" y="8.78564453125" stroke="none">roles:</text><text xml:space="preserve" x="30.009765625" y="8.78564453125" stroke="none" text-anchor="start">string</text></g></g></g></g></g><g class="node"><g fill="#4C8EDA" stroke="#2870c2" stroke-width="2"><circle cx="1539.7011056940319" cy="-595.8073490364595" r="51"/></g><g transform="translate(1539.7011056940319 -595.8073490364595)"><g transform="scale(1) translate(0 -9)"><g transform="translate(0 0)"><g transform="translate(-25.0048828125 0)"><g fill="#ffffff" stroke="#000000" stroke-width="2"><rect x="0" y="0" width="50.009765625" height="18" rx="9" ry="9"/><text xml:space="preserve" x="9" y="12.3427734375" stroke="none" font-family="sans-serif" font-size="12" font-weight="normal" fill="#000000">Movie</text></g></g></g></g><g transform="translate(54 -30)"><g transform="translate(0 0)"><g transform="translate(0 0)" fill="white"><rect x="0" y="0" width="120.048828125" height="60" rx="0" ry="0" stroke="none"/><g font-family="sans-serif" font-size="10" font-weight="normal" fill="#000000" text-anchor="middle"><text xml:space="preserve" x="60.0244140625" y="8.78564453125" stroke="none">title: string</text><text xml:space="preserve" x="60.0244140625" y="20.78564453125" stroke="none" text-anchor="middle">tmdbID: integer</text><text xml:space="preserve" x="60.0244140625" y="32.78564453125" stroke="none" text-anchor="middle">released: date</text><text xml:space="preserve" x="60.0244140625" y="44.78564453125" stroke="none" text-anchor="middle">imdbRating: decimal (0-10)</text><text xml:space="preserve" x="60.0244140625" y="56.78564453125" stroke="none" text-anchor="middle">genres: string</text></g></g></g></g></g></g><g class="node"><g fill="#fe9200" stroke="#e27300" stroke-width="2"><circle cx="1243.1766916315319" cy="-595.8073490364595" r="51"/></g><g transform="translate(1243.1766916315319 -595.8073490364595)"><g transform="scale(1) translate(0 -9)"><g transform="translate(0 0)"><g transform="translate(-28.0107421875 0)"><g fill="#ffffff" stroke="#000000" stroke-width="2"><rect x="0" y="0" width="56.021484375" height="18" rx="9" ry="9"/><text xml:space="preserve" x="9" y="12.3427734375" stroke="none" font-family="sans-serif" font-size="12" font-weight="normal" fill="#000000">Person</text></g></g></g></g><g transform="translate(-54 -17.999999999999993)"><g transform="translate(0 0)"><g transform="translate(-68.3642578125 0)" fill="white"><rect x="0" y="0" width="68.3642578125" height="36" rx="0" ry="0" stroke="none"/><g font-family="sans-serif" font-size="10" font-weight="normal" fill="#000000" text-anchor="middle"><text xml:space="preserve" x="34.18212890625" y="8.78564453125" stroke="none">name: string</text><text xml:space="preserve" x="34.18212890625" y="20.78564453125" stroke="none" text-anchor="middle">tmdbID: integer</text><text xml:space="preserve" x="34.18212890625" y="32.78564453125" stroke="none" text-anchor="middle">born: date</text></g></g></g></g></g></g></g></svg>