<svg width="448" height="678" viewBox="0 0 448 678" fill="none" xmlns="http://www.w3.org/2000/svg">
<path d="M45 339C45 303.654 73.6538 275 109 275V275C144.346 275 173 303.654 173 339V339C173 374.346 144.346 403 109 403V403C73.6538 403 45 374.346 45 339V339Z" fill="#C990C0"/>
<path d="M98.8914 344.14C98.0141 344.14 97.3024 343.995 96.7564 343.706C96.2151 343.417 95.8184 342.992 95.5664 342.432C95.3191 341.872 95.1954 341.184 95.1954 340.367V333.878H96.5394V340.563C96.5394 341.38 96.7424 341.991 97.1484 342.397C97.5544 342.803 98.1354 343.006 98.8914 343.006C99.4001 343.006 99.8317 342.917 100.186 342.74C100.546 342.563 100.819 342.294 101.005 341.935C101.197 341.571 101.292 341.114 101.292 340.563V333.878H102.594V340.5C102.594 341.279 102.466 341.94 102.209 342.481C101.953 343.022 101.551 343.435 101.005 343.72C100.464 344 99.7594 344.14 98.8914 344.14ZM107.336 344.14C106.832 344.14 106.363 344.063 105.929 343.909C105.5 343.75 105.143 343.505 104.858 343.174C104.573 342.838 104.396 342.411 104.326 341.893H105.502C105.563 342.178 105.679 342.416 105.852 342.607C106.025 342.794 106.237 342.936 106.489 343.034C106.746 343.127 107.026 343.174 107.329 343.174C107.819 343.174 108.213 343.083 108.512 342.901C108.811 342.719 108.96 342.439 108.96 342.061C108.96 341.795 108.881 341.583 108.722 341.424C108.568 341.261 108.325 341.142 107.994 341.067L106.496 340.696C105.913 340.556 105.446 340.337 105.096 340.038C104.751 339.739 104.576 339.322 104.571 338.785C104.571 338.36 104.674 337.987 104.879 337.665C105.084 337.343 105.39 337.089 105.796 336.902C106.207 336.715 106.718 336.622 107.329 336.622C108.118 336.622 108.752 336.799 109.233 337.154C109.714 337.504 109.966 338.02 109.989 338.701H108.841C108.794 338.356 108.64 338.083 108.379 337.882C108.118 337.677 107.763 337.574 107.315 337.574C106.858 337.574 106.482 337.667 106.188 337.854C105.899 338.036 105.754 338.321 105.754 338.708C105.754 338.965 105.857 339.168 106.062 339.317C106.272 339.462 106.575 339.583 106.972 339.681L108.428 340.045C108.759 340.134 109.035 340.25 109.254 340.395C109.473 340.54 109.646 340.701 109.772 340.878C109.898 341.055 109.987 341.242 110.038 341.438C110.094 341.629 110.122 341.814 110.122 341.991C110.122 342.434 110.012 342.817 109.793 343.139C109.574 343.456 109.256 343.704 108.841 343.881C108.426 344.054 107.924 344.14 107.336 344.14ZM114.873 344.14C114.201 344.14 113.608 343.993 113.095 343.699C112.582 343.405 112.18 342.983 111.891 342.432C111.602 341.881 111.457 341.221 111.457 340.451C111.457 339.69 111.588 339.023 111.849 338.449C112.11 337.875 112.488 337.427 112.983 337.105C113.482 336.783 114.082 336.622 114.782 336.622C115.463 336.622 116.04 336.769 116.511 337.063C116.982 337.357 117.339 337.772 117.582 338.309C117.829 338.841 117.953 339.473 117.953 340.206V340.682H112.766C112.766 341.139 112.841 341.555 112.99 341.928C113.144 342.297 113.375 342.591 113.683 342.81C113.991 343.029 114.381 343.139 114.852 343.139C115.314 343.139 115.711 343.032 116.042 342.817C116.378 342.602 116.593 342.292 116.686 341.886H117.904C117.82 342.376 117.624 342.789 117.316 343.125C117.013 343.461 116.646 343.715 116.217 343.888C115.792 344.056 115.344 344.14 114.873 344.14ZM112.773 339.807H116.707C116.707 339.392 116.637 339.018 116.497 338.687C116.357 338.351 116.142 338.087 115.853 337.896C115.568 337.7 115.209 337.602 114.775 337.602C114.322 337.602 113.947 337.712 113.648 337.931C113.349 338.146 113.128 338.423 112.983 338.764C112.838 339.1 112.768 339.448 112.773 339.807ZM119.744 344V336.762H120.976V338.155C121.097 337.81 121.268 337.525 121.487 337.301C121.706 337.072 121.956 336.902 122.236 336.79C122.521 336.678 122.815 336.622 123.118 336.622C123.225 336.622 123.33 336.629 123.433 336.643C123.536 336.657 123.615 336.68 123.671 336.713V337.966C123.601 337.933 123.51 337.912 123.398 337.903C123.291 337.889 123.2 337.882 123.125 337.882C122.836 337.863 122.565 337.882 122.313 337.938C122.061 337.989 121.839 338.08 121.648 338.211C121.457 338.342 121.305 338.514 121.193 338.729C121.086 338.939 121.032 339.196 121.032 339.499V344H119.744Z" fill="white"/>
<path d="M45 64C45 28.6538 73.6538 0 109 0V0C144.346 0 173 28.6538 173 64V64C173 99.3462 144.346 128 109 128V128C73.6538 128 45 99.3462 45 64V64Z" fill="#C990C0"/>
<path d="M98.8914 69.14C98.0141 69.14 97.3024 68.9953 96.7564 68.706C96.2151 68.4167 95.8184 67.992 95.5664 67.432C95.3191 66.872 95.1954 66.1837 95.1954 65.367V58.878H96.5394V65.563C96.5394 66.3797 96.7424 66.991 97.1484 67.397C97.5544 67.803 98.1354 68.006 98.8914 68.006C99.4001 68.006 99.8317 67.9173 100.186 67.74C100.546 67.5627 100.819 67.2943 101.005 66.935C101.197 66.571 101.292 66.1137 101.292 65.563V58.878H102.594V65.5C102.594 66.2793 102.466 66.9397 102.209 67.481C101.953 68.0223 101.551 68.4353 101.005 68.72C100.464 69 99.7594 69.14 98.8914 69.14ZM107.336 69.14C106.832 69.14 106.363 69.063 105.929 68.909C105.5 68.7503 105.143 68.5053 104.858 68.174C104.573 67.838 104.396 67.411 104.326 66.893H105.502C105.563 67.1777 105.679 67.4157 105.852 67.607C106.025 67.7937 106.237 67.936 106.489 68.034C106.746 68.1273 107.026 68.174 107.329 68.174C107.819 68.174 108.213 68.083 108.512 67.901C108.811 67.719 108.96 67.439 108.96 67.061C108.96 66.795 108.881 66.5827 108.722 66.424C108.568 66.2607 108.325 66.1417 107.994 66.067L106.496 65.696C105.913 65.556 105.446 65.3367 105.096 65.038C104.751 64.7393 104.576 64.3217 104.571 63.785C104.571 63.3603 104.674 62.987 104.879 62.665C105.084 62.343 105.39 62.0887 105.796 61.902C106.207 61.7153 106.718 61.622 107.329 61.622C108.118 61.622 108.752 61.7993 109.233 62.154C109.714 62.504 109.966 63.0197 109.989 63.701H108.841C108.794 63.3557 108.64 63.0827 108.379 62.882C108.118 62.6767 107.763 62.574 107.315 62.574C106.858 62.574 106.482 62.6673 106.188 62.854C105.899 63.036 105.754 63.3207 105.754 63.708C105.754 63.9647 105.857 64.1677 106.062 64.317C106.272 64.4617 106.575 64.583 106.972 64.681L108.428 65.045C108.759 65.1337 109.035 65.2503 109.254 65.395C109.473 65.5397 109.646 65.7007 109.772 65.878C109.898 66.0553 109.987 66.242 110.038 66.438C110.094 66.6293 110.122 66.8137 110.122 66.991C110.122 67.4343 110.012 67.817 109.793 68.139C109.574 68.4563 109.256 68.7037 108.841 68.881C108.426 69.0537 107.924 69.14 107.336 69.14ZM114.873 69.14C114.201 69.14 113.608 68.993 113.095 68.699C112.582 68.405 112.18 67.9827 111.891 67.432C111.602 66.8813 111.457 66.221 111.457 65.451C111.457 64.6903 111.588 64.023 111.849 63.449C112.11 62.875 112.488 62.427 112.983 62.105C113.482 61.783 114.082 61.622 114.782 61.622C115.463 61.622 116.04 61.769 116.511 62.063C116.982 62.357 117.339 62.7723 117.582 63.309C117.829 63.841 117.953 64.4733 117.953 65.206V65.682H112.766C112.766 66.1393 112.841 66.5547 112.99 66.928C113.144 67.2967 113.375 67.5907 113.683 67.81C113.991 68.0293 114.381 68.139 114.852 68.139C115.314 68.139 115.711 68.0317 116.042 67.817C116.378 67.6023 116.593 67.292 116.686 66.886H117.904C117.82 67.376 117.624 67.789 117.316 68.125C117.013 68.461 116.646 68.7153 116.217 68.888C115.792 69.056 115.344 69.14 114.873 69.14ZM112.773 64.807H116.707C116.707 64.3917 116.637 64.0183 116.497 63.687C116.357 63.351 116.142 63.0873 115.853 62.896C115.568 62.7 115.209 62.602 114.775 62.602C114.322 62.602 113.947 62.7117 113.648 62.931C113.349 63.1457 113.128 63.4233 112.983 63.764C112.838 64.1 112.768 64.4477 112.773 64.807ZM119.744 69V61.762H120.976V63.155C121.097 62.8097 121.268 62.525 121.487 62.301C121.706 62.0723 121.956 61.902 122.236 61.79C122.521 61.678 122.815 61.622 123.118 61.622C123.225 61.622 123.33 61.629 123.433 61.643C123.536 61.657 123.615 61.6803 123.671 61.713V62.966C123.601 62.9333 123.51 62.9123 123.398 62.903C123.291 62.889 123.2 62.882 123.125 62.882C122.836 62.8633 122.565 62.882 122.313 62.938C122.061 62.9893 121.839 63.0803 121.648 63.211C121.457 63.3417 121.305 63.5143 121.193 63.729C121.086 63.939 121.032 64.1957 121.032 64.499V69H119.744Z" fill="white"/>
<path d="M320 339C320 303.654 348.654 275 384 275V275C419.346 275 448 303.654 448 339V339C448 374.346 419.346 403 384 403V403C348.654 403 320 374.346 320 339V339Z" fill="#C990C0"/>
<path d="M373.891 344.14C373.014 344.14 372.302 343.995 371.756 343.706C371.215 343.417 370.818 342.992 370.566 342.432C370.319 341.872 370.195 341.184 370.195 340.367V333.878H371.539V340.563C371.539 341.38 371.742 341.991 372.148 342.397C372.554 342.803 373.135 343.006 373.891 343.006C374.4 343.006 374.832 342.917 375.186 342.74C375.546 342.563 375.819 342.294 376.005 341.935C376.197 341.571 376.292 341.114 376.292 340.563V333.878H377.594V340.5C377.594 341.279 377.466 341.94 377.209 342.481C376.953 343.022 376.551 343.435 376.005 343.72C375.464 344 374.759 344.14 373.891 344.14ZM382.336 344.14C381.832 344.14 381.363 344.063 380.929 343.909C380.5 343.75 380.143 343.505 379.858 343.174C379.573 342.838 379.396 342.411 379.326 341.893H380.502C380.563 342.178 380.679 342.416 380.852 342.607C381.025 342.794 381.237 342.936 381.489 343.034C381.746 343.127 382.026 343.174 382.329 343.174C382.819 343.174 383.213 343.083 383.512 342.901C383.811 342.719 383.96 342.439 383.96 342.061C383.96 341.795 383.881 341.583 383.722 341.424C383.568 341.261 383.325 341.142 382.994 341.067L381.496 340.696C380.913 340.556 380.446 340.337 380.096 340.038C379.751 339.739 379.576 339.322 379.571 338.785C379.571 338.36 379.674 337.987 379.879 337.665C380.084 337.343 380.39 337.089 380.796 336.902C381.207 336.715 381.718 336.622 382.329 336.622C383.118 336.622 383.752 336.799 384.233 337.154C384.714 337.504 384.966 338.02 384.989 338.701H383.841C383.794 338.356 383.64 338.083 383.379 337.882C383.118 337.677 382.763 337.574 382.315 337.574C381.858 337.574 381.482 337.667 381.188 337.854C380.899 338.036 380.754 338.321 380.754 338.708C380.754 338.965 380.857 339.168 381.062 339.317C381.272 339.462 381.575 339.583 381.972 339.681L383.428 340.045C383.759 340.134 384.035 340.25 384.254 340.395C384.473 340.54 384.646 340.701 384.772 340.878C384.898 341.055 384.987 341.242 385.038 341.438C385.094 341.629 385.122 341.814 385.122 341.991C385.122 342.434 385.012 342.817 384.793 343.139C384.574 343.456 384.256 343.704 383.841 343.881C383.426 344.054 382.924 344.14 382.336 344.14ZM389.873 344.14C389.201 344.14 388.608 343.993 388.095 343.699C387.582 343.405 387.18 342.983 386.891 342.432C386.602 341.881 386.457 341.221 386.457 340.451C386.457 339.69 386.588 339.023 386.849 338.449C387.11 337.875 387.488 337.427 387.983 337.105C388.482 336.783 389.082 336.622 389.782 336.622C390.463 336.622 391.04 336.769 391.511 337.063C391.982 337.357 392.339 337.772 392.582 338.309C392.829 338.841 392.953 339.473 392.953 340.206V340.682H387.766C387.766 341.139 387.841 341.555 387.99 341.928C388.144 342.297 388.375 342.591 388.683 342.81C388.991 343.029 389.381 343.139 389.852 343.139C390.314 343.139 390.711 343.032 391.042 342.817C391.378 342.602 391.593 342.292 391.686 341.886H392.904C392.82 342.376 392.624 342.789 392.316 343.125C392.013 343.461 391.646 343.715 391.217 343.888C390.792 344.056 390.344 344.14 389.873 344.14ZM387.773 339.807H391.707C391.707 339.392 391.637 339.018 391.497 338.687C391.357 338.351 391.142 338.087 390.853 337.896C390.568 337.7 390.209 337.602 389.775 337.602C389.322 337.602 388.947 337.712 388.648 337.931C388.349 338.146 388.128 338.423 387.983 338.764C387.838 339.1 387.768 339.448 387.773 339.807ZM394.744 344V336.762H395.976V338.155C396.097 337.81 396.268 337.525 396.487 337.301C396.706 337.072 396.956 336.902 397.236 336.79C397.521 336.678 397.815 336.622 398.118 336.622C398.225 336.622 398.33 336.629 398.433 336.643C398.536 336.657 398.615 336.68 398.671 336.713V337.966C398.601 337.933 398.51 337.912 398.398 337.903C398.291 337.889 398.2 337.882 398.125 337.882C397.836 337.863 397.565 337.882 397.313 337.938C397.061 337.989 396.839 338.08 396.648 338.211C396.457 338.342 396.305 338.514 396.193 338.729C396.086 338.939 396.032 339.196 396.032 339.499V344H394.744Z" fill="white"/>
<path d="M45 614C45 578.654 73.6538 550 109 550V550C144.346 550 173 578.654 173 614V614C173 649.346 144.346 678 109 678V678C73.6538 678 45 649.346 45 614V614Z" fill="#C990C0"/>
<path d="M98.8914 619.14C98.0141 619.14 97.3024 618.995 96.7564 618.706C96.2151 618.417 95.8184 617.992 95.5664 617.432C95.3191 616.872 95.1954 616.184 95.1954 615.367V608.878H96.5394V615.563C96.5394 616.38 96.7424 616.991 97.1484 617.397C97.5544 617.803 98.1354 618.006 98.8914 618.006C99.4001 618.006 99.8317 617.917 100.186 617.74C100.546 617.563 100.819 617.294 101.005 616.935C101.197 616.571 101.292 616.114 101.292 615.563V608.878H102.594V615.5C102.594 616.279 102.466 616.94 102.209 617.481C101.953 618.022 101.551 618.435 101.005 618.72C100.464 619 99.7594 619.14 98.8914 619.14ZM107.336 619.14C106.832 619.14 106.363 619.063 105.929 618.909C105.5 618.75 105.143 618.505 104.858 618.174C104.573 617.838 104.396 617.411 104.326 616.893H105.502C105.563 617.178 105.679 617.416 105.852 617.607C106.025 617.794 106.237 617.936 106.489 618.034C106.746 618.127 107.026 618.174 107.329 618.174C107.819 618.174 108.213 618.083 108.512 617.901C108.811 617.719 108.96 617.439 108.96 617.061C108.96 616.795 108.881 616.583 108.722 616.424C108.568 616.261 108.325 616.142 107.994 616.067L106.496 615.696C105.913 615.556 105.446 615.337 105.096 615.038C104.751 614.739 104.576 614.322 104.571 613.785C104.571 613.36 104.674 612.987 104.879 612.665C105.084 612.343 105.39 612.089 105.796 611.902C106.207 611.715 106.718 611.622 107.329 611.622C108.118 611.622 108.752 611.799 109.233 612.154C109.714 612.504 109.966 613.02 109.989 613.701H108.841C108.794 613.356 108.64 613.083 108.379 612.882C108.118 612.677 107.763 612.574 107.315 612.574C106.858 612.574 106.482 612.667 106.188 612.854C105.899 613.036 105.754 613.321 105.754 613.708C105.754 613.965 105.857 614.168 106.062 614.317C106.272 614.462 106.575 614.583 106.972 614.681L108.428 615.045C108.759 615.134 109.035 615.25 109.254 615.395C109.473 615.54 109.646 615.701 109.772 615.878C109.898 616.055 109.987 616.242 110.038 616.438C110.094 616.629 110.122 616.814 110.122 616.991C110.122 617.434 110.012 617.817 109.793 618.139C109.574 618.456 109.256 618.704 108.841 618.881C108.426 619.054 107.924 619.14 107.336 619.14ZM114.873 619.14C114.201 619.14 113.608 618.993 113.095 618.699C112.582 618.405 112.18 617.983 111.891 617.432C111.602 616.881 111.457 616.221 111.457 615.451C111.457 614.69 111.588 614.023 111.849 613.449C112.11 612.875 112.488 612.427 112.983 612.105C113.482 611.783 114.082 611.622 114.782 611.622C115.463 611.622 116.04 611.769 116.511 612.063C116.982 612.357 117.339 612.772 117.582 613.309C117.829 613.841 117.953 614.473 117.953 615.206V615.682H112.766C112.766 616.139 112.841 616.555 112.99 616.928C113.144 617.297 113.375 617.591 113.683 617.81C113.991 618.029 114.381 618.139 114.852 618.139C115.314 618.139 115.711 618.032 116.042 617.817C116.378 617.602 116.593 617.292 116.686 616.886H117.904C117.82 617.376 117.624 617.789 117.316 618.125C117.013 618.461 116.646 618.715 116.217 618.888C115.792 619.056 115.344 619.14 114.873 619.14ZM112.773 614.807H116.707C116.707 614.392 116.637 614.018 116.497 613.687C116.357 613.351 116.142 613.087 115.853 612.896C115.568 612.7 115.209 612.602 114.775 612.602C114.322 612.602 113.947 612.712 113.648 612.931C113.349 613.146 113.128 613.423 112.983 613.764C112.838 614.1 112.768 614.448 112.773 614.807ZM119.744 619V611.762H120.976V613.155C121.097 612.81 121.268 612.525 121.487 612.301C121.706 612.072 121.956 611.902 122.236 611.79C122.521 611.678 122.815 611.622 123.118 611.622C123.225 611.622 123.33 611.629 123.433 611.643C123.536 611.657 123.615 611.68 123.671 611.713V612.966C123.601 612.933 123.51 612.912 123.398 612.903C123.291 612.889 123.2 612.882 123.125 612.882C122.836 612.863 122.565 612.882 122.313 612.938C122.061 612.989 121.839 613.08 121.648 613.211C121.457 613.342 121.305 613.514 121.193 613.729C121.086 613.939 121.032 614.196 121.032 614.499V619H119.744Z" fill="white"/>
<path d="M108.293 547.207C108.683 547.598 109.317 547.598 109.707 547.207L116.071 540.843C116.462 540.453 116.462 539.819 116.071 539.429C115.681 539.038 115.047 539.038 114.657 539.429L109 545.086L103.343 539.429C102.953 539.038 102.319 539.038 101.929 539.429C101.538 539.819 101.538 540.453 101.929 540.843L108.293 547.207ZM110 491.697C110 491.145 109.552 490.697 109 490.697C108.448 490.697 108 491.145 108 491.697H110ZM108 457.572C108 458.124 108.448 458.572 109 458.572C109.552 458.572 110 458.124 110 457.572H108ZM110 406.5C110 405.948 109.552 405.5 109 405.5C108.448 405.5 108 405.948 108 406.5H110ZM110 546.5V491.697H108V546.5H110ZM110 457.572V406.5H108V457.572H110Z" fill="#1A1B1D"/>
<path d="M80.0718 480.134V469.953H86.4553V471.275H81.608V474.377H86.1222V475.695H81.608V478.812H86.515V480.134H80.0718ZM88.3534 469.953H90.2177L93.4592 477.867H93.5785L96.82 469.953H98.6843V480.134H97.2227V472.767H97.1282L94.1254 480.119H92.9123L89.9095 472.762H89.815V480.134H88.3534V469.953ZM101.624 480.134H99.9932L103.657 469.953H105.432L109.096 480.134H107.466L104.587 471.802H104.507L101.624 480.134ZM101.897 476.147H107.187V477.44H101.897V476.147ZM111.949 469.953V480.134H110.413V469.953H111.949ZM114.032 480.134V469.953H115.568V478.812H120.182V480.134H114.032ZM121.78 480.134V469.953H128.164V471.275H123.317V474.377H127.831V475.695H123.317V478.812H128.224V480.134H121.78ZM133.358 480.134H130.062V469.953H133.462C134.46 469.953 135.317 470.156 136.033 470.564C136.749 470.968 137.297 471.55 137.678 472.309C138.063 473.065 138.255 473.971 138.255 475.029C138.255 476.089 138.061 477.001 137.673 477.763C137.289 478.525 136.732 479.112 136.003 479.523C135.274 479.931 134.392 480.134 133.358 480.134ZM131.598 478.792H133.274C134.049 478.792 134.694 478.646 135.207 478.355C135.721 478.06 136.106 477.634 136.361 477.077C136.616 476.517 136.744 475.834 136.744 475.029C136.744 474.23 136.616 473.552 136.361 472.995C136.109 472.438 135.733 472.016 135.232 471.727C134.732 471.439 134.11 471.295 133.368 471.295H131.598V478.792Z" fill="black" fill-opacity="0.8"/>
<path d="M249 524C249 488.654 277.654 460 313 460V460C348.346 460 377 488.654 377 524V524C377 559.346 348.346 588 313 588V588C277.654 588 249 559.346 249 524V524Z" fill="#C990C0"/>
<path d="M302.891 529.14C302.014 529.14 301.302 528.995 300.756 528.706C300.215 528.417 299.818 527.992 299.566 527.432C299.319 526.872 299.195 526.184 299.195 525.367V518.878H300.539V525.563C300.539 526.38 300.742 526.991 301.148 527.397C301.554 527.803 302.135 528.006 302.891 528.006C303.4 528.006 303.832 527.917 304.186 527.74C304.546 527.563 304.819 527.294 305.005 526.935C305.197 526.571 305.292 526.114 305.292 525.563V518.878H306.594V525.5C306.594 526.279 306.466 526.94 306.209 527.481C305.953 528.022 305.551 528.435 305.005 528.72C304.464 529 303.759 529.14 302.891 529.14ZM311.336 529.14C310.832 529.14 310.363 529.063 309.929 528.909C309.5 528.75 309.143 528.505 308.858 528.174C308.573 527.838 308.396 527.411 308.326 526.893H309.502C309.563 527.178 309.679 527.416 309.852 527.607C310.025 527.794 310.237 527.936 310.489 528.034C310.746 528.127 311.026 528.174 311.329 528.174C311.819 528.174 312.213 528.083 312.512 527.901C312.811 527.719 312.96 527.439 312.96 527.061C312.96 526.795 312.881 526.583 312.722 526.424C312.568 526.261 312.325 526.142 311.994 526.067L310.496 525.696C309.913 525.556 309.446 525.337 309.096 525.038C308.751 524.739 308.576 524.322 308.571 523.785C308.571 523.36 308.674 522.987 308.879 522.665C309.084 522.343 309.39 522.089 309.796 521.902C310.207 521.715 310.718 521.622 311.329 521.622C312.118 521.622 312.752 521.799 313.233 522.154C313.714 522.504 313.966 523.02 313.989 523.701H312.841C312.794 523.356 312.64 523.083 312.379 522.882C312.118 522.677 311.763 522.574 311.315 522.574C310.858 522.574 310.482 522.667 310.188 522.854C309.899 523.036 309.754 523.321 309.754 523.708C309.754 523.965 309.857 524.168 310.062 524.317C310.272 524.462 310.575 524.583 310.972 524.681L312.428 525.045C312.759 525.134 313.035 525.25 313.254 525.395C313.473 525.54 313.646 525.701 313.772 525.878C313.898 526.055 313.987 526.242 314.038 526.438C314.094 526.629 314.122 526.814 314.122 526.991C314.122 527.434 314.012 527.817 313.793 528.139C313.574 528.456 313.256 528.704 312.841 528.881C312.426 529.054 311.924 529.14 311.336 529.14ZM318.873 529.14C318.201 529.14 317.608 528.993 317.095 528.699C316.582 528.405 316.18 527.983 315.891 527.432C315.602 526.881 315.457 526.221 315.457 525.451C315.457 524.69 315.588 524.023 315.849 523.449C316.11 522.875 316.488 522.427 316.983 522.105C317.482 521.783 318.082 521.622 318.782 521.622C319.463 521.622 320.04 521.769 320.511 522.063C320.982 522.357 321.339 522.772 321.582 523.309C321.829 523.841 321.953 524.473 321.953 525.206V525.682H316.766C316.766 526.139 316.841 526.555 316.99 526.928C317.144 527.297 317.375 527.591 317.683 527.81C317.991 528.029 318.381 528.139 318.852 528.139C319.314 528.139 319.711 528.032 320.042 527.817C320.378 527.602 320.593 527.292 320.686 526.886H321.904C321.82 527.376 321.624 527.789 321.316 528.125C321.013 528.461 320.646 528.715 320.217 528.888C319.792 529.056 319.344 529.14 318.873 529.14ZM316.773 524.807H320.707C320.707 524.392 320.637 524.018 320.497 523.687C320.357 523.351 320.142 523.087 319.853 522.896C319.568 522.7 319.209 522.602 318.775 522.602C318.322 522.602 317.947 522.712 317.648 522.931C317.349 523.146 317.128 523.423 316.983 523.764C316.838 524.1 316.768 524.448 316.773 524.807ZM323.744 529V521.762H324.976V523.155C325.097 522.81 325.268 522.525 325.487 522.301C325.706 522.072 325.956 521.902 326.236 521.79C326.521 521.678 326.815 521.622 327.118 521.622C327.225 521.622 327.33 521.629 327.433 521.643C327.536 521.657 327.615 521.68 327.671 521.713V522.966C327.601 522.933 327.51 522.912 327.398 522.903C327.291 522.889 327.2 522.882 327.125 522.882C326.836 522.863 326.565 522.882 326.313 522.938C326.061 522.989 325.839 523.08 325.648 523.211C325.457 523.342 325.305 523.514 325.193 523.729C325.086 523.939 325.032 524.196 325.032 524.499V529H323.744Z" fill="white"/>
<path d="M246.456 464.608C247.008 464.581 247.433 464.112 247.406 463.561L246.967 454.572C246.94 454.02 246.471 453.595 245.919 453.621C245.368 453.648 244.943 454.117 244.969 454.669L245.36 462.66L237.369 463.05C236.818 463.077 236.392 463.546 236.419 464.097C236.446 464.649 236.915 465.074 237.467 465.047L246.456 464.608ZM239.75 457.572L240.421 456.831L240.421 456.831L239.75 457.572ZM229.543 446.966C229.134 446.595 228.502 446.626 228.13 447.035C227.759 447.444 227.79 448.077 228.199 448.448L229.543 446.966ZM190.57 414.323C190.979 414.694 191.611 414.663 191.982 414.254C192.353 413.844 192.322 413.212 191.913 412.841L190.57 414.323ZM176.264 398.65C175.855 398.279 175.223 398.31 174.852 398.719C174.481 399.128 174.512 399.76 174.921 400.131L176.264 398.65ZM247.079 462.869L240.421 456.831L239.078 458.313L245.736 464.35L247.079 462.869ZM240.421 456.831L229.543 446.966L228.199 448.448L239.078 458.313L240.421 456.831ZM191.913 412.841L176.264 398.65L174.921 400.131L190.57 414.323L191.913 412.841Z" fill="#1A1B1D"/>
<path d="M181.128 436.144V425.962H187.512V427.285H182.664V430.387H187.179V431.705H182.664V434.822H187.571V436.144H181.128ZM189.41 425.962H191.274L194.516 433.877H194.635L197.876 425.962H199.741V436.144H198.279V428.776H198.185L195.182 436.129H193.969L190.966 428.771H190.871V436.144H189.41V425.962ZM202.68 436.144H201.05L204.714 425.962H206.489L210.153 436.144H208.522L205.643 427.812H205.564L202.68 436.144ZM202.954 432.157H208.244V433.45H202.954V432.157ZM213.005 425.962V436.144H211.469V425.962H213.005ZM215.088 436.144V425.962H216.625V434.822H221.238V436.144H215.088ZM222.837 436.144V425.962H229.22V427.285H224.373V430.387H228.887V431.705H224.373V434.822H229.28V436.144H222.837ZM234.414 436.144H231.118V425.962H234.519C235.516 425.962 236.373 426.166 237.089 426.574C237.805 426.978 238.354 427.56 238.735 428.319C239.119 429.075 239.311 429.981 239.311 431.038C239.311 432.099 239.118 433.011 238.73 433.773C238.345 434.535 237.788 435.122 237.059 435.533C236.33 435.94 235.449 436.144 234.414 436.144ZM232.655 434.802H234.33C235.105 434.802 235.75 434.656 236.264 434.364C236.778 434.069 237.162 433.644 237.417 433.087C237.672 432.527 237.8 431.844 237.8 431.038C237.8 430.24 237.672 429.562 237.417 429.005C237.165 428.448 236.789 428.026 236.289 427.737C235.788 427.449 235.167 427.305 234.424 427.305H232.655V434.802Z" fill="black" fill-opacity="0.8"/>
<path d="M317.207 339.707C317.598 339.317 317.598 338.683 317.207 338.293L310.843 331.929C310.453 331.538 309.819 331.538 309.429 331.929C309.038 332.319 309.038 332.953 309.429 333.343L315.086 339L309.429 344.657C309.038 345.047 309.038 345.681 309.429 346.071C309.819 346.462 310.453 346.462 310.843 346.071L317.207 339.707ZM281.697 338C281.145 338 280.697 338.448 280.697 339C280.697 339.552 281.145 340 281.697 340V338ZM207.572 340C208.124 340 208.572 339.552 208.572 339C208.572 338.448 208.124 338 207.572 338V340ZM176.5 338C175.948 338 175.5 338.448 175.5 339C175.5 339.552 175.948 340 176.5 340V338ZM316.5 338H281.697V340H316.5V338ZM207.572 338H176.5V340H207.572V338Z" fill="#1A1B1D"/>
<path d="M215.706 344.5V334.318H222.09V335.641H217.243V338.743H221.757V340.06H217.243V343.178H222.15V344.5H215.706ZM223.988 334.318H225.852L229.094 342.233H229.213L232.455 334.318H234.319V344.5H232.857V337.132H232.763L229.76 344.485H228.547L225.544 337.127H225.45V344.5H223.988V334.318ZM237.258 344.5H235.628L239.292 334.318H241.067L244.731 344.5H243.1L240.221 336.168H240.142L237.258 344.5ZM237.532 340.513H242.822V341.805H237.532V340.513ZM247.583 334.318V344.5H246.047V334.318H247.583ZM249.667 344.5V334.318H251.203V343.178H255.816V344.5H249.667ZM257.415 344.5V334.318H263.798V335.641H258.951V338.743H263.465V340.06H258.951V343.178H263.858V344.5H257.415ZM268.993 344.5H265.696V334.318H269.097C270.095 334.318 270.951 334.522 271.667 334.93C272.383 335.334 272.932 335.916 273.313 336.675C273.697 337.43 273.89 338.337 273.89 339.394C273.89 340.455 273.696 341.366 273.308 342.129C272.923 342.891 272.367 343.478 271.637 343.888C270.908 344.296 270.027 344.5 268.993 344.5ZM267.233 343.158H268.908C269.684 343.158 270.328 343.012 270.842 342.72C271.356 342.425 271.74 341.999 271.995 341.442C272.251 340.882 272.378 340.2 272.378 339.394C272.378 338.595 272.251 337.918 271.995 337.361C271.744 336.804 271.367 336.381 270.867 336.093C270.366 335.805 269.745 335.661 269.003 335.661H267.233V343.158Z" fill="black" fill-opacity="0.8"/>
<path d="M109.707 130.793C109.317 130.402 108.683 130.402 108.293 130.793L101.929 137.157C101.538 137.547 101.538 138.181 101.929 138.571C102.319 138.962 102.953 138.962 103.343 138.571L109 132.914L114.657 138.571C115.047 138.962 115.681 138.962 116.071 138.571C116.462 138.181 116.462 137.547 116.071 137.157L109.707 130.793ZM108 186.303C108 186.855 108.448 187.303 109 187.303C109.552 187.303 110 186.855 110 186.303H108ZM110 220.428C110 219.876 109.552 219.428 109 219.428C108.448 219.428 108 219.876 108 220.428H110ZM108 271.5C108 272.052 108.448 272.5 109 272.5C109.552 272.5 110 272.052 110 271.5H108ZM108 131.5V186.303H110V131.5H108ZM108 220.428V271.5H110V220.428H108Z" fill="#1A1B1D"/>
<path d="M80.0718 208.866V198.684H86.4553V200.006H81.608V203.108H86.1222V204.426H81.608V207.543H86.515V208.866H80.0718ZM88.3534 198.684H90.2177L93.4592 206.598H93.5785L96.82 198.684H98.6843V208.866H97.2227V201.498H97.1282L94.1254 208.851H92.9123L89.9095 201.493H89.815V208.866H88.3534V198.684ZM101.624 208.866H99.9932L103.657 198.684H105.432L109.096 208.866H107.466L104.587 200.533H104.507L101.624 208.866ZM101.897 204.878H107.187V206.171H101.897V204.878ZM111.949 198.684V208.866H110.413V198.684H111.949ZM114.032 208.866V198.684H115.568V207.543H120.182V208.866H114.032ZM121.78 208.866V198.684H128.164V200.006H123.317V203.108H127.831V204.426H123.317V207.543H128.224V208.866H121.78ZM133.358 208.866H130.062V198.684H133.462C134.46 198.684 135.317 198.888 136.033 199.295C136.749 199.7 137.297 200.281 137.678 201.04C138.063 201.796 138.255 202.702 138.255 203.76C138.255 204.82 138.061 205.732 137.673 206.494C137.289 207.256 136.732 207.843 136.003 208.254C135.274 208.662 134.392 208.866 133.358 208.866ZM131.598 207.523H133.274C134.049 207.523 134.694 207.377 135.207 207.086C135.721 206.791 136.106 206.365 136.361 205.808C136.616 205.248 136.744 204.565 136.744 203.76C136.744 202.961 136.616 202.283 136.361 201.726C136.109 201.17 135.733 200.747 135.232 200.459C134.732 200.17 134.11 200.026 133.368 200.026H131.598V207.523Z" fill="black" fill-opacity="0.8"/>
<path d="M249 154C249 118.654 277.654 90 313 90V90C348.346 90 377 118.654 377 154V154C377 189.346 348.346 218 313 218V218C277.654 218 249 189.346 249 154V154Z" fill="#C990C0"/>
<path d="M302.891 159.14C302.014 159.14 301.302 158.995 300.756 158.706C300.215 158.417 299.818 157.992 299.566 157.432C299.319 156.872 299.195 156.184 299.195 155.367V148.878H300.539V155.563C300.539 156.38 300.742 156.991 301.148 157.397C301.554 157.803 302.135 158.006 302.891 158.006C303.4 158.006 303.832 157.917 304.186 157.74C304.546 157.563 304.819 157.294 305.005 156.935C305.197 156.571 305.292 156.114 305.292 155.563V148.878H306.594V155.5C306.594 156.279 306.466 156.94 306.209 157.481C305.953 158.022 305.551 158.435 305.005 158.72C304.464 159 303.759 159.14 302.891 159.14ZM311.336 159.14C310.832 159.14 310.363 159.063 309.929 158.909C309.5 158.75 309.143 158.505 308.858 158.174C308.573 157.838 308.396 157.411 308.326 156.893H309.502C309.563 157.178 309.679 157.416 309.852 157.607C310.025 157.794 310.237 157.936 310.489 158.034C310.746 158.127 311.026 158.174 311.329 158.174C311.819 158.174 312.213 158.083 312.512 157.901C312.811 157.719 312.96 157.439 312.96 157.061C312.96 156.795 312.881 156.583 312.722 156.424C312.568 156.261 312.325 156.142 311.994 156.067L310.496 155.696C309.913 155.556 309.446 155.337 309.096 155.038C308.751 154.739 308.576 154.322 308.571 153.785C308.571 153.36 308.674 152.987 308.879 152.665C309.084 152.343 309.39 152.089 309.796 151.902C310.207 151.715 310.718 151.622 311.329 151.622C312.118 151.622 312.752 151.799 313.233 152.154C313.714 152.504 313.966 153.02 313.989 153.701H312.841C312.794 153.356 312.64 153.083 312.379 152.882C312.118 152.677 311.763 152.574 311.315 152.574C310.858 152.574 310.482 152.667 310.188 152.854C309.899 153.036 309.754 153.321 309.754 153.708C309.754 153.965 309.857 154.168 310.062 154.317C310.272 154.462 310.575 154.583 310.972 154.681L312.428 155.045C312.759 155.134 313.035 155.25 313.254 155.395C313.473 155.54 313.646 155.701 313.772 155.878C313.898 156.055 313.987 156.242 314.038 156.438C314.094 156.629 314.122 156.814 314.122 156.991C314.122 157.434 314.012 157.817 313.793 158.139C313.574 158.456 313.256 158.704 312.841 158.881C312.426 159.054 311.924 159.14 311.336 159.14ZM318.873 159.14C318.201 159.14 317.608 158.993 317.095 158.699C316.582 158.405 316.18 157.983 315.891 157.432C315.602 156.881 315.457 156.221 315.457 155.451C315.457 154.69 315.588 154.023 315.849 153.449C316.11 152.875 316.488 152.427 316.983 152.105C317.482 151.783 318.082 151.622 318.782 151.622C319.463 151.622 320.04 151.769 320.511 152.063C320.982 152.357 321.339 152.772 321.582 153.309C321.829 153.841 321.953 154.473 321.953 155.206V155.682H316.766C316.766 156.139 316.841 156.555 316.99 156.928C317.144 157.297 317.375 157.591 317.683 157.81C317.991 158.029 318.381 158.139 318.852 158.139C319.314 158.139 319.711 158.032 320.042 157.817C320.378 157.602 320.593 157.292 320.686 156.886H321.904C321.82 157.376 321.624 157.789 321.316 158.125C321.013 158.461 320.646 158.715 320.217 158.888C319.792 159.056 319.344 159.14 318.873 159.14ZM316.773 154.807H320.707C320.707 154.392 320.637 154.018 320.497 153.687C320.357 153.351 320.142 153.087 319.853 152.896C319.568 152.7 319.209 152.602 318.775 152.602C318.322 152.602 317.947 152.712 317.648 152.931C317.349 153.146 317.128 153.423 316.983 153.764C316.838 154.1 316.768 154.448 316.773 154.807ZM323.744 159V151.762H324.976V153.155C325.097 152.81 325.268 152.525 325.487 152.301C325.706 152.072 325.956 151.902 326.236 151.79C326.521 151.678 326.815 151.622 327.118 151.622C327.225 151.622 327.33 151.629 327.433 151.643C327.536 151.657 327.615 151.68 327.671 151.713V152.966C327.601 152.933 327.51 152.912 327.398 152.903C327.291 152.889 327.2 152.882 327.125 152.882C326.836 152.863 326.565 152.882 326.313 152.938C326.061 152.989 325.839 153.08 325.648 153.211C325.457 153.342 325.305 153.514 325.193 153.729C325.086 153.939 325.032 154.196 325.032 154.499V159H323.744Z" fill="white"/>
<path d="M247.406 214.439C247.433 213.888 247.008 213.419 246.456 213.392L237.467 212.953C236.915 212.926 236.446 213.351 236.419 213.903C236.392 214.454 236.818 214.923 237.369 214.95L245.36 215.34L244.969 223.331C244.943 223.883 245.368 224.352 245.919 224.378C246.471 224.405 246.94 223.98 246.967 223.428L247.406 214.439ZM239.75 220.428L240.421 221.169L240.421 221.169L239.75 220.428ZM228.199 229.552C227.79 229.923 227.759 230.556 228.13 230.965C228.502 231.374 229.134 231.405 229.543 231.034L228.199 229.552ZM191.913 265.159C192.322 264.788 192.353 264.156 191.982 263.746C191.611 263.337 190.979 263.306 190.57 263.677L191.913 265.159ZM174.921 277.869C174.512 278.24 174.481 278.872 174.852 279.281C175.223 279.69 175.855 279.721 176.264 279.35L174.921 277.869ZM245.736 213.65L239.078 219.687L240.421 221.169L247.079 215.131L245.736 213.65ZM239.078 219.687L228.199 229.552L229.543 231.034L240.421 221.169L239.078 219.687ZM190.57 263.677L174.921 277.869L176.264 279.35L191.913 265.159L190.57 263.677Z" fill="#1A1B1D"/>
<path d="M181.128 252.856V242.674H187.512V243.996H182.664V247.099H187.179V248.416H182.664V251.533H187.571V252.856H181.128ZM189.41 242.674H191.274L194.516 250.589H194.635L197.876 242.674H199.741V252.856H198.279V245.488H198.185L195.182 252.841H193.969L190.966 245.483H190.871V252.856H189.41V242.674ZM202.68 252.856H201.05L204.714 242.674H206.489L210.153 252.856H208.522L205.643 244.523H205.564L202.68 252.856ZM202.954 248.868H208.244V250.161H202.954V248.868ZM213.005 242.674V252.856H211.469V242.674H213.005ZM215.088 252.856V242.674H216.625V251.533H221.238V252.856H215.088ZM222.837 252.856V242.674H229.22V243.996H224.373V247.099H228.887V248.416H224.373V251.533H229.28V252.856H222.837ZM234.414 252.856H231.118V242.674H234.519C235.516 242.674 236.373 242.878 237.089 243.285C237.805 243.69 238.354 244.271 238.735 245.03C239.119 245.786 239.311 246.693 239.311 247.75C239.311 248.81 239.118 249.722 238.73 250.484C238.345 251.247 237.788 251.833 237.059 252.244C236.33 252.652 235.449 252.856 234.414 252.856ZM232.655 251.513H234.33C235.105 251.513 235.75 251.368 236.264 251.076C236.778 250.781 237.162 250.355 237.417 249.798C237.672 249.238 237.8 248.555 237.8 247.75C237.8 246.951 237.672 246.273 237.417 245.717C237.165 245.16 236.789 244.737 236.289 244.449C235.788 244.16 235.167 244.016 234.424 244.016H232.655V251.513Z" fill="black" fill-opacity="0.8"/>
<path d="M0.966 268V260.762H2.632V261.798C2.744 261.611 2.89567 261.432 3.087 261.259C3.283 261.086 3.52333 260.946 3.808 260.839C4.09267 260.732 4.42633 260.678 4.809 260.678C5.257 260.678 5.67233 260.767 6.055 260.944C6.44233 261.121 6.75267 261.399 6.986 261.777C7.224 262.155 7.343 262.643 7.343 263.24V268H5.635V263.443C5.635 262.967 5.50433 262.615 5.243 262.386C4.98167 262.153 4.65267 262.036 4.256 262.036C3.98533 262.036 3.72867 262.083 3.486 262.176C3.24333 262.265 3.045 262.402 2.891 262.589C2.74167 262.771 2.667 263 2.667 263.275V268H0.966ZM11.2211 268.14C10.7591 268.14 10.3438 268.056 9.97511 267.888C9.61111 267.715 9.32411 267.47 9.11411 267.153C8.90878 266.831 8.80611 266.441 8.80611 265.984C8.80611 265.186 9.09311 264.584 9.66711 264.178C10.2458 263.772 11.1651 263.56 12.4251 263.541L13.5101 263.513V263.023C13.5101 262.64 13.3958 262.342 13.1671 262.127C12.9431 261.908 12.5931 261.8 12.1171 261.805C11.7624 261.81 11.4404 261.894 11.1511 262.057C10.8618 262.216 10.6704 262.484 10.5771 262.862H9.12811C9.15611 262.367 9.29844 261.954 9.55511 261.623C9.81644 261.287 10.1734 261.037 10.6261 260.874C11.0788 260.706 11.6014 260.622 12.1941 260.622C12.8848 260.622 13.4471 260.713 13.8811 260.895C14.3151 261.077 14.6348 261.341 14.8401 261.686C15.0454 262.027 15.1481 262.44 15.1481 262.925V268H13.7131L13.5731 266.698C13.3164 267.244 12.9874 267.622 12.5861 267.832C12.1894 268.037 11.7344 268.14 11.2211 268.14ZM11.7741 266.985C11.9841 266.985 12.1918 266.948 12.3971 266.873C12.6024 266.794 12.7868 266.689 12.9501 266.558C13.1181 266.423 13.2511 266.273 13.3491 266.11C13.4518 265.947 13.5054 265.776 13.5101 265.599V264.458L12.6211 264.472C12.1824 264.477 11.7974 264.523 11.4661 264.612C11.1394 264.701 10.8851 264.843 10.7031 265.039C10.5211 265.23 10.4301 265.487 10.4301 265.809C10.4301 266.178 10.5584 266.467 10.8151 266.677C11.0718 266.882 11.3914 266.985 11.7741 266.985ZM16.9621 268V260.762H18.6211V261.798C18.8311 261.481 19.1158 261.205 19.4751 260.972C19.8391 260.739 20.3011 260.622 20.8611 260.622C21.1178 260.622 21.3768 260.666 21.6381 260.755C21.9041 260.844 22.1491 260.974 22.3731 261.147C22.6018 261.32 22.7838 261.534 22.9191 261.791C23.1478 261.45 23.4511 261.17 23.8291 260.951C24.2118 260.732 24.6411 260.622 25.1171 260.622C25.3784 260.622 25.6468 260.664 25.9221 260.748C26.2021 260.832 26.4588 260.972 26.6921 261.168C26.9254 261.364 27.1144 261.632 27.2591 261.973C27.4038 262.309 27.4761 262.731 27.4761 263.24V268H25.7751V263.443C25.7751 263.084 25.7121 262.801 25.5861 262.596C25.4601 262.391 25.2968 262.246 25.0961 262.162C24.9001 262.073 24.6901 262.029 24.4661 262.029C24.2654 262.029 24.0554 262.069 23.8361 262.148C23.6214 262.227 23.4371 262.358 23.2831 262.54C23.1338 262.722 23.0591 262.967 23.0591 263.275V268H21.3581V263.17C21.3581 262.918 21.2928 262.708 21.1621 262.54C21.0314 262.372 20.8658 262.246 20.6651 262.162C20.4691 262.073 20.2684 262.029 20.0631 262.029C19.8531 262.029 19.6384 262.073 19.4191 262.162C19.2044 262.251 19.0248 262.386 18.8801 262.568C18.7354 262.75 18.6631 262.986 18.6631 263.275V268H16.9621ZM32.5068 268.14C31.8115 268.14 31.1978 267.993 30.6658 267.699C30.1385 267.4 29.7255 266.976 29.4268 266.425C29.1328 265.874 28.9858 265.219 28.9858 264.458C28.9858 263.716 29.1188 263.058 29.3848 262.484C29.6555 261.905 30.0451 261.45 30.5538 261.119C31.0671 260.788 31.6855 260.622 32.4088 260.622C33.1228 260.622 33.7225 260.774 34.2078 261.077C34.6931 261.38 35.0618 261.805 35.3138 262.351C35.5658 262.892 35.6918 263.527 35.6918 264.255V264.773H30.6868C30.6821 265.184 30.7475 265.548 30.8828 265.865C31.0181 266.182 31.2188 266.432 31.4848 266.614C31.7508 266.791 32.0798 266.88 32.4718 266.88C32.8731 266.88 33.2208 266.791 33.5148 266.614C33.8135 266.432 34.0118 266.157 34.1098 265.788H35.6638C35.5798 266.292 35.3791 266.719 35.0618 267.069C34.7491 267.419 34.3665 267.685 33.9138 267.867C33.4658 268.049 32.9968 268.14 32.5068 268.14ZM30.6798 263.716H34.0818C34.0818 263.366 34.0188 263.051 33.8928 262.771C33.7715 262.486 33.5871 262.262 33.3398 262.099C33.0925 261.931 32.7798 261.847 32.4018 261.847C32.0285 261.847 31.7135 261.938 31.4568 262.12C31.2001 262.302 31.0065 262.538 30.8758 262.827C30.7451 263.112 30.6798 263.408 30.6798 263.716ZM37.0815 262.932V260.986H39.0065V262.932H37.0815ZM37.0815 267.958V266.026H39.0065V267.958H37.0815ZM44.3691 261.497L43.9001 257.878H45.7551L45.2651 261.497H44.3691ZM51.4654 268.14C50.9614 268.14 50.4784 268.079 50.0164 267.958C49.5544 267.832 49.1321 267.648 48.7494 267.405C48.3714 267.158 48.0588 266.852 47.8114 266.488C47.5641 266.119 47.4124 265.69 47.3564 265.2H49.1204C49.1951 265.541 49.3421 265.828 49.5614 266.061C49.7854 266.294 50.0678 266.472 50.4084 266.593C50.7491 266.714 51.1294 266.775 51.5494 266.775C51.9228 266.775 52.2704 266.719 52.5924 266.607C52.9144 266.495 53.1758 266.329 53.3764 266.11C53.5771 265.886 53.6774 265.611 53.6774 265.284C53.6774 264.915 53.5468 264.628 53.2854 264.423C53.0288 264.213 52.6601 264.047 52.1794 263.926L50.1984 263.457C49.6851 263.34 49.2371 263.17 48.8544 262.946C48.4764 262.722 48.1824 262.428 47.9724 262.064C47.7624 261.695 47.6574 261.245 47.6574 260.713C47.6574 260.106 47.8231 259.581 48.1544 259.138C48.4904 258.695 48.9454 258.354 49.5194 258.116C50.0934 257.873 50.7398 257.752 51.4584 257.752C52.2798 257.752 52.9728 257.89 53.5374 258.165C54.1021 258.436 54.5314 258.8 54.8254 259.257C55.1194 259.714 55.2688 260.216 55.2734 260.762H53.5514C53.5141 260.356 53.3951 260.036 53.1944 259.803C52.9938 259.565 52.7394 259.392 52.4314 259.285C52.1234 259.178 51.7828 259.124 51.4094 259.124C50.7468 259.124 50.2544 259.266 49.9324 259.551C49.6104 259.836 49.4494 260.169 49.4494 260.552C49.4494 260.911 49.5684 261.196 49.8064 261.406C50.0444 261.616 50.4084 261.779 50.8984 261.896L52.7814 262.337C53.4114 262.468 53.9178 262.668 54.3004 262.939C54.6831 263.21 54.9608 263.532 55.1334 263.905C55.3108 264.274 55.3994 264.682 55.3994 265.13C55.3994 265.718 55.2314 266.238 54.8954 266.691C54.5641 267.144 54.1044 267.498 53.5164 267.755C52.9284 268.012 52.2448 268.14 51.4654 268.14ZM59.141 268.14C58.679 268.14 58.2637 268.056 57.895 267.888C57.531 267.715 57.244 267.47 57.034 267.153C56.8287 266.831 56.726 266.441 56.726 265.984C56.726 265.186 57.013 264.584 57.587 264.178C58.1657 263.772 59.085 263.56 60.345 263.541L61.43 263.513V263.023C61.43 262.64 61.3157 262.342 61.087 262.127C60.863 261.908 60.513 261.8 60.037 261.805C59.6824 261.81 59.3604 261.894 59.071 262.057C58.7817 262.216 58.5904 262.484 58.497 262.862H57.048C57.076 262.367 57.2184 261.954 57.475 261.623C57.7364 261.287 58.0934 261.037 58.546 260.874C58.9987 260.706 59.5214 260.622 60.114 260.622C60.8047 260.622 61.367 260.713 61.801 260.895C62.235 261.077 62.5547 261.341 62.76 261.686C62.9654 262.027 63.068 262.44 63.068 262.925V268H61.633L61.493 266.698C61.2364 267.244 60.9074 267.622 60.506 267.832C60.1094 268.037 59.6544 268.14 59.141 268.14ZM59.694 266.985C59.904 266.985 60.1117 266.948 60.317 266.873C60.5224 266.794 60.7067 266.689 60.87 266.558C61.038 266.423 61.171 266.273 61.269 266.11C61.3717 265.947 61.4254 265.776 61.43 265.599V264.458L60.541 264.472C60.1024 264.477 59.7174 264.523 59.386 264.612C59.0594 264.701 58.805 264.843 58.623 265.039C58.441 265.23 58.35 265.487 58.35 265.809C58.35 266.178 58.4784 266.467 58.735 266.677C58.9917 266.882 59.3114 266.985 59.694 266.985ZM64.882 268V260.762H66.513V262.33C66.6297 261.971 66.7953 261.665 67.01 261.413C67.2293 261.156 67.486 260.96 67.78 260.825C68.074 260.69 68.3937 260.622 68.739 260.622C68.823 260.622 68.9047 260.627 68.984 260.636C69.0633 260.645 69.1217 260.662 69.159 260.685V262.316C69.1077 262.293 69.04 262.276 68.956 262.267C68.8767 262.258 68.8067 262.253 68.746 262.253C68.396 262.225 68.0857 262.239 67.815 262.295C67.549 262.351 67.3227 262.447 67.136 262.582C66.954 262.713 66.8163 262.881 66.723 263.086C66.6297 263.287 66.583 263.522 66.583 263.793V268H64.882ZM72.4028 268.14C71.9408 268.14 71.5254 268.056 71.1568 267.888C70.7928 267.715 70.5058 267.47 70.2958 267.153C70.0904 266.831 69.9878 266.441 69.9878 265.984C69.9878 265.186 70.2748 264.584 70.8488 264.178C71.4274 263.772 72.3468 263.56 73.6068 263.541L74.6918 263.513V263.023C74.6918 262.64 74.5774 262.342 74.3488 262.127C74.1248 261.908 73.7748 261.8 73.2987 261.805C72.9441 261.81 72.6221 261.894 72.3328 262.057C72.0434 262.216 71.8521 262.484 71.7588 262.862H70.3098C70.3378 262.367 70.4801 261.954 70.7368 261.623C70.9981 261.287 71.3551 261.037 71.8078 260.874C72.2604 260.706 72.7831 260.622 73.3758 260.622C74.0664 260.622 74.6288 260.713 75.0628 260.895C75.4968 261.077 75.8164 261.341 76.0218 261.686C76.2271 262.027 76.3298 262.44 76.3298 262.925V268H74.8948L74.7548 266.698C74.4981 267.244 74.1691 267.622 73.7678 267.832C73.3711 268.037 72.9161 268.14 72.4028 268.14ZM72.9558 266.985C73.1658 266.985 73.3734 266.948 73.5788 266.873C73.7841 266.794 73.9684 266.689 74.1318 266.558C74.2998 266.423 74.4328 266.273 74.5308 266.11C74.6334 265.947 74.6871 265.776 74.6918 265.599V264.458L73.8028 264.472C73.3641 264.477 72.9791 264.523 72.6478 264.612C72.3211 264.701 72.0668 264.843 71.8848 265.039C71.7028 265.23 71.6118 265.487 71.6118 265.809C71.6118 266.178 71.7401 266.467 71.9968 266.677C72.2534 266.882 72.5731 266.985 72.9558 266.985ZM78.1437 268V257.598H79.8237V261.812C79.9404 261.63 80.0944 261.455 80.2857 261.287C80.4771 261.114 80.7104 260.974 80.9857 260.867C81.2657 260.755 81.5994 260.699 81.9867 260.699C82.4487 260.699 82.8711 260.788 83.2537 260.965C83.6364 261.142 83.9421 261.399 84.1707 261.735C84.3994 262.066 84.5137 262.463 84.5137 262.925V268H82.8057V263.212C82.8057 262.839 82.6727 262.549 82.4067 262.344C82.1454 262.139 81.8141 262.036 81.4127 262.036C81.1467 262.036 80.8924 262.083 80.6497 262.176C80.4071 262.269 80.2111 262.409 80.0617 262.596C79.9171 262.778 79.8447 263.007 79.8447 263.282V268H78.1437ZM85.6707 261.525L86.4617 259.698L85.8037 259.649V257.878H87.6657V259.432L86.3567 261.525H85.6707Z" fill="black"/>
</svg>
