<svg width="657" height="968" viewBox="0 0 657 968" fill="none" xmlns="http://www.w3.org/2000/svg">
<path d="M67 483C67 447.654 95.6538 419 131 419V419C166.346 419 195 447.654 195 483V483C195 518.346 166.346 547 131 547V547C95.6538 547 67 518.346 67 483V483Z" fill="#C990C0"/>
<path d="M120.891 488.14C120.014 488.14 119.302 487.995 118.756 487.706C118.215 487.417 117.818 486.992 117.566 486.432C117.319 485.872 117.195 485.184 117.195 484.367V477.878H118.539V484.563C118.539 485.38 118.742 485.991 119.148 486.397C119.554 486.803 120.135 487.006 120.891 487.006C121.4 487.006 121.832 486.917 122.186 486.74C122.546 486.563 122.819 486.294 123.005 485.935C123.197 485.571 123.292 485.114 123.292 484.563V477.878H124.594V484.5C124.594 485.279 124.466 485.94 124.209 486.481C123.953 487.022 123.551 487.435 123.005 487.72C122.464 488 121.759 488.14 120.891 488.14ZM129.336 488.14C128.832 488.14 128.363 488.063 127.929 487.909C127.5 487.75 127.143 487.505 126.858 487.174C126.573 486.838 126.396 486.411 126.326 485.893H127.502C127.563 486.178 127.679 486.416 127.852 486.607C128.025 486.794 128.237 486.936 128.489 487.034C128.746 487.127 129.026 487.174 129.329 487.174C129.819 487.174 130.213 487.083 130.512 486.901C130.811 486.719 130.96 486.439 130.96 486.061C130.96 485.795 130.881 485.583 130.722 485.424C130.568 485.261 130.325 485.142 129.994 485.067L128.496 484.696C127.913 484.556 127.446 484.337 127.096 484.038C126.751 483.739 126.576 483.322 126.571 482.785C126.571 482.36 126.674 481.987 126.879 481.665C127.084 481.343 127.39 481.089 127.796 480.902C128.207 480.715 128.718 480.622 129.329 480.622C130.118 480.622 130.752 480.799 131.233 481.154C131.714 481.504 131.966 482.02 131.989 482.701H130.841C130.794 482.356 130.64 482.083 130.379 481.882C130.118 481.677 129.763 481.574 129.315 481.574C128.858 481.574 128.482 481.667 128.188 481.854C127.899 482.036 127.754 482.321 127.754 482.708C127.754 482.965 127.857 483.168 128.062 483.317C128.272 483.462 128.575 483.583 128.972 483.681L130.428 484.045C130.759 484.134 131.035 484.25 131.254 484.395C131.473 484.54 131.646 484.701 131.772 484.878C131.898 485.055 131.987 485.242 132.038 485.438C132.094 485.629 132.122 485.814 132.122 485.991C132.122 486.434 132.012 486.817 131.793 487.139C131.574 487.456 131.256 487.704 130.841 487.881C130.426 488.054 129.924 488.14 129.336 488.14ZM136.873 488.14C136.201 488.14 135.608 487.993 135.095 487.699C134.582 487.405 134.18 486.983 133.891 486.432C133.602 485.881 133.457 485.221 133.457 484.451C133.457 483.69 133.588 483.023 133.849 482.449C134.11 481.875 134.488 481.427 134.983 481.105C135.482 480.783 136.082 480.622 136.782 480.622C137.463 480.622 138.04 480.769 138.511 481.063C138.982 481.357 139.339 481.772 139.582 482.309C139.829 482.841 139.953 483.473 139.953 484.206V484.682H134.766C134.766 485.139 134.841 485.555 134.99 485.928C135.144 486.297 135.375 486.591 135.683 486.81C135.991 487.029 136.381 487.139 136.852 487.139C137.314 487.139 137.711 487.032 138.042 486.817C138.378 486.602 138.593 486.292 138.686 485.886H139.904C139.82 486.376 139.624 486.789 139.316 487.125C139.013 487.461 138.646 487.715 138.217 487.888C137.792 488.056 137.344 488.14 136.873 488.14ZM134.773 483.807H138.707C138.707 483.392 138.637 483.018 138.497 482.687C138.357 482.351 138.142 482.087 137.853 481.896C137.568 481.7 137.209 481.602 136.775 481.602C136.322 481.602 135.947 481.712 135.648 481.931C135.349 482.146 135.128 482.423 134.983 482.764C134.838 483.1 134.768 483.448 134.773 483.807ZM141.744 488V480.762H142.976V482.155C143.097 481.81 143.268 481.525 143.487 481.301C143.706 481.072 143.956 480.902 144.236 480.79C144.521 480.678 144.815 480.622 145.118 480.622C145.225 480.622 145.33 480.629 145.433 480.643C145.536 480.657 145.615 480.68 145.671 480.713V481.966C145.601 481.933 145.51 481.912 145.398 481.903C145.291 481.889 145.2 481.882 145.125 481.882C144.836 481.863 144.565 481.882 144.313 481.938C144.061 481.989 143.839 482.08 143.648 482.211C143.457 482.342 143.305 482.514 143.193 482.729C143.086 482.939 143.032 483.196 143.032 483.499V488H141.744Z" fill="white"/>
<path d="M262 64C262 28.6538 290.654 0 326 0V0C361.346 0 390 28.6538 390 64V64C390 99.3462 361.346 128 326 128V128C290.654 128 262 99.3462 262 64V64Z" fill="#C990C0"/>
<path d="M315.891 69.14C315.014 69.14 314.302 68.9953 313.756 68.706C313.215 68.4167 312.818 67.992 312.566 67.432C312.319 66.872 312.195 66.1837 312.195 65.367V58.878H313.539V65.563C313.539 66.3797 313.742 66.991 314.148 67.397C314.554 67.803 315.135 68.006 315.891 68.006C316.4 68.006 316.832 67.9173 317.186 67.74C317.546 67.5627 317.819 67.2943 318.005 66.935C318.197 66.571 318.292 66.1137 318.292 65.563V58.878H319.594V65.5C319.594 66.2793 319.466 66.9397 319.209 67.481C318.953 68.0223 318.551 68.4353 318.005 68.72C317.464 69 316.759 69.14 315.891 69.14ZM324.336 69.14C323.832 69.14 323.363 69.063 322.929 68.909C322.5 68.7503 322.143 68.5053 321.858 68.174C321.573 67.838 321.396 67.411 321.326 66.893H322.502C322.563 67.1777 322.679 67.4157 322.852 67.607C323.025 67.7937 323.237 67.936 323.489 68.034C323.746 68.1273 324.026 68.174 324.329 68.174C324.819 68.174 325.213 68.083 325.512 67.901C325.811 67.719 325.96 67.439 325.96 67.061C325.96 66.795 325.881 66.5827 325.722 66.424C325.568 66.2607 325.325 66.1417 324.994 66.067L323.496 65.696C322.913 65.556 322.446 65.3367 322.096 65.038C321.751 64.7393 321.576 64.3217 321.571 63.785C321.571 63.3603 321.674 62.987 321.879 62.665C322.084 62.343 322.39 62.0887 322.796 61.902C323.207 61.7153 323.718 61.622 324.329 61.622C325.118 61.622 325.752 61.7993 326.233 62.154C326.714 62.504 326.966 63.0197 326.989 63.701H325.841C325.794 63.3557 325.64 63.0827 325.379 62.882C325.118 62.6767 324.763 62.574 324.315 62.574C323.858 62.574 323.482 62.6673 323.188 62.854C322.899 63.036 322.754 63.3207 322.754 63.708C322.754 63.9647 322.857 64.1677 323.062 64.317C323.272 64.4617 323.575 64.583 323.972 64.681L325.428 65.045C325.759 65.1337 326.035 65.2503 326.254 65.395C326.473 65.5397 326.646 65.7007 326.772 65.878C326.898 66.0553 326.987 66.242 327.038 66.438C327.094 66.6293 327.122 66.8137 327.122 66.991C327.122 67.4343 327.012 67.817 326.793 68.139C326.574 68.4563 326.256 68.7037 325.841 68.881C325.426 69.0537 324.924 69.14 324.336 69.14ZM331.873 69.14C331.201 69.14 330.608 68.993 330.095 68.699C329.582 68.405 329.18 67.9827 328.891 67.432C328.602 66.8813 328.457 66.221 328.457 65.451C328.457 64.6903 328.588 64.023 328.849 63.449C329.11 62.875 329.488 62.427 329.983 62.105C330.482 61.783 331.082 61.622 331.782 61.622C332.463 61.622 333.04 61.769 333.511 62.063C333.982 62.357 334.339 62.7723 334.582 63.309C334.829 63.841 334.953 64.4733 334.953 65.206V65.682H329.766C329.766 66.1393 329.841 66.5547 329.99 66.928C330.144 67.2967 330.375 67.5907 330.683 67.81C330.991 68.0293 331.381 68.139 331.852 68.139C332.314 68.139 332.711 68.0317 333.042 67.817C333.378 67.6023 333.593 67.292 333.686 66.886H334.904C334.82 67.376 334.624 67.789 334.316 68.125C334.013 68.461 333.646 68.7153 333.217 68.888C332.792 69.056 332.344 69.14 331.873 69.14ZM329.773 64.807H333.707C333.707 64.3917 333.637 64.0183 333.497 63.687C333.357 63.351 333.142 63.0873 332.853 62.896C332.568 62.7 332.209 62.602 331.775 62.602C331.322 62.602 330.947 62.7117 330.648 62.931C330.349 63.1457 330.128 63.4233 329.983 63.764C329.838 64.1 329.768 64.4477 329.773 64.807ZM336.744 69V61.762H337.976V63.155C338.097 62.8097 338.268 62.525 338.487 62.301C338.706 62.0723 338.956 61.902 339.236 61.79C339.521 61.678 339.815 61.622 340.118 61.622C340.225 61.622 340.33 61.629 340.433 61.643C340.536 61.657 340.615 61.6803 340.671 61.713V62.966C340.601 62.9333 340.51 62.9123 340.398 62.903C340.291 62.889 340.2 62.882 340.125 62.882C339.836 62.8633 339.565 62.882 339.313 62.938C339.061 62.9893 338.839 63.0803 338.648 63.211C338.457 63.3417 338.305 63.5143 338.193 63.729C338.086 63.939 338.032 64.1957 338.032 64.499V69H336.744Z" fill="white"/>
<path d="M195 278C195 242.654 223.654 214 259 214V214C294.346 214 323 242.654 323 278V278C323 313.346 294.346 342 259 342V342C223.654 342 195 313.346 195 278V278Z" fill="#FFDF81"/>
<path d="M242.283 283V272.878H248.667L248.66 274.019H243.585V277.323H248.156V278.457H243.578V281.831L248.8 281.845V283H242.283ZM250.521 283V275.762H251.767V276.812C251.968 276.495 252.243 276.217 252.593 275.979C252.943 275.741 253.398 275.622 253.958 275.622C254.22 275.622 254.486 275.666 254.756 275.755C255.032 275.844 255.284 275.977 255.512 276.154C255.741 276.331 255.918 276.548 256.044 276.805C256.268 276.45 256.572 276.166 256.954 275.951C257.337 275.732 257.769 275.622 258.249 275.622C258.501 275.622 258.765 275.662 259.04 275.741C259.316 275.816 259.57 275.951 259.803 276.147C260.041 276.338 260.235 276.607 260.384 276.952C260.534 277.293 260.608 277.731 260.608 278.268V283H259.306V278.394C259.306 277.955 259.236 277.617 259.096 277.379C258.956 277.136 258.772 276.966 258.543 276.868C258.319 276.77 258.079 276.721 257.822 276.721C257.598 276.721 257.36 276.765 257.108 276.854C256.856 276.943 256.642 277.092 256.464 277.302C256.287 277.512 256.198 277.799 256.198 278.163V283H254.91V278.016C254.91 277.731 254.833 277.493 254.679 277.302C254.53 277.111 254.341 276.966 254.112 276.868C253.888 276.77 253.664 276.721 253.44 276.721C253.193 276.721 252.943 276.77 252.691 276.868C252.444 276.966 252.234 277.122 252.061 277.337C251.893 277.547 251.809 277.822 251.809 278.163V283H250.521ZM264.637 283.14C264.166 283.14 263.75 283.058 263.391 282.895C263.036 282.727 262.756 282.487 262.551 282.174C262.35 281.861 262.25 281.483 262.25 281.04C262.25 280.237 262.53 279.64 263.09 279.248C263.65 278.856 264.548 278.646 265.785 278.618L267.073 278.583V278.016C267.073 277.573 266.94 277.223 266.674 276.966C266.408 276.705 265.997 276.574 265.442 276.574C265.027 276.579 264.66 276.677 264.343 276.868C264.026 277.059 263.823 277.372 263.734 277.806H262.593C262.621 277.335 262.752 276.938 262.985 276.616C263.223 276.289 263.557 276.042 263.986 275.874C264.415 275.706 264.922 275.622 265.505 275.622C266.135 275.622 266.658 275.711 267.073 275.888C267.493 276.065 267.806 276.327 268.011 276.672C268.221 277.017 268.326 277.442 268.326 277.946V283H267.22L267.122 281.642C266.847 282.207 266.492 282.599 266.058 282.818C265.629 283.033 265.155 283.14 264.637 283.14ZM265.022 282.209C265.269 282.209 265.512 282.165 265.75 282.076C265.993 281.987 266.212 281.868 266.408 281.719C266.609 281.565 266.77 281.395 266.891 281.208C267.012 281.017 267.073 280.821 267.073 280.62V279.381L266.002 279.402C265.447 279.411 264.985 279.467 264.616 279.57C264.247 279.673 263.97 279.834 263.783 280.053C263.596 280.272 263.503 280.559 263.503 280.914C263.503 281.32 263.645 281.637 263.93 281.866C264.215 282.095 264.579 282.209 265.022 282.209ZM270.38 283V275.762H271.633V283H270.38ZM270.345 274.229V272.885H271.668V274.229H270.345ZM275.713 283.091C275.321 283.091 275.004 283.037 274.761 282.93C274.523 282.823 274.339 282.678 274.208 282.496C274.082 282.314 273.996 282.106 273.949 281.873C273.907 281.635 273.886 281.39 273.886 281.138V272.598H275.16V281.012C275.16 281.376 275.23 281.649 275.37 281.831C275.515 282.013 275.716 282.113 275.972 282.132L276.364 282.139V282.979C276.257 283.012 276.145 283.037 276.028 283.056C275.912 283.079 275.807 283.091 275.713 283.091Z" fill="#1A1B1D"/>
<path d="M317 482C317 446.654 345.654 418 381 418V418C416.346 418 445 446.654 445 482V482C445 517.346 416.346 546 381 546V546C345.654 546 317 517.346 317 482V482Z" fill="#FFDF81"/>
<path d="M364.283 487V476.878H370.667L370.66 478.019H365.585V481.323H370.156V482.457H365.578V485.831L370.8 485.845V487H364.283ZM372.521 487V479.762H373.767V480.812C373.968 480.495 374.243 480.217 374.593 479.979C374.943 479.741 375.398 479.622 375.958 479.622C376.22 479.622 376.486 479.666 376.756 479.755C377.032 479.844 377.284 479.977 377.512 480.154C377.741 480.331 377.918 480.548 378.044 480.805C378.268 480.45 378.572 480.166 378.954 479.951C379.337 479.732 379.769 479.622 380.249 479.622C380.501 479.622 380.765 479.662 381.04 479.741C381.316 479.816 381.57 479.951 381.803 480.147C382.041 480.338 382.235 480.607 382.384 480.952C382.534 481.293 382.608 481.731 382.608 482.268V487H381.306V482.394C381.306 481.955 381.236 481.617 381.096 481.379C380.956 481.136 380.772 480.966 380.543 480.868C380.319 480.77 380.079 480.721 379.822 480.721C379.598 480.721 379.36 480.765 379.108 480.854C378.856 480.943 378.642 481.092 378.464 481.302C378.287 481.512 378.198 481.799 378.198 482.163V487H376.91V482.016C376.91 481.731 376.833 481.493 376.679 481.302C376.53 481.111 376.341 480.966 376.112 480.868C375.888 480.77 375.664 480.721 375.44 480.721C375.193 480.721 374.943 480.77 374.691 480.868C374.444 480.966 374.234 481.122 374.061 481.337C373.893 481.547 373.809 481.822 373.809 482.163V487H372.521ZM386.637 487.14C386.166 487.14 385.75 487.058 385.391 486.895C385.036 486.727 384.756 486.487 384.551 486.174C384.35 485.861 384.25 485.483 384.25 485.04C384.25 484.237 384.53 483.64 385.09 483.248C385.65 482.856 386.548 482.646 387.785 482.618L389.073 482.583V482.016C389.073 481.573 388.94 481.223 388.674 480.966C388.408 480.705 387.997 480.574 387.442 480.574C387.027 480.579 386.66 480.677 386.343 480.868C386.026 481.059 385.823 481.372 385.734 481.806H384.593C384.621 481.335 384.752 480.938 384.985 480.616C385.223 480.289 385.557 480.042 385.986 479.874C386.415 479.706 386.922 479.622 387.505 479.622C388.135 479.622 388.658 479.711 389.073 479.888C389.493 480.065 389.806 480.327 390.011 480.672C390.221 481.017 390.326 481.442 390.326 481.946V487H389.22L389.122 485.642C388.847 486.207 388.492 486.599 388.058 486.818C387.629 487.033 387.155 487.14 386.637 487.14ZM387.022 486.209C387.269 486.209 387.512 486.165 387.75 486.076C387.993 485.987 388.212 485.868 388.408 485.719C388.609 485.565 388.77 485.395 388.891 485.208C389.012 485.017 389.073 484.821 389.073 484.62V483.381L388.002 483.402C387.447 483.411 386.985 483.467 386.616 483.57C386.247 483.673 385.97 483.834 385.783 484.053C385.596 484.272 385.503 484.559 385.503 484.914C385.503 485.32 385.645 485.637 385.93 485.866C386.215 486.095 386.579 486.209 387.022 486.209ZM392.38 487V479.762H393.633V487H392.38ZM392.345 478.229V476.885H393.668V478.229H392.345ZM397.713 487.091C397.321 487.091 397.004 487.037 396.761 486.93C396.523 486.823 396.339 486.678 396.208 486.496C396.082 486.314 395.996 486.106 395.949 485.873C395.907 485.635 395.886 485.39 395.886 485.138V476.598H397.16V485.012C397.16 485.376 397.23 485.649 397.37 485.831C397.515 486.013 397.716 486.113 397.972 486.132L398.364 486.139V486.979C398.257 487.012 398.145 487.037 398.028 487.056C397.912 487.079 397.807 487.091 397.713 487.091Z" fill="#1A1B1D"/>
<path d="M198 686C198 650.654 226.654 622 262 622V622C297.346 622 326 650.654 326 686V686C326 721.346 297.346 750 262 750V750C226.654 750 198 721.346 198 686V686Z" fill="#FFDF81"/>
<path d="M245.283 691V680.878H251.667L251.66 682.019H246.585V685.323H251.156V686.457H246.578V689.831L251.8 689.845V691H245.283ZM253.521 691V683.762H254.767V684.812C254.968 684.495 255.243 684.217 255.593 683.979C255.943 683.741 256.398 683.622 256.958 683.622C257.22 683.622 257.486 683.666 257.756 683.755C258.032 683.844 258.284 683.977 258.512 684.154C258.741 684.331 258.918 684.548 259.044 684.805C259.268 684.45 259.572 684.166 259.954 683.951C260.337 683.732 260.769 683.622 261.249 683.622C261.501 683.622 261.765 683.662 262.04 683.741C262.316 683.816 262.57 683.951 262.803 684.147C263.041 684.338 263.235 684.607 263.384 684.952C263.534 685.293 263.608 685.731 263.608 686.268V691H262.306V686.394C262.306 685.955 262.236 685.617 262.096 685.379C261.956 685.136 261.772 684.966 261.543 684.868C261.319 684.77 261.079 684.721 260.822 684.721C260.598 684.721 260.36 684.765 260.108 684.854C259.856 684.943 259.642 685.092 259.464 685.302C259.287 685.512 259.198 685.799 259.198 686.163V691H257.91V686.016C257.91 685.731 257.833 685.493 257.679 685.302C257.53 685.111 257.341 684.966 257.112 684.868C256.888 684.77 256.664 684.721 256.44 684.721C256.193 684.721 255.943 684.77 255.691 684.868C255.444 684.966 255.234 685.122 255.061 685.337C254.893 685.547 254.809 685.822 254.809 686.163V691H253.521ZM267.637 691.14C267.166 691.14 266.75 691.058 266.391 690.895C266.036 690.727 265.756 690.487 265.551 690.174C265.35 689.861 265.25 689.483 265.25 689.04C265.25 688.237 265.53 687.64 266.09 687.248C266.65 686.856 267.548 686.646 268.785 686.618L270.073 686.583V686.016C270.073 685.573 269.94 685.223 269.674 684.966C269.408 684.705 268.997 684.574 268.442 684.574C268.027 684.579 267.66 684.677 267.343 684.868C267.026 685.059 266.823 685.372 266.734 685.806H265.593C265.621 685.335 265.752 684.938 265.985 684.616C266.223 684.289 266.557 684.042 266.986 683.874C267.415 683.706 267.922 683.622 268.505 683.622C269.135 683.622 269.658 683.711 270.073 683.888C270.493 684.065 270.806 684.327 271.011 684.672C271.221 685.017 271.326 685.442 271.326 685.946V691H270.22L270.122 689.642C269.847 690.207 269.492 690.599 269.058 690.818C268.629 691.033 268.155 691.14 267.637 691.14ZM268.022 690.209C268.269 690.209 268.512 690.165 268.75 690.076C268.993 689.987 269.212 689.868 269.408 689.719C269.609 689.565 269.77 689.395 269.891 689.208C270.012 689.017 270.073 688.821 270.073 688.62V687.381L269.002 687.402C268.447 687.411 267.985 687.467 267.616 687.57C267.247 687.673 266.97 687.834 266.783 688.053C266.596 688.272 266.503 688.559 266.503 688.914C266.503 689.32 266.645 689.637 266.93 689.866C267.215 690.095 267.579 690.209 268.022 690.209ZM273.38 691V683.762H274.633V691H273.38ZM273.345 682.229V680.885H274.668V682.229H273.345ZM278.713 691.091C278.321 691.091 278.004 691.037 277.761 690.93C277.523 690.823 277.339 690.678 277.208 690.496C277.082 690.314 276.996 690.106 276.949 689.873C276.907 689.635 276.886 689.39 276.886 689.138V680.598H278.16V689.012C278.16 689.376 278.23 689.649 278.37 689.831C278.515 690.013 278.716 690.113 278.972 690.132L279.364 690.139V690.979C279.257 691.012 279.145 691.037 279.028 691.056C278.912 691.079 278.807 691.091 278.713 691.091Z" fill="#1A1B1D"/>
<path d="M529 482C529 446.654 557.654 418 593 418V418C628.346 418 657 446.654 657 482V482C657 517.346 628.346 546 593 546V546C557.654 546 529 517.346 529 482V482Z" fill="#C990C0"/>
<path d="M582.891 487.14C582.014 487.14 581.302 486.995 580.756 486.706C580.215 486.417 579.818 485.992 579.566 485.432C579.319 484.872 579.195 484.184 579.195 483.367V476.878H580.539V483.563C580.539 484.38 580.742 484.991 581.148 485.397C581.554 485.803 582.135 486.006 582.891 486.006C583.4 486.006 583.832 485.917 584.186 485.74C584.546 485.563 584.819 485.294 585.005 484.935C585.197 484.571 585.292 484.114 585.292 483.563V476.878H586.594V483.5C586.594 484.279 586.466 484.94 586.209 485.481C585.953 486.022 585.551 486.435 585.005 486.72C584.464 487 583.759 487.14 582.891 487.14ZM591.336 487.14C590.832 487.14 590.363 487.063 589.929 486.909C589.5 486.75 589.143 486.505 588.858 486.174C588.573 485.838 588.396 485.411 588.326 484.893H589.502C589.563 485.178 589.679 485.416 589.852 485.607C590.025 485.794 590.237 485.936 590.489 486.034C590.746 486.127 591.026 486.174 591.329 486.174C591.819 486.174 592.213 486.083 592.512 485.901C592.811 485.719 592.96 485.439 592.96 485.061C592.96 484.795 592.881 484.583 592.722 484.424C592.568 484.261 592.325 484.142 591.994 484.067L590.496 483.696C589.913 483.556 589.446 483.337 589.096 483.038C588.751 482.739 588.576 482.322 588.571 481.785C588.571 481.36 588.674 480.987 588.879 480.665C589.084 480.343 589.39 480.089 589.796 479.902C590.207 479.715 590.718 479.622 591.329 479.622C592.118 479.622 592.752 479.799 593.233 480.154C593.714 480.504 593.966 481.02 593.989 481.701H592.841C592.794 481.356 592.64 481.083 592.379 480.882C592.118 480.677 591.763 480.574 591.315 480.574C590.858 480.574 590.482 480.667 590.188 480.854C589.899 481.036 589.754 481.321 589.754 481.708C589.754 481.965 589.857 482.168 590.062 482.317C590.272 482.462 590.575 482.583 590.972 482.681L592.428 483.045C592.759 483.134 593.035 483.25 593.254 483.395C593.473 483.54 593.646 483.701 593.772 483.878C593.898 484.055 593.987 484.242 594.038 484.438C594.094 484.629 594.122 484.814 594.122 484.991C594.122 485.434 594.012 485.817 593.793 486.139C593.574 486.456 593.256 486.704 592.841 486.881C592.426 487.054 591.924 487.14 591.336 487.14ZM598.873 487.14C598.201 487.14 597.608 486.993 597.095 486.699C596.582 486.405 596.18 485.983 595.891 485.432C595.602 484.881 595.457 484.221 595.457 483.451C595.457 482.69 595.588 482.023 595.849 481.449C596.11 480.875 596.488 480.427 596.983 480.105C597.482 479.783 598.082 479.622 598.782 479.622C599.463 479.622 600.04 479.769 600.511 480.063C600.982 480.357 601.339 480.772 601.582 481.309C601.829 481.841 601.953 482.473 601.953 483.206V483.682H596.766C596.766 484.139 596.841 484.555 596.99 484.928C597.144 485.297 597.375 485.591 597.683 485.81C597.991 486.029 598.381 486.139 598.852 486.139C599.314 486.139 599.711 486.032 600.042 485.817C600.378 485.602 600.593 485.292 600.686 484.886H601.904C601.82 485.376 601.624 485.789 601.316 486.125C601.013 486.461 600.646 486.715 600.217 486.888C599.792 487.056 599.344 487.14 598.873 487.14ZM596.773 482.807H600.707C600.707 482.392 600.637 482.018 600.497 481.687C600.357 481.351 600.142 481.087 599.853 480.896C599.568 480.7 599.209 480.602 598.775 480.602C598.322 480.602 597.947 480.712 597.648 480.931C597.349 481.146 597.128 481.423 596.983 481.764C596.838 482.1 596.768 482.448 596.773 482.807ZM603.744 487V479.762H604.976V481.155C605.097 480.81 605.268 480.525 605.487 480.301C605.706 480.072 605.956 479.902 606.236 479.79C606.521 479.678 606.815 479.622 607.118 479.622C607.225 479.622 607.33 479.629 607.433 479.643C607.536 479.657 607.615 479.68 607.671 479.713V480.966C607.601 480.933 607.51 480.912 607.398 480.903C607.291 480.889 607.2 480.882 607.125 480.882C606.836 480.863 606.565 480.882 606.313 480.938C606.061 480.989 605.839 481.08 605.648 481.211C605.457 481.342 605.305 481.514 605.193 481.729C605.086 481.939 605.032 482.196 605.032 482.499V487H603.744Z" fill="white"/>
<path d="M262 904C262 868.654 290.654 840 326 840V840C361.346 840 390 868.654 390 904V904C390 939.346 361.346 968 326 968V968C290.654 968 262 939.346 262 904V904Z" fill="#C990C0"/>
<path d="M315.891 909.14C315.014 909.14 314.302 908.995 313.756 908.706C313.215 908.417 312.818 907.992 312.566 907.432C312.319 906.872 312.195 906.184 312.195 905.367V898.878H313.539V905.563C313.539 906.38 313.742 906.991 314.148 907.397C314.554 907.803 315.135 908.006 315.891 908.006C316.4 908.006 316.832 907.917 317.186 907.74C317.546 907.563 317.819 907.294 318.005 906.935C318.197 906.571 318.292 906.114 318.292 905.563V898.878H319.594V905.5C319.594 906.279 319.466 906.94 319.209 907.481C318.953 908.022 318.551 908.435 318.005 908.72C317.464 909 316.759 909.14 315.891 909.14ZM324.336 909.14C323.832 909.14 323.363 909.063 322.929 908.909C322.5 908.75 322.143 908.505 321.858 908.174C321.573 907.838 321.396 907.411 321.326 906.893H322.502C322.563 907.178 322.679 907.416 322.852 907.607C323.025 907.794 323.237 907.936 323.489 908.034C323.746 908.127 324.026 908.174 324.329 908.174C324.819 908.174 325.213 908.083 325.512 907.901C325.811 907.719 325.96 907.439 325.96 907.061C325.96 906.795 325.881 906.583 325.722 906.424C325.568 906.261 325.325 906.142 324.994 906.067L323.496 905.696C322.913 905.556 322.446 905.337 322.096 905.038C321.751 904.739 321.576 904.322 321.571 903.785C321.571 903.36 321.674 902.987 321.879 902.665C322.084 902.343 322.39 902.089 322.796 901.902C323.207 901.715 323.718 901.622 324.329 901.622C325.118 901.622 325.752 901.799 326.233 902.154C326.714 902.504 326.966 903.02 326.989 903.701H325.841C325.794 903.356 325.64 903.083 325.379 902.882C325.118 902.677 324.763 902.574 324.315 902.574C323.858 902.574 323.482 902.667 323.188 902.854C322.899 903.036 322.754 903.321 322.754 903.708C322.754 903.965 322.857 904.168 323.062 904.317C323.272 904.462 323.575 904.583 323.972 904.681L325.428 905.045C325.759 905.134 326.035 905.25 326.254 905.395C326.473 905.54 326.646 905.701 326.772 905.878C326.898 906.055 326.987 906.242 327.038 906.438C327.094 906.629 327.122 906.814 327.122 906.991C327.122 907.434 327.012 907.817 326.793 908.139C326.574 908.456 326.256 908.704 325.841 908.881C325.426 909.054 324.924 909.14 324.336 909.14ZM331.873 909.14C331.201 909.14 330.608 908.993 330.095 908.699C329.582 908.405 329.18 907.983 328.891 907.432C328.602 906.881 328.457 906.221 328.457 905.451C328.457 904.69 328.588 904.023 328.849 903.449C329.11 902.875 329.488 902.427 329.983 902.105C330.482 901.783 331.082 901.622 331.782 901.622C332.463 901.622 333.04 901.769 333.511 902.063C333.982 902.357 334.339 902.772 334.582 903.309C334.829 903.841 334.953 904.473 334.953 905.206V905.682H329.766C329.766 906.139 329.841 906.555 329.99 906.928C330.144 907.297 330.375 907.591 330.683 907.81C330.991 908.029 331.381 908.139 331.852 908.139C332.314 908.139 332.711 908.032 333.042 907.817C333.378 907.602 333.593 907.292 333.686 906.886H334.904C334.82 907.376 334.624 907.789 334.316 908.125C334.013 908.461 333.646 908.715 333.217 908.888C332.792 909.056 332.344 909.14 331.873 909.14ZM329.773 904.807H333.707C333.707 904.392 333.637 904.018 333.497 903.687C333.357 903.351 333.142 903.087 332.853 902.896C332.568 902.7 332.209 902.602 331.775 902.602C331.322 902.602 330.947 902.712 330.648 902.931C330.349 903.146 330.128 903.423 329.983 903.764C329.838 904.1 329.768 904.448 329.773 904.807ZM336.744 909V901.762H337.976V903.155C338.097 902.81 338.268 902.525 338.487 902.301C338.706 902.072 338.956 901.902 339.236 901.79C339.521 901.678 339.815 901.622 340.118 901.622C340.225 901.622 340.33 901.629 340.433 901.643C340.536 901.657 340.615 901.68 340.671 901.713V902.966C340.601 902.933 340.51 902.912 340.398 902.903C340.291 902.889 340.2 902.882 340.125 902.882C339.836 902.863 339.565 902.882 339.313 902.938C339.061 902.989 338.839 903.08 338.648 903.211C338.457 903.342 338.305 903.514 338.193 903.729C338.086 903.939 338.032 904.196 338.032 904.499V909H336.744Z" fill="white"/>
<path d="M305.746 837.519C306.231 837.784 306.838 837.606 307.103 837.121L311.416 829.222C311.681 828.737 311.503 828.13 311.018 827.865C310.533 827.6 309.926 827.779 309.661 828.264L305.827 835.285L298.805 831.45C298.321 831.186 297.713 831.364 297.449 831.849C297.184 832.334 297.362 832.941 297.847 833.206L305.746 837.519ZM299.643 810.671C299.487 810.141 298.932 809.838 298.402 809.993C297.872 810.149 297.568 810.705 297.724 811.234L299.643 810.671ZM287.706 777.109C287.861 777.639 288.417 777.943 288.947 777.787C289.477 777.632 289.78 777.076 289.625 776.546L287.706 777.109ZM282.734 753.077C282.579 752.547 282.023 752.243 281.493 752.399C280.963 752.554 280.66 753.11 280.815 753.64L282.734 753.077ZM307.185 836.36L299.643 810.671L297.724 811.234L305.266 836.923L307.185 836.36ZM289.625 776.546L282.734 753.077L280.815 753.64L287.706 777.109L289.625 776.546Z" fill="#1A1B1D"/>
<path d="M293.031 792.52H291.48C291.421 792.188 291.31 791.896 291.147 791.645C290.985 791.393 290.786 791.179 290.551 791.003C290.315 790.828 290.052 790.695 289.76 790.605C289.472 790.516 289.165 790.471 288.84 790.471C288.254 790.471 287.728 790.619 287.264 790.914C286.804 791.209 286.439 791.641 286.171 792.211C285.905 792.781 285.773 793.477 285.773 794.299C285.773 795.128 285.905 795.827 286.171 796.397C286.439 796.967 286.805 797.398 287.269 797.69C287.733 797.982 288.255 798.127 288.835 798.127C289.157 798.127 289.462 798.084 289.75 797.998C290.042 797.909 290.305 797.778 290.541 797.605C290.776 797.433 290.975 797.223 291.137 796.974C291.303 796.722 291.417 796.434 291.48 796.109L293.031 796.114C292.949 796.614 292.788 797.075 292.549 797.496C292.314 797.914 292.011 798.275 291.639 798.58C291.271 798.881 290.851 799.115 290.377 799.281C289.903 799.447 289.386 799.529 288.825 799.529C287.944 799.529 287.158 799.321 286.469 798.903C285.78 798.482 285.236 797.881 284.838 797.098C284.444 796.316 284.247 795.383 284.247 794.299C284.247 793.212 284.445 792.279 284.843 791.5C285.241 790.718 285.785 790.118 286.474 789.701C287.163 789.28 287.947 789.069 288.825 789.069C289.366 789.069 289.87 789.147 290.337 789.303C290.807 789.455 291.23 789.681 291.605 789.979C291.979 790.274 292.289 790.635 292.534 791.063C292.78 791.487 292.945 791.973 293.031 792.52ZM303.172 792.52H301.621C301.562 792.188 301.451 791.896 301.288 791.645C301.126 791.393 300.927 791.179 300.692 791.003C300.456 790.828 300.193 790.695 299.901 790.605C299.613 790.516 299.306 790.471 298.981 790.471C298.395 790.471 297.869 790.619 297.405 790.914C296.945 791.209 296.58 791.641 296.312 792.211C296.046 792.781 295.914 793.477 295.914 794.299C295.914 795.128 296.046 795.827 296.312 796.397C296.58 796.967 296.946 797.398 297.41 797.69C297.874 797.982 298.396 798.127 298.976 798.127C299.298 798.127 299.603 798.084 299.891 797.998C300.183 797.909 300.446 797.778 300.682 797.605C300.917 797.433 301.116 797.223 301.278 796.974C301.444 796.722 301.558 796.434 301.621 796.109L303.172 796.114C303.089 796.614 302.929 797.075 302.69 797.496C302.455 797.914 302.152 798.275 301.78 798.58C301.412 798.881 300.991 799.115 300.518 799.281C300.044 799.447 299.527 799.529 298.966 799.529C298.085 799.529 297.299 799.321 296.61 798.903C295.92 798.482 295.377 797.881 294.979 797.098C294.585 796.316 294.388 795.383 294.388 794.299C294.388 793.212 294.586 792.279 294.984 791.5C295.382 790.718 295.925 790.118 296.615 789.701C297.304 789.28 298.088 789.069 298.966 789.069C299.507 789.069 300.01 789.147 300.478 789.303C300.948 789.455 301.371 789.681 301.746 789.979C302.12 790.274 302.43 790.635 302.675 791.063C302.92 791.487 303.086 791.973 303.172 792.52Z" fill="black" fill-opacity="0.8"/>
<path d="M424 772C424 736.654 452.654 708 488 708V708C523.346 708 552 736.654 552 772V772C552 807.346 523.346 836 488 836V836C452.654 836 424 807.346 424 772V772Z" fill="#C990C0"/>
<path d="M477.891 777.14C477.014 777.14 476.302 776.995 475.756 776.706C475.215 776.417 474.818 775.992 474.566 775.432C474.319 774.872 474.195 774.184 474.195 773.367V766.878H475.539V773.563C475.539 774.38 475.742 774.991 476.148 775.397C476.554 775.803 477.135 776.006 477.891 776.006C478.4 776.006 478.832 775.917 479.186 775.74C479.546 775.563 479.819 775.294 480.005 774.935C480.197 774.571 480.292 774.114 480.292 773.563V766.878H481.594V773.5C481.594 774.279 481.466 774.94 481.209 775.481C480.953 776.022 480.551 776.435 480.005 776.72C479.464 777 478.759 777.14 477.891 777.14ZM486.336 777.14C485.832 777.14 485.363 777.063 484.929 776.909C484.5 776.75 484.143 776.505 483.858 776.174C483.573 775.838 483.396 775.411 483.326 774.893H484.502C484.563 775.178 484.679 775.416 484.852 775.607C485.025 775.794 485.237 775.936 485.489 776.034C485.746 776.127 486.026 776.174 486.329 776.174C486.819 776.174 487.213 776.083 487.512 775.901C487.811 775.719 487.96 775.439 487.96 775.061C487.96 774.795 487.881 774.583 487.722 774.424C487.568 774.261 487.325 774.142 486.994 774.067L485.496 773.696C484.913 773.556 484.446 773.337 484.096 773.038C483.751 772.739 483.576 772.322 483.571 771.785C483.571 771.36 483.674 770.987 483.879 770.665C484.084 770.343 484.39 770.089 484.796 769.902C485.207 769.715 485.718 769.622 486.329 769.622C487.118 769.622 487.752 769.799 488.233 770.154C488.714 770.504 488.966 771.02 488.989 771.701H487.841C487.794 771.356 487.64 771.083 487.379 770.882C487.118 770.677 486.763 770.574 486.315 770.574C485.858 770.574 485.482 770.667 485.188 770.854C484.899 771.036 484.754 771.321 484.754 771.708C484.754 771.965 484.857 772.168 485.062 772.317C485.272 772.462 485.575 772.583 485.972 772.681L487.428 773.045C487.759 773.134 488.035 773.25 488.254 773.395C488.473 773.54 488.646 773.701 488.772 773.878C488.898 774.055 488.987 774.242 489.038 774.438C489.094 774.629 489.122 774.814 489.122 774.991C489.122 775.434 489.012 775.817 488.793 776.139C488.574 776.456 488.256 776.704 487.841 776.881C487.426 777.054 486.924 777.14 486.336 777.14ZM493.873 777.14C493.201 777.14 492.608 776.993 492.095 776.699C491.582 776.405 491.18 775.983 490.891 775.432C490.602 774.881 490.457 774.221 490.457 773.451C490.457 772.69 490.588 772.023 490.849 771.449C491.11 770.875 491.488 770.427 491.983 770.105C492.482 769.783 493.082 769.622 493.782 769.622C494.463 769.622 495.04 769.769 495.511 770.063C495.982 770.357 496.339 770.772 496.582 771.309C496.829 771.841 496.953 772.473 496.953 773.206V773.682H491.766C491.766 774.139 491.841 774.555 491.99 774.928C492.144 775.297 492.375 775.591 492.683 775.81C492.991 776.029 493.381 776.139 493.852 776.139C494.314 776.139 494.711 776.032 495.042 775.817C495.378 775.602 495.593 775.292 495.686 774.886H496.904C496.82 775.376 496.624 775.789 496.316 776.125C496.013 776.461 495.646 776.715 495.217 776.888C494.792 777.056 494.344 777.14 493.873 777.14ZM491.773 772.807H495.707C495.707 772.392 495.637 772.018 495.497 771.687C495.357 771.351 495.142 771.087 494.853 770.896C494.568 770.7 494.209 770.602 493.775 770.602C493.322 770.602 492.947 770.712 492.648 770.931C492.349 771.146 492.128 771.423 491.983 771.764C491.838 772.1 491.768 772.448 491.773 772.807ZM498.744 777V769.762H499.976V771.155C500.097 770.81 500.268 770.525 500.487 770.301C500.706 770.072 500.956 769.902 501.236 769.79C501.521 769.678 501.815 769.622 502.118 769.622C502.225 769.622 502.33 769.629 502.433 769.643C502.536 769.657 502.615 769.68 502.671 769.713V770.966C502.601 770.933 502.51 770.912 502.398 770.903C502.291 770.889 502.2 770.882 502.125 770.882C501.836 770.863 501.565 770.882 501.313 770.938C501.061 770.989 500.839 771.08 500.648 771.211C500.457 771.342 500.305 771.514 500.193 771.729C500.086 771.939 500.032 772.196 500.032 772.499V777H498.744Z" fill="white"/>
<path d="M421.138 747.314C421.642 747.087 421.867 746.496 421.641 745.992L417.957 737.781C417.73 737.277 417.139 737.052 416.635 737.278C416.131 737.504 415.906 738.096 416.132 738.599L419.407 745.898L412.108 749.173C411.604 749.399 411.379 749.991 411.605 750.495C411.831 750.999 412.423 751.224 412.927 750.998L421.138 747.314ZM418.62 745.599L418.975 744.664L418.975 744.664L418.62 745.599ZM390.699 733.904C390.183 733.708 389.605 733.967 389.409 734.483C389.213 734.999 389.472 735.577 389.988 735.773L390.699 733.904ZM356.863 723.168C357.379 723.365 357.957 723.106 358.153 722.589C358.35 722.073 358.09 721.495 357.574 721.299L356.863 723.168ZM329.627 710.664C329.11 710.468 328.533 710.727 328.336 711.243C328.14 711.759 328.399 712.337 328.915 712.533L329.627 710.664ZM421.084 745.467L418.975 744.664L418.264 746.533L420.373 747.336L421.084 745.467ZM418.975 744.664L390.699 733.904L389.988 735.773L418.264 746.533L418.975 744.664ZM357.574 721.299L329.627 710.664L328.915 712.533L356.863 723.168L357.574 721.299Z" fill="#1A1B1D"/>
<path d="M364.754 725.177V723.854H372.634V725.177H369.457V734.036H367.926V725.177H364.754ZM382.628 728.945C382.628 730.032 382.429 730.967 382.031 731.749C381.634 732.528 381.088 733.128 380.396 733.549C379.706 733.967 378.923 734.175 378.044 734.175C377.163 734.175 376.375 733.967 375.683 733.549C374.993 733.128 374.45 732.527 374.052 731.744C373.654 730.962 373.455 730.029 373.455 728.945C373.455 727.858 373.654 726.925 374.052 726.146C374.45 725.364 374.993 724.764 375.683 724.347C376.375 723.926 377.163 723.715 378.044 723.715C378.923 723.715 379.706 723.926 380.396 724.347C381.088 724.764 381.634 725.364 382.031 726.146C382.429 726.925 382.628 727.858 382.628 728.945ZM381.107 728.945C381.107 728.117 380.972 727.419 380.704 726.852C380.439 726.282 380.074 725.851 379.61 725.56C379.15 725.265 378.628 725.117 378.044 725.117C377.458 725.117 376.934 725.265 376.473 725.56C376.012 725.851 375.648 726.282 375.379 726.852C375.114 727.419 374.982 728.117 374.982 728.945C374.982 729.774 375.114 730.473 375.379 731.043C375.648 731.61 376.012 732.041 376.473 732.336C376.934 732.628 377.458 732.773 378.044 732.773C378.628 732.773 379.15 732.628 379.61 732.336C380.074 732.041 380.439 731.61 380.704 731.043C380.972 730.473 381.107 729.774 381.107 728.945Z" fill="black" fill-opacity="0.8"/>
<path d="M526.207 482.707C526.598 482.317 526.598 481.683 526.207 481.293L519.843 474.929C519.453 474.538 518.819 474.538 518.429 474.929C518.038 475.319 518.038 475.953 518.429 476.343L524.086 482L518.429 487.657C518.038 488.047 518.038 488.681 518.429 489.071C518.819 489.462 519.453 489.462 519.843 489.071L526.207 482.707ZM502.536 481C501.984 481 501.536 481.448 501.536 482C501.536 482.552 501.984 483 502.536 483V481ZM469.411 483C469.964 483 470.411 482.552 470.411 482C470.411 481.448 469.964 481 469.411 481V483ZM448.5 481C447.948 481 447.5 481.448 447.5 482C447.5 482.552 447.948 483 448.5 483V481ZM525.5 481H502.536V483H525.5V481ZM469.411 481H448.5V483H469.411V481Z" fill="#1A1B1D"/>
<path d="M476.947 478.641V477.318H484.827V478.641H481.65V487.5H480.119V478.641H476.947ZM494.821 482.409C494.821 483.496 494.622 484.431 494.224 485.213C493.827 485.992 493.281 486.592 492.589 487.013C491.899 487.43 491.115 487.639 490.237 487.639C489.355 487.639 488.568 487.43 487.876 487.013C487.186 486.592 486.643 485.99 486.245 485.208C485.847 484.426 485.648 483.493 485.648 482.409C485.648 481.322 485.847 480.389 486.245 479.61C486.643 478.828 487.186 478.228 487.876 477.81C488.568 477.389 489.355 477.179 490.237 477.179C491.115 477.179 491.899 477.389 492.589 477.81C493.281 478.228 493.827 478.828 494.224 479.61C494.622 480.389 494.821 481.322 494.821 482.409ZM493.3 482.409C493.3 481.58 493.165 480.883 492.897 480.316C492.632 479.746 492.267 479.315 491.803 479.023C491.342 478.728 490.82 478.581 490.237 478.581C489.65 478.581 489.127 478.728 488.666 479.023C488.205 479.315 487.841 479.746 487.572 480.316C487.307 480.883 487.175 481.58 487.175 482.409C487.175 483.238 487.307 483.937 487.572 484.507C487.841 485.074 488.205 485.505 488.666 485.8C489.127 486.091 489.65 486.237 490.237 486.237C490.82 486.237 491.342 486.091 491.803 485.8C492.267 485.505 492.632 485.074 492.897 484.507C493.165 483.937 493.3 483.238 493.3 482.409Z" fill="black" fill-opacity="0.8"/>
<path d="M424 192C424 156.654 452.654 128 488 128V128C523.346 128 552 156.654 552 192V192C552 227.346 523.346 256 488 256V256C452.654 256 424 227.346 424 192V192Z" fill="#C990C0"/>
<path d="M477.891 197.14C477.014 197.14 476.302 196.995 475.756 196.706C475.215 196.417 474.818 195.992 474.566 195.432C474.319 194.872 474.195 194.184 474.195 193.367V186.878H475.539V193.563C475.539 194.38 475.742 194.991 476.148 195.397C476.554 195.803 477.135 196.006 477.891 196.006C478.4 196.006 478.832 195.917 479.186 195.74C479.546 195.563 479.819 195.294 480.005 194.935C480.197 194.571 480.292 194.114 480.292 193.563V186.878H481.594V193.5C481.594 194.279 481.466 194.94 481.209 195.481C480.953 196.022 480.551 196.435 480.005 196.72C479.464 197 478.759 197.14 477.891 197.14ZM486.336 197.14C485.832 197.14 485.363 197.063 484.929 196.909C484.5 196.75 484.143 196.505 483.858 196.174C483.573 195.838 483.396 195.411 483.326 194.893H484.502C484.563 195.178 484.679 195.416 484.852 195.607C485.025 195.794 485.237 195.936 485.489 196.034C485.746 196.127 486.026 196.174 486.329 196.174C486.819 196.174 487.213 196.083 487.512 195.901C487.811 195.719 487.96 195.439 487.96 195.061C487.96 194.795 487.881 194.583 487.722 194.424C487.568 194.261 487.325 194.142 486.994 194.067L485.496 193.696C484.913 193.556 484.446 193.337 484.096 193.038C483.751 192.739 483.576 192.322 483.571 191.785C483.571 191.36 483.674 190.987 483.879 190.665C484.084 190.343 484.39 190.089 484.796 189.902C485.207 189.715 485.718 189.622 486.329 189.622C487.118 189.622 487.752 189.799 488.233 190.154C488.714 190.504 488.966 191.02 488.989 191.701H487.841C487.794 191.356 487.64 191.083 487.379 190.882C487.118 190.677 486.763 190.574 486.315 190.574C485.858 190.574 485.482 190.667 485.188 190.854C484.899 191.036 484.754 191.321 484.754 191.708C484.754 191.965 484.857 192.168 485.062 192.317C485.272 192.462 485.575 192.583 485.972 192.681L487.428 193.045C487.759 193.134 488.035 193.25 488.254 193.395C488.473 193.54 488.646 193.701 488.772 193.878C488.898 194.055 488.987 194.242 489.038 194.438C489.094 194.629 489.122 194.814 489.122 194.991C489.122 195.434 489.012 195.817 488.793 196.139C488.574 196.456 488.256 196.704 487.841 196.881C487.426 197.054 486.924 197.14 486.336 197.14ZM493.873 197.14C493.201 197.14 492.608 196.993 492.095 196.699C491.582 196.405 491.18 195.983 490.891 195.432C490.602 194.881 490.457 194.221 490.457 193.451C490.457 192.69 490.588 192.023 490.849 191.449C491.11 190.875 491.488 190.427 491.983 190.105C492.482 189.783 493.082 189.622 493.782 189.622C494.463 189.622 495.04 189.769 495.511 190.063C495.982 190.357 496.339 190.772 496.582 191.309C496.829 191.841 496.953 192.473 496.953 193.206V193.682H491.766C491.766 194.139 491.841 194.555 491.99 194.928C492.144 195.297 492.375 195.591 492.683 195.81C492.991 196.029 493.381 196.139 493.852 196.139C494.314 196.139 494.711 196.032 495.042 195.817C495.378 195.602 495.593 195.292 495.686 194.886H496.904C496.82 195.376 496.624 195.789 496.316 196.125C496.013 196.461 495.646 196.715 495.217 196.888C494.792 197.056 494.344 197.14 493.873 197.14ZM491.773 192.807H495.707C495.707 192.392 495.637 192.018 495.497 191.687C495.357 191.351 495.142 191.087 494.853 190.896C494.568 190.7 494.209 190.602 493.775 190.602C493.322 190.602 492.947 190.712 492.648 190.931C492.349 191.146 492.128 191.423 491.983 191.764C491.838 192.1 491.768 192.448 491.773 192.807ZM498.744 197V189.762H499.976V191.155C500.097 190.81 500.268 190.525 500.487 190.301C500.706 190.072 500.956 189.902 501.236 189.79C501.521 189.678 501.815 189.622 502.118 189.622C502.225 189.622 502.33 189.629 502.433 189.643C502.536 189.657 502.615 189.68 502.671 189.713V190.966C502.601 190.933 502.51 190.912 502.398 190.903C502.291 190.889 502.2 190.882 502.125 190.882C501.836 190.863 501.565 190.882 501.313 190.938C501.061 190.989 500.839 191.08 500.648 191.211C500.457 191.342 500.305 191.514 500.193 191.729C500.086 191.939 500.032 192.196 500.032 192.499V197H498.744Z" fill="white"/>
<path d="M218.16 344.744C218.035 344.205 217.498 343.87 216.96 343.995L208.191 346.022C207.653 346.147 207.318 346.684 207.442 347.222C207.567 347.76 208.104 348.095 208.642 347.971L216.436 346.168L218.239 353.963C218.363 354.501 218.9 354.836 219.438 354.712C219.976 354.587 220.312 354.05 220.187 353.512L218.16 344.744ZM204.214 363.855C203.922 364.323 204.064 364.94 204.533 365.233C205.001 365.525 205.618 365.383 205.911 364.914L204.214 363.855ZM184.603 399.039C184.896 398.571 184.753 397.954 184.285 397.661C183.816 397.369 183.199 397.511 182.907 397.98L184.603 399.039ZM171.966 415.502C171.674 415.97 171.817 416.587 172.285 416.879C172.754 417.172 173.37 417.029 173.663 416.561L171.966 415.502ZM216.337 344.439L204.214 363.855L205.911 364.914L218.034 345.498L216.337 344.439ZM182.907 397.98L171.966 415.502L173.663 416.561L184.603 399.039L182.907 397.98Z" fill="#1A1B1D"/>
<path d="M182.8 379.44C182.747 378.969 182.528 378.605 182.144 378.346C181.759 378.084 181.275 377.953 180.692 377.953C180.274 377.953 179.913 378.02 179.608 378.152C179.303 378.281 179.066 378.46 178.897 378.689C178.731 378.915 178.649 379.171 178.649 379.46C178.649 379.702 178.705 379.911 178.818 380.086C178.934 380.262 179.084 380.409 179.27 380.529C179.459 380.645 179.661 380.742 179.877 380.822C180.092 380.898 180.299 380.961 180.498 381.011L181.492 381.269C181.817 381.349 182.15 381.457 182.492 381.593C182.833 381.728 183.15 381.907 183.441 382.129C183.733 382.352 183.968 382.627 184.147 382.955C184.329 383.283 184.421 383.676 184.421 384.133C184.421 384.71 184.271 385.222 183.973 385.669C183.678 386.117 183.249 386.47 182.686 386.728C182.125 386.987 181.448 387.116 180.652 387.116C179.89 387.116 179.23 386.995 178.673 386.753C178.117 386.511 177.681 386.168 177.366 385.724C177.051 385.277 176.877 384.746 176.844 384.133H178.385C178.415 384.501 178.534 384.808 178.743 385.053C178.955 385.295 179.225 385.475 179.553 385.595C179.885 385.711 180.248 385.769 180.642 385.769C181.076 385.769 181.462 385.701 181.801 385.565C182.142 385.426 182.41 385.233 182.606 384.988C182.802 384.74 182.899 384.45 182.899 384.118C182.899 383.817 182.813 383.57 182.641 383.377C182.472 383.185 182.241 383.026 181.95 382.9C181.661 382.774 181.335 382.663 180.97 382.567L179.767 382.239C178.952 382.017 178.306 381.69 177.828 381.259C177.354 380.829 177.117 380.259 177.117 379.549C177.117 378.963 177.276 378.451 177.595 378.013C177.913 377.576 178.344 377.236 178.887 376.994C179.431 376.749 180.044 376.626 180.727 376.626C181.416 376.626 182.024 376.747 182.551 376.989C183.082 377.231 183.499 377.564 183.804 377.988C184.109 378.409 184.268 378.893 184.281 379.44H182.8ZM186.102 386.947V376.765H192.486V378.088H187.639V381.19H192.153V382.507H187.639V385.625H192.546V386.947H186.102ZM202.602 376.765V386.947H201.19L196.015 379.48H195.92V386.947H194.384V376.765H195.806L200.986 384.242H201.081V376.765H202.602ZM204.187 378.088V376.765H212.067V378.088H208.89V386.947H207.359V378.088H204.187Z" fill="black" fill-opacity="0.8"/>
<path d="M314.21 482.974C314.599 482.582 314.596 481.949 314.204 481.56L307.815 475.222C307.423 474.833 306.79 474.835 306.401 475.227C306.012 475.619 306.014 476.253 306.406 476.641L312.086 482.276L306.452 487.955C306.063 488.347 306.065 488.98 306.457 489.369C306.849 489.758 307.483 489.756 307.872 489.364L314.21 482.974ZM279.526 481.406C278.974 481.408 278.528 481.858 278.53 482.41C278.532 482.962 278.982 483.408 279.534 483.406L279.526 481.406ZM229.409 483.606C229.961 483.604 230.407 483.155 230.405 482.602C230.403 482.05 229.953 481.604 229.401 481.606L229.409 483.606ZM220.968 482.64L220.972 483.64L220.972 483.64L220.968 482.64ZM219.471 482.646L219.467 481.646L219.467 481.646L219.471 482.646ZM198.496 481.73C197.944 481.732 197.498 482.182 197.5 482.734C197.502 483.286 197.952 483.732 198.504 483.73L198.496 481.73ZM313.496 481.27L279.526 481.406L279.534 483.406L313.504 483.27L313.496 481.27ZM229.401 481.606L220.964 481.64L220.972 483.64L229.409 483.606L229.401 481.606ZM220.964 481.64L219.467 481.646L219.475 483.646L220.972 483.64L220.964 481.64ZM219.467 481.646L198.496 481.73L198.504 483.73L219.475 483.646L219.467 481.646Z" fill="#1A1B1D"/>
<path d="M242.859 480.499C242.806 480.028 242.587 479.664 242.202 479.405C241.818 479.143 241.334 479.013 240.751 479.013C240.333 479.013 239.972 479.079 239.667 479.211C239.362 479.341 239.125 479.52 238.956 479.748C238.79 479.974 238.707 480.231 238.707 480.519C238.707 480.761 238.764 480.97 238.876 481.145C238.992 481.321 239.143 481.469 239.329 481.588C239.518 481.704 239.72 481.802 239.935 481.881C240.151 481.957 240.358 482.02 240.557 482.07L241.551 482.329C241.876 482.408 242.209 482.516 242.55 482.652C242.892 482.788 243.208 482.967 243.5 483.189C243.792 483.411 244.027 483.686 244.206 484.014C244.388 484.342 244.479 484.735 244.479 485.192C244.479 485.769 244.33 486.281 244.032 486.728C243.737 487.176 243.308 487.529 242.744 487.787C242.184 488.046 241.506 488.175 240.711 488.175C239.949 488.175 239.289 488.054 238.732 487.812C238.175 487.57 237.74 487.227 237.425 486.783C237.11 486.336 236.936 485.805 236.903 485.192H238.444C238.474 485.56 238.593 485.867 238.802 486.112C239.014 486.354 239.284 486.535 239.612 486.654C239.944 486.77 240.307 486.828 240.701 486.828C241.135 486.828 241.521 486.76 241.859 486.624C242.201 486.485 242.469 486.293 242.665 486.047C242.86 485.799 242.958 485.509 242.958 485.177C242.958 484.876 242.872 484.629 242.7 484.437C242.531 484.244 242.3 484.085 242.009 483.959C241.72 483.833 241.394 483.722 241.029 483.626L239.826 483.298C239.011 483.076 238.364 482.75 237.887 482.319C237.413 481.888 237.176 481.318 237.176 480.608C237.176 480.022 237.335 479.51 237.653 479.072C237.972 478.635 238.402 478.295 238.946 478.053C239.49 477.808 240.103 477.685 240.786 477.685C241.475 477.685 242.083 477.806 242.61 478.048C243.14 478.29 243.558 478.623 243.863 479.047C244.168 479.468 244.327 479.952 244.34 480.499H242.859ZM246.161 488.006V477.824H252.545V479.147H247.697V482.249H252.212V483.567H247.697V486.684H252.604V488.006H246.161ZM262.661 477.824V488.006H261.249L256.073 480.539H255.979V488.006H254.443V477.824H255.865L261.045 485.302H261.139V477.824H262.661ZM264.246 479.147V477.824H272.126V479.147H268.949V488.006H267.417V479.147H264.246Z" fill="black" fill-opacity="0.8"/>
<path d="M218.591 620.037C219.131 620.153 219.663 619.81 219.779 619.27L221.676 610.472C221.792 609.932 221.449 609.4 220.909 609.284C220.369 609.167 219.837 609.511 219.721 610.051L218.035 617.871L210.215 616.185C209.675 616.069 209.143 616.412 209.026 616.952C208.91 617.492 209.253 618.024 209.793 618.14L218.591 620.037ZM207.757 600.099C207.457 599.635 206.838 599.502 206.374 599.801C205.91 600.101 205.777 600.72 206.076 601.184L207.757 600.099ZM184.055 567.059C184.354 567.523 184.973 567.656 185.437 567.357C185.901 567.057 186.035 566.438 185.735 565.974L184.055 567.059ZM175.038 549.399C174.739 548.935 174.12 548.801 173.656 549.101C173.192 549.4 173.059 550.019 173.358 550.483L175.038 549.399ZM219.642 618.517L207.757 600.099L206.076 601.184L217.961 619.601L219.642 618.517ZM185.735 565.974L175.038 549.399L173.358 550.483L184.055 567.059L185.735 565.974Z" fill="#1A1B1D"/>
<path d="M184.297 581.572C184.244 581.101 184.025 580.737 183.64 580.478C183.256 580.216 182.772 580.085 182.189 580.085C181.771 580.085 181.41 580.152 181.105 580.284C180.8 580.413 180.563 580.592 180.394 580.821C180.228 581.047 180.145 581.303 180.145 581.592C180.145 581.834 180.202 582.043 180.314 582.218C180.43 582.394 180.581 582.541 180.767 582.661C180.956 582.777 181.158 582.874 181.373 582.954C181.589 583.03 181.796 583.093 181.995 583.143L182.989 583.401C183.314 583.481 183.647 583.589 183.988 583.725C184.33 583.86 184.646 584.039 184.938 584.262C185.23 584.484 185.465 584.759 185.644 585.087C185.826 585.415 185.917 585.808 185.917 586.265C185.917 586.842 185.768 587.354 185.47 587.801C185.175 588.249 184.746 588.602 184.182 588.86C183.622 589.119 182.944 589.248 182.149 589.248C181.387 589.248 180.727 589.127 180.17 588.885C179.613 588.643 179.178 588.3 178.863 587.856C178.548 587.409 178.374 586.878 178.341 586.265H179.882C179.912 586.633 180.031 586.94 180.24 587.185C180.452 587.427 180.722 587.607 181.05 587.727C181.382 587.843 181.745 587.901 182.139 587.901C182.573 587.901 182.959 587.833 183.297 587.697C183.639 587.558 183.907 587.365 184.103 587.12C184.298 586.872 184.396 586.582 184.396 586.25C184.396 585.949 184.31 585.702 184.138 585.509C183.969 585.317 183.738 585.158 183.447 585.032C183.158 584.906 182.832 584.795 182.467 584.699L181.264 584.371C180.449 584.149 179.802 583.822 179.325 583.391C178.851 582.961 178.614 582.391 178.614 581.681C178.614 581.095 178.773 580.583 179.091 580.145C179.41 579.708 179.84 579.368 180.384 579.126C180.928 578.881 181.541 578.758 182.224 578.758C182.913 578.758 183.521 578.879 184.048 579.121C184.578 579.363 184.996 579.696 185.301 580.12C185.606 580.541 185.765 581.025 185.778 581.572H184.297ZM187.599 589.079V578.897H193.983V580.22H189.135V583.322H193.65V584.639H189.135V587.757H194.042V589.079H187.599ZM204.099 578.897V589.079H202.687L197.511 581.612H197.417V589.079H195.881V578.897H197.303L202.483 586.374H202.577V578.897H204.099ZM205.684 580.22V578.897H213.564V580.22H210.387V589.079H208.855V580.22H205.684Z" fill="black" fill-opacity="0.8"/>
<path d="M421.634 217.679C421.862 217.176 421.639 216.583 421.137 216.355L412.942 212.635C412.439 212.406 411.846 212.629 411.618 213.132C411.389 213.635 411.612 214.227 412.115 214.456L419.399 217.763L416.092 225.047C415.864 225.55 416.087 226.143 416.59 226.371C417.092 226.599 417.685 226.377 417.913 225.874L421.634 217.679ZM417.675 218.41L418.027 219.346L418.027 219.346L417.675 218.41ZM388.952 228.129C388.435 228.323 388.173 228.9 388.367 229.417C388.562 229.934 389.138 230.195 389.655 230.001L388.952 228.129ZM355.53 242.817C356.047 242.622 356.309 242.046 356.115 241.529C355.921 241.012 355.344 240.75 354.827 240.944L355.53 242.817ZM327.213 252.383L327.564 253.319L327.564 253.319L327.213 252.383ZM325.925 251.798C325.408 251.993 325.146 252.569 325.34 253.086C325.534 253.603 326.111 253.865 326.628 253.671L325.925 251.798ZM420.372 216.329L417.324 217.474L418.027 219.346L421.075 218.202L420.372 216.329ZM417.324 217.474L388.952 228.129L389.655 230.001L418.027 219.346L417.324 217.474ZM354.827 240.944L326.861 251.447L327.564 253.319L355.53 242.817L354.827 240.944ZM326.861 251.447L325.925 251.798L326.628 253.671L327.564 253.319L326.861 251.447Z" fill="#1A1B1D"/>
<path d="M371.599 234.102H370.047C369.988 233.77 369.877 233.479 369.714 233.227C369.552 232.975 369.353 232.761 369.118 232.586C368.882 232.41 368.619 232.277 368.327 232.188C368.039 232.098 367.732 232.054 367.408 232.054C366.821 232.054 366.296 232.201 365.832 232.496C365.371 232.791 365.006 233.224 364.738 233.794C364.473 234.364 364.34 235.06 364.34 235.882C364.34 236.71 364.473 237.41 364.738 237.98C365.006 238.55 365.372 238.981 365.836 239.272C366.301 239.564 366.823 239.71 367.403 239.71C367.724 239.71 368.029 239.667 368.317 239.581C368.609 239.491 368.872 239.36 369.108 239.188C369.343 239.016 369.542 238.805 369.704 238.556C369.87 238.305 369.984 238.016 370.047 237.691L371.599 237.696C371.516 238.197 371.355 238.658 371.116 239.078C370.881 239.496 370.578 239.857 370.207 240.162C369.839 240.464 369.418 240.698 368.944 240.863C368.47 241.029 367.953 241.112 367.393 241.112C366.511 241.112 365.725 240.903 365.036 240.485C364.347 240.065 363.803 239.463 363.405 238.681C363.011 237.899 362.814 236.966 362.814 235.882C362.814 234.795 363.013 233.862 363.41 233.083C363.808 232.301 364.352 231.701 365.041 231.283C365.73 230.862 366.514 230.652 367.393 230.652C367.933 230.652 368.437 230.73 368.904 230.885C369.375 231.038 369.797 231.263 370.172 231.561C370.546 231.856 370.856 232.218 371.101 232.645C371.347 233.069 371.512 233.555 371.599 234.102ZM381.739 234.102H380.188C380.129 233.77 380.018 233.479 379.855 233.227C379.693 232.975 379.494 232.761 379.259 232.586C379.023 232.41 378.76 232.277 378.468 232.188C378.18 232.098 377.873 232.054 377.548 232.054C376.962 232.054 376.436 232.201 375.972 232.496C375.512 232.791 375.147 233.224 374.879 233.794C374.614 234.364 374.481 235.06 374.481 235.882C374.481 236.71 374.614 237.41 374.879 237.98C375.147 238.55 375.513 238.981 375.977 239.272C376.441 239.564 376.963 239.71 377.543 239.71C377.865 239.71 378.17 239.667 378.458 239.581C378.75 239.491 379.013 239.36 379.249 239.188C379.484 239.016 379.683 238.805 379.845 238.556C380.011 238.305 380.125 238.016 380.188 237.691L381.739 237.696C381.657 238.197 381.496 238.658 381.257 239.078C381.022 239.496 380.719 239.857 380.347 240.162C379.98 240.464 379.559 240.698 379.085 240.863C378.611 241.029 378.094 241.112 377.534 241.112C376.652 241.112 375.866 240.903 375.177 240.485C374.488 240.065 373.944 239.463 373.546 238.681C373.152 237.899 372.955 236.966 372.955 235.882C372.955 234.795 373.154 233.862 373.551 233.083C373.949 232.301 374.493 231.701 375.182 231.283C375.871 230.862 376.655 230.652 377.534 230.652C378.074 230.652 378.578 230.73 379.045 230.885C379.516 231.038 379.938 231.263 380.313 231.561C380.687 231.856 380.997 232.218 381.242 232.645C381.488 233.069 381.653 233.555 381.739 234.102Z" fill="black" fill-opacity="0.8"/>
<path d="M305.803 130.877C305.547 130.387 304.943 130.198 304.453 130.454L296.479 134.626C295.989 134.882 295.8 135.486 296.056 135.976C296.312 136.465 296.916 136.654 297.406 136.398L304.494 132.69L308.203 139.778C308.459 140.268 309.063 140.457 309.552 140.201C310.041 139.945 310.231 139.341 309.975 138.851L305.803 130.877ZM296.557 154.696C296.392 155.223 296.685 155.784 297.212 155.949C297.739 156.114 298.3 155.82 298.465 155.293L296.557 154.696ZM287.781 189.418C287.946 188.891 287.653 188.33 287.126 188.165C286.599 188 286.038 188.294 285.873 188.821L287.781 189.418ZM279.129 210.361C278.964 210.888 279.257 211.449 279.784 211.614C280.311 211.779 280.872 211.486 281.037 210.959L279.129 210.361ZM303.962 131.041L296.557 154.696L298.465 155.293L305.871 131.639L303.962 131.041ZM285.873 188.821L279.129 210.361L281.037 210.959L287.781 189.418L285.873 188.821Z" fill="#1A1B1D"/>
<path d="M283.142 168.698V167.375H291.022V168.698H287.845V177.557H286.314V168.698H283.142ZM301.016 172.466C301.016 173.553 300.817 174.488 300.419 175.27C300.022 176.049 299.476 176.649 298.784 177.07C298.094 177.487 297.31 177.696 296.432 177.696C295.551 177.696 294.763 177.487 294.071 177.07C293.381 176.649 292.838 176.047 292.44 175.265C292.042 174.483 291.843 173.55 291.843 172.466C291.843 171.379 292.042 170.446 292.44 169.667C292.838 168.885 293.381 168.285 294.071 167.867C294.763 167.446 295.551 167.236 296.432 167.236C297.31 167.236 298.094 167.446 298.784 167.867C299.476 168.285 300.022 168.885 300.419 169.667C300.817 170.446 301.016 171.379 301.016 172.466ZM299.495 172.466C299.495 171.637 299.36 170.94 299.092 170.373C298.827 169.803 298.462 169.372 297.998 169.08C297.537 168.785 297.015 168.638 296.432 168.638C295.845 168.638 295.322 168.785 294.861 169.08C294.4 169.372 294.036 169.803 293.767 170.373C293.502 170.94 293.37 171.637 293.37 172.466C293.37 173.295 293.502 173.994 293.767 174.564C294.036 175.131 294.4 175.562 294.861 175.857C295.322 176.148 295.845 176.294 296.432 176.294C297.015 176.294 297.537 176.148 297.998 175.857C298.462 175.562 298.827 175.131 299.092 174.564C299.36 173.994 299.495 173.295 299.495 172.466Z" fill="black" fill-opacity="0.8"/>
<path d="M0.966 423V415.762H2.632V416.798C2.744 416.611 2.89567 416.432 3.087 416.259C3.283 416.086 3.52333 415.946 3.808 415.839C4.09267 415.732 4.42633 415.678 4.809 415.678C5.257 415.678 5.67233 415.767 6.055 415.944C6.44233 416.121 6.75267 416.399 6.986 416.777C7.224 417.155 7.343 417.643 7.343 418.24V423H5.635V418.443C5.635 417.967 5.50433 417.615 5.243 417.386C4.98167 417.153 4.65267 417.036 4.256 417.036C3.98533 417.036 3.72867 417.083 3.486 417.176C3.24333 417.265 3.045 417.402 2.891 417.589C2.74167 417.771 2.667 418 2.667 418.275V423H0.966ZM11.2211 423.14C10.7591 423.14 10.3438 423.056 9.97511 422.888C9.61111 422.715 9.32411 422.47 9.11411 422.153C8.90878 421.831 8.80611 421.441 8.80611 420.984C8.80611 420.186 9.09311 419.584 9.66711 419.178C10.2458 418.772 11.1651 418.56 12.4251 418.541L13.5101 418.513V418.023C13.5101 417.64 13.3958 417.342 13.1671 417.127C12.9431 416.908 12.5931 416.8 12.1171 416.805C11.7624 416.81 11.4404 416.894 11.1511 417.057C10.8618 417.216 10.6704 417.484 10.5771 417.862H9.12811C9.15611 417.367 9.29844 416.954 9.55511 416.623C9.81644 416.287 10.1734 416.037 10.6261 415.874C11.0788 415.706 11.6014 415.622 12.1941 415.622C12.8848 415.622 13.4471 415.713 13.8811 415.895C14.3151 416.077 14.6348 416.341 14.8401 416.686C15.0454 417.027 15.1481 417.44 15.1481 417.925V423H13.7131L13.5731 421.698C13.3164 422.244 12.9874 422.622 12.5861 422.832C12.1894 423.037 11.7344 423.14 11.2211 423.14ZM11.7741 421.985C11.9841 421.985 12.1918 421.948 12.3971 421.873C12.6024 421.794 12.7868 421.689 12.9501 421.558C13.1181 421.423 13.2511 421.273 13.3491 421.11C13.4518 420.947 13.5054 420.776 13.5101 420.599V419.458L12.6211 419.472C12.1824 419.477 11.7974 419.523 11.4661 419.612C11.1394 419.701 10.8851 419.843 10.7031 420.039C10.5211 420.23 10.4301 420.487 10.4301 420.809C10.4301 421.178 10.5584 421.467 10.8151 421.677C11.0718 421.882 11.3914 421.985 11.7741 421.985ZM16.9621 423V415.762H18.6211V416.798C18.8311 416.481 19.1158 416.205 19.4751 415.972C19.8391 415.739 20.3011 415.622 20.8611 415.622C21.1178 415.622 21.3768 415.666 21.6381 415.755C21.9041 415.844 22.1491 415.974 22.3731 416.147C22.6018 416.32 22.7838 416.534 22.9191 416.791C23.1478 416.45 23.4511 416.17 23.8291 415.951C24.2118 415.732 24.6411 415.622 25.1171 415.622C25.3784 415.622 25.6468 415.664 25.9221 415.748C26.2021 415.832 26.4588 415.972 26.6921 416.168C26.9254 416.364 27.1144 416.632 27.2591 416.973C27.4038 417.309 27.4761 417.731 27.4761 418.24V423H25.7751V418.443C25.7751 418.084 25.7121 417.801 25.5861 417.596C25.4601 417.391 25.2968 417.246 25.0961 417.162C24.9001 417.073 24.6901 417.029 24.4661 417.029C24.2654 417.029 24.0554 417.069 23.8361 417.148C23.6214 417.227 23.4371 417.358 23.2831 417.54C23.1338 417.722 23.0591 417.967 23.0591 418.275V423H21.3581V418.17C21.3581 417.918 21.2928 417.708 21.1621 417.54C21.0314 417.372 20.8658 417.246 20.6651 417.162C20.4691 417.073 20.2684 417.029 20.0631 417.029C19.8531 417.029 19.6384 417.073 19.4191 417.162C19.2044 417.251 19.0248 417.386 18.8801 417.568C18.7354 417.75 18.6631 417.986 18.6631 418.275V423H16.9621ZM32.5068 423.14C31.8115 423.14 31.1978 422.993 30.6658 422.699C30.1385 422.4 29.7255 421.976 29.4268 421.425C29.1328 420.874 28.9858 420.219 28.9858 419.458C28.9858 418.716 29.1188 418.058 29.3848 417.484C29.6555 416.905 30.0451 416.45 30.5538 416.119C31.0671 415.788 31.6855 415.622 32.4088 415.622C33.1228 415.622 33.7225 415.774 34.2078 416.077C34.6931 416.38 35.0618 416.805 35.3138 417.351C35.5658 417.892 35.6918 418.527 35.6918 419.255V419.773H30.6868C30.6821 420.184 30.7475 420.548 30.8828 420.865C31.0181 421.182 31.2188 421.432 31.4848 421.614C31.7508 421.791 32.0798 421.88 32.4718 421.88C32.8731 421.88 33.2208 421.791 33.5148 421.614C33.8135 421.432 34.0118 421.157 34.1098 420.788H35.6638C35.5798 421.292 35.3791 421.719 35.0618 422.069C34.7491 422.419 34.3665 422.685 33.9138 422.867C33.4658 423.049 32.9968 423.14 32.5068 423.14ZM30.6798 418.716H34.0818C34.0818 418.366 34.0188 418.051 33.8928 417.771C33.7715 417.486 33.5871 417.262 33.3398 417.099C33.0925 416.931 32.7798 416.847 32.4018 416.847C32.0285 416.847 31.7135 416.938 31.4568 417.12C31.2001 417.302 31.0065 417.538 30.8758 417.827C30.7451 418.112 30.6798 418.408 30.6798 418.716ZM37.0815 417.932V415.986H39.0065V417.932H37.0815ZM37.0815 422.958V421.026H39.0065V422.958H37.0815ZM44.3691 416.497L43.9001 412.878H45.7551L45.2651 416.497H44.3691ZM51.4654 423.14C50.9614 423.14 50.4784 423.079 50.0164 422.958C49.5544 422.832 49.1321 422.648 48.7494 422.405C48.3714 422.158 48.0588 421.852 47.8114 421.488C47.5641 421.119 47.4124 420.69 47.3564 420.2H49.1204C49.1951 420.541 49.3421 420.828 49.5614 421.061C49.7854 421.294 50.0678 421.472 50.4084 421.593C50.7491 421.714 51.1294 421.775 51.5494 421.775C51.9228 421.775 52.2704 421.719 52.5924 421.607C52.9144 421.495 53.1758 421.329 53.3764 421.11C53.5771 420.886 53.6774 420.611 53.6774 420.284C53.6774 419.915 53.5468 419.628 53.2854 419.423C53.0288 419.213 52.6601 419.047 52.1794 418.926L50.1984 418.457C49.6851 418.34 49.2371 418.17 48.8544 417.946C48.4764 417.722 48.1824 417.428 47.9724 417.064C47.7624 416.695 47.6574 416.245 47.6574 415.713C47.6574 415.106 47.8231 414.581 48.1544 414.138C48.4904 413.695 48.9454 413.354 49.5194 413.116C50.0934 412.873 50.7398 412.752 51.4584 412.752C52.2798 412.752 52.9728 412.89 53.5374 413.165C54.1021 413.436 54.5314 413.8 54.8254 414.257C55.1194 414.714 55.2688 415.216 55.2734 415.762H53.5514C53.5141 415.356 53.3951 415.036 53.1944 414.803C52.9938 414.565 52.7394 414.392 52.4314 414.285C52.1234 414.178 51.7828 414.124 51.4094 414.124C50.7468 414.124 50.2544 414.266 49.9324 414.551C49.6104 414.836 49.4494 415.169 49.4494 415.552C49.4494 415.911 49.5684 416.196 49.8064 416.406C50.0444 416.616 50.4084 416.779 50.8984 416.896L52.7814 417.337C53.4114 417.468 53.9178 417.668 54.3004 417.939C54.6831 418.21 54.9608 418.532 55.1334 418.905C55.3108 419.274 55.3994 419.682 55.3994 420.13C55.3994 420.718 55.2314 421.238 54.8954 421.691C54.5641 422.144 54.1044 422.498 53.5164 422.755C52.9284 423.012 52.2448 423.14 51.4654 423.14ZM59.141 423.14C58.679 423.14 58.2637 423.056 57.895 422.888C57.531 422.715 57.244 422.47 57.034 422.153C56.8287 421.831 56.726 421.441 56.726 420.984C56.726 420.186 57.013 419.584 57.587 419.178C58.1657 418.772 59.085 418.56 60.345 418.541L61.43 418.513V418.023C61.43 417.64 61.3157 417.342 61.087 417.127C60.863 416.908 60.513 416.8 60.037 416.805C59.6824 416.81 59.3604 416.894 59.071 417.057C58.7817 417.216 58.5904 417.484 58.497 417.862H57.048C57.076 417.367 57.2184 416.954 57.475 416.623C57.7364 416.287 58.0934 416.037 58.546 415.874C58.9987 415.706 59.5214 415.622 60.114 415.622C60.8047 415.622 61.367 415.713 61.801 415.895C62.235 416.077 62.5547 416.341 62.76 416.686C62.9654 417.027 63.068 417.44 63.068 417.925V423H61.633L61.493 421.698C61.2364 422.244 60.9074 422.622 60.506 422.832C60.1094 423.037 59.6544 423.14 59.141 423.14ZM59.694 421.985C59.904 421.985 60.1117 421.948 60.317 421.873C60.5224 421.794 60.7067 421.689 60.87 421.558C61.038 421.423 61.171 421.273 61.269 421.11C61.3717 420.947 61.4254 420.776 61.43 420.599V419.458L60.541 419.472C60.1024 419.477 59.7174 419.523 59.386 419.612C59.0594 419.701 58.805 419.843 58.623 420.039C58.441 420.23 58.35 420.487 58.35 420.809C58.35 421.178 58.4784 421.467 58.735 421.677C58.9917 421.882 59.3114 421.985 59.694 421.985ZM64.882 423V415.762H66.513V417.33C66.6297 416.971 66.7953 416.665 67.01 416.413C67.2293 416.156 67.486 415.96 67.78 415.825C68.074 415.69 68.3937 415.622 68.739 415.622C68.823 415.622 68.9047 415.627 68.984 415.636C69.0633 415.645 69.1217 415.662 69.159 415.685V417.316C69.1077 417.293 69.04 417.276 68.956 417.267C68.8767 417.258 68.8067 417.253 68.746 417.253C68.396 417.225 68.0857 417.239 67.815 417.295C67.549 417.351 67.3227 417.447 67.136 417.582C66.954 417.713 66.8163 417.881 66.723 418.086C66.6297 418.287 66.583 418.522 66.583 418.793V423H64.882ZM72.4028 423.14C71.9408 423.14 71.5254 423.056 71.1568 422.888C70.7928 422.715 70.5058 422.47 70.2958 422.153C70.0904 421.831 69.9878 421.441 69.9878 420.984C69.9878 420.186 70.2748 419.584 70.8488 419.178C71.4274 418.772 72.3468 418.56 73.6068 418.541L74.6918 418.513V418.023C74.6918 417.64 74.5774 417.342 74.3488 417.127C74.1248 416.908 73.7748 416.8 73.2987 416.805C72.9441 416.81 72.6221 416.894 72.3328 417.057C72.0434 417.216 71.8521 417.484 71.7588 417.862H70.3098C70.3378 417.367 70.4801 416.954 70.7368 416.623C70.9981 416.287 71.3551 416.037 71.8078 415.874C72.2604 415.706 72.7831 415.622 73.3758 415.622C74.0664 415.622 74.6288 415.713 75.0628 415.895C75.4968 416.077 75.8164 416.341 76.0218 416.686C76.2271 417.027 76.3298 417.44 76.3298 417.925V423H74.8948L74.7548 421.698C74.4981 422.244 74.1691 422.622 73.7678 422.832C73.3711 423.037 72.9161 423.14 72.4028 423.14ZM72.9558 421.985C73.1658 421.985 73.3734 421.948 73.5788 421.873C73.7841 421.794 73.9684 421.689 74.1318 421.558C74.2998 421.423 74.4328 421.273 74.5308 421.11C74.6334 420.947 74.6871 420.776 74.6918 420.599V419.458L73.8028 419.472C73.3641 419.477 72.9791 419.523 72.6478 419.612C72.3211 419.701 72.0668 419.843 71.8848 420.039C71.7028 420.23 71.6118 420.487 71.6118 420.809C71.6118 421.178 71.7401 421.467 71.9968 421.677C72.2534 421.882 72.5731 421.985 72.9558 421.985ZM78.1437 423V412.598H79.8237V416.812C79.9404 416.63 80.0944 416.455 80.2857 416.287C80.4771 416.114 80.7104 415.974 80.9857 415.867C81.2657 415.755 81.5994 415.699 81.9867 415.699C82.4487 415.699 82.8711 415.788 83.2537 415.965C83.6364 416.142 83.9421 416.399 84.1707 416.735C84.3994 417.066 84.5137 417.463 84.5137 417.925V423H82.8057V418.212C82.8057 417.839 82.6727 417.549 82.4067 417.344C82.1454 417.139 81.8141 417.036 81.4127 417.036C81.1467 417.036 80.8924 417.083 80.6497 417.176C80.4071 417.269 80.2111 417.409 80.0617 417.596C79.9171 417.778 79.8447 418.007 79.8447 418.282V423H78.1437ZM85.6707 416.525L86.4617 414.698L85.8037 414.649V412.878H87.6657V414.432L86.3567 416.525H85.6707Z" fill="black"/>
</svg>
