<svg width="669" height="511" viewBox="0 0 669 511" fill="none" xmlns="http://www.w3.org/2000/svg">
<path d="M0 91C0 55.6538 28.6538 27 64 27V27C99.3462 27 128 55.6538 128 91V91C128 126.346 99.3462 155 64 155V155C28.6538 155 0 126.346 0 91V91Z" fill="#C990C0"/>
<path d="M53.8914 96.14C53.0141 96.14 52.3024 95.9953 51.7564 95.706C51.2151 95.4167 50.8184 94.992 50.5664 94.432C50.3191 93.872 50.1954 93.1837 50.1954 92.367V85.878H51.5394V92.563C51.5394 93.3797 51.7424 93.991 52.1484 94.397C52.5544 94.803 53.1354 95.006 53.8914 95.006C54.4001 95.006 54.8317 94.9173 55.1864 94.74C55.5457 94.5627 55.8187 94.2943 56.0054 93.935C56.1967 93.571 56.2924 93.1137 56.2924 92.563V85.878H57.5944V92.5C57.5944 93.2793 57.4661 93.9397 57.2094 94.481C56.9527 95.0223 56.5514 95.4353 56.0054 95.72C55.4641 96 54.7594 96.14 53.8914 96.14ZM62.3361 96.14C61.8321 96.14 61.3631 96.063 60.9291 95.909C60.4998 95.7503 60.1428 95.5053 59.8581 95.174C59.5735 94.838 59.3961 94.411 59.3261 93.893H60.5021C60.5628 94.1777 60.6795 94.4157 60.8521 94.607C61.0248 94.7937 61.2371 94.936 61.4891 95.034C61.7458 95.1273 62.0258 95.174 62.3291 95.174C62.8191 95.174 63.2135 95.083 63.5121 94.901C63.8108 94.719 63.9601 94.439 63.9601 94.061C63.9601 93.795 63.8808 93.5827 63.7221 93.424C63.5681 93.2607 63.3255 93.1417 62.9941 93.067L61.4961 92.696C60.9128 92.556 60.4461 92.3367 60.0961 92.038C59.7508 91.7393 59.5758 91.3217 59.5711 90.785C59.5711 90.3603 59.6738 89.987 59.8791 89.665C60.0845 89.343 60.3901 89.0887 60.7961 88.902C61.2068 88.7153 61.7178 88.622 62.3291 88.622C63.1178 88.622 63.7525 88.7993 64.2331 89.154C64.7138 89.504 64.9658 90.0197 64.9891 90.701H63.8411C63.7945 90.3557 63.6405 90.0827 63.3791 89.882C63.1178 89.6767 62.7631 89.574 62.3151 89.574C61.8578 89.574 61.4821 89.6673 61.1881 89.854C60.8988 90.036 60.7541 90.3207 60.7541 90.708C60.7541 90.9647 60.8568 91.1677 61.0621 91.317C61.2721 91.4617 61.5755 91.583 61.9721 91.681L63.4281 92.045C63.7595 92.1337 64.0348 92.2503 64.2541 92.395C64.4735 92.5397 64.6461 92.7007 64.7721 92.878C64.8981 93.0553 64.9868 93.242 65.0381 93.438C65.0941 93.6293 65.1221 93.8137 65.1221 93.991C65.1221 94.4343 65.0125 94.817 64.7931 95.139C64.5738 95.4563 64.2565 95.7037 63.8411 95.881C63.4258 96.0537 62.9241 96.14 62.3361 96.14ZM69.8732 96.14C69.2012 96.14 68.6085 95.993 68.0952 95.699C67.5818 95.405 67.1805 94.9827 66.8912 94.432C66.6018 93.8813 66.4572 93.221 66.4572 92.451C66.4572 91.6903 66.5878 91.023 66.8492 90.449C67.1105 89.875 67.4885 89.427 67.9832 89.105C68.4825 88.783 69.0822 88.622 69.7822 88.622C70.4635 88.622 71.0398 88.769 71.5112 89.063C71.9825 89.357 72.3395 89.7723 72.5822 90.309C72.8295 90.841 72.9532 91.4733 72.9532 92.206V92.682H67.7662C67.7662 93.1393 67.8408 93.5547 67.9902 93.928C68.1442 94.2967 68.3752 94.5907 68.6832 94.81C68.9912 95.0293 69.3808 95.139 69.8522 95.139C70.3142 95.139 70.7108 95.0317 71.0422 94.817C71.3782 94.6023 71.5928 94.292 71.6862 93.886H72.9042C72.8202 94.376 72.6242 94.789 72.3162 95.125C72.0128 95.461 71.6465 95.7153 71.2172 95.888C70.7925 96.056 70.3445 96.14 69.8732 96.14ZM67.7732 91.807H71.7072C71.7072 91.3917 71.6372 91.0183 71.4972 90.687C71.3572 90.351 71.1425 90.0873 70.8532 89.896C70.5685 89.7 70.2092 89.602 69.7752 89.602C69.3225 89.602 68.9468 89.7117 68.6482 89.931C68.3495 90.1457 68.1278 90.4233 67.9832 90.764C67.8385 91.1 67.7685 91.4477 67.7732 91.807ZM74.7439 96V88.762H75.9759V90.155C76.0972 89.8097 76.2675 89.525 76.4869 89.301C76.7062 89.0723 76.9559 88.902 77.2359 88.79C77.5205 88.678 77.8145 88.622 78.1179 88.622C78.2252 88.622 78.3302 88.629 78.4329 88.643C78.5355 88.657 78.6149 88.6803 78.6709 88.713V89.966C78.6009 89.9333 78.5099 89.9123 78.3979 89.903C78.2905 89.889 78.1995 89.882 78.1249 89.882C77.8355 89.8633 77.5649 89.882 77.3129 89.938C77.0609 89.9893 76.8392 90.0803 76.6479 90.211C76.4565 90.3417 76.3049 90.5143 76.1929 90.729C76.0855 90.939 76.0319 91.1957 76.0319 91.499V96H74.7439Z" fill="white"/>
<path d="M20.966 17V9.762H22.632V10.798C22.744 10.6113 22.8957 10.4317 23.087 10.259C23.283 10.0863 23.5233 9.94633 23.808 9.839C24.0927 9.73167 24.4263 9.678 24.809 9.678C25.257 9.678 25.6723 9.76667 26.055 9.944C26.4423 10.1213 26.7527 10.399 26.986 10.777C27.224 11.155 27.343 11.6427 27.343 12.24V17H25.635V12.443C25.635 11.967 25.5043 11.6147 25.243 11.386C24.9817 11.1527 24.6527 11.036 24.256 11.036C23.9853 11.036 23.7287 11.0827 23.486 11.176C23.2433 11.2647 23.045 11.4023 22.891 11.589C22.7417 11.771 22.667 11.9997 22.667 12.275V17H20.966ZM31.2211 17.14C30.7591 17.14 30.3438 17.056 29.9751 16.888C29.6111 16.7153 29.3241 16.4703 29.1141 16.153C28.9088 15.831 28.8061 15.4413 28.8061 14.984C28.8061 14.186 29.0931 13.584 29.6671 13.178C30.2458 12.772 31.1651 12.5597 32.4251 12.541L33.5101 12.513V12.023C33.5101 11.6403 33.3958 11.3417 33.1671 11.127C32.9431 10.9077 32.5931 10.8003 32.1171 10.805C31.7624 10.8097 31.4404 10.8937 31.1511 11.057C30.8618 11.2157 30.6704 11.484 30.5771 11.862H29.1281C29.1561 11.3673 29.2984 10.9543 29.5551 10.623C29.8164 10.287 30.1734 10.0373 30.6261 9.874C31.0788 9.706 31.6014 9.622 32.1941 9.622C32.8848 9.622 33.4471 9.713 33.8811 9.895C34.3151 10.077 34.6348 10.3407 34.8401 10.686C35.0454 11.0267 35.1481 11.4397 35.1481 11.925V17H33.7131L33.5731 15.698C33.3164 16.244 32.9874 16.622 32.5861 16.832C32.1894 17.0373 31.7344 17.14 31.2211 17.14ZM31.7741 15.985C31.9841 15.985 32.1918 15.9477 32.3971 15.873C32.6024 15.7937 32.7868 15.6887 32.9501 15.558C33.1181 15.4227 33.2511 15.2733 33.3491 15.11C33.4518 14.9467 33.5054 14.7763 33.5101 14.599V13.458L32.6211 13.472C32.1824 13.4767 31.7974 13.5233 31.4661 13.612C31.1394 13.7007 30.8851 13.843 30.7031 14.039C30.5211 14.2303 30.4301 14.487 30.4301 14.809C30.4301 15.1777 30.5584 15.467 30.8151 15.677C31.0718 15.8823 31.3914 15.985 31.7741 15.985ZM36.9621 17V9.762H38.6211V10.798C38.8311 10.4807 39.1158 10.2053 39.4751 9.972C39.8391 9.73867 40.3011 9.622 40.8611 9.622C41.1178 9.622 41.3768 9.66633 41.6381 9.755C41.9041 9.84367 42.1491 9.97433 42.3731 10.147C42.6018 10.3197 42.7838 10.5343 42.9191 10.791C43.1478 10.4503 43.4511 10.1703 43.8291 9.951C44.2118 9.73167 44.6411 9.622 45.1171 9.622C45.3784 9.622 45.6468 9.664 45.9221 9.748C46.2021 9.832 46.4588 9.972 46.6921 10.168C46.9254 10.364 47.1144 10.6323 47.2591 10.973C47.4038 11.309 47.4761 11.7313 47.4761 12.24V17H45.7751V12.443C45.7751 12.0837 45.7121 11.8013 45.5861 11.596C45.4601 11.3907 45.2968 11.246 45.0961 11.162C44.9001 11.0733 44.6901 11.029 44.4661 11.029C44.2654 11.029 44.0554 11.0687 43.8361 11.148C43.6214 11.2273 43.4371 11.358 43.2831 11.54C43.1338 11.722 43.0591 11.967 43.0591 12.275V17H41.3581V12.17C41.3581 11.918 41.2928 11.708 41.1621 11.54C41.0314 11.372 40.8658 11.246 40.6651 11.162C40.4691 11.0733 40.2684 11.029 40.0631 11.029C39.8531 11.029 39.6384 11.0733 39.4191 11.162C39.2044 11.2507 39.0248 11.386 38.8801 11.568C38.7354 11.75 38.6631 11.9857 38.6631 12.275V17H36.9621ZM52.5068 17.14C51.8115 17.14 51.1978 16.993 50.6658 16.699C50.1385 16.4003 49.7255 15.9757 49.4268 15.425C49.1328 14.8743 48.9858 14.2187 48.9858 13.458C48.9858 12.716 49.1188 12.058 49.3848 11.484C49.6555 10.9053 50.0451 10.4503 50.5538 10.119C51.0671 9.78767 51.6855 9.622 52.4088 9.622C53.1228 9.622 53.7225 9.77367 54.2078 10.077C54.6931 10.3803 55.0618 10.805 55.3138 11.351C55.5658 11.8923 55.6918 12.527 55.6918 13.255V13.773H50.6868C50.6821 14.1837 50.7475 14.5477 50.8828 14.865C51.0181 15.1823 51.2188 15.432 51.4848 15.614C51.7508 15.7913 52.0798 15.88 52.4718 15.88C52.8731 15.88 53.2208 15.7913 53.5148 15.614C53.8135 15.432 54.0118 15.1567 54.1098 14.788H55.6638C55.5798 15.292 55.3791 15.719 55.0618 16.069C54.7491 16.419 54.3665 16.685 53.9138 16.867C53.4658 17.049 52.9968 17.14 52.5068 17.14ZM50.6798 12.716H54.0818C54.0818 12.366 54.0188 12.051 53.8928 11.771C53.7715 11.4863 53.5871 11.2623 53.3398 11.099C53.0925 10.931 52.7798 10.847 52.4018 10.847C52.0285 10.847 51.7135 10.938 51.4568 11.12C51.2001 11.302 51.0065 11.5377 50.8758 11.827C50.7451 12.1117 50.6798 12.408 50.6798 12.716ZM57.0815 11.932V9.986H59.0065V11.932H57.0815ZM57.0815 16.958V15.026H59.0065V16.958H57.0815ZM64.3691 10.497L63.9001 6.878H65.7551L65.2651 10.497H64.3691ZM71.4654 17.14C70.9614 17.14 70.4784 17.0793 70.0164 16.958C69.5544 16.832 69.1321 16.6477 68.7494 16.405C68.3714 16.1577 68.0588 15.852 67.8114 15.488C67.5641 15.1193 67.4124 14.69 67.3564 14.2H69.1204C69.1951 14.5407 69.3421 14.8277 69.5614 15.061C69.7854 15.2943 70.0678 15.4717 70.4084 15.593C70.7491 15.7143 71.1294 15.775 71.5494 15.775C71.9228 15.775 72.2704 15.719 72.5924 15.607C72.9144 15.495 73.1758 15.3293 73.3764 15.11C73.5771 14.886 73.6774 14.6107 73.6774 14.284C73.6774 13.9153 73.5468 13.6283 73.2854 13.423C73.0288 13.213 72.6601 13.0473 72.1794 12.926L70.1984 12.457C69.6851 12.3403 69.2371 12.17 68.8544 11.946C68.4764 11.722 68.1824 11.428 67.9724 11.064C67.7624 10.6953 67.6574 10.245 67.6574 9.713C67.6574 9.10633 67.8231 8.58133 68.1544 8.138C68.4904 7.69467 68.9454 7.354 69.5194 7.116C70.0934 6.87333 70.7398 6.752 71.4584 6.752C72.2798 6.752 72.9728 6.88967 73.5374 7.165C74.1021 7.43567 74.5314 7.79967 74.8254 8.257C75.1194 8.71433 75.2688 9.216 75.2734 9.762H73.5514C73.5141 9.356 73.3951 9.03633 73.1944 8.803C72.9938 8.565 72.7394 8.39233 72.4314 8.285C72.1234 8.17767 71.7828 8.124 71.4094 8.124C70.7468 8.124 70.2544 8.26633 69.9324 8.551C69.6104 8.83567 69.4494 9.16933 69.4494 9.552C69.4494 9.91133 69.5684 10.196 69.8064 10.406C70.0444 10.616 70.4084 10.7793 70.8984 10.896L72.7814 11.337C73.4114 11.4677 73.9178 11.6683 74.3004 11.939C74.6831 12.2097 74.9608 12.5317 75.1334 12.905C75.3108 13.2737 75.3994 13.682 75.3994 14.13C75.3994 14.718 75.2314 15.2383 74.8954 15.691C74.5641 16.1437 74.1044 16.4983 73.5164 16.755C72.9284 17.0117 72.2448 17.14 71.4654 17.14ZM79.141 17.14C78.679 17.14 78.2637 17.056 77.895 16.888C77.531 16.7153 77.244 16.4703 77.034 16.153C76.8287 15.831 76.726 15.4413 76.726 14.984C76.726 14.186 77.013 13.584 77.587 13.178C78.1657 12.772 79.085 12.5597 80.345 12.541L81.43 12.513V12.023C81.43 11.6403 81.3157 11.3417 81.087 11.127C80.863 10.9077 80.513 10.8003 80.037 10.805C79.6824 10.8097 79.3604 10.8937 79.071 11.057C78.7817 11.2157 78.5904 11.484 78.497 11.862H77.048C77.076 11.3673 77.2184 10.9543 77.475 10.623C77.7364 10.287 78.0934 10.0373 78.546 9.874C78.9987 9.706 79.5214 9.622 80.114 9.622C80.8047 9.622 81.367 9.713 81.801 9.895C82.235 10.077 82.5547 10.3407 82.76 10.686C82.9654 11.0267 83.068 11.4397 83.068 11.925V17H81.633L81.493 15.698C81.2364 16.244 80.9074 16.622 80.506 16.832C80.1094 17.0373 79.6544 17.14 79.141 17.14ZM79.694 15.985C79.904 15.985 80.1117 15.9477 80.317 15.873C80.5224 15.7937 80.7067 15.6887 80.87 15.558C81.038 15.4227 81.171 15.2733 81.269 15.11C81.3717 14.9467 81.4254 14.7763 81.43 14.599V13.458L80.541 13.472C80.1024 13.4767 79.7174 13.5233 79.386 13.612C79.0594 13.7007 78.805 13.843 78.623 14.039C78.441 14.2303 78.35 14.487 78.35 14.809C78.35 15.1777 78.4784 15.467 78.735 15.677C78.9917 15.8823 79.3114 15.985 79.694 15.985ZM84.882 17V9.762H86.513V11.33C86.6297 10.9707 86.7953 10.665 87.01 10.413C87.2293 10.1563 87.486 9.96033 87.78 9.825C88.074 9.68967 88.3937 9.622 88.739 9.622C88.823 9.622 88.9047 9.62667 88.984 9.636C89.0633 9.64533 89.1217 9.66167 89.159 9.685V11.316C89.1077 11.2927 89.04 11.2763 88.956 11.267C88.8767 11.2577 88.8067 11.253 88.746 11.253C88.396 11.225 88.0857 11.239 87.815 11.295C87.549 11.351 87.3227 11.4467 87.136 11.582C86.954 11.7127 86.8163 11.8807 86.723 12.086C86.6297 12.2867 86.583 12.5223 86.583 12.793V17H84.882ZM92.4028 17.14C91.9408 17.14 91.5254 17.056 91.1568 16.888C90.7928 16.7153 90.5058 16.4703 90.2958 16.153C90.0904 15.831 89.9878 15.4413 89.9878 14.984C89.9878 14.186 90.2748 13.584 90.8488 13.178C91.4274 12.772 92.3468 12.5597 93.6068 12.541L94.6918 12.513V12.023C94.6918 11.6403 94.5774 11.3417 94.3488 11.127C94.1248 10.9077 93.7748 10.8003 93.2987 10.805C92.9441 10.8097 92.6221 10.8937 92.3328 11.057C92.0434 11.2157 91.8521 11.484 91.7588 11.862H90.3098C90.3378 11.3673 90.4801 10.9543 90.7368 10.623C90.9981 10.287 91.3551 10.0373 91.8078 9.874C92.2604 9.706 92.7831 9.622 93.3758 9.622C94.0664 9.622 94.6288 9.713 95.0628 9.895C95.4968 10.077 95.8164 10.3407 96.0218 10.686C96.2271 11.0267 96.3298 11.4397 96.3298 11.925V17H94.8948L94.7548 15.698C94.4981 16.244 94.1691 16.622 93.7678 16.832C93.3711 17.0373 92.9161 17.14 92.4028 17.14ZM92.9558 15.985C93.1658 15.985 93.3734 15.9477 93.5788 15.873C93.7841 15.7937 93.9684 15.6887 94.1318 15.558C94.2998 15.4227 94.4328 15.2733 94.5308 15.11C94.6334 14.9467 94.6871 14.7763 94.6918 14.599V13.458L93.8028 13.472C93.3641 13.4767 92.9791 13.5233 92.6478 13.612C92.3211 13.7007 92.0668 13.843 91.8848 14.039C91.7028 14.2303 91.6118 14.487 91.6118 14.809C91.6118 15.1777 91.7401 15.467 91.9968 15.677C92.2534 15.8823 92.5731 15.985 92.9558 15.985ZM98.1437 17V6.598H99.8237V10.812C99.9404 10.63 100.094 10.455 100.286 10.287C100.477 10.1143 100.71 9.97433 100.986 9.867C101.266 9.755 101.599 9.699 101.987 9.699C102.449 9.699 102.871 9.78767 103.254 9.965C103.636 10.1423 103.942 10.399 104.171 10.735C104.399 11.0663 104.514 11.463 104.514 11.925V17H102.806V12.212C102.806 11.8387 102.673 11.5493 102.407 11.344C102.145 11.1387 101.814 11.036 101.413 11.036C101.147 11.036 100.892 11.0827 100.65 11.176C100.407 11.2693 100.211 11.4093 100.062 11.596C99.9171 11.778 99.8447 12.0067 99.8447 12.282V17H98.1437ZM105.671 10.525L106.462 8.698L105.804 8.649V6.878H107.666V8.432L106.357 10.525H105.671Z" fill="black"/>
<path d="M541 94C541 58.6538 569.654 30 605 30V30C640.346 30 669 58.6538 669 94V94C669 129.346 640.346 158 605 158V158C569.654 158 541 129.346 541 94V94Z" fill="#C990C0"/>
<path d="M594.891 99.14C594.014 99.14 593.302 98.9953 592.756 98.706C592.215 98.4167 591.818 97.992 591.566 97.432C591.319 96.872 591.195 96.1837 591.195 95.367V88.878H592.539V95.563C592.539 96.3797 592.742 96.991 593.148 97.397C593.554 97.803 594.135 98.006 594.891 98.006C595.4 98.006 595.832 97.9173 596.186 97.74C596.546 97.5627 596.819 97.2943 597.005 96.935C597.197 96.571 597.292 96.1137 597.292 95.563V88.878H598.594V95.5C598.594 96.2793 598.466 96.9397 598.209 97.481C597.953 98.0223 597.551 98.4353 597.005 98.72C596.464 99 595.759 99.14 594.891 99.14ZM603.336 99.14C602.832 99.14 602.363 99.063 601.929 98.909C601.5 98.7503 601.143 98.5053 600.858 98.174C600.573 97.838 600.396 97.411 600.326 96.893H601.502C601.563 97.1777 601.679 97.4157 601.852 97.607C602.025 97.7937 602.237 97.936 602.489 98.034C602.746 98.1273 603.026 98.174 603.329 98.174C603.819 98.174 604.213 98.083 604.512 97.901C604.811 97.719 604.96 97.439 604.96 97.061C604.96 96.795 604.881 96.5827 604.722 96.424C604.568 96.2607 604.325 96.1417 603.994 96.067L602.496 95.696C601.913 95.556 601.446 95.3367 601.096 95.038C600.751 94.7393 600.576 94.3217 600.571 93.785C600.571 93.3603 600.674 92.987 600.879 92.665C601.084 92.343 601.39 92.0887 601.796 91.902C602.207 91.7153 602.718 91.622 603.329 91.622C604.118 91.622 604.752 91.7993 605.233 92.154C605.714 92.504 605.966 93.0197 605.989 93.701H604.841C604.794 93.3557 604.64 93.0827 604.379 92.882C604.118 92.6767 603.763 92.574 603.315 92.574C602.858 92.574 602.482 92.6673 602.188 92.854C601.899 93.036 601.754 93.3207 601.754 93.708C601.754 93.9647 601.857 94.1677 602.062 94.317C602.272 94.4617 602.575 94.583 602.972 94.681L604.428 95.045C604.759 95.1337 605.035 95.2503 605.254 95.395C605.473 95.5397 605.646 95.7007 605.772 95.878C605.898 96.0553 605.987 96.242 606.038 96.438C606.094 96.6293 606.122 96.8137 606.122 96.991C606.122 97.4343 606.012 97.817 605.793 98.139C605.574 98.4563 605.256 98.7037 604.841 98.881C604.426 99.0537 603.924 99.14 603.336 99.14ZM610.873 99.14C610.201 99.14 609.608 98.993 609.095 98.699C608.582 98.405 608.18 97.9827 607.891 97.432C607.602 96.8813 607.457 96.221 607.457 95.451C607.457 94.6903 607.588 94.023 607.849 93.449C608.11 92.875 608.488 92.427 608.983 92.105C609.482 91.783 610.082 91.622 610.782 91.622C611.463 91.622 612.04 91.769 612.511 92.063C612.982 92.357 613.339 92.7723 613.582 93.309C613.829 93.841 613.953 94.4733 613.953 95.206V95.682H608.766C608.766 96.1393 608.841 96.5547 608.99 96.928C609.144 97.2967 609.375 97.5907 609.683 97.81C609.991 98.0293 610.381 98.139 610.852 98.139C611.314 98.139 611.711 98.0317 612.042 97.817C612.378 97.6023 612.593 97.292 612.686 96.886H613.904C613.82 97.376 613.624 97.789 613.316 98.125C613.013 98.461 612.646 98.7153 612.217 98.888C611.792 99.056 611.344 99.14 610.873 99.14ZM608.773 94.807H612.707C612.707 94.3917 612.637 94.0183 612.497 93.687C612.357 93.351 612.142 93.0873 611.853 92.896C611.568 92.7 611.209 92.602 610.775 92.602C610.322 92.602 609.947 92.7117 609.648 92.931C609.349 93.1457 609.128 93.4233 608.983 93.764C608.838 94.1 608.768 94.4477 608.773 94.807ZM615.744 99V91.762H616.976V93.155C617.097 92.8097 617.268 92.525 617.487 92.301C617.706 92.0723 617.956 91.902 618.236 91.79C618.521 91.678 618.815 91.622 619.118 91.622C619.225 91.622 619.33 91.629 619.433 91.643C619.536 91.657 619.615 91.6803 619.671 91.713V92.966C619.601 92.9333 619.51 92.9123 619.398 92.903C619.291 92.889 619.2 92.882 619.125 92.882C618.836 92.8633 618.565 92.882 618.313 92.938C618.061 92.9893 617.839 93.0803 617.648 93.211C617.457 93.3417 617.305 93.5143 617.193 93.729C617.086 93.939 617.032 94.1957 617.032 94.499V99H615.744Z" fill="white"/>
<path d="M564.966 17V9.762H566.632V10.798C566.744 10.6113 566.896 10.4317 567.087 10.259C567.283 10.0863 567.523 9.94633 567.808 9.839C568.093 9.73167 568.426 9.678 568.809 9.678C569.257 9.678 569.672 9.76667 570.055 9.944C570.442 10.1213 570.753 10.399 570.986 10.777C571.224 11.155 571.343 11.6427 571.343 12.24V17H569.635V12.443C569.635 11.967 569.504 11.6147 569.243 11.386C568.982 11.1527 568.653 11.036 568.256 11.036C567.985 11.036 567.729 11.0827 567.486 11.176C567.243 11.2647 567.045 11.4023 566.891 11.589C566.742 11.771 566.667 11.9997 566.667 12.275V17H564.966ZM575.221 17.14C574.759 17.14 574.344 17.056 573.975 16.888C573.611 16.7153 573.324 16.4703 573.114 16.153C572.909 15.831 572.806 15.4413 572.806 14.984C572.806 14.186 573.093 13.584 573.667 13.178C574.246 12.772 575.165 12.5597 576.425 12.541L577.51 12.513V12.023C577.51 11.6403 577.396 11.3417 577.167 11.127C576.943 10.9077 576.593 10.8003 576.117 10.805C575.762 10.8097 575.44 10.8937 575.151 11.057C574.862 11.2157 574.67 11.484 574.577 11.862H573.128C573.156 11.3673 573.298 10.9543 573.555 10.623C573.816 10.287 574.173 10.0373 574.626 9.874C575.079 9.706 575.601 9.622 576.194 9.622C576.885 9.622 577.447 9.713 577.881 9.895C578.315 10.077 578.635 10.3407 578.84 10.686C579.045 11.0267 579.148 11.4397 579.148 11.925V17H577.713L577.573 15.698C577.316 16.244 576.987 16.622 576.586 16.832C576.189 17.0373 575.734 17.14 575.221 17.14ZM575.774 15.985C575.984 15.985 576.192 15.9477 576.397 15.873C576.602 15.7937 576.787 15.6887 576.95 15.558C577.118 15.4227 577.251 15.2733 577.349 15.11C577.452 14.9467 577.505 14.7763 577.51 14.599V13.458L576.621 13.472C576.182 13.4767 575.797 13.5233 575.466 13.612C575.139 13.7007 574.885 13.843 574.703 14.039C574.521 14.2303 574.43 14.487 574.43 14.809C574.43 15.1777 574.558 15.467 574.815 15.677C575.072 15.8823 575.391 15.985 575.774 15.985ZM580.962 17V9.762H582.621V10.798C582.831 10.4807 583.116 10.2053 583.475 9.972C583.839 9.73867 584.301 9.622 584.861 9.622C585.118 9.622 585.377 9.66633 585.638 9.755C585.904 9.84367 586.149 9.97433 586.373 10.147C586.602 10.3197 586.784 10.5343 586.919 10.791C587.148 10.4503 587.451 10.1703 587.829 9.951C588.212 9.73167 588.641 9.622 589.117 9.622C589.378 9.622 589.647 9.664 589.922 9.748C590.202 9.832 590.459 9.972 590.692 10.168C590.925 10.364 591.114 10.6323 591.259 10.973C591.404 11.309 591.476 11.7313 591.476 12.24V17H589.775V12.443C589.775 12.0837 589.712 11.8013 589.586 11.596C589.46 11.3907 589.297 11.246 589.096 11.162C588.9 11.0733 588.69 11.029 588.466 11.029C588.265 11.029 588.055 11.0687 587.836 11.148C587.621 11.2273 587.437 11.358 587.283 11.54C587.134 11.722 587.059 11.967 587.059 12.275V17H585.358V12.17C585.358 11.918 585.293 11.708 585.162 11.54C585.031 11.372 584.866 11.246 584.665 11.162C584.469 11.0733 584.268 11.029 584.063 11.029C583.853 11.029 583.638 11.0733 583.419 11.162C583.204 11.2507 583.025 11.386 582.88 11.568C582.735 11.75 582.663 11.9857 582.663 12.275V17H580.962ZM596.507 17.14C595.811 17.14 595.198 16.993 594.666 16.699C594.138 16.4003 593.725 15.9757 593.427 15.425C593.133 14.8743 592.986 14.2187 592.986 13.458C592.986 12.716 593.119 12.058 593.385 11.484C593.655 10.9053 594.045 10.4503 594.554 10.119C595.067 9.78767 595.685 9.622 596.409 9.622C597.123 9.622 597.722 9.77367 598.208 10.077C598.693 10.3803 599.062 10.805 599.314 11.351C599.566 11.8923 599.692 12.527 599.692 13.255V13.773H594.687C594.682 14.1837 594.747 14.5477 594.883 14.865C595.018 15.1823 595.219 15.432 595.485 15.614C595.751 15.7913 596.08 15.88 596.472 15.88C596.873 15.88 597.221 15.7913 597.515 15.614C597.813 15.432 598.012 15.1567 598.11 14.788H599.664C599.58 15.292 599.379 15.719 599.062 16.069C598.749 16.419 598.366 16.685 597.914 16.867C597.466 17.049 596.997 17.14 596.507 17.14ZM594.68 12.716H598.082C598.082 12.366 598.019 12.051 597.893 11.771C597.771 11.4863 597.587 11.2623 597.34 11.099C597.092 10.931 596.78 10.847 596.402 10.847C596.028 10.847 595.713 10.938 595.457 11.12C595.2 11.302 595.006 11.5377 594.876 11.827C594.745 12.1117 594.68 12.408 594.68 12.716ZM601.082 11.932V9.986H603.007V11.932H601.082ZM601.082 16.958V15.026H603.007V16.958H601.082ZM608.369 10.497L607.9 6.878H609.755L609.265 10.497H608.369ZM611.832 17L611.839 6.878H613.561V15.53H618.132V17H611.832ZM622.396 17.14C622.041 17.14 621.698 17.0887 621.367 16.986C621.04 16.8787 620.746 16.7247 620.485 16.524C620.223 16.3187 620.016 16.0667 619.862 15.768C619.708 15.4693 619.631 15.1217 619.631 14.725V9.762H621.339V14.529C621.339 14.921 621.462 15.243 621.71 15.495C621.962 15.747 622.34 15.873 622.844 15.873C623.301 15.873 623.667 15.754 623.943 15.516C624.218 15.2733 624.356 14.9257 624.356 14.473V9.762H626.05V17H624.741L624.552 15.586C624.463 15.9827 624.307 16.2953 624.083 16.524C623.863 16.748 623.604 16.9067 623.306 17C623.012 17.0933 622.708 17.14 622.396 17.14ZM631.018 17.14C630.355 17.14 629.765 16.9953 629.247 16.706C628.733 16.412 628.33 15.9873 628.036 15.432C627.742 14.872 627.595 14.1977 627.595 13.409C627.595 12.6577 627.732 11.9997 628.008 11.435C628.288 10.8657 628.682 10.4223 629.191 10.105C629.704 9.783 630.313 9.622 631.018 9.622C631.582 9.622 632.079 9.734 632.509 9.958C632.938 10.182 633.281 10.4923 633.538 10.889C633.799 11.2857 633.955 11.736 634.007 12.24H632.558C632.52 12.0207 632.439 11.813 632.313 11.617C632.187 11.4163 632.016 11.2553 631.802 11.134C631.592 11.008 631.335 10.945 631.032 10.945C630.486 10.945 630.045 11.1457 629.709 11.547C629.373 11.9483 629.205 12.5643 629.205 13.395C629.205 14.1603 629.363 14.7693 629.681 15.222C630.003 15.6747 630.462 15.901 631.06 15.901C631.358 15.901 631.615 15.8357 631.83 15.705C632.044 15.5697 632.212 15.404 632.334 15.208C632.46 15.0073 632.539 14.8067 632.572 14.606H633.986C633.944 15.096 633.792 15.5323 633.531 15.915C633.269 16.2977 632.924 16.5987 632.495 16.818C632.065 17.0327 631.573 17.14 631.018 17.14ZM636.417 19.31C635.95 19.31 635.626 19.2727 635.444 19.198C635.262 19.128 635.171 19.093 635.171 19.093V18.001L635.899 18.022C636.193 18.036 636.431 18.0197 636.613 17.973C636.8 17.9263 636.944 17.861 637.047 17.777C637.15 17.6977 637.224 17.6113 637.271 17.518C637.322 17.4293 637.362 17.3523 637.39 17.287L637.579 16.755L634.758 9.762H636.452L638.377 14.879L640.295 9.762H641.961L638.979 17.266C638.755 17.812 638.512 18.232 638.251 18.526C637.994 18.8247 637.712 19.03 637.404 19.142C637.101 19.254 636.772 19.31 636.417 19.31ZM642.917 10.525L643.708 8.698L643.05 8.649V6.878H644.912V8.432L643.603 10.525H642.917Z" fill="black"/>
<path d="M0 423C0 387.654 28.6538 359 64 359V359C99.3462 359 128 387.654 128 423V423C128 458.346 99.3462 487 64 487V487C28.6538 487 0 458.346 0 423V423Z" fill="#C990C0"/>
<path d="M53.8914 428.14C53.0141 428.14 52.3024 427.995 51.7564 427.706C51.2151 427.417 50.8184 426.992 50.5664 426.432C50.3191 425.872 50.1954 425.184 50.1954 424.367V417.878H51.5394V424.563C51.5394 425.38 51.7424 425.991 52.1484 426.397C52.5544 426.803 53.1354 427.006 53.8914 427.006C54.4001 427.006 54.8317 426.917 55.1864 426.74C55.5457 426.563 55.8187 426.294 56.0054 425.935C56.1967 425.571 56.2924 425.114 56.2924 424.563V417.878H57.5944V424.5C57.5944 425.279 57.4661 425.94 57.2094 426.481C56.9527 427.022 56.5514 427.435 56.0054 427.72C55.4641 428 54.7594 428.14 53.8914 428.14ZM62.3361 428.14C61.8321 428.14 61.3631 428.063 60.9291 427.909C60.4998 427.75 60.1428 427.505 59.8581 427.174C59.5735 426.838 59.3961 426.411 59.3261 425.893H60.5021C60.5628 426.178 60.6795 426.416 60.8521 426.607C61.0248 426.794 61.2371 426.936 61.4891 427.034C61.7458 427.127 62.0258 427.174 62.3291 427.174C62.8191 427.174 63.2135 427.083 63.5121 426.901C63.8108 426.719 63.9601 426.439 63.9601 426.061C63.9601 425.795 63.8808 425.583 63.7221 425.424C63.5681 425.261 63.3255 425.142 62.9941 425.067L61.4961 424.696C60.9128 424.556 60.4461 424.337 60.0961 424.038C59.7508 423.739 59.5758 423.322 59.5711 422.785C59.5711 422.36 59.6738 421.987 59.8791 421.665C60.0845 421.343 60.3901 421.089 60.7961 420.902C61.2068 420.715 61.7178 420.622 62.3291 420.622C63.1178 420.622 63.7525 420.799 64.2331 421.154C64.7138 421.504 64.9658 422.02 64.9891 422.701H63.8411C63.7945 422.356 63.6405 422.083 63.3791 421.882C63.1178 421.677 62.7631 421.574 62.3151 421.574C61.8578 421.574 61.4821 421.667 61.1881 421.854C60.8988 422.036 60.7541 422.321 60.7541 422.708C60.7541 422.965 60.8568 423.168 61.0621 423.317C61.2721 423.462 61.5755 423.583 61.9721 423.681L63.4281 424.045C63.7595 424.134 64.0348 424.25 64.2541 424.395C64.4735 424.54 64.6461 424.701 64.7721 424.878C64.8981 425.055 64.9868 425.242 65.0381 425.438C65.0941 425.629 65.1221 425.814 65.1221 425.991C65.1221 426.434 65.0125 426.817 64.7931 427.139C64.5738 427.456 64.2565 427.704 63.8411 427.881C63.4258 428.054 62.9241 428.14 62.3361 428.14ZM69.8732 428.14C69.2012 428.14 68.6085 427.993 68.0952 427.699C67.5818 427.405 67.1805 426.983 66.8912 426.432C66.6018 425.881 66.4572 425.221 66.4572 424.451C66.4572 423.69 66.5878 423.023 66.8492 422.449C67.1105 421.875 67.4885 421.427 67.9832 421.105C68.4825 420.783 69.0822 420.622 69.7822 420.622C70.4635 420.622 71.0398 420.769 71.5112 421.063C71.9825 421.357 72.3395 421.772 72.5822 422.309C72.8295 422.841 72.9532 423.473 72.9532 424.206V424.682H67.7662C67.7662 425.139 67.8408 425.555 67.9902 425.928C68.1442 426.297 68.3752 426.591 68.6832 426.81C68.9912 427.029 69.3808 427.139 69.8522 427.139C70.3142 427.139 70.7108 427.032 71.0422 426.817C71.3782 426.602 71.5928 426.292 71.6862 425.886H72.9042C72.8202 426.376 72.6242 426.789 72.3162 427.125C72.0128 427.461 71.6465 427.715 71.2172 427.888C70.7925 428.056 70.3445 428.14 69.8732 428.14ZM67.7732 423.807H71.7072C71.7072 423.392 71.6372 423.018 71.4972 422.687C71.3572 422.351 71.1425 422.087 70.8532 421.896C70.5685 421.7 70.2092 421.602 69.7752 421.602C69.3225 421.602 68.9468 421.712 68.6482 421.931C68.3495 422.146 68.1278 422.423 67.9832 422.764C67.8385 423.1 67.7685 423.448 67.7732 423.807ZM74.7439 428V420.762H75.9759V422.155C76.0972 421.81 76.2675 421.525 76.4869 421.301C76.7062 421.072 76.9559 420.902 77.2359 420.79C77.5205 420.678 77.8145 420.622 78.1179 420.622C78.2252 420.622 78.3302 420.629 78.4329 420.643C78.5355 420.657 78.6149 420.68 78.6709 420.713V421.966C78.6009 421.933 78.5099 421.912 78.3979 421.903C78.2905 421.889 78.1995 421.882 78.1249 421.882C77.8355 421.863 77.5649 421.882 77.3129 421.938C77.0609 421.989 76.8392 422.08 76.6479 422.211C76.4565 422.342 76.3049 422.514 76.1929 422.729C76.0855 422.939 76.0319 423.196 76.0319 423.499V428H74.7439Z" fill="white"/>
<path d="M20.966 504V496.762H22.632V497.798C22.744 497.611 22.8957 497.432 23.087 497.259C23.283 497.086 23.5233 496.946 23.808 496.839C24.0927 496.732 24.4263 496.678 24.809 496.678C25.257 496.678 25.6723 496.767 26.055 496.944C26.4423 497.121 26.7527 497.399 26.986 497.777C27.224 498.155 27.343 498.643 27.343 499.24V504H25.635V499.443C25.635 498.967 25.5043 498.615 25.243 498.386C24.9817 498.153 24.6527 498.036 24.256 498.036C23.9853 498.036 23.7287 498.083 23.486 498.176C23.2433 498.265 23.045 498.402 22.891 498.589C22.7417 498.771 22.667 499 22.667 499.275V504H20.966ZM31.2211 504.14C30.7591 504.14 30.3438 504.056 29.9751 503.888C29.6111 503.715 29.3241 503.47 29.1141 503.153C28.9088 502.831 28.8061 502.441 28.8061 501.984C28.8061 501.186 29.0931 500.584 29.6671 500.178C30.2458 499.772 31.1651 499.56 32.4251 499.541L33.5101 499.513V499.023C33.5101 498.64 33.3958 498.342 33.1671 498.127C32.9431 497.908 32.5931 497.8 32.1171 497.805C31.7624 497.81 31.4404 497.894 31.1511 498.057C30.8618 498.216 30.6704 498.484 30.5771 498.862H29.1281C29.1561 498.367 29.2984 497.954 29.5551 497.623C29.8164 497.287 30.1734 497.037 30.6261 496.874C31.0788 496.706 31.6014 496.622 32.1941 496.622C32.8848 496.622 33.4471 496.713 33.8811 496.895C34.3151 497.077 34.6348 497.341 34.8401 497.686C35.0454 498.027 35.1481 498.44 35.1481 498.925V504H33.7131L33.5731 502.698C33.3164 503.244 32.9874 503.622 32.5861 503.832C32.1894 504.037 31.7344 504.14 31.2211 504.14ZM31.7741 502.985C31.9841 502.985 32.1918 502.948 32.3971 502.873C32.6024 502.794 32.7868 502.689 32.9501 502.558C33.1181 502.423 33.2511 502.273 33.3491 502.11C33.4518 501.947 33.5054 501.776 33.5101 501.599V500.458L32.6211 500.472C32.1824 500.477 31.7974 500.523 31.4661 500.612C31.1394 500.701 30.8851 500.843 30.7031 501.039C30.5211 501.23 30.4301 501.487 30.4301 501.809C30.4301 502.178 30.5584 502.467 30.8151 502.677C31.0718 502.882 31.3914 502.985 31.7741 502.985ZM36.9621 504V496.762H38.6211V497.798C38.8311 497.481 39.1158 497.205 39.4751 496.972C39.8391 496.739 40.3011 496.622 40.8611 496.622C41.1178 496.622 41.3768 496.666 41.6381 496.755C41.9041 496.844 42.1491 496.974 42.3731 497.147C42.6018 497.32 42.7838 497.534 42.9191 497.791C43.1478 497.45 43.4511 497.17 43.8291 496.951C44.2118 496.732 44.6411 496.622 45.1171 496.622C45.3784 496.622 45.6468 496.664 45.9221 496.748C46.2021 496.832 46.4588 496.972 46.6921 497.168C46.9254 497.364 47.1144 497.632 47.2591 497.973C47.4038 498.309 47.4761 498.731 47.4761 499.24V504H45.7751V499.443C45.7751 499.084 45.7121 498.801 45.5861 498.596C45.4601 498.391 45.2968 498.246 45.0961 498.162C44.9001 498.073 44.6901 498.029 44.4661 498.029C44.2654 498.029 44.0554 498.069 43.8361 498.148C43.6214 498.227 43.4371 498.358 43.2831 498.54C43.1338 498.722 43.0591 498.967 43.0591 499.275V504H41.3581V499.17C41.3581 498.918 41.2928 498.708 41.1621 498.54C41.0314 498.372 40.8658 498.246 40.6651 498.162C40.4691 498.073 40.2684 498.029 40.0631 498.029C39.8531 498.029 39.6384 498.073 39.4191 498.162C39.2044 498.251 39.0248 498.386 38.8801 498.568C38.7354 498.75 38.6631 498.986 38.6631 499.275V504H36.9621ZM52.5068 504.14C51.8115 504.14 51.1978 503.993 50.6658 503.699C50.1385 503.4 49.7255 502.976 49.4268 502.425C49.1328 501.874 48.9858 501.219 48.9858 500.458C48.9858 499.716 49.1188 499.058 49.3848 498.484C49.6555 497.905 50.0451 497.45 50.5538 497.119C51.0671 496.788 51.6855 496.622 52.4088 496.622C53.1228 496.622 53.7225 496.774 54.2078 497.077C54.6931 497.38 55.0618 497.805 55.3138 498.351C55.5658 498.892 55.6918 499.527 55.6918 500.255V500.773H50.6868C50.6821 501.184 50.7475 501.548 50.8828 501.865C51.0181 502.182 51.2188 502.432 51.4848 502.614C51.7508 502.791 52.0798 502.88 52.4718 502.88C52.8731 502.88 53.2208 502.791 53.5148 502.614C53.8135 502.432 54.0118 502.157 54.1098 501.788H55.6638C55.5798 502.292 55.3791 502.719 55.0618 503.069C54.7491 503.419 54.3665 503.685 53.9138 503.867C53.4658 504.049 52.9968 504.14 52.5068 504.14ZM50.6798 499.716H54.0818C54.0818 499.366 54.0188 499.051 53.8928 498.771C53.7715 498.486 53.5871 498.262 53.3398 498.099C53.0925 497.931 52.7798 497.847 52.4018 497.847C52.0285 497.847 51.7135 497.938 51.4568 498.12C51.2001 498.302 51.0065 498.538 50.8758 498.827C50.7451 499.112 50.6798 499.408 50.6798 499.716ZM57.0815 498.932V496.986H59.0065V498.932H57.0815ZM57.0815 503.958V502.026H59.0065V503.958H57.0815ZM64.3691 497.497L63.9001 493.878H65.7551L65.2651 497.497H64.3691ZM67.8324 504V493.878C67.8744 493.878 67.9981 493.878 68.2034 493.878C68.4088 493.878 68.6514 493.878 68.9314 493.878C69.2161 493.878 69.5031 493.88 69.7924 493.885C70.0864 493.885 70.3408 493.887 70.5554 493.892C71.7874 493.915 72.7884 494.128 73.5584 494.529C74.3331 494.926 74.9001 495.493 75.2594 496.23C75.6234 496.963 75.8054 497.847 75.8054 498.883C75.8054 499.966 75.6118 500.887 75.2244 501.648C74.8418 502.409 74.2538 502.992 73.4604 503.398C72.6718 503.799 71.6684 504 70.4504 504H67.8324ZM69.5614 502.593H70.4784C71.1738 502.593 71.7874 502.474 72.3194 502.236C72.8514 501.993 73.2668 501.601 73.5654 501.06C73.8688 500.519 74.0204 499.795 74.0204 498.89C74.0204 498.013 73.8804 497.31 73.6004 496.783C73.3204 496.256 72.9191 495.875 72.3964 495.642C71.8738 495.404 71.2484 495.285 70.5204 495.285H69.5614V502.593ZM79.5785 504.14C79.1165 504.14 78.7012 504.056 78.3325 503.888C77.9685 503.715 77.6815 503.47 77.4715 503.153C77.2662 502.831 77.1635 502.441 77.1635 501.984C77.1635 501.186 77.4505 500.584 78.0245 500.178C78.6032 499.772 79.5225 499.56 80.7825 499.541L81.8675 499.513V499.023C81.8675 498.64 81.7532 498.342 81.5245 498.127C81.3005 497.908 80.9505 497.8 80.4745 497.805C80.1199 497.81 79.7979 497.894 79.5085 498.057C79.2192 498.216 79.0279 498.484 78.9345 498.862H77.4855C77.5135 498.367 77.6559 497.954 77.9125 497.623C78.1739 497.287 78.5309 497.037 78.9835 496.874C79.4362 496.706 79.9589 496.622 80.5515 496.622C81.2422 496.622 81.8045 496.713 82.2385 496.895C82.6725 497.077 82.9922 497.341 83.1975 497.686C83.4029 498.027 83.5055 498.44 83.5055 498.925V504H82.0705L81.9305 502.698C81.6739 503.244 81.3449 503.622 80.9435 503.832C80.5469 504.037 80.0919 504.14 79.5785 504.14ZM80.1315 502.985C80.3415 502.985 80.5492 502.948 80.7545 502.873C80.9599 502.794 81.1442 502.689 81.3075 502.558C81.4755 502.423 81.6085 502.273 81.7065 502.11C81.8092 501.947 81.8629 501.776 81.8675 501.599V500.458L80.9785 500.472C80.5399 500.477 80.1549 500.523 79.8235 500.612C79.4969 500.701 79.2425 500.843 79.0605 501.039C78.8785 501.23 78.7875 501.487 78.7875 501.809C78.7875 502.178 78.9159 502.467 79.1725 502.677C79.4292 502.882 79.7489 502.985 80.1315 502.985ZM87.0334 504L84.3594 496.762H85.9204L87.6564 501.83H87.7474L89.4764 496.762H91.0444L88.3774 504H87.0334ZM92.2792 504V496.762H93.9102V504H92.2792ZM92.2512 495.495V493.885H93.9382V495.495H92.2512ZM98.5485 504.14C97.5919 504.14 96.8405 503.811 96.2945 503.153C95.7485 502.495 95.4755 501.559 95.4755 500.346C95.4755 499.59 95.5852 498.934 95.8045 498.379C96.0285 497.819 96.3575 497.387 96.7915 497.084C97.2255 496.776 97.7599 496.622 98.3945 496.622C98.6932 496.622 98.9639 496.659 99.2065 496.734C99.4539 496.804 99.6732 496.897 99.8645 497.014C100.056 497.131 100.217 497.259 100.348 497.399C100.483 497.539 100.588 497.679 100.663 497.819V493.598H102.378V504H101.118L100.929 502.516C100.868 502.689 100.782 502.871 100.67 503.062C100.562 503.249 100.415 503.424 100.229 503.587C100.047 503.75 99.8179 503.883 99.5425 503.986C99.2672 504.089 98.9359 504.14 98.5485 504.14ZM98.8985 502.887C99.5099 502.887 99.9555 502.689 100.236 502.292C100.52 501.891 100.663 501.228 100.663 500.304C100.658 499.777 100.593 499.333 100.467 498.974C100.345 498.615 100.159 498.344 99.9065 498.162C99.6545 497.98 99.3255 497.889 98.9195 497.889C98.4062 497.889 97.9839 498.078 97.6525 498.456C97.3259 498.834 97.1625 499.45 97.1625 500.304C97.1625 501.153 97.3142 501.797 97.6175 502.236C97.9209 502.67 98.3479 502.887 98.8985 502.887ZM104.03 497.525L104.821 495.698L104.163 495.649V493.878H106.025V495.432L104.716 497.525H104.03Z" fill="black"/>
<path d="M541 423C541 387.654 569.654 359 605 359V359C640.346 359 669 387.654 669 423V423C669 458.346 640.346 487 605 487V487C569.654 487 541 458.346 541 423V423Z" fill="#C990C0"/>
<path d="M594.891 428.14C594.014 428.14 593.302 427.995 592.756 427.706C592.215 427.417 591.818 426.992 591.566 426.432C591.319 425.872 591.195 425.184 591.195 424.367V417.878H592.539V424.563C592.539 425.38 592.742 425.991 593.148 426.397C593.554 426.803 594.135 427.006 594.891 427.006C595.4 427.006 595.832 426.917 596.186 426.74C596.546 426.563 596.819 426.294 597.005 425.935C597.197 425.571 597.292 425.114 597.292 424.563V417.878H598.594V424.5C598.594 425.279 598.466 425.94 598.209 426.481C597.953 427.022 597.551 427.435 597.005 427.72C596.464 428 595.759 428.14 594.891 428.14ZM603.336 428.14C602.832 428.14 602.363 428.063 601.929 427.909C601.5 427.75 601.143 427.505 600.858 427.174C600.573 426.838 600.396 426.411 600.326 425.893H601.502C601.563 426.178 601.679 426.416 601.852 426.607C602.025 426.794 602.237 426.936 602.489 427.034C602.746 427.127 603.026 427.174 603.329 427.174C603.819 427.174 604.213 427.083 604.512 426.901C604.811 426.719 604.96 426.439 604.96 426.061C604.96 425.795 604.881 425.583 604.722 425.424C604.568 425.261 604.325 425.142 603.994 425.067L602.496 424.696C601.913 424.556 601.446 424.337 601.096 424.038C600.751 423.739 600.576 423.322 600.571 422.785C600.571 422.36 600.674 421.987 600.879 421.665C601.084 421.343 601.39 421.089 601.796 420.902C602.207 420.715 602.718 420.622 603.329 420.622C604.118 420.622 604.752 420.799 605.233 421.154C605.714 421.504 605.966 422.02 605.989 422.701H604.841C604.794 422.356 604.64 422.083 604.379 421.882C604.118 421.677 603.763 421.574 603.315 421.574C602.858 421.574 602.482 421.667 602.188 421.854C601.899 422.036 601.754 422.321 601.754 422.708C601.754 422.965 601.857 423.168 602.062 423.317C602.272 423.462 602.575 423.583 602.972 423.681L604.428 424.045C604.759 424.134 605.035 424.25 605.254 424.395C605.473 424.54 605.646 424.701 605.772 424.878C605.898 425.055 605.987 425.242 606.038 425.438C606.094 425.629 606.122 425.814 606.122 425.991C606.122 426.434 606.012 426.817 605.793 427.139C605.574 427.456 605.256 427.704 604.841 427.881C604.426 428.054 603.924 428.14 603.336 428.14ZM610.873 428.14C610.201 428.14 609.608 427.993 609.095 427.699C608.582 427.405 608.18 426.983 607.891 426.432C607.602 425.881 607.457 425.221 607.457 424.451C607.457 423.69 607.588 423.023 607.849 422.449C608.11 421.875 608.488 421.427 608.983 421.105C609.482 420.783 610.082 420.622 610.782 420.622C611.463 420.622 612.04 420.769 612.511 421.063C612.982 421.357 613.339 421.772 613.582 422.309C613.829 422.841 613.953 423.473 613.953 424.206V424.682H608.766C608.766 425.139 608.841 425.555 608.99 425.928C609.144 426.297 609.375 426.591 609.683 426.81C609.991 427.029 610.381 427.139 610.852 427.139C611.314 427.139 611.711 427.032 612.042 426.817C612.378 426.602 612.593 426.292 612.686 425.886H613.904C613.82 426.376 613.624 426.789 613.316 427.125C613.013 427.461 612.646 427.715 612.217 427.888C611.792 428.056 611.344 428.14 610.873 428.14ZM608.773 423.807H612.707C612.707 423.392 612.637 423.018 612.497 422.687C612.357 422.351 612.142 422.087 611.853 421.896C611.568 421.7 611.209 421.602 610.775 421.602C610.322 421.602 609.947 421.712 609.648 421.931C609.349 422.146 609.128 422.423 608.983 422.764C608.838 423.1 608.768 423.448 608.773 423.807ZM615.744 428V420.762H616.976V422.155C617.097 421.81 617.268 421.525 617.487 421.301C617.706 421.072 617.956 420.902 618.236 420.79C618.521 420.678 618.815 420.622 619.118 420.622C619.225 420.622 619.33 420.629 619.433 420.643C619.536 420.657 619.615 420.68 619.671 420.713V421.966C619.601 421.933 619.51 421.912 619.398 421.903C619.291 421.889 619.2 421.882 619.125 421.882C618.836 421.863 618.565 421.882 618.313 421.938C618.061 421.989 617.839 422.08 617.648 422.211C617.457 422.342 617.305 422.514 617.193 422.729C617.086 422.939 617.032 423.196 617.032 423.499V428H615.744Z" fill="white"/>
<path d="M564.966 504V496.762H566.632V497.798C566.744 497.611 566.896 497.432 567.087 497.259C567.283 497.086 567.523 496.946 567.808 496.839C568.093 496.732 568.426 496.678 568.809 496.678C569.257 496.678 569.672 496.767 570.055 496.944C570.442 497.121 570.753 497.399 570.986 497.777C571.224 498.155 571.343 498.643 571.343 499.24V504H569.635V499.443C569.635 498.967 569.504 498.615 569.243 498.386C568.982 498.153 568.653 498.036 568.256 498.036C567.985 498.036 567.729 498.083 567.486 498.176C567.243 498.265 567.045 498.402 566.891 498.589C566.742 498.771 566.667 499 566.667 499.275V504H564.966ZM575.221 504.14C574.759 504.14 574.344 504.056 573.975 503.888C573.611 503.715 573.324 503.47 573.114 503.153C572.909 502.831 572.806 502.441 572.806 501.984C572.806 501.186 573.093 500.584 573.667 500.178C574.246 499.772 575.165 499.56 576.425 499.541L577.51 499.513V499.023C577.51 498.64 577.396 498.342 577.167 498.127C576.943 497.908 576.593 497.8 576.117 497.805C575.762 497.81 575.44 497.894 575.151 498.057C574.862 498.216 574.67 498.484 574.577 498.862H573.128C573.156 498.367 573.298 497.954 573.555 497.623C573.816 497.287 574.173 497.037 574.626 496.874C575.079 496.706 575.601 496.622 576.194 496.622C576.885 496.622 577.447 496.713 577.881 496.895C578.315 497.077 578.635 497.341 578.84 497.686C579.045 498.027 579.148 498.44 579.148 498.925V504H577.713L577.573 502.698C577.316 503.244 576.987 503.622 576.586 503.832C576.189 504.037 575.734 504.14 575.221 504.14ZM575.774 502.985C575.984 502.985 576.192 502.948 576.397 502.873C576.602 502.794 576.787 502.689 576.95 502.558C577.118 502.423 577.251 502.273 577.349 502.11C577.452 501.947 577.505 501.776 577.51 501.599V500.458L576.621 500.472C576.182 500.477 575.797 500.523 575.466 500.612C575.139 500.701 574.885 500.843 574.703 501.039C574.521 501.23 574.43 501.487 574.43 501.809C574.43 502.178 574.558 502.467 574.815 502.677C575.072 502.882 575.391 502.985 575.774 502.985ZM580.962 504V496.762H582.621V497.798C582.831 497.481 583.116 497.205 583.475 496.972C583.839 496.739 584.301 496.622 584.861 496.622C585.118 496.622 585.377 496.666 585.638 496.755C585.904 496.844 586.149 496.974 586.373 497.147C586.602 497.32 586.784 497.534 586.919 497.791C587.148 497.45 587.451 497.17 587.829 496.951C588.212 496.732 588.641 496.622 589.117 496.622C589.378 496.622 589.647 496.664 589.922 496.748C590.202 496.832 590.459 496.972 590.692 497.168C590.925 497.364 591.114 497.632 591.259 497.973C591.404 498.309 591.476 498.731 591.476 499.24V504H589.775V499.443C589.775 499.084 589.712 498.801 589.586 498.596C589.46 498.391 589.297 498.246 589.096 498.162C588.9 498.073 588.69 498.029 588.466 498.029C588.265 498.029 588.055 498.069 587.836 498.148C587.621 498.227 587.437 498.358 587.283 498.54C587.134 498.722 587.059 498.967 587.059 499.275V504H585.358V499.17C585.358 498.918 585.293 498.708 585.162 498.54C585.031 498.372 584.866 498.246 584.665 498.162C584.469 498.073 584.268 498.029 584.063 498.029C583.853 498.029 583.638 498.073 583.419 498.162C583.204 498.251 583.025 498.386 582.88 498.568C582.735 498.75 582.663 498.986 582.663 499.275V504H580.962ZM596.507 504.14C595.811 504.14 595.198 503.993 594.666 503.699C594.138 503.4 593.725 502.976 593.427 502.425C593.133 501.874 592.986 501.219 592.986 500.458C592.986 499.716 593.119 499.058 593.385 498.484C593.655 497.905 594.045 497.45 594.554 497.119C595.067 496.788 595.685 496.622 596.409 496.622C597.123 496.622 597.722 496.774 598.208 497.077C598.693 497.38 599.062 497.805 599.314 498.351C599.566 498.892 599.692 499.527 599.692 500.255V500.773H594.687C594.682 501.184 594.747 501.548 594.883 501.865C595.018 502.182 595.219 502.432 595.485 502.614C595.751 502.791 596.08 502.88 596.472 502.88C596.873 502.88 597.221 502.791 597.515 502.614C597.813 502.432 598.012 502.157 598.11 501.788H599.664C599.58 502.292 599.379 502.719 599.062 503.069C598.749 503.419 598.366 503.685 597.914 503.867C597.466 504.049 596.997 504.14 596.507 504.14ZM594.68 499.716H598.082C598.082 499.366 598.019 499.051 597.893 498.771C597.771 498.486 597.587 498.262 597.34 498.099C597.092 497.931 596.78 497.847 596.402 497.847C596.028 497.847 595.713 497.938 595.457 498.12C595.2 498.302 595.006 498.538 594.876 498.827C594.745 499.112 594.68 499.408 594.68 499.716ZM601.082 498.932V496.986H603.007V498.932H601.082ZM601.082 503.958V502.026H603.007V503.958H601.082ZM607.739 497.525L608.53 495.698L607.872 495.649V493.878H609.734V495.432L608.425 497.525H607.739ZM615.678 504.14C614.749 504.14 613.951 503.928 613.284 503.503C612.621 503.074 612.11 502.467 611.751 501.683C611.396 500.894 611.219 499.959 611.219 498.876C611.219 497.798 611.396 496.876 611.751 496.111C612.105 495.346 612.614 494.76 613.277 494.354C613.944 493.943 614.744 493.738 615.678 493.738C616.42 493.738 617.078 493.89 617.652 494.193C618.226 494.492 618.688 494.898 619.038 495.411C619.392 495.924 619.602 496.496 619.668 497.126H617.869C617.799 496.753 617.668 496.419 617.477 496.125C617.29 495.831 617.043 495.598 616.735 495.425C616.427 495.252 616.058 495.166 615.629 495.166C615.092 495.166 614.635 495.294 614.257 495.551C613.883 495.803 613.596 496.204 613.396 496.755C613.2 497.306 613.102 498.02 613.102 498.897C613.102 500.227 613.321 501.195 613.76 501.802C614.198 502.409 614.821 502.712 615.629 502.712C616.058 502.712 616.427 502.619 616.735 502.432C617.043 502.241 617.29 501.989 617.477 501.676C617.668 501.359 617.799 501.013 617.869 500.64H619.668C619.612 501.097 619.495 501.536 619.318 501.956C619.145 502.376 618.9 502.752 618.583 503.083C618.265 503.41 617.866 503.669 617.386 503.86C616.91 504.047 616.34 504.14 615.678 504.14ZM623.421 504.105C622.954 504.105 622.581 504.047 622.301 503.93C622.021 503.813 621.811 503.657 621.671 503.461C621.531 503.265 621.44 503.046 621.398 502.803C621.356 502.556 621.335 502.304 621.335 502.047V493.598H623.001V501.851C623.001 502.164 623.064 502.406 623.19 502.579C623.321 502.752 623.531 502.852 623.82 502.88L624.184 502.894V503.965C624.058 504.002 623.93 504.035 623.799 504.063C623.668 504.091 623.542 504.105 623.421 504.105ZM627.803 504.14C627.341 504.14 626.926 504.056 626.557 503.888C626.193 503.715 625.906 503.47 625.696 503.153C625.491 502.831 625.388 502.441 625.388 501.984C625.388 501.186 625.675 500.584 626.249 500.178C626.828 499.772 627.747 499.56 629.007 499.541L630.092 499.513V499.023C630.092 498.64 629.978 498.342 629.749 498.127C629.525 497.908 629.175 497.8 628.699 497.805C628.344 497.81 628.022 497.894 627.733 498.057C627.444 498.216 627.252 498.484 627.159 498.862H625.71C625.738 498.367 625.88 497.954 626.137 497.623C626.398 497.287 626.755 497.037 627.208 496.874C627.661 496.706 628.183 496.622 628.776 496.622C629.467 496.622 630.029 496.713 630.463 496.895C630.897 497.077 631.217 497.341 631.422 497.686C631.627 498.027 631.73 498.44 631.73 498.925V504H630.295L630.155 502.698C629.898 503.244 629.569 503.622 629.168 503.832C628.771 504.037 628.316 504.14 627.803 504.14ZM628.356 502.985C628.566 502.985 628.774 502.948 628.979 502.873C629.184 502.794 629.369 502.689 629.532 502.558C629.7 502.423 629.833 502.273 629.931 502.11C630.034 501.947 630.087 501.776 630.092 501.599V500.458L629.203 500.472C628.764 500.477 628.379 500.523 628.048 500.612C627.721 500.701 627.467 500.843 627.285 501.039C627.103 501.23 627.012 501.487 627.012 501.809C627.012 502.178 627.14 502.467 627.397 502.677C627.654 502.882 627.973 502.985 628.356 502.985ZM633.572 504V496.762H635.203V504H633.572ZM633.544 495.495V493.885H635.231V495.495H633.544ZM637.222 504V496.762H638.853V498.33C638.97 497.971 639.135 497.665 639.35 497.413C639.569 497.156 639.826 496.96 640.12 496.825C640.414 496.69 640.734 496.622 641.079 496.622C641.163 496.622 641.245 496.627 641.324 496.636C641.403 496.645 641.462 496.662 641.499 496.685V498.316C641.448 498.293 641.38 498.276 641.296 498.267C641.217 498.258 641.147 498.253 641.086 498.253C640.736 498.225 640.426 498.239 640.155 498.295C639.889 498.351 639.663 498.447 639.476 498.582C639.294 498.713 639.156 498.881 639.063 499.086C638.97 499.287 638.923 499.522 638.923 499.793V504H637.222ZM645.999 504.14C645.304 504.14 644.69 503.993 644.158 503.699C643.631 503.4 643.218 502.976 642.919 502.425C642.625 501.874 642.478 501.219 642.478 500.458C642.478 499.716 642.611 499.058 642.877 498.484C643.148 497.905 643.537 497.45 644.046 497.119C644.559 496.788 645.178 496.622 645.901 496.622C646.615 496.622 647.215 496.774 647.7 497.077C648.185 497.38 648.554 497.805 648.806 498.351C649.058 498.892 649.184 499.527 649.184 500.255V500.773H644.179C644.174 501.184 644.24 501.548 644.375 501.865C644.51 502.182 644.711 502.432 644.977 502.614C645.243 502.791 645.572 502.88 645.964 502.88C646.365 502.88 646.713 502.791 647.007 502.614C647.306 502.432 647.504 502.157 647.602 501.788H649.156C649.072 502.292 648.871 502.719 648.554 503.069C648.241 503.419 647.859 503.685 647.406 503.867C646.958 504.049 646.489 504.14 645.999 504.14ZM644.172 499.716H647.574C647.574 499.366 647.511 499.051 647.385 498.771C647.264 498.486 647.079 498.262 646.832 498.099C646.585 497.931 646.272 497.847 645.894 497.847C645.521 497.847 645.206 497.938 644.949 498.12C644.692 498.302 644.499 498.538 644.368 498.827C644.237 499.112 644.172 499.408 644.172 499.716ZM649.999 497.525L650.79 495.698L650.132 495.649V493.878H651.994V495.432L650.685 497.525H649.999Z" fill="black"/>
<path d="M272 252.935C272 218.183 300.172 190 334.924 190V190C369.675 190 397.847 218.183 397.847 252.935V252.935C397.847 287.687 369.675 315.87 334.924 315.87V315.87C300.172 315.87 272 287.687 272 252.935V252.935Z" fill="#FFDF81"/>
<path d="M318.207 257.935V247.813H324.591L324.584 248.954H319.509V252.258H324.08V253.392H319.502V256.766L324.724 256.78V257.935H318.207ZM326.445 257.935V250.697H327.691V251.747C327.892 251.43 328.167 251.152 328.517 250.914C328.867 250.676 329.322 250.557 329.882 250.557C330.143 250.557 330.409 250.601 330.68 250.69C330.955 250.779 331.207 250.912 331.436 251.089C331.665 251.266 331.842 251.483 331.968 251.74C332.192 251.385 332.495 251.101 332.878 250.886C333.261 250.667 333.692 250.557 334.173 250.557C334.425 250.557 334.689 250.597 334.964 250.676C335.239 250.751 335.494 250.886 335.727 251.082C335.965 251.273 336.159 251.542 336.308 251.887C336.457 252.228 336.532 252.666 336.532 253.203V257.935H335.23V253.329C335.23 252.89 335.16 252.552 335.02 252.314C334.88 252.071 334.696 251.901 334.467 251.803C334.243 251.705 334.003 251.656 333.746 251.656C333.522 251.656 333.284 251.7 333.032 251.789C332.78 251.878 332.565 252.027 332.388 252.237C332.211 252.447 332.122 252.734 332.122 253.098V257.935H330.834V252.951C330.834 252.666 330.757 252.428 330.603 252.237C330.454 252.046 330.265 251.901 330.036 251.803C329.812 251.705 329.588 251.656 329.364 251.656C329.117 251.656 328.867 251.705 328.615 251.803C328.368 251.901 328.158 252.057 327.985 252.272C327.817 252.482 327.733 252.757 327.733 253.098V257.935H326.445ZM340.561 258.075C340.089 258.075 339.674 257.993 339.315 257.83C338.96 257.662 338.68 257.422 338.475 257.109C338.274 256.796 338.174 256.418 338.174 255.975C338.174 255.172 338.454 254.575 339.014 254.183C339.574 253.791 340.472 253.581 341.709 253.553L342.997 253.518V252.951C342.997 252.508 342.864 252.158 342.598 251.901C342.332 251.64 341.921 251.509 341.366 251.509C340.95 251.514 340.584 251.612 340.267 251.803C339.949 251.994 339.746 252.307 339.658 252.741H338.517C338.545 252.27 338.675 251.873 338.909 251.551C339.147 251.224 339.48 250.977 339.91 250.809C340.339 250.641 340.845 250.557 341.429 250.557C342.059 250.557 342.581 250.646 342.997 250.823C343.417 251 343.729 251.262 343.935 251.607C344.145 251.952 344.25 252.377 344.25 252.881V257.935H343.144L343.046 256.577C342.77 257.142 342.416 257.534 341.982 257.753C341.552 257.968 341.079 258.075 340.561 258.075ZM340.946 257.144C341.193 257.144 341.436 257.1 341.674 257.011C341.916 256.922 342.136 256.803 342.332 256.654C342.532 256.5 342.693 256.33 342.815 256.143C342.936 255.952 342.997 255.756 342.997 255.555V254.316L341.926 254.337C341.37 254.346 340.908 254.402 340.54 254.505C340.171 254.608 339.893 254.769 339.707 254.988C339.52 255.207 339.427 255.494 339.427 255.849C339.427 256.255 339.569 256.572 339.854 256.801C340.138 257.03 340.502 257.144 340.946 257.144ZM346.304 257.935V250.697H347.557V257.935H346.304ZM346.269 249.164V247.82H347.592V249.164H346.269ZM351.637 258.026C351.245 258.026 350.928 257.972 350.685 257.865C350.447 257.758 350.263 257.613 350.132 257.431C350.006 257.249 349.92 257.041 349.873 256.808C349.831 256.57 349.81 256.325 349.81 256.073V247.533H351.084V255.947C351.084 256.311 351.154 256.584 351.294 256.766C351.439 256.948 351.639 257.048 351.896 257.067L352.288 257.074V257.914C352.181 257.947 352.069 257.972 351.952 257.991C351.835 258.014 351.73 258.026 351.637 258.026Z" fill="#1A1B1D"/>
<path d="M538.952 133.689C539.09 133.154 538.769 132.608 538.234 132.47L529.522 130.213C528.987 130.074 528.442 130.396 528.303 130.93C528.165 131.465 528.486 132.01 529.02 132.149L536.765 134.155L534.758 141.9C534.62 142.434 534.941 142.98 535.476 143.118C536.01 143.257 536.556 142.936 536.695 142.401L538.952 133.689ZM502.826 154.128L503.333 154.99L503.333 154.99L502.826 154.128ZM496.591 157.797L496.083 156.935L496.083 156.935L496.591 157.797ZM485.021 164.606L484.514 163.744L484.514 163.744L485.021 164.606ZM483.652 164.251C483.176 164.531 483.017 165.144 483.297 165.62C483.577 166.096 484.19 166.255 484.666 165.975L483.652 164.251ZM451.541 185.468C452.017 185.188 452.176 184.575 451.896 184.099C451.616 183.623 451.003 183.464 450.527 183.744L451.541 185.468ZM450.172 185.113L449.665 184.252L449.665 184.252L450.172 185.113ZM444.838 188.253L444.33 187.391L444.33 187.391L444.838 188.253ZM438.602 191.922L439.11 192.784L439.11 192.784L438.602 191.922ZM400.357 213.269C399.881 213.549 399.722 214.162 400.002 214.638C400.282 215.114 400.895 215.272 401.371 214.992L400.357 213.269ZM537.984 133.438L537.476 132.576L502.319 153.266L502.826 154.128L503.333 154.99L538.491 134.3L537.984 133.438ZM502.826 154.128L502.319 153.266L496.083 156.935L496.591 157.797L497.098 158.659L503.333 154.99L502.826 154.128ZM496.591 157.797L496.083 156.935L484.514 163.744L485.021 164.606L485.528 165.467L497.098 158.659L496.591 157.797ZM485.021 164.606L484.514 163.744L483.652 164.251L484.159 165.113L484.666 165.975L485.528 165.467L485.021 164.606ZM451.034 184.606L450.527 183.744L449.665 184.252L450.172 185.113L450.679 185.975L451.541 185.468L451.034 184.606ZM450.172 185.113L449.665 184.252L444.33 187.391L444.838 188.253L445.345 189.115L450.679 185.975L450.172 185.113ZM444.838 188.253L444.33 187.391L438.095 191.06L438.602 191.922L439.11 192.784L445.345 189.115L444.838 188.253ZM438.602 191.922L438.095 191.06L400.357 213.269L400.864 214.131L401.371 214.992L439.11 192.784L438.602 191.922Z" fill="#1A1B1D"/>
<path d="M458.569 171.5V170.178H466.449V171.5H463.272V180.359H461.741V171.5H458.569ZM476.443 175.269C476.443 176.356 476.245 177.29 475.847 178.073C475.449 178.851 474.904 179.451 474.211 179.872C473.522 180.29 472.738 180.499 471.86 180.499C470.978 180.499 470.191 180.29 469.498 179.872C468.809 179.451 468.265 178.85 467.867 178.068C467.47 177.285 467.271 176.352 467.271 175.269C467.271 174.181 467.47 173.248 467.867 172.47C468.265 171.687 468.809 171.087 469.498 170.67C470.191 170.249 470.978 170.038 471.86 170.038C472.738 170.038 473.522 170.249 474.211 170.67C474.904 171.087 475.449 171.687 475.847 172.47C476.245 173.248 476.443 174.181 476.443 175.269ZM474.922 175.269C474.922 174.44 474.788 173.742 474.519 173.176C474.254 172.605 473.89 172.175 473.426 171.883C472.965 171.588 472.443 171.44 471.86 171.44C471.273 171.44 470.749 171.588 470.289 171.883C469.828 172.175 469.463 172.605 469.195 173.176C468.93 173.742 468.797 174.44 468.797 175.269C468.797 176.097 468.93 176.797 469.195 177.367C469.463 177.933 469.828 178.364 470.289 178.659C470.749 178.951 471.273 179.097 471.86 179.097C472.443 179.097 472.965 178.951 473.426 178.659C473.89 178.364 474.254 177.933 474.519 177.367C474.788 176.797 474.922 176.097 474.922 175.269Z" fill="black" fill-opacity="0.8"/>
<path d="M538.26 381.81C538.798 381.687 539.136 381.152 539.013 380.613L537.019 371.837C536.897 371.298 536.361 370.961 535.822 371.083C535.284 371.206 534.947 371.741 535.069 372.28L536.842 380.081L529.04 381.854C528.502 381.976 528.164 382.512 528.287 383.05C528.409 383.589 528.945 383.926 529.484 383.804L538.26 381.81ZM494.692 353.54L494.159 354.386L494.159 354.386L494.692 353.54ZM493.846 353.007L494.378 352.161L494.378 352.161L493.846 353.007ZM485.19 346.375C484.723 346.081 484.106 346.221 483.811 346.688C483.517 347.156 483.657 347.773 484.125 348.068L485.19 346.375ZM450 326.579C450.467 326.874 451.085 326.733 451.379 326.266C451.673 325.799 451.533 325.181 451.065 324.887L450 326.579ZM440.499 319.415L441.031 318.569L441.031 318.569L440.499 319.415ZM439.652 318.882L439.12 319.728L439.12 319.728L439.652 318.882ZM401.342 293.576C400.875 293.282 400.257 293.422 399.963 293.89C399.669 294.357 399.809 294.975 400.276 295.269L401.342 293.576ZM538.038 380.835L538.571 379.989L495.225 352.694L494.692 353.54L494.159 354.386L537.505 381.681L538.038 380.835ZM494.692 353.54L495.225 352.694L494.378 352.161L493.846 353.007L493.313 353.853L494.159 354.386L494.692 353.54ZM493.846 353.007L494.378 352.161L485.19 346.375L484.658 347.221L484.125 348.068L493.313 353.853L493.846 353.007ZM450.533 325.733L451.065 324.887L441.031 318.569L440.499 319.415L439.966 320.261L450 326.579L450.533 325.733ZM440.499 319.415L441.031 318.569L440.185 318.036L439.652 318.882L439.12 319.728L439.966 320.261L440.499 319.415ZM439.652 318.882L440.185 318.036L401.342 293.576L400.809 294.423L400.276 295.269L439.12 319.728L439.652 318.882Z" fill="#1A1B1D"/>
<path d="M466.952 335.107H465.401C465.342 334.775 465.231 334.483 465.068 334.232C464.906 333.98 464.707 333.766 464.472 333.59C464.236 333.415 463.973 333.282 463.681 333.192C463.393 333.103 463.086 333.058 462.761 333.058C462.175 333.058 461.649 333.206 461.185 333.501C460.725 333.796 460.36 334.228 460.092 334.798C459.827 335.368 459.694 336.064 459.694 336.886C459.694 337.715 459.827 338.414 460.092 338.984C460.36 339.554 460.726 339.985 461.19 340.277C461.654 340.569 462.176 340.715 462.756 340.715C463.078 340.715 463.383 340.671 463.671 340.585C463.963 340.496 464.226 340.365 464.462 340.192C464.697 340.02 464.896 339.81 465.058 339.561C465.224 339.309 465.338 339.021 465.401 338.696L466.952 338.701C466.87 339.201 466.709 339.662 466.47 340.083C466.235 340.501 465.932 340.862 465.56 341.167C465.193 341.469 464.772 341.702 464.298 341.868C463.824 342.034 463.307 342.116 462.746 342.116C461.865 342.116 461.079 341.908 460.39 341.49C459.701 341.069 459.157 340.468 458.759 339.685C458.365 338.903 458.168 337.97 458.168 336.886C458.168 335.799 458.367 334.866 458.764 334.087C459.162 333.305 459.706 332.705 460.395 332.288C461.084 331.867 461.868 331.656 462.746 331.656C463.287 331.656 463.791 331.734 464.258 331.89C464.728 332.042 465.151 332.268 465.526 332.566C465.9 332.861 466.21 333.222 466.455 333.65C466.701 334.074 466.866 334.56 466.952 335.107ZM477.093 335.107H475.542C475.483 334.775 475.372 334.483 475.209 334.232C475.047 333.98 474.848 333.766 474.613 333.59C474.377 333.415 474.114 333.282 473.822 333.192C473.534 333.103 473.227 333.058 472.902 333.058C472.316 333.058 471.79 333.206 471.326 333.501C470.866 333.796 470.501 334.228 470.233 334.798C469.967 335.368 469.835 336.064 469.835 336.886C469.835 337.715 469.967 338.414 470.233 338.984C470.501 339.554 470.867 339.985 471.331 340.277C471.795 340.569 472.317 340.715 472.897 340.715C473.219 340.715 473.524 340.671 473.812 340.585C474.104 340.496 474.367 340.365 474.603 340.192C474.838 340.02 475.037 339.81 475.199 339.561C475.365 339.309 475.479 339.021 475.542 338.696L477.093 338.701C477.011 339.201 476.85 339.662 476.611 340.083C476.376 340.501 476.073 340.862 475.701 341.167C475.333 341.469 474.913 341.702 474.439 341.868C473.965 342.034 473.448 342.116 472.887 342.116C472.006 342.116 471.22 341.908 470.531 341.49C469.841 341.069 469.298 340.468 468.9 339.685C468.506 338.903 468.309 337.97 468.309 336.886C468.309 335.799 468.507 334.866 468.905 334.087C469.303 333.305 469.846 332.705 470.536 332.288C471.225 331.867 472.009 331.656 472.887 331.656C473.428 331.656 473.931 331.734 474.399 331.89C474.869 332.042 475.292 332.268 475.667 332.566C476.041 332.861 476.351 333.222 476.596 333.65C476.841 334.074 477.007 334.56 477.093 335.107Z" fill="black" fill-opacity="0.8"/>
<path d="M129.99 380.742C129.866 381.28 130.203 381.817 130.741 381.94L139.515 383.946C140.053 384.069 140.59 383.733 140.713 383.194C140.836 382.656 140.499 382.12 139.961 381.997L132.162 380.213L133.946 372.414C134.069 371.876 133.732 371.34 133.194 371.217C132.656 371.093 132.119 371.43 131.996 371.968L129.99 380.742ZM173.099 354.516L173.63 355.363L173.63 355.363L173.099 354.516ZM173.811 354.069L173.28 353.222L173.28 353.222L173.811 354.069ZM174.658 353.537L175.19 354.384L175.19 354.384L174.658 353.537ZM185.309 348.032C185.777 347.739 185.918 347.121 185.624 346.654C185.331 346.186 184.713 346.045 184.246 346.338L185.309 348.032ZM218.371 324.917C217.903 325.211 217.762 325.828 218.055 326.296C218.349 326.764 218.966 326.905 219.434 326.611L218.371 324.917ZM223.224 323.052L222.692 322.205L222.692 322.205L223.224 323.052ZM228.174 319.944L227.643 319.097L227.643 319.097L228.174 319.944ZM229.021 319.412L229.553 320.259L229.553 320.259L229.021 319.412ZM269.567 295.141C270.035 294.848 270.176 294.231 269.883 293.763C269.589 293.295 268.972 293.154 268.504 293.447L269.567 295.141ZM130.964 380.965L131.496 381.812L173.63 355.363L173.099 354.516L172.567 353.669L130.433 380.118L130.964 380.965ZM173.099 354.516L173.63 355.363L174.343 354.916L173.811 354.069L173.28 353.222L172.567 353.669L173.099 354.516ZM173.811 354.069L174.343 354.916L175.19 354.384L174.658 353.537L174.127 352.69L173.28 353.222L173.811 354.069ZM174.658 353.537L175.19 354.384L185.309 348.032L184.777 347.185L184.246 346.338L174.127 352.69L174.658 353.537ZM218.902 325.764L219.434 326.611L223.755 323.899L223.224 323.052L222.692 322.205L218.371 324.917L218.902 325.764ZM223.224 323.052L223.755 323.899L228.706 320.791L228.174 319.944L227.643 319.097L222.692 322.205L223.224 323.052ZM228.174 319.944L228.706 320.791L229.553 320.259L229.021 319.412L228.49 318.565L227.643 319.097L228.174 319.944ZM229.021 319.412L229.553 320.259L269.567 295.141L269.036 294.294L268.504 293.447L228.49 318.565L229.021 319.412Z" fill="#1A1B1D"/>
<path d="M201.197 335.104H199.646C199.586 334.773 199.475 334.481 199.313 334.229C199.151 333.977 198.952 333.763 198.716 333.588C198.481 333.412 198.218 333.28 197.926 333.19C197.638 333.101 197.331 333.056 197.006 333.056C196.42 333.056 195.894 333.203 195.43 333.498C194.969 333.793 194.605 334.226 194.336 334.796C194.071 335.366 193.939 336.062 193.939 336.884C193.939 337.713 194.071 338.412 194.336 338.982C194.605 339.552 194.971 339.983 195.435 340.275C195.899 340.566 196.421 340.712 197.001 340.712C197.323 340.712 197.628 340.669 197.916 340.583C198.208 340.493 198.471 340.362 198.706 340.19C198.942 340.018 199.141 339.807 199.303 339.559C199.469 339.307 199.583 339.018 199.646 338.694L201.197 338.699C201.114 339.199 200.954 339.66 200.715 340.081C200.48 340.498 200.176 340.86 199.805 341.164C199.437 341.466 199.016 341.7 198.542 341.865C198.068 342.031 197.551 342.114 196.991 342.114C196.11 342.114 195.324 341.905 194.635 341.488C193.945 341.067 193.402 340.465 193.004 339.683C192.61 338.901 192.412 337.968 192.412 336.884C192.412 335.797 192.611 334.864 193.009 334.085C193.407 333.303 193.95 332.703 194.64 332.285C195.329 331.864 196.113 331.654 196.991 331.654C197.531 331.654 198.035 331.732 198.503 331.887C198.973 332.04 199.396 332.265 199.77 332.564C200.145 332.859 200.455 333.22 200.7 333.647C200.945 334.072 201.111 334.557 201.197 335.104ZM211.338 335.104H209.787C209.727 334.773 209.616 334.481 209.454 334.229C209.291 333.977 209.093 333.763 208.857 333.588C208.622 333.412 208.358 333.28 208.067 333.19C207.778 333.101 207.472 333.056 207.147 333.056C206.56 333.056 206.035 333.203 205.571 333.498C205.11 333.793 204.746 334.226 204.477 334.796C204.212 335.366 204.08 336.062 204.08 336.884C204.08 337.713 204.212 338.412 204.477 338.982C204.746 339.552 205.112 339.983 205.576 340.275C206.04 340.566 206.562 340.712 207.142 340.712C207.464 340.712 207.769 340.669 208.057 340.583C208.349 340.493 208.612 340.362 208.847 340.19C209.083 340.018 209.282 339.807 209.444 339.559C209.61 339.307 209.724 339.018 209.787 338.694L211.338 338.699C211.255 339.199 211.095 339.66 210.856 340.081C210.621 340.498 210.317 340.86 209.946 341.164C209.578 341.466 209.157 341.7 208.683 341.865C208.209 342.031 207.692 342.114 207.132 342.114C206.251 342.114 205.465 341.905 204.776 341.488C204.086 341.067 203.543 340.465 203.145 339.683C202.751 338.901 202.553 337.968 202.553 336.884C202.553 335.797 202.752 334.864 203.15 334.085C203.548 333.303 204.091 332.703 204.781 332.285C205.47 331.864 206.254 331.654 207.132 331.654C207.672 331.654 208.176 331.732 208.644 331.887C209.114 332.04 209.537 332.265 209.911 332.564C210.286 332.859 210.596 333.22 210.841 333.647C211.086 334.072 211.252 334.557 211.338 335.104Z" fill="black" fill-opacity="0.8"/>
<path d="M269.24 214.499C269.775 214.364 270.1 213.82 269.965 213.285L267.768 204.557C267.633 204.022 267.09 203.697 266.554 203.832C266.019 203.967 265.694 204.51 265.829 205.046L267.782 212.803L260.024 214.757C259.488 214.892 259.164 215.435 259.298 215.971C259.433 216.506 259.977 216.831 260.512 216.696L269.24 214.499ZM232.846 191.922L233.359 191.064L233.359 191.064L232.846 191.922ZM226.708 188.253L227.221 187.394L226.708 188.253ZM223.737 185.312C223.263 185.029 222.649 185.183 222.365 185.657C222.082 186.131 222.237 186.745 222.711 187.029L223.737 185.312ZM172.586 157.068C173.06 157.352 173.674 157.197 173.957 156.723C174.24 156.249 174.086 155.635 173.612 155.352L172.586 157.068ZM169.615 154.128L170.128 153.269L170.128 153.269L169.615 154.128ZM131.517 130.191C131.043 129.908 130.429 130.062 130.146 130.536C129.863 131.01 130.017 131.624 130.491 131.908L131.517 130.191ZM268.996 213.529L269.509 212.671L233.359 191.064L232.846 191.922L232.333 192.78L268.483 214.387L268.996 213.529ZM232.846 191.922L233.359 191.064L227.221 187.394L226.708 188.253L226.194 189.111L232.333 192.78L232.846 191.922ZM226.708 188.253L227.221 187.394L223.737 185.312L223.224 186.17L222.711 187.029L226.194 189.111L226.708 188.253ZM173.099 156.21L173.612 155.352L170.128 153.269L169.615 154.128L169.102 154.986L172.586 157.068L173.099 156.21ZM169.615 154.128L170.128 153.269L131.517 130.191L131.004 131.049L130.491 131.908L169.102 154.986L169.615 154.128Z" fill="#1A1B1D"/>
<path d="M186.552 169.183C186.499 168.712 186.281 168.348 185.896 168.089C185.512 167.827 185.028 167.697 184.444 167.697C184.027 167.697 183.666 167.763 183.361 167.895C183.056 168.025 182.819 168.204 182.65 168.432C182.484 168.658 182.401 168.915 182.401 169.203C182.401 169.445 182.457 169.654 182.57 169.829C182.686 170.005 182.837 170.153 183.023 170.272C183.212 170.388 183.414 170.486 183.629 170.565C183.845 170.641 184.052 170.704 184.251 170.754L185.245 171.013C185.57 171.092 185.903 171.2 186.244 171.336C186.586 171.472 186.902 171.651 187.194 171.873C187.485 172.095 187.721 172.37 187.9 172.698C188.082 173.026 188.173 173.419 188.173 173.876C188.173 174.453 188.024 174.965 187.726 175.412C187.431 175.86 187.002 176.213 186.438 176.471C185.878 176.73 185.2 176.859 184.405 176.859C183.642 176.859 182.983 176.738 182.426 176.496C181.869 176.254 181.433 175.911 181.118 175.467C180.804 175.02 180.63 174.489 180.596 173.876H182.138C182.167 174.244 182.287 174.551 182.496 174.796C182.708 175.038 182.978 175.219 183.306 175.338C183.637 175.454 184 175.512 184.395 175.512C184.829 175.512 185.215 175.444 185.553 175.308C185.895 175.169 186.163 174.977 186.359 174.731C186.554 174.483 186.652 174.193 186.652 173.861C186.652 173.56 186.566 173.313 186.393 173.121C186.224 172.928 185.994 172.769 185.702 172.643C185.414 172.517 185.087 172.406 184.723 172.31L183.52 171.982C182.704 171.76 182.058 171.434 181.581 171.003C181.107 170.572 180.87 170.002 180.87 169.292C180.87 168.706 181.029 168.194 181.347 167.756C181.665 167.319 182.096 166.979 182.64 166.737C183.183 166.492 183.796 166.369 184.479 166.369C185.169 166.369 185.777 166.49 186.304 166.732C186.834 166.974 187.252 167.307 187.557 167.731C187.862 168.152 188.021 168.636 188.034 169.183H186.552ZM189.855 176.69V166.508H196.238V167.831H191.391V170.933H195.905V172.251H191.391V175.368H196.298V176.69H189.855ZM206.354 166.508V176.69H204.943L199.767 169.223H199.673V176.69H198.136V166.508H199.558L204.739 173.986H204.833V166.508H206.354ZM207.939 167.831V166.508H215.819V167.831H212.642V176.69H211.111V167.831H207.939Z" fill="black" fill-opacity="0.8"/>
<path d="M279.004 333.14C278.341 333.14 277.751 332.995 277.233 332.706C276.72 332.412 276.316 331.987 276.022 331.432C275.728 330.872 275.581 330.198 275.581 329.409C275.581 328.658 275.719 328 275.994 327.435C276.274 326.866 276.668 326.422 277.177 326.105C277.69 325.783 278.299 325.622 279.004 325.622C279.569 325.622 280.066 325.734 280.495 325.958C280.924 326.182 281.267 326.492 281.524 326.889C281.785 327.286 281.942 327.736 281.993 328.24H280.544C280.507 328.021 280.425 327.813 280.299 327.617C280.173 327.416 280.003 327.255 279.788 327.134C279.578 327.008 279.321 326.945 279.018 326.945C278.472 326.945 278.031 327.146 277.695 327.547C277.359 327.948 277.191 328.564 277.191 329.395C277.191 330.16 277.35 330.769 277.667 331.222C277.989 331.675 278.449 331.901 279.046 331.901C279.345 331.901 279.601 331.836 279.816 331.705C280.031 331.57 280.199 331.404 280.32 331.208C280.446 331.007 280.525 330.807 280.558 330.606H281.972C281.93 331.096 281.778 331.532 281.517 331.915C281.256 332.298 280.91 332.599 280.481 332.818C280.052 333.033 279.559 333.14 279.004 333.14ZM286.619 333.14C285.929 333.14 285.327 332.993 284.813 332.699C284.3 332.4 283.901 331.973 283.616 331.418C283.336 330.863 283.196 330.195 283.196 329.416C283.196 328.66 283.334 327.997 283.609 327.428C283.885 326.859 284.277 326.415 284.785 326.098C285.299 325.781 285.912 325.622 286.626 325.622C287.317 325.622 287.917 325.774 288.425 326.077C288.934 326.38 289.326 326.814 289.601 327.379C289.881 327.944 290.021 328.623 290.021 329.416C290.021 330.149 289.888 330.795 289.622 331.355C289.361 331.91 288.976 332.347 288.467 332.664C287.963 332.981 287.347 333.14 286.619 333.14ZM286.626 331.845C287.018 331.845 287.34 331.738 287.592 331.523C287.849 331.308 288.04 331.014 288.166 330.641C288.292 330.268 288.355 329.843 288.355 329.367C288.355 328.924 288.299 328.515 288.187 328.142C288.075 327.769 287.891 327.47 287.634 327.246C287.382 327.017 287.046 326.903 286.626 326.903C286.23 326.903 285.901 327.008 285.639 327.218C285.383 327.423 285.191 327.713 285.065 328.086C284.939 328.455 284.876 328.882 284.876 329.367C284.876 329.806 284.932 330.214 285.044 330.592C285.156 330.965 285.341 331.269 285.597 331.502C285.854 331.731 286.197 331.845 286.626 331.845ZM291.579 333V325.762H293.245V326.798C293.357 326.611 293.509 326.432 293.7 326.259C293.896 326.086 294.137 325.946 294.421 325.839C294.706 325.732 295.04 325.678 295.422 325.678C295.87 325.678 296.286 325.767 296.668 325.944C297.056 326.121 297.366 326.399 297.599 326.777C297.837 327.155 297.956 327.643 297.956 328.24V333H296.248V328.443C296.248 327.967 296.118 327.615 295.856 327.386C295.595 327.153 295.266 327.036 294.869 327.036C294.599 327.036 294.342 327.083 294.099 327.176C293.857 327.265 293.658 327.402 293.504 327.589C293.355 327.771 293.28 328 293.28 328.275V333H291.579ZM302.4 333.056C301.826 333.056 301.381 332.981 301.063 332.832C300.751 332.678 300.534 332.461 300.412 332.181C300.291 331.901 300.23 331.567 300.23 331.18V326.966H299.054V325.762H300.279L300.706 323.613H301.931V325.755H303.548V326.966H301.931L301.938 331.117C301.938 331.332 301.962 331.49 302.008 331.593C302.06 331.691 302.139 331.756 302.246 331.789C302.358 331.817 302.505 331.831 302.687 331.831H303.583V332.909C303.485 332.946 303.341 332.979 303.149 333.007C302.963 333.04 302.713 333.056 302.4 333.056ZM308.149 333.14C307.454 333.14 306.84 332.993 306.308 332.699C305.781 332.4 305.368 331.976 305.069 331.425C304.775 330.874 304.628 330.219 304.628 329.458C304.628 328.716 304.761 328.058 305.027 327.484C305.298 326.905 305.688 326.45 306.196 326.119C306.71 325.788 307.328 325.622 308.051 325.622C308.765 325.622 309.365 325.774 309.85 326.077C310.336 326.38 310.704 326.805 310.956 327.351C311.208 327.892 311.334 328.527 311.334 329.255V329.773H306.329C306.325 330.184 306.39 330.548 306.525 330.865C306.661 331.182 306.861 331.432 307.127 331.614C307.393 331.791 307.722 331.88 308.114 331.88C308.516 331.88 308.863 331.791 309.157 331.614C309.456 331.432 309.654 331.157 309.752 330.788H311.306C311.222 331.292 311.022 331.719 310.704 332.069C310.392 332.419 310.009 332.685 309.556 332.867C309.108 333.049 308.639 333.14 308.149 333.14ZM306.322 328.716H309.724C309.724 328.366 309.661 328.051 309.535 327.771C309.414 327.486 309.23 327.262 308.982 327.099C308.735 326.931 308.422 326.847 308.044 326.847C307.671 326.847 307.356 326.938 307.099 327.12C306.843 327.302 306.649 327.538 306.518 327.827C306.388 328.112 306.322 328.408 306.322 328.716ZM312.962 333V325.762H314.628V326.798C314.74 326.611 314.892 326.432 315.083 326.259C315.279 326.086 315.519 325.946 315.804 325.839C316.089 325.732 316.422 325.678 316.805 325.678C317.253 325.678 317.668 325.767 318.051 325.944C318.438 326.121 318.749 326.399 318.982 326.777C319.22 327.155 319.339 327.643 319.339 328.24V333H317.631V328.443C317.631 327.967 317.5 327.615 317.239 327.386C316.978 327.153 316.649 327.036 316.252 327.036C315.981 327.036 315.725 327.083 315.482 327.176C315.239 327.265 315.041 327.402 314.887 327.589C314.738 327.771 314.663 328 314.663 328.275V333H312.962ZM323.783 333.056C323.209 333.056 322.763 332.981 322.446 332.832C322.133 332.678 321.916 332.461 321.795 332.181C321.674 331.901 321.613 331.567 321.613 331.18V326.966H320.437V325.762H321.662L322.089 323.613H323.314V325.755H324.931V326.966H323.314L323.321 331.117C323.321 331.332 323.344 331.49 323.391 331.593C323.442 331.691 323.522 331.756 323.629 331.789C323.741 331.817 323.888 331.831 324.07 331.831H324.966V332.909C324.868 332.946 324.723 332.979 324.532 333.007C324.345 333.04 324.096 333.056 323.783 333.056ZM326.3 327.932V325.986H328.225V327.932H326.3ZM326.3 332.958V331.026H328.225V332.958H326.3ZM332.958 326.525L333.749 324.698L333.091 324.649V322.878H334.953V324.432L333.644 326.525H332.958ZM339.174 333V324.411H336.024V322.878H343.92V324.411H340.882V333H339.174ZM347.36 333.14C346.665 333.14 346.051 332.993 345.519 332.699C344.992 332.4 344.579 331.976 344.28 331.425C343.986 330.874 343.839 330.219 343.839 329.458C343.839 328.716 343.972 328.058 344.238 327.484C344.509 326.905 344.899 326.45 345.407 326.119C345.921 325.788 346.539 325.622 347.262 325.622C347.976 325.622 348.576 325.774 349.061 326.077C349.547 326.38 349.915 326.805 350.167 327.351C350.419 327.892 350.545 328.527 350.545 329.255V329.773H345.54C345.536 330.184 345.601 330.548 345.736 330.865C345.872 331.182 346.072 331.432 346.338 331.614C346.604 331.791 346.933 331.88 347.325 331.88C347.727 331.88 348.074 331.791 348.368 331.614C348.667 331.432 348.865 331.157 348.963 330.788H350.517C350.433 331.292 350.233 331.719 349.915 332.069C349.603 332.419 349.22 332.685 348.767 332.867C348.319 333.049 347.85 333.14 347.36 333.14ZM345.533 328.716H348.935C348.935 328.366 348.872 328.051 348.746 327.771C348.625 327.486 348.441 327.262 348.193 327.099C347.946 326.931 347.633 326.847 347.255 326.847C346.882 326.847 346.567 326.938 346.31 327.12C346.054 327.302 345.86 327.538 345.729 327.827C345.599 328.112 345.533 328.408 345.533 328.716ZM354.918 333.14C354.414 333.14 353.935 333.061 353.483 332.902C353.035 332.739 352.657 332.484 352.349 332.139C352.045 331.794 351.854 331.348 351.775 330.802H353.273C353.338 331.068 353.452 331.285 353.616 331.453C353.784 331.621 353.98 331.745 354.204 331.824C354.432 331.899 354.668 331.936 354.911 331.936C355.345 331.936 355.695 331.861 355.961 331.712C356.227 331.563 356.36 331.332 356.36 331.019C356.36 330.79 356.285 330.608 356.136 330.473C355.991 330.338 355.753 330.235 355.422 330.165L354.05 329.85C353.434 329.715 352.941 329.491 352.573 329.178C352.204 328.865 352.017 328.424 352.013 327.855C352.008 327.426 352.115 327.043 352.335 326.707C352.554 326.371 352.881 326.107 353.315 325.916C353.749 325.72 354.283 325.622 354.918 325.622C355.762 325.622 356.439 325.811 356.948 326.189C357.461 326.562 357.725 327.097 357.739 327.792H356.29C356.238 327.479 356.091 327.237 355.849 327.064C355.606 326.887 355.291 326.798 354.904 326.798C354.502 326.798 354.173 326.875 353.917 327.029C353.66 327.183 353.532 327.419 353.532 327.736C353.532 327.955 353.627 328.128 353.819 328.254C354.015 328.38 354.311 328.487 354.708 328.576L356.01 328.891C356.383 328.984 356.689 329.11 356.927 329.269C357.165 329.428 357.349 329.603 357.48 329.794C357.615 329.981 357.708 330.174 357.76 330.375C357.816 330.571 357.844 330.753 357.844 330.921C357.844 331.388 357.722 331.787 357.48 332.118C357.242 332.445 356.903 332.697 356.465 332.874C356.031 333.051 355.515 333.14 354.918 333.14ZM362.215 333.056C361.641 333.056 361.195 332.981 360.878 332.832C360.565 332.678 360.348 332.461 360.227 332.181C360.105 331.901 360.045 331.567 360.045 331.18V326.966H358.869V325.762H360.094L360.521 323.613H361.746V325.755H363.363V326.966H361.746L361.753 331.117C361.753 331.332 361.776 331.49 361.823 331.593C361.874 331.691 361.953 331.756 362.061 331.789C362.173 331.817 362.32 331.831 362.502 331.831H363.398V332.909C363.3 332.946 363.155 332.979 362.964 333.007C362.777 333.04 362.527 333.056 362.215 333.056ZM364.998 333V325.762H366.629V333H364.998ZM364.97 324.495V322.885H366.657V324.495H364.97ZM368.648 333V325.762H370.314V326.798C370.426 326.611 370.577 326.432 370.769 326.259C370.965 326.086 371.205 325.946 371.49 325.839C371.774 325.732 372.108 325.678 372.491 325.678C372.939 325.678 373.354 325.767 373.737 325.944C374.124 326.121 374.434 326.399 374.668 326.777C374.906 327.155 375.025 327.643 375.025 328.24V333H373.317V328.443C373.317 327.967 373.186 327.615 372.925 327.386C372.663 327.153 372.334 327.036 371.938 327.036C371.667 327.036 371.41 327.083 371.168 327.176C370.925 327.265 370.727 327.402 370.573 327.589C370.423 327.771 370.349 328 370.349 328.275V333H368.648ZM380.071 335.394C378.853 335.394 377.917 335.231 377.264 334.904C376.61 334.577 376.284 334.129 376.284 333.56C376.284 333.303 376.347 333.089 376.473 332.916C376.599 332.743 376.748 332.601 376.921 332.489C377.093 332.377 377.252 332.291 377.397 332.23C377.541 332.169 377.635 332.125 377.677 332.097C377.597 332.05 377.492 331.99 377.362 331.915C377.231 331.84 377.112 331.738 377.005 331.607C376.902 331.476 376.851 331.306 376.851 331.096C376.851 330.853 376.965 330.629 377.194 330.424C377.427 330.219 377.775 330.072 378.237 329.983C377.784 329.764 377.436 329.467 377.194 329.094C376.951 328.721 376.83 328.333 376.83 327.932C376.83 327.456 376.967 327.048 377.243 326.707C377.523 326.366 377.91 326.105 378.405 325.923C378.899 325.741 379.476 325.65 380.134 325.65C380.614 325.65 381.013 325.704 381.331 325.811C381.653 325.918 381.951 326.063 382.227 326.245C382.32 326.208 382.451 326.156 382.619 326.091C382.787 326.021 382.971 325.946 383.172 325.867C383.372 325.783 383.566 325.704 383.753 325.629C383.939 325.55 384.096 325.484 384.222 325.433L384.215 326.84L382.962 327.064C383.022 327.199 383.069 327.346 383.102 327.505C383.139 327.664 383.158 327.804 383.158 327.925C383.158 328.345 383.039 328.735 382.801 329.094C382.567 329.449 382.215 329.733 381.744 329.948C381.277 330.163 380.694 330.27 379.994 330.27C379.924 330.27 379.828 330.268 379.707 330.263C379.585 330.258 379.487 330.254 379.413 330.249C379.035 330.263 378.776 330.307 378.636 330.382C378.496 330.457 378.426 330.538 378.426 330.627C378.426 330.753 378.531 330.837 378.741 330.879C378.951 330.921 379.287 330.958 379.749 330.991C379.912 331 380.127 331.012 380.393 331.026C380.659 331.04 380.955 331.059 381.282 331.082C382.108 331.133 382.733 331.341 383.158 331.705C383.582 332.064 383.795 332.531 383.795 333.105C383.795 333.772 383.487 334.321 382.871 334.75C382.255 335.179 381.321 335.394 380.071 335.394ZM380.358 334.393C380.969 334.393 381.422 334.309 381.716 334.141C382.01 333.973 382.157 333.726 382.157 333.399C382.157 333.147 382.056 332.942 381.856 332.783C381.655 332.624 381.356 332.531 380.96 332.503L379.133 332.391C378.932 332.377 378.741 332.414 378.559 332.503C378.381 332.587 378.237 332.706 378.125 332.86C378.013 333.009 377.957 333.175 377.957 333.357C377.957 333.698 378.15 333.954 378.538 334.127C378.93 334.304 379.536 334.393 380.358 334.393ZM380.05 329.269C380.493 329.269 380.852 329.157 381.128 328.933C381.403 328.704 381.541 328.382 381.541 327.967C381.541 327.538 381.403 327.204 381.128 326.966C380.852 326.723 380.493 326.602 380.05 326.602C379.597 326.602 379.231 326.723 378.951 326.966C378.675 327.209 378.538 327.542 378.538 327.967C378.538 328.368 378.671 328.686 378.937 328.919C379.203 329.152 379.574 329.269 380.05 329.269ZM385.376 333V331.04H387.301V333H385.376ZM389.451 333V331.04H391.376V333H389.451ZM393.525 333V331.04H395.45V333H393.525ZM395.698 326.525L396.489 324.698L395.831 324.649V322.878H397.693V324.432L396.384 326.525H395.698Z" fill="black"/>
</svg>
