<svg width="590" height="968" viewBox="0 0 590 968" fill="none" xmlns="http://www.w3.org/2000/svg">
<path d="M0 483C0 447.654 28.6538 419 64 419C99.3462 419 128 447.654 128 483C128 518.346 99.3462 547 64 547C28.6538 547 0 518.346 0 483Z" fill="#C990C0"/>
<path d="M53.8914 488.14C53.0141 488.14 52.3024 487.995 51.7564 487.706C51.2151 487.417 50.8184 486.992 50.5664 486.432C50.3191 485.872 50.1954 485.184 50.1954 484.367V477.878H51.5394V484.563C51.5394 485.38 51.7424 485.991 52.1484 486.397C52.5544 486.803 53.1354 487.006 53.8914 487.006C54.4001 487.006 54.8317 486.917 55.1864 486.74C55.5457 486.563 55.8187 486.294 56.0054 485.935C56.1967 485.571 56.2924 485.114 56.2924 484.563V477.878H57.5944V484.5C57.5944 485.279 57.4661 485.94 57.2094 486.481C56.9527 487.022 56.5514 487.435 56.0054 487.72C55.4641 488 54.7594 488.14 53.8914 488.14ZM62.3361 488.14C61.8321 488.14 61.3631 488.063 60.9291 487.909C60.4998 487.75 60.1428 487.505 59.8581 487.174C59.5735 486.838 59.3961 486.411 59.3261 485.893H60.5021C60.5628 486.178 60.6795 486.416 60.8521 486.607C61.0248 486.794 61.2371 486.936 61.4891 487.034C61.7458 487.127 62.0258 487.174 62.3291 487.174C62.8191 487.174 63.2135 487.083 63.5121 486.901C63.8108 486.719 63.9601 486.439 63.9601 486.061C63.9601 485.795 63.8808 485.583 63.7221 485.424C63.5681 485.261 63.3255 485.142 62.9941 485.067L61.4961 484.696C60.9128 484.556 60.4461 484.337 60.0961 484.038C59.7508 483.739 59.5758 483.322 59.5711 482.785C59.5711 482.36 59.6738 481.987 59.8791 481.665C60.0845 481.343 60.3901 481.089 60.7961 480.902C61.2068 480.715 61.7178 480.622 62.3291 480.622C63.1178 480.622 63.7525 480.799 64.2331 481.154C64.7138 481.504 64.9658 482.02 64.9891 482.701H63.8411C63.7945 482.356 63.6405 482.083 63.3791 481.882C63.1178 481.677 62.7631 481.574 62.3151 481.574C61.8578 481.574 61.4821 481.667 61.1881 481.854C60.8988 482.036 60.7541 482.321 60.7541 482.708C60.7541 482.965 60.8568 483.168 61.0621 483.317C61.2721 483.462 61.5755 483.583 61.9721 483.681L63.4281 484.045C63.7595 484.134 64.0348 484.25 64.2541 484.395C64.4735 484.54 64.6461 484.701 64.7721 484.878C64.8981 485.055 64.9868 485.242 65.0381 485.438C65.0941 485.629 65.1221 485.814 65.1221 485.991C65.1221 486.434 65.0125 486.817 64.7931 487.139C64.5738 487.456 64.2565 487.704 63.8411 487.881C63.4258 488.054 62.9241 488.14 62.3361 488.14ZM69.8732 488.14C69.2012 488.14 68.6085 487.993 68.0952 487.699C67.5818 487.405 67.1805 486.983 66.8912 486.432C66.6018 485.881 66.4572 485.221 66.4572 484.451C66.4572 483.69 66.5878 483.023 66.8492 482.449C67.1105 481.875 67.4885 481.427 67.9832 481.105C68.4825 480.783 69.0822 480.622 69.7822 480.622C70.4635 480.622 71.0398 480.769 71.5112 481.063C71.9825 481.357 72.3395 481.772 72.5822 482.309C72.8295 482.841 72.9532 483.473 72.9532 484.206V484.682H67.7662C67.7662 485.139 67.8408 485.555 67.9902 485.928C68.1442 486.297 68.3752 486.591 68.6832 486.81C68.9912 487.029 69.3808 487.139 69.8522 487.139C70.3142 487.139 70.7108 487.032 71.0422 486.817C71.3782 486.602 71.5928 486.292 71.6862 485.886H72.9042C72.8202 486.376 72.6242 486.789 72.3162 487.125C72.0128 487.461 71.6465 487.715 71.2172 487.888C70.7925 488.056 70.3445 488.14 69.8732 488.14ZM67.7732 483.807H71.7072C71.7072 483.392 71.6372 483.018 71.4972 482.687C71.3572 482.351 71.1425 482.087 70.8532 481.896C70.5685 481.7 70.2092 481.602 69.7752 481.602C69.3225 481.602 68.9468 481.712 68.6482 481.931C68.3495 482.146 68.1278 482.423 67.9832 482.764C67.8385 483.1 67.7685 483.448 67.7732 483.807ZM74.7439 488V480.762H75.9759V482.155C76.0972 481.81 76.2675 481.525 76.4869 481.301C76.7062 481.072 76.9559 480.902 77.2359 480.79C77.5205 480.678 77.8145 480.622 78.1179 480.622C78.2252 480.622 78.3302 480.629 78.4329 480.643C78.5355 480.657 78.6149 480.68 78.6709 480.713V481.966C78.6009 481.933 78.5099 481.912 78.3979 481.903C78.2905 481.889 78.1995 481.882 78.1249 481.882C77.8355 481.863 77.5649 481.882 77.3129 481.938C77.0609 481.989 76.8392 482.08 76.6479 482.211C76.4565 482.342 76.3049 482.514 76.1929 482.729C76.0855 482.939 76.0319 483.196 76.0319 483.499V488H74.7439Z" fill="white"/>
<path d="M195 64C195 28.6538 223.654 0 259 0C294.346 0 323 28.6538 323 64C323 99.3462 294.346 128 259 128C223.654 128 195 99.3462 195 64Z" fill="#C990C0"/>
<path d="M248.891 69.14C248.014 69.14 247.302 68.9953 246.756 68.706C246.215 68.4167 245.818 67.992 245.566 67.432C245.319 66.872 245.195 66.1837 245.195 65.367V58.878H246.539V65.563C246.539 66.3797 246.742 66.991 247.148 67.397C247.554 67.803 248.135 68.006 248.891 68.006C249.4 68.006 249.832 67.9173 250.186 67.74C250.546 67.5627 250.819 67.2943 251.005 66.935C251.197 66.571 251.292 66.1137 251.292 65.563V58.878H252.594V65.5C252.594 66.2793 252.466 66.9397 252.209 67.481C251.953 68.0223 251.551 68.4353 251.005 68.72C250.464 69 249.759 69.14 248.891 69.14ZM257.336 69.14C256.832 69.14 256.363 69.063 255.929 68.909C255.5 68.7503 255.143 68.5053 254.858 68.174C254.573 67.838 254.396 67.411 254.326 66.893H255.502C255.563 67.1777 255.679 67.4157 255.852 67.607C256.025 67.7937 256.237 67.936 256.489 68.034C256.746 68.1273 257.026 68.174 257.329 68.174C257.819 68.174 258.213 68.083 258.512 67.901C258.811 67.719 258.96 67.439 258.96 67.061C258.96 66.795 258.881 66.5827 258.722 66.424C258.568 66.2607 258.325 66.1417 257.994 66.067L256.496 65.696C255.913 65.556 255.446 65.3367 255.096 65.038C254.751 64.7393 254.576 64.3217 254.571 63.785C254.571 63.3603 254.674 62.987 254.879 62.665C255.084 62.343 255.39 62.0887 255.796 61.902C256.207 61.7153 256.718 61.622 257.329 61.622C258.118 61.622 258.752 61.7993 259.233 62.154C259.714 62.504 259.966 63.0197 259.989 63.701H258.841C258.794 63.3557 258.64 63.0827 258.379 62.882C258.118 62.6767 257.763 62.574 257.315 62.574C256.858 62.574 256.482 62.6673 256.188 62.854C255.899 63.036 255.754 63.3207 255.754 63.708C255.754 63.9647 255.857 64.1677 256.062 64.317C256.272 64.4617 256.575 64.583 256.972 64.681L258.428 65.045C258.759 65.1337 259.035 65.2503 259.254 65.395C259.473 65.5397 259.646 65.7007 259.772 65.878C259.898 66.0553 259.987 66.242 260.038 66.438C260.094 66.6293 260.122 66.8137 260.122 66.991C260.122 67.4343 260.012 67.817 259.793 68.139C259.574 68.4563 259.256 68.7037 258.841 68.881C258.426 69.0537 257.924 69.14 257.336 69.14ZM264.873 69.14C264.201 69.14 263.608 68.993 263.095 68.699C262.582 68.405 262.18 67.9827 261.891 67.432C261.602 66.8813 261.457 66.221 261.457 65.451C261.457 64.6903 261.588 64.023 261.849 63.449C262.11 62.875 262.488 62.427 262.983 62.105C263.482 61.783 264.082 61.622 264.782 61.622C265.463 61.622 266.04 61.769 266.511 62.063C266.982 62.357 267.339 62.7723 267.582 63.309C267.829 63.841 267.953 64.4733 267.953 65.206V65.682H262.766C262.766 66.1393 262.841 66.5547 262.99 66.928C263.144 67.2967 263.375 67.5907 263.683 67.81C263.991 68.0293 264.381 68.139 264.852 68.139C265.314 68.139 265.711 68.0317 266.042 67.817C266.378 67.6023 266.593 67.292 266.686 66.886H267.904C267.82 67.376 267.624 67.789 267.316 68.125C267.013 68.461 266.646 68.7153 266.217 68.888C265.792 69.056 265.344 69.14 264.873 69.14ZM262.773 64.807H266.707C266.707 64.3917 266.637 64.0183 266.497 63.687C266.357 63.351 266.142 63.0873 265.853 62.896C265.568 62.7 265.209 62.602 264.775 62.602C264.322 62.602 263.947 62.7117 263.648 62.931C263.349 63.1457 263.128 63.4233 262.983 63.764C262.838 64.1 262.768 64.4477 262.773 64.807ZM269.744 69V61.762H270.976V63.155C271.097 62.8097 271.268 62.525 271.487 62.301C271.706 62.0723 271.956 61.902 272.236 61.79C272.521 61.678 272.815 61.622 273.118 61.622C273.225 61.622 273.33 61.629 273.433 61.643C273.536 61.657 273.615 61.6803 273.671 61.713V62.966C273.601 62.9333 273.51 62.9123 273.398 62.903C273.291 62.889 273.2 62.882 273.125 62.882C272.836 62.8633 272.565 62.882 272.313 62.938C272.061 62.9893 271.839 63.0803 271.648 63.211C271.457 63.3417 271.305 63.5143 271.193 63.729C271.086 63.939 271.032 64.1957 271.032 64.499V69H269.744Z" fill="white"/>
<path d="M128 278C128 242.654 156.654 214 192 214C227.346 214 256 242.654 256 278C256 313.346 227.346 342 192 342C156.654 342 128 313.346 128 278Z" fill="#FFDF81"/>
<path d="M175.283 283V272.878H181.667L181.66 274.019H176.585V277.323H181.156V278.457H176.578V281.831L181.8 281.845V283H175.283ZM183.521 283V275.762H184.767V276.812C184.968 276.495 185.243 276.217 185.593 275.979C185.943 275.741 186.398 275.622 186.958 275.622C187.22 275.622 187.486 275.666 187.756 275.755C188.032 275.844 188.284 275.977 188.512 276.154C188.741 276.331 188.918 276.548 189.044 276.805C189.268 276.45 189.572 276.166 189.954 275.951C190.337 275.732 190.769 275.622 191.249 275.622C191.501 275.622 191.765 275.662 192.04 275.741C192.316 275.816 192.57 275.951 192.803 276.147C193.041 276.338 193.235 276.607 193.384 276.952C193.534 277.293 193.608 277.731 193.608 278.268V283H192.306V278.394C192.306 277.955 192.236 277.617 192.096 277.379C191.956 277.136 191.772 276.966 191.543 276.868C191.319 276.77 191.079 276.721 190.822 276.721C190.598 276.721 190.36 276.765 190.108 276.854C189.856 276.943 189.642 277.092 189.464 277.302C189.287 277.512 189.198 277.799 189.198 278.163V283H187.91V278.016C187.91 277.731 187.833 277.493 187.679 277.302C187.53 277.111 187.341 276.966 187.112 276.868C186.888 276.77 186.664 276.721 186.44 276.721C186.193 276.721 185.943 276.77 185.691 276.868C185.444 276.966 185.234 277.122 185.061 277.337C184.893 277.547 184.809 277.822 184.809 278.163V283H183.521ZM197.637 283.14C197.166 283.14 196.75 283.058 196.391 282.895C196.036 282.727 195.756 282.487 195.551 282.174C195.35 281.861 195.25 281.483 195.25 281.04C195.25 280.237 195.53 279.64 196.09 279.248C196.65 278.856 197.548 278.646 198.785 278.618L200.073 278.583V278.016C200.073 277.573 199.94 277.223 199.674 276.966C199.408 276.705 198.997 276.574 198.442 276.574C198.027 276.579 197.66 276.677 197.343 276.868C197.026 277.059 196.823 277.372 196.734 277.806H195.593C195.621 277.335 195.752 276.938 195.985 276.616C196.223 276.289 196.557 276.042 196.986 275.874C197.415 275.706 197.922 275.622 198.505 275.622C199.135 275.622 199.658 275.711 200.073 275.888C200.493 276.065 200.806 276.327 201.011 276.672C201.221 277.017 201.326 277.442 201.326 277.946V283H200.22L200.122 281.642C199.847 282.207 199.492 282.599 199.058 282.818C198.629 283.033 198.155 283.14 197.637 283.14ZM198.022 282.209C198.269 282.209 198.512 282.165 198.75 282.076C198.993 281.987 199.212 281.868 199.408 281.719C199.609 281.565 199.77 281.395 199.891 281.208C200.012 281.017 200.073 280.821 200.073 280.62V279.381L199.002 279.402C198.447 279.411 197.985 279.467 197.616 279.57C197.247 279.673 196.97 279.834 196.783 280.053C196.596 280.272 196.503 280.559 196.503 280.914C196.503 281.32 196.645 281.637 196.93 281.866C197.215 282.095 197.579 282.209 198.022 282.209ZM203.38 283V275.762H204.633V283H203.38ZM203.345 274.229V272.885H204.668V274.229H203.345ZM208.713 283.091C208.321 283.091 208.004 283.037 207.761 282.93C207.523 282.823 207.339 282.678 207.208 282.496C207.082 282.314 206.996 282.106 206.949 281.873C206.907 281.635 206.886 281.39 206.886 281.138V272.598H208.16V281.012C208.16 281.376 208.23 281.649 208.37 281.831C208.515 282.013 208.716 282.113 208.972 282.132L209.364 282.139V282.979C209.257 283.012 209.145 283.037 209.028 283.056C208.912 283.079 208.807 283.091 208.713 283.091Z" fill="#1A1B1D"/>
<path d="M250 482C250 446.654 278.654 418 314 418C349.346 418 378 446.654 378 482C378 517.346 349.346 546 314 546C278.654 546 250 517.346 250 482Z" fill="#FFDF81"/>
<path d="M297.283 487V476.878H303.667L303.66 478.019H298.585V481.323H303.156V482.457H298.578V485.831L303.8 485.845V487H297.283ZM305.521 487V479.762H306.767V480.812C306.968 480.495 307.243 480.217 307.593 479.979C307.943 479.741 308.398 479.622 308.958 479.622C309.22 479.622 309.486 479.666 309.756 479.755C310.032 479.844 310.284 479.977 310.512 480.154C310.741 480.331 310.918 480.548 311.044 480.805C311.268 480.45 311.572 480.166 311.954 479.951C312.337 479.732 312.769 479.622 313.249 479.622C313.501 479.622 313.765 479.662 314.04 479.741C314.316 479.816 314.57 479.951 314.803 480.147C315.041 480.338 315.235 480.607 315.384 480.952C315.534 481.293 315.608 481.731 315.608 482.268V487H314.306V482.394C314.306 481.955 314.236 481.617 314.096 481.379C313.956 481.136 313.772 480.966 313.543 480.868C313.319 480.77 313.079 480.721 312.822 480.721C312.598 480.721 312.36 480.765 312.108 480.854C311.856 480.943 311.642 481.092 311.464 481.302C311.287 481.512 311.198 481.799 311.198 482.163V487H309.91V482.016C309.91 481.731 309.833 481.493 309.679 481.302C309.53 481.111 309.341 480.966 309.112 480.868C308.888 480.77 308.664 480.721 308.44 480.721C308.193 480.721 307.943 480.77 307.691 480.868C307.444 480.966 307.234 481.122 307.061 481.337C306.893 481.547 306.809 481.822 306.809 482.163V487H305.521ZM319.637 487.14C319.166 487.14 318.75 487.058 318.391 486.895C318.036 486.727 317.756 486.487 317.551 486.174C317.35 485.861 317.25 485.483 317.25 485.04C317.25 484.237 317.53 483.64 318.09 483.248C318.65 482.856 319.548 482.646 320.785 482.618L322.073 482.583V482.016C322.073 481.573 321.94 481.223 321.674 480.966C321.408 480.705 320.997 480.574 320.442 480.574C320.027 480.579 319.66 480.677 319.343 480.868C319.026 481.059 318.823 481.372 318.734 481.806H317.593C317.621 481.335 317.752 480.938 317.985 480.616C318.223 480.289 318.557 480.042 318.986 479.874C319.415 479.706 319.922 479.622 320.505 479.622C321.135 479.622 321.658 479.711 322.073 479.888C322.493 480.065 322.806 480.327 323.011 480.672C323.221 481.017 323.326 481.442 323.326 481.946V487H322.22L322.122 485.642C321.847 486.207 321.492 486.599 321.058 486.818C320.629 487.033 320.155 487.14 319.637 487.14ZM320.022 486.209C320.269 486.209 320.512 486.165 320.75 486.076C320.993 485.987 321.212 485.868 321.408 485.719C321.609 485.565 321.77 485.395 321.891 485.208C322.012 485.017 322.073 484.821 322.073 484.62V483.381L321.002 483.402C320.447 483.411 319.985 483.467 319.616 483.57C319.247 483.673 318.97 483.834 318.783 484.053C318.596 484.272 318.503 484.559 318.503 484.914C318.503 485.32 318.645 485.637 318.93 485.866C319.215 486.095 319.579 486.209 320.022 486.209ZM325.38 487V479.762H326.633V487H325.38ZM325.345 478.229V476.885H326.668V478.229H325.345ZM330.713 487.091C330.321 487.091 330.004 487.037 329.761 486.93C329.523 486.823 329.339 486.678 329.208 486.496C329.082 486.314 328.996 486.106 328.949 485.873C328.907 485.635 328.886 485.39 328.886 485.138V476.598H330.16V485.012C330.16 485.376 330.23 485.649 330.37 485.831C330.515 486.013 330.716 486.113 330.972 486.132L331.364 486.139V486.979C331.257 487.012 331.145 487.037 331.028 487.056C330.912 487.079 330.807 487.091 330.713 487.091Z" fill="#1A1B1D"/>
<path d="M131 686C131 650.654 159.654 622 195 622C230.346 622 259 650.654 259 686C259 721.346 230.346 750 195 750C159.654 750 131 721.346 131 686Z" fill="#FFDF81"/>
<path d="M178.283 691V680.878H184.667L184.66 682.019H179.585V685.323H184.156V686.457H179.578V689.831L184.8 689.845V691H178.283ZM186.521 691V683.762H187.767V684.812C187.968 684.495 188.243 684.217 188.593 683.979C188.943 683.741 189.398 683.622 189.958 683.622C190.22 683.622 190.486 683.666 190.756 683.755C191.032 683.844 191.284 683.977 191.512 684.154C191.741 684.331 191.918 684.548 192.044 684.805C192.268 684.45 192.572 684.166 192.954 683.951C193.337 683.732 193.769 683.622 194.249 683.622C194.501 683.622 194.765 683.662 195.04 683.741C195.316 683.816 195.57 683.951 195.803 684.147C196.041 684.338 196.235 684.607 196.384 684.952C196.534 685.293 196.608 685.731 196.608 686.268V691H195.306V686.394C195.306 685.955 195.236 685.617 195.096 685.379C194.956 685.136 194.772 684.966 194.543 684.868C194.319 684.77 194.079 684.721 193.822 684.721C193.598 684.721 193.36 684.765 193.108 684.854C192.856 684.943 192.642 685.092 192.464 685.302C192.287 685.512 192.198 685.799 192.198 686.163V691H190.91V686.016C190.91 685.731 190.833 685.493 190.679 685.302C190.53 685.111 190.341 684.966 190.112 684.868C189.888 684.77 189.664 684.721 189.44 684.721C189.193 684.721 188.943 684.77 188.691 684.868C188.444 684.966 188.234 685.122 188.061 685.337C187.893 685.547 187.809 685.822 187.809 686.163V691H186.521ZM200.637 691.14C200.166 691.14 199.75 691.058 199.391 690.895C199.036 690.727 198.756 690.487 198.551 690.174C198.35 689.861 198.25 689.483 198.25 689.04C198.25 688.237 198.53 687.64 199.09 687.248C199.65 686.856 200.548 686.646 201.785 686.618L203.073 686.583V686.016C203.073 685.573 202.94 685.223 202.674 684.966C202.408 684.705 201.997 684.574 201.442 684.574C201.027 684.579 200.66 684.677 200.343 684.868C200.026 685.059 199.823 685.372 199.734 685.806H198.593C198.621 685.335 198.752 684.938 198.985 684.616C199.223 684.289 199.557 684.042 199.986 683.874C200.415 683.706 200.922 683.622 201.505 683.622C202.135 683.622 202.658 683.711 203.073 683.888C203.493 684.065 203.806 684.327 204.011 684.672C204.221 685.017 204.326 685.442 204.326 685.946V691H203.22L203.122 689.642C202.847 690.207 202.492 690.599 202.058 690.818C201.629 691.033 201.155 691.14 200.637 691.14ZM201.022 690.209C201.269 690.209 201.512 690.165 201.75 690.076C201.993 689.987 202.212 689.868 202.408 689.719C202.609 689.565 202.77 689.395 202.891 689.208C203.012 689.017 203.073 688.821 203.073 688.62V687.381L202.002 687.402C201.447 687.411 200.985 687.467 200.616 687.57C200.247 687.673 199.97 687.834 199.783 688.053C199.596 688.272 199.503 688.559 199.503 688.914C199.503 689.32 199.645 689.637 199.93 689.866C200.215 690.095 200.579 690.209 201.022 690.209ZM206.38 691V683.762H207.633V691H206.38ZM206.345 682.229V680.885H207.668V682.229H206.345ZM211.713 691.091C211.321 691.091 211.004 691.037 210.761 690.93C210.523 690.823 210.339 690.678 210.208 690.496C210.082 690.314 209.996 690.106 209.949 689.873C209.907 689.635 209.886 689.39 209.886 689.138V680.598H211.16V689.012C211.16 689.376 211.23 689.649 211.37 689.831C211.515 690.013 211.716 690.113 211.972 690.132L212.364 690.139V690.979C212.257 691.012 212.145 691.037 212.028 691.056C211.912 691.079 211.807 691.091 211.713 691.091Z" fill="#1A1B1D"/>
<path d="M462 482C462 446.654 490.654 418 526 418C561.346 418 590 446.654 590 482C590 517.346 561.346 546 526 546C490.654 546 462 517.346 462 482Z" fill="#C990C0"/>
<path d="M515.891 487.14C515.014 487.14 514.302 486.995 513.756 486.706C513.215 486.417 512.818 485.992 512.566 485.432C512.319 484.872 512.195 484.184 512.195 483.367V476.878H513.539V483.563C513.539 484.38 513.742 484.991 514.148 485.397C514.554 485.803 515.135 486.006 515.891 486.006C516.4 486.006 516.832 485.917 517.186 485.74C517.546 485.563 517.819 485.294 518.005 484.935C518.197 484.571 518.292 484.114 518.292 483.563V476.878H519.594V483.5C519.594 484.279 519.466 484.94 519.209 485.481C518.953 486.022 518.551 486.435 518.005 486.72C517.464 487 516.759 487.14 515.891 487.14ZM524.336 487.14C523.832 487.14 523.363 487.063 522.929 486.909C522.5 486.75 522.143 486.505 521.858 486.174C521.573 485.838 521.396 485.411 521.326 484.893H522.502C522.563 485.178 522.679 485.416 522.852 485.607C523.025 485.794 523.237 485.936 523.489 486.034C523.746 486.127 524.026 486.174 524.329 486.174C524.819 486.174 525.213 486.083 525.512 485.901C525.811 485.719 525.96 485.439 525.96 485.061C525.96 484.795 525.881 484.583 525.722 484.424C525.568 484.261 525.325 484.142 524.994 484.067L523.496 483.696C522.913 483.556 522.446 483.337 522.096 483.038C521.751 482.739 521.576 482.322 521.571 481.785C521.571 481.36 521.674 480.987 521.879 480.665C522.084 480.343 522.39 480.089 522.796 479.902C523.207 479.715 523.718 479.622 524.329 479.622C525.118 479.622 525.752 479.799 526.233 480.154C526.714 480.504 526.966 481.02 526.989 481.701H525.841C525.794 481.356 525.64 481.083 525.379 480.882C525.118 480.677 524.763 480.574 524.315 480.574C523.858 480.574 523.482 480.667 523.188 480.854C522.899 481.036 522.754 481.321 522.754 481.708C522.754 481.965 522.857 482.168 523.062 482.317C523.272 482.462 523.575 482.583 523.972 482.681L525.428 483.045C525.759 483.134 526.035 483.25 526.254 483.395C526.473 483.54 526.646 483.701 526.772 483.878C526.898 484.055 526.987 484.242 527.038 484.438C527.094 484.629 527.122 484.814 527.122 484.991C527.122 485.434 527.012 485.817 526.793 486.139C526.574 486.456 526.256 486.704 525.841 486.881C525.426 487.054 524.924 487.14 524.336 487.14ZM531.873 487.14C531.201 487.14 530.608 486.993 530.095 486.699C529.582 486.405 529.18 485.983 528.891 485.432C528.602 484.881 528.457 484.221 528.457 483.451C528.457 482.69 528.588 482.023 528.849 481.449C529.11 480.875 529.488 480.427 529.983 480.105C530.482 479.783 531.082 479.622 531.782 479.622C532.463 479.622 533.04 479.769 533.511 480.063C533.982 480.357 534.339 480.772 534.582 481.309C534.829 481.841 534.953 482.473 534.953 483.206V483.682H529.766C529.766 484.139 529.841 484.555 529.99 484.928C530.144 485.297 530.375 485.591 530.683 485.81C530.991 486.029 531.381 486.139 531.852 486.139C532.314 486.139 532.711 486.032 533.042 485.817C533.378 485.602 533.593 485.292 533.686 484.886H534.904C534.82 485.376 534.624 485.789 534.316 486.125C534.013 486.461 533.646 486.715 533.217 486.888C532.792 487.056 532.344 487.14 531.873 487.14ZM529.773 482.807H533.707C533.707 482.392 533.637 482.018 533.497 481.687C533.357 481.351 533.142 481.087 532.853 480.896C532.568 480.7 532.209 480.602 531.775 480.602C531.322 480.602 530.947 480.712 530.648 480.931C530.349 481.146 530.128 481.423 529.983 481.764C529.838 482.1 529.768 482.448 529.773 482.807ZM536.744 487V479.762H537.976V481.155C538.097 480.81 538.268 480.525 538.487 480.301C538.706 480.072 538.956 479.902 539.236 479.79C539.521 479.678 539.815 479.622 540.118 479.622C540.225 479.622 540.33 479.629 540.433 479.643C540.536 479.657 540.615 479.68 540.671 479.713V480.966C540.601 480.933 540.51 480.912 540.398 480.903C540.291 480.889 540.2 480.882 540.125 480.882C539.836 480.863 539.565 480.882 539.313 480.938C539.061 480.989 538.839 481.08 538.648 481.211C538.457 481.342 538.305 481.514 538.193 481.729C538.086 481.939 538.032 482.196 538.032 482.499V487H536.744Z" fill="white"/>
<path d="M195 904C195 868.654 223.654 840 259 840C294.346 840 323 868.654 323 904C323 939.346 294.346 968 259 968C223.654 968 195 939.346 195 904Z" fill="#C990C0"/>
<path d="M248.891 909.14C248.014 909.14 247.302 908.995 246.756 908.706C246.215 908.417 245.818 907.992 245.566 907.432C245.319 906.872 245.195 906.184 245.195 905.367V898.878H246.539V905.563C246.539 906.38 246.742 906.991 247.148 907.397C247.554 907.803 248.135 908.006 248.891 908.006C249.4 908.006 249.832 907.917 250.186 907.74C250.546 907.563 250.819 907.294 251.005 906.935C251.197 906.571 251.292 906.114 251.292 905.563V898.878H252.594V905.5C252.594 906.279 252.466 906.94 252.209 907.481C251.953 908.022 251.551 908.435 251.005 908.72C250.464 909 249.759 909.14 248.891 909.14ZM257.336 909.14C256.832 909.14 256.363 909.063 255.929 908.909C255.5 908.75 255.143 908.505 254.858 908.174C254.573 907.838 254.396 907.411 254.326 906.893H255.502C255.563 907.178 255.679 907.416 255.852 907.607C256.025 907.794 256.237 907.936 256.489 908.034C256.746 908.127 257.026 908.174 257.329 908.174C257.819 908.174 258.213 908.083 258.512 907.901C258.811 907.719 258.96 907.439 258.96 907.061C258.96 906.795 258.881 906.583 258.722 906.424C258.568 906.261 258.325 906.142 257.994 906.067L256.496 905.696C255.913 905.556 255.446 905.337 255.096 905.038C254.751 904.739 254.576 904.322 254.571 903.785C254.571 903.36 254.674 902.987 254.879 902.665C255.084 902.343 255.39 902.089 255.796 901.902C256.207 901.715 256.718 901.622 257.329 901.622C258.118 901.622 258.752 901.799 259.233 902.154C259.714 902.504 259.966 903.02 259.989 903.701H258.841C258.794 903.356 258.64 903.083 258.379 902.882C258.118 902.677 257.763 902.574 257.315 902.574C256.858 902.574 256.482 902.667 256.188 902.854C255.899 903.036 255.754 903.321 255.754 903.708C255.754 903.965 255.857 904.168 256.062 904.317C256.272 904.462 256.575 904.583 256.972 904.681L258.428 905.045C258.759 905.134 259.035 905.25 259.254 905.395C259.473 905.54 259.646 905.701 259.772 905.878C259.898 906.055 259.987 906.242 260.038 906.438C260.094 906.629 260.122 906.814 260.122 906.991C260.122 907.434 260.012 907.817 259.793 908.139C259.574 908.456 259.256 908.704 258.841 908.881C258.426 909.054 257.924 909.14 257.336 909.14ZM264.873 909.14C264.201 909.14 263.608 908.993 263.095 908.699C262.582 908.405 262.18 907.983 261.891 907.432C261.602 906.881 261.457 906.221 261.457 905.451C261.457 904.69 261.588 904.023 261.849 903.449C262.11 902.875 262.488 902.427 262.983 902.105C263.482 901.783 264.082 901.622 264.782 901.622C265.463 901.622 266.04 901.769 266.511 902.063C266.982 902.357 267.339 902.772 267.582 903.309C267.829 903.841 267.953 904.473 267.953 905.206V905.682H262.766C262.766 906.139 262.841 906.555 262.99 906.928C263.144 907.297 263.375 907.591 263.683 907.81C263.991 908.029 264.381 908.139 264.852 908.139C265.314 908.139 265.711 908.032 266.042 907.817C266.378 907.602 266.593 907.292 266.686 906.886H267.904C267.82 907.376 267.624 907.789 267.316 908.125C267.013 908.461 266.646 908.715 266.217 908.888C265.792 909.056 265.344 909.14 264.873 909.14ZM262.773 904.807H266.707C266.707 904.392 266.637 904.018 266.497 903.687C266.357 903.351 266.142 903.087 265.853 902.896C265.568 902.7 265.209 902.602 264.775 902.602C264.322 902.602 263.947 902.712 263.648 902.931C263.349 903.146 263.128 903.423 262.983 903.764C262.838 904.1 262.768 904.448 262.773 904.807ZM269.744 909V901.762H270.976V903.155C271.097 902.81 271.268 902.525 271.487 902.301C271.706 902.072 271.956 901.902 272.236 901.79C272.521 901.678 272.815 901.622 273.118 901.622C273.225 901.622 273.33 901.629 273.433 901.643C273.536 901.657 273.615 901.68 273.671 901.713V902.966C273.601 902.933 273.51 902.912 273.398 902.903C273.291 902.889 273.2 902.882 273.125 902.882C272.836 902.863 272.565 902.882 272.313 902.938C272.061 902.989 271.839 903.08 271.648 903.211C271.457 903.342 271.305 903.514 271.193 903.729C271.086 903.939 271.032 904.196 271.032 904.499V909H269.744Z" fill="white"/>
<path d="M238.746 837.519C239.231 837.784 239.838 837.606 240.103 837.121L244.416 829.222C244.681 828.737 244.503 828.13 244.018 827.865C243.533 827.6 242.926 827.779 242.661 828.264L238.827 835.285L231.805 831.45C231.321 831.186 230.713 831.364 230.449 831.849C230.184 832.334 230.362 832.941 230.847 833.206L238.746 837.519ZM232.643 810.671C232.487 810.141 231.932 809.838 231.402 809.993C230.872 810.149 230.568 810.705 230.724 811.234L232.643 810.671ZM220.706 777.109C220.861 777.639 221.417 777.943 221.947 777.787C222.477 777.632 222.78 777.076 222.625 776.546L220.706 777.109ZM215.734 753.077C215.579 752.547 215.023 752.243 214.493 752.399C213.963 752.554 213.66 753.11 213.815 753.64L215.734 753.077ZM239.225 836.642L240.185 836.36L232.643 810.671L231.683 810.953L230.724 811.234L238.266 836.923L239.225 836.642ZM221.665 776.828L222.625 776.546L215.734 753.077L214.775 753.358L213.815 753.64L220.706 777.109L221.665 776.828Z" fill="#1A1B1D"/>
<path d="M226.031 792.52H224.48C224.421 792.188 224.31 791.896 224.147 791.645C223.985 791.393 223.786 791.179 223.551 791.003C223.315 790.828 223.052 790.695 222.76 790.605C222.472 790.516 222.165 790.471 221.84 790.471C221.254 790.471 220.728 790.619 220.264 790.914C219.804 791.209 219.439 791.641 219.171 792.211C218.905 792.781 218.773 793.477 218.773 794.299C218.773 795.128 218.905 795.827 219.171 796.397C219.439 796.967 219.805 797.398 220.269 797.69C220.733 797.982 221.255 798.127 221.835 798.127C222.157 798.127 222.462 798.084 222.75 797.998C223.042 797.909 223.305 797.778 223.541 797.605C223.776 797.433 223.975 797.223 224.137 796.974C224.303 796.722 224.417 796.434 224.48 796.109L226.031 796.114C225.949 796.614 225.788 797.075 225.549 797.496C225.314 797.914 225.011 798.275 224.639 798.58C224.271 798.881 223.851 799.115 223.377 799.281C222.903 799.447 222.386 799.529 221.825 799.529C220.944 799.529 220.158 799.321 219.469 798.903C218.78 798.482 218.236 797.881 217.838 797.098C217.444 796.316 217.247 795.383 217.247 794.299C217.247 793.212 217.445 792.279 217.843 791.5C218.241 790.718 218.785 790.118 219.474 789.701C220.163 789.28 220.947 789.069 221.825 789.069C222.366 789.069 222.87 789.147 223.337 789.303C223.807 789.455 224.23 789.681 224.605 789.979C224.979 790.274 225.289 790.635 225.534 791.063C225.78 791.487 225.945 791.973 226.031 792.52ZM236.172 792.52H234.621C234.562 792.188 234.451 791.896 234.288 791.645C234.126 791.393 233.927 791.179 233.692 791.003C233.456 790.828 233.193 790.695 232.901 790.605C232.613 790.516 232.306 790.471 231.981 790.471C231.395 790.471 230.869 790.619 230.405 790.914C229.945 791.209 229.58 791.641 229.312 792.211C229.046 792.781 228.914 793.477 228.914 794.299C228.914 795.128 229.046 795.827 229.312 796.397C229.58 796.967 229.946 797.398 230.41 797.69C230.874 797.982 231.396 798.127 231.976 798.127C232.298 798.127 232.603 798.084 232.891 797.998C233.183 797.909 233.446 797.778 233.682 797.605C233.917 797.433 234.116 797.223 234.278 796.974C234.444 796.722 234.558 796.434 234.621 796.109L236.172 796.114C236.089 796.614 235.929 797.075 235.69 797.496C235.455 797.914 235.152 798.275 234.78 798.58C234.412 798.881 233.991 799.115 233.518 799.281C233.044 799.447 232.527 799.529 231.966 799.529C231.085 799.529 230.299 799.321 229.61 798.903C228.92 798.482 228.377 797.881 227.979 797.098C227.585 796.316 227.388 795.383 227.388 794.299C227.388 793.212 227.586 792.279 227.984 791.5C228.382 790.718 228.925 790.118 229.615 789.701C230.304 789.28 231.088 789.069 231.966 789.069C232.507 789.069 233.01 789.147 233.478 789.303C233.948 789.455 234.371 789.681 234.746 789.979C235.12 790.274 235.43 790.635 235.675 791.063C235.92 791.487 236.086 791.973 236.172 792.52Z" fill="black" fill-opacity="0.8"/>
<path d="M357 772C357 736.654 385.654 708 421 708C456.346 708 485 736.654 485 772C485 807.346 456.346 836 421 836C385.654 836 357 807.346 357 772Z" fill="#C990C0"/>
<path d="M410.891 777.14C410.014 777.14 409.302 776.995 408.756 776.706C408.215 776.417 407.818 775.992 407.566 775.432C407.319 774.872 407.195 774.184 407.195 773.367V766.878H408.539V773.563C408.539 774.38 408.742 774.991 409.148 775.397C409.554 775.803 410.135 776.006 410.891 776.006C411.4 776.006 411.832 775.917 412.186 775.74C412.546 775.563 412.819 775.294 413.005 774.935C413.197 774.571 413.292 774.114 413.292 773.563V766.878H414.594V773.5C414.594 774.279 414.466 774.94 414.209 775.481C413.953 776.022 413.551 776.435 413.005 776.72C412.464 777 411.759 777.14 410.891 777.14ZM419.336 777.14C418.832 777.14 418.363 777.063 417.929 776.909C417.5 776.75 417.143 776.505 416.858 776.174C416.573 775.838 416.396 775.411 416.326 774.893H417.502C417.563 775.178 417.679 775.416 417.852 775.607C418.025 775.794 418.237 775.936 418.489 776.034C418.746 776.127 419.026 776.174 419.329 776.174C419.819 776.174 420.213 776.083 420.512 775.901C420.811 775.719 420.96 775.439 420.96 775.061C420.96 774.795 420.881 774.583 420.722 774.424C420.568 774.261 420.325 774.142 419.994 774.067L418.496 773.696C417.913 773.556 417.446 773.337 417.096 773.038C416.751 772.739 416.576 772.322 416.571 771.785C416.571 771.36 416.674 770.987 416.879 770.665C417.084 770.343 417.39 770.089 417.796 769.902C418.207 769.715 418.718 769.622 419.329 769.622C420.118 769.622 420.752 769.799 421.233 770.154C421.714 770.504 421.966 771.02 421.989 771.701H420.841C420.794 771.356 420.64 771.083 420.379 770.882C420.118 770.677 419.763 770.574 419.315 770.574C418.858 770.574 418.482 770.667 418.188 770.854C417.899 771.036 417.754 771.321 417.754 771.708C417.754 771.965 417.857 772.168 418.062 772.317C418.272 772.462 418.575 772.583 418.972 772.681L420.428 773.045C420.759 773.134 421.035 773.25 421.254 773.395C421.473 773.54 421.646 773.701 421.772 773.878C421.898 774.055 421.987 774.242 422.038 774.438C422.094 774.629 422.122 774.814 422.122 774.991C422.122 775.434 422.012 775.817 421.793 776.139C421.574 776.456 421.256 776.704 420.841 776.881C420.426 777.054 419.924 777.14 419.336 777.14ZM426.873 777.14C426.201 777.14 425.608 776.993 425.095 776.699C424.582 776.405 424.18 775.983 423.891 775.432C423.602 774.881 423.457 774.221 423.457 773.451C423.457 772.69 423.588 772.023 423.849 771.449C424.11 770.875 424.488 770.427 424.983 770.105C425.482 769.783 426.082 769.622 426.782 769.622C427.463 769.622 428.04 769.769 428.511 770.063C428.982 770.357 429.339 770.772 429.582 771.309C429.829 771.841 429.953 772.473 429.953 773.206V773.682H424.766C424.766 774.139 424.841 774.555 424.99 774.928C425.144 775.297 425.375 775.591 425.683 775.81C425.991 776.029 426.381 776.139 426.852 776.139C427.314 776.139 427.711 776.032 428.042 775.817C428.378 775.602 428.593 775.292 428.686 774.886H429.904C429.82 775.376 429.624 775.789 429.316 776.125C429.013 776.461 428.646 776.715 428.217 776.888C427.792 777.056 427.344 777.14 426.873 777.14ZM424.773 772.807H428.707C428.707 772.392 428.637 772.018 428.497 771.687C428.357 771.351 428.142 771.087 427.853 770.896C427.568 770.7 427.209 770.602 426.775 770.602C426.322 770.602 425.947 770.712 425.648 770.931C425.349 771.146 425.128 771.423 424.983 771.764C424.838 772.1 424.768 772.448 424.773 772.807ZM431.744 777V769.762H432.976V771.155C433.097 770.81 433.268 770.525 433.487 770.301C433.706 770.072 433.956 769.902 434.236 769.79C434.521 769.678 434.815 769.622 435.118 769.622C435.225 769.622 435.33 769.629 435.433 769.643C435.536 769.657 435.615 769.68 435.671 769.713V770.966C435.601 770.933 435.51 770.912 435.398 770.903C435.291 770.889 435.2 770.882 435.125 770.882C434.836 770.863 434.565 770.882 434.313 770.938C434.061 770.989 433.839 771.08 433.648 771.211C433.457 771.342 433.305 771.514 433.193 771.729C433.086 771.939 433.032 772.196 433.032 772.499V777H431.744Z" fill="white"/>
<path d="M354.138 747.314C354.642 747.087 354.867 746.496 354.641 745.992L350.957 737.781C350.731 737.277 350.139 737.052 349.635 737.278C349.131 737.504 348.906 738.096 349.132 738.599L352.407 745.898L345.108 749.173C344.604 749.399 344.379 749.991 344.605 750.495C344.831 750.999 345.423 751.224 345.927 750.998L354.138 747.314ZM351.62 745.599L351.976 744.664L351.976 744.664L351.62 745.599ZM323.699 733.904C323.183 733.708 322.605 733.967 322.409 734.483C322.213 734.999 322.472 735.577 322.988 735.773L323.699 733.904ZM289.863 723.168C290.379 723.365 290.957 723.105 291.153 722.589C291.35 722.073 291.09 721.495 290.574 721.299L289.863 723.168ZM262.627 710.664C262.111 710.468 261.533 710.727 261.337 711.243C261.14 711.759 261.399 712.337 261.916 712.533L262.627 710.664ZM353.729 746.401L354.085 745.467L351.976 744.664L351.62 745.599L351.264 746.533L353.373 747.336L353.729 746.401ZM351.62 745.599L351.976 744.664L323.699 733.904L323.344 734.839L322.988 735.773L351.264 746.533L351.62 745.599ZM290.219 722.234L290.574 721.299L262.627 710.664L262.271 711.599L261.916 712.533L289.863 723.168L290.219 722.234Z" fill="#1A1B1D"/>
<path d="M297.754 725.177V723.854H305.634V725.177H302.457V734.036H300.926V725.177H297.754ZM315.628 728.945C315.628 730.032 315.429 730.967 315.031 731.749C314.634 732.528 314.088 733.128 313.396 733.549C312.706 733.967 311.923 734.175 311.044 734.175C310.163 734.175 309.375 733.967 308.683 733.549C307.993 733.128 307.45 732.527 307.052 731.744C306.654 730.962 306.455 730.029 306.455 728.945C306.455 727.858 306.654 726.925 307.052 726.146C307.45 725.364 307.993 724.764 308.683 724.347C309.375 723.926 310.163 723.715 311.044 723.715C311.923 723.715 312.706 723.926 313.396 724.347C314.088 724.764 314.634 725.364 315.031 726.146C315.429 726.925 315.628 727.858 315.628 728.945ZM314.107 728.945C314.107 728.117 313.972 727.419 313.704 726.852C313.439 726.282 313.074 725.851 312.61 725.56C312.15 725.265 311.628 725.117 311.044 725.117C310.458 725.117 309.934 725.265 309.473 725.56C309.012 725.851 308.648 726.282 308.379 726.852C308.114 727.419 307.982 728.117 307.982 728.945C307.982 729.774 308.114 730.473 308.379 731.043C308.648 731.61 309.012 732.041 309.473 732.336C309.934 732.628 310.458 732.773 311.044 732.773C311.628 732.773 312.15 732.628 312.61 732.336C313.074 732.041 313.439 731.61 313.704 731.043C313.972 730.473 314.107 729.774 314.107 728.945Z" fill="black" fill-opacity="0.8"/>
<path d="M459.207 482.707C459.598 482.317 459.598 481.683 459.207 481.293L452.843 474.929C452.453 474.538 451.819 474.538 451.429 474.929C451.038 475.319 451.038 475.953 451.429 476.343L457.086 482L451.429 487.657C451.038 488.047 451.038 488.681 451.429 489.071C451.819 489.462 452.453 489.462 452.843 489.071L459.207 482.707ZM435.536 481C434.984 481 434.536 481.448 434.536 482C434.536 482.552 434.984 483 435.536 483V481ZM402.411 483C402.964 483 403.411 482.552 403.411 482C403.411 481.448 402.964 481 402.411 481V483ZM381.5 481C380.948 481 380.5 481.448 380.5 482C380.5 482.552 380.948 483 381.5 483V481ZM458.5 482V481H435.536V482V483H458.5V482ZM402.411 482V481H381.5V482V483H402.411V482Z" fill="#1A1B1D"/>
<path d="M409.947 478.641V477.318H417.827V478.641H414.65V487.5H413.119V478.641H409.947ZM427.821 482.409C427.821 483.496 427.622 484.431 427.224 485.213C426.827 485.992 426.281 486.592 425.589 487.013C424.899 487.43 424.115 487.639 423.237 487.639C422.355 487.639 421.568 487.43 420.876 487.013C420.186 486.592 419.643 485.99 419.245 485.208C418.847 484.426 418.648 483.493 418.648 482.409C418.648 481.322 418.847 480.389 419.245 479.61C419.643 478.828 420.186 478.228 420.876 477.81C421.568 477.389 422.355 477.179 423.237 477.179C424.115 477.179 424.899 477.389 425.589 477.81C426.281 478.228 426.827 478.828 427.224 479.61C427.622 480.389 427.821 481.322 427.821 482.409ZM426.3 482.409C426.3 481.58 426.165 480.883 425.897 480.316C425.632 479.746 425.267 479.315 424.803 479.023C424.342 478.728 423.82 478.581 423.237 478.581C422.65 478.581 422.127 478.728 421.666 479.023C421.205 479.315 420.841 479.746 420.572 480.316C420.307 480.883 420.175 481.58 420.175 482.409C420.175 483.238 420.307 483.937 420.572 484.507C420.841 485.074 421.205 485.505 421.666 485.8C422.127 486.091 422.65 486.237 423.237 486.237C423.82 486.237 424.342 486.091 424.803 485.8C425.267 485.505 425.632 485.074 425.897 484.507C426.165 483.937 426.3 483.238 426.3 482.409Z" fill="black" fill-opacity="0.8"/>
<path d="M357 192C357 156.654 385.654 128 421 128C456.346 128 485 156.654 485 192C485 227.346 456.346 256 421 256C385.654 256 357 227.346 357 192Z" fill="#C990C0"/>
<path d="M410.891 197.14C410.014 197.14 409.302 196.995 408.756 196.706C408.215 196.417 407.818 195.992 407.566 195.432C407.319 194.872 407.195 194.184 407.195 193.367V186.878H408.539V193.563C408.539 194.38 408.742 194.991 409.148 195.397C409.554 195.803 410.135 196.006 410.891 196.006C411.4 196.006 411.832 195.917 412.186 195.74C412.546 195.563 412.819 195.294 413.005 194.935C413.197 194.571 413.292 194.114 413.292 193.563V186.878H414.594V193.5C414.594 194.279 414.466 194.94 414.209 195.481C413.953 196.022 413.551 196.435 413.005 196.72C412.464 197 411.759 197.14 410.891 197.14ZM419.336 197.14C418.832 197.14 418.363 197.063 417.929 196.909C417.5 196.75 417.143 196.505 416.858 196.174C416.573 195.838 416.396 195.411 416.326 194.893H417.502C417.563 195.178 417.679 195.416 417.852 195.607C418.025 195.794 418.237 195.936 418.489 196.034C418.746 196.127 419.026 196.174 419.329 196.174C419.819 196.174 420.213 196.083 420.512 195.901C420.811 195.719 420.96 195.439 420.96 195.061C420.96 194.795 420.881 194.583 420.722 194.424C420.568 194.261 420.325 194.142 419.994 194.067L418.496 193.696C417.913 193.556 417.446 193.337 417.096 193.038C416.751 192.739 416.576 192.322 416.571 191.785C416.571 191.36 416.674 190.987 416.879 190.665C417.084 190.343 417.39 190.089 417.796 189.902C418.207 189.715 418.718 189.622 419.329 189.622C420.118 189.622 420.752 189.799 421.233 190.154C421.714 190.504 421.966 191.02 421.989 191.701H420.841C420.794 191.356 420.64 191.083 420.379 190.882C420.118 190.677 419.763 190.574 419.315 190.574C418.858 190.574 418.482 190.667 418.188 190.854C417.899 191.036 417.754 191.321 417.754 191.708C417.754 191.965 417.857 192.168 418.062 192.317C418.272 192.462 418.575 192.583 418.972 192.681L420.428 193.045C420.759 193.134 421.035 193.25 421.254 193.395C421.473 193.54 421.646 193.701 421.772 193.878C421.898 194.055 421.987 194.242 422.038 194.438C422.094 194.629 422.122 194.814 422.122 194.991C422.122 195.434 422.012 195.817 421.793 196.139C421.574 196.456 421.256 196.704 420.841 196.881C420.426 197.054 419.924 197.14 419.336 197.14ZM426.873 197.14C426.201 197.14 425.608 196.993 425.095 196.699C424.582 196.405 424.18 195.983 423.891 195.432C423.602 194.881 423.457 194.221 423.457 193.451C423.457 192.69 423.588 192.023 423.849 191.449C424.11 190.875 424.488 190.427 424.983 190.105C425.482 189.783 426.082 189.622 426.782 189.622C427.463 189.622 428.04 189.769 428.511 190.063C428.982 190.357 429.339 190.772 429.582 191.309C429.829 191.841 429.953 192.473 429.953 193.206V193.682H424.766C424.766 194.139 424.841 194.555 424.99 194.928C425.144 195.297 425.375 195.591 425.683 195.81C425.991 196.029 426.381 196.139 426.852 196.139C427.314 196.139 427.711 196.032 428.042 195.817C428.378 195.602 428.593 195.292 428.686 194.886H429.904C429.82 195.376 429.624 195.789 429.316 196.125C429.013 196.461 428.646 196.715 428.217 196.888C427.792 197.056 427.344 197.14 426.873 197.14ZM424.773 192.807H428.707C428.707 192.392 428.637 192.018 428.497 191.687C428.357 191.351 428.142 191.087 427.853 190.896C427.568 190.7 427.209 190.602 426.775 190.602C426.322 190.602 425.947 190.712 425.648 190.931C425.349 191.146 425.128 191.423 424.983 191.764C424.838 192.1 424.768 192.448 424.773 192.807ZM431.744 197V189.762H432.976V191.155C433.097 190.81 433.268 190.525 433.487 190.301C433.706 190.072 433.956 189.902 434.236 189.79C434.521 189.678 434.815 189.622 435.118 189.622C435.225 189.622 435.33 189.629 435.433 189.643C435.536 189.657 435.615 189.68 435.671 189.713V190.966C435.601 190.933 435.51 190.912 435.398 190.903C435.291 190.889 435.2 190.882 435.125 190.882C434.836 190.863 434.565 190.882 434.313 190.938C434.061 190.989 433.839 191.08 433.648 191.211C433.457 191.342 433.305 191.514 433.193 191.729C433.086 191.939 433.032 192.196 433.032 192.499V197H431.744Z" fill="white"/>
<path d="M151.16 344.744C151.035 344.205 150.498 343.87 149.96 343.995L141.191 346.022C140.653 346.147 140.318 346.684 140.442 347.222C140.567 347.76 141.104 348.095 141.642 347.971L149.436 346.168L151.239 353.963C151.363 354.501 151.9 354.836 152.438 354.712C152.976 354.587 153.312 354.05 153.187 353.512L151.16 344.744ZM137.214 363.855C136.922 364.323 137.064 364.94 137.533 365.233C138.001 365.525 138.618 365.383 138.911 364.914L137.214 363.855ZM117.603 399.039C117.896 398.571 117.753 397.954 117.285 397.661C116.816 397.369 116.199 397.511 115.907 397.98L117.603 399.039ZM104.966 415.502C104.674 415.97 104.817 416.587 105.285 416.879C105.754 417.172 106.37 417.029 106.663 416.561L104.966 415.502ZM150.185 344.969L149.337 344.439L137.214 363.855L138.062 364.384L138.911 364.914L151.034 345.498L150.185 344.969ZM116.755 398.509L115.907 397.98L104.966 415.502L105.815 416.031L106.663 416.561L117.603 399.039L116.755 398.509Z" fill="#1A1B1D"/>
<path d="M115.8 379.44C115.747 378.969 115.528 378.605 115.144 378.346C114.759 378.084 114.275 377.953 113.692 377.953C113.274 377.953 112.913 378.02 112.608 378.152C112.303 378.281 112.066 378.46 111.897 378.689C111.731 378.915 111.649 379.171 111.649 379.46C111.649 379.702 111.705 379.911 111.818 380.086C111.934 380.262 112.084 380.409 112.27 380.529C112.459 380.645 112.661 380.742 112.877 380.822C113.092 380.898 113.299 380.961 113.498 381.011L114.492 381.269C114.817 381.349 115.15 381.457 115.492 381.593C115.833 381.728 116.15 381.907 116.441 382.129C116.733 382.352 116.968 382.627 117.147 382.955C117.329 383.283 117.421 383.676 117.421 384.133C117.421 384.71 117.271 385.222 116.973 385.669C116.678 386.117 116.249 386.47 115.686 386.728C115.125 386.987 114.448 387.116 113.652 387.116C112.89 387.116 112.23 386.995 111.673 386.753C111.117 386.511 110.681 386.168 110.366 385.724C110.051 385.277 109.877 384.746 109.844 384.133H111.385C111.415 384.501 111.534 384.808 111.743 385.053C111.955 385.295 112.225 385.475 112.553 385.595C112.885 385.711 113.248 385.769 113.642 385.769C114.076 385.769 114.462 385.701 114.801 385.565C115.142 385.426 115.41 385.233 115.606 384.988C115.802 384.74 115.899 384.45 115.899 384.118C115.899 383.817 115.813 383.57 115.641 383.377C115.472 383.185 115.241 383.026 114.95 382.9C114.661 382.774 114.335 382.663 113.97 382.567L112.767 382.239C111.952 382.017 111.306 381.69 110.828 381.259C110.354 380.829 110.117 380.259 110.117 379.549C110.117 378.963 110.276 378.451 110.595 378.013C110.913 377.576 111.344 377.236 111.887 376.994C112.431 376.749 113.044 376.626 113.727 376.626C114.416 376.626 115.024 376.747 115.551 376.989C116.082 377.231 116.499 377.564 116.804 377.988C117.109 378.409 117.268 378.893 117.281 379.44H115.8ZM119.102 386.947V376.765H125.486V378.088H120.639V381.19H125.153V382.507H120.639V385.625H125.546V386.947H119.102ZM135.602 376.765V386.947H134.19L129.015 379.48H128.92V386.947H127.384V376.765H128.806L133.986 384.242H134.081V376.765H135.602ZM137.187 378.088V376.765H145.067V378.088H141.89V386.947H140.359V378.088H137.187Z" fill="black" fill-opacity="0.8"/>
<path d="M247.21 482.974C247.599 482.582 247.596 481.949 247.204 481.56L240.815 475.222C240.423 474.833 239.79 474.835 239.401 475.227C239.012 475.619 239.014 476.253 239.406 476.641L245.086 482.276L239.452 487.955C239.063 488.347 239.065 488.98 239.457 489.369C239.849 489.758 240.483 489.756 240.872 489.364L247.21 482.974ZM212.526 481.406C211.974 481.408 211.528 481.858 211.53 482.41C211.532 482.962 211.982 483.408 212.534 483.406L212.526 481.406ZM162.409 483.606C162.961 483.604 163.407 483.155 163.405 482.602C163.403 482.05 162.953 481.604 162.401 481.606L162.409 483.606ZM153.968 482.64L153.964 481.64L153.964 481.64L153.968 482.64ZM152.471 482.646L152.475 483.646L152.475 483.646L152.471 482.646ZM131.496 481.73C130.944 481.732 130.498 482.182 130.5 482.734C130.502 483.286 130.952 483.732 131.504 483.73L131.496 481.73ZM246.5 482.27L246.496 481.27L212.526 481.406L212.53 482.406L212.534 483.406L246.504 483.27L246.5 482.27ZM162.405 482.606L162.401 481.606L153.964 481.64L153.968 482.64L153.972 483.64L162.409 483.606L162.405 482.606ZM153.968 482.64L153.964 481.64L152.467 481.646L152.471 482.646L152.475 483.646L153.972 483.64L153.968 482.64ZM152.471 482.646L152.467 481.646L131.496 481.73L131.5 482.73L131.504 483.73L152.475 483.646L152.471 482.646Z" fill="#1A1B1D"/>
<path d="M175.859 480.499C175.806 480.028 175.587 479.664 175.203 479.405C174.818 479.143 174.334 479.013 173.751 479.013C173.333 479.013 172.972 479.079 172.667 479.211C172.362 479.341 172.125 479.52 171.956 479.748C171.791 479.974 171.708 480.231 171.708 480.519C171.708 480.761 171.764 480.97 171.877 481.145C171.993 481.321 172.143 481.469 172.329 481.588C172.518 481.704 172.72 481.802 172.936 481.881C173.151 481.957 173.358 482.02 173.557 482.07L174.551 482.329C174.876 482.408 175.209 482.516 175.551 482.652C175.892 482.788 176.209 482.967 176.5 483.189C176.792 483.411 177.027 483.686 177.206 484.014C177.389 484.342 177.48 484.735 177.48 485.192C177.48 485.769 177.331 486.281 177.032 486.728C176.737 487.176 176.308 487.529 175.745 487.787C175.184 488.046 174.507 488.175 173.711 488.175C172.949 488.175 172.289 488.054 171.733 487.812C171.176 487.57 170.74 487.227 170.425 486.783C170.11 486.336 169.936 485.805 169.903 485.192H171.444C171.474 485.56 171.593 485.867 171.802 486.112C172.014 486.354 172.284 486.535 172.612 486.654C172.944 486.77 173.307 486.828 173.701 486.828C174.135 486.828 174.522 486.76 174.86 486.624C175.201 486.485 175.469 486.293 175.665 486.047C175.861 485.799 175.958 485.509 175.958 485.177C175.958 484.876 175.872 484.629 175.7 484.437C175.531 484.244 175.3 484.085 175.009 483.959C174.72 483.833 174.394 483.722 174.029 483.626L172.826 483.298C172.011 483.076 171.365 482.75 170.887 482.319C170.413 481.888 170.176 481.318 170.176 480.608C170.176 480.022 170.335 479.51 170.654 479.072C170.972 478.635 171.403 478.295 171.946 478.053C172.49 477.808 173.103 477.685 173.786 477.685C174.475 477.685 175.083 477.806 175.61 478.048C176.141 478.29 176.558 478.623 176.863 479.047C177.168 479.468 177.327 479.952 177.34 480.499H175.859ZM179.161 488.006V477.824H185.545V479.147H180.698V482.249H185.212V483.567H180.698V486.684H185.605V488.006H179.161ZM195.661 477.824V488.006H194.249L189.074 480.539H188.979V488.006H187.443V477.824H188.865L194.045 485.302H194.14V477.824H195.661ZM197.246 479.147V477.824H205.126V479.147H201.949V488.006H200.418V479.147H197.246Z" fill="black" fill-opacity="0.8"/>
<path d="M151.591 620.037C152.131 620.153 152.663 619.81 152.779 619.27L154.676 610.472C154.792 609.932 154.449 609.4 153.909 609.284C153.369 609.167 152.837 609.511 152.721 610.051L151.035 617.871L143.215 616.185C142.675 616.069 142.143 616.412 142.026 616.952C141.91 617.492 142.253 618.024 142.793 618.14L151.591 620.037ZM140.757 600.099C140.457 599.635 139.838 599.502 139.374 599.801C138.91 600.101 138.777 600.72 139.076 601.184L140.757 600.099ZM117.055 567.059C117.354 567.523 117.973 567.656 118.437 567.357C118.901 567.057 119.035 566.438 118.735 565.974L117.055 567.059ZM108.038 549.399C107.739 548.935 107.12 548.801 106.656 549.101C106.192 549.4 106.059 550.019 106.358 550.483L108.038 549.399ZM151.802 619.059L152.642 618.517L140.757 600.099L139.916 600.641L139.076 601.184L150.961 619.601L151.802 619.059ZM117.895 566.516L118.735 565.974L108.038 549.399L107.198 549.941L106.358 550.483L117.055 567.059L117.895 566.516Z" fill="#1A1B1D"/>
<path d="M117.297 581.572C117.244 581.101 117.025 580.737 116.641 580.478C116.256 580.216 115.772 580.085 115.189 580.085C114.771 580.085 114.41 580.152 114.105 580.284C113.8 580.413 113.563 580.592 113.394 580.821C113.229 581.047 113.146 581.303 113.146 581.592C113.146 581.834 113.202 582.043 113.315 582.218C113.431 582.394 113.581 582.541 113.767 582.661C113.956 582.777 114.158 582.874 114.374 582.954C114.589 583.03 114.796 583.093 114.995 583.143L115.989 583.401C116.314 583.481 116.647 583.589 116.989 583.725C117.33 583.86 117.647 584.039 117.938 584.262C118.23 584.484 118.465 584.759 118.644 585.087C118.827 585.415 118.918 585.808 118.918 586.265C118.918 586.842 118.769 587.354 118.47 587.801C118.175 588.249 117.746 588.602 117.183 588.86C116.622 589.119 115.945 589.248 115.149 589.248C114.387 589.248 113.727 589.127 113.17 588.885C112.614 588.643 112.178 588.3 111.863 587.856C111.548 587.409 111.374 586.878 111.341 586.265H112.882C112.912 586.633 113.031 586.94 113.24 587.185C113.452 587.427 113.722 587.607 114.05 587.727C114.382 587.843 114.745 587.901 115.139 587.901C115.573 587.901 115.96 587.833 116.298 587.697C116.639 587.558 116.907 587.365 117.103 587.12C117.299 586.872 117.396 586.582 117.396 586.25C117.396 585.949 117.31 585.702 117.138 585.509C116.969 585.317 116.738 585.158 116.447 585.032C116.158 584.906 115.832 584.795 115.467 584.699L114.264 584.371C113.449 584.149 112.803 583.822 112.325 583.391C111.851 582.961 111.614 582.391 111.614 581.681C111.614 581.095 111.773 580.583 112.092 580.145C112.41 579.708 112.841 579.368 113.384 579.126C113.928 578.881 114.541 578.758 115.224 578.758C115.913 578.758 116.521 578.879 117.048 579.121C117.579 579.363 117.996 579.696 118.301 580.12C118.606 580.541 118.765 581.025 118.778 581.572H117.297ZM120.599 589.079V578.897H126.983V580.22H122.136V583.322H126.65V584.639H122.136V587.757H127.043V589.079H120.599ZM137.099 578.897V589.079H135.687L130.512 581.612H130.417V589.079H128.881V578.897H130.303L135.483 586.374H135.578V578.897H137.099ZM138.684 580.22V578.897H146.564V580.22H143.387V589.079H141.856V580.22H138.684Z" fill="black" fill-opacity="0.8"/>
<path d="M354.634 217.679C354.862 217.176 354.639 216.583 354.137 216.355L345.942 212.635C345.439 212.406 344.846 212.629 344.618 213.132C344.389 213.635 344.612 214.227 345.115 214.456L352.399 217.763L349.092 225.047C348.864 225.55 349.087 226.143 349.59 226.371C350.092 226.599 350.685 226.377 350.913 225.874L354.634 217.679ZM350.675 218.41L351.027 219.346L351.027 219.346L350.675 218.41ZM321.952 228.129C321.435 228.323 321.173 228.9 321.367 229.417C321.562 229.934 322.138 230.195 322.655 230.001L321.952 228.129ZM288.53 242.817C289.047 242.622 289.309 242.046 289.115 241.529C288.921 241.012 288.344 240.75 287.827 240.944L288.53 242.817ZM260.213 252.383L260.564 253.319L260.564 253.319L260.213 252.383ZM258.925 251.798C258.408 251.993 258.146 252.569 258.34 253.086C258.534 253.603 259.111 253.865 259.628 253.671L258.925 251.798ZM353.723 217.265L353.372 216.329L350.324 217.474L350.675 218.41L351.027 219.346L354.075 218.202L353.723 217.265ZM350.675 218.41L350.324 217.474L321.952 228.129L322.304 229.065L322.655 230.001L351.027 219.346L350.675 218.41ZM288.179 241.88L287.827 240.944L259.861 251.447L260.213 252.383L260.564 253.319L288.53 242.817L288.179 241.88ZM260.213 252.383L259.861 251.447L258.925 251.798L259.276 252.735L259.628 253.671L260.564 253.319L260.213 252.383Z" fill="#1A1B1D"/>
<path d="M304.599 234.102H303.047C302.988 233.77 302.877 233.479 302.714 233.227C302.552 232.975 302.353 232.761 302.118 232.586C301.882 232.41 301.619 232.277 301.327 232.188C301.039 232.098 300.732 232.054 300.408 232.054C299.821 232.054 299.296 232.201 298.832 232.496C298.371 232.791 298.006 233.224 297.738 233.794C297.473 234.364 297.34 235.06 297.34 235.882C297.34 236.71 297.473 237.41 297.738 237.98C298.006 238.55 298.372 238.981 298.836 239.272C299.301 239.564 299.823 239.71 300.403 239.71C300.724 239.71 301.029 239.667 301.317 239.581C301.609 239.491 301.872 239.36 302.108 239.188C302.343 239.016 302.542 238.805 302.704 238.556C302.87 238.305 302.984 238.016 303.047 237.691L304.599 237.696C304.516 238.197 304.355 238.658 304.116 239.078C303.881 239.496 303.578 239.857 303.207 240.162C302.839 240.464 302.418 240.698 301.944 240.863C301.47 241.029 300.953 241.112 300.393 241.112C299.511 241.112 298.725 240.903 298.036 240.485C297.347 240.065 296.803 239.463 296.405 238.681C296.011 237.899 295.814 236.966 295.814 235.882C295.814 234.795 296.013 233.862 296.41 233.083C296.808 232.301 297.352 231.701 298.041 231.283C298.73 230.862 299.514 230.652 300.393 230.652C300.933 230.652 301.437 230.73 301.904 230.885C302.375 231.038 302.797 231.263 303.172 231.561C303.546 231.856 303.856 232.218 304.101 232.645C304.347 233.069 304.512 233.555 304.599 234.102ZM314.739 234.102H313.188C313.129 233.77 313.018 233.479 312.855 233.227C312.693 232.975 312.494 232.761 312.259 232.586C312.023 232.41 311.76 232.277 311.468 232.188C311.18 232.098 310.873 232.054 310.548 232.054C309.962 232.054 309.436 232.201 308.972 232.496C308.512 232.791 308.147 233.224 307.879 233.794C307.614 234.364 307.481 235.06 307.481 235.882C307.481 236.71 307.614 237.41 307.879 237.98C308.147 238.55 308.513 238.981 308.977 239.272C309.441 239.564 309.963 239.71 310.543 239.71C310.865 239.71 311.17 239.667 311.458 239.581C311.75 239.491 312.013 239.36 312.249 239.188C312.484 239.016 312.683 238.805 312.845 238.556C313.011 238.305 313.125 238.016 313.188 237.691L314.739 237.696C314.657 238.197 314.496 238.658 314.257 239.078C314.022 239.496 313.719 239.857 313.347 240.162C312.98 240.464 312.559 240.698 312.085 240.863C311.611 241.029 311.094 241.112 310.534 241.112C309.652 241.112 308.866 240.903 308.177 240.485C307.488 240.065 306.944 239.463 306.546 238.681C306.152 237.899 305.955 236.966 305.955 235.882C305.955 234.795 306.154 233.862 306.551 233.083C306.949 232.301 307.493 231.701 308.182 231.283C308.871 230.862 309.655 230.652 310.534 230.652C311.074 230.652 311.578 230.73 312.045 230.885C312.516 231.038 312.938 231.263 313.313 231.561C313.687 231.856 313.997 232.218 314.242 232.645C314.488 233.069 314.653 233.555 314.739 234.102Z" fill="black" fill-opacity="0.8"/>
<path d="M238.803 130.877C238.547 130.387 237.943 130.198 237.453 130.454L229.479 134.626C228.989 134.882 228.8 135.486 229.056 135.976C229.312 136.465 229.916 136.654 230.406 136.398L237.494 132.69L241.203 139.778C241.459 140.268 242.063 140.457 242.552 140.201C243.041 139.945 243.231 139.341 242.975 138.851L238.803 130.877ZM229.557 154.696C229.392 155.223 229.685 155.784 230.212 155.949C230.739 156.114 231.3 155.82 231.465 155.293L229.557 154.696ZM220.781 189.418C220.946 188.891 220.653 188.33 220.126 188.165C219.599 188 219.038 188.294 218.873 188.821L220.781 189.418ZM212.129 210.361C211.964 210.888 212.257 211.449 212.784 211.614C213.311 211.779 213.872 211.486 214.037 210.959L212.129 210.361ZM237.917 131.34L236.962 131.041L229.557 154.696L230.511 154.994L231.465 155.293L238.871 131.639L237.917 131.34ZM219.827 189.119L218.873 188.821L212.129 210.361L213.083 210.66L214.037 210.959L220.781 189.418L219.827 189.119Z" fill="#1A1B1D"/>
<path d="M216.142 168.698V167.375H224.022V168.698H220.845V177.557H219.314V168.698H216.142ZM234.016 172.466C234.016 173.553 233.817 174.488 233.419 175.27C233.022 176.049 232.476 176.649 231.784 177.07C231.094 177.487 230.31 177.696 229.432 177.696C228.551 177.696 227.763 177.487 227.071 177.07C226.381 176.649 225.838 176.047 225.44 175.265C225.042 174.483 224.843 173.55 224.843 172.466C224.843 171.379 225.042 170.446 225.44 169.667C225.838 168.885 226.381 168.285 227.071 167.867C227.763 167.446 228.551 167.236 229.432 167.236C230.31 167.236 231.094 167.446 231.784 167.867C232.476 168.285 233.022 168.885 233.419 169.667C233.817 170.446 234.016 171.379 234.016 172.466ZM232.495 172.466C232.495 171.637 232.36 170.94 232.092 170.373C231.827 169.803 231.462 169.372 230.998 169.08C230.537 168.785 230.015 168.638 229.432 168.638C228.845 168.638 228.322 168.785 227.861 169.08C227.4 169.372 227.036 169.803 226.767 170.373C226.502 170.94 226.37 171.637 226.37 172.466C226.37 173.295 226.502 173.994 226.767 174.564C227.036 175.131 227.4 175.562 227.861 175.857C228.322 176.148 228.845 176.294 229.432 176.294C230.015 176.294 230.537 176.148 230.998 175.857C231.462 175.562 231.827 175.131 232.092 174.564C232.36 173.994 232.495 173.295 232.495 172.466Z" fill="black" fill-opacity="0.8"/>
<path d="M0.966 564V556.762H2.632V557.798C2.744 557.611 2.89567 557.432 3.087 557.259C3.283 557.086 3.52333 556.946 3.808 556.839C4.09267 556.732 4.42633 556.678 4.809 556.678C5.257 556.678 5.67233 556.767 6.055 556.944C6.44233 557.121 6.75267 557.399 6.986 557.777C7.224 558.155 7.343 558.643 7.343 559.24V564H5.635V559.443C5.635 558.967 5.50433 558.615 5.243 558.386C4.98167 558.153 4.65267 558.036 4.256 558.036C3.98533 558.036 3.72867 558.083 3.486 558.176C3.24333 558.265 3.045 558.402 2.891 558.589C2.74167 558.771 2.667 559 2.667 559.275V564H0.966ZM11.2211 564.14C10.7591 564.14 10.3438 564.056 9.97511 563.888C9.61111 563.715 9.32411 563.47 9.11411 563.153C8.90878 562.831 8.80611 562.441 8.80611 561.984C8.80611 561.186 9.09311 560.584 9.66711 560.178C10.2458 559.772 11.1651 559.56 12.4251 559.541L13.5101 559.513V559.023C13.5101 558.64 13.3958 558.342 13.1671 558.127C12.9431 557.908 12.5931 557.8 12.1171 557.805C11.7624 557.81 11.4404 557.894 11.1511 558.057C10.8618 558.216 10.6704 558.484 10.5771 558.862H9.12811C9.15611 558.367 9.29844 557.954 9.55511 557.623C9.81644 557.287 10.1734 557.037 10.6261 556.874C11.0788 556.706 11.6014 556.622 12.1941 556.622C12.8848 556.622 13.4471 556.713 13.8811 556.895C14.3151 557.077 14.6348 557.341 14.8401 557.686C15.0454 558.027 15.1481 558.44 15.1481 558.925V564H13.7131L13.5731 562.698C13.3164 563.244 12.9874 563.622 12.5861 563.832C12.1894 564.037 11.7344 564.14 11.2211 564.14ZM11.7741 562.985C11.9841 562.985 12.1918 562.948 12.3971 562.873C12.6024 562.794 12.7868 562.689 12.9501 562.558C13.1181 562.423 13.2511 562.273 13.3491 562.11C13.4518 561.947 13.5054 561.776 13.5101 561.599V560.458L12.6211 560.472C12.1824 560.477 11.7974 560.523 11.4661 560.612C11.1394 560.701 10.8851 560.843 10.7031 561.039C10.5211 561.23 10.4301 561.487 10.4301 561.809C10.4301 562.178 10.5584 562.467 10.8151 562.677C11.0718 562.882 11.3914 562.985 11.7741 562.985ZM16.9621 564V556.762H18.6211V557.798C18.8311 557.481 19.1158 557.205 19.4751 556.972C19.8391 556.739 20.3011 556.622 20.8611 556.622C21.1178 556.622 21.3768 556.666 21.6381 556.755C21.9041 556.844 22.1491 556.974 22.3731 557.147C22.6018 557.32 22.7838 557.534 22.9191 557.791C23.1478 557.45 23.4511 557.17 23.8291 556.951C24.2118 556.732 24.6411 556.622 25.1171 556.622C25.3784 556.622 25.6468 556.664 25.9221 556.748C26.2021 556.832 26.4588 556.972 26.6921 557.168C26.9254 557.364 27.1144 557.632 27.2591 557.973C27.4038 558.309 27.4761 558.731 27.4761 559.24V564H25.7751V559.443C25.7751 559.084 25.7121 558.801 25.5861 558.596C25.4601 558.391 25.2968 558.246 25.0961 558.162C24.9001 558.073 24.6901 558.029 24.4661 558.029C24.2654 558.029 24.0554 558.069 23.8361 558.148C23.6214 558.227 23.4371 558.358 23.2831 558.54C23.1338 558.722 23.0591 558.967 23.0591 559.275V564H21.3581V559.17C21.3581 558.918 21.2928 558.708 21.1621 558.54C21.0314 558.372 20.8658 558.246 20.6651 558.162C20.4691 558.073 20.2684 558.029 20.0631 558.029C19.8531 558.029 19.6384 558.073 19.4191 558.162C19.2044 558.251 19.0248 558.386 18.8801 558.568C18.7354 558.75 18.6631 558.986 18.6631 559.275V564H16.9621ZM32.5068 564.14C31.8115 564.14 31.1978 563.993 30.6658 563.699C30.1385 563.4 29.7255 562.976 29.4268 562.425C29.1328 561.874 28.9858 561.219 28.9858 560.458C28.9858 559.716 29.1188 559.058 29.3848 558.484C29.6555 557.905 30.0451 557.45 30.5538 557.119C31.0671 556.788 31.6855 556.622 32.4088 556.622C33.1228 556.622 33.7225 556.774 34.2078 557.077C34.6931 557.38 35.0618 557.805 35.3138 558.351C35.5658 558.892 35.6918 559.527 35.6918 560.255V560.773H30.6868C30.6821 561.184 30.7475 561.548 30.8828 561.865C31.0181 562.182 31.2188 562.432 31.4848 562.614C31.7508 562.791 32.0798 562.88 32.4718 562.88C32.8731 562.88 33.2208 562.791 33.5148 562.614C33.8135 562.432 34.0118 562.157 34.1098 561.788H35.6638C35.5798 562.292 35.3791 562.719 35.0618 563.069C34.7491 563.419 34.3665 563.685 33.9138 563.867C33.4658 564.049 32.9968 564.14 32.5068 564.14ZM30.6798 559.716H34.0818C34.0818 559.366 34.0188 559.051 33.8928 558.771C33.7715 558.486 33.5871 558.262 33.3398 558.099C33.0925 557.931 32.7798 557.847 32.4018 557.847C32.0285 557.847 31.7135 557.938 31.4568 558.12C31.2001 558.302 31.0065 558.538 30.8758 558.827C30.7451 559.112 30.6798 559.408 30.6798 559.716ZM37.0815 558.932V556.986H39.0065V558.932H37.0815ZM37.0815 563.958V562.026H39.0065V563.958H37.0815ZM44.3691 557.497L43.9001 553.878H45.7551L45.2651 557.497H44.3691ZM51.4654 564.14C50.9614 564.14 50.4784 564.079 50.0164 563.958C49.5544 563.832 49.1321 563.648 48.7494 563.405C48.3714 563.158 48.0588 562.852 47.8114 562.488C47.5641 562.119 47.4124 561.69 47.3564 561.2H49.1204C49.1951 561.541 49.3421 561.828 49.5614 562.061C49.7854 562.294 50.0678 562.472 50.4084 562.593C50.7491 562.714 51.1294 562.775 51.5494 562.775C51.9228 562.775 52.2704 562.719 52.5924 562.607C52.9144 562.495 53.1758 562.329 53.3764 562.11C53.5771 561.886 53.6774 561.611 53.6774 561.284C53.6774 560.915 53.5468 560.628 53.2854 560.423C53.0288 560.213 52.6601 560.047 52.1794 559.926L50.1984 559.457C49.6851 559.34 49.2371 559.17 48.8544 558.946C48.4764 558.722 48.1824 558.428 47.9724 558.064C47.7624 557.695 47.6574 557.245 47.6574 556.713C47.6574 556.106 47.8231 555.581 48.1544 555.138C48.4904 554.695 48.9454 554.354 49.5194 554.116C50.0934 553.873 50.7398 553.752 51.4584 553.752C52.2798 553.752 52.9728 553.89 53.5374 554.165C54.1021 554.436 54.5314 554.8 54.8254 555.257C55.1194 555.714 55.2688 556.216 55.2734 556.762H53.5514C53.5141 556.356 53.3951 556.036 53.1944 555.803C52.9938 555.565 52.7394 555.392 52.4314 555.285C52.1234 555.178 51.7828 555.124 51.4094 555.124C50.7468 555.124 50.2544 555.266 49.9324 555.551C49.6104 555.836 49.4494 556.169 49.4494 556.552C49.4494 556.911 49.5684 557.196 49.8064 557.406C50.0444 557.616 50.4084 557.779 50.8984 557.896L52.7814 558.337C53.4114 558.468 53.9178 558.668 54.3004 558.939C54.6831 559.21 54.9608 559.532 55.1334 559.905C55.3108 560.274 55.3994 560.682 55.3994 561.13C55.3994 561.718 55.2314 562.238 54.8954 562.691C54.5641 563.144 54.1044 563.498 53.5164 563.755C52.9284 564.012 52.2448 564.14 51.4654 564.14ZM59.141 564.14C58.679 564.14 58.2637 564.056 57.895 563.888C57.531 563.715 57.244 563.47 57.034 563.153C56.8287 562.831 56.726 562.441 56.726 561.984C56.726 561.186 57.013 560.584 57.587 560.178C58.1657 559.772 59.085 559.56 60.345 559.541L61.43 559.513V559.023C61.43 558.64 61.3157 558.342 61.087 558.127C60.863 557.908 60.513 557.8 60.037 557.805C59.6824 557.81 59.3604 557.894 59.071 558.057C58.7817 558.216 58.5904 558.484 58.497 558.862H57.048C57.076 558.367 57.2184 557.954 57.475 557.623C57.7364 557.287 58.0934 557.037 58.546 556.874C58.9987 556.706 59.5214 556.622 60.114 556.622C60.8047 556.622 61.367 556.713 61.801 556.895C62.235 557.077 62.5547 557.341 62.76 557.686C62.9654 558.027 63.068 558.44 63.068 558.925V564H61.633L61.493 562.698C61.2364 563.244 60.9074 563.622 60.506 563.832C60.1094 564.037 59.6544 564.14 59.141 564.14ZM59.694 562.985C59.904 562.985 60.1117 562.948 60.317 562.873C60.5224 562.794 60.7067 562.689 60.87 562.558C61.038 562.423 61.171 562.273 61.269 562.11C61.3717 561.947 61.4254 561.776 61.43 561.599V560.458L60.541 560.472C60.1024 560.477 59.7174 560.523 59.386 560.612C59.0594 560.701 58.805 560.843 58.623 561.039C58.441 561.23 58.35 561.487 58.35 561.809C58.35 562.178 58.4784 562.467 58.735 562.677C58.9917 562.882 59.3114 562.985 59.694 562.985ZM64.882 564V556.762H66.513V558.33C66.6297 557.971 66.7953 557.665 67.01 557.413C67.2293 557.156 67.486 556.96 67.78 556.825C68.074 556.69 68.3937 556.622 68.739 556.622C68.823 556.622 68.9047 556.627 68.984 556.636C69.0633 556.645 69.1217 556.662 69.159 556.685V558.316C69.1077 558.293 69.04 558.276 68.956 558.267C68.8767 558.258 68.8067 558.253 68.746 558.253C68.396 558.225 68.0857 558.239 67.815 558.295C67.549 558.351 67.3227 558.447 67.136 558.582C66.954 558.713 66.8163 558.881 66.723 559.086C66.6297 559.287 66.583 559.522 66.583 559.793V564H64.882ZM72.4028 564.14C71.9408 564.14 71.5254 564.056 71.1568 563.888C70.7928 563.715 70.5058 563.47 70.2958 563.153C70.0904 562.831 69.9878 562.441 69.9878 561.984C69.9878 561.186 70.2748 560.584 70.8488 560.178C71.4274 559.772 72.3468 559.56 73.6068 559.541L74.6918 559.513V559.023C74.6918 558.64 74.5774 558.342 74.3488 558.127C74.1248 557.908 73.7748 557.8 73.2987 557.805C72.9441 557.81 72.6221 557.894 72.3328 558.057C72.0434 558.216 71.8521 558.484 71.7588 558.862H70.3098C70.3378 558.367 70.4801 557.954 70.7368 557.623C70.9981 557.287 71.3551 557.037 71.8078 556.874C72.2604 556.706 72.7831 556.622 73.3758 556.622C74.0664 556.622 74.6288 556.713 75.0628 556.895C75.4968 557.077 75.8164 557.341 76.0218 557.686C76.2271 558.027 76.3298 558.44 76.3298 558.925V564H74.8948L74.7548 562.698C74.4981 563.244 74.1691 563.622 73.7678 563.832C73.3711 564.037 72.9161 564.14 72.4028 564.14ZM72.9558 562.985C73.1658 562.985 73.3734 562.948 73.5788 562.873C73.7841 562.794 73.9684 562.689 74.1318 562.558C74.2998 562.423 74.4328 562.273 74.5308 562.11C74.6334 561.947 74.6871 561.776 74.6918 561.599V560.458L73.8028 560.472C73.3641 560.477 72.9791 560.523 72.6478 560.612C72.3211 560.701 72.0668 560.843 71.8848 561.039C71.7028 561.23 71.6118 561.487 71.6118 561.809C71.6118 562.178 71.7401 562.467 71.9968 562.677C72.2534 562.882 72.5731 562.985 72.9558 562.985ZM78.1437 564V553.598H79.8237V557.812C79.9404 557.63 80.0944 557.455 80.2857 557.287C80.4771 557.114 80.7104 556.974 80.9857 556.867C81.2657 556.755 81.5994 556.699 81.9867 556.699C82.4487 556.699 82.8711 556.788 83.2537 556.965C83.6364 557.142 83.9421 557.399 84.1707 557.735C84.3994 558.066 84.5137 558.463 84.5137 558.925V564H82.8057V559.212C82.8057 558.839 82.6727 558.549 82.4067 558.344C82.1454 558.139 81.8141 558.036 81.4127 558.036C81.1467 558.036 80.8924 558.083 80.6497 558.176C80.4071 558.269 80.2111 558.409 80.0617 558.596C79.9171 558.778 79.8447 559.007 79.8447 559.282V564H78.1437ZM85.6707 557.525L86.4617 555.698L85.8037 555.649V553.878H87.6657V555.432L86.3567 557.525H85.6707Z" fill="black"/>
<path d="M265.004 564.14C264.341 564.14 263.751 563.995 263.233 563.706C262.72 563.412 262.316 562.987 262.022 562.432C261.728 561.872 261.581 561.198 261.581 560.409C261.581 559.658 261.719 559 261.994 558.435C262.274 557.866 262.668 557.422 263.177 557.105C263.69 556.783 264.299 556.622 265.004 556.622C265.569 556.622 266.066 556.734 266.495 556.958C266.924 557.182 267.267 557.492 267.524 557.889C267.785 558.286 267.942 558.736 267.993 559.24H266.544C266.507 559.021 266.425 558.813 266.299 558.617C266.173 558.416 266.003 558.255 265.788 558.134C265.578 558.008 265.321 557.945 265.018 557.945C264.472 557.945 264.031 558.146 263.695 558.547C263.359 558.948 263.191 559.564 263.191 560.395C263.191 561.16 263.35 561.769 263.667 562.222C263.989 562.675 264.449 562.901 265.046 562.901C265.345 562.901 265.601 562.836 265.816 562.705C266.031 562.57 266.199 562.404 266.32 562.208C266.446 562.007 266.525 561.807 266.558 561.606H267.972C267.93 562.096 267.778 562.532 267.517 562.915C267.256 563.298 266.91 563.599 266.481 563.818C266.052 564.033 265.559 564.14 265.004 564.14ZM272.619 564.14C271.929 564.14 271.327 563.993 270.813 563.699C270.3 563.4 269.901 562.973 269.616 562.418C269.336 561.863 269.196 561.195 269.196 560.416C269.196 559.66 269.334 558.997 269.609 558.428C269.885 557.859 270.277 557.415 270.785 557.098C271.299 556.781 271.912 556.622 272.626 556.622C273.317 556.622 273.917 556.774 274.425 557.077C274.934 557.38 275.326 557.814 275.601 558.379C275.881 558.944 276.021 559.623 276.021 560.416C276.021 561.149 275.888 561.795 275.622 562.355C275.361 562.91 274.976 563.347 274.467 563.664C273.963 563.981 273.347 564.14 272.619 564.14ZM272.626 562.845C273.018 562.845 273.34 562.738 273.592 562.523C273.849 562.308 274.04 562.014 274.166 561.641C274.292 561.268 274.355 560.843 274.355 560.367C274.355 559.924 274.299 559.515 274.187 559.142C274.075 558.769 273.891 558.47 273.634 558.246C273.382 558.017 273.046 557.903 272.626 557.903C272.23 557.903 271.901 558.008 271.639 558.218C271.383 558.423 271.191 558.713 271.065 559.086C270.939 559.455 270.876 559.882 270.876 560.367C270.876 560.806 270.932 561.214 271.044 561.592C271.156 561.965 271.341 562.269 271.597 562.502C271.854 562.731 272.197 562.845 272.626 562.845ZM277.579 564V556.762H279.245V557.798C279.357 557.611 279.509 557.432 279.7 557.259C279.896 557.086 280.137 556.946 280.421 556.839C280.706 556.732 281.04 556.678 281.422 556.678C281.87 556.678 282.286 556.767 282.668 556.944C283.056 557.121 283.366 557.399 283.599 557.777C283.837 558.155 283.956 558.643 283.956 559.24V564H282.248V559.443C282.248 558.967 282.118 558.615 281.856 558.386C281.595 558.153 281.266 558.036 280.869 558.036C280.599 558.036 280.342 558.083 280.099 558.176C279.857 558.265 279.658 558.402 279.504 558.589C279.355 558.771 279.28 559 279.28 559.275V564H277.579ZM288.4 564.056C287.826 564.056 287.381 563.981 287.063 563.832C286.751 563.678 286.534 563.461 286.412 563.181C286.291 562.901 286.23 562.567 286.23 562.18V557.966H285.054V556.762H286.279L286.706 554.613H287.931V556.755H289.548V557.966H287.931L287.938 562.117C287.938 562.332 287.962 562.49 288.008 562.593C288.06 562.691 288.139 562.756 288.246 562.789C288.358 562.817 288.505 562.831 288.687 562.831H289.583V563.909C289.485 563.946 289.341 563.979 289.149 564.007C288.963 564.04 288.713 564.056 288.4 564.056ZM294.149 564.14C293.454 564.14 292.84 563.993 292.308 563.699C291.781 563.4 291.368 562.976 291.069 562.425C290.775 561.874 290.628 561.219 290.628 560.458C290.628 559.716 290.761 559.058 291.027 558.484C291.298 557.905 291.688 557.45 292.196 557.119C292.71 556.788 293.328 556.622 294.051 556.622C294.765 556.622 295.365 556.774 295.85 557.077C296.336 557.38 296.704 557.805 296.956 558.351C297.208 558.892 297.334 559.527 297.334 560.255V560.773H292.329C292.325 561.184 292.39 561.548 292.525 561.865C292.661 562.182 292.861 562.432 293.127 562.614C293.393 562.791 293.722 562.88 294.114 562.88C294.516 562.88 294.863 562.791 295.157 562.614C295.456 562.432 295.654 562.157 295.752 561.788H297.306C297.222 562.292 297.022 562.719 296.704 563.069C296.392 563.419 296.009 563.685 295.556 563.867C295.108 564.049 294.639 564.14 294.149 564.14ZM292.322 559.716H295.724C295.724 559.366 295.661 559.051 295.535 558.771C295.414 558.486 295.23 558.262 294.982 558.099C294.735 557.931 294.422 557.847 294.044 557.847C293.671 557.847 293.356 557.938 293.099 558.12C292.843 558.302 292.649 558.538 292.518 558.827C292.388 559.112 292.322 559.408 292.322 559.716ZM298.962 564V556.762H300.628V557.798C300.74 557.611 300.892 557.432 301.083 557.259C301.279 557.086 301.519 556.946 301.804 556.839C302.089 556.732 302.422 556.678 302.805 556.678C303.253 556.678 303.668 556.767 304.051 556.944C304.438 557.121 304.749 557.399 304.982 557.777C305.22 558.155 305.339 558.643 305.339 559.24V564H303.631V559.443C303.631 558.967 303.5 558.615 303.239 558.386C302.978 558.153 302.649 558.036 302.252 558.036C301.981 558.036 301.725 558.083 301.482 558.176C301.239 558.265 301.041 558.402 300.887 558.589C300.738 558.771 300.663 559 300.663 559.275V564H298.962ZM309.783 564.056C309.209 564.056 308.763 563.981 308.446 563.832C308.133 563.678 307.916 563.461 307.795 563.181C307.674 562.901 307.613 562.567 307.613 562.18V557.966H306.437V556.762H307.662L308.089 554.613H309.314V556.755H310.931V557.966H309.314L309.321 562.117C309.321 562.332 309.344 562.49 309.391 562.593C309.442 562.691 309.522 562.756 309.629 562.789C309.741 562.817 309.888 562.831 310.07 562.831H310.966V563.909C310.868 563.946 310.723 563.979 310.532 564.007C310.345 564.04 310.096 564.056 309.783 564.056ZM312.3 558.932V556.986H314.225V558.932H312.3ZM312.3 563.958V562.026H314.225V563.958H312.3ZM318.958 557.525L319.749 555.698L319.091 555.649V553.878H320.953V555.432L319.644 557.525H318.958ZM325.174 564V555.411H322.024V553.878H329.92V555.411H326.882V564H325.174ZM333.36 564.14C332.665 564.14 332.051 563.993 331.519 563.699C330.992 563.4 330.579 562.976 330.28 562.425C329.986 561.874 329.839 561.219 329.839 560.458C329.839 559.716 329.972 559.058 330.238 558.484C330.509 557.905 330.899 557.45 331.407 557.119C331.921 556.788 332.539 556.622 333.262 556.622C333.976 556.622 334.576 556.774 335.061 557.077C335.547 557.38 335.915 557.805 336.167 558.351C336.419 558.892 336.545 559.527 336.545 560.255V560.773H331.54C331.536 561.184 331.601 561.548 331.736 561.865C331.872 562.182 332.072 562.432 332.338 562.614C332.604 562.791 332.933 562.88 333.325 562.88C333.727 562.88 334.074 562.791 334.368 562.614C334.667 562.432 334.865 562.157 334.963 561.788H336.517C336.433 562.292 336.233 562.719 335.915 563.069C335.603 563.419 335.22 563.685 334.767 563.867C334.319 564.049 333.85 564.14 333.36 564.14ZM331.533 559.716H334.935C334.935 559.366 334.872 559.051 334.746 558.771C334.625 558.486 334.441 558.262 334.193 558.099C333.946 557.931 333.633 557.847 333.255 557.847C332.882 557.847 332.567 557.938 332.31 558.12C332.054 558.302 331.86 558.538 331.729 558.827C331.599 559.112 331.533 559.408 331.533 559.716ZM340.918 564.14C340.414 564.14 339.935 564.061 339.483 563.902C339.035 563.739 338.657 563.484 338.349 563.139C338.045 562.794 337.854 562.348 337.775 561.802H339.273C339.338 562.068 339.452 562.285 339.616 562.453C339.784 562.621 339.98 562.745 340.204 562.824C340.432 562.899 340.668 562.936 340.911 562.936C341.345 562.936 341.695 562.861 341.961 562.712C342.227 562.563 342.36 562.332 342.36 562.019C342.36 561.79 342.285 561.608 342.136 561.473C341.991 561.338 341.753 561.235 341.422 561.165L340.05 560.85C339.434 560.715 338.941 560.491 338.573 560.178C338.204 559.865 338.017 559.424 338.013 558.855C338.008 558.426 338.115 558.043 338.335 557.707C338.554 557.371 338.881 557.107 339.315 556.916C339.749 556.72 340.283 556.622 340.918 556.622C341.762 556.622 342.439 556.811 342.948 557.189C343.461 557.562 343.725 558.097 343.739 558.792H342.29C342.238 558.479 342.091 558.237 341.849 558.064C341.606 557.887 341.291 557.798 340.904 557.798C340.502 557.798 340.173 557.875 339.917 558.029C339.66 558.183 339.532 558.419 339.532 558.736C339.532 558.955 339.627 559.128 339.819 559.254C340.015 559.38 340.311 559.487 340.708 559.576L342.01 559.891C342.383 559.984 342.689 560.11 342.927 560.269C343.165 560.428 343.349 560.603 343.48 560.794C343.615 560.981 343.708 561.174 343.76 561.375C343.816 561.571 343.844 561.753 343.844 561.921C343.844 562.388 343.722 562.787 343.48 563.118C343.242 563.445 342.903 563.697 342.465 563.874C342.031 564.051 341.515 564.14 340.918 564.14ZM348.215 564.056C347.641 564.056 347.195 563.981 346.878 563.832C346.565 563.678 346.348 563.461 346.227 563.181C346.105 562.901 346.045 562.567 346.045 562.18V557.966H344.869V556.762H346.094L346.521 554.613H347.746V556.755H349.363V557.966H347.746L347.753 562.117C347.753 562.332 347.776 562.49 347.823 562.593C347.874 562.691 347.953 562.756 348.061 562.789C348.173 562.817 348.32 562.831 348.502 562.831H349.398V563.909C349.3 563.946 349.155 563.979 348.964 564.007C348.777 564.04 348.527 564.056 348.215 564.056ZM354.097 564V563.09V562.621C354.097 562.103 354.193 561.657 354.384 561.284C354.576 560.906 354.83 560.577 355.147 560.297C355.465 560.017 355.812 559.77 356.19 559.555C356.573 559.336 356.951 559.13 357.324 558.939C357.702 558.743 358.05 558.542 358.367 558.337C358.685 558.127 358.939 557.894 359.13 557.637C359.326 557.38 359.424 557.075 359.424 556.72C359.424 556.267 359.263 555.899 358.941 555.614C358.624 555.325 358.192 555.18 357.646 555.18C357.068 555.18 356.589 555.346 356.211 555.677C355.838 556.008 355.616 556.475 355.546 557.077H353.894C353.904 556.461 354.051 555.901 354.335 555.397C354.62 554.893 355.042 554.492 355.602 554.193C356.162 553.89 356.86 553.738 357.695 553.738C358.419 553.738 359.042 553.864 359.564 554.116C360.092 554.363 360.498 554.711 360.782 555.159C361.072 555.602 361.216 556.12 361.216 556.713C361.216 557.231 361.121 557.674 360.929 558.043C360.743 558.412 360.493 558.731 360.18 559.002C359.872 559.268 359.532 559.504 359.158 559.709C358.79 559.914 358.419 560.108 358.045 560.29C357.677 560.467 357.336 560.654 357.023 560.85C356.715 561.041 356.466 561.261 356.274 561.508C356.088 561.755 355.994 562.052 355.994 562.397V562.544H361.237V564H354.097ZM362.612 557.525L363.403 555.698L362.745 555.649V553.878H364.607V555.432L363.298 557.525H362.612Z" fill="black"/>
<path d="M26.004 283.14C25.3413 283.14 24.751 282.995 24.233 282.706C23.7197 282.412 23.316 281.987 23.022 281.432C22.728 280.872 22.581 280.198 22.581 279.409C22.581 278.658 22.7187 278 22.994 277.435C23.274 276.866 23.6683 276.422 24.177 276.105C24.6903 275.783 25.2993 275.622 26.004 275.622C26.5687 275.622 27.0657 275.734 27.495 275.958C27.9243 276.182 28.2673 276.492 28.524 276.889C28.7853 277.286 28.9417 277.736 28.993 278.24H27.544C27.5067 278.021 27.425 277.813 27.299 277.617C27.173 277.416 27.0027 277.255 26.788 277.134C26.578 277.008 26.3213 276.945 26.018 276.945C25.472 276.945 25.031 277.146 24.695 277.547C24.359 277.948 24.191 278.564 24.191 279.395C24.191 280.16 24.3497 280.769 24.667 281.222C24.989 281.675 25.4487 281.901 26.046 281.901C26.3447 281.901 26.6013 281.836 26.816 281.705C27.0307 281.57 27.1987 281.404 27.32 281.208C27.446 281.007 27.5253 280.807 27.558 280.606H28.972C28.93 281.096 28.7783 281.532 28.517 281.915C28.2557 282.298 27.9103 282.599 27.481 282.818C27.0517 283.033 26.5593 283.14 26.004 283.14ZM33.6192 283.14C32.9286 283.14 32.3266 282.993 31.8132 282.699C31.2999 282.4 30.9009 281.973 30.6162 281.418C30.3362 280.863 30.1962 280.195 30.1962 279.416C30.1962 278.66 30.3339 277.997 30.6092 277.428C30.8846 276.859 31.2766 276.415 31.7852 276.098C32.2986 275.781 32.9122 275.622 33.6262 275.622C34.3169 275.622 34.9166 275.774 35.4252 276.077C35.9339 276.38 36.3259 276.814 36.6012 277.379C36.8812 277.944 37.0212 278.623 37.0212 279.416C37.0212 280.149 36.8882 280.795 36.6222 281.355C36.3609 281.91 35.9759 282.347 35.4672 282.664C34.9632 282.981 34.3472 283.14 33.6192 283.14ZM33.6262 281.845C34.0182 281.845 34.3402 281.738 34.5922 281.523C34.8489 281.308 35.0402 281.014 35.1662 280.641C35.2922 280.268 35.3552 279.843 35.3552 279.367C35.3552 278.924 35.2992 278.515 35.1872 278.142C35.0752 277.769 34.8909 277.47 34.6342 277.246C34.3822 277.017 34.0462 276.903 33.6262 276.903C33.2296 276.903 32.9006 277.008 32.6392 277.218C32.3826 277.423 32.1912 277.713 32.0652 278.086C31.9392 278.455 31.8762 278.882 31.8762 279.367C31.8762 279.806 31.9322 280.214 32.0442 280.592C32.1562 280.965 32.3406 281.269 32.5972 281.502C32.8539 281.731 33.1969 281.845 33.6262 281.845ZM38.5793 283V275.762H40.2453V276.798C40.3573 276.611 40.5089 276.432 40.7003 276.259C40.8963 276.086 41.1366 275.946 41.4213 275.839C41.7059 275.732 42.0396 275.678 42.4223 275.678C42.8703 275.678 43.2856 275.767 43.6683 275.944C44.0556 276.121 44.3659 276.399 44.5993 276.777C44.8373 277.155 44.9563 277.643 44.9563 278.24V283H43.2483V278.443C43.2483 277.967 43.1176 277.615 42.8563 277.386C42.5949 277.153 42.2659 277.036 41.8693 277.036C41.5986 277.036 41.3419 277.083 41.0993 277.176C40.8566 277.265 40.6583 277.402 40.5043 277.589C40.3549 277.771 40.2803 278 40.2803 278.275V283H38.5793ZM49.4003 283.056C48.8263 283.056 48.3806 282.981 48.0633 282.832C47.7506 282.678 47.5336 282.461 47.4123 282.181C47.291 281.901 47.2303 281.567 47.2303 281.18V276.966H46.0543V275.762H47.2793L47.7063 273.613H48.9313V275.755H50.5483V276.966H48.9313L48.9383 281.117C48.9383 281.332 48.9616 281.49 49.0083 281.593C49.0596 281.691 49.139 281.756 49.2463 281.789C49.3583 281.817 49.5053 281.831 49.6873 281.831H50.5833V282.909C50.4853 282.946 50.3406 282.979 50.1493 283.007C49.9626 283.04 49.713 283.056 49.4003 283.056ZM55.1494 283.14C54.454 283.14 53.8404 282.993 53.3084 282.699C52.781 282.4 52.368 281.976 52.0694 281.425C51.7754 280.874 51.6284 280.219 51.6284 279.458C51.6284 278.716 51.7614 278.058 52.0274 277.484C52.298 276.905 52.6877 276.45 53.1964 276.119C53.7097 275.788 54.328 275.622 55.0514 275.622C55.7654 275.622 56.365 275.774 56.8504 276.077C57.3357 276.38 57.7044 276.805 57.9564 277.351C58.2084 277.892 58.3344 278.527 58.3344 279.255V279.773H53.3294C53.3247 280.184 53.39 280.548 53.5254 280.865C53.6607 281.182 53.8614 281.432 54.1274 281.614C54.3934 281.791 54.7224 281.88 55.1144 281.88C55.5157 281.88 55.8634 281.791 56.1574 281.614C56.456 281.432 56.6544 281.157 56.7524 280.788H58.3064C58.2224 281.292 58.0217 281.719 57.7044 282.069C57.3917 282.419 57.009 282.685 56.5564 282.867C56.1084 283.049 55.6394 283.14 55.1494 283.14ZM53.3224 278.716H56.7244C56.7244 278.366 56.6614 278.051 56.5354 277.771C56.414 277.486 56.2297 277.262 55.9824 277.099C55.735 276.931 55.4224 276.847 55.0444 276.847C54.671 276.847 54.356 276.938 54.0994 277.12C53.8427 277.302 53.649 277.538 53.5184 277.827C53.3877 278.112 53.3224 278.408 53.3224 278.716ZM59.9621 283V275.762H61.6281V276.798C61.7401 276.611 61.8918 276.432 62.0831 276.259C62.2791 276.086 62.5194 275.946 62.8041 275.839C63.0888 275.732 63.4224 275.678 63.8051 275.678C64.2531 275.678 64.6684 275.767 65.0511 275.944C65.4384 276.121 65.7488 276.399 65.9821 276.777C66.2201 277.155 66.3391 277.643 66.3391 278.24V283H64.6311V278.443C64.6311 277.967 64.5004 277.615 64.2391 277.386C63.9778 277.153 63.6488 277.036 63.2521 277.036C62.9814 277.036 62.7248 277.083 62.4821 277.176C62.2394 277.265 62.0411 277.402 61.8871 277.589C61.7378 277.771 61.6631 278 61.6631 278.275V283H59.9621ZM70.7831 283.056C70.2091 283.056 69.7634 282.981 69.4461 282.832C69.1334 282.678 68.9164 282.461 68.7951 282.181C68.6738 281.901 68.6131 281.567 68.6131 281.18V276.966H67.4371V275.762H68.6621L69.0891 273.613H70.3141V275.755H71.9311V276.966H70.3141L70.3211 281.117C70.3211 281.332 70.3444 281.49 70.3911 281.593C70.4424 281.691 70.5218 281.756 70.6291 281.789C70.7411 281.817 70.8881 281.831 71.0701 281.831H71.9661V282.909C71.8681 282.946 71.7234 282.979 71.5321 283.007C71.3454 283.04 71.0958 283.056 70.7831 283.056ZM73.3003 277.932V275.986H75.2253V277.932H73.3003ZM73.3003 282.958V281.026H75.2253V282.958H73.3003ZM79.9578 276.525L80.7488 274.698L80.0908 274.649V272.878H81.9528V274.432L80.6438 276.525H79.9578ZM86.1745 283V274.411H83.0245V272.878H90.9205V274.411H87.8825V283H86.1745ZM94.3603 283.14C93.665 283.14 93.0513 282.993 92.5193 282.699C91.992 282.4 91.579 281.976 91.2803 281.425C90.9863 280.874 90.8393 280.219 90.8393 279.458C90.8393 278.716 90.9723 278.058 91.2383 277.484C91.509 276.905 91.8986 276.45 92.4073 276.119C92.9206 275.788 93.539 275.622 94.2623 275.622C94.9763 275.622 95.576 275.774 96.0613 276.077C96.5466 276.38 96.9153 276.805 97.1673 277.351C97.4193 277.892 97.5453 278.527 97.5453 279.255V279.773H92.5403C92.5356 280.184 92.601 280.548 92.7363 280.865C92.8716 281.182 93.0723 281.432 93.3383 281.614C93.6043 281.791 93.9333 281.88 94.3253 281.88C94.7266 281.88 95.0743 281.791 95.3683 281.614C95.667 281.432 95.8653 281.157 95.9633 280.788H97.5173C97.4333 281.292 97.2326 281.719 96.9153 282.069C96.6026 282.419 96.22 282.685 95.7673 282.867C95.3193 283.049 94.8503 283.14 94.3603 283.14ZM92.5333 278.716H95.9353C95.9353 278.366 95.8723 278.051 95.7463 277.771C95.625 277.486 95.4406 277.262 95.1933 277.099C94.946 276.931 94.6333 276.847 94.2553 276.847C93.882 276.847 93.567 276.938 93.3103 277.12C93.0536 277.302 92.86 277.538 92.7293 277.827C92.5986 278.112 92.5333 278.408 92.5333 278.716ZM101.918 283.14C101.414 283.14 100.935 283.061 100.483 282.902C100.035 282.739 99.6567 282.484 99.3487 282.139C99.0454 281.794 98.854 281.348 98.7747 280.802H100.273C100.338 281.068 100.452 281.285 100.616 281.453C100.784 281.621 100.98 281.745 101.204 281.824C101.432 281.899 101.668 281.936 101.911 281.936C102.345 281.936 102.695 281.861 102.961 281.712C103.227 281.563 103.36 281.332 103.36 281.019C103.36 280.79 103.285 280.608 103.136 280.473C102.991 280.338 102.753 280.235 102.422 280.165L101.05 279.85C100.434 279.715 99.9414 279.491 99.5727 279.178C99.204 278.865 99.0174 278.424 99.0127 277.855C99.008 277.426 99.1154 277.043 99.3347 276.707C99.554 276.371 99.8807 276.107 100.315 275.916C100.749 275.72 101.283 275.622 101.918 275.622C102.762 275.622 103.439 275.811 103.948 276.189C104.461 276.562 104.725 277.097 104.739 277.792H103.29C103.238 277.479 103.091 277.237 102.849 277.064C102.606 276.887 102.291 276.798 101.904 276.798C101.502 276.798 101.173 276.875 100.917 277.029C100.66 277.183 100.532 277.419 100.532 277.736C100.532 277.955 100.627 278.128 100.819 278.254C101.015 278.38 101.311 278.487 101.708 278.576L103.01 278.891C103.383 278.984 103.689 279.11 103.927 279.269C104.165 279.428 104.349 279.603 104.48 279.794C104.615 279.981 104.708 280.174 104.76 280.375C104.816 280.571 104.844 280.753 104.844 280.921C104.844 281.388 104.722 281.787 104.48 282.118C104.242 282.445 103.903 282.697 103.465 282.874C103.031 283.051 102.515 283.14 101.918 283.14ZM109.215 283.056C108.641 283.056 108.195 282.981 107.878 282.832C107.565 282.678 107.348 282.461 107.227 282.181C107.105 281.901 107.045 281.567 107.045 281.18V276.966H105.869V275.762H107.094L107.521 273.613H108.746V275.755H110.363V276.966H108.746L108.753 281.117C108.753 281.332 108.776 281.49 108.823 281.593C108.874 281.691 108.953 281.756 109.061 281.789C109.173 281.817 109.32 281.831 109.502 281.831H110.398V282.909C110.3 282.946 110.155 282.979 109.964 283.007C109.777 283.04 109.527 283.056 109.215 283.056ZM116.77 283V275.202H114.894V274.187C115.487 274.187 115.956 274.138 116.301 274.04C116.651 273.937 116.906 273.788 117.064 273.592C117.228 273.396 117.321 273.158 117.344 272.878H118.506V283H116.77ZM120.837 276.525L121.628 274.698L120.97 274.649V272.878H122.832V274.432L121.523 276.525H120.837Z" fill="black"/>
<path d="M26.004 691.14C25.3413 691.14 24.751 690.995 24.233 690.706C23.7197 690.412 23.316 689.987 23.022 689.432C22.728 688.872 22.581 688.198 22.581 687.409C22.581 686.658 22.7187 686 22.994 685.435C23.274 684.866 23.6683 684.422 24.177 684.105C24.6903 683.783 25.2993 683.622 26.004 683.622C26.5687 683.622 27.0657 683.734 27.495 683.958C27.9243 684.182 28.2673 684.492 28.524 684.889C28.7853 685.286 28.9417 685.736 28.993 686.24H27.544C27.5067 686.021 27.425 685.813 27.299 685.617C27.173 685.416 27.0027 685.255 26.788 685.134C26.578 685.008 26.3213 684.945 26.018 684.945C25.472 684.945 25.031 685.146 24.695 685.547C24.359 685.948 24.191 686.564 24.191 687.395C24.191 688.16 24.3497 688.769 24.667 689.222C24.989 689.675 25.4487 689.901 26.046 689.901C26.3447 689.901 26.6013 689.836 26.816 689.705C27.0307 689.57 27.1987 689.404 27.32 689.208C27.446 689.007 27.5253 688.807 27.558 688.606H28.972C28.93 689.096 28.7783 689.532 28.517 689.915C28.2557 690.298 27.9103 690.599 27.481 690.818C27.0517 691.033 26.5593 691.14 26.004 691.14ZM33.6192 691.14C32.9286 691.14 32.3266 690.993 31.8132 690.699C31.2999 690.4 30.9009 689.973 30.6162 689.418C30.3362 688.863 30.1962 688.195 30.1962 687.416C30.1962 686.66 30.3339 685.997 30.6092 685.428C30.8846 684.859 31.2766 684.415 31.7852 684.098C32.2986 683.781 32.9122 683.622 33.6262 683.622C34.3169 683.622 34.9166 683.774 35.4252 684.077C35.9339 684.38 36.3259 684.814 36.6012 685.379C36.8812 685.944 37.0212 686.623 37.0212 687.416C37.0212 688.149 36.8882 688.795 36.6222 689.355C36.3609 689.91 35.9759 690.347 35.4672 690.664C34.9632 690.981 34.3472 691.14 33.6192 691.14ZM33.6262 689.845C34.0182 689.845 34.3402 689.738 34.5922 689.523C34.8489 689.308 35.0402 689.014 35.1662 688.641C35.2922 688.268 35.3552 687.843 35.3552 687.367C35.3552 686.924 35.2992 686.515 35.1872 686.142C35.0752 685.769 34.8909 685.47 34.6342 685.246C34.3822 685.017 34.0462 684.903 33.6262 684.903C33.2296 684.903 32.9006 685.008 32.6392 685.218C32.3826 685.423 32.1912 685.713 32.0652 686.086C31.9392 686.455 31.8762 686.882 31.8762 687.367C31.8762 687.806 31.9322 688.214 32.0442 688.592C32.1562 688.965 32.3406 689.269 32.5972 689.502C32.8539 689.731 33.1969 689.845 33.6262 689.845ZM38.5793 691V683.762H40.2453V684.798C40.3573 684.611 40.5089 684.432 40.7003 684.259C40.8963 684.086 41.1366 683.946 41.4213 683.839C41.7059 683.732 42.0396 683.678 42.4223 683.678C42.8703 683.678 43.2856 683.767 43.6683 683.944C44.0556 684.121 44.3659 684.399 44.5993 684.777C44.8373 685.155 44.9563 685.643 44.9563 686.24V691H43.2483V686.443C43.2483 685.967 43.1176 685.615 42.8563 685.386C42.5949 685.153 42.2659 685.036 41.8693 685.036C41.5986 685.036 41.3419 685.083 41.0993 685.176C40.8566 685.265 40.6583 685.402 40.5043 685.589C40.3549 685.771 40.2803 686 40.2803 686.275V691H38.5793ZM49.4003 691.056C48.8263 691.056 48.3806 690.981 48.0633 690.832C47.7506 690.678 47.5336 690.461 47.4123 690.181C47.291 689.901 47.2303 689.567 47.2303 689.18V684.966H46.0543V683.762H47.2793L47.7063 681.613H48.9313V683.755H50.5483V684.966H48.9313L48.9383 689.117C48.9383 689.332 48.9616 689.49 49.0083 689.593C49.0596 689.691 49.139 689.756 49.2463 689.789C49.3583 689.817 49.5053 689.831 49.6873 689.831H50.5833V690.909C50.4853 690.946 50.3406 690.979 50.1493 691.007C49.9626 691.04 49.713 691.056 49.4003 691.056ZM55.1494 691.14C54.454 691.14 53.8404 690.993 53.3084 690.699C52.781 690.4 52.368 689.976 52.0694 689.425C51.7754 688.874 51.6284 688.219 51.6284 687.458C51.6284 686.716 51.7614 686.058 52.0274 685.484C52.298 684.905 52.6877 684.45 53.1964 684.119C53.7097 683.788 54.328 683.622 55.0514 683.622C55.7654 683.622 56.365 683.774 56.8504 684.077C57.3357 684.38 57.7044 684.805 57.9564 685.351C58.2084 685.892 58.3344 686.527 58.3344 687.255V687.773H53.3294C53.3247 688.184 53.39 688.548 53.5254 688.865C53.6607 689.182 53.8614 689.432 54.1274 689.614C54.3934 689.791 54.7224 689.88 55.1144 689.88C55.5157 689.88 55.8634 689.791 56.1574 689.614C56.456 689.432 56.6544 689.157 56.7524 688.788H58.3064C58.2224 689.292 58.0217 689.719 57.7044 690.069C57.3917 690.419 57.009 690.685 56.5564 690.867C56.1084 691.049 55.6394 691.14 55.1494 691.14ZM53.3224 686.716H56.7244C56.7244 686.366 56.6614 686.051 56.5354 685.771C56.414 685.486 56.2297 685.262 55.9824 685.099C55.735 684.931 55.4224 684.847 55.0444 684.847C54.671 684.847 54.356 684.938 54.0994 685.12C53.8427 685.302 53.649 685.538 53.5184 685.827C53.3877 686.112 53.3224 686.408 53.3224 686.716ZM59.9621 691V683.762H61.6281V684.798C61.7401 684.611 61.8918 684.432 62.0831 684.259C62.2791 684.086 62.5194 683.946 62.8041 683.839C63.0888 683.732 63.4224 683.678 63.8051 683.678C64.2531 683.678 64.6684 683.767 65.0511 683.944C65.4384 684.121 65.7488 684.399 65.9821 684.777C66.2201 685.155 66.3391 685.643 66.3391 686.24V691H64.6311V686.443C64.6311 685.967 64.5004 685.615 64.2391 685.386C63.9778 685.153 63.6488 685.036 63.2521 685.036C62.9814 685.036 62.7248 685.083 62.4821 685.176C62.2394 685.265 62.0411 685.402 61.8871 685.589C61.7378 685.771 61.6631 686 61.6631 686.275V691H59.9621ZM70.7831 691.056C70.2091 691.056 69.7634 690.981 69.4461 690.832C69.1334 690.678 68.9164 690.461 68.7951 690.181C68.6738 689.901 68.6131 689.567 68.6131 689.18V684.966H67.4371V683.762H68.6621L69.0891 681.613H70.3141V683.755H71.9311V684.966H70.3141L70.3211 689.117C70.3211 689.332 70.3444 689.49 70.3911 689.593C70.4424 689.691 70.5218 689.756 70.6291 689.789C70.7411 689.817 70.8881 689.831 71.0701 689.831H71.9661V690.909C71.8681 690.946 71.7234 690.979 71.5321 691.007C71.3454 691.04 71.0958 691.056 70.7831 691.056ZM73.3003 685.932V683.986H75.2253V685.932H73.3003ZM73.3003 690.958V689.026H75.2253V690.958H73.3003ZM79.9578 684.525L80.7488 682.698L80.0908 682.649V680.878H81.9528V682.432L80.6438 684.525H79.9578ZM86.1745 691V682.411H83.0245V680.878H90.9205V682.411H87.8825V691H86.1745ZM94.3603 691.14C93.665 691.14 93.0513 690.993 92.5193 690.699C91.992 690.4 91.579 689.976 91.2803 689.425C90.9863 688.874 90.8393 688.219 90.8393 687.458C90.8393 686.716 90.9723 686.058 91.2383 685.484C91.509 684.905 91.8986 684.45 92.4073 684.119C92.9206 683.788 93.539 683.622 94.2623 683.622C94.9763 683.622 95.576 683.774 96.0613 684.077C96.5466 684.38 96.9153 684.805 97.1673 685.351C97.4193 685.892 97.5453 686.527 97.5453 687.255V687.773H92.5403C92.5356 688.184 92.601 688.548 92.7363 688.865C92.8716 689.182 93.0723 689.432 93.3383 689.614C93.6043 689.791 93.9333 689.88 94.3253 689.88C94.7266 689.88 95.0743 689.791 95.3683 689.614C95.667 689.432 95.8653 689.157 95.9633 688.788H97.5173C97.4333 689.292 97.2326 689.719 96.9153 690.069C96.6026 690.419 96.22 690.685 95.7673 690.867C95.3193 691.049 94.8503 691.14 94.3603 691.14ZM92.5333 686.716H95.9353C95.9353 686.366 95.8723 686.051 95.7463 685.771C95.625 685.486 95.4406 685.262 95.1933 685.099C94.946 684.931 94.6333 684.847 94.2553 684.847C93.882 684.847 93.567 684.938 93.3103 685.12C93.0536 685.302 92.86 685.538 92.7293 685.827C92.5986 686.112 92.5333 686.408 92.5333 686.716ZM101.918 691.14C101.414 691.14 100.935 691.061 100.483 690.902C100.035 690.739 99.6567 690.484 99.3487 690.139C99.0454 689.794 98.854 689.348 98.7747 688.802H100.273C100.338 689.068 100.452 689.285 100.616 689.453C100.784 689.621 100.98 689.745 101.204 689.824C101.432 689.899 101.668 689.936 101.911 689.936C102.345 689.936 102.695 689.861 102.961 689.712C103.227 689.563 103.36 689.332 103.36 689.019C103.36 688.79 103.285 688.608 103.136 688.473C102.991 688.338 102.753 688.235 102.422 688.165L101.05 687.85C100.434 687.715 99.9414 687.491 99.5727 687.178C99.204 686.865 99.0174 686.424 99.0127 685.855C99.008 685.426 99.1154 685.043 99.3347 684.707C99.554 684.371 99.8807 684.107 100.315 683.916C100.749 683.72 101.283 683.622 101.918 683.622C102.762 683.622 103.439 683.811 103.948 684.189C104.461 684.562 104.725 685.097 104.739 685.792H103.29C103.238 685.479 103.091 685.237 102.849 685.064C102.606 684.887 102.291 684.798 101.904 684.798C101.502 684.798 101.173 684.875 100.917 685.029C100.66 685.183 100.532 685.419 100.532 685.736C100.532 685.955 100.627 686.128 100.819 686.254C101.015 686.38 101.311 686.487 101.708 686.576L103.01 686.891C103.383 686.984 103.689 687.11 103.927 687.269C104.165 687.428 104.349 687.603 104.48 687.794C104.615 687.981 104.708 688.174 104.76 688.375C104.816 688.571 104.844 688.753 104.844 688.921C104.844 689.388 104.722 689.787 104.48 690.118C104.242 690.445 103.903 690.697 103.465 690.874C103.031 691.051 102.515 691.14 101.918 691.14ZM109.215 691.056C108.641 691.056 108.195 690.981 107.878 690.832C107.565 690.678 107.348 690.461 107.227 690.181C107.105 689.901 107.045 689.567 107.045 689.18V684.966H105.869V683.762H107.094L107.521 681.613H108.746V683.755H110.363V684.966H108.746L108.753 689.117C108.753 689.332 108.776 689.49 108.823 689.593C108.874 689.691 108.953 689.756 109.061 689.789C109.173 689.817 109.32 689.831 109.502 689.831H110.398V690.909C110.3 690.946 110.155 690.979 109.964 691.007C109.777 691.04 109.527 691.056 109.215 691.056ZM118.646 691.154C117.886 691.149 117.23 691.019 116.679 690.762C116.129 690.505 115.699 690.139 115.391 689.663C115.088 689.187 114.929 688.622 114.915 687.969H116.574C116.672 688.571 116.91 689.019 117.288 689.313C117.671 689.602 118.135 689.747 118.681 689.747C119.134 689.747 119.526 689.679 119.857 689.544C120.189 689.404 120.443 689.213 120.62 688.97C120.802 688.727 120.893 688.445 120.893 688.123C120.893 687.782 120.795 687.491 120.599 687.248C120.408 687.005 120.144 686.819 119.808 686.688C119.472 686.557 119.094 686.487 118.674 686.478L117.736 686.45V685.064L118.604 685.029C119.006 685.015 119.358 684.938 119.661 684.798C119.969 684.658 120.21 684.474 120.382 684.245C120.555 684.016 120.641 683.76 120.641 683.475C120.641 683.214 120.56 682.978 120.396 682.768C120.238 682.558 120.011 682.395 119.717 682.278C119.423 682.157 119.076 682.096 118.674 682.096C118.334 682.096 118.014 682.157 117.715 682.278C117.417 682.399 117.169 682.595 116.973 682.866C116.782 683.132 116.677 683.482 116.658 683.916H115.006C115.006 683.225 115.172 682.644 115.503 682.173C115.835 681.697 116.278 681.34 116.833 681.102C117.393 680.859 118.014 680.738 118.695 680.738C119.428 680.738 120.077 680.838 120.641 681.039C121.211 681.235 121.656 681.531 121.978 681.928C122.305 682.325 122.468 682.817 122.468 683.405C122.468 683.904 122.317 684.35 122.013 684.742C121.71 685.134 121.232 685.442 120.578 685.666C120.984 685.778 121.348 685.946 121.67 686.17C121.992 686.389 122.247 686.665 122.433 686.996C122.625 687.327 122.72 687.717 122.72 688.165C122.72 688.646 122.615 689.073 122.405 689.446C122.2 689.819 121.911 690.134 121.537 690.391C121.169 690.643 120.737 690.834 120.242 690.965C119.748 691.091 119.216 691.154 118.646 691.154ZM124.063 684.525L124.854 682.698L124.196 682.649V680.878H126.058V682.432L124.749 684.525H124.063Z" fill="black"/>
</svg>
