<svg width="726" height="156" viewBox="0 0 726 156" fill="none" xmlns="http://www.w3.org/2000/svg">
<path d="M278 64C278 28.6538 306.654 0 342 0V0C377.346 0 406 28.6538 406 64V64C406 99.3462 377.346 128 342 128V128C306.654 128 278 99.3462 278 64V64Z" fill="#C990C0"/>
<path d="M317.545 69V58.878H323.929L323.922 60.019H318.847V63.323H323.418V64.457H318.84V67.831L324.062 67.845V69H317.545ZM325.783 71.254V61.762H327.071L327.085 63.022C327.169 62.8727 327.276 62.7163 327.407 62.553C327.542 62.3897 327.706 62.238 327.897 62.098C328.093 61.958 328.319 61.8437 328.576 61.755C328.837 61.6663 329.134 61.622 329.465 61.622C330.044 61.622 330.552 61.755 330.991 62.021C331.434 62.2823 331.78 62.6837 332.027 63.225C332.274 63.7663 332.398 64.4523 332.398 65.283C332.398 66.1137 332.277 66.816 332.034 67.39C331.796 67.9593 331.451 68.3933 330.998 68.692C330.545 68.9907 329.999 69.14 329.36 69.14C329.038 69.14 328.751 69.0933 328.499 69C328.252 68.9113 328.035 68.7947 327.848 68.65C327.666 68.5007 327.512 68.342 327.386 68.174C327.265 68.006 327.164 67.845 327.085 67.691V71.254H325.783ZM329.115 68.132C329.712 68.132 330.2 67.9057 330.578 67.453C330.956 66.9957 331.145 66.2863 331.145 65.325C331.145 64.499 330.972 63.8433 330.627 63.358C330.282 62.8727 329.778 62.63 329.115 62.63C328.443 62.63 327.934 62.8797 327.589 63.379C327.244 63.8737 327.071 64.5223 327.071 65.325C327.071 65.843 327.148 66.3143 327.302 66.739C327.456 67.1637 327.685 67.502 327.988 67.754C328.291 68.006 328.667 68.132 329.115 68.132ZM334.158 69V61.762H335.411V69H334.158ZM334.123 60.229V58.885H335.446V60.229H334.123ZM340.186 69.14C339.682 69.14 339.213 69.063 338.779 68.909C338.349 68.7503 337.992 68.5053 337.708 68.174C337.423 67.838 337.246 67.411 337.176 66.893H338.352C338.412 67.1777 338.529 67.4157 338.702 67.607C338.874 67.7937 339.087 67.936 339.339 68.034C339.595 68.1273 339.875 68.174 340.179 68.174C340.669 68.174 341.063 68.083 341.362 67.901C341.66 67.719 341.81 67.439 341.81 67.061C341.81 66.795 341.73 66.5827 341.572 66.424C341.418 66.2607 341.175 66.1417 340.844 66.067L339.346 65.696C338.762 65.556 338.296 65.3367 337.946 65.038C337.6 64.7393 337.425 64.3217 337.421 63.785C337.421 63.3603 337.523 62.987 337.729 62.665C337.934 62.343 338.24 62.0887 338.646 61.902C339.056 61.7153 339.567 61.622 340.179 61.622C340.967 61.622 341.602 61.7993 342.083 62.154C342.563 62.504 342.815 63.0197 342.839 63.701H341.691C341.644 63.3557 341.49 63.0827 341.229 62.882C340.967 62.6767 340.613 62.574 340.165 62.574C339.707 62.574 339.332 62.6673 339.038 62.854C338.748 63.036 338.604 63.3207 338.604 63.708C338.604 63.9647 338.706 64.1677 338.912 64.317C339.122 64.4617 339.425 64.583 339.822 64.681L341.278 65.045C341.609 65.1337 341.884 65.2503 342.104 65.395C342.323 65.5397 342.496 65.7007 342.622 65.878C342.748 66.0553 342.836 66.242 342.888 66.438C342.944 66.6293 342.972 66.8137 342.972 66.991C342.972 67.4343 342.862 67.817 342.643 68.139C342.423 68.4563 342.106 68.7037 341.691 68.881C341.275 69.0537 340.774 69.14 340.186 69.14ZM347.562 69.14C346.894 69.14 346.311 68.9977 345.812 68.713C345.317 68.4237 344.932 68.0013 344.657 67.446C344.381 66.8907 344.244 66.2117 344.244 65.409C344.244 64.653 344.372 63.9903 344.629 63.421C344.885 62.8517 345.261 62.4107 345.756 62.098C346.25 61.7807 346.855 61.622 347.569 61.622C348.236 61.622 348.815 61.769 349.305 62.063C349.795 62.3523 350.175 62.7793 350.446 63.344C350.721 63.9087 350.859 64.597 350.859 65.409C350.859 66.1463 350.733 66.795 350.481 67.355C350.229 67.915 349.858 68.3537 349.368 68.671C348.882 68.9837 348.28 69.14 347.562 69.14ZM347.569 68.118C347.998 68.118 348.362 68.0083 348.661 67.789C348.959 67.5697 349.186 67.2547 349.34 66.844C349.498 66.4333 349.578 65.9457 349.578 65.381C349.578 64.863 349.508 64.3987 349.368 63.988C349.232 63.5727 349.018 63.2437 348.724 63.001C348.43 62.7583 348.045 62.637 347.569 62.637C347.13 62.637 346.759 62.7467 346.456 62.966C346.152 63.1807 345.921 63.4933 345.763 63.904C345.609 64.3147 345.532 64.807 345.532 65.381C345.532 65.8897 345.599 66.3517 345.735 66.767C345.875 67.1823 346.094 67.5113 346.393 67.754C346.696 67.9967 347.088 68.118 347.569 68.118ZM355.219 69.14C354.276 69.14 353.529 68.818 352.979 68.174C352.433 67.53 352.16 66.5897 352.16 65.353C352.16 64.6017 352.269 63.946 352.489 63.386C352.708 62.826 353.037 62.392 353.476 62.084C353.914 61.776 354.46 61.622 355.114 61.622C355.464 61.622 355.772 61.6663 356.038 61.755C356.304 61.8437 356.535 61.9557 356.731 62.091C356.927 62.2263 357.085 62.3663 357.207 62.511C357.333 62.6557 357.426 62.7887 357.487 62.91V58.598H358.796V69H357.802L357.662 67.516C357.615 67.656 357.54 67.8193 357.438 68.006C357.335 68.188 357.19 68.3677 357.004 68.545C356.822 68.7177 356.584 68.86 356.29 68.972C355.996 69.084 355.639 69.14 355.219 69.14ZM355.45 68.146C356.178 68.146 356.698 67.9243 357.011 67.481C357.328 67.033 357.487 66.3027 357.487 65.29C357.482 64.7253 357.412 64.2447 357.277 63.848C357.141 63.4513 356.927 63.1503 356.633 62.945C356.343 62.735 355.956 62.63 355.471 62.63C354.878 62.63 354.395 62.8423 354.022 63.267C353.648 63.6917 353.462 64.366 353.462 65.29C353.462 66.1953 353.63 66.8977 353.966 67.397C354.302 67.8963 354.796 68.146 355.45 68.146ZM363.992 69.14C363.32 69.14 362.728 68.993 362.214 68.699C361.701 68.405 361.3 67.9827 361.01 67.432C360.721 66.8813 360.576 66.221 360.576 65.451C360.576 64.6903 360.707 64.023 360.968 63.449C361.23 62.875 361.608 62.427 362.102 62.105C362.602 61.783 363.201 61.622 363.901 61.622C364.583 61.622 365.159 61.769 365.63 62.063C366.102 62.357 366.459 62.7723 366.701 63.309C366.949 63.841 367.072 64.4733 367.072 65.206V65.682H361.885C361.885 66.1393 361.96 66.5547 362.109 66.928C362.263 67.2967 362.494 67.5907 362.802 67.81C363.11 68.0293 363.5 68.139 363.971 68.139C364.433 68.139 364.83 68.0317 365.161 67.817C365.497 67.6023 365.712 67.292 365.805 66.886H367.023C366.939 67.376 366.743 67.789 366.435 68.125C366.132 68.461 365.766 68.7153 365.336 68.888C364.912 69.056 364.464 69.14 363.992 69.14ZM361.892 64.807H365.826C365.826 64.3917 365.756 64.0183 365.616 63.687C365.476 63.351 365.262 63.0873 364.972 62.896C364.688 62.7 364.328 62.602 363.894 62.602C363.442 62.602 363.066 62.7117 362.767 62.931C362.469 63.1457 362.247 63.4233 362.102 63.764C361.958 64.1 361.888 64.4477 361.892 64.807Z" fill="white"/>
<path d="M558 64C558 28.6538 586.654 0 622 0V0C657.346 0 686 28.6538 686 64V64C686 99.3462 657.346 128 622 128V128C586.654 128 558 99.3462 558 64V64Z" fill="#C990C0"/>
<path d="M597.545 69V58.878H603.929L603.922 60.019H598.847V63.323H603.418V64.457H598.84V67.831L604.062 67.845V69H597.545ZM605.783 71.254V61.762H607.071L607.085 63.022C607.169 62.8727 607.276 62.7163 607.407 62.553C607.542 62.3897 607.706 62.238 607.897 62.098C608.093 61.958 608.319 61.8437 608.576 61.755C608.837 61.6663 609.134 61.622 609.465 61.622C610.044 61.622 610.552 61.755 610.991 62.021C611.434 62.2823 611.78 62.6837 612.027 63.225C612.274 63.7663 612.398 64.4523 612.398 65.283C612.398 66.1137 612.277 66.816 612.034 67.39C611.796 67.9593 611.451 68.3933 610.998 68.692C610.545 68.9907 609.999 69.14 609.36 69.14C609.038 69.14 608.751 69.0933 608.499 69C608.252 68.9113 608.035 68.7947 607.848 68.65C607.666 68.5007 607.512 68.342 607.386 68.174C607.265 68.006 607.164 67.845 607.085 67.691V71.254H605.783ZM609.115 68.132C609.712 68.132 610.2 67.9057 610.578 67.453C610.956 66.9957 611.145 66.2863 611.145 65.325C611.145 64.499 610.972 63.8433 610.627 63.358C610.282 62.8727 609.778 62.63 609.115 62.63C608.443 62.63 607.934 62.8797 607.589 63.379C607.244 63.8737 607.071 64.5223 607.071 65.325C607.071 65.843 607.148 66.3143 607.302 66.739C607.456 67.1637 607.685 67.502 607.988 67.754C608.291 68.006 608.667 68.132 609.115 68.132ZM614.158 69V61.762H615.411V69H614.158ZM614.123 60.229V58.885H615.446V60.229H614.123ZM620.186 69.14C619.682 69.14 619.213 69.063 618.779 68.909C618.349 68.7503 617.992 68.5053 617.708 68.174C617.423 67.838 617.246 67.411 617.176 66.893H618.352C618.412 67.1777 618.529 67.4157 618.702 67.607C618.874 67.7937 619.087 67.936 619.339 68.034C619.595 68.1273 619.875 68.174 620.179 68.174C620.669 68.174 621.063 68.083 621.362 67.901C621.66 67.719 621.81 67.439 621.81 67.061C621.81 66.795 621.73 66.5827 621.572 66.424C621.418 66.2607 621.175 66.1417 620.844 66.067L619.346 65.696C618.762 65.556 618.296 65.3367 617.946 65.038C617.6 64.7393 617.425 64.3217 617.421 63.785C617.421 63.3603 617.523 62.987 617.729 62.665C617.934 62.343 618.24 62.0887 618.646 61.902C619.056 61.7153 619.567 61.622 620.179 61.622C620.967 61.622 621.602 61.7993 622.083 62.154C622.563 62.504 622.815 63.0197 622.839 63.701H621.691C621.644 63.3557 621.49 63.0827 621.229 62.882C620.967 62.6767 620.613 62.574 620.165 62.574C619.707 62.574 619.332 62.6673 619.038 62.854C618.748 63.036 618.604 63.3207 618.604 63.708C618.604 63.9647 618.706 64.1677 618.912 64.317C619.122 64.4617 619.425 64.583 619.822 64.681L621.278 65.045C621.609 65.1337 621.884 65.2503 622.104 65.395C622.323 65.5397 622.496 65.7007 622.622 65.878C622.748 66.0553 622.836 66.242 622.888 66.438C622.944 66.6293 622.972 66.8137 622.972 66.991C622.972 67.4343 622.862 67.817 622.643 68.139C622.423 68.4563 622.106 68.7037 621.691 68.881C621.275 69.0537 620.774 69.14 620.186 69.14ZM627.562 69.14C626.894 69.14 626.311 68.9977 625.812 68.713C625.317 68.4237 624.932 68.0013 624.657 67.446C624.381 66.8907 624.244 66.2117 624.244 65.409C624.244 64.653 624.372 63.9903 624.629 63.421C624.885 62.8517 625.261 62.4107 625.756 62.098C626.25 61.7807 626.855 61.622 627.569 61.622C628.236 61.622 628.815 61.769 629.305 62.063C629.795 62.3523 630.175 62.7793 630.446 63.344C630.721 63.9087 630.859 64.597 630.859 65.409C630.859 66.1463 630.733 66.795 630.481 67.355C630.229 67.915 629.858 68.3537 629.368 68.671C628.882 68.9837 628.28 69.14 627.562 69.14ZM627.569 68.118C627.998 68.118 628.362 68.0083 628.661 67.789C628.959 67.5697 629.186 67.2547 629.34 66.844C629.498 66.4333 629.578 65.9457 629.578 65.381C629.578 64.863 629.508 64.3987 629.368 63.988C629.232 63.5727 629.018 63.2437 628.724 63.001C628.43 62.7583 628.045 62.637 627.569 62.637C627.13 62.637 626.759 62.7467 626.456 62.966C626.152 63.1807 625.921 63.4933 625.763 63.904C625.609 64.3147 625.532 64.807 625.532 65.381C625.532 65.8897 625.599 66.3517 625.735 66.767C625.875 67.1823 626.094 67.5113 626.393 67.754C626.696 67.9967 627.088 68.118 627.569 68.118ZM635.219 69.14C634.276 69.14 633.529 68.818 632.979 68.174C632.433 67.53 632.16 66.5897 632.16 65.353C632.16 64.6017 632.269 63.946 632.489 63.386C632.708 62.826 633.037 62.392 633.476 62.084C633.914 61.776 634.46 61.622 635.114 61.622C635.464 61.622 635.772 61.6663 636.038 61.755C636.304 61.8437 636.535 61.9557 636.731 62.091C636.927 62.2263 637.085 62.3663 637.207 62.511C637.333 62.6557 637.426 62.7887 637.487 62.91V58.598H638.796V69H637.802L637.662 67.516C637.615 67.656 637.54 67.8193 637.438 68.006C637.335 68.188 637.19 68.3677 637.004 68.545C636.822 68.7177 636.584 68.86 636.29 68.972C635.996 69.084 635.639 69.14 635.219 69.14ZM635.45 68.146C636.178 68.146 636.698 67.9243 637.011 67.481C637.328 67.033 637.487 66.3027 637.487 65.29C637.482 64.7253 637.412 64.2447 637.277 63.848C637.141 63.4513 636.927 63.1503 636.633 62.945C636.343 62.735 635.956 62.63 635.471 62.63C634.878 62.63 634.395 62.8423 634.022 63.267C633.648 63.6917 633.462 64.366 633.462 65.29C633.462 66.1953 633.63 66.8977 633.966 67.397C634.302 67.8963 634.796 68.146 635.45 68.146ZM643.992 69.14C643.32 69.14 642.728 68.993 642.214 68.699C641.701 68.405 641.3 67.9827 641.01 67.432C640.721 66.8813 640.576 66.221 640.576 65.451C640.576 64.6903 640.707 64.023 640.968 63.449C641.23 62.875 641.608 62.427 642.102 62.105C642.602 61.783 643.201 61.622 643.901 61.622C644.583 61.622 645.159 61.769 645.63 62.063C646.102 62.357 646.459 62.7723 646.701 63.309C646.949 63.841 647.072 64.4733 647.072 65.206V65.682H641.885C641.885 66.1393 641.96 66.5547 642.109 66.928C642.263 67.2967 642.494 67.5907 642.802 67.81C643.11 68.0293 643.5 68.139 643.971 68.139C644.433 68.139 644.83 68.0317 645.161 67.817C645.497 67.6023 645.712 67.292 645.805 66.886H647.023C646.939 67.376 646.743 67.789 646.435 68.125C646.132 68.461 645.766 68.7153 645.336 68.888C644.912 69.056 644.464 69.14 643.992 69.14ZM641.892 64.807H645.826C645.826 64.3917 645.756 64.0183 645.616 63.687C645.476 63.351 645.262 63.0873 644.972 62.896C644.688 62.7 644.328 62.602 643.894 62.602C643.442 62.602 643.066 62.7117 642.767 62.931C642.469 63.1457 642.247 63.4233 642.102 63.764C641.958 64.1 641.888 64.4477 641.892 64.807Z" fill="white"/>
<path d="M555.207 64.7071C555.598 64.3166 555.598 63.6834 555.207 63.2929L548.843 56.9289C548.453 56.5384 547.819 56.5384 547.429 56.9289C547.038 57.3195 547.038 57.9526 547.429 58.3431L553.086 64L547.429 69.6569C547.038 70.0474 547.038 70.6805 547.429 71.0711C547.819 71.4616 548.453 71.4616 548.843 71.0711L555.207 64.7071ZM505.13 63C504.578 63 504.13 63.4477 504.13 64C504.13 64.5523 504.578 65 505.13 65V63ZM455.005 65C455.558 65 456.005 64.5523 456.005 64C456.005 63.4477 455.558 63 455.005 63V65ZM409.5 63C408.948 63 408.5 63.4477 408.5 64C408.5 64.5523 408.948 65 409.5 65V63ZM554.5 63H505.13V65H554.5V63ZM455.005 63H409.5V65H455.005V63Z" fill="#1A1B1D"/>
<path d="M470.967 59.3182V69.5H469.555L464.379 62.0327H464.285V69.5H462.749V59.3182H464.17L469.351 66.7955H469.445V59.3182H470.967ZM473.054 69.5V59.3182H479.437V60.6406H474.59V63.7429H479.104V65.0604H474.59V68.1776H479.497V69.5H473.054ZM482.404 59.3182L484.84 63.3004H484.92L487.356 59.3182H489.135L485.964 64.4091L489.155 69.5H487.366L484.92 65.5724H484.84L482.394 69.5H480.604L483.851 64.4091L480.624 59.3182H482.404ZM490.003 60.6406V59.3182H497.883V60.6406H494.706V69.5H493.175V60.6406H490.003Z" fill="black" fill-opacity="0.8"/>
<path d="M22.871 149.056C22.297 149.056 21.8513 148.981 21.534 148.832C21.2213 148.678 21.0043 148.461 20.883 148.181C20.7617 147.901 20.701 147.567 20.701 147.18V142.966H19.525V141.762H20.75L21.177 139.613H22.402V141.755H24.019V142.966H22.402L22.409 147.117C22.409 147.332 22.4323 147.49 22.479 147.593C22.5303 147.691 22.6097 147.756 22.717 147.789C22.829 147.817 22.976 147.831 23.158 147.831H24.054V148.909C23.956 148.946 23.8113 148.979 23.62 149.007C23.4333 149.04 23.1837 149.056 22.871 149.056ZM25.6542 149V141.762H27.2852V149H25.6542ZM25.6262 140.495V138.885H27.3132V140.495H25.6262ZM32.1405 149.056C31.5665 149.056 31.1209 148.981 30.8035 148.832C30.4909 148.678 30.2739 148.461 30.1525 148.181C30.0312 147.901 29.9705 147.567 29.9705 147.18V142.966H28.7945V141.762H30.0195L30.4465 139.613H31.6715V141.755H33.2885V142.966H31.6715L31.6785 147.117C31.6785 147.332 31.7019 147.49 31.7485 147.593C31.7999 147.691 31.8792 147.756 31.9865 147.789C32.0985 147.817 32.2455 147.831 32.4275 147.831H33.3235V148.909C33.2255 148.946 33.0809 148.979 32.8895 149.007C32.7029 149.04 32.4532 149.056 32.1405 149.056ZM36.9817 149.105C36.515 149.105 36.1417 149.047 35.8617 148.93C35.5817 148.813 35.3717 148.657 35.2317 148.461C35.0917 148.265 35.0007 148.046 34.9587 147.803C34.9167 147.556 34.8957 147.304 34.8957 147.047V138.598H36.5617V146.851C36.5617 147.164 36.6247 147.406 36.7507 147.579C36.8814 147.752 37.0914 147.852 37.3807 147.88L37.7447 147.894V148.965C37.6187 149.002 37.4904 149.035 37.3597 149.063C37.229 149.091 37.103 149.105 36.9817 149.105ZM42.1552 149.14C41.4599 149.14 40.8462 148.993 40.3142 148.699C39.7869 148.4 39.3739 147.976 39.0752 147.425C38.7812 146.874 38.6342 146.219 38.6342 145.458C38.6342 144.716 38.7672 144.058 39.0332 143.484C39.3039 142.905 39.6936 142.45 40.2022 142.119C40.7156 141.788 41.3339 141.622 42.0572 141.622C42.7712 141.622 43.3709 141.774 43.8562 142.077C44.3416 142.38 44.7102 142.805 44.9622 143.351C45.2142 143.892 45.3402 144.527 45.3402 145.255V145.773H40.3352C40.3306 146.184 40.3959 146.548 40.5312 146.865C40.6666 147.182 40.8672 147.432 41.1332 147.614C41.3992 147.791 41.7282 147.88 42.1202 147.88C42.5216 147.88 42.8692 147.791 43.1632 147.614C43.4619 147.432 43.6602 147.157 43.7582 146.788H45.3122C45.2282 147.292 45.0276 147.719 44.7102 148.069C44.3976 148.419 44.0149 148.685 43.5622 148.867C43.1142 149.049 42.6452 149.14 42.1552 149.14ZM40.3282 144.716H43.7302C43.7302 144.366 43.6672 144.051 43.5412 143.771C43.4199 143.486 43.2356 143.262 42.9882 143.099C42.7409 142.931 42.4282 142.847 42.0502 142.847C41.6769 142.847 41.3619 142.938 41.1052 143.12C40.8486 143.302 40.6549 143.538 40.5242 143.827C40.3936 144.112 40.3282 144.408 40.3282 144.716ZM46.73 143.932V141.986H48.655V143.932H46.73ZM46.73 148.958V147.026H48.655V148.958H46.73ZM54.0175 142.497L53.5485 138.878H55.4035L54.9135 142.497H54.0175ZM57.4809 149V138.878H61.5899C62.3645 138.878 63.0015 138.999 63.5009 139.242C64.0049 139.48 64.3782 139.818 64.6209 140.257C64.8635 140.691 64.9849 141.2 64.9849 141.783C64.9849 142.324 64.8962 142.779 64.7189 143.148C64.5415 143.512 64.3105 143.811 64.0259 144.044C63.7459 144.273 63.4449 144.459 63.1229 144.604L65.0549 149H63.2769L61.5339 144.891H59.1819V149H57.4809ZM59.1819 143.54H61.2049C61.8489 143.54 62.3505 143.391 62.7099 143.092C63.0739 142.793 63.2559 142.378 63.2559 141.846C63.2559 141.323 63.0879 140.92 62.7519 140.635C62.4159 140.35 61.9725 140.208 61.4219 140.208H59.1819V143.54ZM69.6251 149.14C68.9344 149.14 68.3324 148.993 67.8191 148.699C67.3058 148.4 66.9068 147.973 66.6221 147.418C66.3421 146.863 66.2021 146.195 66.2021 145.416C66.2021 144.66 66.3398 143.997 66.6151 143.428C66.8904 142.859 67.2824 142.415 67.7911 142.098C68.3044 141.781 68.9181 141.622 69.6321 141.622C70.3228 141.622 70.9224 141.774 71.4311 142.077C71.9398 142.38 72.3318 142.814 72.6071 143.379C72.8871 143.944 73.0271 144.623 73.0271 145.416C73.0271 146.149 72.8941 146.795 72.6281 147.355C72.3668 147.91 71.9818 148.347 71.4731 148.664C70.9691 148.981 70.3531 149.14 69.6251 149.14ZM69.6321 147.845C70.0241 147.845 70.3461 147.738 70.5981 147.523C70.8548 147.308 71.0461 147.014 71.1721 146.641C71.2981 146.268 71.3611 145.843 71.3611 145.367C71.3611 144.924 71.3051 144.515 71.1931 144.142C71.0811 143.769 70.8968 143.47 70.6401 143.246C70.3881 143.017 70.0521 142.903 69.6321 142.903C69.2354 142.903 68.9064 143.008 68.6451 143.218C68.3884 143.423 68.1971 143.713 68.0711 144.086C67.9451 144.455 67.8821 144.882 67.8821 145.367C67.8821 145.806 67.9381 146.214 68.0501 146.592C68.1621 146.965 68.3464 147.269 68.6031 147.502C68.8598 147.731 69.2028 147.845 69.6321 147.845ZM78.4071 149.14C78.0198 149.14 77.6885 149.089 77.4131 148.986C77.1378 148.883 76.9068 148.75 76.7201 148.587C76.5381 148.424 76.3911 148.249 76.2791 148.062C76.1718 147.871 76.0901 147.689 76.0341 147.516L75.8381 149H74.5851V138.598H76.2931V142.819C76.3678 142.679 76.4705 142.539 76.6011 142.399C76.7365 142.259 76.8998 142.131 77.0911 142.014C77.2825 141.897 77.4995 141.804 77.7421 141.734C77.9895 141.659 78.2625 141.622 78.5611 141.622C79.4618 141.622 80.1735 141.942 80.6961 142.581C81.2188 143.22 81.4801 144.142 81.4801 145.346C81.4801 146.107 81.3635 146.772 81.1301 147.341C80.9015 147.91 80.5585 148.354 80.1011 148.671C79.6485 148.984 79.0838 149.14 78.4071 149.14ZM78.0571 147.887C78.5658 147.887 78.9835 147.684 79.3101 147.278C79.6368 146.872 79.8001 146.214 79.8001 145.304C79.8001 144.511 79.6461 143.911 79.3381 143.505C79.0301 143.094 78.5961 142.889 78.0361 142.889C77.6348 142.889 77.3058 142.98 77.0491 143.162C76.7971 143.344 76.6081 143.615 76.4821 143.974C76.3608 144.333 76.2978 144.777 76.2931 145.304C76.2931 146.228 76.4331 146.891 76.7131 147.292C76.9978 147.689 77.4458 147.887 78.0571 147.887ZM86.0587 149.14C85.368 149.14 84.766 148.993 84.2527 148.699C83.7394 148.4 83.3404 147.973 83.0557 147.418C82.7757 146.863 82.6357 146.195 82.6357 145.416C82.6357 144.66 82.7734 143.997 83.0487 143.428C83.324 142.859 83.716 142.415 84.2247 142.098C84.738 141.781 85.3517 141.622 86.0657 141.622C86.7564 141.622 87.356 141.774 87.8647 142.077C88.3734 142.38 88.7654 142.814 89.0407 143.379C89.3207 143.944 89.4607 144.623 89.4607 145.416C89.4607 146.149 89.3277 146.795 89.0617 147.355C88.8004 147.91 88.4154 148.347 87.9067 148.664C87.4027 148.981 86.7867 149.14 86.0587 149.14ZM86.0657 147.845C86.4577 147.845 86.7797 147.738 87.0317 147.523C87.2884 147.308 87.4797 147.014 87.6057 146.641C87.7317 146.268 87.7947 145.843 87.7947 145.367C87.7947 144.924 87.7387 144.515 87.6267 144.142C87.5147 143.769 87.3304 143.47 87.0737 143.246C86.8217 143.017 86.4857 142.903 86.0657 142.903C85.669 142.903 85.34 143.008 85.0787 143.218C84.822 143.423 84.6307 143.713 84.5047 144.086C84.3787 144.455 84.3157 144.882 84.3157 145.367C84.3157 145.806 84.3717 146.214 84.4837 146.592C84.5957 146.965 84.78 147.269 85.0367 147.502C85.2934 147.731 85.6364 147.845 86.0657 147.845ZM93.6503 149.056C93.0763 149.056 92.6306 148.981 92.3133 148.832C92.0006 148.678 91.7836 148.461 91.6623 148.181C91.541 147.901 91.4803 147.567 91.4803 147.18V142.966H90.3043V141.762H91.5293L91.9563 139.613H93.1813V141.755H94.7983V142.966H93.1813L93.1883 147.117C93.1883 147.332 93.2116 147.49 93.2583 147.593C93.3096 147.691 93.389 147.756 93.4963 147.789C93.6083 147.817 93.7553 147.831 93.9373 147.831H94.8333V148.909C94.7353 148.946 94.5906 148.979 94.3993 149.007C94.2126 149.04 93.963 149.056 93.6503 149.056ZM96.1395 142.525L96.9305 140.698L96.2725 140.649V138.878H98.1345V140.432L96.8255 142.525H96.1395Z" fill="black"/>
<path d="M269.871 149.056C269.297 149.056 268.851 148.981 268.534 148.832C268.221 148.678 268.004 148.461 267.883 148.181C267.762 147.901 267.701 147.567 267.701 147.18V142.966H266.525V141.762H267.75L268.177 139.613H269.402V141.755H271.019V142.966H269.402L269.409 147.117C269.409 147.332 269.432 147.49 269.479 147.593C269.53 147.691 269.61 147.756 269.717 147.789C269.829 147.817 269.976 147.831 270.158 147.831H271.054V148.909C270.956 148.946 270.811 148.979 270.62 149.007C270.433 149.04 270.184 149.056 269.871 149.056ZM272.654 149V141.762H274.285V149H272.654ZM272.626 140.495V138.885H274.313V140.495H272.626ZM279.141 149.056C278.567 149.056 278.121 148.981 277.804 148.832C277.491 148.678 277.274 148.461 277.153 148.181C277.031 147.901 276.971 147.567 276.971 147.18V142.966H275.795V141.762H277.02L277.447 139.613H278.672V141.755H280.289V142.966H278.672L278.679 147.117C278.679 147.332 278.702 147.49 278.749 147.593C278.8 147.691 278.879 147.756 278.987 147.789C279.099 147.817 279.246 147.831 279.428 147.831H280.324V148.909C280.226 148.946 280.081 148.979 279.89 149.007C279.703 149.04 279.453 149.056 279.141 149.056ZM283.982 149.105C283.515 149.105 283.142 149.047 282.862 148.93C282.582 148.813 282.372 148.657 282.232 148.461C282.092 148.265 282.001 148.046 281.959 147.803C281.917 147.556 281.896 147.304 281.896 147.047V138.598H283.562V146.851C283.562 147.164 283.625 147.406 283.751 147.579C283.881 147.752 284.091 147.852 284.381 147.88L284.745 147.894V148.965C284.619 149.002 284.49 149.035 284.36 149.063C284.229 149.091 284.103 149.105 283.982 149.105ZM289.155 149.14C288.46 149.14 287.846 148.993 287.314 148.699C286.787 148.4 286.374 147.976 286.075 147.425C285.781 146.874 285.634 146.219 285.634 145.458C285.634 144.716 285.767 144.058 286.033 143.484C286.304 142.905 286.694 142.45 287.202 142.119C287.716 141.788 288.334 141.622 289.057 141.622C289.771 141.622 290.371 141.774 290.856 142.077C291.342 142.38 291.71 142.805 291.962 143.351C292.214 143.892 292.34 144.527 292.34 145.255V145.773H287.335C287.331 146.184 287.396 146.548 287.531 146.865C287.667 147.182 287.867 147.432 288.133 147.614C288.399 147.791 288.728 147.88 289.12 147.88C289.522 147.88 289.869 147.791 290.163 147.614C290.462 147.432 290.66 147.157 290.758 146.788H292.312C292.228 147.292 292.028 147.719 291.71 148.069C291.398 148.419 291.015 148.685 290.562 148.867C290.114 149.049 289.645 149.14 289.155 149.14ZM287.328 144.716H290.73C290.73 144.366 290.667 144.051 290.541 143.771C290.42 143.486 290.236 143.262 289.988 143.099C289.741 142.931 289.428 142.847 289.05 142.847C288.677 142.847 288.362 142.938 288.105 143.12C287.849 143.302 287.655 143.538 287.524 143.827C287.394 144.112 287.328 144.408 287.328 144.716ZM293.73 143.932V141.986H295.655V143.932H293.73ZM293.73 148.958V147.026H295.655V148.958H293.73ZM300.388 142.525L301.179 140.698L300.521 140.649V138.878H302.383V140.432L301.074 142.525H300.388ZM306.604 149V140.411H303.454V138.878H311.35V140.411H308.312V149H306.604ZM312.616 149V138.598H314.296V142.812C314.413 142.63 314.567 142.455 314.758 142.287C314.95 142.114 315.183 141.974 315.458 141.867C315.738 141.755 316.072 141.699 316.459 141.699C316.921 141.699 317.344 141.788 317.726 141.965C318.109 142.142 318.415 142.399 318.643 142.735C318.872 143.066 318.986 143.463 318.986 143.925V149H317.278V144.212C317.278 143.839 317.145 143.549 316.879 143.344C316.618 143.139 316.287 143.036 315.885 143.036C315.619 143.036 315.365 143.083 315.122 143.176C314.88 143.269 314.684 143.409 314.534 143.596C314.39 143.778 314.317 144.007 314.317 144.282V149H312.616ZM324.005 149.14C323.31 149.14 322.696 148.993 322.164 148.699C321.637 148.4 321.224 147.976 320.925 147.425C320.631 146.874 320.484 146.219 320.484 145.458C320.484 144.716 320.617 144.058 320.883 143.484C321.154 142.905 321.543 142.45 322.052 142.119C322.565 141.788 323.184 141.622 323.907 141.622C324.621 141.622 325.221 141.774 325.706 142.077C326.191 142.38 326.56 142.805 326.812 143.351C327.064 143.892 327.19 144.527 327.19 145.255V145.773H322.185C322.18 146.184 322.246 146.548 322.381 146.865C322.516 147.182 322.717 147.432 322.983 147.614C323.249 147.791 323.578 147.88 323.97 147.88C324.371 147.88 324.719 147.791 325.013 147.614C325.312 147.432 325.51 147.157 325.608 146.788H327.162C327.078 147.292 326.877 147.719 326.56 148.069C326.247 148.419 325.865 148.685 325.412 148.867C324.964 149.049 324.495 149.14 324.005 149.14ZM322.178 144.716H325.58C325.58 144.366 325.517 144.051 325.391 143.771C325.27 143.486 325.085 143.262 324.838 143.099C324.591 142.931 324.278 142.847 323.9 142.847C323.527 142.847 323.212 142.938 322.955 143.12C322.698 143.302 322.505 143.538 322.374 143.827C322.243 144.112 322.178 144.408 322.178 144.716ZM331.527 149L335.16 138.878H337.008L340.641 149H338.933L338.03 146.459H334.152L333.242 149H331.527ZM334.558 144.947H337.603L336.084 140.53L334.558 144.947ZM342.079 149V141.762H343.71V143.33C343.827 142.971 343.993 142.665 344.207 142.413C344.427 142.156 344.683 141.96 344.977 141.825C345.271 141.69 345.591 141.622 345.936 141.622C346.02 141.622 346.102 141.627 346.181 141.636C346.261 141.645 346.319 141.662 346.356 141.685V143.316C346.305 143.293 346.237 143.276 346.153 143.267C346.074 143.258 346.004 143.253 345.943 143.253C345.593 143.225 345.283 143.239 345.012 143.295C344.746 143.351 344.52 143.447 344.333 143.582C344.151 143.713 344.014 143.881 343.92 144.086C343.827 144.287 343.78 144.522 343.78 144.793V149H342.079ZM347.712 149V138.598H349.406V145.045L352.409 141.762H354.278L351.66 144.59L354.411 149H352.682L350.582 145.647L349.406 146.879V149H347.712ZM359.006 149V141.762H360.637V149H359.006ZM358.978 140.495V138.885H360.665V140.495H358.978ZM362.655 149V141.762H364.321V142.798C364.433 142.611 364.585 142.432 364.776 142.259C364.972 142.086 365.213 141.946 365.497 141.839C365.782 141.732 366.116 141.678 366.498 141.678C366.946 141.678 367.362 141.767 367.744 141.944C368.132 142.121 368.442 142.399 368.675 142.777C368.913 143.155 369.032 143.643 369.032 144.24V149H367.324V144.443C367.324 143.967 367.194 143.615 366.932 143.386C366.671 143.153 366.342 143.036 365.945 143.036C365.675 143.036 365.418 143.083 365.175 143.176C364.933 143.265 364.734 143.402 364.58 143.589C364.431 143.771 364.356 144 364.356 144.275V149H362.655ZM378.018 149.14C377.514 149.14 377.031 149.079 376.569 148.958C376.107 148.832 375.685 148.648 375.302 148.405C374.924 148.158 374.611 147.852 374.364 147.488C374.117 147.119 373.965 146.69 373.909 146.2H375.673C375.748 146.541 375.895 146.828 376.114 147.061C376.338 147.294 376.62 147.472 376.961 147.593C377.302 147.714 377.682 147.775 378.102 147.775C378.475 147.775 378.823 147.719 379.145 147.607C379.467 147.495 379.728 147.329 379.929 147.11C380.13 146.886 380.23 146.611 380.23 146.284C380.23 145.915 380.099 145.628 379.838 145.423C379.581 145.213 379.213 145.047 378.732 144.926L376.751 144.457C376.238 144.34 375.79 144.17 375.407 143.946C375.029 143.722 374.735 143.428 374.525 143.064C374.315 142.695 374.21 142.245 374.21 141.713C374.21 141.106 374.376 140.581 374.707 140.138C375.043 139.695 375.498 139.354 376.072 139.116C376.646 138.873 377.292 138.752 378.011 138.752C378.832 138.752 379.525 138.89 380.09 139.165C380.655 139.436 381.084 139.8 381.378 140.257C381.672 140.714 381.821 141.216 381.826 141.762H380.104C380.067 141.356 379.948 141.036 379.747 140.803C379.546 140.565 379.292 140.392 378.984 140.285C378.676 140.178 378.335 140.124 377.962 140.124C377.299 140.124 376.807 140.266 376.485 140.551C376.163 140.836 376.002 141.169 376.002 141.552C376.002 141.911 376.121 142.196 376.359 142.406C376.597 142.616 376.961 142.779 377.451 142.896L379.334 143.337C379.964 143.468 380.47 143.668 380.853 143.939C381.236 144.21 381.513 144.532 381.686 144.905C381.863 145.274 381.952 145.682 381.952 146.13C381.952 146.718 381.784 147.238 381.448 147.691C381.117 148.144 380.657 148.498 380.069 148.755C379.481 149.012 378.797 149.14 378.018 149.14ZM383.669 151.254V141.762H385.37L385.384 142.903C385.477 142.744 385.596 142.588 385.741 142.434C385.89 142.28 386.061 142.142 386.252 142.021C386.448 141.9 386.665 141.804 386.903 141.734C387.141 141.659 387.402 141.622 387.687 141.622C388.242 141.622 388.735 141.755 389.164 142.021C389.593 142.282 389.929 142.686 390.172 143.232C390.419 143.778 390.543 144.469 390.543 145.304C390.543 146.158 390.417 146.87 390.165 147.439C389.913 148.008 389.561 148.435 389.108 148.72C388.655 149 388.13 149.14 387.533 149.14C387.258 149.14 387.006 149.103 386.777 149.028C386.553 148.953 386.352 148.851 386.175 148.72C385.998 148.589 385.841 148.447 385.706 148.293C385.575 148.139 385.466 147.978 385.377 147.81V151.254H383.669ZM387.155 147.866C387.668 147.866 388.093 147.663 388.429 147.257C388.765 146.846 388.933 146.205 388.933 145.332C388.933 144.576 388.774 143.981 388.457 143.547C388.144 143.108 387.71 142.889 387.155 142.889C386.558 142.889 386.11 143.12 385.811 143.582C385.512 144.039 385.363 144.623 385.363 145.332C385.363 145.789 385.428 146.212 385.559 146.599C385.694 146.982 385.893 147.29 386.154 147.523C386.42 147.752 386.754 147.866 387.155 147.866ZM394.116 149.14C393.654 149.14 393.238 149.056 392.87 148.888C392.506 148.715 392.219 148.47 392.009 148.153C391.803 147.831 391.701 147.441 391.701 146.984C391.701 146.186 391.988 145.584 392.562 145.178C393.14 144.772 394.06 144.56 395.32 144.541L396.405 144.513V144.023C396.405 143.64 396.29 143.342 396.062 143.127C395.838 142.908 395.488 142.8 395.012 142.805C394.657 142.81 394.335 142.894 394.046 143.057C393.756 143.216 393.565 143.484 393.472 143.862H392.023C392.051 143.367 392.193 142.954 392.45 142.623C392.711 142.287 393.068 142.037 393.521 141.874C393.973 141.706 394.496 141.622 395.089 141.622C395.779 141.622 396.342 141.713 396.776 141.895C397.21 142.077 397.529 142.341 397.735 142.686C397.94 143.027 398.043 143.44 398.043 143.925V149H396.608L396.468 147.698C396.211 148.244 395.882 148.622 395.481 148.832C395.084 149.037 394.629 149.14 394.116 149.14ZM394.669 147.985C394.879 147.985 395.086 147.948 395.292 147.873C395.497 147.794 395.681 147.689 395.845 147.558C396.013 147.423 396.146 147.273 396.244 147.11C396.346 146.947 396.4 146.776 396.405 146.599V145.458L395.516 145.472C395.077 145.477 394.692 145.523 394.361 145.612C394.034 145.701 393.78 145.843 393.598 146.039C393.416 146.23 393.325 146.487 393.325 146.809C393.325 147.178 393.453 147.467 393.71 147.677C393.966 147.882 394.286 147.985 394.669 147.985ZM402.895 149.14C402.232 149.14 401.642 148.995 401.124 148.706C400.61 148.412 400.207 147.987 399.913 147.432C399.619 146.872 399.472 146.198 399.472 145.409C399.472 144.658 399.609 144 399.885 143.435C400.165 142.866 400.559 142.422 401.068 142.105C401.581 141.783 402.19 141.622 402.895 141.622C403.459 141.622 403.956 141.734 404.386 141.958C404.815 142.182 405.158 142.492 405.415 142.889C405.676 143.286 405.832 143.736 405.884 144.24H404.435C404.397 144.021 404.316 143.813 404.19 143.617C404.064 143.416 403.893 143.255 403.679 143.134C403.469 143.008 403.212 142.945 402.909 142.945C402.363 142.945 401.922 143.146 401.586 143.547C401.25 143.948 401.082 144.564 401.082 145.395C401.082 146.16 401.24 146.769 401.558 147.222C401.88 147.675 402.339 147.901 402.937 147.901C403.235 147.901 403.492 147.836 403.707 147.705C403.921 147.57 404.089 147.404 404.211 147.208C404.337 147.007 404.416 146.807 404.449 146.606H405.863C405.821 147.096 405.669 147.532 405.408 147.915C405.146 148.298 404.801 148.599 404.372 148.818C403.942 149.033 403.45 149.14 402.895 149.14ZM410.671 149.14C409.976 149.14 409.362 148.993 408.83 148.699C408.303 148.4 407.89 147.976 407.591 147.425C407.297 146.874 407.15 146.219 407.15 145.458C407.15 144.716 407.283 144.058 407.549 143.484C407.82 142.905 408.209 142.45 408.718 142.119C409.231 141.788 409.85 141.622 410.573 141.622C411.287 141.622 411.887 141.774 412.372 142.077C412.857 142.38 413.226 142.805 413.478 143.351C413.73 143.892 413.856 144.527 413.856 145.255V145.773H408.851C408.846 146.184 408.912 146.548 409.047 146.865C409.182 147.182 409.383 147.432 409.649 147.614C409.915 147.791 410.244 147.88 410.636 147.88C411.037 147.88 411.385 147.791 411.679 147.614C411.978 147.432 412.176 147.157 412.274 146.788H413.828C413.744 147.292 413.543 147.719 413.226 148.069C412.913 148.419 412.531 148.685 412.078 148.867C411.63 149.049 411.161 149.14 410.671 149.14ZM408.844 144.716H412.246C412.246 144.366 412.183 144.051 412.057 143.771C411.936 143.486 411.751 143.262 411.504 143.099C411.257 142.931 410.944 142.847 410.566 142.847C410.193 142.847 409.878 142.938 409.621 143.12C409.364 143.302 409.171 143.538 409.04 143.827C408.909 144.112 408.844 144.408 408.844 144.716ZM414.671 142.525L415.462 140.698L414.804 140.649V138.878H416.666V140.432L415.357 142.525H414.671Z" fill="black"/>
<path d="M520.871 149.056C520.297 149.056 519.851 148.981 519.534 148.832C519.221 148.678 519.004 148.461 518.883 148.181C518.762 147.901 518.701 147.567 518.701 147.18V142.966H517.525V141.762H518.75L519.177 139.613H520.402V141.755H522.019V142.966H520.402L520.409 147.117C520.409 147.332 520.432 147.49 520.479 147.593C520.53 147.691 520.61 147.756 520.717 147.789C520.829 147.817 520.976 147.831 521.158 147.831H522.054V148.909C521.956 148.946 521.811 148.979 521.62 149.007C521.433 149.04 521.184 149.056 520.871 149.056ZM523.654 149V141.762H525.285V149H523.654ZM523.626 140.495V138.885H525.313V140.495H523.626ZM530.141 149.056C529.567 149.056 529.121 148.981 528.804 148.832C528.491 148.678 528.274 148.461 528.153 148.181C528.031 147.901 527.971 147.567 527.971 147.18V142.966H526.795V141.762H528.02L528.447 139.613H529.672V141.755H531.289V142.966H529.672L529.679 147.117C529.679 147.332 529.702 147.49 529.749 147.593C529.8 147.691 529.879 147.756 529.987 147.789C530.099 147.817 530.246 147.831 530.428 147.831H531.324V148.909C531.226 148.946 531.081 148.979 530.89 149.007C530.703 149.04 530.453 149.056 530.141 149.056ZM534.982 149.105C534.515 149.105 534.142 149.047 533.862 148.93C533.582 148.813 533.372 148.657 533.232 148.461C533.092 148.265 533.001 148.046 532.959 147.803C532.917 147.556 532.896 147.304 532.896 147.047V138.598H534.562V146.851C534.562 147.164 534.625 147.406 534.751 147.579C534.881 147.752 535.091 147.852 535.381 147.88L535.745 147.894V148.965C535.619 149.002 535.49 149.035 535.36 149.063C535.229 149.091 535.103 149.105 534.982 149.105ZM540.155 149.14C539.46 149.14 538.846 148.993 538.314 148.699C537.787 148.4 537.374 147.976 537.075 147.425C536.781 146.874 536.634 146.219 536.634 145.458C536.634 144.716 536.767 144.058 537.033 143.484C537.304 142.905 537.694 142.45 538.202 142.119C538.716 141.788 539.334 141.622 540.057 141.622C540.771 141.622 541.371 141.774 541.856 142.077C542.342 142.38 542.71 142.805 542.962 143.351C543.214 143.892 543.34 144.527 543.34 145.255V145.773H538.335C538.331 146.184 538.396 146.548 538.531 146.865C538.667 147.182 538.867 147.432 539.133 147.614C539.399 147.791 539.728 147.88 540.12 147.88C540.522 147.88 540.869 147.791 541.163 147.614C541.462 147.432 541.66 147.157 541.758 146.788H543.312C543.228 147.292 543.028 147.719 542.71 148.069C542.398 148.419 542.015 148.685 541.562 148.867C541.114 149.049 540.645 149.14 540.155 149.14ZM538.328 144.716H541.73C541.73 144.366 541.667 144.051 541.541 143.771C541.42 143.486 541.236 143.262 540.988 143.099C540.741 142.931 540.428 142.847 540.05 142.847C539.677 142.847 539.362 142.938 539.105 143.12C538.849 143.302 538.655 143.538 538.524 143.827C538.394 144.112 538.328 144.408 538.328 144.716ZM544.73 143.932V141.986H546.655V143.932H544.73ZM544.73 148.958V147.026H546.655V148.958H544.73ZM551.388 142.525L552.179 140.698L551.521 140.649V138.878H553.383V140.432L552.074 142.525H551.388ZM557.604 149V140.411H554.454V138.878H562.35V140.411H559.312V149H557.604ZM563.616 149V138.598H565.296V142.812C565.413 142.63 565.567 142.455 565.758 142.287C565.95 142.114 566.183 141.974 566.458 141.867C566.738 141.755 567.072 141.699 567.459 141.699C567.921 141.699 568.344 141.788 568.726 141.965C569.109 142.142 569.415 142.399 569.643 142.735C569.872 143.066 569.986 143.463 569.986 143.925V149H568.278V144.212C568.278 143.839 568.145 143.549 567.879 143.344C567.618 143.139 567.287 143.036 566.885 143.036C566.619 143.036 566.365 143.083 566.122 143.176C565.88 143.269 565.684 143.409 565.534 143.596C565.39 143.778 565.317 144.007 565.317 144.282V149H563.616ZM575.005 149.14C574.31 149.14 573.696 148.993 573.164 148.699C572.637 148.4 572.224 147.976 571.925 147.425C571.631 146.874 571.484 146.219 571.484 145.458C571.484 144.716 571.617 144.058 571.883 143.484C572.154 142.905 572.543 142.45 573.052 142.119C573.565 141.788 574.184 141.622 574.907 141.622C575.621 141.622 576.221 141.774 576.706 142.077C577.191 142.38 577.56 142.805 577.812 143.351C578.064 143.892 578.19 144.527 578.19 145.255V145.773H573.185C573.18 146.184 573.246 146.548 573.381 146.865C573.516 147.182 573.717 147.432 573.983 147.614C574.249 147.791 574.578 147.88 574.97 147.88C575.371 147.88 575.719 147.791 576.013 147.614C576.312 147.432 576.51 147.157 576.608 146.788H578.162C578.078 147.292 577.877 147.719 577.56 148.069C577.247 148.419 576.865 148.685 576.412 148.867C575.964 149.049 575.495 149.14 575.005 149.14ZM573.178 144.716H576.58C576.58 144.366 576.517 144.051 576.391 143.771C576.27 143.486 576.085 143.262 575.838 143.099C575.591 142.931 575.278 142.847 574.9 142.847C574.527 142.847 574.212 142.938 573.955 143.12C573.698 143.302 573.505 143.538 573.374 143.827C573.243 144.112 573.178 144.408 573.178 144.716ZM586.909 149.14C586.405 149.14 585.922 149.079 585.46 148.958C584.998 148.832 584.575 148.648 584.193 148.405C583.815 148.158 583.502 147.852 583.255 147.488C583.007 147.119 582.856 146.69 582.8 146.2H584.564C584.638 146.541 584.785 146.828 585.005 147.061C585.229 147.294 585.511 147.472 585.852 147.593C586.192 147.714 586.573 147.775 586.993 147.775C587.366 147.775 587.714 147.719 588.036 147.607C588.358 147.495 588.619 147.329 588.82 147.11C589.02 146.886 589.121 146.611 589.121 146.284C589.121 145.915 588.99 145.628 588.729 145.423C588.472 145.213 588.103 145.047 587.623 144.926L585.642 144.457C585.128 144.34 584.68 144.17 584.298 143.946C583.92 143.722 583.626 143.428 583.416 143.064C583.206 142.695 583.101 142.245 583.101 141.713C583.101 141.106 583.266 140.581 583.598 140.138C583.934 139.695 584.389 139.354 584.963 139.116C585.537 138.873 586.183 138.752 586.902 138.752C587.723 138.752 588.416 138.89 588.981 139.165C589.545 139.436 589.975 139.8 590.269 140.257C590.563 140.714 590.712 141.216 590.717 141.762H588.995C588.957 141.356 588.838 141.036 588.638 140.803C588.437 140.565 588.183 140.392 587.875 140.285C587.567 140.178 587.226 140.124 586.853 140.124C586.19 140.124 585.698 140.266 585.376 140.551C585.054 140.836 584.893 141.169 584.893 141.552C584.893 141.911 585.012 142.196 585.25 142.406C585.488 142.616 585.852 142.779 586.342 142.896L588.225 143.337C588.855 143.468 589.361 143.668 589.744 143.939C590.126 144.21 590.404 144.532 590.577 144.905C590.754 145.274 590.843 145.682 590.843 146.13C590.843 146.718 590.675 147.238 590.339 147.691C590.007 148.144 589.548 148.498 588.96 148.755C588.372 149.012 587.688 149.14 586.909 149.14ZM595.557 149.14C594.866 149.14 594.264 148.993 593.751 148.699C593.237 148.4 592.838 147.973 592.554 147.418C592.274 146.863 592.134 146.195 592.134 145.416C592.134 144.66 592.271 143.997 592.547 143.428C592.822 142.859 593.214 142.415 593.723 142.098C594.236 141.781 594.85 141.622 595.564 141.622C596.254 141.622 596.854 141.774 597.363 142.077C597.871 142.38 598.263 142.814 598.539 143.379C598.819 143.944 598.959 144.623 598.959 145.416C598.959 146.149 598.826 146.795 598.56 147.355C598.298 147.91 597.913 148.347 597.405 148.664C596.901 148.981 596.285 149.14 595.557 149.14ZM595.564 147.845C595.956 147.845 596.278 147.738 596.53 147.523C596.786 147.308 596.978 147.014 597.104 146.641C597.23 146.268 597.293 145.843 597.293 145.367C597.293 144.924 597.237 144.515 597.125 144.142C597.013 143.769 596.828 143.47 596.572 143.246C596.32 143.017 595.984 142.903 595.564 142.903C595.167 142.903 594.838 143.008 594.577 143.218C594.32 143.423 594.129 143.713 594.003 144.086C593.877 144.455 593.814 144.882 593.814 145.367C593.814 145.806 593.87 146.214 593.982 146.592C594.094 146.965 594.278 147.269 594.535 147.502C594.791 147.731 595.134 147.845 595.564 147.845ZM600.517 149V141.762H602.183V142.798C602.295 142.611 602.446 142.432 602.638 142.259C602.834 142.086 603.074 141.946 603.359 141.839C603.643 141.732 603.977 141.678 604.36 141.678C604.808 141.678 605.223 141.767 605.606 141.944C605.993 142.121 606.303 142.399 606.537 142.777C606.775 143.155 606.894 143.643 606.894 144.24V149H605.186V144.443C605.186 143.967 605.055 143.615 604.794 143.386C604.532 143.153 604.203 143.036 603.807 143.036C603.536 143.036 603.279 143.083 603.037 143.176C602.794 143.265 602.596 143.402 602.442 143.589C602.292 143.771 602.218 144 602.218 144.275V149H600.517ZM611.338 149.056C610.764 149.056 610.318 148.981 610.001 148.832C609.688 148.678 609.471 148.461 609.35 148.181C609.228 147.901 609.168 147.567 609.168 147.18V142.966H607.992V141.762H609.217L609.644 139.613H610.869V141.755H612.486V142.966H610.869L610.876 147.117C610.876 147.332 610.899 147.49 610.946 147.593C610.997 147.691 611.076 147.756 611.184 147.789C611.296 147.817 611.443 147.831 611.625 147.831H612.521V148.909C612.423 148.946 612.278 148.979 612.087 149.007C611.9 149.04 611.65 149.056 611.338 149.056ZM616.159 149.14C615.697 149.14 615.281 149.056 614.913 148.888C614.549 148.715 614.262 148.47 614.052 148.153C613.846 147.831 613.744 147.441 613.744 146.984C613.744 146.186 614.031 145.584 614.605 145.178C615.183 144.772 616.103 144.56 617.363 144.541L618.448 144.513V144.023C618.448 143.64 618.333 143.342 618.105 143.127C617.881 142.908 617.531 142.8 617.055 142.805C616.7 142.81 616.378 142.894 616.089 143.057C615.799 143.216 615.608 143.484 615.515 143.862H614.066C614.094 143.367 614.236 142.954 614.493 142.623C614.754 142.287 615.111 142.037 615.564 141.874C616.016 141.706 616.539 141.622 617.132 141.622C617.822 141.622 618.385 141.713 618.819 141.895C619.253 142.077 619.572 142.341 619.778 142.686C619.983 143.027 620.086 143.44 620.086 143.925V149H618.651L618.511 147.698C618.254 148.244 617.925 148.622 617.524 148.832C617.127 149.037 616.672 149.14 616.159 149.14ZM616.712 147.985C616.922 147.985 617.129 147.948 617.335 147.873C617.54 147.794 617.724 147.689 617.888 147.558C618.056 147.423 618.189 147.273 618.287 147.11C618.389 146.947 618.443 146.776 618.448 146.599V145.458L617.559 145.472C617.12 145.477 616.735 145.523 616.404 145.612C616.077 145.701 615.823 145.843 615.641 146.039C615.459 146.23 615.368 146.487 615.368 146.809C615.368 147.178 615.496 147.467 615.753 147.677C616.009 147.882 616.329 147.985 616.712 147.985ZM621.9 149V141.762H623.531V143.33C623.647 142.971 623.813 142.665 624.028 142.413C624.247 142.156 624.504 141.96 624.798 141.825C625.092 141.69 625.411 141.622 625.757 141.622C625.841 141.622 625.922 141.627 626.002 141.636C626.081 141.645 626.139 141.662 626.177 141.685V143.316C626.125 143.293 626.058 143.276 625.974 143.267C625.894 143.258 625.824 143.253 625.764 143.253C625.414 143.225 625.103 143.239 624.833 143.295C624.567 143.351 624.34 143.447 624.154 143.582C623.972 143.713 623.834 143.881 623.741 144.086C623.647 144.287 623.601 144.522 623.601 144.793V149H621.9ZM629.42 149.14C628.958 149.14 628.543 149.056 628.174 148.888C627.81 148.715 627.523 148.47 627.313 148.153C627.108 147.831 627.005 147.441 627.005 146.984C627.005 146.186 627.292 145.584 627.866 145.178C628.445 144.772 629.364 144.56 630.624 144.541L631.709 144.513V144.023C631.709 143.64 631.595 143.342 631.366 143.127C631.142 142.908 630.792 142.8 630.316 142.805C629.962 142.81 629.64 142.894 629.35 143.057C629.061 143.216 628.87 143.484 628.776 143.862H627.327C627.355 143.367 627.498 142.954 627.754 142.623C628.016 142.287 628.373 142.037 628.825 141.874C629.278 141.706 629.801 141.622 630.393 141.622C631.084 141.622 631.646 141.713 632.08 141.895C632.514 142.077 632.834 142.341 633.039 142.686C633.245 143.027 633.347 143.44 633.347 143.925V149H631.912L631.772 147.698C631.516 148.244 631.187 148.622 630.785 148.832C630.389 149.037 629.934 149.14 629.42 149.14ZM629.973 147.985C630.183 147.985 630.391 147.948 630.596 147.873C630.802 147.794 630.986 147.689 631.149 147.558C631.317 147.423 631.45 147.273 631.548 147.11C631.651 146.947 631.705 146.776 631.709 146.599V145.458L630.82 145.472C630.382 145.477 629.997 145.523 629.665 145.612C629.339 145.701 629.084 145.843 628.902 146.039C628.72 146.23 628.629 146.487 628.629 146.809C628.629 147.178 628.758 147.467 629.014 147.677C629.271 147.882 629.591 147.985 629.973 147.985ZM635.161 149V141.762H636.827V142.798C636.939 142.611 637.091 142.432 637.282 142.259C637.478 142.086 637.719 141.946 638.003 141.839C638.288 141.732 638.622 141.678 639.004 141.678C639.452 141.678 639.868 141.767 640.25 141.944C640.638 142.121 640.948 142.399 641.181 142.777C641.419 143.155 641.538 143.643 641.538 144.24V149H639.83V144.443C639.83 143.967 639.7 143.615 639.438 143.386C639.177 143.153 638.848 143.036 638.451 143.036C638.181 143.036 637.924 143.083 637.681 143.176C637.439 143.265 637.24 143.402 637.086 143.589C636.937 143.771 636.862 144 636.862 144.275V149H635.161ZM646.891 149V138.878H653.583L653.576 140.341H648.606V143.176H652.995V144.618H648.592V147.516L653.681 147.523V149H646.891ZM654.711 149L657.49 145.234L654.942 141.762H656.748L658.421 144.023L660.094 141.762H661.907L659.338 145.234L662.124 149H660.318L658.414 146.424L656.517 149H654.711ZM663.421 151.254V141.762H665.122L665.136 142.903C665.229 142.744 665.348 142.588 665.493 142.434C665.642 142.28 665.813 142.142 666.004 142.021C666.2 141.9 666.417 141.804 666.655 141.734C666.893 141.659 667.154 141.622 667.439 141.622C667.994 141.622 668.487 141.755 668.916 142.021C669.345 142.282 669.681 142.686 669.924 143.232C670.171 143.778 670.295 144.469 670.295 145.304C670.295 146.158 670.169 146.87 669.917 147.439C669.665 148.008 669.313 148.435 668.86 148.72C668.407 149 667.882 149.14 667.285 149.14C667.01 149.14 666.758 149.103 666.529 149.028C666.305 148.953 666.104 148.851 665.927 148.72C665.75 148.589 665.593 148.447 665.458 148.293C665.327 148.139 665.218 147.978 665.129 147.81V151.254H663.421ZM666.907 147.866C667.42 147.866 667.845 147.663 668.181 147.257C668.517 146.846 668.685 146.205 668.685 145.332C668.685 144.576 668.526 143.981 668.209 143.547C667.896 143.108 667.462 142.889 666.907 142.889C666.31 142.889 665.862 143.12 665.563 143.582C665.264 144.039 665.115 144.623 665.115 145.332C665.115 145.789 665.18 146.212 665.311 146.599C665.446 146.982 665.645 147.29 665.906 147.523C666.172 147.752 666.506 147.866 666.907 147.866ZM675.042 149.14C674.347 149.14 673.733 148.993 673.201 148.699C672.674 148.4 672.261 147.976 671.962 147.425C671.668 146.874 671.521 146.219 671.521 145.458C671.521 144.716 671.654 144.058 671.92 143.484C672.191 142.905 672.58 142.45 673.089 142.119C673.602 141.788 674.221 141.622 674.944 141.622C675.658 141.622 676.258 141.774 676.743 142.077C677.228 142.38 677.597 142.805 677.849 143.351C678.101 143.892 678.227 144.527 678.227 145.255V145.773H673.222C673.217 146.184 673.283 146.548 673.418 146.865C673.553 147.182 673.754 147.432 674.02 147.614C674.286 147.791 674.615 147.88 675.007 147.88C675.408 147.88 675.756 147.791 676.05 147.614C676.349 147.432 676.547 147.157 676.645 146.788H678.199C678.115 147.292 677.914 147.719 677.597 148.069C677.284 148.419 676.902 148.685 676.449 148.867C676.001 149.049 675.532 149.14 675.042 149.14ZM673.215 144.716H676.617C676.617 144.366 676.554 144.051 676.428 143.771C676.307 143.486 676.122 143.262 675.875 143.099C675.628 142.931 675.315 142.847 674.937 142.847C674.564 142.847 674.249 142.938 673.992 143.12C673.735 143.302 673.542 143.538 673.411 143.827C673.28 144.112 673.215 144.408 673.215 144.716ZM679.855 149V141.762H681.486V143.33C681.602 142.971 681.768 142.665 681.983 142.413C682.202 142.156 682.459 141.96 682.753 141.825C683.047 141.69 683.366 141.622 683.712 141.622C683.796 141.622 683.877 141.627 683.957 141.636C684.036 141.645 684.094 141.662 684.132 141.685V143.316C684.08 143.293 684.013 143.276 683.929 143.267C683.849 143.258 683.779 143.253 683.719 143.253C683.369 143.225 683.058 143.239 682.788 143.295C682.522 143.351 682.295 143.447 682.109 143.582C681.927 143.713 681.789 143.881 681.696 144.086C681.602 144.287 681.556 144.522 681.556 144.793V149H679.855ZM685.515 149V141.762H687.146V149H685.515ZM685.487 140.495V138.885H687.174V140.495H685.487ZM689.165 149V141.762H690.824V142.798C691.034 142.481 691.319 142.205 691.678 141.972C692.042 141.739 692.504 141.622 693.064 141.622C693.321 141.622 693.58 141.666 693.841 141.755C694.107 141.844 694.352 141.974 694.576 142.147C694.805 142.32 694.987 142.534 695.122 142.791C695.351 142.45 695.654 142.17 696.032 141.951C696.415 141.732 696.844 141.622 697.32 141.622C697.582 141.622 697.85 141.664 698.125 141.748C698.405 141.832 698.662 141.972 698.895 142.168C699.129 142.364 699.318 142.632 699.462 142.973C699.607 143.309 699.679 143.731 699.679 144.24V149H697.978V144.443C697.978 144.084 697.915 143.801 697.789 143.596C697.663 143.391 697.5 143.246 697.299 143.162C697.103 143.073 696.893 143.029 696.669 143.029C696.469 143.029 696.259 143.069 696.039 143.148C695.825 143.227 695.64 143.358 695.486 143.54C695.337 143.722 695.262 143.967 695.262 144.275V149H693.561V144.17C693.561 143.918 693.496 143.708 693.365 143.54C693.235 143.372 693.069 143.246 692.868 143.162C692.672 143.073 692.472 143.029 692.266 143.029C692.056 143.029 691.842 143.073 691.622 143.162C691.408 143.251 691.228 143.386 691.083 143.568C690.939 143.75 690.866 143.986 690.866 144.275V149H689.165ZM704.71 149.14C704.015 149.14 703.401 148.993 702.869 148.699C702.342 148.4 701.929 147.976 701.63 147.425C701.336 146.874 701.189 146.219 701.189 145.458C701.189 144.716 701.322 144.058 701.588 143.484C701.859 142.905 702.248 142.45 702.757 142.119C703.27 141.788 703.889 141.622 704.612 141.622C705.326 141.622 705.926 141.774 706.411 142.077C706.896 142.38 707.265 142.805 707.517 143.351C707.769 143.892 707.895 144.527 707.895 145.255V145.773H702.89C702.885 146.184 702.951 146.548 703.086 146.865C703.221 147.182 703.422 147.432 703.688 147.614C703.954 147.791 704.283 147.88 704.675 147.88C705.076 147.88 705.424 147.791 705.718 147.614C706.017 147.432 706.215 147.157 706.313 146.788H707.867C707.783 147.292 707.582 147.719 707.265 148.069C706.952 148.419 706.57 148.685 706.117 148.867C705.669 149.049 705.2 149.14 704.71 149.14ZM702.883 144.716H706.285C706.285 144.366 706.222 144.051 706.096 143.771C705.975 143.486 705.79 143.262 705.543 143.099C705.296 142.931 704.983 142.847 704.605 142.847C704.232 142.847 703.917 142.938 703.66 143.12C703.403 143.302 703.21 143.538 703.079 143.827C702.948 144.112 702.883 144.408 702.883 144.716ZM709.523 149V141.762H711.189V142.798C711.301 142.611 711.452 142.432 711.644 142.259C711.84 142.086 712.08 141.946 712.365 141.839C712.649 141.732 712.983 141.678 713.366 141.678C713.814 141.678 714.229 141.767 714.612 141.944C714.999 142.121 715.309 142.399 715.543 142.777C715.781 143.155 715.9 143.643 715.9 144.24V149H714.192V144.443C714.192 143.967 714.061 143.615 713.8 143.386C713.538 143.153 713.209 143.036 712.813 143.036C712.542 143.036 712.285 143.083 712.043 143.176C711.8 143.265 711.602 143.402 711.448 143.589C711.298 143.771 711.224 144 711.224 144.275V149H709.523ZM720.344 149.056C719.77 149.056 719.324 148.981 719.007 148.832C718.694 148.678 718.477 148.461 718.356 148.181C718.234 147.901 718.174 147.567 718.174 147.18V142.966H716.998V141.762H718.223L718.65 139.613H719.875V141.755H721.492V142.966H719.875L719.882 147.117C719.882 147.332 719.905 147.49 719.952 147.593C720.003 147.691 720.082 147.756 720.19 147.789C720.302 147.817 720.449 147.831 720.631 147.831H721.527V148.909C721.429 148.946 721.284 148.979 721.093 149.007C720.906 149.04 720.656 149.056 720.344 149.056ZM722.833 142.525L723.624 140.698L722.966 140.649V138.878H724.828V140.432L723.519 142.525H722.833Z" fill="black"/>
<path d="M280 64C280 28.6538 308.654 0 344 0V0C379.346 0 408 28.6538 408 64V64C408 99.3462 379.346 128 344 128V128C308.654 128 280 99.3462 280 64V64Z" fill="#C990C0"/>
<path d="M319.545 69V58.878H325.929L325.922 60.019H320.847V63.323H325.418V64.457H320.84V67.831L326.062 67.845V69H319.545ZM327.783 71.254V61.762H329.071L329.085 63.022C329.169 62.8727 329.276 62.7163 329.407 62.553C329.542 62.3897 329.706 62.238 329.897 62.098C330.093 61.958 330.319 61.8437 330.576 61.755C330.837 61.6663 331.134 61.622 331.465 61.622C332.044 61.622 332.552 61.755 332.991 62.021C333.434 62.2823 333.78 62.6837 334.027 63.225C334.274 63.7663 334.398 64.4523 334.398 65.283C334.398 66.1137 334.277 66.816 334.034 67.39C333.796 67.9593 333.451 68.3933 332.998 68.692C332.545 68.9907 331.999 69.14 331.36 69.14C331.038 69.14 330.751 69.0933 330.499 69C330.252 68.9113 330.035 68.7947 329.848 68.65C329.666 68.5007 329.512 68.342 329.386 68.174C329.265 68.006 329.164 67.845 329.085 67.691V71.254H327.783ZM331.115 68.132C331.712 68.132 332.2 67.9057 332.578 67.453C332.956 66.9957 333.145 66.2863 333.145 65.325C333.145 64.499 332.972 63.8433 332.627 63.358C332.282 62.8727 331.778 62.63 331.115 62.63C330.443 62.63 329.934 62.8797 329.589 63.379C329.244 63.8737 329.071 64.5223 329.071 65.325C329.071 65.843 329.148 66.3143 329.302 66.739C329.456 67.1637 329.685 67.502 329.988 67.754C330.291 68.006 330.667 68.132 331.115 68.132ZM336.158 69V61.762H337.411V69H336.158ZM336.123 60.229V58.885H337.446V60.229H336.123ZM342.186 69.14C341.682 69.14 341.213 69.063 340.779 68.909C340.349 68.7503 339.992 68.5053 339.708 68.174C339.423 67.838 339.246 67.411 339.176 66.893H340.352C340.412 67.1777 340.529 67.4157 340.702 67.607C340.874 67.7937 341.087 67.936 341.339 68.034C341.595 68.1273 341.875 68.174 342.179 68.174C342.669 68.174 343.063 68.083 343.362 67.901C343.66 67.719 343.81 67.439 343.81 67.061C343.81 66.795 343.73 66.5827 343.572 66.424C343.418 66.2607 343.175 66.1417 342.844 66.067L341.346 65.696C340.762 65.556 340.296 65.3367 339.946 65.038C339.6 64.7393 339.425 64.3217 339.421 63.785C339.421 63.3603 339.523 62.987 339.729 62.665C339.934 62.343 340.24 62.0887 340.646 61.902C341.056 61.7153 341.567 61.622 342.179 61.622C342.967 61.622 343.602 61.7993 344.083 62.154C344.563 62.504 344.815 63.0197 344.839 63.701H343.691C343.644 63.3557 343.49 63.0827 343.229 62.882C342.967 62.6767 342.613 62.574 342.165 62.574C341.707 62.574 341.332 62.6673 341.038 62.854C340.748 63.036 340.604 63.3207 340.604 63.708C340.604 63.9647 340.706 64.1677 340.912 64.317C341.122 64.4617 341.425 64.583 341.822 64.681L343.278 65.045C343.609 65.1337 343.884 65.2503 344.104 65.395C344.323 65.5397 344.496 65.7007 344.622 65.878C344.748 66.0553 344.836 66.242 344.888 66.438C344.944 66.6293 344.972 66.8137 344.972 66.991C344.972 67.4343 344.862 67.817 344.643 68.139C344.423 68.4563 344.106 68.7037 343.691 68.881C343.275 69.0537 342.774 69.14 342.186 69.14ZM349.562 69.14C348.894 69.14 348.311 68.9977 347.812 68.713C347.317 68.4237 346.932 68.0013 346.657 67.446C346.381 66.8907 346.244 66.2117 346.244 65.409C346.244 64.653 346.372 63.9903 346.629 63.421C346.885 62.8517 347.261 62.4107 347.756 62.098C348.25 61.7807 348.855 61.622 349.569 61.622C350.236 61.622 350.815 61.769 351.305 62.063C351.795 62.3523 352.175 62.7793 352.446 63.344C352.721 63.9087 352.859 64.597 352.859 65.409C352.859 66.1463 352.733 66.795 352.481 67.355C352.229 67.915 351.858 68.3537 351.368 68.671C350.882 68.9837 350.28 69.14 349.562 69.14ZM349.569 68.118C349.998 68.118 350.362 68.0083 350.661 67.789C350.959 67.5697 351.186 67.2547 351.34 66.844C351.498 66.4333 351.578 65.9457 351.578 65.381C351.578 64.863 351.508 64.3987 351.368 63.988C351.232 63.5727 351.018 63.2437 350.724 63.001C350.43 62.7583 350.045 62.637 349.569 62.637C349.13 62.637 348.759 62.7467 348.456 62.966C348.152 63.1807 347.921 63.4933 347.763 63.904C347.609 64.3147 347.532 64.807 347.532 65.381C347.532 65.8897 347.599 66.3517 347.735 66.767C347.875 67.1823 348.094 67.5113 348.393 67.754C348.696 67.9967 349.088 68.118 349.569 68.118ZM357.219 69.14C356.276 69.14 355.529 68.818 354.979 68.174C354.433 67.53 354.16 66.5897 354.16 65.353C354.16 64.6017 354.269 63.946 354.489 63.386C354.708 62.826 355.037 62.392 355.476 62.084C355.914 61.776 356.46 61.622 357.114 61.622C357.464 61.622 357.772 61.6663 358.038 61.755C358.304 61.8437 358.535 61.9557 358.731 62.091C358.927 62.2263 359.085 62.3663 359.207 62.511C359.333 62.6557 359.426 62.7887 359.487 62.91V58.598H360.796V69H359.802L359.662 67.516C359.615 67.656 359.54 67.8193 359.438 68.006C359.335 68.188 359.19 68.3677 359.004 68.545C358.822 68.7177 358.584 68.86 358.29 68.972C357.996 69.084 357.639 69.14 357.219 69.14ZM357.45 68.146C358.178 68.146 358.698 67.9243 359.011 67.481C359.328 67.033 359.487 66.3027 359.487 65.29C359.482 64.7253 359.412 64.2447 359.277 63.848C359.141 63.4513 358.927 63.1503 358.633 62.945C358.343 62.735 357.956 62.63 357.471 62.63C356.878 62.63 356.395 62.8423 356.022 63.267C355.648 63.6917 355.462 64.366 355.462 65.29C355.462 66.1953 355.63 66.8977 355.966 67.397C356.302 67.8963 356.796 68.146 357.45 68.146ZM365.992 69.14C365.32 69.14 364.728 68.993 364.214 68.699C363.701 68.405 363.3 67.9827 363.01 67.432C362.721 66.8813 362.576 66.221 362.576 65.451C362.576 64.6903 362.707 64.023 362.968 63.449C363.23 62.875 363.608 62.427 364.102 62.105C364.602 61.783 365.201 61.622 365.901 61.622C366.583 61.622 367.159 61.769 367.63 62.063C368.102 62.357 368.459 62.7723 368.701 63.309C368.949 63.841 369.072 64.4733 369.072 65.206V65.682H363.885C363.885 66.1393 363.96 66.5547 364.109 66.928C364.263 67.2967 364.494 67.5907 364.802 67.81C365.11 68.0293 365.5 68.139 365.971 68.139C366.433 68.139 366.83 68.0317 367.161 67.817C367.497 67.6023 367.712 67.292 367.805 66.886H369.023C368.939 67.376 368.743 67.789 368.435 68.125C368.132 68.461 367.766 68.7153 367.336 68.888C366.912 69.056 366.464 69.14 365.992 69.14ZM363.892 64.807H367.826C367.826 64.3917 367.756 64.0183 367.616 63.687C367.476 63.351 367.262 63.0873 366.972 62.896C366.688 62.7 366.328 62.602 365.894 62.602C365.442 62.602 365.066 62.7117 364.767 62.931C364.469 63.1457 364.247 63.4233 364.102 63.764C363.958 64.1 363.888 64.4477 363.892 64.807Z" fill="white"/>
<path d="M0 64C0 28.6538 28.6538 0 64 0V0C99.3462 0 128 28.6538 128 64V64C128 99.3462 99.3462 128 64 128V128C28.6538 128 0 99.3462 0 64V64Z" fill="#C990C0"/>
<path d="M39.545 69V58.878H45.929L45.922 60.019H40.847V63.323H45.418V64.457H40.84V67.831L46.062 67.845V69H39.545ZM47.7829 71.254V61.762H49.0709L49.0849 63.022C49.1689 62.8727 49.2762 62.7163 49.4069 62.553C49.5422 62.3897 49.7056 62.238 49.8969 62.098C50.0929 61.958 50.3192 61.8437 50.5759 61.755C50.8372 61.6663 51.1336 61.622 51.4649 61.622C52.0436 61.622 52.5522 61.755 52.9909 62.021C53.4342 62.2823 53.7796 62.6837 54.0269 63.225C54.2742 63.7663 54.3979 64.4523 54.3979 65.283C54.3979 66.1137 54.2766 66.816 54.0339 67.39C53.7959 67.9593 53.4506 68.3933 52.9979 68.692C52.5452 68.9907 51.9992 69.14 51.3599 69.14C51.0379 69.14 50.7509 69.0933 50.4989 69C50.2516 68.9113 50.0346 68.7947 49.8479 68.65C49.6659 68.5007 49.5119 68.342 49.3859 68.174C49.2646 68.006 49.1642 67.845 49.0849 67.691V71.254H47.7829ZM51.1149 68.132C51.7122 68.132 52.1999 67.9057 52.5779 67.453C52.9559 66.9957 53.1449 66.2863 53.1449 65.325C53.1449 64.499 52.9722 63.8433 52.6269 63.358C52.2816 62.8727 51.7776 62.63 51.1149 62.63C50.4429 62.63 49.9342 62.8797 49.5889 63.379C49.2436 63.8737 49.0709 64.5223 49.0709 65.325C49.0709 65.843 49.1479 66.3143 49.3019 66.739C49.4559 67.1637 49.6846 67.502 49.9879 67.754C50.2912 68.006 50.6669 68.132 51.1149 68.132ZM56.1578 69V61.762H57.4108V69H56.1578ZM56.1228 60.229V58.885H57.4458V60.229H56.1228ZM62.1857 69.14C61.6817 69.14 61.2127 69.063 60.7787 68.909C60.3494 68.7503 59.9924 68.5053 59.7077 68.174C59.4231 67.838 59.2457 67.411 59.1757 66.893H60.3517C60.4124 67.1777 60.5291 67.4157 60.7017 67.607C60.8744 67.7937 61.0867 67.936 61.3387 68.034C61.5954 68.1273 61.8754 68.174 62.1787 68.174C62.6687 68.174 63.0631 68.083 63.3617 67.901C63.6604 67.719 63.8097 67.439 63.8097 67.061C63.8097 66.795 63.7304 66.5827 63.5717 66.424C63.4177 66.2607 63.1751 66.1417 62.8437 66.067L61.3457 65.696C60.7624 65.556 60.2957 65.3367 59.9457 65.038C59.6004 64.7393 59.4254 64.3217 59.4207 63.785C59.4207 63.3603 59.5234 62.987 59.7287 62.665C59.9341 62.343 60.2397 62.0887 60.6457 61.902C61.0564 61.7153 61.5674 61.622 62.1787 61.622C62.9674 61.622 63.6021 61.7993 64.0827 62.154C64.5634 62.504 64.8154 63.0197 64.8387 63.701H63.6907C63.6441 63.3557 63.4901 63.0827 63.2287 62.882C62.9674 62.6767 62.6127 62.574 62.1647 62.574C61.7074 62.574 61.3317 62.6673 61.0377 62.854C60.7484 63.036 60.6037 63.3207 60.6037 63.708C60.6037 63.9647 60.7064 64.1677 60.9117 64.317C61.1217 64.4617 61.4251 64.583 61.8217 64.681L63.2777 65.045C63.6091 65.1337 63.8844 65.2503 64.1037 65.395C64.3231 65.5397 64.4957 65.7007 64.6217 65.878C64.7477 66.0553 64.8364 66.242 64.8877 66.438C64.9437 66.6293 64.9717 66.8137 64.9717 66.991C64.9717 67.4343 64.8621 67.817 64.6427 68.139C64.4234 68.4563 64.1061 68.7037 63.6907 68.881C63.2754 69.0537 62.7737 69.14 62.1857 69.14ZM69.5618 69.14C68.8944 69.14 68.3111 68.9977 67.8118 68.713C67.3171 68.4237 66.9321 68.0013 66.6568 67.446C66.3814 66.8907 66.2438 66.2117 66.2438 65.409C66.2438 64.653 66.3721 63.9903 66.6288 63.421C66.8854 62.8517 67.2611 62.4107 67.7558 62.098C68.2504 61.7807 68.8548 61.622 69.5688 61.622C70.2361 61.622 70.8148 61.769 71.3048 62.063C71.7948 62.3523 72.1751 62.7793 72.4458 63.344C72.7211 63.9087 72.8588 64.597 72.8588 65.409C72.8588 66.1463 72.7328 66.795 72.4808 67.355C72.2288 67.915 71.8578 68.3537 71.3678 68.671C70.8824 68.9837 70.2804 69.14 69.5618 69.14ZM69.5688 68.118C69.9981 68.118 70.3621 68.0083 70.6608 67.789C70.9594 67.5697 71.1858 67.2547 71.3398 66.844C71.4984 66.4333 71.5778 65.9457 71.5778 65.381C71.5778 64.863 71.5078 64.3987 71.3678 63.988C71.2324 63.5727 71.0178 63.2437 70.7238 63.001C70.4298 62.7583 70.0448 62.637 69.5688 62.637C69.1301 62.637 68.7591 62.7467 68.4558 62.966C68.1524 63.1807 67.9214 63.4933 67.7628 63.904C67.6088 64.3147 67.5318 64.807 67.5318 65.381C67.5318 65.8897 67.5994 66.3517 67.7348 66.767C67.8748 67.1823 68.0941 67.5113 68.3928 67.754C68.6961 67.9967 69.0881 68.118 69.5688 68.118ZM77.2188 69.14C76.2761 69.14 75.5295 68.818 74.9788 68.174C74.4328 67.53 74.1598 66.5897 74.1598 65.353C74.1598 64.6017 74.2695 63.946 74.4888 63.386C74.7081 62.826 75.0371 62.392 75.4758 62.084C75.9145 61.776 76.4605 61.622 77.1138 61.622C77.4638 61.622 77.7718 61.6663 78.0378 61.755C78.3038 61.8437 78.5348 61.9557 78.7308 62.091C78.9268 62.2263 79.0855 62.3663 79.2068 62.511C79.3328 62.6557 79.4261 62.7887 79.4868 62.91V58.598H80.7958V69H79.8018L79.6618 67.516C79.6151 67.656 79.5405 67.8193 79.4378 68.006C79.3351 68.188 79.1905 68.3677 79.0038 68.545C78.8218 68.7177 78.5838 68.86 78.2898 68.972C77.9958 69.084 77.6388 69.14 77.2188 69.14ZM77.4498 68.146C78.1778 68.146 78.6981 67.9243 79.0108 67.481C79.3281 67.033 79.4868 66.3027 79.4868 65.29C79.4821 64.7253 79.4121 64.2447 79.2768 63.848C79.1415 63.4513 78.9268 63.1503 78.6328 62.945C78.3435 62.735 77.9561 62.63 77.4708 62.63C76.8781 62.63 76.3951 62.8423 76.0218 63.267C75.6485 63.6917 75.4618 64.366 75.4618 65.29C75.4618 66.1953 75.6298 66.8977 75.9658 67.397C76.3018 67.8963 76.7965 68.146 77.4498 68.146ZM85.9923 69.14C85.3203 69.14 84.7276 68.993 84.2143 68.699C83.701 68.405 83.2996 67.9827 83.0103 67.432C82.721 66.8813 82.5763 66.221 82.5763 65.451C82.5763 64.6903 82.707 64.023 82.9683 63.449C83.2296 62.875 83.6076 62.427 84.1023 62.105C84.6016 61.783 85.2013 61.622 85.9013 61.622C86.5826 61.622 87.159 61.769 87.6303 62.063C88.1016 62.357 88.4586 62.7723 88.7013 63.309C88.9486 63.841 89.0723 64.4733 89.0723 65.206V65.682H83.8853C83.8853 66.1393 83.96 66.5547 84.1093 66.928C84.2633 67.2967 84.4943 67.5907 84.8023 67.81C85.1103 68.0293 85.5 68.139 85.9713 68.139C86.4333 68.139 86.83 68.0317 87.1613 67.817C87.4973 67.6023 87.712 67.292 87.8053 66.886H89.0233C88.9393 67.376 88.7433 67.789 88.4353 68.125C88.132 68.461 87.7656 68.7153 87.3363 68.888C86.9116 69.056 86.4636 69.14 85.9923 69.14ZM83.8923 64.807H87.8263C87.8263 64.3917 87.7563 64.0183 87.6163 63.687C87.4763 63.351 87.2616 63.0873 86.9723 62.896C86.6876 62.7 86.3283 62.602 85.8943 62.602C85.4416 62.602 85.066 62.7117 84.7673 62.931C84.4686 63.1457 84.247 63.4233 84.1023 63.764C83.9576 64.1 83.8876 64.4477 83.8923 64.807Z" fill="white"/>
<path d="M275.207 64.7071C275.598 64.3166 275.598 63.6834 275.207 63.2929L268.843 56.9289C268.453 56.5384 267.819 56.5384 267.429 56.9289C267.038 57.3195 267.038 57.9526 267.429 58.3431L273.086 64L267.429 69.6569C267.038 70.0474 267.038 70.6805 267.429 71.0711C267.819 71.4616 268.453 71.4616 268.843 71.0711L275.207 64.7071ZM226.157 63C225.605 63 225.157 63.4477 225.157 64C225.157 64.5523 225.605 65 226.157 65V63ZM176.032 65C176.584 65 177.032 64.5523 177.032 64C177.032 63.4477 176.584 63 176.032 63V65ZM131.5 63C130.948 63 130.5 63.4477 130.5 64C130.5 64.5523 130.948 65 131.5 65V63ZM274.5 63H226.157V65H274.5V63ZM176.032 63H131.5V65H176.032V63Z" fill="#1A1B1D"/>
<path d="M191.993 59.3182V69.5H190.581L185.406 62.0327H185.311V69.5H183.775V59.3182H185.197L190.377 66.7955H190.472V59.3182H191.993ZM194.08 69.5V59.3182H200.464V60.6406H195.616V63.7429H200.131V65.0604H195.616V68.1776H200.523V69.5H194.08ZM203.431 59.3182L205.867 63.3004H205.946L208.382 59.3182H210.162L206.99 64.4091L210.182 69.5H208.392L205.946 65.5724H205.867L203.421 69.5H201.631L204.877 64.4091L201.651 59.3182H203.431ZM211.03 60.6406V59.3182H218.91V60.6406H215.733V69.5H214.202V60.6406H211.03Z" fill="black" fill-opacity="0.8"/>
</svg>
