<svg xmlns="http://www.w3.org/2000/svg" width="601" height="582" viewBox="0 0 601 582"><defs><style type="text/css"/></defs><g transform="translate(-113.48607883238245 250.87568088749236) scale(1)"><g class="relationship"><g transform="translate(248.93732507941846 -134.95743506231543) rotate(47.4509763864309)" stroke-width="1" stroke="#A5ABB6"><path d="M 52 0 L 187.9716676950144 0"/><polygon points="-9.45,0 -10.5,3.5 0,0 -10.5,-3.5" fill="#A5ABB6" transform="translate(197.42166769501438 0) rotate(0)" stroke="none"/></g><g transform="translate(330.074240676589 -46.56398931287522) rotate(47.4509763864309) translate(0 -7)"><g transform="translate(0 0)"><g transform="translate(-26.7265625 0)" fill="#ffffff" stroke="#000000" stroke-width="0"><rect x="0" y="0" width="53.453125" height="14" rx="2" ry="2" stroke="none"/><text xml:space="preserve" x="2" y="9.78564453125" stroke="none" text-anchor="left" font-family="sans-serif" font-size="10" font-weight="normal" fill="#000000">ACTED_IN</text></g></g></g></g><g class="relationship"><g transform="translate(165.48607883238245 -28.217542821577894) rotate(16.9853264042431)" stroke-width="1" stroke="#A5ABB6"><path d="M 52 0 L 202.1643258039977 0"/><polygon points="-9.45,0 -10.5,3.5 0,0 -10.5,-3.5" fill="#A5ABB6" transform="translate(211.6143258039977 0) rotate(0)" stroke="none"/></g><g transform="translate(287.02486717719546 8.906560609009091) rotate(16.9853264042431) translate(0 -7)"><g transform="translate(0 0)"><g transform="translate(-26.7265625 0)" fill="#ffffff" stroke="#000000" stroke-width="0"><rect x="0" y="0" width="53.453125" height="14" rx="2" ry="2" stroke="none"/><text xml:space="preserve" x="2" y="9.78564453125" stroke="none" text-anchor="left" font-family="sans-serif" font-size="10" font-weight="normal" fill="#000000">ACTED_IN</text></g></g></g></g><g class="relationship"><g transform="translate(393.1617835610646 -198.87568088749236) rotate(84.36432450877527)" stroke-width="1" stroke="#A5ABB6"><path d="M 52 0 L 187.41986882695065 0"/><polygon points="-9.45,0 -10.5,3.5 0,0 -10.5,-3.5" fill="#A5ABB6" transform="translate(196.86986882695064 0) rotate(0)" stroke="none"/></g><g transform="translate(404.9176060453214 -79.74437083426913) rotate(84.36432450877527) translate(0 -7)"><g transform="translate(0 0)"><g transform="translate(-26.7265625 0)" fill="#ffffff" stroke="#000000" stroke-width="0"><rect x="0" y="0" width="53.453125" height="14" rx="2" ry="2" stroke="none"/><text xml:space="preserve" x="2" y="9.78564453125" stroke="none" text-anchor="left" font-family="sans-serif" font-size="10" font-weight="normal" fill="#000000">ACTED_IN</text></g></g></g></g><g class="relationship"><g transform="translate(558.2868202873809 -173.35670960200662) rotate(122.34590862755148)" stroke-width="1" stroke="#A5ABB6"><path d="M 52 0 L 201.4988482561693 0"/><polygon points="-9.45,0 -10.5,3.5 0,0 -10.5,-3.5" fill="#A5ABB6" transform="translate(210.9488482561693 0) rotate(0)" stroke="none"/></g><g transform="translate(490.4721456718118 -66.27456158663678) rotate(302.3459086275515) translate(0 -7)"><g transform="translate(0 0)"><g transform="translate(-26.7265625 0)" fill="#ffffff" stroke="#000000" stroke-width="0"><rect x="0" y="0" width="53.453125" height="14" rx="2" ry="2" stroke="none"/><text xml:space="preserve" x="2" y="9.78564453125" stroke="none" text-anchor="left" font-family="sans-serif" font-size="10" font-weight="normal" fill="#000000">ACTED_IN</text></g></g></g></g><g class="relationship"><g transform="translate(654.8372163556578 -28.217542821577894) rotate(162.0161167585448)" stroke-width="1" stroke="#A5ABB6"><path d="M 52 0 L 187.97166769501433 0"/><polygon points="-9.45,0 -10.5,3.5 0,0 -10.5,-3.5" fill="#A5ABB6" transform="translate(197.42166769501432 0) rotate(0)" stroke="none"/></g><g transform="translate(540.7134821325257 8.828018465160653) rotate(342.0161167585448) translate(0 -7)"><g transform="translate(0 0)"><g transform="translate(-26.7265625 0)" fill="#ffffff" stroke="#000000" stroke-width="0"><rect x="0" y="0" width="53.453125" height="14" rx="2" ry="2" stroke="none"/><text xml:space="preserve" x="2" y="9.78564453125" stroke="none" text-anchor="left" font-family="sans-serif" font-size="10" font-weight="normal" fill="#000000">ACTED_IN</text></g></g></g></g><g class="relationship"><g transform="translate(661.6662038921878 117.15288570766297) rotate(-164.3526400438198)" stroke-width="1" stroke="#A5ABB6"><path d="M 52 0 L 192.0079239324587 0"/><polygon points="-9.45,0 -10.5,3.5 0,0 -10.5,-3.5" fill="#A5ABB6" transform="translate(201.4579239324587 0) rotate(0)" stroke="none"/></g><g transform="translate(544.1837145990575 84.24648139259614) rotate(15.647359956180189) translate(0 -7)"><g transform="translate(0 0)"><g transform="translate(-26.7265625 0)" fill="#ffffff" stroke="#000000" stroke-width="0"><rect x="0" y="0" width="53.453125" height="14" rx="2" ry="2" stroke="none"/><text xml:space="preserve" x="2" y="9.78564453125" stroke="none" text-anchor="left" font-family="sans-serif" font-size="10" font-weight="normal" fill="#000000">ACTED_IN</text></g></g></g></g><g class="relationship"><g transform="translate(586.2740138447973 241.63266013470536) rotate(-131.17521224041909)" stroke-width="1" stroke="#A5ABB6"><path d="M 52 0 L 194.74961166573888 0"/><polygon points="-9.45,0 -10.5,3.5 0,0 -10.5,-3.5" fill="#A5ABB6" transform="translate(204.19961166573887 0) rotate(0)" stroke="none"/></g></g><g class="relationship"><g transform="translate(419.69857335804204 278.5489950189957) rotate(-90.52295691747631)" stroke-width="1" stroke="#A5ABB6"><path d="M 52 0 L 168.31730353718575 0"/><polygon points="-9.45,0 -10.5,3.5 0,0 -10.5,-3.5" fill="#A5ABB6" transform="translate(177.76730353718577 0) rotate(0)" stroke="none"/></g><g transform="translate(418.69313404672863 168.3949317654535) rotate(89.47704308252369) translate(0 -7)"><g transform="translate(0 0)"><g transform="translate(-26.7265625 0)" fill="#ffffff" stroke="#000000" stroke-width="0"><rect x="0" y="0" width="53.453125" height="14" rx="2" ry="2" stroke="none"/><text xml:space="preserve" x="2" y="9.78564453125" stroke="none" text-anchor="left" font-family="sans-serif" font-size="10" font-weight="normal" fill="#000000">ACTED_IN</text></g></g></g></g><g class="relationship"><g transform="translate(253.12313287128677 241.63266013470536) rotate(-49.538470619345674)" stroke-width="1" stroke="#A5ABB6"><path d="M 52 0 L 192.00792393245885 0"/><polygon points="-9.45,0 -10.5,3.5 0,0 -10.5,-3.5" fill="#A5ABB6" transform="translate(201.45792393245884 0) rotate(0)" stroke="none"/></g><g transform="translate(332.29605890335614 148.8069389202832) rotate(-49.538470619345674) translate(0 -7)"><g transform="translate(0 0)"><g transform="translate(-26.7265625 0)" fill="#ffffff" stroke="#000000" stroke-width="0"><rect x="0" y="0" width="53.453125" height="14" rx="2" ry="2" stroke="none"/><text xml:space="preserve" x="2" y="9.78564453125" stroke="none" text-anchor="left" font-family="sans-serif" font-size="10" font-weight="normal" fill="#000000">ACTED_IN</text></g></g></g></g><g class="relationship"><g transform="translate(177.7309428238963 117.15288570766297) rotate(-15.907227421710274)" stroke-width="1" stroke="#A5ABB6"><path d="M 52 0 L 187.97166769501445 0"/><polygon points="-9.45,0 -10.5,3.5 0,0 -10.5,-3.5" fill="#A5ABB6" transform="translate(197.42166769501443 0) rotate(0)" stroke="none"/></g><g transform="translate(293.1221284255487 84.26710444088101) rotate(-15.907227421710274) translate(0 -7)"><g transform="translate(0 0)"><g transform="translate(-26.7265625 0)" fill="#ffffff" stroke="#000000" stroke-width="0"><rect x="0" y="0" width="53.453125" height="14" rx="2" ry="2" stroke="none"/><text xml:space="preserve" x="2" y="9.78564453125" stroke="none" text-anchor="left" font-family="sans-serif" font-size="10" font-weight="normal" fill="#000000">ACTED_IN</text></g></g></g></g><g class="node"><g fill="#4C8EDA" stroke="#2870c2" stroke-width="2"><circle cx="417.6014427584768" cy="48.79126213934346" r="51"/></g><g transform="translate(417.6014427584768 48.79126213934346)"><g transform="scale(1) translate(0 -9)"><g transform="translate(0 0)"><g transform="translate(-25.0048828125 0)"><g fill="#ffffff" stroke="#000000" stroke-width="2"><rect x="0" y="0" width="50.009765625" height="18" rx="9" ry="9"/><text xml:space="preserve" x="9" y="12.3427734375" stroke="none" font-family="sans-serif" font-size="12" font-weight="normal" fill="#000000">Movie</text></g></g></g></g><g transform="translate(3.3065463576978537e-15 54)"><g transform="translate(0 0)"><g transform="translate(-54.47509765625 0)" fill="white"><rect x="0" y="0" width="108.9501953125" height="12" rx="0" ry="0" stroke="none"/><g font-family="sans-serif" font-size="10" font-weight="normal" fill="#000000" text-anchor="middle"><text xml:space="preserve" x="54.47509765625" y="8.78564453125" stroke="none">title: Sleepless in Seattle</text></g></g></g></g></g></g><g class="node"><g fill="#fe9200" stroke="#e27300" stroke-width="2"><circle cx="248.93732507941846" cy="-134.95743506231543" r="51"/></g><g transform="translate(248.93732507941846 -134.95743506231543)"><g transform="scale(1) translate(0 -9)"><g transform="translate(0 0)"><g transform="translate(-39.0087890625 0)"><g fill="#ffffff" stroke="#000000" stroke-width="2"><rect x="0" y="0" width="78.017578125" height="18" rx="9" ry="9"/><text xml:space="preserve" x="9" y="12.3427734375" stroke="none" font-family="sans-serif" font-size="12" font-weight="normal" fill="#000000">Tom Hanks</text></g></g></g></g></g></g><g class="node"><g fill="#fe9200" stroke="#e27300" stroke-width="2"><circle cx="165.48607883238245" cy="-28.217542821577894" r="51"/></g><g transform="translate(165.48607883238245 -28.217542821577894)"><g transform="scale(1) translate(0 -9)"><g transform="translate(0 0)"><g transform="translate(-36.345703125 0)"><g fill="#ffffff" stroke="#000000" stroke-width="2"><rect x="0" y="0" width="72.69140625" height="18" rx="9" ry="9"/><text xml:space="preserve" x="9" y="12.3427734375" stroke="none" font-family="sans-serif" font-size="12" font-weight="normal" fill="#000000">Meg Ryan</text></g></g></g></g></g></g><g class="node"><g fill="#fe9200" stroke="#e27300" stroke-width="2"><circle cx="393.1617835610646" cy="-198.87568088749236" r="51"/></g><g transform="translate(393.1617835610646 -198.87568088749236)"><g transform="scale(0.9337168552324832) translate(0 -9)"><g transform="translate(0 0)"><g transform="translate(-47.3466796875 0)"><g fill="#ffffff" stroke="#000000" stroke-width="2"><rect x="0" y="0" width="94.693359375" height="18" rx="9" ry="9"/><text xml:space="preserve" x="9" y="12.3427734375" stroke="none" font-family="sans-serif" font-size="12" font-weight="normal" fill="#000000">Ross Malinger</text></g></g></g></g></g></g><g class="node"><g fill="#fe9200" stroke="#e27300" stroke-width="2"><circle cx="558.2868202873809" cy="-173.35670960200662" r="51"/></g><g transform="translate(558.2868202873809 -173.35670960200662)"><g transform="scale(1) translate(0 -9)"><g transform="translate(0 0)"><g transform="translate(-39.33984375 0)"><g fill="#ffffff" stroke="#000000" stroke-width="2"><rect x="0" y="0" width="78.6796875" height="18" rx="9" ry="9"/><text xml:space="preserve" x="9" y="12.3427734375" stroke="none" font-family="sans-serif" font-size="12" font-weight="normal" fill="#000000">Rita Wilson</text></g></g></g></g></g></g><g class="node"><g fill="#fe9200" stroke="#e27300" stroke-width="2"><circle cx="654.8372163556578" cy="-28.217542821577894" r="51"/></g><g transform="translate(654.8372163556578 -28.217542821577894)"><g transform="scale(1) translate(0 -9)"><g transform="translate(0 0)"><g transform="translate(-40.3447265625 0)"><g fill="#ffffff" stroke="#000000" stroke-width="2"><rect x="0" y="0" width="80.689453125" height="18" rx="9" ry="9"/><text xml:space="preserve" x="9" y="12.3427734375" stroke="none" font-family="sans-serif" font-size="12" font-weight="normal" fill="#000000">Bill Pullman</text></g></g></g></g></g></g><g class="node"><g fill="#fe9200" stroke="#e27300" stroke-width="2"><circle cx="661.6662038921878" cy="117.15288570766297" r="51"/></g><g transform="translate(661.6662038921878 117.15288570766297)"><g transform="scale(0.8500720331142476) translate(0 -9)"><g transform="translate(0 0)"><g transform="translate(-52.166015625 0)"><g fill="#ffffff" stroke="#000000" stroke-width="2"><rect x="0" y="0" width="104.33203125" height="18" rx="9" ry="9"/><text xml:space="preserve" x="9" y="12.3427734375" stroke="none" font-family="sans-serif" font-size="12" font-weight="normal" fill="#000000">Rosie O'Donnell</text></g></g></g></g></g></g><g class="node"><g fill="#fe9200" stroke="#e27300" stroke-width="2"><circle cx="586.2740138447973" cy="241.63266013470536" r="51"/></g><g transform="translate(586.2740138447973 241.63266013470536)"><g transform="scale(0.9293320425943853) translate(0 -9)"><g transform="translate(0 0)"><g transform="translate(-47.578125 0)"><g fill="#ffffff" stroke="#000000" stroke-width="2"><rect x="0" y="0" width="95.15625" height="18" rx="9" ry="9"/><text xml:space="preserve" x="9" y="12.3427734375" stroke="none" font-family="sans-serif" font-size="12" font-weight="normal" fill="#000000">Gaby Hoffman</text></g></g></g></g></g></g><g class="node"><g fill="#fe9200" stroke="#e27300" stroke-width="2"><circle cx="419.69857335804204" cy="278.5489950189957" r="51"/></g><g transform="translate(419.69857335804204 278.5489950189957)"><g transform="scale(0.9896237959228532) translate(0 -9)"><g transform="translate(0 0)"><g transform="translate(-44.572265625 0)"><g fill="#ffffff" stroke="#000000" stroke-width="2"><rect x="0" y="0" width="89.14453125" height="18" rx="9" ry="9"/><text xml:space="preserve" x="9" y="12.3427734375" stroke="none" font-family="sans-serif" font-size="12" font-weight="normal" fill="#000000">Victor Garber</text></g></g></g></g></g></g><g class="node"><g fill="#fe9200" stroke="#e27300" stroke-width="2"><circle cx="253.12313287128677" cy="241.63266013470536" r="51"/></g><g transform="translate(253.12313287128677 241.63266013470536)"><g transform="scale(0.8744308641451195) translate(0 -9)"><g transform="translate(0 0)"><g transform="translate(-50.6689453125 0)"><g fill="#ffffff" stroke="#000000" stroke-width="2"><rect x="0" y="0" width="101.337890625" height="18" rx="9" ry="9"/><text xml:space="preserve" x="9" y="12.3427734375" stroke="none" font-family="sans-serif" font-size="12" font-weight="normal" fill="#000000">Tom Riis Farrell</text></g></g></g></g></g></g><g class="node"><g fill="#fe9200" stroke="#e27300" stroke-width="2"><circle cx="177.7309428238963" cy="117.15288570766297" r="51"/></g><g transform="translate(177.7309428238963 117.15288570766297)"><g transform="scale(1) translate(0 -9)"><g transform="translate(0 0)"><g transform="translate(-43.681640625 0)"><g fill="#ffffff" stroke="#000000" stroke-width="2"><rect x="0" y="0" width="87.36328125" height="18" rx="9" ry="9"/><text xml:space="preserve" x="9" y="12.3427734375" stroke="none" font-family="sans-serif" font-size="12" font-weight="normal" fill="#000000">Carey Lowell</text></g></g></g></g></g></g></g></svg>