<svg width="479" height="128" viewBox="0 0 479 128" fill="none" xmlns="http://www.w3.org/2000/svg">
<path d="M351 64C351 28.6538 379.654 0 415 0C450.346 0 479 28.6538 479 64C479 99.3462 450.346 128 415 128C379.654 128 351 99.3462 351 64Z" fill="#56C7E4"/>
<path d="M382.641 69.14C381.731 69.14 380.954 68.9323 380.31 68.517C379.671 68.1017 379.181 67.5043 378.84 66.725C378.504 65.9457 378.336 65.0053 378.336 63.904C378.336 62.8073 378.504 61.874 378.84 61.104C379.176 60.334 379.664 59.7483 380.303 59.347C380.947 58.941 381.726 58.738 382.641 58.738C383.355 58.738 383.987 58.8873 384.538 59.186C385.089 59.48 385.532 59.8743 385.868 60.369C386.204 60.8637 386.402 61.4073 386.463 62H385.084C385.009 61.6033 384.867 61.244 384.657 60.922C384.447 60.6 384.172 60.3433 383.831 60.152C383.49 59.9607 383.082 59.865 382.606 59.865C381.995 59.865 381.477 60.0097 381.052 60.299C380.632 60.5837 380.312 61.0247 380.093 61.622C379.878 62.2193 379.771 62.9847 379.771 63.918C379.771 65.3273 380.011 66.3633 380.492 67.026C380.977 67.684 381.682 68.013 382.606 68.013C383.082 68.013 383.49 67.9127 383.831 67.712C384.172 67.5113 384.447 67.243 384.657 66.907C384.867 66.571 385.009 66.207 385.084 65.815H386.463C386.412 66.2443 386.295 66.6597 386.113 67.061C385.936 67.4577 385.691 67.8123 385.378 68.125C385.065 68.4377 384.68 68.685 384.223 68.867C383.77 69.049 383.243 69.14 382.641 69.14ZM390.117 69.091C389.725 69.091 389.407 69.0373 389.165 68.93C388.927 68.8227 388.742 68.678 388.612 68.496C388.486 68.314 388.399 68.1063 388.353 67.873C388.311 67.635 388.29 67.39 388.29 67.138V58.598H389.564V67.012C389.564 67.376 389.634 67.649 389.774 67.831C389.918 68.013 390.119 68.1133 390.376 68.132L390.768 68.139V68.979C390.66 69.0117 390.548 69.0373 390.432 69.056C390.315 69.0793 390.21 69.091 390.117 69.091ZM395.084 69.14C394.417 69.14 393.834 68.9977 393.334 68.713C392.84 68.4237 392.455 68.0013 392.179 67.446C391.904 66.8907 391.766 66.2117 391.766 65.409C391.766 64.653 391.895 63.9903 392.151 63.421C392.408 62.8517 392.784 62.4107 393.278 62.098C393.773 61.7807 394.377 61.622 395.091 61.622C395.759 61.622 396.337 61.769 396.827 62.063C397.317 62.3523 397.698 62.7793 397.968 63.344C398.244 63.9087 398.381 64.597 398.381 65.409C398.381 66.1463 398.255 66.795 398.003 67.355C397.751 67.915 397.38 68.3537 396.89 68.671C396.405 68.9837 395.803 69.14 395.084 69.14ZM395.091 68.118C395.521 68.118 395.885 68.0083 396.183 67.789C396.482 67.5697 396.708 67.2547 396.862 66.844C397.021 66.4333 397.1 65.9457 397.1 65.381C397.1 64.863 397.03 64.3987 396.89 63.988C396.755 63.5727 396.54 63.2437 396.246 63.001C395.952 62.7583 395.567 62.637 395.091 62.637C394.653 62.637 394.282 62.7467 393.978 62.966C393.675 63.1807 393.444 63.4933 393.285 63.904C393.131 64.3147 393.054 64.807 393.054 65.381C393.054 65.8897 393.122 66.3517 393.257 66.767C393.397 67.1823 393.617 67.5113 393.915 67.754C394.219 67.9967 394.611 68.118 395.091 68.118ZM402.735 69.14C402.357 69.1353 402 69.0817 401.664 68.979C401.333 68.8717 401.039 68.7153 400.782 68.51C400.525 68.3047 400.322 68.0503 400.173 67.747C400.028 67.439 399.956 67.082 399.956 66.676V61.762H401.251V66.543C401.251 67.0143 401.396 67.397 401.685 67.691C401.979 67.985 402.42 68.132 403.008 68.132C403.54 68.132 403.967 67.9943 404.289 67.719C404.616 67.439 404.779 67.0237 404.779 66.473V61.762H406.067V69H405.038L404.905 67.614C404.816 67.978 404.665 68.272 404.45 68.496C404.24 68.72 403.986 68.8857 403.687 68.993C403.393 69.0957 403.076 69.1447 402.735 69.14ZM410.835 69.14C409.892 69.14 409.146 68.818 408.595 68.174C408.049 67.53 407.776 66.5897 407.776 65.353C407.776 64.6017 407.886 63.946 408.105 63.386C408.324 62.826 408.653 62.392 409.092 62.084C409.531 61.776 410.077 61.622 410.73 61.622C411.08 61.622 411.388 61.6663 411.654 61.755C411.92 61.8437 412.151 61.9557 412.347 62.091C412.543 62.2263 412.702 62.3663 412.823 62.511C412.949 62.6557 413.042 62.7887 413.103 62.91V58.598H414.412V69H413.418L413.278 67.516C413.231 67.656 413.157 67.8193 413.054 68.006C412.951 68.188 412.807 68.3677 412.62 68.545C412.438 68.7177 412.2 68.86 411.906 68.972C411.612 69.084 411.255 69.14 410.835 69.14ZM411.066 68.146C411.794 68.146 412.314 67.9243 412.627 67.481C412.944 67.033 413.103 66.3027 413.103 65.29C413.098 64.7253 413.028 64.2447 412.893 63.848C412.758 63.4513 412.543 63.1503 412.249 62.945C411.96 62.735 411.572 62.63 411.087 62.63C410.494 62.63 410.011 62.8423 409.638 63.267C409.265 63.6917 409.078 64.366 409.078 65.29C409.078 66.1953 409.246 66.8977 409.582 67.397C409.918 67.8963 410.413 68.146 411.066 68.146ZM419.464 69L423.125 58.878H424.588L428.249 69H426.926L425.932 66.228H421.781L420.78 69H419.464ZM422.124 65.038H425.575L423.853 60.145L422.124 65.038ZM431.781 69.035C431.281 69.035 430.894 68.9673 430.619 68.832C430.343 68.6967 430.15 68.496 430.038 68.23C429.93 67.964 429.877 67.6373 429.877 67.25V62.707H428.701V61.762H429.912L430.227 59.655H431.179V61.755H432.81V62.707H431.179V67.208C431.179 67.4647 431.204 67.6537 431.256 67.775C431.312 67.8917 431.403 67.9663 431.529 67.999C431.655 68.0317 431.832 68.048 432.061 68.048H432.852V68.916C432.763 68.9487 432.628 68.9767 432.446 69C432.268 69.0233 432.047 69.035 431.781 69.035ZM436.396 69.091C436.004 69.091 435.687 69.0373 435.444 68.93C435.206 68.8227 435.022 68.678 434.891 68.496C434.765 68.314 434.679 68.1063 434.632 67.873C434.59 67.635 434.569 67.39 434.569 67.138V58.598H435.843V67.012C435.843 67.376 435.913 67.649 436.053 67.831C436.198 68.013 436.398 68.1133 436.655 68.132L437.047 68.139V68.979C436.94 69.0117 436.828 69.0373 436.711 69.056C436.594 69.0793 436.489 69.091 436.396 69.091ZM440.769 69.14C440.298 69.14 439.882 69.0583 439.523 68.895C439.168 68.727 438.888 68.4867 438.683 68.174C438.482 67.8613 438.382 67.4833 438.382 67.04C438.382 66.2373 438.662 65.64 439.222 65.248C439.782 64.856 440.68 64.646 441.917 64.618L443.205 64.583V64.016C443.205 63.5727 443.072 63.2227 442.806 62.966C442.54 62.7047 442.129 62.574 441.574 62.574C441.159 62.5787 440.792 62.6767 440.475 62.868C440.158 63.0593 439.955 63.372 439.866 63.806H438.725C438.753 63.3347 438.884 62.938 439.117 62.616C439.355 62.2893 439.689 62.042 440.118 61.874C440.547 61.706 441.054 61.622 441.637 61.622C442.267 61.622 442.79 61.7107 443.205 61.888C443.625 62.0653 443.938 62.3267 444.143 62.672C444.353 63.0173 444.458 63.442 444.458 63.946V69H443.352L443.254 67.642C442.979 68.2067 442.624 68.5987 442.19 68.818C441.761 69.0327 441.287 69.14 440.769 69.14ZM441.154 68.209C441.401 68.209 441.644 68.1647 441.882 68.076C442.125 67.9873 442.344 67.8683 442.54 67.719C442.741 67.565 442.902 67.3947 443.023 67.208C443.144 67.0167 443.205 66.8207 443.205 66.62V65.381L442.134 65.402C441.579 65.4113 441.117 65.4673 440.748 65.57C440.379 65.6727 440.102 65.8337 439.915 66.053C439.728 66.2723 439.635 66.5593 439.635 66.914C439.635 67.32 439.777 67.6373 440.062 67.866C440.347 68.0947 440.711 68.209 441.154 68.209ZM449.013 69.14C448.509 69.14 448.04 69.063 447.606 68.909C447.177 68.7503 446.82 68.5053 446.535 68.174C446.25 67.838 446.073 67.411 446.003 66.893H447.179C447.24 67.1777 447.356 67.4157 447.529 67.607C447.702 67.7937 447.914 67.936 448.166 68.034C448.423 68.1273 448.703 68.174 449.006 68.174C449.496 68.174 449.89 68.083 450.189 67.901C450.488 67.719 450.637 67.439 450.637 67.061C450.637 66.795 450.558 66.5827 450.399 66.424C450.245 66.2607 450.002 66.1417 449.671 66.067L448.173 65.696C447.59 65.556 447.123 65.3367 446.773 65.038C446.428 64.7393 446.253 64.3217 446.248 63.785C446.248 63.3603 446.351 62.987 446.556 62.665C446.761 62.343 447.067 62.0887 447.473 61.902C447.884 61.7153 448.395 61.622 449.006 61.622C449.795 61.622 450.429 61.7993 450.91 62.154C451.391 62.504 451.643 63.0197 451.666 63.701H450.518C450.471 63.3557 450.317 63.0827 450.056 62.882C449.795 62.6767 449.44 62.574 448.992 62.574C448.535 62.574 448.159 62.6673 447.865 62.854C447.576 63.036 447.431 63.3207 447.431 63.708C447.431 63.9647 447.534 64.1677 447.739 64.317C447.949 64.4617 448.252 64.583 448.649 64.681L450.105 65.045C450.436 65.1337 450.712 65.2503 450.931 65.395C451.15 65.5397 451.323 65.7007 451.449 65.878C451.575 66.0553 451.664 66.242 451.715 66.438C451.771 66.6293 451.799 66.8137 451.799 66.991C451.799 67.4343 451.689 67.817 451.47 68.139C451.251 68.4563 450.933 68.7037 450.518 68.881C450.103 69.0537 449.601 69.14 449.013 69.14Z" fill="black"/>
<path d="M0 64C0 28.6538 28.6538 0 64 0C99.3462 0 128 28.6538 128 64C128 99.3462 99.3462 128 64 128C28.6538 128 0 99.3462 0 64Z" fill="#FFDF81"/>
<path d="M31.5656 69V60.068H28.2966V58.878H35.9546V60.068H32.8676V69H31.5656ZM39.2854 69.14C38.6181 69.14 38.0347 68.9977 37.5354 68.713C37.0407 68.4237 36.6557 68.0013 36.3804 67.446C36.1051 66.8907 35.9674 66.2117 35.9674 65.409C35.9674 64.653 36.0957 63.9903 36.3524 63.421C36.6091 62.8517 36.9847 62.4107 37.4794 62.098C37.9741 61.7807 38.5784 61.622 39.2924 61.622C39.9597 61.622 40.5384 61.769 41.0284 62.063C41.5184 62.3523 41.8987 62.7793 42.1694 63.344C42.4447 63.9087 42.5824 64.597 42.5824 65.409C42.5824 66.1463 42.4564 66.795 42.2044 67.355C41.9524 67.915 41.5814 68.3537 41.0914 68.671C40.6061 68.9837 40.0041 69.14 39.2854 69.14ZM39.2924 68.118C39.7217 68.118 40.0857 68.0083 40.3844 67.789C40.6831 67.5697 40.9094 67.2547 41.0634 66.844C41.2221 66.4333 41.3014 65.9457 41.3014 65.381C41.3014 64.863 41.2314 64.3987 41.0914 63.988C40.9561 63.5727 40.7414 63.2437 40.4474 63.001C40.1534 62.7583 39.7684 62.637 39.2924 62.637C38.8537 62.637 38.4827 62.7467 38.1794 62.966C37.8761 63.1807 37.6451 63.4933 37.4864 63.904C37.3324 64.3147 37.2554 64.807 37.2554 65.381C37.2554 65.8897 37.3231 66.3517 37.4584 66.767C37.5984 67.1823 37.8177 67.5113 38.1164 67.754C38.4197 67.9967 38.8117 68.118 39.2924 68.118ZM44.3034 69V61.762H45.5494V62.812C45.7501 62.4947 46.0254 62.217 46.3754 61.979C46.7254 61.741 47.1804 61.622 47.7404 61.622C48.0018 61.622 48.2678 61.6663 48.5384 61.755C48.8138 61.8437 49.0658 61.9767 49.2944 62.154C49.5231 62.3313 49.7004 62.5483 49.8264 62.805C50.0504 62.4503 50.3538 62.1657 50.7364 61.951C51.1191 61.7317 51.5508 61.622 52.0314 61.622C52.2834 61.622 52.5471 61.6617 52.8224 61.741C53.0978 61.8157 53.3521 61.951 53.5854 62.147C53.8234 62.3383 54.0171 62.6067 54.1664 62.952C54.3158 63.2927 54.3904 63.7313 54.3904 64.268V69H53.0884V64.394C53.0884 63.9553 53.0184 63.617 52.8784 63.379C52.7384 63.1363 52.5541 62.966 52.3254 62.868C52.1014 62.77 51.8611 62.721 51.6044 62.721C51.3804 62.721 51.1424 62.7653 50.8904 62.854C50.6384 62.9427 50.4238 63.092 50.2464 63.302C50.0691 63.512 49.9804 63.799 49.9804 64.163V69H48.6924V64.016C48.6924 63.7313 48.6154 63.4933 48.4614 63.302C48.3121 63.1107 48.1231 62.966 47.8944 62.868C47.6704 62.77 47.4464 62.721 47.2224 62.721C46.9751 62.721 46.7254 62.77 46.4734 62.868C46.2261 62.966 46.0161 63.1223 45.8434 63.337C45.6754 63.547 45.5914 63.8223 45.5914 64.163V69H44.3034ZM60.087 69V58.878H61.382V63.19H66.842V58.878H68.137V69H66.842V64.331H61.382V69H60.087ZM72.5287 69.14C72.0574 69.14 71.6421 69.0583 71.2827 68.895C70.9281 68.727 70.6481 68.4867 70.4427 68.174C70.2421 67.8613 70.1417 67.4833 70.1417 67.04C70.1417 66.2373 70.4217 65.64 70.9817 65.248C71.5417 64.856 72.4401 64.646 73.6767 64.618L74.9647 64.583V64.016C74.9647 63.5727 74.8317 63.2227 74.5657 62.966C74.2997 62.7047 73.8891 62.574 73.3337 62.574C72.9184 62.5787 72.5521 62.6767 72.2347 62.868C71.9174 63.0593 71.7144 63.372 71.6257 63.806H70.4847C70.5127 63.3347 70.6434 62.938 70.8767 62.616C71.1147 62.2893 71.4484 62.042 71.8777 61.874C72.3071 61.706 72.8134 61.622 73.3967 61.622C74.0267 61.622 74.5494 61.7107 74.9647 61.888C75.3847 62.0653 75.6974 62.3267 75.9027 62.672C76.1127 63.0173 76.2177 63.442 76.2177 63.946V69H75.1117L75.0137 67.642C74.7384 68.2067 74.3837 68.5987 73.9497 68.818C73.5204 69.0327 73.0467 69.14 72.5287 69.14ZM72.9137 68.209C73.1611 68.209 73.4037 68.1647 73.6417 68.076C73.8844 67.9873 74.1037 67.8683 74.2997 67.719C74.5004 67.565 74.6614 67.3947 74.7827 67.208C74.9041 67.0167 74.9647 66.8207 74.9647 66.62V65.381L73.8937 65.402C73.3384 65.4113 72.8764 65.4673 72.5077 65.57C72.1391 65.6727 71.8614 65.8337 71.6747 66.053C71.4881 66.2723 71.3947 66.5593 71.3947 66.914C71.3947 67.32 71.5371 67.6373 71.8217 67.866C72.1064 68.0947 72.4704 68.209 72.9137 68.209ZM78.237 69V61.762H79.49V62.812C79.6067 62.6113 79.7677 62.4223 79.973 62.245C80.183 62.0677 80.435 61.9253 80.729 61.818C81.0277 61.7107 81.3707 61.657 81.758 61.657C82.2153 61.657 82.6353 61.748 83.018 61.93C83.4053 62.112 83.7133 62.3967 83.942 62.784C84.1753 63.1667 84.292 63.6613 84.292 64.268V69H82.997V64.394C82.997 63.8293 82.8477 63.4117 82.549 63.141C82.255 62.8657 81.8723 62.728 81.401 62.728C81.0743 62.728 80.7687 62.7817 80.484 62.889C80.1993 62.9917 79.9683 63.1503 79.791 63.365C79.6137 63.575 79.525 63.841 79.525 64.163V69H78.237ZM86.3171 69V58.598H87.6051V65.381L91.0071 61.762H92.4911L89.8801 64.52L92.6731 69H91.3011L89.0331 65.367L87.6051 66.844V69H86.3171ZM96.6184 69.14C96.1144 69.14 95.6454 69.063 95.2114 68.909C94.782 68.7503 94.425 68.5053 94.1404 68.174C93.8557 67.838 93.6784 67.411 93.6084 66.893H94.7844C94.845 67.1777 94.9617 67.4157 95.1344 67.607C95.307 67.7937 95.5194 67.936 95.7714 68.034C96.028 68.1273 96.308 68.174 96.6114 68.174C97.1014 68.174 97.4957 68.083 97.7944 67.901C98.093 67.719 98.2424 67.439 98.2424 67.061C98.2424 66.795 98.163 66.5827 98.0044 66.424C97.8504 66.2607 97.6077 66.1417 97.2764 66.067L95.7784 65.696C95.195 65.556 94.7284 65.3367 94.3784 65.038C94.033 64.7393 93.858 64.3217 93.8534 63.785C93.8534 63.3603 93.956 62.987 94.1614 62.665C94.3667 62.343 94.6724 62.0887 95.0784 61.902C95.489 61.7153 96 61.622 96.6114 61.622C97.4 61.622 98.0347 61.7993 98.5154 62.154C98.996 62.504 99.248 63.0197 99.2714 63.701H98.1234C98.0767 63.3557 97.9227 63.0827 97.6614 62.882C97.4 62.6767 97.0454 62.574 96.5974 62.574C96.14 62.574 95.7644 62.6673 95.4704 62.854C95.181 63.036 95.0364 63.3207 95.0364 63.708C95.0364 63.9647 95.139 64.1677 95.3444 64.317C95.5544 64.4617 95.8577 64.583 96.2544 64.681L97.7104 65.045C98.0417 65.1337 98.317 65.2503 98.5364 65.395C98.7557 65.5397 98.9284 65.7007 99.0544 65.878C99.1804 66.0553 99.269 66.242 99.3204 66.438C99.3764 66.6293 99.4044 66.8137 99.4044 66.991C99.4044 67.4343 99.2947 67.817 99.0754 68.139C98.856 68.4563 98.5387 68.7037 98.1234 68.881C97.708 69.0537 97.2064 69.14 96.6184 69.14Z" fill="black"/>
<path d="M348.207 64.7071C348.598 64.3166 348.598 63.6834 348.207 63.2929L341.843 56.9289C341.453 56.5384 340.819 56.5384 340.429 56.9289C340.038 57.3195 340.038 57.9526 340.429 58.3431L346.086 64L340.429 69.6569C340.038 70.0474 340.038 70.6805 340.429 71.0711C340.819 71.4616 341.453 71.4616 341.843 71.0711L348.207 64.7071ZM281.458 63C280.906 63 280.458 63.4477 280.458 64C280.458 64.5523 280.906 65 281.458 65V64V63ZM190.458 65C191.01 65 191.458 64.5523 191.458 64C191.458 63.4477 191.01 63 190.458 63V64V65ZM131.5 63C130.948 63 130.5 63.4477 130.5 64C130.5 64.5523 130.948 65 131.5 65V64V63ZM347.5 64V63H281.458V64V65H347.5V64ZM190.458 64V63H131.5V64V65H190.458V64Z" fill="black" fill-opacity="0.8"/>
<path d="M200.328 70H198.464L202.651 58.3636H204.68L208.867 70H207.004L203.714 60.4773H203.623L200.328 70ZM200.64 65.4432H206.686V66.9205H200.64V65.4432ZM219.49 62.1477H217.717C217.649 61.7689 217.522 61.4356 217.336 61.1477C217.151 60.8598 216.923 60.6155 216.654 60.4148C216.385 60.214 216.084 60.0625 215.751 59.9602C215.421 59.858 215.071 59.8068 214.7 59.8068C214.029 59.8068 213.429 59.9754 212.899 60.3125C212.372 60.6496 211.956 61.1439 211.649 61.7955C211.346 62.447 211.194 63.2424 211.194 64.1818C211.194 65.1288 211.346 65.928 211.649 66.5795C211.956 67.2311 212.374 67.7235 212.904 68.0568C213.435 68.3902 214.031 68.5568 214.694 68.5568C215.062 68.5568 215.41 68.5076 215.74 68.4091C216.073 68.3068 216.374 68.1572 216.643 67.9602C216.912 67.7633 217.139 67.5227 217.325 67.2386C217.514 66.9508 217.645 66.6212 217.717 66.25L219.49 66.2557C219.395 66.8277 219.211 67.3542 218.938 67.8352C218.67 68.3125 218.323 68.7254 217.899 69.0739C217.478 69.4186 216.997 69.6856 216.456 69.875C215.914 70.0644 215.323 70.1591 214.683 70.1591C213.675 70.1591 212.778 69.9205 211.99 69.4432C211.202 68.9621 210.581 68.2746 210.126 67.3807C209.675 66.4867 209.45 65.4205 209.45 64.1818C209.45 62.9394 209.677 61.8731 210.132 60.983C210.586 60.089 211.207 59.4034 211.995 58.9261C212.783 58.4451 213.679 58.2045 214.683 58.2045C215.3 58.2045 215.876 58.2936 216.41 58.4716C216.948 58.6458 217.431 58.9034 217.859 59.2443C218.287 59.5814 218.641 59.9943 218.921 60.483C219.202 60.9678 219.391 61.5227 219.49 62.1477ZM220.841 59.875V58.3636H229.846V59.875H226.216V70H224.466V59.875H220.841ZM231.66 70V58.3636H238.956V59.875H233.416V63.4205H238.575V64.9261H233.416V68.4886H239.024V70H231.66ZM244.892 70H241.125V58.3636H245.011C246.151 58.3636 247.131 58.5966 247.949 59.0625C248.767 59.5246 249.394 60.1894 249.83 61.0568C250.269 61.9205 250.489 62.9564 250.489 64.1648C250.489 65.3769 250.267 66.4186 249.824 67.2898C249.384 68.161 248.748 68.8314 247.915 69.3011C247.081 69.767 246.074 70 244.892 70ZM242.881 68.4659H244.795C245.682 68.4659 246.419 68.2992 247.006 67.9659C247.593 67.6288 248.032 67.142 248.324 66.5057C248.616 65.8655 248.761 65.0852 248.761 64.1648C248.761 63.2519 248.616 62.4773 248.324 61.8409C248.036 61.2045 247.606 60.7216 247.034 60.392C246.462 60.0625 245.752 59.8977 244.903 59.8977H242.881V68.4659ZM257.952 70V71.4432H250.56V70H257.952ZM260.794 58.3636V70H259.039V58.3636H260.794ZM272.567 58.3636V70H270.954L265.039 61.4659H264.931V70H263.175V58.3636H264.8L270.721 66.9091H270.829V58.3636H272.567Z" fill="black" fill-opacity="0.8"/>
</svg>
