<svg width="614" height="128" viewBox="0 0 614 128" fill="none" xmlns="http://www.w3.org/2000/svg">
<path d="M324 64C324 28.6538 352.654 0 388 0C423.346 0 452 28.6538 452 64C452 99.3462 423.346 128 388 128C352.654 128 324 99.3462 324 64Z" fill="#56C7E4"/>
<path d="M344.616 69V58.878H350.923L350.916 60.012H345.946V63.358H350.412V64.478H345.946V69H344.616ZM355.356 69.14C354.688 69.14 354.105 68.9977 353.606 68.713C353.111 68.4237 352.726 68.0013 352.451 67.446C352.175 66.8907 352.038 66.2117 352.038 65.409C352.038 64.653 352.166 63.9903 352.423 63.421C352.679 62.8517 353.055 62.4107 353.55 62.098C354.044 61.7807 354.649 61.622 355.363 61.622C356.03 61.622 356.609 61.769 357.099 62.063C357.589 62.3523 357.969 62.7793 358.24 63.344C358.515 63.9087 358.653 64.597 358.653 65.409C358.653 66.1463 358.527 66.795 358.275 67.355C358.023 67.915 357.652 68.3537 357.162 68.671C356.676 68.9837 356.074 69.14 355.356 69.14ZM355.363 68.118C355.792 68.118 356.156 68.0083 356.455 67.789C356.753 67.5697 356.98 67.2547 357.134 66.844C357.292 66.4333 357.372 65.9457 357.372 65.381C357.372 64.863 357.302 64.3987 357.162 63.988C357.026 63.5727 356.812 63.2437 356.518 63.001C356.224 62.7583 355.839 62.637 355.363 62.637C354.924 62.637 354.553 62.7467 354.25 62.966C353.946 63.1807 353.715 63.4933 353.557 63.904C353.403 64.3147 353.326 64.807 353.326 65.381C353.326 65.8897 353.393 66.3517 353.529 66.767C353.669 67.1823 353.888 67.5113 354.187 67.754C354.49 67.9967 354.882 68.118 355.363 68.118ZM360.374 69V61.762H361.606V63.155C361.727 62.8097 361.897 62.525 362.117 62.301C362.336 62.0723 362.586 61.902 362.866 61.79C363.15 61.678 363.444 61.622 363.748 61.622C363.855 61.622 363.96 61.629 364.063 61.643C364.165 61.657 364.245 61.6803 364.301 61.713V62.966C364.231 62.9333 364.14 62.9123 364.028 62.903C363.92 62.889 363.829 62.882 363.755 62.882C363.465 62.8633 363.195 62.882 362.943 62.938C362.691 62.9893 362.469 63.0803 362.278 63.211C362.086 63.3417 361.935 63.5143 361.823 63.729C361.715 63.939 361.662 64.1957 361.662 64.499V69H360.374ZM365.842 69V61.762H367.074V63.155C367.196 62.8097 367.366 62.525 367.585 62.301C367.805 62.0723 368.054 61.902 368.334 61.79C368.619 61.678 368.913 61.622 369.216 61.622C369.324 61.622 369.429 61.629 369.531 61.643C369.634 61.657 369.713 61.6803 369.769 61.713V62.966C369.699 62.9333 369.608 62.9123 369.496 62.903C369.389 62.889 369.298 62.882 369.223 62.882C368.934 62.8633 368.663 62.882 368.411 62.938C368.159 62.9893 367.938 63.0803 367.746 63.211C367.555 63.3417 367.403 63.5143 367.291 63.729C367.184 63.939 367.13 64.1957 367.13 64.499V69H365.842ZM374.261 69.14C373.589 69.14 372.996 68.993 372.483 68.699C371.97 68.405 371.568 67.9827 371.279 67.432C370.99 66.8813 370.845 66.221 370.845 65.451C370.845 64.6903 370.976 64.023 371.237 63.449C371.498 62.875 371.876 62.427 372.371 62.105C372.87 61.783 373.47 61.622 374.17 61.622C374.851 61.622 375.428 61.769 375.899 62.063C376.37 62.357 376.727 62.7723 376.97 63.309C377.217 63.841 377.341 64.4733 377.341 65.206V65.682H372.154C372.154 66.1393 372.229 66.5547 372.378 66.928C372.532 67.2967 372.763 67.5907 373.071 67.81C373.379 68.0293 373.769 68.139 374.24 68.139C374.702 68.139 375.099 68.0317 375.43 67.817C375.766 67.6023 375.981 67.292 376.074 66.886H377.292C377.208 67.376 377.012 67.789 376.704 68.125C376.401 68.461 376.034 68.7153 375.605 68.888C375.18 69.056 374.732 69.14 374.261 69.14ZM372.161 64.807H376.095C376.095 64.3917 376.025 64.0183 375.885 63.687C375.745 63.351 375.53 63.0873 375.241 62.896C374.956 62.7 374.597 62.602 374.163 62.602C373.71 62.602 373.335 62.7117 373.036 62.931C372.737 63.1457 372.516 63.4233 372.371 63.764C372.226 64.1 372.156 64.4477 372.161 64.807ZM381.695 69.14C381.191 69.14 380.722 69.063 380.288 68.909C379.858 68.7503 379.501 68.5053 379.217 68.174C378.932 67.838 378.755 67.411 378.685 66.893H379.861C379.921 67.1777 380.038 67.4157 380.211 67.607C380.383 67.7937 380.596 67.936 380.848 68.034C381.104 68.1273 381.384 68.174 381.688 68.174C382.178 68.174 382.572 68.083 382.871 67.901C383.169 67.719 383.319 67.439 383.319 67.061C383.319 66.795 383.239 66.5827 383.081 66.424C382.927 66.2607 382.684 66.1417 382.353 66.067L380.855 65.696C380.271 65.556 379.805 65.3367 379.455 65.038C379.109 64.7393 378.934 64.3217 378.93 63.785C378.93 63.3603 379.032 62.987 379.238 62.665C379.443 62.343 379.749 62.0887 380.155 61.902C380.565 61.7153 381.076 61.622 381.688 61.622C382.476 61.622 383.111 61.7993 383.592 62.154C384.072 62.504 384.324 63.0197 384.348 63.701H383.2C383.153 63.3557 382.999 63.0827 382.738 62.882C382.476 62.6767 382.122 62.574 381.674 62.574C381.216 62.574 380.841 62.6673 380.547 62.854C380.257 63.036 380.113 63.3207 380.113 63.708C380.113 63.9647 380.215 64.1677 380.421 64.317C380.631 64.4617 380.934 64.583 381.331 64.681L382.787 65.045C383.118 65.1337 383.393 65.2503 383.613 65.395C383.832 65.5397 384.005 65.7007 384.131 65.878C384.257 66.0553 384.345 66.242 384.397 66.438C384.453 66.6293 384.481 66.8137 384.481 66.991C384.481 67.4343 384.371 67.817 384.152 68.139C383.932 68.4563 383.615 68.7037 383.2 68.881C382.784 69.0537 382.283 69.14 381.695 69.14ZM388.675 69.035C388.176 69.035 387.789 68.9673 387.513 68.832C387.238 68.6967 387.044 68.496 386.932 68.23C386.825 67.964 386.771 67.6373 386.771 67.25V62.707H385.595V61.762H386.806L387.121 59.655H388.073V61.755H389.704V62.707H388.073V67.208C388.073 67.4647 388.099 67.6537 388.15 67.775C388.206 67.8917 388.297 67.9663 388.423 67.999C388.549 68.0317 388.727 68.048 388.955 68.048H389.746V68.916C389.658 68.9487 389.522 68.9767 389.34 69C389.163 69.0233 388.941 69.035 388.675 69.035ZM398.851 69.14C397.964 69.14 397.199 68.937 396.555 68.531C395.911 68.1203 395.416 67.53 395.071 66.76C394.726 65.99 394.553 65.059 394.553 63.967C394.553 62.8657 394.728 61.9253 395.078 61.146C395.433 60.3667 395.937 59.7717 396.59 59.361C397.243 58.9457 398.016 58.738 398.907 58.738C399.416 58.738 399.894 58.8267 400.342 59.004C400.79 59.1813 401.187 59.424 401.532 59.732C401.877 60.0353 402.153 60.383 402.358 60.775C402.568 61.167 402.687 61.5753 402.715 62H401.329C401.264 61.6267 401.119 61.279 400.895 60.957C400.671 60.635 400.386 60.376 400.041 60.18C399.7 59.984 399.315 59.886 398.886 59.886C398.303 59.886 397.789 60.0307 397.346 60.32C396.907 60.6047 396.564 61.0457 396.317 61.643C396.074 62.2403 395.953 63.0057 395.953 63.939C395.953 64.6577 396.028 65.2737 396.177 65.787C396.326 66.3003 396.534 66.718 396.8 67.04C397.071 67.3573 397.386 67.593 397.745 67.747C398.109 67.8963 398.501 67.971 398.921 67.971C399.346 67.971 399.714 67.8963 400.027 67.747C400.344 67.5977 400.608 67.4063 400.818 67.173C401.028 66.935 401.189 66.6807 401.301 66.41C401.418 66.1347 401.481 65.871 401.49 65.619L401.532 64.723H399.068V63.771L402.876 63.778V69H401.903V67.46C401.726 67.7493 401.502 68.0223 401.231 68.279C400.96 68.5357 400.629 68.7433 400.237 68.902C399.85 69.0607 399.388 69.14 398.851 69.14ZM407.795 69.14C407.417 69.1353 407.06 69.0817 406.724 68.979C406.393 68.8717 406.099 68.7153 405.842 68.51C405.586 68.3047 405.383 68.0503 405.233 67.747C405.089 67.439 405.016 67.082 405.016 66.676V61.762H406.311V66.543C406.311 67.0143 406.456 67.397 406.745 67.691C407.039 67.985 407.48 68.132 408.068 68.132C408.6 68.132 409.027 67.9943 409.349 67.719C409.676 67.439 409.839 67.0237 409.839 66.473V61.762H411.127V69H410.098L409.965 67.614C409.877 67.978 409.725 68.272 409.51 68.496C409.3 68.72 409.046 68.8857 408.747 68.993C408.453 69.0957 408.136 69.1447 407.795 69.14ZM413.339 69V61.762H414.585V62.812C414.785 62.4947 415.061 62.217 415.411 61.979C415.761 61.741 416.216 61.622 416.776 61.622C417.037 61.622 417.303 61.6663 417.574 61.755C417.849 61.8437 418.101 61.9767 418.33 62.154C418.558 62.3313 418.736 62.5483 418.862 62.805C419.086 62.4503 419.389 62.1657 419.772 61.951C420.154 61.7317 420.586 61.622 421.067 61.622C421.319 61.622 421.582 61.6617 421.858 61.741C422.133 61.8157 422.387 61.951 422.621 62.147C422.859 62.3383 423.052 62.6067 423.202 62.952C423.351 63.2927 423.426 63.7313 423.426 64.268V69H422.124V64.394C422.124 63.9553 422.054 63.617 421.914 63.379C421.774 63.1363 421.589 62.966 421.361 62.868C421.137 62.77 420.896 62.721 420.64 62.721C420.416 62.721 420.178 62.7653 419.926 62.854C419.674 62.9427 419.459 63.092 419.282 63.302C419.104 63.512 419.016 63.799 419.016 64.163V69H417.728V64.016C417.728 63.7313 417.651 63.4933 417.497 63.302C417.347 63.1107 417.158 62.966 416.93 62.868C416.706 62.77 416.482 62.721 416.258 62.721C416.01 62.721 415.761 62.77 415.509 62.868C415.261 62.966 415.051 63.1223 414.879 63.337C414.711 63.547 414.627 63.8223 414.627 64.163V69H413.339ZM425.452 71.254V61.762H426.74L426.754 63.022C426.838 62.8727 426.945 62.7163 427.076 62.553C427.211 62.3897 427.375 62.238 427.566 62.098C427.762 61.958 427.988 61.8437 428.245 61.755C428.506 61.6663 428.803 61.622 429.134 61.622C429.713 61.622 430.221 61.755 430.66 62.021C431.103 62.2823 431.449 62.6837 431.696 63.225C431.943 63.7663 432.067 64.4523 432.067 65.283C432.067 66.1137 431.946 66.816 431.703 67.39C431.465 67.9593 431.12 68.3933 430.667 68.692C430.214 68.9907 429.668 69.14 429.029 69.14C428.707 69.14 428.42 69.0933 428.168 69C427.921 68.9113 427.704 68.7947 427.517 68.65C427.335 68.5007 427.181 68.342 427.055 68.174C426.934 68.006 426.833 67.845 426.754 67.691V71.254H425.452ZM428.784 68.132C429.381 68.132 429.869 67.9057 430.247 67.453C430.625 66.9957 430.814 66.2863 430.814 65.325C430.814 64.499 430.641 63.8433 430.296 63.358C429.951 62.8727 429.447 62.63 428.784 62.63C428.112 62.63 427.603 62.8797 427.258 63.379C426.913 63.8737 426.74 64.5223 426.74 65.325C426.74 65.843 426.817 66.3143 426.971 66.739C427.125 67.1637 427.354 67.502 427.657 67.754C427.96 68.006 428.336 68.132 428.784 68.132Z" fill="black"/>
<path d="M486 64C486 28.6538 514.654 0 550 0C585.346 0 614 28.6538 614 64C614 99.3462 585.346 128 550 128C514.654 128 486 99.3462 486 64Z" fill="#56C7E4"/>
<path d="M507.69 69L507.697 58.878H509.02V67.838H513.801V69H507.69ZM517.301 69.14C516.83 69.14 516.415 69.0583 516.055 68.895C515.701 68.727 515.421 68.4867 515.215 68.174C515.015 67.8613 514.914 67.4833 514.914 67.04C514.914 66.2373 515.194 65.64 515.754 65.248C516.314 64.856 517.213 64.646 518.449 64.618L519.737 64.583V64.016C519.737 63.5727 519.604 63.2227 519.338 62.966C519.072 62.7047 518.662 62.574 518.106 62.574C517.691 62.5787 517.325 62.6767 517.007 62.868C516.69 63.0593 516.487 63.372 516.398 63.806H515.257C515.285 63.3347 515.416 62.938 515.649 62.616C515.887 62.2893 516.221 62.042 516.65 61.874C517.08 61.706 517.586 61.622 518.169 61.622C518.799 61.622 519.322 61.7107 519.737 61.888C520.157 62.0653 520.47 62.3267 520.675 62.672C520.885 63.0173 520.99 63.442 520.99 63.946V69H519.884L519.786 67.642C519.511 68.2067 519.156 68.5987 518.722 68.818C518.293 69.0327 517.819 69.14 517.301 69.14ZM517.686 68.209C517.934 68.209 518.176 68.1647 518.414 68.076C518.657 67.9873 518.876 67.8683 519.072 67.719C519.273 67.565 519.434 67.3947 519.555 67.208C519.677 67.0167 519.737 66.8207 519.737 66.62V65.381L518.666 65.402C518.111 65.4113 517.649 65.4673 517.28 65.57C516.912 65.6727 516.634 65.8337 516.447 66.053C516.261 66.2723 516.167 66.5593 516.167 66.914C516.167 67.32 516.31 67.6373 516.594 67.866C516.879 68.0947 517.243 68.209 517.686 68.209ZM523.009 69V61.762H524.241V63.155C524.363 62.8097 524.533 62.525 524.752 62.301C524.972 62.0723 525.221 61.902 525.501 61.79C525.786 61.678 526.08 61.622 526.383 61.622C526.491 61.622 526.596 61.629 526.698 61.643C526.801 61.657 526.88 61.6803 526.936 61.713V62.966C526.866 62.9333 526.775 62.9123 526.663 62.903C526.556 62.889 526.465 62.882 526.39 62.882C526.101 62.8633 525.83 62.882 525.578 62.938C525.326 62.9893 525.105 63.0803 524.913 63.211C524.722 63.3417 524.57 63.5143 524.458 63.729C524.351 63.939 524.297 64.1957 524.297 64.499V69H523.009ZM528.478 69V61.762H529.71V63.155C529.832 62.8097 530.002 62.525 530.221 62.301C530.441 62.0723 530.69 61.902 530.97 61.79C531.255 61.678 531.549 61.622 531.852 61.622C531.96 61.622 532.065 61.629 532.167 61.643C532.27 61.657 532.349 61.6803 532.405 61.713V62.966C532.335 62.9333 532.244 62.9123 532.132 62.903C532.025 62.889 531.934 62.882 531.859 62.882C531.57 62.8633 531.299 62.882 531.047 62.938C530.795 62.9893 530.574 63.0803 530.382 63.211C530.191 63.3417 530.039 63.5143 529.927 63.729C529.82 63.939 529.766 64.1957 529.766 64.499V69H528.478ZM534.846 71.31C534.421 71.31 534.129 71.2797 533.971 71.219C533.812 71.1583 533.733 71.128 533.733 71.128V70.288L534.475 70.302C534.741 70.3113 534.962 70.2927 535.14 70.246C535.317 70.1993 535.459 70.1363 535.567 70.057C535.674 69.9777 535.756 69.889 535.812 69.791C535.872 69.693 535.921 69.5997 535.959 69.511L536.211 68.825L533.383 61.762H534.692L536.827 67.348L538.948 61.762H540.215L537.17 69.546C536.978 70.0033 536.766 70.3603 536.533 70.617C536.304 70.8737 536.047 71.0533 535.763 71.156C535.483 71.2587 535.177 71.31 534.846 71.31ZM548.957 69.14C548.047 69.14 547.27 68.9323 546.626 68.517C545.986 68.1017 545.496 67.5043 545.156 66.725C544.82 65.9457 544.652 65.0053 544.652 63.904C544.652 62.8073 544.82 61.874 545.156 61.104C545.492 60.334 545.979 59.7483 546.619 59.347C547.263 58.941 548.042 58.738 548.957 58.738C549.671 58.738 550.303 58.8873 550.854 59.186C551.404 59.48 551.848 59.8743 552.184 60.369C552.52 60.8637 552.718 61.4073 552.779 62H551.4C551.325 61.6033 551.183 61.244 550.973 60.922C550.763 60.6 550.487 60.3433 550.147 60.152C549.806 59.9607 549.398 59.865 548.922 59.865C548.31 59.865 547.792 60.0097 547.368 60.299C546.948 60.5837 546.628 61.0247 546.409 61.622C546.194 62.2193 546.087 62.9847 546.087 63.918C546.087 65.3273 546.327 66.3633 546.808 67.026C547.293 67.684 547.998 68.013 548.922 68.013C549.398 68.013 549.806 67.9127 550.147 67.712C550.487 67.5113 550.763 67.243 550.973 66.907C551.183 66.571 551.325 66.207 551.4 65.815H552.779C552.727 66.2443 552.611 66.6597 552.429 67.061C552.251 67.4577 552.006 67.8123 551.694 68.125C551.381 68.4377 550.996 68.685 550.539 68.867C550.086 69.049 549.559 69.14 548.957 69.14ZM554.605 69V61.762H555.837V63.155C555.959 62.8097 556.129 62.525 556.348 62.301C556.568 62.0723 556.817 61.902 557.097 61.79C557.382 61.678 557.676 61.622 557.979 61.622C558.087 61.622 558.192 61.629 558.294 61.643C558.397 61.657 558.476 61.6803 558.532 61.713V62.966C558.462 62.9333 558.371 62.9123 558.259 62.903C558.152 62.889 558.061 62.882 557.986 62.882C557.697 62.8633 557.426 62.882 557.174 62.938C556.922 62.9893 556.701 63.0803 556.509 63.211C556.318 63.3417 556.166 63.5143 556.054 63.729C555.947 63.939 555.893 64.1957 555.893 64.499V69H554.605ZM562.863 69.14C562.195 69.14 561.612 68.9977 561.113 68.713C560.618 68.4237 560.233 68.0013 559.958 67.446C559.682 66.8907 559.545 66.2117 559.545 65.409C559.545 64.653 559.673 63.9903 559.93 63.421C560.186 62.8517 560.562 62.4107 561.057 62.098C561.551 61.7807 562.156 61.622 562.87 61.622C563.537 61.622 564.116 61.769 564.606 62.063C565.096 62.3523 565.476 62.7793 565.747 63.344C566.022 63.9087 566.16 64.597 566.16 65.409C566.16 66.1463 566.034 66.795 565.782 67.355C565.53 67.915 565.159 68.3537 564.669 68.671C564.183 68.9837 563.581 69.14 562.863 69.14ZM562.87 68.118C563.299 68.118 563.663 68.0083 563.962 67.789C564.26 67.5697 564.487 67.2547 564.641 66.844C564.799 66.4333 564.879 65.9457 564.879 65.381C564.879 64.863 564.809 64.3987 564.669 63.988C564.533 63.5727 564.319 63.2437 564.025 63.001C563.731 62.7583 563.346 62.637 562.87 62.637C562.431 62.637 562.06 62.7467 561.757 62.966C561.453 63.1807 561.222 63.4933 561.064 63.904C560.91 64.3147 560.833 64.807 560.833 65.381C560.833 65.8897 560.9 66.3517 561.036 66.767C561.176 67.1823 561.395 67.5113 561.694 67.754C561.997 67.9967 562.389 68.118 562.87 68.118ZM569.318 69L567.078 61.762H568.282L569.934 67.327H570.046L571.677 61.762H572.657L574.351 67.313H574.47L576.052 61.762H577.27L575.072 69H573.798L572.153 63.659L570.578 69H569.318ZM578.709 69V61.762H579.962V62.812C580.078 62.6113 580.239 62.4223 580.445 62.245C580.655 62.0677 580.907 61.9253 581.201 61.818C581.499 61.7107 581.842 61.657 582.23 61.657C582.687 61.657 583.107 61.748 583.49 61.93C583.877 62.112 584.185 62.3967 584.414 62.784C584.647 63.1667 584.764 63.6613 584.764 64.268V69H583.469V64.394C583.469 63.8293 583.319 63.4117 583.021 63.141C582.727 62.8657 582.344 62.728 581.873 62.728C581.546 62.728 581.24 62.7817 580.956 62.889C580.671 62.9917 580.44 63.1503 580.263 63.365C580.085 63.575 579.997 63.841 579.997 64.163V69H578.709ZM589.848 69.14C589.176 69.14 588.583 68.993 588.07 68.699C587.556 68.405 587.155 67.9827 586.866 67.432C586.576 66.8813 586.432 66.221 586.432 65.451C586.432 64.6903 586.562 64.023 586.824 63.449C587.085 62.875 587.463 62.427 587.958 62.105C588.457 61.783 589.057 61.622 589.757 61.622C590.438 61.622 591.014 61.769 591.486 62.063C591.957 62.357 592.314 62.7723 592.557 63.309C592.804 63.841 592.928 64.4733 592.928 65.206V65.682H587.741C587.741 66.1393 587.815 66.5547 587.965 66.928C588.119 67.2967 588.35 67.5907 588.658 67.81C588.966 68.0293 589.355 68.139 589.827 68.139C590.289 68.139 590.685 68.0317 591.017 67.817C591.353 67.6023 591.567 67.292 591.661 66.886H592.879C592.795 67.376 592.599 67.789 592.291 68.125C591.987 68.461 591.621 68.7153 591.192 68.888C590.767 69.056 590.319 69.14 589.848 69.14ZM587.748 64.807H591.682C591.682 64.3917 591.612 64.0183 591.472 63.687C591.332 63.351 591.117 63.0873 590.828 62.896C590.543 62.7 590.184 62.602 589.75 62.602C589.297 62.602 588.921 62.7117 588.623 62.931C588.324 63.1457 588.102 63.4233 587.958 63.764C587.813 64.1 587.743 64.4477 587.748 64.807Z" fill="black"/>
<path d="M162 64C162 28.6538 190.654 0 226 0C261.346 0 290 28.6538 290 64C290 99.3462 261.346 128 226 128C190.654 128 162 99.3462 162 64Z" fill="#FFDF81"/>
<path d="M172.253 69V58.878H176.173C176.901 58.878 177.51 58.99 178 59.214C178.49 59.4333 178.856 59.7507 179.099 60.166C179.342 60.5767 179.463 61.069 179.463 61.643C179.463 62.1937 179.365 62.651 179.169 63.015C178.978 63.379 178.733 63.673 178.434 63.897C178.135 64.1163 177.825 64.2867 177.503 64.408L179.491 69H178.119L176.271 64.639H173.548V69H172.253ZM173.548 63.568H175.753C176.514 63.568 177.102 63.414 177.517 63.106C177.932 62.7933 178.14 62.3313 178.14 61.72C178.14 61.1227 177.953 60.677 177.58 60.383C177.211 60.0843 176.705 59.935 176.061 59.935H173.548V63.568ZM184.127 69.14C183.46 69.14 182.877 68.9977 182.377 68.713C181.883 68.4237 181.498 68.0013 181.222 67.446C180.947 66.8907 180.809 66.2117 180.809 65.409C180.809 64.653 180.938 63.9903 181.194 63.421C181.451 62.8517 181.827 62.4107 182.321 62.098C182.816 61.7807 183.42 61.622 184.134 61.622C184.802 61.622 185.38 61.769 185.87 62.063C186.36 62.3523 186.741 62.7793 187.011 63.344C187.287 63.9087 187.424 64.597 187.424 65.409C187.424 66.1463 187.298 66.795 187.046 67.355C186.794 67.915 186.423 68.3537 185.933 68.671C185.448 68.9837 184.846 69.14 184.127 69.14ZM184.134 68.118C184.564 68.118 184.928 68.0083 185.226 67.789C185.525 67.5697 185.751 67.2547 185.905 66.844C186.064 66.4333 186.143 65.9457 186.143 65.381C186.143 64.863 186.073 64.3987 185.933 63.988C185.798 63.5727 185.583 63.2437 185.289 63.001C184.995 62.7583 184.61 62.637 184.134 62.637C183.696 62.637 183.325 62.7467 183.021 62.966C182.718 63.1807 182.487 63.4933 182.328 63.904C182.174 64.3147 182.097 64.807 182.097 65.381C182.097 65.8897 182.165 66.3517 182.3 66.767C182.44 67.1823 182.66 67.5113 182.958 67.754C183.262 67.9967 183.654 68.118 184.134 68.118ZM192.722 69.14C192.298 69.14 191.938 69.084 191.644 68.972C191.355 68.86 191.117 68.7177 190.93 68.545C190.744 68.3677 190.599 68.188 190.496 68.006C190.394 67.8193 190.319 67.656 190.272 67.516L190.132 69H189.145V58.598H190.447V62.91C190.508 62.7887 190.599 62.6557 190.72 62.511C190.846 62.3663 191.007 62.2263 191.203 62.091C191.399 61.9557 191.63 61.8437 191.896 61.755C192.167 61.6663 192.475 61.622 192.82 61.622C193.726 61.622 194.444 61.937 194.976 62.567C195.513 63.197 195.781 64.1257 195.781 65.353C195.781 66.1137 195.667 66.7787 195.438 67.348C195.21 67.9127 194.869 68.3537 194.416 68.671C193.964 68.9837 193.399 69.14 192.722 69.14ZM192.491 68.146C193.079 68.146 193.558 67.9197 193.926 67.467C194.295 67.0097 194.479 66.284 194.479 65.29C194.479 64.4453 194.307 63.792 193.961 63.33C193.621 62.8633 193.121 62.63 192.463 62.63C191.983 62.63 191.595 62.735 191.301 62.945C191.012 63.1503 190.797 63.4513 190.657 63.848C190.522 64.2447 190.452 64.7253 190.447 65.29C190.447 66.3027 190.604 67.033 190.916 67.481C191.234 67.9243 191.759 68.146 192.491 68.146ZM200.558 69.14C199.886 69.14 199.293 68.993 198.78 68.699C198.266 68.405 197.865 67.9827 197.576 67.432C197.286 66.8813 197.142 66.221 197.142 65.451C197.142 64.6903 197.272 64.023 197.534 63.449C197.795 62.875 198.173 62.427 198.668 62.105C199.167 61.783 199.767 61.622 200.467 61.622C201.148 61.622 201.724 61.769 202.196 62.063C202.667 62.357 203.024 62.7723 203.267 63.309C203.514 63.841 203.638 64.4733 203.638 65.206V65.682H198.451C198.451 66.1393 198.525 66.5547 198.675 66.928C198.829 67.2967 199.06 67.5907 199.368 67.81C199.676 68.0293 200.065 68.139 200.537 68.139C200.999 68.139 201.395 68.0317 201.727 67.817C202.063 67.6023 202.277 67.292 202.371 66.886H203.589C203.505 67.376 203.309 67.789 203.001 68.125C202.697 68.461 202.331 68.7153 201.902 68.888C201.477 69.056 201.029 69.14 200.558 69.14ZM198.458 64.807H202.392C202.392 64.3917 202.322 64.0183 202.182 63.687C202.042 63.351 201.827 63.0873 201.538 62.896C201.253 62.7 200.894 62.602 200.46 62.602C200.007 62.602 199.631 62.7117 199.333 62.931C199.034 63.1457 198.812 63.4233 198.668 63.764C198.523 64.1 198.453 64.4477 198.458 64.807ZM205.428 69V61.762H206.66V63.155C206.782 62.8097 206.952 62.525 207.171 62.301C207.391 62.0723 207.64 61.902 207.92 61.79C208.205 61.678 208.499 61.622 208.802 61.622C208.91 61.622 209.015 61.629 209.117 61.643C209.22 61.657 209.299 61.6803 209.355 61.713V62.966C209.285 62.9333 209.194 62.9123 209.082 62.903C208.975 62.889 208.884 62.882 208.809 62.882C208.52 62.8633 208.249 62.882 207.997 62.938C207.745 62.9893 207.524 63.0803 207.332 63.211C207.141 63.3417 206.989 63.5143 206.877 63.729C206.77 63.939 206.716 64.1957 206.716 64.499V69H205.428ZM213.345 69.035C212.846 69.035 212.458 68.9673 212.183 68.832C211.908 68.6967 211.714 68.496 211.602 68.23C211.495 67.964 211.441 67.6373 211.441 67.25V62.707H210.265V61.762H211.476L211.791 59.655H212.743V61.755H214.374V62.707H212.743V67.208C212.743 67.4647 212.769 67.6537 212.82 67.775C212.876 67.8917 212.967 67.9663 213.093 67.999C213.219 68.0317 213.396 68.048 213.625 68.048H214.416V68.916C214.327 68.9487 214.192 68.9767 214.01 69C213.833 69.0233 213.611 69.035 213.345 69.035ZM219.356 69V68.286L224.9 60.005H219.594V58.878H226.713V59.564L221.12 67.859H226.685V69H219.356ZM231.306 69.14C230.634 69.14 230.041 68.993 229.528 68.699C229.014 68.405 228.613 67.9827 228.324 67.432C228.034 66.8813 227.89 66.221 227.89 65.451C227.89 64.6903 228.02 64.023 228.282 63.449C228.543 62.875 228.921 62.427 229.416 62.105C229.915 61.783 230.515 61.622 231.215 61.622C231.896 61.622 232.472 61.769 232.944 62.063C233.415 62.357 233.772 62.7723 234.015 63.309C234.262 63.841 234.386 64.4733 234.386 65.206V65.682H229.199C229.199 66.1393 229.273 66.5547 229.423 66.928C229.577 67.2967 229.808 67.5907 230.116 67.81C230.424 68.0293 230.813 68.139 231.285 68.139C231.747 68.139 232.143 68.0317 232.475 67.817C232.811 67.6023 233.025 67.292 233.119 66.886H234.337C234.253 67.376 234.057 67.789 233.749 68.125C233.445 68.461 233.079 68.7153 232.65 68.888C232.225 69.056 231.777 69.14 231.306 69.14ZM229.206 64.807H233.14C233.14 64.3917 233.07 64.0183 232.93 63.687C232.79 63.351 232.575 63.0873 232.286 62.896C232.001 62.7 231.642 62.602 231.208 62.602C230.755 62.602 230.379 62.7117 230.081 62.931C229.782 63.1457 229.56 63.4233 229.416 63.764C229.271 64.1 229.201 64.4477 229.206 64.807ZM236.176 69V61.762H237.422V62.812C237.623 62.4947 237.898 62.217 238.248 61.979C238.598 61.741 239.053 61.622 239.613 61.622C239.875 61.622 240.141 61.6663 240.411 61.755C240.687 61.8437 240.939 61.9767 241.167 62.154C241.396 62.3313 241.573 62.5483 241.699 62.805C241.923 62.4503 242.227 62.1657 242.609 61.951C242.992 61.7317 243.424 61.622 243.904 61.622C244.156 61.622 244.42 61.6617 244.695 61.741C244.971 61.8157 245.225 61.951 245.458 62.147C245.696 62.3383 245.89 62.6067 246.039 62.952C246.189 63.2927 246.263 63.7313 246.263 64.268V69H244.961V64.394C244.961 63.9553 244.891 63.617 244.751 63.379C244.611 63.1363 244.427 62.966 244.198 62.868C243.974 62.77 243.734 62.721 243.477 62.721C243.253 62.721 243.015 62.7653 242.763 62.854C242.511 62.9427 242.297 63.092 242.119 63.302C241.942 63.512 241.853 63.799 241.853 64.163V69H240.565V64.016C240.565 63.7313 240.488 63.4933 240.334 63.302C240.185 63.1107 239.996 62.966 239.767 62.868C239.543 62.77 239.319 62.721 239.095 62.721C238.848 62.721 238.598 62.77 238.346 62.868C238.099 62.966 237.889 63.1223 237.716 63.337C237.548 63.547 237.464 63.8223 237.464 64.163V69H236.176ZM251.349 69.14C250.677 69.14 250.084 68.993 249.571 68.699C249.057 68.405 248.656 67.9827 248.367 67.432C248.077 66.8813 247.933 66.221 247.933 65.451C247.933 64.6903 248.063 64.023 248.325 63.449C248.586 62.875 248.964 62.427 249.459 62.105C249.958 61.783 250.558 61.622 251.258 61.622C251.939 61.622 252.515 61.769 252.987 62.063C253.458 62.357 253.815 62.7723 254.058 63.309C254.305 63.841 254.429 64.4733 254.429 65.206V65.682H249.242C249.242 66.1393 249.316 66.5547 249.466 66.928C249.62 67.2967 249.851 67.5907 250.159 67.81C250.467 68.0293 250.856 68.139 251.328 68.139C251.79 68.139 252.186 68.0317 252.518 67.817C252.854 67.6023 253.068 67.292 253.162 66.886H254.38C254.296 67.376 254.1 67.789 253.792 68.125C253.488 68.461 253.122 68.7153 252.693 68.888C252.268 69.056 251.82 69.14 251.349 69.14ZM249.249 64.807H253.183C253.183 64.3917 253.113 64.0183 252.973 63.687C252.833 63.351 252.618 63.0873 252.329 62.896C252.044 62.7 251.685 62.602 251.251 62.602C250.798 62.602 250.422 62.7117 250.124 62.931C249.825 63.1457 249.603 63.4233 249.459 63.764C249.314 64.1 249.244 64.4477 249.249 64.807ZM259.131 69.14C258.478 69.14 257.899 68.9977 257.395 68.713C256.896 68.4283 256.504 68.0083 256.219 67.453C255.939 66.8977 255.799 66.2163 255.799 65.409C255.799 64.653 255.928 63.9927 256.184 63.428C256.446 62.8587 256.824 62.4153 257.318 62.098C257.818 61.7807 258.422 61.622 259.131 61.622C259.649 61.622 260.114 61.7223 260.524 61.923C260.94 62.119 261.28 62.399 261.546 62.763C261.812 63.127 261.976 63.5563 262.036 64.051H260.888C260.846 63.799 260.748 63.568 260.594 63.358C260.445 63.148 260.247 62.98 259.999 62.854C259.757 62.728 259.47 62.665 259.138 62.665C258.518 62.665 258.011 62.889 257.619 63.337C257.232 63.785 257.038 64.471 257.038 65.395C257.038 66.2303 257.216 66.9 257.57 67.404C257.93 67.9033 258.457 68.153 259.152 68.153C259.484 68.153 259.773 68.09 260.02 67.964C260.268 67.8333 260.466 67.663 260.615 67.453C260.765 67.2383 260.86 67.0097 260.902 66.767H262.029C261.969 67.2523 261.803 67.6723 261.532 68.027C261.266 68.3817 260.926 68.657 260.51 68.853C260.1 69.0443 259.64 69.14 259.131 69.14ZM263.753 69V58.598H265.041V65.381L268.443 61.762H269.927L267.316 64.52L270.109 69H268.737L266.469 65.367L265.041 66.844V69H263.753ZM271.649 69V61.762H272.902V69H271.649ZM271.614 60.229V58.885H272.937V60.229H271.614ZM277.677 69.14C277.173 69.14 276.704 69.063 276.27 68.909C275.841 68.7503 275.484 68.5053 275.199 68.174C274.914 67.838 274.737 67.411 274.667 66.893H275.843C275.904 67.1777 276.02 67.4157 276.193 67.607C276.366 67.7937 276.578 67.936 276.83 68.034C277.087 68.1273 277.367 68.174 277.67 68.174C278.16 68.174 278.554 68.083 278.853 67.901C279.152 67.719 279.301 67.439 279.301 67.061C279.301 66.795 279.222 66.5827 279.063 66.424C278.909 66.2607 278.666 66.1417 278.335 66.067L276.837 65.696C276.254 65.556 275.787 65.3367 275.437 65.038C275.092 64.7393 274.917 64.3217 274.912 63.785C274.912 63.3603 275.015 62.987 275.22 62.665C275.425 62.343 275.731 62.0887 276.137 61.902C276.548 61.7153 277.059 61.622 277.67 61.622C278.459 61.622 279.093 61.7993 279.574 62.154C280.055 62.504 280.307 63.0197 280.33 63.701H279.182C279.135 63.3557 278.981 63.0827 278.72 62.882C278.459 62.6767 278.104 62.574 277.656 62.574C277.199 62.574 276.823 62.6673 276.529 62.854C276.24 63.036 276.095 63.3207 276.095 63.708C276.095 63.9647 276.198 64.1677 276.403 64.317C276.613 64.4617 276.916 64.583 277.313 64.681L278.769 65.045C279.1 65.1337 279.376 65.2503 279.595 65.395C279.814 65.5397 279.987 65.7007 280.113 65.878C280.239 66.0553 280.328 66.242 280.379 66.438C280.435 66.6293 280.463 66.8137 280.463 66.991C280.463 67.4343 280.353 67.817 280.134 68.139C279.915 68.4563 279.597 68.7037 279.182 68.881C278.767 69.0537 278.265 69.14 277.677 69.14Z" fill="black"/>
<path d="M0 64C0 28.6538 28.6538 0 64 0C99.3462 0 128 28.6538 128 64C128 99.3462 99.3462 128 64 128C28.6538 128 0 99.3462 0 64Z" fill="#FFDF81"/>
<path d="M31.5656 69V60.068H28.2966V58.878H35.9546V60.068H32.8676V69H31.5656ZM39.2854 69.14C38.6181 69.14 38.0347 68.9977 37.5354 68.713C37.0407 68.4237 36.6557 68.0013 36.3804 67.446C36.1051 66.8907 35.9674 66.2117 35.9674 65.409C35.9674 64.653 36.0957 63.9903 36.3524 63.421C36.6091 62.8517 36.9847 62.4107 37.4794 62.098C37.9741 61.7807 38.5784 61.622 39.2924 61.622C39.9597 61.622 40.5384 61.769 41.0284 62.063C41.5184 62.3523 41.8987 62.7793 42.1694 63.344C42.4447 63.9087 42.5824 64.597 42.5824 65.409C42.5824 66.1463 42.4564 66.795 42.2044 67.355C41.9524 67.915 41.5814 68.3537 41.0914 68.671C40.6061 68.9837 40.0041 69.14 39.2854 69.14ZM39.2924 68.118C39.7217 68.118 40.0857 68.0083 40.3844 67.789C40.6831 67.5697 40.9094 67.2547 41.0634 66.844C41.2221 66.4333 41.3014 65.9457 41.3014 65.381C41.3014 64.863 41.2314 64.3987 41.0914 63.988C40.9561 63.5727 40.7414 63.2437 40.4474 63.001C40.1534 62.7583 39.7684 62.637 39.2924 62.637C38.8537 62.637 38.4827 62.7467 38.1794 62.966C37.8761 63.1807 37.6451 63.4933 37.4864 63.904C37.3324 64.3147 37.2554 64.807 37.2554 65.381C37.2554 65.8897 37.3231 66.3517 37.4584 66.767C37.5984 67.1823 37.8177 67.5113 38.1164 67.754C38.4197 67.9967 38.8117 68.118 39.2924 68.118ZM44.3034 69V61.762H45.5494V62.812C45.7501 62.4947 46.0254 62.217 46.3754 61.979C46.7254 61.741 47.1804 61.622 47.7404 61.622C48.0018 61.622 48.2678 61.6663 48.5384 61.755C48.8138 61.8437 49.0658 61.9767 49.2944 62.154C49.5231 62.3313 49.7004 62.5483 49.8264 62.805C50.0504 62.4503 50.3538 62.1657 50.7364 61.951C51.1191 61.7317 51.5508 61.622 52.0314 61.622C52.2834 61.622 52.5471 61.6617 52.8224 61.741C53.0978 61.8157 53.3521 61.951 53.5854 62.147C53.8234 62.3383 54.0171 62.6067 54.1664 62.952C54.3158 63.2927 54.3904 63.7313 54.3904 64.268V69H53.0884V64.394C53.0884 63.9553 53.0184 63.617 52.8784 63.379C52.7384 63.1363 52.5541 62.966 52.3254 62.868C52.1014 62.77 51.8611 62.721 51.6044 62.721C51.3804 62.721 51.1424 62.7653 50.8904 62.854C50.6384 62.9427 50.4238 63.092 50.2464 63.302C50.0691 63.512 49.9804 63.799 49.9804 64.163V69H48.6924V64.016C48.6924 63.7313 48.6154 63.4933 48.4614 63.302C48.3121 63.1107 48.1231 62.966 47.8944 62.868C47.6704 62.77 47.4464 62.721 47.2224 62.721C46.9751 62.721 46.7254 62.77 46.4734 62.868C46.2261 62.966 46.0161 63.1223 45.8434 63.337C45.6754 63.547 45.5914 63.8223 45.5914 64.163V69H44.3034ZM60.087 69V58.878H61.382V63.19H66.842V58.878H68.137V69H66.842V64.331H61.382V69H60.087ZM72.5287 69.14C72.0574 69.14 71.6421 69.0583 71.2827 68.895C70.9281 68.727 70.6481 68.4867 70.4427 68.174C70.2421 67.8613 70.1417 67.4833 70.1417 67.04C70.1417 66.2373 70.4217 65.64 70.9817 65.248C71.5417 64.856 72.4401 64.646 73.6767 64.618L74.9647 64.583V64.016C74.9647 63.5727 74.8317 63.2227 74.5657 62.966C74.2997 62.7047 73.8891 62.574 73.3337 62.574C72.9184 62.5787 72.5521 62.6767 72.2347 62.868C71.9174 63.0593 71.7144 63.372 71.6257 63.806H70.4847C70.5127 63.3347 70.6434 62.938 70.8767 62.616C71.1147 62.2893 71.4484 62.042 71.8777 61.874C72.3071 61.706 72.8134 61.622 73.3967 61.622C74.0267 61.622 74.5494 61.7107 74.9647 61.888C75.3847 62.0653 75.6974 62.3267 75.9027 62.672C76.1127 63.0173 76.2177 63.442 76.2177 63.946V69H75.1117L75.0137 67.642C74.7384 68.2067 74.3837 68.5987 73.9497 68.818C73.5204 69.0327 73.0467 69.14 72.5287 69.14ZM72.9137 68.209C73.1611 68.209 73.4037 68.1647 73.6417 68.076C73.8844 67.9873 74.1037 67.8683 74.2997 67.719C74.5004 67.565 74.6614 67.3947 74.7827 67.208C74.9041 67.0167 74.9647 66.8207 74.9647 66.62V65.381L73.8937 65.402C73.3384 65.4113 72.8764 65.4673 72.5077 65.57C72.1391 65.6727 71.8614 65.8337 71.6747 66.053C71.4881 66.2723 71.3947 66.5593 71.3947 66.914C71.3947 67.32 71.5371 67.6373 71.8217 67.866C72.1064 68.0947 72.4704 68.209 72.9137 68.209ZM78.237 69V61.762H79.49V62.812C79.6067 62.6113 79.7677 62.4223 79.973 62.245C80.183 62.0677 80.435 61.9253 80.729 61.818C81.0277 61.7107 81.3707 61.657 81.758 61.657C82.2153 61.657 82.6353 61.748 83.018 61.93C83.4053 62.112 83.7133 62.3967 83.942 62.784C84.1753 63.1667 84.292 63.6613 84.292 64.268V69H82.997V64.394C82.997 63.8293 82.8477 63.4117 82.549 63.141C82.255 62.8657 81.8723 62.728 81.401 62.728C81.0743 62.728 80.7687 62.7817 80.484 62.889C80.1993 62.9917 79.9683 63.1503 79.791 63.365C79.6137 63.575 79.525 63.841 79.525 64.163V69H78.237ZM86.3171 69V58.598H87.6051V65.381L91.0071 61.762H92.4911L89.8801 64.52L92.6731 69H91.3011L89.0331 65.367L87.6051 66.844V69H86.3171ZM96.6184 69.14C96.1144 69.14 95.6454 69.063 95.2114 68.909C94.782 68.7503 94.425 68.5053 94.1404 68.174C93.8557 67.838 93.6784 67.411 93.6084 66.893H94.7844C94.845 67.1777 94.9617 67.4157 95.1344 67.607C95.307 67.7937 95.5194 67.936 95.7714 68.034C96.028 68.1273 96.308 68.174 96.6114 68.174C97.1014 68.174 97.4957 68.083 97.7944 67.901C98.093 67.719 98.2424 67.439 98.2424 67.061C98.2424 66.795 98.163 66.5827 98.0044 66.424C97.8504 66.2607 97.6077 66.1417 97.2764 66.067L95.7784 65.696C95.195 65.556 94.7284 65.3367 94.3784 65.038C94.033 64.7393 93.858 64.3217 93.8534 63.785C93.8534 63.3603 93.956 62.987 94.1614 62.665C94.3667 62.343 94.6724 62.0887 95.0784 61.902C95.489 61.7153 96 61.622 96.6114 61.622C97.4 61.622 98.0347 61.7993 98.5154 62.154C98.996 62.504 99.248 63.0197 99.2714 63.701H98.1234C98.0767 63.3557 97.9227 63.0827 97.6614 62.882C97.4 62.6767 97.0454 62.574 96.5974 62.574C96.14 62.574 95.7644 62.6673 95.4704 62.854C95.181 63.036 95.0364 63.3207 95.0364 63.708C95.0364 63.9647 95.139 64.1677 95.3444 64.317C95.5544 64.4617 95.8577 64.583 96.2544 64.681L97.7104 65.045C98.0417 65.1337 98.317 65.2503 98.5364 65.395C98.7557 65.5397 98.9284 65.7007 99.0544 65.878C99.1804 66.0553 99.269 66.242 99.3204 66.438C99.3764 66.6293 99.4044 66.8137 99.4044 66.991C99.4044 67.4343 99.2947 67.817 99.0754 68.139C98.856 68.4563 98.5387 68.7037 98.1234 68.881C97.708 69.0537 97.2064 69.14 96.6184 69.14Z" fill="black"/>
</svg>
