<svg width="732" height="182" viewBox="0 0 732 182" fill="none" xmlns="http://www.w3.org/2000/svg">
<path d="M297 64C297 28.6538 325.654 0 361 0C396.346 0 425 28.6538 425 64C425 99.3462 396.346 128 361 128C325.654 128 297 99.3462 297 64Z" fill="#56C7E4"/>
<path d="M343.066 69V58.878H344.858L347.91 67.236L351.004 58.878H352.789V69H351.452V60.817L348.519 69H347.308L344.396 60.894V69H343.066ZM358.003 69.14C357.336 69.14 356.753 68.9977 356.253 68.713C355.759 68.4237 355.374 68.0013 355.098 67.446C354.823 66.8907 354.685 66.2117 354.685 65.409C354.685 64.653 354.814 63.9903 355.07 63.421C355.327 62.8517 355.703 62.4107 356.197 62.098C356.692 61.7807 357.296 61.622 358.01 61.622C358.678 61.622 359.256 61.769 359.746 62.063C360.236 62.3523 360.617 62.7793 360.887 63.344C361.163 63.9087 361.3 64.597 361.3 65.409C361.3 66.1463 361.174 66.795 360.922 67.355C360.67 67.915 360.299 68.3537 359.809 68.671C359.324 68.9837 358.722 69.14 358.003 69.14ZM358.01 68.118C358.44 68.118 358.804 68.0083 359.102 67.789C359.401 67.5697 359.627 67.2547 359.781 66.844C359.94 66.4333 360.019 65.9457 360.019 65.381C360.019 64.863 359.949 64.3987 359.809 63.988C359.674 63.5727 359.459 63.2437 359.165 63.001C358.871 62.7583 358.486 62.637 358.01 62.637C357.572 62.637 357.201 62.7467 356.897 62.966C356.594 63.1807 356.363 63.4933 356.204 63.904C356.05 64.3147 355.973 64.807 355.973 65.381C355.973 65.8897 356.041 66.3517 356.176 66.767C356.316 67.1823 356.536 67.5113 356.834 67.754C357.138 67.9967 357.53 68.118 358.01 68.118ZM364.76 69L362.142 61.762H363.36L365.285 67.376H365.404L367.336 61.762H368.547L365.943 69H364.76ZM369.988 69V61.762H371.241V69H369.988ZM369.953 60.229V58.885H371.276V60.229H369.953ZM376.471 69.14C375.799 69.14 375.206 68.993 374.693 68.699C374.179 68.405 373.778 67.9827 373.489 67.432C373.199 66.8813 373.055 66.221 373.055 65.451C373.055 64.6903 373.185 64.023 373.447 63.449C373.708 62.875 374.086 62.427 374.581 62.105C375.08 61.783 375.68 61.622 376.38 61.622C377.061 61.622 377.637 61.769 378.109 62.063C378.58 62.357 378.937 62.7723 379.18 63.309C379.427 63.841 379.551 64.4733 379.551 65.206V65.682H374.364C374.364 66.1393 374.438 66.5547 374.588 66.928C374.742 67.2967 374.973 67.5907 375.281 67.81C375.589 68.0293 375.978 68.139 376.45 68.139C376.912 68.139 377.308 68.0317 377.64 67.817C377.976 67.6023 378.19 67.292 378.284 66.886H379.502C379.418 67.376 379.222 67.789 378.914 68.125C378.61 68.461 378.244 68.7153 377.815 68.888C377.39 69.056 376.942 69.14 376.471 69.14ZM374.371 64.807H378.305C378.305 64.3917 378.235 64.0183 378.095 63.687C377.955 63.351 377.74 63.0873 377.451 62.896C377.166 62.7 376.807 62.602 376.373 62.602C375.92 62.602 375.544 62.7117 375.246 62.931C374.947 63.1457 374.725 63.4233 374.581 63.764C374.436 64.1 374.366 64.4477 374.371 64.807Z" fill="black"/>
<path d="M590 64C590 28.6538 618.654 0 654 0C689.346 0 718 28.6538 718 64C718 99.3462 689.346 128 654 128C618.654 128 590 99.3462 590 64Z" fill="#FFDF81"/>
<path d="M632.724 69V58.878H636.147C636.87 58.878 637.514 58.9993 638.079 59.242C638.643 59.4847 639.087 59.844 639.409 60.32C639.735 60.796 639.899 61.3817 639.899 62.077C639.899 62.749 639.747 63.323 639.444 63.799C639.145 64.275 638.727 64.6367 638.191 64.884C637.654 65.1313 637.031 65.255 636.322 65.255H634.054V69H632.724ZM634.047 64.163H636.294C636.989 64.163 637.554 63.9693 637.988 63.582C638.422 63.1947 638.639 62.6673 638.639 62C638.639 61.328 638.415 60.8193 637.967 60.474C637.519 60.1287 636.94 59.956 636.231 59.956H634.047V64.163ZM644.308 69.14C643.636 69.14 643.043 68.993 642.53 68.699C642.016 68.405 641.615 67.9827 641.326 67.432C641.036 66.8813 640.892 66.221 640.892 65.451C640.892 64.6903 641.022 64.023 641.284 63.449C641.545 62.875 641.923 62.427 642.418 62.105C642.917 61.783 643.517 61.622 644.217 61.622C644.898 61.622 645.474 61.769 645.946 62.063C646.417 62.357 646.774 62.7723 647.017 63.309C647.264 63.841 647.388 64.4733 647.388 65.206V65.682H642.201C642.201 66.1393 642.275 66.5547 642.425 66.928C642.579 67.2967 642.81 67.5907 643.118 67.81C643.426 68.0293 643.815 68.139 644.287 68.139C644.749 68.139 645.145 68.0317 645.477 67.817C645.813 67.6023 646.027 67.292 646.121 66.886H647.339C647.255 67.376 647.059 67.789 646.751 68.125C646.447 68.461 646.081 68.7153 645.652 68.888C645.227 69.056 644.779 69.14 644.308 69.14ZM642.208 64.807H646.142C646.142 64.3917 646.072 64.0183 645.932 63.687C645.792 63.351 645.577 63.0873 645.288 62.896C645.003 62.7 644.644 62.602 644.21 62.602C643.757 62.602 643.381 62.7117 643.083 62.931C642.784 63.1457 642.562 63.4233 642.418 63.764C642.273 64.1 642.203 64.4477 642.208 64.807ZM649.178 69V61.762H650.41V63.155C650.532 62.8097 650.702 62.525 650.921 62.301C651.141 62.0723 651.39 61.902 651.67 61.79C651.955 61.678 652.249 61.622 652.552 61.622C652.66 61.622 652.765 61.629 652.867 61.643C652.97 61.657 653.049 61.6803 653.105 61.713V62.966C653.035 62.9333 652.944 62.9123 652.832 62.903C652.725 62.889 652.634 62.882 652.559 62.882C652.27 62.8633 651.999 62.882 651.747 62.938C651.495 62.9893 651.274 63.0803 651.082 63.211C650.891 63.3417 650.739 63.5143 650.627 63.729C650.52 63.939 650.466 64.1957 650.466 64.499V69H649.178ZM657.21 69.14C656.706 69.14 656.237 69.063 655.803 68.909C655.374 68.7503 655.017 68.5053 654.732 68.174C654.447 67.838 654.27 67.411 654.2 66.893H655.376C655.437 67.1777 655.553 67.4157 655.726 67.607C655.899 67.7937 656.111 67.936 656.363 68.034C656.62 68.1273 656.9 68.174 657.203 68.174C657.693 68.174 658.087 68.083 658.386 67.901C658.685 67.719 658.834 67.439 658.834 67.061C658.834 66.795 658.755 66.5827 658.596 66.424C658.442 66.2607 658.199 66.1417 657.868 66.067L656.37 65.696C655.787 65.556 655.32 65.3367 654.97 65.038C654.625 64.7393 654.45 64.3217 654.445 63.785C654.445 63.3603 654.548 62.987 654.753 62.665C654.958 62.343 655.264 62.0887 655.67 61.902C656.081 61.7153 656.592 61.622 657.203 61.622C657.992 61.622 658.626 61.7993 659.107 62.154C659.588 62.504 659.84 63.0197 659.863 63.701H658.715C658.668 63.3557 658.514 63.0827 658.253 62.882C657.992 62.6767 657.637 62.574 657.189 62.574C656.732 62.574 656.356 62.6673 656.062 62.854C655.773 63.036 655.628 63.3207 655.628 63.708C655.628 63.9647 655.731 64.1677 655.936 64.317C656.146 64.4617 656.449 64.583 656.846 64.681L658.302 65.045C658.633 65.1337 658.909 65.2503 659.128 65.395C659.347 65.5397 659.52 65.7007 659.646 65.878C659.772 66.0553 659.861 66.242 659.912 66.438C659.968 66.6293 659.996 66.8137 659.996 66.991C659.996 67.4343 659.886 67.817 659.667 68.139C659.448 68.4563 659.13 68.7037 658.715 68.881C658.3 69.0537 657.798 69.14 657.21 69.14ZM664.586 69.14C663.919 69.14 663.336 68.9977 662.836 68.713C662.342 68.4237 661.957 68.0013 661.681 67.446C661.406 66.8907 661.268 66.2117 661.268 65.409C661.268 64.653 661.397 63.9903 661.653 63.421C661.91 62.8517 662.286 62.4107 662.78 62.098C663.275 61.7807 663.879 61.622 664.593 61.622C665.261 61.622 665.839 61.769 666.329 62.063C666.819 62.3523 667.2 62.7793 667.47 63.344C667.746 63.9087 667.883 64.597 667.883 65.409C667.883 66.1463 667.757 66.795 667.505 67.355C667.253 67.915 666.882 68.3537 666.392 68.671C665.907 68.9837 665.305 69.14 664.586 69.14ZM664.593 68.118C665.023 68.118 665.387 68.0083 665.685 67.789C665.984 67.5697 666.21 67.2547 666.364 66.844C666.523 66.4333 666.602 65.9457 666.602 65.381C666.602 64.863 666.532 64.3987 666.392 63.988C666.257 63.5727 666.042 63.2437 665.748 63.001C665.454 62.7583 665.069 62.637 664.593 62.637C664.155 62.637 663.784 62.7467 663.48 62.966C663.177 63.1807 662.946 63.4933 662.787 63.904C662.633 64.3147 662.556 64.807 662.556 65.381C662.556 65.8897 662.624 66.3517 662.759 66.767C662.899 67.1823 663.119 67.5113 663.417 67.754C663.721 67.9967 664.113 68.118 664.593 68.118ZM669.604 69V61.762H670.857V62.812C670.974 62.6113 671.135 62.4223 671.34 62.245C671.55 62.0677 671.802 61.9253 672.096 61.818C672.395 61.7107 672.738 61.657 673.125 61.657C673.583 61.657 674.003 61.748 674.385 61.93C674.773 62.112 675.081 62.3967 675.309 62.784C675.543 63.1667 675.659 63.6613 675.659 64.268V69H674.364V64.394C674.364 63.8293 674.215 63.4117 673.916 63.141C673.622 62.8657 673.24 62.728 672.768 62.728C672.442 62.728 672.136 62.7817 671.851 62.889C671.567 62.9917 671.336 63.1503 671.158 63.365C670.981 63.575 670.892 63.841 670.892 64.163V69H669.604Z" fill="black"/>
<path d="M0 64C0 28.6538 28.6538 0 64 0C99.3462 0 128 28.6538 128 64C128 99.3462 99.3462 128 64 128C28.6538 128 0 99.3462 0 64Z" fill="#FFDF81"/>
<path d="M42.7237 69V58.878H46.1467C46.8701 58.878 47.5141 58.9993 48.0787 59.242C48.6434 59.4847 49.0867 59.844 49.4087 60.32C49.7354 60.796 49.8987 61.3817 49.8987 62.077C49.8987 62.749 49.7471 63.323 49.4437 63.799C49.1451 64.275 48.7274 64.6367 48.1907 64.884C47.6541 65.1313 47.0311 65.255 46.3217 65.255H44.0537V69H42.7237ZM44.0467 64.163H46.2937C46.9891 64.163 47.5537 63.9693 47.9877 63.582C48.4217 63.1947 48.6387 62.6673 48.6387 62C48.6387 61.328 48.4147 60.8193 47.9667 60.474C47.5187 60.1287 46.9401 59.956 46.2307 59.956H44.0467V64.163ZM54.3077 69.14C53.6357 69.14 53.0431 68.993 52.5297 68.699C52.0164 68.405 51.6151 67.9827 51.3257 67.432C51.0364 66.8813 50.8917 66.221 50.8917 65.451C50.8917 64.6903 51.0224 64.023 51.2837 63.449C51.5451 62.875 51.9231 62.427 52.4177 62.105C52.9171 61.783 53.5167 61.622 54.2167 61.622C54.8981 61.622 55.4744 61.769 55.9457 62.063C56.4171 62.357 56.7741 62.7723 57.0167 63.309C57.2641 63.841 57.3877 64.4733 57.3877 65.206V65.682H52.2007C52.2007 66.1393 52.2754 66.5547 52.4247 66.928C52.5787 67.2967 52.8097 67.5907 53.1177 67.81C53.4257 68.0293 53.8154 68.139 54.2867 68.139C54.7487 68.139 55.1454 68.0317 55.4767 67.817C55.8127 67.6023 56.0274 67.292 56.1207 66.886H57.3387C57.2547 67.376 57.0587 67.789 56.7507 68.125C56.4474 68.461 56.0811 68.7153 55.6517 68.888C55.2271 69.056 54.7791 69.14 54.3077 69.14ZM52.2077 64.807H56.1417C56.1417 64.3917 56.0717 64.0183 55.9317 63.687C55.7917 63.351 55.5771 63.0873 55.2877 62.896C55.0031 62.7 54.6437 62.602 54.2097 62.602C53.7571 62.602 53.3814 62.7117 53.0827 62.931C52.7841 63.1457 52.5624 63.4233 52.4177 63.764C52.2731 64.1 52.2031 64.4477 52.2077 64.807ZM59.1784 69V61.762H60.4104V63.155C60.5318 62.8097 60.7021 62.525 60.9214 62.301C61.1408 62.0723 61.3904 61.902 61.6704 61.79C61.9551 61.678 62.2491 61.622 62.5524 61.622C62.6598 61.622 62.7648 61.629 62.8674 61.643C62.9701 61.657 63.0494 61.6803 63.1054 61.713V62.966C63.0354 62.9333 62.9444 62.9123 62.8324 62.903C62.7251 62.889 62.6341 62.882 62.5594 62.882C62.2701 62.8633 61.9994 62.882 61.7474 62.938C61.4954 62.9893 61.2738 63.0803 61.0824 63.211C60.8911 63.3417 60.7394 63.5143 60.6274 63.729C60.5201 63.939 60.4664 64.1957 60.4664 64.499V69H59.1784ZM67.2102 69.14C66.7062 69.14 66.2372 69.063 65.8032 68.909C65.3738 68.7503 65.0168 68.5053 64.7322 68.174C64.4475 67.838 64.2702 67.411 64.2002 66.893H65.3762C65.4368 67.1777 65.5535 67.4157 65.7262 67.607C65.8988 67.7937 66.1112 67.936 66.3632 68.034C66.6198 68.1273 66.8998 68.174 67.2032 68.174C67.6932 68.174 68.0875 68.083 68.3862 67.901C68.6848 67.719 68.8342 67.439 68.8342 67.061C68.8342 66.795 68.7548 66.5827 68.5962 66.424C68.4422 66.2607 68.1995 66.1417 67.8682 66.067L66.3702 65.696C65.7868 65.556 65.3202 65.3367 64.9702 65.038C64.6248 64.7393 64.4498 64.3217 64.4452 63.785C64.4452 63.3603 64.5478 62.987 64.7532 62.665C64.9585 62.343 65.2642 62.0887 65.6702 61.902C66.0808 61.7153 66.5918 61.622 67.2032 61.622C67.9918 61.622 68.6265 61.7993 69.1072 62.154C69.5878 62.504 69.8398 63.0197 69.8632 63.701H68.7152C68.6685 63.3557 68.5145 63.0827 68.2532 62.882C67.9918 62.6767 67.6372 62.574 67.1892 62.574C66.7318 62.574 66.3562 62.6673 66.0622 62.854C65.7728 63.036 65.6282 63.3207 65.6282 63.708C65.6282 63.9647 65.7308 64.1677 65.9362 64.317C66.1462 64.4617 66.4495 64.583 66.8462 64.681L68.3022 65.045C68.6335 65.1337 68.9088 65.2503 69.1282 65.395C69.3475 65.5397 69.5202 65.7007 69.6462 65.878C69.7722 66.0553 69.8608 66.242 69.9122 66.438C69.9682 66.6293 69.9962 66.8137 69.9962 66.991C69.9962 67.4343 69.8865 67.817 69.6672 68.139C69.4478 68.4563 69.1305 68.7037 68.7152 68.881C68.2998 69.0537 67.7982 69.14 67.2102 69.14ZM74.5862 69.14C73.9189 69.14 73.3355 68.9977 72.8362 68.713C72.3415 68.4237 71.9565 68.0013 71.6812 67.446C71.4059 66.8907 71.2682 66.2117 71.2682 65.409C71.2682 64.653 71.3965 63.9903 71.6532 63.421C71.9099 62.8517 72.2855 62.4107 72.7802 62.098C73.2749 61.7807 73.8792 61.622 74.5932 61.622C75.2605 61.622 75.8392 61.769 76.3292 62.063C76.8192 62.3523 77.1995 62.7793 77.4702 63.344C77.7455 63.9087 77.8832 64.597 77.8832 65.409C77.8832 66.1463 77.7572 66.795 77.5052 67.355C77.2532 67.915 76.8822 68.3537 76.3922 68.671C75.9069 68.9837 75.3049 69.14 74.5862 69.14ZM74.5932 68.118C75.0225 68.118 75.3865 68.0083 75.6852 67.789C75.9839 67.5697 76.2102 67.2547 76.3642 66.844C76.5229 66.4333 76.6022 65.9457 76.6022 65.381C76.6022 64.863 76.5322 64.3987 76.3922 63.988C76.2569 63.5727 76.0422 63.2437 75.7482 63.001C75.4542 62.7583 75.0692 62.637 74.5932 62.637C74.1545 62.637 73.7835 62.7467 73.4802 62.966C73.1769 63.1807 72.9459 63.4933 72.7872 63.904C72.6332 64.3147 72.5562 64.807 72.5562 65.381C72.5562 65.8897 72.6239 66.3517 72.7592 66.767C72.8992 67.1823 73.1185 67.5113 73.4172 67.754C73.7205 67.9967 74.1125 68.118 74.5932 68.118ZM79.6042 69V61.762H80.8572V62.812C80.9739 62.6113 81.1349 62.4223 81.3402 62.245C81.5502 62.0677 81.8022 61.9253 82.0962 61.818C82.3949 61.7107 82.7379 61.657 83.1252 61.657C83.5825 61.657 84.0025 61.748 84.3852 61.93C84.7725 62.112 85.0805 62.3967 85.3092 62.784C85.5425 63.1667 85.6592 63.6613 85.6592 64.268V69H84.3642V64.394C84.3642 63.8293 84.2149 63.4117 83.9162 63.141C83.6222 62.8657 83.2395 62.728 82.7682 62.728C82.4415 62.728 82.1359 62.7817 81.8512 62.889C81.5665 62.9917 81.3355 63.1503 81.1582 63.365C80.9809 63.575 80.8922 63.841 80.8922 64.163V69H79.6042Z" fill="black"/>
<path d="M6.01776 151V143.762H7.68376V144.798C7.79576 144.611 7.94742 144.432 8.13876 144.259C8.33476 144.086 8.57509 143.946 8.85976 143.839C9.14442 143.732 9.47809 143.678 9.86076 143.678C10.3088 143.678 10.7241 143.767 11.1068 143.944C11.4941 144.121 11.8044 144.399 12.0378 144.777C12.2758 145.155 12.3948 145.643 12.3948 146.24V151H10.6868V146.443C10.6868 145.967 10.5561 145.615 10.2948 145.386C10.0334 145.153 9.70442 145.036 9.30776 145.036C9.03709 145.036 8.78042 145.083 8.53776 145.176C8.29509 145.265 8.09676 145.402 7.94276 145.589C7.79342 145.771 7.71876 146 7.71876 146.275V151H6.01776ZM16.2729 151.14C15.8109 151.14 15.3955 151.056 15.0269 150.888C14.6629 150.715 14.3759 150.47 14.1659 150.153C13.9605 149.831 13.8579 149.441 13.8579 148.984C13.8579 148.186 14.1449 147.584 14.7189 147.178C15.2975 146.772 16.2169 146.56 17.4769 146.541L18.5619 146.513V146.023C18.5619 145.64 18.4475 145.342 18.2189 145.127C17.9949 144.908 17.6449 144.8 17.1689 144.805C16.8142 144.81 16.4922 144.894 16.2029 145.057C15.9135 145.216 15.7222 145.484 15.6289 145.862H14.1799C14.2079 145.367 14.3502 144.954 14.6069 144.623C14.8682 144.287 15.2252 144.037 15.6779 143.874C16.1305 143.706 16.6532 143.622 17.2459 143.622C17.9365 143.622 18.4989 143.713 18.9329 143.895C19.3669 144.077 19.6865 144.341 19.8919 144.686C20.0972 145.027 20.1999 145.44 20.1999 145.925V151H18.7649L18.6249 149.698C18.3682 150.244 18.0392 150.622 17.6379 150.832C17.2412 151.037 16.7862 151.14 16.2729 151.14ZM16.8259 149.985C17.0359 149.985 17.2435 149.948 17.4489 149.873C17.6542 149.794 17.8385 149.689 18.0019 149.558C18.1699 149.423 18.3029 149.273 18.4009 149.11C18.5035 148.947 18.5572 148.776 18.5619 148.599V147.458L17.6729 147.472C17.2342 147.477 16.8492 147.523 16.5179 147.612C16.1912 147.701 15.9369 147.843 15.7549 148.039C15.5729 148.23 15.4819 148.487 15.4819 148.809C15.4819 149.178 15.6102 149.467 15.8669 149.677C16.1235 149.882 16.4432 149.985 16.8259 149.985ZM22.0139 151V143.762H23.6729V144.798C23.8829 144.481 24.1675 144.205 24.5269 143.972C24.8909 143.739 25.3529 143.622 25.9129 143.622C26.1695 143.622 26.4285 143.666 26.6899 143.755C26.9559 143.844 27.2009 143.974 27.4249 144.147C27.6535 144.32 27.8355 144.534 27.9709 144.791C28.1995 144.45 28.5029 144.17 28.8809 143.951C29.2635 143.732 29.6929 143.622 30.1689 143.622C30.4302 143.622 30.6985 143.664 30.9739 143.748C31.2539 143.832 31.5105 143.972 31.7439 144.168C31.9772 144.364 32.1662 144.632 32.3109 144.973C32.4555 145.309 32.5279 145.731 32.5279 146.24V151H30.8269V146.443C30.8269 146.084 30.7639 145.801 30.6379 145.596C30.5119 145.391 30.3485 145.246 30.1479 145.162C29.9519 145.073 29.7419 145.029 29.5179 145.029C29.3172 145.029 29.1072 145.069 28.8879 145.148C28.6732 145.227 28.4889 145.358 28.3349 145.54C28.1855 145.722 28.1109 145.967 28.1109 146.275V151H26.4099V146.17C26.4099 145.918 26.3445 145.708 26.2139 145.54C26.0832 145.372 25.9175 145.246 25.7169 145.162C25.5209 145.073 25.3202 145.029 25.1149 145.029C24.9049 145.029 24.6902 145.073 24.4709 145.162C24.2562 145.251 24.0765 145.386 23.9319 145.568C23.7872 145.75 23.7149 145.986 23.7149 146.275V151H22.0139ZM37.5586 151.14C36.8632 151.14 36.2496 150.993 35.7176 150.699C35.1902 150.4 34.7772 149.976 34.4786 149.425C34.1846 148.874 34.0376 148.219 34.0376 147.458C34.0376 146.716 34.1706 146.058 34.4366 145.484C34.7072 144.905 35.0969 144.45 35.6056 144.119C36.1189 143.788 36.7372 143.622 37.4606 143.622C38.1746 143.622 38.7742 143.774 39.2596 144.077C39.7449 144.38 40.1136 144.805 40.3656 145.351C40.6176 145.892 40.7436 146.527 40.7436 147.255V147.773H35.7386C35.7339 148.184 35.7992 148.548 35.9346 148.865C36.0699 149.182 36.2706 149.432 36.5366 149.614C36.8026 149.791 37.1316 149.88 37.5236 149.88C37.9249 149.88 38.2726 149.791 38.5666 149.614C38.8652 149.432 39.0636 149.157 39.1616 148.788H40.7156C40.6316 149.292 40.4309 149.719 40.1136 150.069C39.8009 150.419 39.4182 150.685 38.9656 150.867C38.5176 151.049 38.0486 151.14 37.5586 151.14ZM35.7316 146.716H39.1336C39.1336 146.366 39.0706 146.051 38.9446 145.771C38.8232 145.486 38.6389 145.262 38.3916 145.099C38.1442 144.931 37.8316 144.847 37.4536 144.847C37.0802 144.847 36.7652 144.938 36.5086 145.12C36.2519 145.302 36.0582 145.538 35.9276 145.827C35.7969 146.112 35.7316 146.408 35.7316 146.716ZM42.1333 145.932V143.986H44.0583V145.932H42.1333ZM42.1333 150.958V149.026H44.0583V150.958H42.1333ZM51.5348 151V142.411H48.3848V140.878H56.2808V142.411H53.2428V151H51.5348ZM59.5597 151.14C58.869 151.14 58.267 150.993 57.7537 150.699C57.2403 150.4 56.8413 149.973 56.5567 149.418C56.2767 148.863 56.1367 148.195 56.1367 147.416C56.1367 146.66 56.2743 145.997 56.5497 145.428C56.825 144.859 57.217 144.415 57.7257 144.098C58.239 143.781 58.8527 143.622 59.5667 143.622C60.2573 143.622 60.857 143.774 61.3657 144.077C61.8743 144.38 62.2663 144.814 62.5417 145.379C62.8217 145.944 62.9617 146.623 62.9617 147.416C62.9617 148.149 62.8287 148.795 62.5627 149.355C62.3013 149.91 61.9163 150.347 61.4077 150.664C60.9037 150.981 60.2877 151.14 59.5597 151.14ZM59.5667 149.845C59.9587 149.845 60.2807 149.738 60.5327 149.523C60.7893 149.308 60.9807 149.014 61.1067 148.641C61.2327 148.268 61.2957 147.843 61.2957 147.367C61.2957 146.924 61.2397 146.515 61.1277 146.142C61.0157 145.769 60.8313 145.47 60.5747 145.246C60.3227 145.017 59.9867 144.903 59.5667 144.903C59.17 144.903 58.841 145.008 58.5797 145.218C58.323 145.423 58.1317 145.713 58.0057 146.086C57.8797 146.455 57.8167 146.882 57.8167 147.367C57.8167 147.806 57.8727 148.214 57.9847 148.592C58.0967 148.965 58.281 149.269 58.5377 149.502C58.7943 149.731 59.1373 149.845 59.5667 149.845ZM64.5197 151V143.762H66.1787V144.798C66.3887 144.481 66.6734 144.205 67.0327 143.972C67.3967 143.739 67.8587 143.622 68.4187 143.622C68.6754 143.622 68.9344 143.666 69.1957 143.755C69.4617 143.844 69.7067 143.974 69.9307 144.147C70.1594 144.32 70.3414 144.534 70.4767 144.791C70.7054 144.45 71.0087 144.17 71.3867 143.951C71.7694 143.732 72.1987 143.622 72.6747 143.622C72.936 143.622 73.2044 143.664 73.4797 143.748C73.7597 143.832 74.0164 143.972 74.2497 144.168C74.483 144.364 74.672 144.632 74.8167 144.973C74.9614 145.309 75.0337 145.731 75.0337 146.24V151H73.3327V146.443C73.3327 146.084 73.2697 145.801 73.1437 145.596C73.0177 145.391 72.8544 145.246 72.6537 145.162C72.4577 145.073 72.2477 145.029 72.0237 145.029C71.823 145.029 71.613 145.069 71.3937 145.148C71.179 145.227 70.9947 145.358 70.8407 145.54C70.6914 145.722 70.6167 145.967 70.6167 146.275V151H68.9157V146.17C68.9157 145.918 68.8504 145.708 68.7197 145.54C68.589 145.372 68.4234 145.246 68.2227 145.162C68.0267 145.073 67.826 145.029 67.6207 145.029C67.4107 145.029 67.196 145.073 66.9767 145.162C66.762 145.251 66.5824 145.386 66.4377 145.568C66.293 145.75 66.2207 145.986 66.2207 146.275V151H64.5197ZM80.392 151V140.878H82.093V145.057H86.993V140.878H88.694V151H86.993V146.506H82.093V151H80.392ZM92.9447 151.14C92.4827 151.14 92.0674 151.056 91.6987 150.888C91.3347 150.715 91.0477 150.47 90.8377 150.153C90.6324 149.831 90.5297 149.441 90.5297 148.984C90.5297 148.186 90.8167 147.584 91.3907 147.178C91.9694 146.772 92.8887 146.56 94.1487 146.541L95.2337 146.513V146.023C95.2337 145.64 95.1194 145.342 94.8907 145.127C94.6667 144.908 94.3167 144.8 93.8407 144.805C93.4861 144.81 93.1641 144.894 92.8747 145.057C92.5854 145.216 92.3941 145.484 92.3007 145.862H90.8517C90.8797 145.367 91.0221 144.954 91.2787 144.623C91.5401 144.287 91.8971 144.037 92.3497 143.874C92.8024 143.706 93.3251 143.622 93.9177 143.622C94.6084 143.622 95.1707 143.713 95.6047 143.895C96.0387 144.077 96.3584 144.341 96.5637 144.686C96.7691 145.027 96.8717 145.44 96.8717 145.925V151H95.4367L95.2967 149.698C95.0401 150.244 94.7111 150.622 94.3097 150.832C93.9131 151.037 93.4581 151.14 92.9447 151.14ZM93.4977 149.985C93.7077 149.985 93.9154 149.948 94.1207 149.873C94.3261 149.794 94.5104 149.689 94.6737 149.558C94.8417 149.423 94.9747 149.273 95.0727 149.11C95.1754 148.947 95.2291 148.776 95.2337 148.599V147.458L94.3447 147.472C93.9061 147.477 93.5211 147.523 93.1897 147.612C92.8631 147.701 92.6087 147.843 92.4267 148.039C92.2447 148.23 92.1537 148.487 92.1537 148.809C92.1537 149.178 92.2821 149.467 92.5387 149.677C92.7954 149.882 93.1151 149.985 93.4977 149.985ZM98.6857 151V143.762H100.352V144.798C100.464 144.611 100.615 144.432 100.807 144.259C101.003 144.086 101.243 143.946 101.528 143.839C101.812 143.732 102.146 143.678 102.529 143.678C102.977 143.678 103.392 143.767 103.775 143.944C104.162 144.121 104.472 144.399 104.706 144.777C104.944 145.155 105.063 145.643 105.063 146.24V151H103.355V146.443C103.355 145.967 103.224 145.615 102.963 145.386C102.701 145.153 102.372 145.036 101.976 145.036C101.705 145.036 101.448 145.083 101.206 145.176C100.963 145.265 100.765 145.402 100.611 145.589C100.461 145.771 100.387 146 100.387 146.275V151H98.6857ZM106.889 151V140.598H108.583V147.045L111.586 143.762H113.455L110.837 146.59L113.588 151H111.859L109.759 147.647L108.583 148.879V151H106.889ZM117.44 151.14C116.936 151.14 116.458 151.061 116.005 150.902C115.557 150.739 115.179 150.484 114.871 150.139C114.568 149.794 114.376 149.348 114.297 148.802H115.795C115.86 149.068 115.975 149.285 116.138 149.453C116.306 149.621 116.502 149.745 116.726 149.824C116.955 149.899 117.19 149.936 117.433 149.936C117.867 149.936 118.217 149.861 118.483 149.712C118.749 149.563 118.882 149.332 118.882 149.019C118.882 148.79 118.807 148.608 118.658 148.473C118.513 148.338 118.275 148.235 117.944 148.165L116.572 147.85C115.956 147.715 115.464 147.491 115.095 147.178C114.726 146.865 114.54 146.424 114.535 145.855C114.53 145.426 114.638 145.043 114.857 144.707C115.076 144.371 115.403 144.107 115.837 143.916C116.271 143.72 116.805 143.622 117.44 143.622C118.285 143.622 118.961 143.811 119.47 144.189C119.983 144.562 120.247 145.097 120.261 145.792H118.812C118.761 145.479 118.614 145.237 118.371 145.064C118.128 144.887 117.813 144.798 117.426 144.798C117.025 144.798 116.696 144.875 116.439 145.029C116.182 145.183 116.054 145.419 116.054 145.736C116.054 145.955 116.15 146.128 116.341 146.254C116.537 146.38 116.833 146.487 117.23 146.576L118.532 146.891C118.905 146.984 119.211 147.11 119.449 147.269C119.687 147.428 119.871 147.603 120.002 147.794C120.137 147.981 120.231 148.174 120.282 148.375C120.338 148.571 120.366 148.753 120.366 148.921C120.366 149.388 120.245 149.787 120.002 150.118C119.764 150.445 119.426 150.697 118.987 150.874C118.553 151.051 118.037 151.14 117.44 151.14ZM32.7675 175.14C32.3802 175.14 32.0488 175.089 31.7735 174.986C31.4982 174.883 31.2672 174.75 31.0805 174.587C30.8985 174.424 30.7515 174.249 30.6395 174.062C30.5322 173.871 30.4505 173.689 30.3945 173.516L30.1985 175H28.9455V164.598H30.6535V168.819C30.7282 168.679 30.8308 168.539 30.9615 168.399C31.0968 168.259 31.2602 168.131 31.4515 168.014C31.6428 167.897 31.8598 167.804 32.1025 167.734C32.3498 167.659 32.6228 167.622 32.9215 167.622C33.8222 167.622 34.5338 167.942 35.0565 168.581C35.5792 169.22 35.8405 170.142 35.8405 171.346C35.8405 172.107 35.7238 172.772 35.4905 173.341C35.2618 173.91 34.9188 174.354 34.4615 174.671C34.0088 174.984 33.4442 175.14 32.7675 175.14ZM32.4175 173.887C32.9262 173.887 33.3438 173.684 33.6705 173.278C33.9972 172.872 34.1605 172.214 34.1605 171.304C34.1605 170.511 34.0065 169.911 33.6985 169.505C33.3905 169.094 32.9565 168.889 32.3965 168.889C31.9952 168.889 31.6662 168.98 31.4095 169.162C31.1575 169.344 30.9685 169.615 30.8425 169.974C30.7212 170.333 30.6582 170.777 30.6535 171.304C30.6535 172.228 30.7935 172.891 31.0735 173.292C31.3582 173.689 31.8062 173.887 32.4175 173.887ZM40.419 175.14C39.7284 175.14 39.1264 174.993 38.613 174.699C38.0997 174.4 37.7007 173.973 37.416 173.418C37.136 172.863 36.996 172.195 36.996 171.416C36.996 170.66 37.1337 169.997 37.409 169.428C37.6844 168.859 38.0764 168.415 38.585 168.098C39.0984 167.781 39.712 167.622 40.426 167.622C41.1167 167.622 41.7164 167.774 42.225 168.077C42.7337 168.38 43.1257 168.814 43.401 169.379C43.681 169.944 43.821 170.623 43.821 171.416C43.821 172.149 43.688 172.795 43.422 173.355C43.1607 173.91 42.7757 174.347 42.267 174.664C41.763 174.981 41.147 175.14 40.419 175.14ZM40.426 173.845C40.818 173.845 41.14 173.738 41.392 173.523C41.6487 173.308 41.84 173.014 41.966 172.641C42.092 172.268 42.155 171.843 42.155 171.367C42.155 170.924 42.099 170.515 41.987 170.142C41.875 169.769 41.6907 169.47 41.434 169.246C41.182 169.017 40.846 168.903 40.426 168.903C40.0294 168.903 39.7004 169.008 39.439 169.218C39.1824 169.423 38.991 169.713 38.865 170.086C38.739 170.455 38.676 170.882 38.676 171.367C38.676 171.806 38.732 172.214 38.844 172.592C38.956 172.965 39.1404 173.269 39.397 173.502C39.6537 173.731 39.9967 173.845 40.426 173.845ZM45.3791 175V167.762H47.0101V169.33C47.1268 168.971 47.2924 168.665 47.5071 168.413C47.7264 168.156 47.9831 167.96 48.2771 167.825C48.5711 167.69 48.8908 167.622 49.2361 167.622C49.3201 167.622 49.4018 167.627 49.4811 167.636C49.5604 167.645 49.6188 167.662 49.6561 167.685V169.316C49.6048 169.293 49.5371 169.276 49.4531 169.267C49.3738 169.258 49.3038 169.253 49.2431 169.253C48.8931 169.225 48.5828 169.239 48.3121 169.295C48.0461 169.351 47.8198 169.447 47.6331 169.582C47.4511 169.713 47.3134 169.881 47.2201 170.086C47.1268 170.287 47.0801 170.522 47.0801 170.793V175H45.3791ZM51.0119 175V167.762H52.6779V168.798C52.7899 168.611 52.9416 168.432 53.1329 168.259C53.3289 168.086 53.5692 167.946 53.8539 167.839C54.1386 167.732 54.4722 167.678 54.8549 167.678C55.3029 167.678 55.7182 167.767 56.1009 167.944C56.4882 168.121 56.7986 168.399 57.0319 168.777C57.2699 169.155 57.3889 169.643 57.3889 170.24V175H55.6809V170.443C55.6809 169.967 55.5502 169.615 55.2889 169.386C55.0276 169.153 54.6986 169.036 54.3019 169.036C54.0312 169.036 53.7746 169.083 53.5319 169.176C53.2892 169.265 53.0909 169.402 52.9369 169.589C52.7876 169.771 52.7129 170 52.7129 170.275V175H51.0119ZM58.977 169.932V167.986H60.902V169.932H58.977ZM58.977 174.958V173.026H60.902V174.958H58.977ZM67.4336 175V167.202H65.5576V166.187C66.1502 166.187 66.6192 166.138 66.9646 166.04C67.3146 165.937 67.5689 165.788 67.7276 165.592C67.8909 165.396 67.9842 165.158 68.0076 164.878H69.1696V175H67.4336ZM75.0068 175.154C74.4141 175.154 73.8588 175.04 73.3408 174.811C72.8228 174.582 72.3958 174.258 72.0598 173.838C71.7238 173.418 71.5278 172.923 71.4718 172.354H73.1028C73.2008 172.779 73.4131 173.124 73.7398 173.39C74.0665 173.651 74.4678 173.782 74.9438 173.782C75.4805 173.782 75.9448 173.649 76.3368 173.383C76.7335 173.117 77.0298 172.699 77.2258 172.13C77.4218 171.561 77.4941 170.821 77.4428 169.911C77.3168 170.21 77.1325 170.471 76.8898 170.695C76.6518 170.919 76.3671 171.094 76.0358 171.22C75.7091 171.341 75.3451 171.402 74.9438 171.402C74.2671 171.402 73.6675 171.274 73.1448 171.017C72.6268 170.756 72.2208 170.385 71.9268 169.904C71.6328 169.419 71.4858 168.845 71.4858 168.182C71.4858 167.51 71.6351 166.915 71.9338 166.397C72.2371 165.879 72.6618 165.473 73.2078 165.179C73.7585 164.885 74.4048 164.738 75.1468 164.738C75.9728 164.738 76.6868 164.941 77.2888 165.347C77.8908 165.753 78.3528 166.332 78.6748 167.083C79.0015 167.834 79.1648 168.726 79.1648 169.757C79.1648 170.933 78.9991 171.922 78.6678 172.725C78.3411 173.523 77.8675 174.127 77.2468 174.538C76.6308 174.949 75.8841 175.154 75.0068 175.154ZM75.1958 170.016C75.5225 170.016 75.8351 169.941 76.1338 169.792C76.4325 169.643 76.6775 169.449 76.8688 169.211C77.0601 168.973 77.1558 168.721 77.1558 168.455C77.1605 167.97 77.0811 167.55 76.9178 167.195C76.7545 166.836 76.5235 166.558 76.2248 166.362C75.9308 166.161 75.5855 166.061 75.1888 166.061C74.8295 166.061 74.5075 166.147 74.2228 166.32C73.9428 166.493 73.7235 166.733 73.5648 167.041C73.4061 167.344 73.3268 167.697 73.3268 168.098C73.3268 168.695 73.4925 169.164 73.8238 169.505C74.1551 169.846 74.6125 170.016 75.1958 170.016ZM84.5559 175.154C83.9119 175.154 83.3122 175.049 82.7569 174.839C82.2062 174.624 81.7302 174.33 81.3289 173.957C80.9322 173.584 80.6359 173.157 80.4399 172.676L81.8189 171.948C81.9916 172.293 82.1969 172.604 82.4349 172.879C82.6776 173.154 82.9599 173.371 83.2819 173.53C83.6086 173.684 83.9819 173.761 84.4019 173.761C85.0599 173.761 85.5872 173.579 85.9839 173.215C86.3852 172.846 86.5859 172.356 86.5859 171.745C86.5859 171.367 86.4926 171.031 86.3059 170.737C86.1239 170.443 85.8742 170.214 85.5569 170.051C85.2442 169.883 84.8872 169.799 84.4859 169.799C84.2479 169.799 84.0239 169.82 83.8139 169.862C83.6086 169.904 83.4009 169.983 83.1909 170.1C82.9809 170.212 82.7546 170.382 82.5119 170.611C82.4652 170.634 82.4302 170.646 82.4069 170.646C82.3882 170.641 82.3532 170.627 82.3019 170.604L80.9929 170.072L81.4549 164.878H87.7479L87.6849 166.299H82.8409L82.6099 169.113C82.9692 168.861 83.3309 168.679 83.6949 168.567C84.0589 168.455 84.4602 168.399 84.8989 168.399C85.5429 168.399 86.1286 168.525 86.6559 168.777C87.1832 169.029 87.6032 169.4 87.9159 169.89C88.2286 170.38 88.3849 170.98 88.3849 171.689C88.3849 172.398 88.2262 173.012 87.9089 173.53C87.5962 174.048 87.1529 174.449 86.5789 174.734C86.0096 175.014 85.3352 175.154 84.5559 175.154ZM93.6864 175.154C92.8604 175.154 92.1464 174.949 91.5444 174.538C90.9424 174.127 90.4781 173.546 90.1514 172.795C89.8294 172.039 89.6684 171.145 89.6684 170.114C89.6684 169.017 89.8294 168.068 90.1514 167.265C90.4734 166.458 90.9401 165.835 91.5514 165.396C92.1674 164.957 92.9117 164.738 93.7844 164.738C94.3817 164.738 94.9347 164.85 95.4434 165.074C95.9521 165.293 96.3697 165.611 96.6964 166.026C97.0231 166.441 97.2144 166.943 97.2704 167.531H95.6954C95.5647 167.078 95.3407 166.728 95.0234 166.481C94.7061 166.234 94.3047 166.11 93.8194 166.11C93.2827 166.11 92.8347 166.262 92.4754 166.565C92.1161 166.868 91.8571 167.305 91.6984 167.874C91.5444 168.439 91.4954 169.115 91.5514 169.904C91.6961 169.629 91.8921 169.391 92.1394 169.19C92.3867 168.985 92.6691 168.826 92.9864 168.714C93.3037 168.602 93.6397 168.546 93.9944 168.546C94.6711 168.546 95.2637 168.674 95.7724 168.931C96.2811 169.188 96.6777 169.552 96.9624 170.023C97.2471 170.494 97.3894 171.052 97.3894 171.696C97.3894 172.363 97.2354 172.958 96.9274 173.481C96.6194 173.999 96.1877 174.407 95.6324 174.706C95.0771 175.005 94.4284 175.154 93.6864 175.154ZM93.6444 173.817C94.0084 173.817 94.3351 173.731 94.6244 173.558C94.9184 173.385 95.1494 173.145 95.3174 172.837C95.4901 172.529 95.5764 172.174 95.5764 171.773C95.5764 171.362 95.4971 171.015 95.3384 170.73C95.1797 170.445 94.9534 170.228 94.6594 170.079C94.3701 169.93 94.0294 169.855 93.6374 169.855C93.3154 169.855 93.0027 169.93 92.6994 170.079C92.4007 170.228 92.1557 170.422 91.9644 170.66C91.7777 170.898 91.6844 171.152 91.6844 171.423C91.6797 171.904 91.7591 172.324 91.9224 172.683C92.0857 173.042 92.3144 173.322 92.6084 173.523C92.9071 173.719 93.2524 173.817 93.6444 173.817Z" fill="black"/>
<path d="M294.207 64.7071C294.598 64.3166 294.598 63.6834 294.207 63.2929L287.843 56.9289C287.453 56.5384 286.819 56.5384 286.429 56.9289C286.038 57.3195 286.038 57.9526 286.429 58.3431L292.086 64L286.429 69.6569C286.038 70.0474 286.038 70.6805 286.429 71.0711C286.819 71.4616 287.453 71.4616 287.843 71.0711L294.207 64.7071ZM255.344 63C254.791 63 254.344 63.4477 254.344 64C254.344 64.5523 254.791 65 255.344 65V64V63ZM164.344 65C164.896 65 165.344 64.5523 165.344 64C165.344 63.4477 164.896 63 164.344 63V64V65ZM131.5 63C130.948 63 130.5 63.4477 130.5 64C130.5 64.5523 130.948 65 131.5 65V64V63ZM293.5 64V63H255.344V64V65H293.5V64ZM164.344 64V63H131.5V64V65H164.344V64Z" fill="black" fill-opacity="0.8"/>
<path d="M174.213 70H172.35L176.537 58.3636H178.566L182.753 70H180.889L177.6 60.4773H177.509L174.213 70ZM174.526 65.4432H180.571V66.9205H174.526V65.4432ZM193.375 62.1477H191.603C191.534 61.7689 191.408 61.4356 191.222 61.1477C191.036 60.8598 190.809 60.6155 190.54 60.4148C190.271 60.214 189.97 60.0625 189.637 59.9602C189.307 59.858 188.957 59.8068 188.586 59.8068C187.915 59.8068 187.315 59.9754 186.784 60.3125C186.258 60.6496 185.841 61.1439 185.534 61.7955C185.231 62.447 185.08 63.2424 185.08 64.1818C185.08 65.1288 185.231 65.928 185.534 66.5795C185.841 67.2311 186.26 67.7235 186.79 68.0568C187.32 68.3902 187.917 68.5568 188.58 68.5568C188.947 68.5568 189.296 68.5076 189.625 68.4091C189.959 68.3068 190.26 68.1572 190.529 67.9602C190.798 67.7633 191.025 67.5227 191.211 67.2386C191.4 66.9508 191.531 66.6212 191.603 66.25L193.375 66.2557C193.281 66.8277 193.097 67.3542 192.824 67.8352C192.555 68.3125 192.209 68.7254 191.784 69.0739C191.364 69.4186 190.883 69.6856 190.341 69.875C189.8 70.0644 189.209 70.1591 188.569 70.1591C187.561 70.1591 186.663 69.9205 185.875 69.4432C185.087 68.9621 184.466 68.2746 184.012 67.3807C183.561 66.4867 183.336 65.4205 183.336 64.1818C183.336 62.9394 183.563 61.8731 184.017 60.983C184.472 60.089 185.093 59.4034 185.881 58.9261C186.669 58.4451 187.565 58.2045 188.569 58.2045C189.186 58.2045 189.762 58.2936 190.296 58.4716C190.834 58.6458 191.317 58.9034 191.745 59.2443C192.173 59.5814 192.527 59.9943 192.807 60.483C193.087 60.9678 193.277 61.5227 193.375 62.1477ZM194.726 59.875V58.3636H203.732V59.875H200.101V70H198.351V59.875H194.726ZM205.546 70V58.3636H212.842V59.875H207.302V63.4205H212.461V64.9261H207.302V68.4886H212.91V70H205.546ZM218.778 70H215.011V58.3636H218.897C220.037 58.3636 221.016 58.5966 221.835 59.0625C222.653 59.5246 223.28 60.1894 223.715 61.0568C224.155 61.9205 224.374 62.9564 224.374 64.1648C224.374 65.3769 224.153 66.4186 223.71 67.2898C223.27 68.161 222.634 68.8314 221.8 69.3011C220.967 69.767 219.96 70 218.778 70ZM216.766 68.4659H218.681C219.568 68.4659 220.304 68.2992 220.891 67.9659C221.479 67.6288 221.918 67.142 222.21 66.5057C222.501 65.8655 222.647 65.0852 222.647 64.1648C222.647 63.2519 222.501 62.4773 222.21 61.8409C221.922 61.2045 221.492 60.7216 220.92 60.392C220.348 60.0625 219.638 59.8977 218.789 59.8977H216.766V68.4659ZM231.838 70V71.4432H224.446V70H231.838ZM234.68 58.3636V70H232.924V58.3636H234.68ZM246.453 58.3636V70H244.839L238.924 61.4659H238.817V70H237.061V58.3636H238.686L244.606 66.9091H244.714V58.3636H246.453Z" fill="black" fill-opacity="0.8"/>
<path d="M427.793 63.2929C427.402 63.6834 427.402 64.3166 427.793 64.7071L434.157 71.0711C434.547 71.4616 435.181 71.4616 435.571 71.0711C435.962 70.6805 435.962 70.0474 435.571 69.6569L429.914 64L435.571 58.3431C435.962 57.9526 435.962 57.3195 435.571 56.9289C435.181 56.5384 434.547 56.5384 434.157 56.9289L427.793 63.2929ZM463.591 65C464.143 65 464.591 64.5523 464.591 64C464.591 63.4477 464.143 63 463.591 63V64V65ZM556.591 63C556.039 63 555.591 63.4477 555.591 64C555.591 64.5523 556.039 65 556.591 65V64V63ZM586.5 65C587.052 65 587.5 64.5523 587.5 64C587.5 63.4477 587.052 63 586.5 63V64V65ZM428.5 64V65H463.591V64V63H428.5V64ZM556.591 64V65H586.5V64V63H556.591V64Z" fill="black" fill-opacity="0.8"/>
<path d="M476.159 70H472.391V58.3636H476.278C477.418 58.3636 478.397 58.5966 479.215 59.0625C480.034 59.5246 480.66 60.1894 481.096 61.0568C481.535 61.9205 481.755 62.9564 481.755 64.1648C481.755 65.3769 481.534 66.4186 481.09 67.2898C480.651 68.161 480.015 68.8314 479.181 69.3011C478.348 69.767 477.34 70 476.159 70ZM474.147 68.4659H476.062C476.948 68.4659 477.685 68.2992 478.272 67.9659C478.859 67.6288 479.299 67.142 479.59 66.5057C479.882 65.8655 480.028 65.0852 480.028 64.1648C480.028 63.2519 479.882 62.4773 479.59 61.8409C479.302 61.2045 478.873 60.7216 478.301 60.392C477.729 60.0625 477.018 59.8977 476.17 59.8977H474.147V68.4659ZM485.518 58.3636V70H483.762V58.3636H485.518ZM487.899 70V58.3636H492.047C492.948 58.3636 493.696 58.5189 494.291 58.8295C494.889 59.1402 495.336 59.5701 495.632 60.1193C495.927 60.6648 496.075 61.2955 496.075 62.0114C496.075 62.7235 495.925 63.3504 495.626 63.892C495.331 64.4299 494.884 64.8485 494.285 65.1477C493.691 65.447 492.942 65.5966 492.041 65.5966H488.899V64.0852H491.882C492.45 64.0852 492.912 64.0038 493.268 63.8409C493.628 63.678 493.891 63.4413 494.058 63.1307C494.225 62.8201 494.308 62.447 494.308 62.0114C494.308 61.572 494.223 61.1913 494.052 60.8693C493.886 60.5473 493.622 60.3011 493.262 60.1307C492.906 59.9564 492.439 59.8693 491.859 59.8693H489.655V70H487.899ZM493.643 64.75L496.518 70H494.518L491.7 64.75H493.643ZM498.035 70V58.3636H505.331V59.875H499.791V63.4205H504.95V64.9261H499.791V68.4886H505.399V70H498.035ZM517.165 62.1477H515.392C515.324 61.7689 515.197 61.4356 515.011 61.1477C514.826 60.8598 514.598 60.6155 514.33 60.4148C514.061 60.214 513.759 60.0625 513.426 59.9602C513.097 59.858 512.746 59.8068 512.375 59.8068C511.705 59.8068 511.104 59.9754 510.574 60.3125C510.047 60.6496 509.631 61.1439 509.324 61.7955C509.021 62.447 508.869 63.2424 508.869 64.1818C508.869 65.1288 509.021 65.928 509.324 66.5795C509.631 67.2311 510.049 67.7235 510.58 68.0568C511.11 68.3902 511.706 68.5568 512.369 68.5568C512.737 68.5568 513.085 68.5076 513.415 68.4091C513.748 68.3068 514.049 68.1572 514.318 67.9602C514.587 67.7633 514.814 67.5227 515 67.2386C515.189 66.9508 515.32 66.6212 515.392 66.25L517.165 66.2557C517.07 66.8277 516.886 67.3542 516.614 67.8352C516.345 68.3125 515.998 68.7254 515.574 69.0739C515.153 69.4186 514.672 69.6856 514.131 69.875C513.589 70.0644 512.998 70.1591 512.358 70.1591C511.35 70.1591 510.453 69.9205 509.665 69.4432C508.877 68.9621 508.256 68.2746 507.801 67.3807C507.35 66.4867 507.125 65.4205 507.125 64.1818C507.125 62.9394 507.352 61.8731 507.807 60.983C508.261 60.089 508.883 59.4034 509.67 58.9261C510.458 58.4451 511.354 58.2045 512.358 58.2045C512.975 58.2045 513.551 58.2936 514.085 58.4716C514.623 58.6458 515.106 58.9034 515.534 59.2443C515.962 59.5814 516.316 59.9943 516.597 60.483C516.877 60.9678 517.066 61.5227 517.165 62.1477ZM518.516 59.875V58.3636H527.521V59.875H523.891V70H522.141V59.875H518.516ZM529.335 70V58.3636H536.631V59.875H531.091V63.4205H536.25V64.9261H531.091V68.4886H536.699V70H529.335ZM542.567 70H538.8V58.3636H542.686C543.827 58.3636 544.806 58.5966 545.624 59.0625C546.442 59.5246 547.069 60.1894 547.505 61.0568C547.944 61.9205 548.164 62.9564 548.164 64.1648C548.164 65.3769 547.942 66.4186 547.499 67.2898C547.06 68.161 546.423 68.8314 545.59 69.3011C544.757 69.767 543.749 70 542.567 70ZM540.556 68.4659H542.471C543.357 68.4659 544.094 68.2992 544.681 67.9659C545.268 67.6288 545.707 67.142 545.999 66.5057C546.291 65.8655 546.436 65.0852 546.436 64.1648C546.436 63.2519 546.291 62.4773 545.999 61.8409C545.711 61.2045 545.281 60.7216 544.709 60.392C544.137 60.0625 543.427 59.8977 542.579 59.8977H540.556V68.4659Z" fill="black" fill-opacity="0.8"/>
<path d="M577.433 151V143.762H579.099V144.798C579.211 144.611 579.362 144.432 579.554 144.259C579.75 144.086 579.99 143.946 580.275 143.839C580.559 143.732 580.893 143.678 581.276 143.678C581.724 143.678 582.139 143.767 582.522 143.944C582.909 144.121 583.219 144.399 583.453 144.777C583.691 145.155 583.81 145.643 583.81 146.24V151H582.102V146.443C582.102 145.967 581.971 145.615 581.71 145.386C581.448 145.153 581.119 145.036 580.723 145.036C580.452 145.036 580.195 145.083 579.953 145.176C579.71 145.265 579.512 145.402 579.358 145.589C579.208 145.771 579.134 146 579.134 146.275V151H577.433ZM587.688 151.14C587.226 151.14 586.811 151.056 586.442 150.888C586.078 150.715 585.791 150.47 585.581 150.153C585.376 149.831 585.273 149.441 585.273 148.984C585.273 148.186 585.56 147.584 586.134 147.178C586.713 146.772 587.632 146.56 588.892 146.541L589.977 146.513V146.023C589.977 145.64 589.863 145.342 589.634 145.127C589.41 144.908 589.06 144.8 588.584 144.805C588.229 144.81 587.907 144.894 587.618 145.057C587.329 145.216 587.137 145.484 587.044 145.862H585.595C585.623 145.367 585.765 144.954 586.022 144.623C586.283 144.287 586.64 144.037 587.093 143.874C587.546 143.706 588.068 143.622 588.661 143.622C589.352 143.622 589.914 143.713 590.348 143.895C590.782 144.077 591.102 144.341 591.307 144.686C591.512 145.027 591.615 145.44 591.615 145.925V151H590.18L590.04 149.698C589.783 150.244 589.454 150.622 589.053 150.832C588.656 151.037 588.201 151.14 587.688 151.14ZM588.241 149.985C588.451 149.985 588.659 149.948 588.864 149.873C589.069 149.794 589.254 149.689 589.417 149.558C589.585 149.423 589.718 149.273 589.816 149.11C589.919 148.947 589.972 148.776 589.977 148.599V147.458L589.088 147.472C588.649 147.477 588.264 147.523 587.933 147.612C587.606 147.701 587.352 147.843 587.17 148.039C586.988 148.23 586.897 148.487 586.897 148.809C586.897 149.178 587.025 149.467 587.282 149.677C587.539 149.882 587.858 149.985 588.241 149.985ZM593.429 151V143.762H595.088V144.798C595.298 144.481 595.583 144.205 595.942 143.972C596.306 143.739 596.768 143.622 597.328 143.622C597.585 143.622 597.844 143.666 598.105 143.755C598.371 143.844 598.616 143.974 598.84 144.147C599.069 144.32 599.251 144.534 599.386 144.791C599.615 144.45 599.918 144.17 600.296 143.951C600.679 143.732 601.108 143.622 601.584 143.622C601.845 143.622 602.114 143.664 602.389 143.748C602.669 143.832 602.926 143.972 603.159 144.168C603.392 144.364 603.581 144.632 603.726 144.973C603.871 145.309 603.943 145.731 603.943 146.24V151H602.242V146.443C602.242 146.084 602.179 145.801 602.053 145.596C601.927 145.391 601.764 145.246 601.563 145.162C601.367 145.073 601.157 145.029 600.933 145.029C600.732 145.029 600.522 145.069 600.303 145.148C600.088 145.227 599.904 145.358 599.75 145.54C599.601 145.722 599.526 145.967 599.526 146.275V151H597.825V146.17C597.825 145.918 597.76 145.708 597.629 145.54C597.498 145.372 597.333 145.246 597.132 145.162C596.936 145.073 596.735 145.029 596.53 145.029C596.32 145.029 596.105 145.073 595.886 145.162C595.671 145.251 595.492 145.386 595.347 145.568C595.202 145.75 595.13 145.986 595.13 146.275V151H593.429ZM608.974 151.14C608.278 151.14 607.665 150.993 607.133 150.699C606.605 150.4 606.192 149.976 605.894 149.425C605.6 148.874 605.453 148.219 605.453 147.458C605.453 146.716 605.586 146.058 605.852 145.484C606.122 144.905 606.512 144.45 607.021 144.119C607.534 143.788 608.152 143.622 608.876 143.622C609.59 143.622 610.189 143.774 610.675 144.077C611.16 144.38 611.529 144.805 611.781 145.351C612.033 145.892 612.159 146.527 612.159 147.255V147.773H607.154C607.149 148.184 607.214 148.548 607.35 148.865C607.485 149.182 607.686 149.432 607.952 149.614C608.218 149.791 608.547 149.88 608.939 149.88C609.34 149.88 609.688 149.791 609.982 149.614C610.28 149.432 610.479 149.157 610.577 148.788H612.131C612.047 149.292 611.846 149.719 611.529 150.069C611.216 150.419 610.833 150.685 610.381 150.867C609.933 151.049 609.464 151.14 608.974 151.14ZM607.147 146.716H610.549C610.549 146.366 610.486 146.051 610.36 145.771C610.238 145.486 610.054 145.262 609.807 145.099C609.559 144.931 609.247 144.847 608.869 144.847C608.495 144.847 608.18 144.938 607.924 145.12C607.667 145.302 607.473 145.538 607.343 145.827C607.212 146.112 607.147 146.408 607.147 146.716ZM613.548 145.932V143.986H615.473V145.932H613.548ZM613.548 150.958V149.026H615.473V150.958H613.548ZM620.731 151V140.878H624.84C625.615 140.878 626.252 140.999 626.751 141.242C627.255 141.48 627.628 141.818 627.871 142.257C628.114 142.691 628.235 143.2 628.235 143.783C628.235 144.324 628.146 144.779 627.969 145.148C627.792 145.512 627.561 145.811 627.276 146.044C626.996 146.273 626.695 146.459 626.373 146.604L628.305 151H626.527L624.784 146.891H622.432V151H620.731ZM622.432 145.54H624.455C625.099 145.54 625.601 145.391 625.96 145.092C626.324 144.793 626.506 144.378 626.506 143.846C626.506 143.323 626.338 142.92 626.002 142.635C625.666 142.35 625.223 142.208 624.672 142.208H622.432V145.54ZM632.875 151.14C632.184 151.14 631.582 150.993 631.069 150.699C630.556 150.4 630.157 149.973 629.872 149.418C629.592 148.863 629.452 148.195 629.452 147.416C629.452 146.66 629.59 145.997 629.865 145.428C630.14 144.859 630.532 144.415 631.041 144.098C631.554 143.781 632.168 143.622 632.882 143.622C633.573 143.622 634.172 143.774 634.681 144.077C635.19 144.38 635.582 144.814 635.857 145.379C636.137 145.944 636.277 146.623 636.277 147.416C636.277 148.149 636.144 148.795 635.878 149.355C635.617 149.91 635.232 150.347 634.723 150.664C634.219 150.981 633.603 151.14 632.875 151.14ZM632.882 149.845C633.274 149.845 633.596 149.738 633.848 149.523C634.105 149.308 634.296 149.014 634.422 148.641C634.548 148.268 634.611 147.843 634.611 147.367C634.611 146.924 634.555 146.515 634.443 146.142C634.331 145.769 634.147 145.47 633.89 145.246C633.638 145.017 633.302 144.903 632.882 144.903C632.485 144.903 632.156 145.008 631.895 145.218C631.638 145.423 631.447 145.713 631.321 146.086C631.195 146.455 631.132 146.882 631.132 147.367C631.132 147.806 631.188 148.214 631.3 148.592C631.412 148.965 631.596 149.269 631.853 149.502C632.11 149.731 632.453 149.845 632.882 149.845ZM641.657 151.14C641.27 151.14 640.938 151.089 640.663 150.986C640.388 150.883 640.157 150.75 639.97 150.587C639.788 150.424 639.641 150.249 639.529 150.062C639.422 149.871 639.34 149.689 639.284 149.516L639.088 151H637.835V140.598H639.543V144.819C639.618 144.679 639.72 144.539 639.851 144.399C639.986 144.259 640.15 144.131 640.341 144.014C640.532 143.897 640.749 143.804 640.992 143.734C641.239 143.659 641.512 143.622 641.811 143.622C642.712 143.622 643.423 143.942 643.946 144.581C644.469 145.22 644.73 146.142 644.73 147.346C644.73 148.107 644.613 148.772 644.38 149.341C644.151 149.91 643.808 150.354 643.351 150.671C642.898 150.984 642.334 151.14 641.657 151.14ZM641.307 149.887C641.816 149.887 642.233 149.684 642.56 149.278C642.887 148.872 643.05 148.214 643.05 147.304C643.05 146.511 642.896 145.911 642.588 145.505C642.28 145.094 641.846 144.889 641.286 144.889C640.885 144.889 640.556 144.98 640.299 145.162C640.047 145.344 639.858 145.615 639.732 145.974C639.611 146.333 639.548 146.777 639.543 147.304C639.543 148.228 639.683 148.891 639.963 149.292C640.248 149.689 640.696 149.887 641.307 149.887ZM649.47 151.14C648.774 151.14 648.161 150.993 647.629 150.699C647.101 150.4 646.688 149.976 646.39 149.425C646.096 148.874 645.949 148.219 645.949 147.458C645.949 146.716 646.082 146.058 646.348 145.484C646.618 144.905 647.008 144.45 647.517 144.119C648.03 143.788 648.648 143.622 649.372 143.622C650.086 143.622 650.685 143.774 651.171 144.077C651.656 144.38 652.025 144.805 652.277 145.351C652.529 145.892 652.655 146.527 652.655 147.255V147.773H647.65C647.645 148.184 647.71 148.548 647.846 148.865C647.981 149.182 648.182 149.432 648.448 149.614C648.714 149.791 649.043 149.88 649.435 149.88C649.836 149.88 650.184 149.791 650.478 149.614C650.776 149.432 650.975 149.157 651.073 148.788H652.627C652.543 149.292 652.342 149.719 652.025 150.069C651.712 150.419 651.329 150.685 650.877 150.867C650.429 151.049 649.96 151.14 649.47 151.14ZM647.643 146.716H651.045C651.045 146.366 650.982 146.051 650.856 145.771C650.734 145.486 650.55 145.262 650.303 145.099C650.055 144.931 649.743 144.847 649.365 144.847C648.991 144.847 648.676 144.938 648.42 145.12C648.163 145.302 647.969 145.538 647.839 145.827C647.708 146.112 647.643 146.408 647.643 146.716ZM654.282 151V143.762H655.913V145.33C656.03 144.971 656.196 144.665 656.41 144.413C656.63 144.156 656.886 143.96 657.18 143.825C657.474 143.69 657.794 143.622 658.139 143.622C658.223 143.622 658.305 143.627 658.384 143.636C658.464 143.645 658.522 143.662 658.559 143.685V145.316C658.508 145.293 658.44 145.276 658.356 145.267C658.277 145.258 658.207 145.253 658.146 145.253C657.796 145.225 657.486 145.239 657.215 145.295C656.949 145.351 656.723 145.447 656.536 145.582C656.354 145.713 656.217 145.881 656.123 146.086C656.03 146.287 655.983 146.522 655.983 146.793V151H654.282ZM662.684 151.056C662.11 151.056 661.664 150.981 661.347 150.832C661.034 150.678 660.817 150.461 660.696 150.181C660.574 149.901 660.514 149.567 660.514 149.18V144.966H659.338V143.762H660.562L660.99 141.613H662.215V143.755H663.832V144.966H662.215L662.222 149.117C662.222 149.332 662.245 149.49 662.292 149.593C662.343 149.691 662.422 149.756 662.53 149.789C662.642 149.817 662.789 149.831 662.971 149.831H663.867V150.909C663.769 150.946 663.624 150.979 663.433 151.007C663.246 151.04 662.996 151.056 662.684 151.056ZM668.559 151V150.132L673.879 142.327H668.853V140.878H676.294V141.704L670.911 149.537H676.245V151H668.559ZM680.901 151.14C680.206 151.14 679.592 150.993 679.06 150.699C678.533 150.4 678.12 149.976 677.821 149.425C677.527 148.874 677.38 148.219 677.38 147.458C677.38 146.716 677.513 146.058 677.779 145.484C678.05 144.905 678.44 144.45 678.948 144.119C679.462 143.788 680.08 143.622 680.803 143.622C681.517 143.622 682.117 143.774 682.602 144.077C683.088 144.38 683.456 144.805 683.708 145.351C683.96 145.892 684.086 146.527 684.086 147.255V147.773H679.081C679.077 148.184 679.142 148.548 679.277 148.865C679.413 149.182 679.613 149.432 679.879 149.614C680.145 149.791 680.474 149.88 680.866 149.88C681.268 149.88 681.615 149.791 681.909 149.614C682.208 149.432 682.406 149.157 682.504 148.788H684.058C683.974 149.292 683.774 149.719 683.456 150.069C683.144 150.419 682.761 150.685 682.308 150.867C681.86 151.049 681.391 151.14 680.901 151.14ZM679.074 146.716H682.476C682.476 146.366 682.413 146.051 682.287 145.771C682.166 145.486 681.982 145.262 681.734 145.099C681.487 144.931 681.174 144.847 680.796 144.847C680.423 144.847 680.108 144.938 679.851 145.12C679.595 145.302 679.401 145.538 679.27 145.827C679.14 146.112 679.074 146.408 679.074 146.716ZM685.714 151V143.762H687.373V144.798C687.583 144.481 687.868 144.205 688.227 143.972C688.591 143.739 689.053 143.622 689.613 143.622C689.87 143.622 690.129 143.666 690.39 143.755C690.656 143.844 690.901 143.974 691.125 144.147C691.354 144.32 691.536 144.534 691.671 144.791C691.9 144.45 692.203 144.17 692.581 143.951C692.964 143.732 693.393 143.622 693.869 143.622C694.13 143.622 694.399 143.664 694.674 143.748C694.954 143.832 695.211 143.972 695.444 144.168C695.677 144.364 695.866 144.632 696.011 144.973C696.156 145.309 696.228 145.731 696.228 146.24V151H694.527V146.443C694.527 146.084 694.464 145.801 694.338 145.596C694.212 145.391 694.049 145.246 693.848 145.162C693.652 145.073 693.442 145.029 693.218 145.029C693.017 145.029 692.807 145.069 692.588 145.148C692.373 145.227 692.189 145.358 692.035 145.54C691.886 145.722 691.811 145.967 691.811 146.275V151H690.11V146.17C690.11 145.918 690.045 145.708 689.914 145.54C689.783 145.372 689.618 145.246 689.417 145.162C689.221 145.073 689.02 145.029 688.815 145.029C688.605 145.029 688.39 145.073 688.171 145.162C687.956 145.251 687.777 145.386 687.632 145.568C687.487 145.75 687.415 145.986 687.415 146.275V151H685.714ZM701.259 151.14C700.563 151.14 699.95 150.993 699.418 150.699C698.89 150.4 698.477 149.976 698.179 149.425C697.885 148.874 697.738 148.219 697.738 147.458C697.738 146.716 697.871 146.058 698.137 145.484C698.407 144.905 698.797 144.45 699.306 144.119C699.819 143.788 700.437 143.622 701.161 143.622C701.875 143.622 702.474 143.774 702.96 144.077C703.445 144.38 703.814 144.805 704.066 145.351C704.318 145.892 704.444 146.527 704.444 147.255V147.773H699.439C699.434 148.184 699.499 148.548 699.635 148.865C699.77 149.182 699.971 149.432 700.237 149.614C700.503 149.791 700.832 149.88 701.224 149.88C701.625 149.88 701.973 149.791 702.267 149.614C702.565 149.432 702.764 149.157 702.862 148.788H704.416C704.332 149.292 704.131 149.719 703.814 150.069C703.501 150.419 703.118 150.685 702.666 150.867C702.218 151.049 701.749 151.14 701.259 151.14ZM699.432 146.716H702.834C702.834 146.366 702.771 146.051 702.645 145.771C702.523 145.486 702.339 145.262 702.092 145.099C701.844 144.931 701.532 144.847 701.154 144.847C700.78 144.847 700.465 144.938 700.209 145.12C699.952 145.302 699.758 145.538 699.628 145.827C699.497 146.112 699.432 146.408 699.432 146.716ZM709.109 151.14C708.447 151.14 707.856 150.995 707.338 150.706C706.825 150.412 706.421 149.987 706.127 149.432C705.833 148.872 705.686 148.198 705.686 147.409C705.686 146.658 705.824 146 706.099 145.435C706.379 144.866 706.774 144.422 707.282 144.105C707.796 143.783 708.405 143.622 709.109 143.622C709.674 143.622 710.171 143.734 710.6 143.958C711.03 144.182 711.373 144.492 711.629 144.889C711.891 145.286 712.047 145.736 712.098 146.24H710.649C710.612 146.021 710.53 145.813 710.404 145.617C710.278 145.416 710.108 145.255 709.893 145.134C709.683 145.008 709.427 144.945 709.123 144.945C708.577 144.945 708.136 145.146 707.8 145.547C707.464 145.948 707.296 146.564 707.296 147.395C707.296 148.16 707.455 148.769 707.772 149.222C708.094 149.675 708.554 149.901 709.151 149.901C709.45 149.901 709.707 149.836 709.921 149.705C710.136 149.57 710.304 149.404 710.425 149.208C710.551 149.007 710.631 148.807 710.663 148.606H712.077C712.035 149.096 711.884 149.532 711.622 149.915C711.361 150.298 711.016 150.599 710.586 150.818C710.157 151.033 709.665 151.14 709.109 151.14ZM713.646 151V140.598H715.34V147.045L718.343 143.762H720.212L717.594 146.59L720.345 151H718.616L716.516 147.647L715.34 148.879V151H713.646ZM721.672 151V143.762H723.303V151H721.672ZM721.644 142.495V140.885H723.331V142.495H721.644ZM728.025 151.14C727.521 151.14 727.043 151.061 726.59 150.902C726.142 150.739 725.764 150.484 725.456 150.139C725.153 149.794 724.961 149.348 724.882 148.802H726.38C726.445 149.068 726.56 149.285 726.723 149.453C726.891 149.621 727.087 149.745 727.311 149.824C727.54 149.899 727.775 149.936 728.018 149.936C728.452 149.936 728.802 149.861 729.068 149.712C729.334 149.563 729.467 149.332 729.467 149.019C729.467 148.79 729.392 148.608 729.243 148.473C729.098 148.338 728.86 148.235 728.529 148.165L727.157 147.85C726.541 147.715 726.049 147.491 725.68 147.178C725.311 146.865 725.125 146.424 725.12 145.855C725.115 145.426 725.223 145.043 725.442 144.707C725.661 144.371 725.988 144.107 726.422 143.916C726.856 143.72 727.39 143.622 728.025 143.622C728.87 143.622 729.546 143.811 730.055 144.189C730.568 144.562 730.832 145.097 730.846 145.792H729.397C729.346 145.479 729.199 145.237 728.956 145.064C728.713 144.887 728.398 144.798 728.011 144.798C727.61 144.798 727.281 144.875 727.024 145.029C726.767 145.183 726.639 145.419 726.639 145.736C726.639 145.955 726.735 146.128 726.926 146.254C727.122 146.38 727.418 146.487 727.815 146.576L729.117 146.891C729.49 146.984 729.796 147.11 730.034 147.269C730.272 147.428 730.456 147.603 730.587 147.794C730.722 147.981 730.816 148.174 730.867 148.375C730.923 148.571 730.951 148.753 730.951 148.921C730.951 149.388 730.83 149.787 730.587 150.118C730.349 150.445 730.011 150.697 729.572 150.874C729.138 151.051 728.622 151.14 728.025 151.14ZM625.333 175.14C624.946 175.14 624.614 175.089 624.339 174.986C624.064 174.883 623.833 174.75 623.646 174.587C623.464 174.424 623.317 174.249 623.205 174.062C623.098 173.871 623.016 173.689 622.96 173.516L622.764 175H621.511V164.598H623.219V168.819C623.294 168.679 623.396 168.539 623.527 168.399C623.662 168.259 623.826 168.131 624.017 168.014C624.208 167.897 624.425 167.804 624.668 167.734C624.915 167.659 625.188 167.622 625.487 167.622C626.388 167.622 627.099 167.942 627.622 168.581C628.145 169.22 628.406 170.142 628.406 171.346C628.406 172.107 628.289 172.772 628.056 173.341C627.827 173.91 627.484 174.354 627.027 174.671C626.574 174.984 626.01 175.14 625.333 175.14ZM624.983 173.887C625.492 173.887 625.909 173.684 626.236 173.278C626.563 172.872 626.726 172.214 626.726 171.304C626.726 170.511 626.572 169.911 626.264 169.505C625.956 169.094 625.522 168.889 624.962 168.889C624.561 168.889 624.232 168.98 623.975 169.162C623.723 169.344 623.534 169.615 623.408 169.974C623.287 170.333 623.224 170.777 623.219 171.304C623.219 172.228 623.359 172.891 623.639 173.292C623.924 173.689 624.372 173.887 624.983 173.887ZM632.984 175.14C632.294 175.14 631.692 174.993 631.178 174.699C630.665 174.4 630.266 173.973 629.981 173.418C629.701 172.863 629.561 172.195 629.561 171.416C629.561 170.66 629.699 169.997 629.974 169.428C630.25 168.859 630.642 168.415 631.15 168.098C631.664 167.781 632.277 167.622 632.991 167.622C633.682 167.622 634.282 167.774 634.79 168.077C635.299 168.38 635.691 168.814 635.966 169.379C636.246 169.944 636.386 170.623 636.386 171.416C636.386 172.149 636.253 172.795 635.987 173.355C635.726 173.91 635.341 174.347 634.832 174.664C634.328 174.981 633.712 175.14 632.984 175.14ZM632.991 173.845C633.383 173.845 633.705 173.738 633.957 173.523C634.214 173.308 634.405 173.014 634.531 172.641C634.657 172.268 634.72 171.843 634.72 171.367C634.72 170.924 634.664 170.515 634.552 170.142C634.44 169.769 634.256 169.47 633.999 169.246C633.747 169.017 633.411 168.903 632.991 168.903C632.595 168.903 632.266 169.008 632.004 169.218C631.748 169.423 631.556 169.713 631.43 170.086C631.304 170.455 631.241 170.882 631.241 171.367C631.241 171.806 631.297 172.214 631.409 172.592C631.521 172.965 631.706 173.269 631.962 173.502C632.219 173.731 632.562 173.845 632.991 173.845ZM637.945 175V167.762H639.576V169.33C639.692 168.971 639.858 168.665 640.073 168.413C640.292 168.156 640.549 167.96 640.843 167.825C641.137 167.69 641.456 167.622 641.802 167.622C641.886 167.622 641.967 167.627 642.047 167.636C642.126 167.645 642.184 167.662 642.222 167.685V169.316C642.17 169.293 642.103 169.276 642.019 169.267C641.939 169.258 641.869 169.253 641.809 169.253C641.459 169.225 641.148 169.239 640.878 169.295C640.612 169.351 640.385 169.447 640.199 169.582C640.017 169.713 639.879 169.881 639.786 170.086C639.692 170.287 639.646 170.522 639.646 170.793V175H637.945ZM643.577 175V167.762H645.243V168.798C645.355 168.611 645.507 168.432 645.698 168.259C645.894 168.086 646.135 167.946 646.419 167.839C646.704 167.732 647.038 167.678 647.42 167.678C647.868 167.678 648.284 167.767 648.666 167.944C649.054 168.121 649.364 168.399 649.597 168.777C649.835 169.155 649.954 169.643 649.954 170.24V175H648.246V170.443C648.246 169.967 648.116 169.615 647.854 169.386C647.593 169.153 647.264 169.036 646.867 169.036C646.597 169.036 646.34 169.083 646.097 169.176C645.855 169.265 645.656 169.402 645.502 169.589C645.353 169.771 645.278 170 645.278 170.275V175H643.577ZM651.542 169.932V167.986H653.467V169.932H651.542ZM651.542 174.958V173.026H653.467V174.958H651.542ZM659.999 175V167.202H658.123V166.187C658.716 166.187 659.185 166.138 659.53 166.04C659.88 165.937 660.134 165.788 660.293 165.592C660.456 165.396 660.55 165.158 660.573 164.878H661.735V175H659.999ZM667.572 175.154C666.98 175.154 666.424 175.04 665.906 174.811C665.388 174.582 664.961 174.258 664.625 173.838C664.289 173.418 664.093 172.923 664.037 172.354H665.668C665.766 172.779 665.979 173.124 666.305 173.39C666.632 173.651 667.033 173.782 667.509 173.782C668.046 173.782 668.51 173.649 668.902 173.383C669.299 173.117 669.595 172.699 669.791 172.13C669.987 171.561 670.06 170.821 670.008 169.911C669.882 170.21 669.698 170.471 669.455 170.695C669.217 170.919 668.933 171.094 668.601 171.22C668.275 171.341 667.911 171.402 667.509 171.402C666.833 171.402 666.233 171.274 665.71 171.017C665.192 170.756 664.786 170.385 664.492 169.904C664.198 169.419 664.051 168.845 664.051 168.182C664.051 167.51 664.201 166.915 664.499 166.397C664.803 165.879 665.227 165.473 665.773 165.179C666.324 164.885 666.97 164.738 667.712 164.738C668.538 164.738 669.252 164.941 669.854 165.347C670.456 165.753 670.918 166.332 671.24 167.083C671.567 167.834 671.73 168.726 671.73 169.757C671.73 170.933 671.565 171.922 671.233 172.725C670.907 173.523 670.433 174.127 669.812 174.538C669.196 174.949 668.45 175.154 667.572 175.154ZM667.761 170.016C668.088 170.016 668.401 169.941 668.699 169.792C668.998 169.643 669.243 169.449 669.434 169.211C669.626 168.973 669.721 168.721 669.721 168.455C669.726 167.97 669.647 167.55 669.483 167.195C669.32 166.836 669.089 166.558 668.79 166.362C668.496 166.161 668.151 166.061 667.754 166.061C667.395 166.061 667.073 166.147 666.788 166.32C666.508 166.493 666.289 166.733 666.13 167.041C665.972 167.344 665.892 167.697 665.892 168.098C665.892 168.695 666.058 169.164 666.389 169.505C666.721 169.846 667.178 170.016 667.761 170.016ZM677.121 175.154C676.477 175.154 675.878 175.049 675.322 174.839C674.772 174.624 674.296 174.33 673.894 173.957C673.498 173.584 673.201 173.157 673.005 172.676L674.384 171.948C674.557 172.293 674.762 172.604 675 172.879C675.243 173.154 675.525 173.371 675.847 173.53C676.174 173.684 676.547 173.761 676.967 173.761C677.625 173.761 678.153 173.579 678.549 173.215C678.951 172.846 679.151 172.356 679.151 171.745C679.151 171.367 679.058 171.031 678.871 170.737C678.689 170.443 678.44 170.214 678.122 170.051C677.81 169.883 677.453 169.799 677.051 169.799C676.813 169.799 676.589 169.82 676.379 169.862C676.174 169.904 675.966 169.983 675.756 170.1C675.546 170.212 675.32 170.382 675.077 170.611C675.031 170.634 674.996 170.646 674.972 170.646C674.954 170.641 674.919 170.627 674.867 170.604L673.558 170.072L674.02 164.878H680.313L680.25 166.299H675.406L675.175 169.113C675.535 168.861 675.896 168.679 676.26 168.567C676.624 168.455 677.026 168.399 677.464 168.399C678.108 168.399 678.694 168.525 679.221 168.777C679.749 169.029 680.169 169.4 680.481 169.89C680.794 170.38 680.95 170.98 680.95 171.689C680.95 172.398 680.792 173.012 680.474 173.53C680.162 174.048 679.718 174.449 679.144 174.734C678.575 175.014 677.901 175.154 677.121 175.154ZM684.089 175V167.202H682.213V166.187C682.806 166.187 683.275 166.138 683.62 166.04C683.97 165.937 684.224 165.788 684.383 165.592C684.546 165.396 684.64 165.158 684.663 164.878H685.825V175H684.089Z" fill="black"/>
<path d="M305.323 151.056C304.749 151.056 304.303 150.981 303.986 150.832C303.673 150.678 303.456 150.461 303.335 150.181C303.214 149.901 303.153 149.567 303.153 149.18V144.966H301.977V143.762H303.202L303.629 141.613H304.854V143.755H306.471V144.966H304.854L304.861 149.117C304.861 149.332 304.884 149.49 304.931 149.593C304.982 149.691 305.062 149.756 305.169 149.789C305.281 149.817 305.428 149.831 305.61 149.831H306.506V150.909C306.408 150.946 306.263 150.979 306.072 151.007C305.885 151.04 305.636 151.056 305.323 151.056ZM308.106 151V143.762H309.737V151H308.106ZM308.078 142.495V140.885H309.765V142.495H308.078ZM314.593 151.056C314.019 151.056 313.573 150.981 313.256 150.832C312.943 150.678 312.726 150.461 312.605 150.181C312.483 149.901 312.423 149.567 312.423 149.18V144.966H311.247V143.762H312.472L312.899 141.613H314.124V143.755H315.741V144.966H314.124L314.131 149.117C314.131 149.332 314.154 149.49 314.201 149.593C314.252 149.691 314.331 149.756 314.439 149.789C314.551 149.817 314.698 149.831 314.88 149.831H315.776V150.909C315.678 150.946 315.533 150.979 315.342 151.007C315.155 151.04 314.905 151.056 314.593 151.056ZM319.434 151.105C318.967 151.105 318.594 151.047 318.314 150.93C318.034 150.813 317.824 150.657 317.684 150.461C317.544 150.265 317.453 150.046 317.411 149.803C317.369 149.556 317.348 149.304 317.348 149.047V140.598H319.014V148.851C319.014 149.164 319.077 149.406 319.203 149.579C319.334 149.752 319.544 149.852 319.833 149.88L320.197 149.894V150.965C320.071 151.002 319.943 151.035 319.812 151.063C319.681 151.091 319.555 151.105 319.434 151.105ZM324.607 151.14C323.912 151.14 323.298 150.993 322.766 150.699C322.239 150.4 321.826 149.976 321.527 149.425C321.233 148.874 321.086 148.219 321.086 147.458C321.086 146.716 321.219 146.058 321.485 145.484C321.756 144.905 322.146 144.45 322.654 144.119C323.168 143.788 323.786 143.622 324.509 143.622C325.223 143.622 325.823 143.774 326.308 144.077C326.794 144.38 327.162 144.805 327.414 145.351C327.666 145.892 327.792 146.527 327.792 147.255V147.773H322.787C322.783 148.184 322.848 148.548 322.983 148.865C323.119 149.182 323.319 149.432 323.585 149.614C323.851 149.791 324.18 149.88 324.572 149.88C324.974 149.88 325.321 149.791 325.615 149.614C325.914 149.432 326.112 149.157 326.21 148.788H327.764C327.68 149.292 327.48 149.719 327.162 150.069C326.85 150.419 326.467 150.685 326.014 150.867C325.566 151.049 325.097 151.14 324.607 151.14ZM322.78 146.716H326.182C326.182 146.366 326.119 146.051 325.993 145.771C325.872 145.486 325.688 145.262 325.44 145.099C325.193 144.931 324.88 144.847 324.502 144.847C324.129 144.847 323.814 144.938 323.557 145.12C323.301 145.302 323.107 145.538 322.976 145.827C322.846 146.112 322.78 146.408 322.78 146.716ZM329.182 145.932V143.986H331.107V145.932H329.182ZM329.182 150.958V149.026H331.107V150.958H329.182ZM336.365 151V140.878H342.987L342.98 142.32H338.094V145.232H342.406V146.653H338.094V151H336.365ZM347.36 151.14C346.67 151.14 346.068 150.993 345.554 150.699C345.041 150.4 344.642 149.973 344.357 149.418C344.077 148.863 343.937 148.195 343.937 147.416C343.937 146.66 344.075 145.997 344.35 145.428C344.626 144.859 345.018 144.415 345.526 144.098C346.04 143.781 346.653 143.622 347.367 143.622C348.058 143.622 348.658 143.774 349.166 144.077C349.675 144.38 350.067 144.814 350.342 145.379C350.622 145.944 350.762 146.623 350.762 147.416C350.762 148.149 350.629 148.795 350.363 149.355C350.102 149.91 349.717 150.347 349.208 150.664C348.704 150.981 348.088 151.14 347.36 151.14ZM347.367 149.845C347.759 149.845 348.081 149.738 348.333 149.523C348.59 149.308 348.781 149.014 348.907 148.641C349.033 148.268 349.096 147.843 349.096 147.367C349.096 146.924 349.04 146.515 348.928 146.142C348.816 145.769 348.632 145.47 348.375 145.246C348.123 145.017 347.787 144.903 347.367 144.903C346.971 144.903 346.642 145.008 346.38 145.218C346.124 145.423 345.932 145.713 345.806 146.086C345.68 146.455 345.617 146.882 345.617 147.367C345.617 147.806 345.673 148.214 345.785 148.592C345.897 148.965 346.082 149.269 346.338 149.502C346.595 149.731 346.938 149.845 347.367 149.845ZM352.32 151V143.762H353.951V145.33C354.068 144.971 354.234 144.665 354.448 144.413C354.668 144.156 354.924 143.96 355.218 143.825C355.512 143.69 355.832 143.622 356.177 143.622C356.261 143.622 356.343 143.627 356.422 143.636C356.502 143.645 356.56 143.662 356.597 143.685V145.316C356.546 145.293 356.478 145.276 356.394 145.267C356.315 145.258 356.245 145.253 356.184 145.253C355.834 145.225 355.524 145.239 355.253 145.295C354.987 145.351 354.761 145.447 354.574 145.582C354.392 145.713 354.255 145.881 354.161 146.086C354.068 146.287 354.021 146.522 354.021 146.793V151H352.32ZM361.098 151.14C360.402 151.14 359.789 150.993 359.257 150.699C358.729 150.4 358.316 149.976 358.018 149.425C357.724 148.874 357.577 148.219 357.577 147.458C357.577 146.716 357.71 146.058 357.976 145.484C358.246 144.905 358.636 144.45 359.145 144.119C359.658 143.788 360.276 143.622 361 143.622C361.714 143.622 362.313 143.774 362.799 144.077C363.284 144.38 363.653 144.805 363.905 145.351C364.157 145.892 364.283 146.527 364.283 147.255V147.773H359.278C359.273 148.184 359.338 148.548 359.474 148.865C359.609 149.182 359.81 149.432 360.076 149.614C360.342 149.791 360.671 149.88 361.063 149.88C361.464 149.88 361.812 149.791 362.106 149.614C362.404 149.432 362.603 149.157 362.701 148.788H364.255C364.171 149.292 363.97 149.719 363.653 150.069C363.34 150.419 362.957 150.685 362.505 150.867C362.057 151.049 361.588 151.14 361.098 151.14ZM359.271 146.716H362.673C362.673 146.366 362.61 146.051 362.484 145.771C362.362 145.486 362.178 145.262 361.931 145.099C361.683 144.931 361.371 144.847 360.993 144.847C360.619 144.847 360.304 144.938 360.048 145.12C359.791 145.302 359.597 145.538 359.467 145.827C359.336 146.112 359.271 146.408 359.271 146.716ZM368.655 151.14C368.151 151.14 367.673 151.061 367.22 150.902C366.772 150.739 366.394 150.484 366.086 150.139C365.783 149.794 365.591 149.348 365.512 148.802H367.01C367.075 149.068 367.19 149.285 367.353 149.453C367.521 149.621 367.717 149.745 367.941 149.824C368.17 149.899 368.405 149.936 368.648 149.936C369.082 149.936 369.432 149.861 369.698 149.712C369.964 149.563 370.097 149.332 370.097 149.019C370.097 148.79 370.022 148.608 369.873 148.473C369.728 148.338 369.49 148.235 369.159 148.165L367.787 147.85C367.171 147.715 366.679 147.491 366.31 147.178C365.941 146.865 365.755 146.424 365.75 145.855C365.745 145.426 365.853 145.043 366.072 144.707C366.291 144.371 366.618 144.107 367.052 143.916C367.486 143.72 368.02 143.622 368.655 143.622C369.5 143.622 370.176 143.811 370.685 144.189C371.198 144.562 371.462 145.097 371.476 145.792H370.027C369.976 145.479 369.829 145.237 369.586 145.064C369.343 144.887 369.028 144.798 368.641 144.798C368.24 144.798 367.911 144.875 367.654 145.029C367.397 145.183 367.269 145.419 367.269 145.736C367.269 145.955 367.365 146.128 367.556 146.254C367.752 146.38 368.048 146.487 368.445 146.576L369.747 146.891C370.12 146.984 370.426 147.11 370.664 147.269C370.902 147.428 371.086 147.603 371.217 147.794C371.352 147.981 371.446 148.174 371.497 148.375C371.553 148.571 371.581 148.753 371.581 148.921C371.581 149.388 371.46 149.787 371.217 150.118C370.979 150.445 370.641 150.697 370.202 150.874C369.768 151.051 369.252 151.14 368.655 151.14ZM375.952 151.056C375.378 151.056 374.932 150.981 374.615 150.832C374.302 150.678 374.085 150.461 373.964 150.181C373.843 149.901 373.782 149.567 373.782 149.18V144.966H372.606V143.762H373.831L374.258 141.613H375.483V143.755H377.1V144.966H375.483L375.49 149.117C375.49 149.332 375.513 149.49 375.56 149.593C375.611 149.691 375.691 149.756 375.798 149.789C375.91 149.817 376.057 149.831 376.239 149.831H377.135V150.909C377.037 150.946 376.892 150.979 376.701 151.007C376.514 151.04 376.265 151.056 375.952 151.056ZM386.154 151.14C385.248 151.14 384.462 150.932 383.795 150.517C383.127 150.102 382.614 149.509 382.255 148.739C381.895 147.964 381.716 147.04 381.716 145.967C381.716 144.884 381.902 143.951 382.276 143.167C382.649 142.383 383.174 141.783 383.851 141.368C384.532 140.948 385.33 140.738 386.245 140.738C386.805 140.738 387.32 140.831 387.792 141.018C388.268 141.205 388.683 141.457 389.038 141.774C389.397 142.091 389.679 142.453 389.885 142.859C390.09 143.265 390.204 143.687 390.228 144.126H388.429C388.363 143.781 388.23 143.463 388.03 143.174C387.834 142.88 387.579 142.644 387.267 142.467C386.959 142.29 386.606 142.201 386.21 142.201C385.701 142.201 385.246 142.329 384.845 142.586C384.448 142.843 384.135 143.246 383.907 143.797C383.683 144.343 383.571 145.052 383.571 145.925C383.571 146.616 383.641 147.199 383.781 147.675C383.925 148.146 384.121 148.527 384.369 148.816C384.621 149.101 384.91 149.308 385.237 149.439C385.563 149.565 385.909 149.628 386.273 149.628C386.627 149.628 386.94 149.567 387.211 149.446C387.481 149.325 387.71 149.166 387.897 148.97C388.088 148.774 388.235 148.564 388.338 148.34C388.445 148.111 388.508 147.89 388.527 147.675L388.59 146.933H386.329V145.729L390.368 145.743V151H389.164V149.579C388.991 149.836 388.772 150.083 388.506 150.321C388.244 150.559 387.922 150.755 387.54 150.909C387.162 151.063 386.7 151.14 386.154 151.14ZM395.094 151.14C394.739 151.14 394.396 151.089 394.065 150.986C393.738 150.879 393.444 150.725 393.183 150.524C392.921 150.319 392.714 150.067 392.56 149.768C392.406 149.469 392.329 149.122 392.329 148.725V143.762H394.037V148.529C394.037 148.921 394.16 149.243 394.408 149.495C394.66 149.747 395.038 149.873 395.542 149.873C395.999 149.873 396.365 149.754 396.641 149.516C396.916 149.273 397.054 148.926 397.054 148.473V143.762H398.748V151H397.439L397.25 149.586C397.161 149.983 397.005 150.295 396.781 150.524C396.561 150.748 396.302 150.907 396.004 151C395.71 151.093 395.406 151.14 395.094 151.14ZM400.746 151V143.762H402.405V144.798C402.615 144.481 402.9 144.205 403.259 143.972C403.623 143.739 404.085 143.622 404.645 143.622C404.902 143.622 405.161 143.666 405.422 143.755C405.688 143.844 405.933 143.974 406.157 144.147C406.386 144.32 406.568 144.534 406.703 144.791C406.932 144.45 407.235 144.17 407.613 143.951C407.996 143.732 408.425 143.622 408.901 143.622C409.163 143.622 409.431 143.664 409.706 143.748C409.986 143.832 410.243 143.972 410.476 144.168C410.71 144.364 410.899 144.632 411.043 144.973C411.188 145.309 411.26 145.731 411.26 146.24V151H409.559V146.443C409.559 146.084 409.496 145.801 409.37 145.596C409.244 145.391 409.081 145.246 408.88 145.162C408.684 145.073 408.474 145.029 408.25 145.029C408.05 145.029 407.84 145.069 407.62 145.148C407.406 145.227 407.221 145.358 407.067 145.54C406.918 145.722 406.843 145.967 406.843 146.275V151H405.142V146.17C405.142 145.918 405.077 145.708 404.946 145.54C404.816 145.372 404.65 145.246 404.449 145.162C404.253 145.073 404.053 145.029 403.847 145.029C403.637 145.029 403.423 145.073 403.203 145.162C402.989 145.251 402.809 145.386 402.664 145.568C402.52 145.75 402.447 145.986 402.447 146.275V151H400.746ZM413.092 153.254V143.762H414.793L414.807 144.903C414.9 144.744 415.019 144.588 415.164 144.434C415.313 144.28 415.484 144.142 415.675 144.021C415.871 143.9 416.088 143.804 416.326 143.734C416.564 143.659 416.825 143.622 417.11 143.622C417.665 143.622 418.158 143.755 418.587 144.021C419.016 144.282 419.352 144.686 419.595 145.232C419.842 145.778 419.966 146.469 419.966 147.304C419.966 148.158 419.84 148.87 419.588 149.439C419.336 150.008 418.984 150.435 418.531 150.72C418.078 151 417.553 151.14 416.956 151.14C416.681 151.14 416.429 151.103 416.2 151.028C415.976 150.953 415.775 150.851 415.598 150.72C415.421 150.589 415.264 150.447 415.129 150.293C414.998 150.139 414.889 149.978 414.8 149.81V153.254H413.092ZM416.578 149.866C417.091 149.866 417.516 149.663 417.852 149.257C418.188 148.846 418.356 148.205 418.356 147.332C418.356 146.576 418.197 145.981 417.88 145.547C417.567 145.108 417.133 144.889 416.578 144.889C415.981 144.889 415.533 145.12 415.234 145.582C414.935 146.039 414.786 146.623 414.786 147.332C414.786 147.789 414.851 148.212 414.982 148.599C415.117 148.982 415.316 149.29 415.577 149.523C415.843 149.752 416.177 149.866 416.578 149.866ZM313.718 175V167.762H315.349V169.33C315.466 168.971 315.631 168.665 315.846 168.413C316.065 168.156 316.322 167.96 316.616 167.825C316.91 167.69 317.23 167.622 317.575 167.622C317.659 167.622 317.741 167.627 317.82 167.636C317.899 167.645 317.958 167.662 317.995 167.685V169.316C317.944 169.293 317.876 169.276 317.792 169.267C317.713 169.258 317.643 169.253 317.582 169.253C317.232 169.225 316.922 169.239 316.651 169.295C316.385 169.351 316.159 169.447 315.972 169.582C315.79 169.713 315.652 169.881 315.559 170.086C315.466 170.287 315.419 170.522 315.419 170.793V175H313.718ZM322.495 175.14C321.8 175.14 321.186 174.993 320.654 174.699C320.127 174.4 319.714 173.976 319.415 173.425C319.121 172.874 318.974 172.219 318.974 171.458C318.974 170.716 319.107 170.058 319.373 169.484C319.644 168.905 320.033 168.45 320.542 168.119C321.055 167.788 321.674 167.622 322.397 167.622C323.111 167.622 323.711 167.774 324.196 168.077C324.681 168.38 325.05 168.805 325.302 169.351C325.554 169.892 325.68 170.527 325.68 171.255V171.773H320.675C320.67 172.184 320.736 172.548 320.871 172.865C321.006 173.182 321.207 173.432 321.473 173.614C321.739 173.791 322.068 173.88 322.46 173.88C322.861 173.88 323.209 173.791 323.503 173.614C323.802 173.432 324 173.157 324.098 172.788H325.652C325.568 173.292 325.367 173.719 325.05 174.069C324.737 174.419 324.355 174.685 323.902 174.867C323.454 175.049 322.985 175.14 322.495 175.14ZM320.668 170.716H324.07C324.07 170.366 324.007 170.051 323.881 169.771C323.76 169.486 323.575 169.262 323.328 169.099C323.081 168.931 322.768 168.847 322.39 168.847C322.017 168.847 321.702 168.938 321.445 169.12C321.188 169.302 320.995 169.538 320.864 169.827C320.733 170.112 320.668 170.408 320.668 170.716ZM329.394 175.105C328.927 175.105 328.554 175.047 328.274 174.93C327.994 174.813 327.784 174.657 327.644 174.461C327.504 174.265 327.413 174.046 327.371 173.803C327.329 173.556 327.308 173.304 327.308 173.047V164.598H328.974V172.851C328.974 173.164 329.037 173.406 329.163 173.579C329.293 173.752 329.503 173.852 329.793 173.88L330.157 173.894V174.965C330.031 175.002 329.902 175.035 329.772 175.063C329.641 175.091 329.515 175.105 329.394 175.105ZM334.567 175.14C333.872 175.14 333.258 174.993 332.726 174.699C332.199 174.4 331.786 173.976 331.487 173.425C331.193 172.874 331.046 172.219 331.046 171.458C331.046 170.716 331.179 170.058 331.445 169.484C331.716 168.905 332.106 168.45 332.614 168.119C333.128 167.788 333.746 167.622 334.469 167.622C335.183 167.622 335.783 167.774 336.268 168.077C336.754 168.38 337.122 168.805 337.374 169.351C337.626 169.892 337.752 170.527 337.752 171.255V171.773H332.747C332.743 172.184 332.808 172.548 332.943 172.865C333.079 173.182 333.279 173.432 333.545 173.614C333.811 173.791 334.14 173.88 334.532 173.88C334.934 173.88 335.281 173.791 335.575 173.614C335.874 173.432 336.072 173.157 336.17 172.788H337.724C337.64 173.292 337.44 173.719 337.122 174.069C336.81 174.419 336.427 174.685 335.974 174.867C335.526 175.049 335.057 175.14 334.567 175.14ZM332.74 170.716H336.142C336.142 170.366 336.079 170.051 335.953 169.771C335.832 169.486 335.648 169.262 335.4 169.099C335.153 168.931 334.84 168.847 334.462 168.847C334.089 168.847 333.774 168.938 333.517 169.12C333.261 169.302 333.067 169.538 332.936 169.827C332.806 170.112 332.74 170.408 332.74 170.716ZM341.405 175.14C340.943 175.14 340.527 175.056 340.159 174.888C339.795 174.715 339.508 174.47 339.298 174.153C339.092 173.831 338.99 173.441 338.99 172.984C338.99 172.186 339.277 171.584 339.851 171.178C340.429 170.772 341.349 170.56 342.609 170.541L343.694 170.513V170.023C343.694 169.64 343.579 169.342 343.351 169.127C343.127 168.908 342.777 168.8 342.301 168.805C341.946 168.81 341.624 168.894 341.335 169.057C341.045 169.216 340.854 169.484 340.761 169.862H339.312C339.34 169.367 339.482 168.954 339.739 168.623C340 168.287 340.357 168.037 340.81 167.874C341.262 167.706 341.785 167.622 342.378 167.622C343.068 167.622 343.631 167.713 344.065 167.895C344.499 168.077 344.818 168.341 345.024 168.686C345.229 169.027 345.332 169.44 345.332 169.925V175H343.897L343.757 173.698C343.5 174.244 343.171 174.622 342.77 174.832C342.373 175.037 341.918 175.14 341.405 175.14ZM341.958 173.985C342.168 173.985 342.375 173.948 342.581 173.873C342.786 173.794 342.97 173.689 343.134 173.558C343.302 173.423 343.435 173.273 343.533 173.11C343.635 172.947 343.689 172.776 343.694 172.599V171.458L342.805 171.472C342.366 171.477 341.981 171.523 341.65 171.612C341.323 171.701 341.069 171.843 340.887 172.039C340.705 172.23 340.614 172.487 340.614 172.809C340.614 173.178 340.742 173.467 340.999 173.677C341.255 173.882 341.575 173.985 341.958 173.985ZM349.849 175.14C349.345 175.14 348.867 175.061 348.414 174.902C347.966 174.739 347.588 174.484 347.28 174.139C346.977 173.794 346.786 173.348 346.706 172.802H348.204C348.27 173.068 348.384 173.285 348.547 173.453C348.715 173.621 348.911 173.745 349.135 173.824C349.364 173.899 349.6 173.936 349.842 173.936C350.276 173.936 350.626 173.861 350.892 173.712C351.158 173.563 351.291 173.332 351.291 173.019C351.291 172.79 351.217 172.608 351.067 172.473C350.923 172.338 350.685 172.235 350.353 172.165L348.981 171.85C348.365 171.715 347.873 171.491 347.504 171.178C347.136 170.865 346.949 170.424 346.944 169.855C346.94 169.426 347.047 169.043 347.266 168.707C347.486 168.371 347.812 168.107 348.246 167.916C348.68 167.72 349.215 167.622 349.849 167.622C350.694 167.622 351.371 167.811 351.879 168.189C352.393 168.562 352.656 169.097 352.67 169.792H351.221C351.17 169.479 351.023 169.237 350.78 169.064C350.538 168.887 350.223 168.798 349.835 168.798C349.434 168.798 349.105 168.875 348.848 169.029C348.592 169.183 348.463 169.419 348.463 169.736C348.463 169.955 348.559 170.128 348.75 170.254C348.946 170.38 349.243 170.487 349.639 170.576L350.941 170.891C351.315 170.984 351.62 171.11 351.858 171.269C352.096 171.428 352.281 171.603 352.411 171.794C352.547 171.981 352.64 172.174 352.691 172.375C352.747 172.571 352.775 172.753 352.775 172.921C352.775 173.388 352.654 173.787 352.411 174.118C352.173 174.445 351.835 174.697 351.396 174.874C350.962 175.051 350.447 175.14 349.849 175.14ZM357.522 175.14C356.827 175.14 356.213 174.993 355.681 174.699C355.154 174.4 354.741 173.976 354.442 173.425C354.148 172.874 354.001 172.219 354.001 171.458C354.001 170.716 354.134 170.058 354.4 169.484C354.671 168.905 355.061 168.45 355.569 168.119C356.083 167.788 356.701 167.622 357.424 167.622C358.138 167.622 358.738 167.774 359.223 168.077C359.709 168.38 360.077 168.805 360.329 169.351C360.581 169.892 360.707 170.527 360.707 171.255V171.773H355.702C355.698 172.184 355.763 172.548 355.898 172.865C356.034 173.182 356.234 173.432 356.5 173.614C356.766 173.791 357.095 173.88 357.487 173.88C357.889 173.88 358.236 173.791 358.53 173.614C358.829 173.432 359.027 173.157 359.125 172.788H360.679C360.595 173.292 360.395 173.719 360.077 174.069C359.765 174.419 359.382 174.685 358.929 174.867C358.481 175.049 358.012 175.14 357.522 175.14ZM355.695 170.716H359.097C359.097 170.366 359.034 170.051 358.908 169.771C358.787 169.486 358.603 169.262 358.355 169.099C358.108 168.931 357.795 168.847 357.417 168.847C357.044 168.847 356.729 168.938 356.472 169.12C356.216 169.302 356.022 169.538 355.891 169.827C355.761 170.112 355.695 170.408 355.695 170.716ZM365.023 175.14C364.066 175.14 363.315 174.811 362.769 174.153C362.223 173.495 361.95 172.559 361.95 171.346C361.95 170.59 362.06 169.934 362.279 169.379C362.503 168.819 362.832 168.387 363.266 168.084C363.7 167.776 364.234 167.622 364.869 167.622C365.168 167.622 365.438 167.659 365.681 167.734C365.928 167.804 366.148 167.897 366.339 168.014C366.53 168.131 366.691 168.259 366.822 168.399C366.957 168.539 367.062 168.679 367.137 168.819V164.598H368.852V175H367.592L367.403 173.516C367.342 173.689 367.256 173.871 367.144 174.062C367.037 174.249 366.89 174.424 366.703 174.587C366.521 174.75 366.292 174.883 366.017 174.986C365.742 175.089 365.41 175.14 365.023 175.14ZM365.373 173.887C365.984 173.887 366.43 173.689 366.71 173.292C366.995 172.891 367.137 172.228 367.137 171.304C367.132 170.777 367.067 170.333 366.941 169.974C366.82 169.615 366.633 169.344 366.381 169.162C366.129 168.98 365.8 168.889 365.394 168.889C364.881 168.889 364.458 169.078 364.127 169.456C363.8 169.834 363.637 170.45 363.637 171.304C363.637 172.153 363.789 172.797 364.092 173.236C364.395 173.67 364.822 173.887 365.373 173.887ZM370.533 169.932V167.986H372.458V169.932H370.533ZM370.533 174.958V173.026H372.458V174.958H370.533ZM378.989 175V167.202H377.113V166.187C377.706 166.187 378.175 166.138 378.52 166.04C378.87 165.937 379.125 165.788 379.283 165.592C379.447 165.396 379.54 165.158 379.563 164.878H380.725V175H378.989ZM386.562 175.154C385.97 175.154 385.414 175.04 384.896 174.811C384.378 174.582 383.951 174.258 383.615 173.838C383.279 173.418 383.083 172.923 383.027 172.354H384.658C384.756 172.779 384.969 173.124 385.295 173.39C385.622 173.651 386.023 173.782 386.499 173.782C387.036 173.782 387.5 173.649 387.892 173.383C388.289 173.117 388.585 172.699 388.781 172.13C388.977 171.561 389.05 170.821 388.998 169.911C388.872 170.21 388.688 170.471 388.445 170.695C388.207 170.919 387.923 171.094 387.591 171.22C387.265 171.341 386.901 171.402 386.499 171.402C385.823 171.402 385.223 171.274 384.7 171.017C384.182 170.756 383.776 170.385 383.482 169.904C383.188 169.419 383.041 168.845 383.041 168.182C383.041 167.51 383.191 166.915 383.489 166.397C383.793 165.879 384.217 165.473 384.763 165.179C385.314 164.885 385.96 164.738 386.702 164.738C387.528 164.738 388.242 164.941 388.844 165.347C389.446 165.753 389.908 166.332 390.23 167.083C390.557 167.834 390.72 168.726 390.72 169.757C390.72 170.933 390.555 171.922 390.223 172.725C389.897 173.523 389.423 174.127 388.802 174.538C388.186 174.949 387.44 175.154 386.562 175.154ZM386.751 170.016C387.078 170.016 387.391 169.941 387.689 169.792C387.988 169.643 388.233 169.449 388.424 169.211C388.616 168.973 388.711 168.721 388.711 168.455C388.716 167.97 388.637 167.55 388.473 167.195C388.31 166.836 388.079 166.558 387.78 166.362C387.486 166.161 387.141 166.061 386.744 166.061C386.385 166.061 386.063 166.147 385.778 166.32C385.498 166.493 385.279 166.733 385.12 167.041C384.962 167.344 384.882 167.697 384.882 168.098C384.882 168.695 385.048 169.164 385.379 169.505C385.711 169.846 386.168 170.016 386.751 170.016ZM395.49 175.154C394.898 175.154 394.342 175.04 393.824 174.811C393.306 174.582 392.879 174.258 392.543 173.838C392.207 173.418 392.011 172.923 391.955 172.354H393.586C393.684 172.779 393.897 173.124 394.223 173.39C394.55 173.651 394.951 173.782 395.427 173.782C395.964 173.782 396.428 173.649 396.82 173.383C397.217 173.117 397.513 172.699 397.709 172.13C397.905 171.561 397.978 170.821 397.926 169.911C397.8 170.21 397.616 170.471 397.373 170.695C397.135 170.919 396.851 171.094 396.519 171.22C396.193 171.341 395.829 171.402 395.427 171.402C394.751 171.402 394.151 171.274 393.628 171.017C393.11 170.756 392.704 170.385 392.41 169.904C392.116 169.419 391.969 168.845 391.969 168.182C391.969 167.51 392.119 166.915 392.417 166.397C392.721 165.879 393.145 165.473 393.691 165.179C394.242 164.885 394.888 164.738 395.63 164.738C396.456 164.738 397.17 164.941 397.772 165.347C398.374 165.753 398.836 166.332 399.158 167.083C399.485 167.834 399.648 168.726 399.648 169.757C399.648 170.933 399.483 171.922 399.151 172.725C398.825 173.523 398.351 174.127 397.73 174.538C397.114 174.949 396.368 175.154 395.49 175.154ZM395.679 170.016C396.006 170.016 396.319 169.941 396.617 169.792C396.916 169.643 397.161 169.449 397.352 169.211C397.544 168.973 397.639 168.721 397.639 168.455C397.644 167.97 397.565 167.55 397.401 167.195C397.238 166.836 397.007 166.558 396.708 166.362C396.414 166.161 396.069 166.061 395.672 166.061C395.313 166.061 394.991 166.147 394.706 166.32C394.426 166.493 394.207 166.733 394.048 167.041C393.89 167.344 393.81 167.697 393.81 168.098C393.81 168.695 393.976 169.164 394.307 169.505C394.639 169.846 395.096 170.016 395.679 170.016ZM405.565 175L405.572 172.599H400.861V171.15L405.523 164.878H407.217V171.15H408.834V172.599H407.217V175H405.565ZM402.457 171.15H405.558V166.992L402.457 171.15Z" fill="black"/>
</svg>
