<svg width="538" height="538" viewBox="0 0 538 538" fill="none" xmlns="http://www.w3.org/2000/svg">
<path d="M383 64C383 28.6538 411.654 0 447 0V0C482.346 0 511 28.6538 511 64V64C511 99.3462 482.346 128 447 128V128C411.654 128 383 99.3462 383 64V64Z" fill="#FFDF81"/>
<path d="M434.212 69.14C433.718 69.14 433.249 69.0817 432.805 68.965C432.362 68.8437 431.958 68.664 431.594 68.426C431.235 68.188 430.936 67.894 430.698 67.544C430.465 67.1893 430.318 66.7787 430.257 66.312H431.615C431.699 66.6947 431.865 67.0167 432.112 67.278C432.364 67.5393 432.675 67.7353 433.043 67.866C433.417 67.9967 433.825 68.062 434.268 68.062C434.698 68.062 435.092 67.9943 435.451 67.859C435.815 67.7237 436.107 67.5277 436.326 67.271C436.546 67.0097 436.655 66.697 436.655 66.333C436.655 65.9317 436.525 65.6097 436.263 65.367C436.002 65.1197 435.598 64.9213 435.052 64.772L432.966 64.233C432.495 64.1163 432.077 63.953 431.713 63.743C431.354 63.5283 431.072 63.2483 430.866 62.903C430.661 62.553 430.558 62.119 430.558 61.601C430.558 61.027 430.717 60.5277 431.034 60.103C431.352 59.6737 431.781 59.3423 432.322 59.109C432.868 58.871 433.484 58.752 434.17 58.752C434.964 58.752 435.631 58.8897 436.172 59.165C436.718 59.4403 437.131 59.802 437.411 60.25C437.691 60.698 437.831 61.1763 437.831 61.685H436.501C436.459 61.223 436.324 60.859 436.095 60.593C435.867 60.3223 435.582 60.1287 435.241 60.012C434.901 59.8907 434.53 59.83 434.128 59.83C433.405 59.83 432.857 59.9957 432.483 60.327C432.115 60.6537 431.93 61.0433 431.93 61.496C431.93 61.9113 432.063 62.238 432.329 62.476C432.595 62.714 432.987 62.8983 433.505 63.029L435.535 63.554C436.137 63.694 436.616 63.897 436.97 64.163C437.33 64.429 437.586 64.7393 437.74 65.094C437.899 65.444 437.978 65.8243 437.978 66.235C437.978 66.795 437.822 67.2943 437.509 67.733C437.197 68.1717 436.758 68.517 436.193 68.769C435.633 69.0163 434.973 69.14 434.212 69.14ZM442.261 69.035C441.762 69.035 441.374 68.9673 441.099 68.832C440.824 68.6967 440.63 68.496 440.518 68.23C440.411 67.964 440.357 67.6373 440.357 67.25V62.707H439.181V61.762H440.392L440.707 59.655H441.659V61.755H443.29V62.707H441.659V67.208C441.659 67.4647 441.685 67.6537 441.736 67.775C441.792 67.8917 441.883 67.9663 442.009 67.999C442.135 68.0317 442.312 68.048 442.541 68.048H443.332V68.916C443.243 68.9487 443.108 68.9767 442.926 69C442.749 69.0233 442.527 69.035 442.261 69.035ZM447.039 69.14C446.567 69.14 446.152 69.0583 445.793 68.895C445.438 68.727 445.158 68.4867 444.953 68.174C444.752 67.8613 444.652 67.4833 444.652 67.04C444.652 66.2373 444.932 65.64 445.492 65.248C446.052 64.856 446.95 64.646 448.187 64.618L449.475 64.583V64.016C449.475 63.5727 449.342 63.2227 449.076 62.966C448.81 62.7047 448.399 62.574 447.844 62.574C447.428 62.5787 447.062 62.6767 446.745 62.868C446.427 63.0593 446.224 63.372 446.136 63.806H444.995C445.023 63.3347 445.153 62.938 445.387 62.616C445.625 62.2893 445.958 62.042 446.388 61.874C446.817 61.706 447.323 61.622 447.907 61.622C448.537 61.622 449.059 61.7107 449.475 61.888C449.895 62.0653 450.207 62.3267 450.413 62.672C450.623 63.0173 450.728 63.442 450.728 63.946V69H449.622L449.524 67.642C449.248 68.2067 448.894 68.5987 448.46 68.818C448.03 69.0327 447.557 69.14 447.039 69.14ZM447.424 68.209C447.671 68.209 447.914 68.1647 448.152 68.076C448.394 67.9873 448.614 67.8683 448.81 67.719C449.01 67.565 449.171 67.3947 449.293 67.208C449.414 67.0167 449.475 66.8207 449.475 66.62V65.381L448.404 65.402C447.848 65.4113 447.386 65.4673 447.018 65.57C446.649 65.6727 446.371 65.8337 446.185 66.053C445.998 66.2723 445.905 66.5593 445.905 66.914C445.905 67.32 446.047 67.6373 446.332 67.866C446.616 68.0947 446.98 68.209 447.424 68.209ZM455.099 69.035C454.6 69.035 454.212 68.9673 453.937 68.832C453.662 68.6967 453.468 68.496 453.356 68.23C453.249 67.964 453.195 67.6373 453.195 67.25V62.707H452.019V61.762H453.23L453.545 59.655H454.497V61.755H456.128V62.707H454.497V67.208C454.497 67.4647 454.523 67.6537 454.574 67.775C454.63 67.8917 454.721 67.9663 454.847 67.999C454.973 68.0317 455.15 68.048 455.379 68.048H456.17V68.916C456.081 68.9487 455.946 68.9767 455.764 69C455.587 69.0233 455.365 69.035 455.099 69.035ZM460.755 69.14C460.083 69.14 459.49 68.993 458.977 68.699C458.464 68.405 458.062 67.9827 457.773 67.432C457.484 66.8813 457.339 66.221 457.339 65.451C457.339 64.6903 457.47 64.023 457.731 63.449C457.992 62.875 458.37 62.427 458.865 62.105C459.364 61.783 459.964 61.622 460.664 61.622C461.345 61.622 461.922 61.769 462.393 62.063C462.864 62.357 463.221 62.7723 463.464 63.309C463.711 63.841 463.835 64.4733 463.835 65.206V65.682H458.648C458.648 66.1393 458.723 66.5547 458.872 66.928C459.026 67.2967 459.257 67.5907 459.565 67.81C459.873 68.0293 460.263 68.139 460.734 68.139C461.196 68.139 461.593 68.0317 461.924 67.817C462.26 67.6023 462.475 67.292 462.568 66.886H463.786C463.702 67.376 463.506 67.789 463.198 68.125C462.895 68.461 462.528 68.7153 462.099 68.888C461.674 69.056 461.226 69.14 460.755 69.14ZM458.655 64.807H462.589C462.589 64.3917 462.519 64.0183 462.379 63.687C462.239 63.351 462.024 63.0873 461.735 62.896C461.45 62.7 461.091 62.602 460.657 62.602C460.204 62.602 459.829 62.7117 459.53 62.931C459.231 63.1457 459.01 63.4233 458.865 63.764C458.72 64.1 458.65 64.4477 458.655 64.807Z" fill="#1A1B1D"/>
<path d="M383 450C383 414.654 411.654 386 447 386V386C482.346 386 511 414.654 511 450V450C511 485.346 482.346 514 447 514V514C411.654 514 383 485.346 383 450V450Z" fill="#FFDF81"/>
<path d="M434.212 455.14C433.718 455.14 433.249 455.082 432.805 454.965C432.362 454.844 431.958 454.664 431.594 454.426C431.235 454.188 430.936 453.894 430.698 453.544C430.465 453.189 430.318 452.779 430.257 452.312H431.615C431.699 452.695 431.865 453.017 432.112 453.278C432.364 453.539 432.675 453.735 433.043 453.866C433.417 453.997 433.825 454.062 434.268 454.062C434.698 454.062 435.092 453.994 435.451 453.859C435.815 453.724 436.107 453.528 436.326 453.271C436.546 453.01 436.655 452.697 436.655 452.333C436.655 451.932 436.525 451.61 436.263 451.367C436.002 451.12 435.598 450.921 435.052 450.772L432.966 450.233C432.495 450.116 432.077 449.953 431.713 449.743C431.354 449.528 431.072 449.248 430.866 448.903C430.661 448.553 430.558 448.119 430.558 447.601C430.558 447.027 430.717 446.528 431.034 446.103C431.352 445.674 431.781 445.342 432.322 445.109C432.868 444.871 433.484 444.752 434.17 444.752C434.964 444.752 435.631 444.89 436.172 445.165C436.718 445.44 437.131 445.802 437.411 446.25C437.691 446.698 437.831 447.176 437.831 447.685H436.501C436.459 447.223 436.324 446.859 436.095 446.593C435.867 446.322 435.582 446.129 435.241 446.012C434.901 445.891 434.53 445.83 434.128 445.83C433.405 445.83 432.857 445.996 432.483 446.327C432.115 446.654 431.93 447.043 431.93 447.496C431.93 447.911 432.063 448.238 432.329 448.476C432.595 448.714 432.987 448.898 433.505 449.029L435.535 449.554C436.137 449.694 436.616 449.897 436.97 450.163C437.33 450.429 437.586 450.739 437.74 451.094C437.899 451.444 437.978 451.824 437.978 452.235C437.978 452.795 437.822 453.294 437.509 453.733C437.197 454.172 436.758 454.517 436.193 454.769C435.633 455.016 434.973 455.14 434.212 455.14ZM442.261 455.035C441.762 455.035 441.374 454.967 441.099 454.832C440.824 454.697 440.63 454.496 440.518 454.23C440.411 453.964 440.357 453.637 440.357 453.25V448.707H439.181V447.762H440.392L440.707 445.655H441.659V447.755H443.29V448.707H441.659V453.208C441.659 453.465 441.685 453.654 441.736 453.775C441.792 453.892 441.883 453.966 442.009 453.999C442.135 454.032 442.312 454.048 442.541 454.048H443.332V454.916C443.243 454.949 443.108 454.977 442.926 455C442.749 455.023 442.527 455.035 442.261 455.035ZM447.039 455.14C446.567 455.14 446.152 455.058 445.793 454.895C445.438 454.727 445.158 454.487 444.953 454.174C444.752 453.861 444.652 453.483 444.652 453.04C444.652 452.237 444.932 451.64 445.492 451.248C446.052 450.856 446.95 450.646 448.187 450.618L449.475 450.583V450.016C449.475 449.573 449.342 449.223 449.076 448.966C448.81 448.705 448.399 448.574 447.844 448.574C447.428 448.579 447.062 448.677 446.745 448.868C446.427 449.059 446.224 449.372 446.136 449.806H444.995C445.023 449.335 445.153 448.938 445.387 448.616C445.625 448.289 445.958 448.042 446.388 447.874C446.817 447.706 447.323 447.622 447.907 447.622C448.537 447.622 449.059 447.711 449.475 447.888C449.895 448.065 450.207 448.327 450.413 448.672C450.623 449.017 450.728 449.442 450.728 449.946V455H449.622L449.524 453.642C449.248 454.207 448.894 454.599 448.46 454.818C448.03 455.033 447.557 455.14 447.039 455.14ZM447.424 454.209C447.671 454.209 447.914 454.165 448.152 454.076C448.394 453.987 448.614 453.868 448.81 453.719C449.01 453.565 449.171 453.395 449.293 453.208C449.414 453.017 449.475 452.821 449.475 452.62V451.381L448.404 451.402C447.848 451.411 447.386 451.467 447.018 451.57C446.649 451.673 446.371 451.834 446.185 452.053C445.998 452.272 445.905 452.559 445.905 452.914C445.905 453.32 446.047 453.637 446.332 453.866C446.616 454.095 446.98 454.209 447.424 454.209ZM455.099 455.035C454.6 455.035 454.212 454.967 453.937 454.832C453.662 454.697 453.468 454.496 453.356 454.23C453.249 453.964 453.195 453.637 453.195 453.25V448.707H452.019V447.762H453.23L453.545 445.655H454.497V447.755H456.128V448.707H454.497V453.208C454.497 453.465 454.523 453.654 454.574 453.775C454.63 453.892 454.721 453.966 454.847 453.999C454.973 454.032 455.15 454.048 455.379 454.048H456.17V454.916C456.081 454.949 455.946 454.977 455.764 455C455.587 455.023 455.365 455.035 455.099 455.035ZM460.755 455.14C460.083 455.14 459.49 454.993 458.977 454.699C458.464 454.405 458.062 453.983 457.773 453.432C457.484 452.881 457.339 452.221 457.339 451.451C457.339 450.69 457.47 450.023 457.731 449.449C457.992 448.875 458.37 448.427 458.865 448.105C459.364 447.783 459.964 447.622 460.664 447.622C461.345 447.622 461.922 447.769 462.393 448.063C462.864 448.357 463.221 448.772 463.464 449.309C463.711 449.841 463.835 450.473 463.835 451.206V451.682H458.648C458.648 452.139 458.723 452.555 458.872 452.928C459.026 453.297 459.257 453.591 459.565 453.81C459.873 454.029 460.263 454.139 460.734 454.139C461.196 454.139 461.593 454.032 461.924 453.817C462.26 453.602 462.475 453.292 462.568 452.886H463.786C463.702 453.376 463.506 453.789 463.198 454.125C462.895 454.461 462.528 454.715 462.099 454.888C461.674 455.056 461.226 455.14 460.755 455.14ZM458.655 450.807H462.589C462.589 450.392 462.519 450.018 462.379 449.687C462.239 449.351 462.024 449.087 461.735 448.896C461.45 448.7 461.091 448.602 460.657 448.602C460.204 448.602 459.829 448.712 459.53 448.931C459.231 449.146 459.01 449.423 458.865 449.764C458.72 450.1 458.65 450.448 458.655 450.807Z" fill="#1A1B1D"/>
<path d="M398 417.5C398 408.94 404.94 402 413.5 402H417.5C426.06 402 433 408.94 433 417.5V417.5C433 426.06 426.06 433 417.5 433H413.5C404.94 433 398 426.06 398 417.5V417.5Z" fill="#FFDF81"/>
<path d="M390 473.5C390 464.94 396.94 458 405.5 458H409.5C418.06 458 425 464.94 425 473.5V473.5C425 482.06 418.06 489 409.5 489H405.5C396.94 489 390 482.06 390 473.5V473.5Z" fill="#FFDF81"/>
<path d="M390 257C390 221.654 418.654 193 454 193V193C489.346 193 518 221.654 518 257V257C518 292.346 489.346 321 454 321V321C418.654 321 390 292.346 390 257V257Z" fill="#FFDF81"/>
<path d="M441.212 262.14C440.718 262.14 440.249 262.082 439.805 261.965C439.362 261.844 438.958 261.664 438.594 261.426C438.235 261.188 437.936 260.894 437.698 260.544C437.465 260.189 437.318 259.779 437.257 259.312H438.615C438.699 259.695 438.865 260.017 439.112 260.278C439.364 260.539 439.675 260.735 440.043 260.866C440.417 260.997 440.825 261.062 441.268 261.062C441.698 261.062 442.092 260.994 442.451 260.859C442.815 260.724 443.107 260.528 443.326 260.271C443.546 260.01 443.655 259.697 443.655 259.333C443.655 258.932 443.525 258.61 443.263 258.367C443.002 258.12 442.598 257.921 442.052 257.772L439.966 257.233C439.495 257.116 439.077 256.953 438.713 256.743C438.354 256.528 438.072 256.248 437.866 255.903C437.661 255.553 437.558 255.119 437.558 254.601C437.558 254.027 437.717 253.528 438.034 253.103C438.352 252.674 438.781 252.342 439.322 252.109C439.868 251.871 440.484 251.752 441.17 251.752C441.964 251.752 442.631 251.89 443.172 252.165C443.718 252.44 444.131 252.802 444.411 253.25C444.691 253.698 444.831 254.176 444.831 254.685H443.501C443.459 254.223 443.324 253.859 443.095 253.593C442.867 253.322 442.582 253.129 442.241 253.012C441.901 252.891 441.53 252.83 441.128 252.83C440.405 252.83 439.857 252.996 439.483 253.327C439.115 253.654 438.93 254.043 438.93 254.496C438.93 254.911 439.063 255.238 439.329 255.476C439.595 255.714 439.987 255.898 440.505 256.029L442.535 256.554C443.137 256.694 443.616 256.897 443.97 257.163C444.33 257.429 444.586 257.739 444.74 258.094C444.899 258.444 444.978 258.824 444.978 259.235C444.978 259.795 444.822 260.294 444.509 260.733C444.197 261.172 443.758 261.517 443.193 261.769C442.633 262.016 441.973 262.14 441.212 262.14ZM449.261 262.035C448.762 262.035 448.374 261.967 448.099 261.832C447.824 261.697 447.63 261.496 447.518 261.23C447.411 260.964 447.357 260.637 447.357 260.25V255.707H446.181V254.762H447.392L447.707 252.655H448.659V254.755H450.29V255.707H448.659V260.208C448.659 260.465 448.685 260.654 448.736 260.775C448.792 260.892 448.883 260.966 449.009 260.999C449.135 261.032 449.312 261.048 449.541 261.048H450.332V261.916C450.243 261.949 450.108 261.977 449.926 262C449.749 262.023 449.527 262.035 449.261 262.035ZM454.039 262.14C453.567 262.14 453.152 262.058 452.793 261.895C452.438 261.727 452.158 261.487 451.953 261.174C451.752 260.861 451.652 260.483 451.652 260.04C451.652 259.237 451.932 258.64 452.492 258.248C453.052 257.856 453.95 257.646 455.187 257.618L456.475 257.583V257.016C456.475 256.573 456.342 256.223 456.076 255.966C455.81 255.705 455.399 255.574 454.844 255.574C454.428 255.579 454.062 255.677 453.745 255.868C453.427 256.059 453.224 256.372 453.136 256.806H451.995C452.023 256.335 452.153 255.938 452.387 255.616C452.625 255.289 452.958 255.042 453.388 254.874C453.817 254.706 454.323 254.622 454.907 254.622C455.537 254.622 456.059 254.711 456.475 254.888C456.895 255.065 457.207 255.327 457.413 255.672C457.623 256.017 457.728 256.442 457.728 256.946V262H456.622L456.524 260.642C456.248 261.207 455.894 261.599 455.46 261.818C455.03 262.033 454.557 262.14 454.039 262.14ZM454.424 261.209C454.671 261.209 454.914 261.165 455.152 261.076C455.394 260.987 455.614 260.868 455.81 260.719C456.01 260.565 456.171 260.395 456.293 260.208C456.414 260.017 456.475 259.821 456.475 259.62V258.381L455.404 258.402C454.848 258.411 454.386 258.467 454.018 258.57C453.649 258.673 453.371 258.834 453.185 259.053C452.998 259.272 452.905 259.559 452.905 259.914C452.905 260.32 453.047 260.637 453.332 260.866C453.616 261.095 453.98 261.209 454.424 261.209ZM462.099 262.035C461.6 262.035 461.212 261.967 460.937 261.832C460.662 261.697 460.468 261.496 460.356 261.23C460.249 260.964 460.195 260.637 460.195 260.25V255.707H459.019V254.762H460.23L460.545 252.655H461.497V254.755H463.128V255.707H461.497V260.208C461.497 260.465 461.523 260.654 461.574 260.775C461.63 260.892 461.721 260.966 461.847 260.999C461.973 261.032 462.15 261.048 462.379 261.048H463.17V261.916C463.081 261.949 462.946 261.977 462.764 262C462.587 262.023 462.365 262.035 462.099 262.035ZM467.755 262.14C467.083 262.14 466.49 261.993 465.977 261.699C465.464 261.405 465.062 260.983 464.773 260.432C464.484 259.881 464.339 259.221 464.339 258.451C464.339 257.69 464.47 257.023 464.731 256.449C464.992 255.875 465.37 255.427 465.865 255.105C466.364 254.783 466.964 254.622 467.664 254.622C468.345 254.622 468.922 254.769 469.393 255.063C469.864 255.357 470.221 255.772 470.464 256.309C470.711 256.841 470.835 257.473 470.835 258.206V258.682H465.648C465.648 259.139 465.723 259.555 465.872 259.928C466.026 260.297 466.257 260.591 466.565 260.81C466.873 261.029 467.263 261.139 467.734 261.139C468.196 261.139 468.593 261.032 468.924 260.817C469.26 260.602 469.475 260.292 469.568 259.886H470.786C470.702 260.376 470.506 260.789 470.198 261.125C469.895 261.461 469.528 261.715 469.099 261.888C468.674 262.056 468.226 262.14 467.755 262.14ZM465.655 257.807H469.589C469.589 257.392 469.519 257.018 469.379 256.687C469.239 256.351 469.024 256.087 468.735 255.896C468.45 255.7 468.091 255.602 467.657 255.602C467.204 255.602 466.829 255.712 466.53 255.931C466.231 256.146 466.01 256.423 465.865 256.764C465.72 257.1 465.65 257.448 465.655 257.807Z" fill="#1A1B1D"/>
<path d="M0 257C0 221.654 28.6538 193 64 193V193C99.3462 193 128 221.654 128 257V257C128 292.346 99.3462 321 64 321V321C28.6538 321 0 292.346 0 257V257Z" fill="#C990C0"/>
<path d="M39.6407 262V251.878H43.0637C43.787 251.878 44.431 251.999 44.9957 252.242C45.5604 252.485 46.0037 252.844 46.3257 253.32C46.6524 253.796 46.8157 254.382 46.8157 255.077C46.8157 255.749 46.664 256.323 46.3607 256.799C46.062 257.275 45.6444 257.637 45.1077 257.884C44.571 258.131 43.948 258.255 43.2387 258.255H40.9707V262H39.6407ZM40.9637 257.163H43.2107C43.906 257.163 44.4707 256.969 44.9047 256.582C45.3387 256.195 45.5557 255.667 45.5557 255C45.5557 254.328 45.3317 253.819 44.8837 253.474C44.4357 253.129 43.857 252.956 43.1477 252.956H40.9637V257.163ZM48.2888 262V254.762H49.5208V256.155C49.6421 255.81 49.8124 255.525 50.0318 255.301C50.2511 255.072 50.5008 254.902 50.7808 254.79C51.0654 254.678 51.3594 254.622 51.6628 254.622C51.7701 254.622 51.8751 254.629 51.9778 254.643C52.0804 254.657 52.1598 254.68 52.2158 254.713V255.966C52.1458 255.933 52.0548 255.912 51.9428 255.903C51.8354 255.889 51.7444 255.882 51.6698 255.882C51.3804 255.863 51.1098 255.882 50.8578 255.938C50.6058 255.989 50.3841 256.08 50.1928 256.211C50.0014 256.342 49.8498 256.514 49.7378 256.729C49.6304 256.939 49.5768 257.196 49.5768 257.499V262H48.2888ZM56.5461 262.14C55.8788 262.14 55.2955 261.998 54.7961 261.713C54.3015 261.424 53.9165 261.001 53.6411 260.446C53.3658 259.891 53.2281 259.212 53.2281 258.409C53.2281 257.653 53.3565 256.99 53.6131 256.421C53.8698 255.852 54.2455 255.411 54.7401 255.098C55.2348 254.781 55.8391 254.622 56.5531 254.622C57.2205 254.622 57.7991 254.769 58.2891 255.063C58.7791 255.352 59.1595 255.779 59.4301 256.344C59.7055 256.909 59.8431 257.597 59.8431 258.409C59.8431 259.146 59.7171 259.795 59.4651 260.355C59.2131 260.915 58.8421 261.354 58.3521 261.671C57.8668 261.984 57.2648 262.14 56.5461 262.14ZM56.5531 261.118C56.9825 261.118 57.3465 261.008 57.6451 260.789C57.9438 260.57 58.1701 260.255 58.3241 259.844C58.4828 259.433 58.5621 258.946 58.5621 258.381C58.5621 257.863 58.4921 257.399 58.3521 256.988C58.2168 256.573 58.0021 256.244 57.7081 256.001C57.4141 255.758 57.0291 255.637 56.5531 255.637C56.1145 255.637 55.7435 255.747 55.4401 255.966C55.1368 256.181 54.9058 256.493 54.7471 256.904C54.5931 257.315 54.5161 257.807 54.5161 258.381C54.5161 258.89 54.5838 259.352 54.7191 259.767C54.8591 260.182 55.0785 260.511 55.3771 260.754C55.6805 260.997 56.0725 261.118 56.5531 261.118ZM64.2032 262.14C63.2605 262.14 62.5138 261.818 61.9632 261.174C61.4172 260.53 61.1442 259.59 61.1442 258.353C61.1442 257.602 61.2538 256.946 61.4732 256.386C61.6925 255.826 62.0215 255.392 62.4602 255.084C62.8988 254.776 63.4448 254.622 64.0982 254.622C64.4482 254.622 64.7562 254.666 65.0222 254.755C65.2882 254.844 65.5192 254.956 65.7152 255.091C65.9112 255.226 66.0698 255.366 66.1912 255.511C66.3172 255.656 66.4105 255.789 66.4712 255.91V251.598H67.7802V262H66.7862L66.6462 260.516C66.5995 260.656 66.5248 260.819 66.4222 261.006C66.3195 261.188 66.1748 261.368 65.9882 261.545C65.8062 261.718 65.5682 261.86 65.2742 261.972C64.9802 262.084 64.6232 262.14 64.2032 262.14ZM64.4342 261.146C65.1622 261.146 65.6825 260.924 65.9952 260.481C66.3125 260.033 66.4712 259.303 66.4712 258.29C66.4665 257.725 66.3965 257.245 66.2612 256.848C66.1258 256.451 65.9112 256.15 65.6172 255.945C65.3278 255.735 64.9405 255.63 64.4552 255.63C63.8625 255.63 63.3795 255.842 63.0062 256.267C62.6328 256.692 62.4462 257.366 62.4462 258.29C62.4462 259.195 62.6142 259.898 62.9502 260.397C63.2862 260.896 63.7808 261.146 64.4342 261.146ZM72.5777 262.14C72.1997 262.135 71.8427 262.082 71.5067 261.979C71.1753 261.872 70.8813 261.715 70.6247 261.51C70.368 261.305 70.165 261.05 70.0157 260.747C69.871 260.439 69.7987 260.082 69.7987 259.676V254.762H71.0937V259.543C71.0937 260.014 71.2383 260.397 71.5277 260.691C71.8217 260.985 72.2627 261.132 72.8507 261.132C73.3827 261.132 73.8097 260.994 74.1317 260.719C74.4583 260.439 74.6217 260.024 74.6217 259.473V254.762H75.9097V262H74.8807L74.7477 260.614C74.659 260.978 74.5073 261.272 74.2927 261.496C74.0827 261.72 73.8283 261.886 73.5297 261.993C73.2357 262.096 72.9183 262.145 72.5777 262.14ZM80.9508 262.14C80.2974 262.14 79.7188 261.998 79.2148 261.713C78.7154 261.428 78.3234 261.008 78.0388 260.453C77.7588 259.898 77.6188 259.216 77.6188 258.409C77.6188 257.653 77.7471 256.993 78.0038 256.428C78.2651 255.859 78.6431 255.415 79.1378 255.098C79.6371 254.781 80.2414 254.622 80.9508 254.622C81.4688 254.622 81.9331 254.722 82.3438 254.923C82.7591 255.119 83.0998 255.399 83.3658 255.763C83.6318 256.127 83.7951 256.556 83.8558 257.051H82.7078C82.6658 256.799 82.5678 256.568 82.4138 256.358C82.2644 256.148 82.0661 255.98 81.8188 255.854C81.5761 255.728 81.2891 255.665 80.9578 255.665C80.3371 255.665 79.8308 255.889 79.4388 256.337C79.0514 256.785 78.8578 257.471 78.8578 258.395C78.8578 259.23 79.0351 259.9 79.3898 260.404C79.7491 260.903 80.2764 261.153 80.9718 261.153C81.3031 261.153 81.5924 261.09 81.8398 260.964C82.0871 260.833 82.2854 260.663 82.4348 260.453C82.5841 260.238 82.6798 260.01 82.7218 259.767H83.8488C83.7881 260.252 83.6224 260.672 83.3518 261.027C83.0858 261.382 82.7451 261.657 82.3298 261.853C81.9191 262.044 81.4594 262.14 80.9508 262.14ZM87.9789 262.035C87.4795 262.035 87.0922 261.967 86.8169 261.832C86.5415 261.697 86.3479 261.496 86.2359 261.23C86.1285 260.964 86.0749 260.637 86.0749 260.25V255.707H84.8989V254.762H86.1099L86.4249 252.655H87.3769V254.755H89.0079V255.707H87.3769V260.208C87.3769 260.465 87.4025 260.654 87.4539 260.775C87.5099 260.892 87.6009 260.966 87.7269 260.999C87.8529 261.032 88.0302 261.048 88.2589 261.048H89.0499V261.916C88.9612 261.949 88.8259 261.977 88.6439 262C88.4665 262.023 88.2449 262.035 87.9789 262.035Z" fill="white"/>
<path d="M380.824 98.1389C380.997 97.6145 380.712 97.049 380.188 96.876L371.641 94.0567C371.116 93.8837 370.551 94.1686 370.378 94.6931C370.205 95.2176 370.49 95.783 371.014 95.956L378.611 98.4621L376.105 106.059C375.932 106.584 376.217 107.149 376.742 107.322C377.266 107.495 377.832 107.21 378.005 106.686L380.824 98.1389ZM288.149 144.048L288.599 144.941L288.599 144.941L288.149 144.048ZM286.045 145.108L285.595 144.215L285.595 144.215L286.045 145.108ZM275.549 150.397L275.999 151.29L275.999 151.29L275.549 150.397ZM270.665 152.858L271.115 153.751L271.115 153.751L270.665 152.858ZM267.798 153.183C267.305 153.432 267.106 154.033 267.355 154.526C267.603 155.019 268.205 155.218 268.698 154.969L267.798 153.183ZM236.573 171.158C237.066 170.909 237.264 170.308 237.016 169.814C236.767 169.321 236.166 169.123 235.673 169.371L236.573 171.158ZM223.024 176.865L222.574 175.972L222.574 175.972L223.024 176.865ZM218.325 179.233L218.775 180.126L218.775 180.126L218.325 179.233ZM130.676 222.281C130.182 222.53 129.984 223.131 130.233 223.624C130.481 224.118 131.082 224.316 131.576 224.067L130.676 222.281ZM379.424 96.9327L287.699 143.155L288.599 144.941L380.324 98.7187L379.424 96.9327ZM287.699 143.155L285.595 144.215L286.495 146.001L288.599 144.941L287.699 143.155ZM285.595 144.215L275.099 149.504L275.999 151.29L286.495 146.001L285.595 144.215ZM275.099 149.504L270.215 151.965L271.115 153.751L275.999 151.29L275.099 149.504ZM270.215 151.965L267.798 153.183L268.698 154.969L271.115 153.751L270.215 151.965ZM235.673 169.371L222.574 175.972L223.474 177.758L236.573 171.158L235.673 169.371ZM222.574 175.972L217.875 178.34L218.775 180.126L223.474 177.758L222.574 175.972ZM217.875 178.34L130.676 222.281L131.576 224.067L218.775 180.126L217.875 178.34Z" fill="#1A1B1D"/>
<path d="M244.851 157.489L247.685 165.781H247.799L250.633 157.489H252.293L248.629 167.67H246.854L243.19 157.489H244.851ZM257.015 167.839C256.23 167.836 255.559 167.629 255.002 167.218C254.445 166.807 254.019 166.209 253.724 165.423C253.429 164.638 253.282 163.691 253.282 162.584C253.282 161.481 253.429 160.538 253.724 159.756C254.022 158.973 254.45 158.377 255.007 157.966C255.567 157.555 256.236 157.349 257.015 157.349C257.794 157.349 258.462 157.556 259.019 157.971C259.576 158.382 260.002 158.978 260.297 159.761C260.595 160.539 260.744 161.481 260.744 162.584C260.744 163.695 260.596 164.643 260.301 165.428C260.007 166.21 259.581 166.809 259.024 167.223C258.467 167.634 257.797 167.839 257.015 167.839ZM257.015 166.512C257.705 166.512 258.243 166.176 258.631 165.503C259.022 164.83 259.218 163.857 259.218 162.584C259.218 161.739 259.128 161.025 258.949 160.442C258.774 159.855 258.52 159.411 258.189 159.109C257.86 158.804 257.469 158.652 257.015 158.652C256.329 158.652 255.791 158.99 255.4 159.666C255.008 160.342 254.811 161.315 254.808 162.584C254.808 163.433 254.896 164.15 255.071 164.737C255.25 165.32 255.504 165.763 255.832 166.065C256.16 166.363 256.555 166.512 257.015 166.512Z" fill="black" fill-opacity="0.8"/>
<path d="M387.207 257.707C387.598 257.317 387.598 256.683 387.207 256.293L380.843 249.929C380.453 249.538 379.819 249.538 379.429 249.929C379.038 250.319 379.038 250.953 379.429 251.343L385.086 257L379.429 262.657C379.038 263.047 379.038 263.681 379.429 264.071C379.819 264.462 380.453 264.462 380.843 264.071L387.207 257.707ZM270.665 256C270.112 256 269.665 256.448 269.665 257C269.665 257.552 270.112 258 270.665 258V256ZM240.54 258C241.092 258 241.54 257.552 241.54 257C241.54 256.448 241.092 256 240.54 256V258ZM131.5 256C130.948 256 130.5 256.448 130.5 257C130.5 257.552 130.948 258 131.5 258V256ZM386.5 256H270.665V258H386.5V256ZM240.54 256H131.5V258H240.54V256Z" fill="#1A1B1D"/>
<path d="M249.478 252.318L252.311 260.611H252.426L255.26 252.318H256.92L253.256 262.5H251.481L247.817 252.318H249.478ZM261.96 252.318V262.5H260.419V253.859H260.359L257.923 255.45V253.979L260.464 252.318H261.96Z" fill="black" fill-opacity="0.8"/>
<path d="M395.176 416.928C395.698 416.745 395.972 416.174 395.789 415.653L392.809 407.16C392.626 406.639 392.056 406.365 391.535 406.548C391.013 406.731 390.739 407.302 390.922 407.823L393.571 415.371L386.022 418.02C385.501 418.203 385.226 418.774 385.409 419.295C385.592 419.816 386.163 420.09 386.684 419.907L395.176 416.928ZM364.282 401.297L363.849 402.198L363.849 402.198L364.282 401.297ZM294.993 368.001L294.56 368.902L294.56 368.902L294.993 368.001ZM293.268 367.172L293.701 366.271L293.701 366.271L293.268 367.172ZM288.149 364.712L287.716 365.614L287.716 365.614L288.149 364.712ZM275.982 357.756C275.484 357.517 274.887 357.726 274.647 358.224C274.408 358.722 274.618 359.319 275.116 359.559L275.982 357.756ZM242.991 344.121C243.488 344.361 244.086 344.151 244.325 343.653C244.564 343.155 244.355 342.558 243.857 342.319L242.991 344.121ZM240.54 341.834L240.106 342.735L240.106 342.735L240.54 341.834ZM236.123 339.712L236.556 338.81L236.556 338.81L236.123 339.712ZM223.979 333.876L224.412 332.975L224.412 332.975L223.979 333.876ZM223.024 333.417L222.591 334.318L222.591 334.318L223.024 333.417ZM131.588 288.369C131.09 288.13 130.493 288.339 130.253 288.837C130.014 289.335 130.224 289.933 130.722 290.172L131.588 288.369ZM395.278 415.083L364.715 400.396L363.849 402.198L394.412 416.885L395.278 415.083ZM364.715 400.396L295.426 367.1L294.56 368.902L363.849 402.198L364.715 400.396ZM295.426 367.1L293.701 366.271L292.835 368.073L294.56 368.902L295.426 367.1ZM293.701 366.271L288.582 363.811L287.716 365.614L292.835 368.073L293.701 366.271ZM288.582 363.811L275.982 357.756L275.116 359.559L287.716 365.614L288.582 363.811ZM243.857 342.319L240.973 340.933L240.106 342.735L242.991 344.121L243.857 342.319ZM240.973 340.933L236.556 338.81L235.69 340.613L240.106 342.735L240.973 340.933ZM236.556 338.81L224.412 332.975L223.546 334.777L235.69 340.613L236.556 338.81ZM224.412 332.975L223.457 332.516L222.591 334.318L223.546 334.777L224.412 332.975ZM223.457 332.516L131.588 288.369L130.722 290.172L222.591 334.318L223.457 332.516Z" fill="#1A1B1D"/>
<path d="M252.377 346.257L255.211 354.549H255.326L258.159 346.257H259.82L256.156 356.439H254.381L250.717 346.257H252.377ZM260.997 356.439V355.325L264.442 351.755C264.81 351.368 265.113 351.028 265.352 350.736C265.594 350.441 265.775 350.161 265.894 349.896C266.013 349.631 266.073 349.349 266.073 349.051C266.073 348.713 265.993 348.421 265.834 348.176C265.675 347.927 265.458 347.737 265.183 347.604C264.908 347.468 264.598 347.4 264.253 347.4C263.889 347.4 263.571 347.475 263.299 347.624C263.027 347.773 262.818 347.984 262.672 348.255C262.527 348.527 262.454 348.845 262.454 349.21H260.987C260.987 348.59 261.13 348.048 261.415 347.584C261.7 347.12 262.091 346.761 262.588 346.505C263.085 346.247 263.65 346.118 264.283 346.118C264.923 346.118 265.486 346.245 265.974 346.5C266.464 346.752 266.847 347.097 267.122 347.535C267.397 347.969 267.535 348.459 267.535 349.006C267.535 349.384 267.463 349.754 267.321 350.115C267.182 350.476 266.938 350.879 266.59 351.323C266.242 351.764 265.758 352.299 265.138 352.929L263.115 355.047V355.121H267.699V356.439H260.997Z" fill="black" fill-opacity="0.8"/>
<path d="M52.994 338V330.762H54.625V338H52.994ZM52.966 329.495V327.885H54.653V329.495H52.966ZM59.2634 338.14C58.3067 338.14 57.5554 337.811 57.0094 337.153C56.4634 336.495 56.1904 335.559 56.1904 334.346C56.1904 333.59 56.3 332.934 56.5194 332.379C56.7434 331.819 57.0724 331.387 57.5064 331.084C57.9404 330.776 58.4747 330.622 59.1094 330.622C59.408 330.622 59.6787 330.659 59.9214 330.734C60.1687 330.804 60.388 330.897 60.5794 331.014C60.7707 331.131 60.9317 331.259 61.0624 331.399C61.1977 331.539 61.3027 331.679 61.3774 331.819V327.598H63.0924V338H61.8324L61.6434 336.516C61.5827 336.689 61.4964 336.871 61.3844 337.062C61.277 337.249 61.13 337.424 60.9434 337.587C60.7614 337.75 60.5327 337.883 60.2574 337.986C59.982 338.089 59.6507 338.14 59.2634 338.14ZM59.6134 336.887C60.2247 336.887 60.6704 336.689 60.9504 336.292C61.235 335.891 61.3774 335.228 61.3774 334.304C61.3727 333.777 61.3074 333.333 61.1814 332.974C61.06 332.615 60.8734 332.344 60.6214 332.162C60.3694 331.98 60.0404 331.889 59.6344 331.889C59.121 331.889 58.6987 332.078 58.3674 332.456C58.0407 332.834 57.8774 333.45 57.8774 334.304C57.8774 335.153 58.029 335.797 58.3324 336.236C58.6357 336.67 59.0627 336.887 59.6134 336.887ZM64.7729 332.932V330.986H66.6979V332.932H64.7729ZM64.7729 337.958V336.026H66.6979V337.958H64.7729ZM73.2295 338V330.202H71.3535V329.187C71.9461 329.187 72.4151 329.138 72.7605 329.04C73.1105 328.937 73.3648 328.788 73.5235 328.592C73.6868 328.396 73.7801 328.158 73.8035 327.878H74.9655V338H73.2295Z" fill="black"/>
<path d="M404.966 145V137.762H406.632V138.798C406.744 138.611 406.896 138.432 407.087 138.259C407.283 138.086 407.523 137.946 407.808 137.839C408.093 137.732 408.426 137.678 408.809 137.678C409.257 137.678 409.672 137.767 410.055 137.944C410.442 138.121 410.753 138.399 410.986 138.777C411.224 139.155 411.343 139.643 411.343 140.24V145H409.635V140.443C409.635 139.967 409.504 139.615 409.243 139.386C408.982 139.153 408.653 139.036 408.256 139.036C407.985 139.036 407.729 139.083 407.486 139.176C407.243 139.265 407.045 139.402 406.891 139.589C406.742 139.771 406.667 140 406.667 140.275V145H404.966ZM415.221 145.14C414.759 145.14 414.344 145.056 413.975 144.888C413.611 144.715 413.324 144.47 413.114 144.153C412.909 143.831 412.806 143.441 412.806 142.984C412.806 142.186 413.093 141.584 413.667 141.178C414.246 140.772 415.165 140.56 416.425 140.541L417.51 140.513V140.023C417.51 139.64 417.396 139.342 417.167 139.127C416.943 138.908 416.593 138.8 416.117 138.805C415.762 138.81 415.44 138.894 415.151 139.057C414.862 139.216 414.67 139.484 414.577 139.862H413.128C413.156 139.367 413.298 138.954 413.555 138.623C413.816 138.287 414.173 138.037 414.626 137.874C415.079 137.706 415.601 137.622 416.194 137.622C416.885 137.622 417.447 137.713 417.881 137.895C418.315 138.077 418.635 138.341 418.84 138.686C419.045 139.027 419.148 139.44 419.148 139.925V145H417.713L417.573 143.698C417.316 144.244 416.987 144.622 416.586 144.832C416.189 145.037 415.734 145.14 415.221 145.14ZM415.774 143.985C415.984 143.985 416.192 143.948 416.397 143.873C416.602 143.794 416.787 143.689 416.95 143.558C417.118 143.423 417.251 143.273 417.349 143.11C417.452 142.947 417.505 142.776 417.51 142.599V141.458L416.621 141.472C416.182 141.477 415.797 141.523 415.466 141.612C415.139 141.701 414.885 141.843 414.703 142.039C414.521 142.23 414.43 142.487 414.43 142.809C414.43 143.178 414.558 143.467 414.815 143.677C415.072 143.882 415.391 143.985 415.774 143.985ZM420.962 145V137.762H422.621V138.798C422.831 138.481 423.116 138.205 423.475 137.972C423.839 137.739 424.301 137.622 424.861 137.622C425.118 137.622 425.377 137.666 425.638 137.755C425.904 137.844 426.149 137.974 426.373 138.147C426.602 138.32 426.784 138.534 426.919 138.791C427.148 138.45 427.451 138.17 427.829 137.951C428.212 137.732 428.641 137.622 429.117 137.622C429.378 137.622 429.647 137.664 429.922 137.748C430.202 137.832 430.459 137.972 430.692 138.168C430.925 138.364 431.114 138.632 431.259 138.973C431.404 139.309 431.476 139.731 431.476 140.24V145H429.775V140.443C429.775 140.084 429.712 139.801 429.586 139.596C429.46 139.391 429.297 139.246 429.096 139.162C428.9 139.073 428.69 139.029 428.466 139.029C428.265 139.029 428.055 139.069 427.836 139.148C427.621 139.227 427.437 139.358 427.283 139.54C427.134 139.722 427.059 139.967 427.059 140.275V145H425.358V140.17C425.358 139.918 425.293 139.708 425.162 139.54C425.031 139.372 424.866 139.246 424.665 139.162C424.469 139.073 424.268 139.029 424.063 139.029C423.853 139.029 423.638 139.073 423.419 139.162C423.204 139.251 423.025 139.386 422.88 139.568C422.735 139.75 422.663 139.986 422.663 140.275V145H420.962ZM436.507 145.14C435.811 145.14 435.198 144.993 434.666 144.699C434.138 144.4 433.725 143.976 433.427 143.425C433.133 142.874 432.986 142.219 432.986 141.458C432.986 140.716 433.119 140.058 433.385 139.484C433.655 138.905 434.045 138.45 434.554 138.119C435.067 137.788 435.685 137.622 436.409 137.622C437.123 137.622 437.722 137.774 438.208 138.077C438.693 138.38 439.062 138.805 439.314 139.351C439.566 139.892 439.692 140.527 439.692 141.255V141.773H434.687C434.682 142.184 434.747 142.548 434.883 142.865C435.018 143.182 435.219 143.432 435.485 143.614C435.751 143.791 436.08 143.88 436.472 143.88C436.873 143.88 437.221 143.791 437.515 143.614C437.813 143.432 438.012 143.157 438.11 142.788H439.664C439.58 143.292 439.379 143.719 439.062 144.069C438.749 144.419 438.366 144.685 437.914 144.867C437.466 145.049 436.997 145.14 436.507 145.14ZM434.68 140.716H438.082C438.082 140.366 438.019 140.051 437.893 139.771C437.771 139.486 437.587 139.262 437.34 139.099C437.092 138.931 436.78 138.847 436.402 138.847C436.028 138.847 435.713 138.938 435.457 139.12C435.2 139.302 435.006 139.538 434.876 139.827C434.745 140.112 434.68 140.408 434.68 140.716ZM441.082 139.932V137.986H443.007V139.932H441.082ZM441.082 144.958V143.026H443.007V144.958H441.082ZM447.739 138.525L448.53 136.698L447.872 136.649V134.878H449.734V136.432L448.425 138.525H447.739ZM455.678 145.14C454.749 145.14 453.951 144.928 453.284 144.503C452.621 144.074 452.11 143.467 451.751 142.683C451.396 141.894 451.219 140.959 451.219 139.876C451.219 138.798 451.396 137.876 451.751 137.111C452.105 136.346 452.614 135.76 453.277 135.354C453.944 134.943 454.744 134.738 455.678 134.738C456.42 134.738 457.078 134.89 457.652 135.193C458.226 135.492 458.688 135.898 459.038 136.411C459.392 136.924 459.602 137.496 459.668 138.126H457.869C457.799 137.753 457.668 137.419 457.477 137.125C457.29 136.831 457.043 136.598 456.735 136.425C456.427 136.252 456.058 136.166 455.629 136.166C455.092 136.166 454.635 136.294 454.257 136.551C453.883 136.803 453.596 137.204 453.396 137.755C453.2 138.306 453.102 139.02 453.102 139.897C453.102 141.227 453.321 142.195 453.76 142.802C454.198 143.409 454.821 143.712 455.629 143.712C456.058 143.712 456.427 143.619 456.735 143.432C457.043 143.241 457.29 142.989 457.477 142.676C457.668 142.359 457.799 142.013 457.869 141.64H459.668C459.612 142.097 459.495 142.536 459.318 142.956C459.145 143.376 458.9 143.752 458.583 144.083C458.265 144.41 457.866 144.669 457.386 144.86C456.91 145.047 456.34 145.14 455.678 145.14ZM461.335 145V134.598H463.015V138.812C463.132 138.63 463.286 138.455 463.477 138.287C463.668 138.114 463.902 137.974 464.177 137.867C464.457 137.755 464.791 137.699 465.178 137.699C465.64 137.699 466.062 137.788 466.445 137.965C466.828 138.142 467.133 138.399 467.362 138.735C467.591 139.066 467.705 139.463 467.705 139.925V145H465.997V140.212C465.997 139.839 465.864 139.549 465.598 139.344C465.337 139.139 465.005 139.036 464.604 139.036C464.338 139.036 464.084 139.083 463.841 139.176C463.598 139.269 463.402 139.409 463.253 139.596C463.108 139.778 463.036 140.007 463.036 140.282V145H461.335ZM471.577 145.14C471.115 145.14 470.699 145.056 470.331 144.888C469.967 144.715 469.68 144.47 469.47 144.153C469.264 143.831 469.162 143.441 469.162 142.984C469.162 142.186 469.449 141.584 470.023 141.178C470.601 140.772 471.521 140.56 472.781 140.541L473.866 140.513V140.023C473.866 139.64 473.751 139.342 473.523 139.127C473.299 138.908 472.949 138.8 472.473 138.805C472.118 138.81 471.796 138.894 471.507 139.057C471.217 139.216 471.026 139.484 470.933 139.862H469.484C469.512 139.367 469.654 138.954 469.911 138.623C470.172 138.287 470.529 138.037 470.982 137.874C471.434 137.706 471.957 137.622 472.55 137.622C473.24 137.622 473.803 137.713 474.237 137.895C474.671 138.077 474.99 138.341 475.196 138.686C475.401 139.027 475.504 139.44 475.504 139.925V145H474.069L473.929 143.698C473.672 144.244 473.343 144.622 472.942 144.832C472.545 145.037 472.09 145.14 471.577 145.14ZM472.13 143.985C472.34 143.985 472.547 143.948 472.753 143.873C472.958 143.794 473.142 143.689 473.306 143.558C473.474 143.423 473.607 143.273 473.705 143.11C473.807 142.947 473.861 142.776 473.866 142.599V141.458L472.977 141.472C472.538 141.477 472.153 141.523 471.822 141.612C471.495 141.701 471.241 141.843 471.059 142.039C470.877 142.23 470.786 142.487 470.786 142.809C470.786 143.178 470.914 143.467 471.171 143.677C471.427 143.882 471.747 143.985 472.13 143.985ZM477.346 145V137.762H478.977V145H477.346ZM477.318 136.495V134.885H479.005V136.495H477.318ZM480.995 145V137.762H482.626V139.33C482.743 138.971 482.909 138.665 483.123 138.413C483.343 138.156 483.599 137.96 483.893 137.825C484.187 137.69 484.507 137.622 484.852 137.622C484.936 137.622 485.018 137.627 485.097 137.636C485.177 137.645 485.235 137.662 485.272 137.685V139.316C485.221 139.293 485.153 139.276 485.069 139.267C484.99 139.258 484.92 139.253 484.859 139.253C484.509 139.225 484.199 139.239 483.928 139.295C483.662 139.351 483.436 139.447 483.249 139.582C483.067 139.713 482.93 139.881 482.836 140.086C482.743 140.287 482.696 140.522 482.696 140.793V145H480.995ZM486.622 138.525L487.413 136.698L486.755 136.649V134.878H488.617V136.432L487.308 138.525H486.622Z" fill="black"/>
<path d="M369.966 338V330.762H371.632V331.798C371.744 331.611 371.896 331.432 372.087 331.259C372.283 331.086 372.523 330.946 372.808 330.839C373.093 330.732 373.426 330.678 373.809 330.678C374.257 330.678 374.672 330.767 375.055 330.944C375.442 331.121 375.753 331.399 375.986 331.777C376.224 332.155 376.343 332.643 376.343 333.24V338H374.635V333.443C374.635 332.967 374.504 332.615 374.243 332.386C373.982 332.153 373.653 332.036 373.256 332.036C372.985 332.036 372.729 332.083 372.486 332.176C372.243 332.265 372.045 332.402 371.891 332.589C371.742 332.771 371.667 333 371.667 333.275V338H369.966ZM380.221 338.14C379.759 338.14 379.344 338.056 378.975 337.888C378.611 337.715 378.324 337.47 378.114 337.153C377.909 336.831 377.806 336.441 377.806 335.984C377.806 335.186 378.093 334.584 378.667 334.178C379.246 333.772 380.165 333.56 381.425 333.541L382.51 333.513V333.023C382.51 332.64 382.396 332.342 382.167 332.127C381.943 331.908 381.593 331.8 381.117 331.805C380.762 331.81 380.44 331.894 380.151 332.057C379.862 332.216 379.67 332.484 379.577 332.862H378.128C378.156 332.367 378.298 331.954 378.555 331.623C378.816 331.287 379.173 331.037 379.626 330.874C380.079 330.706 380.601 330.622 381.194 330.622C381.885 330.622 382.447 330.713 382.881 330.895C383.315 331.077 383.635 331.341 383.84 331.686C384.045 332.027 384.148 332.44 384.148 332.925V338H382.713L382.573 336.698C382.316 337.244 381.987 337.622 381.586 337.832C381.189 338.037 380.734 338.14 380.221 338.14ZM380.774 336.985C380.984 336.985 381.192 336.948 381.397 336.873C381.602 336.794 381.787 336.689 381.95 336.558C382.118 336.423 382.251 336.273 382.349 336.11C382.452 335.947 382.505 335.776 382.51 335.599V334.458L381.621 334.472C381.182 334.477 380.797 334.523 380.466 334.612C380.139 334.701 379.885 334.843 379.703 335.039C379.521 335.23 379.43 335.487 379.43 335.809C379.43 336.178 379.558 336.467 379.815 336.677C380.072 336.882 380.391 336.985 380.774 336.985ZM385.962 338V330.762H387.621V331.798C387.831 331.481 388.116 331.205 388.475 330.972C388.839 330.739 389.301 330.622 389.861 330.622C390.118 330.622 390.377 330.666 390.638 330.755C390.904 330.844 391.149 330.974 391.373 331.147C391.602 331.32 391.784 331.534 391.919 331.791C392.148 331.45 392.451 331.17 392.829 330.951C393.212 330.732 393.641 330.622 394.117 330.622C394.378 330.622 394.647 330.664 394.922 330.748C395.202 330.832 395.459 330.972 395.692 331.168C395.925 331.364 396.114 331.632 396.259 331.973C396.404 332.309 396.476 332.731 396.476 333.24V338H394.775V333.443C394.775 333.084 394.712 332.801 394.586 332.596C394.46 332.391 394.297 332.246 394.096 332.162C393.9 332.073 393.69 332.029 393.466 332.029C393.265 332.029 393.055 332.069 392.836 332.148C392.621 332.227 392.437 332.358 392.283 332.54C392.134 332.722 392.059 332.967 392.059 333.275V338H390.358V333.17C390.358 332.918 390.293 332.708 390.162 332.54C390.031 332.372 389.866 332.246 389.665 332.162C389.469 332.073 389.268 332.029 389.063 332.029C388.853 332.029 388.638 332.073 388.419 332.162C388.204 332.251 388.025 332.386 387.88 332.568C387.735 332.75 387.663 332.986 387.663 333.275V338H385.962ZM401.507 338.14C400.811 338.14 400.198 337.993 399.666 337.699C399.138 337.4 398.725 336.976 398.427 336.425C398.133 335.874 397.986 335.219 397.986 334.458C397.986 333.716 398.119 333.058 398.385 332.484C398.655 331.905 399.045 331.45 399.554 331.119C400.067 330.788 400.685 330.622 401.409 330.622C402.123 330.622 402.722 330.774 403.208 331.077C403.693 331.38 404.062 331.805 404.314 332.351C404.566 332.892 404.692 333.527 404.692 334.255V334.773H399.687C399.682 335.184 399.747 335.548 399.883 335.865C400.018 336.182 400.219 336.432 400.485 336.614C400.751 336.791 401.08 336.88 401.472 336.88C401.873 336.88 402.221 336.791 402.515 336.614C402.813 336.432 403.012 336.157 403.11 335.788H404.664C404.58 336.292 404.379 336.719 404.062 337.069C403.749 337.419 403.366 337.685 402.914 337.867C402.466 338.049 401.997 338.14 401.507 338.14ZM399.68 333.716H403.082C403.082 333.366 403.019 333.051 402.893 332.771C402.771 332.486 402.587 332.262 402.34 332.099C402.092 331.931 401.78 331.847 401.402 331.847C401.028 331.847 400.713 331.938 400.457 332.12C400.2 332.302 400.006 332.538 399.876 332.827C399.745 333.112 399.68 333.408 399.68 333.716ZM406.082 332.932V330.986H408.007V332.932H406.082ZM406.082 337.958V336.026H408.007V337.958H406.082ZM412.739 331.525L413.53 329.698L412.872 329.649V327.878H414.734V329.432L413.425 331.525H412.739ZM416.737 338V327.878H420.328C421.056 327.878 421.707 328.004 422.281 328.256C422.859 328.503 423.314 328.87 423.646 329.355C423.977 329.84 424.143 330.438 424.143 331.147C424.143 331.814 423.991 332.386 423.688 332.862C423.389 333.338 422.971 333.702 422.435 333.954C421.898 334.206 421.27 334.332 420.552 334.332H418.466V338H416.737ZM418.452 332.967H420.51C421.102 332.967 421.585 332.79 421.959 332.435C422.337 332.08 422.526 331.618 422.526 331.049C422.526 330.47 422.33 330.022 421.938 329.705C421.546 329.383 421.053 329.222 420.461 329.222H418.452V332.967ZM425.501 338V330.762H427.132V332.33C427.249 331.971 427.414 331.665 427.629 331.413C427.848 331.156 428.105 330.96 428.399 330.825C428.693 330.69 429.013 330.622 429.358 330.622C429.442 330.622 429.524 330.627 429.603 330.636C429.682 330.645 429.741 330.662 429.778 330.685V332.316C429.727 332.293 429.659 332.276 429.575 332.267C429.496 332.258 429.426 332.253 429.365 332.253C429.015 332.225 428.705 332.239 428.434 332.295C428.168 332.351 427.942 332.447 427.755 332.582C427.573 332.713 427.435 332.881 427.342 333.086C427.249 333.287 427.202 333.522 427.202 333.793V338H425.501ZM434.117 338.14C433.427 338.14 432.825 337.993 432.311 337.699C431.798 337.4 431.399 336.973 431.114 336.418C430.834 335.863 430.694 335.195 430.694 334.416C430.694 333.66 430.832 332.997 431.107 332.428C431.383 331.859 431.775 331.415 432.283 331.098C432.797 330.781 433.41 330.622 434.124 330.622C434.815 330.622 435.415 330.774 435.923 331.077C436.432 331.38 436.824 331.814 437.099 332.379C437.379 332.944 437.519 333.623 437.519 334.416C437.519 335.149 437.386 335.795 437.12 336.355C436.859 336.91 436.474 337.347 435.965 337.664C435.461 337.981 434.845 338.14 434.117 338.14ZM434.124 336.845C434.516 336.845 434.838 336.738 435.09 336.523C435.347 336.308 435.538 336.014 435.664 335.641C435.79 335.268 435.853 334.843 435.853 334.367C435.853 333.924 435.797 333.515 435.685 333.142C435.573 332.769 435.389 332.47 435.132 332.246C434.88 332.017 434.544 331.903 434.124 331.903C433.728 331.903 433.399 332.008 433.137 332.218C432.881 332.423 432.689 332.713 432.563 333.086C432.437 333.455 432.374 333.882 432.374 334.367C432.374 334.806 432.43 335.214 432.542 335.592C432.654 335.965 432.839 336.269 433.095 336.502C433.352 336.731 433.695 336.845 434.124 336.845ZM439.713 338V331.966H438.285V330.762H439.713V329.684C439.713 329.105 439.872 328.66 440.189 328.347C440.511 328.034 440.976 327.878 441.582 327.878H443.108L443.115 329.04H442.107C441.832 329.04 441.643 329.112 441.54 329.257C441.438 329.397 441.386 329.619 441.386 329.922V330.762H443.045V331.966H441.414V338H439.713ZM447.513 338.14C446.817 338.14 446.204 337.993 445.672 337.699C445.144 337.4 444.731 336.976 444.433 336.425C444.139 335.874 443.992 335.219 443.992 334.458C443.992 333.716 444.125 333.058 444.391 332.484C444.661 331.905 445.051 331.45 445.56 331.119C446.073 330.788 446.691 330.622 447.415 330.622C448.129 330.622 448.728 330.774 449.214 331.077C449.699 331.38 450.068 331.805 450.32 332.351C450.572 332.892 450.698 333.527 450.698 334.255V334.773H445.693C445.688 335.184 445.753 335.548 445.889 335.865C446.024 336.182 446.225 336.432 446.491 336.614C446.757 336.791 447.086 336.88 447.478 336.88C447.879 336.88 448.227 336.791 448.521 336.614C448.819 336.432 449.018 336.157 449.116 335.788H450.67C450.586 336.292 450.385 336.719 450.068 337.069C449.755 337.419 449.372 337.685 448.92 337.867C448.472 338.049 448.003 338.14 447.513 338.14ZM445.686 333.716H449.088C449.088 333.366 449.025 333.051 448.899 332.771C448.777 332.486 448.593 332.262 448.346 332.099C448.098 331.931 447.786 331.847 447.408 331.847C447.034 331.847 446.719 331.938 446.463 332.12C446.206 332.302 446.012 332.538 445.882 332.827C445.751 333.112 445.686 333.408 445.686 333.716ZM455.07 338.14C454.566 338.14 454.088 338.061 453.635 337.902C453.187 337.739 452.809 337.484 452.501 337.139C452.198 336.794 452.006 336.348 451.927 335.802H453.425C453.49 336.068 453.605 336.285 453.768 336.453C453.936 336.621 454.132 336.745 454.356 336.824C454.585 336.899 454.82 336.936 455.063 336.936C455.497 336.936 455.847 336.861 456.113 336.712C456.379 336.563 456.512 336.332 456.512 336.019C456.512 335.79 456.437 335.608 456.288 335.473C456.143 335.338 455.905 335.235 455.574 335.165L454.202 334.85C453.586 334.715 453.094 334.491 452.725 334.178C452.356 333.865 452.17 333.424 452.165 332.855C452.16 332.426 452.268 332.043 452.487 331.707C452.706 331.371 453.033 331.107 453.467 330.916C453.901 330.72 454.435 330.622 455.07 330.622C455.915 330.622 456.591 330.811 457.1 331.189C457.613 331.562 457.877 332.097 457.891 332.792H456.442C456.391 332.479 456.244 332.237 456.001 332.064C455.758 331.887 455.443 331.798 455.056 331.798C454.655 331.798 454.326 331.875 454.069 332.029C453.812 332.183 453.684 332.419 453.684 332.736C453.684 332.955 453.78 333.128 453.971 333.254C454.167 333.38 454.463 333.487 454.86 333.576L456.162 333.891C456.535 333.984 456.841 334.11 457.079 334.269C457.317 334.428 457.501 334.603 457.632 334.794C457.767 334.981 457.861 335.174 457.912 335.375C457.968 335.571 457.996 335.753 457.996 335.921C457.996 336.388 457.875 336.787 457.632 337.118C457.394 337.445 457.056 337.697 456.617 337.874C456.183 338.051 455.667 338.14 455.07 338.14ZM462.275 338.14C461.771 338.14 461.293 338.061 460.84 337.902C460.392 337.739 460.014 337.484 459.706 337.139C459.403 336.794 459.211 336.348 459.132 335.802H460.63C460.695 336.068 460.81 336.285 460.973 336.453C461.141 336.621 461.337 336.745 461.561 336.824C461.79 336.899 462.025 336.936 462.268 336.936C462.702 336.936 463.052 336.861 463.318 336.712C463.584 336.563 463.717 336.332 463.717 336.019C463.717 335.79 463.642 335.608 463.493 335.473C463.348 335.338 463.11 335.235 462.779 335.165L461.407 334.85C460.791 334.715 460.299 334.491 459.93 334.178C459.561 333.865 459.375 333.424 459.37 332.855C459.365 332.426 459.473 332.043 459.692 331.707C459.911 331.371 460.238 331.107 460.672 330.916C461.106 330.72 461.64 330.622 462.275 330.622C463.12 330.622 463.796 330.811 464.305 331.189C464.818 331.562 465.082 332.097 465.096 332.792H463.647C463.596 332.479 463.449 332.237 463.206 332.064C462.963 331.887 462.648 331.798 462.261 331.798C461.86 331.798 461.531 331.875 461.274 332.029C461.017 332.183 460.889 332.419 460.889 332.736C460.889 332.955 460.985 333.128 461.176 333.254C461.372 333.38 461.668 333.487 462.065 333.576L463.367 333.891C463.74 333.984 464.046 334.11 464.284 334.269C464.522 334.428 464.706 334.603 464.837 334.794C464.972 334.981 465.066 335.174 465.117 335.375C465.173 335.571 465.201 335.753 465.201 335.921C465.201 336.388 465.08 336.787 464.837 337.118C464.599 337.445 464.261 337.697 463.822 337.874C463.388 338.051 462.872 338.14 462.275 338.14ZM466.777 338V330.762H468.408V338H466.777ZM466.749 329.495V327.885H468.436V329.495H466.749ZM473.397 338.14C472.706 338.14 472.104 337.993 471.591 337.699C471.077 337.4 470.678 336.973 470.394 336.418C470.114 335.863 469.974 335.195 469.974 334.416C469.974 333.66 470.111 332.997 470.387 332.428C470.662 331.859 471.054 331.415 471.563 331.098C472.076 330.781 472.69 330.622 473.404 330.622C474.094 330.622 474.694 330.774 475.203 331.077C475.711 331.38 476.103 331.814 476.379 332.379C476.659 332.944 476.799 333.623 476.799 334.416C476.799 335.149 476.666 335.795 476.4 336.355C476.138 336.91 475.753 337.347 475.245 337.664C474.741 337.981 474.125 338.14 473.397 338.14ZM473.404 336.845C473.796 336.845 474.118 336.738 474.37 336.523C474.626 336.308 474.818 336.014 474.944 335.641C475.07 335.268 475.133 334.843 475.133 334.367C475.133 333.924 475.077 333.515 474.965 333.142C474.853 332.769 474.668 332.47 474.412 332.246C474.16 332.017 473.824 331.903 473.404 331.903C473.007 331.903 472.678 332.008 472.417 332.218C472.16 332.423 471.969 332.713 471.843 333.086C471.717 333.455 471.654 333.882 471.654 334.367C471.654 334.806 471.71 335.214 471.822 335.592C471.934 335.965 472.118 336.269 472.375 336.502C472.631 336.731 472.974 336.845 473.404 336.845ZM478.357 338V330.762H480.023V331.798C480.135 331.611 480.286 331.432 480.478 331.259C480.674 331.086 480.914 330.946 481.199 330.839C481.483 330.732 481.817 330.678 482.2 330.678C482.648 330.678 483.063 330.767 483.446 330.944C483.833 331.121 484.143 331.399 484.377 331.777C484.615 332.155 484.734 332.643 484.734 333.24V338H483.026V333.443C483.026 332.967 482.895 332.615 482.634 332.386C482.372 332.153 482.043 332.036 481.647 332.036C481.376 332.036 481.119 332.083 480.877 332.176C480.634 332.265 480.436 332.402 480.282 332.589C480.132 332.771 480.058 333 480.058 333.275V338H478.357ZM488.612 338.14C488.15 338.14 487.734 338.056 487.366 337.888C487.002 337.715 486.715 337.47 486.505 337.153C486.299 336.831 486.197 336.441 486.197 335.984C486.197 335.186 486.484 334.584 487.058 334.178C487.636 333.772 488.556 333.56 489.816 333.541L490.901 333.513V333.023C490.901 332.64 490.786 332.342 490.558 332.127C490.334 331.908 489.984 331.8 489.508 331.805C489.153 331.81 488.831 331.894 488.542 332.057C488.252 332.216 488.061 332.484 487.968 332.862H486.519C486.547 332.367 486.689 331.954 486.946 331.623C487.207 331.287 487.564 331.037 488.017 330.874C488.469 330.706 488.992 330.622 489.585 330.622C490.275 330.622 490.838 330.713 491.272 330.895C491.706 331.077 492.025 331.341 492.231 331.686C492.436 332.027 492.539 332.44 492.539 332.925V338H491.104L490.964 336.698C490.707 337.244 490.378 337.622 489.977 337.832C489.58 338.037 489.125 338.14 488.612 338.14ZM489.165 336.985C489.375 336.985 489.582 336.948 489.788 336.873C489.993 336.794 490.177 336.689 490.341 336.558C490.509 336.423 490.642 336.273 490.74 336.11C490.842 335.947 490.896 335.776 490.901 335.599V334.458L490.012 334.472C489.573 334.477 489.188 334.523 488.857 334.612C488.53 334.701 488.276 334.843 488.094 335.039C487.912 335.23 487.821 335.487 487.821 335.809C487.821 336.178 487.949 336.467 488.206 336.677C488.462 336.882 488.782 336.985 489.165 336.985ZM496.439 338.105C495.972 338.105 495.599 338.047 495.319 337.93C495.039 337.813 494.829 337.657 494.689 337.461C494.549 337.265 494.458 337.046 494.416 336.803C494.374 336.556 494.353 336.304 494.353 336.047V327.598H496.019V335.851C496.019 336.164 496.082 336.406 496.208 336.579C496.338 336.752 496.548 336.852 496.838 336.88L497.202 336.894V337.965C497.076 338.002 496.947 338.035 496.817 338.063C496.686 338.091 496.56 338.105 496.439 338.105ZM504.979 338.14C504.316 338.14 503.726 337.995 503.208 337.706C502.694 337.412 502.291 336.987 501.997 336.432C501.703 335.872 501.556 335.198 501.556 334.409C501.556 333.658 501.693 333 501.969 332.435C502.249 331.866 502.643 331.422 503.152 331.105C503.665 330.783 504.274 330.622 504.979 330.622C505.543 330.622 506.04 330.734 506.47 330.958C506.899 331.182 507.242 331.492 507.499 331.889C507.76 332.286 507.916 332.736 507.968 333.24H506.519C506.481 333.021 506.4 332.813 506.274 332.617C506.148 332.416 505.977 332.255 505.763 332.134C505.553 332.008 505.296 331.945 504.993 331.945C504.447 331.945 504.006 332.146 503.67 332.547C503.334 332.948 503.166 333.564 503.166 334.395C503.166 335.16 503.324 335.769 503.642 336.222C503.964 336.675 504.423 336.901 505.021 336.901C505.319 336.901 505.576 336.836 505.791 336.705C506.005 336.57 506.173 336.404 506.295 336.208C506.421 336.007 506.5 335.807 506.533 335.606H507.947C507.905 336.096 507.753 336.532 507.492 336.915C507.23 337.298 506.885 337.599 506.456 337.818C506.026 338.033 505.534 338.14 504.979 338.14ZM509.515 338V327.598H511.195V331.812C511.311 331.63 511.465 331.455 511.657 331.287C511.848 331.114 512.081 330.974 512.357 330.867C512.637 330.755 512.97 330.699 513.358 330.699C513.82 330.699 514.242 330.788 514.625 330.965C515.007 331.142 515.313 331.399 515.542 331.735C515.77 332.066 515.885 332.463 515.885 332.925V338H514.177V333.212C514.177 332.839 514.044 332.549 513.778 332.344C513.516 332.139 513.185 332.036 512.784 332.036C512.518 332.036 512.263 332.083 512.021 332.176C511.778 332.269 511.582 332.409 511.433 332.596C511.288 332.778 511.216 333.007 511.216 333.282V338H509.515ZM519.756 338.14C519.294 338.14 518.879 338.056 518.51 337.888C518.146 337.715 517.859 337.47 517.649 337.153C517.444 336.831 517.341 336.441 517.341 335.984C517.341 335.186 517.628 334.584 518.202 334.178C518.781 333.772 519.7 333.56 520.96 333.541L522.045 333.513V333.023C522.045 332.64 521.931 332.342 521.702 332.127C521.478 331.908 521.128 331.8 520.652 331.805C520.298 331.81 519.976 331.894 519.686 332.057C519.397 332.216 519.206 332.484 519.112 332.862H517.663C517.691 332.367 517.834 331.954 518.09 331.623C518.352 331.287 518.709 331.037 519.161 330.874C519.614 330.706 520.137 330.622 520.729 330.622C521.42 330.622 521.982 330.713 522.416 330.895C522.85 331.077 523.17 331.341 523.375 331.686C523.581 332.027 523.683 332.44 523.683 332.925V338H522.248L522.108 336.698C521.852 337.244 521.523 337.622 521.121 337.832C520.725 338.037 520.27 338.14 519.756 338.14ZM520.309 336.985C520.519 336.985 520.727 336.948 520.932 336.873C521.138 336.794 521.322 336.689 521.485 336.558C521.653 336.423 521.786 336.273 521.884 336.11C521.987 335.947 522.041 335.776 522.045 335.599V334.458L521.156 334.472C520.718 334.477 520.333 334.523 520.001 334.612C519.675 334.701 519.42 334.843 519.238 335.039C519.056 335.23 518.965 335.487 518.965 335.809C518.965 336.178 519.094 336.467 519.35 336.677C519.607 336.882 519.927 336.985 520.309 336.985ZM525.525 338V330.762H527.156V338H525.525ZM525.497 329.495V327.885H527.184V329.495H525.497ZM529.175 338V330.762H530.806V332.33C530.923 331.971 531.088 331.665 531.303 331.413C531.522 331.156 531.779 330.96 532.073 330.825C532.367 330.69 532.687 330.622 533.032 330.622C533.116 330.622 533.198 330.627 533.277 330.636C533.356 330.645 533.415 330.662 533.452 330.685V332.316C533.401 332.293 533.333 332.276 533.249 332.267C533.17 332.258 533.1 332.253 533.039 332.253C532.689 332.225 532.379 332.239 532.108 332.295C531.842 332.351 531.616 332.447 531.429 332.582C531.247 332.713 531.109 332.881 531.016 333.086C530.923 333.287 530.876 333.522 530.876 333.793V338H529.175ZM534.802 331.525L535.593 329.698L534.935 329.649V327.878H536.797V329.432L535.488 331.525H534.802Z" fill="black"/>
<path d="M383.966 531V523.762H385.632V524.798C385.744 524.611 385.896 524.432 386.087 524.259C386.283 524.086 386.523 523.946 386.808 523.839C387.093 523.732 387.426 523.678 387.809 523.678C388.257 523.678 388.672 523.767 389.055 523.944C389.442 524.121 389.753 524.399 389.986 524.777C390.224 525.155 390.343 525.643 390.343 526.24V531H388.635V526.443C388.635 525.967 388.504 525.615 388.243 525.386C387.982 525.153 387.653 525.036 387.256 525.036C386.985 525.036 386.729 525.083 386.486 525.176C386.243 525.265 386.045 525.402 385.891 525.589C385.742 525.771 385.667 526 385.667 526.275V531H383.966ZM394.221 531.14C393.759 531.14 393.344 531.056 392.975 530.888C392.611 530.715 392.324 530.47 392.114 530.153C391.909 529.831 391.806 529.441 391.806 528.984C391.806 528.186 392.093 527.584 392.667 527.178C393.246 526.772 394.165 526.56 395.425 526.541L396.51 526.513V526.023C396.51 525.64 396.396 525.342 396.167 525.127C395.943 524.908 395.593 524.8 395.117 524.805C394.762 524.81 394.44 524.894 394.151 525.057C393.862 525.216 393.67 525.484 393.577 525.862H392.128C392.156 525.367 392.298 524.954 392.555 524.623C392.816 524.287 393.173 524.037 393.626 523.874C394.079 523.706 394.601 523.622 395.194 523.622C395.885 523.622 396.447 523.713 396.881 523.895C397.315 524.077 397.635 524.341 397.84 524.686C398.045 525.027 398.148 525.44 398.148 525.925V531H396.713L396.573 529.698C396.316 530.244 395.987 530.622 395.586 530.832C395.189 531.037 394.734 531.14 394.221 531.14ZM394.774 529.985C394.984 529.985 395.192 529.948 395.397 529.873C395.602 529.794 395.787 529.689 395.95 529.558C396.118 529.423 396.251 529.273 396.349 529.11C396.452 528.947 396.505 528.776 396.51 528.599V527.458L395.621 527.472C395.182 527.477 394.797 527.523 394.466 527.612C394.139 527.701 393.885 527.843 393.703 528.039C393.521 528.23 393.43 528.487 393.43 528.809C393.43 529.178 393.558 529.467 393.815 529.677C394.072 529.882 394.391 529.985 394.774 529.985ZM399.962 531V523.762H401.621V524.798C401.831 524.481 402.116 524.205 402.475 523.972C402.839 523.739 403.301 523.622 403.861 523.622C404.118 523.622 404.377 523.666 404.638 523.755C404.904 523.844 405.149 523.974 405.373 524.147C405.602 524.32 405.784 524.534 405.919 524.791C406.148 524.45 406.451 524.17 406.829 523.951C407.212 523.732 407.641 523.622 408.117 523.622C408.378 523.622 408.647 523.664 408.922 523.748C409.202 523.832 409.459 523.972 409.692 524.168C409.925 524.364 410.114 524.632 410.259 524.973C410.404 525.309 410.476 525.731 410.476 526.24V531H408.775V526.443C408.775 526.084 408.712 525.801 408.586 525.596C408.46 525.391 408.297 525.246 408.096 525.162C407.9 525.073 407.69 525.029 407.466 525.029C407.265 525.029 407.055 525.069 406.836 525.148C406.621 525.227 406.437 525.358 406.283 525.54C406.134 525.722 406.059 525.967 406.059 526.275V531H404.358V526.17C404.358 525.918 404.293 525.708 404.162 525.54C404.031 525.372 403.866 525.246 403.665 525.162C403.469 525.073 403.268 525.029 403.063 525.029C402.853 525.029 402.638 525.073 402.419 525.162C402.204 525.251 402.025 525.386 401.88 525.568C401.735 525.75 401.663 525.986 401.663 526.275V531H399.962ZM415.507 531.14C414.811 531.14 414.198 530.993 413.666 530.699C413.138 530.4 412.725 529.976 412.427 529.425C412.133 528.874 411.986 528.219 411.986 527.458C411.986 526.716 412.119 526.058 412.385 525.484C412.655 524.905 413.045 524.45 413.554 524.119C414.067 523.788 414.685 523.622 415.409 523.622C416.123 523.622 416.722 523.774 417.208 524.077C417.693 524.38 418.062 524.805 418.314 525.351C418.566 525.892 418.692 526.527 418.692 527.255V527.773H413.687C413.682 528.184 413.747 528.548 413.883 528.865C414.018 529.182 414.219 529.432 414.485 529.614C414.751 529.791 415.08 529.88 415.472 529.88C415.873 529.88 416.221 529.791 416.515 529.614C416.813 529.432 417.012 529.157 417.11 528.788H418.664C418.58 529.292 418.379 529.719 418.062 530.069C417.749 530.419 417.366 530.685 416.914 530.867C416.466 531.049 415.997 531.14 415.507 531.14ZM413.68 526.716H417.082C417.082 526.366 417.019 526.051 416.893 525.771C416.771 525.486 416.587 525.262 416.34 525.099C416.092 524.931 415.78 524.847 415.402 524.847C415.028 524.847 414.713 524.938 414.457 525.12C414.2 525.302 414.006 525.538 413.876 525.827C413.745 526.112 413.68 526.408 413.68 526.716ZM420.082 525.932V523.986H422.007V525.932H420.082ZM420.082 530.958V529.026H422.007V530.958H420.082ZM426.739 524.525L427.53 522.698L426.872 522.649V520.878H428.734V522.432L427.425 524.525H426.739ZM434.657 531.14C433.751 531.14 432.965 530.932 432.298 530.517C431.63 530.102 431.117 529.509 430.758 528.739C430.398 527.964 430.219 527.04 430.219 525.967C430.219 524.884 430.405 523.951 430.779 523.167C431.152 522.383 431.677 521.783 432.354 521.368C433.035 520.948 433.833 520.738 434.748 520.738C435.308 520.738 435.823 520.831 436.295 521.018C436.771 521.205 437.186 521.457 437.541 521.774C437.9 522.091 438.182 522.453 438.388 522.859C438.593 523.265 438.707 523.687 438.731 524.126H436.932C436.866 523.781 436.733 523.463 436.533 523.174C436.337 522.88 436.082 522.644 435.77 522.467C435.462 522.29 435.109 522.201 434.713 522.201C434.204 522.201 433.749 522.329 433.348 522.586C432.951 522.843 432.638 523.246 432.41 523.797C432.186 524.343 432.074 525.052 432.074 525.925C432.074 526.616 432.144 527.199 432.284 527.675C432.428 528.146 432.624 528.527 432.872 528.816C433.124 529.101 433.413 529.308 433.74 529.439C434.066 529.565 434.412 529.628 434.776 529.628C435.13 529.628 435.443 529.567 435.714 529.446C435.984 529.325 436.213 529.166 436.4 528.97C436.591 528.774 436.738 528.564 436.841 528.34C436.948 528.111 437.011 527.89 437.03 527.675L437.093 526.933H434.832V525.729L438.871 525.743V531H437.667V529.579C437.494 529.836 437.275 530.083 437.009 530.321C436.747 530.559 436.425 530.755 436.043 530.909C435.665 531.063 435.203 531.14 434.657 531.14ZM443.03 531.14C442.568 531.14 442.152 531.056 441.784 530.888C441.42 530.715 441.133 530.47 440.923 530.153C440.717 529.831 440.615 529.441 440.615 528.984C440.615 528.186 440.902 527.584 441.476 527.178C442.054 526.772 442.974 526.56 444.234 526.541L445.319 526.513V526.023C445.319 525.64 445.204 525.342 444.976 525.127C444.752 524.908 444.402 524.8 443.926 524.805C443.571 524.81 443.249 524.894 442.96 525.057C442.67 525.216 442.479 525.484 442.386 525.862H440.937C440.965 525.367 441.107 524.954 441.364 524.623C441.625 524.287 441.982 524.037 442.435 523.874C442.887 523.706 443.41 523.622 444.003 523.622C444.693 523.622 445.256 523.713 445.69 523.895C446.124 524.077 446.443 524.341 446.649 524.686C446.854 525.027 446.957 525.44 446.957 525.925V531H445.522L445.382 529.698C445.125 530.244 444.796 530.622 444.395 530.832C443.998 531.037 443.543 531.14 443.03 531.14ZM443.583 529.985C443.793 529.985 444 529.948 444.206 529.873C444.411 529.794 444.595 529.689 444.759 529.558C444.927 529.423 445.06 529.273 445.158 529.11C445.26 528.947 445.314 528.776 445.319 528.599V527.458L444.43 527.472C443.991 527.477 443.606 527.523 443.275 527.612C442.948 527.701 442.694 527.843 442.512 528.039C442.33 528.23 442.239 528.487 442.239 528.809C442.239 529.178 442.367 529.467 442.624 529.677C442.88 529.882 443.2 529.985 443.583 529.985ZM448.771 531V523.762H450.43V524.798C450.64 524.481 450.924 524.205 451.284 523.972C451.648 523.739 452.11 523.622 452.67 523.622C452.926 523.622 453.185 523.666 453.447 523.755C453.713 523.844 453.958 523.974 454.182 524.147C454.41 524.32 454.592 524.534 454.728 524.791C454.956 524.45 455.26 524.17 455.638 523.951C456.02 523.732 456.45 523.622 456.926 523.622C457.187 523.622 457.455 523.664 457.731 523.748C458.011 523.832 458.267 523.972 458.501 524.168C458.734 524.364 458.923 524.632 459.068 524.973C459.212 525.309 459.285 525.731 459.285 526.24V531H457.584V526.443C457.584 526.084 457.521 525.801 457.395 525.596C457.269 525.391 457.105 525.246 456.905 525.162C456.709 525.073 456.499 525.029 456.275 525.029C456.074 525.029 455.864 525.069 455.645 525.148C455.43 525.227 455.246 525.358 455.092 525.54C454.942 525.722 454.868 525.967 454.868 526.275V531H453.167V526.17C453.167 525.918 453.101 525.708 452.971 525.54C452.84 525.372 452.674 525.246 452.474 525.162C452.278 525.073 452.077 525.029 451.872 525.029C451.662 525.029 451.447 525.073 451.228 525.162C451.013 525.251 450.833 525.386 450.689 525.568C450.544 525.75 450.472 525.986 450.472 526.275V531H448.771ZM461.144 531V523.762H462.775V531H461.144ZM461.116 522.495V520.885H462.803V522.495H461.116ZM464.794 531V523.762H466.46V524.798C466.572 524.611 466.724 524.432 466.915 524.259C467.111 524.086 467.351 523.946 467.636 523.839C467.921 523.732 468.254 523.678 468.637 523.678C469.085 523.678 469.5 523.767 469.883 523.944C470.27 524.121 470.581 524.399 470.814 524.777C471.052 525.155 471.171 525.643 471.171 526.24V531H469.463V526.443C469.463 525.967 469.332 525.615 469.071 525.386C468.81 525.153 468.481 525.036 468.084 525.036C467.813 525.036 467.557 525.083 467.314 525.176C467.071 525.265 466.873 525.402 466.719 525.589C466.57 525.771 466.495 526 466.495 526.275V531H464.794ZM476.217 533.394C474.999 533.394 474.064 533.231 473.41 532.904C472.757 532.577 472.43 532.129 472.43 531.56C472.43 531.303 472.493 531.089 472.619 530.916C472.745 530.743 472.895 530.601 473.067 530.489C473.24 530.377 473.399 530.291 473.543 530.23C473.688 530.169 473.781 530.125 473.823 530.097C473.744 530.05 473.639 529.99 473.508 529.915C473.378 529.84 473.259 529.738 473.151 529.607C473.049 529.476 472.997 529.306 472.997 529.096C472.997 528.853 473.112 528.629 473.34 528.424C473.574 528.219 473.921 528.072 474.383 527.983C473.931 527.764 473.583 527.467 473.34 527.094C473.098 526.721 472.976 526.333 472.976 525.932C472.976 525.456 473.114 525.048 473.389 524.707C473.669 524.366 474.057 524.105 474.551 523.923C475.046 523.741 475.622 523.65 476.28 523.65C476.761 523.65 477.16 523.704 477.477 523.811C477.799 523.918 478.098 524.063 478.373 524.245C478.467 524.208 478.597 524.156 478.765 524.091C478.933 524.021 479.118 523.946 479.318 523.867C479.519 523.783 479.713 523.704 479.899 523.629C480.086 523.55 480.242 523.484 480.368 523.433L480.361 524.84L479.108 525.064C479.169 525.199 479.216 525.346 479.248 525.505C479.286 525.664 479.304 525.804 479.304 525.925C479.304 526.345 479.185 526.735 478.947 527.094C478.714 527.449 478.362 527.733 477.89 527.948C477.424 528.163 476.84 528.27 476.14 528.27C476.07 528.27 475.975 528.268 475.853 528.263C475.732 528.258 475.634 528.254 475.559 528.249C475.181 528.263 474.922 528.307 474.782 528.382C474.642 528.457 474.572 528.538 474.572 528.627C474.572 528.753 474.677 528.837 474.887 528.879C475.097 528.921 475.433 528.958 475.895 528.991C476.059 529 476.273 529.012 476.539 529.026C476.805 529.04 477.102 529.059 477.428 529.082C478.254 529.133 478.88 529.341 479.304 529.705C479.729 530.064 479.941 530.531 479.941 531.105C479.941 531.772 479.633 532.321 479.017 532.75C478.401 533.179 477.468 533.394 476.217 533.394ZM476.504 532.393C477.116 532.393 477.568 532.309 477.862 532.141C478.156 531.973 478.303 531.726 478.303 531.399C478.303 531.147 478.203 530.942 478.002 530.783C477.802 530.624 477.503 530.531 477.106 530.503L475.279 530.391C475.079 530.377 474.887 530.414 474.705 530.503C474.528 530.587 474.383 530.706 474.271 530.86C474.159 531.009 474.103 531.175 474.103 531.357C474.103 531.698 474.297 531.954 474.684 532.127C475.076 532.304 475.683 532.393 476.504 532.393ZM476.196 527.269C476.64 527.269 476.999 527.157 477.274 526.933C477.55 526.704 477.687 526.382 477.687 525.967C477.687 525.538 477.55 525.204 477.274 524.966C476.999 524.723 476.64 524.602 476.196 524.602C475.744 524.602 475.377 524.723 475.097 524.966C474.822 525.209 474.684 525.542 474.684 525.967C474.684 526.368 474.817 526.686 475.083 526.919C475.349 527.152 475.72 527.269 476.196 527.269ZM487.943 531.14C487.281 531.14 486.69 530.995 486.172 530.706C485.659 530.412 485.255 529.987 484.961 529.432C484.667 528.872 484.52 528.198 484.52 527.409C484.52 526.658 484.658 526 484.933 525.435C485.213 524.866 485.608 524.422 486.116 524.105C486.63 523.783 487.239 523.622 487.943 523.622C488.508 523.622 489.005 523.734 489.434 523.958C489.864 524.182 490.207 524.492 490.463 524.889C490.725 525.286 490.881 525.736 490.932 526.24H489.483C489.446 526.021 489.364 525.813 489.238 525.617C489.112 525.416 488.942 525.255 488.727 525.134C488.517 525.008 488.261 524.945 487.957 524.945C487.411 524.945 486.97 525.146 486.634 525.547C486.298 525.948 486.13 526.564 486.13 527.395C486.13 528.16 486.289 528.769 486.606 529.222C486.928 529.675 487.388 529.901 487.985 529.901C488.284 529.901 488.541 529.836 488.755 529.705C488.97 529.57 489.138 529.404 489.259 529.208C489.385 529.007 489.465 528.807 489.497 528.606H490.911C490.869 529.096 490.718 529.532 490.456 529.915C490.195 530.298 489.85 530.599 489.42 530.818C488.991 531.033 488.499 531.14 487.943 531.14ZM492.48 531V520.598H494.16V524.812C494.276 524.63 494.43 524.455 494.622 524.287C494.813 524.114 495.046 523.974 495.322 523.867C495.602 523.755 495.935 523.699 496.323 523.699C496.785 523.699 497.207 523.788 497.59 523.965C497.972 524.142 498.278 524.399 498.507 524.735C498.735 525.066 498.85 525.463 498.85 525.925V531H497.142V526.212C497.142 525.839 497.009 525.549 496.743 525.344C496.481 525.139 496.15 525.036 495.749 525.036C495.483 525.036 495.228 525.083 494.986 525.176C494.743 525.269 494.547 525.409 494.398 525.596C494.253 525.778 494.181 526.007 494.181 526.282V531H492.48ZM502.721 531.14C502.259 531.14 501.844 531.056 501.475 530.888C501.111 530.715 500.824 530.47 500.614 530.153C500.409 529.831 500.306 529.441 500.306 528.984C500.306 528.186 500.593 527.584 501.167 527.178C501.746 526.772 502.665 526.56 503.925 526.541L505.01 526.513V526.023C505.01 525.64 504.896 525.342 504.667 525.127C504.443 524.908 504.093 524.8 503.617 524.805C503.262 524.81 502.94 524.894 502.651 525.057C502.362 525.216 502.17 525.484 502.077 525.862H500.628C500.656 525.367 500.798 524.954 501.055 524.623C501.316 524.287 501.673 524.037 502.126 523.874C502.579 523.706 503.101 523.622 503.694 523.622C504.385 523.622 504.947 523.713 505.381 523.895C505.815 524.077 506.135 524.341 506.34 524.686C506.545 525.027 506.648 525.44 506.648 525.925V531H505.213L505.073 529.698C504.816 530.244 504.487 530.622 504.086 530.832C503.689 531.037 503.234 531.14 502.721 531.14ZM503.274 529.985C503.484 529.985 503.692 529.948 503.897 529.873C504.102 529.794 504.287 529.689 504.45 529.558C504.618 529.423 504.751 529.273 504.849 529.11C504.952 528.947 505.005 528.776 505.01 528.599V527.458L504.121 527.472C503.682 527.477 503.297 527.523 502.966 527.612C502.639 527.701 502.385 527.843 502.203 528.039C502.021 528.23 501.93 528.487 501.93 528.809C501.93 529.178 502.058 529.467 502.315 529.677C502.572 529.882 502.891 529.985 503.274 529.985ZM508.49 531V523.762H510.121V531H508.49ZM508.462 522.495V520.885H510.149V522.495H508.462ZM512.14 531V523.762H513.771V525.33C513.887 524.971 514.053 524.665 514.268 524.413C514.487 524.156 514.744 523.96 515.038 523.825C515.332 523.69 515.651 523.622 515.997 523.622C516.081 523.622 516.162 523.627 516.242 523.636C516.321 523.645 516.379 523.662 516.417 523.685V525.316C516.365 525.293 516.298 525.276 516.214 525.267C516.134 525.258 516.064 525.253 516.004 525.253C515.654 525.225 515.343 525.239 515.073 525.295C514.807 525.351 514.58 525.447 514.394 525.582C514.212 525.713 514.074 525.881 513.981 526.086C513.887 526.287 513.841 526.522 513.841 526.793V531H512.14ZM517.766 524.525L518.557 522.698L517.899 522.649V520.878H519.761V522.432L518.452 524.525H517.766Z" fill="black"/>
<path d="M387.282 472.544C387.824 472.435 388.174 471.907 388.065 471.366L386.284 462.544C386.175 462.002 385.647 461.652 385.106 461.761C384.565 461.871 384.214 462.398 384.324 462.939L385.906 470.781L378.064 472.364C377.523 472.473 377.173 473.001 377.282 473.542C377.391 474.084 377.919 474.434 378.46 474.325L387.282 472.544ZM288.149 405.86L287.596 406.693L287.596 406.693L288.149 405.86ZM281.832 400.464C281.372 400.158 280.751 400.284 280.446 400.744C280.14 401.204 280.265 401.824 280.725 402.13L281.832 400.464ZM229.341 368.005C229.801 368.311 230.422 368.185 230.727 367.725C231.033 367.265 230.907 366.645 230.447 366.339L229.341 368.005ZM223.024 362.609L223.577 361.776L223.577 361.776L223.024 362.609ZM179.758 333.876L179.205 334.709L179.205 334.709L179.758 333.876ZM131.469 300.606C131.009 300.301 130.388 300.426 130.083 300.886C129.777 301.346 129.902 301.967 130.362 302.272L131.469 300.606ZM387.638 470.731L288.702 405.027L287.596 406.693L386.531 472.397L387.638 470.731ZM288.702 405.027L281.832 400.464L280.725 402.13L287.596 406.693L288.702 405.027ZM230.447 366.339L223.577 361.776L222.471 363.442L229.341 368.005L230.447 366.339ZM223.577 361.776L180.311 333.043L179.205 334.709L222.471 363.442L223.577 361.776ZM180.311 333.043L131.469 300.606L130.362 302.272L179.205 334.709L180.311 333.043Z" fill="#1A1B1D"/>
<path d="M230.738 389.735V379.553H232.274V388.412H236.887V389.735H230.738ZM239.865 389.735H238.235L241.899 379.553H243.674L247.338 389.735H245.707L242.829 381.402H242.749L239.865 389.735ZM240.139 385.747H245.429V387.04H240.139V385.747ZM246.949 380.875V379.553H254.829V380.875H251.652V389.735H250.121V380.875H246.949ZM256.416 389.735V379.553H262.8V380.875H257.952V383.977H262.467V385.295H257.952V388.412H262.859V389.735H256.416ZM270.251 382.227C270.198 381.757 269.979 381.392 269.595 381.134C269.21 380.872 268.726 380.741 268.143 380.741C267.725 380.741 267.364 380.807 267.059 380.94C266.754 381.069 266.517 381.248 266.348 381.477C266.183 381.702 266.1 381.959 266.1 382.247C266.1 382.489 266.156 382.698 266.269 382.874C266.385 383.049 266.536 383.197 266.721 383.316C266.91 383.432 267.112 383.53 267.328 383.61C267.543 383.686 267.75 383.749 267.949 383.798L268.943 384.057C269.268 384.137 269.601 384.244 269.943 384.38C270.284 384.516 270.601 384.695 270.892 384.917C271.184 385.139 271.419 385.414 271.598 385.742C271.781 386.07 271.872 386.463 271.872 386.921C271.872 387.497 271.723 388.009 271.424 388.457C271.129 388.904 270.7 389.257 270.137 389.516C269.576 389.774 268.899 389.904 268.103 389.904C267.341 389.904 266.681 389.783 266.125 389.541C265.568 389.299 265.132 388.956 264.817 388.512C264.502 388.064 264.328 387.534 264.295 386.921H265.836C265.866 387.289 265.985 387.595 266.194 387.84C266.406 388.082 266.676 388.263 267.004 388.382C267.336 388.498 267.699 388.556 268.093 388.556C268.527 388.556 268.914 388.488 269.252 388.352C269.593 388.213 269.862 388.021 270.057 387.776C270.253 387.527 270.35 387.237 270.35 386.906C270.35 386.604 270.264 386.357 270.092 386.165C269.923 385.973 269.692 385.814 269.401 385.688C269.112 385.562 268.786 385.451 268.421 385.355L267.218 385.026C266.403 384.804 265.757 384.478 265.279 384.047C264.805 383.616 264.568 383.046 264.568 382.337C264.568 381.75 264.728 381.238 265.046 380.801C265.364 380.363 265.795 380.023 266.338 379.781C266.882 379.536 267.495 379.414 268.178 379.414C268.867 379.414 269.475 379.534 270.002 379.776C270.533 380.018 270.95 380.351 271.255 380.776C271.56 381.197 271.719 381.681 271.732 382.227H270.251ZM273.051 380.875V379.553H280.931V380.875H277.754V389.735H276.223V380.875H273.051Z" fill="black" fill-opacity="0.8"/>
</svg>
