<?xml version="1.0" encoding="UTF-8" standalone="no"?>
<!DOCTYPE svg PUBLIC "-//W3C//DTD SVG 1.1//EN"
 "http://www.w3.org/Graphics/SVG/1.1/DTD/svg11.dtd">
<!-- Generated by graphviz version 2.44.0 ()
 -->
<!-- Title: L Pages: 1 -->
<svg width="190pt" height="153pt"
 viewBox="0.00 0.00 190.00 153.00" xmlns="http://www.w3.org/2000/svg" xmlns:xlink="http://www.w3.org/1999/xlink">
<g id="graph0" class="graph" transform="scale(1 1) rotate(0) translate(4 149)">
<title>L</title>
<polygon fill="white" stroke="transparent" points="-4,4 -4,-149 186,-149 186,4 -4,4"/>
<!-- N6 -->
<g id="node1" class="node">
<title>N6</title>
<path fill="none" stroke="black" d="M60,-0.5C60,-0.5 118,-0.5 118,-0.5 124,-0.5 130,-6.5 130,-12.5 130,-12.5 130,-34.5 130,-34.5 130,-40.5 124,-46.5 118,-46.5 118,-46.5 60,-46.5 60,-46.5 54,-46.5 48,-40.5 48,-34.5 48,-34.5 48,-12.5 48,-12.5 48,-6.5 54,-0.5 60,-0.5"/>
<text text-anchor="middle" x="89" y="-31.3" font-family="Times,serif" font-size="14.00">Year</text>
<polyline fill="none" stroke="black" points="48,-23.5 130,-23.5 "/>
<text text-anchor="start" x="56" y="-8.3" font-family="Times,serif" font-size="14.00">year = 2014</text>
</g>
<!-- N8 -->
<g id="node2" class="node">
<title>N8</title>
<path fill="none" stroke="black" d="M12,-98.5C12,-98.5 68,-98.5 68,-98.5 74,-98.5 80,-104.5 80,-110.5 80,-110.5 80,-132.5 80,-132.5 80,-138.5 74,-144.5 68,-144.5 68,-144.5 12,-144.5 12,-144.5 6,-144.5 0,-138.5 0,-132.5 0,-132.5 0,-110.5 0,-110.5 0,-104.5 6,-98.5 12,-98.5"/>
<text text-anchor="middle" x="40" y="-129.3" font-family="Times,serif" font-size="14.00">Month</text>
<polyline fill="none" stroke="black" points="0,-121.5 80,-121.5 "/>
<text text-anchor="start" x="8" y="-106.3" font-family="Times,serif" font-size="14.00">month = 11</text>
</g>
<!-- N8&#45;&gt;N6 -->
<g id="edge1" class="edge">
<title>N8&#45;&gt;N6</title>
<path fill="none" stroke="#2e3436" d="M44.75,-98.42C47.5,-87.93 51.52,-75.44 57,-65 58.82,-61.53 60.95,-58.06 63.24,-54.7"/>
<polygon fill="#2e3436" stroke="#2e3436" points="66.08,-56.75 69.14,-46.6 60.42,-52.62 66.08,-56.75"/>
<text text-anchor="middle" x="86.5" y="-68.8" font-family="Times,serif" font-size="14.00" fill="#2e3436">IN_YEAR</text>
</g>
<!-- N7 -->
<g id="node3" class="node">
<title>N7</title>
<path fill="none" stroke="black" d="M110,-98.5C110,-98.5 166,-98.5 166,-98.5 172,-98.5 178,-104.5 178,-110.5 178,-110.5 178,-132.5 178,-132.5 178,-138.5 172,-144.5 166,-144.5 166,-144.5 110,-144.5 110,-144.5 104,-144.5 98,-138.5 98,-132.5 98,-132.5 98,-110.5 98,-110.5 98,-104.5 104,-98.5 110,-98.5"/>
<text text-anchor="middle" x="138" y="-129.3" font-family="Times,serif" font-size="14.00">Month</text>
<polyline fill="none" stroke="black" points="98,-121.5 178,-121.5 "/>
<text text-anchor="start" x="106" y="-106.3" font-family="Times,serif" font-size="14.00">month = 10</text>
</g>
<!-- N7&#45;&gt;N6 -->
<g id="edge2" class="edge">
<title>N7&#45;&gt;N6</title>
<path fill="none" stroke="#2e3436" d="M130.46,-98.41C126.62,-88.04 121.58,-75.65 116,-65 114.29,-61.74 112.38,-58.42 110.39,-55.14"/>
<polygon fill="#2e3436" stroke="#2e3436" points="113.33,-53.24 105.01,-46.69 107.43,-57 113.33,-53.24"/>
<text text-anchor="middle" x="152.5" y="-68.8" font-family="Times,serif" font-size="14.00" fill="#2e3436">IN_YEAR</text>
</g>
</g>
</svg>
