<?xml version="1.0" encoding="UTF-8" standalone="no"?>
<!DOCTYPE svg PUBLIC "-//W3C//DTD SVG 1.1//EN"
 "http://www.w3.org/Graphics/SVG/1.1/DTD/svg11.dtd">
<!-- Generated by graphviz version 2.44.0 ()
 -->
<!-- Title: L Pages: 1 -->
<svg width="284pt" height="70pt"
 viewBox="0.00 0.00 283.50 70.00" xmlns="http://www.w3.org/2000/svg" xmlns:xlink="http://www.w3.org/1999/xlink">
<g id="graph0" class="graph" transform="scale(1 1) rotate(0) translate(4 66)">
<title>L</title>
<polygon fill="white" stroke="transparent" points="-4,4 -4,-66 279.5,-66 279.5,4 -4,4"/>
<!-- N0 -->
<g id="node1" class="node">
<title>N0</title>
<path fill="none" stroke="black" d="M12,-0.5C12,-0.5 109,-0.5 109,-0.5 115,-0.5 121,-6.5 121,-12.5 121,-12.5 121,-49.5 121,-49.5 121,-55.5 115,-61.5 109,-61.5 109,-61.5 12,-61.5 12,-61.5 6,-61.5 0,-55.5 0,-49.5 0,-49.5 0,-12.5 0,-12.5 0,-6.5 6,-0.5 12,-0.5"/>
<text text-anchor="middle" x="60.5" y="-46.3" font-family="Times,serif" font-size="14.00">Movie</text>
<polyline fill="none" stroke="black" points="0,-38.5 121,-38.5 "/>
<text text-anchor="start" x="8" y="-23.3" font-family="Times,serif" font-size="14.00">title = &#39;The Matrix&#39;</text>
<text text-anchor="start" x="8" y="-8.3" font-family="Times,serif" font-size="14.00">released = 1997</text>
</g>
<!-- N1 -->
<g id="node2" class="node">
<title>N1</title>
<path fill="none" stroke="black" d="M151.5,-0.5C151.5,-0.5 263.5,-0.5 263.5,-0.5 269.5,-0.5 275.5,-6.5 275.5,-12.5 275.5,-12.5 275.5,-49.5 275.5,-49.5 275.5,-55.5 269.5,-61.5 263.5,-61.5 263.5,-61.5 151.5,-61.5 151.5,-61.5 145.5,-61.5 139.5,-55.5 139.5,-49.5 139.5,-49.5 139.5,-12.5 139.5,-12.5 139.5,-6.5 145.5,-0.5 151.5,-0.5"/>
<text text-anchor="middle" x="207.5" y="-46.3" font-family="Times,serif" font-size="14.00">Movie</text>
<polyline fill="none" stroke="black" points="139.5,-38.5 275.5,-38.5 "/>
<text text-anchor="start" x="147.5" y="-23.3" font-family="Times,serif" font-size="14.00">title = &#39;Forrest Gump&#39;</text>
<text text-anchor="start" x="147.5" y="-8.3" font-family="Times,serif" font-size="14.00">released = 1994</text>
</g>
</g>
</svg>
