<?xml version="1.0" encoding="UTF-8" standalone="no"?>
<!DOCTYPE svg PUBLIC "-//W3C//DTD SVG 1.1//EN"
 "http://www.w3.org/Graphics/SVG/1.1/DTD/svg11.dtd">
<!-- Generated by graphviz version 2.44.0 ()
 -->
<!-- Title: L Pages: 1 -->
<svg width="200pt" height="281pt"
 viewBox="0.00 0.00 200.00 281.00" xmlns="http://www.w3.org/2000/svg" xmlns:xlink="http://www.w3.org/1999/xlink">
<g id="graph0" class="graph" transform="scale(1 1) rotate(0) translate(4 277)">
<title>L</title>
<polygon fill="white" stroke="transparent" points="-4,4 -4,-277 196,-277 196,4 -4,4"/>
<!-- N0 -->
<g id="node1" class="node">
<title>N0</title>
<path fill="none" stroke="black" d="M25.5,-98.5C25.5,-98.5 132.5,-98.5 132.5,-98.5 138.5,-98.5 144.5,-104.5 144.5,-110.5 144.5,-110.5 144.5,-147.5 144.5,-147.5 144.5,-153.5 138.5,-159.5 132.5,-159.5 132.5,-159.5 25.5,-159.5 25.5,-159.5 19.5,-159.5 13.5,-153.5 13.5,-147.5 13.5,-147.5 13.5,-110.5 13.5,-110.5 13.5,-104.5 19.5,-98.5 25.5,-98.5"/>
<text text-anchor="middle" x="79" y="-144.3" font-family="Times,serif" font-size="14.00">Movie</text>
<polyline fill="none" stroke="black" points="13.5,-136.5 144.5,-136.5 "/>
<text text-anchor="start" x="21.5" y="-121.3" font-family="Times,serif" font-size="14.00">title = &#39;movie title&#39;</text>
<text text-anchor="start" x="21.5" y="-106.3" font-family="Times,serif" font-size="14.00">year = &#39;year released&#39;</text>
</g>
<!-- N8 -->
<g id="node3" class="node">
<title>N8</title>
<path fill="none" stroke="black" d="M12,-0.5C12,-0.5 146,-0.5 146,-0.5 152,-0.5 158,-6.5 158,-12.5 158,-12.5 158,-34.5 158,-34.5 158,-40.5 152,-46.5 146,-46.5 146,-46.5 12,-46.5 12,-46.5 6,-46.5 0,-40.5 0,-34.5 0,-34.5 0,-12.5 0,-12.5 0,-6.5 6,-0.5 12,-0.5"/>
<text text-anchor="middle" x="79" y="-31.3" font-family="Times,serif" font-size="14.00">Country</text>
<polyline fill="none" stroke="black" points="0,-23.5 158,-23.5 "/>
<text text-anchor="start" x="8" y="-8.3" font-family="Times,serif" font-size="14.00">name = &#39;name of country&#39;</text>
</g>
<!-- N0&#45;&gt;N8 -->
<g id="edge2" class="edge">
<title>N0&#45;&gt;N8</title>
<path fill="none" stroke="#2e3436" d="M79,-98.34C79,-85.33 79,-70.03 79,-56.74"/>
<polygon fill="#2e3436" stroke="#2e3436" points="82.5,-56.59 79,-46.59 75.5,-56.59 82.5,-56.59"/>
<text text-anchor="middle" x="103.5" y="-68.8" font-family="Times,serif" font-size="14.00" fill="#2e3436">ORIGIN</text>
</g>
<!-- N3 -->
<g id="node2" class="node">
<title>N3</title>
<path fill="none" stroke="black" d="M15,-226.5C15,-226.5 143,-226.5 143,-226.5 149,-226.5 155,-232.5 155,-238.5 155,-238.5 155,-260.5 155,-260.5 155,-266.5 149,-272.5 143,-272.5 143,-272.5 15,-272.5 15,-272.5 9,-272.5 3,-266.5 3,-260.5 3,-260.5 3,-238.5 3,-238.5 3,-232.5 9,-226.5 15,-226.5"/>
<text text-anchor="middle" x="79" y="-257.3" font-family="Times,serif" font-size="14.00">Person</text>
<polyline fill="none" stroke="black" points="3,-249.5 155,-249.5 "/>
<text text-anchor="start" x="11" y="-234.3" font-family="Times,serif" font-size="14.00">name = &#39;name of person&#39;</text>
</g>
<!-- N3&#45;&gt;N0 -->
<g id="edge1" class="edge">
<title>N3&#45;&gt;N0</title>
<path fill="none" stroke="#4e9a06" d="M79,-226.49C79,-210.68 79,-188.91 79,-170.06"/>
<polygon fill="#4e9a06" stroke="#4e9a06" points="82.5,-169.94 79,-159.94 75.5,-169.94 82.5,-169.94"/>
<text text-anchor="middle" x="135.5" y="-196.8" font-family="Times,serif" font-size="14.00" fill="#4e9a06">ACTED_IN</text>
<text text-anchor="start" x="79" y="-181.8" font-family="Times,serif" font-size="14.00" fill="#4e9a06">role = &#39;name of role&#39;</text>
</g>
</g>
</svg>
