<?xml version="1.0" encoding="UTF-8" standalone="no"?>
<!DOCTYPE svg PUBLIC "-//W3C//DTD SVG 1.1//EN"
 "http://www.w3.org/Graphics/SVG/1.1/DTD/svg11.dtd">
<!-- Generated by graphviz version 2.44.0 ()
 -->
<!-- Title: L Pages: 1 -->
<svg width="982pt" height="281pt"
 viewBox="0.00 0.00 982.10 281.00" xmlns="http://www.w3.org/2000/svg" xmlns:xlink="http://www.w3.org/1999/xlink">
<g id="graph0" class="graph" transform="scale(1 1) rotate(0) translate(4 277)">
<title>L</title>
<polygon fill="white" stroke="transparent" points="-4,4 -4,-277 978.1,-277 978.1,4 -4,4"/>
<!-- N0 -->
<g id="node1" class="node">
<title>N0</title>
<path fill="none" stroke="black" d="M448.6,-98.5C448.6,-98.5 545.6,-98.5 545.6,-98.5 551.6,-98.5 557.6,-104.5 557.6,-110.5 557.6,-110.5 557.6,-147.5 557.6,-147.5 557.6,-153.5 551.6,-159.5 545.6,-159.5 545.6,-159.5 448.6,-159.5 448.6,-159.5 442.6,-159.5 436.6,-153.5 436.6,-147.5 436.6,-147.5 436.6,-110.5 436.6,-110.5 436.6,-104.5 442.6,-98.5 448.6,-98.5"/>
<text text-anchor="middle" x="497.1" y="-144.3" font-family="Times,serif" font-size="14.00">Movie</text>
<polyline fill="none" stroke="black" points="436.6,-136.5 557.6,-136.5 "/>
<text text-anchor="start" x="444.6" y="-121.3" font-family="Times,serif" font-size="14.00">title = &#39;Wall Street&#39;</text>
<text text-anchor="start" x="444.6" y="-106.3" font-family="Times,serif" font-size="14.00">year = 1987</text>
</g>
<!-- N8 -->
<g id="node8" class="node">
<title>N8</title>
<path fill="none" stroke="black" d="M461.6,-0.5C461.6,-0.5 532.6,-0.5 532.6,-0.5 538.6,-0.5 544.6,-6.5 544.6,-12.5 544.6,-12.5 544.6,-34.5 544.6,-34.5 544.6,-40.5 538.6,-46.5 532.6,-46.5 532.6,-46.5 461.6,-46.5 461.6,-46.5 455.6,-46.5 449.6,-40.5 449.6,-34.5 449.6,-34.5 449.6,-12.5 449.6,-12.5 449.6,-6.5 455.6,-0.5 461.6,-0.5"/>
<text text-anchor="middle" x="497.1" y="-31.3" font-family="Times,serif" font-size="14.00">Country</text>
<polyline fill="none" stroke="black" points="449.6,-23.5 544.6,-23.5 "/>
<text text-anchor="start" x="457.6" y="-8.3" font-family="Times,serif" font-size="14.00">name = &#39;USA&#39;</text>
</g>
<!-- N0&#45;&gt;N8 -->
<g id="edge7" class="edge">
<title>N0&#45;&gt;N8</title>
<path fill="none" stroke="#2e3436" d="M497.1,-98.34C497.1,-85.33 497.1,-70.03 497.1,-56.74"/>
<polygon fill="#2e3436" stroke="#2e3436" points="500.6,-56.59 497.1,-46.59 493.6,-56.59 500.6,-56.59"/>
<text text-anchor="middle" x="521.6" y="-68.8" font-family="Times,serif" font-size="14.00" fill="#2e3436">ORIGIN</text>
</g>
<!-- N1 -->
<g id="node2" class="node">
<title>N1</title>
<path fill="none" stroke="black" d="M654.1,-98.5C654.1,-98.5 846.1,-98.5 846.1,-98.5 852.1,-98.5 858.1,-104.5 858.1,-110.5 858.1,-110.5 858.1,-147.5 858.1,-147.5 858.1,-153.5 852.1,-159.5 846.1,-159.5 846.1,-159.5 654.1,-159.5 654.1,-159.5 648.1,-159.5 642.1,-153.5 642.1,-147.5 642.1,-147.5 642.1,-110.5 642.1,-110.5 642.1,-104.5 648.1,-98.5 654.1,-98.5"/>
<text text-anchor="middle" x="750.1" y="-144.3" font-family="Times,serif" font-size="14.00">Movie</text>
<polyline fill="none" stroke="black" points="642.1,-136.5 858.1,-136.5 "/>
<text text-anchor="start" x="650.1" y="-121.3" font-family="Times,serif" font-size="14.00">title = &#39;The Shawshank Redemption&#39;</text>
<text text-anchor="start" x="650.1" y="-106.3" font-family="Times,serif" font-size="14.00">year = 1994</text>
</g>
<!-- N1&#45;&gt;N8 -->
<g id="edge8" class="edge">
<title>N1&#45;&gt;N8</title>
<path fill="none" stroke="#2e3436" d="M677.94,-98.48C638.79,-82.46 591.07,-62.94 554.48,-47.97"/>
<polygon fill="#2e3436" stroke="#2e3436" points="555.53,-44.62 544.95,-44.07 552.88,-51.1 555.53,-44.62"/>
<text text-anchor="middle" x="655.6" y="-68.8" font-family="Times,serif" font-size="14.00" fill="#2e3436">ORIGIN</text>
</g>
<!-- N2 -->
<g id="node3" class="node">
<title>N2</title>
<path fill="none" stroke="black" d="M194.1,-98.5C194.1,-98.5 362.1,-98.5 362.1,-98.5 368.1,-98.5 374.1,-104.5 374.1,-110.5 374.1,-110.5 374.1,-147.5 374.1,-147.5 374.1,-153.5 368.1,-159.5 362.1,-159.5 362.1,-159.5 194.1,-159.5 194.1,-159.5 188.1,-159.5 182.1,-153.5 182.1,-147.5 182.1,-147.5 182.1,-110.5 182.1,-110.5 182.1,-104.5 188.1,-98.5 194.1,-98.5"/>
<text text-anchor="middle" x="278.1" y="-144.3" font-family="Times,serif" font-size="14.00">Movie</text>
<polyline fill="none" stroke="black" points="182.1,-136.5 374.1,-136.5 "/>
<text text-anchor="start" x="190.1" y="-121.3" font-family="Times,serif" font-size="14.00">title = &#39;The American President&#39;</text>
<text text-anchor="start" x="190.1" y="-106.3" font-family="Times,serif" font-size="14.00">year = 1995</text>
</g>
<!-- N2&#45;&gt;N8 -->
<g id="edge9" class="edge">
<title>N2&#45;&gt;N8</title>
<path fill="none" stroke="#2e3436" d="M340.56,-98.48C372.19,-83.53 410.27,-65.54 440.96,-51.03"/>
<polygon fill="#2e3436" stroke="#2e3436" points="442.68,-54.09 450.23,-46.65 439.69,-47.76 442.68,-54.09"/>
<text text-anchor="middle" x="432.6" y="-68.8" font-family="Times,serif" font-size="14.00" fill="#2e3436">ORIGIN</text>
</g>
<!-- N3 -->
<g id="node4" class="node">
<title>N3</title>
<path fill="none" stroke="black" d="M51.6,-226.5C51.6,-226.5 168.6,-226.5 168.6,-226.5 174.6,-226.5 180.6,-232.5 180.6,-238.5 180.6,-238.5 180.6,-260.5 180.6,-260.5 180.6,-266.5 174.6,-272.5 168.6,-272.5 168.6,-272.5 51.6,-272.5 51.6,-272.5 45.6,-272.5 39.6,-266.5 39.6,-260.5 39.6,-260.5 39.6,-238.5 39.6,-238.5 39.6,-232.5 45.6,-226.5 51.6,-226.5"/>
<text text-anchor="middle" x="110.1" y="-257.3" font-family="Times,serif" font-size="14.00">Person</text>
<polyline fill="none" stroke="black" points="39.6,-249.5 180.6,-249.5 "/>
<text text-anchor="start" x="47.6" y="-234.3" font-family="Times,serif" font-size="14.00">name = &#39;Martin Sheen&#39;</text>
</g>
<!-- N3&#45;&gt;N0 -->
<g id="edge2" class="edge">
<title>N3&#45;&gt;N0</title>
<path fill="none" stroke="#4e9a06" d="M128.26,-226.17C143.81,-207.69 165.46,-183.61 177.1,-178 218.5,-158.05 337.83,-167.88 383.1,-160 397.35,-157.52 412.43,-154.12 426.78,-150.5"/>
<polygon fill="#4e9a06" stroke="#4e9a06" points="427.78,-153.86 436.59,-147.97 426.03,-147.08 427.78,-153.86"/>
<text text-anchor="middle" x="223.1" y="-196.8" font-family="Times,serif" font-size="14.00" fill="#4e9a06">ACTED_IN</text>
<text text-anchor="start" x="177.1" y="-181.8" font-family="Times,serif" font-size="14.00" fill="#4e9a06">role = &#39;Carl Fox&#39;</text>
</g>
<!-- N3&#45;&gt;N2 -->
<g id="edge5" class="edge">
<title>N3&#45;&gt;N2</title>
<path fill="none" stroke="#4e9a06" d="M39.42,-234.14C26.3,-228.21 14.19,-219.84 6.1,-208 -1.42,-196.99 -2.47,-188.21 6.1,-178 27.39,-152.62 104.92,-140.66 171.79,-135.02"/>
<polygon fill="#4e9a06" stroke="#4e9a06" points="172.31,-138.49 181.99,-134.2 171.75,-131.51 172.31,-138.49"/>
<text text-anchor="middle" x="73.6" y="-196.8" font-family="Times,serif" font-size="14.00" fill="#4e9a06">ACTED_IN</text>
<text text-anchor="start" x="6.1" y="-181.8" font-family="Times,serif" font-size="14.00" fill="#4e9a06">role = &#39;A.J. MacInerney&#39;</text>
</g>
<!-- N4 -->
<g id="node5" class="node">
<title>N4</title>
<path fill="none" stroke="black" d="M584.6,-226.5C584.6,-226.5 705.6,-226.5 705.6,-226.5 711.6,-226.5 717.6,-232.5 717.6,-238.5 717.6,-238.5 717.6,-260.5 717.6,-260.5 717.6,-266.5 711.6,-272.5 705.6,-272.5 705.6,-272.5 584.6,-272.5 584.6,-272.5 578.6,-272.5 572.6,-266.5 572.6,-260.5 572.6,-260.5 572.6,-238.5 572.6,-238.5 572.6,-232.5 578.6,-226.5 584.6,-226.5"/>
<text text-anchor="middle" x="645.1" y="-257.3" font-family="Times,serif" font-size="14.00">Person</text>
<polyline fill="none" stroke="black" points="572.6,-249.5 717.6,-249.5 "/>
<text text-anchor="start" x="580.6" y="-234.3" font-family="Times,serif" font-size="14.00">name = &#39;Charlie Sheen&#39;</text>
</g>
<!-- N4&#45;&gt;N0 -->
<g id="edge1" class="edge">
<title>N4&#45;&gt;N0</title>
<path fill="none" stroke="#4e9a06" d="M643.22,-226.25C640.82,-210.94 635.4,-191.08 623.1,-178 608.22,-162.17 587.57,-151.51 567.29,-144.35"/>
<polygon fill="#4e9a06" stroke="#4e9a06" points="568.3,-141 557.7,-141.21 566.12,-147.65 568.3,-141"/>
<text text-anchor="middle" x="683.6" y="-196.8" font-family="Times,serif" font-size="14.00" fill="#4e9a06">ACTED_IN</text>
<text text-anchor="start" x="638.1" y="-181.8" font-family="Times,serif" font-size="14.00" fill="#4e9a06">role = &#39;Bud Fox&#39;</text>
</g>
<!-- N6 -->
<g id="node6" class="node">
<title>N6</title>
<path fill="none" stroke="black" d="M748.1,-226.5C748.1,-226.5 886.1,-226.5 886.1,-226.5 892.1,-226.5 898.1,-232.5 898.1,-238.5 898.1,-238.5 898.1,-260.5 898.1,-260.5 898.1,-266.5 892.1,-272.5 886.1,-272.5 886.1,-272.5 748.1,-272.5 748.1,-272.5 742.1,-272.5 736.1,-266.5 736.1,-260.5 736.1,-260.5 736.1,-238.5 736.1,-238.5 736.1,-232.5 742.1,-226.5 748.1,-226.5"/>
<text text-anchor="middle" x="817.1" y="-257.3" font-family="Times,serif" font-size="14.00">Person</text>
<polyline fill="none" stroke="black" points="736.1,-249.5 898.1,-249.5 "/>
<text text-anchor="start" x="744.1" y="-234.3" font-family="Times,serif" font-size="14.00">name = &#39;Morgan Freeman&#39;</text>
</g>
<!-- N6&#45;&gt;N1 -->
<g id="edge6" class="edge">
<title>N6&#45;&gt;N1</title>
<path fill="none" stroke="#4e9a06" d="M804.66,-226.49C795.51,-210.31 782.84,-187.9 772.01,-168.75"/>
<polygon fill="#4e9a06" stroke="#4e9a06" points="775,-166.92 767.03,-159.94 768.9,-170.36 775,-166.92"/>
<text text-anchor="middle" x="883.6" y="-196.8" font-family="Times,serif" font-size="14.00" fill="#4e9a06">ACTED_IN</text>
<text text-anchor="start" x="793.1" y="-181.8" font-family="Times,serif" font-size="14.00" fill="#4e9a06">role = &#39;Ellis Boyd &#39;Red&#39; Redding&#39;</text>
</g>
<!-- N7 -->
<g id="node7" class="node">
<title>N7</title>
<path fill="none" stroke="black" d="M262.6,-226.5C262.6,-226.5 399.6,-226.5 399.6,-226.5 405.6,-226.5 411.6,-232.5 411.6,-238.5 411.6,-238.5 411.6,-260.5 411.6,-260.5 411.6,-266.5 405.6,-272.5 399.6,-272.5 399.6,-272.5 262.6,-272.5 262.6,-272.5 256.6,-272.5 250.6,-266.5 250.6,-260.5 250.6,-260.5 250.6,-238.5 250.6,-238.5 250.6,-232.5 256.6,-226.5 262.6,-226.5"/>
<text text-anchor="middle" x="331.1" y="-257.3" font-family="Times,serif" font-size="14.00">Person</text>
<polyline fill="none" stroke="black" points="250.6,-249.5 411.6,-249.5 "/>
<text text-anchor="start" x="258.6" y="-234.3" font-family="Times,serif" font-size="14.00">name = &#39;Michael Douglas&#39;</text>
</g>
<!-- N7&#45;&gt;N0 -->
<g id="edge3" class="edge">
<title>N7&#45;&gt;N0</title>
<path fill="none" stroke="#4e9a06" d="M411.87,-240.73C434.85,-234.87 458.2,-224.89 475.1,-208 485.17,-197.94 490.72,-183.64 493.75,-170.03"/>
<polygon fill="#4e9a06" stroke="#4e9a06" points="497.25,-170.3 495.6,-159.84 490.37,-169.05 497.25,-170.3"/>
<text text-anchor="middle" x="552.6" y="-196.8" font-family="Times,serif" font-size="14.00" fill="#4e9a06">ACTED_IN</text>
<text text-anchor="start" x="490.1" y="-181.8" font-family="Times,serif" font-size="14.00" fill="#4e9a06">role = &#39;Gordon Gekko&#39;</text>
</g>
<!-- N7&#45;&gt;N2 -->
<g id="edge4" class="edge">
<title>N7&#45;&gt;N2</title>
<path fill="none" stroke="#4e9a06" d="M293.76,-226.33C287.85,-221.09 282.56,-214.97 279.1,-208 273.3,-196.32 271.72,-182.4 272.01,-169.57"/>
<polygon fill="#4e9a06" stroke="#4e9a06" points="275.5,-169.76 272.6,-159.58 268.52,-169.36 275.5,-169.76"/>
<text text-anchor="middle" x="377.1" y="-196.8" font-family="Times,serif" font-size="14.00" fill="#4e9a06">ACTED_IN</text>
<text text-anchor="start" x="279.1" y="-181.8" font-family="Times,serif" font-size="14.00" fill="#4e9a06">role = &#39;President Andrew Shepherd&#39;</text>
</g>
</g>
</svg>
