<?xml version="1.0" encoding="UTF-8" standalone="no"?>
<!DOCTYPE svg PUBLIC "-//W3C//DTD SVG 1.1//EN"
 "http://www.w3.org/Graphics/SVG/1.1/DTD/svg11.dtd">
<!-- Generated by graphviz version 2.44.0 ()
 -->
<!-- Title: L Pages: 1 -->
<svg width="408pt" height="58pt"
 viewBox="0.00 0.00 408.00 57.50" xmlns="http://www.w3.org/2000/svg" xmlns:xlink="http://www.w3.org/1999/xlink">
<g id="graph0" class="graph" transform="scale(1 1) rotate(0) translate(4 53.5)">
<title>L</title>
<polygon fill="white" stroke="transparent" points="-4,4 -4,-53.5 404,-53.5 404,4 -4,4"/>
<!-- N2 -->
<g id="node1" class="node">
<title>N2</title>
<path fill="none" stroke="black" d="M12,-0.5C12,-0.5 120,-0.5 120,-0.5 126,-0.5 132,-6.5 132,-12.5 132,-12.5 132,-26.5 132,-26.5 132,-32.5 126,-38.5 120,-38.5 120,-38.5 12,-38.5 12,-38.5 6,-38.5 0,-32.5 0,-26.5 0,-26.5 0,-12.5 0,-12.5 0,-6.5 6,-0.5 12,-0.5"/>
<text text-anchor="start" x="8" y="-23.3" font-family="Times,serif" font-size="14.00">name = &#39;Tom Hanks&#39;</text>
<text text-anchor="start" x="8" y="-8.3" font-family="Times,serif" font-size="14.00">born = 1956</text>
</g>
<!-- N3 -->
<g id="node2" class="node">
<title>N3</title>
<path fill="none" stroke="black" d="M276,-0.5C276,-0.5 388,-0.5 388,-0.5 394,-0.5 400,-6.5 400,-12.5 400,-12.5 400,-26.5 400,-26.5 400,-32.5 394,-38.5 388,-38.5 388,-38.5 276,-38.5 276,-38.5 270,-38.5 264,-32.5 264,-26.5 264,-26.5 264,-12.5 264,-12.5 264,-6.5 270,-0.5 276,-0.5"/>
<text text-anchor="start" x="272" y="-23.3" font-family="Times,serif" font-size="14.00">title = &#39;Forrest Gump&#39;</text>
<text text-anchor="start" x="272" y="-8.3" font-family="Times,serif" font-size="14.00">released = 1994</text>
</g>
<!-- N2&#45;&gt;N3 -->
<g id="edge1" class="edge">
<title>N2&#45;&gt;N3</title>
<path fill="none" stroke="black" d="M132.26,-19.5C168.98,-19.5 215.06,-19.5 253.6,-19.5"/>
<polygon fill="black" stroke="black" points="253.74,-23 263.74,-19.5 253.74,-16 253.74,-23"/>
<text text-anchor="middle" x="198" y="-38.3" font-family="Times,serif" font-size="14.00">ACTED_IN</text>
<text text-anchor="start" x="150" y="-23.3" font-family="Times,serif" font-size="14.00">roles = [&#39;Forrest&#39;]</text>
</g>
</g>
</svg>
