<?xml version="1.0" encoding="UTF-8" standalone="no"?>
<!DOCTYPE svg PUBLIC "-//W3C//DTD SVG 1.1//EN"
 "http://www.w3.org/Graphics/SVG/1.1/DTD/svg11.dtd">
<!-- Generated by graphviz version 2.44.0 ()
 -->
<!-- Title: L Pages: 1 -->
<svg width="513pt" height="58pt"
 viewBox="0.00 0.00 513.00 57.50" xmlns="http://www.w3.org/2000/svg" xmlns:xlink="http://www.w3.org/1999/xlink">
<g id="graph0" class="graph" transform="scale(1 1) rotate(0) translate(4 53.5)">
<title>L</title>
<polygon fill="white" stroke="transparent" points="-4,4 -4,-53.5 509,-53.5 509,4 -4,4"/>
<!-- N2 -->
<g id="node1" class="node">
<title>N2</title>
<path fill="none" stroke="black" d="M12,-0.5C12,-0.5 173,-0.5 173,-0.5 179,-0.5 185,-6.5 185,-12.5 185,-12.5 185,-26.5 185,-26.5 185,-32.5 179,-38.5 173,-38.5 173,-38.5 12,-38.5 12,-38.5 6,-38.5 0,-32.5 0,-26.5 0,-26.5 0,-12.5 0,-12.5 0,-6.5 6,-0.5 12,-0.5"/>
<text text-anchor="middle" x="26.5" y="-15.8" font-family="Times,serif" font-size="14.00">Person</text>
<polyline fill="none" stroke="black" points="53,-0.5 53,-38.5 "/>
<text text-anchor="start" x="61" y="-23.3" font-family="Times,serif" font-size="14.00">name = &#39;Tom Hanks&#39;</text>
<text text-anchor="start" x="61" y="-8.3" font-family="Times,serif" font-size="14.00">born = 1956</text>
</g>
<!-- N3 -->
<g id="node2" class="node">
<title>N3</title>
<path fill="none" stroke="black" d="M329,-0.5C329,-0.5 493,-0.5 493,-0.5 499,-0.5 505,-6.5 505,-12.5 505,-12.5 505,-26.5 505,-26.5 505,-32.5 499,-38.5 493,-38.5 493,-38.5 329,-38.5 329,-38.5 323,-38.5 317,-32.5 317,-26.5 317,-26.5 317,-12.5 317,-12.5 317,-6.5 323,-0.5 329,-0.5"/>
<text text-anchor="middle" x="343" y="-15.8" font-family="Times,serif" font-size="14.00">Movie</text>
<polyline fill="none" stroke="black" points="369,-0.5 369,-38.5 "/>
<text text-anchor="start" x="377" y="-23.3" font-family="Times,serif" font-size="14.00">title = &#39;Forrest Gump&#39;</text>
<text text-anchor="start" x="377" y="-8.3" font-family="Times,serif" font-size="14.00">released = 1994</text>
</g>
<!-- N2&#45;&gt;N3 -->
<g id="edge1" class="edge">
<title>N2&#45;&gt;N3</title>
<path fill="none" stroke="black" d="M185.04,-19.5C223,-19.5 267.23,-19.5 306.38,-19.5"/>
<polygon fill="black" stroke="black" points="306.74,-23 316.74,-19.5 306.74,-16 306.74,-23"/>
<text text-anchor="middle" x="251" y="-38.3" font-family="Times,serif" font-size="14.00">ACTED_IN</text>
<text text-anchor="start" x="203" y="-23.3" font-family="Times,serif" font-size="14.00">roles = [&#39;Forrest&#39;]</text>
</g>
</g>
</svg>
