<?xml version="1.0" encoding="UTF-8" standalone="no"?>
<!DOCTYPE svg PUBLIC "-//W3C//DTD SVG 1.1//EN"
 "http://www.w3.org/Graphics/SVG/1.1/DTD/svg11.dtd">
<!-- Generated by graphviz version 2.44.0 ()
 -->
<!-- Title: L Pages: 1 -->
<svg width="320pt" height="198pt"
 viewBox="0.00 0.00 319.50 198.00" xmlns="http://www.w3.org/2000/svg" xmlns:xlink="http://www.w3.org/1999/xlink">
<g id="graph0" class="graph" transform="scale(1 1) rotate(0) translate(4 194)">
<title>L</title>
<polygon fill="white" stroke="transparent" points="-4,4 -4,-194 315.5,-194 315.5,4 -4,4"/>
<!-- N2 -->
<g id="node1" class="node">
<title>N2</title>
<polygon fill="none" stroke="black" stroke-dasharray="5,2" points="0,-128.5 0,-189.5 132,-189.5 132,-128.5 0,-128.5"/>
<text text-anchor="middle" x="66" y="-174.3" font-family="Times,serif" font-size="14.00">Person</text>
<polyline fill="none" stroke="black" stroke-dasharray="5,2" points="0,-166.5 132,-166.5 "/>
<text text-anchor="start" x="8" y="-151.3" font-family="Times,serif" font-size="14.00">name = &#39;Tom Hanks&#39;</text>
<text text-anchor="start" x="8" y="-136.3" font-family="Times,serif" font-size="14.00">born = 1956</text>
</g>
<!-- N3 -->
<g id="node2" class="node">
<title>N3</title>
<polygon fill="none" stroke="black" stroke-dasharray="5,2" points="80,-0.5 80,-61.5 216,-61.5 216,-0.5 80,-0.5"/>
<text text-anchor="middle" x="148" y="-46.3" font-family="Times,serif" font-size="14.00">Movie</text>
<polyline fill="none" stroke="black" stroke-dasharray="5,2" points="80,-38.5 216,-38.5 "/>
<text text-anchor="start" x="88" y="-23.3" font-family="Times,serif" font-size="14.00">title = &#39;Forrest Gump&#39;</text>
<text text-anchor="start" x="88" y="-8.3" font-family="Times,serif" font-size="14.00">released = 1994</text>
</g>
<!-- N2&#45;&gt;N3 -->
<g id="edge1" class="edge">
<title>N2&#45;&gt;N3</title>
<path fill="none" stroke="black" stroke-dasharray="5,2" d="M83.03,-128.36C91.71,-113.63 102.59,-95.67 113,-80 115.18,-76.71 117.5,-73.33 119.85,-69.96"/>
<polygon fill="black" stroke="black" points="122.81,-71.85 125.74,-61.67 117.1,-67.8 122.81,-71.85"/>
<text text-anchor="middle" x="161" y="-98.8" font-family="Times,serif" font-size="14.00">ACTED_IN</text>
<text text-anchor="start" x="113" y="-83.8" font-family="Times,serif" font-size="14.00">roles = [&#39;Forrest&#39;]</text>
</g>
<!-- N4 -->
<g id="node3" class="node">
<title>N4</title>
<path fill="none" stroke="black" d="M162.5,-128.5C162.5,-128.5 299.5,-128.5 299.5,-128.5 305.5,-128.5 311.5,-134.5 311.5,-140.5 311.5,-140.5 311.5,-177.5 311.5,-177.5 311.5,-183.5 305.5,-189.5 299.5,-189.5 299.5,-189.5 162.5,-189.5 162.5,-189.5 156.5,-189.5 150.5,-183.5 150.5,-177.5 150.5,-177.5 150.5,-140.5 150.5,-140.5 150.5,-134.5 156.5,-128.5 162.5,-128.5"/>
<text text-anchor="middle" x="231" y="-174.3" font-family="Times,serif" font-size="14.00">Person</text>
<polyline fill="none" stroke="black" points="150.5,-166.5 311.5,-166.5 "/>
<text text-anchor="start" x="158.5" y="-151.3" font-family="Times,serif" font-size="14.00">name = &#39;Robert Zemeckis&#39;</text>
<text text-anchor="start" x="158.5" y="-136.3" font-family="Times,serif" font-size="14.00">born = 1951</text>
</g>
<!-- N4&#45;&gt;N3 -->
<g id="edge2" class="edge">
<title>N4&#45;&gt;N3</title>
<path fill="none" stroke="black" d="M227.15,-128.36C224.08,-112.95 218.62,-94.39 209,-80 206.33,-76.01 203.22,-72.2 199.85,-68.6"/>
<polygon fill="black" stroke="black" points="202.21,-66.01 192.61,-61.51 197.31,-71.01 202.21,-66.01"/>
<text text-anchor="middle" x="255" y="-91.3" font-family="Times,serif" font-size="14.00">DIRECTED</text>
</g>
</g>
</svg>
