<?xml version="1.0" encoding="UTF-8" standalone="no"?>
<svg
   width="300"
   height="200"
   viewbox="0 0 430 362"
   version="1.1"
   id="svg20"
   sodipodi:docname="graph_concept.svg"
   inkscape:version="1.1 (c4e8f9ed74, 2021-05-24)"
   xmlns:inkscape="http://www.inkscape.org/namespaces/inkscape"
   xmlns:sodipodi="http://sodipodi.sourceforge.net/DTD/sodipodi-0.dtd"
   xmlns="http://www.w3.org/2000/svg"
   xmlns:svg="http://www.w3.org/2000/svg">
  <defs
     id="defs24" />
  <sodipodi:namedview
     id="namedview22"
     pagecolor="#ffffff"
     bordercolor="#666666"
     borderopacity="1.0"
     inkscape:pageshadow="2"
     inkscape:pageopacity="0.0"
     inkscape:pagecheckerboard="0"
     showgrid="false"
     inkscape:zoom="2.301105"
     inkscape:cx="190.9952"
     inkscape:cy="146.01681"
     inkscape:window-width="1920"
     inkscape:window-height="1011"
     inkscape:window-x="0"
     inkscape:window-y="32"
     inkscape:window-maximized="1"
     inkscape:current-layer="svg20"
     width="350px" />
  <path
     d="M 83.24466,139.03697 127.83971,68.82943"
     fill="none"
     stroke="#000000"
     stroke-width="2"
     id="path2" />
  <polygon
     transform="matrix(0.26808475,-0.42205517,0.42205517,0.26808475,133.63034,59.71303)"
     points="-24,-8 -21.6,0 -24,8 0,0 "
     fill="undefined"
     stroke="none"
     stroke-width="4"
     id="polygon4" />
  <path
     d="m 163.11966,59.71303 44.59505,70.20754"
     fill="none"
     stroke="#000000"
     stroke-width="2"
     id="path6" />
  <polygon
     transform="matrix(0.26808475,0.42205517,-0.42205517,0.26808475,213.50534,139.03697)"
     points="-24,-8 -21.6,0 -24,8 0,0 "
     fill="undefined"
     stroke="none"
     stroke-width="4"
     id="polygon8" />
  <path
     d="M 200.75,162.25 H 106.8"
     fill="none"
     stroke="#000000"
     stroke-width="2"
     id="path10" />
  <polygon
     transform="matrix(-0.5,0,0,-0.5,96,162.25)"
     points="-24,-8 -21.6,0 -24,8 0,0 "
     fill="undefined"
     stroke="none"
     stroke-width="4"
     id="polygon12" />
  <circle
     cx="68.5"
     cy="162.25"
     r="26.25"
     fill="#018bff"
     stroke="#ffffff"
     strokewidth="5"
     id="circle14"
     style="stroke-width:0.5" />
  <circle
     cx="148.37494"
     cy="36.5"
     r="26.25"
     fill="#018bff"
     stroke="#ffffff"
     strokewidth="5"
     id="circle16"
     style="stroke-width:0.5" />
  <circle
     cx="228.24991"
     cy="162.25"
     r="26.25"
     fill="#018bff"
     stroke="#ffffff"
     strokewidth="5"
     id="circle18"
     style="stroke-width:0.5" />
</svg>
